G04 #@! TF.GenerationSoftware,KiCad,Pcbnew,5.0.2-bee76a0~70~ubuntu16.04.1*
G04 #@! TF.CreationDate,2019-08-17T11:50:25-07:00*
G04 #@! TF.ProjectId,n2adr,6e326164-722e-46b6-9963-61645f706362,E5b9*
G04 #@! TF.SameCoordinates,PX3dfd240PY3473bc0*
G04 #@! TF.FileFunction,Legend,Bot*
G04 #@! TF.FilePolarity,Positive*
%FSLAX46Y46*%
G04 Gerber Fmt 4.6, Leading zero omitted, Abs format (unit mm)*
G04 Created by KiCad (PCBNEW 5.0.2-bee76a0~70~ubuntu16.04.1) date Sat 17 Aug 2019 11:50:25 AM PDT*
%MOMM*%
%LPD*%
G01*
G04 APERTURE LIST*
%ADD10C,0.150000*%
%ADD11C,0.200000*%
%ADD12C,0.120000*%
%ADD13C,0.100000*%
%ADD14C,0.002540*%
G04 APERTURE END LIST*
D10*
X92727380Y-6392857D02*
X91727380Y-6392857D01*
X92203571Y-6392857D02*
X92203571Y-6964285D01*
X92727380Y-6964285D02*
X91727380Y-6964285D01*
X92679761Y-7821428D02*
X92727380Y-7726190D01*
X92727380Y-7535714D01*
X92679761Y-7440476D01*
X92584523Y-7392857D01*
X92203571Y-7392857D01*
X92108333Y-7440476D01*
X92060714Y-7535714D01*
X92060714Y-7726190D01*
X92108333Y-7821428D01*
X92203571Y-7869047D01*
X92298809Y-7869047D01*
X92394047Y-7392857D01*
X92727380Y-8297619D02*
X92060714Y-8297619D01*
X92251190Y-8297619D02*
X92155952Y-8345238D01*
X92108333Y-8392857D01*
X92060714Y-8488095D01*
X92060714Y-8583333D01*
X92727380Y-8916666D02*
X92060714Y-8916666D01*
X92155952Y-8916666D02*
X92108333Y-8964285D01*
X92060714Y-9059523D01*
X92060714Y-9202380D01*
X92108333Y-9297619D01*
X92203571Y-9345238D01*
X92727380Y-9345238D01*
X92203571Y-9345238D02*
X92108333Y-9392857D01*
X92060714Y-9488095D01*
X92060714Y-9630952D01*
X92108333Y-9726190D01*
X92203571Y-9773809D01*
X92727380Y-9773809D01*
X92679761Y-10630952D02*
X92727380Y-10535714D01*
X92727380Y-10345238D01*
X92679761Y-10250000D01*
X92584523Y-10202380D01*
X92203571Y-10202380D01*
X92108333Y-10250000D01*
X92060714Y-10345238D01*
X92060714Y-10535714D01*
X92108333Y-10630952D01*
X92203571Y-10678571D01*
X92298809Y-10678571D01*
X92394047Y-10202380D01*
X92679761Y-11059523D02*
X92727380Y-11154761D01*
X92727380Y-11345238D01*
X92679761Y-11440476D01*
X92584523Y-11488095D01*
X92536904Y-11488095D01*
X92441666Y-11440476D01*
X92394047Y-11345238D01*
X92394047Y-11202380D01*
X92346428Y-11107142D01*
X92251190Y-11059523D01*
X92203571Y-11059523D01*
X92108333Y-11107142D01*
X92060714Y-11202380D01*
X92060714Y-11345238D01*
X92108333Y-11440476D01*
X92727380Y-13154761D02*
X92727380Y-12678571D01*
X91727380Y-12678571D01*
X92727380Y-13488095D02*
X92060714Y-13488095D01*
X91727380Y-13488095D02*
X91775000Y-13440476D01*
X91822619Y-13488095D01*
X91775000Y-13535714D01*
X91727380Y-13488095D01*
X91822619Y-13488095D01*
X92060714Y-13821428D02*
X92060714Y-14202380D01*
X91727380Y-13964285D02*
X92584523Y-13964285D01*
X92679761Y-14011904D01*
X92727380Y-14107142D01*
X92727380Y-14202380D01*
X92679761Y-14916666D02*
X92727380Y-14821428D01*
X92727380Y-14630952D01*
X92679761Y-14535714D01*
X92584523Y-14488095D01*
X92203571Y-14488095D01*
X92108333Y-14535714D01*
X92060714Y-14630952D01*
X92060714Y-14821428D01*
X92108333Y-14916666D01*
X92203571Y-14964285D01*
X92298809Y-14964285D01*
X92394047Y-14488095D01*
X91822619Y-16107142D02*
X91775000Y-16154761D01*
X91727380Y-16250000D01*
X91727380Y-16488095D01*
X91775000Y-16583333D01*
X91822619Y-16630952D01*
X91917857Y-16678571D01*
X92013095Y-16678571D01*
X92155952Y-16630952D01*
X92727380Y-16059523D01*
X92727380Y-16678571D01*
X92203571Y-18202380D02*
X92203571Y-17869047D01*
X92727380Y-17869047D02*
X91727380Y-17869047D01*
X91727380Y-18345238D01*
X92727380Y-18726190D02*
X92060714Y-18726190D01*
X91727380Y-18726190D02*
X91775000Y-18678571D01*
X91822619Y-18726190D01*
X91775000Y-18773809D01*
X91727380Y-18726190D01*
X91822619Y-18726190D01*
X92727380Y-19345238D02*
X92679761Y-19250000D01*
X92584523Y-19202380D01*
X91727380Y-19202380D01*
X92060714Y-19583333D02*
X92060714Y-19964285D01*
X91727380Y-19726190D02*
X92584523Y-19726190D01*
X92679761Y-19773809D01*
X92727380Y-19869047D01*
X92727380Y-19964285D01*
X92679761Y-20678571D02*
X92727380Y-20583333D01*
X92727380Y-20392857D01*
X92679761Y-20297619D01*
X92584523Y-20250000D01*
X92203571Y-20250000D01*
X92108333Y-20297619D01*
X92060714Y-20392857D01*
X92060714Y-20583333D01*
X92108333Y-20678571D01*
X92203571Y-20726190D01*
X92298809Y-20726190D01*
X92394047Y-20250000D01*
X92727380Y-21154761D02*
X92060714Y-21154761D01*
X92251190Y-21154761D02*
X92155952Y-21202380D01*
X92108333Y-21250000D01*
X92060714Y-21345238D01*
X92060714Y-21440476D01*
X92679761Y-21726190D02*
X92727380Y-21821428D01*
X92727380Y-22011904D01*
X92679761Y-22107142D01*
X92584523Y-22154761D01*
X92536904Y-22154761D01*
X92441666Y-22107142D01*
X92394047Y-22011904D01*
X92394047Y-21869047D01*
X92346428Y-21773809D01*
X92251190Y-21726190D01*
X92203571Y-21726190D01*
X92108333Y-21773809D01*
X92060714Y-21869047D01*
X92060714Y-22011904D01*
X92108333Y-22107142D01*
X94377380Y-3964285D02*
X93901190Y-3630952D01*
X94377380Y-3392857D02*
X93377380Y-3392857D01*
X93377380Y-3773809D01*
X93425000Y-3869047D01*
X93472619Y-3916666D01*
X93567857Y-3964285D01*
X93710714Y-3964285D01*
X93805952Y-3916666D01*
X93853571Y-3869047D01*
X93901190Y-3773809D01*
X93901190Y-3392857D01*
X94329761Y-4773809D02*
X94377380Y-4678571D01*
X94377380Y-4488095D01*
X94329761Y-4392857D01*
X94234523Y-4345238D01*
X93853571Y-4345238D01*
X93758333Y-4392857D01*
X93710714Y-4488095D01*
X93710714Y-4678571D01*
X93758333Y-4773809D01*
X93853571Y-4821428D01*
X93948809Y-4821428D01*
X94044047Y-4345238D01*
X93710714Y-5154761D02*
X94377380Y-5392857D01*
X93710714Y-5630952D01*
X93853571Y-6773809D02*
X93853571Y-7107142D01*
X94377380Y-7250000D02*
X94377380Y-6773809D01*
X93377380Y-6773809D01*
X93377380Y-7250000D01*
X93377380Y-8154761D02*
X93377380Y-7678571D01*
X93853571Y-7630952D01*
X93805952Y-7678571D01*
X93758333Y-7773809D01*
X93758333Y-8011904D01*
X93805952Y-8107142D01*
X93853571Y-8154761D01*
X93948809Y-8202380D01*
X94186904Y-8202380D01*
X94282142Y-8154761D01*
X94329761Y-8107142D01*
X94377380Y-8011904D01*
X94377380Y-7773809D01*
X94329761Y-7678571D01*
X94282142Y-7630952D01*
X94377380Y-8630952D02*
X93377380Y-8630952D01*
X93758333Y-8630952D02*
X93710714Y-8726190D01*
X93710714Y-8916666D01*
X93758333Y-9011904D01*
X93805952Y-9059523D01*
X93901190Y-9107142D01*
X94186904Y-9107142D01*
X94282142Y-9059523D01*
X94329761Y-9011904D01*
X94377380Y-8916666D01*
X94377380Y-8726190D01*
X94329761Y-8630952D01*
X94377380Y-9583333D02*
X94377380Y-9773809D01*
X94329761Y-9869047D01*
X94282142Y-9916666D01*
X94139285Y-10011904D01*
X93948809Y-10059523D01*
X93567857Y-10059523D01*
X93472619Y-10011904D01*
X93425000Y-9964285D01*
X93377380Y-9869047D01*
X93377380Y-9678571D01*
X93425000Y-9583333D01*
X93472619Y-9535714D01*
X93567857Y-9488095D01*
X93805952Y-9488095D01*
X93901190Y-9535714D01*
X93948809Y-9583333D01*
X93996428Y-9678571D01*
X93996428Y-9869047D01*
X93948809Y-9964285D01*
X93901190Y-10011904D01*
X93805952Y-10059523D01*
X93615476Y-12059523D02*
X93567857Y-11964285D01*
X93567857Y-11773809D01*
X93615476Y-11678571D01*
X93710714Y-11583333D01*
X93805952Y-11535714D01*
X93996428Y-11535714D01*
X94091666Y-11583333D01*
X94186904Y-11678571D01*
X94234523Y-11773809D01*
X94234523Y-11964285D01*
X94186904Y-12059523D01*
X93234523Y-11869047D02*
X93282142Y-11630952D01*
X93425000Y-11392857D01*
X93663095Y-11250000D01*
X93901190Y-11202380D01*
X94139285Y-11250000D01*
X94377380Y-11392857D01*
X94520238Y-11630952D01*
X94567857Y-11869047D01*
X94520238Y-12107142D01*
X94377380Y-12345238D01*
X94139285Y-12488095D01*
X93901190Y-12535714D01*
X93663095Y-12488095D01*
X93425000Y-12345238D01*
X93282142Y-12107142D01*
X93234523Y-11869047D01*
X93472619Y-13678571D02*
X93425000Y-13726190D01*
X93377380Y-13821428D01*
X93377380Y-14059523D01*
X93425000Y-14154761D01*
X93472619Y-14202380D01*
X93567857Y-14250000D01*
X93663095Y-14250000D01*
X93805952Y-14202380D01*
X94377380Y-13630952D01*
X94377380Y-14250000D01*
X93377380Y-14869047D02*
X93377380Y-14964285D01*
X93425000Y-15059523D01*
X93472619Y-15107142D01*
X93567857Y-15154761D01*
X93758333Y-15202380D01*
X93996428Y-15202380D01*
X94186904Y-15154761D01*
X94282142Y-15107142D01*
X94329761Y-15059523D01*
X94377380Y-14964285D01*
X94377380Y-14869047D01*
X94329761Y-14773809D01*
X94282142Y-14726190D01*
X94186904Y-14678571D01*
X93996428Y-14630952D01*
X93758333Y-14630952D01*
X93567857Y-14678571D01*
X93472619Y-14726190D01*
X93425000Y-14773809D01*
X93377380Y-14869047D01*
X94377380Y-16154761D02*
X94377380Y-15583333D01*
X94377380Y-15869047D02*
X93377380Y-15869047D01*
X93520238Y-15773809D01*
X93615476Y-15678571D01*
X93663095Y-15583333D01*
X94377380Y-16630952D02*
X94377380Y-16821428D01*
X94329761Y-16916666D01*
X94282142Y-16964285D01*
X94139285Y-17059523D01*
X93948809Y-17107142D01*
X93567857Y-17107142D01*
X93472619Y-17059523D01*
X93425000Y-17011904D01*
X93377380Y-16916666D01*
X93377380Y-16726190D01*
X93425000Y-16630952D01*
X93472619Y-16583333D01*
X93567857Y-16535714D01*
X93805952Y-16535714D01*
X93901190Y-16583333D01*
X93948809Y-16630952D01*
X93996428Y-16726190D01*
X93996428Y-16916666D01*
X93948809Y-17011904D01*
X93901190Y-17059523D01*
X93805952Y-17107142D01*
X94377380Y-18297619D02*
X93377380Y-18297619D01*
X93758333Y-18297619D02*
X93710714Y-18392857D01*
X93710714Y-18583333D01*
X93758333Y-18678571D01*
X93805952Y-18726190D01*
X93901190Y-18773809D01*
X94186904Y-18773809D01*
X94282142Y-18726190D01*
X94329761Y-18678571D01*
X94377380Y-18583333D01*
X94377380Y-18392857D01*
X94329761Y-18297619D01*
X93710714Y-19107142D02*
X94377380Y-19345238D01*
X93710714Y-19583333D02*
X94377380Y-19345238D01*
X94615476Y-19249999D01*
X94663095Y-19202380D01*
X94710714Y-19107142D01*
X94377380Y-20726190D02*
X93377380Y-20726190D01*
X94377380Y-21297619D01*
X93377380Y-21297619D01*
X93472619Y-21726190D02*
X93425000Y-21773809D01*
X93377380Y-21869047D01*
X93377380Y-22107142D01*
X93425000Y-22202380D01*
X93472619Y-22249999D01*
X93567857Y-22297619D01*
X93663095Y-22297619D01*
X93805952Y-22249999D01*
X94377380Y-21678571D01*
X94377380Y-22297619D01*
X94091666Y-22678571D02*
X94091666Y-23154761D01*
X94377380Y-22583333D02*
X93377380Y-22916666D01*
X94377380Y-23249999D01*
X94377380Y-23583333D02*
X93377380Y-23583333D01*
X93377380Y-23821428D01*
X93425000Y-23964285D01*
X93520238Y-24059523D01*
X93615476Y-24107142D01*
X93805952Y-24154761D01*
X93948809Y-24154761D01*
X94139285Y-24107142D01*
X94234523Y-24059523D01*
X94329761Y-23964285D01*
X94377380Y-23821428D01*
X94377380Y-23583333D01*
X94377380Y-25154761D02*
X93901190Y-24821428D01*
X94377380Y-24583333D02*
X93377380Y-24583333D01*
X93377380Y-24964285D01*
X93425000Y-25059523D01*
X93472619Y-25107142D01*
X93567857Y-25154761D01*
X93710714Y-25154761D01*
X93805952Y-25107142D01*
X93853571Y-25059523D01*
X93901190Y-24964285D01*
X93901190Y-24583333D01*
D11*
X48847214Y-35400000D02*
G75*
G03X48847214Y-35400000I-447214J0D01*
G01*
X49847214Y-47400000D02*
G75*
G03X49847214Y-47400000I-447214J0D01*
G01*
X61460555Y-34500000D02*
G75*
G03X61460555Y-34500000I-360555J0D01*
G01*
D10*
G04 #@! TO.C,C3*
X37550000Y-6900000D02*
X37550000Y-5900000D01*
X39250000Y-5900000D02*
X39250000Y-6900000D01*
G04 #@! TO.C,C5*
X16050000Y-6900000D02*
X16050000Y-5900000D01*
X17750000Y-5900000D02*
X17750000Y-6900000D01*
G04 #@! TO.C,C6*
X26850000Y-6900000D02*
X26850000Y-5900000D01*
X28550000Y-5900000D02*
X28550000Y-6900000D01*
G04 #@! TO.C,C11*
X70500000Y-38150000D02*
X71500000Y-38150000D01*
X71500000Y-39850000D02*
X70500000Y-39850000D01*
G04 #@! TO.C,C13*
X70500000Y-35650000D02*
X71500000Y-35650000D01*
X71500000Y-37350000D02*
X70500000Y-37350000D01*
G04 #@! TO.C,C14*
X40050000Y-26600000D02*
X40050000Y-25600000D01*
X41750000Y-25600000D02*
X41750000Y-26600000D01*
G04 #@! TO.C,R5*
X75850000Y-45500000D02*
X75850000Y-46500000D01*
X74150000Y-46500000D02*
X74150000Y-45500000D01*
G04 #@! TO.C,R8*
X70650000Y-31000000D02*
X70650000Y-30000000D01*
X72350000Y-30000000D02*
X72350000Y-31000000D01*
G04 #@! TO.C,C27*
X33950000Y-6900000D02*
X33950000Y-5900000D01*
X35650000Y-5900000D02*
X35650000Y-6900000D01*
G04 #@! TO.C,C28*
X22050000Y-6900000D02*
X22050000Y-5900000D01*
X23750000Y-5900000D02*
X23750000Y-6900000D01*
G04 #@! TO.C,C29*
X71650000Y-15600000D02*
X71650000Y-16600000D01*
X69950000Y-16600000D02*
X69950000Y-15600000D01*
G04 #@! TO.C,C30*
X62100000Y-4650000D02*
X63100000Y-4650000D01*
X63100000Y-6350000D02*
X62100000Y-6350000D01*
G04 #@! TO.C,C31*
X48400000Y-6550000D02*
X49400000Y-6550000D01*
X49400000Y-8250000D02*
X48400000Y-8250000D01*
G04 #@! TO.C,U1*
X49475000Y-44775000D02*
X49025000Y-44775000D01*
X49475000Y-39025000D02*
X49025000Y-39025000D01*
X41825000Y-39025000D02*
X42275000Y-39025000D01*
X41825000Y-44775000D02*
X42275000Y-44775000D01*
X49475000Y-44775000D02*
X49475000Y-39025000D01*
X41825000Y-44775000D02*
X41825000Y-39025000D01*
X49025000Y-44775000D02*
X49025000Y-46375000D01*
G04 #@! TO.C,U2*
X42275000Y-34200000D02*
X42275000Y-29800000D01*
X47725000Y-35775000D02*
X47725000Y-29800000D01*
G04 #@! TO.C,C20*
X8650000Y-6900000D02*
X8650000Y-5900000D01*
X10350000Y-5900000D02*
X10350000Y-6900000D01*
G04 #@! TO.C,D1*
X73930280Y-43341500D02*
X73221620Y-43341500D01*
X73221620Y-43341500D02*
X73221620Y-42940180D01*
G04 #@! TO.C,D2*
X73930280Y-36841500D02*
X73221620Y-36841500D01*
X73221620Y-36841500D02*
X73221620Y-36440180D01*
G04 #@! TO.C,R4*
X78350000Y-45500000D02*
X78350000Y-46500000D01*
X76650000Y-46500000D02*
X76650000Y-45500000D01*
G04 #@! TO.C,R9*
X77350000Y-30000000D02*
X77350000Y-31000000D01*
X75650000Y-31000000D02*
X75650000Y-30000000D01*
G04 #@! TO.C,R10*
X63400000Y-28750000D02*
X62400000Y-28750000D01*
X62400000Y-27050000D02*
X63400000Y-27050000D01*
G04 #@! TO.C,R11*
X62400000Y-29950000D02*
X63400000Y-29950000D01*
X63400000Y-31650000D02*
X62400000Y-31650000D01*
G04 #@! TO.C,R12*
X57500000Y-31150000D02*
X58500000Y-31150000D01*
X58500000Y-32850000D02*
X57500000Y-32850000D01*
G04 #@! TO.C,R13*
X58500000Y-36850000D02*
X57500000Y-36850000D01*
X57500000Y-35150000D02*
X58500000Y-35150000D01*
G04 #@! TO.C,R14*
X63000000Y-40050000D02*
X64000000Y-40050000D01*
X64000000Y-41750000D02*
X63000000Y-41750000D01*
G04 #@! TO.C,R15*
X57500000Y-40050000D02*
X58500000Y-40050000D01*
X58500000Y-41750000D02*
X57500000Y-41750000D01*
G04 #@! TO.C,U3*
X61825000Y-34825000D02*
X62075000Y-34825000D01*
X61825000Y-38175000D02*
X62075000Y-38175000D01*
X65175000Y-38175000D02*
X64925000Y-38175000D01*
X65175000Y-34825000D02*
X64925000Y-34825000D01*
X61825000Y-34825000D02*
X61825000Y-38175000D01*
X65175000Y-34825000D02*
X65175000Y-38175000D01*
X62075000Y-34825000D02*
X62075000Y-33575000D01*
G04 #@! TO.C,C45*
X88900000Y-18150000D02*
X89900000Y-18150000D01*
X89900000Y-19850000D02*
X88900000Y-19850000D01*
G04 #@! TO.C,C46*
X93000000Y-30350000D02*
X94000000Y-30350000D01*
X94000000Y-32050000D02*
X93000000Y-32050000D01*
G04 #@! TO.C,C7*
X58500000Y-39350000D02*
X57500000Y-39350000D01*
X57500000Y-37650000D02*
X58500000Y-37650000D01*
D12*
G04 #@! TO.C,U5*
X48990000Y-33700000D02*
X48990000Y-31900000D01*
X52210000Y-31900000D02*
X52210000Y-34350000D01*
D10*
G04 #@! TO.C,C12*
X13700000Y-5050000D02*
X12700000Y-5050000D01*
X12700000Y-3350000D02*
X13700000Y-3350000D01*
D13*
G04 #@! TO.C,C15*
X62300000Y-3200000D02*
X60700000Y-3200000D01*
X60700000Y-3200000D02*
X60700000Y-1200000D01*
X60700000Y-1200000D02*
X62300000Y-1200000D01*
X63700000Y-1200000D02*
X65300000Y-1200000D01*
X65300000Y-1200000D02*
X65300000Y-3200000D01*
X65300000Y-3200000D02*
X63700000Y-3200000D01*
D10*
G04 #@! TO.C,R16*
X41050000Y-41600000D02*
X41050000Y-42600000D01*
X39350000Y-42600000D02*
X39350000Y-41600000D01*
D14*
G04 #@! TO.C,G\002A\002A\002A*
G36*
X92596620Y-5304520D02*
X92591540Y-5294360D01*
X92576300Y-5271500D01*
X92555980Y-5238480D01*
X92528040Y-5197840D01*
X92502640Y-5159740D01*
X92479780Y-5126720D01*
X92464540Y-5103860D01*
X92459460Y-5093700D01*
X92462000Y-5088620D01*
X92472160Y-5070840D01*
X92484860Y-5042900D01*
X92492480Y-5027660D01*
X92505180Y-5002260D01*
X92507720Y-4989560D01*
X92502640Y-4987020D01*
X92484860Y-4976860D01*
X92451840Y-4964160D01*
X92408660Y-4943840D01*
X92357860Y-4923520D01*
X92301980Y-4900660D01*
X92246100Y-4877800D01*
X92192760Y-4854940D01*
X92144500Y-4834620D01*
X92106400Y-4819380D01*
X92078460Y-4809220D01*
X92068300Y-4804140D01*
X92065760Y-4806680D01*
X92053060Y-4819380D01*
X92037820Y-4839700D01*
X91997180Y-4887960D01*
X91938760Y-4933680D01*
X91872720Y-4964160D01*
X91799060Y-4971780D01*
X91733020Y-4964160D01*
X91669520Y-4938760D01*
X91608560Y-4893040D01*
X91565380Y-4837160D01*
X91537440Y-4771120D01*
X91529820Y-4700000D01*
X91537440Y-4631420D01*
X91562840Y-4565380D01*
X91608560Y-4504420D01*
X91636500Y-4481560D01*
X91697460Y-4446000D01*
X91758420Y-4425680D01*
X91773660Y-4425680D01*
X91844780Y-4428220D01*
X91913360Y-4448540D01*
X91971780Y-4484100D01*
X92022580Y-4537440D01*
X92027660Y-4542520D01*
X92045440Y-4567920D01*
X92055600Y-4583160D01*
X92065760Y-4595860D01*
X92281660Y-4506960D01*
X92317220Y-4491720D01*
X92375640Y-4466320D01*
X92426440Y-4446000D01*
X92467080Y-4428220D01*
X92492480Y-4415520D01*
X92505180Y-4410440D01*
X92505180Y-4402820D01*
X92500100Y-4387580D01*
X92484860Y-4357100D01*
X92474700Y-4336780D01*
X92464540Y-4313920D01*
X92459460Y-4303760D01*
X92464540Y-4293600D01*
X92479780Y-4273280D01*
X92500100Y-4240260D01*
X92525500Y-4202160D01*
X92550900Y-4166600D01*
X92573760Y-4131040D01*
X92589000Y-4108180D01*
X92596620Y-4095480D01*
X92596620Y-4092940D01*
X92589000Y-4082780D01*
X92573760Y-4062460D01*
X92545820Y-4034520D01*
X92505180Y-3993880D01*
X92500100Y-3986260D01*
X92464540Y-3953240D01*
X92434060Y-3925300D01*
X92413740Y-3904980D01*
X92406120Y-3899900D01*
X92393420Y-3904980D01*
X92368020Y-3920220D01*
X92335000Y-3943080D01*
X92294360Y-3971020D01*
X92190220Y-4042140D01*
X92093700Y-4001500D01*
X92063220Y-3991340D01*
X92027660Y-3976100D01*
X92002260Y-3963400D01*
X91989560Y-3958320D01*
X91987020Y-3948160D01*
X91979400Y-3920220D01*
X91971780Y-3882120D01*
X91964160Y-3836400D01*
X91954000Y-3790680D01*
X91946380Y-3752580D01*
X91941300Y-3722100D01*
X91938760Y-3709400D01*
X91936220Y-3706860D01*
X91931140Y-3704320D01*
X91918440Y-3701780D01*
X91893040Y-3701780D01*
X91854940Y-3701780D01*
X91799060Y-3701780D01*
X91793980Y-3701780D01*
X91740640Y-3701780D01*
X91700000Y-3701780D01*
X91674600Y-3704320D01*
X91664440Y-3706860D01*
X91659360Y-3719560D01*
X91654280Y-3747500D01*
X91646660Y-3785600D01*
X91636500Y-3833860D01*
X91636500Y-3836400D01*
X91628880Y-3884660D01*
X91618720Y-3922760D01*
X91613640Y-3950700D01*
X91608560Y-3963400D01*
X91606020Y-3965940D01*
X91588240Y-3976100D01*
X91557760Y-3988800D01*
X91522200Y-4004040D01*
X91486640Y-4019280D01*
X91451080Y-4034520D01*
X91428220Y-4042140D01*
X91415520Y-4044680D01*
X91405360Y-4037060D01*
X91379960Y-4021820D01*
X91346940Y-3998960D01*
X91306300Y-3971020D01*
X91301220Y-3968480D01*
X91263120Y-3940540D01*
X91227560Y-3920220D01*
X91204700Y-3904980D01*
X91194540Y-3899900D01*
X91192000Y-3899900D01*
X91181840Y-3907520D01*
X91158980Y-3927840D01*
X91128500Y-3958320D01*
X91092940Y-3993880D01*
X91082780Y-4004040D01*
X91044680Y-4042140D01*
X91019280Y-4070080D01*
X91006580Y-4087860D01*
X91001500Y-4095480D01*
X91004040Y-4095480D01*
X91009120Y-4108180D01*
X91026900Y-4133580D01*
X91049760Y-4166600D01*
X91077700Y-4207240D01*
X91080240Y-4209780D01*
X91105640Y-4250420D01*
X91128500Y-4283440D01*
X91143740Y-4306300D01*
X91151360Y-4316460D01*
X91151360Y-4319000D01*
X91146280Y-4334240D01*
X91136120Y-4364720D01*
X91123420Y-4397740D01*
X91108180Y-4435840D01*
X91092940Y-4468860D01*
X91082780Y-4494260D01*
X91075160Y-4506960D01*
X91059920Y-4512040D01*
X91029440Y-4517120D01*
X90988800Y-4527280D01*
X90940540Y-4534900D01*
X90932920Y-4537440D01*
X90884660Y-4545060D01*
X90846560Y-4552680D01*
X90818620Y-4560300D01*
X90805920Y-4562840D01*
X90805920Y-4567920D01*
X90803380Y-4593320D01*
X90803380Y-4628880D01*
X90803380Y-4672060D01*
X90803380Y-4715240D01*
X90803380Y-4758420D01*
X90805920Y-4796520D01*
X90805920Y-4821920D01*
X90808460Y-4834620D01*
X90811000Y-4834620D01*
X90823700Y-4839700D01*
X90854180Y-4844780D01*
X90894820Y-4854940D01*
X90945620Y-4862560D01*
X90953240Y-4865100D01*
X91001500Y-4872720D01*
X91039600Y-4882880D01*
X91067540Y-4887960D01*
X91077700Y-4890500D01*
X91080240Y-4895580D01*
X91087860Y-4913360D01*
X91100560Y-4946380D01*
X91118340Y-4987020D01*
X91153900Y-5078460D01*
X91077700Y-5190220D01*
X91070080Y-5200380D01*
X91042140Y-5241020D01*
X91021820Y-5274040D01*
X91006580Y-5296900D01*
X91001500Y-5307060D01*
X91011660Y-5317220D01*
X91031980Y-5340080D01*
X91062460Y-5370560D01*
X91095480Y-5406120D01*
X91123420Y-5431520D01*
X91153900Y-5462000D01*
X91174220Y-5482320D01*
X91189460Y-5492480D01*
X91197080Y-5497560D01*
X91202160Y-5495020D01*
X91214860Y-5489940D01*
X91237720Y-5472160D01*
X91273280Y-5449300D01*
X91311380Y-5421360D01*
X91346940Y-5398500D01*
X91382500Y-5375640D01*
X91410440Y-5360400D01*
X91423140Y-5352780D01*
X91428220Y-5355320D01*
X91451080Y-5362940D01*
X91484100Y-5375640D01*
X91524740Y-5393420D01*
X91613640Y-5431520D01*
X91623800Y-5489940D01*
X91631420Y-5525500D01*
X91639040Y-5576300D01*
X91649200Y-5622020D01*
X91664440Y-5695680D01*
X91931140Y-5698220D01*
X91936220Y-5688060D01*
X91941300Y-5675360D01*
X91946380Y-5649960D01*
X91954000Y-5609320D01*
X91961620Y-5563600D01*
X91969240Y-5525500D01*
X91976860Y-5484860D01*
X91981940Y-5456920D01*
X91984480Y-5444220D01*
X91989560Y-5441680D01*
X92009880Y-5431520D01*
X92040360Y-5416280D01*
X92075920Y-5401040D01*
X92114020Y-5385800D01*
X92149580Y-5373100D01*
X92174980Y-5362940D01*
X92190220Y-5357860D01*
X92200380Y-5362940D01*
X92223240Y-5378180D01*
X92256260Y-5401040D01*
X92294360Y-5426440D01*
X92335000Y-5454380D01*
X92368020Y-5477240D01*
X92393420Y-5492480D01*
X92403580Y-5500100D01*
X92411200Y-5495020D01*
X92428980Y-5479780D01*
X92459460Y-5451840D01*
X92505180Y-5406120D01*
X92510260Y-5398500D01*
X92545820Y-5365480D01*
X92571220Y-5335000D01*
X92591540Y-5314680D01*
X92596620Y-5304520D01*
X92596620Y-5304520D01*
G37*
X92596620Y-5304520D02*
X92591540Y-5294360D01*
X92576300Y-5271500D01*
X92555980Y-5238480D01*
X92528040Y-5197840D01*
X92502640Y-5159740D01*
X92479780Y-5126720D01*
X92464540Y-5103860D01*
X92459460Y-5093700D01*
X92462000Y-5088620D01*
X92472160Y-5070840D01*
X92484860Y-5042900D01*
X92492480Y-5027660D01*
X92505180Y-5002260D01*
X92507720Y-4989560D01*
X92502640Y-4987020D01*
X92484860Y-4976860D01*
X92451840Y-4964160D01*
X92408660Y-4943840D01*
X92357860Y-4923520D01*
X92301980Y-4900660D01*
X92246100Y-4877800D01*
X92192760Y-4854940D01*
X92144500Y-4834620D01*
X92106400Y-4819380D01*
X92078460Y-4809220D01*
X92068300Y-4804140D01*
X92065760Y-4806680D01*
X92053060Y-4819380D01*
X92037820Y-4839700D01*
X91997180Y-4887960D01*
X91938760Y-4933680D01*
X91872720Y-4964160D01*
X91799060Y-4971780D01*
X91733020Y-4964160D01*
X91669520Y-4938760D01*
X91608560Y-4893040D01*
X91565380Y-4837160D01*
X91537440Y-4771120D01*
X91529820Y-4700000D01*
X91537440Y-4631420D01*
X91562840Y-4565380D01*
X91608560Y-4504420D01*
X91636500Y-4481560D01*
X91697460Y-4446000D01*
X91758420Y-4425680D01*
X91773660Y-4425680D01*
X91844780Y-4428220D01*
X91913360Y-4448540D01*
X91971780Y-4484100D01*
X92022580Y-4537440D01*
X92027660Y-4542520D01*
X92045440Y-4567920D01*
X92055600Y-4583160D01*
X92065760Y-4595860D01*
X92281660Y-4506960D01*
X92317220Y-4491720D01*
X92375640Y-4466320D01*
X92426440Y-4446000D01*
X92467080Y-4428220D01*
X92492480Y-4415520D01*
X92505180Y-4410440D01*
X92505180Y-4402820D01*
X92500100Y-4387580D01*
X92484860Y-4357100D01*
X92474700Y-4336780D01*
X92464540Y-4313920D01*
X92459460Y-4303760D01*
X92464540Y-4293600D01*
X92479780Y-4273280D01*
X92500100Y-4240260D01*
X92525500Y-4202160D01*
X92550900Y-4166600D01*
X92573760Y-4131040D01*
X92589000Y-4108180D01*
X92596620Y-4095480D01*
X92596620Y-4092940D01*
X92589000Y-4082780D01*
X92573760Y-4062460D01*
X92545820Y-4034520D01*
X92505180Y-3993880D01*
X92500100Y-3986260D01*
X92464540Y-3953240D01*
X92434060Y-3925300D01*
X92413740Y-3904980D01*
X92406120Y-3899900D01*
X92393420Y-3904980D01*
X92368020Y-3920220D01*
X92335000Y-3943080D01*
X92294360Y-3971020D01*
X92190220Y-4042140D01*
X92093700Y-4001500D01*
X92063220Y-3991340D01*
X92027660Y-3976100D01*
X92002260Y-3963400D01*
X91989560Y-3958320D01*
X91987020Y-3948160D01*
X91979400Y-3920220D01*
X91971780Y-3882120D01*
X91964160Y-3836400D01*
X91954000Y-3790680D01*
X91946380Y-3752580D01*
X91941300Y-3722100D01*
X91938760Y-3709400D01*
X91936220Y-3706860D01*
X91931140Y-3704320D01*
X91918440Y-3701780D01*
X91893040Y-3701780D01*
X91854940Y-3701780D01*
X91799060Y-3701780D01*
X91793980Y-3701780D01*
X91740640Y-3701780D01*
X91700000Y-3701780D01*
X91674600Y-3704320D01*
X91664440Y-3706860D01*
X91659360Y-3719560D01*
X91654280Y-3747500D01*
X91646660Y-3785600D01*
X91636500Y-3833860D01*
X91636500Y-3836400D01*
X91628880Y-3884660D01*
X91618720Y-3922760D01*
X91613640Y-3950700D01*
X91608560Y-3963400D01*
X91606020Y-3965940D01*
X91588240Y-3976100D01*
X91557760Y-3988800D01*
X91522200Y-4004040D01*
X91486640Y-4019280D01*
X91451080Y-4034520D01*
X91428220Y-4042140D01*
X91415520Y-4044680D01*
X91405360Y-4037060D01*
X91379960Y-4021820D01*
X91346940Y-3998960D01*
X91306300Y-3971020D01*
X91301220Y-3968480D01*
X91263120Y-3940540D01*
X91227560Y-3920220D01*
X91204700Y-3904980D01*
X91194540Y-3899900D01*
X91192000Y-3899900D01*
X91181840Y-3907520D01*
X91158980Y-3927840D01*
X91128500Y-3958320D01*
X91092940Y-3993880D01*
X91082780Y-4004040D01*
X91044680Y-4042140D01*
X91019280Y-4070080D01*
X91006580Y-4087860D01*
X91001500Y-4095480D01*
X91004040Y-4095480D01*
X91009120Y-4108180D01*
X91026900Y-4133580D01*
X91049760Y-4166600D01*
X91077700Y-4207240D01*
X91080240Y-4209780D01*
X91105640Y-4250420D01*
X91128500Y-4283440D01*
X91143740Y-4306300D01*
X91151360Y-4316460D01*
X91151360Y-4319000D01*
X91146280Y-4334240D01*
X91136120Y-4364720D01*
X91123420Y-4397740D01*
X91108180Y-4435840D01*
X91092940Y-4468860D01*
X91082780Y-4494260D01*
X91075160Y-4506960D01*
X91059920Y-4512040D01*
X91029440Y-4517120D01*
X90988800Y-4527280D01*
X90940540Y-4534900D01*
X90932920Y-4537440D01*
X90884660Y-4545060D01*
X90846560Y-4552680D01*
X90818620Y-4560300D01*
X90805920Y-4562840D01*
X90805920Y-4567920D01*
X90803380Y-4593320D01*
X90803380Y-4628880D01*
X90803380Y-4672060D01*
X90803380Y-4715240D01*
X90803380Y-4758420D01*
X90805920Y-4796520D01*
X90805920Y-4821920D01*
X90808460Y-4834620D01*
X90811000Y-4834620D01*
X90823700Y-4839700D01*
X90854180Y-4844780D01*
X90894820Y-4854940D01*
X90945620Y-4862560D01*
X90953240Y-4865100D01*
X91001500Y-4872720D01*
X91039600Y-4882880D01*
X91067540Y-4887960D01*
X91077700Y-4890500D01*
X91080240Y-4895580D01*
X91087860Y-4913360D01*
X91100560Y-4946380D01*
X91118340Y-4987020D01*
X91153900Y-5078460D01*
X91077700Y-5190220D01*
X91070080Y-5200380D01*
X91042140Y-5241020D01*
X91021820Y-5274040D01*
X91006580Y-5296900D01*
X91001500Y-5307060D01*
X91011660Y-5317220D01*
X91031980Y-5340080D01*
X91062460Y-5370560D01*
X91095480Y-5406120D01*
X91123420Y-5431520D01*
X91153900Y-5462000D01*
X91174220Y-5482320D01*
X91189460Y-5492480D01*
X91197080Y-5497560D01*
X91202160Y-5495020D01*
X91214860Y-5489940D01*
X91237720Y-5472160D01*
X91273280Y-5449300D01*
X91311380Y-5421360D01*
X91346940Y-5398500D01*
X91382500Y-5375640D01*
X91410440Y-5360400D01*
X91423140Y-5352780D01*
X91428220Y-5355320D01*
X91451080Y-5362940D01*
X91484100Y-5375640D01*
X91524740Y-5393420D01*
X91613640Y-5431520D01*
X91623800Y-5489940D01*
X91631420Y-5525500D01*
X91639040Y-5576300D01*
X91649200Y-5622020D01*
X91664440Y-5695680D01*
X91931140Y-5698220D01*
X91936220Y-5688060D01*
X91941300Y-5675360D01*
X91946380Y-5649960D01*
X91954000Y-5609320D01*
X91961620Y-5563600D01*
X91969240Y-5525500D01*
X91976860Y-5484860D01*
X91981940Y-5456920D01*
X91984480Y-5444220D01*
X91989560Y-5441680D01*
X92009880Y-5431520D01*
X92040360Y-5416280D01*
X92075920Y-5401040D01*
X92114020Y-5385800D01*
X92149580Y-5373100D01*
X92174980Y-5362940D01*
X92190220Y-5357860D01*
X92200380Y-5362940D01*
X92223240Y-5378180D01*
X92256260Y-5401040D01*
X92294360Y-5426440D01*
X92335000Y-5454380D01*
X92368020Y-5477240D01*
X92393420Y-5492480D01*
X92403580Y-5500100D01*
X92411200Y-5495020D01*
X92428980Y-5479780D01*
X92459460Y-5451840D01*
X92505180Y-5406120D01*
X92510260Y-5398500D01*
X92545820Y-5365480D01*
X92571220Y-5335000D01*
X92591540Y-5314680D01*
X92596620Y-5304520D01*
G04 #@! TO.C,C3*
D13*
X38733333Y-4185714D02*
X38771428Y-4223809D01*
X38885714Y-4261904D01*
X38961904Y-4261904D01*
X39076190Y-4223809D01*
X39152380Y-4147619D01*
X39190476Y-4071428D01*
X39228571Y-3919047D01*
X39228571Y-3804761D01*
X39190476Y-3652380D01*
X39152380Y-3576190D01*
X39076190Y-3500000D01*
X38961904Y-3461904D01*
X38885714Y-3461904D01*
X38771428Y-3500000D01*
X38733333Y-3538095D01*
X38466666Y-3461904D02*
X37971428Y-3461904D01*
X38238095Y-3766666D01*
X38123809Y-3766666D01*
X38047619Y-3804761D01*
X38009523Y-3842857D01*
X37971428Y-3919047D01*
X37971428Y-4109523D01*
X38009523Y-4185714D01*
X38047619Y-4223809D01*
X38123809Y-4261904D01*
X38352380Y-4261904D01*
X38428571Y-4223809D01*
X38466666Y-4185714D01*
G04 #@! TO.C,C5*
X18383333Y-4135714D02*
X18421428Y-4173809D01*
X18535714Y-4211904D01*
X18611904Y-4211904D01*
X18726190Y-4173809D01*
X18802380Y-4097619D01*
X18840476Y-4021428D01*
X18878571Y-3869047D01*
X18878571Y-3754761D01*
X18840476Y-3602380D01*
X18802380Y-3526190D01*
X18726190Y-3450000D01*
X18611904Y-3411904D01*
X18535714Y-3411904D01*
X18421428Y-3450000D01*
X18383333Y-3488095D01*
X17659523Y-3411904D02*
X18040476Y-3411904D01*
X18078571Y-3792857D01*
X18040476Y-3754761D01*
X17964285Y-3716666D01*
X17773809Y-3716666D01*
X17697619Y-3754761D01*
X17659523Y-3792857D01*
X17621428Y-3869047D01*
X17621428Y-4059523D01*
X17659523Y-4135714D01*
X17697619Y-4173809D01*
X17773809Y-4211904D01*
X17964285Y-4211904D01*
X18040476Y-4173809D01*
X18078571Y-4135714D01*
G04 #@! TO.C,C6*
X27883333Y-4135714D02*
X27921428Y-4173809D01*
X28035714Y-4211904D01*
X28111904Y-4211904D01*
X28226190Y-4173809D01*
X28302380Y-4097619D01*
X28340476Y-4021428D01*
X28378571Y-3869047D01*
X28378571Y-3754761D01*
X28340476Y-3602380D01*
X28302380Y-3526190D01*
X28226190Y-3450000D01*
X28111904Y-3411904D01*
X28035714Y-3411904D01*
X27921428Y-3450000D01*
X27883333Y-3488095D01*
X27197619Y-3411904D02*
X27350000Y-3411904D01*
X27426190Y-3450000D01*
X27464285Y-3488095D01*
X27540476Y-3602380D01*
X27578571Y-3754761D01*
X27578571Y-4059523D01*
X27540476Y-4135714D01*
X27502380Y-4173809D01*
X27426190Y-4211904D01*
X27273809Y-4211904D01*
X27197619Y-4173809D01*
X27159523Y-4135714D01*
X27121428Y-4059523D01*
X27121428Y-3869047D01*
X27159523Y-3792857D01*
X27197619Y-3754761D01*
X27273809Y-3716666D01*
X27426190Y-3716666D01*
X27502380Y-3754761D01*
X27540476Y-3792857D01*
X27578571Y-3869047D01*
G04 #@! TO.C,C11*
X70914285Y-40985714D02*
X70952380Y-41023809D01*
X71066666Y-41061904D01*
X71142857Y-41061904D01*
X71257142Y-41023809D01*
X71333333Y-40947619D01*
X71371428Y-40871428D01*
X71409523Y-40719047D01*
X71409523Y-40604761D01*
X71371428Y-40452380D01*
X71333333Y-40376190D01*
X71257142Y-40300000D01*
X71142857Y-40261904D01*
X71066666Y-40261904D01*
X70952380Y-40300000D01*
X70914285Y-40338095D01*
X70152380Y-41061904D02*
X70609523Y-41061904D01*
X70380952Y-41061904D02*
X70380952Y-40261904D01*
X70457142Y-40376190D01*
X70533333Y-40452380D01*
X70609523Y-40490476D01*
X69390476Y-41061904D02*
X69847619Y-41061904D01*
X69619047Y-41061904D02*
X69619047Y-40261904D01*
X69695238Y-40376190D01*
X69771428Y-40452380D01*
X69847619Y-40490476D01*
G04 #@! TO.C,C13*
X71514285Y-35035714D02*
X71552380Y-35073809D01*
X71666666Y-35111904D01*
X71742857Y-35111904D01*
X71857142Y-35073809D01*
X71933333Y-34997619D01*
X71971428Y-34921428D01*
X72009523Y-34769047D01*
X72009523Y-34654761D01*
X71971428Y-34502380D01*
X71933333Y-34426190D01*
X71857142Y-34350000D01*
X71742857Y-34311904D01*
X71666666Y-34311904D01*
X71552380Y-34350000D01*
X71514285Y-34388095D01*
X70752380Y-35111904D02*
X71209523Y-35111904D01*
X70980952Y-35111904D02*
X70980952Y-34311904D01*
X71057142Y-34426190D01*
X71133333Y-34502380D01*
X71209523Y-34540476D01*
X70485714Y-34311904D02*
X69990476Y-34311904D01*
X70257142Y-34616666D01*
X70142857Y-34616666D01*
X70066666Y-34654761D01*
X70028571Y-34692857D01*
X69990476Y-34769047D01*
X69990476Y-34959523D01*
X70028571Y-35035714D01*
X70066666Y-35073809D01*
X70142857Y-35111904D01*
X70371428Y-35111904D01*
X70447619Y-35073809D01*
X70485714Y-35035714D01*
G04 #@! TO.C,C14*
X43664285Y-25285714D02*
X43702380Y-25323809D01*
X43816666Y-25361904D01*
X43892857Y-25361904D01*
X44007142Y-25323809D01*
X44083333Y-25247619D01*
X44121428Y-25171428D01*
X44159523Y-25019047D01*
X44159523Y-24904761D01*
X44121428Y-24752380D01*
X44083333Y-24676190D01*
X44007142Y-24600000D01*
X43892857Y-24561904D01*
X43816666Y-24561904D01*
X43702380Y-24600000D01*
X43664285Y-24638095D01*
X42902380Y-25361904D02*
X43359523Y-25361904D01*
X43130952Y-25361904D02*
X43130952Y-24561904D01*
X43207142Y-24676190D01*
X43283333Y-24752380D01*
X43359523Y-24790476D01*
X42216666Y-24828571D02*
X42216666Y-25361904D01*
X42407142Y-24523809D02*
X42597619Y-25095238D01*
X42102380Y-25095238D01*
G04 #@! TO.C,R5*
X73283333Y-48611904D02*
X73550000Y-48230952D01*
X73740476Y-48611904D02*
X73740476Y-47811904D01*
X73435714Y-47811904D01*
X73359523Y-47850000D01*
X73321428Y-47888095D01*
X73283333Y-47964285D01*
X73283333Y-48078571D01*
X73321428Y-48154761D01*
X73359523Y-48192857D01*
X73435714Y-48230952D01*
X73740476Y-48230952D01*
X72559523Y-47811904D02*
X72940476Y-47811904D01*
X72978571Y-48192857D01*
X72940476Y-48154761D01*
X72864285Y-48116666D01*
X72673809Y-48116666D01*
X72597619Y-48154761D01*
X72559523Y-48192857D01*
X72521428Y-48269047D01*
X72521428Y-48459523D01*
X72559523Y-48535714D01*
X72597619Y-48573809D01*
X72673809Y-48611904D01*
X72864285Y-48611904D01*
X72940476Y-48573809D01*
X72978571Y-48535714D01*
G04 #@! TO.C,R8*
X71933333Y-28061904D02*
X72200000Y-27680952D01*
X72390476Y-28061904D02*
X72390476Y-27261904D01*
X72085714Y-27261904D01*
X72009523Y-27300000D01*
X71971428Y-27338095D01*
X71933333Y-27414285D01*
X71933333Y-27528571D01*
X71971428Y-27604761D01*
X72009523Y-27642857D01*
X72085714Y-27680952D01*
X72390476Y-27680952D01*
X71476190Y-27604761D02*
X71552380Y-27566666D01*
X71590476Y-27528571D01*
X71628571Y-27452380D01*
X71628571Y-27414285D01*
X71590476Y-27338095D01*
X71552380Y-27300000D01*
X71476190Y-27261904D01*
X71323809Y-27261904D01*
X71247619Y-27300000D01*
X71209523Y-27338095D01*
X71171428Y-27414285D01*
X71171428Y-27452380D01*
X71209523Y-27528571D01*
X71247619Y-27566666D01*
X71323809Y-27604761D01*
X71476190Y-27604761D01*
X71552380Y-27642857D01*
X71590476Y-27680952D01*
X71628571Y-27757142D01*
X71628571Y-27909523D01*
X71590476Y-27985714D01*
X71552380Y-28023809D01*
X71476190Y-28061904D01*
X71323809Y-28061904D01*
X71247619Y-28023809D01*
X71209523Y-27985714D01*
X71171428Y-27909523D01*
X71171428Y-27757142D01*
X71209523Y-27680952D01*
X71247619Y-27642857D01*
X71323809Y-27604761D01*
G04 #@! TO.C,C27*
X35114285Y-4135714D02*
X35152380Y-4173809D01*
X35266666Y-4211904D01*
X35342857Y-4211904D01*
X35457142Y-4173809D01*
X35533333Y-4097619D01*
X35571428Y-4021428D01*
X35609523Y-3869047D01*
X35609523Y-3754761D01*
X35571428Y-3602380D01*
X35533333Y-3526190D01*
X35457142Y-3450000D01*
X35342857Y-3411904D01*
X35266666Y-3411904D01*
X35152380Y-3450000D01*
X35114285Y-3488095D01*
X34809523Y-3488095D02*
X34771428Y-3450000D01*
X34695238Y-3411904D01*
X34504761Y-3411904D01*
X34428571Y-3450000D01*
X34390476Y-3488095D01*
X34352380Y-3564285D01*
X34352380Y-3640476D01*
X34390476Y-3754761D01*
X34847619Y-4211904D01*
X34352380Y-4211904D01*
X34085714Y-3411904D02*
X33552380Y-3411904D01*
X33895238Y-4211904D01*
G04 #@! TO.C,C28*
X24014285Y-4035714D02*
X24052380Y-4073809D01*
X24166666Y-4111904D01*
X24242857Y-4111904D01*
X24357142Y-4073809D01*
X24433333Y-3997619D01*
X24471428Y-3921428D01*
X24509523Y-3769047D01*
X24509523Y-3654761D01*
X24471428Y-3502380D01*
X24433333Y-3426190D01*
X24357142Y-3350000D01*
X24242857Y-3311904D01*
X24166666Y-3311904D01*
X24052380Y-3350000D01*
X24014285Y-3388095D01*
X23709523Y-3388095D02*
X23671428Y-3350000D01*
X23595238Y-3311904D01*
X23404761Y-3311904D01*
X23328571Y-3350000D01*
X23290476Y-3388095D01*
X23252380Y-3464285D01*
X23252380Y-3540476D01*
X23290476Y-3654761D01*
X23747619Y-4111904D01*
X23252380Y-4111904D01*
X22795238Y-3654761D02*
X22871428Y-3616666D01*
X22909523Y-3578571D01*
X22947619Y-3502380D01*
X22947619Y-3464285D01*
X22909523Y-3388095D01*
X22871428Y-3350000D01*
X22795238Y-3311904D01*
X22642857Y-3311904D01*
X22566666Y-3350000D01*
X22528571Y-3388095D01*
X22490476Y-3464285D01*
X22490476Y-3502380D01*
X22528571Y-3578571D01*
X22566666Y-3616666D01*
X22642857Y-3654761D01*
X22795238Y-3654761D01*
X22871428Y-3692857D01*
X22909523Y-3730952D01*
X22947619Y-3807142D01*
X22947619Y-3959523D01*
X22909523Y-4035714D01*
X22871428Y-4073809D01*
X22795238Y-4111904D01*
X22642857Y-4111904D01*
X22566666Y-4073809D01*
X22528571Y-4035714D01*
X22490476Y-3959523D01*
X22490476Y-3807142D01*
X22528571Y-3730952D01*
X22566666Y-3692857D01*
X22642857Y-3654761D01*
G04 #@! TO.C,C29*
X71214285Y-19285714D02*
X71252380Y-19323809D01*
X71366666Y-19361904D01*
X71442857Y-19361904D01*
X71557142Y-19323809D01*
X71633333Y-19247619D01*
X71671428Y-19171428D01*
X71709523Y-19019047D01*
X71709523Y-18904761D01*
X71671428Y-18752380D01*
X71633333Y-18676190D01*
X71557142Y-18600000D01*
X71442857Y-18561904D01*
X71366666Y-18561904D01*
X71252380Y-18600000D01*
X71214285Y-18638095D01*
X70909523Y-18638095D02*
X70871428Y-18600000D01*
X70795238Y-18561904D01*
X70604761Y-18561904D01*
X70528571Y-18600000D01*
X70490476Y-18638095D01*
X70452380Y-18714285D01*
X70452380Y-18790476D01*
X70490476Y-18904761D01*
X70947619Y-19361904D01*
X70452380Y-19361904D01*
X70071428Y-19361904D02*
X69919047Y-19361904D01*
X69842857Y-19323809D01*
X69804761Y-19285714D01*
X69728571Y-19171428D01*
X69690476Y-19019047D01*
X69690476Y-18714285D01*
X69728571Y-18638095D01*
X69766666Y-18600000D01*
X69842857Y-18561904D01*
X69995238Y-18561904D01*
X70071428Y-18600000D01*
X70109523Y-18638095D01*
X70147619Y-18714285D01*
X70147619Y-18904761D01*
X70109523Y-18980952D01*
X70071428Y-19019047D01*
X69995238Y-19057142D01*
X69842857Y-19057142D01*
X69766666Y-19019047D01*
X69728571Y-18980952D01*
X69690476Y-18904761D01*
G04 #@! TO.C,C30*
X66364285Y-5985714D02*
X66402380Y-6023809D01*
X66516666Y-6061904D01*
X66592857Y-6061904D01*
X66707142Y-6023809D01*
X66783333Y-5947619D01*
X66821428Y-5871428D01*
X66859523Y-5719047D01*
X66859523Y-5604761D01*
X66821428Y-5452380D01*
X66783333Y-5376190D01*
X66707142Y-5300000D01*
X66592857Y-5261904D01*
X66516666Y-5261904D01*
X66402380Y-5300000D01*
X66364285Y-5338095D01*
X66097619Y-5261904D02*
X65602380Y-5261904D01*
X65869047Y-5566666D01*
X65754761Y-5566666D01*
X65678571Y-5604761D01*
X65640476Y-5642857D01*
X65602380Y-5719047D01*
X65602380Y-5909523D01*
X65640476Y-5985714D01*
X65678571Y-6023809D01*
X65754761Y-6061904D01*
X65983333Y-6061904D01*
X66059523Y-6023809D01*
X66097619Y-5985714D01*
X65107142Y-5261904D02*
X65030952Y-5261904D01*
X64954761Y-5300000D01*
X64916666Y-5338095D01*
X64878571Y-5414285D01*
X64840476Y-5566666D01*
X64840476Y-5757142D01*
X64878571Y-5909523D01*
X64916666Y-5985714D01*
X64954761Y-6023809D01*
X65030952Y-6061904D01*
X65107142Y-6061904D01*
X65183333Y-6023809D01*
X65221428Y-5985714D01*
X65259523Y-5909523D01*
X65297619Y-5757142D01*
X65297619Y-5566666D01*
X65259523Y-5414285D01*
X65221428Y-5338095D01*
X65183333Y-5300000D01*
X65107142Y-5261904D01*
G04 #@! TO.C,C31*
X49514285Y-9685714D02*
X49552380Y-9723809D01*
X49666666Y-9761904D01*
X49742857Y-9761904D01*
X49857142Y-9723809D01*
X49933333Y-9647619D01*
X49971428Y-9571428D01*
X50009523Y-9419047D01*
X50009523Y-9304761D01*
X49971428Y-9152380D01*
X49933333Y-9076190D01*
X49857142Y-9000000D01*
X49742857Y-8961904D01*
X49666666Y-8961904D01*
X49552380Y-9000000D01*
X49514285Y-9038095D01*
X49247619Y-8961904D02*
X48752380Y-8961904D01*
X49019047Y-9266666D01*
X48904761Y-9266666D01*
X48828571Y-9304761D01*
X48790476Y-9342857D01*
X48752380Y-9419047D01*
X48752380Y-9609523D01*
X48790476Y-9685714D01*
X48828571Y-9723809D01*
X48904761Y-9761904D01*
X49133333Y-9761904D01*
X49209523Y-9723809D01*
X49247619Y-9685714D01*
X47990476Y-9761904D02*
X48447619Y-9761904D01*
X48219047Y-9761904D02*
X48219047Y-8961904D01*
X48295238Y-9076190D01*
X48371428Y-9152380D01*
X48447619Y-9190476D01*
G04 #@! TO.C,U1*
X41409523Y-44761904D02*
X41409523Y-45409523D01*
X41371428Y-45485714D01*
X41333333Y-45523809D01*
X41257142Y-45561904D01*
X41104761Y-45561904D01*
X41028571Y-45523809D01*
X40990476Y-45485714D01*
X40952380Y-45409523D01*
X40952380Y-44761904D01*
X40152380Y-45561904D02*
X40609523Y-45561904D01*
X40380952Y-45561904D02*
X40380952Y-44761904D01*
X40457142Y-44876190D01*
X40533333Y-44952380D01*
X40609523Y-44990476D01*
G04 #@! TO.C,U2*
X41209523Y-32161904D02*
X41209523Y-32809523D01*
X41171428Y-32885714D01*
X41133333Y-32923809D01*
X41057142Y-32961904D01*
X40904761Y-32961904D01*
X40828571Y-32923809D01*
X40790476Y-32885714D01*
X40752380Y-32809523D01*
X40752380Y-32161904D01*
X40409523Y-32238095D02*
X40371428Y-32200000D01*
X40295238Y-32161904D01*
X40104761Y-32161904D01*
X40028571Y-32200000D01*
X39990476Y-32238095D01*
X39952380Y-32314285D01*
X39952380Y-32390476D01*
X39990476Y-32504761D01*
X40447619Y-32961904D01*
X39952380Y-32961904D01*
G04 #@! TO.C,C20*
X7814285Y-6585714D02*
X7852380Y-6623809D01*
X7966666Y-6661904D01*
X8042857Y-6661904D01*
X8157142Y-6623809D01*
X8233333Y-6547619D01*
X8271428Y-6471428D01*
X8309523Y-6319047D01*
X8309523Y-6204761D01*
X8271428Y-6052380D01*
X8233333Y-5976190D01*
X8157142Y-5900000D01*
X8042857Y-5861904D01*
X7966666Y-5861904D01*
X7852380Y-5900000D01*
X7814285Y-5938095D01*
X7509523Y-5938095D02*
X7471428Y-5900000D01*
X7395238Y-5861904D01*
X7204761Y-5861904D01*
X7128571Y-5900000D01*
X7090476Y-5938095D01*
X7052380Y-6014285D01*
X7052380Y-6090476D01*
X7090476Y-6204761D01*
X7547619Y-6661904D01*
X7052380Y-6661904D01*
X6557142Y-5861904D02*
X6480952Y-5861904D01*
X6404761Y-5900000D01*
X6366666Y-5938095D01*
X6328571Y-6014285D01*
X6290476Y-6166666D01*
X6290476Y-6357142D01*
X6328571Y-6509523D01*
X6366666Y-6585714D01*
X6404761Y-6623809D01*
X6480952Y-6661904D01*
X6557142Y-6661904D01*
X6633333Y-6623809D01*
X6671428Y-6585714D01*
X6709523Y-6509523D01*
X6747619Y-6357142D01*
X6747619Y-6166666D01*
X6709523Y-6014285D01*
X6671428Y-5938095D01*
X6633333Y-5900000D01*
X6557142Y-5861904D01*
G04 #@! TO.C,D1*
X72590476Y-43161904D02*
X72590476Y-42361904D01*
X72400000Y-42361904D01*
X72285714Y-42400000D01*
X72209523Y-42476190D01*
X72171428Y-42552380D01*
X72133333Y-42704761D01*
X72133333Y-42819047D01*
X72171428Y-42971428D01*
X72209523Y-43047619D01*
X72285714Y-43123809D01*
X72400000Y-43161904D01*
X72590476Y-43161904D01*
X71371428Y-43161904D02*
X71828571Y-43161904D01*
X71600000Y-43161904D02*
X71600000Y-42361904D01*
X71676190Y-42476190D01*
X71752380Y-42552380D01*
X71828571Y-42590476D01*
G04 #@! TO.C,D2*
X74840476Y-33111904D02*
X74840476Y-32311904D01*
X74650000Y-32311904D01*
X74535714Y-32350000D01*
X74459523Y-32426190D01*
X74421428Y-32502380D01*
X74383333Y-32654761D01*
X74383333Y-32769047D01*
X74421428Y-32921428D01*
X74459523Y-32997619D01*
X74535714Y-33073809D01*
X74650000Y-33111904D01*
X74840476Y-33111904D01*
X74078571Y-32388095D02*
X74040476Y-32350000D01*
X73964285Y-32311904D01*
X73773809Y-32311904D01*
X73697619Y-32350000D01*
X73659523Y-32388095D01*
X73621428Y-32464285D01*
X73621428Y-32540476D01*
X73659523Y-32654761D01*
X74116666Y-33111904D01*
X73621428Y-33111904D01*
G04 #@! TO.C,R4*
X79683333Y-48461904D02*
X79950000Y-48080952D01*
X80140476Y-48461904D02*
X80140476Y-47661904D01*
X79835714Y-47661904D01*
X79759523Y-47700000D01*
X79721428Y-47738095D01*
X79683333Y-47814285D01*
X79683333Y-47928571D01*
X79721428Y-48004761D01*
X79759523Y-48042857D01*
X79835714Y-48080952D01*
X80140476Y-48080952D01*
X78997619Y-47928571D02*
X78997619Y-48461904D01*
X79188095Y-47623809D02*
X79378571Y-48195238D01*
X78883333Y-48195238D01*
G04 #@! TO.C,R9*
X76433333Y-28061904D02*
X76700000Y-27680952D01*
X76890476Y-28061904D02*
X76890476Y-27261904D01*
X76585714Y-27261904D01*
X76509523Y-27300000D01*
X76471428Y-27338095D01*
X76433333Y-27414285D01*
X76433333Y-27528571D01*
X76471428Y-27604761D01*
X76509523Y-27642857D01*
X76585714Y-27680952D01*
X76890476Y-27680952D01*
X76052380Y-28061904D02*
X75900000Y-28061904D01*
X75823809Y-28023809D01*
X75785714Y-27985714D01*
X75709523Y-27871428D01*
X75671428Y-27719047D01*
X75671428Y-27414285D01*
X75709523Y-27338095D01*
X75747619Y-27300000D01*
X75823809Y-27261904D01*
X75976190Y-27261904D01*
X76052380Y-27300000D01*
X76090476Y-27338095D01*
X76128571Y-27414285D01*
X76128571Y-27604761D01*
X76090476Y-27680952D01*
X76052380Y-27719047D01*
X75976190Y-27757142D01*
X75823809Y-27757142D01*
X75747619Y-27719047D01*
X75709523Y-27680952D01*
X75671428Y-27604761D01*
G04 #@! TO.C,R10*
X59914285Y-28311904D02*
X60180952Y-27930952D01*
X60371428Y-28311904D02*
X60371428Y-27511904D01*
X60066666Y-27511904D01*
X59990476Y-27550000D01*
X59952380Y-27588095D01*
X59914285Y-27664285D01*
X59914285Y-27778571D01*
X59952380Y-27854761D01*
X59990476Y-27892857D01*
X60066666Y-27930952D01*
X60371428Y-27930952D01*
X59152380Y-28311904D02*
X59609523Y-28311904D01*
X59380952Y-28311904D02*
X59380952Y-27511904D01*
X59457142Y-27626190D01*
X59533333Y-27702380D01*
X59609523Y-27740476D01*
X58657142Y-27511904D02*
X58580952Y-27511904D01*
X58504761Y-27550000D01*
X58466666Y-27588095D01*
X58428571Y-27664285D01*
X58390476Y-27816666D01*
X58390476Y-28007142D01*
X58428571Y-28159523D01*
X58466666Y-28235714D01*
X58504761Y-28273809D01*
X58580952Y-28311904D01*
X58657142Y-28311904D01*
X58733333Y-28273809D01*
X58771428Y-28235714D01*
X58809523Y-28159523D01*
X58847619Y-28007142D01*
X58847619Y-27816666D01*
X58809523Y-27664285D01*
X58771428Y-27588095D01*
X58733333Y-27550000D01*
X58657142Y-27511904D01*
G04 #@! TO.C,R11*
X66614285Y-31211904D02*
X66880952Y-30830952D01*
X67071428Y-31211904D02*
X67071428Y-30411904D01*
X66766666Y-30411904D01*
X66690476Y-30450000D01*
X66652380Y-30488095D01*
X66614285Y-30564285D01*
X66614285Y-30678571D01*
X66652380Y-30754761D01*
X66690476Y-30792857D01*
X66766666Y-30830952D01*
X67071428Y-30830952D01*
X65852380Y-31211904D02*
X66309523Y-31211904D01*
X66080952Y-31211904D02*
X66080952Y-30411904D01*
X66157142Y-30526190D01*
X66233333Y-30602380D01*
X66309523Y-30640476D01*
X65090476Y-31211904D02*
X65547619Y-31211904D01*
X65319047Y-31211904D02*
X65319047Y-30411904D01*
X65395238Y-30526190D01*
X65471428Y-30602380D01*
X65547619Y-30640476D01*
G04 #@! TO.C,R12*
X55314285Y-32461904D02*
X55580952Y-32080952D01*
X55771428Y-32461904D02*
X55771428Y-31661904D01*
X55466666Y-31661904D01*
X55390476Y-31700000D01*
X55352380Y-31738095D01*
X55314285Y-31814285D01*
X55314285Y-31928571D01*
X55352380Y-32004761D01*
X55390476Y-32042857D01*
X55466666Y-32080952D01*
X55771428Y-32080952D01*
X54552380Y-32461904D02*
X55009523Y-32461904D01*
X54780952Y-32461904D02*
X54780952Y-31661904D01*
X54857142Y-31776190D01*
X54933333Y-31852380D01*
X55009523Y-31890476D01*
X54247619Y-31738095D02*
X54209523Y-31700000D01*
X54133333Y-31661904D01*
X53942857Y-31661904D01*
X53866666Y-31700000D01*
X53828571Y-31738095D01*
X53790476Y-31814285D01*
X53790476Y-31890476D01*
X53828571Y-32004761D01*
X54285714Y-32461904D01*
X53790476Y-32461904D01*
G04 #@! TO.C,R13*
X55114285Y-36411904D02*
X55380952Y-36030952D01*
X55571428Y-36411904D02*
X55571428Y-35611904D01*
X55266666Y-35611904D01*
X55190476Y-35650000D01*
X55152380Y-35688095D01*
X55114285Y-35764285D01*
X55114285Y-35878571D01*
X55152380Y-35954761D01*
X55190476Y-35992857D01*
X55266666Y-36030952D01*
X55571428Y-36030952D01*
X54352380Y-36411904D02*
X54809523Y-36411904D01*
X54580952Y-36411904D02*
X54580952Y-35611904D01*
X54657142Y-35726190D01*
X54733333Y-35802380D01*
X54809523Y-35840476D01*
X54085714Y-35611904D02*
X53590476Y-35611904D01*
X53857142Y-35916666D01*
X53742857Y-35916666D01*
X53666666Y-35954761D01*
X53628571Y-35992857D01*
X53590476Y-36069047D01*
X53590476Y-36259523D01*
X53628571Y-36335714D01*
X53666666Y-36373809D01*
X53742857Y-36411904D01*
X53971428Y-36411904D01*
X54047619Y-36373809D01*
X54085714Y-36335714D01*
G04 #@! TO.C,R14*
X67464285Y-41411904D02*
X67730952Y-41030952D01*
X67921428Y-41411904D02*
X67921428Y-40611904D01*
X67616666Y-40611904D01*
X67540476Y-40650000D01*
X67502380Y-40688095D01*
X67464285Y-40764285D01*
X67464285Y-40878571D01*
X67502380Y-40954761D01*
X67540476Y-40992857D01*
X67616666Y-41030952D01*
X67921428Y-41030952D01*
X66702380Y-41411904D02*
X67159523Y-41411904D01*
X66930952Y-41411904D02*
X66930952Y-40611904D01*
X67007142Y-40726190D01*
X67083333Y-40802380D01*
X67159523Y-40840476D01*
X66016666Y-40878571D02*
X66016666Y-41411904D01*
X66207142Y-40573809D02*
X66397619Y-41145238D01*
X65902380Y-41145238D01*
G04 #@! TO.C,R15*
X55214285Y-41061904D02*
X55480952Y-40680952D01*
X55671428Y-41061904D02*
X55671428Y-40261904D01*
X55366666Y-40261904D01*
X55290476Y-40300000D01*
X55252380Y-40338095D01*
X55214285Y-40414285D01*
X55214285Y-40528571D01*
X55252380Y-40604761D01*
X55290476Y-40642857D01*
X55366666Y-40680952D01*
X55671428Y-40680952D01*
X54452380Y-41061904D02*
X54909523Y-41061904D01*
X54680952Y-41061904D02*
X54680952Y-40261904D01*
X54757142Y-40376190D01*
X54833333Y-40452380D01*
X54909523Y-40490476D01*
X53728571Y-40261904D02*
X54109523Y-40261904D01*
X54147619Y-40642857D01*
X54109523Y-40604761D01*
X54033333Y-40566666D01*
X53842857Y-40566666D01*
X53766666Y-40604761D01*
X53728571Y-40642857D01*
X53690476Y-40719047D01*
X53690476Y-40909523D01*
X53728571Y-40985714D01*
X53766666Y-41023809D01*
X53842857Y-41061904D01*
X54033333Y-41061904D01*
X54109523Y-41023809D01*
X54147619Y-40985714D01*
G04 #@! TO.C,U3*
X66959523Y-35761904D02*
X66959523Y-36409523D01*
X66921428Y-36485714D01*
X66883333Y-36523809D01*
X66807142Y-36561904D01*
X66654761Y-36561904D01*
X66578571Y-36523809D01*
X66540476Y-36485714D01*
X66502380Y-36409523D01*
X66502380Y-35761904D01*
X66197619Y-35761904D02*
X65702380Y-35761904D01*
X65969047Y-36066666D01*
X65854761Y-36066666D01*
X65778571Y-36104761D01*
X65740476Y-36142857D01*
X65702380Y-36219047D01*
X65702380Y-36409523D01*
X65740476Y-36485714D01*
X65778571Y-36523809D01*
X65854761Y-36561904D01*
X66083333Y-36561904D01*
X66159523Y-36523809D01*
X66197619Y-36485714D01*
G04 #@! TO.C,C45*
X89814285Y-17435714D02*
X89852380Y-17473809D01*
X89966666Y-17511904D01*
X90042857Y-17511904D01*
X90157142Y-17473809D01*
X90233333Y-17397619D01*
X90271428Y-17321428D01*
X90309523Y-17169047D01*
X90309523Y-17054761D01*
X90271428Y-16902380D01*
X90233333Y-16826190D01*
X90157142Y-16750000D01*
X90042857Y-16711904D01*
X89966666Y-16711904D01*
X89852380Y-16750000D01*
X89814285Y-16788095D01*
X89128571Y-16978571D02*
X89128571Y-17511904D01*
X89319047Y-16673809D02*
X89509523Y-17245238D01*
X89014285Y-17245238D01*
X88328571Y-16711904D02*
X88709523Y-16711904D01*
X88747619Y-17092857D01*
X88709523Y-17054761D01*
X88633333Y-17016666D01*
X88442857Y-17016666D01*
X88366666Y-17054761D01*
X88328571Y-17092857D01*
X88290476Y-17169047D01*
X88290476Y-17359523D01*
X88328571Y-17435714D01*
X88366666Y-17473809D01*
X88442857Y-17511904D01*
X88633333Y-17511904D01*
X88709523Y-17473809D01*
X88747619Y-17435714D01*
G04 #@! TO.C,C46*
X94014285Y-29635714D02*
X94052380Y-29673809D01*
X94166666Y-29711904D01*
X94242857Y-29711904D01*
X94357142Y-29673809D01*
X94433333Y-29597619D01*
X94471428Y-29521428D01*
X94509523Y-29369047D01*
X94509523Y-29254761D01*
X94471428Y-29102380D01*
X94433333Y-29026190D01*
X94357142Y-28950000D01*
X94242857Y-28911904D01*
X94166666Y-28911904D01*
X94052380Y-28950000D01*
X94014285Y-28988095D01*
X93328571Y-29178571D02*
X93328571Y-29711904D01*
X93519047Y-28873809D02*
X93709523Y-29445238D01*
X93214285Y-29445238D01*
X92566666Y-28911904D02*
X92719047Y-28911904D01*
X92795238Y-28950000D01*
X92833333Y-28988095D01*
X92909523Y-29102380D01*
X92947619Y-29254761D01*
X92947619Y-29559523D01*
X92909523Y-29635714D01*
X92871428Y-29673809D01*
X92795238Y-29711904D01*
X92642857Y-29711904D01*
X92566666Y-29673809D01*
X92528571Y-29635714D01*
X92490476Y-29559523D01*
X92490476Y-29369047D01*
X92528571Y-29292857D01*
X92566666Y-29254761D01*
X92642857Y-29216666D01*
X92795238Y-29216666D01*
X92871428Y-29254761D01*
X92909523Y-29292857D01*
X92947619Y-29369047D01*
G04 #@! TO.C,C7*
X55133333Y-38635714D02*
X55171428Y-38673809D01*
X55285714Y-38711904D01*
X55361904Y-38711904D01*
X55476190Y-38673809D01*
X55552380Y-38597619D01*
X55590476Y-38521428D01*
X55628571Y-38369047D01*
X55628571Y-38254761D01*
X55590476Y-38102380D01*
X55552380Y-38026190D01*
X55476190Y-37950000D01*
X55361904Y-37911904D01*
X55285714Y-37911904D01*
X55171428Y-37950000D01*
X55133333Y-37988095D01*
X54866666Y-37911904D02*
X54333333Y-37911904D01*
X54676190Y-38711904D01*
G04 #@! TO.C,U5*
X51209523Y-28961904D02*
X51209523Y-29609523D01*
X51171428Y-29685714D01*
X51133333Y-29723809D01*
X51057142Y-29761904D01*
X50904761Y-29761904D01*
X50828571Y-29723809D01*
X50790476Y-29685714D01*
X50752380Y-29609523D01*
X50752380Y-28961904D01*
X49990476Y-28961904D02*
X50371428Y-28961904D01*
X50409523Y-29342857D01*
X50371428Y-29304761D01*
X50295238Y-29266666D01*
X50104761Y-29266666D01*
X50028571Y-29304761D01*
X49990476Y-29342857D01*
X49952380Y-29419047D01*
X49952380Y-29609523D01*
X49990476Y-29685714D01*
X50028571Y-29723809D01*
X50104761Y-29761904D01*
X50295238Y-29761904D01*
X50371428Y-29723809D01*
X50409523Y-29685714D01*
G04 #@! TO.C,C12*
X13914285Y-6285714D02*
X13952380Y-6323809D01*
X14066666Y-6361904D01*
X14142857Y-6361904D01*
X14257142Y-6323809D01*
X14333333Y-6247619D01*
X14371428Y-6171428D01*
X14409523Y-6019047D01*
X14409523Y-5904761D01*
X14371428Y-5752380D01*
X14333333Y-5676190D01*
X14257142Y-5600000D01*
X14142857Y-5561904D01*
X14066666Y-5561904D01*
X13952380Y-5600000D01*
X13914285Y-5638095D01*
X13152380Y-6361904D02*
X13609523Y-6361904D01*
X13380952Y-6361904D02*
X13380952Y-5561904D01*
X13457142Y-5676190D01*
X13533333Y-5752380D01*
X13609523Y-5790476D01*
X12847619Y-5638095D02*
X12809523Y-5600000D01*
X12733333Y-5561904D01*
X12542857Y-5561904D01*
X12466666Y-5600000D01*
X12428571Y-5638095D01*
X12390476Y-5714285D01*
X12390476Y-5790476D01*
X12428571Y-5904761D01*
X12885714Y-6361904D01*
X12390476Y-6361904D01*
G04 #@! TO.C,C15*
X67364285Y-3335714D02*
X67402380Y-3373809D01*
X67516666Y-3411904D01*
X67592857Y-3411904D01*
X67707142Y-3373809D01*
X67783333Y-3297619D01*
X67821428Y-3221428D01*
X67859523Y-3069047D01*
X67859523Y-2954761D01*
X67821428Y-2802380D01*
X67783333Y-2726190D01*
X67707142Y-2650000D01*
X67592857Y-2611904D01*
X67516666Y-2611904D01*
X67402380Y-2650000D01*
X67364285Y-2688095D01*
X66602380Y-3411904D02*
X67059523Y-3411904D01*
X66830952Y-3411904D02*
X66830952Y-2611904D01*
X66907142Y-2726190D01*
X66983333Y-2802380D01*
X67059523Y-2840476D01*
X65878571Y-2611904D02*
X66259523Y-2611904D01*
X66297619Y-2992857D01*
X66259523Y-2954761D01*
X66183333Y-2916666D01*
X65992857Y-2916666D01*
X65916666Y-2954761D01*
X65878571Y-2992857D01*
X65840476Y-3069047D01*
X65840476Y-3259523D01*
X65878571Y-3335714D01*
X65916666Y-3373809D01*
X65992857Y-3411904D01*
X66183333Y-3411904D01*
X66259523Y-3373809D01*
X66297619Y-3335714D01*
G04 #@! TO.C,R16*
X38314285Y-41861904D02*
X38580952Y-41480952D01*
X38771428Y-41861904D02*
X38771428Y-41061904D01*
X38466666Y-41061904D01*
X38390476Y-41100000D01*
X38352380Y-41138095D01*
X38314285Y-41214285D01*
X38314285Y-41328571D01*
X38352380Y-41404761D01*
X38390476Y-41442857D01*
X38466666Y-41480952D01*
X38771428Y-41480952D01*
X37552380Y-41861904D02*
X38009523Y-41861904D01*
X37780952Y-41861904D02*
X37780952Y-41061904D01*
X37857142Y-41176190D01*
X37933333Y-41252380D01*
X38009523Y-41290476D01*
X36866666Y-41061904D02*
X37019047Y-41061904D01*
X37095238Y-41100000D01*
X37133333Y-41138095D01*
X37209523Y-41252380D01*
X37247619Y-41404761D01*
X37247619Y-41709523D01*
X37209523Y-41785714D01*
X37171428Y-41823809D01*
X37095238Y-41861904D01*
X36942857Y-41861904D01*
X36866666Y-41823809D01*
X36828571Y-41785714D01*
X36790476Y-41709523D01*
X36790476Y-41519047D01*
X36828571Y-41442857D01*
X36866666Y-41404761D01*
X36942857Y-41366666D01*
X37095238Y-41366666D01*
X37171428Y-41404761D01*
X37209523Y-41442857D01*
X37247619Y-41519047D01*
G04 #@! TD*
M02*
