G04 #@! TF.GenerationSoftware,KiCad,Pcbnew,5.0.2-bee76a0~70~ubuntu16.04.1*
G04 #@! TF.CreationDate,2019-08-17T11:50:25-07:00*
G04 #@! TF.ProjectId,n2adr,6e326164-722e-46b6-9963-61645f706362,E5b9*
G04 #@! TF.SameCoordinates,PX3dfd240PY3473bc0*
G04 #@! TF.FileFunction,Soldermask,Bot*
G04 #@! TF.FilePolarity,Negative*
%FSLAX46Y46*%
G04 Gerber Fmt 4.6, Leading zero omitted, Abs format (unit mm)*
G04 Created by KiCad (PCBNEW 5.0.2-bee76a0~70~ubuntu16.04.1) date Sat 17 Aug 2019 11:50:25 AM PDT*
%MOMM*%
%LPD*%
G01*
G04 APERTURE LIST*
%ADD10C,0.100000*%
G04 APERTURE END LIST*
D10*
G36*
X100000000Y-49900000D02*
X97000000Y-49900000D01*
X97000000Y0D01*
X100000000Y0D01*
X100000000Y-49900000D01*
X100000000Y-49900000D01*
G37*
G36*
X3000000Y-49900000D02*
X0Y-49900000D01*
X0Y0D01*
X3000000Y0D01*
X3000000Y-49900000D01*
X3000000Y-49900000D01*
G37*
G36*
X16461379Y-46123834D02*
X16670033Y-46165338D01*
X16932096Y-46273888D01*
X17167947Y-46431479D01*
X17368521Y-46632053D01*
X17526112Y-46867904D01*
X17634662Y-47129967D01*
X17690000Y-47408172D01*
X17690000Y-47691828D01*
X17634662Y-47970033D01*
X17526112Y-48232096D01*
X17368521Y-48467947D01*
X17167947Y-48668521D01*
X16932096Y-48826112D01*
X16670033Y-48934662D01*
X16461379Y-48976165D01*
X16391829Y-48990000D01*
X16108171Y-48990000D01*
X16038621Y-48976165D01*
X15829967Y-48934662D01*
X15567904Y-48826112D01*
X15332053Y-48668521D01*
X15131479Y-48467947D01*
X14973888Y-48232096D01*
X14865338Y-47970033D01*
X14810000Y-47691828D01*
X14810000Y-47408172D01*
X14865338Y-47129967D01*
X14973888Y-46867904D01*
X15131479Y-46632053D01*
X15332053Y-46431479D01*
X15567904Y-46273888D01*
X15829967Y-46165338D01*
X16038621Y-46123834D01*
X16108171Y-46110000D01*
X16391829Y-46110000D01*
X16461379Y-46123834D01*
X16461379Y-46123834D01*
G37*
G36*
X7964998Y-46165338D02*
X8158365Y-46203801D01*
X8413149Y-46309336D01*
X8606058Y-46438234D01*
X8642451Y-46462551D01*
X8837449Y-46657549D01*
X8837451Y-46657552D01*
X8886999Y-46731705D01*
X8990665Y-46886853D01*
X9096199Y-47141636D01*
X9150000Y-47412111D01*
X9150000Y-47687889D01*
X9096199Y-47958364D01*
X8990665Y-48213147D01*
X8837449Y-48442451D01*
X8642451Y-48637449D01*
X8642448Y-48637451D01*
X8413149Y-48790664D01*
X8158365Y-48896199D01*
X8023127Y-48923099D01*
X7887889Y-48950000D01*
X7612111Y-48950000D01*
X7476873Y-48923099D01*
X7341635Y-48896199D01*
X7086851Y-48790664D01*
X6857552Y-48637451D01*
X6857549Y-48637449D01*
X6662551Y-48442451D01*
X6509335Y-48213147D01*
X6403801Y-47958364D01*
X6350000Y-47687889D01*
X6350000Y-47412111D01*
X6403801Y-47141636D01*
X6509335Y-46886853D01*
X6613002Y-46731705D01*
X6662549Y-46657552D01*
X6662551Y-46657549D01*
X6857549Y-46462551D01*
X6893942Y-46438234D01*
X7086851Y-46309336D01*
X7341635Y-46203801D01*
X7535002Y-46165338D01*
X7612111Y-46150000D01*
X7887889Y-46150000D01*
X7964998Y-46165338D01*
X7964998Y-46165338D01*
G37*
G36*
X75825000Y-47900000D02*
X74175000Y-47900000D01*
X74175000Y-46300000D01*
X75825000Y-46300000D01*
X75825000Y-47900000D01*
X75825000Y-47900000D01*
G37*
G36*
X78325000Y-47900000D02*
X76675000Y-47900000D01*
X76675000Y-46300000D01*
X78325000Y-46300000D01*
X78325000Y-47900000D01*
X78325000Y-47900000D01*
G37*
G36*
X70200000Y-47800000D02*
X65400000Y-47800000D01*
X65400000Y-42200000D01*
X70200000Y-42200000D01*
X70200000Y-47800000D01*
X70200000Y-47800000D01*
G37*
G36*
X65000000Y-47800000D02*
X63000000Y-47800000D01*
X63000000Y-42200000D01*
X65000000Y-42200000D01*
X65000000Y-47800000D01*
X65000000Y-47800000D01*
G37*
G36*
X62600000Y-47800000D02*
X57800000Y-47800000D01*
X57800000Y-42200000D01*
X62600000Y-42200000D01*
X62600000Y-47800000D01*
X62600000Y-47800000D01*
G37*
G36*
X38200000Y-47800000D02*
X33400000Y-47800000D01*
X33400000Y-42200000D01*
X38200000Y-42200000D01*
X38200000Y-47800000D01*
X38200000Y-47800000D01*
G37*
G36*
X33000000Y-47800000D02*
X31000000Y-47800000D01*
X31000000Y-42200000D01*
X33000000Y-42200000D01*
X33000000Y-47800000D01*
X33000000Y-47800000D01*
G37*
G36*
X30600000Y-47800000D02*
X25800000Y-47800000D01*
X25800000Y-42200000D01*
X30600000Y-42200000D01*
X30600000Y-47800000D01*
X30600000Y-47800000D01*
G37*
G36*
X52349876Y-44646605D02*
X52568172Y-44737026D01*
X52764633Y-44868297D01*
X52931703Y-45035367D01*
X53062974Y-45231828D01*
X53153395Y-45450124D01*
X53199490Y-45681859D01*
X53199490Y-45918141D01*
X53153395Y-46149876D01*
X53062974Y-46368172D01*
X52931703Y-46564633D01*
X52764633Y-46731703D01*
X52568172Y-46862974D01*
X52349876Y-46953395D01*
X52118141Y-46999490D01*
X51881859Y-46999490D01*
X51650124Y-46953395D01*
X51431828Y-46862974D01*
X51235367Y-46731703D01*
X51068297Y-46564633D01*
X50937026Y-46368172D01*
X50846605Y-46149876D01*
X50800510Y-45918141D01*
X50800510Y-45681859D01*
X50846605Y-45450124D01*
X50937026Y-45231828D01*
X51068297Y-45035367D01*
X51235367Y-44868297D01*
X51431828Y-44737026D01*
X51650124Y-44646605D01*
X51881859Y-44600510D01*
X52118141Y-44600510D01*
X52349876Y-44646605D01*
X52349876Y-44646605D01*
G37*
G36*
X12568793Y-38024937D02*
X12923670Y-38171932D01*
X13243055Y-38385338D01*
X13514662Y-38656945D01*
X13728068Y-38976330D01*
X13875063Y-39331207D01*
X13950000Y-39707940D01*
X13950000Y-40092060D01*
X13875063Y-40468793D01*
X13728068Y-40823670D01*
X13514662Y-41143055D01*
X13243055Y-41414662D01*
X12923670Y-41628068D01*
X12568793Y-41775063D01*
X12179984Y-41852402D01*
X12156535Y-41859515D01*
X12134924Y-41871066D01*
X12115982Y-41886612D01*
X12100436Y-41905554D01*
X12088885Y-41927165D01*
X12081772Y-41950614D01*
X12079370Y-41975000D01*
X12081772Y-41999386D01*
X12088885Y-42022835D01*
X12100436Y-42044446D01*
X12115982Y-42063388D01*
X12134924Y-42078934D01*
X12156535Y-42090485D01*
X12179984Y-42097598D01*
X12204370Y-42100000D01*
X12226532Y-42100000D01*
X12670885Y-42188387D01*
X12969128Y-42311923D01*
X13089459Y-42361766D01*
X13146680Y-42400000D01*
X13466168Y-42613475D01*
X13786525Y-42933832D01*
X13786527Y-42933835D01*
X14031191Y-43300000D01*
X14038235Y-43310543D01*
X14211613Y-43729115D01*
X14300000Y-44173468D01*
X14300000Y-44626532D01*
X14211613Y-45070885D01*
X14038235Y-45489457D01*
X13786525Y-45866168D01*
X13466168Y-46186525D01*
X13466165Y-46186527D01*
X13089459Y-46438234D01*
X13089458Y-46438235D01*
X13089457Y-46438235D01*
X12670885Y-46611613D01*
X12226532Y-46700000D01*
X11773468Y-46700000D01*
X11329115Y-46611613D01*
X10910543Y-46438235D01*
X10910542Y-46438235D01*
X10910541Y-46438234D01*
X10533835Y-46186527D01*
X10533832Y-46186525D01*
X10213475Y-45866168D01*
X9961765Y-45489457D01*
X9788387Y-45070885D01*
X9700000Y-44626532D01*
X9700000Y-44173468D01*
X9788387Y-43729115D01*
X9961765Y-43310543D01*
X9968810Y-43300000D01*
X10213473Y-42933835D01*
X10213475Y-42933832D01*
X10533832Y-42613475D01*
X10853320Y-42400000D01*
X10910541Y-42361766D01*
X11030873Y-42311923D01*
X11329115Y-42188387D01*
X11773468Y-42100000D01*
X11795630Y-42100000D01*
X11820016Y-42097598D01*
X11843465Y-42090485D01*
X11865076Y-42078934D01*
X11884018Y-42063388D01*
X11899564Y-42044446D01*
X11911115Y-42022835D01*
X11918228Y-41999386D01*
X11920630Y-41975000D01*
X11918228Y-41950614D01*
X11911115Y-41927165D01*
X11899564Y-41905554D01*
X11884018Y-41886612D01*
X11865076Y-41871066D01*
X11843465Y-41859515D01*
X11820016Y-41852402D01*
X11431207Y-41775063D01*
X11076330Y-41628068D01*
X10756945Y-41414662D01*
X10485338Y-41143055D01*
X10271932Y-40823670D01*
X10124937Y-40468793D01*
X10050000Y-40092060D01*
X10050000Y-39707940D01*
X10124937Y-39331207D01*
X10271932Y-38976330D01*
X10485338Y-38656945D01*
X10756945Y-38385338D01*
X11076330Y-38171932D01*
X11431207Y-38024937D01*
X11807940Y-37950000D01*
X12192060Y-37950000D01*
X12568793Y-38024937D01*
X12568793Y-38024937D01*
G37*
G36*
X49000000Y-46575000D02*
X42300000Y-46575000D01*
X42300000Y-44425000D01*
X49000000Y-44425000D01*
X49000000Y-46575000D01*
X49000000Y-46575000D01*
G37*
G36*
X75825000Y-45700000D02*
X74175000Y-45700000D01*
X74175000Y-44100000D01*
X75825000Y-44100000D01*
X75825000Y-45700000D01*
X75825000Y-45700000D01*
G37*
G36*
X78325000Y-45700000D02*
X76675000Y-45700000D01*
X76675000Y-44100000D01*
X78325000Y-44100000D01*
X78325000Y-45700000D01*
X78325000Y-45700000D01*
G37*
G36*
X41025000Y-44000000D02*
X40364923Y-44000000D01*
X40340537Y-44002402D01*
X40317088Y-44009515D01*
X40295477Y-44021066D01*
X40276535Y-44036612D01*
X40260989Y-44055554D01*
X40249438Y-44077165D01*
X40242325Y-44100614D01*
X40239923Y-44125000D01*
X40242325Y-44149386D01*
X40249438Y-44172835D01*
X40260989Y-44194446D01*
X40276535Y-44213388D01*
X40295477Y-44228934D01*
X40317087Y-44240485D01*
X40384207Y-44268287D01*
X40482481Y-44333952D01*
X40566048Y-44417519D01*
X40631713Y-44515793D01*
X40676943Y-44624988D01*
X40700000Y-44740904D01*
X40700000Y-44859096D01*
X40676944Y-44975010D01*
X40631713Y-45084207D01*
X40566048Y-45182481D01*
X40482481Y-45266048D01*
X40384207Y-45331713D01*
X40275012Y-45376943D01*
X40159096Y-45400000D01*
X40040904Y-45400000D01*
X39924988Y-45376943D01*
X39815793Y-45331713D01*
X39717519Y-45266048D01*
X39633952Y-45182481D01*
X39568287Y-45084207D01*
X39523056Y-44975010D01*
X39500000Y-44859096D01*
X39500000Y-44740904D01*
X39523057Y-44624988D01*
X39568287Y-44515793D01*
X39633952Y-44417519D01*
X39717519Y-44333952D01*
X39815793Y-44268287D01*
X39882913Y-44240485D01*
X39904523Y-44228934D01*
X39923465Y-44213388D01*
X39939011Y-44194446D01*
X39950562Y-44172835D01*
X39957675Y-44149386D01*
X39960077Y-44125000D01*
X39957675Y-44100614D01*
X39950562Y-44077164D01*
X39939011Y-44055554D01*
X39923465Y-44036612D01*
X39904523Y-44021066D01*
X39882912Y-44009515D01*
X39859463Y-44002402D01*
X39835077Y-44000000D01*
X39375000Y-44000000D01*
X39375000Y-42400000D01*
X41025000Y-42400000D01*
X41025000Y-44000000D01*
X41025000Y-44000000D01*
G37*
G36*
X81552120Y-41809555D02*
X81834204Y-41926398D01*
X81897672Y-41968806D01*
X82088074Y-42096028D01*
X82303972Y-42311926D01*
X82431194Y-42502328D01*
X82473602Y-42565796D01*
X82590445Y-42847880D01*
X82650010Y-43147336D01*
X82650010Y-43452664D01*
X82590445Y-43752120D01*
X82473602Y-44034204D01*
X82471841Y-44036839D01*
X82303972Y-44288074D01*
X82088074Y-44503972D01*
X81943594Y-44600510D01*
X81834204Y-44673602D01*
X81552120Y-44790445D01*
X81252664Y-44850010D01*
X80947336Y-44850010D01*
X80647880Y-44790445D01*
X80365796Y-44673602D01*
X80256406Y-44600510D01*
X80111926Y-44503972D01*
X79896028Y-44288074D01*
X79728159Y-44036839D01*
X79726398Y-44034204D01*
X79609555Y-43752120D01*
X79549990Y-43452664D01*
X79549990Y-43147336D01*
X79609555Y-42847880D01*
X79726398Y-42565796D01*
X79768806Y-42502328D01*
X79896028Y-42311926D01*
X80111926Y-42096028D01*
X80302328Y-41968806D01*
X80365796Y-41926398D01*
X80647880Y-41809555D01*
X80947336Y-41749990D01*
X81252664Y-41749990D01*
X81552120Y-41809555D01*
X81552120Y-41809555D01*
G37*
G36*
X73468988Y-43282448D02*
X73487930Y-43297994D01*
X73509541Y-43309545D01*
X73532987Y-43316657D01*
X73545845Y-43319215D01*
X73636839Y-43356906D01*
X73717640Y-43410896D01*
X73718734Y-43411627D01*
X73788373Y-43481266D01*
X73843095Y-43563163D01*
X73880785Y-43654155D01*
X73900000Y-43750755D01*
X73900000Y-43849245D01*
X73880785Y-43945845D01*
X73844186Y-44034204D01*
X73843094Y-44036839D01*
X73789104Y-44117640D01*
X73788373Y-44118734D01*
X73718734Y-44188373D01*
X73718731Y-44188375D01*
X73636839Y-44243094D01*
X73545845Y-44280785D01*
X73449246Y-44300000D01*
X73350754Y-44300000D01*
X73254155Y-44280785D01*
X73163161Y-44243094D01*
X73081269Y-44188375D01*
X73081266Y-44188373D01*
X73011627Y-44118734D01*
X73010896Y-44117640D01*
X72956906Y-44036839D01*
X72955815Y-44034204D01*
X72919215Y-43945845D01*
X72900000Y-43849245D01*
X72900000Y-43750755D01*
X72919215Y-43654155D01*
X72956905Y-43563163D01*
X73011627Y-43481266D01*
X73081266Y-43411627D01*
X73082360Y-43410896D01*
X73163161Y-43356906D01*
X73254155Y-43319215D01*
X73350754Y-43300000D01*
X73375410Y-43300000D01*
X73399796Y-43297598D01*
X73423245Y-43290485D01*
X73444856Y-43278934D01*
X73457552Y-43268514D01*
X73468988Y-43282448D01*
X73468988Y-43282448D01*
G37*
G36*
X53475012Y-42823057D02*
X53584207Y-42868287D01*
X53682481Y-42933952D01*
X53766048Y-43017519D01*
X53831713Y-43115793D01*
X53876943Y-43224988D01*
X53900000Y-43340904D01*
X53900000Y-43459096D01*
X53876943Y-43575012D01*
X53831713Y-43684207D01*
X53766048Y-43782481D01*
X53682481Y-43866048D01*
X53584207Y-43931713D01*
X53475012Y-43976943D01*
X53359096Y-44000000D01*
X53240904Y-44000000D01*
X53124988Y-43976943D01*
X53015793Y-43931713D01*
X52917519Y-43866048D01*
X52833952Y-43782481D01*
X52768287Y-43684207D01*
X52723057Y-43575012D01*
X52700000Y-43459096D01*
X52700000Y-43340904D01*
X52723057Y-43224988D01*
X52768287Y-43115793D01*
X52833952Y-43017519D01*
X52917519Y-42933952D01*
X53015793Y-42868287D01*
X53124988Y-42823057D01*
X53240904Y-42800000D01*
X53359096Y-42800000D01*
X53475012Y-42823057D01*
X53475012Y-42823057D01*
G37*
G36*
X77499590Y-43150340D02*
X75700050Y-43150340D01*
X75700050Y-41749580D01*
X77499590Y-41749580D01*
X77499590Y-43150340D01*
X77499590Y-43150340D01*
G37*
G36*
X75299950Y-43069060D02*
X73557376Y-43069060D01*
X73532990Y-43071462D01*
X73509541Y-43078575D01*
X73500410Y-43083455D01*
X73500410Y-39849660D01*
X75299950Y-39849660D01*
X75299950Y-43069060D01*
X75299950Y-43069060D01*
G37*
G36*
X47945845Y-40819215D02*
X48036839Y-40856906D01*
X48117640Y-40910896D01*
X48118734Y-40911627D01*
X48129966Y-40922859D01*
X48148908Y-40938405D01*
X48170519Y-40949956D01*
X48181331Y-40953236D01*
X48181373Y-40953662D01*
X48188486Y-40977111D01*
X48200037Y-40998722D01*
X48243095Y-41063162D01*
X48243095Y-41063163D01*
X48280785Y-41154155D01*
X48299934Y-41250420D01*
X48300000Y-41250755D01*
X48300000Y-41349245D01*
X48280785Y-41445845D01*
X48243095Y-41536837D01*
X48188373Y-41618734D01*
X48118734Y-41688373D01*
X48118731Y-41688375D01*
X48036839Y-41743094D01*
X48036838Y-41743095D01*
X48036837Y-41743095D01*
X48020191Y-41749990D01*
X47945845Y-41780785D01*
X47849246Y-41800000D01*
X47750754Y-41800000D01*
X47654155Y-41780785D01*
X47579809Y-41749990D01*
X47563163Y-41743095D01*
X47563162Y-41743095D01*
X47563161Y-41743094D01*
X47481269Y-41688375D01*
X47481266Y-41688373D01*
X47411627Y-41618734D01*
X47356905Y-41536837D01*
X47319215Y-41445845D01*
X47300000Y-41349245D01*
X47300000Y-41250755D01*
X47300067Y-41250420D01*
X47319215Y-41154155D01*
X47356906Y-41063161D01*
X47411625Y-40981269D01*
X47411627Y-40981266D01*
X47481266Y-40911627D01*
X47482360Y-40910896D01*
X47563161Y-40856906D01*
X47654155Y-40819215D01*
X47750754Y-40800000D01*
X47849246Y-40800000D01*
X47945845Y-40819215D01*
X47945845Y-40819215D01*
G37*
G36*
X41025000Y-41800000D02*
X39375000Y-41800000D01*
X39375000Y-40200000D01*
X41025000Y-40200000D01*
X41025000Y-41800000D01*
X41025000Y-41800000D01*
G37*
G36*
X63200000Y-41725000D02*
X61600000Y-41725000D01*
X61600000Y-40075000D01*
X63200000Y-40075000D01*
X63200000Y-41725000D01*
X63200000Y-41725000D01*
G37*
G36*
X59900000Y-41725000D02*
X58300000Y-41725000D01*
X58300000Y-40075000D01*
X59900000Y-40075000D01*
X59900000Y-41725000D01*
X59900000Y-41725000D01*
G37*
G36*
X65400000Y-41725000D02*
X63800000Y-41725000D01*
X63800000Y-40075000D01*
X65400000Y-40075000D01*
X65400000Y-41725000D01*
X65400000Y-41725000D01*
G37*
G36*
X57700000Y-41725000D02*
X56100000Y-41725000D01*
X56100000Y-40075000D01*
X57700000Y-40075000D01*
X57700000Y-41725000D01*
X57700000Y-41725000D01*
G37*
G36*
X83400000Y-41400000D02*
X78800000Y-41400000D01*
X78800000Y-38800000D01*
X83400000Y-38800000D01*
X83400000Y-41400000D01*
X83400000Y-41400000D01*
G37*
G36*
X77499590Y-41250420D02*
X75700050Y-41250420D01*
X75700050Y-39849660D01*
X77499590Y-39849660D01*
X77499590Y-41250420D01*
X77499590Y-41250420D01*
G37*
G36*
X48975012Y-39823057D02*
X49084207Y-39868287D01*
X49182481Y-39933952D01*
X49266048Y-40017519D01*
X49331713Y-40115793D01*
X49376943Y-40224988D01*
X49400000Y-40340904D01*
X49400000Y-40459096D01*
X49376943Y-40575012D01*
X49331713Y-40684207D01*
X49266048Y-40782481D01*
X49182481Y-40866048D01*
X49084207Y-40931713D01*
X48975012Y-40976943D01*
X48859096Y-41000000D01*
X48740904Y-41000000D01*
X48624988Y-40976943D01*
X48515793Y-40931713D01*
X48417519Y-40866048D01*
X48392359Y-40840888D01*
X48373417Y-40825342D01*
X48351806Y-40813791D01*
X48340994Y-40810511D01*
X48340952Y-40810085D01*
X48333839Y-40786636D01*
X48322288Y-40765025D01*
X48268287Y-40684207D01*
X48223057Y-40575012D01*
X48200000Y-40459096D01*
X48200000Y-40340904D01*
X48223057Y-40224988D01*
X48268287Y-40115793D01*
X48333952Y-40017519D01*
X48417519Y-39933952D01*
X48515793Y-39868287D01*
X48624988Y-39823057D01*
X48740904Y-39800000D01*
X48859096Y-39800000D01*
X48975012Y-39823057D01*
X48975012Y-39823057D01*
G37*
G36*
X60875012Y-39223057D02*
X60984207Y-39268287D01*
X61082481Y-39333952D01*
X61166048Y-39417519D01*
X61231713Y-39515793D01*
X61276943Y-39624988D01*
X61300000Y-39740904D01*
X61300000Y-39859096D01*
X61276943Y-39975012D01*
X61231713Y-40084207D01*
X61166048Y-40182481D01*
X61082481Y-40266048D01*
X60984207Y-40331713D01*
X60875012Y-40376943D01*
X60759096Y-40400000D01*
X60640904Y-40400000D01*
X60524988Y-40376943D01*
X60415793Y-40331713D01*
X60317519Y-40266048D01*
X60233952Y-40182481D01*
X60168287Y-40084207D01*
X60140485Y-40017087D01*
X60128934Y-39995477D01*
X60113388Y-39976535D01*
X60112740Y-39976003D01*
X60113231Y-39974386D01*
X60115633Y-39950000D01*
X60113231Y-39925614D01*
X60100000Y-39859096D01*
X60100000Y-39740904D01*
X60123057Y-39624988D01*
X60168287Y-39515793D01*
X60233952Y-39417519D01*
X60317519Y-39333952D01*
X60415793Y-39268287D01*
X60524988Y-39223057D01*
X60640904Y-39200000D01*
X60759096Y-39200000D01*
X60875012Y-39223057D01*
X60875012Y-39223057D01*
G37*
G36*
X72900000Y-39825000D02*
X71300000Y-39825000D01*
X71300000Y-38175000D01*
X72900000Y-38175000D01*
X72900000Y-39825000D01*
X72900000Y-39825000D01*
G37*
G36*
X70700000Y-39825000D02*
X69100000Y-39825000D01*
X69100000Y-38175000D01*
X70700000Y-38175000D01*
X70700000Y-39825000D01*
X70700000Y-39825000D01*
G37*
G36*
X64900000Y-39625000D02*
X62100000Y-39625000D01*
X62100000Y-37775000D01*
X64900000Y-37775000D01*
X64900000Y-39625000D01*
X64900000Y-39625000D01*
G37*
G36*
X49000000Y-39375000D02*
X42300000Y-39375000D01*
X42300000Y-37225000D01*
X49000000Y-37225000D01*
X49000000Y-39375000D01*
X49000000Y-39375000D01*
G37*
G36*
X59900000Y-39325000D02*
X58300000Y-39325000D01*
X58300000Y-37675000D01*
X59900000Y-37675000D01*
X59900000Y-39325000D01*
X59900000Y-39325000D01*
G37*
G36*
X57700000Y-39325000D02*
X56100000Y-39325000D01*
X56100000Y-37675000D01*
X57700000Y-37675000D01*
X57700000Y-39325000D01*
X57700000Y-39325000D01*
G37*
G36*
X51745845Y-35719215D02*
X51821990Y-35750755D01*
X51836839Y-35756906D01*
X51917640Y-35810896D01*
X51918734Y-35811627D01*
X51988373Y-35881266D01*
X51988375Y-35881269D01*
X52031524Y-35945845D01*
X52043095Y-35963163D01*
X52080785Y-36054155D01*
X52100000Y-36150755D01*
X52100000Y-36249245D01*
X52080785Y-36345845D01*
X52043095Y-36436837D01*
X51988373Y-36518734D01*
X51920495Y-36586612D01*
X51904949Y-36605554D01*
X51893398Y-36627165D01*
X51886285Y-36650614D01*
X51883883Y-36675000D01*
X51886285Y-36699386D01*
X51893398Y-36722835D01*
X51904949Y-36744446D01*
X51920495Y-36763388D01*
X51939437Y-36778934D01*
X51961048Y-36790485D01*
X51984497Y-36797598D01*
X52008883Y-36800000D01*
X52059096Y-36800000D01*
X52175012Y-36823057D01*
X52284207Y-36868287D01*
X52382481Y-36933952D01*
X52466048Y-37017519D01*
X52531713Y-37115793D01*
X52576943Y-37224988D01*
X52600000Y-37340904D01*
X52600000Y-37459096D01*
X52576943Y-37575012D01*
X52531713Y-37684207D01*
X52466048Y-37782481D01*
X52382481Y-37866048D01*
X52284207Y-37931713D01*
X52175012Y-37976943D01*
X52059096Y-38000000D01*
X51940904Y-38000000D01*
X51824988Y-37976943D01*
X51715793Y-37931713D01*
X51617519Y-37866048D01*
X51533952Y-37782481D01*
X51468287Y-37684207D01*
X51423057Y-37575012D01*
X51400000Y-37459096D01*
X51400000Y-37340904D01*
X51423057Y-37224988D01*
X51468287Y-37115793D01*
X51533952Y-37017519D01*
X51617519Y-36933952D01*
X51625029Y-36928934D01*
X51643971Y-36913389D01*
X51659516Y-36894447D01*
X51671068Y-36872836D01*
X51678181Y-36849387D01*
X51680583Y-36825001D01*
X51678181Y-36800614D01*
X51671068Y-36777165D01*
X51659517Y-36755554D01*
X51643972Y-36736612D01*
X51625030Y-36721067D01*
X51603419Y-36709515D01*
X51579970Y-36702402D01*
X51555583Y-36700000D01*
X51550754Y-36700000D01*
X51454155Y-36680785D01*
X51363161Y-36643094D01*
X51281269Y-36588375D01*
X51281266Y-36588373D01*
X51211627Y-36518734D01*
X51156905Y-36436837D01*
X51119215Y-36345845D01*
X51100000Y-36249245D01*
X51100000Y-36150755D01*
X51119215Y-36054155D01*
X51156905Y-35963163D01*
X51168477Y-35945845D01*
X51211625Y-35881269D01*
X51211627Y-35881266D01*
X51281266Y-35811627D01*
X51282360Y-35810896D01*
X51363161Y-35756906D01*
X51378011Y-35750755D01*
X51454155Y-35719215D01*
X51550754Y-35700000D01*
X51649246Y-35700000D01*
X51745845Y-35719215D01*
X51745845Y-35719215D01*
G37*
G36*
X83400000Y-37600000D02*
X78800000Y-37600000D01*
X78800000Y-35000000D01*
X83400000Y-35000000D01*
X83400000Y-37600000D01*
X83400000Y-37600000D01*
G37*
G36*
X72900000Y-37325000D02*
X71300000Y-37325000D01*
X71300000Y-35675000D01*
X72900000Y-35675000D01*
X72900000Y-37325000D01*
X72900000Y-37325000D01*
G37*
G36*
X70700000Y-37325000D02*
X69100000Y-37325000D01*
X69100000Y-35675000D01*
X70700000Y-35675000D01*
X70700000Y-37325000D01*
X70700000Y-37325000D01*
G37*
G36*
X57700000Y-36825000D02*
X56100000Y-36825000D01*
X56100000Y-35175000D01*
X57700000Y-35175000D01*
X57700000Y-36825000D01*
X57700000Y-36825000D01*
G37*
G36*
X59900000Y-36825000D02*
X58300000Y-36825000D01*
X58300000Y-35175000D01*
X59900000Y-35175000D01*
X59900000Y-36825000D01*
X59900000Y-36825000D01*
G37*
G36*
X77499590Y-36650340D02*
X75700050Y-36650340D01*
X75700050Y-35249580D01*
X77499590Y-35249580D01*
X77499590Y-36650340D01*
X77499590Y-36650340D01*
G37*
G36*
X75299950Y-36569060D02*
X73500410Y-36569060D01*
X73500410Y-33349660D01*
X75299950Y-33349660D01*
X75299950Y-36569060D01*
X75299950Y-36569060D01*
G37*
G36*
X52075000Y-35130000D02*
X50109320Y-35130000D01*
X50084934Y-35132402D01*
X50061485Y-35139515D01*
X50039874Y-35151066D01*
X50020932Y-35166612D01*
X50005386Y-35185554D01*
X49993835Y-35207165D01*
X49986722Y-35230614D01*
X49984320Y-35255000D01*
X49986722Y-35279386D01*
X49993835Y-35302835D01*
X50005386Y-35324446D01*
X50020932Y-35343388D01*
X50039868Y-35358930D01*
X50118731Y-35411625D01*
X50118735Y-35411628D01*
X50188373Y-35481266D01*
X50243095Y-35563163D01*
X50280785Y-35654155D01*
X50300000Y-35750755D01*
X50300000Y-35849245D01*
X50280785Y-35945845D01*
X50273613Y-35963161D01*
X50243094Y-36036839D01*
X50189104Y-36117640D01*
X50188373Y-36118734D01*
X50118734Y-36188373D01*
X50118731Y-36188375D01*
X50036839Y-36243094D01*
X50036838Y-36243095D01*
X50036837Y-36243095D01*
X50021987Y-36249246D01*
X49945845Y-36280785D01*
X49849246Y-36300000D01*
X49750754Y-36300000D01*
X49654155Y-36280785D01*
X49578013Y-36249246D01*
X49563163Y-36243095D01*
X49563162Y-36243095D01*
X49563161Y-36243094D01*
X49481269Y-36188375D01*
X49481266Y-36188373D01*
X49411627Y-36118734D01*
X49410896Y-36117640D01*
X49356906Y-36036839D01*
X49326388Y-35963161D01*
X49319215Y-35945845D01*
X49300000Y-35849245D01*
X49300000Y-35750755D01*
X49319215Y-35654155D01*
X49356905Y-35563163D01*
X49411627Y-35481266D01*
X49481265Y-35411628D01*
X49481269Y-35411625D01*
X49560132Y-35358930D01*
X49579069Y-35343388D01*
X49594614Y-35324446D01*
X49606165Y-35302835D01*
X49613278Y-35279386D01*
X49615680Y-35255000D01*
X49613278Y-35230613D01*
X49606165Y-35207164D01*
X49594614Y-35185553D01*
X49579068Y-35166611D01*
X49560126Y-35151066D01*
X49538515Y-35139515D01*
X49515066Y-35132402D01*
X49490680Y-35130000D01*
X49125000Y-35130000D01*
X49125000Y-33170000D01*
X52075000Y-33170000D01*
X52075000Y-35130000D01*
X52075000Y-35130000D01*
G37*
G36*
X47700000Y-35900000D02*
X42300000Y-35900000D01*
X42300000Y-34000000D01*
X47700000Y-34000000D01*
X47700000Y-35900000D01*
X47700000Y-35900000D01*
G37*
G36*
X64900000Y-35225000D02*
X62100000Y-35225000D01*
X62100000Y-33375000D01*
X64900000Y-33375000D01*
X64900000Y-35225000D01*
X64900000Y-35225000D01*
G37*
G36*
X77499590Y-34750420D02*
X75700050Y-34750420D01*
X75700050Y-33349660D01*
X77499590Y-33349660D01*
X77499590Y-34750420D01*
X77499590Y-34750420D01*
G37*
G36*
X81552120Y-31649555D02*
X81834204Y-31766398D01*
X81834205Y-31766399D01*
X82088074Y-31936028D01*
X82303972Y-32151926D01*
X82402911Y-32300000D01*
X82473602Y-32405796D01*
X82590445Y-32687880D01*
X82650010Y-32987336D01*
X82650010Y-33292664D01*
X82590445Y-33592120D01*
X82473602Y-33874204D01*
X82473601Y-33874205D01*
X82303972Y-34128074D01*
X82088074Y-34343972D01*
X81897672Y-34471194D01*
X81834204Y-34513602D01*
X81552120Y-34630445D01*
X81252664Y-34690010D01*
X80947336Y-34690010D01*
X80647880Y-34630445D01*
X80365796Y-34513602D01*
X80302328Y-34471194D01*
X80111926Y-34343972D01*
X79896028Y-34128074D01*
X79726399Y-33874205D01*
X79726398Y-33874204D01*
X79609555Y-33592120D01*
X79549990Y-33292664D01*
X79549990Y-32987336D01*
X79609555Y-32687880D01*
X79726398Y-32405796D01*
X79797089Y-32300000D01*
X79896028Y-32151926D01*
X80111926Y-31936028D01*
X80365795Y-31766399D01*
X80365796Y-31766398D01*
X80647880Y-31649555D01*
X80947336Y-31589990D01*
X81252664Y-31589990D01*
X81552120Y-31649555D01*
X81552120Y-31649555D01*
G37*
G36*
X23645845Y-32519215D02*
X23736839Y-32556906D01*
X23746200Y-32563161D01*
X23818734Y-32611627D01*
X23888373Y-32681266D01*
X23888375Y-32681269D01*
X23943094Y-32763161D01*
X23980785Y-32854155D01*
X23999024Y-32945845D01*
X24000000Y-32950755D01*
X24000000Y-33049245D01*
X23980785Y-33145845D01*
X23963169Y-33188375D01*
X23943094Y-33236839D01*
X23900891Y-33300000D01*
X23888373Y-33318734D01*
X23818734Y-33388373D01*
X23818731Y-33388375D01*
X23736839Y-33443094D01*
X23645845Y-33480785D01*
X23549246Y-33500000D01*
X23450754Y-33500000D01*
X23354155Y-33480785D01*
X23263161Y-33443094D01*
X23181269Y-33388375D01*
X23181266Y-33388373D01*
X23111627Y-33318734D01*
X23099109Y-33300000D01*
X23056906Y-33236839D01*
X23036832Y-33188375D01*
X23019215Y-33145845D01*
X23000000Y-33049245D01*
X23000000Y-32950755D01*
X23000977Y-32945845D01*
X23019215Y-32854155D01*
X23056906Y-32763161D01*
X23111625Y-32681269D01*
X23111627Y-32681266D01*
X23181266Y-32611627D01*
X23253800Y-32563161D01*
X23263161Y-32556906D01*
X23354155Y-32519215D01*
X23450754Y-32500000D01*
X23549246Y-32500000D01*
X23645845Y-32519215D01*
X23645845Y-32519215D01*
G37*
G36*
X35345845Y-32319215D02*
X35436839Y-32356906D01*
X35501333Y-32400000D01*
X35518734Y-32411627D01*
X35588373Y-32481266D01*
X35588375Y-32481269D01*
X35638915Y-32556906D01*
X35643095Y-32563163D01*
X35663169Y-32611627D01*
X35680785Y-32654155D01*
X35700000Y-32750754D01*
X35700000Y-32849246D01*
X35680785Y-32945845D01*
X35643095Y-33036837D01*
X35588373Y-33118734D01*
X35518734Y-33188373D01*
X35518731Y-33188375D01*
X35436839Y-33243094D01*
X35345845Y-33280785D01*
X35249246Y-33300000D01*
X35150754Y-33300000D01*
X35054155Y-33280785D01*
X34963161Y-33243094D01*
X34881269Y-33188375D01*
X34881266Y-33188373D01*
X34811627Y-33118734D01*
X34756905Y-33036837D01*
X34719215Y-32945845D01*
X34700000Y-32849246D01*
X34700000Y-32750754D01*
X34719215Y-32654155D01*
X34736831Y-32611627D01*
X34756905Y-32563163D01*
X34761086Y-32556906D01*
X34811625Y-32481269D01*
X34811627Y-32481266D01*
X34881266Y-32411627D01*
X34898667Y-32400000D01*
X34963161Y-32356906D01*
X35054155Y-32319215D01*
X35150754Y-32300000D01*
X35249246Y-32300000D01*
X35345845Y-32319215D01*
X35345845Y-32319215D01*
G37*
G36*
X57700000Y-32825000D02*
X56100000Y-32825000D01*
X56100000Y-31175000D01*
X57700000Y-31175000D01*
X57700000Y-32825000D01*
X57700000Y-32825000D01*
G37*
G36*
X59900000Y-32825000D02*
X58300000Y-32825000D01*
X58300000Y-31175000D01*
X59900000Y-31175000D01*
X59900000Y-32825000D01*
X59900000Y-32825000D01*
G37*
G36*
X52075000Y-32430000D02*
X51025000Y-32430000D01*
X51025000Y-30470000D01*
X52075000Y-30470000D01*
X52075000Y-32430000D01*
X52075000Y-32430000D01*
G37*
G36*
X50175000Y-32430000D02*
X49125000Y-32430000D01*
X49125000Y-30470000D01*
X50175000Y-30470000D01*
X50175000Y-32430000D01*
X50175000Y-32430000D01*
G37*
G36*
X77325000Y-32400000D02*
X75675000Y-32400000D01*
X75675000Y-30800000D01*
X77325000Y-30800000D01*
X77325000Y-32400000D01*
X77325000Y-32400000D01*
G37*
G36*
X72325000Y-32400000D02*
X70675000Y-32400000D01*
X70675000Y-30800000D01*
X72325000Y-30800000D01*
X72325000Y-32400000D01*
X72325000Y-32400000D01*
G37*
G36*
X95400000Y-32025000D02*
X93800000Y-32025000D01*
X93800000Y-30375000D01*
X95400000Y-30375000D01*
X95400000Y-32025000D01*
X95400000Y-32025000D01*
G37*
G36*
X93200000Y-32025000D02*
X91600000Y-32025000D01*
X91600000Y-30375000D01*
X93200000Y-30375000D01*
X93200000Y-32025000D01*
X93200000Y-32025000D01*
G37*
G36*
X90704183Y-30326900D02*
X90831574Y-30379668D01*
X90946225Y-30456275D01*
X91043725Y-30553775D01*
X91120332Y-30668426D01*
X91173100Y-30795817D01*
X91200000Y-30931055D01*
X91200000Y-31068945D01*
X91173100Y-31204183D01*
X91120332Y-31331574D01*
X91043725Y-31446225D01*
X90946225Y-31543725D01*
X90831574Y-31620332D01*
X90704183Y-31673100D01*
X90568945Y-31700000D01*
X90431055Y-31700000D01*
X90295817Y-31673100D01*
X90168426Y-31620332D01*
X90053775Y-31543725D01*
X89956275Y-31446225D01*
X89879668Y-31331574D01*
X89826900Y-31204183D01*
X89800000Y-31068945D01*
X89800000Y-30931055D01*
X89826900Y-30795817D01*
X89879668Y-30668426D01*
X89956275Y-30553775D01*
X90053775Y-30456275D01*
X90168426Y-30379668D01*
X90295817Y-30326900D01*
X90431055Y-30300000D01*
X90568945Y-30300000D01*
X90704183Y-30326900D01*
X90704183Y-30326900D01*
G37*
G36*
X64800000Y-31625000D02*
X63200000Y-31625000D01*
X63200000Y-29975000D01*
X64800000Y-29975000D01*
X64800000Y-31625000D01*
X64800000Y-31625000D01*
G37*
G36*
X62600000Y-31625000D02*
X61000000Y-31625000D01*
X61000000Y-29975000D01*
X62600000Y-29975000D01*
X62600000Y-31625000D01*
X62600000Y-31625000D01*
G37*
G36*
X77325000Y-30200000D02*
X75675000Y-30200000D01*
X75675000Y-28600000D01*
X77325000Y-28600000D01*
X77325000Y-30200000D01*
X77325000Y-30200000D01*
G37*
G36*
X72325000Y-30200000D02*
X70675000Y-30200000D01*
X70675000Y-28600000D01*
X72325000Y-28600000D01*
X72325000Y-30200000D01*
X72325000Y-30200000D01*
G37*
G36*
X47700000Y-30000000D02*
X42300000Y-30000000D01*
X42300000Y-28100000D01*
X47700000Y-28100000D01*
X47700000Y-30000000D01*
X47700000Y-30000000D01*
G37*
G36*
X41725000Y-28000000D02*
X40170826Y-28000000D01*
X40146440Y-28002402D01*
X40122991Y-28009515D01*
X40101380Y-28021066D01*
X40082438Y-28036612D01*
X40066892Y-28055554D01*
X40055341Y-28077165D01*
X40048228Y-28100614D01*
X40045826Y-28125000D01*
X40048228Y-28149386D01*
X40055341Y-28172836D01*
X40076943Y-28224988D01*
X40100000Y-28340904D01*
X40100000Y-28459096D01*
X40076943Y-28575012D01*
X40031713Y-28684207D01*
X39966048Y-28782481D01*
X39882481Y-28866048D01*
X39784207Y-28931713D01*
X39675012Y-28976943D01*
X39559096Y-29000000D01*
X39440904Y-29000000D01*
X39324988Y-28976943D01*
X39215793Y-28931713D01*
X39117519Y-28866048D01*
X39033952Y-28782481D01*
X38968287Y-28684207D01*
X38923057Y-28575012D01*
X38900000Y-28459096D01*
X38900000Y-28340904D01*
X38923057Y-28224988D01*
X38968287Y-28115793D01*
X39033952Y-28017519D01*
X39117519Y-27933952D01*
X39215793Y-27868287D01*
X39324988Y-27823057D01*
X39440904Y-27800000D01*
X39559096Y-27800000D01*
X39675012Y-27823057D01*
X39784207Y-27868287D01*
X39880554Y-27932664D01*
X39902165Y-27944215D01*
X39925614Y-27951328D01*
X39950000Y-27953730D01*
X39974386Y-27951328D01*
X39997836Y-27944215D01*
X40019446Y-27932664D01*
X40038388Y-27917118D01*
X40053934Y-27898176D01*
X40065485Y-27876565D01*
X40072598Y-27853116D01*
X40075000Y-27828730D01*
X40075000Y-26400000D01*
X41725000Y-26400000D01*
X41725000Y-28000000D01*
X41725000Y-28000000D01*
G37*
G36*
X78685140Y-26625808D02*
X78848150Y-26658233D01*
X79052887Y-26743038D01*
X79052888Y-26743039D01*
X79237148Y-26866158D01*
X79393842Y-27022852D01*
X79393844Y-27022855D01*
X79516962Y-27207113D01*
X79601767Y-27411850D01*
X79645000Y-27629197D01*
X79645000Y-27850803D01*
X79601767Y-28068150D01*
X79516962Y-28272887D01*
X79418442Y-28420332D01*
X79393842Y-28457148D01*
X79237148Y-28613842D01*
X79237145Y-28613844D01*
X79052887Y-28736962D01*
X78848150Y-28821767D01*
X78685140Y-28854192D01*
X78630804Y-28865000D01*
X78409196Y-28865000D01*
X78354860Y-28854192D01*
X78191850Y-28821767D01*
X77987113Y-28736962D01*
X77802855Y-28613844D01*
X77802852Y-28613842D01*
X77646158Y-28457148D01*
X77621558Y-28420332D01*
X77523038Y-28272887D01*
X77438233Y-28068150D01*
X77395000Y-27850803D01*
X77395000Y-27629197D01*
X77438233Y-27411850D01*
X77523038Y-27207113D01*
X77646156Y-27022855D01*
X77646158Y-27022852D01*
X77802852Y-26866158D01*
X77987112Y-26743039D01*
X77987113Y-26743038D01*
X78191850Y-26658233D01*
X78354860Y-26625808D01*
X78409196Y-26615000D01*
X78630804Y-26615000D01*
X78685140Y-26625808D01*
X78685140Y-26625808D01*
G37*
G36*
X88845140Y-26625808D02*
X89008150Y-26658233D01*
X89212887Y-26743038D01*
X89212888Y-26743039D01*
X89397148Y-26866158D01*
X89553842Y-27022852D01*
X89553844Y-27022855D01*
X89676962Y-27207113D01*
X89761767Y-27411850D01*
X89805000Y-27629197D01*
X89805000Y-27850803D01*
X89761767Y-28068150D01*
X89676962Y-28272887D01*
X89578442Y-28420332D01*
X89553842Y-28457148D01*
X89397148Y-28613842D01*
X89397145Y-28613844D01*
X89212887Y-28736962D01*
X89008150Y-28821767D01*
X88845140Y-28854192D01*
X88790804Y-28865000D01*
X88569196Y-28865000D01*
X88514860Y-28854192D01*
X88351850Y-28821767D01*
X88147113Y-28736962D01*
X87962855Y-28613844D01*
X87962852Y-28613842D01*
X87806158Y-28457148D01*
X87781558Y-28420332D01*
X87683038Y-28272887D01*
X87598233Y-28068150D01*
X87555000Y-27850803D01*
X87555000Y-27629197D01*
X87598233Y-27411850D01*
X87683038Y-27207113D01*
X87806156Y-27022855D01*
X87806158Y-27022852D01*
X87962852Y-26866158D01*
X88147112Y-26743039D01*
X88147113Y-26743038D01*
X88351850Y-26658233D01*
X88514860Y-26625808D01*
X88569196Y-26615000D01*
X88790804Y-26615000D01*
X88845140Y-26625808D01*
X88845140Y-26625808D01*
G37*
G36*
X83765140Y-26625808D02*
X83928150Y-26658233D01*
X84132887Y-26743038D01*
X84132888Y-26743039D01*
X84317148Y-26866158D01*
X84473842Y-27022852D01*
X84473844Y-27022855D01*
X84596962Y-27207113D01*
X84681767Y-27411850D01*
X84725000Y-27629197D01*
X84725000Y-27850803D01*
X84681767Y-28068150D01*
X84596962Y-28272887D01*
X84498442Y-28420332D01*
X84473842Y-28457148D01*
X84317148Y-28613842D01*
X84317145Y-28613844D01*
X84132887Y-28736962D01*
X83928150Y-28821767D01*
X83765140Y-28854192D01*
X83710804Y-28865000D01*
X83489196Y-28865000D01*
X83434860Y-28854192D01*
X83271850Y-28821767D01*
X83067113Y-28736962D01*
X82882855Y-28613844D01*
X82882852Y-28613842D01*
X82726158Y-28457148D01*
X82701558Y-28420332D01*
X82603038Y-28272887D01*
X82518233Y-28068150D01*
X82475000Y-27850803D01*
X82475000Y-27629197D01*
X82518233Y-27411850D01*
X82603038Y-27207113D01*
X82726156Y-27022855D01*
X82726158Y-27022852D01*
X82882852Y-26866158D01*
X83067112Y-26743039D01*
X83067113Y-26743038D01*
X83271850Y-26658233D01*
X83434860Y-26625808D01*
X83489196Y-26615000D01*
X83710804Y-26615000D01*
X83765140Y-26625808D01*
X83765140Y-26625808D01*
G37*
G36*
X81225140Y-26625808D02*
X81388150Y-26658233D01*
X81592887Y-26743038D01*
X81592888Y-26743039D01*
X81777148Y-26866158D01*
X81933842Y-27022852D01*
X81933844Y-27022855D01*
X82056962Y-27207113D01*
X82141767Y-27411850D01*
X82185000Y-27629197D01*
X82185000Y-27850803D01*
X82141767Y-28068150D01*
X82056962Y-28272887D01*
X81958442Y-28420332D01*
X81933842Y-28457148D01*
X81777148Y-28613842D01*
X81777145Y-28613844D01*
X81592887Y-28736962D01*
X81388150Y-28821767D01*
X81225140Y-28854192D01*
X81170804Y-28865000D01*
X80949196Y-28865000D01*
X80894860Y-28854192D01*
X80731850Y-28821767D01*
X80527113Y-28736962D01*
X80342855Y-28613844D01*
X80342852Y-28613842D01*
X80186158Y-28457148D01*
X80161558Y-28420332D01*
X80063038Y-28272887D01*
X79978233Y-28068150D01*
X79935000Y-27850803D01*
X79935000Y-27629197D01*
X79978233Y-27411850D01*
X80063038Y-27207113D01*
X80186156Y-27022855D01*
X80186158Y-27022852D01*
X80342852Y-26866158D01*
X80527112Y-26743039D01*
X80527113Y-26743038D01*
X80731850Y-26658233D01*
X80894860Y-26625808D01*
X80949196Y-26615000D01*
X81170804Y-26615000D01*
X81225140Y-26625808D01*
X81225140Y-26625808D01*
G37*
G36*
X62600000Y-28725000D02*
X61000000Y-28725000D01*
X61000000Y-27075000D01*
X62600000Y-27075000D01*
X62600000Y-28725000D01*
X62600000Y-28725000D01*
G37*
G36*
X64800000Y-28725000D02*
X63200000Y-28725000D01*
X63200000Y-27075000D01*
X64800000Y-27075000D01*
X64800000Y-28725000D01*
X64800000Y-28725000D01*
G37*
G36*
X74104183Y-27126900D02*
X74231574Y-27179668D01*
X74346225Y-27256275D01*
X74443725Y-27353775D01*
X74520332Y-27468426D01*
X74573100Y-27595817D01*
X74600000Y-27731055D01*
X74600000Y-27868945D01*
X74573100Y-28004183D01*
X74533156Y-28100614D01*
X74520332Y-28131574D01*
X74457917Y-28224986D01*
X74443725Y-28246225D01*
X74346225Y-28343725D01*
X74231574Y-28420332D01*
X74104183Y-28473100D01*
X73968945Y-28500000D01*
X73831055Y-28500000D01*
X73695817Y-28473100D01*
X73568426Y-28420332D01*
X73453775Y-28343725D01*
X73356275Y-28246225D01*
X73342084Y-28224986D01*
X73279668Y-28131574D01*
X73266844Y-28100614D01*
X73226900Y-28004183D01*
X73200000Y-27868945D01*
X73200000Y-27731055D01*
X73226900Y-27595817D01*
X73279668Y-27468426D01*
X73356275Y-27353775D01*
X73453775Y-27256275D01*
X73568426Y-27179668D01*
X73695817Y-27126900D01*
X73831055Y-27100000D01*
X73968945Y-27100000D01*
X74104183Y-27126900D01*
X74104183Y-27126900D01*
G37*
G36*
X41725000Y-25800000D02*
X40075000Y-25800000D01*
X40075000Y-24200000D01*
X41725000Y-24200000D01*
X41725000Y-25800000D01*
X41725000Y-25800000D01*
G37*
G36*
X49545845Y-23319215D02*
X49636839Y-23356906D01*
X49667133Y-23377148D01*
X49718734Y-23411627D01*
X49788373Y-23481266D01*
X49843095Y-23563163D01*
X49880785Y-23654155D01*
X49900000Y-23750755D01*
X49900000Y-23849245D01*
X49880785Y-23945845D01*
X49843095Y-24036837D01*
X49788373Y-24118734D01*
X49718734Y-24188373D01*
X49718731Y-24188375D01*
X49636839Y-24243094D01*
X49545845Y-24280785D01*
X49449246Y-24300000D01*
X49350754Y-24300000D01*
X49254155Y-24280785D01*
X49163161Y-24243094D01*
X49081269Y-24188375D01*
X49081266Y-24188373D01*
X49011627Y-24118734D01*
X48956905Y-24036837D01*
X48919215Y-23945845D01*
X48900000Y-23849245D01*
X48900000Y-23750755D01*
X48919215Y-23654155D01*
X48956905Y-23563163D01*
X49011627Y-23481266D01*
X49081266Y-23411627D01*
X49132867Y-23377148D01*
X49163161Y-23356906D01*
X49254155Y-23319215D01*
X49350754Y-23300000D01*
X49449246Y-23300000D01*
X49545845Y-23319215D01*
X49545845Y-23319215D01*
G37*
G36*
X83765140Y-21545808D02*
X83928150Y-21578233D01*
X84132887Y-21663038D01*
X84132888Y-21663039D01*
X84317148Y-21786158D01*
X84473842Y-21942852D01*
X84473844Y-21942855D01*
X84596962Y-22127113D01*
X84681767Y-22331850D01*
X84725000Y-22549197D01*
X84725000Y-22770803D01*
X84681767Y-22988150D01*
X84596962Y-23192887D01*
X84596961Y-23192888D01*
X84473842Y-23377148D01*
X84317148Y-23533842D01*
X84317145Y-23533844D01*
X84132887Y-23656962D01*
X83928150Y-23741767D01*
X83765140Y-23774192D01*
X83710804Y-23785000D01*
X83489196Y-23785000D01*
X83434860Y-23774192D01*
X83271850Y-23741767D01*
X83067113Y-23656962D01*
X82882855Y-23533844D01*
X82882852Y-23533842D01*
X82726158Y-23377148D01*
X82603039Y-23192888D01*
X82603038Y-23192887D01*
X82518233Y-22988150D01*
X82475000Y-22770803D01*
X82475000Y-22549197D01*
X82518233Y-22331850D01*
X82603038Y-22127113D01*
X82726156Y-21942855D01*
X82726158Y-21942852D01*
X82882852Y-21786158D01*
X83067112Y-21663039D01*
X83067113Y-21663038D01*
X83271850Y-21578233D01*
X83434860Y-21545808D01*
X83489196Y-21535000D01*
X83710804Y-21535000D01*
X83765140Y-21545808D01*
X83765140Y-21545808D01*
G37*
G36*
X88845140Y-21545808D02*
X89008150Y-21578233D01*
X89212887Y-21663038D01*
X89212888Y-21663039D01*
X89397148Y-21786158D01*
X89553842Y-21942852D01*
X89553844Y-21942855D01*
X89676962Y-22127113D01*
X89761767Y-22331850D01*
X89805000Y-22549197D01*
X89805000Y-22770803D01*
X89761767Y-22988150D01*
X89676962Y-23192887D01*
X89676961Y-23192888D01*
X89553842Y-23377148D01*
X89397148Y-23533842D01*
X89397145Y-23533844D01*
X89212887Y-23656962D01*
X89008150Y-23741767D01*
X88845140Y-23774192D01*
X88790804Y-23785000D01*
X88569196Y-23785000D01*
X88514860Y-23774192D01*
X88351850Y-23741767D01*
X88147113Y-23656962D01*
X87962855Y-23533844D01*
X87962852Y-23533842D01*
X87806158Y-23377148D01*
X87683039Y-23192888D01*
X87683038Y-23192887D01*
X87598233Y-22988150D01*
X87555000Y-22770803D01*
X87555000Y-22549197D01*
X87598233Y-22331850D01*
X87683038Y-22127113D01*
X87806156Y-21942855D01*
X87806158Y-21942852D01*
X87962852Y-21786158D01*
X88147112Y-21663039D01*
X88147113Y-21663038D01*
X88351850Y-21578233D01*
X88514860Y-21545808D01*
X88569196Y-21535000D01*
X88790804Y-21535000D01*
X88845140Y-21545808D01*
X88845140Y-21545808D01*
G37*
G36*
X81225140Y-21545808D02*
X81388150Y-21578233D01*
X81592887Y-21663038D01*
X81592888Y-21663039D01*
X81777148Y-21786158D01*
X81933842Y-21942852D01*
X81933844Y-21942855D01*
X82056962Y-22127113D01*
X82141767Y-22331850D01*
X82185000Y-22549197D01*
X82185000Y-22770803D01*
X82141767Y-22988150D01*
X82056962Y-23192887D01*
X82056961Y-23192888D01*
X81933842Y-23377148D01*
X81777148Y-23533842D01*
X81777145Y-23533844D01*
X81592887Y-23656962D01*
X81388150Y-23741767D01*
X81225140Y-23774192D01*
X81170804Y-23785000D01*
X80949196Y-23785000D01*
X80894860Y-23774192D01*
X80731850Y-23741767D01*
X80527113Y-23656962D01*
X80342855Y-23533844D01*
X80342852Y-23533842D01*
X80186158Y-23377148D01*
X80063039Y-23192888D01*
X80063038Y-23192887D01*
X79978233Y-22988150D01*
X79935000Y-22770803D01*
X79935000Y-22549197D01*
X79978233Y-22331850D01*
X80063038Y-22127113D01*
X80186156Y-21942855D01*
X80186158Y-21942852D01*
X80342852Y-21786158D01*
X80527112Y-21663039D01*
X80527113Y-21663038D01*
X80731850Y-21578233D01*
X80894860Y-21545808D01*
X80949196Y-21535000D01*
X81170804Y-21535000D01*
X81225140Y-21545808D01*
X81225140Y-21545808D01*
G37*
G36*
X78685140Y-21545808D02*
X78848150Y-21578233D01*
X79052887Y-21663038D01*
X79052888Y-21663039D01*
X79237148Y-21786158D01*
X79393842Y-21942852D01*
X79393844Y-21942855D01*
X79516962Y-22127113D01*
X79601767Y-22331850D01*
X79645000Y-22549197D01*
X79645000Y-22770803D01*
X79601767Y-22988150D01*
X79516962Y-23192887D01*
X79516961Y-23192888D01*
X79393842Y-23377148D01*
X79237148Y-23533842D01*
X79237145Y-23533844D01*
X79052887Y-23656962D01*
X78848150Y-23741767D01*
X78685140Y-23774192D01*
X78630804Y-23785000D01*
X78409196Y-23785000D01*
X78354860Y-23774192D01*
X78191850Y-23741767D01*
X77987113Y-23656962D01*
X77802855Y-23533844D01*
X77802852Y-23533842D01*
X77646158Y-23377148D01*
X77523039Y-23192888D01*
X77523038Y-23192887D01*
X77438233Y-22988150D01*
X77395000Y-22770803D01*
X77395000Y-22549197D01*
X77438233Y-22331850D01*
X77523038Y-22127113D01*
X77646156Y-21942855D01*
X77646158Y-21942852D01*
X77802852Y-21786158D01*
X77987112Y-21663039D01*
X77987113Y-21663038D01*
X78191850Y-21578233D01*
X78354860Y-21545808D01*
X78409196Y-21535000D01*
X78630804Y-21535000D01*
X78685140Y-21545808D01*
X78685140Y-21545808D01*
G37*
G36*
X9625140Y-18965808D02*
X9788150Y-18998233D01*
X9992887Y-19083038D01*
X10174657Y-19204493D01*
X10177148Y-19206158D01*
X10333842Y-19362852D01*
X10333844Y-19362855D01*
X10456962Y-19547113D01*
X10541767Y-19751850D01*
X10585000Y-19969197D01*
X10585000Y-20190803D01*
X10541767Y-20408150D01*
X10456962Y-20612887D01*
X10456961Y-20612888D01*
X10333842Y-20797148D01*
X10177148Y-20953842D01*
X10177145Y-20953844D01*
X9992887Y-21076962D01*
X9788150Y-21161767D01*
X9625140Y-21194192D01*
X9570804Y-21205000D01*
X9349196Y-21205000D01*
X9294860Y-21194192D01*
X9131850Y-21161767D01*
X8927113Y-21076962D01*
X8742855Y-20953844D01*
X8742852Y-20953842D01*
X8586158Y-20797148D01*
X8463039Y-20612888D01*
X8463038Y-20612887D01*
X8378233Y-20408150D01*
X8335000Y-20190803D01*
X8335000Y-19969197D01*
X8378233Y-19751850D01*
X8463038Y-19547113D01*
X8586156Y-19362855D01*
X8586158Y-19362852D01*
X8742852Y-19206158D01*
X8745343Y-19204493D01*
X8927113Y-19083038D01*
X9131850Y-18998233D01*
X9294860Y-18965808D01*
X9349196Y-18955000D01*
X9570804Y-18955000D01*
X9625140Y-18965808D01*
X9625140Y-18965808D01*
G37*
G36*
X53705140Y-18965808D02*
X53868150Y-18998233D01*
X54072887Y-19083038D01*
X54254657Y-19204493D01*
X54257148Y-19206158D01*
X54413842Y-19362852D01*
X54413844Y-19362855D01*
X54536962Y-19547113D01*
X54621767Y-19751850D01*
X54665000Y-19969197D01*
X54665000Y-20190803D01*
X54621767Y-20408150D01*
X54536962Y-20612887D01*
X54536961Y-20612888D01*
X54413842Y-20797148D01*
X54257148Y-20953842D01*
X54257145Y-20953844D01*
X54072887Y-21076962D01*
X53868150Y-21161767D01*
X53705140Y-21194192D01*
X53650804Y-21205000D01*
X53429196Y-21205000D01*
X53374860Y-21194192D01*
X53211850Y-21161767D01*
X53007113Y-21076962D01*
X52822855Y-20953844D01*
X52822852Y-20953842D01*
X52666158Y-20797148D01*
X52543039Y-20612888D01*
X52543038Y-20612887D01*
X52458233Y-20408150D01*
X52415000Y-20190803D01*
X52415000Y-19969197D01*
X52458233Y-19751850D01*
X52543038Y-19547113D01*
X52666156Y-19362855D01*
X52666158Y-19362852D01*
X52822852Y-19206158D01*
X52825343Y-19204493D01*
X53007113Y-19083038D01*
X53211850Y-18998233D01*
X53374860Y-18965808D01*
X53429196Y-18955000D01*
X53650804Y-18955000D01*
X53705140Y-18965808D01*
X53705140Y-18965808D01*
G37*
G36*
X48625140Y-18965808D02*
X48788150Y-18998233D01*
X48992887Y-19083038D01*
X49174657Y-19204493D01*
X49177148Y-19206158D01*
X49333842Y-19362852D01*
X49333844Y-19362855D01*
X49456962Y-19547113D01*
X49541767Y-19751850D01*
X49585000Y-19969197D01*
X49585000Y-20190803D01*
X49541767Y-20408150D01*
X49456962Y-20612887D01*
X49456961Y-20612888D01*
X49333842Y-20797148D01*
X49177148Y-20953842D01*
X49177145Y-20953844D01*
X48992887Y-21076962D01*
X48788150Y-21161767D01*
X48625140Y-21194192D01*
X48570804Y-21205000D01*
X48349196Y-21205000D01*
X48294860Y-21194192D01*
X48131850Y-21161767D01*
X47927113Y-21076962D01*
X47742855Y-20953844D01*
X47742852Y-20953842D01*
X47586158Y-20797148D01*
X47463039Y-20612888D01*
X47463038Y-20612887D01*
X47378233Y-20408150D01*
X47335000Y-20190803D01*
X47335000Y-19969197D01*
X47378233Y-19751850D01*
X47463038Y-19547113D01*
X47586156Y-19362855D01*
X47586158Y-19362852D01*
X47742852Y-19206158D01*
X47745343Y-19204493D01*
X47927113Y-19083038D01*
X48131850Y-18998233D01*
X48294860Y-18965808D01*
X48349196Y-18955000D01*
X48570804Y-18955000D01*
X48625140Y-18965808D01*
X48625140Y-18965808D01*
G37*
G36*
X40705140Y-18965808D02*
X40868150Y-18998233D01*
X41072887Y-19083038D01*
X41254657Y-19204493D01*
X41257148Y-19206158D01*
X41413842Y-19362852D01*
X41413844Y-19362855D01*
X41536962Y-19547113D01*
X41621767Y-19751850D01*
X41665000Y-19969197D01*
X41665000Y-20190803D01*
X41621767Y-20408150D01*
X41536962Y-20612887D01*
X41536961Y-20612888D01*
X41413842Y-20797148D01*
X41257148Y-20953842D01*
X41257145Y-20953844D01*
X41072887Y-21076962D01*
X40868150Y-21161767D01*
X40705140Y-21194192D01*
X40650804Y-21205000D01*
X40429196Y-21205000D01*
X40374860Y-21194192D01*
X40211850Y-21161767D01*
X40007113Y-21076962D01*
X39822855Y-20953844D01*
X39822852Y-20953842D01*
X39666158Y-20797148D01*
X39543039Y-20612888D01*
X39543038Y-20612887D01*
X39458233Y-20408150D01*
X39415000Y-20190803D01*
X39415000Y-19969197D01*
X39458233Y-19751850D01*
X39543038Y-19547113D01*
X39666156Y-19362855D01*
X39666158Y-19362852D01*
X39822852Y-19206158D01*
X39825343Y-19204493D01*
X40007113Y-19083038D01*
X40211850Y-18998233D01*
X40374860Y-18965808D01*
X40429196Y-18955000D01*
X40650804Y-18955000D01*
X40705140Y-18965808D01*
X40705140Y-18965808D01*
G37*
G36*
X35625140Y-18965808D02*
X35788150Y-18998233D01*
X35992887Y-19083038D01*
X36174657Y-19204493D01*
X36177148Y-19206158D01*
X36333842Y-19362852D01*
X36333844Y-19362855D01*
X36456962Y-19547113D01*
X36541767Y-19751850D01*
X36585000Y-19969197D01*
X36585000Y-20190803D01*
X36541767Y-20408150D01*
X36456962Y-20612887D01*
X36456961Y-20612888D01*
X36333842Y-20797148D01*
X36177148Y-20953842D01*
X36177145Y-20953844D01*
X35992887Y-21076962D01*
X35788150Y-21161767D01*
X35625140Y-21194192D01*
X35570804Y-21205000D01*
X35349196Y-21205000D01*
X35294860Y-21194192D01*
X35131850Y-21161767D01*
X34927113Y-21076962D01*
X34742855Y-20953844D01*
X34742852Y-20953842D01*
X34586158Y-20797148D01*
X34463039Y-20612888D01*
X34463038Y-20612887D01*
X34378233Y-20408150D01*
X34335000Y-20190803D01*
X34335000Y-19969197D01*
X34378233Y-19751850D01*
X34463038Y-19547113D01*
X34586156Y-19362855D01*
X34586158Y-19362852D01*
X34742852Y-19206158D01*
X34745343Y-19204493D01*
X34927113Y-19083038D01*
X35131850Y-18998233D01*
X35294860Y-18965808D01*
X35349196Y-18955000D01*
X35570804Y-18955000D01*
X35625140Y-18965808D01*
X35625140Y-18965808D01*
G37*
G36*
X27705140Y-18965808D02*
X27868150Y-18998233D01*
X28072887Y-19083038D01*
X28254657Y-19204493D01*
X28257148Y-19206158D01*
X28413842Y-19362852D01*
X28413844Y-19362855D01*
X28536962Y-19547113D01*
X28621767Y-19751850D01*
X28665000Y-19969197D01*
X28665000Y-20190803D01*
X28621767Y-20408150D01*
X28536962Y-20612887D01*
X28536961Y-20612888D01*
X28413842Y-20797148D01*
X28257148Y-20953842D01*
X28257145Y-20953844D01*
X28072887Y-21076962D01*
X27868150Y-21161767D01*
X27705140Y-21194192D01*
X27650804Y-21205000D01*
X27429196Y-21205000D01*
X27374860Y-21194192D01*
X27211850Y-21161767D01*
X27007113Y-21076962D01*
X26822855Y-20953844D01*
X26822852Y-20953842D01*
X26666158Y-20797148D01*
X26543039Y-20612888D01*
X26543038Y-20612887D01*
X26458233Y-20408150D01*
X26415000Y-20190803D01*
X26415000Y-19969197D01*
X26458233Y-19751850D01*
X26543038Y-19547113D01*
X26666156Y-19362855D01*
X26666158Y-19362852D01*
X26822852Y-19206158D01*
X26825343Y-19204493D01*
X27007113Y-19083038D01*
X27211850Y-18998233D01*
X27374860Y-18965808D01*
X27429196Y-18955000D01*
X27650804Y-18955000D01*
X27705140Y-18965808D01*
X27705140Y-18965808D01*
G37*
G36*
X22625140Y-18965808D02*
X22788150Y-18998233D01*
X22992887Y-19083038D01*
X23174657Y-19204493D01*
X23177148Y-19206158D01*
X23333842Y-19362852D01*
X23333844Y-19362855D01*
X23456962Y-19547113D01*
X23541767Y-19751850D01*
X23585000Y-19969197D01*
X23585000Y-20190803D01*
X23541767Y-20408150D01*
X23456962Y-20612887D01*
X23456961Y-20612888D01*
X23333842Y-20797148D01*
X23177148Y-20953842D01*
X23177145Y-20953844D01*
X22992887Y-21076962D01*
X22788150Y-21161767D01*
X22625140Y-21194192D01*
X22570804Y-21205000D01*
X22349196Y-21205000D01*
X22294860Y-21194192D01*
X22131850Y-21161767D01*
X21927113Y-21076962D01*
X21742855Y-20953844D01*
X21742852Y-20953842D01*
X21586158Y-20797148D01*
X21463039Y-20612888D01*
X21463038Y-20612887D01*
X21378233Y-20408150D01*
X21335000Y-20190803D01*
X21335000Y-19969197D01*
X21378233Y-19751850D01*
X21463038Y-19547113D01*
X21586156Y-19362855D01*
X21586158Y-19362852D01*
X21742852Y-19206158D01*
X21745343Y-19204493D01*
X21927113Y-19083038D01*
X22131850Y-18998233D01*
X22294860Y-18965808D01*
X22349196Y-18955000D01*
X22570804Y-18955000D01*
X22625140Y-18965808D01*
X22625140Y-18965808D01*
G37*
G36*
X14705140Y-18965808D02*
X14868150Y-18998233D01*
X15072887Y-19083038D01*
X15254657Y-19204493D01*
X15257148Y-19206158D01*
X15413842Y-19362852D01*
X15413844Y-19362855D01*
X15536962Y-19547113D01*
X15621767Y-19751850D01*
X15665000Y-19969197D01*
X15665000Y-20190803D01*
X15621767Y-20408150D01*
X15536962Y-20612887D01*
X15536961Y-20612888D01*
X15413842Y-20797148D01*
X15257148Y-20953842D01*
X15257145Y-20953844D01*
X15072887Y-21076962D01*
X14868150Y-21161767D01*
X14705140Y-21194192D01*
X14650804Y-21205000D01*
X14429196Y-21205000D01*
X14374860Y-21194192D01*
X14211850Y-21161767D01*
X14007113Y-21076962D01*
X13822855Y-20953844D01*
X13822852Y-20953842D01*
X13666158Y-20797148D01*
X13543039Y-20612888D01*
X13543038Y-20612887D01*
X13458233Y-20408150D01*
X13415000Y-20190803D01*
X13415000Y-19969197D01*
X13458233Y-19751850D01*
X13543038Y-19547113D01*
X13666156Y-19362855D01*
X13666158Y-19362852D01*
X13822852Y-19206158D01*
X13825343Y-19204493D01*
X14007113Y-19083038D01*
X14211850Y-18998233D01*
X14374860Y-18965808D01*
X14429196Y-18955000D01*
X14650804Y-18955000D01*
X14705140Y-18965808D01*
X14705140Y-18965808D01*
G37*
G36*
X89100000Y-19825000D02*
X87500000Y-19825000D01*
X87500000Y-18175000D01*
X89100000Y-18175000D01*
X89100000Y-19825000D01*
X89100000Y-19825000D01*
G37*
G36*
X91300000Y-19825000D02*
X89700000Y-19825000D01*
X89700000Y-18175000D01*
X91300000Y-18175000D01*
X91300000Y-19825000D01*
X91300000Y-19825000D01*
G37*
G36*
X66705140Y-16965808D02*
X66868150Y-16998233D01*
X67072887Y-17083038D01*
X67072888Y-17083039D01*
X67257148Y-17206158D01*
X67413842Y-17362852D01*
X67413844Y-17362855D01*
X67536962Y-17547113D01*
X67621767Y-17751850D01*
X67665000Y-17969197D01*
X67665000Y-18190803D01*
X67621767Y-18408150D01*
X67536962Y-18612887D01*
X67502141Y-18665000D01*
X67413842Y-18797148D01*
X67257148Y-18953842D01*
X67257145Y-18953844D01*
X67072887Y-19076962D01*
X66868150Y-19161767D01*
X66705140Y-19194192D01*
X66650804Y-19205000D01*
X66429196Y-19205000D01*
X66374860Y-19194192D01*
X66211850Y-19161767D01*
X66007113Y-19076962D01*
X65822855Y-18953844D01*
X65822852Y-18953842D01*
X65666158Y-18797148D01*
X65577859Y-18665000D01*
X65543038Y-18612887D01*
X65458233Y-18408150D01*
X65415000Y-18190803D01*
X65415000Y-17969197D01*
X65458233Y-17751850D01*
X65543038Y-17547113D01*
X65666156Y-17362855D01*
X65666158Y-17362852D01*
X65822852Y-17206158D01*
X66007112Y-17083039D01*
X66007113Y-17083038D01*
X66211850Y-16998233D01*
X66374860Y-16965808D01*
X66429196Y-16955000D01*
X66650804Y-16955000D01*
X66705140Y-16965808D01*
X66705140Y-16965808D01*
G37*
G36*
X61625140Y-16965808D02*
X61788150Y-16998233D01*
X61992887Y-17083038D01*
X61992888Y-17083039D01*
X62177148Y-17206158D01*
X62333842Y-17362852D01*
X62333844Y-17362855D01*
X62456962Y-17547113D01*
X62541767Y-17751850D01*
X62585000Y-17969197D01*
X62585000Y-18190803D01*
X62541767Y-18408150D01*
X62456962Y-18612887D01*
X62422141Y-18665000D01*
X62333842Y-18797148D01*
X62177148Y-18953842D01*
X62177145Y-18953844D01*
X61992887Y-19076962D01*
X61788150Y-19161767D01*
X61625140Y-19194192D01*
X61570804Y-19205000D01*
X61349196Y-19205000D01*
X61294860Y-19194192D01*
X61131850Y-19161767D01*
X60927113Y-19076962D01*
X60742855Y-18953844D01*
X60742852Y-18953842D01*
X60586158Y-18797148D01*
X60497859Y-18665000D01*
X60463038Y-18612887D01*
X60378233Y-18408150D01*
X60335000Y-18190803D01*
X60335000Y-17969197D01*
X60378233Y-17751850D01*
X60463038Y-17547113D01*
X60586156Y-17362855D01*
X60586158Y-17362852D01*
X60742852Y-17206158D01*
X60927112Y-17083039D01*
X60927113Y-17083038D01*
X61131850Y-16998233D01*
X61294860Y-16965808D01*
X61349196Y-16955000D01*
X61570804Y-16955000D01*
X61625140Y-16965808D01*
X61625140Y-16965808D01*
G37*
G36*
X22625140Y-16425808D02*
X22788150Y-16458233D01*
X22992887Y-16543038D01*
X23174657Y-16664493D01*
X23177148Y-16666158D01*
X23333842Y-16822852D01*
X23333844Y-16822855D01*
X23456962Y-17007113D01*
X23541767Y-17211850D01*
X23585000Y-17429197D01*
X23585000Y-17650803D01*
X23541767Y-17868150D01*
X23456962Y-18072887D01*
X23378172Y-18190804D01*
X23333842Y-18257148D01*
X23177148Y-18413842D01*
X23177145Y-18413844D01*
X22992887Y-18536962D01*
X22788150Y-18621767D01*
X22625140Y-18654192D01*
X22570804Y-18665000D01*
X22349196Y-18665000D01*
X22294860Y-18654192D01*
X22131850Y-18621767D01*
X21927113Y-18536962D01*
X21742855Y-18413844D01*
X21742852Y-18413842D01*
X21586158Y-18257148D01*
X21541828Y-18190804D01*
X21463038Y-18072887D01*
X21378233Y-17868150D01*
X21335000Y-17650803D01*
X21335000Y-17429197D01*
X21378233Y-17211850D01*
X21463038Y-17007113D01*
X21586156Y-16822855D01*
X21586158Y-16822852D01*
X21742852Y-16666158D01*
X21745343Y-16664493D01*
X21927113Y-16543038D01*
X22131850Y-16458233D01*
X22294860Y-16425808D01*
X22349196Y-16415000D01*
X22570804Y-16415000D01*
X22625140Y-16425808D01*
X22625140Y-16425808D01*
G37*
G36*
X27705140Y-16425808D02*
X27868150Y-16458233D01*
X28072887Y-16543038D01*
X28254657Y-16664493D01*
X28257148Y-16666158D01*
X28413842Y-16822852D01*
X28413844Y-16822855D01*
X28536962Y-17007113D01*
X28621767Y-17211850D01*
X28665000Y-17429197D01*
X28665000Y-17650803D01*
X28621767Y-17868150D01*
X28536962Y-18072887D01*
X28458172Y-18190804D01*
X28413842Y-18257148D01*
X28257148Y-18413842D01*
X28257145Y-18413844D01*
X28072887Y-18536962D01*
X27868150Y-18621767D01*
X27705140Y-18654192D01*
X27650804Y-18665000D01*
X27429196Y-18665000D01*
X27374860Y-18654192D01*
X27211850Y-18621767D01*
X27007113Y-18536962D01*
X26822855Y-18413844D01*
X26822852Y-18413842D01*
X26666158Y-18257148D01*
X26621828Y-18190804D01*
X26543038Y-18072887D01*
X26458233Y-17868150D01*
X26415000Y-17650803D01*
X26415000Y-17429197D01*
X26458233Y-17211850D01*
X26543038Y-17007113D01*
X26666156Y-16822855D01*
X26666158Y-16822852D01*
X26822852Y-16666158D01*
X26825343Y-16664493D01*
X27007113Y-16543038D01*
X27211850Y-16458233D01*
X27374860Y-16425808D01*
X27429196Y-16415000D01*
X27650804Y-16415000D01*
X27705140Y-16425808D01*
X27705140Y-16425808D01*
G37*
G36*
X48625140Y-16425808D02*
X48788150Y-16458233D01*
X48992887Y-16543038D01*
X49174657Y-16664493D01*
X49177148Y-16666158D01*
X49333842Y-16822852D01*
X49333844Y-16822855D01*
X49456962Y-17007113D01*
X49541767Y-17211850D01*
X49585000Y-17429197D01*
X49585000Y-17650803D01*
X49541767Y-17868150D01*
X49456962Y-18072887D01*
X49378172Y-18190804D01*
X49333842Y-18257148D01*
X49177148Y-18413842D01*
X49177145Y-18413844D01*
X48992887Y-18536962D01*
X48788150Y-18621767D01*
X48625140Y-18654192D01*
X48570804Y-18665000D01*
X48349196Y-18665000D01*
X48294860Y-18654192D01*
X48131850Y-18621767D01*
X47927113Y-18536962D01*
X47742855Y-18413844D01*
X47742852Y-18413842D01*
X47586158Y-18257148D01*
X47541828Y-18190804D01*
X47463038Y-18072887D01*
X47378233Y-17868150D01*
X47335000Y-17650803D01*
X47335000Y-17429197D01*
X47378233Y-17211850D01*
X47463038Y-17007113D01*
X47586156Y-16822855D01*
X47586158Y-16822852D01*
X47742852Y-16666158D01*
X47745343Y-16664493D01*
X47927113Y-16543038D01*
X48131850Y-16458233D01*
X48294860Y-16425808D01*
X48349196Y-16415000D01*
X48570804Y-16415000D01*
X48625140Y-16425808D01*
X48625140Y-16425808D01*
G37*
G36*
X35625140Y-16425808D02*
X35788150Y-16458233D01*
X35992887Y-16543038D01*
X36174657Y-16664493D01*
X36177148Y-16666158D01*
X36333842Y-16822852D01*
X36333844Y-16822855D01*
X36456962Y-17007113D01*
X36541767Y-17211850D01*
X36585000Y-17429197D01*
X36585000Y-17650803D01*
X36541767Y-17868150D01*
X36456962Y-18072887D01*
X36378172Y-18190804D01*
X36333842Y-18257148D01*
X36177148Y-18413842D01*
X36177145Y-18413844D01*
X35992887Y-18536962D01*
X35788150Y-18621767D01*
X35625140Y-18654192D01*
X35570804Y-18665000D01*
X35349196Y-18665000D01*
X35294860Y-18654192D01*
X35131850Y-18621767D01*
X34927113Y-18536962D01*
X34742855Y-18413844D01*
X34742852Y-18413842D01*
X34586158Y-18257148D01*
X34541828Y-18190804D01*
X34463038Y-18072887D01*
X34378233Y-17868150D01*
X34335000Y-17650803D01*
X34335000Y-17429197D01*
X34378233Y-17211850D01*
X34463038Y-17007113D01*
X34586156Y-16822855D01*
X34586158Y-16822852D01*
X34742852Y-16666158D01*
X34745343Y-16664493D01*
X34927113Y-16543038D01*
X35131850Y-16458233D01*
X35294860Y-16425808D01*
X35349196Y-16415000D01*
X35570804Y-16415000D01*
X35625140Y-16425808D01*
X35625140Y-16425808D01*
G37*
G36*
X9625140Y-16425808D02*
X9788150Y-16458233D01*
X9992887Y-16543038D01*
X10174657Y-16664493D01*
X10177148Y-16666158D01*
X10333842Y-16822852D01*
X10333844Y-16822855D01*
X10456962Y-17007113D01*
X10541767Y-17211850D01*
X10585000Y-17429197D01*
X10585000Y-17650803D01*
X10541767Y-17868150D01*
X10456962Y-18072887D01*
X10378172Y-18190804D01*
X10333842Y-18257148D01*
X10177148Y-18413842D01*
X10177145Y-18413844D01*
X9992887Y-18536962D01*
X9788150Y-18621767D01*
X9625140Y-18654192D01*
X9570804Y-18665000D01*
X9349196Y-18665000D01*
X9294860Y-18654192D01*
X9131850Y-18621767D01*
X8927113Y-18536962D01*
X8742855Y-18413844D01*
X8742852Y-18413842D01*
X8586158Y-18257148D01*
X8541828Y-18190804D01*
X8463038Y-18072887D01*
X8378233Y-17868150D01*
X8335000Y-17650803D01*
X8335000Y-17429197D01*
X8378233Y-17211850D01*
X8463038Y-17007113D01*
X8586156Y-16822855D01*
X8586158Y-16822852D01*
X8742852Y-16666158D01*
X8745343Y-16664493D01*
X8927113Y-16543038D01*
X9131850Y-16458233D01*
X9294860Y-16425808D01*
X9349196Y-16415000D01*
X9570804Y-16415000D01*
X9625140Y-16425808D01*
X9625140Y-16425808D01*
G37*
G36*
X53705140Y-16425808D02*
X53868150Y-16458233D01*
X54072887Y-16543038D01*
X54254657Y-16664493D01*
X54257148Y-16666158D01*
X54413842Y-16822852D01*
X54413844Y-16822855D01*
X54536962Y-17007113D01*
X54621767Y-17211850D01*
X54665000Y-17429197D01*
X54665000Y-17650803D01*
X54621767Y-17868150D01*
X54536962Y-18072887D01*
X54458172Y-18190804D01*
X54413842Y-18257148D01*
X54257148Y-18413842D01*
X54257145Y-18413844D01*
X54072887Y-18536962D01*
X53868150Y-18621767D01*
X53705140Y-18654192D01*
X53650804Y-18665000D01*
X53429196Y-18665000D01*
X53374860Y-18654192D01*
X53211850Y-18621767D01*
X53007113Y-18536962D01*
X52822855Y-18413844D01*
X52822852Y-18413842D01*
X52666158Y-18257148D01*
X52621828Y-18190804D01*
X52543038Y-18072887D01*
X52458233Y-17868150D01*
X52415000Y-17650803D01*
X52415000Y-17429197D01*
X52458233Y-17211850D01*
X52543038Y-17007113D01*
X52666156Y-16822855D01*
X52666158Y-16822852D01*
X52822852Y-16666158D01*
X52825343Y-16664493D01*
X53007113Y-16543038D01*
X53211850Y-16458233D01*
X53374860Y-16425808D01*
X53429196Y-16415000D01*
X53650804Y-16415000D01*
X53705140Y-16425808D01*
X53705140Y-16425808D01*
G37*
G36*
X14705140Y-16425808D02*
X14868150Y-16458233D01*
X15072887Y-16543038D01*
X15254657Y-16664493D01*
X15257148Y-16666158D01*
X15413842Y-16822852D01*
X15413844Y-16822855D01*
X15536962Y-17007113D01*
X15621767Y-17211850D01*
X15665000Y-17429197D01*
X15665000Y-17650803D01*
X15621767Y-17868150D01*
X15536962Y-18072887D01*
X15458172Y-18190804D01*
X15413842Y-18257148D01*
X15257148Y-18413842D01*
X15257145Y-18413844D01*
X15072887Y-18536962D01*
X14868150Y-18621767D01*
X14705140Y-18654192D01*
X14650804Y-18665000D01*
X14429196Y-18665000D01*
X14374860Y-18654192D01*
X14211850Y-18621767D01*
X14007113Y-18536962D01*
X13822855Y-18413844D01*
X13822852Y-18413842D01*
X13666158Y-18257148D01*
X13621828Y-18190804D01*
X13543038Y-18072887D01*
X13458233Y-17868150D01*
X13415000Y-17650803D01*
X13415000Y-17429197D01*
X13458233Y-17211850D01*
X13543038Y-17007113D01*
X13666156Y-16822855D01*
X13666158Y-16822852D01*
X13822852Y-16666158D01*
X13825343Y-16664493D01*
X14007113Y-16543038D01*
X14211850Y-16458233D01*
X14374860Y-16425808D01*
X14429196Y-16415000D01*
X14650804Y-16415000D01*
X14705140Y-16425808D01*
X14705140Y-16425808D01*
G37*
G36*
X40705140Y-16425808D02*
X40868150Y-16458233D01*
X41072887Y-16543038D01*
X41254657Y-16664493D01*
X41257148Y-16666158D01*
X41413842Y-16822852D01*
X41413844Y-16822855D01*
X41536962Y-17007113D01*
X41621767Y-17211850D01*
X41665000Y-17429197D01*
X41665000Y-17650803D01*
X41621767Y-17868150D01*
X41536962Y-18072887D01*
X41458172Y-18190804D01*
X41413842Y-18257148D01*
X41257148Y-18413842D01*
X41257145Y-18413844D01*
X41072887Y-18536962D01*
X40868150Y-18621767D01*
X40705140Y-18654192D01*
X40650804Y-18665000D01*
X40429196Y-18665000D01*
X40374860Y-18654192D01*
X40211850Y-18621767D01*
X40007113Y-18536962D01*
X39822855Y-18413844D01*
X39822852Y-18413842D01*
X39666158Y-18257148D01*
X39621828Y-18190804D01*
X39543038Y-18072887D01*
X39458233Y-17868150D01*
X39415000Y-17650803D01*
X39415000Y-17429197D01*
X39458233Y-17211850D01*
X39543038Y-17007113D01*
X39666156Y-16822855D01*
X39666158Y-16822852D01*
X39822852Y-16666158D01*
X39825343Y-16664493D01*
X40007113Y-16543038D01*
X40211850Y-16458233D01*
X40374860Y-16425808D01*
X40429196Y-16415000D01*
X40650804Y-16415000D01*
X40705140Y-16425808D01*
X40705140Y-16425808D01*
G37*
G36*
X71625000Y-18000000D02*
X69975000Y-18000000D01*
X69975000Y-16400000D01*
X71625000Y-16400000D01*
X71625000Y-18000000D01*
X71625000Y-18000000D01*
G37*
G36*
X61625140Y-14425808D02*
X61788150Y-14458233D01*
X61992887Y-14543038D01*
X62174657Y-14664493D01*
X62177148Y-14666158D01*
X62333842Y-14822852D01*
X62333844Y-14822855D01*
X62456962Y-15007113D01*
X62541767Y-15211850D01*
X62571865Y-15363161D01*
X62585000Y-15429196D01*
X62585000Y-15650804D01*
X62583738Y-15657148D01*
X62541767Y-15868150D01*
X62456962Y-16072887D01*
X62422141Y-16125000D01*
X62333842Y-16257148D01*
X62177148Y-16413842D01*
X62177145Y-16413844D01*
X61992887Y-16536962D01*
X61788150Y-16621767D01*
X61625140Y-16654192D01*
X61570804Y-16665000D01*
X61349196Y-16665000D01*
X61294860Y-16654192D01*
X61131850Y-16621767D01*
X60927113Y-16536962D01*
X60742855Y-16413844D01*
X60742852Y-16413842D01*
X60586158Y-16257148D01*
X60497859Y-16125000D01*
X60463038Y-16072887D01*
X60378233Y-15868150D01*
X60336262Y-15657148D01*
X60335000Y-15650804D01*
X60335000Y-15429196D01*
X60348135Y-15363161D01*
X60378233Y-15211850D01*
X60463038Y-15007113D01*
X60586156Y-14822855D01*
X60586158Y-14822852D01*
X60742852Y-14666158D01*
X60745343Y-14664493D01*
X60927113Y-14543038D01*
X61131850Y-14458233D01*
X61294860Y-14425808D01*
X61349196Y-14415000D01*
X61570804Y-14415000D01*
X61625140Y-14425808D01*
X61625140Y-14425808D01*
G37*
G36*
X66705140Y-14425808D02*
X66868150Y-14458233D01*
X67072887Y-14543038D01*
X67254657Y-14664493D01*
X67257148Y-14666158D01*
X67413842Y-14822852D01*
X67413844Y-14822855D01*
X67536962Y-15007113D01*
X67621767Y-15211850D01*
X67651865Y-15363161D01*
X67665000Y-15429196D01*
X67665000Y-15650804D01*
X67663738Y-15657148D01*
X67621767Y-15868150D01*
X67536962Y-16072887D01*
X67502141Y-16125000D01*
X67413842Y-16257148D01*
X67257148Y-16413842D01*
X67257145Y-16413844D01*
X67072887Y-16536962D01*
X66868150Y-16621767D01*
X66705140Y-16654192D01*
X66650804Y-16665000D01*
X66429196Y-16665000D01*
X66374860Y-16654192D01*
X66211850Y-16621767D01*
X66007113Y-16536962D01*
X65822855Y-16413844D01*
X65822852Y-16413842D01*
X65666158Y-16257148D01*
X65577859Y-16125000D01*
X65543038Y-16072887D01*
X65458233Y-15868150D01*
X65416262Y-15657148D01*
X65415000Y-15650804D01*
X65415000Y-15429196D01*
X65428135Y-15363161D01*
X65458233Y-15211850D01*
X65543038Y-15007113D01*
X65666156Y-14822855D01*
X65666158Y-14822852D01*
X65822852Y-14666158D01*
X65825343Y-14664493D01*
X66007113Y-14543038D01*
X66211850Y-14458233D01*
X66374860Y-14425808D01*
X66429196Y-14415000D01*
X66650804Y-14415000D01*
X66705140Y-14425808D01*
X66705140Y-14425808D01*
G37*
G36*
X40705140Y-13885808D02*
X40868150Y-13918233D01*
X41072887Y-14003038D01*
X41191781Y-14082481D01*
X41257148Y-14126158D01*
X41413842Y-14282852D01*
X41413844Y-14282855D01*
X41536962Y-14467113D01*
X41621767Y-14671850D01*
X41665000Y-14889197D01*
X41665000Y-15110803D01*
X41621767Y-15328150D01*
X41536962Y-15532887D01*
X41458172Y-15650804D01*
X41413842Y-15717148D01*
X41257148Y-15873842D01*
X41257145Y-15873844D01*
X41072887Y-15996962D01*
X40868150Y-16081767D01*
X40705140Y-16114192D01*
X40650804Y-16125000D01*
X40429196Y-16125000D01*
X40374860Y-16114192D01*
X40211850Y-16081767D01*
X40007113Y-15996962D01*
X39822855Y-15873844D01*
X39822852Y-15873842D01*
X39666158Y-15717148D01*
X39621828Y-15650804D01*
X39543038Y-15532887D01*
X39458233Y-15328150D01*
X39415000Y-15110803D01*
X39415000Y-14889197D01*
X39458233Y-14671850D01*
X39543038Y-14467113D01*
X39666156Y-14282855D01*
X39666158Y-14282852D01*
X39822852Y-14126158D01*
X39888219Y-14082481D01*
X40007113Y-14003038D01*
X40211850Y-13918233D01*
X40374860Y-13885808D01*
X40429196Y-13875000D01*
X40650804Y-13875000D01*
X40705140Y-13885808D01*
X40705140Y-13885808D01*
G37*
G36*
X9625140Y-13885808D02*
X9788150Y-13918233D01*
X9992887Y-14003038D01*
X10111781Y-14082481D01*
X10177148Y-14126158D01*
X10333842Y-14282852D01*
X10333844Y-14282855D01*
X10456962Y-14467113D01*
X10541767Y-14671850D01*
X10585000Y-14889197D01*
X10585000Y-15110803D01*
X10541767Y-15328150D01*
X10456962Y-15532887D01*
X10378172Y-15650804D01*
X10333842Y-15717148D01*
X10177148Y-15873842D01*
X10177145Y-15873844D01*
X9992887Y-15996962D01*
X9788150Y-16081767D01*
X9625140Y-16114192D01*
X9570804Y-16125000D01*
X9349196Y-16125000D01*
X9294860Y-16114192D01*
X9131850Y-16081767D01*
X8927113Y-15996962D01*
X8742855Y-15873844D01*
X8742852Y-15873842D01*
X8586158Y-15717148D01*
X8541828Y-15650804D01*
X8463038Y-15532887D01*
X8378233Y-15328150D01*
X8335000Y-15110803D01*
X8335000Y-14889197D01*
X8378233Y-14671850D01*
X8463038Y-14467113D01*
X8586156Y-14282855D01*
X8586158Y-14282852D01*
X8742852Y-14126158D01*
X8808219Y-14082481D01*
X8927113Y-14003038D01*
X9131850Y-13918233D01*
X9294860Y-13885808D01*
X9349196Y-13875000D01*
X9570804Y-13875000D01*
X9625140Y-13885808D01*
X9625140Y-13885808D01*
G37*
G36*
X48625140Y-13885808D02*
X48788150Y-13918233D01*
X48992887Y-14003038D01*
X49111781Y-14082481D01*
X49177148Y-14126158D01*
X49333842Y-14282852D01*
X49333844Y-14282855D01*
X49456962Y-14467113D01*
X49541767Y-14671850D01*
X49585000Y-14889197D01*
X49585000Y-15110803D01*
X49541767Y-15328150D01*
X49456962Y-15532887D01*
X49378172Y-15650804D01*
X49333842Y-15717148D01*
X49177148Y-15873842D01*
X49177145Y-15873844D01*
X48992887Y-15996962D01*
X48788150Y-16081767D01*
X48625140Y-16114192D01*
X48570804Y-16125000D01*
X48349196Y-16125000D01*
X48294860Y-16114192D01*
X48131850Y-16081767D01*
X47927113Y-15996962D01*
X47742855Y-15873844D01*
X47742852Y-15873842D01*
X47586158Y-15717148D01*
X47541828Y-15650804D01*
X47463038Y-15532887D01*
X47378233Y-15328150D01*
X47335000Y-15110803D01*
X47335000Y-14889197D01*
X47378233Y-14671850D01*
X47463038Y-14467113D01*
X47586156Y-14282855D01*
X47586158Y-14282852D01*
X47742852Y-14126158D01*
X47808219Y-14082481D01*
X47927113Y-14003038D01*
X48131850Y-13918233D01*
X48294860Y-13885808D01*
X48349196Y-13875000D01*
X48570804Y-13875000D01*
X48625140Y-13885808D01*
X48625140Y-13885808D01*
G37*
G36*
X22625140Y-13885808D02*
X22788150Y-13918233D01*
X22992887Y-14003038D01*
X23111781Y-14082481D01*
X23177148Y-14126158D01*
X23333842Y-14282852D01*
X23333844Y-14282855D01*
X23456962Y-14467113D01*
X23541767Y-14671850D01*
X23585000Y-14889197D01*
X23585000Y-15110803D01*
X23541767Y-15328150D01*
X23456962Y-15532887D01*
X23378172Y-15650804D01*
X23333842Y-15717148D01*
X23177148Y-15873842D01*
X23177145Y-15873844D01*
X22992887Y-15996962D01*
X22788150Y-16081767D01*
X22625140Y-16114192D01*
X22570804Y-16125000D01*
X22349196Y-16125000D01*
X22294860Y-16114192D01*
X22131850Y-16081767D01*
X21927113Y-15996962D01*
X21742855Y-15873844D01*
X21742852Y-15873842D01*
X21586158Y-15717148D01*
X21541828Y-15650804D01*
X21463038Y-15532887D01*
X21378233Y-15328150D01*
X21335000Y-15110803D01*
X21335000Y-14889197D01*
X21378233Y-14671850D01*
X21463038Y-14467113D01*
X21586156Y-14282855D01*
X21586158Y-14282852D01*
X21742852Y-14126158D01*
X21808219Y-14082481D01*
X21927113Y-14003038D01*
X22131850Y-13918233D01*
X22294860Y-13885808D01*
X22349196Y-13875000D01*
X22570804Y-13875000D01*
X22625140Y-13885808D01*
X22625140Y-13885808D01*
G37*
G36*
X53705140Y-13885808D02*
X53868150Y-13918233D01*
X54072887Y-14003038D01*
X54191781Y-14082481D01*
X54257148Y-14126158D01*
X54413842Y-14282852D01*
X54413844Y-14282855D01*
X54536962Y-14467113D01*
X54621767Y-14671850D01*
X54665000Y-14889197D01*
X54665000Y-15110803D01*
X54621767Y-15328150D01*
X54536962Y-15532887D01*
X54458172Y-15650804D01*
X54413842Y-15717148D01*
X54257148Y-15873842D01*
X54257145Y-15873844D01*
X54072887Y-15996962D01*
X53868150Y-16081767D01*
X53705140Y-16114192D01*
X53650804Y-16125000D01*
X53429196Y-16125000D01*
X53374860Y-16114192D01*
X53211850Y-16081767D01*
X53007113Y-15996962D01*
X52822855Y-15873844D01*
X52822852Y-15873842D01*
X52666158Y-15717148D01*
X52621828Y-15650804D01*
X52543038Y-15532887D01*
X52458233Y-15328150D01*
X52415000Y-15110803D01*
X52415000Y-14889197D01*
X52458233Y-14671850D01*
X52543038Y-14467113D01*
X52666156Y-14282855D01*
X52666158Y-14282852D01*
X52822852Y-14126158D01*
X52888219Y-14082481D01*
X53007113Y-14003038D01*
X53211850Y-13918233D01*
X53374860Y-13885808D01*
X53429196Y-13875000D01*
X53650804Y-13875000D01*
X53705140Y-13885808D01*
X53705140Y-13885808D01*
G37*
G36*
X14705140Y-13885808D02*
X14868150Y-13918233D01*
X15072887Y-14003038D01*
X15191781Y-14082481D01*
X15257148Y-14126158D01*
X15413842Y-14282852D01*
X15413844Y-14282855D01*
X15536962Y-14467113D01*
X15621767Y-14671850D01*
X15665000Y-14889197D01*
X15665000Y-15110803D01*
X15621767Y-15328150D01*
X15536962Y-15532887D01*
X15458172Y-15650804D01*
X15413842Y-15717148D01*
X15257148Y-15873842D01*
X15257145Y-15873844D01*
X15072887Y-15996962D01*
X14868150Y-16081767D01*
X14705140Y-16114192D01*
X14650804Y-16125000D01*
X14429196Y-16125000D01*
X14374860Y-16114192D01*
X14211850Y-16081767D01*
X14007113Y-15996962D01*
X13822855Y-15873844D01*
X13822852Y-15873842D01*
X13666158Y-15717148D01*
X13621828Y-15650804D01*
X13543038Y-15532887D01*
X13458233Y-15328150D01*
X13415000Y-15110803D01*
X13415000Y-14889197D01*
X13458233Y-14671850D01*
X13543038Y-14467113D01*
X13666156Y-14282855D01*
X13666158Y-14282852D01*
X13822852Y-14126158D01*
X13888219Y-14082481D01*
X14007113Y-14003038D01*
X14211850Y-13918233D01*
X14374860Y-13885808D01*
X14429196Y-13875000D01*
X14650804Y-13875000D01*
X14705140Y-13885808D01*
X14705140Y-13885808D01*
G37*
G36*
X27705140Y-13885808D02*
X27868150Y-13918233D01*
X28072887Y-14003038D01*
X28191781Y-14082481D01*
X28257148Y-14126158D01*
X28413842Y-14282852D01*
X28413844Y-14282855D01*
X28536962Y-14467113D01*
X28621767Y-14671850D01*
X28665000Y-14889197D01*
X28665000Y-15110803D01*
X28621767Y-15328150D01*
X28536962Y-15532887D01*
X28458172Y-15650804D01*
X28413842Y-15717148D01*
X28257148Y-15873842D01*
X28257145Y-15873844D01*
X28072887Y-15996962D01*
X27868150Y-16081767D01*
X27705140Y-16114192D01*
X27650804Y-16125000D01*
X27429196Y-16125000D01*
X27374860Y-16114192D01*
X27211850Y-16081767D01*
X27007113Y-15996962D01*
X26822855Y-15873844D01*
X26822852Y-15873842D01*
X26666158Y-15717148D01*
X26621828Y-15650804D01*
X26543038Y-15532887D01*
X26458233Y-15328150D01*
X26415000Y-15110803D01*
X26415000Y-14889197D01*
X26458233Y-14671850D01*
X26543038Y-14467113D01*
X26666156Y-14282855D01*
X26666158Y-14282852D01*
X26822852Y-14126158D01*
X26888219Y-14082481D01*
X27007113Y-14003038D01*
X27211850Y-13918233D01*
X27374860Y-13885808D01*
X27429196Y-13875000D01*
X27650804Y-13875000D01*
X27705140Y-13885808D01*
X27705140Y-13885808D01*
G37*
G36*
X35625140Y-13885808D02*
X35788150Y-13918233D01*
X35992887Y-14003038D01*
X36111781Y-14082481D01*
X36177148Y-14126158D01*
X36333842Y-14282852D01*
X36333844Y-14282855D01*
X36456962Y-14467113D01*
X36541767Y-14671850D01*
X36585000Y-14889197D01*
X36585000Y-15110803D01*
X36541767Y-15328150D01*
X36456962Y-15532887D01*
X36378172Y-15650804D01*
X36333842Y-15717148D01*
X36177148Y-15873842D01*
X36177145Y-15873844D01*
X35992887Y-15996962D01*
X35788150Y-16081767D01*
X35625140Y-16114192D01*
X35570804Y-16125000D01*
X35349196Y-16125000D01*
X35294860Y-16114192D01*
X35131850Y-16081767D01*
X34927113Y-15996962D01*
X34742855Y-15873844D01*
X34742852Y-15873842D01*
X34586158Y-15717148D01*
X34541828Y-15650804D01*
X34463038Y-15532887D01*
X34378233Y-15328150D01*
X34335000Y-15110803D01*
X34335000Y-14889197D01*
X34378233Y-14671850D01*
X34463038Y-14467113D01*
X34586156Y-14282855D01*
X34586158Y-14282852D01*
X34742852Y-14126158D01*
X34808219Y-14082481D01*
X34927113Y-14003038D01*
X35131850Y-13918233D01*
X35294860Y-13885808D01*
X35349196Y-13875000D01*
X35570804Y-13875000D01*
X35625140Y-13885808D01*
X35625140Y-13885808D01*
G37*
G36*
X43145845Y-15119215D02*
X43236839Y-15156906D01*
X43317640Y-15210896D01*
X43318734Y-15211627D01*
X43388373Y-15281266D01*
X43443095Y-15363163D01*
X43480785Y-15454155D01*
X43500000Y-15550755D01*
X43500000Y-15649245D01*
X43480785Y-15745845D01*
X43443095Y-15836837D01*
X43388373Y-15918734D01*
X43318734Y-15988373D01*
X43318731Y-15988375D01*
X43236839Y-16043094D01*
X43236838Y-16043095D01*
X43236837Y-16043095D01*
X43164910Y-16072888D01*
X43145845Y-16080785D01*
X43049246Y-16100000D01*
X42950754Y-16100000D01*
X42854155Y-16080785D01*
X42835090Y-16072888D01*
X42763163Y-16043095D01*
X42763162Y-16043095D01*
X42763161Y-16043094D01*
X42681269Y-15988375D01*
X42681266Y-15988373D01*
X42611627Y-15918734D01*
X42556905Y-15836837D01*
X42519215Y-15745845D01*
X42500000Y-15649245D01*
X42500000Y-15550755D01*
X42519215Y-15454155D01*
X42556905Y-15363163D01*
X42611627Y-15281266D01*
X42681266Y-15211627D01*
X42682360Y-15210896D01*
X42763161Y-15156906D01*
X42854155Y-15119215D01*
X42950754Y-15100000D01*
X43049246Y-15100000D01*
X43145845Y-15119215D01*
X43145845Y-15119215D01*
G37*
G36*
X83845140Y-13825808D02*
X84008150Y-13858233D01*
X84212887Y-13943038D01*
X84212888Y-13943039D01*
X84397148Y-14066158D01*
X84553842Y-14222852D01*
X84553844Y-14222855D01*
X84676962Y-14407113D01*
X84761767Y-14611850D01*
X84773702Y-14671853D01*
X84803739Y-14822855D01*
X84805000Y-14829197D01*
X84805000Y-15050803D01*
X84761767Y-15268150D01*
X84676962Y-15472887D01*
X84624932Y-15550755D01*
X84553842Y-15657148D01*
X84397148Y-15813842D01*
X84397145Y-15813844D01*
X84212887Y-15936962D01*
X84008150Y-16021767D01*
X83845140Y-16054192D01*
X83790804Y-16065000D01*
X83569196Y-16065000D01*
X83514860Y-16054192D01*
X83351850Y-16021767D01*
X83147113Y-15936962D01*
X82962855Y-15813844D01*
X82962852Y-15813842D01*
X82806158Y-15657148D01*
X82735068Y-15550755D01*
X82683038Y-15472887D01*
X82598233Y-15268150D01*
X82555000Y-15050803D01*
X82555000Y-14829197D01*
X82556262Y-14822855D01*
X82586298Y-14671853D01*
X82598233Y-14611850D01*
X82683038Y-14407113D01*
X82806156Y-14222855D01*
X82806158Y-14222852D01*
X82962852Y-14066158D01*
X83147112Y-13943039D01*
X83147113Y-13943038D01*
X83351850Y-13858233D01*
X83514860Y-13825808D01*
X83569196Y-13815000D01*
X83790804Y-13815000D01*
X83845140Y-13825808D01*
X83845140Y-13825808D01*
G37*
G36*
X73685140Y-13825808D02*
X73848150Y-13858233D01*
X74052887Y-13943038D01*
X74052888Y-13943039D01*
X74237148Y-14066158D01*
X74393842Y-14222852D01*
X74393844Y-14222855D01*
X74516962Y-14407113D01*
X74601767Y-14611850D01*
X74613702Y-14671853D01*
X74643739Y-14822855D01*
X74645000Y-14829197D01*
X74645000Y-15050803D01*
X74601767Y-15268150D01*
X74516962Y-15472887D01*
X74464932Y-15550755D01*
X74393842Y-15657148D01*
X74237148Y-15813842D01*
X74237145Y-15813844D01*
X74052887Y-15936962D01*
X73848150Y-16021767D01*
X73685140Y-16054192D01*
X73630804Y-16065000D01*
X73409196Y-16065000D01*
X73354860Y-16054192D01*
X73191850Y-16021767D01*
X72987113Y-15936962D01*
X72802855Y-15813844D01*
X72802852Y-15813842D01*
X72646158Y-15657148D01*
X72575068Y-15550755D01*
X72523038Y-15472887D01*
X72438233Y-15268150D01*
X72395000Y-15050803D01*
X72395000Y-14829197D01*
X72396262Y-14822855D01*
X72426298Y-14671853D01*
X72438233Y-14611850D01*
X72523038Y-14407113D01*
X72646156Y-14222855D01*
X72646158Y-14222852D01*
X72802852Y-14066158D01*
X72987112Y-13943039D01*
X72987113Y-13943038D01*
X73191850Y-13858233D01*
X73354860Y-13825808D01*
X73409196Y-13815000D01*
X73630804Y-13815000D01*
X73685140Y-13825808D01*
X73685140Y-13825808D01*
G37*
G36*
X78765140Y-13825808D02*
X78928150Y-13858233D01*
X79132887Y-13943038D01*
X79132888Y-13943039D01*
X79317148Y-14066158D01*
X79473842Y-14222852D01*
X79473844Y-14222855D01*
X79596962Y-14407113D01*
X79681767Y-14611850D01*
X79693702Y-14671853D01*
X79723739Y-14822855D01*
X79725000Y-14829197D01*
X79725000Y-15050803D01*
X79681767Y-15268150D01*
X79596962Y-15472887D01*
X79544932Y-15550755D01*
X79473842Y-15657148D01*
X79317148Y-15813842D01*
X79317145Y-15813844D01*
X79132887Y-15936962D01*
X78928150Y-16021767D01*
X78765140Y-16054192D01*
X78710804Y-16065000D01*
X78489196Y-16065000D01*
X78434860Y-16054192D01*
X78271850Y-16021767D01*
X78067113Y-15936962D01*
X77882855Y-15813844D01*
X77882852Y-15813842D01*
X77726158Y-15657148D01*
X77655068Y-15550755D01*
X77603038Y-15472887D01*
X77518233Y-15268150D01*
X77475000Y-15050803D01*
X77475000Y-14829197D01*
X77476262Y-14822855D01*
X77506298Y-14671853D01*
X77518233Y-14611850D01*
X77603038Y-14407113D01*
X77726156Y-14222855D01*
X77726158Y-14222852D01*
X77882852Y-14066158D01*
X78067112Y-13943039D01*
X78067113Y-13943038D01*
X78271850Y-13858233D01*
X78434860Y-13825808D01*
X78489196Y-13815000D01*
X78710804Y-13815000D01*
X78765140Y-13825808D01*
X78765140Y-13825808D01*
G37*
G36*
X81305140Y-13825808D02*
X81468150Y-13858233D01*
X81672887Y-13943038D01*
X81672888Y-13943039D01*
X81857148Y-14066158D01*
X82013842Y-14222852D01*
X82013844Y-14222855D01*
X82136962Y-14407113D01*
X82221767Y-14611850D01*
X82233702Y-14671853D01*
X82263739Y-14822855D01*
X82265000Y-14829197D01*
X82265000Y-15050803D01*
X82221767Y-15268150D01*
X82136962Y-15472887D01*
X82084932Y-15550755D01*
X82013842Y-15657148D01*
X81857148Y-15813842D01*
X81857145Y-15813844D01*
X81672887Y-15936962D01*
X81468150Y-16021767D01*
X81305140Y-16054192D01*
X81250804Y-16065000D01*
X81029196Y-16065000D01*
X80974860Y-16054192D01*
X80811850Y-16021767D01*
X80607113Y-15936962D01*
X80422855Y-15813844D01*
X80422852Y-15813842D01*
X80266158Y-15657148D01*
X80195068Y-15550755D01*
X80143038Y-15472887D01*
X80058233Y-15268150D01*
X80015000Y-15050803D01*
X80015000Y-14829197D01*
X80016262Y-14822855D01*
X80046298Y-14671853D01*
X80058233Y-14611850D01*
X80143038Y-14407113D01*
X80266156Y-14222855D01*
X80266158Y-14222852D01*
X80422852Y-14066158D01*
X80607112Y-13943039D01*
X80607113Y-13943038D01*
X80811850Y-13858233D01*
X80974860Y-13825808D01*
X81029196Y-13815000D01*
X81250804Y-13815000D01*
X81305140Y-13825808D01*
X81305140Y-13825808D01*
G37*
G36*
X71625000Y-15800000D02*
X69975000Y-15800000D01*
X69975000Y-14200000D01*
X71625000Y-14200000D01*
X71625000Y-15800000D01*
X71625000Y-15800000D01*
G37*
G36*
X44545845Y-14119215D02*
X44636839Y-14156906D01*
X44701333Y-14200000D01*
X44718734Y-14211627D01*
X44788373Y-14281266D01*
X44843095Y-14363163D01*
X44880785Y-14454155D01*
X44900000Y-14550755D01*
X44900000Y-14649245D01*
X44880785Y-14745845D01*
X44843095Y-14836837D01*
X44788373Y-14918734D01*
X44718734Y-14988373D01*
X44718731Y-14988375D01*
X44636839Y-15043094D01*
X44636838Y-15043095D01*
X44636837Y-15043095D01*
X44545845Y-15080785D01*
X44449246Y-15100000D01*
X44350754Y-15100000D01*
X44254155Y-15080785D01*
X44163163Y-15043095D01*
X44163162Y-15043095D01*
X44163161Y-15043094D01*
X44081269Y-14988375D01*
X44081266Y-14988373D01*
X44011627Y-14918734D01*
X43956905Y-14836837D01*
X43919215Y-14745845D01*
X43900000Y-14649245D01*
X43900000Y-14550755D01*
X43919215Y-14454155D01*
X43956905Y-14363163D01*
X44011627Y-14281266D01*
X44081266Y-14211627D01*
X44098667Y-14200000D01*
X44163161Y-14156906D01*
X44254155Y-14119215D01*
X44350754Y-14100000D01*
X44449246Y-14100000D01*
X44545845Y-14119215D01*
X44545845Y-14119215D01*
G37*
G36*
X17775012Y-13123057D02*
X17884207Y-13168287D01*
X17982481Y-13233952D01*
X18066048Y-13317519D01*
X18131713Y-13415793D01*
X18176943Y-13524988D01*
X18200000Y-13640904D01*
X18200000Y-13759096D01*
X18176943Y-13875012D01*
X18131713Y-13984207D01*
X18066048Y-14082481D01*
X17982481Y-14166048D01*
X17884207Y-14231713D01*
X17775012Y-14276943D01*
X17659096Y-14300000D01*
X17540904Y-14300000D01*
X17424988Y-14276943D01*
X17315793Y-14231713D01*
X17217519Y-14166048D01*
X17133952Y-14082481D01*
X17068287Y-13984207D01*
X17023057Y-13875012D01*
X17000000Y-13759096D01*
X17000000Y-13640904D01*
X17023057Y-13524988D01*
X17068287Y-13415793D01*
X17133952Y-13317519D01*
X17217519Y-13233952D01*
X17315793Y-13168287D01*
X17424988Y-13123057D01*
X17540904Y-13100000D01*
X17659096Y-13100000D01*
X17775012Y-13123057D01*
X17775012Y-13123057D01*
G37*
G36*
X66705140Y-11885808D02*
X66868150Y-11918233D01*
X67072887Y-12003038D01*
X67072888Y-12003039D01*
X67257148Y-12126158D01*
X67413842Y-12282852D01*
X67413844Y-12282855D01*
X67536962Y-12467113D01*
X67621767Y-12671850D01*
X67665000Y-12889197D01*
X67665000Y-13110803D01*
X67621767Y-13328150D01*
X67536962Y-13532887D01*
X67536961Y-13532888D01*
X67413842Y-13717148D01*
X67257148Y-13873842D01*
X67257145Y-13873844D01*
X67072887Y-13996962D01*
X66868150Y-14081767D01*
X66705140Y-14114192D01*
X66650804Y-14125000D01*
X66429196Y-14125000D01*
X66374860Y-14114192D01*
X66211850Y-14081767D01*
X66007113Y-13996962D01*
X65822855Y-13873844D01*
X65822852Y-13873842D01*
X65666158Y-13717148D01*
X65543039Y-13532888D01*
X65543038Y-13532887D01*
X65458233Y-13328150D01*
X65415000Y-13110803D01*
X65415000Y-12889197D01*
X65458233Y-12671850D01*
X65543038Y-12467113D01*
X65666156Y-12282855D01*
X65666158Y-12282852D01*
X65822852Y-12126158D01*
X66007112Y-12003039D01*
X66007113Y-12003038D01*
X66211850Y-11918233D01*
X66374860Y-11885808D01*
X66429196Y-11875000D01*
X66650804Y-11875000D01*
X66705140Y-11885808D01*
X66705140Y-11885808D01*
G37*
G36*
X61625140Y-11885808D02*
X61788150Y-11918233D01*
X61992887Y-12003038D01*
X61992888Y-12003039D01*
X62177148Y-12126158D01*
X62333842Y-12282852D01*
X62333844Y-12282855D01*
X62456962Y-12467113D01*
X62541767Y-12671850D01*
X62585000Y-12889197D01*
X62585000Y-13110803D01*
X62541767Y-13328150D01*
X62456962Y-13532887D01*
X62456961Y-13532888D01*
X62333842Y-13717148D01*
X62177148Y-13873842D01*
X62177145Y-13873844D01*
X61992887Y-13996962D01*
X61788150Y-14081767D01*
X61625140Y-14114192D01*
X61570804Y-14125000D01*
X61349196Y-14125000D01*
X61294860Y-14114192D01*
X61131850Y-14081767D01*
X60927113Y-13996962D01*
X60742855Y-13873844D01*
X60742852Y-13873842D01*
X60586158Y-13717148D01*
X60463039Y-13532888D01*
X60463038Y-13532887D01*
X60378233Y-13328150D01*
X60335000Y-13110803D01*
X60335000Y-12889197D01*
X60378233Y-12671850D01*
X60463038Y-12467113D01*
X60586156Y-12282855D01*
X60586158Y-12282852D01*
X60742852Y-12126158D01*
X60927112Y-12003039D01*
X60927113Y-12003038D01*
X61131850Y-11918233D01*
X61294860Y-11885808D01*
X61349196Y-11875000D01*
X61570804Y-11875000D01*
X61625140Y-11885808D01*
X61625140Y-11885808D01*
G37*
G36*
X57660903Y-9331789D02*
X57861391Y-9392607D01*
X58046164Y-9491369D01*
X58208118Y-9624282D01*
X58341031Y-9786236D01*
X58439793Y-9971009D01*
X58500611Y-10171497D01*
X58521146Y-10380000D01*
X58500611Y-10588503D01*
X58439793Y-10788991D01*
X58341031Y-10973764D01*
X58208118Y-11135718D01*
X58046164Y-11268631D01*
X57861391Y-11367393D01*
X57660903Y-11428211D01*
X57504651Y-11443600D01*
X57095349Y-11443600D01*
X56939097Y-11428211D01*
X56738609Y-11367393D01*
X56553836Y-11268631D01*
X56391882Y-11135718D01*
X56258969Y-10973764D01*
X56160207Y-10788991D01*
X56099389Y-10588503D01*
X56078854Y-10380000D01*
X56099389Y-10171497D01*
X56160207Y-9971009D01*
X56258969Y-9786236D01*
X56391882Y-9624282D01*
X56553836Y-9491369D01*
X56738609Y-9392607D01*
X56939097Y-9331789D01*
X57095349Y-9316400D01*
X57504651Y-9316400D01*
X57660903Y-9331789D01*
X57660903Y-9331789D01*
G37*
G36*
X33645845Y-10319215D02*
X33736839Y-10356906D01*
X33771401Y-10380000D01*
X33818734Y-10411627D01*
X33888373Y-10481266D01*
X33943095Y-10563163D01*
X33980785Y-10654155D01*
X34000000Y-10750755D01*
X34000000Y-10849245D01*
X33980785Y-10945845D01*
X33943095Y-11036837D01*
X33888373Y-11118734D01*
X33818734Y-11188373D01*
X33818731Y-11188375D01*
X33736839Y-11243094D01*
X33645845Y-11280785D01*
X33549246Y-11300000D01*
X33450754Y-11300000D01*
X33354155Y-11280785D01*
X33263161Y-11243094D01*
X33181269Y-11188375D01*
X33181266Y-11188373D01*
X33111627Y-11118734D01*
X33056905Y-11036837D01*
X33019215Y-10945845D01*
X33000000Y-10849245D01*
X33000000Y-10750755D01*
X33019215Y-10654155D01*
X33056905Y-10563163D01*
X33111627Y-10481266D01*
X33181266Y-10411627D01*
X33228599Y-10380000D01*
X33263161Y-10356906D01*
X33354155Y-10319215D01*
X33450754Y-10300000D01*
X33549246Y-10300000D01*
X33645845Y-10319215D01*
X33645845Y-10319215D01*
G37*
G36*
X45104183Y-9826900D02*
X45231574Y-9879668D01*
X45346225Y-9956275D01*
X45443725Y-10053775D01*
X45520332Y-10168426D01*
X45573100Y-10295817D01*
X45600000Y-10431055D01*
X45600000Y-10568945D01*
X45573100Y-10704183D01*
X45520332Y-10831574D01*
X45463279Y-10916961D01*
X45443725Y-10946225D01*
X45346225Y-11043725D01*
X45231574Y-11120332D01*
X45104183Y-11173100D01*
X44968945Y-11200000D01*
X44831055Y-11200000D01*
X44695817Y-11173100D01*
X44568426Y-11120332D01*
X44453775Y-11043725D01*
X44356275Y-10946225D01*
X44336722Y-10916961D01*
X44279668Y-10831574D01*
X44226900Y-10704183D01*
X44200000Y-10568945D01*
X44200000Y-10431055D01*
X44226900Y-10295817D01*
X44279668Y-10168426D01*
X44356275Y-10053775D01*
X44453775Y-9956275D01*
X44568426Y-9879668D01*
X44695817Y-9826900D01*
X44831055Y-9800000D01*
X44968945Y-9800000D01*
X45104183Y-9826900D01*
X45104183Y-9826900D01*
G37*
G36*
X22625140Y-8805808D02*
X22788150Y-8838233D01*
X22992887Y-8923038D01*
X23174657Y-9044493D01*
X23177148Y-9046158D01*
X23333842Y-9202852D01*
X23333844Y-9202855D01*
X23456962Y-9387113D01*
X23541767Y-9591850D01*
X23548218Y-9624282D01*
X23585000Y-9809196D01*
X23585000Y-10030804D01*
X23574192Y-10085140D01*
X23541767Y-10248150D01*
X23456962Y-10452887D01*
X23383279Y-10563161D01*
X23333842Y-10637148D01*
X23177148Y-10793842D01*
X23177145Y-10793844D01*
X22992887Y-10916962D01*
X22788150Y-11001767D01*
X22625140Y-11034192D01*
X22570804Y-11045000D01*
X22349196Y-11045000D01*
X22294860Y-11034192D01*
X22131850Y-11001767D01*
X21927113Y-10916962D01*
X21742855Y-10793844D01*
X21742852Y-10793842D01*
X21586158Y-10637148D01*
X21536721Y-10563161D01*
X21463038Y-10452887D01*
X21378233Y-10248150D01*
X21345808Y-10085140D01*
X21335000Y-10030804D01*
X21335000Y-9809196D01*
X21371782Y-9624282D01*
X21378233Y-9591850D01*
X21463038Y-9387113D01*
X21586156Y-9202855D01*
X21586158Y-9202852D01*
X21742852Y-9046158D01*
X21745343Y-9044493D01*
X21927113Y-8923038D01*
X22131850Y-8838233D01*
X22294860Y-8805808D01*
X22349196Y-8795000D01*
X22570804Y-8795000D01*
X22625140Y-8805808D01*
X22625140Y-8805808D01*
G37*
G36*
X53705140Y-8805808D02*
X53868150Y-8838233D01*
X54072887Y-8923038D01*
X54254657Y-9044493D01*
X54257148Y-9046158D01*
X54413842Y-9202852D01*
X54413844Y-9202855D01*
X54536962Y-9387113D01*
X54621767Y-9591850D01*
X54628218Y-9624282D01*
X54665000Y-9809196D01*
X54665000Y-10030804D01*
X54654192Y-10085140D01*
X54621767Y-10248150D01*
X54536962Y-10452887D01*
X54463279Y-10563161D01*
X54413842Y-10637148D01*
X54257148Y-10793842D01*
X54257145Y-10793844D01*
X54072887Y-10916962D01*
X53868150Y-11001767D01*
X53705140Y-11034192D01*
X53650804Y-11045000D01*
X53429196Y-11045000D01*
X53374860Y-11034192D01*
X53211850Y-11001767D01*
X53007113Y-10916962D01*
X52822855Y-10793844D01*
X52822852Y-10793842D01*
X52666158Y-10637148D01*
X52616721Y-10563161D01*
X52543038Y-10452887D01*
X52458233Y-10248150D01*
X52425808Y-10085140D01*
X52415000Y-10030804D01*
X52415000Y-9809196D01*
X52451782Y-9624282D01*
X52458233Y-9591850D01*
X52543038Y-9387113D01*
X52666156Y-9202855D01*
X52666158Y-9202852D01*
X52822852Y-9046158D01*
X52825343Y-9044493D01*
X53007113Y-8923038D01*
X53211850Y-8838233D01*
X53374860Y-8805808D01*
X53429196Y-8795000D01*
X53650804Y-8795000D01*
X53705140Y-8805808D01*
X53705140Y-8805808D01*
G37*
G36*
X40705140Y-8805808D02*
X40868150Y-8838233D01*
X41072887Y-8923038D01*
X41254657Y-9044493D01*
X41257148Y-9046158D01*
X41413842Y-9202852D01*
X41413844Y-9202855D01*
X41536962Y-9387113D01*
X41621767Y-9591850D01*
X41628218Y-9624282D01*
X41665000Y-9809196D01*
X41665000Y-10030804D01*
X41654192Y-10085140D01*
X41621767Y-10248150D01*
X41536962Y-10452887D01*
X41463279Y-10563161D01*
X41413842Y-10637148D01*
X41257148Y-10793842D01*
X41257145Y-10793844D01*
X41072887Y-10916962D01*
X40868150Y-11001767D01*
X40705140Y-11034192D01*
X40650804Y-11045000D01*
X40429196Y-11045000D01*
X40374860Y-11034192D01*
X40211850Y-11001767D01*
X40007113Y-10916962D01*
X39822855Y-10793844D01*
X39822852Y-10793842D01*
X39666158Y-10637148D01*
X39616721Y-10563161D01*
X39543038Y-10452887D01*
X39458233Y-10248150D01*
X39425808Y-10085140D01*
X39415000Y-10030804D01*
X39415000Y-9809196D01*
X39451782Y-9624282D01*
X39458233Y-9591850D01*
X39543038Y-9387113D01*
X39666156Y-9202855D01*
X39666158Y-9202852D01*
X39822852Y-9046158D01*
X39825343Y-9044493D01*
X40007113Y-8923038D01*
X40211850Y-8838233D01*
X40374860Y-8805808D01*
X40429196Y-8795000D01*
X40650804Y-8795000D01*
X40705140Y-8805808D01*
X40705140Y-8805808D01*
G37*
G36*
X27705140Y-8805808D02*
X27868150Y-8838233D01*
X28072887Y-8923038D01*
X28254657Y-9044493D01*
X28257148Y-9046158D01*
X28413842Y-9202852D01*
X28413844Y-9202855D01*
X28536962Y-9387113D01*
X28621767Y-9591850D01*
X28628218Y-9624282D01*
X28665000Y-9809196D01*
X28665000Y-10030804D01*
X28654192Y-10085140D01*
X28621767Y-10248150D01*
X28536962Y-10452887D01*
X28463279Y-10563161D01*
X28413842Y-10637148D01*
X28257148Y-10793842D01*
X28257145Y-10793844D01*
X28072887Y-10916962D01*
X27868150Y-11001767D01*
X27705140Y-11034192D01*
X27650804Y-11045000D01*
X27429196Y-11045000D01*
X27374860Y-11034192D01*
X27211850Y-11001767D01*
X27007113Y-10916962D01*
X26822855Y-10793844D01*
X26822852Y-10793842D01*
X26666158Y-10637148D01*
X26616721Y-10563161D01*
X26543038Y-10452887D01*
X26458233Y-10248150D01*
X26425808Y-10085140D01*
X26415000Y-10030804D01*
X26415000Y-9809196D01*
X26451782Y-9624282D01*
X26458233Y-9591850D01*
X26543038Y-9387113D01*
X26666156Y-9202855D01*
X26666158Y-9202852D01*
X26822852Y-9046158D01*
X26825343Y-9044493D01*
X27007113Y-8923038D01*
X27211850Y-8838233D01*
X27374860Y-8805808D01*
X27429196Y-8795000D01*
X27650804Y-8795000D01*
X27705140Y-8805808D01*
X27705140Y-8805808D01*
G37*
G36*
X48625140Y-8805808D02*
X48788150Y-8838233D01*
X48992887Y-8923038D01*
X49174657Y-9044493D01*
X49177148Y-9046158D01*
X49333842Y-9202852D01*
X49333844Y-9202855D01*
X49456962Y-9387113D01*
X49541767Y-9591850D01*
X49548218Y-9624282D01*
X49585000Y-9809196D01*
X49585000Y-10030804D01*
X49574192Y-10085140D01*
X49541767Y-10248150D01*
X49456962Y-10452887D01*
X49383279Y-10563161D01*
X49333842Y-10637148D01*
X49177148Y-10793842D01*
X49177145Y-10793844D01*
X48992887Y-10916962D01*
X48788150Y-11001767D01*
X48625140Y-11034192D01*
X48570804Y-11045000D01*
X48349196Y-11045000D01*
X48294860Y-11034192D01*
X48131850Y-11001767D01*
X47927113Y-10916962D01*
X47742855Y-10793844D01*
X47742852Y-10793842D01*
X47586158Y-10637148D01*
X47536721Y-10563161D01*
X47463038Y-10452887D01*
X47378233Y-10248150D01*
X47345808Y-10085140D01*
X47335000Y-10030804D01*
X47335000Y-9809196D01*
X47371782Y-9624282D01*
X47378233Y-9591850D01*
X47463038Y-9387113D01*
X47586156Y-9202855D01*
X47586158Y-9202852D01*
X47742852Y-9046158D01*
X47745343Y-9044493D01*
X47927113Y-8923038D01*
X48131850Y-8838233D01*
X48294860Y-8805808D01*
X48349196Y-8795000D01*
X48570804Y-8795000D01*
X48625140Y-8805808D01*
X48625140Y-8805808D01*
G37*
G36*
X9625140Y-8805808D02*
X9788150Y-8838233D01*
X9992887Y-8923038D01*
X10174657Y-9044493D01*
X10177148Y-9046158D01*
X10333842Y-9202852D01*
X10333844Y-9202855D01*
X10456962Y-9387113D01*
X10541767Y-9591850D01*
X10548218Y-9624282D01*
X10585000Y-9809196D01*
X10585000Y-10030804D01*
X10574192Y-10085140D01*
X10541767Y-10248150D01*
X10456962Y-10452887D01*
X10383279Y-10563161D01*
X10333842Y-10637148D01*
X10177148Y-10793842D01*
X10177145Y-10793844D01*
X9992887Y-10916962D01*
X9788150Y-11001767D01*
X9625140Y-11034192D01*
X9570804Y-11045000D01*
X9349196Y-11045000D01*
X9294860Y-11034192D01*
X9131850Y-11001767D01*
X8927113Y-10916962D01*
X8742855Y-10793844D01*
X8742852Y-10793842D01*
X8586158Y-10637148D01*
X8536721Y-10563161D01*
X8463038Y-10452887D01*
X8378233Y-10248150D01*
X8345808Y-10085140D01*
X8335000Y-10030804D01*
X8335000Y-9809196D01*
X8371782Y-9624282D01*
X8378233Y-9591850D01*
X8463038Y-9387113D01*
X8586156Y-9202855D01*
X8586158Y-9202852D01*
X8742852Y-9046158D01*
X8745343Y-9044493D01*
X8927113Y-8923038D01*
X9131850Y-8838233D01*
X9294860Y-8805808D01*
X9349196Y-8795000D01*
X9570804Y-8795000D01*
X9625140Y-8805808D01*
X9625140Y-8805808D01*
G37*
G36*
X35625140Y-8805808D02*
X35788150Y-8838233D01*
X35992887Y-8923038D01*
X36174657Y-9044493D01*
X36177148Y-9046158D01*
X36333842Y-9202852D01*
X36333844Y-9202855D01*
X36456962Y-9387113D01*
X36541767Y-9591850D01*
X36548218Y-9624282D01*
X36585000Y-9809196D01*
X36585000Y-10030804D01*
X36574192Y-10085140D01*
X36541767Y-10248150D01*
X36456962Y-10452887D01*
X36383279Y-10563161D01*
X36333842Y-10637148D01*
X36177148Y-10793842D01*
X36177145Y-10793844D01*
X35992887Y-10916962D01*
X35788150Y-11001767D01*
X35625140Y-11034192D01*
X35570804Y-11045000D01*
X35349196Y-11045000D01*
X35294860Y-11034192D01*
X35131850Y-11001767D01*
X34927113Y-10916962D01*
X34742855Y-10793844D01*
X34742852Y-10793842D01*
X34586158Y-10637148D01*
X34536721Y-10563161D01*
X34463038Y-10452887D01*
X34378233Y-10248150D01*
X34345808Y-10085140D01*
X34335000Y-10030804D01*
X34335000Y-9809196D01*
X34371782Y-9624282D01*
X34378233Y-9591850D01*
X34463038Y-9387113D01*
X34586156Y-9202855D01*
X34586158Y-9202852D01*
X34742852Y-9046158D01*
X34745343Y-9044493D01*
X34927113Y-8923038D01*
X35131850Y-8838233D01*
X35294860Y-8805808D01*
X35349196Y-8795000D01*
X35570804Y-8795000D01*
X35625140Y-8805808D01*
X35625140Y-8805808D01*
G37*
G36*
X14705140Y-8805808D02*
X14868150Y-8838233D01*
X15072887Y-8923038D01*
X15254657Y-9044493D01*
X15257148Y-9046158D01*
X15413842Y-9202852D01*
X15413844Y-9202855D01*
X15536962Y-9387113D01*
X15621767Y-9591850D01*
X15628218Y-9624282D01*
X15665000Y-9809196D01*
X15665000Y-10030804D01*
X15654192Y-10085140D01*
X15621767Y-10248150D01*
X15536962Y-10452887D01*
X15463279Y-10563161D01*
X15413842Y-10637148D01*
X15257148Y-10793842D01*
X15257145Y-10793844D01*
X15072887Y-10916962D01*
X14868150Y-11001767D01*
X14705140Y-11034192D01*
X14650804Y-11045000D01*
X14429196Y-11045000D01*
X14374860Y-11034192D01*
X14211850Y-11001767D01*
X14007113Y-10916962D01*
X13822855Y-10793844D01*
X13822852Y-10793842D01*
X13666158Y-10637148D01*
X13616721Y-10563161D01*
X13543038Y-10452887D01*
X13458233Y-10248150D01*
X13425808Y-10085140D01*
X13415000Y-10030804D01*
X13415000Y-9809196D01*
X13451782Y-9624282D01*
X13458233Y-9591850D01*
X13543038Y-9387113D01*
X13666156Y-9202855D01*
X13666158Y-9202852D01*
X13822852Y-9046158D01*
X13825343Y-9044493D01*
X14007113Y-8923038D01*
X14211850Y-8838233D01*
X14374860Y-8805808D01*
X14429196Y-8795000D01*
X14650804Y-8795000D01*
X14705140Y-8805808D01*
X14705140Y-8805808D01*
G37*
G36*
X73685140Y-8745808D02*
X73848150Y-8778233D01*
X74052887Y-8863038D01*
X74113592Y-8903600D01*
X74237148Y-8986158D01*
X74393842Y-9142852D01*
X74393844Y-9142855D01*
X74516962Y-9327113D01*
X74601767Y-9531850D01*
X74645000Y-9749197D01*
X74645000Y-9970803D01*
X74601767Y-10188150D01*
X74516962Y-10392887D01*
X74504440Y-10411627D01*
X74393842Y-10577148D01*
X74237148Y-10733842D01*
X74237145Y-10733844D01*
X74052887Y-10856962D01*
X73848150Y-10941767D01*
X73687295Y-10973763D01*
X73630804Y-10985000D01*
X73409196Y-10985000D01*
X73352705Y-10973763D01*
X73191850Y-10941767D01*
X72987113Y-10856962D01*
X72802855Y-10733844D01*
X72802852Y-10733842D01*
X72646158Y-10577148D01*
X72535560Y-10411627D01*
X72523038Y-10392887D01*
X72438233Y-10188150D01*
X72395000Y-9970803D01*
X72395000Y-9749197D01*
X72438233Y-9531850D01*
X72523038Y-9327113D01*
X72646156Y-9142855D01*
X72646158Y-9142852D01*
X72802852Y-8986158D01*
X72926408Y-8903600D01*
X72987113Y-8863038D01*
X73191850Y-8778233D01*
X73354860Y-8745808D01*
X73409196Y-8735000D01*
X73630804Y-8735000D01*
X73685140Y-8745808D01*
X73685140Y-8745808D01*
G37*
G36*
X83845140Y-8745808D02*
X84008150Y-8778233D01*
X84212887Y-8863038D01*
X84273592Y-8903600D01*
X84397148Y-8986158D01*
X84553842Y-9142852D01*
X84553844Y-9142855D01*
X84676962Y-9327113D01*
X84761767Y-9531850D01*
X84805000Y-9749197D01*
X84805000Y-9970803D01*
X84761767Y-10188150D01*
X84676962Y-10392887D01*
X84664440Y-10411627D01*
X84553842Y-10577148D01*
X84397148Y-10733842D01*
X84397145Y-10733844D01*
X84212887Y-10856962D01*
X84008150Y-10941767D01*
X83847295Y-10973763D01*
X83790804Y-10985000D01*
X83569196Y-10985000D01*
X83512705Y-10973763D01*
X83351850Y-10941767D01*
X83147113Y-10856962D01*
X82962855Y-10733844D01*
X82962852Y-10733842D01*
X82806158Y-10577148D01*
X82695560Y-10411627D01*
X82683038Y-10392887D01*
X82598233Y-10188150D01*
X82555000Y-9970803D01*
X82555000Y-9749197D01*
X82598233Y-9531850D01*
X82683038Y-9327113D01*
X82806156Y-9142855D01*
X82806158Y-9142852D01*
X82962852Y-8986158D01*
X83086408Y-8903600D01*
X83147113Y-8863038D01*
X83351850Y-8778233D01*
X83514860Y-8745808D01*
X83569196Y-8735000D01*
X83790804Y-8735000D01*
X83845140Y-8745808D01*
X83845140Y-8745808D01*
G37*
G36*
X81305140Y-8745808D02*
X81468150Y-8778233D01*
X81672887Y-8863038D01*
X81733592Y-8903600D01*
X81857148Y-8986158D01*
X82013842Y-9142852D01*
X82013844Y-9142855D01*
X82136962Y-9327113D01*
X82221767Y-9531850D01*
X82265000Y-9749197D01*
X82265000Y-9970803D01*
X82221767Y-10188150D01*
X82136962Y-10392887D01*
X82124440Y-10411627D01*
X82013842Y-10577148D01*
X81857148Y-10733842D01*
X81857145Y-10733844D01*
X81672887Y-10856962D01*
X81468150Y-10941767D01*
X81307295Y-10973763D01*
X81250804Y-10985000D01*
X81029196Y-10985000D01*
X80972705Y-10973763D01*
X80811850Y-10941767D01*
X80607113Y-10856962D01*
X80422855Y-10733844D01*
X80422852Y-10733842D01*
X80266158Y-10577148D01*
X80155560Y-10411627D01*
X80143038Y-10392887D01*
X80058233Y-10188150D01*
X80015000Y-9970803D01*
X80015000Y-9749197D01*
X80058233Y-9531850D01*
X80143038Y-9327113D01*
X80266156Y-9142855D01*
X80266158Y-9142852D01*
X80422852Y-8986158D01*
X80546408Y-8903600D01*
X80607113Y-8863038D01*
X80811850Y-8778233D01*
X80974860Y-8745808D01*
X81029196Y-8735000D01*
X81250804Y-8735000D01*
X81305140Y-8745808D01*
X81305140Y-8745808D01*
G37*
G36*
X78765140Y-8745808D02*
X78928150Y-8778233D01*
X79132887Y-8863038D01*
X79193592Y-8903600D01*
X79317148Y-8986158D01*
X79473842Y-9142852D01*
X79473844Y-9142855D01*
X79596962Y-9327113D01*
X79681767Y-9531850D01*
X79725000Y-9749197D01*
X79725000Y-9970803D01*
X79681767Y-10188150D01*
X79596962Y-10392887D01*
X79584440Y-10411627D01*
X79473842Y-10577148D01*
X79317148Y-10733842D01*
X79317145Y-10733844D01*
X79132887Y-10856962D01*
X78928150Y-10941767D01*
X78767295Y-10973763D01*
X78710804Y-10985000D01*
X78489196Y-10985000D01*
X78432705Y-10973763D01*
X78271850Y-10941767D01*
X78067113Y-10856962D01*
X77882855Y-10733844D01*
X77882852Y-10733842D01*
X77726158Y-10577148D01*
X77615560Y-10411627D01*
X77603038Y-10392887D01*
X77518233Y-10188150D01*
X77475000Y-9970803D01*
X77475000Y-9749197D01*
X77518233Y-9531850D01*
X77603038Y-9327113D01*
X77726156Y-9142855D01*
X77726158Y-9142852D01*
X77882852Y-8986158D01*
X78006408Y-8903600D01*
X78067113Y-8863038D01*
X78271850Y-8778233D01*
X78434860Y-8745808D01*
X78489196Y-8735000D01*
X78710804Y-8735000D01*
X78765140Y-8745808D01*
X78765140Y-8745808D01*
G37*
G36*
X61595940Y-6800000D02*
X61788150Y-6838233D01*
X61992887Y-6923038D01*
X62038888Y-6953775D01*
X62177148Y-7046158D01*
X62333842Y-7202852D01*
X62333844Y-7202855D01*
X62456962Y-7387113D01*
X62541767Y-7591850D01*
X62544220Y-7604183D01*
X62585000Y-7809196D01*
X62585000Y-8030804D01*
X62581479Y-8048503D01*
X62541767Y-8248150D01*
X62456962Y-8452887D01*
X62456961Y-8452888D01*
X62333842Y-8637148D01*
X62177148Y-8793842D01*
X62177145Y-8793844D01*
X61992887Y-8916962D01*
X61788150Y-9001767D01*
X61625140Y-9034192D01*
X61570804Y-9045000D01*
X61349196Y-9045000D01*
X61294860Y-9034192D01*
X61131850Y-9001767D01*
X60927113Y-8916962D01*
X60742855Y-8793844D01*
X60742852Y-8793842D01*
X60586158Y-8637148D01*
X60463039Y-8452888D01*
X60463038Y-8452887D01*
X60378233Y-8248150D01*
X60338521Y-8048503D01*
X60335000Y-8030804D01*
X60335000Y-7809196D01*
X60375780Y-7604183D01*
X60378233Y-7591850D01*
X60463038Y-7387113D01*
X60586156Y-7202855D01*
X60586158Y-7202852D01*
X60742852Y-7046158D01*
X60881112Y-6953775D01*
X60927113Y-6923038D01*
X61131850Y-6838233D01*
X61324060Y-6800000D01*
X61349196Y-6795000D01*
X61570804Y-6795000D01*
X61595940Y-6800000D01*
X61595940Y-6800000D01*
G37*
G36*
X66675940Y-6800000D02*
X66868150Y-6838233D01*
X67072887Y-6923038D01*
X67118888Y-6953775D01*
X67257148Y-7046158D01*
X67413842Y-7202852D01*
X67413844Y-7202855D01*
X67536962Y-7387113D01*
X67621767Y-7591850D01*
X67624220Y-7604183D01*
X67665000Y-7809196D01*
X67665000Y-8030804D01*
X67661479Y-8048503D01*
X67621767Y-8248150D01*
X67536962Y-8452887D01*
X67536961Y-8452888D01*
X67413842Y-8637148D01*
X67257148Y-8793842D01*
X67257145Y-8793844D01*
X67072887Y-8916962D01*
X66868150Y-9001767D01*
X66705140Y-9034192D01*
X66650804Y-9045000D01*
X66429196Y-9045000D01*
X66374860Y-9034192D01*
X66211850Y-9001767D01*
X66007113Y-8916962D01*
X65822855Y-8793844D01*
X65822852Y-8793842D01*
X65666158Y-8637148D01*
X65543039Y-8452888D01*
X65543038Y-8452887D01*
X65458233Y-8248150D01*
X65418521Y-8048503D01*
X65415000Y-8030804D01*
X65415000Y-7809196D01*
X65455780Y-7604183D01*
X65458233Y-7591850D01*
X65543038Y-7387113D01*
X65666156Y-7202855D01*
X65666158Y-7202852D01*
X65822852Y-7046158D01*
X65961112Y-6953775D01*
X66007113Y-6923038D01*
X66211850Y-6838233D01*
X66404060Y-6800000D01*
X66429196Y-6795000D01*
X66650804Y-6795000D01*
X66675940Y-6800000D01*
X66675940Y-6800000D01*
G37*
G36*
X57660903Y-6791789D02*
X57861391Y-6852607D01*
X58046164Y-6951369D01*
X58208118Y-7084282D01*
X58341031Y-7246236D01*
X58439793Y-7431009D01*
X58500611Y-7631497D01*
X58521146Y-7840000D01*
X58500611Y-8048503D01*
X58439793Y-8248991D01*
X58341031Y-8433764D01*
X58208118Y-8595718D01*
X58046164Y-8728631D01*
X57861391Y-8827393D01*
X57660903Y-8888211D01*
X57504651Y-8903600D01*
X57095349Y-8903600D01*
X56939097Y-8888211D01*
X56738609Y-8827393D01*
X56553836Y-8728631D01*
X56391882Y-8595718D01*
X56258969Y-8433764D01*
X56160207Y-8248991D01*
X56099389Y-8048503D01*
X56078854Y-7840000D01*
X56099389Y-7631497D01*
X56160207Y-7431009D01*
X56258969Y-7246236D01*
X56391882Y-7084282D01*
X56553836Y-6951369D01*
X56738609Y-6852607D01*
X56939097Y-6791789D01*
X57095349Y-6776400D01*
X57504651Y-6776400D01*
X57660903Y-6791789D01*
X57660903Y-6791789D01*
G37*
G36*
X10325000Y-8300000D02*
X8675000Y-8300000D01*
X8675000Y-6700000D01*
X10325000Y-6700000D01*
X10325000Y-8300000D01*
X10325000Y-8300000D01*
G37*
G36*
X39225000Y-8300000D02*
X37575000Y-8300000D01*
X37575000Y-6700000D01*
X39225000Y-6700000D01*
X39225000Y-8300000D01*
X39225000Y-8300000D01*
G37*
G36*
X35625000Y-8300000D02*
X33975000Y-8300000D01*
X33975000Y-6700000D01*
X35625000Y-6700000D01*
X35625000Y-8300000D01*
X35625000Y-8300000D01*
G37*
G36*
X17725000Y-8300000D02*
X16075000Y-8300000D01*
X16075000Y-6700000D01*
X17725000Y-6700000D01*
X17725000Y-8300000D01*
X17725000Y-8300000D01*
G37*
G36*
X28525000Y-8300000D02*
X26875000Y-8300000D01*
X26875000Y-6700000D01*
X28525000Y-6700000D01*
X28525000Y-8300000D01*
X28525000Y-8300000D01*
G37*
G36*
X23725000Y-8300000D02*
X22075000Y-8300000D01*
X22075000Y-6700000D01*
X23725000Y-6700000D01*
X23725000Y-8300000D01*
X23725000Y-8300000D01*
G37*
G36*
X50800000Y-8225000D02*
X49200000Y-8225000D01*
X49200000Y-6575000D01*
X50800000Y-6575000D01*
X50800000Y-8225000D01*
X50800000Y-8225000D01*
G37*
G36*
X48600000Y-8225000D02*
X47000000Y-8225000D01*
X47000000Y-6575000D01*
X48600000Y-6575000D01*
X48600000Y-8225000D01*
X48600000Y-8225000D01*
G37*
G36*
X29904183Y-6826900D02*
X30031574Y-6879668D01*
X30146224Y-6956274D01*
X30243726Y-7053776D01*
X30264109Y-7084282D01*
X30320332Y-7168426D01*
X30373100Y-7295817D01*
X30400000Y-7431055D01*
X30400000Y-7568945D01*
X30373100Y-7704183D01*
X30329601Y-7809196D01*
X30320332Y-7831574D01*
X30243726Y-7946224D01*
X30146224Y-8043726D01*
X30102264Y-8073099D01*
X30031574Y-8120332D01*
X29904183Y-8173100D01*
X29768945Y-8200000D01*
X29631055Y-8200000D01*
X29495817Y-8173100D01*
X29368426Y-8120332D01*
X29297736Y-8073099D01*
X29253776Y-8043726D01*
X29156274Y-7946224D01*
X29079668Y-7831574D01*
X29070399Y-7809196D01*
X29026900Y-7704183D01*
X29000000Y-7568945D01*
X29000000Y-7431055D01*
X29026900Y-7295817D01*
X29079668Y-7168426D01*
X29135891Y-7084282D01*
X29156274Y-7053776D01*
X29253776Y-6956274D01*
X29368426Y-6879668D01*
X29495817Y-6826900D01*
X29631055Y-6800000D01*
X29768945Y-6800000D01*
X29904183Y-6826900D01*
X29904183Y-6826900D01*
G37*
G36*
X40604183Y-6826900D02*
X40731574Y-6879668D01*
X40846224Y-6956274D01*
X40943726Y-7053776D01*
X40964109Y-7084282D01*
X41020332Y-7168426D01*
X41073100Y-7295817D01*
X41100000Y-7431055D01*
X41100000Y-7568945D01*
X41073100Y-7704183D01*
X41029601Y-7809196D01*
X41020332Y-7831574D01*
X40943726Y-7946224D01*
X40846224Y-8043726D01*
X40802264Y-8073099D01*
X40731574Y-8120332D01*
X40604183Y-8173100D01*
X40468945Y-8200000D01*
X40331055Y-8200000D01*
X40195817Y-8173100D01*
X40068426Y-8120332D01*
X39997736Y-8073099D01*
X39953776Y-8043726D01*
X39856274Y-7946224D01*
X39779668Y-7831574D01*
X39770399Y-7809196D01*
X39726900Y-7704183D01*
X39700000Y-7568945D01*
X39700000Y-7431055D01*
X39726900Y-7295817D01*
X39779668Y-7168426D01*
X39835891Y-7084282D01*
X39856274Y-7053776D01*
X39953776Y-6956274D01*
X40068426Y-6879668D01*
X40195817Y-6826900D01*
X40331055Y-6800000D01*
X40468945Y-6800000D01*
X40604183Y-6826900D01*
X40604183Y-6826900D01*
G37*
G36*
X19104183Y-6826900D02*
X19231574Y-6879668D01*
X19346224Y-6956274D01*
X19443726Y-7053776D01*
X19464109Y-7084282D01*
X19520332Y-7168426D01*
X19573100Y-7295817D01*
X19600000Y-7431055D01*
X19600000Y-7568945D01*
X19573100Y-7704183D01*
X19529601Y-7809196D01*
X19520332Y-7831574D01*
X19443726Y-7946224D01*
X19346224Y-8043726D01*
X19302264Y-8073099D01*
X19231574Y-8120332D01*
X19104183Y-8173100D01*
X18968945Y-8200000D01*
X18831055Y-8200000D01*
X18695817Y-8173100D01*
X18568426Y-8120332D01*
X18497736Y-8073099D01*
X18453776Y-8043726D01*
X18356274Y-7946224D01*
X18279668Y-7831574D01*
X18270399Y-7809196D01*
X18226900Y-7704183D01*
X18200000Y-7568945D01*
X18200000Y-7431055D01*
X18226900Y-7295817D01*
X18279668Y-7168426D01*
X18335891Y-7084282D01*
X18356274Y-7053776D01*
X18453776Y-6956274D01*
X18568426Y-6879668D01*
X18695817Y-6826900D01*
X18831055Y-6800000D01*
X18968945Y-6800000D01*
X19104183Y-6826900D01*
X19104183Y-6826900D01*
G37*
G36*
X69204183Y-6726900D02*
X69323684Y-6776400D01*
X69331574Y-6779668D01*
X69446224Y-6856274D01*
X69543726Y-6953776D01*
X69603827Y-7043725D01*
X69620332Y-7068426D01*
X69673100Y-7195817D01*
X69700000Y-7331055D01*
X69700000Y-7468945D01*
X69673100Y-7604183D01*
X69631678Y-7704182D01*
X69620332Y-7731574D01*
X69543726Y-7846224D01*
X69446224Y-7943726D01*
X69331574Y-8020332D01*
X69204183Y-8073100D01*
X69068945Y-8100000D01*
X68931055Y-8100000D01*
X68795817Y-8073100D01*
X68668426Y-8020332D01*
X68553776Y-7943726D01*
X68456274Y-7846224D01*
X68379668Y-7731574D01*
X68368322Y-7704182D01*
X68326900Y-7604183D01*
X68300000Y-7468945D01*
X68300000Y-7331055D01*
X68326900Y-7195817D01*
X68379668Y-7068426D01*
X68396173Y-7043725D01*
X68456274Y-6953776D01*
X68553776Y-6856274D01*
X68668426Y-6779668D01*
X68676316Y-6776400D01*
X68795817Y-6726900D01*
X68931055Y-6700000D01*
X69068945Y-6700000D01*
X69204183Y-6726900D01*
X69204183Y-6726900D01*
G37*
G36*
X71504183Y-5826900D02*
X71631574Y-5879668D01*
X71746224Y-5956274D01*
X71843726Y-6053776D01*
X71901316Y-6139967D01*
X71920332Y-6168426D01*
X71973100Y-6295817D01*
X72000000Y-6431055D01*
X72000000Y-6568945D01*
X71973100Y-6704183D01*
X71922268Y-6826900D01*
X71920332Y-6831574D01*
X71843726Y-6946224D01*
X71746224Y-7043726D01*
X71685527Y-7084282D01*
X71631574Y-7120332D01*
X71504183Y-7173100D01*
X71368945Y-7200000D01*
X71231055Y-7200000D01*
X71095817Y-7173100D01*
X70968426Y-7120332D01*
X70914473Y-7084282D01*
X70853776Y-7043726D01*
X70756274Y-6946224D01*
X70679668Y-6831574D01*
X70677732Y-6826900D01*
X70626900Y-6704183D01*
X70600000Y-6568945D01*
X70600000Y-6431055D01*
X70626900Y-6295817D01*
X70679668Y-6168426D01*
X70698684Y-6139967D01*
X70756274Y-6053776D01*
X70853776Y-5956274D01*
X70968426Y-5879668D01*
X71095817Y-5826900D01*
X71231055Y-5800000D01*
X71368945Y-5800000D01*
X71504183Y-5826900D01*
X71504183Y-5826900D01*
G37*
G36*
X58516000Y-6363600D02*
X56084000Y-6363600D01*
X56084000Y-4236400D01*
X58516000Y-4236400D01*
X58516000Y-6363600D01*
X58516000Y-6363600D01*
G37*
G36*
X62600000Y-3300000D02*
X62174834Y-3300000D01*
X62150448Y-3302402D01*
X62126999Y-3309515D01*
X62105388Y-3321066D01*
X62086446Y-3336612D01*
X62070900Y-3355554D01*
X62059349Y-3377165D01*
X62052236Y-3400614D01*
X62049834Y-3425000D01*
X62052236Y-3449386D01*
X62059349Y-3472835D01*
X62070900Y-3494445D01*
X62080846Y-3509331D01*
X62120333Y-3568426D01*
X62173100Y-3695817D01*
X62200000Y-3831055D01*
X62200000Y-3968945D01*
X62173100Y-4104183D01*
X62120332Y-4231574D01*
X62049997Y-4336839D01*
X62043725Y-4346225D01*
X61946225Y-4443725D01*
X61942720Y-4446067D01*
X61923778Y-4461613D01*
X61908233Y-4480555D01*
X61896682Y-4502166D01*
X61889569Y-4525615D01*
X61887167Y-4550001D01*
X61889569Y-4574388D01*
X61896683Y-4597837D01*
X61908234Y-4619447D01*
X61923780Y-4638389D01*
X61942722Y-4653934D01*
X61964333Y-4665485D01*
X61987782Y-4672598D01*
X62012167Y-4675000D01*
X62300000Y-4675000D01*
X62300000Y-6325000D01*
X60700000Y-6325000D01*
X60700000Y-4675000D01*
X60987833Y-4675000D01*
X61012219Y-4672598D01*
X61035668Y-4665485D01*
X61057279Y-4653934D01*
X61076221Y-4638388D01*
X61091767Y-4619446D01*
X61103318Y-4597835D01*
X61110431Y-4574386D01*
X61112833Y-4550000D01*
X61110431Y-4525614D01*
X61103318Y-4502165D01*
X61091767Y-4480554D01*
X61076221Y-4461612D01*
X61057280Y-4446067D01*
X61053775Y-4443725D01*
X60956275Y-4346225D01*
X60950004Y-4336839D01*
X60879668Y-4231574D01*
X60826900Y-4104183D01*
X60800000Y-3968945D01*
X60800000Y-3831055D01*
X60826900Y-3695817D01*
X60879667Y-3568426D01*
X60919154Y-3509331D01*
X60929100Y-3494445D01*
X60940651Y-3472836D01*
X60947764Y-3449387D01*
X60950166Y-3425001D01*
X60947764Y-3400614D01*
X60940651Y-3377165D01*
X60929100Y-3355554D01*
X60913555Y-3336612D01*
X60894613Y-3321067D01*
X60873002Y-3309515D01*
X60849553Y-3302402D01*
X60825166Y-3300000D01*
X60600000Y-3300000D01*
X60600000Y-1100000D01*
X62600000Y-1100000D01*
X62600000Y-3300000D01*
X62600000Y-3300000D01*
G37*
G36*
X64500000Y-6325000D02*
X62900000Y-6325000D01*
X62900000Y-4675000D01*
X64500000Y-4675000D01*
X64500000Y-6325000D01*
X64500000Y-6325000D01*
G37*
G36*
X21043558Y-4597088D02*
X21195522Y-4660033D01*
X21332284Y-4751415D01*
X21448585Y-4867716D01*
X21539967Y-5004478D01*
X21602912Y-5156442D01*
X21635000Y-5317758D01*
X21635000Y-5482242D01*
X21602912Y-5643558D01*
X21539967Y-5795522D01*
X21448585Y-5932284D01*
X21332284Y-6048585D01*
X21195522Y-6139967D01*
X21043558Y-6202912D01*
X20882242Y-6235000D01*
X20717758Y-6235000D01*
X20556442Y-6202912D01*
X20404478Y-6139967D01*
X20267716Y-6048585D01*
X20151415Y-5932284D01*
X20060033Y-5795522D01*
X19997088Y-5643558D01*
X19965000Y-5482242D01*
X19965000Y-5317758D01*
X19997088Y-5156442D01*
X20060033Y-5004478D01*
X20151415Y-4867716D01*
X20267716Y-4751415D01*
X20404478Y-4660033D01*
X20556442Y-4597088D01*
X20717758Y-4565000D01*
X20882242Y-4565000D01*
X21043558Y-4597088D01*
X21043558Y-4597088D01*
G37*
G36*
X39225000Y-6100000D02*
X37575000Y-6100000D01*
X37575000Y-4500000D01*
X39225000Y-4500000D01*
X39225000Y-6100000D01*
X39225000Y-6100000D01*
G37*
G36*
X10325000Y-6100000D02*
X8675000Y-6100000D01*
X8675000Y-4500000D01*
X10325000Y-4500000D01*
X10325000Y-6100000D01*
X10325000Y-6100000D01*
G37*
G36*
X28525000Y-6100000D02*
X26875000Y-6100000D01*
X26875000Y-4500000D01*
X28525000Y-4500000D01*
X28525000Y-6100000D01*
X28525000Y-6100000D01*
G37*
G36*
X35625000Y-6100000D02*
X33975000Y-6100000D01*
X33975000Y-4500000D01*
X35625000Y-4500000D01*
X35625000Y-6100000D01*
X35625000Y-6100000D01*
G37*
G36*
X23725000Y-6100000D02*
X22075000Y-6100000D01*
X22075000Y-4500000D01*
X23725000Y-4500000D01*
X23725000Y-6100000D01*
X23725000Y-6100000D01*
G37*
G36*
X17725000Y-6100000D02*
X16075000Y-6100000D01*
X16075000Y-4500000D01*
X17725000Y-4500000D01*
X17725000Y-6100000D01*
X17725000Y-6100000D01*
G37*
G36*
X40904183Y-4326900D02*
X41004098Y-4368287D01*
X41031574Y-4379668D01*
X41146224Y-4456274D01*
X41243726Y-4553776D01*
X41295801Y-4631713D01*
X41320332Y-4668426D01*
X41373100Y-4795817D01*
X41400000Y-4931055D01*
X41400000Y-5068945D01*
X41373100Y-5204183D01*
X41320332Y-5331574D01*
X41243725Y-5446225D01*
X41146225Y-5543725D01*
X41031574Y-5620332D01*
X40904183Y-5673100D01*
X40768945Y-5700000D01*
X40631055Y-5700000D01*
X40495817Y-5673100D01*
X40368426Y-5620332D01*
X40253775Y-5543725D01*
X40156275Y-5446225D01*
X40079668Y-5331574D01*
X40026900Y-5204183D01*
X40000000Y-5068945D01*
X40000000Y-4931055D01*
X40026900Y-4795817D01*
X40079668Y-4668426D01*
X40104199Y-4631713D01*
X40156274Y-4553776D01*
X40253776Y-4456274D01*
X40368426Y-4379668D01*
X40395902Y-4368287D01*
X40495817Y-4326900D01*
X40631055Y-4300000D01*
X40768945Y-4300000D01*
X40904183Y-4326900D01*
X40904183Y-4326900D01*
G37*
G36*
X45204183Y-4326900D02*
X45304098Y-4368287D01*
X45331574Y-4379668D01*
X45446224Y-4456274D01*
X45543726Y-4553776D01*
X45595801Y-4631713D01*
X45620332Y-4668426D01*
X45673100Y-4795817D01*
X45700000Y-4931055D01*
X45700000Y-5068945D01*
X45673100Y-5204183D01*
X45620332Y-5331574D01*
X45543725Y-5446225D01*
X45446225Y-5543725D01*
X45331574Y-5620332D01*
X45204183Y-5673100D01*
X45068945Y-5700000D01*
X44931055Y-5700000D01*
X44795817Y-5673100D01*
X44668426Y-5620332D01*
X44553775Y-5543725D01*
X44456275Y-5446225D01*
X44379668Y-5331574D01*
X44326900Y-5204183D01*
X44300000Y-5068945D01*
X44300000Y-4931055D01*
X44326900Y-4795817D01*
X44379668Y-4668426D01*
X44404199Y-4631713D01*
X44456274Y-4553776D01*
X44553776Y-4456274D01*
X44668426Y-4379668D01*
X44695902Y-4368287D01*
X44795817Y-4326900D01*
X44931055Y-4300000D01*
X45068945Y-4300000D01*
X45204183Y-4326900D01*
X45204183Y-4326900D01*
G37*
G36*
X43004183Y-4326900D02*
X43104098Y-4368287D01*
X43131574Y-4379668D01*
X43246224Y-4456274D01*
X43343726Y-4553776D01*
X43395801Y-4631713D01*
X43420332Y-4668426D01*
X43473100Y-4795817D01*
X43500000Y-4931055D01*
X43500000Y-5068945D01*
X43473100Y-5204183D01*
X43420332Y-5331574D01*
X43343725Y-5446225D01*
X43246225Y-5543725D01*
X43131574Y-5620332D01*
X43004183Y-5673100D01*
X42868945Y-5700000D01*
X42731055Y-5700000D01*
X42595817Y-5673100D01*
X42468426Y-5620332D01*
X42353775Y-5543725D01*
X42256275Y-5446225D01*
X42179668Y-5331574D01*
X42126900Y-5204183D01*
X42100000Y-5068945D01*
X42100000Y-4931055D01*
X42126900Y-4795817D01*
X42179668Y-4668426D01*
X42204199Y-4631713D01*
X42256274Y-4553776D01*
X42353776Y-4456274D01*
X42468426Y-4379668D01*
X42495902Y-4368287D01*
X42595817Y-4326900D01*
X42731055Y-4300000D01*
X42868945Y-4300000D01*
X43004183Y-4326900D01*
X43004183Y-4326900D01*
G37*
G36*
X53975012Y-4323057D02*
X54084207Y-4368287D01*
X54182481Y-4433952D01*
X54266048Y-4517519D01*
X54331713Y-4615793D01*
X54376943Y-4724988D01*
X54400000Y-4840904D01*
X54400000Y-4959096D01*
X54376943Y-5075012D01*
X54331713Y-5184207D01*
X54266048Y-5282481D01*
X54182481Y-5366048D01*
X54084207Y-5431713D01*
X53975012Y-5476943D01*
X53859096Y-5500000D01*
X53740904Y-5500000D01*
X53624988Y-5476943D01*
X53515793Y-5431713D01*
X53417519Y-5366048D01*
X53333952Y-5282481D01*
X53268287Y-5184207D01*
X53223057Y-5075012D01*
X53200000Y-4959096D01*
X53200000Y-4840904D01*
X53223057Y-4724988D01*
X53268287Y-4615793D01*
X53333952Y-4517519D01*
X53417519Y-4433952D01*
X53515793Y-4368287D01*
X53624988Y-4323057D01*
X53740904Y-4300000D01*
X53859096Y-4300000D01*
X53975012Y-4323057D01*
X53975012Y-4323057D01*
G37*
G36*
X12900000Y-5025000D02*
X11300000Y-5025000D01*
X11300000Y-3375000D01*
X12900000Y-3375000D01*
X12900000Y-5025000D01*
X12900000Y-5025000D01*
G37*
G36*
X15375012Y-2823057D02*
X15484207Y-2868287D01*
X15582481Y-2933952D01*
X15666048Y-3017519D01*
X15731713Y-3115793D01*
X15776943Y-3224988D01*
X15800000Y-3340904D01*
X15800000Y-3459096D01*
X15776943Y-3575012D01*
X15731713Y-3684207D01*
X15666048Y-3782481D01*
X15582481Y-3866048D01*
X15484207Y-3931713D01*
X15375012Y-3976943D01*
X15259096Y-4000000D01*
X15225000Y-4000000D01*
X15200614Y-4002402D01*
X15177165Y-4009515D01*
X15155554Y-4021066D01*
X15136612Y-4036612D01*
X15121066Y-4055554D01*
X15109515Y-4077165D01*
X15102402Y-4100614D01*
X15100000Y-4125000D01*
X15100000Y-5025000D01*
X13500000Y-5025000D01*
X13500000Y-3375000D01*
X14490633Y-3375000D01*
X14515019Y-3372598D01*
X14538468Y-3365485D01*
X14560079Y-3353934D01*
X14579021Y-3338388D01*
X14594567Y-3319446D01*
X14606118Y-3297835D01*
X14613231Y-3274386D01*
X14623057Y-3224989D01*
X14633408Y-3200000D01*
X14668287Y-3115793D01*
X14733950Y-3017522D01*
X14733952Y-3017519D01*
X14817519Y-2933952D01*
X14915793Y-2868287D01*
X15024988Y-2823057D01*
X15140904Y-2800000D01*
X15259096Y-2800000D01*
X15375012Y-2823057D01*
X15375012Y-2823057D01*
G37*
G36*
X25475012Y-3523057D02*
X25584207Y-3568287D01*
X25682481Y-3633952D01*
X25766048Y-3717519D01*
X25831713Y-3815793D01*
X25876943Y-3924988D01*
X25900000Y-4040904D01*
X25900000Y-4159096D01*
X25876943Y-4275012D01*
X25831713Y-4384207D01*
X25766048Y-4482481D01*
X25682481Y-4566048D01*
X25584207Y-4631713D01*
X25475012Y-4676943D01*
X25359096Y-4700000D01*
X25240904Y-4700000D01*
X25124988Y-4676943D01*
X25015793Y-4631713D01*
X24917519Y-4566048D01*
X24833952Y-4482481D01*
X24768287Y-4384207D01*
X24723057Y-4275012D01*
X24700000Y-4159096D01*
X24700000Y-4040904D01*
X24723057Y-3924988D01*
X24768287Y-3815793D01*
X24833952Y-3717519D01*
X24917519Y-3633952D01*
X25015793Y-3568287D01*
X25124988Y-3523057D01*
X25240904Y-3500000D01*
X25359096Y-3500000D01*
X25475012Y-3523057D01*
X25475012Y-3523057D01*
G37*
G36*
X36645845Y-3619215D02*
X36681419Y-3633950D01*
X36736839Y-3656906D01*
X36777697Y-3684207D01*
X36818734Y-3711627D01*
X36888373Y-3781266D01*
X36888375Y-3781269D01*
X36943094Y-3863161D01*
X36980785Y-3954155D01*
X36994095Y-4021066D01*
X37000000Y-4050755D01*
X37000000Y-4149245D01*
X36980785Y-4245845D01*
X36943095Y-4336837D01*
X36888373Y-4418734D01*
X36818734Y-4488373D01*
X36818731Y-4488375D01*
X36736839Y-4543094D01*
X36736838Y-4543095D01*
X36736837Y-4543095D01*
X36664401Y-4573099D01*
X36645845Y-4580785D01*
X36549246Y-4600000D01*
X36450754Y-4600000D01*
X36354155Y-4580785D01*
X36335599Y-4573099D01*
X36263163Y-4543095D01*
X36263162Y-4543095D01*
X36263161Y-4543094D01*
X36181269Y-4488375D01*
X36181266Y-4488373D01*
X36111627Y-4418734D01*
X36056905Y-4336837D01*
X36019215Y-4245845D01*
X36000000Y-4149245D01*
X36000000Y-4050755D01*
X36005906Y-4021066D01*
X36019215Y-3954155D01*
X36056906Y-3863161D01*
X36111625Y-3781269D01*
X36111627Y-3781266D01*
X36181266Y-3711627D01*
X36222303Y-3684207D01*
X36263161Y-3656906D01*
X36318582Y-3633950D01*
X36354155Y-3619215D01*
X36450754Y-3600000D01*
X36549246Y-3600000D01*
X36645845Y-3619215D01*
X36645845Y-3619215D01*
G37*
G36*
X46375012Y-2823057D02*
X46484207Y-2868287D01*
X46582481Y-2933952D01*
X46666048Y-3017519D01*
X46731713Y-3115793D01*
X46776943Y-3224988D01*
X46800000Y-3340904D01*
X46800000Y-3459096D01*
X46776943Y-3575012D01*
X46731713Y-3684207D01*
X46666048Y-3782481D01*
X46582481Y-3866048D01*
X46484207Y-3931713D01*
X46375012Y-3976943D01*
X46259096Y-4000000D01*
X46140904Y-4000000D01*
X46024988Y-3976943D01*
X45915793Y-3931713D01*
X45817519Y-3866048D01*
X45733952Y-3782481D01*
X45668287Y-3684207D01*
X45623057Y-3575012D01*
X45600000Y-3459096D01*
X45600000Y-3340904D01*
X45623057Y-3224988D01*
X45668287Y-3115793D01*
X45733952Y-3017519D01*
X45817519Y-2933952D01*
X45915793Y-2868287D01*
X46024988Y-2823057D01*
X46140904Y-2800000D01*
X46259096Y-2800000D01*
X46375012Y-2823057D01*
X46375012Y-2823057D01*
G37*
G36*
X48575012Y-2823057D02*
X48684207Y-2868287D01*
X48782481Y-2933952D01*
X48866048Y-3017519D01*
X48931713Y-3115793D01*
X48976943Y-3224988D01*
X49000000Y-3340904D01*
X49000000Y-3459096D01*
X48976943Y-3575012D01*
X48931713Y-3684207D01*
X48866048Y-3782481D01*
X48782481Y-3866048D01*
X48684207Y-3931713D01*
X48575012Y-3976943D01*
X48459096Y-4000000D01*
X48340904Y-4000000D01*
X48224988Y-3976943D01*
X48115793Y-3931713D01*
X48017519Y-3866048D01*
X47933952Y-3782481D01*
X47868287Y-3684207D01*
X47823057Y-3575012D01*
X47800000Y-3459096D01*
X47800000Y-3340904D01*
X47823057Y-3224988D01*
X47868287Y-3115793D01*
X47933952Y-3017519D01*
X48017519Y-2933952D01*
X48115793Y-2868287D01*
X48224988Y-2823057D01*
X48340904Y-2800000D01*
X48459096Y-2800000D01*
X48575012Y-2823057D01*
X48575012Y-2823057D01*
G37*
G36*
X65400000Y-3300000D02*
X63400000Y-3300000D01*
X63400000Y-1100000D01*
X65400000Y-1100000D01*
X65400000Y-3300000D01*
X65400000Y-3300000D01*
G37*
G36*
X68638000Y-2184000D02*
X66538000Y-2184000D01*
X66538000Y-84000D01*
X68638000Y-84000D01*
X68638000Y-2184000D01*
X68638000Y-2184000D01*
G37*
G36*
X57556707Y-91597D02*
X57633836Y-99193D01*
X57765787Y-139220D01*
X57831763Y-159233D01*
X58014172Y-256733D01*
X58174054Y-387946D01*
X58305267Y-547828D01*
X58402767Y-730237D01*
X58402767Y-730238D01*
X58462807Y-928164D01*
X58483080Y-1134000D01*
X58462807Y-1339836D01*
X58422780Y-1471787D01*
X58402767Y-1537763D01*
X58305267Y-1720172D01*
X58174054Y-1880054D01*
X58014172Y-2011267D01*
X57831763Y-2108767D01*
X57765787Y-2128780D01*
X57633836Y-2168807D01*
X57556707Y-2176404D01*
X57479580Y-2184000D01*
X57376420Y-2184000D01*
X57299293Y-2176404D01*
X57222164Y-2168807D01*
X57090213Y-2128780D01*
X57024237Y-2108767D01*
X56841828Y-2011267D01*
X56681946Y-1880054D01*
X56550733Y-1720172D01*
X56453233Y-1537763D01*
X56433220Y-1471787D01*
X56393193Y-1339836D01*
X56372920Y-1134000D01*
X56393193Y-928164D01*
X56453233Y-730238D01*
X56453233Y-730237D01*
X56550733Y-547828D01*
X56681946Y-387946D01*
X56841828Y-256733D01*
X57024237Y-159233D01*
X57090213Y-139220D01*
X57222164Y-99193D01*
X57299293Y-91597D01*
X57376420Y-84000D01*
X57479580Y-84000D01*
X57556707Y-91597D01*
X57556707Y-91597D01*
G37*
G36*
X55016707Y-91597D02*
X55093836Y-99193D01*
X55225787Y-139220D01*
X55291763Y-159233D01*
X55474172Y-256733D01*
X55634054Y-387946D01*
X55765267Y-547828D01*
X55862767Y-730237D01*
X55862767Y-730238D01*
X55922807Y-928164D01*
X55943080Y-1134000D01*
X55922807Y-1339836D01*
X55882780Y-1471787D01*
X55862767Y-1537763D01*
X55765267Y-1720172D01*
X55634054Y-1880054D01*
X55474172Y-2011267D01*
X55291763Y-2108767D01*
X55225787Y-2128780D01*
X55093836Y-2168807D01*
X55016707Y-2176404D01*
X54939580Y-2184000D01*
X54836420Y-2184000D01*
X54759293Y-2176404D01*
X54682164Y-2168807D01*
X54550213Y-2128780D01*
X54484237Y-2108767D01*
X54301828Y-2011267D01*
X54141946Y-1880054D01*
X54010733Y-1720172D01*
X53913233Y-1537763D01*
X53893220Y-1471787D01*
X53853193Y-1339836D01*
X53832920Y-1134000D01*
X53853193Y-928164D01*
X53913233Y-730238D01*
X53913233Y-730237D01*
X54010733Y-547828D01*
X54141946Y-387946D01*
X54301828Y-256733D01*
X54484237Y-159233D01*
X54550213Y-139220D01*
X54682164Y-99193D01*
X54759293Y-91597D01*
X54836420Y-84000D01*
X54939580Y-84000D01*
X55016707Y-91597D01*
X55016707Y-91597D01*
G37*
G36*
X52476707Y-91597D02*
X52553836Y-99193D01*
X52685787Y-139220D01*
X52751763Y-159233D01*
X52934172Y-256733D01*
X53094054Y-387946D01*
X53225267Y-547828D01*
X53322767Y-730237D01*
X53322767Y-730238D01*
X53382807Y-928164D01*
X53403080Y-1134000D01*
X53382807Y-1339836D01*
X53342780Y-1471787D01*
X53322767Y-1537763D01*
X53225267Y-1720172D01*
X53094054Y-1880054D01*
X52934172Y-2011267D01*
X52751763Y-2108767D01*
X52685787Y-2128780D01*
X52553836Y-2168807D01*
X52476707Y-2176404D01*
X52399580Y-2184000D01*
X52296420Y-2184000D01*
X52219293Y-2176404D01*
X52142164Y-2168807D01*
X52010213Y-2128780D01*
X51944237Y-2108767D01*
X51761828Y-2011267D01*
X51601946Y-1880054D01*
X51470733Y-1720172D01*
X51373233Y-1537763D01*
X51353220Y-1471787D01*
X51313193Y-1339836D01*
X51292920Y-1134000D01*
X51313193Y-928164D01*
X51373233Y-730238D01*
X51373233Y-730237D01*
X51470733Y-547828D01*
X51601946Y-387946D01*
X51761828Y-256733D01*
X51944237Y-159233D01*
X52010213Y-139220D01*
X52142164Y-99193D01*
X52219293Y-91597D01*
X52296420Y-84000D01*
X52399580Y-84000D01*
X52476707Y-91597D01*
X52476707Y-91597D01*
G37*
G36*
X47396707Y-91597D02*
X47473836Y-99193D01*
X47605787Y-139220D01*
X47671763Y-159233D01*
X47854172Y-256733D01*
X48014054Y-387946D01*
X48145267Y-547828D01*
X48242767Y-730237D01*
X48242767Y-730238D01*
X48302807Y-928164D01*
X48323080Y-1134000D01*
X48302807Y-1339836D01*
X48262780Y-1471787D01*
X48242767Y-1537763D01*
X48145267Y-1720172D01*
X48014054Y-1880054D01*
X47854172Y-2011267D01*
X47671763Y-2108767D01*
X47605787Y-2128780D01*
X47473836Y-2168807D01*
X47396707Y-2176404D01*
X47319580Y-2184000D01*
X47216420Y-2184000D01*
X47139293Y-2176404D01*
X47062164Y-2168807D01*
X46930213Y-2128780D01*
X46864237Y-2108767D01*
X46681828Y-2011267D01*
X46521946Y-1880054D01*
X46390733Y-1720172D01*
X46293233Y-1537763D01*
X46273220Y-1471787D01*
X46233193Y-1339836D01*
X46212920Y-1134000D01*
X46233193Y-928164D01*
X46293233Y-730238D01*
X46293233Y-730237D01*
X46390733Y-547828D01*
X46521946Y-387946D01*
X46681828Y-256733D01*
X46864237Y-159233D01*
X46930213Y-139220D01*
X47062164Y-99193D01*
X47139293Y-91597D01*
X47216420Y-84000D01*
X47319580Y-84000D01*
X47396707Y-91597D01*
X47396707Y-91597D01*
G37*
G36*
X49936707Y-91597D02*
X50013836Y-99193D01*
X50145787Y-139220D01*
X50211763Y-159233D01*
X50394172Y-256733D01*
X50554054Y-387946D01*
X50685267Y-547828D01*
X50782767Y-730237D01*
X50782767Y-730238D01*
X50842807Y-928164D01*
X50863080Y-1134000D01*
X50842807Y-1339836D01*
X50802780Y-1471787D01*
X50782767Y-1537763D01*
X50685267Y-1720172D01*
X50554054Y-1880054D01*
X50394172Y-2011267D01*
X50211763Y-2108767D01*
X50145787Y-2128780D01*
X50013836Y-2168807D01*
X49936707Y-2176404D01*
X49859580Y-2184000D01*
X49756420Y-2184000D01*
X49679293Y-2176404D01*
X49602164Y-2168807D01*
X49470213Y-2128780D01*
X49404237Y-2108767D01*
X49221828Y-2011267D01*
X49061946Y-1880054D01*
X48930733Y-1720172D01*
X48833233Y-1537763D01*
X48813220Y-1471787D01*
X48773193Y-1339836D01*
X48752920Y-1134000D01*
X48773193Y-928164D01*
X48833233Y-730238D01*
X48833233Y-730237D01*
X48930733Y-547828D01*
X49061946Y-387946D01*
X49221828Y-256733D01*
X49404237Y-159233D01*
X49470213Y-139220D01*
X49602164Y-99193D01*
X49679293Y-91597D01*
X49756420Y-84000D01*
X49859580Y-84000D01*
X49936707Y-91597D01*
X49936707Y-91597D01*
G37*
G36*
X32156707Y-91597D02*
X32233836Y-99193D01*
X32365787Y-139220D01*
X32431763Y-159233D01*
X32614172Y-256733D01*
X32774054Y-387946D01*
X32905267Y-547828D01*
X33002767Y-730237D01*
X33002767Y-730238D01*
X33062807Y-928164D01*
X33083080Y-1134000D01*
X33062807Y-1339836D01*
X33022780Y-1471787D01*
X33002767Y-1537763D01*
X32905267Y-1720172D01*
X32774054Y-1880054D01*
X32614172Y-2011267D01*
X32431763Y-2108767D01*
X32365787Y-2128780D01*
X32233836Y-2168807D01*
X32156707Y-2176404D01*
X32079580Y-2184000D01*
X31976420Y-2184000D01*
X31899293Y-2176404D01*
X31822164Y-2168807D01*
X31690213Y-2128780D01*
X31624237Y-2108767D01*
X31441828Y-2011267D01*
X31281946Y-1880054D01*
X31150733Y-1720172D01*
X31053233Y-1537763D01*
X31033220Y-1471787D01*
X30993193Y-1339836D01*
X30972920Y-1134000D01*
X30993193Y-928164D01*
X31053233Y-730238D01*
X31053233Y-730237D01*
X31150733Y-547828D01*
X31281946Y-387946D01*
X31441828Y-256733D01*
X31624237Y-159233D01*
X31690213Y-139220D01*
X31822164Y-99193D01*
X31899293Y-91597D01*
X31976420Y-84000D01*
X32079580Y-84000D01*
X32156707Y-91597D01*
X32156707Y-91597D01*
G37*
G36*
X29616707Y-91597D02*
X29693836Y-99193D01*
X29825787Y-139220D01*
X29891763Y-159233D01*
X30074172Y-256733D01*
X30234054Y-387946D01*
X30365267Y-547828D01*
X30462767Y-730237D01*
X30462767Y-730238D01*
X30522807Y-928164D01*
X30543080Y-1134000D01*
X30522807Y-1339836D01*
X30482780Y-1471787D01*
X30462767Y-1537763D01*
X30365267Y-1720172D01*
X30234054Y-1880054D01*
X30074172Y-2011267D01*
X29891763Y-2108767D01*
X29825787Y-2128780D01*
X29693836Y-2168807D01*
X29616707Y-2176404D01*
X29539580Y-2184000D01*
X29436420Y-2184000D01*
X29359293Y-2176404D01*
X29282164Y-2168807D01*
X29150213Y-2128780D01*
X29084237Y-2108767D01*
X28901828Y-2011267D01*
X28741946Y-1880054D01*
X28610733Y-1720172D01*
X28513233Y-1537763D01*
X28493220Y-1471787D01*
X28453193Y-1339836D01*
X28432920Y-1134000D01*
X28453193Y-928164D01*
X28513233Y-730238D01*
X28513233Y-730237D01*
X28610733Y-547828D01*
X28741946Y-387946D01*
X28901828Y-256733D01*
X29084237Y-159233D01*
X29150213Y-139220D01*
X29282164Y-99193D01*
X29359293Y-91597D01*
X29436420Y-84000D01*
X29539580Y-84000D01*
X29616707Y-91597D01*
X29616707Y-91597D01*
G37*
G36*
X27076707Y-91597D02*
X27153836Y-99193D01*
X27285787Y-139220D01*
X27351763Y-159233D01*
X27534172Y-256733D01*
X27694054Y-387946D01*
X27825267Y-547828D01*
X27922767Y-730237D01*
X27922767Y-730238D01*
X27982807Y-928164D01*
X28003080Y-1134000D01*
X27982807Y-1339836D01*
X27942780Y-1471787D01*
X27922767Y-1537763D01*
X27825267Y-1720172D01*
X27694054Y-1880054D01*
X27534172Y-2011267D01*
X27351763Y-2108767D01*
X27285787Y-2128780D01*
X27153836Y-2168807D01*
X27076707Y-2176404D01*
X26999580Y-2184000D01*
X26896420Y-2184000D01*
X26819293Y-2176404D01*
X26742164Y-2168807D01*
X26610213Y-2128780D01*
X26544237Y-2108767D01*
X26361828Y-2011267D01*
X26201946Y-1880054D01*
X26070733Y-1720172D01*
X25973233Y-1537763D01*
X25953220Y-1471787D01*
X25913193Y-1339836D01*
X25892920Y-1134000D01*
X25913193Y-928164D01*
X25973233Y-730238D01*
X25973233Y-730237D01*
X26070733Y-547828D01*
X26201946Y-387946D01*
X26361828Y-256733D01*
X26544237Y-159233D01*
X26610213Y-139220D01*
X26742164Y-99193D01*
X26819293Y-91597D01*
X26896420Y-84000D01*
X26999580Y-84000D01*
X27076707Y-91597D01*
X27076707Y-91597D01*
G37*
G36*
X24536707Y-91597D02*
X24613836Y-99193D01*
X24745787Y-139220D01*
X24811763Y-159233D01*
X24994172Y-256733D01*
X25154054Y-387946D01*
X25285267Y-547828D01*
X25382767Y-730237D01*
X25382767Y-730238D01*
X25442807Y-928164D01*
X25463080Y-1134000D01*
X25442807Y-1339836D01*
X25402780Y-1471787D01*
X25382767Y-1537763D01*
X25285267Y-1720172D01*
X25154054Y-1880054D01*
X24994172Y-2011267D01*
X24811763Y-2108767D01*
X24745787Y-2128780D01*
X24613836Y-2168807D01*
X24536707Y-2176404D01*
X24459580Y-2184000D01*
X24356420Y-2184000D01*
X24279293Y-2176404D01*
X24202164Y-2168807D01*
X24070213Y-2128780D01*
X24004237Y-2108767D01*
X23821828Y-2011267D01*
X23661946Y-1880054D01*
X23530733Y-1720172D01*
X23433233Y-1537763D01*
X23413220Y-1471787D01*
X23373193Y-1339836D01*
X23352920Y-1134000D01*
X23373193Y-928164D01*
X23433233Y-730238D01*
X23433233Y-730237D01*
X23530733Y-547828D01*
X23661946Y-387946D01*
X23821828Y-256733D01*
X24004237Y-159233D01*
X24070213Y-139220D01*
X24202164Y-99193D01*
X24279293Y-91597D01*
X24356420Y-84000D01*
X24459580Y-84000D01*
X24536707Y-91597D01*
X24536707Y-91597D01*
G37*
G36*
X21996707Y-91597D02*
X22073836Y-99193D01*
X22205787Y-139220D01*
X22271763Y-159233D01*
X22454172Y-256733D01*
X22614054Y-387946D01*
X22745267Y-547828D01*
X22842767Y-730237D01*
X22842767Y-730238D01*
X22902807Y-928164D01*
X22923080Y-1134000D01*
X22902807Y-1339836D01*
X22862780Y-1471787D01*
X22842767Y-1537763D01*
X22745267Y-1720172D01*
X22614054Y-1880054D01*
X22454172Y-2011267D01*
X22271763Y-2108767D01*
X22205787Y-2128780D01*
X22073836Y-2168807D01*
X21996707Y-2176404D01*
X21919580Y-2184000D01*
X21816420Y-2184000D01*
X21739293Y-2176404D01*
X21662164Y-2168807D01*
X21530213Y-2128780D01*
X21464237Y-2108767D01*
X21281828Y-2011267D01*
X21121946Y-1880054D01*
X20990733Y-1720172D01*
X20893233Y-1537763D01*
X20873220Y-1471787D01*
X20833193Y-1339836D01*
X20812920Y-1134000D01*
X20833193Y-928164D01*
X20893233Y-730238D01*
X20893233Y-730237D01*
X20990733Y-547828D01*
X21121946Y-387946D01*
X21281828Y-256733D01*
X21464237Y-159233D01*
X21530213Y-139220D01*
X21662164Y-99193D01*
X21739293Y-91597D01*
X21816420Y-84000D01*
X21919580Y-84000D01*
X21996707Y-91597D01*
X21996707Y-91597D01*
G37*
G36*
X19456707Y-91597D02*
X19533836Y-99193D01*
X19665787Y-139220D01*
X19731763Y-159233D01*
X19914172Y-256733D01*
X20074054Y-387946D01*
X20205267Y-547828D01*
X20302767Y-730237D01*
X20302767Y-730238D01*
X20362807Y-928164D01*
X20383080Y-1134000D01*
X20362807Y-1339836D01*
X20322780Y-1471787D01*
X20302767Y-1537763D01*
X20205267Y-1720172D01*
X20074054Y-1880054D01*
X19914172Y-2011267D01*
X19731763Y-2108767D01*
X19665787Y-2128780D01*
X19533836Y-2168807D01*
X19456707Y-2176404D01*
X19379580Y-2184000D01*
X19276420Y-2184000D01*
X19199293Y-2176404D01*
X19122164Y-2168807D01*
X18990213Y-2128780D01*
X18924237Y-2108767D01*
X18741828Y-2011267D01*
X18581946Y-1880054D01*
X18450733Y-1720172D01*
X18353233Y-1537763D01*
X18333220Y-1471787D01*
X18293193Y-1339836D01*
X18272920Y-1134000D01*
X18293193Y-928164D01*
X18353233Y-730238D01*
X18353233Y-730237D01*
X18450733Y-547828D01*
X18581946Y-387946D01*
X18741828Y-256733D01*
X18924237Y-159233D01*
X18990213Y-139220D01*
X19122164Y-99193D01*
X19199293Y-91597D01*
X19276420Y-84000D01*
X19379580Y-84000D01*
X19456707Y-91597D01*
X19456707Y-91597D01*
G37*
G36*
X16916707Y-91597D02*
X16993836Y-99193D01*
X17125787Y-139220D01*
X17191763Y-159233D01*
X17374172Y-256733D01*
X17534054Y-387946D01*
X17665267Y-547828D01*
X17762767Y-730237D01*
X17762767Y-730238D01*
X17822807Y-928164D01*
X17843080Y-1134000D01*
X17822807Y-1339836D01*
X17782780Y-1471787D01*
X17762767Y-1537763D01*
X17665267Y-1720172D01*
X17534054Y-1880054D01*
X17374172Y-2011267D01*
X17191763Y-2108767D01*
X17125787Y-2128780D01*
X16993836Y-2168807D01*
X16916707Y-2176404D01*
X16839580Y-2184000D01*
X16736420Y-2184000D01*
X16659293Y-2176404D01*
X16582164Y-2168807D01*
X16450213Y-2128780D01*
X16384237Y-2108767D01*
X16201828Y-2011267D01*
X16041946Y-1880054D01*
X15910733Y-1720172D01*
X15813233Y-1537763D01*
X15793220Y-1471787D01*
X15753193Y-1339836D01*
X15732920Y-1134000D01*
X15753193Y-928164D01*
X15813233Y-730238D01*
X15813233Y-730237D01*
X15910733Y-547828D01*
X16041946Y-387946D01*
X16201828Y-256733D01*
X16384237Y-159233D01*
X16450213Y-139220D01*
X16582164Y-99193D01*
X16659293Y-91597D01*
X16736420Y-84000D01*
X16839580Y-84000D01*
X16916707Y-91597D01*
X16916707Y-91597D01*
G37*
G36*
X14376707Y-91597D02*
X14453836Y-99193D01*
X14585787Y-139220D01*
X14651763Y-159233D01*
X14834172Y-256733D01*
X14994054Y-387946D01*
X15125267Y-547828D01*
X15222767Y-730237D01*
X15222767Y-730238D01*
X15282807Y-928164D01*
X15303080Y-1134000D01*
X15282807Y-1339836D01*
X15242780Y-1471787D01*
X15222767Y-1537763D01*
X15125267Y-1720172D01*
X14994054Y-1880054D01*
X14834172Y-2011267D01*
X14651763Y-2108767D01*
X14585787Y-2128780D01*
X14453836Y-2168807D01*
X14376707Y-2176404D01*
X14299580Y-2184000D01*
X14196420Y-2184000D01*
X14119293Y-2176404D01*
X14042164Y-2168807D01*
X13910213Y-2128780D01*
X13844237Y-2108767D01*
X13661828Y-2011267D01*
X13501946Y-1880054D01*
X13370733Y-1720172D01*
X13273233Y-1537763D01*
X13253220Y-1471787D01*
X13213193Y-1339836D01*
X13192920Y-1134000D01*
X13213193Y-928164D01*
X13273233Y-730238D01*
X13273233Y-730237D01*
X13370733Y-547828D01*
X13501946Y-387946D01*
X13661828Y-256733D01*
X13844237Y-159233D01*
X13910213Y-139220D01*
X14042164Y-99193D01*
X14119293Y-91597D01*
X14196420Y-84000D01*
X14299580Y-84000D01*
X14376707Y-91597D01*
X14376707Y-91597D01*
G37*
G36*
X34696707Y-91597D02*
X34773836Y-99193D01*
X34905787Y-139220D01*
X34971763Y-159233D01*
X35154172Y-256733D01*
X35314054Y-387946D01*
X35445267Y-547828D01*
X35542767Y-730237D01*
X35542767Y-730238D01*
X35602807Y-928164D01*
X35623080Y-1134000D01*
X35602807Y-1339836D01*
X35562780Y-1471787D01*
X35542767Y-1537763D01*
X35445267Y-1720172D01*
X35314054Y-1880054D01*
X35154172Y-2011267D01*
X34971763Y-2108767D01*
X34905787Y-2128780D01*
X34773836Y-2168807D01*
X34696707Y-2176404D01*
X34619580Y-2184000D01*
X34516420Y-2184000D01*
X34439293Y-2176404D01*
X34362164Y-2168807D01*
X34230213Y-2128780D01*
X34164237Y-2108767D01*
X33981828Y-2011267D01*
X33821946Y-1880054D01*
X33690733Y-1720172D01*
X33593233Y-1537763D01*
X33573220Y-1471787D01*
X33533193Y-1339836D01*
X33512920Y-1134000D01*
X33533193Y-928164D01*
X33593233Y-730238D01*
X33593233Y-730237D01*
X33690733Y-547828D01*
X33821946Y-387946D01*
X33981828Y-256733D01*
X34164237Y-159233D01*
X34230213Y-139220D01*
X34362164Y-99193D01*
X34439293Y-91597D01*
X34516420Y-84000D01*
X34619580Y-84000D01*
X34696707Y-91597D01*
X34696707Y-91597D01*
G37*
G36*
X10218000Y-2184000D02*
X8118000Y-2184000D01*
X8118000Y-84000D01*
X10218000Y-84000D01*
X10218000Y-2184000D01*
X10218000Y-2184000D01*
G37*
G36*
X37236707Y-91597D02*
X37313836Y-99193D01*
X37445787Y-139220D01*
X37511763Y-159233D01*
X37694172Y-256733D01*
X37854054Y-387946D01*
X37985267Y-547828D01*
X38082767Y-730237D01*
X38082767Y-730238D01*
X38142807Y-928164D01*
X38163080Y-1134000D01*
X38142807Y-1339836D01*
X38102780Y-1471787D01*
X38082767Y-1537763D01*
X37985267Y-1720172D01*
X37854054Y-1880054D01*
X37694172Y-2011267D01*
X37511763Y-2108767D01*
X37445787Y-2128780D01*
X37313836Y-2168807D01*
X37236707Y-2176404D01*
X37159580Y-2184000D01*
X37056420Y-2184000D01*
X36979293Y-2176404D01*
X36902164Y-2168807D01*
X36770213Y-2128780D01*
X36704237Y-2108767D01*
X36521828Y-2011267D01*
X36361946Y-1880054D01*
X36230733Y-1720172D01*
X36133233Y-1537763D01*
X36113220Y-1471787D01*
X36073193Y-1339836D01*
X36052920Y-1134000D01*
X36073193Y-928164D01*
X36133233Y-730238D01*
X36133233Y-730237D01*
X36230733Y-547828D01*
X36361946Y-387946D01*
X36521828Y-256733D01*
X36704237Y-159233D01*
X36770213Y-139220D01*
X36902164Y-99193D01*
X36979293Y-91597D01*
X37056420Y-84000D01*
X37159580Y-84000D01*
X37236707Y-91597D01*
X37236707Y-91597D01*
G37*
G36*
X39776707Y-91597D02*
X39853836Y-99193D01*
X39985787Y-139220D01*
X40051763Y-159233D01*
X40234172Y-256733D01*
X40394054Y-387946D01*
X40525267Y-547828D01*
X40622767Y-730237D01*
X40622767Y-730238D01*
X40682807Y-928164D01*
X40703080Y-1134000D01*
X40682807Y-1339836D01*
X40642780Y-1471787D01*
X40622767Y-1537763D01*
X40525267Y-1720172D01*
X40394054Y-1880054D01*
X40234172Y-2011267D01*
X40051763Y-2108767D01*
X39985787Y-2128780D01*
X39853836Y-2168807D01*
X39776707Y-2176404D01*
X39699580Y-2184000D01*
X39596420Y-2184000D01*
X39519293Y-2176404D01*
X39442164Y-2168807D01*
X39310213Y-2128780D01*
X39244237Y-2108767D01*
X39061828Y-2011267D01*
X38901946Y-1880054D01*
X38770733Y-1720172D01*
X38673233Y-1537763D01*
X38653220Y-1471787D01*
X38613193Y-1339836D01*
X38592920Y-1134000D01*
X38613193Y-928164D01*
X38673233Y-730238D01*
X38673233Y-730237D01*
X38770733Y-547828D01*
X38901946Y-387946D01*
X39061828Y-256733D01*
X39244237Y-159233D01*
X39310213Y-139220D01*
X39442164Y-99193D01*
X39519293Y-91597D01*
X39596420Y-84000D01*
X39699580Y-84000D01*
X39776707Y-91597D01*
X39776707Y-91597D01*
G37*
G36*
X44856707Y-91597D02*
X44933836Y-99193D01*
X45065787Y-139220D01*
X45131763Y-159233D01*
X45314172Y-256733D01*
X45474054Y-387946D01*
X45605267Y-547828D01*
X45702767Y-730237D01*
X45702767Y-730238D01*
X45762807Y-928164D01*
X45783080Y-1134000D01*
X45762807Y-1339836D01*
X45722780Y-1471787D01*
X45702767Y-1537763D01*
X45605267Y-1720172D01*
X45474054Y-1880054D01*
X45314172Y-2011267D01*
X45131763Y-2108767D01*
X45065787Y-2128780D01*
X44933836Y-2168807D01*
X44856707Y-2176404D01*
X44779580Y-2184000D01*
X44676420Y-2184000D01*
X44599293Y-2176404D01*
X44522164Y-2168807D01*
X44390213Y-2128780D01*
X44324237Y-2108767D01*
X44141828Y-2011267D01*
X43981946Y-1880054D01*
X43850733Y-1720172D01*
X43753233Y-1537763D01*
X43733220Y-1471787D01*
X43693193Y-1339836D01*
X43672920Y-1134000D01*
X43693193Y-928164D01*
X43753233Y-730238D01*
X43753233Y-730237D01*
X43850733Y-547828D01*
X43981946Y-387946D01*
X44141828Y-256733D01*
X44324237Y-159233D01*
X44390213Y-139220D01*
X44522164Y-99193D01*
X44599293Y-91597D01*
X44676420Y-84000D01*
X44779580Y-84000D01*
X44856707Y-91597D01*
X44856707Y-91597D01*
G37*
G36*
X42316707Y-91597D02*
X42393836Y-99193D01*
X42525787Y-139220D01*
X42591763Y-159233D01*
X42774172Y-256733D01*
X42934054Y-387946D01*
X43065267Y-547828D01*
X43162767Y-730237D01*
X43162767Y-730238D01*
X43222807Y-928164D01*
X43243080Y-1134000D01*
X43222807Y-1339836D01*
X43182780Y-1471787D01*
X43162767Y-1537763D01*
X43065267Y-1720172D01*
X42934054Y-1880054D01*
X42774172Y-2011267D01*
X42591763Y-2108767D01*
X42525787Y-2128780D01*
X42393836Y-2168807D01*
X42316707Y-2176404D01*
X42239580Y-2184000D01*
X42136420Y-2184000D01*
X42059293Y-2176404D01*
X41982164Y-2168807D01*
X41850213Y-2128780D01*
X41784237Y-2108767D01*
X41601828Y-2011267D01*
X41441946Y-1880054D01*
X41310733Y-1720172D01*
X41213233Y-1537763D01*
X41193220Y-1471787D01*
X41153193Y-1339836D01*
X41132920Y-1134000D01*
X41153193Y-928164D01*
X41213233Y-730238D01*
X41213233Y-730237D01*
X41310733Y-547828D01*
X41441946Y-387946D01*
X41601828Y-256733D01*
X41784237Y-159233D01*
X41850213Y-139220D01*
X41982164Y-99193D01*
X42059293Y-91597D01*
X42136420Y-84000D01*
X42239580Y-84000D01*
X42316707Y-91597D01*
X42316707Y-91597D01*
G37*
G36*
X11836707Y-91597D02*
X11913836Y-99193D01*
X12045787Y-139220D01*
X12111763Y-159233D01*
X12294172Y-256733D01*
X12454054Y-387946D01*
X12585267Y-547828D01*
X12682767Y-730237D01*
X12682767Y-730238D01*
X12742807Y-928164D01*
X12763080Y-1134000D01*
X12742807Y-1339836D01*
X12702780Y-1471787D01*
X12682767Y-1537763D01*
X12585267Y-1720172D01*
X12454054Y-1880054D01*
X12294172Y-2011267D01*
X12111763Y-2108767D01*
X12045787Y-2128780D01*
X11913836Y-2168807D01*
X11836707Y-2176404D01*
X11759580Y-2184000D01*
X11656420Y-2184000D01*
X11579293Y-2176404D01*
X11502164Y-2168807D01*
X11370213Y-2128780D01*
X11304237Y-2108767D01*
X11121828Y-2011267D01*
X10961946Y-1880054D01*
X10830733Y-1720172D01*
X10733233Y-1537763D01*
X10713220Y-1471787D01*
X10673193Y-1339836D01*
X10652920Y-1134000D01*
X10673193Y-928164D01*
X10733233Y-730238D01*
X10733233Y-730237D01*
X10830733Y-547828D01*
X10961946Y-387946D01*
X11121828Y-256733D01*
X11304237Y-159233D01*
X11370213Y-139220D01*
X11502164Y-99193D01*
X11579293Y-91597D01*
X11656420Y-84000D01*
X11759580Y-84000D01*
X11836707Y-91597D01*
X11836707Y-91597D01*
G37*
M02*
