M48
;DRILL file {KiCad 5.0.2-bee76a0~70~ubuntu16.04.1} date Sat 17 Aug 2019 11:50:20 AM PDT
;FORMAT={-:-/ absolute / metric / decimal}
FMAT,2
METRIC,TZ
T1C0.400
T2C0.500
T3C0.700
T4C0.762
T5C0.800
T6C0.800
T7C1.000
T8C1.016
T9C1.199
T10C2.300
T11C3.000
T12C2.400
T13C2.480
%
G90
G05
T1
X23.5Y-33.
X33.5Y-10.8
X35.2Y-32.8
X36.5Y-4.1
X43.Y-15.6
X44.4Y-14.6
X47.8Y-41.3
X49.4Y-23.8
X49.8Y-35.8
X51.6Y-36.2
X73.4Y-43.8
T2
X15.2Y-3.4
X17.6Y-13.7
X25.3Y-4.1
X39.5Y-28.4
X40.1Y-44.8
X46.2Y-3.4
X48.4Y-3.4
X48.8Y-40.4
X52.Y-37.4
X53.3Y-43.4
X53.8Y-4.9
X60.7Y-39.8
X42.8Y-5.
X71.3Y-6.5
X18.9Y-7.5
X40.4Y-7.5
X29.7Y-7.5
X69.Y-7.4
X45.Y-5.
X90.5Y-31.
X44.9Y-10.5
X40.7Y-5.
T3
X61.5Y-3.9
X73.9Y-27.8
T4
X25.5Y-38.5
X1.5Y-27.5
X98.5Y-32.5
X98.5Y-27.5
X23.5Y-27.5
X98.5Y-17.5
X12.3Y-12.1
X98.5Y-7.5
X17.9Y-10.3
X12.5Y-22.5
X50.5Y-11.2
X37.1Y-39.75
X38.2Y-23.8
X81.9Y-25.
X78.8Y-30.8
X98.5Y-47.5
X1.5Y-12.5
X43.Y-13.6
X30.5Y-20.
X1.5Y-7.5
X1.5Y-22.5
X20.8Y-5.4
X25.Y-22.5
X6.Y-33.
X1.5Y-32.5
X1.5Y-2.5
X86.1Y-38.2
X85.3Y-30.6
X76.5Y-38.1
X85.7Y-12.4
X73.8Y-31.25
X98.5Y-2.5
X42.3Y-48.5
X1.5Y-42.5
X98.5Y-37.5
X70.7Y-10.5
X30.4Y-14.6
X57.1Y-20.
X83.3Y-17.5
X98.5Y-22.5
X98.5Y-12.5
X60.Y-34.
X62.3Y-25.1
X1.5Y-37.5
X98.5Y-42.5
X66.55Y-34.85
X1.5Y-47.5
X49.9Y-26.8
X5.5Y-23.5
X57.1Y-15.
X30.4Y-10.3
X1.5Y-17.5
X76.5Y-4.1
T5
X61.46Y-7.92
X61.46Y-13.
X61.46Y-15.54
X61.46Y-18.08
X66.54Y-7.92
X66.54Y-13.
X66.54Y-15.54
X66.54Y-18.08
X29.46Y-45.
X32.Y-45.
X34.54Y-45.
X22.46Y-9.92
X22.46Y-15.
X22.46Y-17.54
X22.46Y-20.08
X27.54Y-9.92
X27.54Y-15.
X27.54Y-17.54
X27.54Y-20.08
X73.52Y-9.86
X73.52Y-14.94
X78.6Y-9.86
X78.6Y-14.94
X81.14Y-9.86
X81.14Y-14.94
X83.68Y-9.86
X83.68Y-14.94
X78.52Y-22.66
X78.52Y-27.74
X81.06Y-22.66
X81.06Y-27.74
X83.6Y-22.66
X83.6Y-27.74
X88.68Y-22.66
X88.68Y-27.74
X35.46Y-9.92
X35.46Y-15.
X35.46Y-17.54
X35.46Y-20.08
X40.54Y-9.92
X40.54Y-15.
X40.54Y-17.54
X40.54Y-20.08
X48.46Y-9.92
X48.46Y-15.
X48.46Y-17.54
X48.46Y-20.08
X53.54Y-9.92
X53.54Y-15.
X53.54Y-17.54
X53.54Y-20.08
X61.46Y-45.
X64.Y-45.
X66.54Y-45.
X9.46Y-9.92
X9.46Y-15.
X9.46Y-17.54
X9.46Y-20.08
X14.54Y-9.92
X14.54Y-15.
X14.54Y-17.54
X14.54Y-20.08
T6
X52.Y-45.8
T7
X9.168Y-1.134
X11.708Y-1.134
X14.248Y-1.134
X16.788Y-1.134
X19.328Y-1.134
X21.868Y-1.134
X24.408Y-1.134
X26.948Y-1.134
X29.488Y-1.134
X32.028Y-1.134
X34.568Y-1.134
X37.108Y-1.134
X39.648Y-1.134
X42.188Y-1.134
X44.728Y-1.134
X47.268Y-1.134
X49.808Y-1.134
X52.348Y-1.134
X54.888Y-1.134
X57.428Y-1.134
X80.1Y-36.3
X80.1Y-40.1
X82.1Y-36.3
X82.1Y-40.1
X67.588Y-1.134
T8
X57.3Y-5.3
X57.3Y-7.84
X57.3Y-10.38
T9
X81.1Y-33.14
X81.1Y-43.3
T10
X12.Y-39.9
T11
X12.Y-44.4
T12
X7.75Y-47.55
T13
X16.25Y-47.55
T0
M30
