G04 #@! TF.GenerationSoftware,KiCad,Pcbnew,5.0.2-bee76a0~70~ubuntu16.04.1*
G04 #@! TF.CreationDate,2019-08-17T11:50:25-07:00*
G04 #@! TF.ProjectId,n2adr,6e326164-722e-46b6-9963-61645f706362,E5b9*
G04 #@! TF.SameCoordinates,PX3dfd240PY3473bc0*
G04 #@! TF.FileFunction,Copper,L3,Inr*
G04 #@! TF.FilePolarity,Positive*
%FSLAX46Y46*%
G04 Gerber Fmt 4.6, Leading zero omitted, Abs format (unit mm)*
G04 Created by KiCad (PCBNEW 5.0.2-bee76a0~70~ubuntu16.04.1) date Sat 17 Aug 2019 11:50:25 AM PDT*
%MOMM*%
%LPD*%
G01*
G04 APERTURE LIST*
G04 #@! TA.AperFunction,ViaPad*
%ADD10C,1.270000*%
G04 #@! TD*
G04 #@! TA.AperFunction,ViaPad*
%ADD11C,1.850000*%
G04 #@! TD*
G04 #@! TA.AperFunction,ViaPad*
%ADD12C,2.700020*%
G04 #@! TD*
G04 #@! TA.AperFunction,ViaPad*
%ADD13R,2.200000X2.200000*%
G04 #@! TD*
G04 #@! TA.AperFunction,ViaPad*
%ADD14C,1.000000*%
G04 #@! TD*
G04 #@! TA.AperFunction,ViaPad*
%ADD15R,1.600000X5.200000*%
G04 #@! TD*
G04 #@! TA.AperFunction,ViaPad*
%ADD16R,4.400000X5.200000*%
G04 #@! TD*
G04 #@! TA.AperFunction,ViaPad*
%ADD17R,2.032000X1.727200*%
G04 #@! TD*
G04 #@! TA.AperFunction,ViaPad*
%ADD18O,2.032000X1.727200*%
G04 #@! TD*
G04 #@! TA.AperFunction,ViaPad*
%ADD19R,1.700000X1.700000*%
G04 #@! TD*
G04 #@! TA.AperFunction,ViaPad*
%ADD20O,1.700000X1.700000*%
G04 #@! TD*
G04 #@! TA.AperFunction,ViaPad*
%ADD21C,1.998980*%
G04 #@! TD*
G04 #@! TA.AperFunction,ViaPad*
%ADD22C,4.200000*%
G04 #@! TD*
G04 #@! TA.AperFunction,ViaPad*
%ADD23C,3.500000*%
G04 #@! TD*
G04 #@! TA.AperFunction,ViaPad*
%ADD24C,0.600000*%
G04 #@! TD*
G04 #@! TA.AperFunction,ViaPad*
%ADD25C,0.800000*%
G04 #@! TD*
G04 #@! TA.AperFunction,Conductor*
%ADD26C,0.200000*%
G04 #@! TD*
G04 APERTURE END LIST*
D10*
G04 #@! TO.N,GND*
G04 #@! TO.C,REF\002A\002A*
X81900000Y-25000000D03*
G04 #@! TD*
G04 #@! TO.N,GND*
G04 #@! TO.C,REF\002A\002A*
X57100000Y-15000000D03*
G04 #@! TD*
G04 #@! TO.N,GND*
G04 #@! TO.C,REF\002A\002A*
X73800000Y-31250000D03*
G04 #@! TD*
G04 #@! TO.N,GND*
G04 #@! TO.C,REF\002A\002A*
X12300000Y-12100000D03*
G04 #@! TD*
G04 #@! TO.N,GND*
G04 #@! TO.C,REF\002A\002A*
X30400000Y-10300000D03*
G04 #@! TD*
G04 #@! TO.N,GND*
G04 #@! TO.C,REF\002A\002A*
X30500000Y-20000000D03*
G04 #@! TD*
G04 #@! TO.N,GND*
G04 #@! TO.C,REF\002A\002A*
X86100000Y-38200000D03*
G04 #@! TD*
G04 #@! TO.N,GND*
G04 #@! TO.C,REF\002A\002A*
X85300000Y-30600000D03*
G04 #@! TD*
G04 #@! TO.N,GND*
G04 #@! TO.C,REF\002A\002A*
X85700000Y-12400000D03*
G04 #@! TD*
G04 #@! TO.N,GND*
G04 #@! TO.C,REF\002A\002A*
X50500000Y-11200000D03*
G04 #@! TD*
G04 #@! TO.N,GND*
G04 #@! TO.C,REF\002A\002A*
X57100000Y-20000000D03*
G04 #@! TD*
G04 #@! TO.N,GND*
G04 #@! TO.C,REF\002A\002A*
X70700000Y-10500000D03*
G04 #@! TD*
G04 #@! TO.N,GND*
G04 #@! TO.C,REF\002A\002A*
X76500000Y-38100000D03*
G04 #@! TD*
G04 #@! TO.N,GND*
G04 #@! TO.C,REF\002A\002A*
X66550000Y-34850000D03*
G04 #@! TD*
G04 #@! TO.N,GND*
G04 #@! TO.C,REF\002A\002A*
X30400000Y-14600000D03*
G04 #@! TD*
G04 #@! TO.N,GND*
G04 #@! TO.C,REF\002A\002A*
X49900000Y-26800000D03*
G04 #@! TD*
G04 #@! TO.N,GND*
G04 #@! TO.C,REF\002A\002A*
X78800000Y-30800000D03*
G04 #@! TD*
G04 #@! TO.N,GND*
G04 #@! TO.C,REF\002A\002A*
X83300000Y-17500000D03*
G04 #@! TD*
G04 #@! TO.N,GND*
G04 #@! TO.C,REF\002A\002A*
X62300000Y-25100000D03*
G04 #@! TD*
G04 #@! TO.N,GND*
G04 #@! TO.C,REF\002A\002A*
X60000000Y-34000000D03*
G04 #@! TD*
G04 #@! TO.N,GND*
G04 #@! TO.C,REF\002A\002A*
X42300000Y-48500000D03*
G04 #@! TD*
G04 #@! TO.N,GND*
G04 #@! TO.C,REF\002A\002A*
X38200000Y-23800000D03*
G04 #@! TD*
G04 #@! TO.N,GND*
G04 #@! TO.C,REF\002A\002A*
X37100000Y-39750000D03*
G04 #@! TD*
G04 #@! TO.N,GND*
G04 #@! TO.C,REF\002A\002A*
X25500000Y-38500000D03*
G04 #@! TD*
G04 #@! TO.N,GND*
G04 #@! TO.C,REF\002A\002A*
X23500000Y-27500000D03*
G04 #@! TD*
G04 #@! TO.N,GND*
G04 #@! TO.C,REF\002A\002A*
X25000000Y-22500000D03*
G04 #@! TD*
G04 #@! TO.N,GND*
G04 #@! TO.C,REF\002A\002A*
X12500000Y-22500000D03*
G04 #@! TD*
G04 #@! TO.N,GND*
G04 #@! TO.C,REF\002A\002A*
X6000000Y-33000000D03*
G04 #@! TD*
G04 #@! TO.N,GND*
G04 #@! TO.C,REF\002A\002A*
X5500000Y-23500000D03*
G04 #@! TD*
G04 #@! TO.N,GND*
G04 #@! TO.C,REF\002A\002A*
X1500000Y-47500000D03*
G04 #@! TD*
G04 #@! TO.N,GND*
G04 #@! TO.C,REF\002A\002A*
X1500000Y-42500000D03*
G04 #@! TD*
G04 #@! TO.N,GND*
G04 #@! TO.C,REF\002A\002A*
X1500000Y-37500000D03*
G04 #@! TD*
G04 #@! TO.N,GND*
G04 #@! TO.C,REF\002A\002A*
X1500000Y-32500000D03*
G04 #@! TD*
G04 #@! TO.N,GND*
G04 #@! TO.C,REF\002A\002A*
X1500000Y-27500000D03*
G04 #@! TD*
G04 #@! TO.N,GND*
G04 #@! TO.C,REF\002A\002A*
X1500000Y-22500000D03*
G04 #@! TD*
G04 #@! TO.N,GND*
G04 #@! TO.C,REF\002A\002A*
X1500000Y-17500000D03*
G04 #@! TD*
G04 #@! TO.N,GND*
G04 #@! TO.C,REF\002A\002A*
X1500000Y-12500000D03*
G04 #@! TD*
G04 #@! TO.N,GND*
G04 #@! TO.C,REF\002A\002A*
X1500000Y-7500000D03*
G04 #@! TD*
G04 #@! TO.N,GND*
G04 #@! TO.C,REF\002A\002A*
X1500000Y-2500000D03*
G04 #@! TD*
G04 #@! TO.N,GND*
G04 #@! TO.C,REF\002A\002A*
X98500000Y-47500000D03*
G04 #@! TD*
G04 #@! TO.N,GND*
G04 #@! TO.C,REF\002A\002A*
X98500000Y-42500000D03*
G04 #@! TD*
G04 #@! TO.N,GND*
G04 #@! TO.C,REF\002A\002A*
X98500000Y-37500000D03*
G04 #@! TD*
G04 #@! TO.N,GND*
G04 #@! TO.C,REF\002A\002A*
X98500000Y-32500000D03*
G04 #@! TD*
G04 #@! TO.N,GND*
G04 #@! TO.C,REF\002A\002A*
X98500000Y-27500000D03*
G04 #@! TD*
G04 #@! TO.N,GND*
G04 #@! TO.C,REF\002A\002A*
X98500000Y-22500000D03*
G04 #@! TD*
G04 #@! TO.N,GND*
G04 #@! TO.C,REF\002A\002A*
X98500000Y-17500000D03*
G04 #@! TD*
G04 #@! TO.N,GND*
G04 #@! TO.C,REF\002A\002A*
X98500000Y-12500000D03*
G04 #@! TD*
G04 #@! TO.N,GND*
G04 #@! TO.C,REF\002A\002A*
X98500000Y-7500000D03*
G04 #@! TD*
G04 #@! TO.N,GND*
G04 #@! TO.C,REF\002A\002A*
X98500000Y-2500000D03*
G04 #@! TD*
G04 #@! TO.N,GND*
G04 #@! TO.C,REF\002A\002A*
X76500000Y-4100000D03*
G04 #@! TD*
G04 #@! TO.N,GND*
G04 #@! TO.C,REF\002A\002A*
X43000000Y-13600000D03*
G04 #@! TD*
D11*
G04 #@! TO.N,Band3*
G04 #@! TO.C,K3*
X53540000Y-9920000D03*
G04 #@! TO.N,Net-(K3-Pad2)*
X53540000Y-15000000D03*
G04 #@! TO.N,Net-(K2-Pad3)*
X53540000Y-17540000D03*
G04 #@! TO.N,Net-(C40-Pad1)*
X53540000Y-20080000D03*
G04 #@! TO.N,Net-(C32-Pad2)*
X48460000Y-20080000D03*
G04 #@! TO.N,Net-(K3-Pad3)*
X48460000Y-17540000D03*
G04 #@! TO.N,Net-(K3-Pad2)*
X48460000Y-15000000D03*
G04 #@! TO.N,+3V3*
X48460000Y-9920000D03*
G04 #@! TD*
G04 #@! TO.N,Band4*
G04 #@! TO.C,K4*
X40540000Y-9920000D03*
G04 #@! TO.N,Net-(K4-Pad2)*
X40540000Y-15000000D03*
G04 #@! TO.N,Net-(K3-Pad3)*
X40540000Y-17540000D03*
G04 #@! TO.N,Net-(C41-Pad1)*
X40540000Y-20080000D03*
G04 #@! TO.N,Net-(C33-Pad2)*
X35460000Y-20080000D03*
G04 #@! TO.N,Net-(K4-Pad3)*
X35460000Y-17540000D03*
G04 #@! TO.N,Net-(K4-Pad2)*
X35460000Y-15000000D03*
G04 #@! TO.N,+3V3*
X35460000Y-9920000D03*
G04 #@! TD*
D12*
G04 #@! TO.N,Net-(CN4-Pad1)*
G04 #@! TO.C,JP1*
X81100000Y-43300000D03*
G04 #@! TO.N,FilterOut*
X81100000Y-33140000D03*
G04 #@! TD*
D13*
G04 #@! TO.N,Net-(D1-Pad3)*
G04 #@! TO.C,L3*
X80100000Y-40100000D03*
G04 #@! TO.N,Net-(D2-Pad4)*
X82100000Y-36300000D03*
G04 #@! TO.N,Net-(D1-Pad3)*
X82100000Y-40100000D03*
G04 #@! TO.N,Net-(D2-Pad4)*
X80100000Y-36300000D03*
G04 #@! TD*
D14*
G04 #@! TO.N,Band3*
G04 #@! TO.C,P3*
X44900000Y-10500000D03*
G04 #@! TD*
G04 #@! TO.N,Band6*
G04 #@! TO.C,P6*
X18900000Y-7500000D03*
G04 #@! TD*
G04 #@! TO.N,Band1*
G04 #@! TO.C,P1*
X71300000Y-6500000D03*
G04 #@! TD*
G04 #@! TO.N,Band2*
G04 #@! TO.C,P2*
X69000000Y-7400000D03*
G04 #@! TD*
G04 #@! TO.N,Band4*
G04 #@! TO.C,P4*
X40400000Y-7500000D03*
G04 #@! TD*
G04 #@! TO.N,Band5*
G04 #@! TO.C,P5*
X29700000Y-7500000D03*
G04 #@! TD*
G04 #@! TO.N,Band7*
G04 #@! TO.C,P7*
X90500000Y-31000000D03*
G04 #@! TD*
D15*
G04 #@! TO.N,Net-(CN4-Pad1)*
G04 #@! TO.C,CN4*
X64000000Y-45000000D03*
D16*
G04 #@! TO.N,GND*
X60200000Y-45000000D03*
X67800000Y-45000000D03*
G04 #@! TD*
D15*
G04 #@! TO.N,Net-(CN2-Pad10)*
G04 #@! TO.C,CN3*
X32000000Y-45000000D03*
D16*
G04 #@! TO.N,GND*
X28200000Y-45000000D03*
X35800000Y-45000000D03*
G04 #@! TD*
D11*
G04 #@! TO.N,Band1*
G04 #@! TO.C,K1*
X73520000Y-9860000D03*
G04 #@! TO.N,Net-(K1-Pad2)*
X78600000Y-9860000D03*
G04 #@! TO.N,Net-(K1-Pad6)*
X81140000Y-9860000D03*
G04 #@! TO.N,Net-(C23-Pad1)*
X83680000Y-9860000D03*
G04 #@! TO.N,Net-(C21-Pad1)*
X83680000Y-14940000D03*
G04 #@! TO.N,Net-(K1-Pad3)*
X81140000Y-14940000D03*
G04 #@! TO.N,Net-(K1-Pad2)*
X78600000Y-14940000D03*
G04 #@! TO.N,+3V3*
X73520000Y-14940000D03*
G04 #@! TD*
G04 #@! TO.N,Band2*
G04 #@! TO.C,K2*
X66540000Y-7920000D03*
G04 #@! TO.N,Net-(K2-Pad2)*
X66540000Y-13000000D03*
G04 #@! TO.N,Net-(K1-Pad6)*
X66540000Y-15540000D03*
G04 #@! TO.N,Net-(C10-Pad2)*
X66540000Y-18080000D03*
G04 #@! TO.N,Net-(C8-Pad2)*
X61460000Y-18080000D03*
G04 #@! TO.N,Net-(K2-Pad3)*
X61460000Y-15540000D03*
G04 #@! TO.N,Net-(K2-Pad2)*
X61460000Y-13000000D03*
G04 #@! TO.N,+3V3*
X61460000Y-7920000D03*
G04 #@! TD*
G04 #@! TO.N,Band5*
G04 #@! TO.C,K5*
X27540000Y-9920000D03*
G04 #@! TO.N,Net-(K5-Pad2)*
X27540000Y-15000000D03*
G04 #@! TO.N,Net-(K4-Pad3)*
X27540000Y-17540000D03*
G04 #@! TO.N,Net-(C44-Pad2)*
X27540000Y-20080000D03*
G04 #@! TO.N,Net-(C34-Pad2)*
X22460000Y-20080000D03*
G04 #@! TO.N,Net-(K5-Pad3)*
X22460000Y-17540000D03*
G04 #@! TO.N,Net-(K5-Pad2)*
X22460000Y-15000000D03*
G04 #@! TO.N,+3V3*
X22460000Y-9920000D03*
G04 #@! TD*
G04 #@! TO.N,Band6*
G04 #@! TO.C,K6*
X14540000Y-9920000D03*
G04 #@! TO.N,Net-(K6-Pad2)*
X14540000Y-15000000D03*
G04 #@! TO.N,Net-(K5-Pad3)*
X14540000Y-17540000D03*
G04 #@! TO.N,Net-(C26-Pad2)*
X14540000Y-20080000D03*
G04 #@! TO.N,Net-(C24-Pad2)*
X9460000Y-20080000D03*
G04 #@! TO.N,RFInput*
X9460000Y-17540000D03*
G04 #@! TO.N,Net-(K6-Pad2)*
X9460000Y-15000000D03*
G04 #@! TO.N,+3V3*
X9460000Y-9920000D03*
G04 #@! TD*
G04 #@! TO.N,Band7*
G04 #@! TO.C,K7*
X88680000Y-27740000D03*
G04 #@! TO.N,Net-(C49-Pad1)*
X83600000Y-27740000D03*
G04 #@! TO.N,FilterOut*
X81060000Y-27740000D03*
G04 #@! TO.N,Net-(K7-Pad4)*
X78520000Y-27740000D03*
X78520000Y-22660000D03*
G04 #@! TO.N,Net-(K1-Pad3)*
X81060000Y-22660000D03*
G04 #@! TO.N,Net-(C47-Pad2)*
X83600000Y-22660000D03*
G04 #@! TO.N,+3V3*
X88680000Y-22660000D03*
G04 #@! TD*
D17*
G04 #@! TO.N,Net-(CN2-Pad19)*
G04 #@! TO.C,CN5*
X57300000Y-5300000D03*
D18*
G04 #@! TO.N,Net-(CN2-Pad20)*
X57300000Y-7840000D03*
G04 #@! TO.N,GND*
X57300000Y-10380000D03*
G04 #@! TD*
D19*
G04 #@! TO.N,GND*
G04 #@! TO.C,J3*
X67588000Y-1134000D03*
G04 #@! TD*
G04 #@! TO.N,GND*
G04 #@! TO.C,CN2*
X9168000Y-1134000D03*
D20*
G04 #@! TO.N,RFInput*
X11708000Y-1134000D03*
G04 #@! TO.N,GND*
X14248000Y-1134000D03*
X16788000Y-1134000D03*
X19328000Y-1134000D03*
G04 #@! TO.N,Net-(CN2-Pad6)*
X21868000Y-1134000D03*
G04 #@! TO.N,GND*
X24408000Y-1134000D03*
X26948000Y-1134000D03*
X29488000Y-1134000D03*
G04 #@! TO.N,Net-(CN2-Pad10)*
X32028000Y-1134000D03*
G04 #@! TO.N,GND*
X34568000Y-1134000D03*
X37108000Y-1134000D03*
G04 #@! TO.N,INTTR*
X39648000Y-1134000D03*
G04 #@! TO.N,Net-(CN2-Pad14)*
X42188000Y-1134000D03*
G04 #@! TO.N,Net-(CN1-Pad1)*
X44728000Y-1134000D03*
G04 #@! TO.N,Net-(CN2-Pad16)*
X47268000Y-1134000D03*
G04 #@! TO.N,Net-(CN2-Pad17)*
X49808000Y-1134000D03*
G04 #@! TO.N,Net-(CN2-Pad18)*
X52348000Y-1134000D03*
G04 #@! TO.N,Net-(CN2-Pad19)*
X54888000Y-1134000D03*
G04 #@! TO.N,Net-(CN2-Pad20)*
X57428000Y-1134000D03*
G04 #@! TD*
D21*
G04 #@! TO.N,Net-(P13-Pad1)*
G04 #@! TO.C,P13*
X52000000Y-45800000D03*
G04 #@! TD*
D14*
G04 #@! TO.N,Net-(CN2-Pad14)*
G04 #@! TO.C,P8*
X42800000Y-5000000D03*
G04 #@! TD*
G04 #@! TO.N,INTTR*
G04 #@! TO.C,P14*
X40700000Y-5000000D03*
G04 #@! TD*
G04 #@! TO.N,Net-(CN1-Pad1)*
G04 #@! TO.C,P16*
X45000000Y-5000000D03*
G04 #@! TD*
D10*
G04 #@! TO.N,GND*
G04 #@! TO.C,REF\002A\002A*
X17900000Y-10300000D03*
G04 #@! TD*
D22*
G04 #@! TO.N,GND*
G04 #@! TO.C,CN1*
X12000000Y-44400000D03*
D23*
G04 #@! TO.N,Net-(CN1-Pad1)*
X12000000Y-39900000D03*
G04 #@! TD*
D10*
G04 #@! TO.N,Net-(CN2-Pad6)*
G04 #@! TO.C,P15*
X20800000Y-5400000D03*
G04 #@! TD*
D24*
G04 #@! TO.N,GND*
X73400000Y-43800000D03*
X49800000Y-35800000D03*
G04 #@! TO.N,Band1*
X43000000Y-15600000D03*
G04 #@! TO.N,Band2*
X44400000Y-14600000D03*
G04 #@! TO.N,Band5*
X33500000Y-10800000D03*
G04 #@! TO.N,Band6*
X23500000Y-33000000D03*
X35200000Y-32800000D03*
G04 #@! TO.N,Band7*
X49400000Y-23800000D03*
G04 #@! TO.N,INTTR*
X51600000Y-36200000D03*
G04 #@! TO.N,Net-(P13-Pad1)*
X47800000Y-41300000D03*
D14*
G04 #@! TO.N,+3V3*
X73900000Y-27800000D03*
D25*
X60700000Y-39800000D03*
X53300000Y-43400000D03*
X40100000Y-44800000D03*
X52000000Y-37400000D03*
X39500000Y-28400000D03*
X15200000Y-3400000D03*
D14*
X61500000Y-3900000D03*
D25*
X48800000Y-40400000D03*
D24*
X36500000Y-4100000D03*
D25*
X25300000Y-4100000D03*
X48400000Y-3400000D03*
X46200000Y-3400000D03*
G04 #@! TO.N,Net-(CN1-Pad1)*
X17600000Y-13700000D03*
G04 #@! TO.N,Net-(CN2-Pad18)*
X53800000Y-4900000D03*
G04 #@! TD*
D26*
G04 #@! TO.N,GND*
G36*
X7918000Y-734000D02*
X8018000Y-834000D01*
X8868000Y-834000D01*
X8868000Y-814000D01*
X9468000Y-814000D01*
X9468000Y-834000D01*
X9488000Y-834000D01*
X9488000Y-1434000D01*
X9468000Y-1434000D01*
X9468000Y-2284000D01*
X9568000Y-2384000D01*
X10097565Y-2384000D01*
X10244582Y-2323104D01*
X10357104Y-2210582D01*
X10418000Y-2063565D01*
X10418000Y-1723312D01*
X10698657Y-2143343D01*
X11161747Y-2452771D01*
X11570115Y-2534000D01*
X11845885Y-2534000D01*
X12254253Y-2452771D01*
X12717343Y-2143343D01*
X13026771Y-1680253D01*
X13075753Y-1434002D01*
X13134506Y-1434002D01*
X13096376Y-1620139D01*
X13370075Y-2023841D01*
X13761866Y-2285596D01*
X13948000Y-2244180D01*
X13948000Y-1434000D01*
X14548000Y-1434000D01*
X14548000Y-2244180D01*
X14734134Y-2285596D01*
X15125925Y-2023841D01*
X15399624Y-1620139D01*
X15636376Y-1620139D01*
X15910075Y-2023841D01*
X16301866Y-2285596D01*
X16488000Y-2244180D01*
X16488000Y-1434000D01*
X17088000Y-1434000D01*
X17088000Y-2244180D01*
X17274134Y-2285596D01*
X17665925Y-2023841D01*
X17939624Y-1620139D01*
X18176376Y-1620139D01*
X18450075Y-2023841D01*
X18841866Y-2285596D01*
X19028000Y-2244180D01*
X19028000Y-1434000D01*
X18214506Y-1434000D01*
X18176376Y-1620139D01*
X17939624Y-1620139D01*
X17901494Y-1434000D01*
X17088000Y-1434000D01*
X16488000Y-1434000D01*
X15674506Y-1434000D01*
X15636376Y-1620139D01*
X15399624Y-1620139D01*
X15361494Y-1434000D01*
X14548000Y-1434000D01*
X13948000Y-1434000D01*
X13928000Y-1434000D01*
X13928000Y-834000D01*
X13948000Y-834000D01*
X13948000Y-814000D01*
X14548000Y-814000D01*
X14548000Y-834000D01*
X15361494Y-834000D01*
X15399624Y-647861D01*
X15384125Y-625000D01*
X15651875Y-625000D01*
X15636376Y-647861D01*
X15674506Y-834000D01*
X16488000Y-834000D01*
X16488000Y-814000D01*
X17088000Y-814000D01*
X17088000Y-834000D01*
X17901494Y-834000D01*
X17939624Y-647861D01*
X17924125Y-625000D01*
X18191875Y-625000D01*
X18176376Y-647861D01*
X18214506Y-834000D01*
X19028000Y-834000D01*
X19028000Y-814000D01*
X19628000Y-814000D01*
X19628000Y-834000D01*
X19648000Y-834000D01*
X19648000Y-1434000D01*
X19628000Y-1434000D01*
X19628000Y-2244180D01*
X19814134Y-2285596D01*
X20205925Y-2023841D01*
X20479624Y-1620139D01*
X20441494Y-1434002D01*
X20500247Y-1434002D01*
X20549229Y-1680253D01*
X20858657Y-2143343D01*
X21321747Y-2452771D01*
X21730115Y-2534000D01*
X22005885Y-2534000D01*
X22414253Y-2452771D01*
X22877343Y-2143343D01*
X23186771Y-1680253D01*
X23235753Y-1434002D01*
X23294506Y-1434002D01*
X23256376Y-1620139D01*
X23530075Y-2023841D01*
X23921866Y-2285596D01*
X24108000Y-2244180D01*
X24108000Y-1434000D01*
X24708000Y-1434000D01*
X24708000Y-2244180D01*
X24894134Y-2285596D01*
X25285925Y-2023841D01*
X25559624Y-1620139D01*
X25796376Y-1620139D01*
X26070075Y-2023841D01*
X26461866Y-2285596D01*
X26648000Y-2244180D01*
X26648000Y-1434000D01*
X27248000Y-1434000D01*
X27248000Y-2244180D01*
X27434134Y-2285596D01*
X27825925Y-2023841D01*
X28099624Y-1620139D01*
X28336376Y-1620139D01*
X28610075Y-2023841D01*
X29001866Y-2285596D01*
X29188000Y-2244180D01*
X29188000Y-1434000D01*
X28374506Y-1434000D01*
X28336376Y-1620139D01*
X28099624Y-1620139D01*
X28061494Y-1434000D01*
X27248000Y-1434000D01*
X26648000Y-1434000D01*
X25834506Y-1434000D01*
X25796376Y-1620139D01*
X25559624Y-1620139D01*
X25521494Y-1434000D01*
X24708000Y-1434000D01*
X24108000Y-1434000D01*
X24088000Y-1434000D01*
X24088000Y-834000D01*
X24108000Y-834000D01*
X24108000Y-814000D01*
X24708000Y-814000D01*
X24708000Y-834000D01*
X25521494Y-834000D01*
X25559624Y-647861D01*
X25544125Y-625000D01*
X25811875Y-625000D01*
X25796376Y-647861D01*
X25834506Y-834000D01*
X26648000Y-834000D01*
X26648000Y-814000D01*
X27248000Y-814000D01*
X27248000Y-834000D01*
X28061494Y-834000D01*
X28099624Y-647861D01*
X28084125Y-625000D01*
X28351875Y-625000D01*
X28336376Y-647861D01*
X28374506Y-834000D01*
X29188000Y-834000D01*
X29188000Y-814000D01*
X29788000Y-814000D01*
X29788000Y-834000D01*
X29808000Y-834000D01*
X29808000Y-1434000D01*
X29788000Y-1434000D01*
X29788000Y-2244180D01*
X29974134Y-2285596D01*
X30365925Y-2023841D01*
X30639624Y-1620139D01*
X30601494Y-1434002D01*
X30660247Y-1434002D01*
X30709229Y-1680253D01*
X31018657Y-2143343D01*
X31481747Y-2452771D01*
X31890115Y-2534000D01*
X32165885Y-2534000D01*
X32574253Y-2452771D01*
X33037343Y-2143343D01*
X33346771Y-1680253D01*
X33395753Y-1434002D01*
X33454506Y-1434002D01*
X33416376Y-1620139D01*
X33690075Y-2023841D01*
X34081866Y-2285596D01*
X34268000Y-2244180D01*
X34268000Y-1434000D01*
X34868000Y-1434000D01*
X34868000Y-2244180D01*
X35054134Y-2285596D01*
X35445925Y-2023841D01*
X35719624Y-1620139D01*
X35956376Y-1620139D01*
X36230075Y-2023841D01*
X36621866Y-2285596D01*
X36808000Y-2244180D01*
X36808000Y-1434000D01*
X35994506Y-1434000D01*
X35956376Y-1620139D01*
X35719624Y-1620139D01*
X35681494Y-1434000D01*
X34868000Y-1434000D01*
X34268000Y-1434000D01*
X34248000Y-1434000D01*
X34248000Y-834000D01*
X34268000Y-834000D01*
X34268000Y-814000D01*
X34868000Y-814000D01*
X34868000Y-834000D01*
X35681494Y-834000D01*
X35719624Y-647861D01*
X35704125Y-625000D01*
X35971875Y-625000D01*
X35956376Y-647861D01*
X35994506Y-834000D01*
X36808000Y-834000D01*
X36808000Y-814000D01*
X37408000Y-814000D01*
X37408000Y-834000D01*
X37428000Y-834000D01*
X37428000Y-1434000D01*
X37408000Y-1434000D01*
X37408000Y-2244180D01*
X37594134Y-2285596D01*
X37985925Y-2023841D01*
X38259624Y-1620139D01*
X38221494Y-1434002D01*
X38280247Y-1434002D01*
X38329229Y-1680253D01*
X38638657Y-2143343D01*
X39101747Y-2452771D01*
X39510115Y-2534000D01*
X39785885Y-2534000D01*
X40194253Y-2452771D01*
X40657343Y-2143343D01*
X40918000Y-1753244D01*
X41178657Y-2143343D01*
X41641747Y-2452771D01*
X42050115Y-2534000D01*
X42325885Y-2534000D01*
X42734253Y-2452771D01*
X43197343Y-2143343D01*
X43458000Y-1753244D01*
X43718657Y-2143343D01*
X44181747Y-2452771D01*
X44590115Y-2534000D01*
X44865885Y-2534000D01*
X45274253Y-2452771D01*
X45737343Y-2143343D01*
X45998000Y-1753244D01*
X46258657Y-2143343D01*
X46721747Y-2452771D01*
X47130115Y-2534000D01*
X47405885Y-2534000D01*
X47814253Y-2452771D01*
X48277343Y-2143343D01*
X48538000Y-1753244D01*
X48798657Y-2143343D01*
X49261747Y-2452771D01*
X49670115Y-2534000D01*
X49945885Y-2534000D01*
X50354253Y-2452771D01*
X50817343Y-2143343D01*
X51078000Y-1753244D01*
X51338657Y-2143343D01*
X51801747Y-2452771D01*
X52210115Y-2534000D01*
X52485885Y-2534000D01*
X52894253Y-2452771D01*
X53357343Y-2143343D01*
X53618000Y-1753244D01*
X53878657Y-2143343D01*
X54341747Y-2452771D01*
X54750115Y-2534000D01*
X55025885Y-2534000D01*
X55434253Y-2452771D01*
X55897343Y-2143343D01*
X56158000Y-1753244D01*
X56418657Y-2143343D01*
X56881747Y-2452771D01*
X57290115Y-2534000D01*
X57565885Y-2534000D01*
X57974253Y-2452771D01*
X58437343Y-2143343D01*
X58746771Y-1680253D01*
X58775862Y-1534000D01*
X66338000Y-1534000D01*
X66338000Y-2063565D01*
X66398896Y-2210582D01*
X66511418Y-2323104D01*
X66658435Y-2384000D01*
X67188000Y-2384000D01*
X67288000Y-2284000D01*
X67288000Y-1434000D01*
X67888000Y-1434000D01*
X67888000Y-2284000D01*
X67988000Y-2384000D01*
X68517565Y-2384000D01*
X68664582Y-2323104D01*
X68777104Y-2210582D01*
X68838000Y-2063565D01*
X68838000Y-1534000D01*
X68738000Y-1434000D01*
X67888000Y-1434000D01*
X67288000Y-1434000D01*
X66438000Y-1434000D01*
X66338000Y-1534000D01*
X58775862Y-1534000D01*
X58855427Y-1134000D01*
X58754181Y-625000D01*
X66338000Y-625000D01*
X66338000Y-734000D01*
X66438000Y-834000D01*
X67288000Y-834000D01*
X67288000Y-814000D01*
X67888000Y-814000D01*
X67888000Y-834000D01*
X68738000Y-834000D01*
X68838000Y-734000D01*
X68838000Y-625000D01*
X99375000Y-625000D01*
X99375001Y-49275000D01*
X70625000Y-49275000D01*
X70625000Y-48061555D01*
X70637244Y-48000000D01*
X70588737Y-47756137D01*
X70450600Y-47549400D01*
X70400000Y-47515590D01*
X70400000Y-45400000D01*
X70300000Y-45300000D01*
X68100000Y-45300000D01*
X68100000Y-45320000D01*
X67500000Y-45320000D01*
X67500000Y-45300000D01*
X67480000Y-45300000D01*
X67480000Y-44700000D01*
X67500000Y-44700000D01*
X67500000Y-42100000D01*
X68100000Y-42100000D01*
X68100000Y-44700000D01*
X70300000Y-44700000D01*
X70400000Y-44600000D01*
X70400000Y-42320435D01*
X70339104Y-42173418D01*
X70226582Y-42060896D01*
X70079565Y-42000000D01*
X68200000Y-42000000D01*
X68100000Y-42100000D01*
X67500000Y-42100000D01*
X67400000Y-42000000D01*
X65520435Y-42000000D01*
X65373418Y-42060896D01*
X65290381Y-42143933D01*
X65196528Y-42003472D01*
X65014599Y-41881911D01*
X64800000Y-41839225D01*
X63200000Y-41839225D01*
X62985401Y-41881911D01*
X62803472Y-42003472D01*
X62709619Y-42143933D01*
X62626582Y-42060896D01*
X62479565Y-42000000D01*
X60600000Y-42000000D01*
X60500000Y-42100000D01*
X60500000Y-44700000D01*
X60520000Y-44700000D01*
X60520000Y-45300000D01*
X60500000Y-45300000D01*
X60500000Y-45320000D01*
X59900000Y-45320000D01*
X59900000Y-45300000D01*
X57700000Y-45300000D01*
X57600000Y-45400000D01*
X57600000Y-47515590D01*
X57549400Y-47549400D01*
X57411263Y-47756137D01*
X57362756Y-48000000D01*
X57375001Y-48061560D01*
X57375000Y-49275000D01*
X38625000Y-49275000D01*
X38625000Y-48061555D01*
X38637244Y-48000000D01*
X38588737Y-47756137D01*
X38450600Y-47549400D01*
X38400000Y-47515590D01*
X38400000Y-45400000D01*
X38300000Y-45300000D01*
X36100000Y-45300000D01*
X36100000Y-45320000D01*
X35500000Y-45320000D01*
X35500000Y-45300000D01*
X35480000Y-45300000D01*
X35480000Y-44700000D01*
X35500000Y-44700000D01*
X35500000Y-42100000D01*
X36100000Y-42100000D01*
X36100000Y-44700000D01*
X38300000Y-44700000D01*
X38388967Y-44611033D01*
X39150000Y-44611033D01*
X39150000Y-44988967D01*
X39294629Y-45338132D01*
X39561868Y-45605371D01*
X39911033Y-45750000D01*
X40288967Y-45750000D01*
X40638132Y-45605371D01*
X40751716Y-45491787D01*
X50450510Y-45491787D01*
X50450510Y-46108213D01*
X50686406Y-46677715D01*
X51122285Y-47113594D01*
X51691787Y-47349490D01*
X52308213Y-47349490D01*
X52877715Y-47113594D01*
X53313594Y-46677715D01*
X53549490Y-46108213D01*
X53549490Y-45491787D01*
X53313594Y-44922285D01*
X52877715Y-44486406D01*
X52308213Y-44250510D01*
X51691787Y-44250510D01*
X51122285Y-44486406D01*
X50686406Y-44922285D01*
X50450510Y-45491787D01*
X40751716Y-45491787D01*
X40905371Y-45338132D01*
X41050000Y-44988967D01*
X41050000Y-44611033D01*
X40905371Y-44261868D01*
X40638132Y-43994629D01*
X40288967Y-43850000D01*
X39911033Y-43850000D01*
X39561868Y-43994629D01*
X39294629Y-44261868D01*
X39150000Y-44611033D01*
X38388967Y-44611033D01*
X38400000Y-44600000D01*
X38400000Y-43211033D01*
X52350000Y-43211033D01*
X52350000Y-43588967D01*
X52494629Y-43938132D01*
X52761868Y-44205371D01*
X53111033Y-44350000D01*
X53488967Y-44350000D01*
X53838132Y-44205371D01*
X54105371Y-43938132D01*
X54250000Y-43588967D01*
X54250000Y-43211033D01*
X54105371Y-42861868D01*
X53838132Y-42594629D01*
X53488967Y-42450000D01*
X53111033Y-42450000D01*
X52761868Y-42594629D01*
X52494629Y-42861868D01*
X52350000Y-43211033D01*
X38400000Y-43211033D01*
X38400000Y-42320435D01*
X57600000Y-42320435D01*
X57600000Y-44600000D01*
X57700000Y-44700000D01*
X59900000Y-44700000D01*
X59900000Y-42100000D01*
X59800000Y-42000000D01*
X57920435Y-42000000D01*
X57773418Y-42060896D01*
X57660896Y-42173418D01*
X57600000Y-42320435D01*
X38400000Y-42320435D01*
X38339104Y-42173418D01*
X38226582Y-42060896D01*
X38079565Y-42000000D01*
X36200000Y-42000000D01*
X36100000Y-42100000D01*
X35500000Y-42100000D01*
X35400000Y-42000000D01*
X33520435Y-42000000D01*
X33373418Y-42060896D01*
X33290381Y-42143933D01*
X33196528Y-42003472D01*
X33014599Y-41881911D01*
X32800000Y-41839225D01*
X31200000Y-41839225D01*
X30985401Y-41881911D01*
X30803472Y-42003472D01*
X30709619Y-42143933D01*
X30626582Y-42060896D01*
X30479565Y-42000000D01*
X28600000Y-42000000D01*
X28500000Y-42100000D01*
X28500000Y-44700000D01*
X28520000Y-44700000D01*
X28520000Y-45300000D01*
X28500000Y-45300000D01*
X28500000Y-45320000D01*
X27900000Y-45320000D01*
X27900000Y-45300000D01*
X25700000Y-45300000D01*
X25600000Y-45400000D01*
X25600000Y-47515590D01*
X25549400Y-47549400D01*
X25411263Y-47756137D01*
X25362756Y-48000000D01*
X25375001Y-48061560D01*
X25375000Y-49275000D01*
X16762977Y-49275000D01*
X17263953Y-49067489D01*
X17767489Y-48563953D01*
X18040000Y-47906053D01*
X18040000Y-47193947D01*
X17767489Y-46536047D01*
X17263953Y-46032511D01*
X16606053Y-45760000D01*
X15893947Y-45760000D01*
X15236047Y-46032511D01*
X14732511Y-46536047D01*
X14460000Y-47193947D01*
X14460000Y-47906053D01*
X14732511Y-48563953D01*
X15236047Y-49067489D01*
X15737023Y-49275000D01*
X8158453Y-49275000D01*
X8741296Y-49033579D01*
X9233579Y-48541296D01*
X9500000Y-47898097D01*
X9500000Y-47201903D01*
X9233579Y-46558704D01*
X9005654Y-46330779D01*
X10493485Y-46330779D01*
X10754866Y-46624170D01*
X11700800Y-46931357D01*
X12692284Y-46853168D01*
X13245134Y-46624170D01*
X13506515Y-46330779D01*
X12000000Y-44824264D01*
X10493485Y-46330779D01*
X9005654Y-46330779D01*
X8741296Y-46066421D01*
X8098097Y-45800000D01*
X7401903Y-45800000D01*
X6758704Y-46066421D01*
X6266421Y-46558704D01*
X6000000Y-47201903D01*
X6000000Y-47898097D01*
X6266421Y-48541296D01*
X6758704Y-49033579D01*
X7341547Y-49275000D01*
X625000Y-49275000D01*
X625000Y-44100800D01*
X9468643Y-44100800D01*
X9546832Y-45092284D01*
X9775830Y-45645134D01*
X10069221Y-45906515D01*
X11575736Y-44400000D01*
X12424264Y-44400000D01*
X13930779Y-45906515D01*
X14224170Y-45645134D01*
X14531357Y-44699200D01*
X14453168Y-43707716D01*
X14224170Y-43154866D01*
X13930779Y-42893485D01*
X12424264Y-44400000D01*
X11575736Y-44400000D01*
X10069221Y-42893485D01*
X9775830Y-43154866D01*
X9468643Y-44100800D01*
X625000Y-44100800D01*
X625000Y-39442501D01*
X9700000Y-39442501D01*
X9700000Y-40357499D01*
X10050154Y-41202846D01*
X10697154Y-41849846D01*
X11119508Y-42024790D01*
X10754866Y-42175830D01*
X10493485Y-42469221D01*
X12000000Y-43975736D01*
X13506515Y-42469221D01*
X13373963Y-42320435D01*
X25600000Y-42320435D01*
X25600000Y-44600000D01*
X25700000Y-44700000D01*
X27900000Y-44700000D01*
X27900000Y-42100000D01*
X27800000Y-42000000D01*
X25920435Y-42000000D01*
X25773418Y-42060896D01*
X25660896Y-42173418D01*
X25600000Y-42320435D01*
X13373963Y-42320435D01*
X13245134Y-42175830D01*
X12836344Y-42043078D01*
X13302846Y-41849846D01*
X13949846Y-41202846D01*
X13979636Y-41130925D01*
X46950000Y-41130925D01*
X46950000Y-41469075D01*
X47079405Y-41781486D01*
X47318514Y-42020595D01*
X47630925Y-42150000D01*
X47969075Y-42150000D01*
X48281486Y-42020595D01*
X48520595Y-41781486D01*
X48650000Y-41469075D01*
X48650000Y-41350000D01*
X48988967Y-41350000D01*
X49338132Y-41205371D01*
X49605371Y-40938132D01*
X49750000Y-40588967D01*
X49750000Y-40211033D01*
X49605371Y-39861868D01*
X49354536Y-39611033D01*
X59750000Y-39611033D01*
X59750000Y-39988967D01*
X59894629Y-40338132D01*
X60161868Y-40605371D01*
X60511033Y-40750000D01*
X60888967Y-40750000D01*
X61238132Y-40605371D01*
X61505371Y-40338132D01*
X61650000Y-39988967D01*
X61650000Y-39611033D01*
X61505371Y-39261868D01*
X61243503Y-39000000D01*
X78439225Y-39000000D01*
X78439225Y-41200000D01*
X78481911Y-41414599D01*
X78603472Y-41596528D01*
X78785401Y-41718089D01*
X79000000Y-41760775D01*
X79952206Y-41760775D01*
X79489250Y-42223731D01*
X79199990Y-42922065D01*
X79199990Y-43677935D01*
X79489250Y-44376269D01*
X80023731Y-44910750D01*
X80722065Y-45200010D01*
X81477935Y-45200010D01*
X82176269Y-44910750D01*
X82710750Y-44376269D01*
X83000010Y-43677935D01*
X83000010Y-42922065D01*
X82710750Y-42223731D01*
X82247794Y-41760775D01*
X83200000Y-41760775D01*
X83414599Y-41718089D01*
X83596528Y-41596528D01*
X83718089Y-41414599D01*
X83760775Y-41200000D01*
X83760775Y-39000000D01*
X83718089Y-38785401D01*
X83596528Y-38603472D01*
X83414599Y-38481911D01*
X83200000Y-38439225D01*
X79000000Y-38439225D01*
X78785401Y-38481911D01*
X78603472Y-38603472D01*
X78481911Y-38785401D01*
X78439225Y-39000000D01*
X61243503Y-39000000D01*
X61238132Y-38994629D01*
X60888967Y-38850000D01*
X60511033Y-38850000D01*
X60161868Y-38994629D01*
X59894629Y-39261868D01*
X59750000Y-39611033D01*
X49354536Y-39611033D01*
X49338132Y-39594629D01*
X48988967Y-39450000D01*
X48611033Y-39450000D01*
X48261868Y-39594629D01*
X47994629Y-39861868D01*
X47850000Y-40211033D01*
X47850000Y-40450000D01*
X47630925Y-40450000D01*
X47318514Y-40579405D01*
X47079405Y-40818514D01*
X46950000Y-41130925D01*
X13979636Y-41130925D01*
X14300000Y-40357499D01*
X14300000Y-39442501D01*
X13949846Y-38597154D01*
X13302846Y-37950154D01*
X12457499Y-37600000D01*
X11542501Y-37600000D01*
X10697154Y-37950154D01*
X10050154Y-38597154D01*
X9700000Y-39442501D01*
X625000Y-39442501D01*
X625000Y-36030925D01*
X50750000Y-36030925D01*
X50750000Y-36369075D01*
X50879405Y-36681486D01*
X51118514Y-36920595D01*
X51162719Y-36938905D01*
X51050000Y-37211033D01*
X51050000Y-37588967D01*
X51194629Y-37938132D01*
X51461868Y-38205371D01*
X51811033Y-38350000D01*
X52188967Y-38350000D01*
X52538132Y-38205371D01*
X52805371Y-37938132D01*
X52950000Y-37588967D01*
X52950000Y-37211033D01*
X52805371Y-36861868D01*
X52538132Y-36594629D01*
X52383161Y-36530438D01*
X52450000Y-36369075D01*
X52450000Y-36030925D01*
X52320595Y-35718514D01*
X52081486Y-35479405D01*
X51769075Y-35350000D01*
X51430925Y-35350000D01*
X51118514Y-35479405D01*
X50879405Y-35718514D01*
X50750000Y-36030925D01*
X625000Y-36030925D01*
X625000Y-35200000D01*
X78439225Y-35200000D01*
X78439225Y-37400000D01*
X78481911Y-37614599D01*
X78603472Y-37796528D01*
X78785401Y-37918089D01*
X79000000Y-37960775D01*
X83200000Y-37960775D01*
X83414599Y-37918089D01*
X83596528Y-37796528D01*
X83718089Y-37614599D01*
X83760775Y-37400000D01*
X83760775Y-35200000D01*
X83718089Y-34985401D01*
X83596528Y-34803472D01*
X83414599Y-34681911D01*
X83200000Y-34639225D01*
X82287794Y-34639225D01*
X82710750Y-34216269D01*
X83000010Y-33517935D01*
X83000010Y-32762065D01*
X82710750Y-32063731D01*
X82176269Y-31529250D01*
X81477935Y-31239990D01*
X80722065Y-31239990D01*
X80023731Y-31529250D01*
X79489250Y-32063731D01*
X79199990Y-32762065D01*
X79199990Y-33517935D01*
X79489250Y-34216269D01*
X79912206Y-34639225D01*
X79000000Y-34639225D01*
X78785401Y-34681911D01*
X78603472Y-34803472D01*
X78481911Y-34985401D01*
X78439225Y-35200000D01*
X625000Y-35200000D01*
X625000Y-32830925D01*
X22650000Y-32830925D01*
X22650000Y-33169075D01*
X22779405Y-33481486D01*
X23018514Y-33720595D01*
X23330925Y-33850000D01*
X23669075Y-33850000D01*
X23981486Y-33720595D01*
X24220595Y-33481486D01*
X24350000Y-33169075D01*
X24350000Y-32830925D01*
X24267158Y-32630925D01*
X34350000Y-32630925D01*
X34350000Y-32969075D01*
X34479405Y-33281486D01*
X34718514Y-33520595D01*
X35030925Y-33650000D01*
X35369075Y-33650000D01*
X35681486Y-33520595D01*
X35920595Y-33281486D01*
X36050000Y-32969075D01*
X36050000Y-32630925D01*
X35920595Y-32318514D01*
X35681486Y-32079405D01*
X35369075Y-31950000D01*
X35030925Y-31950000D01*
X34718514Y-32079405D01*
X34479405Y-32318514D01*
X34350000Y-32630925D01*
X24267158Y-32630925D01*
X24220595Y-32518514D01*
X23981486Y-32279405D01*
X23669075Y-32150000D01*
X23330925Y-32150000D01*
X23018514Y-32279405D01*
X22779405Y-32518514D01*
X22650000Y-32830925D01*
X625000Y-32830925D01*
X625000Y-30791142D01*
X89450000Y-30791142D01*
X89450000Y-31208858D01*
X89609853Y-31594777D01*
X89905223Y-31890147D01*
X90291142Y-32050000D01*
X90708858Y-32050000D01*
X91094777Y-31890147D01*
X91390147Y-31594777D01*
X91550000Y-31208858D01*
X91550000Y-30791142D01*
X91390147Y-30405223D01*
X91094777Y-30109853D01*
X90708858Y-29950000D01*
X90291142Y-29950000D01*
X89905223Y-30109853D01*
X89609853Y-30405223D01*
X89450000Y-30791142D01*
X625000Y-30791142D01*
X625000Y-28211033D01*
X38550000Y-28211033D01*
X38550000Y-28588967D01*
X38694629Y-28938132D01*
X38961868Y-29205371D01*
X39311033Y-29350000D01*
X39688967Y-29350000D01*
X40038132Y-29205371D01*
X40305371Y-28938132D01*
X40450000Y-28588967D01*
X40450000Y-28211033D01*
X40305371Y-27861868D01*
X40038132Y-27594629D01*
X40029714Y-27591142D01*
X72850000Y-27591142D01*
X72850000Y-28008858D01*
X73009853Y-28394777D01*
X73305223Y-28690147D01*
X73691142Y-28850000D01*
X74108858Y-28850000D01*
X74494777Y-28690147D01*
X74790147Y-28394777D01*
X74950000Y-28008858D01*
X74950000Y-27591142D01*
X74890131Y-27446604D01*
X77045000Y-27446604D01*
X77045000Y-28033396D01*
X77269555Y-28575520D01*
X77684480Y-28990445D01*
X78226604Y-29215000D01*
X78813396Y-29215000D01*
X79355520Y-28990445D01*
X79770445Y-28575520D01*
X79790000Y-28528310D01*
X79809555Y-28575520D01*
X80224480Y-28990445D01*
X80766604Y-29215000D01*
X81353396Y-29215000D01*
X81895520Y-28990445D01*
X82310445Y-28575520D01*
X82330000Y-28528310D01*
X82349555Y-28575520D01*
X82764480Y-28990445D01*
X83306604Y-29215000D01*
X83893396Y-29215000D01*
X84435520Y-28990445D01*
X84850445Y-28575520D01*
X85075000Y-28033396D01*
X85075000Y-27446604D01*
X87205000Y-27446604D01*
X87205000Y-28033396D01*
X87429555Y-28575520D01*
X87844480Y-28990445D01*
X88386604Y-29215000D01*
X88973396Y-29215000D01*
X89515520Y-28990445D01*
X89930445Y-28575520D01*
X90155000Y-28033396D01*
X90155000Y-27446604D01*
X89930445Y-26904480D01*
X89515520Y-26489555D01*
X88973396Y-26265000D01*
X88386604Y-26265000D01*
X87844480Y-26489555D01*
X87429555Y-26904480D01*
X87205000Y-27446604D01*
X85075000Y-27446604D01*
X84850445Y-26904480D01*
X84435520Y-26489555D01*
X83893396Y-26265000D01*
X83306604Y-26265000D01*
X82764480Y-26489555D01*
X82349555Y-26904480D01*
X82330000Y-26951690D01*
X82310445Y-26904480D01*
X81895520Y-26489555D01*
X81353396Y-26265000D01*
X80766604Y-26265000D01*
X80224480Y-26489555D01*
X79809555Y-26904480D01*
X79790000Y-26951690D01*
X79770445Y-26904480D01*
X79355520Y-26489555D01*
X78813396Y-26265000D01*
X78226604Y-26265000D01*
X77684480Y-26489555D01*
X77269555Y-26904480D01*
X77045000Y-27446604D01*
X74890131Y-27446604D01*
X74790147Y-27205223D01*
X74494777Y-26909853D01*
X74108858Y-26750000D01*
X73691142Y-26750000D01*
X73305223Y-26909853D01*
X73009853Y-27205223D01*
X72850000Y-27591142D01*
X40029714Y-27591142D01*
X39688967Y-27450000D01*
X39311033Y-27450000D01*
X38961868Y-27594629D01*
X38694629Y-27861868D01*
X38550000Y-28211033D01*
X625000Y-28211033D01*
X625000Y-23630925D01*
X48550000Y-23630925D01*
X48550000Y-23969075D01*
X48679405Y-24281486D01*
X48918514Y-24520595D01*
X49230925Y-24650000D01*
X49569075Y-24650000D01*
X49881486Y-24520595D01*
X50120595Y-24281486D01*
X50250000Y-23969075D01*
X50250000Y-23630925D01*
X50120595Y-23318514D01*
X49881486Y-23079405D01*
X49569075Y-22950000D01*
X49230925Y-22950000D01*
X48918514Y-23079405D01*
X48679405Y-23318514D01*
X48550000Y-23630925D01*
X625000Y-23630925D01*
X625000Y-22366604D01*
X77045000Y-22366604D01*
X77045000Y-22953396D01*
X77269555Y-23495520D01*
X77684480Y-23910445D01*
X78226604Y-24135000D01*
X78813396Y-24135000D01*
X79355520Y-23910445D01*
X79770445Y-23495520D01*
X79790000Y-23448310D01*
X79809555Y-23495520D01*
X80224480Y-23910445D01*
X80766604Y-24135000D01*
X81353396Y-24135000D01*
X81895520Y-23910445D01*
X82310445Y-23495520D01*
X82330000Y-23448310D01*
X82349555Y-23495520D01*
X82764480Y-23910445D01*
X83306604Y-24135000D01*
X83893396Y-24135000D01*
X84435520Y-23910445D01*
X84850445Y-23495520D01*
X85075000Y-22953396D01*
X85075000Y-22366604D01*
X87205000Y-22366604D01*
X87205000Y-22953396D01*
X87429555Y-23495520D01*
X87844480Y-23910445D01*
X88386604Y-24135000D01*
X88973396Y-24135000D01*
X89515520Y-23910445D01*
X89930445Y-23495520D01*
X90155000Y-22953396D01*
X90155000Y-22366604D01*
X89930445Y-21824480D01*
X89515520Y-21409555D01*
X88973396Y-21185000D01*
X88386604Y-21185000D01*
X87844480Y-21409555D01*
X87429555Y-21824480D01*
X87205000Y-22366604D01*
X85075000Y-22366604D01*
X84850445Y-21824480D01*
X84435520Y-21409555D01*
X83893396Y-21185000D01*
X83306604Y-21185000D01*
X82764480Y-21409555D01*
X82349555Y-21824480D01*
X82330000Y-21871690D01*
X82310445Y-21824480D01*
X81895520Y-21409555D01*
X81353396Y-21185000D01*
X80766604Y-21185000D01*
X80224480Y-21409555D01*
X79809555Y-21824480D01*
X79790000Y-21871690D01*
X79770445Y-21824480D01*
X79355520Y-21409555D01*
X78813396Y-21185000D01*
X78226604Y-21185000D01*
X77684480Y-21409555D01*
X77269555Y-21824480D01*
X77045000Y-22366604D01*
X625000Y-22366604D01*
X625000Y-14706604D01*
X7985000Y-14706604D01*
X7985000Y-15293396D01*
X8209555Y-15835520D01*
X8624480Y-16250445D01*
X8671690Y-16270000D01*
X8624480Y-16289555D01*
X8209555Y-16704480D01*
X7985000Y-17246604D01*
X7985000Y-17833396D01*
X8209555Y-18375520D01*
X8624480Y-18790445D01*
X8671690Y-18810000D01*
X8624480Y-18829555D01*
X8209555Y-19244480D01*
X7985000Y-19786604D01*
X7985000Y-20373396D01*
X8209555Y-20915520D01*
X8624480Y-21330445D01*
X9166604Y-21555000D01*
X9753396Y-21555000D01*
X10295520Y-21330445D01*
X10710445Y-20915520D01*
X10935000Y-20373396D01*
X10935000Y-19786604D01*
X10710445Y-19244480D01*
X10295520Y-18829555D01*
X10248310Y-18810000D01*
X10295520Y-18790445D01*
X10710445Y-18375520D01*
X10935000Y-17833396D01*
X10935000Y-17246604D01*
X10710445Y-16704480D01*
X10295520Y-16289555D01*
X10248310Y-16270000D01*
X10295520Y-16250445D01*
X10710445Y-15835520D01*
X10935000Y-15293396D01*
X10935000Y-14706604D01*
X13065000Y-14706604D01*
X13065000Y-15293396D01*
X13289555Y-15835520D01*
X13704480Y-16250445D01*
X13751690Y-16270000D01*
X13704480Y-16289555D01*
X13289555Y-16704480D01*
X13065000Y-17246604D01*
X13065000Y-17833396D01*
X13289555Y-18375520D01*
X13704480Y-18790445D01*
X13751690Y-18810000D01*
X13704480Y-18829555D01*
X13289555Y-19244480D01*
X13065000Y-19786604D01*
X13065000Y-20373396D01*
X13289555Y-20915520D01*
X13704480Y-21330445D01*
X14246604Y-21555000D01*
X14833396Y-21555000D01*
X15375520Y-21330445D01*
X15790445Y-20915520D01*
X16015000Y-20373396D01*
X16015000Y-19786604D01*
X15790445Y-19244480D01*
X15375520Y-18829555D01*
X15328310Y-18810000D01*
X15375520Y-18790445D01*
X15790445Y-18375520D01*
X16015000Y-17833396D01*
X16015000Y-17246604D01*
X15790445Y-16704480D01*
X15375520Y-16289555D01*
X15328310Y-16270000D01*
X15375520Y-16250445D01*
X15790445Y-15835520D01*
X16015000Y-15293396D01*
X16015000Y-14706604D01*
X20985000Y-14706604D01*
X20985000Y-15293396D01*
X21209555Y-15835520D01*
X21624480Y-16250445D01*
X21671690Y-16270000D01*
X21624480Y-16289555D01*
X21209555Y-16704480D01*
X20985000Y-17246604D01*
X20985000Y-17833396D01*
X21209555Y-18375520D01*
X21624480Y-18790445D01*
X21671690Y-18810000D01*
X21624480Y-18829555D01*
X21209555Y-19244480D01*
X20985000Y-19786604D01*
X20985000Y-20373396D01*
X21209555Y-20915520D01*
X21624480Y-21330445D01*
X22166604Y-21555000D01*
X22753396Y-21555000D01*
X23295520Y-21330445D01*
X23710445Y-20915520D01*
X23935000Y-20373396D01*
X23935000Y-19786604D01*
X23710445Y-19244480D01*
X23295520Y-18829555D01*
X23248310Y-18810000D01*
X23295520Y-18790445D01*
X23710445Y-18375520D01*
X23935000Y-17833396D01*
X23935000Y-17246604D01*
X23710445Y-16704480D01*
X23295520Y-16289555D01*
X23248310Y-16270000D01*
X23295520Y-16250445D01*
X23710445Y-15835520D01*
X23935000Y-15293396D01*
X23935000Y-14706604D01*
X26065000Y-14706604D01*
X26065000Y-15293396D01*
X26289555Y-15835520D01*
X26704480Y-16250445D01*
X26751690Y-16270000D01*
X26704480Y-16289555D01*
X26289555Y-16704480D01*
X26065000Y-17246604D01*
X26065000Y-17833396D01*
X26289555Y-18375520D01*
X26704480Y-18790445D01*
X26751690Y-18810000D01*
X26704480Y-18829555D01*
X26289555Y-19244480D01*
X26065000Y-19786604D01*
X26065000Y-20373396D01*
X26289555Y-20915520D01*
X26704480Y-21330445D01*
X27246604Y-21555000D01*
X27833396Y-21555000D01*
X28375520Y-21330445D01*
X28790445Y-20915520D01*
X29015000Y-20373396D01*
X29015000Y-19786604D01*
X28790445Y-19244480D01*
X28375520Y-18829555D01*
X28328310Y-18810000D01*
X28375520Y-18790445D01*
X28790445Y-18375520D01*
X29015000Y-17833396D01*
X29015000Y-17246604D01*
X28790445Y-16704480D01*
X28375520Y-16289555D01*
X28328310Y-16270000D01*
X28375520Y-16250445D01*
X28790445Y-15835520D01*
X29015000Y-15293396D01*
X29015000Y-14706604D01*
X33985000Y-14706604D01*
X33985000Y-15293396D01*
X34209555Y-15835520D01*
X34624480Y-16250445D01*
X34671690Y-16270000D01*
X34624480Y-16289555D01*
X34209555Y-16704480D01*
X33985000Y-17246604D01*
X33985000Y-17833396D01*
X34209555Y-18375520D01*
X34624480Y-18790445D01*
X34671690Y-18810000D01*
X34624480Y-18829555D01*
X34209555Y-19244480D01*
X33985000Y-19786604D01*
X33985000Y-20373396D01*
X34209555Y-20915520D01*
X34624480Y-21330445D01*
X35166604Y-21555000D01*
X35753396Y-21555000D01*
X36295520Y-21330445D01*
X36710445Y-20915520D01*
X36935000Y-20373396D01*
X36935000Y-19786604D01*
X36710445Y-19244480D01*
X36295520Y-18829555D01*
X36248310Y-18810000D01*
X36295520Y-18790445D01*
X36710445Y-18375520D01*
X36935000Y-17833396D01*
X36935000Y-17246604D01*
X36710445Y-16704480D01*
X36295520Y-16289555D01*
X36248310Y-16270000D01*
X36295520Y-16250445D01*
X36710445Y-15835520D01*
X36935000Y-15293396D01*
X36935000Y-14706604D01*
X39065000Y-14706604D01*
X39065000Y-15293396D01*
X39289555Y-15835520D01*
X39704480Y-16250445D01*
X39751690Y-16270000D01*
X39704480Y-16289555D01*
X39289555Y-16704480D01*
X39065000Y-17246604D01*
X39065000Y-17833396D01*
X39289555Y-18375520D01*
X39704480Y-18790445D01*
X39751690Y-18810000D01*
X39704480Y-18829555D01*
X39289555Y-19244480D01*
X39065000Y-19786604D01*
X39065000Y-20373396D01*
X39289555Y-20915520D01*
X39704480Y-21330445D01*
X40246604Y-21555000D01*
X40833396Y-21555000D01*
X41375520Y-21330445D01*
X41790445Y-20915520D01*
X42015000Y-20373396D01*
X42015000Y-19786604D01*
X41790445Y-19244480D01*
X41375520Y-18829555D01*
X41328310Y-18810000D01*
X41375520Y-18790445D01*
X41790445Y-18375520D01*
X42015000Y-17833396D01*
X42015000Y-17246604D01*
X41790445Y-16704480D01*
X41375520Y-16289555D01*
X41328310Y-16270000D01*
X41375520Y-16250445D01*
X41790445Y-15835520D01*
X41958033Y-15430925D01*
X42150000Y-15430925D01*
X42150000Y-15769075D01*
X42279405Y-16081486D01*
X42518514Y-16320595D01*
X42830925Y-16450000D01*
X43169075Y-16450000D01*
X43481486Y-16320595D01*
X43720595Y-16081486D01*
X43850000Y-15769075D01*
X43850000Y-15430925D01*
X43723538Y-15125619D01*
X43918514Y-15320595D01*
X44230925Y-15450000D01*
X44569075Y-15450000D01*
X44881486Y-15320595D01*
X45120595Y-15081486D01*
X45250000Y-14769075D01*
X45250000Y-14706604D01*
X46985000Y-14706604D01*
X46985000Y-15293396D01*
X47209555Y-15835520D01*
X47624480Y-16250445D01*
X47671690Y-16270000D01*
X47624480Y-16289555D01*
X47209555Y-16704480D01*
X46985000Y-17246604D01*
X46985000Y-17833396D01*
X47209555Y-18375520D01*
X47624480Y-18790445D01*
X47671690Y-18810000D01*
X47624480Y-18829555D01*
X47209555Y-19244480D01*
X46985000Y-19786604D01*
X46985000Y-20373396D01*
X47209555Y-20915520D01*
X47624480Y-21330445D01*
X48166604Y-21555000D01*
X48753396Y-21555000D01*
X49295520Y-21330445D01*
X49710445Y-20915520D01*
X49935000Y-20373396D01*
X49935000Y-19786604D01*
X49710445Y-19244480D01*
X49295520Y-18829555D01*
X49248310Y-18810000D01*
X49295520Y-18790445D01*
X49710445Y-18375520D01*
X49935000Y-17833396D01*
X49935000Y-17246604D01*
X49710445Y-16704480D01*
X49295520Y-16289555D01*
X49248310Y-16270000D01*
X49295520Y-16250445D01*
X49710445Y-15835520D01*
X49935000Y-15293396D01*
X49935000Y-14706604D01*
X52065000Y-14706604D01*
X52065000Y-15293396D01*
X52289555Y-15835520D01*
X52704480Y-16250445D01*
X52751690Y-16270000D01*
X52704480Y-16289555D01*
X52289555Y-16704480D01*
X52065000Y-17246604D01*
X52065000Y-17833396D01*
X52289555Y-18375520D01*
X52704480Y-18790445D01*
X52751690Y-18810000D01*
X52704480Y-18829555D01*
X52289555Y-19244480D01*
X52065000Y-19786604D01*
X52065000Y-20373396D01*
X52289555Y-20915520D01*
X52704480Y-21330445D01*
X53246604Y-21555000D01*
X53833396Y-21555000D01*
X54375520Y-21330445D01*
X54790445Y-20915520D01*
X55015000Y-20373396D01*
X55015000Y-19786604D01*
X54790445Y-19244480D01*
X54375520Y-18829555D01*
X54328310Y-18810000D01*
X54375520Y-18790445D01*
X54790445Y-18375520D01*
X55015000Y-17833396D01*
X55015000Y-17246604D01*
X54790445Y-16704480D01*
X54375520Y-16289555D01*
X54328310Y-16270000D01*
X54375520Y-16250445D01*
X54790445Y-15835520D01*
X55015000Y-15293396D01*
X55015000Y-14706604D01*
X54790445Y-14164480D01*
X54375520Y-13749555D01*
X53833396Y-13525000D01*
X53246604Y-13525000D01*
X52704480Y-13749555D01*
X52289555Y-14164480D01*
X52065000Y-14706604D01*
X49935000Y-14706604D01*
X49710445Y-14164480D01*
X49295520Y-13749555D01*
X48753396Y-13525000D01*
X48166604Y-13525000D01*
X47624480Y-13749555D01*
X47209555Y-14164480D01*
X46985000Y-14706604D01*
X45250000Y-14706604D01*
X45250000Y-14430925D01*
X45120595Y-14118514D01*
X44881486Y-13879405D01*
X44569075Y-13750000D01*
X44230925Y-13750000D01*
X43918514Y-13879405D01*
X43679405Y-14118514D01*
X43550000Y-14430925D01*
X43550000Y-14769075D01*
X43676462Y-15074381D01*
X43481486Y-14879405D01*
X43169075Y-14750000D01*
X42830925Y-14750000D01*
X42518514Y-14879405D01*
X42279405Y-15118514D01*
X42150000Y-15430925D01*
X41958033Y-15430925D01*
X42015000Y-15293396D01*
X42015000Y-14706604D01*
X41790445Y-14164480D01*
X41375520Y-13749555D01*
X40833396Y-13525000D01*
X40246604Y-13525000D01*
X39704480Y-13749555D01*
X39289555Y-14164480D01*
X39065000Y-14706604D01*
X36935000Y-14706604D01*
X36710445Y-14164480D01*
X36295520Y-13749555D01*
X35753396Y-13525000D01*
X35166604Y-13525000D01*
X34624480Y-13749555D01*
X34209555Y-14164480D01*
X33985000Y-14706604D01*
X29015000Y-14706604D01*
X28790445Y-14164480D01*
X28375520Y-13749555D01*
X27833396Y-13525000D01*
X27246604Y-13525000D01*
X26704480Y-13749555D01*
X26289555Y-14164480D01*
X26065000Y-14706604D01*
X23935000Y-14706604D01*
X23710445Y-14164480D01*
X23295520Y-13749555D01*
X22753396Y-13525000D01*
X22166604Y-13525000D01*
X21624480Y-13749555D01*
X21209555Y-14164480D01*
X20985000Y-14706604D01*
X16015000Y-14706604D01*
X15790445Y-14164480D01*
X15375520Y-13749555D01*
X14833396Y-13525000D01*
X14246604Y-13525000D01*
X13704480Y-13749555D01*
X13289555Y-14164480D01*
X13065000Y-14706604D01*
X10935000Y-14706604D01*
X10710445Y-14164480D01*
X10295520Y-13749555D01*
X9753396Y-13525000D01*
X9166604Y-13525000D01*
X8624480Y-13749555D01*
X8209555Y-14164480D01*
X7985000Y-14706604D01*
X625000Y-14706604D01*
X625000Y-13511033D01*
X16650000Y-13511033D01*
X16650000Y-13888967D01*
X16794629Y-14238132D01*
X17061868Y-14505371D01*
X17411033Y-14650000D01*
X17788967Y-14650000D01*
X18138132Y-14505371D01*
X18405371Y-14238132D01*
X18550000Y-13888967D01*
X18550000Y-13511033D01*
X18405371Y-13161868D01*
X18138132Y-12894629D01*
X17788967Y-12750000D01*
X17411033Y-12750000D01*
X17061868Y-12894629D01*
X16794629Y-13161868D01*
X16650000Y-13511033D01*
X625000Y-13511033D01*
X625000Y-12706604D01*
X59985000Y-12706604D01*
X59985000Y-13293396D01*
X60209555Y-13835520D01*
X60624480Y-14250445D01*
X60671690Y-14270000D01*
X60624480Y-14289555D01*
X60209555Y-14704480D01*
X59985000Y-15246604D01*
X59985000Y-15833396D01*
X60209555Y-16375520D01*
X60624480Y-16790445D01*
X60671690Y-16810000D01*
X60624480Y-16829555D01*
X60209555Y-17244480D01*
X59985000Y-17786604D01*
X59985000Y-18373396D01*
X60209555Y-18915520D01*
X60624480Y-19330445D01*
X61166604Y-19555000D01*
X61753396Y-19555000D01*
X62295520Y-19330445D01*
X62710445Y-18915520D01*
X62935000Y-18373396D01*
X62935000Y-17786604D01*
X62710445Y-17244480D01*
X62295520Y-16829555D01*
X62248310Y-16810000D01*
X62295520Y-16790445D01*
X62710445Y-16375520D01*
X62935000Y-15833396D01*
X62935000Y-15246604D01*
X62710445Y-14704480D01*
X62295520Y-14289555D01*
X62248310Y-14270000D01*
X62295520Y-14250445D01*
X62710445Y-13835520D01*
X62935000Y-13293396D01*
X62935000Y-12706604D01*
X65065000Y-12706604D01*
X65065000Y-13293396D01*
X65289555Y-13835520D01*
X65704480Y-14250445D01*
X65751690Y-14270000D01*
X65704480Y-14289555D01*
X65289555Y-14704480D01*
X65065000Y-15246604D01*
X65065000Y-15833396D01*
X65289555Y-16375520D01*
X65704480Y-16790445D01*
X65751690Y-16810000D01*
X65704480Y-16829555D01*
X65289555Y-17244480D01*
X65065000Y-17786604D01*
X65065000Y-18373396D01*
X65289555Y-18915520D01*
X65704480Y-19330445D01*
X66246604Y-19555000D01*
X66833396Y-19555000D01*
X67375520Y-19330445D01*
X67790445Y-18915520D01*
X68015000Y-18373396D01*
X68015000Y-17786604D01*
X67790445Y-17244480D01*
X67375520Y-16829555D01*
X67328310Y-16810000D01*
X67375520Y-16790445D01*
X67790445Y-16375520D01*
X68015000Y-15833396D01*
X68015000Y-15246604D01*
X67790445Y-14704480D01*
X67732569Y-14646604D01*
X72045000Y-14646604D01*
X72045000Y-15233396D01*
X72269555Y-15775520D01*
X72684480Y-16190445D01*
X73226604Y-16415000D01*
X73813396Y-16415000D01*
X74355520Y-16190445D01*
X74770445Y-15775520D01*
X74995000Y-15233396D01*
X74995000Y-14646604D01*
X77125000Y-14646604D01*
X77125000Y-15233396D01*
X77349555Y-15775520D01*
X77764480Y-16190445D01*
X78306604Y-16415000D01*
X78893396Y-16415000D01*
X79435520Y-16190445D01*
X79850445Y-15775520D01*
X79870000Y-15728310D01*
X79889555Y-15775520D01*
X80304480Y-16190445D01*
X80846604Y-16415000D01*
X81433396Y-16415000D01*
X81975520Y-16190445D01*
X82390445Y-15775520D01*
X82410000Y-15728310D01*
X82429555Y-15775520D01*
X82844480Y-16190445D01*
X83386604Y-16415000D01*
X83973396Y-16415000D01*
X84515520Y-16190445D01*
X84930445Y-15775520D01*
X85155000Y-15233396D01*
X85155000Y-14646604D01*
X84930445Y-14104480D01*
X84515520Y-13689555D01*
X83973396Y-13465000D01*
X83386604Y-13465000D01*
X82844480Y-13689555D01*
X82429555Y-14104480D01*
X82410000Y-14151690D01*
X82390445Y-14104480D01*
X81975520Y-13689555D01*
X81433396Y-13465000D01*
X80846604Y-13465000D01*
X80304480Y-13689555D01*
X79889555Y-14104480D01*
X79870000Y-14151690D01*
X79850445Y-14104480D01*
X79435520Y-13689555D01*
X78893396Y-13465000D01*
X78306604Y-13465000D01*
X77764480Y-13689555D01*
X77349555Y-14104480D01*
X77125000Y-14646604D01*
X74995000Y-14646604D01*
X74770445Y-14104480D01*
X74355520Y-13689555D01*
X73813396Y-13465000D01*
X73226604Y-13465000D01*
X72684480Y-13689555D01*
X72269555Y-14104480D01*
X72045000Y-14646604D01*
X67732569Y-14646604D01*
X67375520Y-14289555D01*
X67328310Y-14270000D01*
X67375520Y-14250445D01*
X67790445Y-13835520D01*
X68015000Y-13293396D01*
X68015000Y-12706604D01*
X67790445Y-12164480D01*
X67375520Y-11749555D01*
X66833396Y-11525000D01*
X66246604Y-11525000D01*
X65704480Y-11749555D01*
X65289555Y-12164480D01*
X65065000Y-12706604D01*
X62935000Y-12706604D01*
X62710445Y-12164480D01*
X62295520Y-11749555D01*
X61753396Y-11525000D01*
X61166604Y-11525000D01*
X60624480Y-11749555D01*
X60209555Y-12164480D01*
X59985000Y-12706604D01*
X625000Y-12706604D01*
X625000Y-9626604D01*
X7985000Y-9626604D01*
X7985000Y-10213396D01*
X8209555Y-10755520D01*
X8624480Y-11170445D01*
X9166604Y-11395000D01*
X9753396Y-11395000D01*
X10295520Y-11170445D01*
X10710445Y-10755520D01*
X10935000Y-10213396D01*
X10935000Y-9626604D01*
X13065000Y-9626604D01*
X13065000Y-10213396D01*
X13289555Y-10755520D01*
X13704480Y-11170445D01*
X14246604Y-11395000D01*
X14833396Y-11395000D01*
X15375520Y-11170445D01*
X15790445Y-10755520D01*
X16015000Y-10213396D01*
X16015000Y-9626604D01*
X20985000Y-9626604D01*
X20985000Y-10213396D01*
X21209555Y-10755520D01*
X21624480Y-11170445D01*
X22166604Y-11395000D01*
X22753396Y-11395000D01*
X23295520Y-11170445D01*
X23710445Y-10755520D01*
X23935000Y-10213396D01*
X23935000Y-9626604D01*
X26065000Y-9626604D01*
X26065000Y-10213396D01*
X26289555Y-10755520D01*
X26704480Y-11170445D01*
X27246604Y-11395000D01*
X27833396Y-11395000D01*
X28375520Y-11170445D01*
X28790445Y-10755520D01*
X28842053Y-10630925D01*
X32650000Y-10630925D01*
X32650000Y-10969075D01*
X32779405Y-11281486D01*
X33018514Y-11520595D01*
X33330925Y-11650000D01*
X33669075Y-11650000D01*
X33981486Y-11520595D01*
X34220595Y-11281486D01*
X34350000Y-10969075D01*
X34350000Y-10895965D01*
X34624480Y-11170445D01*
X35166604Y-11395000D01*
X35753396Y-11395000D01*
X36295520Y-11170445D01*
X36710445Y-10755520D01*
X36935000Y-10213396D01*
X36935000Y-9626604D01*
X39065000Y-9626604D01*
X39065000Y-10213396D01*
X39289555Y-10755520D01*
X39704480Y-11170445D01*
X40246604Y-11395000D01*
X40833396Y-11395000D01*
X41375520Y-11170445D01*
X41790445Y-10755520D01*
X41982796Y-10291142D01*
X43850000Y-10291142D01*
X43850000Y-10708858D01*
X44009853Y-11094777D01*
X44305223Y-11390147D01*
X44691142Y-11550000D01*
X45108858Y-11550000D01*
X45494777Y-11390147D01*
X45790147Y-11094777D01*
X45950000Y-10708858D01*
X45950000Y-10291142D01*
X45790147Y-9905223D01*
X45511528Y-9626604D01*
X46985000Y-9626604D01*
X46985000Y-10213396D01*
X47209555Y-10755520D01*
X47624480Y-11170445D01*
X48166604Y-11395000D01*
X48753396Y-11395000D01*
X49295520Y-11170445D01*
X49710445Y-10755520D01*
X49935000Y-10213396D01*
X49935000Y-9626604D01*
X52065000Y-9626604D01*
X52065000Y-10213396D01*
X52289555Y-10755520D01*
X52704480Y-11170445D01*
X53246604Y-11395000D01*
X53833396Y-11395000D01*
X54375520Y-11170445D01*
X54677640Y-10868325D01*
X55982172Y-10868325D01*
X56052834Y-10992951D01*
X56370734Y-11365242D01*
X56806905Y-11587539D01*
X57000000Y-11525969D01*
X57000000Y-10680000D01*
X57600000Y-10680000D01*
X57600000Y-11525969D01*
X57793095Y-11587539D01*
X58229266Y-11365242D01*
X58547166Y-10992951D01*
X58617828Y-10868325D01*
X58576662Y-10680000D01*
X57600000Y-10680000D01*
X57000000Y-10680000D01*
X56023338Y-10680000D01*
X55982172Y-10868325D01*
X54677640Y-10868325D01*
X54790445Y-10755520D01*
X55015000Y-10213396D01*
X55015000Y-9626604D01*
X54790445Y-9084480D01*
X54375520Y-8669555D01*
X53833396Y-8445000D01*
X53246604Y-8445000D01*
X52704480Y-8669555D01*
X52289555Y-9084480D01*
X52065000Y-9626604D01*
X49935000Y-9626604D01*
X49710445Y-9084480D01*
X49295520Y-8669555D01*
X48753396Y-8445000D01*
X48166604Y-8445000D01*
X47624480Y-8669555D01*
X47209555Y-9084480D01*
X46985000Y-9626604D01*
X45511528Y-9626604D01*
X45494777Y-9609853D01*
X45108858Y-9450000D01*
X44691142Y-9450000D01*
X44305223Y-9609853D01*
X44009853Y-9905223D01*
X43850000Y-10291142D01*
X41982796Y-10291142D01*
X42015000Y-10213396D01*
X42015000Y-9626604D01*
X41790445Y-9084480D01*
X41375520Y-8669555D01*
X40847873Y-8450997D01*
X40994777Y-8390147D01*
X41290147Y-8094777D01*
X41395679Y-7840000D01*
X55706306Y-7840000D01*
X55816018Y-8391559D01*
X56128451Y-8859149D01*
X56596041Y-9171582D01*
X56748951Y-9201998D01*
X56370734Y-9394758D01*
X56052834Y-9767049D01*
X55982172Y-9891675D01*
X56023338Y-10080000D01*
X57000000Y-10080000D01*
X57000000Y-10060000D01*
X57600000Y-10060000D01*
X57600000Y-10080000D01*
X58576662Y-10080000D01*
X58617828Y-9891675D01*
X58547166Y-9767049D01*
X58376006Y-9566604D01*
X72045000Y-9566604D01*
X72045000Y-10153396D01*
X72269555Y-10695520D01*
X72684480Y-11110445D01*
X73226604Y-11335000D01*
X73813396Y-11335000D01*
X74355520Y-11110445D01*
X74770445Y-10695520D01*
X74995000Y-10153396D01*
X74995000Y-9566604D01*
X77125000Y-9566604D01*
X77125000Y-10153396D01*
X77349555Y-10695520D01*
X77764480Y-11110445D01*
X78306604Y-11335000D01*
X78893396Y-11335000D01*
X79435520Y-11110445D01*
X79850445Y-10695520D01*
X79870000Y-10648310D01*
X79889555Y-10695520D01*
X80304480Y-11110445D01*
X80846604Y-11335000D01*
X81433396Y-11335000D01*
X81975520Y-11110445D01*
X82390445Y-10695520D01*
X82410000Y-10648310D01*
X82429555Y-10695520D01*
X82844480Y-11110445D01*
X83386604Y-11335000D01*
X83973396Y-11335000D01*
X84515520Y-11110445D01*
X84930445Y-10695520D01*
X85155000Y-10153396D01*
X85155000Y-9566604D01*
X84930445Y-9024480D01*
X84515520Y-8609555D01*
X83973396Y-8385000D01*
X83386604Y-8385000D01*
X82844480Y-8609555D01*
X82429555Y-9024480D01*
X82410000Y-9071690D01*
X82390445Y-9024480D01*
X81975520Y-8609555D01*
X81433396Y-8385000D01*
X80846604Y-8385000D01*
X80304480Y-8609555D01*
X79889555Y-9024480D01*
X79870000Y-9071690D01*
X79850445Y-9024480D01*
X79435520Y-8609555D01*
X78893396Y-8385000D01*
X78306604Y-8385000D01*
X77764480Y-8609555D01*
X77349555Y-9024480D01*
X77125000Y-9566604D01*
X74995000Y-9566604D01*
X74770445Y-9024480D01*
X74355520Y-8609555D01*
X73813396Y-8385000D01*
X73226604Y-8385000D01*
X72684480Y-8609555D01*
X72269555Y-9024480D01*
X72045000Y-9566604D01*
X58376006Y-9566604D01*
X58229266Y-9394758D01*
X57851049Y-9201998D01*
X58003959Y-9171582D01*
X58471549Y-8859149D01*
X58783982Y-8391559D01*
X58893694Y-7840000D01*
X58851247Y-7626604D01*
X59985000Y-7626604D01*
X59985000Y-8213396D01*
X60209555Y-8755520D01*
X60624480Y-9170445D01*
X61166604Y-9395000D01*
X61753396Y-9395000D01*
X62295520Y-9170445D01*
X62710445Y-8755520D01*
X62935000Y-8213396D01*
X62935000Y-7626604D01*
X65065000Y-7626604D01*
X65065000Y-8213396D01*
X65289555Y-8755520D01*
X65704480Y-9170445D01*
X66246604Y-9395000D01*
X66833396Y-9395000D01*
X67375520Y-9170445D01*
X67790445Y-8755520D01*
X68015000Y-8213396D01*
X68015000Y-7765782D01*
X68109853Y-7994777D01*
X68405223Y-8290147D01*
X68791142Y-8450000D01*
X69208858Y-8450000D01*
X69594777Y-8290147D01*
X69890147Y-7994777D01*
X70050000Y-7608858D01*
X70050000Y-7191142D01*
X69890147Y-6805223D01*
X69594777Y-6509853D01*
X69208858Y-6350000D01*
X68791142Y-6350000D01*
X68405223Y-6509853D01*
X68109853Y-6805223D01*
X67950000Y-7191142D01*
X67950000Y-7469680D01*
X67790445Y-7084480D01*
X67375520Y-6669555D01*
X66833396Y-6445000D01*
X66246604Y-6445000D01*
X65704480Y-6669555D01*
X65289555Y-7084480D01*
X65065000Y-7626604D01*
X62935000Y-7626604D01*
X62710445Y-7084480D01*
X62295520Y-6669555D01*
X61753396Y-6445000D01*
X61166604Y-6445000D01*
X60624480Y-6669555D01*
X60209555Y-7084480D01*
X59985000Y-7626604D01*
X58851247Y-7626604D01*
X58783982Y-7288441D01*
X58471549Y-6820851D01*
X58324602Y-6722664D01*
X58530599Y-6681689D01*
X58712528Y-6560128D01*
X58834089Y-6378199D01*
X58851405Y-6291142D01*
X70250000Y-6291142D01*
X70250000Y-6708858D01*
X70409853Y-7094777D01*
X70705223Y-7390147D01*
X71091142Y-7550000D01*
X71508858Y-7550000D01*
X71894777Y-7390147D01*
X72190147Y-7094777D01*
X72350000Y-6708858D01*
X72350000Y-6291142D01*
X72190147Y-5905223D01*
X71894777Y-5609853D01*
X71508858Y-5450000D01*
X71091142Y-5450000D01*
X70705223Y-5609853D01*
X70409853Y-5905223D01*
X70250000Y-6291142D01*
X58851405Y-6291142D01*
X58876775Y-6163600D01*
X58876775Y-4436400D01*
X58834089Y-4221801D01*
X58712528Y-4039872D01*
X58530599Y-3918311D01*
X58316000Y-3875625D01*
X56284000Y-3875625D01*
X56069401Y-3918311D01*
X55887472Y-4039872D01*
X55765911Y-4221801D01*
X55723225Y-4436400D01*
X55723225Y-6163600D01*
X55765911Y-6378199D01*
X55887472Y-6560128D01*
X56069401Y-6681689D01*
X56275398Y-6722664D01*
X56128451Y-6820851D01*
X55816018Y-7288441D01*
X55706306Y-7840000D01*
X41395679Y-7840000D01*
X41450000Y-7708858D01*
X41450000Y-7291142D01*
X41290147Y-6905223D01*
X40994777Y-6609853D01*
X40608858Y-6450000D01*
X40191142Y-6450000D01*
X39805223Y-6609853D01*
X39509853Y-6905223D01*
X39350000Y-7291142D01*
X39350000Y-7708858D01*
X39509853Y-8094777D01*
X39805223Y-8390147D01*
X40092127Y-8508987D01*
X39704480Y-8669555D01*
X39289555Y-9084480D01*
X39065000Y-9626604D01*
X36935000Y-9626604D01*
X36710445Y-9084480D01*
X36295520Y-8669555D01*
X35753396Y-8445000D01*
X35166604Y-8445000D01*
X34624480Y-8669555D01*
X34209555Y-9084480D01*
X33985000Y-9626604D01*
X33985000Y-10082919D01*
X33981486Y-10079405D01*
X33669075Y-9950000D01*
X33330925Y-9950000D01*
X33018514Y-10079405D01*
X32779405Y-10318514D01*
X32650000Y-10630925D01*
X28842053Y-10630925D01*
X29015000Y-10213396D01*
X29015000Y-9626604D01*
X28790445Y-9084480D01*
X28375520Y-8669555D01*
X27833396Y-8445000D01*
X27246604Y-8445000D01*
X26704480Y-8669555D01*
X26289555Y-9084480D01*
X26065000Y-9626604D01*
X23935000Y-9626604D01*
X23710445Y-9084480D01*
X23295520Y-8669555D01*
X22753396Y-8445000D01*
X22166604Y-8445000D01*
X21624480Y-8669555D01*
X21209555Y-9084480D01*
X20985000Y-9626604D01*
X16015000Y-9626604D01*
X15790445Y-9084480D01*
X15375520Y-8669555D01*
X14833396Y-8445000D01*
X14246604Y-8445000D01*
X13704480Y-8669555D01*
X13289555Y-9084480D01*
X13065000Y-9626604D01*
X10935000Y-9626604D01*
X10710445Y-9084480D01*
X10295520Y-8669555D01*
X9753396Y-8445000D01*
X9166604Y-8445000D01*
X8624480Y-8669555D01*
X8209555Y-9084480D01*
X7985000Y-9626604D01*
X625000Y-9626604D01*
X625000Y-7291142D01*
X17850000Y-7291142D01*
X17850000Y-7708858D01*
X18009853Y-8094777D01*
X18305223Y-8390147D01*
X18691142Y-8550000D01*
X19108858Y-8550000D01*
X19494777Y-8390147D01*
X19790147Y-8094777D01*
X19950000Y-7708858D01*
X19950000Y-7291142D01*
X28650000Y-7291142D01*
X28650000Y-7708858D01*
X28809853Y-8094777D01*
X29105223Y-8390147D01*
X29491142Y-8550000D01*
X29908858Y-8550000D01*
X30294777Y-8390147D01*
X30590147Y-8094777D01*
X30750000Y-7708858D01*
X30750000Y-7291142D01*
X30590147Y-6905223D01*
X30294777Y-6609853D01*
X29908858Y-6450000D01*
X29491142Y-6450000D01*
X29105223Y-6609853D01*
X28809853Y-6905223D01*
X28650000Y-7291142D01*
X19950000Y-7291142D01*
X19790147Y-6905223D01*
X19494777Y-6609853D01*
X19108858Y-6450000D01*
X18691142Y-6450000D01*
X18305223Y-6609853D01*
X18009853Y-6905223D01*
X17850000Y-7291142D01*
X625000Y-7291142D01*
X625000Y-5164289D01*
X19615000Y-5164289D01*
X19615000Y-5635711D01*
X19795405Y-6071249D01*
X20128751Y-6404595D01*
X20564289Y-6585000D01*
X21035711Y-6585000D01*
X21471249Y-6404595D01*
X21804595Y-6071249D01*
X21985000Y-5635711D01*
X21985000Y-5164289D01*
X21804595Y-4728751D01*
X21471249Y-4395405D01*
X21035711Y-4215000D01*
X20564289Y-4215000D01*
X20128751Y-4395405D01*
X19795405Y-4728751D01*
X19615000Y-5164289D01*
X625000Y-5164289D01*
X625000Y-3211033D01*
X14250000Y-3211033D01*
X14250000Y-3588967D01*
X14394629Y-3938132D01*
X14661868Y-4205371D01*
X15011033Y-4350000D01*
X15388967Y-4350000D01*
X15738132Y-4205371D01*
X16005371Y-3938132D01*
X16016595Y-3911033D01*
X24350000Y-3911033D01*
X24350000Y-4288967D01*
X24494629Y-4638132D01*
X24761868Y-4905371D01*
X25111033Y-5050000D01*
X25488967Y-5050000D01*
X25838132Y-4905371D01*
X26105371Y-4638132D01*
X26250000Y-4288967D01*
X26250000Y-3930925D01*
X35650000Y-3930925D01*
X35650000Y-4269075D01*
X35779405Y-4581486D01*
X36018514Y-4820595D01*
X36330925Y-4950000D01*
X36669075Y-4950000D01*
X36981486Y-4820595D01*
X37010939Y-4791142D01*
X39650000Y-4791142D01*
X39650000Y-5208858D01*
X39809853Y-5594777D01*
X40105223Y-5890147D01*
X40491142Y-6050000D01*
X40908858Y-6050000D01*
X41294777Y-5890147D01*
X41590147Y-5594777D01*
X41750000Y-5208858D01*
X41909853Y-5594777D01*
X42205223Y-5890147D01*
X42591142Y-6050000D01*
X43008858Y-6050000D01*
X43394777Y-5890147D01*
X43690147Y-5594777D01*
X43850000Y-5208858D01*
X43850000Y-4791142D01*
X43950000Y-4791142D01*
X43950000Y-5208858D01*
X44109853Y-5594777D01*
X44405223Y-5890147D01*
X44791142Y-6050000D01*
X45208858Y-6050000D01*
X45594777Y-5890147D01*
X45890147Y-5594777D01*
X46050000Y-5208858D01*
X46050000Y-4791142D01*
X46016818Y-4711033D01*
X52850000Y-4711033D01*
X52850000Y-5088967D01*
X52994629Y-5438132D01*
X53261868Y-5705371D01*
X53611033Y-5850000D01*
X53988967Y-5850000D01*
X54338132Y-5705371D01*
X54605371Y-5438132D01*
X54750000Y-5088967D01*
X54750000Y-4711033D01*
X54605371Y-4361868D01*
X54338132Y-4094629D01*
X53988967Y-3950000D01*
X53611033Y-3950000D01*
X53261868Y-4094629D01*
X52994629Y-4361868D01*
X52850000Y-4711033D01*
X46016818Y-4711033D01*
X45890147Y-4405223D01*
X45710396Y-4225472D01*
X46011033Y-4350000D01*
X46388967Y-4350000D01*
X46738132Y-4205371D01*
X47005371Y-3938132D01*
X47150000Y-3588967D01*
X47150000Y-3211033D01*
X47450000Y-3211033D01*
X47450000Y-3588967D01*
X47594629Y-3938132D01*
X47861868Y-4205371D01*
X48211033Y-4350000D01*
X48588967Y-4350000D01*
X48938132Y-4205371D01*
X49205371Y-3938132D01*
X49307677Y-3691142D01*
X60450000Y-3691142D01*
X60450000Y-4108858D01*
X60609853Y-4494777D01*
X60905223Y-4790147D01*
X61291142Y-4950000D01*
X61708858Y-4950000D01*
X62094777Y-4790147D01*
X62390147Y-4494777D01*
X62550000Y-4108858D01*
X62550000Y-3691142D01*
X62390147Y-3305223D01*
X62094777Y-3009853D01*
X61708858Y-2850000D01*
X61291142Y-2850000D01*
X60905223Y-3009853D01*
X60609853Y-3305223D01*
X60450000Y-3691142D01*
X49307677Y-3691142D01*
X49350000Y-3588967D01*
X49350000Y-3211033D01*
X49205371Y-2861868D01*
X48938132Y-2594629D01*
X48588967Y-2450000D01*
X48211033Y-2450000D01*
X47861868Y-2594629D01*
X47594629Y-2861868D01*
X47450000Y-3211033D01*
X47150000Y-3211033D01*
X47005371Y-2861868D01*
X46738132Y-2594629D01*
X46388967Y-2450000D01*
X46011033Y-2450000D01*
X45661868Y-2594629D01*
X45394629Y-2861868D01*
X45250000Y-3211033D01*
X45250000Y-3588967D01*
X45394629Y-3938132D01*
X45546249Y-4089752D01*
X45208858Y-3950000D01*
X44791142Y-3950000D01*
X44405223Y-4109853D01*
X44109853Y-4405223D01*
X43950000Y-4791142D01*
X43850000Y-4791142D01*
X43690147Y-4405223D01*
X43394777Y-4109853D01*
X43008858Y-3950000D01*
X42591142Y-3950000D01*
X42205223Y-4109853D01*
X41909853Y-4405223D01*
X41750000Y-4791142D01*
X41590147Y-4405223D01*
X41294777Y-4109853D01*
X40908858Y-3950000D01*
X40491142Y-3950000D01*
X40105223Y-4109853D01*
X39809853Y-4405223D01*
X39650000Y-4791142D01*
X37010939Y-4791142D01*
X37220595Y-4581486D01*
X37350000Y-4269075D01*
X37350000Y-3930925D01*
X37220595Y-3618514D01*
X36981486Y-3379405D01*
X36669075Y-3250000D01*
X36330925Y-3250000D01*
X36018514Y-3379405D01*
X35779405Y-3618514D01*
X35650000Y-3930925D01*
X26250000Y-3930925D01*
X26250000Y-3911033D01*
X26105371Y-3561868D01*
X25838132Y-3294629D01*
X25488967Y-3150000D01*
X25111033Y-3150000D01*
X24761868Y-3294629D01*
X24494629Y-3561868D01*
X24350000Y-3911033D01*
X16016595Y-3911033D01*
X16150000Y-3588967D01*
X16150000Y-3211033D01*
X16005371Y-2861868D01*
X15738132Y-2594629D01*
X15388967Y-2450000D01*
X15011033Y-2450000D01*
X14661868Y-2594629D01*
X14394629Y-2861868D01*
X14250000Y-3211033D01*
X625000Y-3211033D01*
X625000Y-1534000D01*
X7918000Y-1534000D01*
X7918000Y-2063565D01*
X7978896Y-2210582D01*
X8091418Y-2323104D01*
X8238435Y-2384000D01*
X8768000Y-2384000D01*
X8868000Y-2284000D01*
X8868000Y-1434000D01*
X8018000Y-1434000D01*
X7918000Y-1534000D01*
X625000Y-1534000D01*
X625000Y-625000D01*
X7918000Y-625000D01*
X7918000Y-734000D01*
X7918000Y-734000D01*
G37*
X7918000Y-734000D02*
X8018000Y-834000D01*
X8868000Y-834000D01*
X8868000Y-814000D01*
X9468000Y-814000D01*
X9468000Y-834000D01*
X9488000Y-834000D01*
X9488000Y-1434000D01*
X9468000Y-1434000D01*
X9468000Y-2284000D01*
X9568000Y-2384000D01*
X10097565Y-2384000D01*
X10244582Y-2323104D01*
X10357104Y-2210582D01*
X10418000Y-2063565D01*
X10418000Y-1723312D01*
X10698657Y-2143343D01*
X11161747Y-2452771D01*
X11570115Y-2534000D01*
X11845885Y-2534000D01*
X12254253Y-2452771D01*
X12717343Y-2143343D01*
X13026771Y-1680253D01*
X13075753Y-1434002D01*
X13134506Y-1434002D01*
X13096376Y-1620139D01*
X13370075Y-2023841D01*
X13761866Y-2285596D01*
X13948000Y-2244180D01*
X13948000Y-1434000D01*
X14548000Y-1434000D01*
X14548000Y-2244180D01*
X14734134Y-2285596D01*
X15125925Y-2023841D01*
X15399624Y-1620139D01*
X15636376Y-1620139D01*
X15910075Y-2023841D01*
X16301866Y-2285596D01*
X16488000Y-2244180D01*
X16488000Y-1434000D01*
X17088000Y-1434000D01*
X17088000Y-2244180D01*
X17274134Y-2285596D01*
X17665925Y-2023841D01*
X17939624Y-1620139D01*
X18176376Y-1620139D01*
X18450075Y-2023841D01*
X18841866Y-2285596D01*
X19028000Y-2244180D01*
X19028000Y-1434000D01*
X18214506Y-1434000D01*
X18176376Y-1620139D01*
X17939624Y-1620139D01*
X17901494Y-1434000D01*
X17088000Y-1434000D01*
X16488000Y-1434000D01*
X15674506Y-1434000D01*
X15636376Y-1620139D01*
X15399624Y-1620139D01*
X15361494Y-1434000D01*
X14548000Y-1434000D01*
X13948000Y-1434000D01*
X13928000Y-1434000D01*
X13928000Y-834000D01*
X13948000Y-834000D01*
X13948000Y-814000D01*
X14548000Y-814000D01*
X14548000Y-834000D01*
X15361494Y-834000D01*
X15399624Y-647861D01*
X15384125Y-625000D01*
X15651875Y-625000D01*
X15636376Y-647861D01*
X15674506Y-834000D01*
X16488000Y-834000D01*
X16488000Y-814000D01*
X17088000Y-814000D01*
X17088000Y-834000D01*
X17901494Y-834000D01*
X17939624Y-647861D01*
X17924125Y-625000D01*
X18191875Y-625000D01*
X18176376Y-647861D01*
X18214506Y-834000D01*
X19028000Y-834000D01*
X19028000Y-814000D01*
X19628000Y-814000D01*
X19628000Y-834000D01*
X19648000Y-834000D01*
X19648000Y-1434000D01*
X19628000Y-1434000D01*
X19628000Y-2244180D01*
X19814134Y-2285596D01*
X20205925Y-2023841D01*
X20479624Y-1620139D01*
X20441494Y-1434002D01*
X20500247Y-1434002D01*
X20549229Y-1680253D01*
X20858657Y-2143343D01*
X21321747Y-2452771D01*
X21730115Y-2534000D01*
X22005885Y-2534000D01*
X22414253Y-2452771D01*
X22877343Y-2143343D01*
X23186771Y-1680253D01*
X23235753Y-1434002D01*
X23294506Y-1434002D01*
X23256376Y-1620139D01*
X23530075Y-2023841D01*
X23921866Y-2285596D01*
X24108000Y-2244180D01*
X24108000Y-1434000D01*
X24708000Y-1434000D01*
X24708000Y-2244180D01*
X24894134Y-2285596D01*
X25285925Y-2023841D01*
X25559624Y-1620139D01*
X25796376Y-1620139D01*
X26070075Y-2023841D01*
X26461866Y-2285596D01*
X26648000Y-2244180D01*
X26648000Y-1434000D01*
X27248000Y-1434000D01*
X27248000Y-2244180D01*
X27434134Y-2285596D01*
X27825925Y-2023841D01*
X28099624Y-1620139D01*
X28336376Y-1620139D01*
X28610075Y-2023841D01*
X29001866Y-2285596D01*
X29188000Y-2244180D01*
X29188000Y-1434000D01*
X28374506Y-1434000D01*
X28336376Y-1620139D01*
X28099624Y-1620139D01*
X28061494Y-1434000D01*
X27248000Y-1434000D01*
X26648000Y-1434000D01*
X25834506Y-1434000D01*
X25796376Y-1620139D01*
X25559624Y-1620139D01*
X25521494Y-1434000D01*
X24708000Y-1434000D01*
X24108000Y-1434000D01*
X24088000Y-1434000D01*
X24088000Y-834000D01*
X24108000Y-834000D01*
X24108000Y-814000D01*
X24708000Y-814000D01*
X24708000Y-834000D01*
X25521494Y-834000D01*
X25559624Y-647861D01*
X25544125Y-625000D01*
X25811875Y-625000D01*
X25796376Y-647861D01*
X25834506Y-834000D01*
X26648000Y-834000D01*
X26648000Y-814000D01*
X27248000Y-814000D01*
X27248000Y-834000D01*
X28061494Y-834000D01*
X28099624Y-647861D01*
X28084125Y-625000D01*
X28351875Y-625000D01*
X28336376Y-647861D01*
X28374506Y-834000D01*
X29188000Y-834000D01*
X29188000Y-814000D01*
X29788000Y-814000D01*
X29788000Y-834000D01*
X29808000Y-834000D01*
X29808000Y-1434000D01*
X29788000Y-1434000D01*
X29788000Y-2244180D01*
X29974134Y-2285596D01*
X30365925Y-2023841D01*
X30639624Y-1620139D01*
X30601494Y-1434002D01*
X30660247Y-1434002D01*
X30709229Y-1680253D01*
X31018657Y-2143343D01*
X31481747Y-2452771D01*
X31890115Y-2534000D01*
X32165885Y-2534000D01*
X32574253Y-2452771D01*
X33037343Y-2143343D01*
X33346771Y-1680253D01*
X33395753Y-1434002D01*
X33454506Y-1434002D01*
X33416376Y-1620139D01*
X33690075Y-2023841D01*
X34081866Y-2285596D01*
X34268000Y-2244180D01*
X34268000Y-1434000D01*
X34868000Y-1434000D01*
X34868000Y-2244180D01*
X35054134Y-2285596D01*
X35445925Y-2023841D01*
X35719624Y-1620139D01*
X35956376Y-1620139D01*
X36230075Y-2023841D01*
X36621866Y-2285596D01*
X36808000Y-2244180D01*
X36808000Y-1434000D01*
X35994506Y-1434000D01*
X35956376Y-1620139D01*
X35719624Y-1620139D01*
X35681494Y-1434000D01*
X34868000Y-1434000D01*
X34268000Y-1434000D01*
X34248000Y-1434000D01*
X34248000Y-834000D01*
X34268000Y-834000D01*
X34268000Y-814000D01*
X34868000Y-814000D01*
X34868000Y-834000D01*
X35681494Y-834000D01*
X35719624Y-647861D01*
X35704125Y-625000D01*
X35971875Y-625000D01*
X35956376Y-647861D01*
X35994506Y-834000D01*
X36808000Y-834000D01*
X36808000Y-814000D01*
X37408000Y-814000D01*
X37408000Y-834000D01*
X37428000Y-834000D01*
X37428000Y-1434000D01*
X37408000Y-1434000D01*
X37408000Y-2244180D01*
X37594134Y-2285596D01*
X37985925Y-2023841D01*
X38259624Y-1620139D01*
X38221494Y-1434002D01*
X38280247Y-1434002D01*
X38329229Y-1680253D01*
X38638657Y-2143343D01*
X39101747Y-2452771D01*
X39510115Y-2534000D01*
X39785885Y-2534000D01*
X40194253Y-2452771D01*
X40657343Y-2143343D01*
X40918000Y-1753244D01*
X41178657Y-2143343D01*
X41641747Y-2452771D01*
X42050115Y-2534000D01*
X42325885Y-2534000D01*
X42734253Y-2452771D01*
X43197343Y-2143343D01*
X43458000Y-1753244D01*
X43718657Y-2143343D01*
X44181747Y-2452771D01*
X44590115Y-2534000D01*
X44865885Y-2534000D01*
X45274253Y-2452771D01*
X45737343Y-2143343D01*
X45998000Y-1753244D01*
X46258657Y-2143343D01*
X46721747Y-2452771D01*
X47130115Y-2534000D01*
X47405885Y-2534000D01*
X47814253Y-2452771D01*
X48277343Y-2143343D01*
X48538000Y-1753244D01*
X48798657Y-2143343D01*
X49261747Y-2452771D01*
X49670115Y-2534000D01*
X49945885Y-2534000D01*
X50354253Y-2452771D01*
X50817343Y-2143343D01*
X51078000Y-1753244D01*
X51338657Y-2143343D01*
X51801747Y-2452771D01*
X52210115Y-2534000D01*
X52485885Y-2534000D01*
X52894253Y-2452771D01*
X53357343Y-2143343D01*
X53618000Y-1753244D01*
X53878657Y-2143343D01*
X54341747Y-2452771D01*
X54750115Y-2534000D01*
X55025885Y-2534000D01*
X55434253Y-2452771D01*
X55897343Y-2143343D01*
X56158000Y-1753244D01*
X56418657Y-2143343D01*
X56881747Y-2452771D01*
X57290115Y-2534000D01*
X57565885Y-2534000D01*
X57974253Y-2452771D01*
X58437343Y-2143343D01*
X58746771Y-1680253D01*
X58775862Y-1534000D01*
X66338000Y-1534000D01*
X66338000Y-2063565D01*
X66398896Y-2210582D01*
X66511418Y-2323104D01*
X66658435Y-2384000D01*
X67188000Y-2384000D01*
X67288000Y-2284000D01*
X67288000Y-1434000D01*
X67888000Y-1434000D01*
X67888000Y-2284000D01*
X67988000Y-2384000D01*
X68517565Y-2384000D01*
X68664582Y-2323104D01*
X68777104Y-2210582D01*
X68838000Y-2063565D01*
X68838000Y-1534000D01*
X68738000Y-1434000D01*
X67888000Y-1434000D01*
X67288000Y-1434000D01*
X66438000Y-1434000D01*
X66338000Y-1534000D01*
X58775862Y-1534000D01*
X58855427Y-1134000D01*
X58754181Y-625000D01*
X66338000Y-625000D01*
X66338000Y-734000D01*
X66438000Y-834000D01*
X67288000Y-834000D01*
X67288000Y-814000D01*
X67888000Y-814000D01*
X67888000Y-834000D01*
X68738000Y-834000D01*
X68838000Y-734000D01*
X68838000Y-625000D01*
X99375000Y-625000D01*
X99375001Y-49275000D01*
X70625000Y-49275000D01*
X70625000Y-48061555D01*
X70637244Y-48000000D01*
X70588737Y-47756137D01*
X70450600Y-47549400D01*
X70400000Y-47515590D01*
X70400000Y-45400000D01*
X70300000Y-45300000D01*
X68100000Y-45300000D01*
X68100000Y-45320000D01*
X67500000Y-45320000D01*
X67500000Y-45300000D01*
X67480000Y-45300000D01*
X67480000Y-44700000D01*
X67500000Y-44700000D01*
X67500000Y-42100000D01*
X68100000Y-42100000D01*
X68100000Y-44700000D01*
X70300000Y-44700000D01*
X70400000Y-44600000D01*
X70400000Y-42320435D01*
X70339104Y-42173418D01*
X70226582Y-42060896D01*
X70079565Y-42000000D01*
X68200000Y-42000000D01*
X68100000Y-42100000D01*
X67500000Y-42100000D01*
X67400000Y-42000000D01*
X65520435Y-42000000D01*
X65373418Y-42060896D01*
X65290381Y-42143933D01*
X65196528Y-42003472D01*
X65014599Y-41881911D01*
X64800000Y-41839225D01*
X63200000Y-41839225D01*
X62985401Y-41881911D01*
X62803472Y-42003472D01*
X62709619Y-42143933D01*
X62626582Y-42060896D01*
X62479565Y-42000000D01*
X60600000Y-42000000D01*
X60500000Y-42100000D01*
X60500000Y-44700000D01*
X60520000Y-44700000D01*
X60520000Y-45300000D01*
X60500000Y-45300000D01*
X60500000Y-45320000D01*
X59900000Y-45320000D01*
X59900000Y-45300000D01*
X57700000Y-45300000D01*
X57600000Y-45400000D01*
X57600000Y-47515590D01*
X57549400Y-47549400D01*
X57411263Y-47756137D01*
X57362756Y-48000000D01*
X57375001Y-48061560D01*
X57375000Y-49275000D01*
X38625000Y-49275000D01*
X38625000Y-48061555D01*
X38637244Y-48000000D01*
X38588737Y-47756137D01*
X38450600Y-47549400D01*
X38400000Y-47515590D01*
X38400000Y-45400000D01*
X38300000Y-45300000D01*
X36100000Y-45300000D01*
X36100000Y-45320000D01*
X35500000Y-45320000D01*
X35500000Y-45300000D01*
X35480000Y-45300000D01*
X35480000Y-44700000D01*
X35500000Y-44700000D01*
X35500000Y-42100000D01*
X36100000Y-42100000D01*
X36100000Y-44700000D01*
X38300000Y-44700000D01*
X38388967Y-44611033D01*
X39150000Y-44611033D01*
X39150000Y-44988967D01*
X39294629Y-45338132D01*
X39561868Y-45605371D01*
X39911033Y-45750000D01*
X40288967Y-45750000D01*
X40638132Y-45605371D01*
X40751716Y-45491787D01*
X50450510Y-45491787D01*
X50450510Y-46108213D01*
X50686406Y-46677715D01*
X51122285Y-47113594D01*
X51691787Y-47349490D01*
X52308213Y-47349490D01*
X52877715Y-47113594D01*
X53313594Y-46677715D01*
X53549490Y-46108213D01*
X53549490Y-45491787D01*
X53313594Y-44922285D01*
X52877715Y-44486406D01*
X52308213Y-44250510D01*
X51691787Y-44250510D01*
X51122285Y-44486406D01*
X50686406Y-44922285D01*
X50450510Y-45491787D01*
X40751716Y-45491787D01*
X40905371Y-45338132D01*
X41050000Y-44988967D01*
X41050000Y-44611033D01*
X40905371Y-44261868D01*
X40638132Y-43994629D01*
X40288967Y-43850000D01*
X39911033Y-43850000D01*
X39561868Y-43994629D01*
X39294629Y-44261868D01*
X39150000Y-44611033D01*
X38388967Y-44611033D01*
X38400000Y-44600000D01*
X38400000Y-43211033D01*
X52350000Y-43211033D01*
X52350000Y-43588967D01*
X52494629Y-43938132D01*
X52761868Y-44205371D01*
X53111033Y-44350000D01*
X53488967Y-44350000D01*
X53838132Y-44205371D01*
X54105371Y-43938132D01*
X54250000Y-43588967D01*
X54250000Y-43211033D01*
X54105371Y-42861868D01*
X53838132Y-42594629D01*
X53488967Y-42450000D01*
X53111033Y-42450000D01*
X52761868Y-42594629D01*
X52494629Y-42861868D01*
X52350000Y-43211033D01*
X38400000Y-43211033D01*
X38400000Y-42320435D01*
X57600000Y-42320435D01*
X57600000Y-44600000D01*
X57700000Y-44700000D01*
X59900000Y-44700000D01*
X59900000Y-42100000D01*
X59800000Y-42000000D01*
X57920435Y-42000000D01*
X57773418Y-42060896D01*
X57660896Y-42173418D01*
X57600000Y-42320435D01*
X38400000Y-42320435D01*
X38339104Y-42173418D01*
X38226582Y-42060896D01*
X38079565Y-42000000D01*
X36200000Y-42000000D01*
X36100000Y-42100000D01*
X35500000Y-42100000D01*
X35400000Y-42000000D01*
X33520435Y-42000000D01*
X33373418Y-42060896D01*
X33290381Y-42143933D01*
X33196528Y-42003472D01*
X33014599Y-41881911D01*
X32800000Y-41839225D01*
X31200000Y-41839225D01*
X30985401Y-41881911D01*
X30803472Y-42003472D01*
X30709619Y-42143933D01*
X30626582Y-42060896D01*
X30479565Y-42000000D01*
X28600000Y-42000000D01*
X28500000Y-42100000D01*
X28500000Y-44700000D01*
X28520000Y-44700000D01*
X28520000Y-45300000D01*
X28500000Y-45300000D01*
X28500000Y-45320000D01*
X27900000Y-45320000D01*
X27900000Y-45300000D01*
X25700000Y-45300000D01*
X25600000Y-45400000D01*
X25600000Y-47515590D01*
X25549400Y-47549400D01*
X25411263Y-47756137D01*
X25362756Y-48000000D01*
X25375001Y-48061560D01*
X25375000Y-49275000D01*
X16762977Y-49275000D01*
X17263953Y-49067489D01*
X17767489Y-48563953D01*
X18040000Y-47906053D01*
X18040000Y-47193947D01*
X17767489Y-46536047D01*
X17263953Y-46032511D01*
X16606053Y-45760000D01*
X15893947Y-45760000D01*
X15236047Y-46032511D01*
X14732511Y-46536047D01*
X14460000Y-47193947D01*
X14460000Y-47906053D01*
X14732511Y-48563953D01*
X15236047Y-49067489D01*
X15737023Y-49275000D01*
X8158453Y-49275000D01*
X8741296Y-49033579D01*
X9233579Y-48541296D01*
X9500000Y-47898097D01*
X9500000Y-47201903D01*
X9233579Y-46558704D01*
X9005654Y-46330779D01*
X10493485Y-46330779D01*
X10754866Y-46624170D01*
X11700800Y-46931357D01*
X12692284Y-46853168D01*
X13245134Y-46624170D01*
X13506515Y-46330779D01*
X12000000Y-44824264D01*
X10493485Y-46330779D01*
X9005654Y-46330779D01*
X8741296Y-46066421D01*
X8098097Y-45800000D01*
X7401903Y-45800000D01*
X6758704Y-46066421D01*
X6266421Y-46558704D01*
X6000000Y-47201903D01*
X6000000Y-47898097D01*
X6266421Y-48541296D01*
X6758704Y-49033579D01*
X7341547Y-49275000D01*
X625000Y-49275000D01*
X625000Y-44100800D01*
X9468643Y-44100800D01*
X9546832Y-45092284D01*
X9775830Y-45645134D01*
X10069221Y-45906515D01*
X11575736Y-44400000D01*
X12424264Y-44400000D01*
X13930779Y-45906515D01*
X14224170Y-45645134D01*
X14531357Y-44699200D01*
X14453168Y-43707716D01*
X14224170Y-43154866D01*
X13930779Y-42893485D01*
X12424264Y-44400000D01*
X11575736Y-44400000D01*
X10069221Y-42893485D01*
X9775830Y-43154866D01*
X9468643Y-44100800D01*
X625000Y-44100800D01*
X625000Y-39442501D01*
X9700000Y-39442501D01*
X9700000Y-40357499D01*
X10050154Y-41202846D01*
X10697154Y-41849846D01*
X11119508Y-42024790D01*
X10754866Y-42175830D01*
X10493485Y-42469221D01*
X12000000Y-43975736D01*
X13506515Y-42469221D01*
X13373963Y-42320435D01*
X25600000Y-42320435D01*
X25600000Y-44600000D01*
X25700000Y-44700000D01*
X27900000Y-44700000D01*
X27900000Y-42100000D01*
X27800000Y-42000000D01*
X25920435Y-42000000D01*
X25773418Y-42060896D01*
X25660896Y-42173418D01*
X25600000Y-42320435D01*
X13373963Y-42320435D01*
X13245134Y-42175830D01*
X12836344Y-42043078D01*
X13302846Y-41849846D01*
X13949846Y-41202846D01*
X13979636Y-41130925D01*
X46950000Y-41130925D01*
X46950000Y-41469075D01*
X47079405Y-41781486D01*
X47318514Y-42020595D01*
X47630925Y-42150000D01*
X47969075Y-42150000D01*
X48281486Y-42020595D01*
X48520595Y-41781486D01*
X48650000Y-41469075D01*
X48650000Y-41350000D01*
X48988967Y-41350000D01*
X49338132Y-41205371D01*
X49605371Y-40938132D01*
X49750000Y-40588967D01*
X49750000Y-40211033D01*
X49605371Y-39861868D01*
X49354536Y-39611033D01*
X59750000Y-39611033D01*
X59750000Y-39988967D01*
X59894629Y-40338132D01*
X60161868Y-40605371D01*
X60511033Y-40750000D01*
X60888967Y-40750000D01*
X61238132Y-40605371D01*
X61505371Y-40338132D01*
X61650000Y-39988967D01*
X61650000Y-39611033D01*
X61505371Y-39261868D01*
X61243503Y-39000000D01*
X78439225Y-39000000D01*
X78439225Y-41200000D01*
X78481911Y-41414599D01*
X78603472Y-41596528D01*
X78785401Y-41718089D01*
X79000000Y-41760775D01*
X79952206Y-41760775D01*
X79489250Y-42223731D01*
X79199990Y-42922065D01*
X79199990Y-43677935D01*
X79489250Y-44376269D01*
X80023731Y-44910750D01*
X80722065Y-45200010D01*
X81477935Y-45200010D01*
X82176269Y-44910750D01*
X82710750Y-44376269D01*
X83000010Y-43677935D01*
X83000010Y-42922065D01*
X82710750Y-42223731D01*
X82247794Y-41760775D01*
X83200000Y-41760775D01*
X83414599Y-41718089D01*
X83596528Y-41596528D01*
X83718089Y-41414599D01*
X83760775Y-41200000D01*
X83760775Y-39000000D01*
X83718089Y-38785401D01*
X83596528Y-38603472D01*
X83414599Y-38481911D01*
X83200000Y-38439225D01*
X79000000Y-38439225D01*
X78785401Y-38481911D01*
X78603472Y-38603472D01*
X78481911Y-38785401D01*
X78439225Y-39000000D01*
X61243503Y-39000000D01*
X61238132Y-38994629D01*
X60888967Y-38850000D01*
X60511033Y-38850000D01*
X60161868Y-38994629D01*
X59894629Y-39261868D01*
X59750000Y-39611033D01*
X49354536Y-39611033D01*
X49338132Y-39594629D01*
X48988967Y-39450000D01*
X48611033Y-39450000D01*
X48261868Y-39594629D01*
X47994629Y-39861868D01*
X47850000Y-40211033D01*
X47850000Y-40450000D01*
X47630925Y-40450000D01*
X47318514Y-40579405D01*
X47079405Y-40818514D01*
X46950000Y-41130925D01*
X13979636Y-41130925D01*
X14300000Y-40357499D01*
X14300000Y-39442501D01*
X13949846Y-38597154D01*
X13302846Y-37950154D01*
X12457499Y-37600000D01*
X11542501Y-37600000D01*
X10697154Y-37950154D01*
X10050154Y-38597154D01*
X9700000Y-39442501D01*
X625000Y-39442501D01*
X625000Y-36030925D01*
X50750000Y-36030925D01*
X50750000Y-36369075D01*
X50879405Y-36681486D01*
X51118514Y-36920595D01*
X51162719Y-36938905D01*
X51050000Y-37211033D01*
X51050000Y-37588967D01*
X51194629Y-37938132D01*
X51461868Y-38205371D01*
X51811033Y-38350000D01*
X52188967Y-38350000D01*
X52538132Y-38205371D01*
X52805371Y-37938132D01*
X52950000Y-37588967D01*
X52950000Y-37211033D01*
X52805371Y-36861868D01*
X52538132Y-36594629D01*
X52383161Y-36530438D01*
X52450000Y-36369075D01*
X52450000Y-36030925D01*
X52320595Y-35718514D01*
X52081486Y-35479405D01*
X51769075Y-35350000D01*
X51430925Y-35350000D01*
X51118514Y-35479405D01*
X50879405Y-35718514D01*
X50750000Y-36030925D01*
X625000Y-36030925D01*
X625000Y-35200000D01*
X78439225Y-35200000D01*
X78439225Y-37400000D01*
X78481911Y-37614599D01*
X78603472Y-37796528D01*
X78785401Y-37918089D01*
X79000000Y-37960775D01*
X83200000Y-37960775D01*
X83414599Y-37918089D01*
X83596528Y-37796528D01*
X83718089Y-37614599D01*
X83760775Y-37400000D01*
X83760775Y-35200000D01*
X83718089Y-34985401D01*
X83596528Y-34803472D01*
X83414599Y-34681911D01*
X83200000Y-34639225D01*
X82287794Y-34639225D01*
X82710750Y-34216269D01*
X83000010Y-33517935D01*
X83000010Y-32762065D01*
X82710750Y-32063731D01*
X82176269Y-31529250D01*
X81477935Y-31239990D01*
X80722065Y-31239990D01*
X80023731Y-31529250D01*
X79489250Y-32063731D01*
X79199990Y-32762065D01*
X79199990Y-33517935D01*
X79489250Y-34216269D01*
X79912206Y-34639225D01*
X79000000Y-34639225D01*
X78785401Y-34681911D01*
X78603472Y-34803472D01*
X78481911Y-34985401D01*
X78439225Y-35200000D01*
X625000Y-35200000D01*
X625000Y-32830925D01*
X22650000Y-32830925D01*
X22650000Y-33169075D01*
X22779405Y-33481486D01*
X23018514Y-33720595D01*
X23330925Y-33850000D01*
X23669075Y-33850000D01*
X23981486Y-33720595D01*
X24220595Y-33481486D01*
X24350000Y-33169075D01*
X24350000Y-32830925D01*
X24267158Y-32630925D01*
X34350000Y-32630925D01*
X34350000Y-32969075D01*
X34479405Y-33281486D01*
X34718514Y-33520595D01*
X35030925Y-33650000D01*
X35369075Y-33650000D01*
X35681486Y-33520595D01*
X35920595Y-33281486D01*
X36050000Y-32969075D01*
X36050000Y-32630925D01*
X35920595Y-32318514D01*
X35681486Y-32079405D01*
X35369075Y-31950000D01*
X35030925Y-31950000D01*
X34718514Y-32079405D01*
X34479405Y-32318514D01*
X34350000Y-32630925D01*
X24267158Y-32630925D01*
X24220595Y-32518514D01*
X23981486Y-32279405D01*
X23669075Y-32150000D01*
X23330925Y-32150000D01*
X23018514Y-32279405D01*
X22779405Y-32518514D01*
X22650000Y-32830925D01*
X625000Y-32830925D01*
X625000Y-30791142D01*
X89450000Y-30791142D01*
X89450000Y-31208858D01*
X89609853Y-31594777D01*
X89905223Y-31890147D01*
X90291142Y-32050000D01*
X90708858Y-32050000D01*
X91094777Y-31890147D01*
X91390147Y-31594777D01*
X91550000Y-31208858D01*
X91550000Y-30791142D01*
X91390147Y-30405223D01*
X91094777Y-30109853D01*
X90708858Y-29950000D01*
X90291142Y-29950000D01*
X89905223Y-30109853D01*
X89609853Y-30405223D01*
X89450000Y-30791142D01*
X625000Y-30791142D01*
X625000Y-28211033D01*
X38550000Y-28211033D01*
X38550000Y-28588967D01*
X38694629Y-28938132D01*
X38961868Y-29205371D01*
X39311033Y-29350000D01*
X39688967Y-29350000D01*
X40038132Y-29205371D01*
X40305371Y-28938132D01*
X40450000Y-28588967D01*
X40450000Y-28211033D01*
X40305371Y-27861868D01*
X40038132Y-27594629D01*
X40029714Y-27591142D01*
X72850000Y-27591142D01*
X72850000Y-28008858D01*
X73009853Y-28394777D01*
X73305223Y-28690147D01*
X73691142Y-28850000D01*
X74108858Y-28850000D01*
X74494777Y-28690147D01*
X74790147Y-28394777D01*
X74950000Y-28008858D01*
X74950000Y-27591142D01*
X74890131Y-27446604D01*
X77045000Y-27446604D01*
X77045000Y-28033396D01*
X77269555Y-28575520D01*
X77684480Y-28990445D01*
X78226604Y-29215000D01*
X78813396Y-29215000D01*
X79355520Y-28990445D01*
X79770445Y-28575520D01*
X79790000Y-28528310D01*
X79809555Y-28575520D01*
X80224480Y-28990445D01*
X80766604Y-29215000D01*
X81353396Y-29215000D01*
X81895520Y-28990445D01*
X82310445Y-28575520D01*
X82330000Y-28528310D01*
X82349555Y-28575520D01*
X82764480Y-28990445D01*
X83306604Y-29215000D01*
X83893396Y-29215000D01*
X84435520Y-28990445D01*
X84850445Y-28575520D01*
X85075000Y-28033396D01*
X85075000Y-27446604D01*
X87205000Y-27446604D01*
X87205000Y-28033396D01*
X87429555Y-28575520D01*
X87844480Y-28990445D01*
X88386604Y-29215000D01*
X88973396Y-29215000D01*
X89515520Y-28990445D01*
X89930445Y-28575520D01*
X90155000Y-28033396D01*
X90155000Y-27446604D01*
X89930445Y-26904480D01*
X89515520Y-26489555D01*
X88973396Y-26265000D01*
X88386604Y-26265000D01*
X87844480Y-26489555D01*
X87429555Y-26904480D01*
X87205000Y-27446604D01*
X85075000Y-27446604D01*
X84850445Y-26904480D01*
X84435520Y-26489555D01*
X83893396Y-26265000D01*
X83306604Y-26265000D01*
X82764480Y-26489555D01*
X82349555Y-26904480D01*
X82330000Y-26951690D01*
X82310445Y-26904480D01*
X81895520Y-26489555D01*
X81353396Y-26265000D01*
X80766604Y-26265000D01*
X80224480Y-26489555D01*
X79809555Y-26904480D01*
X79790000Y-26951690D01*
X79770445Y-26904480D01*
X79355520Y-26489555D01*
X78813396Y-26265000D01*
X78226604Y-26265000D01*
X77684480Y-26489555D01*
X77269555Y-26904480D01*
X77045000Y-27446604D01*
X74890131Y-27446604D01*
X74790147Y-27205223D01*
X74494777Y-26909853D01*
X74108858Y-26750000D01*
X73691142Y-26750000D01*
X73305223Y-26909853D01*
X73009853Y-27205223D01*
X72850000Y-27591142D01*
X40029714Y-27591142D01*
X39688967Y-27450000D01*
X39311033Y-27450000D01*
X38961868Y-27594629D01*
X38694629Y-27861868D01*
X38550000Y-28211033D01*
X625000Y-28211033D01*
X625000Y-23630925D01*
X48550000Y-23630925D01*
X48550000Y-23969075D01*
X48679405Y-24281486D01*
X48918514Y-24520595D01*
X49230925Y-24650000D01*
X49569075Y-24650000D01*
X49881486Y-24520595D01*
X50120595Y-24281486D01*
X50250000Y-23969075D01*
X50250000Y-23630925D01*
X50120595Y-23318514D01*
X49881486Y-23079405D01*
X49569075Y-22950000D01*
X49230925Y-22950000D01*
X48918514Y-23079405D01*
X48679405Y-23318514D01*
X48550000Y-23630925D01*
X625000Y-23630925D01*
X625000Y-22366604D01*
X77045000Y-22366604D01*
X77045000Y-22953396D01*
X77269555Y-23495520D01*
X77684480Y-23910445D01*
X78226604Y-24135000D01*
X78813396Y-24135000D01*
X79355520Y-23910445D01*
X79770445Y-23495520D01*
X79790000Y-23448310D01*
X79809555Y-23495520D01*
X80224480Y-23910445D01*
X80766604Y-24135000D01*
X81353396Y-24135000D01*
X81895520Y-23910445D01*
X82310445Y-23495520D01*
X82330000Y-23448310D01*
X82349555Y-23495520D01*
X82764480Y-23910445D01*
X83306604Y-24135000D01*
X83893396Y-24135000D01*
X84435520Y-23910445D01*
X84850445Y-23495520D01*
X85075000Y-22953396D01*
X85075000Y-22366604D01*
X87205000Y-22366604D01*
X87205000Y-22953396D01*
X87429555Y-23495520D01*
X87844480Y-23910445D01*
X88386604Y-24135000D01*
X88973396Y-24135000D01*
X89515520Y-23910445D01*
X89930445Y-23495520D01*
X90155000Y-22953396D01*
X90155000Y-22366604D01*
X89930445Y-21824480D01*
X89515520Y-21409555D01*
X88973396Y-21185000D01*
X88386604Y-21185000D01*
X87844480Y-21409555D01*
X87429555Y-21824480D01*
X87205000Y-22366604D01*
X85075000Y-22366604D01*
X84850445Y-21824480D01*
X84435520Y-21409555D01*
X83893396Y-21185000D01*
X83306604Y-21185000D01*
X82764480Y-21409555D01*
X82349555Y-21824480D01*
X82330000Y-21871690D01*
X82310445Y-21824480D01*
X81895520Y-21409555D01*
X81353396Y-21185000D01*
X80766604Y-21185000D01*
X80224480Y-21409555D01*
X79809555Y-21824480D01*
X79790000Y-21871690D01*
X79770445Y-21824480D01*
X79355520Y-21409555D01*
X78813396Y-21185000D01*
X78226604Y-21185000D01*
X77684480Y-21409555D01*
X77269555Y-21824480D01*
X77045000Y-22366604D01*
X625000Y-22366604D01*
X625000Y-14706604D01*
X7985000Y-14706604D01*
X7985000Y-15293396D01*
X8209555Y-15835520D01*
X8624480Y-16250445D01*
X8671690Y-16270000D01*
X8624480Y-16289555D01*
X8209555Y-16704480D01*
X7985000Y-17246604D01*
X7985000Y-17833396D01*
X8209555Y-18375520D01*
X8624480Y-18790445D01*
X8671690Y-18810000D01*
X8624480Y-18829555D01*
X8209555Y-19244480D01*
X7985000Y-19786604D01*
X7985000Y-20373396D01*
X8209555Y-20915520D01*
X8624480Y-21330445D01*
X9166604Y-21555000D01*
X9753396Y-21555000D01*
X10295520Y-21330445D01*
X10710445Y-20915520D01*
X10935000Y-20373396D01*
X10935000Y-19786604D01*
X10710445Y-19244480D01*
X10295520Y-18829555D01*
X10248310Y-18810000D01*
X10295520Y-18790445D01*
X10710445Y-18375520D01*
X10935000Y-17833396D01*
X10935000Y-17246604D01*
X10710445Y-16704480D01*
X10295520Y-16289555D01*
X10248310Y-16270000D01*
X10295520Y-16250445D01*
X10710445Y-15835520D01*
X10935000Y-15293396D01*
X10935000Y-14706604D01*
X13065000Y-14706604D01*
X13065000Y-15293396D01*
X13289555Y-15835520D01*
X13704480Y-16250445D01*
X13751690Y-16270000D01*
X13704480Y-16289555D01*
X13289555Y-16704480D01*
X13065000Y-17246604D01*
X13065000Y-17833396D01*
X13289555Y-18375520D01*
X13704480Y-18790445D01*
X13751690Y-18810000D01*
X13704480Y-18829555D01*
X13289555Y-19244480D01*
X13065000Y-19786604D01*
X13065000Y-20373396D01*
X13289555Y-20915520D01*
X13704480Y-21330445D01*
X14246604Y-21555000D01*
X14833396Y-21555000D01*
X15375520Y-21330445D01*
X15790445Y-20915520D01*
X16015000Y-20373396D01*
X16015000Y-19786604D01*
X15790445Y-19244480D01*
X15375520Y-18829555D01*
X15328310Y-18810000D01*
X15375520Y-18790445D01*
X15790445Y-18375520D01*
X16015000Y-17833396D01*
X16015000Y-17246604D01*
X15790445Y-16704480D01*
X15375520Y-16289555D01*
X15328310Y-16270000D01*
X15375520Y-16250445D01*
X15790445Y-15835520D01*
X16015000Y-15293396D01*
X16015000Y-14706604D01*
X20985000Y-14706604D01*
X20985000Y-15293396D01*
X21209555Y-15835520D01*
X21624480Y-16250445D01*
X21671690Y-16270000D01*
X21624480Y-16289555D01*
X21209555Y-16704480D01*
X20985000Y-17246604D01*
X20985000Y-17833396D01*
X21209555Y-18375520D01*
X21624480Y-18790445D01*
X21671690Y-18810000D01*
X21624480Y-18829555D01*
X21209555Y-19244480D01*
X20985000Y-19786604D01*
X20985000Y-20373396D01*
X21209555Y-20915520D01*
X21624480Y-21330445D01*
X22166604Y-21555000D01*
X22753396Y-21555000D01*
X23295520Y-21330445D01*
X23710445Y-20915520D01*
X23935000Y-20373396D01*
X23935000Y-19786604D01*
X23710445Y-19244480D01*
X23295520Y-18829555D01*
X23248310Y-18810000D01*
X23295520Y-18790445D01*
X23710445Y-18375520D01*
X23935000Y-17833396D01*
X23935000Y-17246604D01*
X23710445Y-16704480D01*
X23295520Y-16289555D01*
X23248310Y-16270000D01*
X23295520Y-16250445D01*
X23710445Y-15835520D01*
X23935000Y-15293396D01*
X23935000Y-14706604D01*
X26065000Y-14706604D01*
X26065000Y-15293396D01*
X26289555Y-15835520D01*
X26704480Y-16250445D01*
X26751690Y-16270000D01*
X26704480Y-16289555D01*
X26289555Y-16704480D01*
X26065000Y-17246604D01*
X26065000Y-17833396D01*
X26289555Y-18375520D01*
X26704480Y-18790445D01*
X26751690Y-18810000D01*
X26704480Y-18829555D01*
X26289555Y-19244480D01*
X26065000Y-19786604D01*
X26065000Y-20373396D01*
X26289555Y-20915520D01*
X26704480Y-21330445D01*
X27246604Y-21555000D01*
X27833396Y-21555000D01*
X28375520Y-21330445D01*
X28790445Y-20915520D01*
X29015000Y-20373396D01*
X29015000Y-19786604D01*
X28790445Y-19244480D01*
X28375520Y-18829555D01*
X28328310Y-18810000D01*
X28375520Y-18790445D01*
X28790445Y-18375520D01*
X29015000Y-17833396D01*
X29015000Y-17246604D01*
X28790445Y-16704480D01*
X28375520Y-16289555D01*
X28328310Y-16270000D01*
X28375520Y-16250445D01*
X28790445Y-15835520D01*
X29015000Y-15293396D01*
X29015000Y-14706604D01*
X33985000Y-14706604D01*
X33985000Y-15293396D01*
X34209555Y-15835520D01*
X34624480Y-16250445D01*
X34671690Y-16270000D01*
X34624480Y-16289555D01*
X34209555Y-16704480D01*
X33985000Y-17246604D01*
X33985000Y-17833396D01*
X34209555Y-18375520D01*
X34624480Y-18790445D01*
X34671690Y-18810000D01*
X34624480Y-18829555D01*
X34209555Y-19244480D01*
X33985000Y-19786604D01*
X33985000Y-20373396D01*
X34209555Y-20915520D01*
X34624480Y-21330445D01*
X35166604Y-21555000D01*
X35753396Y-21555000D01*
X36295520Y-21330445D01*
X36710445Y-20915520D01*
X36935000Y-20373396D01*
X36935000Y-19786604D01*
X36710445Y-19244480D01*
X36295520Y-18829555D01*
X36248310Y-18810000D01*
X36295520Y-18790445D01*
X36710445Y-18375520D01*
X36935000Y-17833396D01*
X36935000Y-17246604D01*
X36710445Y-16704480D01*
X36295520Y-16289555D01*
X36248310Y-16270000D01*
X36295520Y-16250445D01*
X36710445Y-15835520D01*
X36935000Y-15293396D01*
X36935000Y-14706604D01*
X39065000Y-14706604D01*
X39065000Y-15293396D01*
X39289555Y-15835520D01*
X39704480Y-16250445D01*
X39751690Y-16270000D01*
X39704480Y-16289555D01*
X39289555Y-16704480D01*
X39065000Y-17246604D01*
X39065000Y-17833396D01*
X39289555Y-18375520D01*
X39704480Y-18790445D01*
X39751690Y-18810000D01*
X39704480Y-18829555D01*
X39289555Y-19244480D01*
X39065000Y-19786604D01*
X39065000Y-20373396D01*
X39289555Y-20915520D01*
X39704480Y-21330445D01*
X40246604Y-21555000D01*
X40833396Y-21555000D01*
X41375520Y-21330445D01*
X41790445Y-20915520D01*
X42015000Y-20373396D01*
X42015000Y-19786604D01*
X41790445Y-19244480D01*
X41375520Y-18829555D01*
X41328310Y-18810000D01*
X41375520Y-18790445D01*
X41790445Y-18375520D01*
X42015000Y-17833396D01*
X42015000Y-17246604D01*
X41790445Y-16704480D01*
X41375520Y-16289555D01*
X41328310Y-16270000D01*
X41375520Y-16250445D01*
X41790445Y-15835520D01*
X41958033Y-15430925D01*
X42150000Y-15430925D01*
X42150000Y-15769075D01*
X42279405Y-16081486D01*
X42518514Y-16320595D01*
X42830925Y-16450000D01*
X43169075Y-16450000D01*
X43481486Y-16320595D01*
X43720595Y-16081486D01*
X43850000Y-15769075D01*
X43850000Y-15430925D01*
X43723538Y-15125619D01*
X43918514Y-15320595D01*
X44230925Y-15450000D01*
X44569075Y-15450000D01*
X44881486Y-15320595D01*
X45120595Y-15081486D01*
X45250000Y-14769075D01*
X45250000Y-14706604D01*
X46985000Y-14706604D01*
X46985000Y-15293396D01*
X47209555Y-15835520D01*
X47624480Y-16250445D01*
X47671690Y-16270000D01*
X47624480Y-16289555D01*
X47209555Y-16704480D01*
X46985000Y-17246604D01*
X46985000Y-17833396D01*
X47209555Y-18375520D01*
X47624480Y-18790445D01*
X47671690Y-18810000D01*
X47624480Y-18829555D01*
X47209555Y-19244480D01*
X46985000Y-19786604D01*
X46985000Y-20373396D01*
X47209555Y-20915520D01*
X47624480Y-21330445D01*
X48166604Y-21555000D01*
X48753396Y-21555000D01*
X49295520Y-21330445D01*
X49710445Y-20915520D01*
X49935000Y-20373396D01*
X49935000Y-19786604D01*
X49710445Y-19244480D01*
X49295520Y-18829555D01*
X49248310Y-18810000D01*
X49295520Y-18790445D01*
X49710445Y-18375520D01*
X49935000Y-17833396D01*
X49935000Y-17246604D01*
X49710445Y-16704480D01*
X49295520Y-16289555D01*
X49248310Y-16270000D01*
X49295520Y-16250445D01*
X49710445Y-15835520D01*
X49935000Y-15293396D01*
X49935000Y-14706604D01*
X52065000Y-14706604D01*
X52065000Y-15293396D01*
X52289555Y-15835520D01*
X52704480Y-16250445D01*
X52751690Y-16270000D01*
X52704480Y-16289555D01*
X52289555Y-16704480D01*
X52065000Y-17246604D01*
X52065000Y-17833396D01*
X52289555Y-18375520D01*
X52704480Y-18790445D01*
X52751690Y-18810000D01*
X52704480Y-18829555D01*
X52289555Y-19244480D01*
X52065000Y-19786604D01*
X52065000Y-20373396D01*
X52289555Y-20915520D01*
X52704480Y-21330445D01*
X53246604Y-21555000D01*
X53833396Y-21555000D01*
X54375520Y-21330445D01*
X54790445Y-20915520D01*
X55015000Y-20373396D01*
X55015000Y-19786604D01*
X54790445Y-19244480D01*
X54375520Y-18829555D01*
X54328310Y-18810000D01*
X54375520Y-18790445D01*
X54790445Y-18375520D01*
X55015000Y-17833396D01*
X55015000Y-17246604D01*
X54790445Y-16704480D01*
X54375520Y-16289555D01*
X54328310Y-16270000D01*
X54375520Y-16250445D01*
X54790445Y-15835520D01*
X55015000Y-15293396D01*
X55015000Y-14706604D01*
X54790445Y-14164480D01*
X54375520Y-13749555D01*
X53833396Y-13525000D01*
X53246604Y-13525000D01*
X52704480Y-13749555D01*
X52289555Y-14164480D01*
X52065000Y-14706604D01*
X49935000Y-14706604D01*
X49710445Y-14164480D01*
X49295520Y-13749555D01*
X48753396Y-13525000D01*
X48166604Y-13525000D01*
X47624480Y-13749555D01*
X47209555Y-14164480D01*
X46985000Y-14706604D01*
X45250000Y-14706604D01*
X45250000Y-14430925D01*
X45120595Y-14118514D01*
X44881486Y-13879405D01*
X44569075Y-13750000D01*
X44230925Y-13750000D01*
X43918514Y-13879405D01*
X43679405Y-14118514D01*
X43550000Y-14430925D01*
X43550000Y-14769075D01*
X43676462Y-15074381D01*
X43481486Y-14879405D01*
X43169075Y-14750000D01*
X42830925Y-14750000D01*
X42518514Y-14879405D01*
X42279405Y-15118514D01*
X42150000Y-15430925D01*
X41958033Y-15430925D01*
X42015000Y-15293396D01*
X42015000Y-14706604D01*
X41790445Y-14164480D01*
X41375520Y-13749555D01*
X40833396Y-13525000D01*
X40246604Y-13525000D01*
X39704480Y-13749555D01*
X39289555Y-14164480D01*
X39065000Y-14706604D01*
X36935000Y-14706604D01*
X36710445Y-14164480D01*
X36295520Y-13749555D01*
X35753396Y-13525000D01*
X35166604Y-13525000D01*
X34624480Y-13749555D01*
X34209555Y-14164480D01*
X33985000Y-14706604D01*
X29015000Y-14706604D01*
X28790445Y-14164480D01*
X28375520Y-13749555D01*
X27833396Y-13525000D01*
X27246604Y-13525000D01*
X26704480Y-13749555D01*
X26289555Y-14164480D01*
X26065000Y-14706604D01*
X23935000Y-14706604D01*
X23710445Y-14164480D01*
X23295520Y-13749555D01*
X22753396Y-13525000D01*
X22166604Y-13525000D01*
X21624480Y-13749555D01*
X21209555Y-14164480D01*
X20985000Y-14706604D01*
X16015000Y-14706604D01*
X15790445Y-14164480D01*
X15375520Y-13749555D01*
X14833396Y-13525000D01*
X14246604Y-13525000D01*
X13704480Y-13749555D01*
X13289555Y-14164480D01*
X13065000Y-14706604D01*
X10935000Y-14706604D01*
X10710445Y-14164480D01*
X10295520Y-13749555D01*
X9753396Y-13525000D01*
X9166604Y-13525000D01*
X8624480Y-13749555D01*
X8209555Y-14164480D01*
X7985000Y-14706604D01*
X625000Y-14706604D01*
X625000Y-13511033D01*
X16650000Y-13511033D01*
X16650000Y-13888967D01*
X16794629Y-14238132D01*
X17061868Y-14505371D01*
X17411033Y-14650000D01*
X17788967Y-14650000D01*
X18138132Y-14505371D01*
X18405371Y-14238132D01*
X18550000Y-13888967D01*
X18550000Y-13511033D01*
X18405371Y-13161868D01*
X18138132Y-12894629D01*
X17788967Y-12750000D01*
X17411033Y-12750000D01*
X17061868Y-12894629D01*
X16794629Y-13161868D01*
X16650000Y-13511033D01*
X625000Y-13511033D01*
X625000Y-12706604D01*
X59985000Y-12706604D01*
X59985000Y-13293396D01*
X60209555Y-13835520D01*
X60624480Y-14250445D01*
X60671690Y-14270000D01*
X60624480Y-14289555D01*
X60209555Y-14704480D01*
X59985000Y-15246604D01*
X59985000Y-15833396D01*
X60209555Y-16375520D01*
X60624480Y-16790445D01*
X60671690Y-16810000D01*
X60624480Y-16829555D01*
X60209555Y-17244480D01*
X59985000Y-17786604D01*
X59985000Y-18373396D01*
X60209555Y-18915520D01*
X60624480Y-19330445D01*
X61166604Y-19555000D01*
X61753396Y-19555000D01*
X62295520Y-19330445D01*
X62710445Y-18915520D01*
X62935000Y-18373396D01*
X62935000Y-17786604D01*
X62710445Y-17244480D01*
X62295520Y-16829555D01*
X62248310Y-16810000D01*
X62295520Y-16790445D01*
X62710445Y-16375520D01*
X62935000Y-15833396D01*
X62935000Y-15246604D01*
X62710445Y-14704480D01*
X62295520Y-14289555D01*
X62248310Y-14270000D01*
X62295520Y-14250445D01*
X62710445Y-13835520D01*
X62935000Y-13293396D01*
X62935000Y-12706604D01*
X65065000Y-12706604D01*
X65065000Y-13293396D01*
X65289555Y-13835520D01*
X65704480Y-14250445D01*
X65751690Y-14270000D01*
X65704480Y-14289555D01*
X65289555Y-14704480D01*
X65065000Y-15246604D01*
X65065000Y-15833396D01*
X65289555Y-16375520D01*
X65704480Y-16790445D01*
X65751690Y-16810000D01*
X65704480Y-16829555D01*
X65289555Y-17244480D01*
X65065000Y-17786604D01*
X65065000Y-18373396D01*
X65289555Y-18915520D01*
X65704480Y-19330445D01*
X66246604Y-19555000D01*
X66833396Y-19555000D01*
X67375520Y-19330445D01*
X67790445Y-18915520D01*
X68015000Y-18373396D01*
X68015000Y-17786604D01*
X67790445Y-17244480D01*
X67375520Y-16829555D01*
X67328310Y-16810000D01*
X67375520Y-16790445D01*
X67790445Y-16375520D01*
X68015000Y-15833396D01*
X68015000Y-15246604D01*
X67790445Y-14704480D01*
X67732569Y-14646604D01*
X72045000Y-14646604D01*
X72045000Y-15233396D01*
X72269555Y-15775520D01*
X72684480Y-16190445D01*
X73226604Y-16415000D01*
X73813396Y-16415000D01*
X74355520Y-16190445D01*
X74770445Y-15775520D01*
X74995000Y-15233396D01*
X74995000Y-14646604D01*
X77125000Y-14646604D01*
X77125000Y-15233396D01*
X77349555Y-15775520D01*
X77764480Y-16190445D01*
X78306604Y-16415000D01*
X78893396Y-16415000D01*
X79435520Y-16190445D01*
X79850445Y-15775520D01*
X79870000Y-15728310D01*
X79889555Y-15775520D01*
X80304480Y-16190445D01*
X80846604Y-16415000D01*
X81433396Y-16415000D01*
X81975520Y-16190445D01*
X82390445Y-15775520D01*
X82410000Y-15728310D01*
X82429555Y-15775520D01*
X82844480Y-16190445D01*
X83386604Y-16415000D01*
X83973396Y-16415000D01*
X84515520Y-16190445D01*
X84930445Y-15775520D01*
X85155000Y-15233396D01*
X85155000Y-14646604D01*
X84930445Y-14104480D01*
X84515520Y-13689555D01*
X83973396Y-13465000D01*
X83386604Y-13465000D01*
X82844480Y-13689555D01*
X82429555Y-14104480D01*
X82410000Y-14151690D01*
X82390445Y-14104480D01*
X81975520Y-13689555D01*
X81433396Y-13465000D01*
X80846604Y-13465000D01*
X80304480Y-13689555D01*
X79889555Y-14104480D01*
X79870000Y-14151690D01*
X79850445Y-14104480D01*
X79435520Y-13689555D01*
X78893396Y-13465000D01*
X78306604Y-13465000D01*
X77764480Y-13689555D01*
X77349555Y-14104480D01*
X77125000Y-14646604D01*
X74995000Y-14646604D01*
X74770445Y-14104480D01*
X74355520Y-13689555D01*
X73813396Y-13465000D01*
X73226604Y-13465000D01*
X72684480Y-13689555D01*
X72269555Y-14104480D01*
X72045000Y-14646604D01*
X67732569Y-14646604D01*
X67375520Y-14289555D01*
X67328310Y-14270000D01*
X67375520Y-14250445D01*
X67790445Y-13835520D01*
X68015000Y-13293396D01*
X68015000Y-12706604D01*
X67790445Y-12164480D01*
X67375520Y-11749555D01*
X66833396Y-11525000D01*
X66246604Y-11525000D01*
X65704480Y-11749555D01*
X65289555Y-12164480D01*
X65065000Y-12706604D01*
X62935000Y-12706604D01*
X62710445Y-12164480D01*
X62295520Y-11749555D01*
X61753396Y-11525000D01*
X61166604Y-11525000D01*
X60624480Y-11749555D01*
X60209555Y-12164480D01*
X59985000Y-12706604D01*
X625000Y-12706604D01*
X625000Y-9626604D01*
X7985000Y-9626604D01*
X7985000Y-10213396D01*
X8209555Y-10755520D01*
X8624480Y-11170445D01*
X9166604Y-11395000D01*
X9753396Y-11395000D01*
X10295520Y-11170445D01*
X10710445Y-10755520D01*
X10935000Y-10213396D01*
X10935000Y-9626604D01*
X13065000Y-9626604D01*
X13065000Y-10213396D01*
X13289555Y-10755520D01*
X13704480Y-11170445D01*
X14246604Y-11395000D01*
X14833396Y-11395000D01*
X15375520Y-11170445D01*
X15790445Y-10755520D01*
X16015000Y-10213396D01*
X16015000Y-9626604D01*
X20985000Y-9626604D01*
X20985000Y-10213396D01*
X21209555Y-10755520D01*
X21624480Y-11170445D01*
X22166604Y-11395000D01*
X22753396Y-11395000D01*
X23295520Y-11170445D01*
X23710445Y-10755520D01*
X23935000Y-10213396D01*
X23935000Y-9626604D01*
X26065000Y-9626604D01*
X26065000Y-10213396D01*
X26289555Y-10755520D01*
X26704480Y-11170445D01*
X27246604Y-11395000D01*
X27833396Y-11395000D01*
X28375520Y-11170445D01*
X28790445Y-10755520D01*
X28842053Y-10630925D01*
X32650000Y-10630925D01*
X32650000Y-10969075D01*
X32779405Y-11281486D01*
X33018514Y-11520595D01*
X33330925Y-11650000D01*
X33669075Y-11650000D01*
X33981486Y-11520595D01*
X34220595Y-11281486D01*
X34350000Y-10969075D01*
X34350000Y-10895965D01*
X34624480Y-11170445D01*
X35166604Y-11395000D01*
X35753396Y-11395000D01*
X36295520Y-11170445D01*
X36710445Y-10755520D01*
X36935000Y-10213396D01*
X36935000Y-9626604D01*
X39065000Y-9626604D01*
X39065000Y-10213396D01*
X39289555Y-10755520D01*
X39704480Y-11170445D01*
X40246604Y-11395000D01*
X40833396Y-11395000D01*
X41375520Y-11170445D01*
X41790445Y-10755520D01*
X41982796Y-10291142D01*
X43850000Y-10291142D01*
X43850000Y-10708858D01*
X44009853Y-11094777D01*
X44305223Y-11390147D01*
X44691142Y-11550000D01*
X45108858Y-11550000D01*
X45494777Y-11390147D01*
X45790147Y-11094777D01*
X45950000Y-10708858D01*
X45950000Y-10291142D01*
X45790147Y-9905223D01*
X45511528Y-9626604D01*
X46985000Y-9626604D01*
X46985000Y-10213396D01*
X47209555Y-10755520D01*
X47624480Y-11170445D01*
X48166604Y-11395000D01*
X48753396Y-11395000D01*
X49295520Y-11170445D01*
X49710445Y-10755520D01*
X49935000Y-10213396D01*
X49935000Y-9626604D01*
X52065000Y-9626604D01*
X52065000Y-10213396D01*
X52289555Y-10755520D01*
X52704480Y-11170445D01*
X53246604Y-11395000D01*
X53833396Y-11395000D01*
X54375520Y-11170445D01*
X54677640Y-10868325D01*
X55982172Y-10868325D01*
X56052834Y-10992951D01*
X56370734Y-11365242D01*
X56806905Y-11587539D01*
X57000000Y-11525969D01*
X57000000Y-10680000D01*
X57600000Y-10680000D01*
X57600000Y-11525969D01*
X57793095Y-11587539D01*
X58229266Y-11365242D01*
X58547166Y-10992951D01*
X58617828Y-10868325D01*
X58576662Y-10680000D01*
X57600000Y-10680000D01*
X57000000Y-10680000D01*
X56023338Y-10680000D01*
X55982172Y-10868325D01*
X54677640Y-10868325D01*
X54790445Y-10755520D01*
X55015000Y-10213396D01*
X55015000Y-9626604D01*
X54790445Y-9084480D01*
X54375520Y-8669555D01*
X53833396Y-8445000D01*
X53246604Y-8445000D01*
X52704480Y-8669555D01*
X52289555Y-9084480D01*
X52065000Y-9626604D01*
X49935000Y-9626604D01*
X49710445Y-9084480D01*
X49295520Y-8669555D01*
X48753396Y-8445000D01*
X48166604Y-8445000D01*
X47624480Y-8669555D01*
X47209555Y-9084480D01*
X46985000Y-9626604D01*
X45511528Y-9626604D01*
X45494777Y-9609853D01*
X45108858Y-9450000D01*
X44691142Y-9450000D01*
X44305223Y-9609853D01*
X44009853Y-9905223D01*
X43850000Y-10291142D01*
X41982796Y-10291142D01*
X42015000Y-10213396D01*
X42015000Y-9626604D01*
X41790445Y-9084480D01*
X41375520Y-8669555D01*
X40847873Y-8450997D01*
X40994777Y-8390147D01*
X41290147Y-8094777D01*
X41395679Y-7840000D01*
X55706306Y-7840000D01*
X55816018Y-8391559D01*
X56128451Y-8859149D01*
X56596041Y-9171582D01*
X56748951Y-9201998D01*
X56370734Y-9394758D01*
X56052834Y-9767049D01*
X55982172Y-9891675D01*
X56023338Y-10080000D01*
X57000000Y-10080000D01*
X57000000Y-10060000D01*
X57600000Y-10060000D01*
X57600000Y-10080000D01*
X58576662Y-10080000D01*
X58617828Y-9891675D01*
X58547166Y-9767049D01*
X58376006Y-9566604D01*
X72045000Y-9566604D01*
X72045000Y-10153396D01*
X72269555Y-10695520D01*
X72684480Y-11110445D01*
X73226604Y-11335000D01*
X73813396Y-11335000D01*
X74355520Y-11110445D01*
X74770445Y-10695520D01*
X74995000Y-10153396D01*
X74995000Y-9566604D01*
X77125000Y-9566604D01*
X77125000Y-10153396D01*
X77349555Y-10695520D01*
X77764480Y-11110445D01*
X78306604Y-11335000D01*
X78893396Y-11335000D01*
X79435520Y-11110445D01*
X79850445Y-10695520D01*
X79870000Y-10648310D01*
X79889555Y-10695520D01*
X80304480Y-11110445D01*
X80846604Y-11335000D01*
X81433396Y-11335000D01*
X81975520Y-11110445D01*
X82390445Y-10695520D01*
X82410000Y-10648310D01*
X82429555Y-10695520D01*
X82844480Y-11110445D01*
X83386604Y-11335000D01*
X83973396Y-11335000D01*
X84515520Y-11110445D01*
X84930445Y-10695520D01*
X85155000Y-10153396D01*
X85155000Y-9566604D01*
X84930445Y-9024480D01*
X84515520Y-8609555D01*
X83973396Y-8385000D01*
X83386604Y-8385000D01*
X82844480Y-8609555D01*
X82429555Y-9024480D01*
X82410000Y-9071690D01*
X82390445Y-9024480D01*
X81975520Y-8609555D01*
X81433396Y-8385000D01*
X80846604Y-8385000D01*
X80304480Y-8609555D01*
X79889555Y-9024480D01*
X79870000Y-9071690D01*
X79850445Y-9024480D01*
X79435520Y-8609555D01*
X78893396Y-8385000D01*
X78306604Y-8385000D01*
X77764480Y-8609555D01*
X77349555Y-9024480D01*
X77125000Y-9566604D01*
X74995000Y-9566604D01*
X74770445Y-9024480D01*
X74355520Y-8609555D01*
X73813396Y-8385000D01*
X73226604Y-8385000D01*
X72684480Y-8609555D01*
X72269555Y-9024480D01*
X72045000Y-9566604D01*
X58376006Y-9566604D01*
X58229266Y-9394758D01*
X57851049Y-9201998D01*
X58003959Y-9171582D01*
X58471549Y-8859149D01*
X58783982Y-8391559D01*
X58893694Y-7840000D01*
X58851247Y-7626604D01*
X59985000Y-7626604D01*
X59985000Y-8213396D01*
X60209555Y-8755520D01*
X60624480Y-9170445D01*
X61166604Y-9395000D01*
X61753396Y-9395000D01*
X62295520Y-9170445D01*
X62710445Y-8755520D01*
X62935000Y-8213396D01*
X62935000Y-7626604D01*
X65065000Y-7626604D01*
X65065000Y-8213396D01*
X65289555Y-8755520D01*
X65704480Y-9170445D01*
X66246604Y-9395000D01*
X66833396Y-9395000D01*
X67375520Y-9170445D01*
X67790445Y-8755520D01*
X68015000Y-8213396D01*
X68015000Y-7765782D01*
X68109853Y-7994777D01*
X68405223Y-8290147D01*
X68791142Y-8450000D01*
X69208858Y-8450000D01*
X69594777Y-8290147D01*
X69890147Y-7994777D01*
X70050000Y-7608858D01*
X70050000Y-7191142D01*
X69890147Y-6805223D01*
X69594777Y-6509853D01*
X69208858Y-6350000D01*
X68791142Y-6350000D01*
X68405223Y-6509853D01*
X68109853Y-6805223D01*
X67950000Y-7191142D01*
X67950000Y-7469680D01*
X67790445Y-7084480D01*
X67375520Y-6669555D01*
X66833396Y-6445000D01*
X66246604Y-6445000D01*
X65704480Y-6669555D01*
X65289555Y-7084480D01*
X65065000Y-7626604D01*
X62935000Y-7626604D01*
X62710445Y-7084480D01*
X62295520Y-6669555D01*
X61753396Y-6445000D01*
X61166604Y-6445000D01*
X60624480Y-6669555D01*
X60209555Y-7084480D01*
X59985000Y-7626604D01*
X58851247Y-7626604D01*
X58783982Y-7288441D01*
X58471549Y-6820851D01*
X58324602Y-6722664D01*
X58530599Y-6681689D01*
X58712528Y-6560128D01*
X58834089Y-6378199D01*
X58851405Y-6291142D01*
X70250000Y-6291142D01*
X70250000Y-6708858D01*
X70409853Y-7094777D01*
X70705223Y-7390147D01*
X71091142Y-7550000D01*
X71508858Y-7550000D01*
X71894777Y-7390147D01*
X72190147Y-7094777D01*
X72350000Y-6708858D01*
X72350000Y-6291142D01*
X72190147Y-5905223D01*
X71894777Y-5609853D01*
X71508858Y-5450000D01*
X71091142Y-5450000D01*
X70705223Y-5609853D01*
X70409853Y-5905223D01*
X70250000Y-6291142D01*
X58851405Y-6291142D01*
X58876775Y-6163600D01*
X58876775Y-4436400D01*
X58834089Y-4221801D01*
X58712528Y-4039872D01*
X58530599Y-3918311D01*
X58316000Y-3875625D01*
X56284000Y-3875625D01*
X56069401Y-3918311D01*
X55887472Y-4039872D01*
X55765911Y-4221801D01*
X55723225Y-4436400D01*
X55723225Y-6163600D01*
X55765911Y-6378199D01*
X55887472Y-6560128D01*
X56069401Y-6681689D01*
X56275398Y-6722664D01*
X56128451Y-6820851D01*
X55816018Y-7288441D01*
X55706306Y-7840000D01*
X41395679Y-7840000D01*
X41450000Y-7708858D01*
X41450000Y-7291142D01*
X41290147Y-6905223D01*
X40994777Y-6609853D01*
X40608858Y-6450000D01*
X40191142Y-6450000D01*
X39805223Y-6609853D01*
X39509853Y-6905223D01*
X39350000Y-7291142D01*
X39350000Y-7708858D01*
X39509853Y-8094777D01*
X39805223Y-8390147D01*
X40092127Y-8508987D01*
X39704480Y-8669555D01*
X39289555Y-9084480D01*
X39065000Y-9626604D01*
X36935000Y-9626604D01*
X36710445Y-9084480D01*
X36295520Y-8669555D01*
X35753396Y-8445000D01*
X35166604Y-8445000D01*
X34624480Y-8669555D01*
X34209555Y-9084480D01*
X33985000Y-9626604D01*
X33985000Y-10082919D01*
X33981486Y-10079405D01*
X33669075Y-9950000D01*
X33330925Y-9950000D01*
X33018514Y-10079405D01*
X32779405Y-10318514D01*
X32650000Y-10630925D01*
X28842053Y-10630925D01*
X29015000Y-10213396D01*
X29015000Y-9626604D01*
X28790445Y-9084480D01*
X28375520Y-8669555D01*
X27833396Y-8445000D01*
X27246604Y-8445000D01*
X26704480Y-8669555D01*
X26289555Y-9084480D01*
X26065000Y-9626604D01*
X23935000Y-9626604D01*
X23710445Y-9084480D01*
X23295520Y-8669555D01*
X22753396Y-8445000D01*
X22166604Y-8445000D01*
X21624480Y-8669555D01*
X21209555Y-9084480D01*
X20985000Y-9626604D01*
X16015000Y-9626604D01*
X15790445Y-9084480D01*
X15375520Y-8669555D01*
X14833396Y-8445000D01*
X14246604Y-8445000D01*
X13704480Y-8669555D01*
X13289555Y-9084480D01*
X13065000Y-9626604D01*
X10935000Y-9626604D01*
X10710445Y-9084480D01*
X10295520Y-8669555D01*
X9753396Y-8445000D01*
X9166604Y-8445000D01*
X8624480Y-8669555D01*
X8209555Y-9084480D01*
X7985000Y-9626604D01*
X625000Y-9626604D01*
X625000Y-7291142D01*
X17850000Y-7291142D01*
X17850000Y-7708858D01*
X18009853Y-8094777D01*
X18305223Y-8390147D01*
X18691142Y-8550000D01*
X19108858Y-8550000D01*
X19494777Y-8390147D01*
X19790147Y-8094777D01*
X19950000Y-7708858D01*
X19950000Y-7291142D01*
X28650000Y-7291142D01*
X28650000Y-7708858D01*
X28809853Y-8094777D01*
X29105223Y-8390147D01*
X29491142Y-8550000D01*
X29908858Y-8550000D01*
X30294777Y-8390147D01*
X30590147Y-8094777D01*
X30750000Y-7708858D01*
X30750000Y-7291142D01*
X30590147Y-6905223D01*
X30294777Y-6609853D01*
X29908858Y-6450000D01*
X29491142Y-6450000D01*
X29105223Y-6609853D01*
X28809853Y-6905223D01*
X28650000Y-7291142D01*
X19950000Y-7291142D01*
X19790147Y-6905223D01*
X19494777Y-6609853D01*
X19108858Y-6450000D01*
X18691142Y-6450000D01*
X18305223Y-6609853D01*
X18009853Y-6905223D01*
X17850000Y-7291142D01*
X625000Y-7291142D01*
X625000Y-5164289D01*
X19615000Y-5164289D01*
X19615000Y-5635711D01*
X19795405Y-6071249D01*
X20128751Y-6404595D01*
X20564289Y-6585000D01*
X21035711Y-6585000D01*
X21471249Y-6404595D01*
X21804595Y-6071249D01*
X21985000Y-5635711D01*
X21985000Y-5164289D01*
X21804595Y-4728751D01*
X21471249Y-4395405D01*
X21035711Y-4215000D01*
X20564289Y-4215000D01*
X20128751Y-4395405D01*
X19795405Y-4728751D01*
X19615000Y-5164289D01*
X625000Y-5164289D01*
X625000Y-3211033D01*
X14250000Y-3211033D01*
X14250000Y-3588967D01*
X14394629Y-3938132D01*
X14661868Y-4205371D01*
X15011033Y-4350000D01*
X15388967Y-4350000D01*
X15738132Y-4205371D01*
X16005371Y-3938132D01*
X16016595Y-3911033D01*
X24350000Y-3911033D01*
X24350000Y-4288967D01*
X24494629Y-4638132D01*
X24761868Y-4905371D01*
X25111033Y-5050000D01*
X25488967Y-5050000D01*
X25838132Y-4905371D01*
X26105371Y-4638132D01*
X26250000Y-4288967D01*
X26250000Y-3930925D01*
X35650000Y-3930925D01*
X35650000Y-4269075D01*
X35779405Y-4581486D01*
X36018514Y-4820595D01*
X36330925Y-4950000D01*
X36669075Y-4950000D01*
X36981486Y-4820595D01*
X37010939Y-4791142D01*
X39650000Y-4791142D01*
X39650000Y-5208858D01*
X39809853Y-5594777D01*
X40105223Y-5890147D01*
X40491142Y-6050000D01*
X40908858Y-6050000D01*
X41294777Y-5890147D01*
X41590147Y-5594777D01*
X41750000Y-5208858D01*
X41909853Y-5594777D01*
X42205223Y-5890147D01*
X42591142Y-6050000D01*
X43008858Y-6050000D01*
X43394777Y-5890147D01*
X43690147Y-5594777D01*
X43850000Y-5208858D01*
X43850000Y-4791142D01*
X43950000Y-4791142D01*
X43950000Y-5208858D01*
X44109853Y-5594777D01*
X44405223Y-5890147D01*
X44791142Y-6050000D01*
X45208858Y-6050000D01*
X45594777Y-5890147D01*
X45890147Y-5594777D01*
X46050000Y-5208858D01*
X46050000Y-4791142D01*
X46016818Y-4711033D01*
X52850000Y-4711033D01*
X52850000Y-5088967D01*
X52994629Y-5438132D01*
X53261868Y-5705371D01*
X53611033Y-5850000D01*
X53988967Y-5850000D01*
X54338132Y-5705371D01*
X54605371Y-5438132D01*
X54750000Y-5088967D01*
X54750000Y-4711033D01*
X54605371Y-4361868D01*
X54338132Y-4094629D01*
X53988967Y-3950000D01*
X53611033Y-3950000D01*
X53261868Y-4094629D01*
X52994629Y-4361868D01*
X52850000Y-4711033D01*
X46016818Y-4711033D01*
X45890147Y-4405223D01*
X45710396Y-4225472D01*
X46011033Y-4350000D01*
X46388967Y-4350000D01*
X46738132Y-4205371D01*
X47005371Y-3938132D01*
X47150000Y-3588967D01*
X47150000Y-3211033D01*
X47450000Y-3211033D01*
X47450000Y-3588967D01*
X47594629Y-3938132D01*
X47861868Y-4205371D01*
X48211033Y-4350000D01*
X48588967Y-4350000D01*
X48938132Y-4205371D01*
X49205371Y-3938132D01*
X49307677Y-3691142D01*
X60450000Y-3691142D01*
X60450000Y-4108858D01*
X60609853Y-4494777D01*
X60905223Y-4790147D01*
X61291142Y-4950000D01*
X61708858Y-4950000D01*
X62094777Y-4790147D01*
X62390147Y-4494777D01*
X62550000Y-4108858D01*
X62550000Y-3691142D01*
X62390147Y-3305223D01*
X62094777Y-3009853D01*
X61708858Y-2850000D01*
X61291142Y-2850000D01*
X60905223Y-3009853D01*
X60609853Y-3305223D01*
X60450000Y-3691142D01*
X49307677Y-3691142D01*
X49350000Y-3588967D01*
X49350000Y-3211033D01*
X49205371Y-2861868D01*
X48938132Y-2594629D01*
X48588967Y-2450000D01*
X48211033Y-2450000D01*
X47861868Y-2594629D01*
X47594629Y-2861868D01*
X47450000Y-3211033D01*
X47150000Y-3211033D01*
X47005371Y-2861868D01*
X46738132Y-2594629D01*
X46388967Y-2450000D01*
X46011033Y-2450000D01*
X45661868Y-2594629D01*
X45394629Y-2861868D01*
X45250000Y-3211033D01*
X45250000Y-3588967D01*
X45394629Y-3938132D01*
X45546249Y-4089752D01*
X45208858Y-3950000D01*
X44791142Y-3950000D01*
X44405223Y-4109853D01*
X44109853Y-4405223D01*
X43950000Y-4791142D01*
X43850000Y-4791142D01*
X43690147Y-4405223D01*
X43394777Y-4109853D01*
X43008858Y-3950000D01*
X42591142Y-3950000D01*
X42205223Y-4109853D01*
X41909853Y-4405223D01*
X41750000Y-4791142D01*
X41590147Y-4405223D01*
X41294777Y-4109853D01*
X40908858Y-3950000D01*
X40491142Y-3950000D01*
X40105223Y-4109853D01*
X39809853Y-4405223D01*
X39650000Y-4791142D01*
X37010939Y-4791142D01*
X37220595Y-4581486D01*
X37350000Y-4269075D01*
X37350000Y-3930925D01*
X37220595Y-3618514D01*
X36981486Y-3379405D01*
X36669075Y-3250000D01*
X36330925Y-3250000D01*
X36018514Y-3379405D01*
X35779405Y-3618514D01*
X35650000Y-3930925D01*
X26250000Y-3930925D01*
X26250000Y-3911033D01*
X26105371Y-3561868D01*
X25838132Y-3294629D01*
X25488967Y-3150000D01*
X25111033Y-3150000D01*
X24761868Y-3294629D01*
X24494629Y-3561868D01*
X24350000Y-3911033D01*
X16016595Y-3911033D01*
X16150000Y-3588967D01*
X16150000Y-3211033D01*
X16005371Y-2861868D01*
X15738132Y-2594629D01*
X15388967Y-2450000D01*
X15011033Y-2450000D01*
X14661868Y-2594629D01*
X14394629Y-2861868D01*
X14250000Y-3211033D01*
X625000Y-3211033D01*
X625000Y-1534000D01*
X7918000Y-1534000D01*
X7918000Y-2063565D01*
X7978896Y-2210582D01*
X8091418Y-2323104D01*
X8238435Y-2384000D01*
X8768000Y-2384000D01*
X8868000Y-2284000D01*
X8868000Y-1434000D01*
X8018000Y-1434000D01*
X7918000Y-1534000D01*
X625000Y-1534000D01*
X625000Y-625000D01*
X7918000Y-625000D01*
X7918000Y-734000D01*
G04 #@! TD*
M02*
