G04 #@! TF.GenerationSoftware,KiCad,Pcbnew,5.0.2-bee76a0~70~ubuntu16.04.1*
G04 #@! TF.CreationDate,2019-12-01T18:07:58-08:00*
G04 #@! TF.ProjectId,psfeedback,70736665-6564-4626-9163-6b2e6b696361,1.0*
G04 #@! TF.SameCoordinates,PX8f25820PY3fcd020*
G04 #@! TF.FileFunction,Soldermask,Top*
G04 #@! TF.FilePolarity,Negative*
%FSLAX46Y46*%
G04 Gerber Fmt 4.6, Leading zero omitted, Abs format (unit mm)*
G04 Created by KiCad (PCBNEW 5.0.2-bee76a0~70~ubuntu16.04.1) date Sun 01 Dec 2019 06:07:58 PM PST*
%MOMM*%
%LPD*%
G01*
G04 APERTURE LIST*
%ADD10C,0.100000*%
G04 APERTURE END LIST*
D10*
G36*
X16810000Y-15320000D02*
X11730000Y-15320000D01*
X11730000Y-9290000D01*
X16810000Y-9290000D01*
X16810000Y-15320000D01*
X16810000Y-15320000D01*
G37*
G36*
X9298500Y-10597000D02*
X7901500Y-10597000D01*
X7901500Y-9708000D01*
X9298500Y-9708000D01*
X9298500Y-10597000D01*
X9298500Y-10597000D01*
G37*
G36*
X11198500Y-10597000D02*
X9801500Y-10597000D01*
X9801500Y-9708000D01*
X11198500Y-9708000D01*
X11198500Y-10597000D01*
X11198500Y-10597000D01*
G37*
G36*
X5300000Y-9890000D02*
X300000Y-9890000D01*
X300000Y-8190000D01*
X5300000Y-8190000D01*
X5300000Y-9890000D01*
X5300000Y-9890000D01*
G37*
G36*
X7298500Y-8797000D02*
X5901500Y-8797000D01*
X5901500Y-7908000D01*
X7298500Y-7908000D01*
X7298500Y-8797000D01*
X7298500Y-8797000D01*
G37*
G36*
X11198500Y-8692000D02*
X9801500Y-8692000D01*
X9801500Y-7803000D01*
X11198500Y-7803000D01*
X11198500Y-8692000D01*
X11198500Y-8692000D01*
G37*
G36*
X9298500Y-8692000D02*
X7901500Y-8692000D01*
X7901500Y-7803000D01*
X9298500Y-7803000D01*
X9298500Y-8692000D01*
X9298500Y-8692000D01*
G37*
G36*
X14270000Y-8650000D02*
X11730000Y-8650000D01*
X11730000Y-6750000D01*
X14270000Y-6750000D01*
X14270000Y-8650000D01*
X14270000Y-8650000D01*
G37*
G36*
X15773352Y-6930743D02*
X15918941Y-6991048D01*
X16049973Y-7078601D01*
X16161399Y-7190027D01*
X16248952Y-7321059D01*
X16309257Y-7466648D01*
X16340000Y-7621205D01*
X16340000Y-7778795D01*
X16309257Y-7933352D01*
X16248952Y-8078941D01*
X16161399Y-8209973D01*
X16049973Y-8321399D01*
X15918941Y-8408952D01*
X15773352Y-8469257D01*
X15618795Y-8500000D01*
X15461205Y-8500000D01*
X15306648Y-8469257D01*
X15161059Y-8408952D01*
X15030027Y-8321399D01*
X14918601Y-8209973D01*
X14831048Y-8078941D01*
X14770743Y-7933352D01*
X14740000Y-7778795D01*
X14740000Y-7621205D01*
X14770743Y-7466648D01*
X14831048Y-7321059D01*
X14918601Y-7190027D01*
X15030027Y-7078601D01*
X15161059Y-6991048D01*
X15306648Y-6930743D01*
X15461205Y-6900000D01*
X15618795Y-6900000D01*
X15773352Y-6930743D01*
X15773352Y-6930743D01*
G37*
G36*
X5300000Y-7300000D02*
X300000Y-7300000D01*
X300000Y-5700000D01*
X5300000Y-5700000D01*
X5300000Y-7300000D01*
X5300000Y-7300000D01*
G37*
G36*
X10944500Y-7298500D02*
X10055500Y-7298500D01*
X10055500Y-5901500D01*
X10944500Y-5901500D01*
X10944500Y-7298500D01*
X10944500Y-7298500D01*
G37*
G36*
X9039500Y-7298500D02*
X8150500Y-7298500D01*
X8150500Y-5901500D01*
X9039500Y-5901500D01*
X9039500Y-7298500D01*
X9039500Y-7298500D01*
G37*
G36*
X7298500Y-6892000D02*
X5901500Y-6892000D01*
X5901500Y-6003000D01*
X7298500Y-6003000D01*
X7298500Y-6892000D01*
X7298500Y-6892000D01*
G37*
G36*
X16810000Y-6110000D02*
X11730000Y-6110000D01*
X11730000Y-80000D01*
X16810000Y-80000D01*
X16810000Y-6110000D01*
X16810000Y-6110000D01*
G37*
G36*
X5300000Y-4810000D02*
X300000Y-4810000D01*
X300000Y-3110000D01*
X5300000Y-3110000D01*
X5300000Y-4810000D01*
X5300000Y-4810000D01*
G37*
M02*
