G04 #@! TF.GenerationSoftware,KiCad,Pcbnew,5.0.2-bee76a0~70~ubuntu16.04.1*
G04 #@! TF.CreationDate,2019-12-01T18:07:58-08:00*
G04 #@! TF.ProjectId,psfeedback,70736665-6564-4626-9163-6b2e6b696361,1.0*
G04 #@! TF.SameCoordinates,PX8f25820PY3fcd020*
G04 #@! TF.FileFunction,Copper,L1,Top*
G04 #@! TF.FilePolarity,Positive*
%FSLAX46Y46*%
G04 Gerber Fmt 4.6, Leading zero omitted, Abs format (unit mm)*
G04 Created by KiCad (PCBNEW 5.0.2-bee76a0~70~ubuntu16.04.1) date Sun 01 Dec 2019 06:07:58 PM PST*
%MOMM*%
%LPD*%
G01*
G04 APERTURE LIST*
G04 #@! TA.AperFunction,SMDPad,CuDef*
%ADD10R,2.540000X1.900000*%
G04 #@! TD*
G04 #@! TA.AperFunction,ComponentPad*
%ADD11C,1.900000*%
G04 #@! TD*
G04 #@! TA.AperFunction,ComponentPad*
%ADD12R,2.540000X5.080000*%
G04 #@! TD*
G04 #@! TA.AperFunction,ComponentPad*
%ADD13R,2.540000X1.900000*%
G04 #@! TD*
G04 #@! TA.AperFunction,SMDPad,CuDef*
%ADD14R,1.397000X0.889000*%
G04 #@! TD*
G04 #@! TA.AperFunction,SMDPad,CuDef*
%ADD15R,0.889000X1.397000*%
G04 #@! TD*
G04 #@! TA.AperFunction,SMDPad,CuDef*
%ADD16R,5.000000X1.600000*%
G04 #@! TD*
G04 #@! TA.AperFunction,SMDPad,CuDef*
%ADD17R,5.000000X1.700000*%
G04 #@! TD*
G04 #@! TA.AperFunction,ViaPad*
%ADD18C,0.800000*%
G04 #@! TD*
G04 #@! TA.AperFunction,Conductor*
%ADD19C,0.850000*%
G04 #@! TD*
G04 #@! TA.AperFunction,Conductor*
%ADD20C,0.254000*%
G04 #@! TD*
G04 APERTURE END LIST*
D10*
G04 #@! TO.P,DB1,2*
G04 #@! TO.N,GNDS*
X15540000Y-5160000D03*
X13000000Y-5160000D03*
X13000000Y-10240000D03*
X15540000Y-10240000D03*
D11*
X15540000Y-5160000D03*
X13000000Y-10240000D03*
X15540000Y-10240000D03*
D12*
X15540000Y-12780000D03*
X13000000Y-12780000D03*
X15540000Y-2620000D03*
X13000000Y-2620000D03*
D11*
X13000000Y-5160000D03*
D13*
G04 #@! TO.P,DB1,1*
G04 #@! TO.N,Net-(DB1-Pad1)*
X13000000Y-7700000D03*
G04 #@! TD*
D14*
G04 #@! TO.P,R1,2*
G04 #@! TO.N,Net-(R1-Pad2)*
X6600000Y-6447500D03*
G04 #@! TO.P,R1,1*
G04 #@! TO.N,Net-(R1-Pad1)*
X6600000Y-8352500D03*
G04 #@! TD*
G04 #@! TO.P,R2,1*
G04 #@! TO.N,Net-(R1-Pad1)*
X8600000Y-8247500D03*
G04 #@! TO.P,R2,2*
G04 #@! TO.N,GNDS*
X8600000Y-10152500D03*
G04 #@! TD*
D15*
G04 #@! TO.P,R3,1*
G04 #@! TO.N,Net-(DB1-Pad1)*
X10500000Y-6600000D03*
G04 #@! TO.P,R3,2*
G04 #@! TO.N,Net-(R1-Pad1)*
X8595000Y-6600000D03*
G04 #@! TD*
D14*
G04 #@! TO.P,R4,2*
G04 #@! TO.N,GNDS*
X10500000Y-10152500D03*
G04 #@! TO.P,R4,1*
G04 #@! TO.N,Net-(DB1-Pad1)*
X10500000Y-8247500D03*
G04 #@! TD*
D16*
G04 #@! TO.P,RF1,1*
G04 #@! TO.N,Net-(R1-Pad2)*
X2800000Y-6500000D03*
D17*
G04 #@! TO.P,RF1,2*
G04 #@! TO.N,GNDS*
X2800000Y-9040000D03*
X2800000Y-3960000D03*
G04 #@! TD*
D18*
G04 #@! TO.N,GNDS*
X2800000Y-9040000D03*
X2800000Y-3960000D03*
X5500000Y-3300000D03*
X5500000Y-10700000D03*
G04 #@! TD*
D19*
G04 #@! TO.N,GNDS*
X12912500Y-10152500D02*
X13000000Y-10240000D01*
X8600000Y-10152500D02*
X12912500Y-10152500D01*
X13000000Y-5160000D02*
X15540000Y-5160000D01*
X13000000Y-2620000D02*
X15540000Y-2620000D01*
X13000000Y-10240000D02*
X15540000Y-12780000D01*
X15540000Y-10240000D02*
X13000000Y-12780000D01*
X3912500Y-10152500D02*
X2800000Y-9040000D01*
X8600000Y-10152500D02*
X3912500Y-10152500D01*
X2800000Y-3960000D02*
X3440000Y-3960000D01*
X12720000Y-2900000D02*
X13000000Y-2620000D01*
X4300000Y-2900000D02*
X12720000Y-2900000D01*
X3240000Y-3960000D02*
X4300000Y-2900000D01*
X2800000Y-3960000D02*
X3240000Y-3960000D01*
X4840000Y-3960000D02*
X5500000Y-3300000D01*
X2800000Y-3960000D02*
X4840000Y-3960000D01*
G04 #@! TO.N,Net-(DB1-Pad1)*
X10500000Y-8247500D02*
X10500000Y-6600000D01*
X13000000Y-7700000D02*
X10880000Y-7700000D01*
X10880000Y-7700000D02*
X10500000Y-7700000D01*
G04 #@! TO.N,Net-(R1-Pad2)*
X2852500Y-6447500D02*
X2800000Y-6500000D01*
X6600000Y-6447500D02*
X2852500Y-6447500D01*
G04 #@! TO.N,Net-(R1-Pad1)*
X8600000Y-6605000D02*
X8595000Y-6600000D01*
X8600000Y-8247500D02*
X8600000Y-6605000D01*
X8495000Y-8352500D02*
X8600000Y-8247500D01*
X6600000Y-8352500D02*
X8495000Y-8352500D01*
G04 #@! TD*
D20*
G04 #@! TO.N,GNDS*
G36*
X2927000Y-8913000D02*
X2947000Y-8913000D01*
X2947000Y-9167000D01*
X2927000Y-9167000D01*
X2927000Y-10366250D01*
X3085750Y-10525000D01*
X5426310Y-10525000D01*
X5635742Y-10438250D01*
X7266500Y-10438250D01*
X7266500Y-10723309D01*
X7363173Y-10956698D01*
X7541801Y-11135327D01*
X7775190Y-11232000D01*
X8314250Y-11232000D01*
X8473000Y-11073250D01*
X8473000Y-10279500D01*
X8727000Y-10279500D01*
X8727000Y-11073250D01*
X8885750Y-11232000D01*
X9424810Y-11232000D01*
X9550000Y-11180145D01*
X9675190Y-11232000D01*
X10214250Y-11232000D01*
X10373000Y-11073250D01*
X10373000Y-10279500D01*
X8727000Y-10279500D01*
X8473000Y-10279500D01*
X7425250Y-10279500D01*
X7266500Y-10438250D01*
X5635742Y-10438250D01*
X5659699Y-10428327D01*
X5838327Y-10249698D01*
X5935000Y-10016309D01*
X5935000Y-9444440D01*
X7298500Y-9444440D01*
X7325583Y-9439053D01*
X7266500Y-9581691D01*
X7266500Y-9866750D01*
X7425250Y-10025500D01*
X8473000Y-10025500D01*
X8473000Y-10005500D01*
X8727000Y-10005500D01*
X8727000Y-10025500D01*
X10373000Y-10025500D01*
X10373000Y-10005500D01*
X10627000Y-10005500D01*
X10627000Y-10025500D01*
X10647000Y-10025500D01*
X10647000Y-10279500D01*
X10627000Y-10279500D01*
X10627000Y-11073250D01*
X10785750Y-11232000D01*
X11095000Y-11232000D01*
X11095000Y-12494250D01*
X11253750Y-12653000D01*
X12873000Y-12653000D01*
X12873000Y-12633000D01*
X13127000Y-12633000D01*
X13127000Y-12653000D01*
X15413000Y-12653000D01*
X15413000Y-12633000D01*
X15667000Y-12633000D01*
X15667000Y-12653000D01*
X15687000Y-12653000D01*
X15687000Y-12907000D01*
X15667000Y-12907000D01*
X15667000Y-12927000D01*
X15413000Y-12927000D01*
X15413000Y-12907000D01*
X13127000Y-12907000D01*
X13127000Y-12927000D01*
X12873000Y-12927000D01*
X12873000Y-12907000D01*
X11253750Y-12907000D01*
X11095000Y-13065750D01*
X11095000Y-14715000D01*
X685000Y-14715000D01*
X685000Y-10525000D01*
X2514250Y-10525000D01*
X2673000Y-10366250D01*
X2673000Y-9167000D01*
X2653000Y-9167000D01*
X2653000Y-8913000D01*
X2673000Y-8913000D01*
X2673000Y-8893000D01*
X2927000Y-8893000D01*
X2927000Y-8913000D01*
X2927000Y-8913000D01*
G37*
X2927000Y-8913000D02*
X2947000Y-8913000D01*
X2947000Y-9167000D01*
X2927000Y-9167000D01*
X2927000Y-10366250D01*
X3085750Y-10525000D01*
X5426310Y-10525000D01*
X5635742Y-10438250D01*
X7266500Y-10438250D01*
X7266500Y-10723309D01*
X7363173Y-10956698D01*
X7541801Y-11135327D01*
X7775190Y-11232000D01*
X8314250Y-11232000D01*
X8473000Y-11073250D01*
X8473000Y-10279500D01*
X8727000Y-10279500D01*
X8727000Y-11073250D01*
X8885750Y-11232000D01*
X9424810Y-11232000D01*
X9550000Y-11180145D01*
X9675190Y-11232000D01*
X10214250Y-11232000D01*
X10373000Y-11073250D01*
X10373000Y-10279500D01*
X8727000Y-10279500D01*
X8473000Y-10279500D01*
X7425250Y-10279500D01*
X7266500Y-10438250D01*
X5635742Y-10438250D01*
X5659699Y-10428327D01*
X5838327Y-10249698D01*
X5935000Y-10016309D01*
X5935000Y-9444440D01*
X7298500Y-9444440D01*
X7325583Y-9439053D01*
X7266500Y-9581691D01*
X7266500Y-9866750D01*
X7425250Y-10025500D01*
X8473000Y-10025500D01*
X8473000Y-10005500D01*
X8727000Y-10005500D01*
X8727000Y-10025500D01*
X10373000Y-10025500D01*
X10373000Y-10005500D01*
X10627000Y-10005500D01*
X10627000Y-10025500D01*
X10647000Y-10025500D01*
X10647000Y-10279500D01*
X10627000Y-10279500D01*
X10627000Y-11073250D01*
X10785750Y-11232000D01*
X11095000Y-11232000D01*
X11095000Y-12494250D01*
X11253750Y-12653000D01*
X12873000Y-12653000D01*
X12873000Y-12633000D01*
X13127000Y-12633000D01*
X13127000Y-12653000D01*
X15413000Y-12653000D01*
X15413000Y-12633000D01*
X15667000Y-12633000D01*
X15667000Y-12653000D01*
X15687000Y-12653000D01*
X15687000Y-12907000D01*
X15667000Y-12907000D01*
X15667000Y-12927000D01*
X15413000Y-12927000D01*
X15413000Y-12907000D01*
X13127000Y-12907000D01*
X13127000Y-12927000D01*
X12873000Y-12927000D01*
X12873000Y-12907000D01*
X11253750Y-12907000D01*
X11095000Y-13065750D01*
X11095000Y-14715000D01*
X685000Y-14715000D01*
X685000Y-10525000D01*
X2514250Y-10525000D01*
X2673000Y-10366250D01*
X2673000Y-9167000D01*
X2653000Y-9167000D01*
X2653000Y-8913000D01*
X2673000Y-8913000D01*
X2673000Y-8893000D01*
X2927000Y-8893000D01*
X2927000Y-8913000D01*
G36*
X11095000Y-2334250D02*
X11253750Y-2493000D01*
X12873000Y-2493000D01*
X12873000Y-2473000D01*
X13127000Y-2473000D01*
X13127000Y-2493000D01*
X15413000Y-2493000D01*
X15413000Y-2473000D01*
X15667000Y-2473000D01*
X15667000Y-2493000D01*
X15687000Y-2493000D01*
X15687000Y-2747000D01*
X15667000Y-2747000D01*
X15667000Y-2767000D01*
X15413000Y-2767000D01*
X15413000Y-2747000D01*
X13127000Y-2747000D01*
X13127000Y-2767000D01*
X12873000Y-2767000D01*
X12873000Y-2747000D01*
X11253750Y-2747000D01*
X11095000Y-2905750D01*
X11095000Y-5283996D01*
X10944500Y-5254060D01*
X10055500Y-5254060D01*
X9807735Y-5303343D01*
X9597691Y-5443691D01*
X9547500Y-5518807D01*
X9497309Y-5443691D01*
X9287265Y-5303343D01*
X9039500Y-5254060D01*
X8150500Y-5254060D01*
X7902735Y-5303343D01*
X7692691Y-5443691D01*
X7665440Y-5484474D01*
X7546265Y-5404843D01*
X7298500Y-5355560D01*
X5901500Y-5355560D01*
X5841531Y-5367488D01*
X5761024Y-5247002D01*
X5838327Y-5169698D01*
X5935000Y-4936309D01*
X5935000Y-4245750D01*
X5776250Y-4087000D01*
X2927000Y-4087000D01*
X2927000Y-4107000D01*
X2673000Y-4107000D01*
X2673000Y-4087000D01*
X2653000Y-4087000D01*
X2653000Y-3833000D01*
X2673000Y-3833000D01*
X2673000Y-2633750D01*
X2927000Y-2633750D01*
X2927000Y-3833000D01*
X5776250Y-3833000D01*
X5935000Y-3674250D01*
X5935000Y-2983691D01*
X5838327Y-2750302D01*
X5659699Y-2571673D01*
X5426310Y-2475000D01*
X3085750Y-2475000D01*
X2927000Y-2633750D01*
X2673000Y-2633750D01*
X2514250Y-2475000D01*
X685000Y-2475000D01*
X685000Y-685000D01*
X11095000Y-685000D01*
X11095000Y-2334250D01*
X11095000Y-2334250D01*
G37*
X11095000Y-2334250D02*
X11253750Y-2493000D01*
X12873000Y-2493000D01*
X12873000Y-2473000D01*
X13127000Y-2473000D01*
X13127000Y-2493000D01*
X15413000Y-2493000D01*
X15413000Y-2473000D01*
X15667000Y-2473000D01*
X15667000Y-2493000D01*
X15687000Y-2493000D01*
X15687000Y-2747000D01*
X15667000Y-2747000D01*
X15667000Y-2767000D01*
X15413000Y-2767000D01*
X15413000Y-2747000D01*
X13127000Y-2747000D01*
X13127000Y-2767000D01*
X12873000Y-2767000D01*
X12873000Y-2747000D01*
X11253750Y-2747000D01*
X11095000Y-2905750D01*
X11095000Y-5283996D01*
X10944500Y-5254060D01*
X10055500Y-5254060D01*
X9807735Y-5303343D01*
X9597691Y-5443691D01*
X9547500Y-5518807D01*
X9497309Y-5443691D01*
X9287265Y-5303343D01*
X9039500Y-5254060D01*
X8150500Y-5254060D01*
X7902735Y-5303343D01*
X7692691Y-5443691D01*
X7665440Y-5484474D01*
X7546265Y-5404843D01*
X7298500Y-5355560D01*
X5901500Y-5355560D01*
X5841531Y-5367488D01*
X5761024Y-5247002D01*
X5838327Y-5169698D01*
X5935000Y-4936309D01*
X5935000Y-4245750D01*
X5776250Y-4087000D01*
X2927000Y-4087000D01*
X2927000Y-4107000D01*
X2673000Y-4107000D01*
X2673000Y-4087000D01*
X2653000Y-4087000D01*
X2653000Y-3833000D01*
X2673000Y-3833000D01*
X2673000Y-2633750D01*
X2927000Y-2633750D01*
X2927000Y-3833000D01*
X5776250Y-3833000D01*
X5935000Y-3674250D01*
X5935000Y-2983691D01*
X5838327Y-2750302D01*
X5659699Y-2571673D01*
X5426310Y-2475000D01*
X3085750Y-2475000D01*
X2927000Y-2633750D01*
X2673000Y-2633750D01*
X2514250Y-2475000D01*
X685000Y-2475000D01*
X685000Y-685000D01*
X11095000Y-685000D01*
X11095000Y-2334250D01*
G04 #@! TD*
M02*
