G04 #@! TF.GenerationSoftware,KiCad,Pcbnew,5.0.2-bee76a0~70~ubuntu16.04.1*
G04 #@! TF.CreationDate,2019-12-01T18:07:58-08:00*
G04 #@! TF.ProjectId,psfeedback,70736665-6564-4626-9163-6b2e6b696361,1.0*
G04 #@! TF.SameCoordinates,PX8f25820PY3fcd020*
G04 #@! TF.FileFunction,Legend,Top*
G04 #@! TF.FilePolarity,Positive*
%FSLAX46Y46*%
G04 Gerber Fmt 4.6, Leading zero omitted, Abs format (unit mm)*
G04 Created by KiCad (PCBNEW 5.0.2-bee76a0~70~ubuntu16.04.1) date Sun 01 Dec 2019 06:07:58 PM PST*
%MOMM*%
%LPD*%
G01*
G04 APERTURE LIST*
%ADD10C,0.100000*%
%ADD11C,0.002540*%
G04 APERTURE END LIST*
D10*
X655476Y-12561904D02*
X655476Y-11761904D01*
X960238Y-11761904D01*
X1036428Y-11800000D01*
X1074523Y-11838095D01*
X1112619Y-11914285D01*
X1112619Y-12028571D01*
X1074523Y-12104761D01*
X1036428Y-12142857D01*
X960238Y-12180952D01*
X655476Y-12180952D01*
X1417380Y-12523809D02*
X1531666Y-12561904D01*
X1722142Y-12561904D01*
X1798333Y-12523809D01*
X1836428Y-12485714D01*
X1874523Y-12409523D01*
X1874523Y-12333333D01*
X1836428Y-12257142D01*
X1798333Y-12219047D01*
X1722142Y-12180952D01*
X1569761Y-12142857D01*
X1493571Y-12104761D01*
X1455476Y-12066666D01*
X1417380Y-11990476D01*
X1417380Y-11914285D01*
X1455476Y-11838095D01*
X1493571Y-11800000D01*
X1569761Y-11761904D01*
X1760238Y-11761904D01*
X1874523Y-11800000D01*
X3093571Y-12142857D02*
X2826904Y-12142857D01*
X2826904Y-12561904D02*
X2826904Y-11761904D01*
X3207857Y-11761904D01*
X3817380Y-12523809D02*
X3741190Y-12561904D01*
X3588809Y-12561904D01*
X3512619Y-12523809D01*
X3474523Y-12447619D01*
X3474523Y-12142857D01*
X3512619Y-12066666D01*
X3588809Y-12028571D01*
X3741190Y-12028571D01*
X3817380Y-12066666D01*
X3855476Y-12142857D01*
X3855476Y-12219047D01*
X3474523Y-12295238D01*
X4503095Y-12523809D02*
X4426904Y-12561904D01*
X4274523Y-12561904D01*
X4198333Y-12523809D01*
X4160238Y-12447619D01*
X4160238Y-12142857D01*
X4198333Y-12066666D01*
X4274523Y-12028571D01*
X4426904Y-12028571D01*
X4503095Y-12066666D01*
X4541190Y-12142857D01*
X4541190Y-12219047D01*
X4160238Y-12295238D01*
X5226904Y-12561904D02*
X5226904Y-11761904D01*
X5226904Y-12523809D02*
X5150714Y-12561904D01*
X4998333Y-12561904D01*
X4922142Y-12523809D01*
X4884047Y-12485714D01*
X4845952Y-12409523D01*
X4845952Y-12180952D01*
X4884047Y-12104761D01*
X4922142Y-12066666D01*
X4998333Y-12028571D01*
X5150714Y-12028571D01*
X5226904Y-12066666D01*
X5607857Y-12561904D02*
X5607857Y-11761904D01*
X5607857Y-12066666D02*
X5684047Y-12028571D01*
X5836428Y-12028571D01*
X5912619Y-12066666D01*
X5950714Y-12104761D01*
X5988809Y-12180952D01*
X5988809Y-12409523D01*
X5950714Y-12485714D01*
X5912619Y-12523809D01*
X5836428Y-12561904D01*
X5684047Y-12561904D01*
X5607857Y-12523809D01*
X6674523Y-12561904D02*
X6674523Y-12142857D01*
X6636428Y-12066666D01*
X6560238Y-12028571D01*
X6407857Y-12028571D01*
X6331666Y-12066666D01*
X6674523Y-12523809D02*
X6598333Y-12561904D01*
X6407857Y-12561904D01*
X6331666Y-12523809D01*
X6293571Y-12447619D01*
X6293571Y-12371428D01*
X6331666Y-12295238D01*
X6407857Y-12257142D01*
X6598333Y-12257142D01*
X6674523Y-12219047D01*
X7398333Y-12523809D02*
X7322142Y-12561904D01*
X7169761Y-12561904D01*
X7093571Y-12523809D01*
X7055476Y-12485714D01*
X7017380Y-12409523D01*
X7017380Y-12180952D01*
X7055476Y-12104761D01*
X7093571Y-12066666D01*
X7169761Y-12028571D01*
X7322142Y-12028571D01*
X7398333Y-12066666D01*
X7741190Y-12561904D02*
X7741190Y-11761904D01*
X7817380Y-12257142D02*
X8045952Y-12561904D01*
X8045952Y-12028571D02*
X7741190Y-12333333D01*
X579285Y-13328571D02*
X769761Y-13861904D01*
X960238Y-13328571D01*
X1684047Y-13861904D02*
X1226904Y-13861904D01*
X1455476Y-13861904D02*
X1455476Y-13061904D01*
X1379285Y-13176190D01*
X1303095Y-13252380D01*
X1226904Y-13290476D01*
X2026904Y-13785714D02*
X2065000Y-13823809D01*
X2026904Y-13861904D01*
X1988809Y-13823809D01*
X2026904Y-13785714D01*
X2026904Y-13861904D01*
X2560238Y-13061904D02*
X2636428Y-13061904D01*
X2712619Y-13100000D01*
X2750714Y-13138095D01*
X2788809Y-13214285D01*
X2826904Y-13366666D01*
X2826904Y-13557142D01*
X2788809Y-13709523D01*
X2750714Y-13785714D01*
X2712619Y-13823809D01*
X2636428Y-13861904D01*
X2560238Y-13861904D01*
X2484047Y-13823809D01*
X2445952Y-13785714D01*
X2407857Y-13709523D01*
X2369761Y-13557142D01*
X2369761Y-13366666D01*
X2407857Y-13214285D01*
X2445952Y-13138095D01*
X2484047Y-13100000D01*
X2560238Y-13061904D01*
X4426904Y-13252380D02*
X4350714Y-13214285D01*
X4198333Y-13214285D01*
X4122142Y-13252380D01*
X4045952Y-13328571D01*
X4007857Y-13404761D01*
X4007857Y-13557142D01*
X4045952Y-13633333D01*
X4122142Y-13709523D01*
X4198333Y-13747619D01*
X4350714Y-13747619D01*
X4426904Y-13709523D01*
X4274523Y-12947619D02*
X4084047Y-12985714D01*
X3893571Y-13100000D01*
X3779285Y-13290476D01*
X3741190Y-13480952D01*
X3779285Y-13671428D01*
X3893571Y-13861904D01*
X4084047Y-13976190D01*
X4274523Y-14014285D01*
X4465000Y-13976190D01*
X4655476Y-13861904D01*
X4769761Y-13671428D01*
X4807857Y-13480952D01*
X4769761Y-13290476D01*
X4655476Y-13100000D01*
X4465000Y-12985714D01*
X4274523Y-12947619D01*
X5722142Y-13138095D02*
X5760238Y-13100000D01*
X5836428Y-13061904D01*
X6026904Y-13061904D01*
X6103095Y-13100000D01*
X6141190Y-13138095D01*
X6179285Y-13214285D01*
X6179285Y-13290476D01*
X6141190Y-13404761D01*
X5684047Y-13861904D01*
X6179285Y-13861904D01*
X6674523Y-13061904D02*
X6750714Y-13061904D01*
X6826904Y-13100000D01*
X6865000Y-13138095D01*
X6903095Y-13214285D01*
X6941190Y-13366666D01*
X6941190Y-13557142D01*
X6903095Y-13709523D01*
X6865000Y-13785714D01*
X6826904Y-13823809D01*
X6750714Y-13861904D01*
X6674523Y-13861904D01*
X6598333Y-13823809D01*
X6560238Y-13785714D01*
X6522142Y-13709523D01*
X6484047Y-13557142D01*
X6484047Y-13366666D01*
X6522142Y-13214285D01*
X6560238Y-13138095D01*
X6598333Y-13100000D01*
X6674523Y-13061904D01*
X7703095Y-13861904D02*
X7245952Y-13861904D01*
X7474523Y-13861904D02*
X7474523Y-13061904D01*
X7398333Y-13176190D01*
X7322142Y-13252380D01*
X7245952Y-13290476D01*
X8084047Y-13861904D02*
X8236428Y-13861904D01*
X8312619Y-13823809D01*
X8350714Y-13785714D01*
X8426904Y-13671428D01*
X8465000Y-13519047D01*
X8465000Y-13214285D01*
X8426904Y-13138095D01*
X8388809Y-13100000D01*
X8312619Y-13061904D01*
X8160238Y-13061904D01*
X8084047Y-13100000D01*
X8045952Y-13138095D01*
X8007857Y-13214285D01*
X8007857Y-13404761D01*
X8045952Y-13480952D01*
X8084047Y-13519047D01*
X8160238Y-13557142D01*
X8312619Y-13557142D01*
X8388809Y-13519047D01*
X8426904Y-13480952D01*
X8465000Y-13404761D01*
X617380Y-15123809D02*
X731666Y-15161904D01*
X922142Y-15161904D01*
X998333Y-15123809D01*
X1036428Y-15085714D01*
X1074523Y-15009523D01*
X1074523Y-14933333D01*
X1036428Y-14857142D01*
X998333Y-14819047D01*
X922142Y-14780952D01*
X769761Y-14742857D01*
X693571Y-14704761D01*
X655476Y-14666666D01*
X617380Y-14590476D01*
X617380Y-14514285D01*
X655476Y-14438095D01*
X693571Y-14400000D01*
X769761Y-14361904D01*
X960238Y-14361904D01*
X1074523Y-14400000D01*
X1531666Y-15161904D02*
X1455476Y-15123809D01*
X1417380Y-15085714D01*
X1379285Y-15009523D01*
X1379285Y-14780952D01*
X1417380Y-14704761D01*
X1455476Y-14666666D01*
X1531666Y-14628571D01*
X1645952Y-14628571D01*
X1722142Y-14666666D01*
X1760238Y-14704761D01*
X1798333Y-14780952D01*
X1798333Y-15009523D01*
X1760238Y-15085714D01*
X1722142Y-15123809D01*
X1645952Y-15161904D01*
X1531666Y-15161904D01*
X2026904Y-14628571D02*
X2331666Y-14628571D01*
X2141190Y-15161904D02*
X2141190Y-14476190D01*
X2179285Y-14400000D01*
X2255476Y-14361904D01*
X2331666Y-14361904D01*
X2484047Y-14628571D02*
X2788809Y-14628571D01*
X2598333Y-14361904D02*
X2598333Y-15047619D01*
X2636428Y-15123809D01*
X2712619Y-15161904D01*
X2788809Y-15161904D01*
X3360238Y-15123809D02*
X3284047Y-15161904D01*
X3131666Y-15161904D01*
X3055476Y-15123809D01*
X3017380Y-15047619D01*
X3017380Y-14742857D01*
X3055476Y-14666666D01*
X3131666Y-14628571D01*
X3284047Y-14628571D01*
X3360238Y-14666666D01*
X3398333Y-14742857D01*
X3398333Y-14819047D01*
X3017380Y-14895238D01*
X3741190Y-15161904D02*
X3741190Y-14628571D01*
X3741190Y-14780952D02*
X3779285Y-14704761D01*
X3817380Y-14666666D01*
X3893571Y-14628571D01*
X3969761Y-14628571D01*
X4236428Y-15161904D02*
X4236428Y-14361904D01*
X4236428Y-14742857D02*
X4693571Y-14742857D01*
X4693571Y-15161904D02*
X4693571Y-14361904D01*
X5417380Y-15161904D02*
X5417380Y-14742857D01*
X5379285Y-14666666D01*
X5303095Y-14628571D01*
X5150714Y-14628571D01*
X5074523Y-14666666D01*
X5417380Y-15123809D02*
X5341190Y-15161904D01*
X5150714Y-15161904D01*
X5074523Y-15123809D01*
X5036428Y-15047619D01*
X5036428Y-14971428D01*
X5074523Y-14895238D01*
X5150714Y-14857142D01*
X5341190Y-14857142D01*
X5417380Y-14819047D01*
X5798333Y-15161904D02*
X5798333Y-14628571D01*
X5798333Y-14780952D02*
X5836428Y-14704761D01*
X5874523Y-14666666D01*
X5950714Y-14628571D01*
X6026904Y-14628571D01*
X6636428Y-15161904D02*
X6636428Y-14361904D01*
X6636428Y-15123809D02*
X6560238Y-15161904D01*
X6407857Y-15161904D01*
X6331666Y-15123809D01*
X6293571Y-15085714D01*
X6255476Y-15009523D01*
X6255476Y-14780952D01*
X6293571Y-14704761D01*
X6331666Y-14666666D01*
X6407857Y-14628571D01*
X6560238Y-14628571D01*
X6636428Y-14666666D01*
X6941190Y-14628571D02*
X7093571Y-15161904D01*
X7245952Y-14780952D01*
X7398333Y-15161904D01*
X7550714Y-14628571D01*
X8198333Y-15161904D02*
X8198333Y-14742857D01*
X8160238Y-14666666D01*
X8084047Y-14628571D01*
X7931666Y-14628571D01*
X7855476Y-14666666D01*
X8198333Y-15123809D02*
X8122142Y-15161904D01*
X7931666Y-15161904D01*
X7855476Y-15123809D01*
X7817380Y-15047619D01*
X7817380Y-14971428D01*
X7855476Y-14895238D01*
X7931666Y-14857142D01*
X8122142Y-14857142D01*
X8198333Y-14819047D01*
X8579285Y-15161904D02*
X8579285Y-14628571D01*
X8579285Y-14780952D02*
X8617380Y-14704761D01*
X8655476Y-14666666D01*
X8731666Y-14628571D01*
X8807857Y-14628571D01*
X9379285Y-15123809D02*
X9303095Y-15161904D01*
X9150714Y-15161904D01*
X9074523Y-15123809D01*
X9036428Y-15047619D01*
X9036428Y-14742857D01*
X9074523Y-14666666D01*
X9150714Y-14628571D01*
X9303095Y-14628571D01*
X9379285Y-14666666D01*
X9417380Y-14742857D01*
X9417380Y-14819047D01*
X9036428Y-14895238D01*
G04 #@! TO.C,R1*
X7362000Y-5876000D02*
X7362000Y-6892000D01*
X5838000Y-5876000D02*
X7362000Y-5876000D01*
X5838000Y-6892000D02*
X5838000Y-5876000D01*
X5838000Y-8924000D02*
X5838000Y-7908000D01*
X7362000Y-8924000D02*
X5838000Y-8924000D01*
X7362000Y-7908000D02*
X7362000Y-8924000D01*
G04 #@! TO.C,R2*
X7838000Y-8692000D02*
X7838000Y-7676000D01*
X7838000Y-7676000D02*
X9362000Y-7676000D01*
X9362000Y-7676000D02*
X9362000Y-8692000D01*
X9362000Y-9708000D02*
X9362000Y-10724000D01*
X9362000Y-10724000D02*
X7838000Y-10724000D01*
X7838000Y-10724000D02*
X7838000Y-9708000D01*
G04 #@! TO.C,R3*
X10055500Y-5838000D02*
X11071500Y-5838000D01*
X11071500Y-5838000D02*
X11071500Y-7362000D01*
X11071500Y-7362000D02*
X10055500Y-7362000D01*
X9039500Y-7362000D02*
X8023500Y-7362000D01*
X8023500Y-7362000D02*
X8023500Y-5838000D01*
X8023500Y-5838000D02*
X9039500Y-5838000D01*
G04 #@! TO.C,R4*
X9738000Y-10724000D02*
X9738000Y-9708000D01*
X11262000Y-10724000D02*
X9738000Y-10724000D01*
X11262000Y-9708000D02*
X11262000Y-10724000D01*
X11262000Y-7676000D02*
X11262000Y-8692000D01*
X9738000Y-7676000D02*
X11262000Y-7676000D01*
X9738000Y-8692000D02*
X9738000Y-7676000D01*
G04 #@! TO.C,RF1*
X5300000Y-11500000D02*
X100000Y-11500000D01*
X100000Y-11500000D02*
X100000Y-1500000D01*
X100000Y-1500000D02*
X5300000Y-1500000D01*
D11*
G04 #@! TO.C,G\002A\002A\002A*
G36*
X10804520Y-14296620D02*
X10794360Y-14291540D01*
X10771500Y-14276300D01*
X10738480Y-14255980D01*
X10697840Y-14228040D01*
X10659740Y-14202640D01*
X10626720Y-14179780D01*
X10603860Y-14164540D01*
X10593700Y-14159460D01*
X10588620Y-14162000D01*
X10570840Y-14172160D01*
X10542900Y-14184860D01*
X10527660Y-14192480D01*
X10502260Y-14205180D01*
X10489560Y-14207720D01*
X10487020Y-14202640D01*
X10476860Y-14184860D01*
X10464160Y-14151840D01*
X10443840Y-14108660D01*
X10423520Y-14057860D01*
X10400660Y-14001980D01*
X10377800Y-13946100D01*
X10354940Y-13892760D01*
X10334620Y-13844500D01*
X10319380Y-13806400D01*
X10309220Y-13778460D01*
X10304140Y-13768300D01*
X10306680Y-13765760D01*
X10319380Y-13753060D01*
X10339700Y-13737820D01*
X10387960Y-13697180D01*
X10433680Y-13638760D01*
X10464160Y-13572720D01*
X10471780Y-13499060D01*
X10464160Y-13433020D01*
X10438760Y-13369520D01*
X10393040Y-13308560D01*
X10337160Y-13265380D01*
X10271120Y-13237440D01*
X10200000Y-13229820D01*
X10131420Y-13237440D01*
X10065380Y-13262840D01*
X10004420Y-13308560D01*
X9981560Y-13336500D01*
X9946000Y-13397460D01*
X9925680Y-13458420D01*
X9925680Y-13473660D01*
X9928220Y-13544780D01*
X9948540Y-13613360D01*
X9984100Y-13671780D01*
X10037440Y-13722580D01*
X10042520Y-13727660D01*
X10067920Y-13745440D01*
X10083160Y-13755600D01*
X10095860Y-13765760D01*
X10006960Y-13981660D01*
X9991720Y-14017220D01*
X9966320Y-14075640D01*
X9946000Y-14126440D01*
X9928220Y-14167080D01*
X9915520Y-14192480D01*
X9910440Y-14205180D01*
X9902820Y-14205180D01*
X9887580Y-14200100D01*
X9857100Y-14184860D01*
X9836780Y-14174700D01*
X9813920Y-14164540D01*
X9803760Y-14159460D01*
X9793600Y-14164540D01*
X9773280Y-14179780D01*
X9740260Y-14200100D01*
X9702160Y-14225500D01*
X9666600Y-14250900D01*
X9631040Y-14273760D01*
X9608180Y-14289000D01*
X9595480Y-14296620D01*
X9592940Y-14296620D01*
X9582780Y-14289000D01*
X9562460Y-14273760D01*
X9534520Y-14245820D01*
X9493880Y-14205180D01*
X9486260Y-14200100D01*
X9453240Y-14164540D01*
X9425300Y-14134060D01*
X9404980Y-14113740D01*
X9399900Y-14106120D01*
X9404980Y-14093420D01*
X9420220Y-14068020D01*
X9443080Y-14035000D01*
X9471020Y-13994360D01*
X9542140Y-13890220D01*
X9501500Y-13793700D01*
X9491340Y-13763220D01*
X9476100Y-13727660D01*
X9463400Y-13702260D01*
X9458320Y-13689560D01*
X9448160Y-13687020D01*
X9420220Y-13679400D01*
X9382120Y-13671780D01*
X9336400Y-13664160D01*
X9290680Y-13654000D01*
X9252580Y-13646380D01*
X9222100Y-13641300D01*
X9209400Y-13638760D01*
X9206860Y-13636220D01*
X9204320Y-13631140D01*
X9201780Y-13618440D01*
X9201780Y-13593040D01*
X9201780Y-13554940D01*
X9201780Y-13499060D01*
X9201780Y-13493980D01*
X9201780Y-13440640D01*
X9201780Y-13400000D01*
X9204320Y-13374600D01*
X9206860Y-13364440D01*
X9219560Y-13359360D01*
X9247500Y-13354280D01*
X9285600Y-13346660D01*
X9333860Y-13336500D01*
X9336400Y-13336500D01*
X9384660Y-13328880D01*
X9422760Y-13318720D01*
X9450700Y-13313640D01*
X9463400Y-13308560D01*
X9465940Y-13306020D01*
X9476100Y-13288240D01*
X9488800Y-13257760D01*
X9504040Y-13222200D01*
X9519280Y-13186640D01*
X9534520Y-13151080D01*
X9542140Y-13128220D01*
X9544680Y-13115520D01*
X9537060Y-13105360D01*
X9521820Y-13079960D01*
X9498960Y-13046940D01*
X9471020Y-13006300D01*
X9468480Y-13001220D01*
X9440540Y-12963120D01*
X9420220Y-12927560D01*
X9404980Y-12904700D01*
X9399900Y-12894540D01*
X9399900Y-12892000D01*
X9407520Y-12881840D01*
X9427840Y-12858980D01*
X9458320Y-12828500D01*
X9493880Y-12792940D01*
X9504040Y-12782780D01*
X9542140Y-12744680D01*
X9570080Y-12719280D01*
X9587860Y-12706580D01*
X9595480Y-12701500D01*
X9595480Y-12704040D01*
X9608180Y-12709120D01*
X9633580Y-12726900D01*
X9666600Y-12749760D01*
X9707240Y-12777700D01*
X9709780Y-12780240D01*
X9750420Y-12805640D01*
X9783440Y-12828500D01*
X9806300Y-12843740D01*
X9816460Y-12851360D01*
X9819000Y-12851360D01*
X9834240Y-12846280D01*
X9864720Y-12836120D01*
X9897740Y-12823420D01*
X9935840Y-12808180D01*
X9968860Y-12792940D01*
X9994260Y-12782780D01*
X10006960Y-12775160D01*
X10012040Y-12759920D01*
X10017120Y-12729440D01*
X10027280Y-12688800D01*
X10034900Y-12640540D01*
X10037440Y-12632920D01*
X10045060Y-12584660D01*
X10052680Y-12546560D01*
X10060300Y-12518620D01*
X10062840Y-12505920D01*
X10067920Y-12505920D01*
X10093320Y-12503380D01*
X10128880Y-12503380D01*
X10172060Y-12503380D01*
X10215240Y-12503380D01*
X10258420Y-12503380D01*
X10296520Y-12505920D01*
X10321920Y-12505920D01*
X10334620Y-12508460D01*
X10334620Y-12511000D01*
X10339700Y-12523700D01*
X10344780Y-12554180D01*
X10354940Y-12594820D01*
X10362560Y-12645620D01*
X10365100Y-12653240D01*
X10372720Y-12701500D01*
X10382880Y-12739600D01*
X10387960Y-12767540D01*
X10390500Y-12777700D01*
X10395580Y-12780240D01*
X10413360Y-12787860D01*
X10446380Y-12800560D01*
X10487020Y-12818340D01*
X10578460Y-12853900D01*
X10690220Y-12777700D01*
X10700380Y-12770080D01*
X10741020Y-12742140D01*
X10774040Y-12721820D01*
X10796900Y-12706580D01*
X10807060Y-12701500D01*
X10817220Y-12711660D01*
X10840080Y-12731980D01*
X10870560Y-12762460D01*
X10906120Y-12795480D01*
X10931520Y-12823420D01*
X10962000Y-12853900D01*
X10982320Y-12874220D01*
X10992480Y-12889460D01*
X10997560Y-12897080D01*
X10995020Y-12902160D01*
X10989940Y-12914860D01*
X10972160Y-12937720D01*
X10949300Y-12973280D01*
X10921360Y-13011380D01*
X10898500Y-13046940D01*
X10875640Y-13082500D01*
X10860400Y-13110440D01*
X10852780Y-13123140D01*
X10855320Y-13128220D01*
X10862940Y-13151080D01*
X10875640Y-13184100D01*
X10893420Y-13224740D01*
X10931520Y-13313640D01*
X10989940Y-13323800D01*
X11025500Y-13331420D01*
X11076300Y-13339040D01*
X11122020Y-13349200D01*
X11195680Y-13364440D01*
X11198220Y-13631140D01*
X11188060Y-13636220D01*
X11175360Y-13641300D01*
X11149960Y-13646380D01*
X11109320Y-13654000D01*
X11063600Y-13661620D01*
X11025500Y-13669240D01*
X10984860Y-13676860D01*
X10956920Y-13681940D01*
X10944220Y-13684480D01*
X10941680Y-13689560D01*
X10931520Y-13709880D01*
X10916280Y-13740360D01*
X10901040Y-13775920D01*
X10885800Y-13814020D01*
X10873100Y-13849580D01*
X10862940Y-13874980D01*
X10857860Y-13890220D01*
X10862940Y-13900380D01*
X10878180Y-13923240D01*
X10901040Y-13956260D01*
X10926440Y-13994360D01*
X10954380Y-14035000D01*
X10977240Y-14068020D01*
X10992480Y-14093420D01*
X11000100Y-14103580D01*
X10995020Y-14111200D01*
X10979780Y-14128980D01*
X10951840Y-14159460D01*
X10906120Y-14205180D01*
X10898500Y-14210260D01*
X10865480Y-14245820D01*
X10835000Y-14271220D01*
X10814680Y-14291540D01*
X10804520Y-14296620D01*
X10804520Y-14296620D01*
G37*
X10804520Y-14296620D02*
X10794360Y-14291540D01*
X10771500Y-14276300D01*
X10738480Y-14255980D01*
X10697840Y-14228040D01*
X10659740Y-14202640D01*
X10626720Y-14179780D01*
X10603860Y-14164540D01*
X10593700Y-14159460D01*
X10588620Y-14162000D01*
X10570840Y-14172160D01*
X10542900Y-14184860D01*
X10527660Y-14192480D01*
X10502260Y-14205180D01*
X10489560Y-14207720D01*
X10487020Y-14202640D01*
X10476860Y-14184860D01*
X10464160Y-14151840D01*
X10443840Y-14108660D01*
X10423520Y-14057860D01*
X10400660Y-14001980D01*
X10377800Y-13946100D01*
X10354940Y-13892760D01*
X10334620Y-13844500D01*
X10319380Y-13806400D01*
X10309220Y-13778460D01*
X10304140Y-13768300D01*
X10306680Y-13765760D01*
X10319380Y-13753060D01*
X10339700Y-13737820D01*
X10387960Y-13697180D01*
X10433680Y-13638760D01*
X10464160Y-13572720D01*
X10471780Y-13499060D01*
X10464160Y-13433020D01*
X10438760Y-13369520D01*
X10393040Y-13308560D01*
X10337160Y-13265380D01*
X10271120Y-13237440D01*
X10200000Y-13229820D01*
X10131420Y-13237440D01*
X10065380Y-13262840D01*
X10004420Y-13308560D01*
X9981560Y-13336500D01*
X9946000Y-13397460D01*
X9925680Y-13458420D01*
X9925680Y-13473660D01*
X9928220Y-13544780D01*
X9948540Y-13613360D01*
X9984100Y-13671780D01*
X10037440Y-13722580D01*
X10042520Y-13727660D01*
X10067920Y-13745440D01*
X10083160Y-13755600D01*
X10095860Y-13765760D01*
X10006960Y-13981660D01*
X9991720Y-14017220D01*
X9966320Y-14075640D01*
X9946000Y-14126440D01*
X9928220Y-14167080D01*
X9915520Y-14192480D01*
X9910440Y-14205180D01*
X9902820Y-14205180D01*
X9887580Y-14200100D01*
X9857100Y-14184860D01*
X9836780Y-14174700D01*
X9813920Y-14164540D01*
X9803760Y-14159460D01*
X9793600Y-14164540D01*
X9773280Y-14179780D01*
X9740260Y-14200100D01*
X9702160Y-14225500D01*
X9666600Y-14250900D01*
X9631040Y-14273760D01*
X9608180Y-14289000D01*
X9595480Y-14296620D01*
X9592940Y-14296620D01*
X9582780Y-14289000D01*
X9562460Y-14273760D01*
X9534520Y-14245820D01*
X9493880Y-14205180D01*
X9486260Y-14200100D01*
X9453240Y-14164540D01*
X9425300Y-14134060D01*
X9404980Y-14113740D01*
X9399900Y-14106120D01*
X9404980Y-14093420D01*
X9420220Y-14068020D01*
X9443080Y-14035000D01*
X9471020Y-13994360D01*
X9542140Y-13890220D01*
X9501500Y-13793700D01*
X9491340Y-13763220D01*
X9476100Y-13727660D01*
X9463400Y-13702260D01*
X9458320Y-13689560D01*
X9448160Y-13687020D01*
X9420220Y-13679400D01*
X9382120Y-13671780D01*
X9336400Y-13664160D01*
X9290680Y-13654000D01*
X9252580Y-13646380D01*
X9222100Y-13641300D01*
X9209400Y-13638760D01*
X9206860Y-13636220D01*
X9204320Y-13631140D01*
X9201780Y-13618440D01*
X9201780Y-13593040D01*
X9201780Y-13554940D01*
X9201780Y-13499060D01*
X9201780Y-13493980D01*
X9201780Y-13440640D01*
X9201780Y-13400000D01*
X9204320Y-13374600D01*
X9206860Y-13364440D01*
X9219560Y-13359360D01*
X9247500Y-13354280D01*
X9285600Y-13346660D01*
X9333860Y-13336500D01*
X9336400Y-13336500D01*
X9384660Y-13328880D01*
X9422760Y-13318720D01*
X9450700Y-13313640D01*
X9463400Y-13308560D01*
X9465940Y-13306020D01*
X9476100Y-13288240D01*
X9488800Y-13257760D01*
X9504040Y-13222200D01*
X9519280Y-13186640D01*
X9534520Y-13151080D01*
X9542140Y-13128220D01*
X9544680Y-13115520D01*
X9537060Y-13105360D01*
X9521820Y-13079960D01*
X9498960Y-13046940D01*
X9471020Y-13006300D01*
X9468480Y-13001220D01*
X9440540Y-12963120D01*
X9420220Y-12927560D01*
X9404980Y-12904700D01*
X9399900Y-12894540D01*
X9399900Y-12892000D01*
X9407520Y-12881840D01*
X9427840Y-12858980D01*
X9458320Y-12828500D01*
X9493880Y-12792940D01*
X9504040Y-12782780D01*
X9542140Y-12744680D01*
X9570080Y-12719280D01*
X9587860Y-12706580D01*
X9595480Y-12701500D01*
X9595480Y-12704040D01*
X9608180Y-12709120D01*
X9633580Y-12726900D01*
X9666600Y-12749760D01*
X9707240Y-12777700D01*
X9709780Y-12780240D01*
X9750420Y-12805640D01*
X9783440Y-12828500D01*
X9806300Y-12843740D01*
X9816460Y-12851360D01*
X9819000Y-12851360D01*
X9834240Y-12846280D01*
X9864720Y-12836120D01*
X9897740Y-12823420D01*
X9935840Y-12808180D01*
X9968860Y-12792940D01*
X9994260Y-12782780D01*
X10006960Y-12775160D01*
X10012040Y-12759920D01*
X10017120Y-12729440D01*
X10027280Y-12688800D01*
X10034900Y-12640540D01*
X10037440Y-12632920D01*
X10045060Y-12584660D01*
X10052680Y-12546560D01*
X10060300Y-12518620D01*
X10062840Y-12505920D01*
X10067920Y-12505920D01*
X10093320Y-12503380D01*
X10128880Y-12503380D01*
X10172060Y-12503380D01*
X10215240Y-12503380D01*
X10258420Y-12503380D01*
X10296520Y-12505920D01*
X10321920Y-12505920D01*
X10334620Y-12508460D01*
X10334620Y-12511000D01*
X10339700Y-12523700D01*
X10344780Y-12554180D01*
X10354940Y-12594820D01*
X10362560Y-12645620D01*
X10365100Y-12653240D01*
X10372720Y-12701500D01*
X10382880Y-12739600D01*
X10387960Y-12767540D01*
X10390500Y-12777700D01*
X10395580Y-12780240D01*
X10413360Y-12787860D01*
X10446380Y-12800560D01*
X10487020Y-12818340D01*
X10578460Y-12853900D01*
X10690220Y-12777700D01*
X10700380Y-12770080D01*
X10741020Y-12742140D01*
X10774040Y-12721820D01*
X10796900Y-12706580D01*
X10807060Y-12701500D01*
X10817220Y-12711660D01*
X10840080Y-12731980D01*
X10870560Y-12762460D01*
X10906120Y-12795480D01*
X10931520Y-12823420D01*
X10962000Y-12853900D01*
X10982320Y-12874220D01*
X10992480Y-12889460D01*
X10997560Y-12897080D01*
X10995020Y-12902160D01*
X10989940Y-12914860D01*
X10972160Y-12937720D01*
X10949300Y-12973280D01*
X10921360Y-13011380D01*
X10898500Y-13046940D01*
X10875640Y-13082500D01*
X10860400Y-13110440D01*
X10852780Y-13123140D01*
X10855320Y-13128220D01*
X10862940Y-13151080D01*
X10875640Y-13184100D01*
X10893420Y-13224740D01*
X10931520Y-13313640D01*
X10989940Y-13323800D01*
X11025500Y-13331420D01*
X11076300Y-13339040D01*
X11122020Y-13349200D01*
X11195680Y-13364440D01*
X11198220Y-13631140D01*
X11188060Y-13636220D01*
X11175360Y-13641300D01*
X11149960Y-13646380D01*
X11109320Y-13654000D01*
X11063600Y-13661620D01*
X11025500Y-13669240D01*
X10984860Y-13676860D01*
X10956920Y-13681940D01*
X10944220Y-13684480D01*
X10941680Y-13689560D01*
X10931520Y-13709880D01*
X10916280Y-13740360D01*
X10901040Y-13775920D01*
X10885800Y-13814020D01*
X10873100Y-13849580D01*
X10862940Y-13874980D01*
X10857860Y-13890220D01*
X10862940Y-13900380D01*
X10878180Y-13923240D01*
X10901040Y-13956260D01*
X10926440Y-13994360D01*
X10954380Y-14035000D01*
X10977240Y-14068020D01*
X10992480Y-14093420D01*
X11000100Y-14103580D01*
X10995020Y-14111200D01*
X10979780Y-14128980D01*
X10951840Y-14159460D01*
X10906120Y-14205180D01*
X10898500Y-14210260D01*
X10865480Y-14245820D01*
X10835000Y-14271220D01*
X10814680Y-14291540D01*
X10804520Y-14296620D01*
G04 #@! TO.C,DB1*
D10*
X9309523Y-2961904D02*
X9309523Y-2161904D01*
X9500000Y-2161904D01*
X9614285Y-2200000D01*
X9690476Y-2276190D01*
X9728571Y-2352380D01*
X9766666Y-2504761D01*
X9766666Y-2619047D01*
X9728571Y-2771428D01*
X9690476Y-2847619D01*
X9614285Y-2923809D01*
X9500000Y-2961904D01*
X9309523Y-2961904D01*
X10376190Y-2542857D02*
X10490476Y-2580952D01*
X10528571Y-2619047D01*
X10566666Y-2695238D01*
X10566666Y-2809523D01*
X10528571Y-2885714D01*
X10490476Y-2923809D01*
X10414285Y-2961904D01*
X10109523Y-2961904D01*
X10109523Y-2161904D01*
X10376190Y-2161904D01*
X10452380Y-2200000D01*
X10490476Y-2238095D01*
X10528571Y-2314285D01*
X10528571Y-2390476D01*
X10490476Y-2466666D01*
X10452380Y-2504761D01*
X10376190Y-2542857D01*
X10109523Y-2542857D01*
X11328571Y-2961904D02*
X10871428Y-2961904D01*
X11100000Y-2961904D02*
X11100000Y-2161904D01*
X11023809Y-2276190D01*
X10947619Y-2352380D01*
X10871428Y-2390476D01*
G04 #@! TO.C,R1*
X6466666Y-5561904D02*
X6200000Y-5180952D01*
X6009523Y-5561904D02*
X6009523Y-4761904D01*
X6314285Y-4761904D01*
X6390476Y-4800000D01*
X6428571Y-4838095D01*
X6466666Y-4914285D01*
X6466666Y-5028571D01*
X6428571Y-5104761D01*
X6390476Y-5142857D01*
X6314285Y-5180952D01*
X6009523Y-5180952D01*
X7228571Y-5561904D02*
X6771428Y-5561904D01*
X7000000Y-5561904D02*
X7000000Y-4761904D01*
X6923809Y-4876190D01*
X6847619Y-4952380D01*
X6771428Y-4990476D01*
G04 #@! TO.C,R2*
X6866666Y-11061904D02*
X6600000Y-10680952D01*
X6409523Y-11061904D02*
X6409523Y-10261904D01*
X6714285Y-10261904D01*
X6790476Y-10300000D01*
X6828571Y-10338095D01*
X6866666Y-10414285D01*
X6866666Y-10528571D01*
X6828571Y-10604761D01*
X6790476Y-10642857D01*
X6714285Y-10680952D01*
X6409523Y-10680952D01*
X7171428Y-10338095D02*
X7209523Y-10300000D01*
X7285714Y-10261904D01*
X7476190Y-10261904D01*
X7552380Y-10300000D01*
X7590476Y-10338095D01*
X7628571Y-10414285D01*
X7628571Y-10490476D01*
X7590476Y-10604761D01*
X7133333Y-11061904D01*
X7628571Y-11061904D01*
G04 #@! TO.C,R3*
X9414166Y-5561904D02*
X9147500Y-5180952D01*
X8957023Y-5561904D02*
X8957023Y-4761904D01*
X9261785Y-4761904D01*
X9337976Y-4800000D01*
X9376071Y-4838095D01*
X9414166Y-4914285D01*
X9414166Y-5028571D01*
X9376071Y-5104761D01*
X9337976Y-5142857D01*
X9261785Y-5180952D01*
X8957023Y-5180952D01*
X9680833Y-4761904D02*
X10176071Y-4761904D01*
X9909404Y-5066666D01*
X10023690Y-5066666D01*
X10099880Y-5104761D01*
X10137976Y-5142857D01*
X10176071Y-5219047D01*
X10176071Y-5409523D01*
X10137976Y-5485714D01*
X10099880Y-5523809D01*
X10023690Y-5561904D01*
X9795119Y-5561904D01*
X9718928Y-5523809D01*
X9680833Y-5485714D01*
G04 #@! TO.C,R4*
X10366666Y-11961904D02*
X10100000Y-11580952D01*
X9909523Y-11961904D02*
X9909523Y-11161904D01*
X10214285Y-11161904D01*
X10290476Y-11200000D01*
X10328571Y-11238095D01*
X10366666Y-11314285D01*
X10366666Y-11428571D01*
X10328571Y-11504761D01*
X10290476Y-11542857D01*
X10214285Y-11580952D01*
X9909523Y-11580952D01*
X11052380Y-11428571D02*
X11052380Y-11961904D01*
X10861904Y-11123809D02*
X10671428Y-11695238D01*
X11166666Y-11695238D01*
G04 #@! TO.C,RF1*
X6223809Y-2961904D02*
X5957142Y-2580952D01*
X5766666Y-2961904D02*
X5766666Y-2161904D01*
X6071428Y-2161904D01*
X6147619Y-2200000D01*
X6185714Y-2238095D01*
X6223809Y-2314285D01*
X6223809Y-2428571D01*
X6185714Y-2504761D01*
X6147619Y-2542857D01*
X6071428Y-2580952D01*
X5766666Y-2580952D01*
X6833333Y-2542857D02*
X6566666Y-2542857D01*
X6566666Y-2961904D02*
X6566666Y-2161904D01*
X6947619Y-2161904D01*
X7671428Y-2961904D02*
X7214285Y-2961904D01*
X7442857Y-2961904D02*
X7442857Y-2161904D01*
X7366666Y-2276190D01*
X7290476Y-2352380D01*
X7214285Y-2390476D01*
G04 #@! TD*
M02*
