G04 #@! TF.GenerationSoftware,KiCad,Pcbnew,5.0.2-bee76a0~70~ubuntu16.04.1*
G04 #@! TF.CreationDate,2019-12-01T18:07:58-08:00*
G04 #@! TF.ProjectId,psfeedback,70736665-6564-4626-9163-6b2e6b696361,1.0*
G04 #@! TF.SameCoordinates,PX8f25820PY3fcd020*
G04 #@! TF.FileFunction,Copper,L2,Bot*
G04 #@! TF.FilePolarity,Positive*
%FSLAX46Y46*%
G04 Gerber Fmt 4.6, Leading zero omitted, Abs format (unit mm)*
G04 Created by KiCad (PCBNEW 5.0.2-bee76a0~70~ubuntu16.04.1) date Sun 01 Dec 2019 06:07:58 PM PST*
%MOMM*%
%LPD*%
G01*
G04 APERTURE LIST*
G04 #@! TA.AperFunction,SMDPad,CuDef*
%ADD10R,2.540000X1.900000*%
G04 #@! TD*
G04 #@! TA.AperFunction,ComponentPad*
%ADD11C,1.900000*%
G04 #@! TD*
G04 #@! TA.AperFunction,ComponentPad*
%ADD12R,2.540000X5.080000*%
G04 #@! TD*
G04 #@! TA.AperFunction,ComponentPad*
%ADD13R,2.540000X1.900000*%
G04 #@! TD*
G04 #@! TA.AperFunction,SMDPad,CuDef*
%ADD14R,5.000000X1.700000*%
G04 #@! TD*
G04 #@! TA.AperFunction,ViaPad*
%ADD15C,0.800000*%
G04 #@! TD*
G04 #@! TA.AperFunction,Conductor*
%ADD16C,0.850000*%
G04 #@! TD*
G04 #@! TA.AperFunction,Conductor*
%ADD17C,0.254000*%
G04 #@! TD*
G04 APERTURE END LIST*
D10*
G04 #@! TO.P,DB1,2*
G04 #@! TO.N,GNDS*
X15540000Y-5160000D03*
X13000000Y-5160000D03*
X13000000Y-10240000D03*
X15540000Y-10240000D03*
D11*
X15540000Y-5160000D03*
X13000000Y-10240000D03*
X15540000Y-10240000D03*
D12*
X15540000Y-12780000D03*
X13000000Y-12780000D03*
X15540000Y-2620000D03*
X13000000Y-2620000D03*
D11*
X13000000Y-5160000D03*
D13*
G04 #@! TO.P,DB1,1*
G04 #@! TO.N,Net-(DB1-Pad1)*
X13000000Y-7700000D03*
G04 #@! TD*
D14*
G04 #@! TO.P,RF1,2*
G04 #@! TO.N,GNDS*
X2800000Y-3960000D03*
X2800000Y-9040000D03*
G04 #@! TD*
D15*
G04 #@! TO.N,GNDS*
X2800000Y-9040000D03*
X2800000Y-3960000D03*
X5500000Y-3300000D03*
X5500000Y-10700000D03*
G04 #@! TD*
D16*
G04 #@! TO.N,GNDS*
X2800000Y-9040000D02*
X4740000Y-9040000D01*
X3840000Y-9040000D02*
X2800000Y-9040000D01*
X5500000Y-10700000D02*
X3840000Y-9040000D01*
G04 #@! TD*
D17*
G04 #@! TO.N,GNDS*
G36*
X11095000Y-2334250D02*
X11253750Y-2493000D01*
X12873000Y-2493000D01*
X12873000Y-2473000D01*
X13127000Y-2473000D01*
X13127000Y-2493000D01*
X15413000Y-2493000D01*
X15413000Y-2473000D01*
X15667000Y-2473000D01*
X15667000Y-2493000D01*
X15687000Y-2493000D01*
X15687000Y-2747000D01*
X15667000Y-2747000D01*
X15667000Y-2767000D01*
X15413000Y-2767000D01*
X15413000Y-2747000D01*
X13127000Y-2747000D01*
X13127000Y-2767000D01*
X12873000Y-2767000D01*
X12873000Y-2747000D01*
X11253750Y-2747000D01*
X11095000Y-2905750D01*
X11095000Y-5287002D01*
X11095287Y-5287002D01*
X11141699Y-5399051D01*
X11095000Y-5445750D01*
X11095000Y-6236309D01*
X11177097Y-6434508D01*
X11131843Y-6502235D01*
X11082560Y-6750000D01*
X11082560Y-8650000D01*
X11131843Y-8897765D01*
X11177097Y-8965492D01*
X11095000Y-9163691D01*
X11095000Y-9954250D01*
X11141699Y-10000949D01*
X11095287Y-10112998D01*
X11095000Y-10112998D01*
X11095000Y-12494250D01*
X11253750Y-12653000D01*
X12873000Y-12653000D01*
X12873000Y-12633000D01*
X13127000Y-12633000D01*
X13127000Y-12653000D01*
X15413000Y-12653000D01*
X15413000Y-12633000D01*
X15667000Y-12633000D01*
X15667000Y-12653000D01*
X15687000Y-12653000D01*
X15687000Y-12907000D01*
X15667000Y-12907000D01*
X15667000Y-12927000D01*
X15413000Y-12927000D01*
X15413000Y-12907000D01*
X13127000Y-12907000D01*
X13127000Y-12927000D01*
X12873000Y-12927000D01*
X12873000Y-12907000D01*
X11253750Y-12907000D01*
X11095000Y-13065750D01*
X11095000Y-14715000D01*
X685000Y-14715000D01*
X685000Y-10525000D01*
X2514250Y-10525000D01*
X2673000Y-10366250D01*
X2673000Y-9167000D01*
X2927000Y-9167000D01*
X2927000Y-10366250D01*
X3085750Y-10525000D01*
X5426310Y-10525000D01*
X5659699Y-10428327D01*
X5838327Y-10249698D01*
X5935000Y-10016309D01*
X5935000Y-9325750D01*
X5776250Y-9167000D01*
X2927000Y-9167000D01*
X2673000Y-9167000D01*
X2653000Y-9167000D01*
X2653000Y-8913000D01*
X2673000Y-8913000D01*
X2673000Y-7713750D01*
X2927000Y-7713750D01*
X2927000Y-8913000D01*
X5776250Y-8913000D01*
X5935000Y-8754250D01*
X5935000Y-8063691D01*
X5838327Y-7830302D01*
X5659699Y-7651673D01*
X5426310Y-7555000D01*
X3085750Y-7555000D01*
X2927000Y-7713750D01*
X2673000Y-7713750D01*
X2514250Y-7555000D01*
X685000Y-7555000D01*
X685000Y-5445000D01*
X2514250Y-5445000D01*
X2673000Y-5286250D01*
X2673000Y-4087000D01*
X2927000Y-4087000D01*
X2927000Y-5286250D01*
X3085750Y-5445000D01*
X5426310Y-5445000D01*
X5659699Y-5348327D01*
X5838327Y-5169698D01*
X5935000Y-4936309D01*
X5935000Y-4245750D01*
X5776250Y-4087000D01*
X2927000Y-4087000D01*
X2673000Y-4087000D01*
X2653000Y-4087000D01*
X2653000Y-3833000D01*
X2673000Y-3833000D01*
X2673000Y-2633750D01*
X2927000Y-2633750D01*
X2927000Y-3833000D01*
X5776250Y-3833000D01*
X5935000Y-3674250D01*
X5935000Y-2983691D01*
X5838327Y-2750302D01*
X5659699Y-2571673D01*
X5426310Y-2475000D01*
X3085750Y-2475000D01*
X2927000Y-2633750D01*
X2673000Y-2633750D01*
X2514250Y-2475000D01*
X685000Y-2475000D01*
X685000Y-685000D01*
X11095000Y-685000D01*
X11095000Y-2334250D01*
X11095000Y-2334250D01*
G37*
X11095000Y-2334250D02*
X11253750Y-2493000D01*
X12873000Y-2493000D01*
X12873000Y-2473000D01*
X13127000Y-2473000D01*
X13127000Y-2493000D01*
X15413000Y-2493000D01*
X15413000Y-2473000D01*
X15667000Y-2473000D01*
X15667000Y-2493000D01*
X15687000Y-2493000D01*
X15687000Y-2747000D01*
X15667000Y-2747000D01*
X15667000Y-2767000D01*
X15413000Y-2767000D01*
X15413000Y-2747000D01*
X13127000Y-2747000D01*
X13127000Y-2767000D01*
X12873000Y-2767000D01*
X12873000Y-2747000D01*
X11253750Y-2747000D01*
X11095000Y-2905750D01*
X11095000Y-5287002D01*
X11095287Y-5287002D01*
X11141699Y-5399051D01*
X11095000Y-5445750D01*
X11095000Y-6236309D01*
X11177097Y-6434508D01*
X11131843Y-6502235D01*
X11082560Y-6750000D01*
X11082560Y-8650000D01*
X11131843Y-8897765D01*
X11177097Y-8965492D01*
X11095000Y-9163691D01*
X11095000Y-9954250D01*
X11141699Y-10000949D01*
X11095287Y-10112998D01*
X11095000Y-10112998D01*
X11095000Y-12494250D01*
X11253750Y-12653000D01*
X12873000Y-12653000D01*
X12873000Y-12633000D01*
X13127000Y-12633000D01*
X13127000Y-12653000D01*
X15413000Y-12653000D01*
X15413000Y-12633000D01*
X15667000Y-12633000D01*
X15667000Y-12653000D01*
X15687000Y-12653000D01*
X15687000Y-12907000D01*
X15667000Y-12907000D01*
X15667000Y-12927000D01*
X15413000Y-12927000D01*
X15413000Y-12907000D01*
X13127000Y-12907000D01*
X13127000Y-12927000D01*
X12873000Y-12927000D01*
X12873000Y-12907000D01*
X11253750Y-12907000D01*
X11095000Y-13065750D01*
X11095000Y-14715000D01*
X685000Y-14715000D01*
X685000Y-10525000D01*
X2514250Y-10525000D01*
X2673000Y-10366250D01*
X2673000Y-9167000D01*
X2927000Y-9167000D01*
X2927000Y-10366250D01*
X3085750Y-10525000D01*
X5426310Y-10525000D01*
X5659699Y-10428327D01*
X5838327Y-10249698D01*
X5935000Y-10016309D01*
X5935000Y-9325750D01*
X5776250Y-9167000D01*
X2927000Y-9167000D01*
X2673000Y-9167000D01*
X2653000Y-9167000D01*
X2653000Y-8913000D01*
X2673000Y-8913000D01*
X2673000Y-7713750D01*
X2927000Y-7713750D01*
X2927000Y-8913000D01*
X5776250Y-8913000D01*
X5935000Y-8754250D01*
X5935000Y-8063691D01*
X5838327Y-7830302D01*
X5659699Y-7651673D01*
X5426310Y-7555000D01*
X3085750Y-7555000D01*
X2927000Y-7713750D01*
X2673000Y-7713750D01*
X2514250Y-7555000D01*
X685000Y-7555000D01*
X685000Y-5445000D01*
X2514250Y-5445000D01*
X2673000Y-5286250D01*
X2673000Y-4087000D01*
X2927000Y-4087000D01*
X2927000Y-5286250D01*
X3085750Y-5445000D01*
X5426310Y-5445000D01*
X5659699Y-5348327D01*
X5838327Y-5169698D01*
X5935000Y-4936309D01*
X5935000Y-4245750D01*
X5776250Y-4087000D01*
X2927000Y-4087000D01*
X2673000Y-4087000D01*
X2653000Y-4087000D01*
X2653000Y-3833000D01*
X2673000Y-3833000D01*
X2673000Y-2633750D01*
X2927000Y-2633750D01*
X2927000Y-3833000D01*
X5776250Y-3833000D01*
X5935000Y-3674250D01*
X5935000Y-2983691D01*
X5838327Y-2750302D01*
X5659699Y-2571673D01*
X5426310Y-2475000D01*
X3085750Y-2475000D01*
X2927000Y-2633750D01*
X2673000Y-2633750D01*
X2514250Y-2475000D01*
X685000Y-2475000D01*
X685000Y-685000D01*
X11095000Y-685000D01*
X11095000Y-2334250D01*
G04 #@! TD*
M02*
