G04 #@! TF.GenerationSoftware,KiCad,Pcbnew,5.0.2+dfsg1-1*
G04 #@! TF.CreationDate,2019-07-23T09:36:29-06:00*
G04 #@! TF.ProjectId,hl2-back,686c322d-6261-4636-9b2e-6b696361645f,rev?*
G04 #@! TF.SameCoordinates,Original*
G04 #@! TF.FileFunction,Legend,Top*
G04 #@! TF.FilePolarity,Positive*
%FSLAX46Y46*%
G04 Gerber Fmt 4.6, Leading zero omitted, Abs format (unit mm)*
G04 Created by KiCad (PCBNEW 5.0.2+dfsg1-1) date Tue 23 Jul 2019 09:36:29 AM MDT*
%MOMM*%
%LPD*%
G01*
G04 APERTURE LIST*
%ADD10C,0.150000*%
G04 APERTURE END LIST*
G04 #@! TO.C,REF\002A\002A*
D10*
X93666666Y-180152380D02*
X93333333Y-179676190D01*
X93095238Y-180152380D02*
X93095238Y-179152380D01*
X93476190Y-179152380D01*
X93571428Y-179200000D01*
X93619047Y-179247619D01*
X93666666Y-179342857D01*
X93666666Y-179485714D01*
X93619047Y-179580952D01*
X93571428Y-179628571D01*
X93476190Y-179676190D01*
X93095238Y-179676190D01*
X94095238Y-179628571D02*
X94428571Y-179628571D01*
X94571428Y-180152380D02*
X94095238Y-180152380D01*
X94095238Y-179152380D01*
X94571428Y-179152380D01*
X95333333Y-179628571D02*
X95000000Y-179628571D01*
X95000000Y-180152380D02*
X95000000Y-179152380D01*
X95476190Y-179152380D01*
X96000000Y-179152380D02*
X96000000Y-179390476D01*
X95761904Y-179295238D02*
X96000000Y-179390476D01*
X96238095Y-179295238D01*
X95857142Y-179580952D02*
X96000000Y-179390476D01*
X96142857Y-179580952D01*
X96761904Y-179152380D02*
X96761904Y-179390476D01*
X96523809Y-179295238D02*
X96761904Y-179390476D01*
X97000000Y-179295238D01*
X96619047Y-179580952D02*
X96761904Y-179390476D01*
X96904761Y-179580952D01*
G04 #@! TO.C,H1*
X64075759Y-145413784D02*
X64075759Y-144413784D01*
X64075759Y-144889975D02*
X64647187Y-144889975D01*
X64647187Y-145413784D02*
X64647187Y-144413784D01*
X65647187Y-145413784D02*
X65075759Y-145413784D01*
X65361473Y-145413784D02*
X65361473Y-144413784D01*
X65266235Y-144556642D01*
X65170997Y-144651880D01*
X65075759Y-144699499D01*
G04 #@! TO.C,H4*
X64073942Y-192335091D02*
X64073942Y-191335091D01*
X64073942Y-191811282D02*
X64645370Y-191811282D01*
X64645370Y-192335091D02*
X64645370Y-191335091D01*
X65550132Y-191668425D02*
X65550132Y-192335091D01*
X65312037Y-191287472D02*
X65073942Y-192001758D01*
X65692989Y-192001758D01*
G04 #@! TO.C,H3*
X159893720Y-192328678D02*
X159893720Y-191328678D01*
X159893720Y-191804869D02*
X160465148Y-191804869D01*
X160465148Y-192328678D02*
X160465148Y-191328678D01*
X160846101Y-191328678D02*
X161465148Y-191328678D01*
X161131815Y-191709631D01*
X161274672Y-191709631D01*
X161369910Y-191757250D01*
X161417529Y-191804869D01*
X161465148Y-191900107D01*
X161465148Y-192138202D01*
X161417529Y-192233440D01*
X161369910Y-192281059D01*
X161274672Y-192328678D01*
X160988958Y-192328678D01*
X160893720Y-192281059D01*
X160846101Y-192233440D01*
G04 #@! TO.C,H2*
X159887308Y-145412074D02*
X159887308Y-144412074D01*
X159887308Y-144888265D02*
X160458736Y-144888265D01*
X160458736Y-145412074D02*
X160458736Y-144412074D01*
X160887308Y-144507313D02*
X160934927Y-144459694D01*
X161030165Y-144412074D01*
X161268260Y-144412074D01*
X161363498Y-144459694D01*
X161411117Y-144507313D01*
X161458736Y-144602551D01*
X161458736Y-144697789D01*
X161411117Y-144840646D01*
X160839689Y-145412074D01*
X161458736Y-145412074D01*
G04 #@! TO.C,REF\002A\002A*
X125266666Y-180152380D02*
X124933333Y-179676190D01*
X124695238Y-180152380D02*
X124695238Y-179152380D01*
X125076190Y-179152380D01*
X125171428Y-179200000D01*
X125219047Y-179247619D01*
X125266666Y-179342857D01*
X125266666Y-179485714D01*
X125219047Y-179580952D01*
X125171428Y-179628571D01*
X125076190Y-179676190D01*
X124695238Y-179676190D01*
X125695238Y-179628571D02*
X126028571Y-179628571D01*
X126171428Y-180152380D02*
X125695238Y-180152380D01*
X125695238Y-179152380D01*
X126171428Y-179152380D01*
X126933333Y-179628571D02*
X126600000Y-179628571D01*
X126600000Y-180152380D02*
X126600000Y-179152380D01*
X127076190Y-179152380D01*
X127600000Y-179152380D02*
X127600000Y-179390476D01*
X127361904Y-179295238D02*
X127600000Y-179390476D01*
X127838095Y-179295238D01*
X127457142Y-179580952D02*
X127600000Y-179390476D01*
X127742857Y-179580952D01*
X128361904Y-179152380D02*
X128361904Y-179390476D01*
X128123809Y-179295238D02*
X128361904Y-179390476D01*
X128600000Y-179295238D01*
X128219047Y-179580952D02*
X128361904Y-179390476D01*
X128504761Y-179580952D01*
X73866666Y-172352380D02*
X73533333Y-171876190D01*
X73295238Y-172352380D02*
X73295238Y-171352380D01*
X73676190Y-171352380D01*
X73771428Y-171400000D01*
X73819047Y-171447619D01*
X73866666Y-171542857D01*
X73866666Y-171685714D01*
X73819047Y-171780952D01*
X73771428Y-171828571D01*
X73676190Y-171876190D01*
X73295238Y-171876190D01*
X74295238Y-171828571D02*
X74628571Y-171828571D01*
X74771428Y-172352380D02*
X74295238Y-172352380D01*
X74295238Y-171352380D01*
X74771428Y-171352380D01*
X75533333Y-171828571D02*
X75200000Y-171828571D01*
X75200000Y-172352380D02*
X75200000Y-171352380D01*
X75676190Y-171352380D01*
X76200000Y-171352380D02*
X76200000Y-171590476D01*
X75961904Y-171495238D02*
X76200000Y-171590476D01*
X76438095Y-171495238D01*
X76057142Y-171780952D02*
X76200000Y-171590476D01*
X76342857Y-171780952D01*
X76961904Y-171352380D02*
X76961904Y-171590476D01*
X76723809Y-171495238D02*
X76961904Y-171590476D01*
X77200000Y-171495238D01*
X76819047Y-171780952D02*
X76961904Y-171590476D01*
X77104761Y-171780952D01*
G04 #@! TD*
M02*
