G04 #@! TF.GenerationSoftware,KiCad,Pcbnew,5.0.2+dfsg1-1*
G04 #@! TF.CreationDate,2019-07-23T09:37:02-06:00*
G04 #@! TF.ProjectId,hl2-back-horiz,686c322d-6261-4636-9b2d-686f72697a2e,rev?*
G04 #@! TF.SameCoordinates,Original*
G04 #@! TF.FileFunction,Soldermask,Top*
G04 #@! TF.FilePolarity,Negative*
%FSLAX46Y46*%
G04 Gerber Fmt 4.6, Leading zero omitted, Abs format (unit mm)*
G04 Created by KiCad (PCBNEW 5.0.2+dfsg1-1) date Tue 23 Jul 2019 09:37:02 AM MDT*
%MOMM*%
%LPD*%
G01*
G04 APERTURE LIST*
%ADD10C,0.100000*%
G04 APERTURE END LIST*
D10*
G36*
X65382513Y-189262834D02*
X65382516Y-189262835D01*
X65382517Y-189262835D01*
X65787982Y-189385831D01*
X65787984Y-189385832D01*
X66161662Y-189585568D01*
X66489193Y-189854365D01*
X66757990Y-190181896D01*
X66757991Y-190181898D01*
X66957727Y-190555576D01*
X67078779Y-190954632D01*
X67080724Y-190961045D01*
X67122254Y-191382711D01*
X67080724Y-191804377D01*
X67080723Y-191804380D01*
X67080723Y-191804381D01*
X66959672Y-192203435D01*
X66957726Y-192209848D01*
X66757990Y-192583526D01*
X66489193Y-192911057D01*
X66161662Y-193179854D01*
X66161660Y-193179855D01*
X65787982Y-193379591D01*
X65382517Y-193502587D01*
X65382516Y-193502587D01*
X65382513Y-193502588D01*
X65066514Y-193533711D01*
X64605180Y-193533711D01*
X64289181Y-193502588D01*
X64289178Y-193502587D01*
X64289177Y-193502587D01*
X63883712Y-193379591D01*
X63510034Y-193179855D01*
X63510032Y-193179854D01*
X63182501Y-192911057D01*
X62913704Y-192583526D01*
X62713968Y-192209848D01*
X62712023Y-192203435D01*
X62590971Y-191804381D01*
X62590971Y-191804380D01*
X62590970Y-191804377D01*
X62549440Y-191382711D01*
X62590970Y-190961045D01*
X62592915Y-190954632D01*
X62713967Y-190555576D01*
X62913703Y-190181898D01*
X62913704Y-190181896D01*
X63182501Y-189854365D01*
X63510032Y-189585568D01*
X63883710Y-189385832D01*
X63883712Y-189385831D01*
X64289177Y-189262835D01*
X64289178Y-189262835D01*
X64289181Y-189262834D01*
X64605180Y-189231711D01*
X65066514Y-189231711D01*
X65382513Y-189262834D01*
X65382513Y-189262834D01*
G37*
G36*
X161202291Y-189256421D02*
X161202294Y-189256422D01*
X161202295Y-189256422D01*
X161607760Y-189379418D01*
X161607762Y-189379419D01*
X161981440Y-189579155D01*
X162308971Y-189847952D01*
X162577768Y-190175483D01*
X162751761Y-190501000D01*
X162777505Y-190549163D01*
X162779450Y-190555576D01*
X162900502Y-190954632D01*
X162942032Y-191376298D01*
X162900502Y-191797964D01*
X162900501Y-191797967D01*
X162900501Y-191797968D01*
X162898556Y-191804381D01*
X162777504Y-192203435D01*
X162577768Y-192577113D01*
X162308971Y-192904644D01*
X161981440Y-193173441D01*
X161981438Y-193173442D01*
X161607760Y-193373178D01*
X161202295Y-193496174D01*
X161202294Y-193496174D01*
X161202291Y-193496175D01*
X160886292Y-193527298D01*
X160424958Y-193527298D01*
X160108959Y-193496175D01*
X160108956Y-193496174D01*
X160108955Y-193496174D01*
X159703490Y-193373178D01*
X159329812Y-193173442D01*
X159329810Y-193173441D01*
X159002279Y-192904644D01*
X158733482Y-192577113D01*
X158533746Y-192203435D01*
X158412695Y-191804381D01*
X158410749Y-191797968D01*
X158410749Y-191797967D01*
X158410748Y-191797964D01*
X158369218Y-191376298D01*
X158410748Y-190954632D01*
X158531800Y-190555576D01*
X158533745Y-190549163D01*
X158559489Y-190501000D01*
X158733482Y-190175483D01*
X159002279Y-189847952D01*
X159329810Y-189579155D01*
X159703488Y-189379419D01*
X159703490Y-189379418D01*
X160108955Y-189256422D01*
X160108956Y-189256422D01*
X160108959Y-189256421D01*
X160424958Y-189225298D01*
X160886292Y-189225298D01*
X161202291Y-189256421D01*
X161202291Y-189256421D01*
G37*
G36*
X127562865Y-184025855D02*
X128163609Y-184274691D01*
X128704268Y-184635948D01*
X129164052Y-185095732D01*
X129525309Y-185636391D01*
X129774145Y-186237135D01*
X129901000Y-186874878D01*
X129901000Y-187525122D01*
X129774145Y-188162865D01*
X129525309Y-188763609D01*
X129164052Y-189304268D01*
X128704268Y-189764052D01*
X128163609Y-190125309D01*
X127562865Y-190374145D01*
X126925122Y-190501000D01*
X126274878Y-190501000D01*
X125637135Y-190374145D01*
X125036391Y-190125309D01*
X124495732Y-189764052D01*
X124035948Y-189304268D01*
X123674691Y-188763609D01*
X123425855Y-188162865D01*
X123299000Y-187525122D01*
X123299000Y-186874878D01*
X123425855Y-186237135D01*
X123674691Y-185636391D01*
X124035948Y-185095732D01*
X124495732Y-184635948D01*
X125036391Y-184274691D01*
X125637135Y-184025855D01*
X126274878Y-183899000D01*
X126925122Y-183899000D01*
X127562865Y-184025855D01*
X127562865Y-184025855D01*
G37*
G36*
X95962865Y-184025855D02*
X96563609Y-184274691D01*
X97104268Y-184635948D01*
X97564052Y-185095732D01*
X97925309Y-185636391D01*
X98174145Y-186237135D01*
X98301000Y-186874878D01*
X98301000Y-187525122D01*
X98174145Y-188162865D01*
X97925309Y-188763609D01*
X97564052Y-189304268D01*
X97104268Y-189764052D01*
X96563609Y-190125309D01*
X95962865Y-190374145D01*
X95325122Y-190501000D01*
X94674878Y-190501000D01*
X94037135Y-190374145D01*
X93436391Y-190125309D01*
X92895732Y-189764052D01*
X92435948Y-189304268D01*
X92074691Y-188763609D01*
X91825855Y-188162865D01*
X91699000Y-187525122D01*
X91699000Y-186874878D01*
X91825855Y-186237135D01*
X92074691Y-185636391D01*
X92435948Y-185095732D01*
X92895732Y-184635948D01*
X93436391Y-184274691D01*
X94037135Y-184025855D01*
X94674878Y-183899000D01*
X95325122Y-183899000D01*
X95962865Y-184025855D01*
X95962865Y-184025855D01*
G37*
G36*
X76078102Y-176885486D02*
X76512893Y-176971971D01*
X76852187Y-177112511D01*
X77332022Y-177311265D01*
X78069223Y-177803847D01*
X78696153Y-178430777D01*
X79188735Y-179167978D01*
X79528029Y-179987108D01*
X79701000Y-180856689D01*
X79701000Y-181743311D01*
X79528029Y-182612892D01*
X79188735Y-183432022D01*
X78696153Y-184169223D01*
X78069223Y-184796153D01*
X77332022Y-185288735D01*
X76852187Y-185487489D01*
X76512893Y-185628029D01*
X76470859Y-185636390D01*
X75643311Y-185801000D01*
X74756689Y-185801000D01*
X73929141Y-185636390D01*
X73887107Y-185628029D01*
X73547813Y-185487489D01*
X73067978Y-185288735D01*
X72330777Y-184796153D01*
X71703847Y-184169223D01*
X71211265Y-183432022D01*
X70871971Y-182612892D01*
X70699000Y-181743311D01*
X70699000Y-180856689D01*
X70871971Y-179987108D01*
X71211265Y-179167978D01*
X71703847Y-178430777D01*
X72330777Y-177803847D01*
X73067978Y-177311265D01*
X73547813Y-177112511D01*
X73887107Y-176971971D01*
X74321898Y-176885486D01*
X74756689Y-176799000D01*
X75643311Y-176799000D01*
X76078102Y-176885486D01*
X76078102Y-176885486D01*
G37*
G36*
X65384330Y-142341527D02*
X65384333Y-142341528D01*
X65384334Y-142341528D01*
X65789799Y-142464524D01*
X65789801Y-142464525D01*
X66163479Y-142664261D01*
X66491010Y-142933058D01*
X66759807Y-143260589D01*
X66959543Y-143634267D01*
X67082541Y-144039738D01*
X67124071Y-144461404D01*
X67082541Y-144883070D01*
X67082540Y-144883073D01*
X67082540Y-144883074D01*
X66960063Y-145286829D01*
X66959543Y-145288541D01*
X66759807Y-145662219D01*
X66491010Y-145989750D01*
X66163479Y-146258547D01*
X66163477Y-146258548D01*
X65789799Y-146458284D01*
X65384334Y-146581280D01*
X65384333Y-146581280D01*
X65384330Y-146581281D01*
X65068331Y-146612404D01*
X64606997Y-146612404D01*
X64290998Y-146581281D01*
X64290995Y-146581280D01*
X64290994Y-146581280D01*
X63885529Y-146458284D01*
X63511851Y-146258548D01*
X63511849Y-146258547D01*
X63184318Y-145989750D01*
X62915521Y-145662219D01*
X62715785Y-145288541D01*
X62715266Y-145286829D01*
X62592788Y-144883074D01*
X62592788Y-144883073D01*
X62592787Y-144883070D01*
X62551257Y-144461404D01*
X62592787Y-144039738D01*
X62715785Y-143634267D01*
X62915521Y-143260589D01*
X63184318Y-142933058D01*
X63511849Y-142664261D01*
X63885527Y-142464525D01*
X63885529Y-142464524D01*
X64290994Y-142341528D01*
X64290995Y-142341528D01*
X64290998Y-142341527D01*
X64606997Y-142310404D01*
X65068331Y-142310404D01*
X65384330Y-142341527D01*
X65384330Y-142341527D01*
G37*
G36*
X161195879Y-142339817D02*
X161195882Y-142339818D01*
X161195883Y-142339818D01*
X161601348Y-142462814D01*
X161601350Y-142462815D01*
X161975028Y-142662551D01*
X162302559Y-142931348D01*
X162571356Y-143258879D01*
X162571357Y-143258881D01*
X162771093Y-143632559D01*
X162894089Y-144038024D01*
X162894090Y-144038028D01*
X162935620Y-144459694D01*
X162894090Y-144881360D01*
X162771092Y-145286831D01*
X162571356Y-145660509D01*
X162302559Y-145988040D01*
X161975028Y-146256837D01*
X161975026Y-146256838D01*
X161601348Y-146456574D01*
X161195883Y-146579570D01*
X161195882Y-146579570D01*
X161195879Y-146579571D01*
X160879880Y-146610694D01*
X160418546Y-146610694D01*
X160102547Y-146579571D01*
X160102544Y-146579570D01*
X160102543Y-146579570D01*
X159697078Y-146456574D01*
X159323400Y-146256838D01*
X159323398Y-146256837D01*
X158995867Y-145988040D01*
X158727070Y-145660509D01*
X158527334Y-145286831D01*
X158404336Y-144881360D01*
X158362806Y-144459694D01*
X158404336Y-144038028D01*
X158404337Y-144038024D01*
X158527333Y-143632559D01*
X158727069Y-143258881D01*
X158727070Y-143258879D01*
X158995867Y-142931348D01*
X159323398Y-142662551D01*
X159697076Y-142462815D01*
X159697078Y-142462814D01*
X160102543Y-142339818D01*
X160102544Y-142339818D01*
X160102547Y-142339817D01*
X160418546Y-142308694D01*
X160879880Y-142308694D01*
X161195879Y-142339817D01*
X161195879Y-142339817D01*
G37*
M02*
