G04 #@! TF.GenerationSoftware,KiCad,Pcbnew,5.0.2-bee76a0~70~ubuntu16.04.1*
G04 #@! TF.CreationDate,2019-02-20T20:44:02-08:00*
G04 #@! TF.ProjectId,n2adr,6e326164-722e-46b6-9963-61645f706362,E5b8*
G04 #@! TF.SameCoordinates,PX3dfd240PY3473bc0*
G04 #@! TF.FileFunction,Paste,Top*
G04 #@! TF.FilePolarity,Positive*
%FSLAX46Y46*%
G04 Gerber Fmt 4.6, Leading zero omitted, Abs format (unit mm)*
G04 Created by KiCad (PCBNEW 5.0.2-bee76a0~70~ubuntu16.04.1) date Wed 20 Feb 2019 08:44:02 PM PST*
%MOMM*%
%LPD*%
G01*
G04 APERTURE LIST*
%ADD10R,3.500000X1.800000*%
%ADD11R,1.250000X1.200000*%
%ADD12R,1.200000X1.250000*%
%ADD13R,1.600000X1.600000*%
%ADD14R,1.600000X2.500000*%
%ADD15R,2.500000X1.600000*%
%ADD16R,1.800000X3.500000*%
%ADD17R,1.300000X1.300000*%
%ADD18R,1.300000X2.000000*%
%ADD19R,0.900000X1.200000*%
G04 APERTURE END LIST*
D10*
G04 #@! TO.C,L2*
X70400000Y-31500000D03*
X70400000Y-26500000D03*
G04 #@! TD*
D11*
G04 #@! TO.C,C1*
X73300000Y-5200000D03*
X73300000Y-7400000D03*
G04 #@! TD*
D12*
G04 #@! TO.C,C2*
X68700000Y-5100000D03*
X66500000Y-5100000D03*
G04 #@! TD*
G04 #@! TO.C,C4*
X53600000Y-7100000D03*
X51400000Y-7100000D03*
G04 #@! TD*
D13*
G04 #@! TO.C,C8*
X65200000Y-32800000D03*
X62000000Y-32800000D03*
G04 #@! TD*
G04 #@! TO.C,C9*
X68600000Y-35000000D03*
X71800000Y-35000000D03*
G04 #@! TD*
G04 #@! TO.C,C10*
X64400000Y-23800000D03*
X67600000Y-23800000D03*
G04 #@! TD*
D12*
G04 #@! TO.C,R2*
X94100000Y-34500000D03*
X91900000Y-34500000D03*
G04 #@! TD*
G04 #@! TO.C,R3*
X91900000Y-42000000D03*
X94100000Y-42000000D03*
G04 #@! TD*
G04 #@! TO.C,R6*
X94100000Y-39500000D03*
X91900000Y-39500000D03*
G04 #@! TD*
G04 #@! TO.C,R7*
X91900000Y-37000000D03*
X94100000Y-37000000D03*
G04 #@! TD*
D13*
G04 #@! TO.C,C21*
X95200000Y-16800000D03*
X95200000Y-13600000D03*
G04 #@! TD*
G04 #@! TO.C,C22*
X95200000Y-7200000D03*
X95200000Y-10400000D03*
G04 #@! TD*
G04 #@! TO.C,C23*
X83600000Y-4400000D03*
X80400000Y-4400000D03*
G04 #@! TD*
G04 #@! TO.C,C24*
X5500000Y-25900000D03*
X5500000Y-29100000D03*
G04 #@! TD*
G04 #@! TO.C,C25*
X8900000Y-33000000D03*
X12100000Y-33000000D03*
G04 #@! TD*
G04 #@! TO.C,C26*
X13900000Y-25500000D03*
X17100000Y-25500000D03*
G04 #@! TD*
D14*
G04 #@! TO.C,L7*
X8900000Y-29500000D03*
X12100000Y-29500000D03*
G04 #@! TD*
D15*
G04 #@! TO.C,L8*
X17000000Y-31600000D03*
X17000000Y-28400000D03*
G04 #@! TD*
D13*
G04 #@! TO.C,C32*
X47250000Y-37600000D03*
X47250000Y-34400000D03*
G04 #@! TD*
G04 #@! TO.C,C33*
X33750000Y-37600000D03*
X33750000Y-34400000D03*
G04 #@! TD*
G04 #@! TO.C,C34*
X24200000Y-35200000D03*
X21000000Y-35200000D03*
G04 #@! TD*
G04 #@! TO.C,C35*
X50600000Y-31000000D03*
X47400000Y-31000000D03*
G04 #@! TD*
G04 #@! TO.C,C36*
X36850000Y-31000000D03*
X33650000Y-31000000D03*
G04 #@! TD*
G04 #@! TO.C,C37*
X50250000Y-37600000D03*
X50250000Y-34400000D03*
G04 #@! TD*
G04 #@! TO.C,C38*
X36750000Y-37600000D03*
X36750000Y-34400000D03*
G04 #@! TD*
G04 #@! TO.C,C39*
X27000000Y-35200000D03*
X30200000Y-35200000D03*
G04 #@! TD*
G04 #@! TO.C,C40*
X57100000Y-31000000D03*
X53900000Y-31000000D03*
G04 #@! TD*
G04 #@! TO.C,C41*
X43600000Y-30500000D03*
X40400000Y-30500000D03*
G04 #@! TD*
G04 #@! TO.C,C42*
X54400000Y-40500000D03*
X57600000Y-40500000D03*
G04 #@! TD*
G04 #@! TO.C,C43*
X40400000Y-37500000D03*
X43600000Y-37500000D03*
G04 #@! TD*
G04 #@! TO.C,C44*
X26000000Y-25700000D03*
X29200000Y-25700000D03*
G04 #@! TD*
D14*
G04 #@! TO.C,L10*
X34400000Y-27000000D03*
X37600000Y-27000000D03*
G04 #@! TD*
G04 #@! TO.C,L11*
X21000000Y-30200000D03*
X24200000Y-30200000D03*
G04 #@! TD*
G04 #@! TO.C,L13*
X40400000Y-34000000D03*
X43600000Y-34000000D03*
G04 #@! TD*
D15*
G04 #@! TO.C,L14*
X28600000Y-31800000D03*
X28600000Y-28600000D03*
G04 #@! TD*
D16*
G04 #@! TO.C,L1*
X60300000Y-28400000D03*
X65300000Y-28400000D03*
G04 #@! TD*
D10*
G04 #@! TO.C,L5*
X90800000Y-16100000D03*
X90800000Y-11100000D03*
G04 #@! TD*
D16*
G04 #@! TO.C,L6*
X94300000Y-3400000D03*
X89300000Y-3400000D03*
G04 #@! TD*
G04 #@! TO.C,L9*
X47500000Y-27000000D03*
X52500000Y-27000000D03*
G04 #@! TD*
D14*
G04 #@! TO.C,L12*
X54400000Y-36000000D03*
X57600000Y-36000000D03*
G04 #@! TD*
D11*
G04 #@! TO.C,C50*
X51600000Y-40800000D03*
X51600000Y-43000000D03*
G04 #@! TD*
G04 #@! TO.C,C47*
X92000000Y-21400000D03*
X92000000Y-23600000D03*
G04 #@! TD*
G04 #@! TO.C,C48*
X95500000Y-26600000D03*
X95500000Y-24400000D03*
G04 #@! TD*
G04 #@! TO.C,C49*
X92000000Y-26900000D03*
X92000000Y-29100000D03*
G04 #@! TD*
G04 #@! TO.C,L4*
X95500000Y-31100000D03*
X95500000Y-28900000D03*
G04 #@! TD*
G04 #@! TO.C,L15*
X95500000Y-19900000D03*
X95500000Y-22100000D03*
G04 #@! TD*
G04 #@! TO.C,R1*
X94800000Y-47100000D03*
X94800000Y-44900000D03*
G04 #@! TD*
D17*
G04 #@! TO.C,RV1*
X90250000Y-44850000D03*
D18*
X84750000Y-46000000D03*
D17*
X90250000Y-47150000D03*
G04 #@! TD*
D19*
G04 #@! TO.C,D3*
X36050000Y-5400000D03*
X39350000Y-5400000D03*
G04 #@! TD*
D12*
G04 #@! TO.C,FB1*
X49900000Y-4200000D03*
X52100000Y-4200000D03*
G04 #@! TD*
M02*
