G04 #@! TF.GenerationSoftware,KiCad,Pcbnew,5.0.2-bee76a0~70~ubuntu16.04.1*
G04 #@! TF.CreationDate,2019-12-01T17:21:16-08:00*
G04 #@! TF.ProjectId,db9,6462392e-6b69-4636-9164-5f7063625858,1.0*
G04 #@! TF.SameCoordinates,PX8847b20PY3a2c940*
G04 #@! TF.FileFunction,Soldermask,Bot*
G04 #@! TF.FilePolarity,Negative*
%FSLAX46Y46*%
G04 Gerber Fmt 4.6, Leading zero omitted, Abs format (unit mm)*
G04 Created by KiCad (PCBNEW 5.0.2-bee76a0~70~ubuntu16.04.1) date Sun 01 Dec 2019 05:21:16 PM PST*
%MOMM*%
%LPD*%
G01*
G04 APERTURE LIST*
%ADD10C,0.100000*%
G04 APERTURE END LIST*
D10*
G36*
X17947934Y-11382664D02*
X18102627Y-11446740D01*
X18241847Y-11539764D01*
X18286612Y-11584529D01*
X18305554Y-11600075D01*
X18327165Y-11611626D01*
X18350614Y-11618739D01*
X18375000Y-11621141D01*
X18399386Y-11618739D01*
X18422835Y-11611626D01*
X18444446Y-11600075D01*
X18463388Y-11584529D01*
X18478934Y-11565587D01*
X18490485Y-11543976D01*
X18497598Y-11520527D01*
X18500000Y-11496141D01*
X18500000Y-11400000D01*
X22500000Y-11400000D01*
X22500000Y-13000000D01*
X18500000Y-13000000D01*
X18500000Y-12903859D01*
X18497598Y-12879473D01*
X18490485Y-12856024D01*
X18478934Y-12834413D01*
X18463388Y-12815471D01*
X18444446Y-12799925D01*
X18422835Y-12788374D01*
X18399386Y-12781261D01*
X18375000Y-12778859D01*
X18350614Y-12781261D01*
X18327165Y-12788374D01*
X18305554Y-12799925D01*
X18286612Y-12815471D01*
X18241847Y-12860236D01*
X18102627Y-12953260D01*
X17947934Y-13017336D01*
X17783719Y-13050000D01*
X17616281Y-13050000D01*
X17452066Y-13017336D01*
X17297373Y-12953260D01*
X17158153Y-12860236D01*
X17113388Y-12815471D01*
X17094446Y-12799925D01*
X17072835Y-12788374D01*
X17049386Y-12781261D01*
X17025000Y-12778859D01*
X17000614Y-12781261D01*
X16977165Y-12788374D01*
X16955554Y-12799925D01*
X16936612Y-12815471D01*
X16921066Y-12834413D01*
X16909515Y-12856024D01*
X16902402Y-12879473D01*
X16900000Y-12903859D01*
X16900000Y-13000000D01*
X12900000Y-13000000D01*
X12900000Y-11400000D01*
X16900000Y-11400000D01*
X16900000Y-11496141D01*
X16902402Y-11520527D01*
X16909515Y-11543976D01*
X16921066Y-11565587D01*
X16936612Y-11584529D01*
X16955554Y-11600075D01*
X16977165Y-11611626D01*
X17000614Y-11618739D01*
X17025000Y-11621141D01*
X17049386Y-11618739D01*
X17072835Y-11611626D01*
X17094446Y-11600075D01*
X17113388Y-11584529D01*
X17158153Y-11539764D01*
X17297373Y-11446740D01*
X17452066Y-11382664D01*
X17616281Y-11350000D01*
X17783719Y-11350000D01*
X17947934Y-11382664D01*
X17947934Y-11382664D01*
G37*
G36*
X4200000Y-13000000D02*
X200000Y-13000000D01*
X200000Y-11400000D01*
X4200000Y-11400000D01*
X4200000Y-13000000D01*
X4200000Y-13000000D01*
G37*
G36*
X27850000Y-12055000D02*
X24350000Y-12055000D01*
X24350000Y-10255000D01*
X27850000Y-10255000D01*
X27850000Y-12055000D01*
X27850000Y-12055000D01*
G37*
G36*
X17947934Y-8842664D02*
X18102627Y-8906740D01*
X18241847Y-8999764D01*
X18286612Y-9044529D01*
X18305554Y-9060075D01*
X18327165Y-9071626D01*
X18350614Y-9078739D01*
X18375000Y-9081141D01*
X18399386Y-9078739D01*
X18422835Y-9071626D01*
X18444446Y-9060075D01*
X18463388Y-9044529D01*
X18478934Y-9025587D01*
X18490485Y-9003976D01*
X18497598Y-8980527D01*
X18500000Y-8956141D01*
X18500000Y-8860000D01*
X22500000Y-8860000D01*
X22500000Y-10460000D01*
X18500000Y-10460000D01*
X18500000Y-10363859D01*
X18497598Y-10339473D01*
X18490485Y-10316024D01*
X18478934Y-10294413D01*
X18463388Y-10275471D01*
X18444446Y-10259925D01*
X18422835Y-10248374D01*
X18399386Y-10241261D01*
X18375000Y-10238859D01*
X18350614Y-10241261D01*
X18327165Y-10248374D01*
X18305554Y-10259925D01*
X18286612Y-10275471D01*
X18241847Y-10320236D01*
X18102627Y-10413260D01*
X17947934Y-10477336D01*
X17783719Y-10510000D01*
X17616281Y-10510000D01*
X17452066Y-10477336D01*
X17297373Y-10413260D01*
X17158153Y-10320236D01*
X17113388Y-10275471D01*
X17094446Y-10259925D01*
X17072835Y-10248374D01*
X17049386Y-10241261D01*
X17025000Y-10238859D01*
X17000614Y-10241261D01*
X16977165Y-10248374D01*
X16955554Y-10259925D01*
X16936612Y-10275471D01*
X16921066Y-10294413D01*
X16909515Y-10316024D01*
X16902402Y-10339473D01*
X16900000Y-10363859D01*
X16900000Y-10460000D01*
X12900000Y-10460000D01*
X12900000Y-8860000D01*
X16900000Y-8860000D01*
X16900000Y-8956141D01*
X16902402Y-8980527D01*
X16909515Y-9003976D01*
X16921066Y-9025587D01*
X16936612Y-9044529D01*
X16955554Y-9060075D01*
X16977165Y-9071626D01*
X17000614Y-9078739D01*
X17025000Y-9081141D01*
X17049386Y-9078739D01*
X17072835Y-9071626D01*
X17094446Y-9060075D01*
X17113388Y-9044529D01*
X17158153Y-8999764D01*
X17297373Y-8906740D01*
X17452066Y-8842664D01*
X17616281Y-8810000D01*
X17783719Y-8810000D01*
X17947934Y-8842664D01*
X17947934Y-8842664D01*
G37*
G36*
X4200000Y-10460000D02*
X200000Y-10460000D01*
X200000Y-8860000D01*
X4200000Y-8860000D01*
X4200000Y-10460000D01*
X4200000Y-10460000D01*
G37*
G36*
X27850000Y-9285000D02*
X24350000Y-9285000D01*
X24350000Y-7485000D01*
X27850000Y-7485000D01*
X27850000Y-9285000D01*
X27850000Y-9285000D01*
G37*
G36*
X17947934Y-6302664D02*
X18102627Y-6366740D01*
X18241847Y-6459764D01*
X18286612Y-6504529D01*
X18305554Y-6520075D01*
X18327165Y-6531626D01*
X18350614Y-6538739D01*
X18375000Y-6541141D01*
X18399386Y-6538739D01*
X18422835Y-6531626D01*
X18444446Y-6520075D01*
X18463388Y-6504529D01*
X18478934Y-6485587D01*
X18490485Y-6463976D01*
X18497598Y-6440527D01*
X18500000Y-6416141D01*
X18500000Y-6320000D01*
X22500000Y-6320000D01*
X22500000Y-7920000D01*
X18500000Y-7920000D01*
X18500000Y-7823859D01*
X18497598Y-7799473D01*
X18490485Y-7776024D01*
X18478934Y-7754413D01*
X18463388Y-7735471D01*
X18444446Y-7719925D01*
X18422835Y-7708374D01*
X18399386Y-7701261D01*
X18375000Y-7698859D01*
X18350614Y-7701261D01*
X18327165Y-7708374D01*
X18305554Y-7719925D01*
X18286612Y-7735471D01*
X18241847Y-7780236D01*
X18102627Y-7873260D01*
X17947934Y-7937336D01*
X17783719Y-7970000D01*
X17616281Y-7970000D01*
X17452066Y-7937336D01*
X17297373Y-7873260D01*
X17158153Y-7780236D01*
X17113388Y-7735471D01*
X17094446Y-7719925D01*
X17072835Y-7708374D01*
X17049386Y-7701261D01*
X17025000Y-7698859D01*
X17000614Y-7701261D01*
X16977165Y-7708374D01*
X16955554Y-7719925D01*
X16936612Y-7735471D01*
X16921066Y-7754413D01*
X16909515Y-7776024D01*
X16902402Y-7799473D01*
X16900000Y-7823859D01*
X16900000Y-7920000D01*
X12900000Y-7920000D01*
X12900000Y-6320000D01*
X16900000Y-6320000D01*
X16900000Y-6416141D01*
X16902402Y-6440527D01*
X16909515Y-6463976D01*
X16921066Y-6485587D01*
X16936612Y-6504529D01*
X16955554Y-6520075D01*
X16977165Y-6531626D01*
X17000614Y-6538739D01*
X17025000Y-6541141D01*
X17049386Y-6538739D01*
X17072835Y-6531626D01*
X17094446Y-6520075D01*
X17113388Y-6504529D01*
X17158153Y-6459764D01*
X17297373Y-6366740D01*
X17452066Y-6302664D01*
X17616281Y-6270000D01*
X17783719Y-6270000D01*
X17947934Y-6302664D01*
X17947934Y-6302664D01*
G37*
G36*
X4200000Y-7920000D02*
X200000Y-7920000D01*
X200000Y-6320000D01*
X4200000Y-6320000D01*
X4200000Y-7920000D01*
X4200000Y-7920000D01*
G37*
G36*
X27850000Y-6515000D02*
X24350000Y-6515000D01*
X24350000Y-4715000D01*
X27850000Y-4715000D01*
X27850000Y-6515000D01*
X27850000Y-6515000D01*
G37*
G36*
X17947934Y-3762664D02*
X18102627Y-3826740D01*
X18241847Y-3919764D01*
X18286612Y-3964529D01*
X18305554Y-3980075D01*
X18327165Y-3991626D01*
X18350614Y-3998739D01*
X18375000Y-4001141D01*
X18399386Y-3998739D01*
X18422835Y-3991626D01*
X18444446Y-3980075D01*
X18463388Y-3964529D01*
X18478934Y-3945587D01*
X18490485Y-3923976D01*
X18497598Y-3900527D01*
X18500000Y-3876141D01*
X18500000Y-3780000D01*
X22500000Y-3780000D01*
X22500000Y-5380000D01*
X18500000Y-5380000D01*
X18500000Y-5283859D01*
X18497598Y-5259473D01*
X18490485Y-5236024D01*
X18478934Y-5214413D01*
X18463388Y-5195471D01*
X18444446Y-5179925D01*
X18422835Y-5168374D01*
X18399386Y-5161261D01*
X18375000Y-5158859D01*
X18350614Y-5161261D01*
X18327165Y-5168374D01*
X18305554Y-5179925D01*
X18286612Y-5195471D01*
X18241847Y-5240236D01*
X18102627Y-5333260D01*
X17947934Y-5397336D01*
X17783719Y-5430000D01*
X17616281Y-5430000D01*
X17452066Y-5397336D01*
X17297373Y-5333260D01*
X17158153Y-5240236D01*
X17113388Y-5195471D01*
X17094446Y-5179925D01*
X17072835Y-5168374D01*
X17049386Y-5161261D01*
X17025000Y-5158859D01*
X17000614Y-5161261D01*
X16977165Y-5168374D01*
X16955554Y-5179925D01*
X16936612Y-5195471D01*
X16921066Y-5214413D01*
X16909515Y-5236024D01*
X16902402Y-5259473D01*
X16900000Y-5283859D01*
X16900000Y-5380000D01*
X12900000Y-5380000D01*
X12900000Y-3780000D01*
X16900000Y-3780000D01*
X16900000Y-3876141D01*
X16902402Y-3900527D01*
X16909515Y-3923976D01*
X16921066Y-3945587D01*
X16936612Y-3964529D01*
X16955554Y-3980075D01*
X16977165Y-3991626D01*
X17000614Y-3998739D01*
X17025000Y-4001141D01*
X17049386Y-3998739D01*
X17072835Y-3991626D01*
X17094446Y-3980075D01*
X17113388Y-3964529D01*
X17158153Y-3919764D01*
X17297373Y-3826740D01*
X17452066Y-3762664D01*
X17616281Y-3730000D01*
X17783719Y-3730000D01*
X17947934Y-3762664D01*
X17947934Y-3762664D01*
G37*
G36*
X4200000Y-5380000D02*
X200000Y-5380000D01*
X200000Y-3780000D01*
X4200000Y-3780000D01*
X4200000Y-5380000D01*
X4200000Y-5380000D01*
G37*
G36*
X27850000Y-3745000D02*
X24350000Y-3745000D01*
X24350000Y-1945000D01*
X27850000Y-1945000D01*
X27850000Y-3745000D01*
X27850000Y-3745000D01*
G37*
G36*
X17947934Y-1222664D02*
X18102627Y-1286740D01*
X18241847Y-1379764D01*
X18286612Y-1424529D01*
X18305554Y-1440075D01*
X18327165Y-1451626D01*
X18350614Y-1458739D01*
X18375000Y-1461141D01*
X18399386Y-1458739D01*
X18422835Y-1451626D01*
X18444446Y-1440075D01*
X18463388Y-1424529D01*
X18478934Y-1405587D01*
X18490485Y-1383976D01*
X18497598Y-1360527D01*
X18500000Y-1336141D01*
X18500000Y-1240000D01*
X22500000Y-1240000D01*
X22500000Y-2840000D01*
X18500000Y-2840000D01*
X18500000Y-2743859D01*
X18497598Y-2719473D01*
X18490485Y-2696024D01*
X18478934Y-2674413D01*
X18463388Y-2655471D01*
X18444446Y-2639925D01*
X18422835Y-2628374D01*
X18399386Y-2621261D01*
X18375000Y-2618859D01*
X18350614Y-2621261D01*
X18327165Y-2628374D01*
X18305554Y-2639925D01*
X18286612Y-2655471D01*
X18241847Y-2700236D01*
X18102627Y-2793260D01*
X17947934Y-2857336D01*
X17783719Y-2890000D01*
X17616281Y-2890000D01*
X17452066Y-2857336D01*
X17297373Y-2793260D01*
X17158153Y-2700236D01*
X17113388Y-2655471D01*
X17094446Y-2639925D01*
X17072835Y-2628374D01*
X17049386Y-2621261D01*
X17025000Y-2618859D01*
X17000614Y-2621261D01*
X16977165Y-2628374D01*
X16955554Y-2639925D01*
X16936612Y-2655471D01*
X16921066Y-2674413D01*
X16909515Y-2696024D01*
X16902402Y-2719473D01*
X16900000Y-2743859D01*
X16900000Y-2840000D01*
X12900000Y-2840000D01*
X12900000Y-1240000D01*
X16900000Y-1240000D01*
X16900000Y-1336141D01*
X16902402Y-1360527D01*
X16909515Y-1383976D01*
X16921066Y-1405587D01*
X16936612Y-1424529D01*
X16955554Y-1440075D01*
X16977165Y-1451626D01*
X17000614Y-1458739D01*
X17025000Y-1461141D01*
X17049386Y-1458739D01*
X17072835Y-1451626D01*
X17094446Y-1440075D01*
X17113388Y-1424529D01*
X17158153Y-1379764D01*
X17297373Y-1286740D01*
X17452066Y-1222664D01*
X17616281Y-1190000D01*
X17783719Y-1190000D01*
X17947934Y-1222664D01*
X17947934Y-1222664D01*
G37*
G36*
X4200000Y-2840000D02*
X200000Y-2840000D01*
X200000Y-1240000D01*
X4200000Y-1240000D01*
X4200000Y-2840000D01*
X4200000Y-2840000D01*
G37*
M02*
