G04 #@! TF.GenerationSoftware,KiCad,Pcbnew,5.0.2-bee76a0~70~ubuntu16.04.1*
G04 #@! TF.CreationDate,2019-12-01T17:21:16-08:00*
G04 #@! TF.ProjectId,db9,6462392e-6b69-4636-9164-5f7063625858,1.0*
G04 #@! TF.SameCoordinates,PX8847b20PY3a2c940*
G04 #@! TF.FileFunction,Legend,Top*
G04 #@! TF.FilePolarity,Positive*
%FSLAX46Y46*%
G04 Gerber Fmt 4.6, Leading zero omitted, Abs format (unit mm)*
G04 Created by KiCad (PCBNEW 5.0.2-bee76a0~70~ubuntu16.04.1) date Sun 01 Dec 2019 05:21:16 PM PST*
%MOMM*%
%LPD*%
G01*
G04 APERTURE LIST*
%ADD10C,0.120000*%
%ADD11C,0.100000*%
%ADD12C,0.150000*%
G04 APERTURE END LIST*
D10*
G04 #@! TO.C,Q1*
X10360000Y-8280000D02*
X8900000Y-8280000D01*
X10360000Y-5120000D02*
X8200000Y-5120000D01*
X10360000Y-5120000D02*
X10360000Y-6050000D01*
X10360000Y-8280000D02*
X10360000Y-7350000D01*
G04 #@! TO.C,Q2*
X10360000Y-11880000D02*
X10360000Y-10950000D01*
X10360000Y-8720000D02*
X10360000Y-9650000D01*
X10360000Y-8720000D02*
X8200000Y-8720000D01*
X10360000Y-11880000D02*
X8900000Y-11880000D01*
D11*
G04 #@! TO.C,R1*
X5838000Y-8224000D02*
X5838000Y-7208000D01*
X7362000Y-8224000D02*
X5838000Y-8224000D01*
X7362000Y-7208000D02*
X7362000Y-8224000D01*
X7362000Y-5176000D02*
X7362000Y-6192000D01*
X5838000Y-5176000D02*
X7362000Y-5176000D01*
X5838000Y-6192000D02*
X5838000Y-5176000D01*
G04 #@! TO.C,R2*
X5838000Y-9739500D02*
X5838000Y-8723500D01*
X5838000Y-8723500D02*
X7362000Y-8723500D01*
X7362000Y-8723500D02*
X7362000Y-9739500D01*
X7362000Y-10755500D02*
X7362000Y-11771500D01*
X7362000Y-11771500D02*
X5838000Y-11771500D01*
X5838000Y-11771500D02*
X5838000Y-10755500D01*
G04 #@! TO.C,J4*
X11433333Y-12661904D02*
X11433333Y-13233333D01*
X11395238Y-13347619D01*
X11319047Y-13423809D01*
X11204761Y-13461904D01*
X11128571Y-13461904D01*
X12157142Y-12928571D02*
X12157142Y-13461904D01*
X11966666Y-12623809D02*
X11776190Y-13195238D01*
X12271428Y-13195238D01*
G04 #@! TO.C,J1*
X5133333Y-561904D02*
X5133333Y-1133333D01*
X5095238Y-1247619D01*
X5019047Y-1323809D01*
X4904761Y-1361904D01*
X4828571Y-1361904D01*
X5933333Y-1361904D02*
X5476190Y-1361904D01*
X5704761Y-1361904D02*
X5704761Y-561904D01*
X5628571Y-676190D01*
X5552380Y-752380D01*
X5476190Y-790476D01*
G04 #@! TO.C,J2*
X22833333Y-12861904D02*
X22833333Y-13433333D01*
X22795238Y-13547619D01*
X22719047Y-13623809D01*
X22604761Y-13661904D01*
X22528571Y-13661904D01*
X23176190Y-12938095D02*
X23214285Y-12900000D01*
X23290476Y-12861904D01*
X23480952Y-12861904D01*
X23557142Y-12900000D01*
X23595238Y-12938095D01*
X23633333Y-13014285D01*
X23633333Y-13090476D01*
X23595238Y-13204761D01*
X23138095Y-13661904D01*
X23633333Y-13661904D01*
G04 #@! TO.C,J3*
X23233333Y-361904D02*
X23233333Y-933333D01*
X23195238Y-1047619D01*
X23119047Y-1123809D01*
X23004761Y-1161904D01*
X22928571Y-1161904D01*
X23538095Y-361904D02*
X24033333Y-361904D01*
X23766666Y-666666D01*
X23880952Y-666666D01*
X23957142Y-704761D01*
X23995238Y-742857D01*
X24033333Y-819047D01*
X24033333Y-1009523D01*
X23995238Y-1085714D01*
X23957142Y-1123809D01*
X23880952Y-1161904D01*
X23652380Y-1161904D01*
X23576190Y-1123809D01*
X23538095Y-1085714D01*
G04 #@! TO.C,Q1*
D12*
X11404761Y-5847619D02*
X11309523Y-5800000D01*
X11214285Y-5704761D01*
X11071428Y-5561904D01*
X10976190Y-5514285D01*
X10880952Y-5514285D01*
X10928571Y-5752380D02*
X10833333Y-5704761D01*
X10738095Y-5609523D01*
X10690476Y-5419047D01*
X10690476Y-5085714D01*
X10738095Y-4895238D01*
X10833333Y-4800000D01*
X10928571Y-4752380D01*
X11119047Y-4752380D01*
X11214285Y-4800000D01*
X11309523Y-4895238D01*
X11357142Y-5085714D01*
X11357142Y-5419047D01*
X11309523Y-5609523D01*
X11214285Y-5704761D01*
X11119047Y-5752380D01*
X10928571Y-5752380D01*
X12309523Y-5752380D02*
X11738095Y-5752380D01*
X12023809Y-5752380D02*
X12023809Y-4752380D01*
X11928571Y-4895238D01*
X11833333Y-4990476D01*
X11738095Y-5038095D01*
G04 #@! TO.C,Q2*
X11404761Y-9447619D02*
X11309523Y-9400000D01*
X11214285Y-9304761D01*
X11071428Y-9161904D01*
X10976190Y-9114285D01*
X10880952Y-9114285D01*
X10928571Y-9352380D02*
X10833333Y-9304761D01*
X10738095Y-9209523D01*
X10690476Y-9019047D01*
X10690476Y-8685714D01*
X10738095Y-8495238D01*
X10833333Y-8400000D01*
X10928571Y-8352380D01*
X11119047Y-8352380D01*
X11214285Y-8400000D01*
X11309523Y-8495238D01*
X11357142Y-8685714D01*
X11357142Y-9019047D01*
X11309523Y-9209523D01*
X11214285Y-9304761D01*
X11119047Y-9352380D01*
X10928571Y-9352380D01*
X11738095Y-8447619D02*
X11785714Y-8400000D01*
X11880952Y-8352380D01*
X12119047Y-8352380D01*
X12214285Y-8400000D01*
X12261904Y-8447619D01*
X12309523Y-8542857D01*
X12309523Y-8638095D01*
X12261904Y-8780952D01*
X11690476Y-9352380D01*
X12309523Y-9352380D01*
G04 #@! TO.C,R1*
D11*
X4866666Y-6461904D02*
X4600000Y-6080952D01*
X4409523Y-6461904D02*
X4409523Y-5661904D01*
X4714285Y-5661904D01*
X4790476Y-5700000D01*
X4828571Y-5738095D01*
X4866666Y-5814285D01*
X4866666Y-5928571D01*
X4828571Y-6004761D01*
X4790476Y-6042857D01*
X4714285Y-6080952D01*
X4409523Y-6080952D01*
X5628571Y-6461904D02*
X5171428Y-6461904D01*
X5400000Y-6461904D02*
X5400000Y-5661904D01*
X5323809Y-5776190D01*
X5247619Y-5852380D01*
X5171428Y-5890476D01*
G04 #@! TO.C,R2*
X6366666Y-13461904D02*
X6100000Y-13080952D01*
X5909523Y-13461904D02*
X5909523Y-12661904D01*
X6214285Y-12661904D01*
X6290476Y-12700000D01*
X6328571Y-12738095D01*
X6366666Y-12814285D01*
X6366666Y-12928571D01*
X6328571Y-13004761D01*
X6290476Y-13042857D01*
X6214285Y-13080952D01*
X5909523Y-13080952D01*
X6671428Y-12738095D02*
X6709523Y-12700000D01*
X6785714Y-12661904D01*
X6976190Y-12661904D01*
X7052380Y-12700000D01*
X7090476Y-12738095D01*
X7128571Y-12814285D01*
X7128571Y-12890476D01*
X7090476Y-13004761D01*
X6633333Y-13461904D01*
X7128571Y-13461904D01*
G04 #@! TD*
M02*
