G04 #@! TF.GenerationSoftware,KiCad,Pcbnew,5.0.2-bee76a0~70~ubuntu16.04.1*
G04 #@! TF.CreationDate,2019-12-01T17:21:16-08:00*
G04 #@! TF.ProjectId,db9,6462392e-6b69-4636-9164-5f7063625858,1.0*
G04 #@! TF.SameCoordinates,PX8847b20PY3a2c940*
G04 #@! TF.FileFunction,Copper,L1,Top*
G04 #@! TF.FilePolarity,Positive*
%FSLAX46Y46*%
G04 Gerber Fmt 4.6, Leading zero omitted, Abs format (unit mm)*
G04 Created by KiCad (PCBNEW 5.0.2-bee76a0~70~ubuntu16.04.1) date Sun 01 Dec 2019 05:21:16 PM PST*
%MOMM*%
%LPD*%
G01*
G04 APERTURE LIST*
G04 #@! TA.AperFunction,SMDPad,CuDef*
%ADD10R,4.000000X1.600000*%
G04 #@! TD*
G04 #@! TA.AperFunction,SMDPad,CuDef*
%ADD11R,3.500000X1.800000*%
G04 #@! TD*
G04 #@! TA.AperFunction,SMDPad,CuDef*
%ADD12R,0.900000X0.800000*%
G04 #@! TD*
G04 #@! TA.AperFunction,SMDPad,CuDef*
%ADD13R,1.397000X0.889000*%
G04 #@! TD*
G04 #@! TA.AperFunction,ViaPad*
%ADD14C,0.800000*%
G04 #@! TD*
G04 #@! TA.AperFunction,Conductor*
%ADD15C,0.400000*%
G04 #@! TD*
G04 #@! TA.AperFunction,Conductor*
%ADD16C,0.700000*%
G04 #@! TD*
G04 APERTURE END LIST*
D10*
G04 #@! TO.P,J4,1*
G04 #@! TO.N,Net-(J1-Pad1)*
X14900000Y-12200000D03*
G04 #@! TO.P,J4,2*
G04 #@! TO.N,Net-(J2-Pad2)*
X14900000Y-9660000D03*
G04 #@! TO.P,J4,3*
G04 #@! TO.N,Net-(J2-Pad3)*
X14900000Y-7120000D03*
G04 #@! TO.P,J4,4*
G04 #@! TO.N,Net-(J1-Pad4)*
X14900000Y-4580000D03*
G04 #@! TO.P,J4,5*
G04 #@! TO.N,GNDS*
X14900000Y-2040000D03*
G04 #@! TD*
G04 #@! TO.P,J1,5*
G04 #@! TO.N,GNDS*
X2200000Y-2040000D03*
G04 #@! TO.P,J1,4*
G04 #@! TO.N,Net-(J1-Pad4)*
X2200000Y-4580000D03*
G04 #@! TO.P,J1,3*
G04 #@! TO.N,Net-(J1-Pad3)*
X2200000Y-7120000D03*
G04 #@! TO.P,J1,2*
G04 #@! TO.N,Net-(J1-Pad2)*
X2200000Y-9660000D03*
G04 #@! TO.P,J1,1*
G04 #@! TO.N,Net-(J1-Pad1)*
X2200000Y-12200000D03*
G04 #@! TD*
G04 #@! TO.P,J2,1*
G04 #@! TO.N,Net-(J1-Pad1)*
X20500000Y-12200000D03*
G04 #@! TO.P,J2,2*
G04 #@! TO.N,Net-(J2-Pad2)*
X20500000Y-9660000D03*
G04 #@! TO.P,J2,3*
G04 #@! TO.N,Net-(J2-Pad3)*
X20500000Y-7120000D03*
G04 #@! TO.P,J2,4*
G04 #@! TO.N,Net-(J1-Pad4)*
X20500000Y-4580000D03*
G04 #@! TO.P,J2,5*
G04 #@! TO.N,GNDS*
X20500000Y-2040000D03*
G04 #@! TD*
D11*
G04 #@! TO.P,J3,1*
G04 #@! TO.N,Net-(J1-Pad1)*
X26100000Y-12540000D03*
G04 #@! TO.P,J3,2*
G04 #@! TO.N,Net-(J2-Pad2)*
X26100000Y-9770000D03*
G04 #@! TO.P,J3,3*
G04 #@! TO.N,Net-(J2-Pad3)*
X26100000Y-7000000D03*
G04 #@! TO.P,J3,4*
G04 #@! TO.N,Net-(J1-Pad4)*
X26100000Y-4230000D03*
G04 #@! TO.P,J3,5*
G04 #@! TO.N,GNDS*
X26100000Y-1460000D03*
G04 #@! TD*
D12*
G04 #@! TO.P,Q1,3*
G04 #@! TO.N,Net-(J2-Pad3)*
X10600000Y-6700000D03*
G04 #@! TO.P,Q1,2*
G04 #@! TO.N,Net-(J1-Pad3)*
X8600000Y-7650000D03*
G04 #@! TO.P,Q1,1*
G04 #@! TO.N,VCC*
X8600000Y-5750000D03*
G04 #@! TD*
G04 #@! TO.P,Q2,1*
G04 #@! TO.N,VCC*
X8600000Y-9350000D03*
G04 #@! TO.P,Q2,2*
G04 #@! TO.N,Net-(J1-Pad2)*
X8600000Y-11250000D03*
G04 #@! TO.P,Q2,3*
G04 #@! TO.N,Net-(J2-Pad2)*
X10600000Y-10300000D03*
G04 #@! TD*
D13*
G04 #@! TO.P,R1,2*
G04 #@! TO.N,Net-(J1-Pad3)*
X6600000Y-7652500D03*
G04 #@! TO.P,R1,1*
G04 #@! TO.N,VCC*
X6600000Y-5747500D03*
G04 #@! TD*
G04 #@! TO.P,R2,1*
G04 #@! TO.N,VCC*
X6600000Y-9295000D03*
G04 #@! TO.P,R2,2*
G04 #@! TO.N,Net-(J1-Pad2)*
X6600000Y-11200000D03*
G04 #@! TD*
D14*
G04 #@! TO.N,VCC*
X9700000Y-5500000D03*
G04 #@! TO.N,Net-(J1-Pad9)*
X10300000Y-3200000D03*
X6900000Y-3200000D03*
G04 #@! TD*
D15*
G04 #@! TO.N,VCC*
X8600000Y-5750000D02*
X8650000Y-5750000D01*
X9600000Y-6700000D02*
X9600000Y-8300000D01*
X9600000Y-8300000D02*
X9600000Y-8500000D01*
X9600000Y-8500000D02*
X9600000Y-8600000D01*
X9600000Y-8600000D02*
X8800000Y-9400000D01*
X8800000Y-9400000D02*
X8600000Y-9400000D01*
X6600000Y-9295000D02*
X8595000Y-9295000D01*
X8595000Y-9295000D02*
X8600000Y-9300000D01*
X8600000Y-5750000D02*
X6750000Y-5750000D01*
X6750000Y-5750000D02*
X6700000Y-5800000D01*
X9600000Y-5600000D02*
X9700000Y-5500000D01*
X9600000Y-6700000D02*
X9600000Y-5600000D01*
X8600000Y-5750000D02*
X9450000Y-5750000D01*
X9450000Y-5750000D02*
X9700000Y-5500000D01*
G04 #@! TO.N,Net-(J1-Pad9)*
X10300000Y-3200000D02*
X6900000Y-3200000D01*
G04 #@! TO.N,GNDS*
X19550002Y-2040000D02*
X18290002Y-3300000D01*
X20500000Y-2040000D02*
X19550002Y-2040000D01*
X18290002Y-3300000D02*
X17800000Y-3300000D01*
X17800000Y-3300000D02*
X16600000Y-3300000D01*
D16*
X25520000Y-2040000D02*
X26100000Y-1460000D01*
X20500000Y-2040000D02*
X25520000Y-2040000D01*
D15*
X16600000Y-3300000D02*
X16100000Y-3300000D01*
X16100000Y-3300000D02*
X14900000Y-2100000D01*
D16*
X2200000Y-2040000D02*
X14860000Y-2040000D01*
X14860000Y-2040000D02*
X14900000Y-2000000D01*
D15*
G04 #@! TO.N,Net-(J1-Pad4)*
X18300001Y-5830001D02*
X16630001Y-5830001D01*
X19550002Y-4580000D02*
X18300001Y-5830001D01*
X20500000Y-4580000D02*
X19550002Y-4580000D01*
D16*
X20850000Y-4230000D02*
X20500000Y-4580000D01*
X26100000Y-4230000D02*
X20850000Y-4230000D01*
D15*
X16630001Y-5830001D02*
X16130001Y-5830001D01*
X16130001Y-5830001D02*
X14900000Y-4600000D01*
X14780000Y-4580000D02*
X14800000Y-4600000D01*
X14900000Y-4580000D02*
X12880000Y-4580000D01*
X12880000Y-4580000D02*
X12600000Y-4300000D01*
X12600000Y-4300000D02*
X7400000Y-4300000D01*
X2200000Y-4580000D02*
X4220000Y-4580000D01*
X4220000Y-4580000D02*
X4500000Y-4300000D01*
X4500000Y-4300000D02*
X7400000Y-4300000D01*
G04 #@! TO.N,Net-(J1-Pad3)*
X8600000Y-7650000D02*
X6650000Y-7650000D01*
X6650000Y-7650000D02*
X6700000Y-7600000D01*
X5501500Y-7652500D02*
X4949000Y-7100000D01*
X6600000Y-7652500D02*
X5501500Y-7652500D01*
X4949000Y-7100000D02*
X2400000Y-7100000D01*
G04 #@! TO.N,Net-(J1-Pad2)*
X6600000Y-11200000D02*
X7698500Y-11200000D01*
X7698500Y-11200000D02*
X8600000Y-11200000D01*
X5501500Y-11200000D02*
X4001500Y-9700000D01*
X6600000Y-11200000D02*
X5501500Y-11200000D01*
X4001500Y-9700000D02*
X2200000Y-9700000D01*
G04 #@! TO.N,Net-(J1-Pad1)*
X18300001Y-13450001D02*
X16650001Y-13450001D01*
X19550002Y-12200000D02*
X18300001Y-13450001D01*
X20500000Y-12200000D02*
X19550002Y-12200000D01*
D16*
X25760000Y-12200000D02*
X26100000Y-12540000D01*
X20500000Y-12200000D02*
X25760000Y-12200000D01*
D15*
X16650001Y-13450001D02*
X16050001Y-13450001D01*
X16050001Y-13450001D02*
X14900000Y-12300000D01*
X2200000Y-12200000D02*
X14900000Y-12200000D01*
G04 #@! TO.N,Net-(J2-Pad2)*
X18300001Y-10910001D02*
X16610001Y-10910001D01*
X19550002Y-9660000D02*
X18300001Y-10910001D01*
X20500000Y-9660000D02*
X19550002Y-9660000D01*
D16*
X25990000Y-9660000D02*
X26100000Y-9770000D01*
X20500000Y-9660000D02*
X25990000Y-9660000D01*
D15*
X16610001Y-10910001D02*
X16110001Y-10910001D01*
X16110001Y-10910001D02*
X14900000Y-9700000D01*
X11450000Y-10300000D02*
X12050000Y-9700000D01*
X10600000Y-10300000D02*
X11450000Y-10300000D01*
X12050000Y-9700000D02*
X14900000Y-9700000D01*
G04 #@! TO.N,Net-(J2-Pad3)*
X19550002Y-7120000D02*
X18270002Y-8400000D01*
X20500000Y-7120000D02*
X19550002Y-7120000D01*
X18270002Y-8400000D02*
X16600000Y-8400000D01*
D16*
X25980000Y-7120000D02*
X26100000Y-7000000D01*
X20500000Y-7120000D02*
X25980000Y-7120000D01*
D15*
X16600000Y-8400000D02*
X16200000Y-8400000D01*
X16200000Y-8400000D02*
X14900000Y-7100000D01*
X11450000Y-6700000D02*
X11850000Y-7100000D01*
X10600000Y-6700000D02*
X11450000Y-6700000D01*
X11850000Y-7100000D02*
X14800000Y-7100000D01*
G04 #@! TD*
M02*
