G04 #@! TF.GenerationSoftware,KiCad,Pcbnew,5.0.2-bee76a0~70~ubuntu16.04.1*
G04 #@! TF.CreationDate,2019-08-25T20:37:00-07:00*
G04 #@! TF.ProjectId,endcap,656e6463-6170-42e6-9b69-6361645f7063,rev?*
G04 #@! TF.SameCoordinates,PX2faf080PY2faf080*
G04 #@! TF.FileFunction,Legend,Top*
G04 #@! TF.FilePolarity,Positive*
%FSLAX46Y46*%
G04 Gerber Fmt 4.6, Leading zero omitted, Abs format (unit mm)*
G04 Created by KiCad (PCBNEW 5.0.2-bee76a0~70~ubuntu16.04.1) date Sun 25 Aug 2019 08:37:00 PM PDT*
%MOMM*%
%LPD*%
G01*
G04 APERTURE LIST*
%ADD10C,0.300000*%
%ADD11C,0.500000*%
G04 APERTURE END LIST*
D10*
X31883333Y-5442857D02*
X31883333Y-6633333D01*
X31169047Y-5204761D02*
X33669047Y-6038095D01*
X31169047Y-6871428D01*
X31169047Y-7704761D02*
X33669047Y-7704761D01*
X31169047Y-9133333D01*
X33669047Y-9133333D01*
X33669047Y-9966666D02*
X33669047Y-11395238D01*
X31169047Y-10680952D02*
X33669047Y-10680952D01*
X63169047Y-6711904D02*
X64359523Y-5878571D01*
X63169047Y-5283333D02*
X65669047Y-5283333D01*
X65669047Y-6235714D01*
X65550000Y-6473809D01*
X65430952Y-6592857D01*
X65192857Y-6711904D01*
X64835714Y-6711904D01*
X64597619Y-6592857D01*
X64478571Y-6473809D01*
X64359523Y-6235714D01*
X64359523Y-5283333D01*
X64478571Y-8616666D02*
X64478571Y-7783333D01*
X63169047Y-7783333D02*
X65669047Y-7783333D01*
X65669047Y-8973809D01*
X63169047Y-11235714D02*
X63169047Y-9807142D01*
X63169047Y-10521428D02*
X65669047Y-10521428D01*
X65311904Y-10283333D01*
X65073809Y-10045238D01*
X64954761Y-9807142D01*
X99178571Y-9219047D02*
X99178571Y-10052380D01*
X97869047Y-10409523D02*
X97869047Y-9219047D01*
X100369047Y-9219047D01*
X100369047Y-10409523D01*
X100369047Y-11242857D02*
X97869047Y-12909523D01*
X100369047Y-12909523D02*
X97869047Y-11242857D01*
X100369047Y-13504761D02*
X100369047Y-14933333D01*
X97869047Y-14219047D02*
X100369047Y-14219047D01*
X100369047Y-15409523D02*
X100369047Y-16838095D01*
X97869047Y-16123809D02*
X100369047Y-16123809D01*
X97869047Y-19100000D02*
X99059523Y-18266666D01*
X97869047Y-17671428D02*
X100369047Y-17671428D01*
X100369047Y-18623809D01*
X100250000Y-18861904D01*
X100130952Y-18980952D01*
X99892857Y-19100000D01*
X99535714Y-19100000D01*
X99297619Y-18980952D01*
X99178571Y-18861904D01*
X99059523Y-18623809D01*
X99059523Y-17671428D01*
D11*
X19038095Y-4700000D02*
X24038095Y-4700000D01*
X21657142Y-4700000D02*
X21657142Y-7557142D01*
X19038095Y-7557142D02*
X24038095Y-7557142D01*
X19276190Y-11842857D02*
X19038095Y-11366666D01*
X19038095Y-10414285D01*
X19276190Y-9938095D01*
X19752380Y-9700000D01*
X21657142Y-9700000D01*
X22133333Y-9938095D01*
X22371428Y-10414285D01*
X22371428Y-11366666D01*
X22133333Y-11842857D01*
X21657142Y-12080952D01*
X21180952Y-12080952D01*
X20704761Y-9700000D01*
X19038095Y-14223809D02*
X22371428Y-14223809D01*
X21419047Y-14223809D02*
X21895238Y-14461904D01*
X22133333Y-14700000D01*
X22371428Y-15176190D01*
X22371428Y-15652380D01*
X19038095Y-17319047D02*
X22371428Y-17319047D01*
X21895238Y-17319047D02*
X22133333Y-17557142D01*
X22371428Y-18033333D01*
X22371428Y-18747619D01*
X22133333Y-19223809D01*
X21657142Y-19461904D01*
X19038095Y-19461904D01*
X21657142Y-19461904D02*
X22133333Y-19700000D01*
X22371428Y-20176190D01*
X22371428Y-20890476D01*
X22133333Y-21366666D01*
X21657142Y-21604761D01*
X19038095Y-21604761D01*
X19276190Y-25890476D02*
X19038095Y-25414285D01*
X19038095Y-24461904D01*
X19276190Y-23985714D01*
X19752380Y-23747619D01*
X21657142Y-23747619D01*
X22133333Y-23985714D01*
X22371428Y-24461904D01*
X22371428Y-25414285D01*
X22133333Y-25890476D01*
X21657142Y-26128571D01*
X21180952Y-26128571D01*
X20704761Y-23747619D01*
X19276190Y-28033333D02*
X19038095Y-28509523D01*
X19038095Y-29461904D01*
X19276190Y-29938095D01*
X19752380Y-30176190D01*
X19990476Y-30176190D01*
X20466666Y-29938095D01*
X20704761Y-29461904D01*
X20704761Y-28747619D01*
X20942857Y-28271428D01*
X21419047Y-28033333D01*
X21657142Y-28033333D01*
X22133333Y-28271428D01*
X22371428Y-28747619D01*
X22371428Y-29461904D01*
X22133333Y-29938095D01*
X20942857Y-32319047D02*
X20942857Y-36128571D01*
X19038095Y-40890476D02*
X19038095Y-38509523D01*
X24038095Y-38509523D01*
X19038095Y-42557142D02*
X22371428Y-42557142D01*
X24038095Y-42557142D02*
X23800000Y-42319047D01*
X23561904Y-42557142D01*
X23800000Y-42795238D01*
X24038095Y-42557142D01*
X23561904Y-42557142D01*
X22371428Y-44223809D02*
X22371428Y-46128571D01*
X24038095Y-44938095D02*
X19752380Y-44938095D01*
X19276190Y-45176190D01*
X19038095Y-45652380D01*
X19038095Y-46128571D01*
X19276190Y-49700000D02*
X19038095Y-49223809D01*
X19038095Y-48271428D01*
X19276190Y-47795238D01*
X19752380Y-47557142D01*
X21657142Y-47557142D01*
X22133333Y-47795238D01*
X22371428Y-48271428D01*
X22371428Y-49223809D01*
X22133333Y-49700000D01*
X21657142Y-49938095D01*
X21180952Y-49938095D01*
X20704761Y-47557142D01*
M02*
