G04 #@! TF.GenerationSoftware,KiCad,Pcbnew,5.0.2-bee76a0~70~ubuntu16.04.1*
G04 #@! TF.CreationDate,2019-08-25T20:37:00-07:00*
G04 #@! TF.ProjectId,endcap,656e6463-6170-42e6-9b69-6361645f7063,rev?*
G04 #@! TF.SameCoordinates,PX2faf080PY2faf080*
G04 #@! TF.FileFunction,Copper,L2,Bot*
G04 #@! TF.FilePolarity,Positive*
%FSLAX46Y46*%
G04 Gerber Fmt 4.6, Leading zero omitted, Abs format (unit mm)*
G04 Created by KiCad (PCBNEW 5.0.2-bee76a0~70~ubuntu16.04.1) date Sun 25 Aug 2019 08:37:00 PM PDT*
%MOMM*%
%LPD*%
G01*
G04 APERTURE LIST*
G04 #@! TA.AperFunction,ComponentPad*
%ADD10C,4.900000*%
G04 #@! TD*
G04 #@! TA.AperFunction,SMDPad,CuDef*
%ADD11R,1.397000X0.889000*%
G04 #@! TD*
G04 #@! TA.AperFunction,SMDPad,CuDef*
%ADD12R,1.050000X0.900000*%
G04 #@! TD*
G04 #@! TA.AperFunction,SMDPad,CuDef*
%ADD13R,0.800000X0.900000*%
G04 #@! TD*
G04 #@! TA.AperFunction,SMDPad,CuDef*
%ADD14R,0.900000X1.050000*%
G04 #@! TD*
G04 #@! TA.AperFunction,SMDPad,CuDef*
%ADD15R,0.900000X0.800000*%
G04 #@! TD*
G04 #@! TA.AperFunction,BGAPad,CuDef*
%ADD16C,4.000000*%
G04 #@! TD*
G04 #@! TA.AperFunction,Conductor*
%ADD17C,0.400000*%
G04 #@! TD*
G04 #@! TA.AperFunction,Conductor*
%ADD18C,0.200000*%
G04 #@! TD*
G04 APERTURE END LIST*
D10*
G04 #@! TO.P,MH1,1*
G04 #@! TO.N,Earth*
X4875000Y-3750000D03*
G04 #@! TD*
G04 #@! TO.P,MH2,1*
G04 #@! TO.N,Earth*
X101125000Y-3750000D03*
G04 #@! TD*
G04 #@! TO.P,MH3,1*
G04 #@! TO.N,Earth*
X101125000Y-51250000D03*
G04 #@! TD*
G04 #@! TO.P,MH4,1*
G04 #@! TO.N,Earth*
X4875000Y-51250000D03*
G04 #@! TD*
D11*
G04 #@! TO.P,R1,2*
G04 #@! TO.N,Net-(Q1-Pad3)*
X20100000Y-26752500D03*
G04 #@! TO.P,R1,1*
G04 #@! TO.N,Net-(Q2-Pad2)*
X20100000Y-24847500D03*
G04 #@! TD*
D12*
G04 #@! TO.P,Q1,2*
G04 #@! TO.N,Earth*
X21875000Y-30700000D03*
D13*
G04 #@! TO.P,Q1,3*
G04 #@! TO.N,Net-(Q1-Pad3)*
X22700000Y-28700000D03*
D12*
G04 #@! TO.P,Q1,1*
G04 #@! TO.N,Net-(Q1-Pad1)*
X23525000Y-30700000D03*
G04 #@! TD*
D14*
G04 #@! TO.P,Q2,2*
G04 #@! TO.N,Net-(Q2-Pad2)*
X22700000Y-24975000D03*
D15*
G04 #@! TO.P,Q2,3*
G04 #@! TO.N,Net-(Q2-Pad3)*
X24700000Y-25800000D03*
D14*
G04 #@! TO.P,Q2,1*
G04 #@! TO.N,Net-(Q1-Pad3)*
X22700000Y-26625000D03*
G04 #@! TD*
D16*
G04 #@! TO.P,TP1,1*
G04 #@! TO.N,Net-(Q2-Pad2)*
X15600000Y-25800000D03*
G04 #@! TD*
G04 #@! TO.P,TP2,1*
G04 #@! TO.N,Net-(Q1-Pad1)*
X22800000Y-34700000D03*
G04 #@! TD*
G04 #@! TO.P,TP3,1*
G04 #@! TO.N,Earth*
X15600000Y-19300000D03*
G04 #@! TD*
G04 #@! TO.P,TP4,1*
G04 #@! TO.N,Net-(Q2-Pad3)*
X29100000Y-25800000D03*
G04 #@! TD*
G04 #@! TO.P,TP5,1*
G04 #@! TO.N,Earth*
X29100000Y-19300000D03*
G04 #@! TD*
D17*
G04 #@! TO.N,Net-(Q1-Pad1)*
X23650000Y-33850000D02*
X22800000Y-34700000D01*
X23650000Y-30700000D02*
X23650000Y-33850000D01*
G04 #@! TO.N,Net-(Q2-Pad2)*
X16552500Y-24847500D02*
X15600000Y-25800000D01*
X20100000Y-24847500D02*
X16552500Y-24847500D01*
X22697500Y-24847500D02*
X22700000Y-24850000D01*
X20100000Y-24847500D02*
X22697500Y-24847500D01*
G04 #@! TO.N,Net-(Q2-Pad3)*
X24700000Y-25800000D02*
X29100000Y-25800000D01*
G04 #@! TO.N,Net-(Q1-Pad3)*
X22697500Y-26752500D02*
X22700000Y-26750000D01*
X20100000Y-26752500D02*
X22697500Y-26752500D01*
X22700000Y-28700000D02*
X22700000Y-26750000D01*
G04 #@! TD*
D18*
G04 #@! TO.N,Earth*
G36*
X104426658Y-540949D02*
X104819014Y-719342D01*
X105145532Y-1000688D01*
X105379961Y-1362368D01*
X105508162Y-1791043D01*
X105525000Y-2017627D01*
X105525001Y-9706433D01*
X104844694Y-10046588D01*
X104814665Y-10052561D01*
X104760903Y-10088483D01*
X104745734Y-10096068D01*
X104722095Y-10114414D01*
X104657545Y-10157545D01*
X104647876Y-10172015D01*
X104634131Y-10182683D01*
X104595690Y-10250118D01*
X104552561Y-10314666D01*
X104549166Y-10331734D01*
X104540549Y-10346850D01*
X104530842Y-10423853D01*
X104525000Y-10453222D01*
X104525000Y-10470196D01*
X104516915Y-10534332D01*
X104525000Y-10563856D01*
X104525001Y-44436141D01*
X104516915Y-44465668D01*
X104525001Y-44529812D01*
X104525001Y-44546779D01*
X104530841Y-44576136D01*
X104540549Y-44653150D01*
X104549167Y-44668269D01*
X104552562Y-44685335D01*
X104595687Y-44749876D01*
X104634131Y-44817317D01*
X104647878Y-44827986D01*
X104657546Y-44842455D01*
X104722089Y-44885581D01*
X104745734Y-44903932D01*
X104760907Y-44911519D01*
X104814666Y-44947439D01*
X104844694Y-44953412D01*
X105525000Y-45293566D01*
X105525001Y-52966151D01*
X105459052Y-53426656D01*
X105280658Y-53819015D01*
X104999312Y-54145532D01*
X104637631Y-54379962D01*
X104208957Y-54508162D01*
X103982374Y-54525000D01*
X2033842Y-54525000D01*
X1573344Y-54459052D01*
X1180985Y-54280658D01*
X854468Y-53999312D01*
X620038Y-53637631D01*
X491838Y-53208957D01*
X475000Y-52982374D01*
X475000Y-47492774D01*
X42850000Y-47492774D01*
X42850000Y-48507226D01*
X43238215Y-49444459D01*
X43955541Y-50161785D01*
X44892774Y-50550000D01*
X45907226Y-50550000D01*
X46844459Y-50161785D01*
X47561785Y-49444459D01*
X47950000Y-48507226D01*
X47950000Y-47641958D01*
X56400000Y-47641958D01*
X56400000Y-48358042D01*
X56674034Y-49019618D01*
X57180382Y-49525966D01*
X57841958Y-49800000D01*
X58558042Y-49800000D01*
X59219618Y-49525966D01*
X59725966Y-49019618D01*
X60000000Y-48358042D01*
X60000000Y-47641958D01*
X62800000Y-47641958D01*
X62800000Y-48358042D01*
X63074034Y-49019618D01*
X63580382Y-49525966D01*
X64241958Y-49800000D01*
X64958042Y-49800000D01*
X65619618Y-49525966D01*
X66125966Y-49019618D01*
X66400000Y-48358042D01*
X66400000Y-47641958D01*
X66338206Y-47492774D01*
X74850000Y-47492774D01*
X74850000Y-48507226D01*
X75238215Y-49444459D01*
X75955541Y-50161785D01*
X76892774Y-50550000D01*
X77907226Y-50550000D01*
X78844459Y-50161785D01*
X79561785Y-49444459D01*
X79950000Y-48507226D01*
X79950000Y-47492774D01*
X79561785Y-46555541D01*
X78844459Y-45838215D01*
X77907226Y-45450000D01*
X76892774Y-45450000D01*
X75955541Y-45838215D01*
X75238215Y-46555541D01*
X74850000Y-47492774D01*
X66338206Y-47492774D01*
X66125966Y-46980382D01*
X65619618Y-46474034D01*
X64958042Y-46200000D01*
X64241958Y-46200000D01*
X63580382Y-46474034D01*
X63074034Y-46980382D01*
X62800000Y-47641958D01*
X60000000Y-47641958D01*
X59725966Y-46980382D01*
X59219618Y-46474034D01*
X58558042Y-46200000D01*
X57841958Y-46200000D01*
X57180382Y-46474034D01*
X56674034Y-46980382D01*
X56400000Y-47641958D01*
X47950000Y-47641958D01*
X47950000Y-47492774D01*
X47561785Y-46555541D01*
X46844459Y-45838215D01*
X45907226Y-45450000D01*
X44892774Y-45450000D01*
X43955541Y-45838215D01*
X43238215Y-46555541D01*
X42850000Y-47492774D01*
X475000Y-47492774D01*
X475000Y-45293566D01*
X1155309Y-44953411D01*
X1185334Y-44947439D01*
X1239088Y-44911522D01*
X1254266Y-44903933D01*
X1277916Y-44885578D01*
X1342455Y-44842455D01*
X1352122Y-44827987D01*
X1365869Y-44817318D01*
X1404311Y-44749880D01*
X1447439Y-44685335D01*
X1450834Y-44668267D01*
X1459451Y-44653151D01*
X1469158Y-44576149D01*
X1475000Y-44546779D01*
X1475000Y-44529804D01*
X1483085Y-44465668D01*
X1476593Y-44441958D01*
X53200000Y-44441958D01*
X53200000Y-45158042D01*
X53474034Y-45819618D01*
X53980382Y-46325966D01*
X54641958Y-46600000D01*
X55358042Y-46600000D01*
X56019618Y-46325966D01*
X56525966Y-45819618D01*
X56800000Y-45158042D01*
X56800000Y-44441958D01*
X59600000Y-44441958D01*
X59600000Y-45158042D01*
X59874034Y-45819618D01*
X60380382Y-46325966D01*
X61041958Y-46600000D01*
X61758042Y-46600000D01*
X62419618Y-46325966D01*
X62925966Y-45819618D01*
X63200000Y-45158042D01*
X63200000Y-44441958D01*
X66000000Y-44441958D01*
X66000000Y-45158042D01*
X66274034Y-45819618D01*
X66780382Y-46325966D01*
X67441958Y-46600000D01*
X68158042Y-46600000D01*
X68819618Y-46325966D01*
X69325966Y-45819618D01*
X69600000Y-45158042D01*
X69600000Y-44441958D01*
X69325966Y-43780382D01*
X68819618Y-43274034D01*
X68158042Y-43000000D01*
X67441958Y-43000000D01*
X66780382Y-43274034D01*
X66274034Y-43780382D01*
X66000000Y-44441958D01*
X63200000Y-44441958D01*
X62925966Y-43780382D01*
X62419618Y-43274034D01*
X61758042Y-43000000D01*
X61041958Y-43000000D01*
X60380382Y-43274034D01*
X59874034Y-43780382D01*
X59600000Y-44441958D01*
X56800000Y-44441958D01*
X56525966Y-43780382D01*
X56019618Y-43274034D01*
X55358042Y-43000000D01*
X54641958Y-43000000D01*
X53980382Y-43274034D01*
X53474034Y-43780382D01*
X53200000Y-44441958D01*
X1476593Y-44441958D01*
X1475000Y-44436144D01*
X1475000Y-41241958D01*
X50000000Y-41241958D01*
X50000000Y-41958042D01*
X50274034Y-42619618D01*
X50780382Y-43125966D01*
X51441958Y-43400000D01*
X52158042Y-43400000D01*
X52819618Y-43125966D01*
X53325966Y-42619618D01*
X53600000Y-41958042D01*
X53600000Y-41241958D01*
X56400000Y-41241958D01*
X56400000Y-41958042D01*
X56674034Y-42619618D01*
X57180382Y-43125966D01*
X57841958Y-43400000D01*
X58558042Y-43400000D01*
X59219618Y-43125966D01*
X59725966Y-42619618D01*
X60000000Y-41958042D01*
X60000000Y-41241958D01*
X62800000Y-41241958D01*
X62800000Y-41958042D01*
X63074034Y-42619618D01*
X63580382Y-43125966D01*
X64241958Y-43400000D01*
X64958042Y-43400000D01*
X65619618Y-43125966D01*
X66125966Y-42619618D01*
X66400000Y-41958042D01*
X66400000Y-41241958D01*
X69200000Y-41241958D01*
X69200000Y-41958042D01*
X69474034Y-42619618D01*
X69980382Y-43125966D01*
X70641958Y-43400000D01*
X71358042Y-43400000D01*
X72019618Y-43125966D01*
X72525966Y-42619618D01*
X72800000Y-41958042D01*
X72800000Y-41241958D01*
X72525966Y-40580382D01*
X72019618Y-40074034D01*
X71358042Y-39800000D01*
X70641958Y-39800000D01*
X69980382Y-40074034D01*
X69474034Y-40580382D01*
X69200000Y-41241958D01*
X66400000Y-41241958D01*
X66125966Y-40580382D01*
X65619618Y-40074034D01*
X64958042Y-39800000D01*
X64241958Y-39800000D01*
X63580382Y-40074034D01*
X63074034Y-40580382D01*
X62800000Y-41241958D01*
X60000000Y-41241958D01*
X59725966Y-40580382D01*
X59219618Y-40074034D01*
X58558042Y-39800000D01*
X57841958Y-39800000D01*
X57180382Y-40074034D01*
X56674034Y-40580382D01*
X56400000Y-41241958D01*
X53600000Y-41241958D01*
X53325966Y-40580382D01*
X52819618Y-40074034D01*
X52158042Y-39800000D01*
X51441958Y-39800000D01*
X50780382Y-40074034D01*
X50274034Y-40580382D01*
X50000000Y-41241958D01*
X1475000Y-41241958D01*
X1475000Y-38041958D01*
X46800000Y-38041958D01*
X46800000Y-38758042D01*
X47074034Y-39419618D01*
X47580382Y-39925966D01*
X48241958Y-40200000D01*
X48958042Y-40200000D01*
X49619618Y-39925966D01*
X50125966Y-39419618D01*
X50400000Y-38758042D01*
X50400000Y-38041958D01*
X53200000Y-38041958D01*
X53200000Y-38758042D01*
X53474034Y-39419618D01*
X53980382Y-39925966D01*
X54641958Y-40200000D01*
X55358042Y-40200000D01*
X56019618Y-39925966D01*
X56525966Y-39419618D01*
X56800000Y-38758042D01*
X56800000Y-38041958D01*
X59600000Y-38041958D01*
X59600000Y-38758042D01*
X59874034Y-39419618D01*
X60380382Y-39925966D01*
X61041958Y-40200000D01*
X61758042Y-40200000D01*
X62419618Y-39925966D01*
X62925966Y-39419618D01*
X63200000Y-38758042D01*
X63200000Y-38041958D01*
X66000000Y-38041958D01*
X66000000Y-38758042D01*
X66274034Y-39419618D01*
X66780382Y-39925966D01*
X67441958Y-40200000D01*
X68158042Y-40200000D01*
X68819618Y-39925966D01*
X69325966Y-39419618D01*
X69600000Y-38758042D01*
X69600000Y-38041958D01*
X72400000Y-38041958D01*
X72400000Y-38758042D01*
X72674034Y-39419618D01*
X73180382Y-39925966D01*
X73841958Y-40200000D01*
X74558042Y-40200000D01*
X75219618Y-39925966D01*
X75725966Y-39419618D01*
X76000000Y-38758042D01*
X76000000Y-38041958D01*
X75725966Y-37380382D01*
X75219618Y-36874034D01*
X74558042Y-36600000D01*
X73841958Y-36600000D01*
X73180382Y-36874034D01*
X72674034Y-37380382D01*
X72400000Y-38041958D01*
X69600000Y-38041958D01*
X69325966Y-37380382D01*
X68819618Y-36874034D01*
X68158042Y-36600000D01*
X67441958Y-36600000D01*
X66780382Y-36874034D01*
X66274034Y-37380382D01*
X66000000Y-38041958D01*
X63200000Y-38041958D01*
X62925966Y-37380382D01*
X62419618Y-36874034D01*
X61758042Y-36600000D01*
X61041958Y-36600000D01*
X60380382Y-36874034D01*
X59874034Y-37380382D01*
X59600000Y-38041958D01*
X56800000Y-38041958D01*
X56525966Y-37380382D01*
X56019618Y-36874034D01*
X55358042Y-36600000D01*
X54641958Y-36600000D01*
X53980382Y-36874034D01*
X53474034Y-37380382D01*
X53200000Y-38041958D01*
X50400000Y-38041958D01*
X50125966Y-37380382D01*
X49619618Y-36874034D01*
X48958042Y-36600000D01*
X48241958Y-36600000D01*
X47580382Y-36874034D01*
X47074034Y-37380382D01*
X46800000Y-38041958D01*
X1475000Y-38041958D01*
X1475000Y-34222610D01*
X20400000Y-34222610D01*
X20400000Y-35177390D01*
X20765378Y-36059491D01*
X21440509Y-36734622D01*
X22322610Y-37100000D01*
X23277390Y-37100000D01*
X24159491Y-36734622D01*
X24834622Y-36059491D01*
X25200000Y-35177390D01*
X25200000Y-34841958D01*
X43600000Y-34841958D01*
X43600000Y-35558042D01*
X43874034Y-36219618D01*
X44380382Y-36725966D01*
X45041958Y-37000000D01*
X45758042Y-37000000D01*
X46419618Y-36725966D01*
X46925966Y-36219618D01*
X47200000Y-35558042D01*
X47200000Y-34841958D01*
X50000000Y-34841958D01*
X50000000Y-35558042D01*
X50274034Y-36219618D01*
X50780382Y-36725966D01*
X51441958Y-37000000D01*
X52158042Y-37000000D01*
X52819618Y-36725966D01*
X53325966Y-36219618D01*
X53600000Y-35558042D01*
X53600000Y-34841958D01*
X56400000Y-34841958D01*
X56400000Y-35558042D01*
X56674034Y-36219618D01*
X57180382Y-36725966D01*
X57841958Y-37000000D01*
X58558042Y-37000000D01*
X59219618Y-36725966D01*
X59725966Y-36219618D01*
X60000000Y-35558042D01*
X60000000Y-34841958D01*
X62800000Y-34841958D01*
X62800000Y-35558042D01*
X63074034Y-36219618D01*
X63580382Y-36725966D01*
X64241958Y-37000000D01*
X64958042Y-37000000D01*
X65619618Y-36725966D01*
X66125966Y-36219618D01*
X66400000Y-35558042D01*
X66400000Y-34841958D01*
X69200000Y-34841958D01*
X69200000Y-35558042D01*
X69474034Y-36219618D01*
X69980382Y-36725966D01*
X70641958Y-37000000D01*
X71358042Y-37000000D01*
X72019618Y-36725966D01*
X72525966Y-36219618D01*
X72800000Y-35558042D01*
X72800000Y-34841958D01*
X75600000Y-34841958D01*
X75600000Y-35558042D01*
X75874034Y-36219618D01*
X76380382Y-36725966D01*
X77041958Y-37000000D01*
X77758042Y-37000000D01*
X78419618Y-36725966D01*
X78925966Y-36219618D01*
X79200000Y-35558042D01*
X79200000Y-34841958D01*
X78925966Y-34180382D01*
X78419618Y-33674034D01*
X77758042Y-33400000D01*
X77041958Y-33400000D01*
X76380382Y-33674034D01*
X75874034Y-34180382D01*
X75600000Y-34841958D01*
X72800000Y-34841958D01*
X72525966Y-34180382D01*
X72019618Y-33674034D01*
X71358042Y-33400000D01*
X70641958Y-33400000D01*
X69980382Y-33674034D01*
X69474034Y-34180382D01*
X69200000Y-34841958D01*
X66400000Y-34841958D01*
X66125966Y-34180382D01*
X65619618Y-33674034D01*
X64958042Y-33400000D01*
X64241958Y-33400000D01*
X63580382Y-33674034D01*
X63074034Y-34180382D01*
X62800000Y-34841958D01*
X60000000Y-34841958D01*
X59725966Y-34180382D01*
X59219618Y-33674034D01*
X58558042Y-33400000D01*
X57841958Y-33400000D01*
X57180382Y-33674034D01*
X56674034Y-34180382D01*
X56400000Y-34841958D01*
X53600000Y-34841958D01*
X53325966Y-34180382D01*
X52819618Y-33674034D01*
X52158042Y-33400000D01*
X51441958Y-33400000D01*
X50780382Y-33674034D01*
X50274034Y-34180382D01*
X50000000Y-34841958D01*
X47200000Y-34841958D01*
X46925966Y-34180382D01*
X46419618Y-33674034D01*
X45758042Y-33400000D01*
X45041958Y-33400000D01*
X44380382Y-33674034D01*
X43874034Y-34180382D01*
X43600000Y-34841958D01*
X25200000Y-34841958D01*
X25200000Y-34222610D01*
X24834622Y-33340509D01*
X24250000Y-32755887D01*
X24250000Y-31641958D01*
X46800000Y-31641958D01*
X46800000Y-32358042D01*
X47074034Y-33019618D01*
X47580382Y-33525966D01*
X48241958Y-33800000D01*
X48958042Y-33800000D01*
X49619618Y-33525966D01*
X50125966Y-33019618D01*
X50400000Y-32358042D01*
X50400000Y-31641958D01*
X53200000Y-31641958D01*
X53200000Y-32358042D01*
X53474034Y-33019618D01*
X53980382Y-33525966D01*
X54641958Y-33800000D01*
X55358042Y-33800000D01*
X56019618Y-33525966D01*
X56525966Y-33019618D01*
X56800000Y-32358042D01*
X56800000Y-31641958D01*
X59600000Y-31641958D01*
X59600000Y-32358042D01*
X59874034Y-33019618D01*
X60380382Y-33525966D01*
X61041958Y-33800000D01*
X61758042Y-33800000D01*
X62419618Y-33525966D01*
X62925966Y-33019618D01*
X63200000Y-32358042D01*
X63200000Y-31641958D01*
X66000000Y-31641958D01*
X66000000Y-32358042D01*
X66274034Y-33019618D01*
X66780382Y-33525966D01*
X67441958Y-33800000D01*
X68158042Y-33800000D01*
X68819618Y-33525966D01*
X69325966Y-33019618D01*
X69600000Y-32358042D01*
X69600000Y-31641958D01*
X72400000Y-31641958D01*
X72400000Y-32358042D01*
X72674034Y-33019618D01*
X73180382Y-33525966D01*
X73841958Y-33800000D01*
X74558042Y-33800000D01*
X75219618Y-33525966D01*
X75725966Y-33019618D01*
X76000000Y-32358042D01*
X76000000Y-31641958D01*
X75725966Y-30980382D01*
X75219618Y-30474034D01*
X74558042Y-30200000D01*
X73841958Y-30200000D01*
X73180382Y-30474034D01*
X72674034Y-30980382D01*
X72400000Y-31641958D01*
X69600000Y-31641958D01*
X69325966Y-30980382D01*
X68819618Y-30474034D01*
X68158042Y-30200000D01*
X67441958Y-30200000D01*
X66780382Y-30474034D01*
X66274034Y-30980382D01*
X66000000Y-31641958D01*
X63200000Y-31641958D01*
X62925966Y-30980382D01*
X62419618Y-30474034D01*
X61758042Y-30200000D01*
X61041958Y-30200000D01*
X60380382Y-30474034D01*
X59874034Y-30980382D01*
X59600000Y-31641958D01*
X56800000Y-31641958D01*
X56525966Y-30980382D01*
X56019618Y-30474034D01*
X55358042Y-30200000D01*
X54641958Y-30200000D01*
X53980382Y-30474034D01*
X53474034Y-30980382D01*
X53200000Y-31641958D01*
X50400000Y-31641958D01*
X50125966Y-30980382D01*
X49619618Y-30474034D01*
X48958042Y-30200000D01*
X48241958Y-30200000D01*
X47580382Y-30474034D01*
X47074034Y-30980382D01*
X46800000Y-31641958D01*
X24250000Y-31641958D01*
X24250000Y-31497440D01*
X24338384Y-31438384D01*
X24426791Y-31306072D01*
X24457836Y-31150000D01*
X24457836Y-30250000D01*
X24426791Y-30093928D01*
X24338384Y-29961616D01*
X24206072Y-29873209D01*
X24050000Y-29842164D01*
X23000000Y-29842164D01*
X22843928Y-29873209D01*
X22711616Y-29961616D01*
X22697872Y-29982186D01*
X22626582Y-29910896D01*
X22479565Y-29850000D01*
X22237500Y-29850000D01*
X22137500Y-29950000D01*
X22137500Y-30475000D01*
X22195000Y-30475000D01*
X22195000Y-30925000D01*
X22137500Y-30925000D01*
X22137500Y-31450000D01*
X22237500Y-31550000D01*
X22479565Y-31550000D01*
X22626582Y-31489104D01*
X22697872Y-31417814D01*
X22711616Y-31438384D01*
X22843928Y-31526791D01*
X23000000Y-31557836D01*
X23050000Y-31557836D01*
X23050001Y-32300000D01*
X22322610Y-32300000D01*
X21440509Y-32665378D01*
X20765378Y-33340509D01*
X20400000Y-34222610D01*
X1475000Y-34222610D01*
X1475000Y-31025000D01*
X20950000Y-31025000D01*
X20950000Y-31229565D01*
X21010896Y-31376582D01*
X21123418Y-31489104D01*
X21270435Y-31550000D01*
X21512500Y-31550000D01*
X21612500Y-31450000D01*
X21612500Y-30925000D01*
X21050000Y-30925000D01*
X20950000Y-31025000D01*
X1475000Y-31025000D01*
X1475000Y-30170435D01*
X20950000Y-30170435D01*
X20950000Y-30375000D01*
X21050000Y-30475000D01*
X21612500Y-30475000D01*
X21612500Y-29950000D01*
X21512500Y-29850000D01*
X21270435Y-29850000D01*
X21123418Y-29910896D01*
X21010896Y-30023418D01*
X20950000Y-30170435D01*
X1475000Y-30170435D01*
X1475000Y-25322610D01*
X13200000Y-25322610D01*
X13200000Y-26277390D01*
X13565378Y-27159491D01*
X14240509Y-27834622D01*
X15122610Y-28200000D01*
X16077390Y-28200000D01*
X16959491Y-27834622D01*
X17634622Y-27159491D01*
X18000000Y-26277390D01*
X18000000Y-25447500D01*
X19024595Y-25447500D01*
X19024709Y-25448072D01*
X19113116Y-25580384D01*
X19245428Y-25668791D01*
X19401500Y-25699836D01*
X20798500Y-25699836D01*
X20954572Y-25668791D01*
X21086884Y-25580384D01*
X21175291Y-25448072D01*
X21175405Y-25447500D01*
X21842164Y-25447500D01*
X21842164Y-25500000D01*
X21873209Y-25656072D01*
X21961616Y-25788384D01*
X21979001Y-25800000D01*
X21961616Y-25811616D01*
X21873209Y-25943928D01*
X21842164Y-26100000D01*
X21842164Y-26152500D01*
X21175405Y-26152500D01*
X21175291Y-26151928D01*
X21086884Y-26019616D01*
X20954572Y-25931209D01*
X20798500Y-25900164D01*
X19401500Y-25900164D01*
X19245428Y-25931209D01*
X19113116Y-26019616D01*
X19024709Y-26151928D01*
X18993664Y-26308000D01*
X18993664Y-27197000D01*
X19024709Y-27353072D01*
X19113116Y-27485384D01*
X19245428Y-27573791D01*
X19401500Y-27604836D01*
X20798500Y-27604836D01*
X20954572Y-27573791D01*
X21086884Y-27485384D01*
X21175291Y-27353072D01*
X21175405Y-27352500D01*
X21904231Y-27352500D01*
X21961616Y-27438384D01*
X22093928Y-27526791D01*
X22100001Y-27527999D01*
X22100000Y-27902560D01*
X22011616Y-27961616D01*
X21923209Y-28093928D01*
X21892164Y-28250000D01*
X21892164Y-29150000D01*
X21923209Y-29306072D01*
X22011616Y-29438384D01*
X22143928Y-29526791D01*
X22300000Y-29557836D01*
X23100000Y-29557836D01*
X23256072Y-29526791D01*
X23388384Y-29438384D01*
X23476791Y-29306072D01*
X23507836Y-29150000D01*
X23507836Y-28441958D01*
X43600000Y-28441958D01*
X43600000Y-29158042D01*
X43874034Y-29819618D01*
X44380382Y-30325966D01*
X45041958Y-30600000D01*
X45758042Y-30600000D01*
X46419618Y-30325966D01*
X46925966Y-29819618D01*
X47200000Y-29158042D01*
X47200000Y-28441958D01*
X50000000Y-28441958D01*
X50000000Y-29158042D01*
X50274034Y-29819618D01*
X50780382Y-30325966D01*
X51441958Y-30600000D01*
X52158042Y-30600000D01*
X52819618Y-30325966D01*
X53325966Y-29819618D01*
X53600000Y-29158042D01*
X53600000Y-28441958D01*
X56400000Y-28441958D01*
X56400000Y-29158042D01*
X56674034Y-29819618D01*
X57180382Y-30325966D01*
X57841958Y-30600000D01*
X58558042Y-30600000D01*
X59219618Y-30325966D01*
X59725966Y-29819618D01*
X60000000Y-29158042D01*
X60000000Y-28441958D01*
X62800000Y-28441958D01*
X62800000Y-29158042D01*
X63074034Y-29819618D01*
X63580382Y-30325966D01*
X64241958Y-30600000D01*
X64958042Y-30600000D01*
X65619618Y-30325966D01*
X66125966Y-29819618D01*
X66400000Y-29158042D01*
X66400000Y-28441958D01*
X69200000Y-28441958D01*
X69200000Y-29158042D01*
X69474034Y-29819618D01*
X69980382Y-30325966D01*
X70641958Y-30600000D01*
X71358042Y-30600000D01*
X72019618Y-30325966D01*
X72525966Y-29819618D01*
X72800000Y-29158042D01*
X72800000Y-28441958D01*
X75600000Y-28441958D01*
X75600000Y-29158042D01*
X75874034Y-29819618D01*
X76380382Y-30325966D01*
X77041958Y-30600000D01*
X77758042Y-30600000D01*
X78419618Y-30325966D01*
X78925966Y-29819618D01*
X79200000Y-29158042D01*
X79200000Y-28441958D01*
X78925966Y-27780382D01*
X78419618Y-27274034D01*
X77758042Y-27000000D01*
X77041958Y-27000000D01*
X76380382Y-27274034D01*
X75874034Y-27780382D01*
X75600000Y-28441958D01*
X72800000Y-28441958D01*
X72525966Y-27780382D01*
X72019618Y-27274034D01*
X71358042Y-27000000D01*
X70641958Y-27000000D01*
X69980382Y-27274034D01*
X69474034Y-27780382D01*
X69200000Y-28441958D01*
X66400000Y-28441958D01*
X66125966Y-27780382D01*
X65619618Y-27274034D01*
X64958042Y-27000000D01*
X64241958Y-27000000D01*
X63580382Y-27274034D01*
X63074034Y-27780382D01*
X62800000Y-28441958D01*
X60000000Y-28441958D01*
X59725966Y-27780382D01*
X59219618Y-27274034D01*
X58558042Y-27000000D01*
X57841958Y-27000000D01*
X57180382Y-27274034D01*
X56674034Y-27780382D01*
X56400000Y-28441958D01*
X53600000Y-28441958D01*
X53325966Y-27780382D01*
X52819618Y-27274034D01*
X52158042Y-27000000D01*
X51441958Y-27000000D01*
X50780382Y-27274034D01*
X50274034Y-27780382D01*
X50000000Y-28441958D01*
X47200000Y-28441958D01*
X46925966Y-27780382D01*
X46419618Y-27274034D01*
X45758042Y-27000000D01*
X45041958Y-27000000D01*
X44380382Y-27274034D01*
X43874034Y-27780382D01*
X43600000Y-28441958D01*
X23507836Y-28441958D01*
X23507836Y-28250000D01*
X23476791Y-28093928D01*
X23388384Y-27961616D01*
X23300000Y-27902560D01*
X23300000Y-27527999D01*
X23306072Y-27526791D01*
X23438384Y-27438384D01*
X23526791Y-27306072D01*
X23557836Y-27150000D01*
X23557836Y-26100000D01*
X23526791Y-25943928D01*
X23438384Y-25811616D01*
X23420999Y-25800000D01*
X23438384Y-25788384D01*
X23526791Y-25656072D01*
X23557836Y-25500000D01*
X23557836Y-25400000D01*
X23842164Y-25400000D01*
X23842164Y-26200000D01*
X23873209Y-26356072D01*
X23961616Y-26488384D01*
X24093928Y-26576791D01*
X24250000Y-26607836D01*
X25150000Y-26607836D01*
X25306072Y-26576791D01*
X25438384Y-26488384D01*
X25497440Y-26400000D01*
X26750787Y-26400000D01*
X27065378Y-27159491D01*
X27740509Y-27834622D01*
X28622610Y-28200000D01*
X29577390Y-28200000D01*
X30459491Y-27834622D01*
X31134622Y-27159491D01*
X31500000Y-26277390D01*
X31500000Y-25322610D01*
X31466593Y-25241958D01*
X46800000Y-25241958D01*
X46800000Y-25958042D01*
X47074034Y-26619618D01*
X47580382Y-27125966D01*
X48241958Y-27400000D01*
X48958042Y-27400000D01*
X49619618Y-27125966D01*
X50125966Y-26619618D01*
X50400000Y-25958042D01*
X50400000Y-25241958D01*
X53200000Y-25241958D01*
X53200000Y-25958042D01*
X53474034Y-26619618D01*
X53980382Y-27125966D01*
X54641958Y-27400000D01*
X55358042Y-27400000D01*
X56019618Y-27125966D01*
X56525966Y-26619618D01*
X56800000Y-25958042D01*
X56800000Y-25241958D01*
X59600000Y-25241958D01*
X59600000Y-25958042D01*
X59874034Y-26619618D01*
X60380382Y-27125966D01*
X61041958Y-27400000D01*
X61758042Y-27400000D01*
X62419618Y-27125966D01*
X62925966Y-26619618D01*
X63200000Y-25958042D01*
X63200000Y-25241958D01*
X66000000Y-25241958D01*
X66000000Y-25958042D01*
X66274034Y-26619618D01*
X66780382Y-27125966D01*
X67441958Y-27400000D01*
X68158042Y-27400000D01*
X68819618Y-27125966D01*
X69325966Y-26619618D01*
X69600000Y-25958042D01*
X69600000Y-25241958D01*
X72400000Y-25241958D01*
X72400000Y-25958042D01*
X72674034Y-26619618D01*
X73180382Y-27125966D01*
X73841958Y-27400000D01*
X74558042Y-27400000D01*
X75219618Y-27125966D01*
X75725966Y-26619618D01*
X76000000Y-25958042D01*
X76000000Y-25241958D01*
X75725966Y-24580382D01*
X75219618Y-24074034D01*
X74558042Y-23800000D01*
X73841958Y-23800000D01*
X73180382Y-24074034D01*
X72674034Y-24580382D01*
X72400000Y-25241958D01*
X69600000Y-25241958D01*
X69325966Y-24580382D01*
X68819618Y-24074034D01*
X68158042Y-23800000D01*
X67441958Y-23800000D01*
X66780382Y-24074034D01*
X66274034Y-24580382D01*
X66000000Y-25241958D01*
X63200000Y-25241958D01*
X62925966Y-24580382D01*
X62419618Y-24074034D01*
X61758042Y-23800000D01*
X61041958Y-23800000D01*
X60380382Y-24074034D01*
X59874034Y-24580382D01*
X59600000Y-25241958D01*
X56800000Y-25241958D01*
X56525966Y-24580382D01*
X56019618Y-24074034D01*
X55358042Y-23800000D01*
X54641958Y-23800000D01*
X53980382Y-24074034D01*
X53474034Y-24580382D01*
X53200000Y-25241958D01*
X50400000Y-25241958D01*
X50125966Y-24580382D01*
X49619618Y-24074034D01*
X48958042Y-23800000D01*
X48241958Y-23800000D01*
X47580382Y-24074034D01*
X47074034Y-24580382D01*
X46800000Y-25241958D01*
X31466593Y-25241958D01*
X31134622Y-24440509D01*
X30459491Y-23765378D01*
X29577390Y-23400000D01*
X28622610Y-23400000D01*
X27740509Y-23765378D01*
X27065378Y-24440509D01*
X26750787Y-25200000D01*
X25497440Y-25200000D01*
X25438384Y-25111616D01*
X25306072Y-25023209D01*
X25150000Y-24992164D01*
X24250000Y-24992164D01*
X24093928Y-25023209D01*
X23961616Y-25111616D01*
X23873209Y-25243928D01*
X23842164Y-25400000D01*
X23557836Y-25400000D01*
X23557836Y-24450000D01*
X23526791Y-24293928D01*
X23438384Y-24161616D01*
X23306072Y-24073209D01*
X23150000Y-24042164D01*
X22250000Y-24042164D01*
X22093928Y-24073209D01*
X21961616Y-24161616D01*
X21904231Y-24247500D01*
X21175405Y-24247500D01*
X21175291Y-24246928D01*
X21086884Y-24114616D01*
X20954572Y-24026209D01*
X20798500Y-23995164D01*
X19401500Y-23995164D01*
X19245428Y-24026209D01*
X19113116Y-24114616D01*
X19024709Y-24246928D01*
X19024595Y-24247500D01*
X17441613Y-24247500D01*
X16959491Y-23765378D01*
X16077390Y-23400000D01*
X15122610Y-23400000D01*
X14240509Y-23765378D01*
X13565378Y-24440509D01*
X13200000Y-25322610D01*
X1475000Y-25322610D01*
X1475000Y-22041958D01*
X50000000Y-22041958D01*
X50000000Y-22758042D01*
X50274034Y-23419618D01*
X50780382Y-23925966D01*
X51441958Y-24200000D01*
X52158042Y-24200000D01*
X52819618Y-23925966D01*
X53325966Y-23419618D01*
X53600000Y-22758042D01*
X53600000Y-22041958D01*
X56400000Y-22041958D01*
X56400000Y-22758042D01*
X56674034Y-23419618D01*
X57180382Y-23925966D01*
X57841958Y-24200000D01*
X58558042Y-24200000D01*
X59219618Y-23925966D01*
X59725966Y-23419618D01*
X60000000Y-22758042D01*
X60000000Y-22041958D01*
X62800000Y-22041958D01*
X62800000Y-22758042D01*
X63074034Y-23419618D01*
X63580382Y-23925966D01*
X64241958Y-24200000D01*
X64958042Y-24200000D01*
X65619618Y-23925966D01*
X66125966Y-23419618D01*
X66400000Y-22758042D01*
X66400000Y-22041958D01*
X69200000Y-22041958D01*
X69200000Y-22758042D01*
X69474034Y-23419618D01*
X69980382Y-23925966D01*
X70641958Y-24200000D01*
X71358042Y-24200000D01*
X72019618Y-23925966D01*
X72525966Y-23419618D01*
X72800000Y-22758042D01*
X72800000Y-22041958D01*
X72525966Y-21380382D01*
X72019618Y-20874034D01*
X71358042Y-20600000D01*
X70641958Y-20600000D01*
X69980382Y-20874034D01*
X69474034Y-21380382D01*
X69200000Y-22041958D01*
X66400000Y-22041958D01*
X66125966Y-21380382D01*
X65619618Y-20874034D01*
X64958042Y-20600000D01*
X64241958Y-20600000D01*
X63580382Y-20874034D01*
X63074034Y-21380382D01*
X62800000Y-22041958D01*
X60000000Y-22041958D01*
X59725966Y-21380382D01*
X59219618Y-20874034D01*
X58558042Y-20600000D01*
X57841958Y-20600000D01*
X57180382Y-20874034D01*
X56674034Y-21380382D01*
X56400000Y-22041958D01*
X53600000Y-22041958D01*
X53325966Y-21380382D01*
X52819618Y-20874034D01*
X52158042Y-20600000D01*
X51441958Y-20600000D01*
X50780382Y-20874034D01*
X50274034Y-21380382D01*
X50000000Y-22041958D01*
X1475000Y-22041958D01*
X1475000Y-21158112D01*
X14166152Y-21158112D01*
X14415233Y-21441082D01*
X15324775Y-21731492D01*
X16276217Y-21651730D01*
X16784767Y-21441082D01*
X17033848Y-21158112D01*
X27666152Y-21158112D01*
X27915233Y-21441082D01*
X28824775Y-21731492D01*
X29776217Y-21651730D01*
X30284767Y-21441082D01*
X30533848Y-21158112D01*
X29100000Y-19724264D01*
X27666152Y-21158112D01*
X17033848Y-21158112D01*
X15600000Y-19724264D01*
X14166152Y-21158112D01*
X1475000Y-21158112D01*
X1475000Y-19024775D01*
X13168508Y-19024775D01*
X13248270Y-19976217D01*
X13458918Y-20484767D01*
X13741888Y-20733848D01*
X15175736Y-19300000D01*
X16024264Y-19300000D01*
X17458112Y-20733848D01*
X17741082Y-20484767D01*
X18031492Y-19575225D01*
X17985347Y-19024775D01*
X26668508Y-19024775D01*
X26748270Y-19976217D01*
X26958918Y-20484767D01*
X27241888Y-20733848D01*
X28675736Y-19300000D01*
X29524264Y-19300000D01*
X30958112Y-20733848D01*
X31241082Y-20484767D01*
X31531492Y-19575225D01*
X31470021Y-18841958D01*
X53200000Y-18841958D01*
X53200000Y-19558042D01*
X53474034Y-20219618D01*
X53980382Y-20725966D01*
X54641958Y-21000000D01*
X55358042Y-21000000D01*
X56019618Y-20725966D01*
X56525966Y-20219618D01*
X56800000Y-19558042D01*
X56800000Y-18841958D01*
X59600000Y-18841958D01*
X59600000Y-19558042D01*
X59874034Y-20219618D01*
X60380382Y-20725966D01*
X61041958Y-21000000D01*
X61758042Y-21000000D01*
X62419618Y-20725966D01*
X62925966Y-20219618D01*
X63200000Y-19558042D01*
X63200000Y-18841958D01*
X66000000Y-18841958D01*
X66000000Y-19558042D01*
X66274034Y-20219618D01*
X66780382Y-20725966D01*
X67441958Y-21000000D01*
X68158042Y-21000000D01*
X68819618Y-20725966D01*
X69325966Y-20219618D01*
X69600000Y-19558042D01*
X69600000Y-18841958D01*
X69325966Y-18180382D01*
X68819618Y-17674034D01*
X68158042Y-17400000D01*
X67441958Y-17400000D01*
X66780382Y-17674034D01*
X66274034Y-18180382D01*
X66000000Y-18841958D01*
X63200000Y-18841958D01*
X62925966Y-18180382D01*
X62419618Y-17674034D01*
X61758042Y-17400000D01*
X61041958Y-17400000D01*
X60380382Y-17674034D01*
X59874034Y-18180382D01*
X59600000Y-18841958D01*
X56800000Y-18841958D01*
X56525966Y-18180382D01*
X56019618Y-17674034D01*
X55358042Y-17400000D01*
X54641958Y-17400000D01*
X53980382Y-17674034D01*
X53474034Y-18180382D01*
X53200000Y-18841958D01*
X31470021Y-18841958D01*
X31451730Y-18623783D01*
X31241082Y-18115233D01*
X30958112Y-17866152D01*
X29524264Y-19300000D01*
X28675736Y-19300000D01*
X27241888Y-17866152D01*
X26958918Y-18115233D01*
X26668508Y-19024775D01*
X17985347Y-19024775D01*
X17951730Y-18623783D01*
X17741082Y-18115233D01*
X17458112Y-17866152D01*
X16024264Y-19300000D01*
X15175736Y-19300000D01*
X13741888Y-17866152D01*
X13458918Y-18115233D01*
X13168508Y-19024775D01*
X1475000Y-19024775D01*
X1475000Y-17441888D01*
X14166152Y-17441888D01*
X15600000Y-18875736D01*
X17033848Y-17441888D01*
X27666152Y-17441888D01*
X29100000Y-18875736D01*
X30533848Y-17441888D01*
X30284767Y-17158918D01*
X29375225Y-16868508D01*
X28423783Y-16948270D01*
X27915233Y-17158918D01*
X27666152Y-17441888D01*
X17033848Y-17441888D01*
X16784767Y-17158918D01*
X15875225Y-16868508D01*
X14923783Y-16948270D01*
X14415233Y-17158918D01*
X14166152Y-17441888D01*
X1475000Y-17441888D01*
X1475000Y-15492774D01*
X42850000Y-15492774D01*
X42850000Y-16507226D01*
X43238215Y-17444459D01*
X43955541Y-18161785D01*
X44892774Y-18550000D01*
X45907226Y-18550000D01*
X46844459Y-18161785D01*
X47561785Y-17444459D01*
X47950000Y-16507226D01*
X47950000Y-15641958D01*
X56400000Y-15641958D01*
X56400000Y-16358042D01*
X56674034Y-17019618D01*
X57180382Y-17525966D01*
X57841958Y-17800000D01*
X58558042Y-17800000D01*
X59219618Y-17525966D01*
X59725966Y-17019618D01*
X60000000Y-16358042D01*
X60000000Y-15641958D01*
X62800000Y-15641958D01*
X62800000Y-16358042D01*
X63074034Y-17019618D01*
X63580382Y-17525966D01*
X64241958Y-17800000D01*
X64958042Y-17800000D01*
X65619618Y-17525966D01*
X66125966Y-17019618D01*
X66400000Y-16358042D01*
X66400000Y-15641958D01*
X66338206Y-15492774D01*
X74850000Y-15492774D01*
X74850000Y-16507226D01*
X75238215Y-17444459D01*
X75955541Y-18161785D01*
X76892774Y-18550000D01*
X77907226Y-18550000D01*
X78844459Y-18161785D01*
X79561785Y-17444459D01*
X79950000Y-16507226D01*
X79950000Y-15492774D01*
X79561785Y-14555541D01*
X78844459Y-13838215D01*
X77907226Y-13450000D01*
X76892774Y-13450000D01*
X75955541Y-13838215D01*
X75238215Y-14555541D01*
X74850000Y-15492774D01*
X66338206Y-15492774D01*
X66125966Y-14980382D01*
X65619618Y-14474034D01*
X64958042Y-14200000D01*
X64241958Y-14200000D01*
X63580382Y-14474034D01*
X63074034Y-14980382D01*
X62800000Y-15641958D01*
X60000000Y-15641958D01*
X59725966Y-14980382D01*
X59219618Y-14474034D01*
X58558042Y-14200000D01*
X57841958Y-14200000D01*
X57180382Y-14474034D01*
X56674034Y-14980382D01*
X56400000Y-15641958D01*
X47950000Y-15641958D01*
X47950000Y-15492774D01*
X47561785Y-14555541D01*
X46844459Y-13838215D01*
X45907226Y-13450000D01*
X44892774Y-13450000D01*
X43955541Y-13838215D01*
X43238215Y-14555541D01*
X42850000Y-15492774D01*
X1475000Y-15492774D01*
X1475000Y-13075601D01*
X85850000Y-13075601D01*
X85850000Y-15124399D01*
X86634041Y-17017240D01*
X88082760Y-18465959D01*
X89975601Y-19250000D01*
X92024399Y-19250000D01*
X93917240Y-18465959D01*
X95365959Y-17017240D01*
X96150000Y-15124399D01*
X96150000Y-13075601D01*
X95365959Y-11182760D01*
X93917240Y-9734041D01*
X92024399Y-8950000D01*
X89975601Y-8950000D01*
X88082760Y-9734041D01*
X86634041Y-11182760D01*
X85850000Y-13075601D01*
X1475000Y-13075601D01*
X1475000Y-10563856D01*
X1483085Y-10534332D01*
X1475000Y-10470196D01*
X1475000Y-10453221D01*
X1469158Y-10423851D01*
X1459451Y-10346849D01*
X1450834Y-10331733D01*
X1447439Y-10314665D01*
X1404311Y-10250120D01*
X1365869Y-10182682D01*
X1352122Y-10172013D01*
X1342455Y-10157545D01*
X1277914Y-10114420D01*
X1254266Y-10096067D01*
X1239091Y-10088479D01*
X1185335Y-10052561D01*
X1155309Y-10046588D01*
X475000Y-9706434D01*
X475000Y-7459242D01*
X35100000Y-7459242D01*
X35100000Y-9010758D01*
X35693739Y-10444173D01*
X36790827Y-11541261D01*
X38224242Y-12135000D01*
X39775758Y-12135000D01*
X41209173Y-11541261D01*
X42306261Y-10444173D01*
X42900000Y-9010758D01*
X42900000Y-7459242D01*
X67100000Y-7459242D01*
X67100000Y-9010758D01*
X67693739Y-10444173D01*
X68790827Y-11541261D01*
X70224242Y-12135000D01*
X71775758Y-12135000D01*
X73209173Y-11541261D01*
X74306261Y-10444173D01*
X74900000Y-9010758D01*
X74900000Y-7459242D01*
X74306261Y-6025827D01*
X73209173Y-4928739D01*
X71775758Y-4335000D01*
X70224242Y-4335000D01*
X68790827Y-4928739D01*
X67693739Y-6025827D01*
X67100000Y-7459242D01*
X42900000Y-7459242D01*
X42306261Y-6025827D01*
X41209173Y-4928739D01*
X39775758Y-4335000D01*
X38224242Y-4335000D01*
X36790827Y-4928739D01*
X35693739Y-6025827D01*
X35100000Y-7459242D01*
X475000Y-7459242D01*
X475000Y-2033842D01*
X540949Y-1573342D01*
X719342Y-1180986D01*
X1000688Y-854468D01*
X1362368Y-620039D01*
X1791043Y-491838D01*
X2017626Y-475000D01*
X103966158Y-475000D01*
X104426658Y-540949D01*
X104426658Y-540949D01*
G37*
X104426658Y-540949D02*
X104819014Y-719342D01*
X105145532Y-1000688D01*
X105379961Y-1362368D01*
X105508162Y-1791043D01*
X105525000Y-2017627D01*
X105525001Y-9706433D01*
X104844694Y-10046588D01*
X104814665Y-10052561D01*
X104760903Y-10088483D01*
X104745734Y-10096068D01*
X104722095Y-10114414D01*
X104657545Y-10157545D01*
X104647876Y-10172015D01*
X104634131Y-10182683D01*
X104595690Y-10250118D01*
X104552561Y-10314666D01*
X104549166Y-10331734D01*
X104540549Y-10346850D01*
X104530842Y-10423853D01*
X104525000Y-10453222D01*
X104525000Y-10470196D01*
X104516915Y-10534332D01*
X104525000Y-10563856D01*
X104525001Y-44436141D01*
X104516915Y-44465668D01*
X104525001Y-44529812D01*
X104525001Y-44546779D01*
X104530841Y-44576136D01*
X104540549Y-44653150D01*
X104549167Y-44668269D01*
X104552562Y-44685335D01*
X104595687Y-44749876D01*
X104634131Y-44817317D01*
X104647878Y-44827986D01*
X104657546Y-44842455D01*
X104722089Y-44885581D01*
X104745734Y-44903932D01*
X104760907Y-44911519D01*
X104814666Y-44947439D01*
X104844694Y-44953412D01*
X105525000Y-45293566D01*
X105525001Y-52966151D01*
X105459052Y-53426656D01*
X105280658Y-53819015D01*
X104999312Y-54145532D01*
X104637631Y-54379962D01*
X104208957Y-54508162D01*
X103982374Y-54525000D01*
X2033842Y-54525000D01*
X1573344Y-54459052D01*
X1180985Y-54280658D01*
X854468Y-53999312D01*
X620038Y-53637631D01*
X491838Y-53208957D01*
X475000Y-52982374D01*
X475000Y-47492774D01*
X42850000Y-47492774D01*
X42850000Y-48507226D01*
X43238215Y-49444459D01*
X43955541Y-50161785D01*
X44892774Y-50550000D01*
X45907226Y-50550000D01*
X46844459Y-50161785D01*
X47561785Y-49444459D01*
X47950000Y-48507226D01*
X47950000Y-47641958D01*
X56400000Y-47641958D01*
X56400000Y-48358042D01*
X56674034Y-49019618D01*
X57180382Y-49525966D01*
X57841958Y-49800000D01*
X58558042Y-49800000D01*
X59219618Y-49525966D01*
X59725966Y-49019618D01*
X60000000Y-48358042D01*
X60000000Y-47641958D01*
X62800000Y-47641958D01*
X62800000Y-48358042D01*
X63074034Y-49019618D01*
X63580382Y-49525966D01*
X64241958Y-49800000D01*
X64958042Y-49800000D01*
X65619618Y-49525966D01*
X66125966Y-49019618D01*
X66400000Y-48358042D01*
X66400000Y-47641958D01*
X66338206Y-47492774D01*
X74850000Y-47492774D01*
X74850000Y-48507226D01*
X75238215Y-49444459D01*
X75955541Y-50161785D01*
X76892774Y-50550000D01*
X77907226Y-50550000D01*
X78844459Y-50161785D01*
X79561785Y-49444459D01*
X79950000Y-48507226D01*
X79950000Y-47492774D01*
X79561785Y-46555541D01*
X78844459Y-45838215D01*
X77907226Y-45450000D01*
X76892774Y-45450000D01*
X75955541Y-45838215D01*
X75238215Y-46555541D01*
X74850000Y-47492774D01*
X66338206Y-47492774D01*
X66125966Y-46980382D01*
X65619618Y-46474034D01*
X64958042Y-46200000D01*
X64241958Y-46200000D01*
X63580382Y-46474034D01*
X63074034Y-46980382D01*
X62800000Y-47641958D01*
X60000000Y-47641958D01*
X59725966Y-46980382D01*
X59219618Y-46474034D01*
X58558042Y-46200000D01*
X57841958Y-46200000D01*
X57180382Y-46474034D01*
X56674034Y-46980382D01*
X56400000Y-47641958D01*
X47950000Y-47641958D01*
X47950000Y-47492774D01*
X47561785Y-46555541D01*
X46844459Y-45838215D01*
X45907226Y-45450000D01*
X44892774Y-45450000D01*
X43955541Y-45838215D01*
X43238215Y-46555541D01*
X42850000Y-47492774D01*
X475000Y-47492774D01*
X475000Y-45293566D01*
X1155309Y-44953411D01*
X1185334Y-44947439D01*
X1239088Y-44911522D01*
X1254266Y-44903933D01*
X1277916Y-44885578D01*
X1342455Y-44842455D01*
X1352122Y-44827987D01*
X1365869Y-44817318D01*
X1404311Y-44749880D01*
X1447439Y-44685335D01*
X1450834Y-44668267D01*
X1459451Y-44653151D01*
X1469158Y-44576149D01*
X1475000Y-44546779D01*
X1475000Y-44529804D01*
X1483085Y-44465668D01*
X1476593Y-44441958D01*
X53200000Y-44441958D01*
X53200000Y-45158042D01*
X53474034Y-45819618D01*
X53980382Y-46325966D01*
X54641958Y-46600000D01*
X55358042Y-46600000D01*
X56019618Y-46325966D01*
X56525966Y-45819618D01*
X56800000Y-45158042D01*
X56800000Y-44441958D01*
X59600000Y-44441958D01*
X59600000Y-45158042D01*
X59874034Y-45819618D01*
X60380382Y-46325966D01*
X61041958Y-46600000D01*
X61758042Y-46600000D01*
X62419618Y-46325966D01*
X62925966Y-45819618D01*
X63200000Y-45158042D01*
X63200000Y-44441958D01*
X66000000Y-44441958D01*
X66000000Y-45158042D01*
X66274034Y-45819618D01*
X66780382Y-46325966D01*
X67441958Y-46600000D01*
X68158042Y-46600000D01*
X68819618Y-46325966D01*
X69325966Y-45819618D01*
X69600000Y-45158042D01*
X69600000Y-44441958D01*
X69325966Y-43780382D01*
X68819618Y-43274034D01*
X68158042Y-43000000D01*
X67441958Y-43000000D01*
X66780382Y-43274034D01*
X66274034Y-43780382D01*
X66000000Y-44441958D01*
X63200000Y-44441958D01*
X62925966Y-43780382D01*
X62419618Y-43274034D01*
X61758042Y-43000000D01*
X61041958Y-43000000D01*
X60380382Y-43274034D01*
X59874034Y-43780382D01*
X59600000Y-44441958D01*
X56800000Y-44441958D01*
X56525966Y-43780382D01*
X56019618Y-43274034D01*
X55358042Y-43000000D01*
X54641958Y-43000000D01*
X53980382Y-43274034D01*
X53474034Y-43780382D01*
X53200000Y-44441958D01*
X1476593Y-44441958D01*
X1475000Y-44436144D01*
X1475000Y-41241958D01*
X50000000Y-41241958D01*
X50000000Y-41958042D01*
X50274034Y-42619618D01*
X50780382Y-43125966D01*
X51441958Y-43400000D01*
X52158042Y-43400000D01*
X52819618Y-43125966D01*
X53325966Y-42619618D01*
X53600000Y-41958042D01*
X53600000Y-41241958D01*
X56400000Y-41241958D01*
X56400000Y-41958042D01*
X56674034Y-42619618D01*
X57180382Y-43125966D01*
X57841958Y-43400000D01*
X58558042Y-43400000D01*
X59219618Y-43125966D01*
X59725966Y-42619618D01*
X60000000Y-41958042D01*
X60000000Y-41241958D01*
X62800000Y-41241958D01*
X62800000Y-41958042D01*
X63074034Y-42619618D01*
X63580382Y-43125966D01*
X64241958Y-43400000D01*
X64958042Y-43400000D01*
X65619618Y-43125966D01*
X66125966Y-42619618D01*
X66400000Y-41958042D01*
X66400000Y-41241958D01*
X69200000Y-41241958D01*
X69200000Y-41958042D01*
X69474034Y-42619618D01*
X69980382Y-43125966D01*
X70641958Y-43400000D01*
X71358042Y-43400000D01*
X72019618Y-43125966D01*
X72525966Y-42619618D01*
X72800000Y-41958042D01*
X72800000Y-41241958D01*
X72525966Y-40580382D01*
X72019618Y-40074034D01*
X71358042Y-39800000D01*
X70641958Y-39800000D01*
X69980382Y-40074034D01*
X69474034Y-40580382D01*
X69200000Y-41241958D01*
X66400000Y-41241958D01*
X66125966Y-40580382D01*
X65619618Y-40074034D01*
X64958042Y-39800000D01*
X64241958Y-39800000D01*
X63580382Y-40074034D01*
X63074034Y-40580382D01*
X62800000Y-41241958D01*
X60000000Y-41241958D01*
X59725966Y-40580382D01*
X59219618Y-40074034D01*
X58558042Y-39800000D01*
X57841958Y-39800000D01*
X57180382Y-40074034D01*
X56674034Y-40580382D01*
X56400000Y-41241958D01*
X53600000Y-41241958D01*
X53325966Y-40580382D01*
X52819618Y-40074034D01*
X52158042Y-39800000D01*
X51441958Y-39800000D01*
X50780382Y-40074034D01*
X50274034Y-40580382D01*
X50000000Y-41241958D01*
X1475000Y-41241958D01*
X1475000Y-38041958D01*
X46800000Y-38041958D01*
X46800000Y-38758042D01*
X47074034Y-39419618D01*
X47580382Y-39925966D01*
X48241958Y-40200000D01*
X48958042Y-40200000D01*
X49619618Y-39925966D01*
X50125966Y-39419618D01*
X50400000Y-38758042D01*
X50400000Y-38041958D01*
X53200000Y-38041958D01*
X53200000Y-38758042D01*
X53474034Y-39419618D01*
X53980382Y-39925966D01*
X54641958Y-40200000D01*
X55358042Y-40200000D01*
X56019618Y-39925966D01*
X56525966Y-39419618D01*
X56800000Y-38758042D01*
X56800000Y-38041958D01*
X59600000Y-38041958D01*
X59600000Y-38758042D01*
X59874034Y-39419618D01*
X60380382Y-39925966D01*
X61041958Y-40200000D01*
X61758042Y-40200000D01*
X62419618Y-39925966D01*
X62925966Y-39419618D01*
X63200000Y-38758042D01*
X63200000Y-38041958D01*
X66000000Y-38041958D01*
X66000000Y-38758042D01*
X66274034Y-39419618D01*
X66780382Y-39925966D01*
X67441958Y-40200000D01*
X68158042Y-40200000D01*
X68819618Y-39925966D01*
X69325966Y-39419618D01*
X69600000Y-38758042D01*
X69600000Y-38041958D01*
X72400000Y-38041958D01*
X72400000Y-38758042D01*
X72674034Y-39419618D01*
X73180382Y-39925966D01*
X73841958Y-40200000D01*
X74558042Y-40200000D01*
X75219618Y-39925966D01*
X75725966Y-39419618D01*
X76000000Y-38758042D01*
X76000000Y-38041958D01*
X75725966Y-37380382D01*
X75219618Y-36874034D01*
X74558042Y-36600000D01*
X73841958Y-36600000D01*
X73180382Y-36874034D01*
X72674034Y-37380382D01*
X72400000Y-38041958D01*
X69600000Y-38041958D01*
X69325966Y-37380382D01*
X68819618Y-36874034D01*
X68158042Y-36600000D01*
X67441958Y-36600000D01*
X66780382Y-36874034D01*
X66274034Y-37380382D01*
X66000000Y-38041958D01*
X63200000Y-38041958D01*
X62925966Y-37380382D01*
X62419618Y-36874034D01*
X61758042Y-36600000D01*
X61041958Y-36600000D01*
X60380382Y-36874034D01*
X59874034Y-37380382D01*
X59600000Y-38041958D01*
X56800000Y-38041958D01*
X56525966Y-37380382D01*
X56019618Y-36874034D01*
X55358042Y-36600000D01*
X54641958Y-36600000D01*
X53980382Y-36874034D01*
X53474034Y-37380382D01*
X53200000Y-38041958D01*
X50400000Y-38041958D01*
X50125966Y-37380382D01*
X49619618Y-36874034D01*
X48958042Y-36600000D01*
X48241958Y-36600000D01*
X47580382Y-36874034D01*
X47074034Y-37380382D01*
X46800000Y-38041958D01*
X1475000Y-38041958D01*
X1475000Y-34222610D01*
X20400000Y-34222610D01*
X20400000Y-35177390D01*
X20765378Y-36059491D01*
X21440509Y-36734622D01*
X22322610Y-37100000D01*
X23277390Y-37100000D01*
X24159491Y-36734622D01*
X24834622Y-36059491D01*
X25200000Y-35177390D01*
X25200000Y-34841958D01*
X43600000Y-34841958D01*
X43600000Y-35558042D01*
X43874034Y-36219618D01*
X44380382Y-36725966D01*
X45041958Y-37000000D01*
X45758042Y-37000000D01*
X46419618Y-36725966D01*
X46925966Y-36219618D01*
X47200000Y-35558042D01*
X47200000Y-34841958D01*
X50000000Y-34841958D01*
X50000000Y-35558042D01*
X50274034Y-36219618D01*
X50780382Y-36725966D01*
X51441958Y-37000000D01*
X52158042Y-37000000D01*
X52819618Y-36725966D01*
X53325966Y-36219618D01*
X53600000Y-35558042D01*
X53600000Y-34841958D01*
X56400000Y-34841958D01*
X56400000Y-35558042D01*
X56674034Y-36219618D01*
X57180382Y-36725966D01*
X57841958Y-37000000D01*
X58558042Y-37000000D01*
X59219618Y-36725966D01*
X59725966Y-36219618D01*
X60000000Y-35558042D01*
X60000000Y-34841958D01*
X62800000Y-34841958D01*
X62800000Y-35558042D01*
X63074034Y-36219618D01*
X63580382Y-36725966D01*
X64241958Y-37000000D01*
X64958042Y-37000000D01*
X65619618Y-36725966D01*
X66125966Y-36219618D01*
X66400000Y-35558042D01*
X66400000Y-34841958D01*
X69200000Y-34841958D01*
X69200000Y-35558042D01*
X69474034Y-36219618D01*
X69980382Y-36725966D01*
X70641958Y-37000000D01*
X71358042Y-37000000D01*
X72019618Y-36725966D01*
X72525966Y-36219618D01*
X72800000Y-35558042D01*
X72800000Y-34841958D01*
X75600000Y-34841958D01*
X75600000Y-35558042D01*
X75874034Y-36219618D01*
X76380382Y-36725966D01*
X77041958Y-37000000D01*
X77758042Y-37000000D01*
X78419618Y-36725966D01*
X78925966Y-36219618D01*
X79200000Y-35558042D01*
X79200000Y-34841958D01*
X78925966Y-34180382D01*
X78419618Y-33674034D01*
X77758042Y-33400000D01*
X77041958Y-33400000D01*
X76380382Y-33674034D01*
X75874034Y-34180382D01*
X75600000Y-34841958D01*
X72800000Y-34841958D01*
X72525966Y-34180382D01*
X72019618Y-33674034D01*
X71358042Y-33400000D01*
X70641958Y-33400000D01*
X69980382Y-33674034D01*
X69474034Y-34180382D01*
X69200000Y-34841958D01*
X66400000Y-34841958D01*
X66125966Y-34180382D01*
X65619618Y-33674034D01*
X64958042Y-33400000D01*
X64241958Y-33400000D01*
X63580382Y-33674034D01*
X63074034Y-34180382D01*
X62800000Y-34841958D01*
X60000000Y-34841958D01*
X59725966Y-34180382D01*
X59219618Y-33674034D01*
X58558042Y-33400000D01*
X57841958Y-33400000D01*
X57180382Y-33674034D01*
X56674034Y-34180382D01*
X56400000Y-34841958D01*
X53600000Y-34841958D01*
X53325966Y-34180382D01*
X52819618Y-33674034D01*
X52158042Y-33400000D01*
X51441958Y-33400000D01*
X50780382Y-33674034D01*
X50274034Y-34180382D01*
X50000000Y-34841958D01*
X47200000Y-34841958D01*
X46925966Y-34180382D01*
X46419618Y-33674034D01*
X45758042Y-33400000D01*
X45041958Y-33400000D01*
X44380382Y-33674034D01*
X43874034Y-34180382D01*
X43600000Y-34841958D01*
X25200000Y-34841958D01*
X25200000Y-34222610D01*
X24834622Y-33340509D01*
X24250000Y-32755887D01*
X24250000Y-31641958D01*
X46800000Y-31641958D01*
X46800000Y-32358042D01*
X47074034Y-33019618D01*
X47580382Y-33525966D01*
X48241958Y-33800000D01*
X48958042Y-33800000D01*
X49619618Y-33525966D01*
X50125966Y-33019618D01*
X50400000Y-32358042D01*
X50400000Y-31641958D01*
X53200000Y-31641958D01*
X53200000Y-32358042D01*
X53474034Y-33019618D01*
X53980382Y-33525966D01*
X54641958Y-33800000D01*
X55358042Y-33800000D01*
X56019618Y-33525966D01*
X56525966Y-33019618D01*
X56800000Y-32358042D01*
X56800000Y-31641958D01*
X59600000Y-31641958D01*
X59600000Y-32358042D01*
X59874034Y-33019618D01*
X60380382Y-33525966D01*
X61041958Y-33800000D01*
X61758042Y-33800000D01*
X62419618Y-33525966D01*
X62925966Y-33019618D01*
X63200000Y-32358042D01*
X63200000Y-31641958D01*
X66000000Y-31641958D01*
X66000000Y-32358042D01*
X66274034Y-33019618D01*
X66780382Y-33525966D01*
X67441958Y-33800000D01*
X68158042Y-33800000D01*
X68819618Y-33525966D01*
X69325966Y-33019618D01*
X69600000Y-32358042D01*
X69600000Y-31641958D01*
X72400000Y-31641958D01*
X72400000Y-32358042D01*
X72674034Y-33019618D01*
X73180382Y-33525966D01*
X73841958Y-33800000D01*
X74558042Y-33800000D01*
X75219618Y-33525966D01*
X75725966Y-33019618D01*
X76000000Y-32358042D01*
X76000000Y-31641958D01*
X75725966Y-30980382D01*
X75219618Y-30474034D01*
X74558042Y-30200000D01*
X73841958Y-30200000D01*
X73180382Y-30474034D01*
X72674034Y-30980382D01*
X72400000Y-31641958D01*
X69600000Y-31641958D01*
X69325966Y-30980382D01*
X68819618Y-30474034D01*
X68158042Y-30200000D01*
X67441958Y-30200000D01*
X66780382Y-30474034D01*
X66274034Y-30980382D01*
X66000000Y-31641958D01*
X63200000Y-31641958D01*
X62925966Y-30980382D01*
X62419618Y-30474034D01*
X61758042Y-30200000D01*
X61041958Y-30200000D01*
X60380382Y-30474034D01*
X59874034Y-30980382D01*
X59600000Y-31641958D01*
X56800000Y-31641958D01*
X56525966Y-30980382D01*
X56019618Y-30474034D01*
X55358042Y-30200000D01*
X54641958Y-30200000D01*
X53980382Y-30474034D01*
X53474034Y-30980382D01*
X53200000Y-31641958D01*
X50400000Y-31641958D01*
X50125966Y-30980382D01*
X49619618Y-30474034D01*
X48958042Y-30200000D01*
X48241958Y-30200000D01*
X47580382Y-30474034D01*
X47074034Y-30980382D01*
X46800000Y-31641958D01*
X24250000Y-31641958D01*
X24250000Y-31497440D01*
X24338384Y-31438384D01*
X24426791Y-31306072D01*
X24457836Y-31150000D01*
X24457836Y-30250000D01*
X24426791Y-30093928D01*
X24338384Y-29961616D01*
X24206072Y-29873209D01*
X24050000Y-29842164D01*
X23000000Y-29842164D01*
X22843928Y-29873209D01*
X22711616Y-29961616D01*
X22697872Y-29982186D01*
X22626582Y-29910896D01*
X22479565Y-29850000D01*
X22237500Y-29850000D01*
X22137500Y-29950000D01*
X22137500Y-30475000D01*
X22195000Y-30475000D01*
X22195000Y-30925000D01*
X22137500Y-30925000D01*
X22137500Y-31450000D01*
X22237500Y-31550000D01*
X22479565Y-31550000D01*
X22626582Y-31489104D01*
X22697872Y-31417814D01*
X22711616Y-31438384D01*
X22843928Y-31526791D01*
X23000000Y-31557836D01*
X23050000Y-31557836D01*
X23050001Y-32300000D01*
X22322610Y-32300000D01*
X21440509Y-32665378D01*
X20765378Y-33340509D01*
X20400000Y-34222610D01*
X1475000Y-34222610D01*
X1475000Y-31025000D01*
X20950000Y-31025000D01*
X20950000Y-31229565D01*
X21010896Y-31376582D01*
X21123418Y-31489104D01*
X21270435Y-31550000D01*
X21512500Y-31550000D01*
X21612500Y-31450000D01*
X21612500Y-30925000D01*
X21050000Y-30925000D01*
X20950000Y-31025000D01*
X1475000Y-31025000D01*
X1475000Y-30170435D01*
X20950000Y-30170435D01*
X20950000Y-30375000D01*
X21050000Y-30475000D01*
X21612500Y-30475000D01*
X21612500Y-29950000D01*
X21512500Y-29850000D01*
X21270435Y-29850000D01*
X21123418Y-29910896D01*
X21010896Y-30023418D01*
X20950000Y-30170435D01*
X1475000Y-30170435D01*
X1475000Y-25322610D01*
X13200000Y-25322610D01*
X13200000Y-26277390D01*
X13565378Y-27159491D01*
X14240509Y-27834622D01*
X15122610Y-28200000D01*
X16077390Y-28200000D01*
X16959491Y-27834622D01*
X17634622Y-27159491D01*
X18000000Y-26277390D01*
X18000000Y-25447500D01*
X19024595Y-25447500D01*
X19024709Y-25448072D01*
X19113116Y-25580384D01*
X19245428Y-25668791D01*
X19401500Y-25699836D01*
X20798500Y-25699836D01*
X20954572Y-25668791D01*
X21086884Y-25580384D01*
X21175291Y-25448072D01*
X21175405Y-25447500D01*
X21842164Y-25447500D01*
X21842164Y-25500000D01*
X21873209Y-25656072D01*
X21961616Y-25788384D01*
X21979001Y-25800000D01*
X21961616Y-25811616D01*
X21873209Y-25943928D01*
X21842164Y-26100000D01*
X21842164Y-26152500D01*
X21175405Y-26152500D01*
X21175291Y-26151928D01*
X21086884Y-26019616D01*
X20954572Y-25931209D01*
X20798500Y-25900164D01*
X19401500Y-25900164D01*
X19245428Y-25931209D01*
X19113116Y-26019616D01*
X19024709Y-26151928D01*
X18993664Y-26308000D01*
X18993664Y-27197000D01*
X19024709Y-27353072D01*
X19113116Y-27485384D01*
X19245428Y-27573791D01*
X19401500Y-27604836D01*
X20798500Y-27604836D01*
X20954572Y-27573791D01*
X21086884Y-27485384D01*
X21175291Y-27353072D01*
X21175405Y-27352500D01*
X21904231Y-27352500D01*
X21961616Y-27438384D01*
X22093928Y-27526791D01*
X22100001Y-27527999D01*
X22100000Y-27902560D01*
X22011616Y-27961616D01*
X21923209Y-28093928D01*
X21892164Y-28250000D01*
X21892164Y-29150000D01*
X21923209Y-29306072D01*
X22011616Y-29438384D01*
X22143928Y-29526791D01*
X22300000Y-29557836D01*
X23100000Y-29557836D01*
X23256072Y-29526791D01*
X23388384Y-29438384D01*
X23476791Y-29306072D01*
X23507836Y-29150000D01*
X23507836Y-28441958D01*
X43600000Y-28441958D01*
X43600000Y-29158042D01*
X43874034Y-29819618D01*
X44380382Y-30325966D01*
X45041958Y-30600000D01*
X45758042Y-30600000D01*
X46419618Y-30325966D01*
X46925966Y-29819618D01*
X47200000Y-29158042D01*
X47200000Y-28441958D01*
X50000000Y-28441958D01*
X50000000Y-29158042D01*
X50274034Y-29819618D01*
X50780382Y-30325966D01*
X51441958Y-30600000D01*
X52158042Y-30600000D01*
X52819618Y-30325966D01*
X53325966Y-29819618D01*
X53600000Y-29158042D01*
X53600000Y-28441958D01*
X56400000Y-28441958D01*
X56400000Y-29158042D01*
X56674034Y-29819618D01*
X57180382Y-30325966D01*
X57841958Y-30600000D01*
X58558042Y-30600000D01*
X59219618Y-30325966D01*
X59725966Y-29819618D01*
X60000000Y-29158042D01*
X60000000Y-28441958D01*
X62800000Y-28441958D01*
X62800000Y-29158042D01*
X63074034Y-29819618D01*
X63580382Y-30325966D01*
X64241958Y-30600000D01*
X64958042Y-30600000D01*
X65619618Y-30325966D01*
X66125966Y-29819618D01*
X66400000Y-29158042D01*
X66400000Y-28441958D01*
X69200000Y-28441958D01*
X69200000Y-29158042D01*
X69474034Y-29819618D01*
X69980382Y-30325966D01*
X70641958Y-30600000D01*
X71358042Y-30600000D01*
X72019618Y-30325966D01*
X72525966Y-29819618D01*
X72800000Y-29158042D01*
X72800000Y-28441958D01*
X75600000Y-28441958D01*
X75600000Y-29158042D01*
X75874034Y-29819618D01*
X76380382Y-30325966D01*
X77041958Y-30600000D01*
X77758042Y-30600000D01*
X78419618Y-30325966D01*
X78925966Y-29819618D01*
X79200000Y-29158042D01*
X79200000Y-28441958D01*
X78925966Y-27780382D01*
X78419618Y-27274034D01*
X77758042Y-27000000D01*
X77041958Y-27000000D01*
X76380382Y-27274034D01*
X75874034Y-27780382D01*
X75600000Y-28441958D01*
X72800000Y-28441958D01*
X72525966Y-27780382D01*
X72019618Y-27274034D01*
X71358042Y-27000000D01*
X70641958Y-27000000D01*
X69980382Y-27274034D01*
X69474034Y-27780382D01*
X69200000Y-28441958D01*
X66400000Y-28441958D01*
X66125966Y-27780382D01*
X65619618Y-27274034D01*
X64958042Y-27000000D01*
X64241958Y-27000000D01*
X63580382Y-27274034D01*
X63074034Y-27780382D01*
X62800000Y-28441958D01*
X60000000Y-28441958D01*
X59725966Y-27780382D01*
X59219618Y-27274034D01*
X58558042Y-27000000D01*
X57841958Y-27000000D01*
X57180382Y-27274034D01*
X56674034Y-27780382D01*
X56400000Y-28441958D01*
X53600000Y-28441958D01*
X53325966Y-27780382D01*
X52819618Y-27274034D01*
X52158042Y-27000000D01*
X51441958Y-27000000D01*
X50780382Y-27274034D01*
X50274034Y-27780382D01*
X50000000Y-28441958D01*
X47200000Y-28441958D01*
X46925966Y-27780382D01*
X46419618Y-27274034D01*
X45758042Y-27000000D01*
X45041958Y-27000000D01*
X44380382Y-27274034D01*
X43874034Y-27780382D01*
X43600000Y-28441958D01*
X23507836Y-28441958D01*
X23507836Y-28250000D01*
X23476791Y-28093928D01*
X23388384Y-27961616D01*
X23300000Y-27902560D01*
X23300000Y-27527999D01*
X23306072Y-27526791D01*
X23438384Y-27438384D01*
X23526791Y-27306072D01*
X23557836Y-27150000D01*
X23557836Y-26100000D01*
X23526791Y-25943928D01*
X23438384Y-25811616D01*
X23420999Y-25800000D01*
X23438384Y-25788384D01*
X23526791Y-25656072D01*
X23557836Y-25500000D01*
X23557836Y-25400000D01*
X23842164Y-25400000D01*
X23842164Y-26200000D01*
X23873209Y-26356072D01*
X23961616Y-26488384D01*
X24093928Y-26576791D01*
X24250000Y-26607836D01*
X25150000Y-26607836D01*
X25306072Y-26576791D01*
X25438384Y-26488384D01*
X25497440Y-26400000D01*
X26750787Y-26400000D01*
X27065378Y-27159491D01*
X27740509Y-27834622D01*
X28622610Y-28200000D01*
X29577390Y-28200000D01*
X30459491Y-27834622D01*
X31134622Y-27159491D01*
X31500000Y-26277390D01*
X31500000Y-25322610D01*
X31466593Y-25241958D01*
X46800000Y-25241958D01*
X46800000Y-25958042D01*
X47074034Y-26619618D01*
X47580382Y-27125966D01*
X48241958Y-27400000D01*
X48958042Y-27400000D01*
X49619618Y-27125966D01*
X50125966Y-26619618D01*
X50400000Y-25958042D01*
X50400000Y-25241958D01*
X53200000Y-25241958D01*
X53200000Y-25958042D01*
X53474034Y-26619618D01*
X53980382Y-27125966D01*
X54641958Y-27400000D01*
X55358042Y-27400000D01*
X56019618Y-27125966D01*
X56525966Y-26619618D01*
X56800000Y-25958042D01*
X56800000Y-25241958D01*
X59600000Y-25241958D01*
X59600000Y-25958042D01*
X59874034Y-26619618D01*
X60380382Y-27125966D01*
X61041958Y-27400000D01*
X61758042Y-27400000D01*
X62419618Y-27125966D01*
X62925966Y-26619618D01*
X63200000Y-25958042D01*
X63200000Y-25241958D01*
X66000000Y-25241958D01*
X66000000Y-25958042D01*
X66274034Y-26619618D01*
X66780382Y-27125966D01*
X67441958Y-27400000D01*
X68158042Y-27400000D01*
X68819618Y-27125966D01*
X69325966Y-26619618D01*
X69600000Y-25958042D01*
X69600000Y-25241958D01*
X72400000Y-25241958D01*
X72400000Y-25958042D01*
X72674034Y-26619618D01*
X73180382Y-27125966D01*
X73841958Y-27400000D01*
X74558042Y-27400000D01*
X75219618Y-27125966D01*
X75725966Y-26619618D01*
X76000000Y-25958042D01*
X76000000Y-25241958D01*
X75725966Y-24580382D01*
X75219618Y-24074034D01*
X74558042Y-23800000D01*
X73841958Y-23800000D01*
X73180382Y-24074034D01*
X72674034Y-24580382D01*
X72400000Y-25241958D01*
X69600000Y-25241958D01*
X69325966Y-24580382D01*
X68819618Y-24074034D01*
X68158042Y-23800000D01*
X67441958Y-23800000D01*
X66780382Y-24074034D01*
X66274034Y-24580382D01*
X66000000Y-25241958D01*
X63200000Y-25241958D01*
X62925966Y-24580382D01*
X62419618Y-24074034D01*
X61758042Y-23800000D01*
X61041958Y-23800000D01*
X60380382Y-24074034D01*
X59874034Y-24580382D01*
X59600000Y-25241958D01*
X56800000Y-25241958D01*
X56525966Y-24580382D01*
X56019618Y-24074034D01*
X55358042Y-23800000D01*
X54641958Y-23800000D01*
X53980382Y-24074034D01*
X53474034Y-24580382D01*
X53200000Y-25241958D01*
X50400000Y-25241958D01*
X50125966Y-24580382D01*
X49619618Y-24074034D01*
X48958042Y-23800000D01*
X48241958Y-23800000D01*
X47580382Y-24074034D01*
X47074034Y-24580382D01*
X46800000Y-25241958D01*
X31466593Y-25241958D01*
X31134622Y-24440509D01*
X30459491Y-23765378D01*
X29577390Y-23400000D01*
X28622610Y-23400000D01*
X27740509Y-23765378D01*
X27065378Y-24440509D01*
X26750787Y-25200000D01*
X25497440Y-25200000D01*
X25438384Y-25111616D01*
X25306072Y-25023209D01*
X25150000Y-24992164D01*
X24250000Y-24992164D01*
X24093928Y-25023209D01*
X23961616Y-25111616D01*
X23873209Y-25243928D01*
X23842164Y-25400000D01*
X23557836Y-25400000D01*
X23557836Y-24450000D01*
X23526791Y-24293928D01*
X23438384Y-24161616D01*
X23306072Y-24073209D01*
X23150000Y-24042164D01*
X22250000Y-24042164D01*
X22093928Y-24073209D01*
X21961616Y-24161616D01*
X21904231Y-24247500D01*
X21175405Y-24247500D01*
X21175291Y-24246928D01*
X21086884Y-24114616D01*
X20954572Y-24026209D01*
X20798500Y-23995164D01*
X19401500Y-23995164D01*
X19245428Y-24026209D01*
X19113116Y-24114616D01*
X19024709Y-24246928D01*
X19024595Y-24247500D01*
X17441613Y-24247500D01*
X16959491Y-23765378D01*
X16077390Y-23400000D01*
X15122610Y-23400000D01*
X14240509Y-23765378D01*
X13565378Y-24440509D01*
X13200000Y-25322610D01*
X1475000Y-25322610D01*
X1475000Y-22041958D01*
X50000000Y-22041958D01*
X50000000Y-22758042D01*
X50274034Y-23419618D01*
X50780382Y-23925966D01*
X51441958Y-24200000D01*
X52158042Y-24200000D01*
X52819618Y-23925966D01*
X53325966Y-23419618D01*
X53600000Y-22758042D01*
X53600000Y-22041958D01*
X56400000Y-22041958D01*
X56400000Y-22758042D01*
X56674034Y-23419618D01*
X57180382Y-23925966D01*
X57841958Y-24200000D01*
X58558042Y-24200000D01*
X59219618Y-23925966D01*
X59725966Y-23419618D01*
X60000000Y-22758042D01*
X60000000Y-22041958D01*
X62800000Y-22041958D01*
X62800000Y-22758042D01*
X63074034Y-23419618D01*
X63580382Y-23925966D01*
X64241958Y-24200000D01*
X64958042Y-24200000D01*
X65619618Y-23925966D01*
X66125966Y-23419618D01*
X66400000Y-22758042D01*
X66400000Y-22041958D01*
X69200000Y-22041958D01*
X69200000Y-22758042D01*
X69474034Y-23419618D01*
X69980382Y-23925966D01*
X70641958Y-24200000D01*
X71358042Y-24200000D01*
X72019618Y-23925966D01*
X72525966Y-23419618D01*
X72800000Y-22758042D01*
X72800000Y-22041958D01*
X72525966Y-21380382D01*
X72019618Y-20874034D01*
X71358042Y-20600000D01*
X70641958Y-20600000D01*
X69980382Y-20874034D01*
X69474034Y-21380382D01*
X69200000Y-22041958D01*
X66400000Y-22041958D01*
X66125966Y-21380382D01*
X65619618Y-20874034D01*
X64958042Y-20600000D01*
X64241958Y-20600000D01*
X63580382Y-20874034D01*
X63074034Y-21380382D01*
X62800000Y-22041958D01*
X60000000Y-22041958D01*
X59725966Y-21380382D01*
X59219618Y-20874034D01*
X58558042Y-20600000D01*
X57841958Y-20600000D01*
X57180382Y-20874034D01*
X56674034Y-21380382D01*
X56400000Y-22041958D01*
X53600000Y-22041958D01*
X53325966Y-21380382D01*
X52819618Y-20874034D01*
X52158042Y-20600000D01*
X51441958Y-20600000D01*
X50780382Y-20874034D01*
X50274034Y-21380382D01*
X50000000Y-22041958D01*
X1475000Y-22041958D01*
X1475000Y-21158112D01*
X14166152Y-21158112D01*
X14415233Y-21441082D01*
X15324775Y-21731492D01*
X16276217Y-21651730D01*
X16784767Y-21441082D01*
X17033848Y-21158112D01*
X27666152Y-21158112D01*
X27915233Y-21441082D01*
X28824775Y-21731492D01*
X29776217Y-21651730D01*
X30284767Y-21441082D01*
X30533848Y-21158112D01*
X29100000Y-19724264D01*
X27666152Y-21158112D01*
X17033848Y-21158112D01*
X15600000Y-19724264D01*
X14166152Y-21158112D01*
X1475000Y-21158112D01*
X1475000Y-19024775D01*
X13168508Y-19024775D01*
X13248270Y-19976217D01*
X13458918Y-20484767D01*
X13741888Y-20733848D01*
X15175736Y-19300000D01*
X16024264Y-19300000D01*
X17458112Y-20733848D01*
X17741082Y-20484767D01*
X18031492Y-19575225D01*
X17985347Y-19024775D01*
X26668508Y-19024775D01*
X26748270Y-19976217D01*
X26958918Y-20484767D01*
X27241888Y-20733848D01*
X28675736Y-19300000D01*
X29524264Y-19300000D01*
X30958112Y-20733848D01*
X31241082Y-20484767D01*
X31531492Y-19575225D01*
X31470021Y-18841958D01*
X53200000Y-18841958D01*
X53200000Y-19558042D01*
X53474034Y-20219618D01*
X53980382Y-20725966D01*
X54641958Y-21000000D01*
X55358042Y-21000000D01*
X56019618Y-20725966D01*
X56525966Y-20219618D01*
X56800000Y-19558042D01*
X56800000Y-18841958D01*
X59600000Y-18841958D01*
X59600000Y-19558042D01*
X59874034Y-20219618D01*
X60380382Y-20725966D01*
X61041958Y-21000000D01*
X61758042Y-21000000D01*
X62419618Y-20725966D01*
X62925966Y-20219618D01*
X63200000Y-19558042D01*
X63200000Y-18841958D01*
X66000000Y-18841958D01*
X66000000Y-19558042D01*
X66274034Y-20219618D01*
X66780382Y-20725966D01*
X67441958Y-21000000D01*
X68158042Y-21000000D01*
X68819618Y-20725966D01*
X69325966Y-20219618D01*
X69600000Y-19558042D01*
X69600000Y-18841958D01*
X69325966Y-18180382D01*
X68819618Y-17674034D01*
X68158042Y-17400000D01*
X67441958Y-17400000D01*
X66780382Y-17674034D01*
X66274034Y-18180382D01*
X66000000Y-18841958D01*
X63200000Y-18841958D01*
X62925966Y-18180382D01*
X62419618Y-17674034D01*
X61758042Y-17400000D01*
X61041958Y-17400000D01*
X60380382Y-17674034D01*
X59874034Y-18180382D01*
X59600000Y-18841958D01*
X56800000Y-18841958D01*
X56525966Y-18180382D01*
X56019618Y-17674034D01*
X55358042Y-17400000D01*
X54641958Y-17400000D01*
X53980382Y-17674034D01*
X53474034Y-18180382D01*
X53200000Y-18841958D01*
X31470021Y-18841958D01*
X31451730Y-18623783D01*
X31241082Y-18115233D01*
X30958112Y-17866152D01*
X29524264Y-19300000D01*
X28675736Y-19300000D01*
X27241888Y-17866152D01*
X26958918Y-18115233D01*
X26668508Y-19024775D01*
X17985347Y-19024775D01*
X17951730Y-18623783D01*
X17741082Y-18115233D01*
X17458112Y-17866152D01*
X16024264Y-19300000D01*
X15175736Y-19300000D01*
X13741888Y-17866152D01*
X13458918Y-18115233D01*
X13168508Y-19024775D01*
X1475000Y-19024775D01*
X1475000Y-17441888D01*
X14166152Y-17441888D01*
X15600000Y-18875736D01*
X17033848Y-17441888D01*
X27666152Y-17441888D01*
X29100000Y-18875736D01*
X30533848Y-17441888D01*
X30284767Y-17158918D01*
X29375225Y-16868508D01*
X28423783Y-16948270D01*
X27915233Y-17158918D01*
X27666152Y-17441888D01*
X17033848Y-17441888D01*
X16784767Y-17158918D01*
X15875225Y-16868508D01*
X14923783Y-16948270D01*
X14415233Y-17158918D01*
X14166152Y-17441888D01*
X1475000Y-17441888D01*
X1475000Y-15492774D01*
X42850000Y-15492774D01*
X42850000Y-16507226D01*
X43238215Y-17444459D01*
X43955541Y-18161785D01*
X44892774Y-18550000D01*
X45907226Y-18550000D01*
X46844459Y-18161785D01*
X47561785Y-17444459D01*
X47950000Y-16507226D01*
X47950000Y-15641958D01*
X56400000Y-15641958D01*
X56400000Y-16358042D01*
X56674034Y-17019618D01*
X57180382Y-17525966D01*
X57841958Y-17800000D01*
X58558042Y-17800000D01*
X59219618Y-17525966D01*
X59725966Y-17019618D01*
X60000000Y-16358042D01*
X60000000Y-15641958D01*
X62800000Y-15641958D01*
X62800000Y-16358042D01*
X63074034Y-17019618D01*
X63580382Y-17525966D01*
X64241958Y-17800000D01*
X64958042Y-17800000D01*
X65619618Y-17525966D01*
X66125966Y-17019618D01*
X66400000Y-16358042D01*
X66400000Y-15641958D01*
X66338206Y-15492774D01*
X74850000Y-15492774D01*
X74850000Y-16507226D01*
X75238215Y-17444459D01*
X75955541Y-18161785D01*
X76892774Y-18550000D01*
X77907226Y-18550000D01*
X78844459Y-18161785D01*
X79561785Y-17444459D01*
X79950000Y-16507226D01*
X79950000Y-15492774D01*
X79561785Y-14555541D01*
X78844459Y-13838215D01*
X77907226Y-13450000D01*
X76892774Y-13450000D01*
X75955541Y-13838215D01*
X75238215Y-14555541D01*
X74850000Y-15492774D01*
X66338206Y-15492774D01*
X66125966Y-14980382D01*
X65619618Y-14474034D01*
X64958042Y-14200000D01*
X64241958Y-14200000D01*
X63580382Y-14474034D01*
X63074034Y-14980382D01*
X62800000Y-15641958D01*
X60000000Y-15641958D01*
X59725966Y-14980382D01*
X59219618Y-14474034D01*
X58558042Y-14200000D01*
X57841958Y-14200000D01*
X57180382Y-14474034D01*
X56674034Y-14980382D01*
X56400000Y-15641958D01*
X47950000Y-15641958D01*
X47950000Y-15492774D01*
X47561785Y-14555541D01*
X46844459Y-13838215D01*
X45907226Y-13450000D01*
X44892774Y-13450000D01*
X43955541Y-13838215D01*
X43238215Y-14555541D01*
X42850000Y-15492774D01*
X1475000Y-15492774D01*
X1475000Y-13075601D01*
X85850000Y-13075601D01*
X85850000Y-15124399D01*
X86634041Y-17017240D01*
X88082760Y-18465959D01*
X89975601Y-19250000D01*
X92024399Y-19250000D01*
X93917240Y-18465959D01*
X95365959Y-17017240D01*
X96150000Y-15124399D01*
X96150000Y-13075601D01*
X95365959Y-11182760D01*
X93917240Y-9734041D01*
X92024399Y-8950000D01*
X89975601Y-8950000D01*
X88082760Y-9734041D01*
X86634041Y-11182760D01*
X85850000Y-13075601D01*
X1475000Y-13075601D01*
X1475000Y-10563856D01*
X1483085Y-10534332D01*
X1475000Y-10470196D01*
X1475000Y-10453221D01*
X1469158Y-10423851D01*
X1459451Y-10346849D01*
X1450834Y-10331733D01*
X1447439Y-10314665D01*
X1404311Y-10250120D01*
X1365869Y-10182682D01*
X1352122Y-10172013D01*
X1342455Y-10157545D01*
X1277914Y-10114420D01*
X1254266Y-10096067D01*
X1239091Y-10088479D01*
X1185335Y-10052561D01*
X1155309Y-10046588D01*
X475000Y-9706434D01*
X475000Y-7459242D01*
X35100000Y-7459242D01*
X35100000Y-9010758D01*
X35693739Y-10444173D01*
X36790827Y-11541261D01*
X38224242Y-12135000D01*
X39775758Y-12135000D01*
X41209173Y-11541261D01*
X42306261Y-10444173D01*
X42900000Y-9010758D01*
X42900000Y-7459242D01*
X67100000Y-7459242D01*
X67100000Y-9010758D01*
X67693739Y-10444173D01*
X68790827Y-11541261D01*
X70224242Y-12135000D01*
X71775758Y-12135000D01*
X73209173Y-11541261D01*
X74306261Y-10444173D01*
X74900000Y-9010758D01*
X74900000Y-7459242D01*
X74306261Y-6025827D01*
X73209173Y-4928739D01*
X71775758Y-4335000D01*
X70224242Y-4335000D01*
X68790827Y-4928739D01*
X67693739Y-6025827D01*
X67100000Y-7459242D01*
X42900000Y-7459242D01*
X42306261Y-6025827D01*
X41209173Y-4928739D01*
X39775758Y-4335000D01*
X38224242Y-4335000D01*
X36790827Y-4928739D01*
X35693739Y-6025827D01*
X35100000Y-7459242D01*
X475000Y-7459242D01*
X475000Y-2033842D01*
X540949Y-1573342D01*
X719342Y-1180986D01*
X1000688Y-854468D01*
X1362368Y-620039D01*
X1791043Y-491838D01*
X2017626Y-475000D01*
X103966158Y-475000D01*
X104426658Y-540949D01*
G04 #@! TD*
M02*
