G04 #@! TF.GenerationSoftware,KiCad,Pcbnew,5.0.2-bee76a0~70~ubuntu16.04.1*
G04 #@! TF.CreationDate,2019-08-24T22:06:37-07:00*
G04 #@! TF.ProjectId,endcap,656e6463-6170-42e6-9b69-6361645f7063,rev?*
G04 #@! TF.SameCoordinates,PX2faf080PY2faf080*
G04 #@! TF.FileFunction,Other,ECO1*
%FSLAX46Y46*%
G04 Gerber Fmt 4.6, Leading zero omitted, Abs format (unit mm)*
G04 Created by KiCad (PCBNEW 5.0.2-bee76a0~70~ubuntu16.04.1) date Sat 24 Aug 2019 10:06:37 PM PDT*
%MOMM*%
%LPD*%
G01*
G04 APERTURE LIST*
%ADD10C,0.500000*%
%ADD11C,0.300000*%
G04 APERTURE END LIST*
D10*
X39000000Y-27080952D02*
X39000000Y-30880952D01*
X39000000Y-29071428D02*
X36828571Y-29071428D01*
X36828571Y-27080952D02*
X36828571Y-30880952D01*
X33571428Y-27261904D02*
X33933333Y-27080952D01*
X34657142Y-27080952D01*
X35019047Y-27261904D01*
X35200000Y-27623809D01*
X35200000Y-29071428D01*
X35019047Y-29433333D01*
X34657142Y-29614285D01*
X33933333Y-29614285D01*
X33571428Y-29433333D01*
X33390476Y-29071428D01*
X33390476Y-28709523D01*
X35200000Y-28347619D01*
X31761904Y-27080952D02*
X31761904Y-29614285D01*
X31761904Y-28890476D02*
X31580952Y-29252380D01*
X31400000Y-29433333D01*
X31038095Y-29614285D01*
X30676190Y-29614285D01*
X29409523Y-27080952D02*
X29409523Y-29614285D01*
X29409523Y-29252380D02*
X29228571Y-29433333D01*
X28866666Y-29614285D01*
X28323809Y-29614285D01*
X27961904Y-29433333D01*
X27780952Y-29071428D01*
X27780952Y-27080952D01*
X27780952Y-29071428D02*
X27600000Y-29433333D01*
X27238095Y-29614285D01*
X26695238Y-29614285D01*
X26333333Y-29433333D01*
X26152380Y-29071428D01*
X26152380Y-27080952D01*
X22895238Y-27261904D02*
X23257142Y-27080952D01*
X23980952Y-27080952D01*
X24342857Y-27261904D01*
X24523809Y-27623809D01*
X24523809Y-29071428D01*
X24342857Y-29433333D01*
X23980952Y-29614285D01*
X23257142Y-29614285D01*
X22895238Y-29433333D01*
X22714285Y-29071428D01*
X22714285Y-28709523D01*
X24523809Y-28347619D01*
X21266666Y-27261904D02*
X20904761Y-27080952D01*
X20180952Y-27080952D01*
X19819047Y-27261904D01*
X19638095Y-27623809D01*
X19638095Y-27804761D01*
X19819047Y-28166666D01*
X20180952Y-28347619D01*
X20723809Y-28347619D01*
X21085714Y-28528571D01*
X21266666Y-28890476D01*
X21266666Y-29071428D01*
X21085714Y-29433333D01*
X20723809Y-29614285D01*
X20180952Y-29614285D01*
X19819047Y-29433333D01*
X18009523Y-28528571D02*
X15114285Y-28528571D01*
X11495238Y-27080952D02*
X13304761Y-27080952D01*
X13304761Y-30880952D01*
X10228571Y-27080952D02*
X10228571Y-29614285D01*
X10228571Y-30880952D02*
X10409523Y-30700000D01*
X10228571Y-30519047D01*
X10047619Y-30700000D01*
X10228571Y-30880952D01*
X10228571Y-30519047D01*
X8961904Y-29614285D02*
X7514285Y-29614285D01*
X8419047Y-30880952D02*
X8419047Y-27623809D01*
X8238095Y-27261904D01*
X7876190Y-27080952D01*
X7514285Y-27080952D01*
X4800000Y-27261904D02*
X5161904Y-27080952D01*
X5885714Y-27080952D01*
X6247619Y-27261904D01*
X6428571Y-27623809D01*
X6428571Y-29071428D01*
X6247619Y-29433333D01*
X5885714Y-29614285D01*
X5161904Y-29614285D01*
X4800000Y-29433333D01*
X4619047Y-29071428D01*
X4619047Y-28709523D01*
X6428571Y-28347619D01*
D11*
X95880952Y-22078571D02*
X95047619Y-22078571D01*
X94690476Y-20769047D02*
X95880952Y-20769047D01*
X95880952Y-23269047D01*
X94690476Y-23269047D01*
X93857142Y-23269047D02*
X92190476Y-20769047D01*
X92190476Y-23269047D02*
X93857142Y-20769047D01*
X91595238Y-23269047D02*
X90166666Y-23269047D01*
X90880952Y-20769047D02*
X90880952Y-23269047D01*
X89690476Y-23269047D02*
X88261904Y-23269047D01*
X88976190Y-20769047D02*
X88976190Y-23269047D01*
X86000000Y-20769047D02*
X86833333Y-21959523D01*
X87428571Y-20769047D02*
X87428571Y-23269047D01*
X86476190Y-23269047D01*
X86238095Y-23150000D01*
X86119047Y-23030952D01*
X86000000Y-22792857D01*
X86000000Y-22435714D01*
X86119047Y-22197619D01*
X86238095Y-22078571D01*
X86476190Y-21959523D01*
X87428571Y-21959523D01*
X49857142Y-7818333D02*
X48666666Y-7818333D01*
X50095238Y-7104047D02*
X49261904Y-9604047D01*
X48428571Y-7104047D01*
X47595238Y-7104047D02*
X47595238Y-9604047D01*
X46166666Y-7104047D01*
X46166666Y-9604047D01*
X45333333Y-9604047D02*
X43904761Y-9604047D01*
X44619047Y-7104047D02*
X44619047Y-9604047D01*
X80488095Y-7104047D02*
X81321428Y-8294523D01*
X81916666Y-7104047D02*
X81916666Y-9604047D01*
X80964285Y-9604047D01*
X80726190Y-9485000D01*
X80607142Y-9365952D01*
X80488095Y-9127857D01*
X80488095Y-8770714D01*
X80607142Y-8532619D01*
X80726190Y-8413571D01*
X80964285Y-8294523D01*
X81916666Y-8294523D01*
X78583333Y-8413571D02*
X79416666Y-8413571D01*
X79416666Y-7104047D02*
X79416666Y-9604047D01*
X78226190Y-9604047D01*
X75964285Y-7104047D02*
X77392857Y-7104047D01*
X76678571Y-7104047D02*
X76678571Y-9604047D01*
X76916666Y-9246904D01*
X77154761Y-9008809D01*
X77392857Y-8889761D01*
M02*
