M48
; DRILL file {KiCad (5.1.8)-1} date 12/19/20 14:33:01
; FORMAT={-:-/ absolute / inch / decimal}
; #@! TF.CreationDate,2020-12-19T14:33:01-06:00
; #@! TF.GenerationSoftware,Kicad,Pcbnew,(5.1.8)-1
FMAT,2
INCH
T1C0.0157
T2C0.0520
T3C0.1339
T4C0.1201
T5C0.1260
T6C0.2756
T7C0.3740
T8C1.1220
%
G90
G05
T1
X1.1732Y-1.3465
X1.1929Y-0.8228
X1.2795Y-1.4528
X1.5197Y-1.0787
X1.5354Y-1.9252
X1.5748Y-1.4528
X1.5984Y-1.2598
X1.6496Y-0.815
X1.8622Y-1.4528
X1.8858Y-1.3268
X2.1496Y-1.4528
X2.1732Y-1.3268
X2.2362Y-0.9213
X2.3268Y-0.8937
X2.437Y-1.4528
X2.4606Y-1.3268
X2.5118Y-1.0039
X2.7047Y-1.2717
X2.7165Y-1.9291
T2
X1.6929Y-1.9488
X1.7929Y-1.9488
X1.8929Y-1.9488
X1.9929Y-1.9488
X2.0929Y-1.9488
X2.1929Y-1.9488
X2.2929Y-1.9488
X2.3929Y-1.9488
X2.4929Y-1.9488
X1.9622Y-0.626
X2.0622Y-0.626
X2.1622Y-0.626
X2.2622Y-0.626
X2.3622Y-0.626
T4
X0.5315Y-0.5906
X0.5315Y-1.5748
T5
X2.874Y-0.8858
X2.874Y-1.8307
X3.8189Y-0.8858
X3.8189Y-1.8307
T6
X1.5354Y-0.3242
X2.7953Y-0.3242
T7
X3.5827Y-0.5551
T8
X3.3465Y-1.3583
T3
G00X0.187Y-0.1476
M15
G01X0.1969Y-0.1476
M16
G05
G00X3.9764Y-2.0177
M15
G01X3.9862Y-2.0177
M16
G05
G00X0.187Y-2.0177
M15
G01X0.1969Y-2.0177
M16
G05
G00X3.9764Y-0.1476
M15
G01X3.9862Y-0.1476
M16
G05
T0
M30
