G04 #@! TF.GenerationSoftware,KiCad,Pcbnew,(5.1.8)-1*
G04 #@! TF.CreationDate,2020-12-19T14:32:43-06:00*
G04 #@! TF.ProjectId,endcap,656e6463-6170-42e6-9b69-6361645f7063,2.1*
G04 #@! TF.SameCoordinates,PX2faf080PY2faf080*
G04 #@! TF.FileFunction,Soldermask,Bot*
G04 #@! TF.FilePolarity,Negative*
%FSLAX46Y46*%
G04 Gerber Fmt 4.6, Leading zero omitted, Abs format (unit mm)*
G04 Created by KiCad (PCBNEW (5.1.8)-1) date 2020-12-19 14:32:43*
%MOMM*%
%LPD*%
G01*
G04 APERTURE LIST*
%ADD10C,28.602000*%
%ADD11C,3.302000*%
%ADD12C,9.602000*%
%ADD13C,7.102000*%
%ADD14C,3.152000*%
%ADD15C,1.952000*%
%ADD16C,5.002000*%
%ADD17C,0.100000*%
G04 APERTURE END LIST*
D10*
X85000000Y-34500000D03*
D11*
X97000000Y-46500000D03*
X73000000Y-46500000D03*
X97000000Y-22500000D03*
X73000000Y-22500000D03*
G36*
G01*
X59452000Y-14298500D02*
X59452000Y-12901500D01*
G75*
G02*
X59503000Y-12850500I51000J0D01*
G01*
X60392000Y-12850500D01*
G75*
G02*
X60443000Y-12901500I0J-51000D01*
G01*
X60443000Y-14298500D01*
G75*
G02*
X60392000Y-14349500I-51000J0D01*
G01*
X59503000Y-14349500D01*
G75*
G02*
X59452000Y-14298500I0J51000D01*
G01*
G37*
G36*
G01*
X61357000Y-14298500D02*
X61357000Y-12901500D01*
G75*
G02*
X61408000Y-12850500I51000J0D01*
G01*
X62297000Y-12850500D01*
G75*
G02*
X62348000Y-12901500I0J-51000D01*
G01*
X62348000Y-14298500D01*
G75*
G02*
X62297000Y-14349500I-51000J0D01*
G01*
X61408000Y-14349500D01*
G75*
G02*
X61357000Y-14298500I0J51000D01*
G01*
G37*
D12*
X91000000Y-14100000D03*
D13*
X71000000Y-8235000D03*
X39000000Y-8235000D03*
D14*
X13500000Y-40000000D03*
X13500000Y-15000000D03*
D15*
X43000000Y-49500000D03*
X45540000Y-49500000D03*
X48080000Y-49500000D03*
X50620000Y-49500000D03*
X53160000Y-49500000D03*
X55700000Y-49500000D03*
X58240000Y-49500000D03*
X60780000Y-49500000D03*
X63320000Y-49500000D03*
G36*
G01*
X61430000Y-29699000D02*
X62730000Y-29699000D01*
G75*
G02*
X62781000Y-29750000I0J-51000D01*
G01*
X62781000Y-32350000D01*
G75*
G02*
X62730000Y-32401000I-51000J0D01*
G01*
X61430000Y-32401000D01*
G75*
G02*
X61379000Y-32350000I0J51000D01*
G01*
X61379000Y-29750000D01*
G75*
G02*
X61430000Y-29699000I51000J0D01*
G01*
G37*
G36*
G01*
X61430000Y-24199000D02*
X62730000Y-24199000D01*
G75*
G02*
X62781000Y-24250000I0J-51000D01*
G01*
X62781000Y-26850000D01*
G75*
G02*
X62730000Y-26901000I-51000J0D01*
G01*
X61430000Y-26901000D01*
G75*
G02*
X61379000Y-26850000I0J51000D01*
G01*
X61379000Y-24250000D01*
G75*
G02*
X61430000Y-24199000I51000J0D01*
G01*
G37*
G36*
G01*
X58890000Y-29699000D02*
X60190000Y-29699000D01*
G75*
G02*
X60241000Y-29750000I0J-51000D01*
G01*
X60241000Y-32350000D01*
G75*
G02*
X60190000Y-32401000I-51000J0D01*
G01*
X58890000Y-32401000D01*
G75*
G02*
X58839000Y-32350000I0J51000D01*
G01*
X58839000Y-29750000D01*
G75*
G02*
X58890000Y-29699000I51000J0D01*
G01*
G37*
G36*
G01*
X58890000Y-24199000D02*
X60190000Y-24199000D01*
G75*
G02*
X60241000Y-24250000I0J-51000D01*
G01*
X60241000Y-26850000D01*
G75*
G02*
X60190000Y-26901000I-51000J0D01*
G01*
X58890000Y-26901000D01*
G75*
G02*
X58839000Y-26850000I0J51000D01*
G01*
X58839000Y-24250000D01*
G75*
G02*
X58890000Y-24199000I51000J0D01*
G01*
G37*
G36*
G01*
X56350000Y-29699000D02*
X57650000Y-29699000D01*
G75*
G02*
X57701000Y-29750000I0J-51000D01*
G01*
X57701000Y-32350000D01*
G75*
G02*
X57650000Y-32401000I-51000J0D01*
G01*
X56350000Y-32401000D01*
G75*
G02*
X56299000Y-32350000I0J51000D01*
G01*
X56299000Y-29750000D01*
G75*
G02*
X56350000Y-29699000I51000J0D01*
G01*
G37*
G36*
G01*
X56350000Y-24199000D02*
X57650000Y-24199000D01*
G75*
G02*
X57701000Y-24250000I0J-51000D01*
G01*
X57701000Y-26850000D01*
G75*
G02*
X57650000Y-26901000I-51000J0D01*
G01*
X56350000Y-26901000D01*
G75*
G02*
X56299000Y-26850000I0J51000D01*
G01*
X56299000Y-24250000D01*
G75*
G02*
X56350000Y-24199000I51000J0D01*
G01*
G37*
G36*
G01*
X53810000Y-29699000D02*
X55110000Y-29699000D01*
G75*
G02*
X55161000Y-29750000I0J-51000D01*
G01*
X55161000Y-32350000D01*
G75*
G02*
X55110000Y-32401000I-51000J0D01*
G01*
X53810000Y-32401000D01*
G75*
G02*
X53759000Y-32350000I0J51000D01*
G01*
X53759000Y-29750000D01*
G75*
G02*
X53810000Y-29699000I51000J0D01*
G01*
G37*
G36*
G01*
X53810000Y-24199000D02*
X55110000Y-24199000D01*
G75*
G02*
X55161000Y-24250000I0J-51000D01*
G01*
X55161000Y-26850000D01*
G75*
G02*
X55110000Y-26901000I-51000J0D01*
G01*
X53810000Y-26901000D01*
G75*
G02*
X53759000Y-26850000I0J51000D01*
G01*
X53759000Y-24250000D01*
G75*
G02*
X53810000Y-24199000I51000J0D01*
G01*
G37*
G36*
G01*
X51270000Y-29699000D02*
X52570000Y-29699000D01*
G75*
G02*
X52621000Y-29750000I0J-51000D01*
G01*
X52621000Y-32350000D01*
G75*
G02*
X52570000Y-32401000I-51000J0D01*
G01*
X51270000Y-32401000D01*
G75*
G02*
X51219000Y-32350000I0J51000D01*
G01*
X51219000Y-29750000D01*
G75*
G02*
X51270000Y-29699000I51000J0D01*
G01*
G37*
G36*
G01*
X51270000Y-24199000D02*
X52570000Y-24199000D01*
G75*
G02*
X52621000Y-24250000I0J-51000D01*
G01*
X52621000Y-26850000D01*
G75*
G02*
X52570000Y-26901000I-51000J0D01*
G01*
X51270000Y-26901000D01*
G75*
G02*
X51219000Y-26850000I0J51000D01*
G01*
X51219000Y-24250000D01*
G75*
G02*
X51270000Y-24199000I51000J0D01*
G01*
G37*
G36*
G01*
X48730000Y-29699000D02*
X50030000Y-29699000D01*
G75*
G02*
X50081000Y-29750000I0J-51000D01*
G01*
X50081000Y-32350000D01*
G75*
G02*
X50030000Y-32401000I-51000J0D01*
G01*
X48730000Y-32401000D01*
G75*
G02*
X48679000Y-32350000I0J51000D01*
G01*
X48679000Y-29750000D01*
G75*
G02*
X48730000Y-29699000I51000J0D01*
G01*
G37*
G36*
G01*
X48730000Y-24199000D02*
X50030000Y-24199000D01*
G75*
G02*
X50081000Y-24250000I0J-51000D01*
G01*
X50081000Y-26850000D01*
G75*
G02*
X50030000Y-26901000I-51000J0D01*
G01*
X48730000Y-26901000D01*
G75*
G02*
X48679000Y-26850000I0J51000D01*
G01*
X48679000Y-24250000D01*
G75*
G02*
X48730000Y-24199000I51000J0D01*
G01*
G37*
G36*
G01*
X46190000Y-29699000D02*
X47490000Y-29699000D01*
G75*
G02*
X47541000Y-29750000I0J-51000D01*
G01*
X47541000Y-32350000D01*
G75*
G02*
X47490000Y-32401000I-51000J0D01*
G01*
X46190000Y-32401000D01*
G75*
G02*
X46139000Y-32350000I0J51000D01*
G01*
X46139000Y-29750000D01*
G75*
G02*
X46190000Y-29699000I51000J0D01*
G01*
G37*
G36*
G01*
X46190000Y-24199000D02*
X47490000Y-24199000D01*
G75*
G02*
X47541000Y-24250000I0J-51000D01*
G01*
X47541000Y-26850000D01*
G75*
G02*
X47490000Y-26901000I-51000J0D01*
G01*
X46190000Y-26901000D01*
G75*
G02*
X46139000Y-26850000I0J51000D01*
G01*
X46139000Y-24250000D01*
G75*
G02*
X46190000Y-24199000I51000J0D01*
G01*
G37*
G36*
G01*
X43650000Y-29699000D02*
X44950000Y-29699000D01*
G75*
G02*
X45001000Y-29750000I0J-51000D01*
G01*
X45001000Y-32350000D01*
G75*
G02*
X44950000Y-32401000I-51000J0D01*
G01*
X43650000Y-32401000D01*
G75*
G02*
X43599000Y-32350000I0J51000D01*
G01*
X43599000Y-29750000D01*
G75*
G02*
X43650000Y-29699000I51000J0D01*
G01*
G37*
G36*
G01*
X43650000Y-24199000D02*
X44950000Y-24199000D01*
G75*
G02*
X45001000Y-24250000I0J-51000D01*
G01*
X45001000Y-26850000D01*
G75*
G02*
X44950000Y-26901000I-51000J0D01*
G01*
X43650000Y-26901000D01*
G75*
G02*
X43599000Y-26850000I0J51000D01*
G01*
X43599000Y-24250000D01*
G75*
G02*
X43650000Y-24199000I51000J0D01*
G01*
G37*
G36*
G01*
X62630000Y-45899000D02*
X63930000Y-45899000D01*
G75*
G02*
X63981000Y-45950000I0J-51000D01*
G01*
X63981000Y-48550000D01*
G75*
G02*
X63930000Y-48601000I-51000J0D01*
G01*
X62630000Y-48601000D01*
G75*
G02*
X62579000Y-48550000I0J51000D01*
G01*
X62579000Y-45950000D01*
G75*
G02*
X62630000Y-45899000I51000J0D01*
G01*
G37*
G36*
G01*
X62630000Y-40399000D02*
X63930000Y-40399000D01*
G75*
G02*
X63981000Y-40450000I0J-51000D01*
G01*
X63981000Y-43050000D01*
G75*
G02*
X63930000Y-43101000I-51000J0D01*
G01*
X62630000Y-43101000D01*
G75*
G02*
X62579000Y-43050000I0J51000D01*
G01*
X62579000Y-40450000D01*
G75*
G02*
X62630000Y-40399000I51000J0D01*
G01*
G37*
G36*
G01*
X60090000Y-45899000D02*
X61390000Y-45899000D01*
G75*
G02*
X61441000Y-45950000I0J-51000D01*
G01*
X61441000Y-48550000D01*
G75*
G02*
X61390000Y-48601000I-51000J0D01*
G01*
X60090000Y-48601000D01*
G75*
G02*
X60039000Y-48550000I0J51000D01*
G01*
X60039000Y-45950000D01*
G75*
G02*
X60090000Y-45899000I51000J0D01*
G01*
G37*
G36*
G01*
X60090000Y-40399000D02*
X61390000Y-40399000D01*
G75*
G02*
X61441000Y-40450000I0J-51000D01*
G01*
X61441000Y-43050000D01*
G75*
G02*
X61390000Y-43101000I-51000J0D01*
G01*
X60090000Y-43101000D01*
G75*
G02*
X60039000Y-43050000I0J51000D01*
G01*
X60039000Y-40450000D01*
G75*
G02*
X60090000Y-40399000I51000J0D01*
G01*
G37*
G36*
G01*
X57550000Y-45899000D02*
X58850000Y-45899000D01*
G75*
G02*
X58901000Y-45950000I0J-51000D01*
G01*
X58901000Y-48550000D01*
G75*
G02*
X58850000Y-48601000I-51000J0D01*
G01*
X57550000Y-48601000D01*
G75*
G02*
X57499000Y-48550000I0J51000D01*
G01*
X57499000Y-45950000D01*
G75*
G02*
X57550000Y-45899000I51000J0D01*
G01*
G37*
G36*
G01*
X57550000Y-40399000D02*
X58850000Y-40399000D01*
G75*
G02*
X58901000Y-40450000I0J-51000D01*
G01*
X58901000Y-43050000D01*
G75*
G02*
X58850000Y-43101000I-51000J0D01*
G01*
X57550000Y-43101000D01*
G75*
G02*
X57499000Y-43050000I0J51000D01*
G01*
X57499000Y-40450000D01*
G75*
G02*
X57550000Y-40399000I51000J0D01*
G01*
G37*
G36*
G01*
X55010000Y-45899000D02*
X56310000Y-45899000D01*
G75*
G02*
X56361000Y-45950000I0J-51000D01*
G01*
X56361000Y-48550000D01*
G75*
G02*
X56310000Y-48601000I-51000J0D01*
G01*
X55010000Y-48601000D01*
G75*
G02*
X54959000Y-48550000I0J51000D01*
G01*
X54959000Y-45950000D01*
G75*
G02*
X55010000Y-45899000I51000J0D01*
G01*
G37*
G36*
G01*
X55010000Y-40399000D02*
X56310000Y-40399000D01*
G75*
G02*
X56361000Y-40450000I0J-51000D01*
G01*
X56361000Y-43050000D01*
G75*
G02*
X56310000Y-43101000I-51000J0D01*
G01*
X55010000Y-43101000D01*
G75*
G02*
X54959000Y-43050000I0J51000D01*
G01*
X54959000Y-40450000D01*
G75*
G02*
X55010000Y-40399000I51000J0D01*
G01*
G37*
G36*
G01*
X52470000Y-45899000D02*
X53770000Y-45899000D01*
G75*
G02*
X53821000Y-45950000I0J-51000D01*
G01*
X53821000Y-48550000D01*
G75*
G02*
X53770000Y-48601000I-51000J0D01*
G01*
X52470000Y-48601000D01*
G75*
G02*
X52419000Y-48550000I0J51000D01*
G01*
X52419000Y-45950000D01*
G75*
G02*
X52470000Y-45899000I51000J0D01*
G01*
G37*
G36*
G01*
X52470000Y-40399000D02*
X53770000Y-40399000D01*
G75*
G02*
X53821000Y-40450000I0J-51000D01*
G01*
X53821000Y-43050000D01*
G75*
G02*
X53770000Y-43101000I-51000J0D01*
G01*
X52470000Y-43101000D01*
G75*
G02*
X52419000Y-43050000I0J51000D01*
G01*
X52419000Y-40450000D01*
G75*
G02*
X52470000Y-40399000I51000J0D01*
G01*
G37*
G36*
G01*
X49930000Y-45899000D02*
X51230000Y-45899000D01*
G75*
G02*
X51281000Y-45950000I0J-51000D01*
G01*
X51281000Y-48550000D01*
G75*
G02*
X51230000Y-48601000I-51000J0D01*
G01*
X49930000Y-48601000D01*
G75*
G02*
X49879000Y-48550000I0J51000D01*
G01*
X49879000Y-45950000D01*
G75*
G02*
X49930000Y-45899000I51000J0D01*
G01*
G37*
G36*
G01*
X49930000Y-40399000D02*
X51230000Y-40399000D01*
G75*
G02*
X51281000Y-40450000I0J-51000D01*
G01*
X51281000Y-43050000D01*
G75*
G02*
X51230000Y-43101000I-51000J0D01*
G01*
X49930000Y-43101000D01*
G75*
G02*
X49879000Y-43050000I0J51000D01*
G01*
X49879000Y-40450000D01*
G75*
G02*
X49930000Y-40399000I51000J0D01*
G01*
G37*
G36*
G01*
X47390000Y-45899000D02*
X48690000Y-45899000D01*
G75*
G02*
X48741000Y-45950000I0J-51000D01*
G01*
X48741000Y-48550000D01*
G75*
G02*
X48690000Y-48601000I-51000J0D01*
G01*
X47390000Y-48601000D01*
G75*
G02*
X47339000Y-48550000I0J51000D01*
G01*
X47339000Y-45950000D01*
G75*
G02*
X47390000Y-45899000I51000J0D01*
G01*
G37*
G36*
G01*
X47390000Y-40399000D02*
X48690000Y-40399000D01*
G75*
G02*
X48741000Y-40450000I0J-51000D01*
G01*
X48741000Y-43050000D01*
G75*
G02*
X48690000Y-43101000I-51000J0D01*
G01*
X47390000Y-43101000D01*
G75*
G02*
X47339000Y-43050000I0J51000D01*
G01*
X47339000Y-40450000D01*
G75*
G02*
X47390000Y-40399000I51000J0D01*
G01*
G37*
G36*
G01*
X44850000Y-45899000D02*
X46150000Y-45899000D01*
G75*
G02*
X46201000Y-45950000I0J-51000D01*
G01*
X46201000Y-48550000D01*
G75*
G02*
X46150000Y-48601000I-51000J0D01*
G01*
X44850000Y-48601000D01*
G75*
G02*
X44799000Y-48550000I0J51000D01*
G01*
X44799000Y-45950000D01*
G75*
G02*
X44850000Y-45899000I51000J0D01*
G01*
G37*
G36*
G01*
X44850000Y-40399000D02*
X46150000Y-40399000D01*
G75*
G02*
X46201000Y-40450000I0J-51000D01*
G01*
X46201000Y-43050000D01*
G75*
G02*
X46150000Y-43101000I-51000J0D01*
G01*
X44850000Y-43101000D01*
G75*
G02*
X44799000Y-43050000I0J51000D01*
G01*
X44799000Y-40450000D01*
G75*
G02*
X44850000Y-40399000I51000J0D01*
G01*
G37*
D16*
X4875000Y-3750000D03*
X101125000Y-3750000D03*
X101125000Y-51250000D03*
X4875000Y-51250000D03*
G36*
G01*
X37460326Y-33273989D02*
X38026011Y-33839674D01*
G75*
G02*
X38026011Y-33911798I-36062J-36062D01*
G01*
X36611798Y-35326011D01*
G75*
G02*
X36539674Y-35326011I-36062J36062D01*
G01*
X35973989Y-34760326D01*
G75*
G02*
X35973989Y-34688202I36062J36062D01*
G01*
X37388202Y-33273989D01*
G75*
G02*
X37460326Y-33273989I36062J-36062D01*
G01*
G37*
G36*
G01*
X35800000Y-36249000D02*
X36900000Y-36249000D01*
G75*
G02*
X36951000Y-36300000I0J-51000D01*
G01*
X36951000Y-37400000D01*
G75*
G02*
X36900000Y-37451000I-51000J0D01*
G01*
X35800000Y-37451000D01*
G75*
G02*
X35749000Y-37400000I0J51000D01*
G01*
X35749000Y-36300000D01*
G75*
G02*
X35800000Y-36249000I51000J0D01*
G01*
G37*
G36*
G01*
X35800000Y-34349000D02*
X36900000Y-34349000D01*
G75*
G02*
X36951000Y-34400000I0J-51000D01*
G01*
X36951000Y-35500000D01*
G75*
G02*
X36900000Y-35551000I-51000J0D01*
G01*
X35800000Y-35551000D01*
G75*
G02*
X35749000Y-35500000I0J51000D01*
G01*
X35749000Y-34400000D01*
G75*
G02*
X35800000Y-34349000I51000J0D01*
G01*
G37*
G36*
G01*
X38000000Y-35299000D02*
X39100000Y-35299000D01*
G75*
G02*
X39151000Y-35350000I0J-51000D01*
G01*
X39151000Y-36450000D01*
G75*
G02*
X39100000Y-36501000I-51000J0D01*
G01*
X38000000Y-36501000D01*
G75*
G02*
X37949000Y-36450000I0J51000D01*
G01*
X37949000Y-35350000D01*
G75*
G02*
X38000000Y-35299000I51000J0D01*
G01*
G37*
G36*
G01*
X37050000Y-33099000D02*
X38150000Y-33099000D01*
G75*
G02*
X38201000Y-33150000I0J-51000D01*
G01*
X38201000Y-34250000D01*
G75*
G02*
X38150000Y-34301000I-51000J0D01*
G01*
X37050000Y-34301000D01*
G75*
G02*
X36999000Y-34250000I0J51000D01*
G01*
X36999000Y-33150000D01*
G75*
G02*
X37050000Y-33099000I51000J0D01*
G01*
G37*
G36*
G01*
X38950000Y-33099000D02*
X40050000Y-33099000D01*
G75*
G02*
X40101000Y-33150000I0J-51000D01*
G01*
X40101000Y-34250000D01*
G75*
G02*
X40050000Y-34301000I-51000J0D01*
G01*
X38950000Y-34301000D01*
G75*
G02*
X38899000Y-34250000I0J51000D01*
G01*
X38899000Y-33150000D01*
G75*
G02*
X38950000Y-33099000I51000J0D01*
G01*
G37*
G36*
G01*
X46250000Y-34799000D02*
X47350000Y-34799000D01*
G75*
G02*
X47401000Y-34850000I0J-51000D01*
G01*
X47401000Y-35950000D01*
G75*
G02*
X47350000Y-36001000I-51000J0D01*
G01*
X46250000Y-36001000D01*
G75*
G02*
X46199000Y-35950000I0J51000D01*
G01*
X46199000Y-34850000D01*
G75*
G02*
X46250000Y-34799000I51000J0D01*
G01*
G37*
G36*
G01*
X44350000Y-34799000D02*
X45450000Y-34799000D01*
G75*
G02*
X45501000Y-34850000I0J-51000D01*
G01*
X45501000Y-35950000D01*
G75*
G02*
X45450000Y-36001000I-51000J0D01*
G01*
X44350000Y-36001000D01*
G75*
G02*
X44299000Y-35950000I0J51000D01*
G01*
X44299000Y-34850000D01*
G75*
G02*
X44350000Y-34799000I51000J0D01*
G01*
G37*
G36*
G01*
X45300000Y-36999000D02*
X46400000Y-36999000D01*
G75*
G02*
X46451000Y-37050000I0J-51000D01*
G01*
X46451000Y-38150000D01*
G75*
G02*
X46400000Y-38201000I-51000J0D01*
G01*
X45300000Y-38201000D01*
G75*
G02*
X45249000Y-38150000I0J51000D01*
G01*
X45249000Y-37050000D01*
G75*
G02*
X45300000Y-36999000I51000J0D01*
G01*
G37*
G36*
G01*
X43100000Y-36049000D02*
X44200000Y-36049000D01*
G75*
G02*
X44251000Y-36100000I0J-51000D01*
G01*
X44251000Y-37200000D01*
G75*
G02*
X44200000Y-37251000I-51000J0D01*
G01*
X43100000Y-37251000D01*
G75*
G02*
X43049000Y-37200000I0J51000D01*
G01*
X43049000Y-36100000D01*
G75*
G02*
X43100000Y-36049000I51000J0D01*
G01*
G37*
G36*
G01*
X43100000Y-37949000D02*
X44200000Y-37949000D01*
G75*
G02*
X44251000Y-38000000I0J-51000D01*
G01*
X44251000Y-39100000D01*
G75*
G02*
X44200000Y-39151000I-51000J0D01*
G01*
X43100000Y-39151000D01*
G75*
G02*
X43049000Y-39100000I0J51000D01*
G01*
X43049000Y-38000000D01*
G75*
G02*
X43100000Y-37949000I51000J0D01*
G01*
G37*
G36*
G01*
X44760326Y-34973989D02*
X45326011Y-35539674D01*
G75*
G02*
X45326011Y-35611798I-36062J-36062D01*
G01*
X43911798Y-37026011D01*
G75*
G02*
X43839674Y-37026011I-36062J36062D01*
G01*
X43273989Y-36460326D01*
G75*
G02*
X43273989Y-36388202I36062J36062D01*
G01*
X44688202Y-34973989D01*
G75*
G02*
X44760326Y-34973989I36062J-36062D01*
G01*
G37*
G36*
G01*
X53550000Y-34799000D02*
X54650000Y-34799000D01*
G75*
G02*
X54701000Y-34850000I0J-51000D01*
G01*
X54701000Y-35950000D01*
G75*
G02*
X54650000Y-36001000I-51000J0D01*
G01*
X53550000Y-36001000D01*
G75*
G02*
X53499000Y-35950000I0J51000D01*
G01*
X53499000Y-34850000D01*
G75*
G02*
X53550000Y-34799000I51000J0D01*
G01*
G37*
G36*
G01*
X51650000Y-34799000D02*
X52750000Y-34799000D01*
G75*
G02*
X52801000Y-34850000I0J-51000D01*
G01*
X52801000Y-35950000D01*
G75*
G02*
X52750000Y-36001000I-51000J0D01*
G01*
X51650000Y-36001000D01*
G75*
G02*
X51599000Y-35950000I0J51000D01*
G01*
X51599000Y-34850000D01*
G75*
G02*
X51650000Y-34799000I51000J0D01*
G01*
G37*
G36*
G01*
X52600000Y-36999000D02*
X53700000Y-36999000D01*
G75*
G02*
X53751000Y-37050000I0J-51000D01*
G01*
X53751000Y-38150000D01*
G75*
G02*
X53700000Y-38201000I-51000J0D01*
G01*
X52600000Y-38201000D01*
G75*
G02*
X52549000Y-38150000I0J51000D01*
G01*
X52549000Y-37050000D01*
G75*
G02*
X52600000Y-36999000I51000J0D01*
G01*
G37*
G36*
G01*
X50400000Y-36049000D02*
X51500000Y-36049000D01*
G75*
G02*
X51551000Y-36100000I0J-51000D01*
G01*
X51551000Y-37200000D01*
G75*
G02*
X51500000Y-37251000I-51000J0D01*
G01*
X50400000Y-37251000D01*
G75*
G02*
X50349000Y-37200000I0J51000D01*
G01*
X50349000Y-36100000D01*
G75*
G02*
X50400000Y-36049000I51000J0D01*
G01*
G37*
G36*
G01*
X50400000Y-37949000D02*
X51500000Y-37949000D01*
G75*
G02*
X51551000Y-38000000I0J-51000D01*
G01*
X51551000Y-39100000D01*
G75*
G02*
X51500000Y-39151000I-51000J0D01*
G01*
X50400000Y-39151000D01*
G75*
G02*
X50349000Y-39100000I0J51000D01*
G01*
X50349000Y-38000000D01*
G75*
G02*
X50400000Y-37949000I51000J0D01*
G01*
G37*
G36*
G01*
X52060326Y-34973989D02*
X52626011Y-35539674D01*
G75*
G02*
X52626011Y-35611798I-36062J-36062D01*
G01*
X51211798Y-37026011D01*
G75*
G02*
X51139674Y-37026011I-36062J36062D01*
G01*
X50573989Y-36460326D01*
G75*
G02*
X50573989Y-36388202I36062J36062D01*
G01*
X51988202Y-34973989D01*
G75*
G02*
X52060326Y-34973989I36062J-36062D01*
G01*
G37*
G36*
G01*
X59360326Y-34973989D02*
X59926011Y-35539674D01*
G75*
G02*
X59926011Y-35611798I-36062J-36062D01*
G01*
X58511798Y-37026011D01*
G75*
G02*
X58439674Y-37026011I-36062J36062D01*
G01*
X57873989Y-36460326D01*
G75*
G02*
X57873989Y-36388202I36062J36062D01*
G01*
X59288202Y-34973989D01*
G75*
G02*
X59360326Y-34973989I36062J-36062D01*
G01*
G37*
G36*
G01*
X57700000Y-37949000D02*
X58800000Y-37949000D01*
G75*
G02*
X58851000Y-38000000I0J-51000D01*
G01*
X58851000Y-39100000D01*
G75*
G02*
X58800000Y-39151000I-51000J0D01*
G01*
X57700000Y-39151000D01*
G75*
G02*
X57649000Y-39100000I0J51000D01*
G01*
X57649000Y-38000000D01*
G75*
G02*
X57700000Y-37949000I51000J0D01*
G01*
G37*
G36*
G01*
X57700000Y-36049000D02*
X58800000Y-36049000D01*
G75*
G02*
X58851000Y-36100000I0J-51000D01*
G01*
X58851000Y-37200000D01*
G75*
G02*
X58800000Y-37251000I-51000J0D01*
G01*
X57700000Y-37251000D01*
G75*
G02*
X57649000Y-37200000I0J51000D01*
G01*
X57649000Y-36100000D01*
G75*
G02*
X57700000Y-36049000I51000J0D01*
G01*
G37*
G36*
G01*
X59900000Y-36999000D02*
X61000000Y-36999000D01*
G75*
G02*
X61051000Y-37050000I0J-51000D01*
G01*
X61051000Y-38150000D01*
G75*
G02*
X61000000Y-38201000I-51000J0D01*
G01*
X59900000Y-38201000D01*
G75*
G02*
X59849000Y-38150000I0J51000D01*
G01*
X59849000Y-37050000D01*
G75*
G02*
X59900000Y-36999000I51000J0D01*
G01*
G37*
G36*
G01*
X58950000Y-34799000D02*
X60050000Y-34799000D01*
G75*
G02*
X60101000Y-34850000I0J-51000D01*
G01*
X60101000Y-35950000D01*
G75*
G02*
X60050000Y-36001000I-51000J0D01*
G01*
X58950000Y-36001000D01*
G75*
G02*
X58899000Y-35950000I0J51000D01*
G01*
X58899000Y-34850000D01*
G75*
G02*
X58950000Y-34799000I51000J0D01*
G01*
G37*
G36*
G01*
X60850000Y-34799000D02*
X61950000Y-34799000D01*
G75*
G02*
X62001000Y-34850000I0J-51000D01*
G01*
X62001000Y-35950000D01*
G75*
G02*
X61950000Y-36001000I-51000J0D01*
G01*
X60850000Y-36001000D01*
G75*
G02*
X60799000Y-35950000I0J51000D01*
G01*
X60799000Y-34850000D01*
G75*
G02*
X60850000Y-34799000I51000J0D01*
G01*
G37*
G36*
G01*
X68150000Y-34799000D02*
X69250000Y-34799000D01*
G75*
G02*
X69301000Y-34850000I0J-51000D01*
G01*
X69301000Y-35950000D01*
G75*
G02*
X69250000Y-36001000I-51000J0D01*
G01*
X68150000Y-36001000D01*
G75*
G02*
X68099000Y-35950000I0J51000D01*
G01*
X68099000Y-34850000D01*
G75*
G02*
X68150000Y-34799000I51000J0D01*
G01*
G37*
G36*
G01*
X66250000Y-34799000D02*
X67350000Y-34799000D01*
G75*
G02*
X67401000Y-34850000I0J-51000D01*
G01*
X67401000Y-35950000D01*
G75*
G02*
X67350000Y-36001000I-51000J0D01*
G01*
X66250000Y-36001000D01*
G75*
G02*
X66199000Y-35950000I0J51000D01*
G01*
X66199000Y-34850000D01*
G75*
G02*
X66250000Y-34799000I51000J0D01*
G01*
G37*
G36*
G01*
X67200000Y-36999000D02*
X68300000Y-36999000D01*
G75*
G02*
X68351000Y-37050000I0J-51000D01*
G01*
X68351000Y-38150000D01*
G75*
G02*
X68300000Y-38201000I-51000J0D01*
G01*
X67200000Y-38201000D01*
G75*
G02*
X67149000Y-38150000I0J51000D01*
G01*
X67149000Y-37050000D01*
G75*
G02*
X67200000Y-36999000I51000J0D01*
G01*
G37*
G36*
G01*
X65000000Y-36049000D02*
X66100000Y-36049000D01*
G75*
G02*
X66151000Y-36100000I0J-51000D01*
G01*
X66151000Y-37200000D01*
G75*
G02*
X66100000Y-37251000I-51000J0D01*
G01*
X65000000Y-37251000D01*
G75*
G02*
X64949000Y-37200000I0J51000D01*
G01*
X64949000Y-36100000D01*
G75*
G02*
X65000000Y-36049000I51000J0D01*
G01*
G37*
G36*
G01*
X65000000Y-37949000D02*
X66100000Y-37949000D01*
G75*
G02*
X66151000Y-38000000I0J-51000D01*
G01*
X66151000Y-39100000D01*
G75*
G02*
X66100000Y-39151000I-51000J0D01*
G01*
X65000000Y-39151000D01*
G75*
G02*
X64949000Y-39100000I0J51000D01*
G01*
X64949000Y-38000000D01*
G75*
G02*
X65000000Y-37949000I51000J0D01*
G01*
G37*
G36*
G01*
X66660326Y-34973989D02*
X67226011Y-35539674D01*
G75*
G02*
X67226011Y-35611798I-36062J-36062D01*
G01*
X65811798Y-37026011D01*
G75*
G02*
X65739674Y-37026011I-36062J36062D01*
G01*
X65173989Y-36460326D01*
G75*
G02*
X65173989Y-36388202I36062J36062D01*
G01*
X66588202Y-34973989D01*
G75*
G02*
X66660326Y-34973989I36062J-36062D01*
G01*
G37*
G36*
G01*
X34998500Y-37348000D02*
X33601500Y-37348000D01*
G75*
G02*
X33550500Y-37297000I0J51000D01*
G01*
X33550500Y-36408000D01*
G75*
G02*
X33601500Y-36357000I51000J0D01*
G01*
X34998500Y-36357000D01*
G75*
G02*
X35049500Y-36408000I0J-51000D01*
G01*
X35049500Y-37297000D01*
G75*
G02*
X34998500Y-37348000I-51000J0D01*
G01*
G37*
G36*
G01*
X34998500Y-35443000D02*
X33601500Y-35443000D01*
G75*
G02*
X33550500Y-35392000I0J51000D01*
G01*
X33550500Y-34503000D01*
G75*
G02*
X33601500Y-34452000I51000J0D01*
G01*
X34998500Y-34452000D01*
G75*
G02*
X35049500Y-34503000I0J-51000D01*
G01*
X35049500Y-35392000D01*
G75*
G02*
X34998500Y-35443000I-51000J0D01*
G01*
G37*
G36*
G01*
X39057000Y-32698500D02*
X39057000Y-31301500D01*
G75*
G02*
X39108000Y-31250500I51000J0D01*
G01*
X39997000Y-31250500D01*
G75*
G02*
X40048000Y-31301500I0J-51000D01*
G01*
X40048000Y-32698500D01*
G75*
G02*
X39997000Y-32749500I-51000J0D01*
G01*
X39108000Y-32749500D01*
G75*
G02*
X39057000Y-32698500I0J51000D01*
G01*
G37*
G36*
G01*
X37152000Y-32698500D02*
X37152000Y-31301500D01*
G75*
G02*
X37203000Y-31250500I51000J0D01*
G01*
X38092000Y-31250500D01*
G75*
G02*
X38143000Y-31301500I0J-51000D01*
G01*
X38143000Y-32698500D01*
G75*
G02*
X38092000Y-32749500I-51000J0D01*
G01*
X37203000Y-32749500D01*
G75*
G02*
X37152000Y-32698500I0J51000D01*
G01*
G37*
G36*
G01*
X42298500Y-39048000D02*
X40901500Y-39048000D01*
G75*
G02*
X40850500Y-38997000I0J51000D01*
G01*
X40850500Y-38108000D01*
G75*
G02*
X40901500Y-38057000I51000J0D01*
G01*
X42298500Y-38057000D01*
G75*
G02*
X42349500Y-38108000I0J-51000D01*
G01*
X42349500Y-38997000D01*
G75*
G02*
X42298500Y-39048000I-51000J0D01*
G01*
G37*
G36*
G01*
X42298500Y-37143000D02*
X40901500Y-37143000D01*
G75*
G02*
X40850500Y-37092000I0J51000D01*
G01*
X40850500Y-36203000D01*
G75*
G02*
X40901500Y-36152000I51000J0D01*
G01*
X42298500Y-36152000D01*
G75*
G02*
X42349500Y-36203000I0J-51000D01*
G01*
X42349500Y-37092000D01*
G75*
G02*
X42298500Y-37143000I-51000J0D01*
G01*
G37*
G36*
G01*
X46357000Y-34398500D02*
X46357000Y-33001500D01*
G75*
G02*
X46408000Y-32950500I51000J0D01*
G01*
X47297000Y-32950500D01*
G75*
G02*
X47348000Y-33001500I0J-51000D01*
G01*
X47348000Y-34398500D01*
G75*
G02*
X47297000Y-34449500I-51000J0D01*
G01*
X46408000Y-34449500D01*
G75*
G02*
X46357000Y-34398500I0J51000D01*
G01*
G37*
G36*
G01*
X44452000Y-34398500D02*
X44452000Y-33001500D01*
G75*
G02*
X44503000Y-32950500I51000J0D01*
G01*
X45392000Y-32950500D01*
G75*
G02*
X45443000Y-33001500I0J-51000D01*
G01*
X45443000Y-34398500D01*
G75*
G02*
X45392000Y-34449500I-51000J0D01*
G01*
X44503000Y-34449500D01*
G75*
G02*
X44452000Y-34398500I0J51000D01*
G01*
G37*
G36*
G01*
X49598500Y-39048000D02*
X48201500Y-39048000D01*
G75*
G02*
X48150500Y-38997000I0J51000D01*
G01*
X48150500Y-38108000D01*
G75*
G02*
X48201500Y-38057000I51000J0D01*
G01*
X49598500Y-38057000D01*
G75*
G02*
X49649500Y-38108000I0J-51000D01*
G01*
X49649500Y-38997000D01*
G75*
G02*
X49598500Y-39048000I-51000J0D01*
G01*
G37*
G36*
G01*
X49598500Y-37143000D02*
X48201500Y-37143000D01*
G75*
G02*
X48150500Y-37092000I0J51000D01*
G01*
X48150500Y-36203000D01*
G75*
G02*
X48201500Y-36152000I51000J0D01*
G01*
X49598500Y-36152000D01*
G75*
G02*
X49649500Y-36203000I0J-51000D01*
G01*
X49649500Y-37092000D01*
G75*
G02*
X49598500Y-37143000I-51000J0D01*
G01*
G37*
G36*
G01*
X53657000Y-34398500D02*
X53657000Y-33001500D01*
G75*
G02*
X53708000Y-32950500I51000J0D01*
G01*
X54597000Y-32950500D01*
G75*
G02*
X54648000Y-33001500I0J-51000D01*
G01*
X54648000Y-34398500D01*
G75*
G02*
X54597000Y-34449500I-51000J0D01*
G01*
X53708000Y-34449500D01*
G75*
G02*
X53657000Y-34398500I0J51000D01*
G01*
G37*
G36*
G01*
X51752000Y-34398500D02*
X51752000Y-33001500D01*
G75*
G02*
X51803000Y-32950500I51000J0D01*
G01*
X52692000Y-32950500D01*
G75*
G02*
X52743000Y-33001500I0J-51000D01*
G01*
X52743000Y-34398500D01*
G75*
G02*
X52692000Y-34449500I-51000J0D01*
G01*
X51803000Y-34449500D01*
G75*
G02*
X51752000Y-34398500I0J51000D01*
G01*
G37*
G36*
G01*
X56898500Y-39048000D02*
X55501500Y-39048000D01*
G75*
G02*
X55450500Y-38997000I0J51000D01*
G01*
X55450500Y-38108000D01*
G75*
G02*
X55501500Y-38057000I51000J0D01*
G01*
X56898500Y-38057000D01*
G75*
G02*
X56949500Y-38108000I0J-51000D01*
G01*
X56949500Y-38997000D01*
G75*
G02*
X56898500Y-39048000I-51000J0D01*
G01*
G37*
G36*
G01*
X56898500Y-37143000D02*
X55501500Y-37143000D01*
G75*
G02*
X55450500Y-37092000I0J51000D01*
G01*
X55450500Y-36203000D01*
G75*
G02*
X55501500Y-36152000I51000J0D01*
G01*
X56898500Y-36152000D01*
G75*
G02*
X56949500Y-36203000I0J-51000D01*
G01*
X56949500Y-37092000D01*
G75*
G02*
X56898500Y-37143000I-51000J0D01*
G01*
G37*
G36*
G01*
X60957000Y-34398500D02*
X60957000Y-33001500D01*
G75*
G02*
X61008000Y-32950500I51000J0D01*
G01*
X61897000Y-32950500D01*
G75*
G02*
X61948000Y-33001500I0J-51000D01*
G01*
X61948000Y-34398500D01*
G75*
G02*
X61897000Y-34449500I-51000J0D01*
G01*
X61008000Y-34449500D01*
G75*
G02*
X60957000Y-34398500I0J51000D01*
G01*
G37*
G36*
G01*
X59052000Y-34398500D02*
X59052000Y-33001500D01*
G75*
G02*
X59103000Y-32950500I51000J0D01*
G01*
X59992000Y-32950500D01*
G75*
G02*
X60043000Y-33001500I0J-51000D01*
G01*
X60043000Y-34398500D01*
G75*
G02*
X59992000Y-34449500I-51000J0D01*
G01*
X59103000Y-34449500D01*
G75*
G02*
X59052000Y-34398500I0J51000D01*
G01*
G37*
G36*
G01*
X64198500Y-39048000D02*
X62801500Y-39048000D01*
G75*
G02*
X62750500Y-38997000I0J51000D01*
G01*
X62750500Y-38108000D01*
G75*
G02*
X62801500Y-38057000I51000J0D01*
G01*
X64198500Y-38057000D01*
G75*
G02*
X64249500Y-38108000I0J-51000D01*
G01*
X64249500Y-38997000D01*
G75*
G02*
X64198500Y-39048000I-51000J0D01*
G01*
G37*
G36*
G01*
X64198500Y-37143000D02*
X62801500Y-37143000D01*
G75*
G02*
X62750500Y-37092000I0J51000D01*
G01*
X62750500Y-36203000D01*
G75*
G02*
X62801500Y-36152000I51000J0D01*
G01*
X64198500Y-36152000D01*
G75*
G02*
X64249500Y-36203000I0J-51000D01*
G01*
X64249500Y-37092000D01*
G75*
G02*
X64198500Y-37143000I-51000J0D01*
G01*
G37*
G36*
G01*
X68257000Y-34398500D02*
X68257000Y-33001500D01*
G75*
G02*
X68308000Y-32950500I51000J0D01*
G01*
X69197000Y-32950500D01*
G75*
G02*
X69248000Y-33001500I0J-51000D01*
G01*
X69248000Y-34398500D01*
G75*
G02*
X69197000Y-34449500I-51000J0D01*
G01*
X68308000Y-34449500D01*
G75*
G02*
X68257000Y-34398500I0J51000D01*
G01*
G37*
G36*
G01*
X66352000Y-34398500D02*
X66352000Y-33001500D01*
G75*
G02*
X66403000Y-32950500I51000J0D01*
G01*
X67292000Y-32950500D01*
G75*
G02*
X67343000Y-33001500I0J-51000D01*
G01*
X67343000Y-34398500D01*
G75*
G02*
X67292000Y-34449500I-51000J0D01*
G01*
X66403000Y-34449500D01*
G75*
G02*
X66352000Y-34398500I0J51000D01*
G01*
G37*
G36*
G01*
X66748000Y-12901500D02*
X66748000Y-14298500D01*
G75*
G02*
X66697000Y-14349500I-51000J0D01*
G01*
X65808000Y-14349500D01*
G75*
G02*
X65757000Y-14298500I0J51000D01*
G01*
X65757000Y-12901500D01*
G75*
G02*
X65808000Y-12850500I51000J0D01*
G01*
X66697000Y-12850500D01*
G75*
G02*
X66748000Y-12901500I0J-51000D01*
G01*
G37*
G36*
G01*
X64843000Y-12901500D02*
X64843000Y-14298500D01*
G75*
G02*
X64792000Y-14349500I-51000J0D01*
G01*
X63903000Y-14349500D01*
G75*
G02*
X63852000Y-14298500I0J51000D01*
G01*
X63852000Y-12901500D01*
G75*
G02*
X63903000Y-12850500I51000J0D01*
G01*
X64792000Y-12850500D01*
G75*
G02*
X64843000Y-12901500I0J-51000D01*
G01*
G37*
G36*
G01*
X32248000Y-34801500D02*
X32248000Y-36198500D01*
G75*
G02*
X32197000Y-36249500I-51000J0D01*
G01*
X31308000Y-36249500D01*
G75*
G02*
X31257000Y-36198500I0J51000D01*
G01*
X31257000Y-34801500D01*
G75*
G02*
X31308000Y-34750500I51000J0D01*
G01*
X32197000Y-34750500D01*
G75*
G02*
X32248000Y-34801500I0J-51000D01*
G01*
G37*
G36*
G01*
X30343000Y-34801500D02*
X30343000Y-36198500D01*
G75*
G02*
X30292000Y-36249500I-51000J0D01*
G01*
X29403000Y-36249500D01*
G75*
G02*
X29352000Y-36198500I0J51000D01*
G01*
X29352000Y-34801500D01*
G75*
G02*
X29403000Y-34750500I51000J0D01*
G01*
X30292000Y-34750500D01*
G75*
G02*
X30343000Y-34801500I0J-51000D01*
G01*
G37*
G36*
G01*
X65801500Y-24252000D02*
X67198500Y-24252000D01*
G75*
G02*
X67249500Y-24303000I0J-51000D01*
G01*
X67249500Y-25192000D01*
G75*
G02*
X67198500Y-25243000I-51000J0D01*
G01*
X65801500Y-25243000D01*
G75*
G02*
X65750500Y-25192000I0J51000D01*
G01*
X65750500Y-24303000D01*
G75*
G02*
X65801500Y-24252000I51000J0D01*
G01*
G37*
G36*
G01*
X65801500Y-26157000D02*
X67198500Y-26157000D01*
G75*
G02*
X67249500Y-26208000I0J-51000D01*
G01*
X67249500Y-27097000D01*
G75*
G02*
X67198500Y-27148000I-51000J0D01*
G01*
X65801500Y-27148000D01*
G75*
G02*
X65750500Y-27097000I0J51000D01*
G01*
X65750500Y-26208000D01*
G75*
G02*
X65801500Y-26157000I51000J0D01*
G01*
G37*
G36*
G01*
X60743000Y-21501500D02*
X60743000Y-22898500D01*
G75*
G02*
X60692000Y-22949500I-51000J0D01*
G01*
X59803000Y-22949500D01*
G75*
G02*
X59752000Y-22898500I0J51000D01*
G01*
X59752000Y-21501500D01*
G75*
G02*
X59803000Y-21450500I51000J0D01*
G01*
X60692000Y-21450500D01*
G75*
G02*
X60743000Y-21501500I0J-51000D01*
G01*
G37*
G36*
G01*
X62648000Y-21501500D02*
X62648000Y-22898500D01*
G75*
G02*
X62597000Y-22949500I-51000J0D01*
G01*
X61708000Y-22949500D01*
G75*
G02*
X61657000Y-22898500I0J51000D01*
G01*
X61657000Y-21501500D01*
G75*
G02*
X61708000Y-21450500I51000J0D01*
G01*
X62597000Y-21450500D01*
G75*
G02*
X62648000Y-21501500I0J-51000D01*
G01*
G37*
G36*
G01*
X66890000Y-23301000D02*
X66250000Y-23301000D01*
G75*
G02*
X66199000Y-23250000I0J51000D01*
G01*
X66199000Y-21250000D01*
G75*
G02*
X66250000Y-21199000I51000J0D01*
G01*
X66890000Y-21199000D01*
G75*
G02*
X66941000Y-21250000I0J-51000D01*
G01*
X66941000Y-23250000D01*
G75*
G02*
X66890000Y-23301000I-51000J0D01*
G01*
G37*
G36*
G01*
X64350000Y-23301000D02*
X63710000Y-23301000D01*
G75*
G02*
X63659000Y-23250000I0J51000D01*
G01*
X63659000Y-21250000D01*
G75*
G02*
X63710000Y-21199000I51000J0D01*
G01*
X64350000Y-21199000D01*
G75*
G02*
X64401000Y-21250000I0J-51000D01*
G01*
X64401000Y-23250000D01*
G75*
G02*
X64350000Y-23301000I-51000J0D01*
G01*
G37*
G36*
G01*
X64350000Y-17001000D02*
X63710000Y-17001000D01*
G75*
G02*
X63659000Y-16950000I0J51000D01*
G01*
X63659000Y-14950000D01*
G75*
G02*
X63710000Y-14899000I51000J0D01*
G01*
X64350000Y-14899000D01*
G75*
G02*
X64401000Y-14950000I0J-51000D01*
G01*
X64401000Y-16950000D01*
G75*
G02*
X64350000Y-17001000I-51000J0D01*
G01*
G37*
G36*
G01*
X65620000Y-17001000D02*
X64980000Y-17001000D01*
G75*
G02*
X64929000Y-16950000I0J51000D01*
G01*
X64929000Y-14950000D01*
G75*
G02*
X64980000Y-14899000I51000J0D01*
G01*
X65620000Y-14899000D01*
G75*
G02*
X65671000Y-14950000I0J-51000D01*
G01*
X65671000Y-16950000D01*
G75*
G02*
X65620000Y-17001000I-51000J0D01*
G01*
G37*
G36*
G01*
X66890000Y-17001000D02*
X66250000Y-17001000D01*
G75*
G02*
X66199000Y-16950000I0J51000D01*
G01*
X66199000Y-14950000D01*
G75*
G02*
X66250000Y-14899000I51000J0D01*
G01*
X66890000Y-14899000D01*
G75*
G02*
X66941000Y-14950000I0J-51000D01*
G01*
X66941000Y-16950000D01*
G75*
G02*
X66890000Y-17001000I-51000J0D01*
G01*
G37*
D15*
X60000000Y-15900000D03*
X57460000Y-15900000D03*
X54920000Y-15900000D03*
X52380000Y-15900000D03*
X49840000Y-15900000D03*
G36*
G01*
X30298500Y-33448000D02*
X28901500Y-33448000D01*
G75*
G02*
X28850500Y-33397000I0J51000D01*
G01*
X28850500Y-32508000D01*
G75*
G02*
X28901500Y-32457000I51000J0D01*
G01*
X30298500Y-32457000D01*
G75*
G02*
X30349500Y-32508000I0J-51000D01*
G01*
X30349500Y-33397000D01*
G75*
G02*
X30298500Y-33448000I-51000J0D01*
G01*
G37*
G36*
G01*
X30298500Y-31543000D02*
X28901500Y-31543000D01*
G75*
G02*
X28850500Y-31492000I0J51000D01*
G01*
X28850500Y-30603000D01*
G75*
G02*
X28901500Y-30552000I51000J0D01*
G01*
X30298500Y-30552000D01*
G75*
G02*
X30349500Y-30603000I0J-51000D01*
G01*
X30349500Y-31492000D01*
G75*
G02*
X30298500Y-31543000I-51000J0D01*
G01*
G37*
G36*
G01*
X31049000Y-24150000D02*
X31049000Y-22850000D01*
G75*
G02*
X31100000Y-22799000I51000J0D01*
G01*
X39100000Y-22799000D01*
G75*
G02*
X39151000Y-22850000I0J-51000D01*
G01*
X39151000Y-24150000D01*
G75*
G02*
X39100000Y-24201000I-51000J0D01*
G01*
X31100000Y-24201000D01*
G75*
G02*
X31049000Y-24150000I0J51000D01*
G01*
G37*
G36*
G01*
X31049000Y-21610000D02*
X31049000Y-20310000D01*
G75*
G02*
X31100000Y-20259000I51000J0D01*
G01*
X39100000Y-20259000D01*
G75*
G02*
X39151000Y-20310000I0J-51000D01*
G01*
X39151000Y-21610000D01*
G75*
G02*
X39100000Y-21661000I-51000J0D01*
G01*
X31100000Y-21661000D01*
G75*
G02*
X31049000Y-21610000I0J51000D01*
G01*
G37*
G36*
G01*
X36950000Y-25399000D02*
X37850000Y-25399000D01*
G75*
G02*
X37901000Y-25450000I0J-51000D01*
G01*
X37901000Y-26500000D01*
G75*
G02*
X37850000Y-26551000I-51000J0D01*
G01*
X36950000Y-26551000D01*
G75*
G02*
X36899000Y-26500000I0J51000D01*
G01*
X36899000Y-25450000D01*
G75*
G02*
X36950000Y-25399000I51000J0D01*
G01*
G37*
G36*
G01*
X34950000Y-26349000D02*
X35850000Y-26349000D01*
G75*
G02*
X35901000Y-26400000I0J-51000D01*
G01*
X35901000Y-27200000D01*
G75*
G02*
X35850000Y-27251000I-51000J0D01*
G01*
X34950000Y-27251000D01*
G75*
G02*
X34899000Y-27200000I0J51000D01*
G01*
X34899000Y-26400000D01*
G75*
G02*
X34950000Y-26349000I51000J0D01*
G01*
G37*
G36*
G01*
X36950000Y-27049000D02*
X37850000Y-27049000D01*
G75*
G02*
X37901000Y-27100000I0J-51000D01*
G01*
X37901000Y-28150000D01*
G75*
G02*
X37850000Y-28201000I-51000J0D01*
G01*
X36950000Y-28201000D01*
G75*
G02*
X36899000Y-28150000I0J51000D01*
G01*
X36899000Y-27100000D01*
G75*
G02*
X36950000Y-27049000I51000J0D01*
G01*
G37*
G36*
G01*
X32451000Y-27350000D02*
X32451000Y-28250000D01*
G75*
G02*
X32400000Y-28301000I-51000J0D01*
G01*
X31350000Y-28301000D01*
G75*
G02*
X31299000Y-28250000I0J51000D01*
G01*
X31299000Y-27350000D01*
G75*
G02*
X31350000Y-27299000I51000J0D01*
G01*
X32400000Y-27299000D01*
G75*
G02*
X32451000Y-27350000I0J-51000D01*
G01*
G37*
G36*
G01*
X33151000Y-25350000D02*
X33151000Y-26250000D01*
G75*
G02*
X33100000Y-26301000I-51000J0D01*
G01*
X32300000Y-26301000D01*
G75*
G02*
X32249000Y-26250000I0J51000D01*
G01*
X32249000Y-25350000D01*
G75*
G02*
X32300000Y-25299000I51000J0D01*
G01*
X33100000Y-25299000D01*
G75*
G02*
X33151000Y-25350000I0J-51000D01*
G01*
G37*
G36*
G01*
X34101000Y-27350000D02*
X34101000Y-28250000D01*
G75*
G02*
X34050000Y-28301000I-51000J0D01*
G01*
X33000000Y-28301000D01*
G75*
G02*
X32949000Y-28250000I0J51000D01*
G01*
X32949000Y-27350000D01*
G75*
G02*
X33000000Y-27299000I51000J0D01*
G01*
X34050000Y-27299000D01*
G75*
G02*
X34101000Y-27350000I0J-51000D01*
G01*
G37*
G36*
G01*
X33057000Y-30598500D02*
X33057000Y-29201500D01*
G75*
G02*
X33108000Y-29150500I51000J0D01*
G01*
X33997000Y-29150500D01*
G75*
G02*
X34048000Y-29201500I0J-51000D01*
G01*
X34048000Y-30598500D01*
G75*
G02*
X33997000Y-30649500I-51000J0D01*
G01*
X33108000Y-30649500D01*
G75*
G02*
X33057000Y-30598500I0J51000D01*
G01*
G37*
G36*
G01*
X31152000Y-30598500D02*
X31152000Y-29201500D01*
G75*
G02*
X31203000Y-29150500I51000J0D01*
G01*
X32092000Y-29150500D01*
G75*
G02*
X32143000Y-29201500I0J-51000D01*
G01*
X32143000Y-30598500D01*
G75*
G02*
X32092000Y-30649500I-51000J0D01*
G01*
X31203000Y-30649500D01*
G75*
G02*
X31152000Y-30598500I0J51000D01*
G01*
G37*
G36*
G01*
X39901500Y-20252000D02*
X41298500Y-20252000D01*
G75*
G02*
X41349500Y-20303000I0J-51000D01*
G01*
X41349500Y-21192000D01*
G75*
G02*
X41298500Y-21243000I-51000J0D01*
G01*
X39901500Y-21243000D01*
G75*
G02*
X39850500Y-21192000I0J51000D01*
G01*
X39850500Y-20303000D01*
G75*
G02*
X39901500Y-20252000I51000J0D01*
G01*
G37*
G36*
G01*
X39901500Y-22157000D02*
X41298500Y-22157000D01*
G75*
G02*
X41349500Y-22208000I0J-51000D01*
G01*
X41349500Y-23097000D01*
G75*
G02*
X41298500Y-23148000I-51000J0D01*
G01*
X39901500Y-23148000D01*
G75*
G02*
X39850500Y-23097000I0J51000D01*
G01*
X39850500Y-22208000D01*
G75*
G02*
X39901500Y-22157000I51000J0D01*
G01*
G37*
G36*
G01*
X68301500Y-45652000D02*
X69698500Y-45652000D01*
G75*
G02*
X69749500Y-45703000I0J-51000D01*
G01*
X69749500Y-46592000D01*
G75*
G02*
X69698500Y-46643000I-51000J0D01*
G01*
X68301500Y-46643000D01*
G75*
G02*
X68250500Y-46592000I0J51000D01*
G01*
X68250500Y-45703000D01*
G75*
G02*
X68301500Y-45652000I51000J0D01*
G01*
G37*
G36*
G01*
X68301500Y-47557000D02*
X69698500Y-47557000D01*
G75*
G02*
X69749500Y-47608000I0J-51000D01*
G01*
X69749500Y-48497000D01*
G75*
G02*
X69698500Y-48548000I-51000J0D01*
G01*
X68301500Y-48548000D01*
G75*
G02*
X68250500Y-48497000I0J51000D01*
G01*
X68250500Y-47608000D01*
G75*
G02*
X68301500Y-47557000I51000J0D01*
G01*
G37*
G36*
G01*
X37901500Y-47357000D02*
X39298500Y-47357000D01*
G75*
G02*
X39349500Y-47408000I0J-51000D01*
G01*
X39349500Y-48297000D01*
G75*
G02*
X39298500Y-48348000I-51000J0D01*
G01*
X37901500Y-48348000D01*
G75*
G02*
X37850500Y-48297000I0J51000D01*
G01*
X37850500Y-47408000D01*
G75*
G02*
X37901500Y-47357000I51000J0D01*
G01*
G37*
G36*
G01*
X37901500Y-45452000D02*
X39298500Y-45452000D01*
G75*
G02*
X39349500Y-45503000I0J-51000D01*
G01*
X39349500Y-46392000D01*
G75*
G02*
X39298500Y-46443000I-51000J0D01*
G01*
X37901500Y-46443000D01*
G75*
G02*
X37850500Y-46392000I0J51000D01*
G01*
X37850500Y-45503000D01*
G75*
G02*
X37901500Y-45452000I51000J0D01*
G01*
G37*
G36*
G01*
X66501500Y-39852000D02*
X67898500Y-39852000D01*
G75*
G02*
X67949500Y-39903000I0J-51000D01*
G01*
X67949500Y-40792000D01*
G75*
G02*
X67898500Y-40843000I-51000J0D01*
G01*
X66501500Y-40843000D01*
G75*
G02*
X66450500Y-40792000I0J51000D01*
G01*
X66450500Y-39903000D01*
G75*
G02*
X66501500Y-39852000I51000J0D01*
G01*
G37*
G36*
G01*
X66501500Y-41757000D02*
X67898500Y-41757000D01*
G75*
G02*
X67949500Y-41808000I0J-51000D01*
G01*
X67949500Y-42697000D01*
G75*
G02*
X67898500Y-42748000I-51000J0D01*
G01*
X66501500Y-42748000D01*
G75*
G02*
X66450500Y-42697000I0J51000D01*
G01*
X66450500Y-41808000D01*
G75*
G02*
X66501500Y-41757000I51000J0D01*
G01*
G37*
G36*
G01*
X69698500Y-42743000D02*
X68301500Y-42743000D01*
G75*
G02*
X68250500Y-42692000I0J51000D01*
G01*
X68250500Y-41803000D01*
G75*
G02*
X68301500Y-41752000I51000J0D01*
G01*
X69698500Y-41752000D01*
G75*
G02*
X69749500Y-41803000I0J-51000D01*
G01*
X69749500Y-42692000D01*
G75*
G02*
X69698500Y-42743000I-51000J0D01*
G01*
G37*
G36*
G01*
X69698500Y-44648000D02*
X68301500Y-44648000D01*
G75*
G02*
X68250500Y-44597000I0J51000D01*
G01*
X68250500Y-43708000D01*
G75*
G02*
X68301500Y-43657000I51000J0D01*
G01*
X69698500Y-43657000D01*
G75*
G02*
X69749500Y-43708000I0J-51000D01*
G01*
X69749500Y-44597000D01*
G75*
G02*
X69698500Y-44648000I-51000J0D01*
G01*
G37*
G36*
G01*
X37901500Y-44057000D02*
X39298500Y-44057000D01*
G75*
G02*
X39349500Y-44108000I0J-51000D01*
G01*
X39349500Y-44997000D01*
G75*
G02*
X39298500Y-45048000I-51000J0D01*
G01*
X37901500Y-45048000D01*
G75*
G02*
X37850500Y-44997000I0J51000D01*
G01*
X37850500Y-44108000D01*
G75*
G02*
X37901500Y-44057000I51000J0D01*
G01*
G37*
G36*
G01*
X37901500Y-42152000D02*
X39298500Y-42152000D01*
G75*
G02*
X39349500Y-42203000I0J-51000D01*
G01*
X39349500Y-43092000D01*
G75*
G02*
X39298500Y-43143000I-51000J0D01*
G01*
X37901500Y-43143000D01*
G75*
G02*
X37850500Y-43092000I0J51000D01*
G01*
X37850500Y-42203000D01*
G75*
G02*
X37901500Y-42152000I51000J0D01*
G01*
G37*
G36*
G01*
X41198500Y-43148000D02*
X39801500Y-43148000D01*
G75*
G02*
X39750500Y-43097000I0J51000D01*
G01*
X39750500Y-42208000D01*
G75*
G02*
X39801500Y-42157000I51000J0D01*
G01*
X41198500Y-42157000D01*
G75*
G02*
X41249500Y-42208000I0J-51000D01*
G01*
X41249500Y-43097000D01*
G75*
G02*
X41198500Y-43148000I-51000J0D01*
G01*
G37*
G36*
G01*
X41198500Y-41243000D02*
X39801500Y-41243000D01*
G75*
G02*
X39750500Y-41192000I0J51000D01*
G01*
X39750500Y-40303000D01*
G75*
G02*
X39801500Y-40252000I51000J0D01*
G01*
X41198500Y-40252000D01*
G75*
G02*
X41249500Y-40303000I0J-51000D01*
G01*
X41249500Y-41192000D01*
G75*
G02*
X41198500Y-41243000I-51000J0D01*
G01*
G37*
G36*
G01*
X43501500Y-22057000D02*
X44898500Y-22057000D01*
G75*
G02*
X44949500Y-22108000I0J-51000D01*
G01*
X44949500Y-22997000D01*
G75*
G02*
X44898500Y-23048000I-51000J0D01*
G01*
X43501500Y-23048000D01*
G75*
G02*
X43450500Y-22997000I0J51000D01*
G01*
X43450500Y-22108000D01*
G75*
G02*
X43501500Y-22057000I51000J0D01*
G01*
G37*
G36*
G01*
X43501500Y-20152000D02*
X44898500Y-20152000D01*
G75*
G02*
X44949500Y-20203000I0J-51000D01*
G01*
X44949500Y-21092000D01*
G75*
G02*
X44898500Y-21143000I-51000J0D01*
G01*
X43501500Y-21143000D01*
G75*
G02*
X43450500Y-21092000I0J51000D01*
G01*
X43450500Y-20203000D01*
G75*
G02*
X43501500Y-20152000I51000J0D01*
G01*
G37*
G36*
G01*
X48548000Y-21901500D02*
X48548000Y-23298500D01*
G75*
G02*
X48497000Y-23349500I-51000J0D01*
G01*
X47608000Y-23349500D01*
G75*
G02*
X47557000Y-23298500I0J51000D01*
G01*
X47557000Y-21901500D01*
G75*
G02*
X47608000Y-21850500I51000J0D01*
G01*
X48497000Y-21850500D01*
G75*
G02*
X48548000Y-21901500I0J-51000D01*
G01*
G37*
G36*
G01*
X46643000Y-21901500D02*
X46643000Y-23298500D01*
G75*
G02*
X46592000Y-23349500I-51000J0D01*
G01*
X45703000Y-23349500D01*
G75*
G02*
X45652000Y-23298500I0J51000D01*
G01*
X45652000Y-21901500D01*
G75*
G02*
X45703000Y-21850500I51000J0D01*
G01*
X46592000Y-21850500D01*
G75*
G02*
X46643000Y-21901500I0J-51000D01*
G01*
G37*
D17*
G36*
X53822732Y-48600000D02*
G01*
X53823000Y-48601000D01*
X53823000Y-48676415D01*
X53822764Y-48677358D01*
X53821922Y-48678933D01*
X53814922Y-48702008D01*
X53812559Y-48725999D01*
X53814922Y-48749990D01*
X53821922Y-48773065D01*
X53833287Y-48794329D01*
X53844808Y-48808367D01*
X53845134Y-48810341D01*
X53843588Y-48811609D01*
X53841848Y-48811050D01*
X53777894Y-48747096D01*
X53619136Y-48641018D01*
X53526987Y-48602848D01*
X53525769Y-48601261D01*
X53526534Y-48599413D01*
X53527752Y-48599000D01*
X53821000Y-48599000D01*
X53822732Y-48600000D01*
G37*
G36*
X56362732Y-48600000D02*
G01*
X56363000Y-48601000D01*
X56363000Y-48676415D01*
X56362764Y-48677358D01*
X56361922Y-48678933D01*
X56354922Y-48702008D01*
X56352559Y-48725999D01*
X56354922Y-48749990D01*
X56361922Y-48773065D01*
X56373287Y-48794329D01*
X56384808Y-48808367D01*
X56385134Y-48810341D01*
X56383588Y-48811609D01*
X56381848Y-48811050D01*
X56317894Y-48747096D01*
X56159136Y-48641018D01*
X56066987Y-48602848D01*
X56065769Y-48601261D01*
X56066534Y-48599413D01*
X56067752Y-48599000D01*
X56361000Y-48599000D01*
X56362732Y-48600000D01*
G37*
G36*
X58902732Y-48600000D02*
G01*
X58903000Y-48601000D01*
X58903000Y-48676415D01*
X58902764Y-48677358D01*
X58901922Y-48678933D01*
X58894922Y-48702008D01*
X58892559Y-48725999D01*
X58894922Y-48749990D01*
X58901922Y-48773065D01*
X58913287Y-48794329D01*
X58924808Y-48808367D01*
X58925134Y-48810341D01*
X58923588Y-48811609D01*
X58921848Y-48811050D01*
X58857894Y-48747096D01*
X58699136Y-48641018D01*
X58606987Y-48602848D01*
X58605769Y-48601261D01*
X58606534Y-48599413D01*
X58607752Y-48599000D01*
X58901000Y-48599000D01*
X58902732Y-48600000D01*
G37*
G36*
X48742732Y-48600000D02*
G01*
X48743000Y-48601000D01*
X48743000Y-48676415D01*
X48742764Y-48677358D01*
X48741922Y-48678933D01*
X48734922Y-48702008D01*
X48732559Y-48725999D01*
X48734922Y-48749990D01*
X48741922Y-48773065D01*
X48753287Y-48794329D01*
X48764808Y-48808367D01*
X48765134Y-48810341D01*
X48763588Y-48811609D01*
X48761848Y-48811050D01*
X48697894Y-48747096D01*
X48539136Y-48641018D01*
X48446987Y-48602848D01*
X48445769Y-48601261D01*
X48446534Y-48599413D01*
X48447752Y-48599000D01*
X48741000Y-48599000D01*
X48742732Y-48600000D01*
G37*
G36*
X63982732Y-48600000D02*
G01*
X63983000Y-48601000D01*
X63983000Y-48676415D01*
X63982764Y-48677358D01*
X63981922Y-48678933D01*
X63974922Y-48702008D01*
X63972559Y-48725999D01*
X63974922Y-48749990D01*
X63981922Y-48773065D01*
X63993287Y-48794329D01*
X64004808Y-48808367D01*
X64005134Y-48810341D01*
X64003588Y-48811609D01*
X64001848Y-48811050D01*
X63937894Y-48747096D01*
X63779136Y-48641018D01*
X63686987Y-48602848D01*
X63685769Y-48601261D01*
X63686534Y-48599413D01*
X63687752Y-48599000D01*
X63981000Y-48599000D01*
X63982732Y-48600000D01*
G37*
G36*
X46202732Y-48600000D02*
G01*
X46203000Y-48601000D01*
X46203000Y-48676415D01*
X46202764Y-48677358D01*
X46201922Y-48678933D01*
X46194922Y-48702008D01*
X46192559Y-48725999D01*
X46194922Y-48749990D01*
X46201922Y-48773065D01*
X46213287Y-48794329D01*
X46224808Y-48808367D01*
X46225134Y-48810341D01*
X46223588Y-48811609D01*
X46221848Y-48811050D01*
X46157894Y-48747096D01*
X45999136Y-48641018D01*
X45906987Y-48602848D01*
X45905769Y-48601261D01*
X45906534Y-48599413D01*
X45907752Y-48599000D01*
X46201000Y-48599000D01*
X46202732Y-48600000D01*
G37*
G36*
X61442732Y-48600000D02*
G01*
X61443000Y-48601000D01*
X61443000Y-48676415D01*
X61442764Y-48677358D01*
X61441922Y-48678933D01*
X61434922Y-48702008D01*
X61432559Y-48725999D01*
X61434922Y-48749990D01*
X61441922Y-48773065D01*
X61453287Y-48794329D01*
X61464808Y-48808367D01*
X61465134Y-48810341D01*
X61463588Y-48811609D01*
X61461848Y-48811050D01*
X61397894Y-48747096D01*
X61239136Y-48641018D01*
X61146987Y-48602848D01*
X61145769Y-48601261D01*
X61146534Y-48599413D01*
X61147752Y-48599000D01*
X61441000Y-48599000D01*
X61442732Y-48600000D01*
G37*
G36*
X51282732Y-48600000D02*
G01*
X51283000Y-48601000D01*
X51283000Y-48676415D01*
X51282764Y-48677358D01*
X51281922Y-48678933D01*
X51274922Y-48702008D01*
X51272559Y-48725999D01*
X51274922Y-48749990D01*
X51281922Y-48773065D01*
X51293287Y-48794329D01*
X51304808Y-48808367D01*
X51305134Y-48810341D01*
X51303588Y-48811609D01*
X51301848Y-48811050D01*
X51237894Y-48747096D01*
X51079136Y-48641018D01*
X50986987Y-48602848D01*
X50985769Y-48601261D01*
X50986534Y-48599413D01*
X50987752Y-48599000D01*
X51281000Y-48599000D01*
X51282732Y-48600000D01*
G37*
G36*
X47713980Y-48600000D02*
G01*
X47713980Y-48602000D01*
X47713013Y-48602848D01*
X47620864Y-48641018D01*
X47462106Y-48747096D01*
X47398152Y-48811050D01*
X47396220Y-48811568D01*
X47394806Y-48810154D01*
X47395192Y-48808367D01*
X47406713Y-48794329D01*
X47418078Y-48773065D01*
X47425078Y-48749990D01*
X47427441Y-48725999D01*
X47425078Y-48702008D01*
X47418078Y-48678933D01*
X47406713Y-48657669D01*
X47391418Y-48639032D01*
X47372781Y-48623737D01*
X47351517Y-48612372D01*
X47338419Y-48608399D01*
X47337000Y-48606485D01*
X47337000Y-48601000D01*
X47338000Y-48599268D01*
X47339000Y-48599000D01*
X47712248Y-48599000D01*
X47713980Y-48600000D01*
G37*
G36*
X60413980Y-48600000D02*
G01*
X60413980Y-48602000D01*
X60413013Y-48602848D01*
X60320864Y-48641018D01*
X60162106Y-48747096D01*
X60098152Y-48811050D01*
X60096220Y-48811568D01*
X60094806Y-48810154D01*
X60095192Y-48808367D01*
X60106713Y-48794329D01*
X60118078Y-48773065D01*
X60125078Y-48749990D01*
X60127441Y-48725999D01*
X60125078Y-48702008D01*
X60118078Y-48678933D01*
X60106713Y-48657669D01*
X60091418Y-48639032D01*
X60072781Y-48623737D01*
X60051517Y-48612372D01*
X60038419Y-48608399D01*
X60037000Y-48606485D01*
X60037000Y-48601000D01*
X60038000Y-48599268D01*
X60039000Y-48599000D01*
X60412248Y-48599000D01*
X60413980Y-48600000D01*
G37*
G36*
X52793980Y-48600000D02*
G01*
X52793980Y-48602000D01*
X52793013Y-48602848D01*
X52700864Y-48641018D01*
X52542106Y-48747096D01*
X52478152Y-48811050D01*
X52476220Y-48811568D01*
X52474806Y-48810154D01*
X52475192Y-48808367D01*
X52486713Y-48794329D01*
X52498078Y-48773065D01*
X52505078Y-48749990D01*
X52507441Y-48725999D01*
X52505078Y-48702008D01*
X52498078Y-48678933D01*
X52486713Y-48657669D01*
X52471418Y-48639032D01*
X52452781Y-48623737D01*
X52431517Y-48612372D01*
X52418419Y-48608399D01*
X52417000Y-48606485D01*
X52417000Y-48601000D01*
X52418000Y-48599268D01*
X52419000Y-48599000D01*
X52792248Y-48599000D01*
X52793980Y-48600000D01*
G37*
G36*
X62953980Y-48600000D02*
G01*
X62953980Y-48602000D01*
X62953013Y-48602848D01*
X62860864Y-48641018D01*
X62702106Y-48747096D01*
X62638152Y-48811050D01*
X62636220Y-48811568D01*
X62634806Y-48810154D01*
X62635192Y-48808367D01*
X62646713Y-48794329D01*
X62658078Y-48773065D01*
X62665078Y-48749990D01*
X62667441Y-48725999D01*
X62665078Y-48702008D01*
X62658078Y-48678933D01*
X62646713Y-48657669D01*
X62631418Y-48639032D01*
X62612781Y-48623737D01*
X62591517Y-48612372D01*
X62578419Y-48608399D01*
X62577000Y-48606485D01*
X62577000Y-48601000D01*
X62578000Y-48599268D01*
X62579000Y-48599000D01*
X62952248Y-48599000D01*
X62953980Y-48600000D01*
G37*
G36*
X55333980Y-48600000D02*
G01*
X55333980Y-48602000D01*
X55333013Y-48602848D01*
X55240864Y-48641018D01*
X55082106Y-48747096D01*
X55018152Y-48811050D01*
X55016220Y-48811568D01*
X55014806Y-48810154D01*
X55015192Y-48808367D01*
X55026713Y-48794329D01*
X55038078Y-48773065D01*
X55045078Y-48749990D01*
X55047441Y-48725999D01*
X55045078Y-48702008D01*
X55038078Y-48678933D01*
X55026713Y-48657669D01*
X55011418Y-48639032D01*
X54992781Y-48623737D01*
X54971517Y-48612372D01*
X54958419Y-48608399D01*
X54957000Y-48606485D01*
X54957000Y-48601000D01*
X54958000Y-48599268D01*
X54959000Y-48599000D01*
X55332248Y-48599000D01*
X55333980Y-48600000D01*
G37*
G36*
X57873980Y-48600000D02*
G01*
X57873980Y-48602000D01*
X57873013Y-48602848D01*
X57780864Y-48641018D01*
X57622106Y-48747096D01*
X57558152Y-48811050D01*
X57556220Y-48811568D01*
X57554806Y-48810154D01*
X57555192Y-48808367D01*
X57566713Y-48794329D01*
X57578078Y-48773065D01*
X57585078Y-48749990D01*
X57587441Y-48725999D01*
X57585078Y-48702008D01*
X57578078Y-48678933D01*
X57566713Y-48657669D01*
X57551418Y-48639032D01*
X57532781Y-48623737D01*
X57511517Y-48612372D01*
X57498419Y-48608399D01*
X57497000Y-48606485D01*
X57497000Y-48601000D01*
X57498000Y-48599268D01*
X57499000Y-48599000D01*
X57872248Y-48599000D01*
X57873980Y-48600000D01*
G37*
G36*
X50253980Y-48600000D02*
G01*
X50253980Y-48602000D01*
X50253013Y-48602848D01*
X50160864Y-48641018D01*
X50002106Y-48747096D01*
X49938152Y-48811050D01*
X49936220Y-48811568D01*
X49934806Y-48810154D01*
X49935192Y-48808367D01*
X49946713Y-48794329D01*
X49958078Y-48773065D01*
X49965078Y-48749990D01*
X49967441Y-48725999D01*
X49965078Y-48702008D01*
X49958078Y-48678933D01*
X49946713Y-48657669D01*
X49931418Y-48639032D01*
X49912781Y-48623737D01*
X49891517Y-48612372D01*
X49878419Y-48608399D01*
X49877000Y-48606485D01*
X49877000Y-48601000D01*
X49878000Y-48599268D01*
X49879000Y-48599000D01*
X50252248Y-48599000D01*
X50253980Y-48600000D01*
G37*
G36*
X45173980Y-48600000D02*
G01*
X45173980Y-48602000D01*
X45173013Y-48602848D01*
X45080864Y-48641018D01*
X44922106Y-48747096D01*
X44858152Y-48811050D01*
X44856220Y-48811568D01*
X44854806Y-48810154D01*
X44855192Y-48808367D01*
X44866713Y-48794329D01*
X44878078Y-48773065D01*
X44885078Y-48749990D01*
X44887441Y-48725999D01*
X44885078Y-48702008D01*
X44878078Y-48678933D01*
X44866713Y-48657669D01*
X44851418Y-48639032D01*
X44832781Y-48623737D01*
X44811517Y-48612372D01*
X44798419Y-48608399D01*
X44797000Y-48606485D01*
X44797000Y-48601000D01*
X44798000Y-48599268D01*
X44799000Y-48599000D01*
X45172248Y-48599000D01*
X45173980Y-48600000D01*
G37*
M02*
