G04 #@! TF.GenerationSoftware,KiCad,Pcbnew,(5.1.8)-1*
G04 #@! TF.CreationDate,2020-12-19T14:32:43-06:00*
G04 #@! TF.ProjectId,endcap,656e6463-6170-42e6-9b69-6361645f7063,2.1*
G04 #@! TF.SameCoordinates,PX2faf080PY2faf080*
G04 #@! TF.FileFunction,Profile,NP*
%FSLAX46Y46*%
G04 Gerber Fmt 4.6, Leading zero omitted, Abs format (unit mm)*
G04 Created by KiCad (PCBNEW (5.1.8)-1) date 2020-12-19 14:32:43*
%MOMM*%
%LPD*%
G01*
G04 APERTURE LIST*
G04 #@! TA.AperFunction,Profile*
%ADD10C,0.150000*%
G04 #@! TD*
G04 #@! TA.AperFunction,Profile*
%ADD11C,0.100000*%
G04 #@! TD*
G04 APERTURE END LIST*
D10*
X104000000Y0D02*
G75*
G02*
X106000000Y-2000000I0J-2000000D01*
G01*
X106000000Y-53000000D02*
G75*
G02*
X104000000Y-55000000I-2000000J0D01*
G01*
X2000000Y-55000000D02*
G75*
G02*
X0Y-53000000I0J2000000D01*
G01*
X0Y-2000000D02*
G75*
G02*
X2000000Y0I2000000J0D01*
G01*
X0Y-10000000D02*
X0Y-2000000D01*
X1000000Y-10500000D02*
X0Y-10000000D01*
X1000000Y-44500000D02*
X1000000Y-10500000D01*
X0Y-45000000D02*
X1000000Y-44500000D01*
X0Y-53000000D02*
X0Y-45000000D01*
X104000000Y-55000000D02*
X2000000Y-55000000D01*
X106000000Y-45000000D02*
X106000000Y-53000000D01*
X105000000Y-44500000D02*
X106000000Y-45000000D01*
X106000000Y-10000000D02*
X105000000Y-10500000D01*
X105000000Y-10500000D02*
X105000000Y-44500000D01*
X106000000Y-2000000D02*
X106000000Y-10000000D01*
X2000000Y0D02*
X104000000Y0D01*
D11*
X26650001Y-46400000D02*
X26650000Y-43400000D01*
X26650001Y-46400000D02*
G75*
G03*
X26650001Y-43400001I2749999J1500000D01*
G01*
X8170000Y-33505000D02*
X8170000Y-21495000D01*
X18830000Y-34385000D02*
X18830000Y-20615000D01*
X14770000Y-37650000D02*
X10750000Y-36770000D01*
X14770000Y-17350000D02*
X10750000Y-18230000D01*
X8165469Y-33489200D02*
G75*
G03*
X10750000Y-36770000I3354531J-15800D01*
G01*
X8165469Y-21510800D02*
G75*
G02*
X10750000Y-18230000I3354531J15800D01*
G01*
X14726414Y-17350860D02*
G75*
G02*
X18830000Y-20615000I753586J-3264140D01*
G01*
X14726414Y-37649140D02*
G75*
G03*
X18830000Y-34385000I753586J3264140D01*
G01*
M02*
