G04 #@! TF.GenerationSoftware,KiCad,Pcbnew,5.0.2-bee76a0~70~ubuntu16.04.1*
G04 #@! TF.CreationDate,2019-02-23T19:03:37-08:00*
G04 #@! TF.ProjectId,hermeslite,6865726d-6573-46c6-9974-652e6b696361,2.0-build8*
G04 #@! TF.SameCoordinates,PX42c1d80PY2625a00*
G04 #@! TF.FileFunction,Soldermask,Top*
G04 #@! TF.FilePolarity,Negative*
%FSLAX46Y46*%
G04 Gerber Fmt 4.6, Leading zero omitted, Abs format (unit mm)*
G04 Created by KiCad (PCBNEW 5.0.2-bee76a0~70~ubuntu16.04.1) date Sat 23 Feb 2019 07:03:37 PM PST*
%MOMM*%
%LPD*%
G01*
G04 APERTURE LIST*
%ADD10C,0.700000*%
%ADD11C,2.500000*%
%ADD12R,5.200000X5.200000*%
%ADD13R,0.450000X1.000000*%
%ADD14R,1.000000X0.450000*%
%ADD15R,2.100000X4.480000*%
%ADD16C,0.725000*%
%ADD17C,0.100000*%
%ADD18R,0.900000X1.600000*%
%ADD19R,1.100000X1.450000*%
%ADD20R,1.200000X4.200000*%
%ADD21R,2.200000X5.000000*%
%ADD22O,0.900000X1.600000*%
%ADD23R,12.200000X2.400000*%
%ADD24C,4.200000*%
%ADD25O,0.480000X1.400000*%
%ADD26O,1.400000X0.480000*%
%ADD27C,2.050000*%
%ADD28C,2.000000*%
%ADD29R,5.200000X3.500000*%
%ADD30R,5.200000X1.800000*%
%ADD31C,1.000000*%
%ADD32R,1.343000X0.835000*%
%ADD33C,1.900000*%
%ADD34R,1.200000X1.200000*%
%ADD35R,3.000000X3.000000*%
%ADD36C,3.200000*%
%ADD37R,2.700000X2.700000*%
%ADD38R,7.200000X7.200000*%
%ADD39R,0.800000X2.400000*%
%ADD40R,7.200000X3.140000*%
%ADD41R,0.710000X1.300000*%
%ADD42R,3.700000X2.800000*%
%ADD43C,2.700000*%
%ADD44R,2.050000X2.050000*%
%ADD45R,0.835000X1.343000*%
%ADD46R,1.550000X0.600000*%
%ADD47R,1.597000X1.089000*%
%ADD48R,2.600000X5.900000*%
%ADD49R,1.800000X2.000000*%
%ADD50R,1.089000X1.597000*%
%ADD51R,2.500000X5.800000*%
%ADD52R,1.200000X0.600000*%
%ADD53R,1.400000X1.600000*%
%ADD54C,0.835000*%
%ADD55R,1.978000X2.994000*%
%ADD56C,1.600000*%
%ADD57C,3.450000*%
%ADD58C,2.740000*%
%ADD59R,1.700000X0.850000*%
%ADD60R,2.900000X3.800000*%
%ADD61C,2.200000*%
%ADD62R,1.000000X1.100000*%
%ADD63R,1.100000X1.000000*%
%ADD64R,2.000000X1.800000*%
%ADD65R,1.600000X0.500000*%
%ADD66R,0.800000X1.250000*%
%ADD67C,5.500000*%
%ADD68C,1.800000*%
%ADD69R,1.850000X2.740000*%
%ADD70C,1.391444*%
%ADD71R,1.215000X1.850000*%
%ADD72R,0.960000X1.850000*%
%ADD73C,1.200000*%
%ADD74R,1.850000X2.200000*%
%ADD75C,2.300000*%
%ADD76C,2.800000*%
%ADD77C,3.000000*%
%ADD78R,2.740000X1.850000*%
%ADD79R,1.850000X1.215000*%
%ADD80R,1.600000X1.400000*%
%ADD81R,1.200760X0.799440*%
%ADD82R,1.300000X1.800000*%
%ADD83R,1.250000X2.400000*%
%ADD84R,2.400000X1.250000*%
%ADD85C,2.400000*%
%ADD86C,1.400000*%
%ADD87C,2.250000*%
%ADD88R,1.200000X2.710000*%
%ADD89R,1.280000X1.240000*%
%ADD90C,0.700000*%
%ADD91C,0.700000*%
%ADD92C,0.000000*%
%ADD93C,0.000000*%
%ADD94C,0.254000*%
G04 APERTURE END LIST*
D10*
G04 #@! TO.C,U4*
X27216525Y-20615000D03*
X27216525Y-23415000D03*
D11*
X30616525Y-22615000D03*
D12*
X29316525Y-21315000D03*
D13*
X26566525Y-17815000D03*
X27066525Y-17815000D03*
X27566525Y-17815000D03*
X28066525Y-17815000D03*
X28566525Y-17815000D03*
X29066525Y-17815000D03*
X29566525Y-17815000D03*
X30066525Y-17815000D03*
X30566525Y-17815000D03*
X31066525Y-17815000D03*
X31566525Y-17815000D03*
X32066525Y-17815000D03*
D14*
X32816525Y-18565000D03*
X32816525Y-19065000D03*
X32816525Y-19565000D03*
X32816525Y-20065000D03*
X32816525Y-20565000D03*
X32816525Y-21065000D03*
X32816525Y-21565000D03*
X32816525Y-22065000D03*
X32816525Y-22565000D03*
X32816525Y-23065000D03*
X32816525Y-23565000D03*
X32816525Y-24065000D03*
D13*
X32066525Y-24815000D03*
X31566525Y-24815000D03*
X31066525Y-24815000D03*
X30566525Y-24815000D03*
X30066525Y-24815000D03*
X29566525Y-24815000D03*
X29066525Y-24815000D03*
X28566525Y-24815000D03*
X28066525Y-24815000D03*
X27566525Y-24815000D03*
X27066525Y-24815000D03*
X26566525Y-24815000D03*
D14*
X25816525Y-24065000D03*
X25816525Y-23565000D03*
X25816525Y-23065000D03*
X25816525Y-22565000D03*
X25816525Y-22065000D03*
X25816525Y-21565000D03*
X25816525Y-21065000D03*
X25816525Y-20565000D03*
X25816525Y-20065000D03*
X25816525Y-19565000D03*
X25816525Y-19065000D03*
X25816525Y-18565000D03*
D10*
X30016525Y-20615000D03*
X31416525Y-20615000D03*
X28616525Y-19215000D03*
X30016525Y-19215000D03*
X28616525Y-22015000D03*
X28616525Y-23415000D03*
X31416525Y-19215000D03*
X27216525Y-19215000D03*
X28616525Y-20615000D03*
X27216525Y-22015000D03*
G04 #@! TD*
D15*
G04 #@! TO.C,Q3*
X80300000Y-97000000D03*
D16*
X80300000Y-94600000D03*
D17*
G36*
X79108579Y-94962500D02*
X79833579Y-94237500D01*
X80766421Y-94237500D01*
X81491421Y-94962500D01*
X79108579Y-94962500D01*
X79108579Y-94962500D01*
G37*
D18*
X80300000Y-93700000D03*
D19*
X81900000Y-93700000D03*
D20*
X74800000Y-95800000D03*
X85800000Y-95800000D03*
D21*
X77300000Y-93800000D03*
X83300000Y-93800000D03*
D22*
X80300000Y-92600000D03*
D19*
X78700000Y-93700000D03*
D23*
X80300000Y-98700000D03*
D10*
X85000000Y-98000000D03*
X80300000Y-94500000D03*
X81000000Y-95000000D03*
X79600000Y-95000000D03*
X80300000Y-95500000D03*
X80300000Y-96500000D03*
X79600000Y-96000000D03*
X81000000Y-96000000D03*
X80300000Y-97500000D03*
X79600000Y-97000000D03*
X81000000Y-97000000D03*
X80300000Y-98500000D03*
X84000000Y-98000000D03*
X83000000Y-98000000D03*
X82000000Y-98000000D03*
X81000000Y-98000000D03*
X81000000Y-99000000D03*
X82000000Y-99000000D03*
X83000000Y-99000000D03*
X84000000Y-99000000D03*
X85000000Y-99000000D03*
X79600000Y-99000000D03*
X78600000Y-99000000D03*
X77600000Y-99000000D03*
X76600000Y-99000000D03*
X75600000Y-99000000D03*
X75600000Y-98000000D03*
X76600000Y-98000000D03*
X77600000Y-98000000D03*
X78600000Y-98000000D03*
X79600000Y-98000000D03*
G04 #@! TD*
D15*
G04 #@! TO.C,Q4*
X63300000Y-97000000D03*
D16*
X63300000Y-94600000D03*
D17*
G36*
X62108579Y-94962500D02*
X62833579Y-94237500D01*
X63766421Y-94237500D01*
X64491421Y-94962500D01*
X62108579Y-94962500D01*
X62108579Y-94962500D01*
G37*
D18*
X63300000Y-93700000D03*
D19*
X64900000Y-93700000D03*
D20*
X57800000Y-95800000D03*
X68800000Y-95800000D03*
D21*
X60300000Y-93800000D03*
X66300000Y-93800000D03*
D22*
X63300000Y-92600000D03*
D19*
X61700000Y-93700000D03*
D23*
X63300000Y-98700000D03*
D10*
X68000000Y-98000000D03*
X63300000Y-94500000D03*
X64000000Y-95000000D03*
X62600000Y-95000000D03*
X63300000Y-95500000D03*
X63300000Y-96500000D03*
X62600000Y-96000000D03*
X64000000Y-96000000D03*
X63300000Y-97500000D03*
X62600000Y-97000000D03*
X64000000Y-97000000D03*
X63300000Y-98500000D03*
X67000000Y-98000000D03*
X66000000Y-98000000D03*
X65000000Y-98000000D03*
X64000000Y-98000000D03*
X64000000Y-99000000D03*
X65000000Y-99000000D03*
X66000000Y-99000000D03*
X67000000Y-99000000D03*
X68000000Y-99000000D03*
X62600000Y-99000000D03*
X61600000Y-99000000D03*
X60600000Y-99000000D03*
X59600000Y-99000000D03*
X58600000Y-99000000D03*
X58600000Y-98000000D03*
X59600000Y-98000000D03*
X60600000Y-98000000D03*
X61600000Y-98000000D03*
X62600000Y-98000000D03*
G04 #@! TD*
G04 #@! TO.C,U2*
X35600000Y-46800000D03*
D12*
X37100000Y-45300000D03*
D24*
X39200000Y-47400000D03*
D25*
X45850000Y-56300000D03*
X45350000Y-56300000D03*
X44850000Y-56300000D03*
X44350000Y-56300000D03*
X43850000Y-56300000D03*
X43350000Y-56300000D03*
X42850000Y-56300000D03*
X42350000Y-56300000D03*
X41850000Y-56300000D03*
X41350000Y-56300000D03*
X40850000Y-56300000D03*
X40350000Y-56300000D03*
X39850000Y-56300000D03*
X39350000Y-56300000D03*
X38850000Y-56300000D03*
X38350000Y-56300000D03*
X37850000Y-56300000D03*
X37350000Y-56300000D03*
X36850000Y-56300000D03*
X36350000Y-56300000D03*
X35850000Y-56300000D03*
X35350000Y-56300000D03*
X34850000Y-56300000D03*
X34350000Y-56300000D03*
X33850000Y-56300000D03*
X33350000Y-56300000D03*
X32850000Y-56300000D03*
X32350000Y-56300000D03*
X31850000Y-56300000D03*
X31350000Y-56300000D03*
X30850000Y-56300000D03*
X30350000Y-56300000D03*
X29850000Y-56300000D03*
X29350000Y-56300000D03*
X28850000Y-56300000D03*
X28350000Y-56300000D03*
D26*
X26100000Y-54050000D03*
X26100000Y-53550000D03*
X26100000Y-53050000D03*
X26100000Y-52550000D03*
X26100000Y-52050000D03*
X26100000Y-51550000D03*
X26100000Y-51050000D03*
X26100000Y-50550000D03*
X26100000Y-50050000D03*
X26100000Y-49550000D03*
X26100000Y-49050000D03*
X26100000Y-48550000D03*
X26100000Y-48050000D03*
X26100000Y-47550000D03*
X26100000Y-47050000D03*
X26100000Y-46550000D03*
X26100000Y-46050000D03*
X26100000Y-45550000D03*
X26100000Y-45050000D03*
X26100000Y-44550000D03*
X26100000Y-44050000D03*
X26100000Y-43550000D03*
X26100000Y-43050000D03*
X26100000Y-42550000D03*
X26100000Y-42050000D03*
X26100000Y-41550000D03*
X26100000Y-41050000D03*
X26100000Y-40550000D03*
X26100000Y-40050000D03*
X26100000Y-39550000D03*
X26100000Y-39050000D03*
X26100000Y-38550000D03*
X26100000Y-38050000D03*
X26100000Y-37550000D03*
X26100000Y-37050000D03*
X26100000Y-36550000D03*
D25*
X28350000Y-34300000D03*
X28850000Y-34300000D03*
X29350000Y-34300000D03*
X29850000Y-34300000D03*
X30350000Y-34300000D03*
X30850000Y-34300000D03*
X31350000Y-34300000D03*
X31850000Y-34300000D03*
X32350000Y-34300000D03*
X32850000Y-34300000D03*
X33350000Y-34300000D03*
X33850000Y-34300000D03*
X34350000Y-34300000D03*
X34850000Y-34300000D03*
X35350000Y-34300000D03*
X35850000Y-34300000D03*
X36350000Y-34300000D03*
X36850000Y-34300000D03*
X37350000Y-34300000D03*
X37850000Y-34300000D03*
X38350000Y-34300000D03*
X38850000Y-34300000D03*
X39350000Y-34300000D03*
X39850000Y-34300000D03*
X40350000Y-34300000D03*
X40850000Y-34300000D03*
X41350000Y-34300000D03*
X41850000Y-34300000D03*
X42350000Y-34300000D03*
X42850000Y-34300000D03*
X43350000Y-34300000D03*
X43850000Y-34300000D03*
X44350000Y-34300000D03*
X44850000Y-34300000D03*
X45350000Y-34300000D03*
X45850000Y-34300000D03*
D26*
X48100000Y-36550000D03*
X48100000Y-37050000D03*
X48100000Y-37550000D03*
X48100000Y-38050000D03*
X48100000Y-38550000D03*
X48100000Y-39050000D03*
X48100000Y-39550000D03*
X48100000Y-40050000D03*
X48100000Y-40550000D03*
X48100000Y-41050000D03*
X48100000Y-41550000D03*
X48100000Y-42050000D03*
X48100000Y-42550000D03*
X48100000Y-43050000D03*
X48100000Y-43550000D03*
X48100000Y-44050000D03*
X48100000Y-44550000D03*
X48100000Y-45050000D03*
X48100000Y-45550000D03*
X48100000Y-46050000D03*
X48100000Y-46550000D03*
X48100000Y-47050000D03*
X48100000Y-47550000D03*
X48100000Y-48050000D03*
X48100000Y-48550000D03*
X48100000Y-49050000D03*
X48100000Y-49550000D03*
X48100000Y-50050000D03*
X48100000Y-50550000D03*
X48100000Y-51050000D03*
X48100000Y-51550000D03*
X48100000Y-52050000D03*
X48100000Y-52550000D03*
X48100000Y-53050000D03*
X48100000Y-53550000D03*
X48100000Y-54050000D03*
D10*
X37100000Y-43800000D03*
X35600000Y-43800000D03*
X38600000Y-45300000D03*
X35600000Y-45300000D03*
X37100000Y-45300000D03*
X37100000Y-46800000D03*
X38600000Y-43800000D03*
G04 #@! TD*
D27*
G04 #@! TO.C,RF2*
X98700000Y-83120000D03*
D28*
X96160000Y-88200000D03*
D27*
X96005000Y-85660000D03*
X96005000Y-90740000D03*
X98700000Y-90740000D03*
X98700000Y-85660000D03*
X98415000Y-88200000D03*
D29*
X97200000Y-84900000D03*
X97200000Y-91500000D03*
D30*
X97200000Y-88200000D03*
G04 #@! TD*
D27*
G04 #@! TO.C,RF3*
X98700000Y-72960000D03*
D28*
X96160000Y-78040000D03*
D27*
X96005000Y-75500000D03*
X96005000Y-80580000D03*
X98700000Y-80580000D03*
X98700000Y-75500000D03*
X98415000Y-78040000D03*
D29*
X97200000Y-74740000D03*
X97200000Y-81340000D03*
D30*
X97200000Y-78040000D03*
G04 #@! TD*
D27*
G04 #@! TO.C,RF1*
X98700000Y-62800000D03*
D28*
X96160000Y-67880000D03*
D27*
X96005000Y-65340000D03*
X96005000Y-70420000D03*
X98700000Y-70420000D03*
X98700000Y-65340000D03*
X98415000Y-67880000D03*
D29*
X97200000Y-64580000D03*
X97200000Y-71180000D03*
D30*
X97200000Y-67880000D03*
G04 #@! TD*
D28*
G04 #@! TO.C,CL2*
X4040000Y-68440000D03*
D27*
X4195000Y-70980000D03*
X4195000Y-65900000D03*
X1500000Y-65900000D03*
X1500000Y-70980000D03*
X1785000Y-68440000D03*
D29*
X3000000Y-71740000D03*
X3000000Y-65140000D03*
D30*
X3000000Y-68440000D03*
D27*
X4040000Y-63360000D03*
G04 #@! TD*
D28*
G04 #@! TO.C,CL1*
X4040000Y-78600000D03*
D27*
X4195000Y-81140000D03*
X4195000Y-76060000D03*
X1500000Y-76060000D03*
X1500000Y-81140000D03*
X1785000Y-78600000D03*
D29*
X3000000Y-81900000D03*
X3000000Y-75300000D03*
D30*
X3000000Y-78600000D03*
D27*
X4040000Y-73520000D03*
G04 #@! TD*
D31*
G04 #@! TO.C,GT1*
X20400000Y-35900000D03*
G04 #@! TD*
D32*
G04 #@! TO.C,R45*
X25100000Y-64238000D03*
X25100000Y-65762000D03*
G04 #@! TD*
D33*
G04 #@! TO.C,U6*
X24555000Y-70620715D03*
D10*
X26055000Y-71120715D03*
X26055000Y-69120715D03*
X26055000Y-70220715D03*
X24955000Y-69120715D03*
X24055000Y-69120715D03*
D34*
X25755000Y-69420715D03*
X25755000Y-70820715D03*
X24355000Y-69420715D03*
D13*
X23805000Y-72220715D03*
X24305000Y-72220715D03*
X24805000Y-72220715D03*
X25305000Y-72220715D03*
X25805000Y-72220715D03*
X26305000Y-72220715D03*
D14*
X27155000Y-71370715D03*
X27155000Y-70870715D03*
X27155000Y-70370715D03*
X27155000Y-69870715D03*
X27155000Y-69370715D03*
X27155000Y-68870715D03*
D13*
X26305000Y-68020715D03*
X25805000Y-68020715D03*
X25305000Y-68020715D03*
X24805000Y-68020715D03*
X24305000Y-68020715D03*
X23805000Y-68020715D03*
D14*
X22955000Y-68870715D03*
X22955000Y-69370715D03*
X22955000Y-69870715D03*
X22955000Y-70370715D03*
X22955000Y-70870715D03*
X22955000Y-71370715D03*
D35*
X25055000Y-70120715D03*
D34*
X24355000Y-70820715D03*
D10*
X25555000Y-69620715D03*
G04 #@! TD*
D36*
G04 #@! TO.C,U7*
X43500000Y-67800000D03*
D10*
X44500000Y-72800000D03*
X44500000Y-71300000D03*
X43000000Y-72800000D03*
X43000000Y-71300000D03*
X38500000Y-72800000D03*
X40000000Y-72800000D03*
X40000000Y-66800000D03*
X38500000Y-66800000D03*
X38500000Y-68300000D03*
X40000000Y-68300000D03*
X40000000Y-71300000D03*
X38500000Y-71300000D03*
X38500000Y-69800000D03*
X40000000Y-69800000D03*
X44500000Y-69800000D03*
X43000000Y-69800000D03*
X41500000Y-66800000D03*
X41500000Y-68300000D03*
X41500000Y-72800000D03*
X41500000Y-71300000D03*
D37*
X43250000Y-71550000D03*
X39750000Y-71550000D03*
X39750000Y-68050000D03*
D13*
X45250000Y-65200000D03*
X44750000Y-65200000D03*
X44250000Y-65200000D03*
X43750000Y-65200000D03*
X43250000Y-65200000D03*
X42750000Y-65200000D03*
X42250000Y-65200000D03*
X41750000Y-65200000D03*
X41250000Y-65200000D03*
X40750000Y-65200000D03*
X40250000Y-65200000D03*
X39750000Y-65200000D03*
X39250000Y-65200000D03*
X38750000Y-65200000D03*
X38250000Y-65200000D03*
X37750000Y-65200000D03*
D14*
X36900000Y-66050000D03*
X36900000Y-66550000D03*
X36900000Y-67050000D03*
X36900000Y-67550000D03*
X36900000Y-68050000D03*
X36900000Y-68550000D03*
X36900000Y-69050000D03*
X36900000Y-69550000D03*
X36900000Y-70050000D03*
X36900000Y-70550000D03*
X36900000Y-71050000D03*
X36900000Y-71550000D03*
X36900000Y-72050000D03*
X36900000Y-72550000D03*
X36900000Y-73050000D03*
X36900000Y-73550000D03*
D13*
X37750000Y-74400000D03*
X38250000Y-74400000D03*
X38750000Y-74400000D03*
X39250000Y-74400000D03*
X39750000Y-74400000D03*
X40250000Y-74400000D03*
X40750000Y-74400000D03*
X41250000Y-74400000D03*
X41750000Y-74400000D03*
X42250000Y-74400000D03*
X42750000Y-74400000D03*
X43250000Y-74400000D03*
X43750000Y-74400000D03*
X44250000Y-74400000D03*
X44750000Y-74400000D03*
X45250000Y-74400000D03*
D14*
X46100000Y-73550000D03*
X46100000Y-73050000D03*
X46100000Y-72550000D03*
X46100000Y-72050000D03*
X46100000Y-71550000D03*
X46100000Y-71050000D03*
X46100000Y-70550000D03*
X46100000Y-70050000D03*
X46100000Y-69550000D03*
X46100000Y-69050000D03*
X46100000Y-68550000D03*
X46100000Y-68050000D03*
X46100000Y-67550000D03*
X46100000Y-67050000D03*
X46100000Y-66550000D03*
X46100000Y-66050000D03*
D38*
X41500000Y-69800000D03*
D37*
X43250000Y-68050000D03*
D10*
X41500000Y-69800000D03*
G04 #@! TD*
G04 #@! TO.C,U9*
X71395000Y-70325000D03*
X74395000Y-70325000D03*
X71395000Y-68825000D03*
D33*
X74700000Y-68950000D03*
D10*
X72895000Y-70325000D03*
D39*
X74800000Y-66700000D03*
X73530000Y-66700000D03*
X72260000Y-66700000D03*
X70990000Y-66700000D03*
X70990000Y-72450000D03*
X72260000Y-72450000D03*
X73530000Y-72450000D03*
X74800000Y-72450000D03*
D40*
X72895000Y-69575000D03*
D10*
X72895000Y-68825000D03*
G04 #@! TD*
G04 #@! TO.C,U16*
X52500000Y-23750000D03*
D41*
X49395000Y-21100000D03*
X49395000Y-26400000D03*
X50665000Y-21100000D03*
X50665000Y-26400000D03*
X51935000Y-21100000D03*
X51935000Y-26400000D03*
X53205000Y-21100000D03*
X53205000Y-26400000D03*
D42*
X51300000Y-23750000D03*
D43*
X49500000Y-23750000D03*
D10*
X51500000Y-23750000D03*
G04 #@! TD*
G04 #@! TO.C,U3*
X67200000Y-23750000D03*
D41*
X64095000Y-21100000D03*
X64095000Y-26400000D03*
X65365000Y-21100000D03*
X65365000Y-26400000D03*
X66635000Y-21100000D03*
X66635000Y-26400000D03*
X67905000Y-21100000D03*
X67905000Y-26400000D03*
D42*
X66000000Y-23750000D03*
D43*
X64200000Y-23750000D03*
D10*
X66200000Y-23750000D03*
G04 #@! TD*
G04 #@! TO.C,U8*
X81900000Y-23750000D03*
D41*
X78795000Y-21100000D03*
X78795000Y-26400000D03*
X80065000Y-21100000D03*
X80065000Y-26400000D03*
X81335000Y-21100000D03*
X81335000Y-26400000D03*
X82605000Y-21100000D03*
X82605000Y-26400000D03*
D42*
X80700000Y-23750000D03*
D43*
X78900000Y-23750000D03*
D10*
X80900000Y-23750000D03*
G04 #@! TD*
D44*
G04 #@! TO.C,CN10*
X76500000Y-55800000D03*
D27*
X76500000Y-58340000D03*
G04 #@! TD*
D44*
G04 #@! TO.C,CN9*
X85200000Y-55800000D03*
D27*
X85200000Y-58340000D03*
G04 #@! TD*
D44*
G04 #@! TO.C,CN8*
X91100000Y-55800000D03*
D27*
X91100000Y-58340000D03*
G04 #@! TD*
D32*
G04 #@! TO.C,C80*
X74300000Y-56338000D03*
X74300000Y-57862000D03*
G04 #@! TD*
G04 #@! TO.C,C79*
X83000000Y-57638000D03*
X83000000Y-59162000D03*
G04 #@! TD*
D45*
G04 #@! TO.C,C47*
X87338000Y-57900000D03*
X88862000Y-57900000D03*
G04 #@! TD*
G04 #@! TO.C,C83*
X79462000Y-47300000D03*
X77938000Y-47300000D03*
G04 #@! TD*
G04 #@! TO.C,C82*
X79462000Y-39300000D03*
X77938000Y-39300000D03*
G04 #@! TD*
D46*
G04 #@! TO.C,U13*
X74850000Y-44275000D03*
X79150000Y-44275000D03*
X74850000Y-43625000D03*
X79150000Y-43625000D03*
X74850000Y-42975000D03*
X79150000Y-42975000D03*
X74850000Y-42325000D03*
X79150000Y-42325000D03*
G04 #@! TD*
D44*
G04 #@! TO.C,DB17*
X72400000Y-38800000D03*
D27*
X72400000Y-41340000D03*
X72400000Y-43880000D03*
X72400000Y-46420000D03*
G04 #@! TD*
D45*
G04 #@! TO.C,B94*
X74438000Y-46000000D03*
X75962000Y-46000000D03*
G04 #@! TD*
D32*
G04 #@! TO.C,B108*
X62800000Y-58638000D03*
X62800000Y-60162000D03*
G04 #@! TD*
G04 #@! TO.C,FB14*
X79900000Y-63062000D03*
X79900000Y-61538000D03*
G04 #@! TD*
G04 #@! TO.C,B66*
X81600000Y-61538000D03*
X81600000Y-63062000D03*
G04 #@! TD*
G04 #@! TO.C,R125*
X88700000Y-53362000D03*
X88700000Y-51838000D03*
G04 #@! TD*
D45*
G04 #@! TO.C,R102*
X85038000Y-35400000D03*
X86562000Y-35400000D03*
G04 #@! TD*
D32*
G04 #@! TO.C,R91*
X86300000Y-32538000D03*
X86300000Y-34062000D03*
G04 #@! TD*
D47*
G04 #@! TO.C,C46*
X95500000Y-31747500D03*
X95500000Y-33652500D03*
G04 #@! TD*
D45*
G04 #@! TO.C,FB15*
X74338000Y-31900000D03*
X75862000Y-31900000D03*
G04 #@! TD*
D44*
G04 #@! TO.C,DB27*
X86000000Y-19620000D03*
D27*
X86000000Y-17080000D03*
G04 #@! TD*
D45*
G04 #@! TO.C,R46*
X81038000Y-28200000D03*
X82562000Y-28200000D03*
G04 #@! TD*
G04 #@! TO.C,R19*
X75138000Y-26600000D03*
X76662000Y-26600000D03*
G04 #@! TD*
D48*
G04 #@! TO.C,L3*
X80050000Y-14600000D03*
X76150000Y-14600000D03*
G04 #@! TD*
D44*
G04 #@! TO.C,DB14*
X73300000Y-24400000D03*
D27*
X75840000Y-24400000D03*
G04 #@! TD*
D49*
G04 #@! TO.C,C33*
X81450000Y-19000000D03*
X78650000Y-19000000D03*
G04 #@! TD*
D50*
G04 #@! TO.C,C32*
X72552500Y-19200000D03*
X70647500Y-19200000D03*
G04 #@! TD*
G04 #@! TO.C,C31*
X72552500Y-17300000D03*
X70647500Y-17300000D03*
G04 #@! TD*
G04 #@! TO.C,C30*
X73947500Y-22200000D03*
X75852500Y-22200000D03*
G04 #@! TD*
G04 #@! TO.C,C29*
X73947500Y-20500000D03*
X75852500Y-20500000D03*
G04 #@! TD*
G04 #@! TO.C,C28*
X73947500Y-18700000D03*
X75852500Y-18700000D03*
G04 #@! TD*
D45*
G04 #@! TO.C,C27*
X75138000Y-28200000D03*
X76662000Y-28200000D03*
G04 #@! TD*
D44*
G04 #@! TO.C,DB11*
X55500000Y-28800000D03*
D27*
X55500000Y-26260000D03*
G04 #@! TD*
D44*
G04 #@! TO.C,DB8*
X70200000Y-28800000D03*
D27*
X70200000Y-26260000D03*
G04 #@! TD*
D51*
G04 #@! TO.C,F1*
X58800000Y-5900000D03*
X66200000Y-5900000D03*
G04 #@! TD*
D50*
G04 #@! TO.C,C81*
X91747500Y-75500000D03*
X93652500Y-75500000D03*
G04 #@! TD*
D44*
G04 #@! TO.C,DB23*
X83300000Y-76600000D03*
D27*
X80760000Y-76600000D03*
G04 #@! TD*
D44*
G04 #@! TO.C,DB20*
X82900000Y-68900000D03*
D27*
X80360000Y-68900000D03*
G04 #@! TD*
D52*
G04 #@! TO.C,U11*
X83900000Y-74200000D03*
X83900000Y-73550000D03*
X83900000Y-72900000D03*
X81950000Y-72900000D03*
X81950000Y-73550000D03*
X81950000Y-74200000D03*
G04 #@! TD*
G04 #@! TO.C,U10*
X83900000Y-66200000D03*
X83900000Y-65550000D03*
X83900000Y-64900000D03*
X81950000Y-64900000D03*
X81950000Y-65550000D03*
X81950000Y-66200000D03*
G04 #@! TD*
D50*
G04 #@! TO.C,R62*
X77152500Y-75600000D03*
X75247500Y-75600000D03*
G04 #@! TD*
G04 #@! TO.C,R52*
X78152500Y-63400000D03*
X76247500Y-63400000D03*
G04 #@! TD*
D45*
G04 #@! TO.C,B77*
X80562000Y-73500000D03*
X79038000Y-73500000D03*
G04 #@! TD*
G04 #@! TO.C,B70*
X80562000Y-65500000D03*
X79038000Y-65500000D03*
G04 #@! TD*
D44*
G04 #@! TO.C,DB3*
X54600000Y-78200000D03*
D27*
X54600000Y-75660000D03*
X54600000Y-73120000D03*
X54600000Y-70580000D03*
G04 #@! TD*
D45*
G04 #@! TO.C,B100*
X64338000Y-76700000D03*
X65862000Y-76700000D03*
G04 #@! TD*
G04 #@! TO.C,B99*
X84412000Y-87400000D03*
X82888000Y-87400000D03*
G04 #@! TD*
G04 #@! TO.C,B97*
X78138000Y-90000000D03*
X79662000Y-90000000D03*
G04 #@! TD*
D47*
G04 #@! TO.C,R100*
X79400000Y-85452500D03*
X79400000Y-83547500D03*
G04 #@! TD*
D50*
G04 #@! TO.C,R98*
X79647500Y-87200000D03*
X81552500Y-87200000D03*
G04 #@! TD*
G04 #@! TO.C,R97*
X80547500Y-81500000D03*
X82452500Y-81500000D03*
G04 #@! TD*
D47*
G04 #@! TO.C,R94*
X81800000Y-85452500D03*
X81800000Y-83547500D03*
G04 #@! TD*
D45*
G04 #@! TO.C,B106*
X74038000Y-89000000D03*
X75562000Y-89000000D03*
G04 #@! TD*
G04 #@! TO.C,B105*
X61138000Y-89600000D03*
X62662000Y-89600000D03*
G04 #@! TD*
G04 #@! TO.C,B103*
X71262000Y-78400000D03*
X69738000Y-78400000D03*
G04 #@! TD*
G04 #@! TO.C,B102*
X66338000Y-78400000D03*
X67862000Y-78400000D03*
G04 #@! TD*
G04 #@! TO.C,B101*
X70562000Y-76700000D03*
X69038000Y-76700000D03*
G04 #@! TD*
D44*
G04 #@! TO.C,DB2*
X77200000Y-65700000D03*
D27*
X77200000Y-68240000D03*
X77200000Y-70780000D03*
X77200000Y-73320000D03*
G04 #@! TD*
D45*
G04 #@! TO.C,R63*
X70962000Y-74700000D03*
X69438000Y-74700000D03*
G04 #@! TD*
G04 #@! TO.C,R59*
X73762000Y-74700000D03*
X72238000Y-74700000D03*
G04 #@! TD*
G04 #@! TO.C,R56*
X74962000Y-64200000D03*
X73438000Y-64200000D03*
G04 #@! TD*
G04 #@! TO.C,R51*
X71162000Y-64200000D03*
X69638000Y-64200000D03*
G04 #@! TD*
G04 #@! TO.C,R64*
X59562000Y-74200000D03*
X58038000Y-74200000D03*
G04 #@! TD*
D32*
G04 #@! TO.C,R58*
X66200000Y-70262000D03*
X66200000Y-68738000D03*
G04 #@! TD*
G04 #@! TO.C,R57*
X62100000Y-70262000D03*
X62100000Y-68738000D03*
G04 #@! TD*
D45*
G04 #@! TO.C,R50*
X58038000Y-64900000D03*
X59562000Y-64900000D03*
G04 #@! TD*
D50*
G04 #@! TO.C,L9*
X66352500Y-72200000D03*
X64447500Y-72200000D03*
G04 #@! TD*
D47*
G04 #@! TO.C,L8*
X62200000Y-73452500D03*
X62200000Y-71547500D03*
G04 #@! TD*
D50*
G04 #@! TO.C,L7*
X59952500Y-72200000D03*
X58047500Y-72200000D03*
G04 #@! TD*
G04 #@! TO.C,L6*
X64447500Y-66800000D03*
X66352500Y-66800000D03*
G04 #@! TD*
D47*
G04 #@! TO.C,L5*
X62200000Y-67452500D03*
X62200000Y-65547500D03*
G04 #@! TD*
D50*
G04 #@! TO.C,L4*
X58047500Y-66800000D03*
X59952500Y-66800000D03*
G04 #@! TD*
D47*
G04 #@! TO.C,C52*
X68100000Y-68547500D03*
X68100000Y-70452500D03*
G04 #@! TD*
G04 #@! TO.C,C51*
X64300000Y-68547500D03*
X64300000Y-70452500D03*
G04 #@! TD*
G04 #@! TO.C,C50*
X60200000Y-68547500D03*
X60200000Y-70452500D03*
G04 #@! TD*
G04 #@! TO.C,C49*
X58000000Y-68547500D03*
X58000000Y-70452500D03*
G04 #@! TD*
D32*
G04 #@! TO.C,B78*
X68100000Y-73462000D03*
X68100000Y-71938000D03*
G04 #@! TD*
G04 #@! TO.C,B68*
X68100000Y-65438000D03*
X68100000Y-66962000D03*
G04 #@! TD*
D49*
G04 #@! TO.C,C23*
X52050000Y-19000000D03*
X49250000Y-19000000D03*
G04 #@! TD*
G04 #@! TO.C,C17*
X66750000Y-19000000D03*
X63950000Y-19000000D03*
G04 #@! TD*
D32*
G04 #@! TO.C,R17*
X22300000Y-44338000D03*
X22300000Y-45862000D03*
G04 #@! TD*
D45*
G04 #@! TO.C,J16*
X43062000Y-90400000D03*
X41538000Y-90400000D03*
G04 #@! TD*
D32*
G04 #@! TO.C,J12*
X44100000Y-86362000D03*
X44100000Y-84838000D03*
G04 #@! TD*
G04 #@! TO.C,B84*
X38600000Y-78362000D03*
X38600000Y-76838000D03*
G04 #@! TD*
G04 #@! TO.C,B83*
X40200000Y-78362000D03*
X40200000Y-76838000D03*
G04 #@! TD*
D53*
G04 #@! TO.C,X3*
X52250000Y-69800000D03*
X52250000Y-67600000D03*
X50550000Y-67600000D03*
X50550000Y-69800000D03*
G04 #@! TD*
D32*
G04 #@! TO.C,C59*
X54000000Y-68662000D03*
X54000000Y-67138000D03*
G04 #@! TD*
D45*
G04 #@! TO.C,C58*
X50838000Y-65900000D03*
X52362000Y-65900000D03*
G04 #@! TD*
G04 #@! TO.C,J8*
X47462000Y-77000000D03*
X45938000Y-77000000D03*
G04 #@! TD*
G04 #@! TO.C,J7*
X48962000Y-74800000D03*
X47438000Y-74800000D03*
G04 #@! TD*
D34*
G04 #@! TO.C,TP6*
X48400000Y-67600000D03*
G04 #@! TD*
G04 #@! TO.C,TP5*
X33700000Y-67500000D03*
G04 #@! TD*
D32*
G04 #@! TO.C,R69*
X42000000Y-78362000D03*
X42000000Y-76838000D03*
G04 #@! TD*
G04 #@! TO.C,J10*
X48300000Y-64738000D03*
X48300000Y-66262000D03*
G04 #@! TD*
G04 #@! TO.C,B85*
X43600000Y-76838000D03*
X43600000Y-78362000D03*
G04 #@! TD*
D54*
G04 #@! TO.C,B73*
X36738815Y-75638815D03*
D17*
G36*
X37508854Y-75459210D02*
X36559210Y-76408854D01*
X35968776Y-75818420D01*
X36918420Y-74868776D01*
X37508854Y-75459210D01*
X37508854Y-75459210D01*
G37*
D54*
X35661185Y-74561185D03*
D17*
G36*
X36431224Y-74381580D02*
X35481580Y-75331224D01*
X34891146Y-74740790D01*
X35840790Y-73791146D01*
X36431224Y-74381580D01*
X36431224Y-74381580D01*
G37*
G04 #@! TD*
D45*
G04 #@! TO.C,R16*
X54538000Y-21100000D03*
X56062000Y-21100000D03*
G04 #@! TD*
G04 #@! TO.C,R15*
X51638000Y-28200000D03*
X53162000Y-28200000D03*
G04 #@! TD*
G04 #@! TO.C,R14*
X45738000Y-26600000D03*
X47262000Y-26600000D03*
G04 #@! TD*
D48*
G04 #@! TO.C,L2*
X50650000Y-14600000D03*
X46750000Y-14600000D03*
G04 #@! TD*
D32*
G04 #@! TO.C,J11*
X54800000Y-24262000D03*
X54800000Y-22738000D03*
G04 #@! TD*
D55*
G04 #@! TO.C,C22*
X43422000Y-19500000D03*
X46978000Y-19500000D03*
G04 #@! TD*
D50*
G04 #@! TO.C,C21*
X43747500Y-22100000D03*
X45652500Y-22100000D03*
G04 #@! TD*
D47*
G04 #@! TO.C,C20*
X43000000Y-16652500D03*
X43000000Y-14747500D03*
G04 #@! TD*
D45*
G04 #@! TO.C,C19*
X45738000Y-28200000D03*
X47262000Y-28200000D03*
G04 #@! TD*
D48*
G04 #@! TO.C,L1*
X65350000Y-14600000D03*
X61450000Y-14600000D03*
G04 #@! TD*
D45*
G04 #@! TO.C,R13*
X69238000Y-21100000D03*
X70762000Y-21100000D03*
G04 #@! TD*
G04 #@! TO.C,R12*
X66338000Y-28200000D03*
X67862000Y-28200000D03*
G04 #@! TD*
G04 #@! TO.C,R11*
X60438000Y-26600000D03*
X61962000Y-26600000D03*
G04 #@! TD*
D32*
G04 #@! TO.C,J2*
X69500000Y-24262000D03*
X69500000Y-22738000D03*
G04 #@! TD*
D55*
G04 #@! TO.C,C16*
X58122000Y-19500000D03*
X61678000Y-19500000D03*
G04 #@! TD*
D50*
G04 #@! TO.C,C14*
X58447500Y-22100000D03*
X60352500Y-22100000D03*
G04 #@! TD*
D45*
G04 #@! TO.C,C13*
X60438000Y-28200000D03*
X61962000Y-28200000D03*
G04 #@! TD*
D32*
G04 #@! TO.C,R42*
X21500000Y-66938000D03*
X21500000Y-68462000D03*
G04 #@! TD*
D45*
G04 #@! TO.C,R41*
X18738000Y-71600000D03*
X20262000Y-71600000D03*
G04 #@! TD*
G04 #@! TO.C,R40*
X22438000Y-73800000D03*
X23962000Y-73800000D03*
G04 #@! TD*
G04 #@! TO.C,R39*
X21262000Y-73300000D03*
X19738000Y-73300000D03*
G04 #@! TD*
D32*
G04 #@! TO.C,R38*
X19000000Y-80738000D03*
X19000000Y-82262000D03*
G04 #@! TD*
D45*
G04 #@! TO.C,J4*
X19738000Y-75000000D03*
X21262000Y-75000000D03*
G04 #@! TD*
D32*
G04 #@! TO.C,C42*
X28000000Y-75538000D03*
X28000000Y-77062000D03*
G04 #@! TD*
G04 #@! TO.C,B57*
X25900000Y-75362000D03*
X25900000Y-73838000D03*
G04 #@! TD*
G04 #@! TO.C,B63*
X28000000Y-72938000D03*
X28000000Y-74462000D03*
G04 #@! TD*
D45*
G04 #@! TO.C,B1*
X52638000Y-52300000D03*
X54162000Y-52300000D03*
G04 #@! TD*
D44*
G04 #@! TO.C,CN1*
X58230000Y-42220000D03*
D27*
X60770000Y-42220000D03*
X58230000Y-44760000D03*
X60770000Y-44760000D03*
X58230000Y-47300000D03*
X60770000Y-47300000D03*
X58230000Y-49840000D03*
X60770000Y-49840000D03*
X58230000Y-52380000D03*
X60770000Y-52380000D03*
G04 #@! TD*
D45*
G04 #@! TO.C,FB11*
X35662000Y-13700000D03*
X34138000Y-13700000D03*
G04 #@! TD*
G04 #@! TO.C,FB9*
X36062000Y-11300000D03*
X34538000Y-11300000D03*
G04 #@! TD*
D32*
G04 #@! TO.C,C40*
X32700000Y-13862000D03*
X32700000Y-12338000D03*
G04 #@! TD*
G04 #@! TO.C,C38*
X30700000Y-11138000D03*
X30700000Y-12662000D03*
G04 #@! TD*
D45*
G04 #@! TO.C,C37*
X27562000Y-11200000D03*
X26038000Y-11200000D03*
G04 #@! TD*
D32*
G04 #@! TO.C,C36*
X23400000Y-14962000D03*
X23400000Y-13438000D03*
G04 #@! TD*
D56*
G04 #@! TO.C,CN3*
X17700000Y-27880000D03*
X17700000Y-25850000D03*
X17700000Y-23820000D03*
X17700000Y-21780000D03*
X17700000Y-19750000D03*
X17700000Y-17720000D03*
X20240000Y-28900000D03*
X20240000Y-26870000D03*
X20240000Y-24840000D03*
X20240000Y-20760000D03*
X20240000Y-18730000D03*
X20240000Y-16700000D03*
D28*
X4750000Y-30320000D03*
X2210000Y-30320000D03*
X7290000Y-15280000D03*
X4750000Y-15280000D03*
X2210000Y-15280000D03*
D57*
X11100000Y-27625000D03*
X11100000Y-17975000D03*
D58*
X11100000Y-31590000D03*
X11100000Y-14010000D03*
G04 #@! TD*
D31*
G04 #@! TO.C,GT2*
X24500000Y-87100000D03*
G04 #@! TD*
G04 #@! TO.C,GT3*
X15100000Y-58300000D03*
G04 #@! TD*
G04 #@! TO.C,GT4*
X85800000Y-43900000D03*
G04 #@! TD*
D10*
G04 #@! TO.C,U12*
X90200000Y-32900000D03*
D59*
X88100000Y-31995000D03*
X88100000Y-33265000D03*
X88100000Y-34535000D03*
X88100000Y-35805000D03*
X93500000Y-35805000D03*
X93500000Y-34535000D03*
X93500000Y-33265000D03*
X93500000Y-31995000D03*
D60*
X90800000Y-33900000D03*
D10*
X91400000Y-32900000D03*
D61*
X90800000Y-35100000D03*
G04 #@! TD*
D34*
G04 #@! TO.C,TP2*
X36400000Y-31700000D03*
G04 #@! TD*
D62*
G04 #@! TO.C,Q1*
X71850000Y-8300000D03*
X72800000Y-6300000D03*
X73750000Y-8300000D03*
G04 #@! TD*
D63*
G04 #@! TO.C,Q5*
X90200000Y-51550000D03*
X92200000Y-52500000D03*
X90200000Y-53450000D03*
G04 #@! TD*
D27*
G04 #@! TO.C,DB21*
X88500000Y-64800000D03*
G04 #@! TD*
G04 #@! TO.C,DB25*
X87200000Y-75500000D03*
G04 #@! TD*
D32*
G04 #@! TO.C,B118*
X90800000Y-95462000D03*
X90800000Y-93938000D03*
G04 #@! TD*
D63*
G04 #@! TO.C,Q6*
X89200000Y-95950000D03*
X87200000Y-95000000D03*
X89200000Y-94050000D03*
G04 #@! TD*
D64*
G04 #@! TO.C,C86*
X69100000Y-5200000D03*
X69100000Y-8000000D03*
G04 #@! TD*
D45*
G04 #@! TO.C,R124*
X74338000Y-33600000D03*
X75862000Y-33600000D03*
G04 #@! TD*
D34*
G04 #@! TO.C,TP7*
X39100000Y-58700000D03*
G04 #@! TD*
G04 #@! TO.C,TP8*
X39100000Y-60100000D03*
G04 #@! TD*
D65*
G04 #@! TO.C,U15*
X60900000Y-58500000D03*
X56500000Y-58500000D03*
X60900000Y-59000000D03*
X56500000Y-59000000D03*
X60900000Y-59500000D03*
X56500000Y-59500000D03*
X60900000Y-60000000D03*
X56500000Y-60000000D03*
X60900000Y-60500000D03*
X56500000Y-60500000D03*
G04 #@! TD*
D27*
G04 #@! TO.C,K2*
X92640000Y-79320000D03*
X92640000Y-84400000D03*
X92640000Y-86940000D03*
X92640000Y-89480000D03*
X87560000Y-89480000D03*
X87560000Y-86940000D03*
X87560000Y-84400000D03*
X87560000Y-79320000D03*
X92640000Y-81860000D03*
X92640000Y-92020000D03*
G04 #@! TD*
D32*
G04 #@! TO.C,R128*
X54600000Y-60338000D03*
X54600000Y-61862000D03*
G04 #@! TD*
D45*
G04 #@! TO.C,R129*
X62962000Y-62600000D03*
X61438000Y-62600000D03*
G04 #@! TD*
G04 #@! TO.C,B109*
X75862000Y-35300000D03*
X74338000Y-35300000D03*
G04 #@! TD*
D50*
G04 #@! TO.C,C89*
X79552500Y-30500000D03*
X77647500Y-30500000D03*
G04 #@! TD*
D44*
G04 #@! TO.C,J6*
X69700000Y-14100000D03*
D27*
X72240000Y-14100000D03*
G04 #@! TD*
D66*
G04 #@! TO.C,U19*
X79100000Y-32600000D03*
X78150000Y-32600000D03*
X77200000Y-32600000D03*
X77200000Y-35300000D03*
X79100000Y-35300000D03*
G04 #@! TD*
D34*
G04 #@! TO.C,TP1*
X90300000Y-61000000D03*
G04 #@! TD*
G04 #@! TO.C,TP4*
X86100000Y-50800000D03*
G04 #@! TD*
D45*
G04 #@! TO.C,R134*
X22838000Y-10900000D03*
X24362000Y-10900000D03*
G04 #@! TD*
D67*
G04 #@! TO.C,MH1*
X20000000Y-3000000D03*
G04 #@! TD*
G04 #@! TO.C,MH2*
X20000000Y-97000000D03*
G04 #@! TD*
G04 #@! TO.C,MH3*
X97000000Y-97000000D03*
G04 #@! TD*
G04 #@! TO.C,MH4*
X97000000Y-3000000D03*
G04 #@! TD*
G04 #@! TO.C,MH5*
X71800000Y-93300000D03*
G04 #@! TD*
D27*
G04 #@! TO.C,MH6*
X4040000Y-35420000D03*
G04 #@! TD*
D68*
G04 #@! TO.C,C48*
X35389949Y-77389949D03*
D17*
G36*
X36733452Y-77319238D02*
X35319238Y-78733452D01*
X34046446Y-77460660D01*
X35460660Y-76046446D01*
X36733452Y-77319238D01*
X36733452Y-77319238D01*
G37*
D68*
X33410051Y-75410051D03*
D17*
G36*
X34753554Y-75339340D02*
X33339340Y-76753554D01*
X32066548Y-75480762D01*
X33480762Y-74066548D01*
X34753554Y-75339340D01*
X34753554Y-75339340D01*
G37*
G04 #@! TD*
D32*
G04 #@! TO.C,L33*
X84500000Y-89138000D03*
X84500000Y-90662000D03*
G04 #@! TD*
G04 #@! TO.C,L34*
X67500000Y-89138000D03*
X67500000Y-90662000D03*
G04 #@! TD*
D45*
G04 #@! TO.C,R92*
X81138000Y-89200000D03*
X82662000Y-89200000D03*
G04 #@! TD*
G04 #@! TO.C,R99*
X64138000Y-89200000D03*
X65662000Y-89200000D03*
G04 #@! TD*
G04 #@! TO.C,R66*
X59962000Y-62200000D03*
X58438000Y-62200000D03*
G04 #@! TD*
D32*
G04 #@! TO.C,R47*
X56500000Y-61838000D03*
X56500000Y-63362000D03*
G04 #@! TD*
D69*
G04 #@! TO.C,T2*
X36860000Y-86140000D03*
X41940000Y-86140000D03*
X36860000Y-81060000D03*
D70*
X39400000Y-81060000D03*
D17*
G36*
X38936160Y-82430000D02*
X38450726Y-79690000D01*
X40349274Y-79690000D01*
X39863840Y-82430000D01*
X38936160Y-82430000D01*
X38936160Y-82430000D01*
G37*
D69*
X41940000Y-81060000D03*
D71*
X38002500Y-86330000D03*
X40797500Y-86330000D03*
X38002500Y-83150000D03*
D72*
X39400000Y-83150000D03*
D71*
X40797500Y-83150000D03*
D73*
X37495000Y-82330000D03*
D17*
G36*
X37495000Y-83178528D02*
X36646472Y-82330000D01*
X37495000Y-81481472D01*
X38343528Y-82330000D01*
X37495000Y-83178528D01*
X37495000Y-83178528D01*
G37*
D73*
X41305000Y-82330000D03*
D17*
G36*
X41305000Y-83178528D02*
X40456472Y-82330000D01*
X41305000Y-81481472D01*
X42153528Y-82330000D01*
X41305000Y-83178528D01*
X41305000Y-83178528D01*
G37*
D74*
X39400000Y-80790000D03*
D28*
X42194000Y-80806000D03*
D75*
X39400000Y-80806000D03*
D28*
X36606000Y-80806000D03*
X36606000Y-86394000D03*
X42194000Y-86394000D03*
G04 #@! TD*
D76*
G04 #@! TO.C,T3*
X72200000Y-81000000D03*
X65800000Y-81000000D03*
X65800000Y-85600000D03*
X72200000Y-85600000D03*
D77*
X69000000Y-83300000D03*
G04 #@! TD*
D78*
G04 #@! TO.C,T1*
X92540000Y-72740000D03*
X92540000Y-67660000D03*
X87460000Y-72740000D03*
X87460000Y-67660000D03*
D79*
X92730000Y-71597500D03*
X92730000Y-68802500D03*
X89550000Y-71597500D03*
X89550000Y-68802500D03*
D73*
X88730000Y-72105000D03*
D17*
G36*
X89578528Y-72105000D02*
X88730000Y-72953528D01*
X87881472Y-72105000D01*
X88730000Y-71256472D01*
X89578528Y-72105000D01*
X89578528Y-72105000D01*
G37*
D73*
X88730000Y-68295000D03*
D17*
G36*
X89578528Y-68295000D02*
X88730000Y-69143528D01*
X87881472Y-68295000D01*
X88730000Y-67446472D01*
X89578528Y-68295000D01*
X89578528Y-68295000D01*
G37*
D28*
X87206000Y-67406000D03*
X87206000Y-72994000D03*
X92794000Y-72994000D03*
X92794000Y-67406000D03*
G04 #@! TD*
D80*
G04 #@! TO.C,X1*
X27400000Y-12850000D03*
X25200000Y-12850000D03*
X25200000Y-14550000D03*
X27400000Y-14550000D03*
G04 #@! TD*
D81*
G04 #@! TO.C,D1*
X40499820Y-88900000D03*
X38300180Y-88900000D03*
G04 #@! TD*
D64*
G04 #@! TO.C,C88*
X81100000Y-35600000D03*
X81100000Y-32800000D03*
G04 #@! TD*
D82*
G04 #@! TO.C,D2*
X1000000Y-39450000D03*
X1000000Y-41950000D03*
G04 #@! TD*
G04 #@! TO.C,D3*
X1000000Y-45650000D03*
X1000000Y-48150000D03*
G04 #@! TD*
G04 #@! TO.C,D4*
X1000000Y-51850000D03*
X1000000Y-54350000D03*
G04 #@! TD*
G04 #@! TO.C,D5*
X1000000Y-58050000D03*
X1000000Y-60550000D03*
G04 #@! TD*
D34*
G04 #@! TO.C,CL3*
X29200000Y-78300000D03*
D83*
X27725000Y-79800000D03*
X30675000Y-79800000D03*
D34*
X29200000Y-81300000D03*
G04 #@! TD*
G04 #@! TO.C,CL5*
X7900000Y-77400000D03*
D83*
X9375000Y-75900000D03*
X6425000Y-75900000D03*
D34*
X7900000Y-74400000D03*
G04 #@! TD*
G04 #@! TO.C,CL6*
X16300000Y-71700000D03*
D84*
X14800000Y-70225000D03*
X14800000Y-73175000D03*
D34*
X13300000Y-71700000D03*
G04 #@! TD*
G04 #@! TO.C,CL7*
X7900000Y-67200000D03*
D83*
X9375000Y-65700000D03*
X6425000Y-65700000D03*
D34*
X7900000Y-64200000D03*
G04 #@! TD*
G04 #@! TO.C,CL8*
X26300000Y-32300000D03*
D83*
X27775000Y-30800000D03*
X24825000Y-30800000D03*
D34*
X26300000Y-29300000D03*
G04 #@! TD*
D45*
G04 #@! TO.C,J5*
X7938000Y-78900000D03*
X9462000Y-78900000D03*
G04 #@! TD*
G04 #@! TO.C,J13*
X9462000Y-68700000D03*
X7938000Y-68700000D03*
G04 #@! TD*
D44*
G04 #@! TO.C,DB7*
X98700000Y-60260000D03*
D27*
X98700000Y-57720000D03*
X98700000Y-55180000D03*
X98700000Y-52640000D03*
X98700000Y-50100000D03*
X98700000Y-47560000D03*
X98700000Y-45020000D03*
X98700000Y-42480000D03*
X98700000Y-39940000D03*
X98700000Y-37400000D03*
X98700000Y-34860000D03*
X98700000Y-32320000D03*
X98700000Y-29780000D03*
X98700000Y-27240000D03*
X98700000Y-24700000D03*
X98700000Y-22160000D03*
X98700000Y-19620000D03*
X98700000Y-17080000D03*
X98700000Y-14540000D03*
X98700000Y-12000000D03*
X98700000Y-9460000D03*
X98700000Y-6920000D03*
G04 #@! TD*
G04 #@! TO.C,DB15*
X88540000Y-27240000D03*
X91080000Y-27240000D03*
X93620000Y-27240000D03*
X88540000Y-24700000D03*
X91080000Y-24700000D03*
X93620000Y-24700000D03*
X88540000Y-22160000D03*
X91080000Y-22160000D03*
X93620000Y-22160000D03*
X88540000Y-19620000D03*
X91080000Y-19620000D03*
X93620000Y-19620000D03*
X96160000Y-27240000D03*
X88540000Y-17080000D03*
X91080000Y-17080000D03*
X93620000Y-17080000D03*
D44*
X96160000Y-24700000D03*
D27*
X96160000Y-22160000D03*
X96160000Y-19620000D03*
X96160000Y-17080000D03*
G04 #@! TD*
D34*
G04 #@! TO.C,CL10*
X78500000Y-55800000D03*
D84*
X80000000Y-57275000D03*
X80000000Y-54325000D03*
D34*
X81500000Y-55800000D03*
G04 #@! TD*
G04 #@! TO.C,CL4*
X49200000Y-61100000D03*
D83*
X50675000Y-59600000D03*
X47725000Y-59600000D03*
D34*
X49200000Y-58100000D03*
G04 #@! TD*
D27*
G04 #@! TO.C,GT5*
X51500000Y-61800000D03*
G04 #@! TD*
G04 #@! TO.C,GT6*
X52080000Y-79100000D03*
G04 #@! TD*
G04 #@! TO.C,GT7*
X32100000Y-71900000D03*
G04 #@! TD*
G04 #@! TO.C,GT8*
X32100000Y-65700000D03*
G04 #@! TD*
G04 #@! TO.C,GT9*
X33300000Y-79100000D03*
G04 #@! TD*
D34*
G04 #@! TO.C,RF4*
X44700000Y-90100000D03*
D84*
X46200000Y-91575000D03*
X46200000Y-88625000D03*
D34*
X47700000Y-90100000D03*
G04 #@! TD*
G04 #@! TO.C,RF5*
X54100000Y-85700000D03*
D83*
X55575000Y-84200000D03*
X52625000Y-84200000D03*
D34*
X54100000Y-82700000D03*
G04 #@! TD*
G04 #@! TO.C,RF6*
X92200000Y-65900000D03*
D83*
X93675000Y-64400000D03*
X90725000Y-64400000D03*
D34*
X92200000Y-62900000D03*
G04 #@! TD*
D45*
G04 #@! TO.C,B55*
X73138000Y-78500000D03*
X74662000Y-78500000D03*
G04 #@! TD*
D34*
G04 #@! TO.C,RF7*
X76600000Y-79800000D03*
D84*
X78100000Y-81275000D03*
X78100000Y-78325000D03*
D34*
X79600000Y-79800000D03*
G04 #@! TD*
D32*
G04 #@! TO.C,J17*
X34700000Y-84738000D03*
X34700000Y-86262000D03*
G04 #@! TD*
G04 #@! TO.C,J18*
X40400000Y-25138000D03*
X40400000Y-26662000D03*
G04 #@! TD*
D45*
G04 #@! TO.C,J19*
X41538000Y-88800000D03*
X43062000Y-88800000D03*
G04 #@! TD*
G04 #@! TO.C,J23*
X80638000Y-40600000D03*
X82162000Y-40600000D03*
G04 #@! TD*
G04 #@! TO.C,J25*
X24362000Y-32900000D03*
X22838000Y-32900000D03*
G04 #@! TD*
G04 #@! TO.C,J27*
X80638000Y-46600000D03*
X82162000Y-46600000D03*
G04 #@! TD*
G04 #@! TO.C,J28*
X88962000Y-55400000D03*
X87438000Y-55400000D03*
G04 #@! TD*
G04 #@! TO.C,J29*
X84362000Y-53700000D03*
X82838000Y-53700000D03*
G04 #@! TD*
G04 #@! TO.C,J30*
X75662000Y-53700000D03*
X74138000Y-53700000D03*
G04 #@! TD*
D31*
G04 #@! TO.C,GT10*
X20300000Y-44500000D03*
G04 #@! TD*
G04 #@! TO.C,GT11*
X83900000Y-47700000D03*
G04 #@! TD*
G04 #@! TO.C,GT12*
X89200000Y-81000000D03*
G04 #@! TD*
G04 #@! TO.C,GT13*
X20600000Y-62800000D03*
G04 #@! TD*
G04 #@! TO.C,GT14*
X96500000Y-56500000D03*
G04 #@! TD*
D36*
G04 #@! TO.C,CN2*
X13800000Y-7200000D03*
D76*
X7650000Y-7200000D03*
X10800000Y-11900000D03*
D85*
X10700000Y-7200000D03*
X5700000Y-7200000D03*
G04 #@! TD*
D36*
G04 #@! TO.C,CN7*
X86300000Y-10700000D03*
D76*
X92450000Y-10700000D03*
X89300000Y-6000000D03*
D85*
X89400000Y-10700000D03*
X94400000Y-10700000D03*
G04 #@! TD*
D44*
G04 #@! TO.C,DB12*
X13500000Y-47460000D03*
D27*
X16040000Y-47460000D03*
X13500000Y-50000000D03*
X16040000Y-50000000D03*
X13500000Y-52540000D03*
X16040000Y-52540000D03*
G04 #@! TD*
D44*
G04 #@! TO.C,DB1*
X4040000Y-37960000D03*
D27*
X6580000Y-37960000D03*
X4040000Y-40500000D03*
X6580000Y-40500000D03*
X4040000Y-43040000D03*
X6580000Y-43040000D03*
X4040000Y-45580000D03*
X6580000Y-45580000D03*
X4040000Y-48120000D03*
X6580000Y-48120000D03*
X4040000Y-50660000D03*
X6580000Y-50660000D03*
X4040000Y-53200000D03*
X6580000Y-53200000D03*
X4040000Y-55740000D03*
X6580000Y-55740000D03*
X4040000Y-58280000D03*
X6580000Y-58280000D03*
X4040000Y-60820000D03*
X6580000Y-60820000D03*
G04 #@! TD*
D44*
G04 #@! TO.C,DB9*
X41600000Y-7800000D03*
D27*
X44140000Y-7800000D03*
X46680000Y-7800000D03*
X49220000Y-7800000D03*
X51760000Y-7800000D03*
X54300000Y-7800000D03*
G04 #@! TD*
D44*
G04 #@! TO.C,DB13*
X97100000Y-52640000D03*
D27*
X94560000Y-52640000D03*
X97100000Y-50100000D03*
X94560000Y-50100000D03*
X97100000Y-47560000D03*
X94560000Y-47560000D03*
X97100000Y-45020000D03*
X94560000Y-45020000D03*
X97100000Y-42480000D03*
X94560000Y-42480000D03*
G04 #@! TD*
D86*
G04 #@! TO.C,CN4*
X2000000Y-85000000D03*
X2000000Y-95000000D03*
X4500000Y-85000000D03*
X4500000Y-95000000D03*
X9500000Y-90000000D03*
D87*
X9500000Y-87500000D03*
X9500000Y-85000000D03*
X9500000Y-92500000D03*
X9500000Y-95000000D03*
D75*
X4500000Y-90000000D03*
G04 #@! TD*
D88*
G04 #@! TO.C,DB6*
X47000000Y-79100000D03*
X49540000Y-82410000D03*
G04 #@! TD*
D89*
G04 #@! TO.C,X2*
X24760000Y-79990000D03*
X24760000Y-78410000D03*
X22240000Y-78410000D03*
X22240000Y-79990000D03*
G04 #@! TD*
D27*
G04 #@! TO.C,MH7*
X28950000Y-6800000D03*
G04 #@! TD*
G04 #@! TO.C,MH8*
X26000000Y-6800000D03*
G04 #@! TD*
D90*
X31700000Y-16000000D03*
D31*
X35500000Y-16200000D03*
X33000000Y-16200000D03*
D90*
X34200000Y-21800000D03*
X33800000Y-23800000D03*
X31800000Y-26300000D03*
D91*
X28900000Y-27300000D03*
D90*
X26800000Y-26000000D03*
D31*
X41800000Y-31100000D03*
X42600000Y-30300000D03*
X41500000Y-30100000D03*
X44000000Y-29100000D03*
X42800000Y-29100000D03*
X37700000Y-13800000D03*
X36600000Y-13800000D03*
D90*
X45600000Y-35500000D03*
X27300000Y-50800000D03*
X24900000Y-39300000D03*
X46900000Y-51800000D03*
X42600000Y-55100000D03*
X41100000Y-55100000D03*
X46900000Y-39800000D03*
X46900000Y-37700000D03*
X27300000Y-42300000D03*
X42100000Y-35500000D03*
X33700000Y-35500000D03*
X29500000Y-35500000D03*
X31600000Y-55100000D03*
X36100000Y-55100000D03*
D91*
X22700000Y-29800000D03*
X15600000Y-11300000D03*
X24300000Y-28600000D03*
X24800000Y-47900000D03*
D31*
X92200000Y-46300000D03*
X89700000Y-89500000D03*
X92700000Y-94200000D03*
X62900000Y-58000000D03*
X61800000Y-58000000D03*
X72700000Y-59300000D03*
X73500000Y-60100000D03*
D92*
X81600000Y-66600000D03*
X81400000Y-74600000D03*
D31*
X63500000Y-34800000D03*
X58800000Y-26000000D03*
X58800000Y-27200000D03*
X58800000Y-28400000D03*
X56900000Y-18400000D03*
X56900000Y-17200000D03*
X55700000Y-17200000D03*
X55700000Y-18400000D03*
X30400000Y-54200000D03*
X29900000Y-47300000D03*
X50600000Y-41200000D03*
X53000000Y-41200000D03*
D93*
X52200000Y-51500000D03*
X52200000Y-52600000D03*
D90*
X46900000Y-46300000D03*
X49300000Y-41300000D03*
X27300000Y-46700000D03*
X32100000Y-57500000D03*
X35100000Y-57500000D03*
X39100000Y-57500000D03*
X43600000Y-57500000D03*
D31*
X63500000Y-33500000D03*
X89400000Y-75200000D03*
D91*
X23400000Y-31200000D03*
D31*
X27900000Y-29200000D03*
X57900000Y-14400000D03*
X44100000Y-84100000D03*
X34700000Y-84000000D03*
X77800000Y-82100000D03*
X92300000Y-61800000D03*
X56600000Y-85600000D03*
X52900000Y-82400000D03*
D91*
X49200000Y-59900000D03*
D31*
X80000000Y-58400000D03*
X80000000Y-53200000D03*
X2500000Y-1000000D03*
X5000000Y-1000000D03*
X7500000Y-1000000D03*
X10000000Y-1000000D03*
X12500000Y-1000000D03*
X15000000Y-1000000D03*
X17500000Y-1000000D03*
X37500000Y-1000000D03*
X40000000Y-1000000D03*
X42500000Y-1000000D03*
X45000000Y-1000000D03*
X47500000Y-1000000D03*
X50000000Y-1000000D03*
X52500000Y-1000000D03*
X55000000Y-1000000D03*
X57500000Y-1000000D03*
X60000000Y-1000000D03*
X62500000Y-1000000D03*
X65000000Y-1000000D03*
X67500000Y-1000000D03*
X70000000Y-1000000D03*
X72500000Y-1000000D03*
X75000000Y-1000000D03*
X77500000Y-1000000D03*
X80000000Y-1000000D03*
X22500000Y-1000000D03*
X25000000Y-1000000D03*
X27500000Y-1000000D03*
X30000000Y-1000000D03*
X32500000Y-1000000D03*
X35000000Y-1000000D03*
X92500000Y-1000000D03*
X90000000Y-1000000D03*
X87500000Y-1000000D03*
X85000000Y-1000000D03*
X82500000Y-1000000D03*
X13000000Y-72900000D03*
X13000000Y-70400000D03*
D91*
X30400000Y-81500000D03*
D31*
X27800000Y-81700000D03*
D91*
X17100000Y-87000000D03*
X10300000Y-81500000D03*
X8900000Y-64000000D03*
X6700000Y-64000000D03*
X8900000Y-74200000D03*
X6700000Y-74200000D03*
D31*
X14400000Y-84200000D03*
X5000000Y-99000000D03*
X17500000Y-99000000D03*
X15000000Y-99000000D03*
X12500000Y-99000000D03*
X10000000Y-99000000D03*
X7500000Y-99000000D03*
X2500000Y-99000000D03*
X56800000Y-94200000D03*
X63300000Y-5000000D03*
X62100000Y-5000000D03*
X70700000Y-7600000D03*
X45700000Y-24600000D03*
X45700000Y-23300000D03*
X60700000Y-23700000D03*
X97000000Y-33700000D03*
D91*
X87500000Y-53100000D03*
D31*
X76950000Y-45850000D03*
X77050000Y-43650000D03*
D90*
X83300000Y-63800000D03*
D93*
X82600000Y-61900000D03*
D31*
X81700000Y-31400000D03*
D91*
X19000000Y-13800000D03*
X18600000Y-12800000D03*
X58200000Y-86500000D03*
X57300000Y-89300000D03*
X35250000Y-71050000D03*
D31*
X73500000Y-34900000D03*
D93*
X78000000Y-31500000D03*
D90*
X65200000Y-28800000D03*
X61100000Y-63900000D03*
D93*
X61900000Y-60200000D03*
D91*
X58600000Y-59900000D03*
X83300000Y-26400000D03*
D93*
X25100000Y-81800000D03*
D31*
X32500000Y-99000000D03*
X35000000Y-99000000D03*
X37500000Y-99000000D03*
X40000000Y-99000000D03*
X42500000Y-99000000D03*
X45000000Y-99000000D03*
X47500000Y-99000000D03*
X50000000Y-99000000D03*
X52500000Y-99000000D03*
D93*
X69700000Y-24800000D03*
X33500000Y-12300000D03*
X31500000Y-12600000D03*
D90*
X25700000Y-25500000D03*
D31*
X85600000Y-93200000D03*
X58000000Y-93200000D03*
X86800000Y-94200000D03*
X87500000Y-99000000D03*
X90000000Y-99000000D03*
X92500000Y-99000000D03*
X74300000Y-99000000D03*
X71800000Y-99000000D03*
X69300000Y-99000000D03*
X22500000Y-99000000D03*
X25000000Y-99000000D03*
X27500000Y-99000000D03*
X30000000Y-99000000D03*
X57300000Y-99000000D03*
D93*
X28300000Y-14800000D03*
D90*
X23800000Y-12200000D03*
D93*
X25200000Y-12100000D03*
D90*
X22700000Y-12300000D03*
D31*
X41300000Y-11800000D03*
D90*
X61800000Y-75800000D03*
D91*
X60800000Y-73600000D03*
D90*
X71600000Y-62500000D03*
D91*
X60800000Y-65400000D03*
D93*
X77300000Y-47300000D03*
D90*
X77300000Y-42500000D03*
X77300000Y-40900000D03*
D92*
X77300000Y-39300000D03*
D91*
X84000000Y-35400000D03*
D31*
X70200000Y-65700000D03*
D90*
X70100000Y-66900000D03*
D93*
X70000000Y-19600000D03*
D31*
X70600000Y-16300000D03*
D92*
X83000000Y-28600000D03*
D31*
X76600000Y-19100000D03*
X77500000Y-19800000D03*
X77500000Y-18400000D03*
X76600000Y-22200000D03*
X76600000Y-20500000D03*
X43000000Y-14000000D03*
X74800000Y-93400000D03*
X68800000Y-93400000D03*
X53800000Y-91500000D03*
X47600000Y-85000000D03*
D93*
X60100000Y-64500000D03*
X60100000Y-74400000D03*
X63800000Y-76200000D03*
X71900000Y-78500000D03*
X71200000Y-76100000D03*
D91*
X84900000Y-65600000D03*
X84800000Y-73500000D03*
D90*
X49900000Y-74300000D03*
D91*
X55700000Y-67000000D03*
D93*
X52200000Y-65100000D03*
D91*
X49300000Y-43900000D03*
D93*
X68500000Y-27500000D03*
D31*
X62800000Y-18400000D03*
X45800000Y-19500000D03*
X46100000Y-21200000D03*
X48200000Y-19600000D03*
X48200000Y-18400000D03*
D91*
X55000000Y-24800000D03*
X53700000Y-28600000D03*
D93*
X42100000Y-78900000D03*
X43700000Y-78900000D03*
D92*
X44400000Y-78200000D03*
X42800000Y-78300000D03*
D90*
X24000000Y-34300000D03*
X21000000Y-31900000D03*
X18500000Y-31900000D03*
X43300000Y-41300000D03*
D31*
X41900000Y-41900000D03*
X41900000Y-38700000D03*
D90*
X31300000Y-41300000D03*
X39300000Y-52500000D03*
X36100000Y-51200000D03*
X53300000Y-34600000D03*
X54200000Y-35000000D03*
X60800000Y-34000000D03*
X57600000Y-33400000D03*
X59400000Y-33700000D03*
X50800000Y-33500000D03*
X16400000Y-68900000D03*
X16400000Y-65700000D03*
X17800000Y-74900000D03*
X18600000Y-76700000D03*
X18600000Y-77900000D03*
D93*
X18200000Y-82300000D03*
X28400000Y-75000000D03*
D90*
X49700000Y-64700000D03*
X49700000Y-66200000D03*
D92*
X50100000Y-69000000D03*
D93*
X52200000Y-66800000D03*
D90*
X27400000Y-54700000D03*
X45300000Y-49000000D03*
X27300000Y-40800000D03*
X28800000Y-43700000D03*
X27300000Y-35600000D03*
D91*
X23900000Y-48300000D03*
X24800000Y-46800000D03*
X40000000Y-28300000D03*
D90*
X35700000Y-73300000D03*
X38100000Y-75600000D03*
X45900000Y-62800000D03*
D93*
X27200000Y-75500000D03*
D90*
X18700000Y-70100000D03*
X22000000Y-65400000D03*
X45800000Y-33100000D03*
X47200000Y-55400000D03*
D91*
X55400000Y-49900000D03*
D93*
X54700000Y-51700000D03*
D90*
X27300000Y-48800000D03*
X27300000Y-47800000D03*
D91*
X46900000Y-43800000D03*
D90*
X25300000Y-56800000D03*
X33400000Y-53900000D03*
X34500000Y-53900000D03*
X46900000Y-53000000D03*
X45500000Y-53100000D03*
X46900000Y-53800000D03*
X44100000Y-53700000D03*
X38900000Y-54000000D03*
X44100000Y-55100000D03*
X39100000Y-55100000D03*
X46900000Y-44900000D03*
X46200000Y-41700000D03*
X46900000Y-41300000D03*
X45400000Y-36400000D03*
X48200000Y-35200000D03*
X46900000Y-36400000D03*
X27300000Y-39300000D03*
X39900000Y-36600000D03*
X40100000Y-35500000D03*
X35900000Y-36600000D03*
X35600000Y-35500000D03*
X32600000Y-35500000D03*
X29400000Y-36800000D03*
X25600000Y-54700000D03*
X33100000Y-55100000D03*
X35100000Y-55100000D03*
X43600000Y-35500000D03*
X27300000Y-36800000D03*
D91*
X37400000Y-77900000D03*
D31*
X60800000Y-21200000D03*
X62800000Y-20800000D03*
X62800000Y-19600000D03*
X55000000Y-99000000D03*
D90*
X26900000Y-16600000D03*
D31*
X24700000Y-17100000D03*
X22700000Y-17100000D03*
D90*
X24700000Y-25000000D03*
D91*
X30700000Y-15900000D03*
X41100000Y-23900000D03*
D31*
X40700000Y-32200000D03*
D90*
X33950000Y-19450000D03*
X26500000Y-27500000D03*
D31*
X33500000Y-32300000D03*
X33500000Y-30200000D03*
D90*
X44100000Y-33100000D03*
X40600000Y-33100000D03*
X36100000Y-33100000D03*
X33100000Y-33100000D03*
D31*
X31500000Y-13800000D03*
D90*
X28800000Y-16600000D03*
D31*
X29200000Y-11200000D03*
D91*
X23600000Y-19550000D03*
X23650000Y-23050000D03*
D90*
X33900000Y-27500000D03*
X34700000Y-26700000D03*
X35500000Y-27500000D03*
X36500000Y-26700000D03*
X37000000Y-21600000D03*
X37100000Y-19900000D03*
D91*
X36300000Y-17600000D03*
D90*
X39600000Y-18900000D03*
D91*
X36700000Y-16400000D03*
X37700000Y-16200000D03*
D93*
X40200000Y-24600000D03*
D91*
X22700000Y-16000000D03*
D90*
X49300000Y-54300000D03*
X49300000Y-52800000D03*
D91*
X49300000Y-51800000D03*
X49300000Y-50300000D03*
D90*
X44800000Y-50400000D03*
D91*
X50900000Y-48200000D03*
X49300000Y-47800000D03*
D90*
X45300000Y-47700000D03*
D91*
X55300000Y-46400000D03*
D90*
X49400000Y-36800000D03*
X46600000Y-34900000D03*
X25600000Y-35400000D03*
X24900000Y-37300000D03*
X28500000Y-44800000D03*
X27300000Y-53300000D03*
X27700000Y-55800000D03*
D91*
X36600000Y-18500000D03*
X38300000Y-18200000D03*
D31*
X11500000Y-63300000D03*
D91*
X21500000Y-47100000D03*
D31*
X11500000Y-65000000D03*
D91*
X20200000Y-48600000D03*
X34200000Y-71800000D03*
X34600000Y-61900000D03*
X37200000Y-60900000D03*
X35400000Y-65400000D03*
X20800000Y-40800000D03*
X23600000Y-40800000D03*
D90*
X24900000Y-40800000D03*
X23600000Y-66900000D03*
X20800000Y-70400000D03*
X21400000Y-71100000D03*
D92*
X28800000Y-73000000D03*
D90*
X28700000Y-69600000D03*
X25500000Y-66900000D03*
X21900000Y-70400000D03*
D92*
X18200000Y-81100000D03*
D31*
X23600000Y-64700000D03*
D90*
X39000000Y-75400000D03*
X41000000Y-75400000D03*
X43000000Y-75400000D03*
X47100000Y-68900000D03*
X36800000Y-65400000D03*
X47100000Y-65900000D03*
X47300000Y-68100000D03*
X34600000Y-74500000D03*
X36800000Y-76700000D03*
X49100000Y-72000000D03*
D31*
X48300000Y-61700000D03*
X45800000Y-90100000D03*
D92*
X69400000Y-65000000D03*
X68900000Y-73200000D03*
D93*
X72200000Y-73800000D03*
X73500000Y-65200000D03*
D31*
X77900000Y-85900000D03*
X58000000Y-77400000D03*
X58300000Y-63300000D03*
X61100000Y-88600000D03*
X59900000Y-88600000D03*
X68900000Y-89000000D03*
X56500000Y-64400000D03*
X56900000Y-76300000D03*
X63500000Y-87600000D03*
X76900000Y-89000000D03*
X78100000Y-89000000D03*
X85100000Y-87500000D03*
D92*
X80500000Y-64600000D03*
X80400000Y-72600000D03*
D31*
X54300000Y-86400000D03*
D91*
X79800000Y-66600000D03*
D93*
X79800000Y-63700000D03*
D31*
X73500000Y-28400000D03*
X73500000Y-26000000D03*
X73500000Y-27200000D03*
X75000000Y-74000000D03*
X84200000Y-34200000D03*
D91*
X70200000Y-54000000D03*
X73500000Y-62800000D03*
X89900000Y-48600000D03*
X72000000Y-54500000D03*
X72000000Y-48800000D03*
X88300000Y-49900000D03*
X72300000Y-56100000D03*
X72900000Y-49900000D03*
X74300000Y-55400000D03*
X83000000Y-56800000D03*
D31*
X65500000Y-75800000D03*
X66700000Y-75200000D03*
X66700000Y-76400000D03*
X65500000Y-74600000D03*
D91*
X1500000Y-38000000D03*
X1500000Y-44200000D03*
X1500000Y-50400000D03*
X1500000Y-56600000D03*
D90*
X64800000Y-32000000D03*
D31*
X81600000Y-38700000D03*
D91*
X79600000Y-27700000D03*
X39500000Y-61300000D03*
X75300000Y-29600000D03*
X76200000Y-30400000D03*
D92*
X93500000Y-36500000D03*
D31*
X83200000Y-32400000D03*
D91*
X66400000Y-60200000D03*
X62200000Y-61400000D03*
X42000000Y-60900000D03*
X48200000Y-72000000D03*
D31*
X53100000Y-19600000D03*
D91*
X48700000Y-26900000D03*
D31*
X84200000Y-25000000D03*
X67800000Y-19600000D03*
D91*
X63400000Y-26900000D03*
X78300000Y-27100000D03*
D90*
X74500000Y-47700000D03*
D91*
X80500000Y-42700000D03*
D31*
X91800000Y-74500000D03*
D91*
X91300000Y-47800000D03*
D31*
X56800000Y-6900000D03*
X56800000Y-8100000D03*
X56800000Y-5700000D03*
X56800000Y-4500000D03*
D91*
X50500000Y-27700000D03*
X64900000Y-27300000D03*
X22900000Y-48700000D03*
X22800000Y-49800000D03*
X21300000Y-50800000D03*
X24800000Y-50800000D03*
D92*
X20200000Y-76700000D03*
D93*
X20200000Y-77500000D03*
D91*
X23100000Y-55500000D03*
X21800000Y-56700000D03*
X22200000Y-51800000D03*
D31*
X90400000Y-76600000D03*
D91*
X84800000Y-64200000D03*
X84600000Y-72000000D03*
X93700000Y-60600000D03*
X70200000Y-55500000D03*
X49500000Y-56000000D03*
X56100000Y-56200000D03*
X70100000Y-60300000D03*
X83300000Y-21100000D03*
D92*
X87400000Y-57100000D03*
X80000000Y-39000000D03*
D93*
X80000000Y-48000000D03*
D91*
X80500000Y-43900000D03*
D94*
G36*
X99823000Y-2373000D02*
X127000Y-2373000D01*
X127000Y-127000D01*
X99823000Y-127000D01*
X99823000Y-2373000D01*
X99823000Y-2373000D01*
G37*
X99823000Y-2373000D02*
X127000Y-2373000D01*
X127000Y-127000D01*
X99823000Y-127000D01*
X99823000Y-2373000D01*
G36*
X99823000Y-99873000D02*
X127000Y-99873000D01*
X127000Y-97627000D01*
X99823000Y-97627000D01*
X99823000Y-99873000D01*
X99823000Y-99873000D01*
G37*
X99823000Y-99873000D02*
X127000Y-99873000D01*
X127000Y-97627000D01*
X99823000Y-97627000D01*
X99823000Y-99873000D01*
M02*
