M48
;DRILL file {KiCad 5.0.2-bee76a0~70~ubuntu16.04.1} date Sat 23 Feb 2019 07:03:40 PM PST
;FORMAT={-:-/ absolute / metric / decimal}
FMAT,2
METRIC,TZ
T1C0.300
T2C0.500
T3C0.890
T4C1.000
T5C1.270
T6C1.500
T7C1.570
T8C1.600
T9C2.000
T10C2.500
T11C3.300
T12C1.200
T13C3.250
%
G90
G05
T1
X1.5Y-38.
X1.5Y-44.2
X1.5Y-50.4
X1.5Y-56.6
X6.7Y-64.
X6.7Y-74.2
X8.9Y-64.
X8.9Y-74.2
X10.3Y-81.5
X15.6Y-11.3
X16.4Y-65.7
X16.4Y-68.9
X17.1Y-87.
X17.8Y-74.9
X18.2Y-81.1
X18.2Y-82.3
X18.5Y-31.9
X18.6Y-12.8
X18.6Y-76.7
X18.6Y-77.9
X18.7Y-70.1
X19.Y-13.8
X20.2Y-48.6
X20.2Y-76.7
X20.2Y-77.5
X20.8Y-40.8
X20.8Y-70.4
X21.Y-31.9
X21.3Y-50.8
X21.4Y-71.1
X21.5Y-47.1
X21.8Y-56.7
X21.9Y-70.4
X22.Y-65.4
X22.2Y-51.8
X22.7Y-12.3
X22.7Y-16.
X22.7Y-29.8
X22.8Y-49.8
X22.9Y-48.7
X23.1Y-55.5
X23.4Y-31.2
X23.6Y-19.55
X23.6Y-40.8
X23.6Y-66.9
X23.65Y-23.05
X23.8Y-12.2
X23.9Y-48.3
X24.Y-34.3
X24.3Y-28.6
X24.7Y-25.
X24.8Y-46.8
X24.8Y-47.9
X24.8Y-50.8
X24.9Y-37.3
X24.9Y-39.3
X24.9Y-40.8
X25.1Y-81.8
X25.2Y-12.1
X25.3Y-56.8
X25.5Y-66.9
X25.6Y-35.4
X25.6Y-54.7
X25.7Y-25.5
X26.5Y-27.5
X26.8Y-26.
X26.9Y-16.6
X27.2Y-75.5
X27.3Y-35.6
X27.3Y-36.8
X27.3Y-39.3
X27.3Y-40.8
X27.3Y-42.3
X27.3Y-46.7
X27.3Y-47.8
X27.3Y-48.8
X27.3Y-50.8
X27.3Y-53.3
X27.4Y-54.7
X27.7Y-55.8
X28.3Y-14.8
X28.4Y-75.
X28.5Y-44.8
X28.7Y-69.6
X28.8Y-16.6
X28.8Y-43.7
X28.8Y-73.
X28.9Y-27.3
X29.4Y-36.8
X29.5Y-35.5
X30.4Y-81.5
X30.7Y-15.9
X31.3Y-41.3
X31.5Y-12.6
X31.6Y-55.1
X31.7Y-16.
X31.8Y-26.3
X32.1Y-57.5
X32.6Y-35.5
X33.1Y-33.1
X33.1Y-55.1
X33.4Y-53.9
X33.5Y-12.3
X33.7Y-35.5
X33.8Y-23.8
X33.9Y-27.5
X33.95Y-19.45
X34.2Y-21.8
X34.2Y-71.8
X34.5Y-53.9
X34.6Y-61.9
X34.6Y-74.5
X34.7Y-26.7
X35.1Y-55.1
X35.1Y-57.5
X35.25Y-71.05
X35.4Y-65.4
X35.5Y-27.5
X35.6Y-35.5
X35.7Y-73.3
X35.9Y-36.6
X36.1Y-33.1
X36.1Y-51.2
X36.1Y-55.1
X36.3Y-17.6
X36.5Y-26.7
X36.6Y-18.5
X36.7Y-16.4
X36.8Y-65.4
X36.8Y-76.7
X37.Y-21.6
X37.1Y-19.9
X37.2Y-60.9
X37.4Y-77.9
X37.7Y-16.2
X38.1Y-75.6
X38.3Y-18.2
X38.9Y-54.
X39.Y-75.4
X39.1Y-55.1
X39.1Y-57.5
X39.3Y-52.5
X39.5Y-61.3
X39.6Y-18.9
X39.9Y-36.6
X40.Y-28.3
X40.1Y-35.5
X40.2Y-24.6
X40.6Y-33.1
X41.Y-75.4
X41.1Y-23.9
X41.1Y-55.1
X42.Y-60.9
X42.1Y-35.5
X42.1Y-78.9
X42.6Y-55.1
X42.8Y-78.3
X43.Y-75.4
X43.3Y-41.3
X43.6Y-35.5
X43.6Y-57.5
X43.7Y-78.9
X44.1Y-33.1
X44.1Y-53.7
X44.1Y-55.1
X44.4Y-78.2
X44.8Y-50.4
X45.3Y-47.7
X45.3Y-49.
X45.4Y-36.4
X45.5Y-53.1
X45.6Y-35.5
X45.8Y-33.1
X45.9Y-62.8
X46.2Y-41.7
X46.6Y-34.9
X46.9Y-36.4
X46.9Y-37.7
X46.9Y-39.8
X46.9Y-41.3
X46.9Y-43.8
X46.9Y-44.9
X46.9Y-46.3
X46.9Y-51.8
X46.9Y-53.
X46.9Y-53.8
X47.1Y-65.9
X47.1Y-68.9
X47.2Y-55.4
X47.3Y-68.1
X48.2Y-35.2
X48.2Y-72.
X48.7Y-26.9
X49.1Y-72.
X49.2Y-59.9
X49.3Y-41.3
X49.3Y-43.9
X49.3Y-47.8
X49.3Y-50.3
X49.3Y-51.8
X49.3Y-52.8
X49.3Y-54.3
X49.4Y-36.8
X49.5Y-56.
X49.7Y-64.7
X49.7Y-66.2
X49.9Y-74.3
X50.1Y-69.
X50.5Y-27.7
X50.8Y-33.5
X50.9Y-48.2
X52.2Y-51.5
X52.2Y-52.6
X52.2Y-65.1
X52.2Y-66.8
X53.3Y-34.6
X53.7Y-28.6
X54.2Y-35.
X54.7Y-51.7
X55.Y-24.8
X55.3Y-46.4
X55.4Y-49.9
X55.7Y-67.
X56.1Y-56.2
X57.3Y-89.3
X57.6Y-33.4
X58.2Y-86.5
X58.6Y-59.9
X59.4Y-33.7
X60.1Y-64.5
X60.1Y-74.4
X60.8Y-34.
X60.8Y-65.4
X60.8Y-73.6
X61.1Y-63.9
X61.8Y-75.8
X61.9Y-60.2
X62.2Y-61.4
X63.4Y-26.9
X63.8Y-76.2
X64.8Y-32.
X64.9Y-27.3
X65.2Y-28.8
X66.4Y-60.2
X68.5Y-27.5
X68.9Y-73.2
X69.4Y-65.
X69.7Y-24.8
X70.Y-19.6
X70.1Y-60.3
X70.1Y-66.9
X70.2Y-54.
X70.2Y-55.5
X71.2Y-76.1
X71.6Y-62.5
X71.9Y-78.5
X72.Y-48.8
X72.Y-54.5
X72.2Y-73.8
X72.3Y-56.1
X72.9Y-49.9
X73.5Y-62.8
X73.5Y-65.2
X74.3Y-55.4
X74.5Y-47.7
X75.3Y-29.6
X76.2Y-30.4
X77.3Y-39.3
X77.3Y-40.9
X77.3Y-42.5
X77.3Y-47.3
X78.Y-31.5
X78.3Y-27.1
X79.6Y-27.7
X79.8Y-63.7
X79.8Y-66.6
X80.Y-39.
X80.Y-48.
X80.4Y-72.6
X80.5Y-42.7
X80.5Y-43.9
X80.5Y-64.6
X81.4Y-74.6
X81.6Y-66.6
X82.6Y-61.9
X83.Y-28.6
X83.Y-56.8
X83.3Y-21.1
X83.3Y-26.4
X83.3Y-63.8
X84.Y-35.4
X84.6Y-72.
X84.8Y-64.2
X84.8Y-73.5
X84.9Y-65.6
X87.4Y-57.1
X87.5Y-53.1
X88.3Y-49.9
X89.9Y-48.6
X91.3Y-47.8
X93.5Y-36.5
X93.7Y-60.6
X66.2Y-23.75
X67.2Y-23.75
X51.5Y-23.75
X52.5Y-23.75
X38.5Y-66.8
X38.5Y-68.3
X38.5Y-69.8
X38.5Y-71.3
X38.5Y-72.8
X40.Y-66.8
X40.Y-68.3
X40.Y-69.8
X40.Y-71.3
X40.Y-72.8
X41.5Y-66.8
X41.5Y-68.3
X41.5Y-69.8
X41.5Y-71.3
X41.5Y-72.8
X43.Y-69.8
X43.Y-71.3
X43.Y-72.8
X44.5Y-69.8
X44.5Y-71.3
X44.5Y-72.8
X27.217Y-19.215
X27.217Y-20.615
X27.217Y-22.015
X27.217Y-23.415
X28.617Y-19.215
X28.617Y-20.615
X28.617Y-22.015
X28.617Y-23.415
X30.017Y-19.215
X30.017Y-20.615
X31.417Y-19.215
X31.417Y-20.615
X90.2Y-32.9
X91.4Y-32.9
X80.9Y-23.75
X81.9Y-23.75
X75.6Y-98.
X75.6Y-99.
X76.6Y-98.
X76.6Y-99.
X77.6Y-98.
X77.6Y-99.
X78.6Y-98.
X78.6Y-99.
X79.6Y-95.
X79.6Y-96.
X79.6Y-97.
X79.6Y-98.
X79.6Y-99.
X80.3Y-92.6
X80.3Y-94.5
X80.3Y-95.5
X80.3Y-96.5
X80.3Y-97.5
X80.3Y-98.5
X81.Y-95.
X81.Y-96.
X81.Y-97.
X81.Y-98.
X81.Y-99.
X82.Y-98.
X82.Y-99.
X83.Y-98.
X83.Y-99.
X84.Y-98.
X84.Y-99.
X85.Y-98.
X85.Y-99.
X58.6Y-98.
X58.6Y-99.
X59.6Y-98.
X59.6Y-99.
X60.6Y-98.
X60.6Y-99.
X61.6Y-98.
X61.6Y-99.
X62.6Y-95.
X62.6Y-96.
X62.6Y-97.
X62.6Y-98.
X62.6Y-99.
X63.3Y-92.6
X63.3Y-94.5
X63.3Y-95.5
X63.3Y-96.5
X63.3Y-97.5
X63.3Y-98.5
X64.Y-95.
X64.Y-96.
X64.Y-97.
X64.Y-98.
X64.Y-99.
X65.Y-98.
X65.Y-99.
X66.Y-98.
X66.Y-99.
X67.Y-98.
X67.Y-99.
X68.Y-98.
X68.Y-99.
X24.055Y-69.121
X24.955Y-69.121
X25.555Y-69.621
X26.055Y-69.121
X26.055Y-70.221
X26.055Y-71.121
X35.6Y-43.8
X35.6Y-45.3
X35.6Y-46.8
X37.1Y-43.8
X37.1Y-45.3
X37.1Y-46.8
X38.6Y-43.8
X38.6Y-45.3
X71.395Y-68.825
X71.395Y-70.325
X72.895Y-68.825
X72.895Y-70.325
X74.395Y-70.325
T2
X2.5Y-1.
X2.5Y-99.
X5.Y-1.
X5.Y-99.
X7.5Y-1.
X7.5Y-99.
X10.Y-1.
X10.Y-99.
X11.5Y-63.3
X11.5Y-65.
X12.5Y-1.
X12.5Y-99.
X13.Y-70.4
X13.Y-72.9
X14.4Y-84.2
X15.Y-1.
X15.Y-99.
X17.5Y-1.
X17.5Y-99.
X22.5Y-1.
X22.5Y-99.
X22.7Y-17.1
X23.6Y-64.7
X24.7Y-17.1
X25.Y-1.
X25.Y-99.
X27.5Y-1.
X27.5Y-99.
X27.8Y-81.7
X27.9Y-29.2
X29.2Y-11.2
X29.9Y-47.3
X30.Y-1.
X30.Y-99.
X30.4Y-54.2
X31.5Y-13.8
X32.5Y-1.
X32.5Y-99.
X33.Y-16.2
X33.5Y-30.2
X33.5Y-32.3
X34.7Y-84.
X35.Y-1.
X35.Y-99.
X35.5Y-16.2
X36.6Y-13.8
X37.5Y-1.
X37.5Y-99.
X37.7Y-13.8
X40.Y-1.
X40.Y-99.
X40.7Y-32.2
X41.3Y-11.8
X41.5Y-30.1
X41.8Y-31.1
X41.9Y-38.7
X41.9Y-41.9
X42.5Y-1.
X42.5Y-99.
X42.6Y-30.3
X42.8Y-29.1
X43.Y-14.
X44.Y-29.1
X44.1Y-84.1
X45.Y-1.
X45.Y-99.
X45.7Y-23.3
X45.7Y-24.6
X45.8Y-19.5
X45.8Y-90.1
X46.1Y-21.2
X47.5Y-1.
X47.5Y-99.
X47.6Y-85.
X48.2Y-18.4
X48.2Y-19.6
X48.3Y-61.7
X50.Y-1.
X50.Y-99.
X50.6Y-41.2
X52.5Y-1.
X52.5Y-99.
X52.9Y-82.4
X53.Y-41.2
X53.1Y-19.6
X53.8Y-91.5
X54.3Y-86.4
X55.Y-1.
X55.Y-99.
X55.7Y-17.2
X55.7Y-18.4
X56.5Y-64.4
X56.6Y-85.6
X56.8Y-4.5
X56.8Y-5.7
X56.8Y-6.9
X56.8Y-8.1
X56.8Y-94.2
X56.9Y-17.2
X56.9Y-18.4
X56.9Y-76.3
X57.3Y-99.
X57.5Y-1.
X57.9Y-14.4
X58.Y-77.4
X58.Y-93.2
X58.3Y-63.3
X58.8Y-26.
X58.8Y-27.2
X58.8Y-28.4
X59.9Y-88.6
X60.Y-1.
X60.7Y-23.7
X60.8Y-21.2
X61.1Y-88.6
X61.8Y-58.
X62.1Y-5.
X62.5Y-1.
X62.8Y-18.4
X62.8Y-19.6
X62.8Y-20.8
X62.9Y-58.
X63.3Y-5.
X63.5Y-33.5
X63.5Y-34.8
X63.5Y-87.6
X65.Y-1.
X65.5Y-74.6
X65.5Y-75.8
X66.7Y-75.2
X66.7Y-76.4
X67.5Y-1.
X67.8Y-19.6
X68.8Y-93.4
X68.9Y-89.
X69.3Y-99.
X70.Y-1.
X70.2Y-65.7
X70.6Y-16.3
X70.7Y-7.6
X71.8Y-99.
X72.5Y-1.
X72.7Y-59.3
X73.5Y-26.
X73.5Y-27.2
X73.5Y-28.4
X73.5Y-34.9
X73.5Y-60.1
X74.3Y-99.
X74.8Y-93.4
X75.Y-1.
X75.Y-74.
X76.6Y-19.1
X76.6Y-20.5
X76.6Y-22.2
X76.9Y-89.
X76.95Y-45.85
X77.05Y-43.65
X77.5Y-1.
X77.5Y-18.4
X77.5Y-19.8
X77.8Y-82.1
X77.9Y-85.9
X78.1Y-89.
X80.Y-1.
X80.Y-53.2
X80.Y-58.4
X81.6Y-38.7
X81.7Y-31.4
X82.5Y-1.
X83.2Y-32.4
X84.2Y-25.
X84.2Y-34.2
X85.Y-1.
X85.1Y-87.5
X85.6Y-93.2
X86.8Y-94.2
X87.5Y-1.
X87.5Y-99.
X89.4Y-75.2
X89.7Y-89.5
X90.Y-1.
X90.Y-99.
X90.4Y-76.6
X91.8Y-74.5
X92.2Y-46.3
X92.3Y-61.8
X92.5Y-1.
X92.5Y-99.
X92.7Y-94.2
X97.Y-33.7
X20.4Y-35.9
X20.3Y-44.5
X24.5Y-87.1
X83.9Y-47.7
X89.2Y-81.
X20.6Y-62.8
X96.5Y-56.5
X85.8Y-43.9
X15.1Y-58.3
T3
X17.7Y-17.72
X17.7Y-19.75
X17.7Y-21.78
X17.7Y-23.82
X17.7Y-25.85
X17.7Y-27.88
X20.24Y-16.7
X20.24Y-18.73
X20.24Y-20.76
X20.24Y-24.84
X20.24Y-26.87
X20.24Y-28.9
X36.606Y-80.806
X36.606Y-86.394
X42.194Y-80.806
X42.194Y-86.394
X87.206Y-67.406
X87.206Y-72.994
X92.794Y-67.406
X92.794Y-72.994
T4
X1.5Y-76.06
X1.5Y-81.14
X4.04Y-73.52
X4.04Y-78.6
X96.16Y-88.2
X98.7Y-83.12
X98.7Y-85.66
X98.7Y-90.74
X94.56Y-42.48
X94.56Y-45.02
X94.56Y-47.56
X94.56Y-50.1
X94.56Y-52.64
X97.1Y-42.48
X97.1Y-45.02
X97.1Y-47.56
X97.1Y-50.1
X97.1Y-52.64
X58.23Y-42.22
X58.23Y-44.76
X58.23Y-47.3
X58.23Y-49.84
X58.23Y-52.38
X60.77Y-42.22
X60.77Y-44.76
X60.77Y-47.3
X60.77Y-49.84
X60.77Y-52.38
X85.2Y-55.8
X85.2Y-58.34
X13.5Y-47.46
X13.5Y-50.
X13.5Y-52.54
X16.04Y-47.46
X16.04Y-50.
X16.04Y-52.54
X87.2Y-75.5
X4.04Y-35.42
X4.04Y-37.96
X4.04Y-40.5
X4.04Y-43.04
X4.04Y-45.58
X4.04Y-48.12
X4.04Y-50.66
X4.04Y-53.2
X4.04Y-55.74
X4.04Y-58.28
X4.04Y-60.82
X6.58Y-37.96
X6.58Y-40.5
X6.58Y-43.04
X6.58Y-45.58
X6.58Y-48.12
X6.58Y-50.66
X6.58Y-53.2
X6.58Y-55.74
X6.58Y-58.28
X6.58Y-60.82
X91.1Y-55.8
X91.1Y-58.34
X54.6Y-70.58
X54.6Y-73.12
X54.6Y-75.66
X54.6Y-78.2
X96.16Y-67.88
X98.7Y-62.8
X98.7Y-65.34
X98.7Y-70.42
X73.3Y-24.4
X75.84Y-24.4
X96.16Y-78.04
X98.7Y-72.96
X98.7Y-75.5
X98.7Y-80.58
X86.Y-17.08
X86.Y-19.62
X28.95Y-6.8
X33.3Y-79.1
X70.2Y-26.26
X70.2Y-28.8
X26.Y-6.8
X69.7Y-14.1
X72.24Y-14.1
X51.5Y-61.8
X32.1Y-65.7
X88.5Y-64.8
X1.5Y-65.9
X1.5Y-70.98
X4.04Y-63.36
X4.04Y-68.44
X41.6Y-7.8
X44.14Y-7.8
X46.68Y-7.8
X49.22Y-7.8
X51.76Y-7.8
X54.3Y-7.8
X72.4Y-38.8
X72.4Y-41.34
X72.4Y-43.88
X72.4Y-46.42
X88.54Y-17.08
X88.54Y-19.62
X88.54Y-22.16
X88.54Y-24.7
X88.54Y-27.24
X91.08Y-17.08
X91.08Y-19.62
X91.08Y-22.16
X91.08Y-24.7
X91.08Y-27.24
X93.62Y-17.08
X93.62Y-19.62
X93.62Y-22.16
X93.62Y-24.7
X93.62Y-27.24
X96.16Y-17.08
X96.16Y-19.62
X96.16Y-22.16
X96.16Y-24.7
X96.16Y-27.24
X76.5Y-55.8
X76.5Y-58.34
X77.2Y-65.7
X77.2Y-68.24
X77.2Y-70.78
X77.2Y-73.32
X32.1Y-71.9
X87.56Y-79.32
X87.56Y-84.4
X87.56Y-86.94
X87.56Y-89.48
X92.64Y-79.32
X92.64Y-81.86
X92.64Y-84.4
X92.64Y-86.94
X92.64Y-89.48
X92.64Y-92.02
X52.08Y-79.1
X80.36Y-68.9
X82.9Y-68.9
X98.7Y-6.92
X98.7Y-9.46
X98.7Y-12.
X98.7Y-14.54
X98.7Y-17.08
X98.7Y-19.62
X98.7Y-22.16
X98.7Y-24.7
X98.7Y-27.24
X98.7Y-29.78
X98.7Y-32.32
X98.7Y-34.86
X98.7Y-37.4
X98.7Y-39.94
X98.7Y-42.48
X98.7Y-45.02
X98.7Y-47.56
X98.7Y-50.1
X98.7Y-52.64
X98.7Y-55.18
X98.7Y-57.72
X98.7Y-60.26
X55.5Y-26.26
X55.5Y-28.8
X80.76Y-76.6
X83.3Y-76.6
T5
X39.4Y-80.806
X4.5Y-90.
X9.5Y-85.
X9.5Y-87.5
X9.5Y-92.5
X9.5Y-95.
X5.7Y-7.2
X10.7Y-7.2
X65.8Y-81.
X65.8Y-85.6
X72.2Y-81.
X72.2Y-85.6
X89.4Y-10.7
X94.4Y-10.7
X2.21Y-15.28
X2.21Y-30.32
X4.75Y-15.28
X4.75Y-30.32
X7.29Y-15.28
T6
X90.8Y-35.1
X78.9Y-23.75
X24.555Y-70.621
X74.7Y-68.95
X64.2Y-23.75
X49.5Y-23.75
T7
X69.Y-83.3
X1.785Y-68.44
X4.195Y-65.9
X4.195Y-70.98
X1.785Y-78.6
X4.195Y-76.06
X4.195Y-81.14
X96.005Y-85.66
X96.005Y-90.74
X98.415Y-88.2
X11.1Y-14.01
X11.1Y-31.59
X96.005Y-65.34
X96.005Y-70.42
X98.415Y-67.88
X96.005Y-75.5
X96.005Y-80.58
X98.415Y-78.04
T8
X7.65Y-7.2
X10.8Y-11.9
X13.8Y-7.2
X86.3Y-10.7
X89.3Y-6.
X92.45Y-10.7
T9
X30.617Y-22.615
T10
X43.5Y-67.8
X39.2Y-47.4
T11
X20.Y-3.
X20.Y-97.
X71.8Y-93.3
X97.Y-3.
X97.Y-97.
T12
X2.Y-85.
X2.Y-95.
X4.5Y-85.
X4.5Y-95.
X9.5Y-90.
T13
X11.1Y-17.975
X11.1Y-27.625
T0
M30
