0
SECTION
2
HEADER
9
$INSUNITS
70
4
9
$ACADVER
1
AC1014
9
$HANDSEED
5
FFFF
0
ENDSEC
0
SECTION
2
TABLES
0
TABLE
2
VPORT
5
8
100
AcDbSymbolTable
0
ENDTAB
0
TABLE
2
LTYPE
5
5
100
AcDbSymbolTable
0
LTYPE
5
14
100
AcDbSymbolTableRecord
100
AcDbLinetypeTableRecord
2
BYBLOCK
70
0
0
LTYPE
5
15
100
AcDbSymbolTableRecord
100
AcDbLinetypeTableRecord
2
BYLAYER
70
0
0
ENDTAB
0
TABLE
2
LAYER
5
2
100
AcDbSymbolTable
70
2
0
LAYER
5
50
100
AcDbSymbolTableRecord
100
AcDbLayerTableRecord
2
0
70
0
6
CONTINUOUS
0
ENDTAB
0
TABLE
2
STYLE
5
3
100
AcDbSymbolTable
70
1
0
STYLE
5
11
100
AcDbSymbolTableRecord
100
AcDbTextStyleTableRecord
2
STANDARD
70
0
0
ENDTAB
0
TABLE
2
VIEW
5
6
100
AcDbSymbolTable
70
0
0
ENDTAB
0
TABLE
2
UCS
5
7
100
AcDbSymbolTable
70
0
0
ENDTAB
0
TABLE
2
APPID
5
9
100
AcDbSymbolTable
70
2
0
APPID
5
12
100
AcDbSymbolTableRecord
100
AcDbRegAppTableRecord
2
ACAD
70
0
0
ENDTAB
0
TABLE
2
DIMSTYLE
5
A
100
AcDbSymbolTable
70
1
0
ENDTAB
0
TABLE
2
BLOCK_RECORD
5
1
100
AcDbSymbolTable
70
1
0
BLOCK_RECORD
5
1F
100
AcDbSymbolTableRecord
100
AcDbBlockTableRecord
2
*MODEL_SPACE
0
BLOCK_RECORD
5
1B
100
AcDbSymbolTableRecord
100
AcDbBlockTableRecord
2
*PAPER_SPACE
0
ENDTAB
0
ENDSEC
0
SECTION
2
BLOCKS
0
BLOCK
5
20
100
AcDbEntity
100
AcDbBlockBegin
2
*MODEL_SPACE
0
ENDBLK
5
21
100
AcDbEntity
100
AcDbBlockEnd
0
BLOCK
5
1C
100
AcDbEntity
100
AcDbBlockBegin
2
*PAPER_SPACE
0
ENDBLK
5
1D
100
AcDbEntity
100
AcDbBlockEnd
0
ENDSEC
0
SECTION
2
ENTITIES
0
LINE
5
100
100
AcDbEntity
8
0
100
AcDbLine
10
53.000000000000007
20
27.5
30
0
11
-53.000000000000007
21
27.5
31
0
0
LINE
5
101
100
AcDbEntity
8
0
100
AcDbLine
10
-53.000000000000007
20
27.5
30
0
11
-53.000000000000007
21
-27.5
31
0
0
LINE
5
102
100
AcDbEntity
8
0
100
AcDbLine
10
-53.000000000000007
20
-27.5
30
0
11
53.000000000000007
21
-27.5
31
0
0
LINE
5
103
100
AcDbEntity
8
0
100
AcDbLine
10
53.000000000000007
20
-27.5
30
0
11
53.000000000000007
21
27.5
31
0
0
LINE
5
104
100
AcDbEntity
8
0
100
AcDbLine
10
53.000000000000007
20
27.5
30
0
11
-53.000000000000007
21
-27.5
31
0
0
LINE
5
105
100
AcDbEntity
8
0
100
AcDbLine
10
-53.000000000000007
20
27.5
30
0
11
53.000000000000007
21
-27.5
31
0
0
LINE
5
106
100
AcDbEntity
8
0
100
AcDbLine
10
48.25
20
23.75
30
0
11
-48.25
21
23.75
31
0
0
LINE
5
107
100
AcDbEntity
8
0
100
AcDbLine
10
-48.25
20
23.75
30
0
11
-48.25
21
-23.75
31
0
0
LINE
5
108
100
AcDbEntity
8
0
100
AcDbLine
10
-48.25
20
-23.75
30
0
11
48.25
21
-23.75
31
0
0
LINE
5
109
100
AcDbEntity
8
0
100
AcDbLine
10
48.25
20
-23.75
30
0
11
48.25
21
23.75
31
0
0
LINE
5
110
100
AcDbEntity
8
0
100
AcDbLine
10
48.25
20
23.75
30
0
11
-48.25
21
-23.75
31
0
0
LINE
5
111
100
AcDbEntity
8
0
100
AcDbLine
10
-48.25
20
23.75
30
0
11
48.25
21
-23.75
31
0
0
CIRCLE
5
112
100
AcDbEntity
8
0
100
AcDbCircle
10
-48.25
20
23.75
30
0
40
1.6000000000000003
0
CIRCLE
5
113
100
AcDbEntity
8
0
100
AcDbCircle
10
48.25
20
23.75
30
0
40
1.6000000000000003
0
CIRCLE
5
114
100
AcDbEntity
8
0
100
AcDbCircle
10
48.25
20
-23.75
30
0
40
1.6000000000000003
0
CIRCLE
5
115
100
AcDbEntity
8
0
100
AcDbCircle
10
-48.25
20
-23.75
30
0
40
1.6000000000000003
0
LINE
5
116
100
AcDbEntity
8
0
100
AcDbLine
10
-53.000000000000007
20
0
30
0
11
53.000000000000007
21
0
31
0
0
LINE
5
117
100
AcDbEntity
8
0
100
AcDbLine
10
-52.000000000000014
20
17
30
0
11
-52.000000000000014
21
-17
31
0
0
LINE
5
118
100
AcDbEntity
8
0
100
AcDbLine
10
-52.000000000000014
20
17
30
0
11
-53.000000000000007
21
17.000000000000004
31
0
0
LINE
5
119
100
AcDbEntity
8
0
100
AcDbLine
10
-52.000000000000014
20
-17
30
0
11
-53.000000000000007
21
-17.000000000000004
31
0
0
LINE
5
120
100
AcDbEntity
8
0
100
AcDbLine
10
52.000000000000014
20
17
30
0
11
52.000000000000014
21
-17
31
0
0
LINE
5
121
100
AcDbEntity
8
0
100
AcDbLine
10
52.000000000000014
20
17
30
0
11
53.000000000000007
21
17
31
0
0
LINE
5
122
100
AcDbEntity
8
0
100
AcDbLine
10
52.000000000000014
20
-17
30
0
11
53.000000000000007
21
-17
31
0
0
CIRCLE
5
123
100
AcDbEntity
8
0
100
AcDbCircle
10
-42.900000000000006
20
-13.349999999999998
30
0
40
3.6250000000000004
0
CIRCLE
5
124
100
AcDbEntity
8
0
100
AcDbCircle
10
39.850000000000001
20
-17.25
30
0
40
3.5000000000000013
0
CIRCLE
5
125
100
AcDbEntity
8
0
100
AcDbCircle
10
-8.9999999999999947
20
-19.75
30
0
40
1
0
CIRCLE
5
126
100
AcDbEntity
8
0
100
AcDbCircle
10
-2.9999999999999938
20
-19.749999999999996
30
0
40
1
0
CIRCLE
5
127
100
AcDbEntity
8
0
100
AcDbCircle
10
3.0000000000000071
20
-19.749999999999996
30
0
40
1
0
CIRCLE
5
128
100
AcDbEntity
8
0
100
AcDbCircle
10
9.0000000000000071
20
-19.749999999999996
30
0
40
1
0
LINE
5
129
100
AcDbEntity
8
0
100
AcDbLine
10
-18.250000000000007
20
-20.025000000000006
30
0
11
-36.250000000000007
21
-20.025000000000006
31
0
0
LINE
5
130
100
AcDbEntity
8
0
100
AcDbLine
10
-36.250000000000007
20
-20.025000000000006
30
0
11
-36.250000000000007
21
-8.2750000000000004
31
0
0
LINE
5
131
100
AcDbEntity
8
0
100
AcDbLine
10
-36.250000000000007
20
-8.2750000000000004
30
0
11
-18.250000000000007
21
-8.2750000000000004
31
0
0
LINE
5
132
100
AcDbEntity
8
0
100
AcDbLine
10
-18.250000000000007
20
-8.2750000000000004
30
0
11
-18.250000000000007
21
-20.025000000000006
31
0
0
LINE
5
133
100
AcDbEntity
8
0
100
AcDbLine
10
-18.250000000000007
20
-20.025000000000006
30
0
11
-36.250000000000007
21
-8.2750000000000004
31
0
0
LINE
5
134
100
AcDbEntity
8
0
100
AcDbLine
10
-36.250000000000007
20
-20.025000000000006
30
0
11
-18.250000000000007
21
-8.2750000000000004
31
0
0
ENDSEC
0
SECTION
2
OBJECTS
0
DICTIONARY
5
C
100
AcDbDictionary
3
ACAD_GROUP
350
D
3
ACAD_MLINESTYLE
350
17
0
DICTIONARY
5
D
100
AcDbDictionary
0
DICTIONARY
5
1A
330
C
100
AcDbDictionary
0
DICTIONARY
5
17
100
AcDbDictionary
0
ENDSEC
0
EOF
