G04 #@! TF.GenerationSoftware,KiCad,Pcbnew,5.0.2+dfsg1-1*
G04 #@! TF.CreationDate,2019-07-23T09:41:23-06:00*
G04 #@! TF.ProjectId,hl2-panel,686c322d-7061-46e6-956c-2e6b69636164,rev?*
G04 #@! TF.SameCoordinates,Original*
G04 #@! TF.FileFunction,Legend,Bot*
G04 #@! TF.FilePolarity,Positive*
%FSLAX46Y46*%
G04 Gerber Fmt 4.6, Leading zero omitted, Abs format (unit mm)*
G04 Created by KiCad (PCBNEW 5.0.2+dfsg1-1) date Tue 23 Jul 2019 09:41:23 AM MDT*
%MOMM*%
%LPD*%
G01*
G04 APERTURE LIST*
%ADD10C,0.300000*%
G04 APERTURE END LIST*
D10*
X137342857Y-151478571D02*
X137342857Y-149978571D01*
X137342857Y-150692857D02*
X136485714Y-150692857D01*
X136485714Y-151478571D02*
X136485714Y-149978571D01*
X135200000Y-151407142D02*
X135342857Y-151478571D01*
X135628571Y-151478571D01*
X135771428Y-151407142D01*
X135842857Y-151264285D01*
X135842857Y-150692857D01*
X135771428Y-150550000D01*
X135628571Y-150478571D01*
X135342857Y-150478571D01*
X135200000Y-150550000D01*
X135128571Y-150692857D01*
X135128571Y-150835714D01*
X135842857Y-150978571D01*
X134485714Y-151478571D02*
X134485714Y-150478571D01*
X134485714Y-150764285D02*
X134414285Y-150621428D01*
X134342857Y-150550000D01*
X134200000Y-150478571D01*
X134057142Y-150478571D01*
X133557142Y-151478571D02*
X133557142Y-150478571D01*
X133557142Y-150621428D02*
X133485714Y-150550000D01*
X133342857Y-150478571D01*
X133128571Y-150478571D01*
X132985714Y-150550000D01*
X132914285Y-150692857D01*
X132914285Y-151478571D01*
X132914285Y-150692857D02*
X132842857Y-150550000D01*
X132700000Y-150478571D01*
X132485714Y-150478571D01*
X132342857Y-150550000D01*
X132271428Y-150692857D01*
X132271428Y-151478571D01*
X130985714Y-151407142D02*
X131128571Y-151478571D01*
X131414285Y-151478571D01*
X131557142Y-151407142D01*
X131628571Y-151264285D01*
X131628571Y-150692857D01*
X131557142Y-150550000D01*
X131414285Y-150478571D01*
X131128571Y-150478571D01*
X130985714Y-150550000D01*
X130914285Y-150692857D01*
X130914285Y-150835714D01*
X131628571Y-150978571D01*
X130342857Y-151407142D02*
X130200000Y-151478571D01*
X129914285Y-151478571D01*
X129771428Y-151407142D01*
X129700000Y-151264285D01*
X129700000Y-151192857D01*
X129771428Y-151050000D01*
X129914285Y-150978571D01*
X130128571Y-150978571D01*
X130271428Y-150907142D01*
X130342857Y-150764285D01*
X130342857Y-150692857D01*
X130271428Y-150550000D01*
X130128571Y-150478571D01*
X129914285Y-150478571D01*
X129771428Y-150550000D01*
X127200000Y-151478571D02*
X127914285Y-151478571D01*
X127914285Y-149978571D01*
X126700000Y-151478571D02*
X126700000Y-150478571D01*
X126700000Y-149978571D02*
X126771428Y-150050000D01*
X126700000Y-150121428D01*
X126628571Y-150050000D01*
X126700000Y-149978571D01*
X126700000Y-150121428D01*
X126200000Y-150478571D02*
X125628571Y-150478571D01*
X125985714Y-149978571D02*
X125985714Y-151264285D01*
X125914285Y-151407142D01*
X125771428Y-151478571D01*
X125628571Y-151478571D01*
X124557142Y-151407142D02*
X124700000Y-151478571D01*
X124985714Y-151478571D01*
X125128571Y-151407142D01*
X125200000Y-151264285D01*
X125200000Y-150692857D01*
X125128571Y-150550000D01*
X124985714Y-150478571D01*
X124700000Y-150478571D01*
X124557142Y-150550000D01*
X124485714Y-150692857D01*
X124485714Y-150835714D01*
X125200000Y-150978571D01*
X122700000Y-150907142D02*
X121557142Y-150907142D01*
X119700000Y-151478571D02*
X119700000Y-149978571D01*
X119057142Y-151478571D02*
X119057142Y-150692857D01*
X119128571Y-150550000D01*
X119271428Y-150478571D01*
X119485714Y-150478571D01*
X119628571Y-150550000D01*
X119700000Y-150621428D01*
X118557142Y-150478571D02*
X117985714Y-150478571D01*
X118342857Y-149978571D02*
X118342857Y-151264285D01*
X118271428Y-151407142D01*
X118128571Y-151478571D01*
X117985714Y-151478571D01*
X117700000Y-150478571D02*
X117128571Y-150478571D01*
X117485714Y-149978571D02*
X117485714Y-151264285D01*
X117414285Y-151407142D01*
X117271428Y-151478571D01*
X117128571Y-151478571D01*
X116628571Y-150478571D02*
X116628571Y-151978571D01*
X116628571Y-150550000D02*
X116485714Y-150478571D01*
X116199999Y-150478571D01*
X116057142Y-150550000D01*
X115985714Y-150621428D01*
X115914285Y-150764285D01*
X115914285Y-151192857D01*
X115985714Y-151335714D01*
X116057142Y-151407142D01*
X116199999Y-151478571D01*
X116485714Y-151478571D01*
X116628571Y-151407142D01*
X115271428Y-151335714D02*
X115199999Y-151407142D01*
X115271428Y-151478571D01*
X115342857Y-151407142D01*
X115271428Y-151335714D01*
X115271428Y-151478571D01*
X115271428Y-150550000D02*
X115199999Y-150621428D01*
X115271428Y-150692857D01*
X115342857Y-150621428D01*
X115271428Y-150550000D01*
X115271428Y-150692857D01*
X113485714Y-149907142D02*
X114771428Y-151835714D01*
X111914285Y-149907142D02*
X113200000Y-151835714D01*
X111557142Y-150478571D02*
X111271428Y-151478571D01*
X110985714Y-150764285D01*
X110700000Y-151478571D01*
X110414285Y-150478571D01*
X109985714Y-150478571D02*
X109700000Y-151478571D01*
X109414285Y-150764285D01*
X109128571Y-151478571D01*
X108842857Y-150478571D01*
X108414285Y-150478571D02*
X108128571Y-151478571D01*
X107842857Y-150764285D01*
X107557142Y-151478571D01*
X107271428Y-150478571D01*
X106700000Y-151335714D02*
X106628571Y-151407142D01*
X106700000Y-151478571D01*
X106771428Y-151407142D01*
X106700000Y-151335714D01*
X106700000Y-151478571D01*
X105985714Y-151478571D02*
X105985714Y-149978571D01*
X105342857Y-151478571D02*
X105342857Y-150692857D01*
X105414285Y-150550000D01*
X105557142Y-150478571D01*
X105771428Y-150478571D01*
X105914285Y-150550000D01*
X105985714Y-150621428D01*
X104057142Y-151407142D02*
X104200000Y-151478571D01*
X104485714Y-151478571D01*
X104628571Y-151407142D01*
X104700000Y-151264285D01*
X104700000Y-150692857D01*
X104628571Y-150550000D01*
X104485714Y-150478571D01*
X104200000Y-150478571D01*
X104057142Y-150550000D01*
X103985714Y-150692857D01*
X103985714Y-150835714D01*
X104700000Y-150978571D01*
X103342857Y-151478571D02*
X103342857Y-150478571D01*
X103342857Y-150764285D02*
X103271428Y-150621428D01*
X103200000Y-150550000D01*
X103057142Y-150478571D01*
X102914285Y-150478571D01*
X102414285Y-151478571D02*
X102414285Y-150478571D01*
X102414285Y-150621428D02*
X102342857Y-150550000D01*
X102200000Y-150478571D01*
X101985714Y-150478571D01*
X101842857Y-150550000D01*
X101771428Y-150692857D01*
X101771428Y-151478571D01*
X101771428Y-150692857D02*
X101700000Y-150550000D01*
X101557142Y-150478571D01*
X101342857Y-150478571D01*
X101200000Y-150550000D01*
X101128571Y-150692857D01*
X101128571Y-151478571D01*
X99842857Y-151407142D02*
X99985714Y-151478571D01*
X100271428Y-151478571D01*
X100414285Y-151407142D01*
X100485714Y-151264285D01*
X100485714Y-150692857D01*
X100414285Y-150550000D01*
X100271428Y-150478571D01*
X99985714Y-150478571D01*
X99842857Y-150550000D01*
X99771428Y-150692857D01*
X99771428Y-150835714D01*
X100485714Y-150978571D01*
X99200000Y-151407142D02*
X99057142Y-151478571D01*
X98771428Y-151478571D01*
X98628571Y-151407142D01*
X98557142Y-151264285D01*
X98557142Y-151192857D01*
X98628571Y-151050000D01*
X98771428Y-150978571D01*
X98985714Y-150978571D01*
X99128571Y-150907142D01*
X99200000Y-150764285D01*
X99200000Y-150692857D01*
X99128571Y-150550000D01*
X98985714Y-150478571D01*
X98771428Y-150478571D01*
X98628571Y-150550000D01*
X97700000Y-151478571D02*
X97842857Y-151407142D01*
X97914285Y-151264285D01*
X97914285Y-149978571D01*
X97128571Y-151478571D02*
X97128571Y-150478571D01*
X97128571Y-149978571D02*
X97200000Y-150050000D01*
X97128571Y-150121428D01*
X97057142Y-150050000D01*
X97128571Y-149978571D01*
X97128571Y-150121428D01*
X96628571Y-150478571D02*
X96057142Y-150478571D01*
X96414285Y-149978571D02*
X96414285Y-151264285D01*
X96342857Y-151407142D01*
X96200000Y-151478571D01*
X96057142Y-151478571D01*
X94985714Y-151407142D02*
X95128571Y-151478571D01*
X95414285Y-151478571D01*
X95557142Y-151407142D01*
X95628571Y-151264285D01*
X95628571Y-150692857D01*
X95557142Y-150550000D01*
X95414285Y-150478571D01*
X95128571Y-150478571D01*
X94985714Y-150550000D01*
X94914285Y-150692857D01*
X94914285Y-150835714D01*
X95628571Y-150978571D01*
X94271428Y-151335714D02*
X94200000Y-151407142D01*
X94271428Y-151478571D01*
X94342857Y-151407142D01*
X94271428Y-151335714D01*
X94271428Y-151478571D01*
X92914285Y-151407142D02*
X93057142Y-151478571D01*
X93342857Y-151478571D01*
X93485714Y-151407142D01*
X93557142Y-151335714D01*
X93628571Y-151192857D01*
X93628571Y-150764285D01*
X93557142Y-150621428D01*
X93485714Y-150550000D01*
X93342857Y-150478571D01*
X93057142Y-150478571D01*
X92914285Y-150550000D01*
X92057142Y-151478571D02*
X92200000Y-151407142D01*
X92271428Y-151335714D01*
X92342857Y-151192857D01*
X92342857Y-150764285D01*
X92271428Y-150621428D01*
X92200000Y-150550000D01*
X92057142Y-150478571D01*
X91842857Y-150478571D01*
X91700000Y-150550000D01*
X91628571Y-150621428D01*
X91557142Y-150764285D01*
X91557142Y-151192857D01*
X91628571Y-151335714D01*
X91700000Y-151407142D01*
X91842857Y-151478571D01*
X92057142Y-151478571D01*
X90914285Y-151478571D02*
X90914285Y-150478571D01*
X90914285Y-150621428D02*
X90842857Y-150550000D01*
X90700000Y-150478571D01*
X90485714Y-150478571D01*
X90342857Y-150550000D01*
X90271428Y-150692857D01*
X90271428Y-151478571D01*
X90271428Y-150692857D02*
X90200000Y-150550000D01*
X90057142Y-150478571D01*
X89842857Y-150478571D01*
X89700000Y-150550000D01*
X89628571Y-150692857D01*
X89628571Y-151478571D01*
X87842857Y-149907142D02*
X89128571Y-151835714D01*
X132057142Y-154028571D02*
X132057142Y-152528571D01*
X131200000Y-154028571D02*
X131842857Y-153171428D01*
X131200000Y-152528571D02*
X132057142Y-153385714D01*
X130557142Y-154028571D02*
X130557142Y-153028571D01*
X130557142Y-152528571D02*
X130628571Y-152600000D01*
X130557142Y-152671428D01*
X130485714Y-152600000D01*
X130557142Y-152528571D01*
X130557142Y-152671428D01*
X129200000Y-153957142D02*
X129342857Y-154028571D01*
X129628571Y-154028571D01*
X129771428Y-153957142D01*
X129842857Y-153885714D01*
X129914285Y-153742857D01*
X129914285Y-153314285D01*
X129842857Y-153171428D01*
X129771428Y-153100000D01*
X129628571Y-153028571D01*
X129342857Y-153028571D01*
X129200000Y-153100000D01*
X127914285Y-154028571D02*
X127914285Y-153242857D01*
X127985714Y-153100000D01*
X128128571Y-153028571D01*
X128414285Y-153028571D01*
X128557142Y-153100000D01*
X127914285Y-153957142D02*
X128057142Y-154028571D01*
X128414285Y-154028571D01*
X128557142Y-153957142D01*
X128628571Y-153814285D01*
X128628571Y-153671428D01*
X128557142Y-153528571D01*
X128414285Y-153457142D01*
X128057142Y-153457142D01*
X127914285Y-153385714D01*
X126557142Y-154028571D02*
X126557142Y-152528571D01*
X126557142Y-153957142D02*
X126700000Y-154028571D01*
X126985714Y-154028571D01*
X127128571Y-153957142D01*
X127200000Y-153885714D01*
X127271428Y-153742857D01*
X127271428Y-153314285D01*
X127200000Y-153171428D01*
X127128571Y-153100000D01*
X126985714Y-153028571D01*
X126700000Y-153028571D01*
X126557142Y-153100000D01*
X124700000Y-153028571D02*
X124700000Y-154528571D01*
X124700000Y-153100000D02*
X124557142Y-153028571D01*
X124271428Y-153028571D01*
X124128571Y-153100000D01*
X124057142Y-153171428D01*
X123985714Y-153314285D01*
X123985714Y-153742857D01*
X124057142Y-153885714D01*
X124128571Y-153957142D01*
X124271428Y-154028571D01*
X124557142Y-154028571D01*
X124700000Y-153957142D01*
X123342857Y-154028571D02*
X123342857Y-153028571D01*
X123342857Y-153314285D02*
X123271428Y-153171428D01*
X123200000Y-153100000D01*
X123057142Y-153028571D01*
X122914285Y-153028571D01*
X122200000Y-154028571D02*
X122342857Y-153957142D01*
X122414285Y-153885714D01*
X122485714Y-153742857D01*
X122485714Y-153314285D01*
X122414285Y-153171428D01*
X122342857Y-153100000D01*
X122200000Y-153028571D01*
X121985714Y-153028571D01*
X121842857Y-153100000D01*
X121771428Y-153171428D01*
X121700000Y-153314285D01*
X121700000Y-153742857D01*
X121771428Y-153885714D01*
X121842857Y-153957142D01*
X121985714Y-154028571D01*
X122200000Y-154028571D01*
X121057142Y-153028571D02*
X121057142Y-154314285D01*
X121128571Y-154457142D01*
X121271428Y-154528571D01*
X121342857Y-154528571D01*
X121057142Y-152528571D02*
X121128571Y-152600000D01*
X121057142Y-152671428D01*
X120985714Y-152600000D01*
X121057142Y-152528571D01*
X121057142Y-152671428D01*
X119771428Y-153957142D02*
X119914285Y-154028571D01*
X120200000Y-154028571D01*
X120342857Y-153957142D01*
X120414285Y-153814285D01*
X120414285Y-153242857D01*
X120342857Y-153100000D01*
X120200000Y-153028571D01*
X119914285Y-153028571D01*
X119771428Y-153100000D01*
X119700000Y-153242857D01*
X119700000Y-153385714D01*
X120414285Y-153528571D01*
X118414285Y-153957142D02*
X118557142Y-154028571D01*
X118842857Y-154028571D01*
X118985714Y-153957142D01*
X119057142Y-153885714D01*
X119128571Y-153742857D01*
X119128571Y-153314285D01*
X119057142Y-153171428D01*
X118985714Y-153100000D01*
X118842857Y-153028571D01*
X118557142Y-153028571D01*
X118414285Y-153100000D01*
X117985714Y-153028571D02*
X117414285Y-153028571D01*
X117771428Y-152528571D02*
X117771428Y-153814285D01*
X117700000Y-153957142D01*
X117557142Y-154028571D01*
X117414285Y-154028571D01*
X116985714Y-153957142D02*
X116842857Y-154028571D01*
X116557142Y-154028571D01*
X116414285Y-153957142D01*
X116342857Y-153814285D01*
X116342857Y-153742857D01*
X116414285Y-153600000D01*
X116557142Y-153528571D01*
X116771428Y-153528571D01*
X116914285Y-153457142D01*
X116985714Y-153314285D01*
X116985714Y-153242857D01*
X116914285Y-153100000D01*
X116771428Y-153028571D01*
X116557142Y-153028571D01*
X116414285Y-153100000D01*
X114771428Y-153028571D02*
X114200000Y-153028571D01*
X114557142Y-154028571D02*
X114557142Y-152742857D01*
X114485714Y-152600000D01*
X114342857Y-152528571D01*
X114200000Y-152528571D01*
X113485714Y-154028571D02*
X113628571Y-153957142D01*
X113700000Y-153885714D01*
X113771428Y-153742857D01*
X113771428Y-153314285D01*
X113700000Y-153171428D01*
X113628571Y-153100000D01*
X113485714Y-153028571D01*
X113271428Y-153028571D01*
X113128571Y-153100000D01*
X113057142Y-153171428D01*
X112985714Y-153314285D01*
X112985714Y-153742857D01*
X113057142Y-153885714D01*
X113128571Y-153957142D01*
X113271428Y-154028571D01*
X113485714Y-154028571D01*
X112342857Y-154028571D02*
X112342857Y-153028571D01*
X112342857Y-153314285D02*
X112271428Y-153171428D01*
X112200000Y-153100000D01*
X112057142Y-153028571D01*
X111914285Y-153028571D01*
X110271428Y-154028571D02*
X110271428Y-152528571D01*
X109700000Y-152528571D01*
X109557142Y-152600000D01*
X109485714Y-152671428D01*
X109414285Y-152814285D01*
X109414285Y-153028571D01*
X109485714Y-153171428D01*
X109557142Y-153242857D01*
X109700000Y-153314285D01*
X110271428Y-153314285D01*
X107914285Y-153885714D02*
X107985714Y-153957142D01*
X108200000Y-154028571D01*
X108342857Y-154028571D01*
X108557142Y-153957142D01*
X108700000Y-153814285D01*
X108771428Y-153671428D01*
X108842857Y-153385714D01*
X108842857Y-153171428D01*
X108771428Y-152885714D01*
X108700000Y-152742857D01*
X108557142Y-152600000D01*
X108342857Y-152528571D01*
X108200000Y-152528571D01*
X107985714Y-152600000D01*
X107914285Y-152671428D01*
X106771428Y-153242857D02*
X106557142Y-153314285D01*
X106485714Y-153385714D01*
X106414285Y-153528571D01*
X106414285Y-153742857D01*
X106485714Y-153885714D01*
X106557142Y-153957142D01*
X106700000Y-154028571D01*
X107271428Y-154028571D01*
X107271428Y-152528571D01*
X106771428Y-152528571D01*
X106628571Y-152600000D01*
X106557142Y-152671428D01*
X106485714Y-152814285D01*
X106485714Y-152957142D01*
X106557142Y-153100000D01*
X106628571Y-153171428D01*
X106771428Y-153242857D01*
X107271428Y-153242857D01*
X104057142Y-153957142D02*
X104200000Y-154028571D01*
X104485714Y-154028571D01*
X104628571Y-153957142D01*
X104700000Y-153814285D01*
X104700000Y-153242857D01*
X104628571Y-153100000D01*
X104485714Y-153028571D01*
X104200000Y-153028571D01*
X104057142Y-153100000D01*
X103985714Y-153242857D01*
X103985714Y-153385714D01*
X104700000Y-153528571D01*
X103342857Y-153028571D02*
X103342857Y-154028571D01*
X103342857Y-153171428D02*
X103271428Y-153100000D01*
X103128571Y-153028571D01*
X102914285Y-153028571D01*
X102771428Y-153100000D01*
X102700000Y-153242857D01*
X102700000Y-154028571D01*
X101342857Y-154028571D02*
X101342857Y-152528571D01*
X101342857Y-153957142D02*
X101485714Y-154028571D01*
X101771428Y-154028571D01*
X101914285Y-153957142D01*
X101985714Y-153885714D01*
X102057142Y-153742857D01*
X102057142Y-153314285D01*
X101985714Y-153171428D01*
X101914285Y-153100000D01*
X101771428Y-153028571D01*
X101485714Y-153028571D01*
X101342857Y-153100000D01*
X99485714Y-153028571D02*
X99485714Y-154528571D01*
X99485714Y-153100000D02*
X99342857Y-153028571D01*
X99057142Y-153028571D01*
X98914285Y-153100000D01*
X98842857Y-153171428D01*
X98771428Y-153314285D01*
X98771428Y-153742857D01*
X98842857Y-153885714D01*
X98914285Y-153957142D01*
X99057142Y-154028571D01*
X99342857Y-154028571D01*
X99485714Y-153957142D01*
X97914285Y-154028571D02*
X98057142Y-153957142D01*
X98128571Y-153814285D01*
X98128571Y-152528571D01*
X96700000Y-154028571D02*
X96700000Y-153242857D01*
X96771428Y-153100000D01*
X96914285Y-153028571D01*
X97200000Y-153028571D01*
X97342857Y-153100000D01*
X96700000Y-153957142D02*
X96842857Y-154028571D01*
X97200000Y-154028571D01*
X97342857Y-153957142D01*
X97414285Y-153814285D01*
X97414285Y-153671428D01*
X97342857Y-153528571D01*
X97200000Y-153457142D01*
X96842857Y-153457142D01*
X96700000Y-153385714D01*
X96200000Y-153028571D02*
X95628571Y-153028571D01*
X95985714Y-152528571D02*
X95985714Y-153814285D01*
X95914285Y-153957142D01*
X95771428Y-154028571D01*
X95628571Y-154028571D01*
X94557142Y-153957142D02*
X94700000Y-154028571D01*
X94985714Y-154028571D01*
X95128571Y-153957142D01*
X95200000Y-153814285D01*
X95200000Y-153242857D01*
X95128571Y-153100000D01*
X94985714Y-153028571D01*
X94700000Y-153028571D01*
X94557142Y-153100000D01*
X94485714Y-153242857D01*
X94485714Y-153385714D01*
X95200000Y-153528571D01*
X93914285Y-153957142D02*
X93771428Y-154028571D01*
X93485714Y-154028571D01*
X93342857Y-153957142D01*
X93271428Y-153814285D01*
X93271428Y-153742857D01*
X93342857Y-153600000D01*
X93485714Y-153528571D01*
X93700000Y-153528571D01*
X93842857Y-153457142D01*
X93914285Y-153314285D01*
X93914285Y-153242857D01*
X93842857Y-153100000D01*
X93700000Y-153028571D01*
X93485714Y-153028571D01*
X93342857Y-153100000D01*
X141664285Y-155435714D02*
X141807142Y-155364285D01*
X142092857Y-155364285D01*
X142235714Y-155435714D01*
X142378571Y-155578571D01*
X142450000Y-155721428D01*
X142450000Y-156007142D01*
X142378571Y-156150000D01*
X142235714Y-156292857D01*
X142092857Y-156364285D01*
X141807142Y-156364285D01*
X141664285Y-156292857D01*
X141950000Y-154864285D02*
X142307142Y-154935714D01*
X142664285Y-155150000D01*
X142878571Y-155507142D01*
X142950000Y-155864285D01*
X142878571Y-156221428D01*
X142664285Y-156578571D01*
X142307142Y-156792857D01*
X141950000Y-156864285D01*
X141592857Y-156792857D01*
X141235714Y-156578571D01*
X141021428Y-156221428D01*
X140950000Y-155864285D01*
X141021428Y-155507142D01*
X141235714Y-155150000D01*
X141592857Y-154935714D01*
X141950000Y-154864285D01*
X139235714Y-155221428D02*
X139164285Y-155150000D01*
X139021428Y-155078571D01*
X138664285Y-155078571D01*
X138521428Y-155150000D01*
X138450000Y-155221428D01*
X138378571Y-155364285D01*
X138378571Y-155507142D01*
X138450000Y-155721428D01*
X139307142Y-156578571D01*
X138378571Y-156578571D01*
X137450000Y-155078571D02*
X137307142Y-155078571D01*
X137164285Y-155150000D01*
X137092857Y-155221428D01*
X137021428Y-155364285D01*
X136950000Y-155650000D01*
X136950000Y-156007142D01*
X137021428Y-156292857D01*
X137092857Y-156435714D01*
X137164285Y-156507142D01*
X137307142Y-156578571D01*
X137450000Y-156578571D01*
X137592857Y-156507142D01*
X137664285Y-156435714D01*
X137735714Y-156292857D01*
X137807142Y-156007142D01*
X137807142Y-155650000D01*
X137735714Y-155364285D01*
X137664285Y-155221428D01*
X137592857Y-155150000D01*
X137450000Y-155078571D01*
X135521428Y-156578571D02*
X136378571Y-156578571D01*
X135950000Y-156578571D02*
X135950000Y-155078571D01*
X136092857Y-155292857D01*
X136235714Y-155435714D01*
X136378571Y-155507142D01*
X134807142Y-156578571D02*
X134521428Y-156578571D01*
X134378571Y-156507142D01*
X134307142Y-156435714D01*
X134164285Y-156221428D01*
X134092857Y-155935714D01*
X134092857Y-155364285D01*
X134164285Y-155221428D01*
X134235714Y-155150000D01*
X134378571Y-155078571D01*
X134664285Y-155078571D01*
X134807142Y-155150000D01*
X134878571Y-155221428D01*
X134950000Y-155364285D01*
X134950000Y-155721428D01*
X134878571Y-155864285D01*
X134807142Y-155935714D01*
X134664285Y-156007142D01*
X134378571Y-156007142D01*
X134235714Y-155935714D01*
X134164285Y-155864285D01*
X134092857Y-155721428D01*
X132307142Y-156578571D02*
X132307142Y-155078571D01*
X132307142Y-155650000D02*
X132164285Y-155578571D01*
X131878571Y-155578571D01*
X131735714Y-155650000D01*
X131664285Y-155721428D01*
X131592857Y-155864285D01*
X131592857Y-156292857D01*
X131664285Y-156435714D01*
X131735714Y-156507142D01*
X131878571Y-156578571D01*
X132164285Y-156578571D01*
X132307142Y-156507142D01*
X131092857Y-155578571D02*
X130735714Y-156578571D01*
X130378571Y-155578571D02*
X130735714Y-156578571D01*
X130878571Y-156935714D01*
X130950000Y-157007142D01*
X131092857Y-157078571D01*
X127807142Y-156578571D02*
X128307142Y-155864285D01*
X128664285Y-156578571D02*
X128664285Y-155078571D01*
X128092857Y-155078571D01*
X127950000Y-155150000D01*
X127878571Y-155221428D01*
X127807142Y-155364285D01*
X127807142Y-155578571D01*
X127878571Y-155721428D01*
X127950000Y-155792857D01*
X128092857Y-155864285D01*
X128664285Y-155864285D01*
X126950000Y-156578571D02*
X127092857Y-156507142D01*
X127164285Y-156435714D01*
X127235714Y-156292857D01*
X127235714Y-155864285D01*
X127164285Y-155721428D01*
X127092857Y-155650000D01*
X126950000Y-155578571D01*
X126735714Y-155578571D01*
X126592857Y-155650000D01*
X126521428Y-155721428D01*
X126450000Y-155864285D01*
X126450000Y-156292857D01*
X126521428Y-156435714D01*
X126592857Y-156507142D01*
X126735714Y-156578571D01*
X126950000Y-156578571D01*
X125164285Y-155578571D02*
X125164285Y-156792857D01*
X125235714Y-156935714D01*
X125307142Y-157007142D01*
X125450000Y-157078571D01*
X125664285Y-157078571D01*
X125807142Y-157007142D01*
X125164285Y-156507142D02*
X125307142Y-156578571D01*
X125592857Y-156578571D01*
X125735714Y-156507142D01*
X125807142Y-156435714D01*
X125878571Y-156292857D01*
X125878571Y-155864285D01*
X125807142Y-155721428D01*
X125735714Y-155650000D01*
X125592857Y-155578571D01*
X125307142Y-155578571D01*
X125164285Y-155650000D01*
X123878571Y-156507142D02*
X124021428Y-156578571D01*
X124307142Y-156578571D01*
X124450000Y-156507142D01*
X124521428Y-156364285D01*
X124521428Y-155792857D01*
X124450000Y-155650000D01*
X124307142Y-155578571D01*
X124021428Y-155578571D01*
X123878571Y-155650000D01*
X123807142Y-155792857D01*
X123807142Y-155935714D01*
X124521428Y-156078571D01*
X123164285Y-156578571D02*
X123164285Y-155578571D01*
X123164285Y-155864285D02*
X123092857Y-155721428D01*
X123021428Y-155650000D01*
X122878571Y-155578571D01*
X122735714Y-155578571D01*
X121092857Y-155792857D02*
X120592857Y-155792857D01*
X120378571Y-156578571D02*
X121092857Y-156578571D01*
X121092857Y-155078571D01*
X120378571Y-155078571D01*
X117735714Y-156435714D02*
X117807142Y-156507142D01*
X118021428Y-156578571D01*
X118164285Y-156578571D01*
X118378571Y-156507142D01*
X118521428Y-156364285D01*
X118592857Y-156221428D01*
X118664285Y-155935714D01*
X118664285Y-155721428D01*
X118592857Y-155435714D01*
X118521428Y-155292857D01*
X118378571Y-155150000D01*
X118164285Y-155078571D01*
X118021428Y-155078571D01*
X117807142Y-155150000D01*
X117735714Y-155221428D01*
X117092857Y-156578571D02*
X117092857Y-155578571D01*
X117092857Y-155864285D02*
X117021428Y-155721428D01*
X116950000Y-155650000D01*
X116807142Y-155578571D01*
X116664285Y-155578571D01*
X116164285Y-156578571D02*
X116164285Y-155578571D01*
X116164285Y-155078571D02*
X116235714Y-155150000D01*
X116164285Y-155221428D01*
X116092857Y-155150000D01*
X116164285Y-155078571D01*
X116164285Y-155221428D01*
X115664285Y-155578571D02*
X115092857Y-155578571D01*
X115450000Y-155078571D02*
X115450000Y-156364285D01*
X115378571Y-156507142D01*
X115235714Y-156578571D01*
X115092857Y-156578571D01*
X113950000Y-156507142D02*
X114092857Y-156578571D01*
X114378571Y-156578571D01*
X114521428Y-156507142D01*
X114592857Y-156435714D01*
X114664285Y-156292857D01*
X114664285Y-155864285D01*
X114592857Y-155721428D01*
X114521428Y-155650000D01*
X114378571Y-155578571D01*
X114092857Y-155578571D01*
X113950000Y-155650000D01*
X113307142Y-156578571D02*
X113307142Y-155078571D01*
X112664285Y-156578571D02*
X112664285Y-155792857D01*
X112735714Y-155650000D01*
X112878571Y-155578571D01*
X113092857Y-155578571D01*
X113235714Y-155650000D01*
X113307142Y-155721428D01*
X111735714Y-156578571D02*
X111878571Y-156507142D01*
X111950000Y-156364285D01*
X111950000Y-155078571D01*
X110950000Y-156578571D02*
X111092857Y-156507142D01*
X111164285Y-156435714D01*
X111235714Y-156292857D01*
X111235714Y-155864285D01*
X111164285Y-155721428D01*
X111092857Y-155650000D01*
X110950000Y-155578571D01*
X110735714Y-155578571D01*
X110592857Y-155650000D01*
X110521428Y-155721428D01*
X110450000Y-155864285D01*
X110450000Y-156292857D01*
X110521428Y-156435714D01*
X110592857Y-156507142D01*
X110735714Y-156578571D01*
X110950000Y-156578571D01*
X109950000Y-155578571D02*
X109664285Y-156578571D01*
X109378571Y-155864285D01*
X109092857Y-156578571D01*
X108807142Y-155578571D01*
X106664285Y-155078571D02*
X106664285Y-156150000D01*
X106735714Y-156364285D01*
X106878571Y-156507142D01*
X107092857Y-156578571D01*
X107235714Y-156578571D01*
X105950000Y-156578571D02*
X105950000Y-155578571D01*
X105950000Y-155864285D02*
X105878571Y-155721428D01*
X105807142Y-155650000D01*
X105664285Y-155578571D01*
X105521428Y-155578571D01*
X104950000Y-156507142D02*
X104950000Y-156578571D01*
X105021428Y-156721428D01*
X105092857Y-156792857D01*
X103235714Y-156507142D02*
X103021428Y-156578571D01*
X102664285Y-156578571D01*
X102521428Y-156507142D01*
X102450000Y-156435714D01*
X102378571Y-156292857D01*
X102378571Y-156150000D01*
X102450000Y-156007142D01*
X102521428Y-155935714D01*
X102664285Y-155864285D01*
X102950000Y-155792857D01*
X103092857Y-155721428D01*
X103164285Y-155650000D01*
X103235714Y-155507142D01*
X103235714Y-155364285D01*
X103164285Y-155221428D01*
X103092857Y-155150000D01*
X102950000Y-155078571D01*
X102592857Y-155078571D01*
X102378571Y-155150000D01*
X101092857Y-156578571D02*
X101092857Y-155792857D01*
X101164285Y-155650000D01*
X101307142Y-155578571D01*
X101592857Y-155578571D01*
X101735714Y-155650000D01*
X101092857Y-156507142D02*
X101235714Y-156578571D01*
X101592857Y-156578571D01*
X101735714Y-156507142D01*
X101807142Y-156364285D01*
X101807142Y-156221428D01*
X101735714Y-156078571D01*
X101592857Y-156007142D01*
X101235714Y-156007142D01*
X101092857Y-155935714D01*
X100378571Y-155578571D02*
X100378571Y-156578571D01*
X100378571Y-155721428D02*
X100307142Y-155650000D01*
X100164285Y-155578571D01*
X99950000Y-155578571D01*
X99807142Y-155650000D01*
X99735714Y-155792857D01*
X99735714Y-156578571D01*
X99235714Y-155578571D02*
X98664285Y-155578571D01*
X99021428Y-155078571D02*
X99021428Y-156364285D01*
X98950000Y-156507142D01*
X98807142Y-156578571D01*
X98664285Y-156578571D01*
X97521428Y-156578571D02*
X97521428Y-155792857D01*
X97592857Y-155650000D01*
X97735714Y-155578571D01*
X98021428Y-155578571D01*
X98164285Y-155650000D01*
X97521428Y-156507142D02*
X97664285Y-156578571D01*
X98021428Y-156578571D01*
X98164285Y-156507142D01*
X98235714Y-156364285D01*
X98235714Y-156221428D01*
X98164285Y-156078571D01*
X98021428Y-156007142D01*
X97664285Y-156007142D01*
X97521428Y-155935714D01*
X95164285Y-155792857D02*
X95664285Y-155792857D01*
X95664285Y-156578571D02*
X95664285Y-155078571D01*
X94950000Y-155078571D01*
X93807142Y-156507142D02*
X93950000Y-156578571D01*
X94235714Y-156578571D01*
X94378571Y-156507142D01*
X94450000Y-156364285D01*
X94450000Y-155792857D01*
X94378571Y-155650000D01*
X94235714Y-155578571D01*
X93950000Y-155578571D01*
X93807142Y-155650000D01*
X93735714Y-155792857D01*
X93735714Y-155935714D01*
X94450000Y-156078571D01*
X93021428Y-156507142D02*
X93021428Y-156578571D01*
X93092857Y-156721428D01*
X93164285Y-156792857D01*
X91235714Y-156578571D02*
X91235714Y-155078571D01*
X90378571Y-156578571D01*
X90378571Y-155078571D01*
X89664285Y-156578571D02*
X89664285Y-155078571D01*
X89164285Y-156150000D01*
X88664285Y-155078571D01*
X88664285Y-156578571D01*
X87878571Y-156507142D02*
X87878571Y-156578571D01*
X87950000Y-156721428D01*
X88021428Y-156792857D01*
X86092857Y-155078571D02*
X86092857Y-156292857D01*
X86021428Y-156435714D01*
X85950000Y-156507142D01*
X85807142Y-156578571D01*
X85521428Y-156578571D01*
X85378571Y-156507142D01*
X85307142Y-156435714D01*
X85235714Y-156292857D01*
X85235714Y-155078571D01*
X84592857Y-156507142D02*
X84378571Y-156578571D01*
X84021428Y-156578571D01*
X83878571Y-156507142D01*
X83807142Y-156435714D01*
X83735714Y-156292857D01*
X83735714Y-156150000D01*
X83807142Y-156007142D01*
X83878571Y-155935714D01*
X84021428Y-155864285D01*
X84307142Y-155792857D01*
X84450000Y-155721428D01*
X84521428Y-155650000D01*
X84592857Y-155507142D01*
X84592857Y-155364285D01*
X84521428Y-155221428D01*
X84450000Y-155150000D01*
X84307142Y-155078571D01*
X83950000Y-155078571D01*
X83735714Y-155150000D01*
X83164285Y-156150000D02*
X82450000Y-156150000D01*
X83307142Y-156578571D02*
X82807142Y-155078571D01*
X82307142Y-156578571D01*
X145950000Y-159128571D02*
X145950000Y-157628571D01*
X145378571Y-157628571D01*
X145235714Y-157700000D01*
X145164285Y-157771428D01*
X145092857Y-157914285D01*
X145092857Y-158128571D01*
X145164285Y-158271428D01*
X145235714Y-158342857D01*
X145378571Y-158414285D01*
X145950000Y-158414285D01*
X143878571Y-159057142D02*
X144021428Y-159128571D01*
X144307142Y-159128571D01*
X144450000Y-159057142D01*
X144521428Y-158914285D01*
X144521428Y-158342857D01*
X144450000Y-158200000D01*
X144307142Y-158128571D01*
X144021428Y-158128571D01*
X143878571Y-158200000D01*
X143807142Y-158342857D01*
X143807142Y-158485714D01*
X144521428Y-158628571D01*
X143164285Y-159128571D02*
X143164285Y-158128571D01*
X143164285Y-158414285D02*
X143092857Y-158271428D01*
X143021428Y-158200000D01*
X142878571Y-158128571D01*
X142735714Y-158128571D01*
X142235714Y-159128571D02*
X142235714Y-158128571D01*
X142235714Y-158271428D02*
X142164285Y-158200000D01*
X142021428Y-158128571D01*
X141807142Y-158128571D01*
X141664285Y-158200000D01*
X141592857Y-158342857D01*
X141592857Y-159128571D01*
X141592857Y-158342857D02*
X141521428Y-158200000D01*
X141378571Y-158128571D01*
X141164285Y-158128571D01*
X141021428Y-158200000D01*
X140950000Y-158342857D01*
X140950000Y-159128571D01*
X140235714Y-159128571D02*
X140235714Y-158128571D01*
X140235714Y-157628571D02*
X140307142Y-157700000D01*
X140235714Y-157771428D01*
X140164285Y-157700000D01*
X140235714Y-157628571D01*
X140235714Y-157771428D01*
X139592857Y-159057142D02*
X139450000Y-159128571D01*
X139164285Y-159128571D01*
X139021428Y-159057142D01*
X138950000Y-158914285D01*
X138950000Y-158842857D01*
X139021428Y-158700000D01*
X139164285Y-158628571D01*
X139378571Y-158628571D01*
X139521428Y-158557142D01*
X139592857Y-158414285D01*
X139592857Y-158342857D01*
X139521428Y-158200000D01*
X139378571Y-158128571D01*
X139164285Y-158128571D01*
X139021428Y-158200000D01*
X138378571Y-159057142D02*
X138235714Y-159128571D01*
X137950000Y-159128571D01*
X137807142Y-159057142D01*
X137735714Y-158914285D01*
X137735714Y-158842857D01*
X137807142Y-158700000D01*
X137950000Y-158628571D01*
X138164285Y-158628571D01*
X138307142Y-158557142D01*
X138378571Y-158414285D01*
X138378571Y-158342857D01*
X138307142Y-158200000D01*
X138164285Y-158128571D01*
X137950000Y-158128571D01*
X137807142Y-158200000D01*
X137092857Y-159128571D02*
X137092857Y-158128571D01*
X137092857Y-157628571D02*
X137164285Y-157700000D01*
X137092857Y-157771428D01*
X137021428Y-157700000D01*
X137092857Y-157628571D01*
X137092857Y-157771428D01*
X136164285Y-159128571D02*
X136307142Y-159057142D01*
X136378571Y-158985714D01*
X136450000Y-158842857D01*
X136450000Y-158414285D01*
X136378571Y-158271428D01*
X136307142Y-158200000D01*
X136164285Y-158128571D01*
X135950000Y-158128571D01*
X135807142Y-158200000D01*
X135735714Y-158271428D01*
X135664285Y-158414285D01*
X135664285Y-158842857D01*
X135735714Y-158985714D01*
X135807142Y-159057142D01*
X135950000Y-159128571D01*
X136164285Y-159128571D01*
X135021428Y-158128571D02*
X135021428Y-159128571D01*
X135021428Y-158271428D02*
X134950000Y-158200000D01*
X134807142Y-158128571D01*
X134592857Y-158128571D01*
X134450000Y-158200000D01*
X134378571Y-158342857D01*
X134378571Y-159128571D01*
X131878571Y-158128571D02*
X131878571Y-159342857D01*
X131950000Y-159485714D01*
X132021428Y-159557142D01*
X132164285Y-159628571D01*
X132378571Y-159628571D01*
X132521428Y-159557142D01*
X131878571Y-159057142D02*
X132021428Y-159128571D01*
X132307142Y-159128571D01*
X132450000Y-159057142D01*
X132521428Y-158985714D01*
X132592857Y-158842857D01*
X132592857Y-158414285D01*
X132521428Y-158271428D01*
X132450000Y-158200000D01*
X132307142Y-158128571D01*
X132021428Y-158128571D01*
X131878571Y-158200000D01*
X131164285Y-159128571D02*
X131164285Y-158128571D01*
X131164285Y-158414285D02*
X131092857Y-158271428D01*
X131021428Y-158200000D01*
X130878571Y-158128571D01*
X130735714Y-158128571D01*
X129592857Y-159128571D02*
X129592857Y-158342857D01*
X129664285Y-158200000D01*
X129807142Y-158128571D01*
X130092857Y-158128571D01*
X130235714Y-158200000D01*
X129592857Y-159057142D02*
X129735714Y-159128571D01*
X130092857Y-159128571D01*
X130235714Y-159057142D01*
X130307142Y-158914285D01*
X130307142Y-158771428D01*
X130235714Y-158628571D01*
X130092857Y-158557142D01*
X129735714Y-158557142D01*
X129592857Y-158485714D01*
X128878571Y-158128571D02*
X128878571Y-159128571D01*
X128878571Y-158271428D02*
X128807142Y-158200000D01*
X128664285Y-158128571D01*
X128450000Y-158128571D01*
X128307142Y-158200000D01*
X128235714Y-158342857D01*
X128235714Y-159128571D01*
X127735714Y-158128571D02*
X127164285Y-158128571D01*
X127521428Y-157628571D02*
X127521428Y-158914285D01*
X127450000Y-159057142D01*
X127307142Y-159128571D01*
X127164285Y-159128571D01*
X126092857Y-159057142D02*
X126235714Y-159128571D01*
X126521428Y-159128571D01*
X126664285Y-159057142D01*
X126735714Y-158914285D01*
X126735714Y-158342857D01*
X126664285Y-158200000D01*
X126521428Y-158128571D01*
X126235714Y-158128571D01*
X126092857Y-158200000D01*
X126021428Y-158342857D01*
X126021428Y-158485714D01*
X126735714Y-158628571D01*
X124735714Y-159128571D02*
X124735714Y-157628571D01*
X124735714Y-159057142D02*
X124878571Y-159128571D01*
X125164285Y-159128571D01*
X125307142Y-159057142D01*
X125378571Y-158985714D01*
X125450000Y-158842857D01*
X125450000Y-158414285D01*
X125378571Y-158271428D01*
X125307142Y-158200000D01*
X125164285Y-158128571D01*
X124878571Y-158128571D01*
X124735714Y-158200000D01*
X123092857Y-158128571D02*
X122521428Y-158128571D01*
X122878571Y-157628571D02*
X122878571Y-158914285D01*
X122807142Y-159057142D01*
X122664285Y-159128571D01*
X122521428Y-159128571D01*
X121807142Y-159128571D02*
X121950000Y-159057142D01*
X122021428Y-158985714D01*
X122092857Y-158842857D01*
X122092857Y-158414285D01*
X122021428Y-158271428D01*
X121950000Y-158200000D01*
X121807142Y-158128571D01*
X121592857Y-158128571D01*
X121450000Y-158200000D01*
X121378571Y-158271428D01*
X121307142Y-158414285D01*
X121307142Y-158842857D01*
X121378571Y-158985714D01*
X121450000Y-159057142D01*
X121592857Y-159128571D01*
X121807142Y-159128571D01*
X118878571Y-159057142D02*
X119021428Y-159128571D01*
X119307142Y-159128571D01*
X119450000Y-159057142D01*
X119521428Y-158985714D01*
X119592857Y-158842857D01*
X119592857Y-158414285D01*
X119521428Y-158271428D01*
X119450000Y-158200000D01*
X119307142Y-158128571D01*
X119021428Y-158128571D01*
X118878571Y-158200000D01*
X118021428Y-159128571D02*
X118164285Y-159057142D01*
X118235714Y-158985714D01*
X118307142Y-158842857D01*
X118307142Y-158414285D01*
X118235714Y-158271428D01*
X118164285Y-158200000D01*
X118021428Y-158128571D01*
X117807142Y-158128571D01*
X117664285Y-158200000D01*
X117592857Y-158271428D01*
X117521428Y-158414285D01*
X117521428Y-158842857D01*
X117592857Y-158985714D01*
X117664285Y-159057142D01*
X117807142Y-159128571D01*
X118021428Y-159128571D01*
X116878571Y-158128571D02*
X116878571Y-159628571D01*
X116878571Y-158200000D02*
X116735714Y-158128571D01*
X116450000Y-158128571D01*
X116307142Y-158200000D01*
X116235714Y-158271428D01*
X116164285Y-158414285D01*
X116164285Y-158842857D01*
X116235714Y-158985714D01*
X116307142Y-159057142D01*
X116450000Y-159128571D01*
X116735714Y-159128571D01*
X116878571Y-159057142D01*
X115664285Y-158128571D02*
X115307142Y-159128571D01*
X114950000Y-158128571D02*
X115307142Y-159128571D01*
X115450000Y-159485714D01*
X115521428Y-159557142D01*
X115664285Y-159628571D01*
X112592857Y-159128571D02*
X112592857Y-158342857D01*
X112664285Y-158200000D01*
X112807142Y-158128571D01*
X113092857Y-158128571D01*
X113235714Y-158200000D01*
X112592857Y-159057142D02*
X112735714Y-159128571D01*
X113092857Y-159128571D01*
X113235714Y-159057142D01*
X113307142Y-158914285D01*
X113307142Y-158771428D01*
X113235714Y-158628571D01*
X113092857Y-158557142D01*
X112735714Y-158557142D01*
X112592857Y-158485714D01*
X111878571Y-158128571D02*
X111878571Y-159128571D01*
X111878571Y-158271428D02*
X111807142Y-158200000D01*
X111664285Y-158128571D01*
X111449999Y-158128571D01*
X111307142Y-158200000D01*
X111235714Y-158342857D01*
X111235714Y-159128571D01*
X109878571Y-159128571D02*
X109878571Y-157628571D01*
X109878571Y-159057142D02*
X110021428Y-159128571D01*
X110307142Y-159128571D01*
X110449999Y-159057142D01*
X110521428Y-158985714D01*
X110592857Y-158842857D01*
X110592857Y-158414285D01*
X110521428Y-158271428D01*
X110449999Y-158200000D01*
X110307142Y-158128571D01*
X110021428Y-158128571D01*
X109878571Y-158200000D01*
X108235714Y-158128571D02*
X107664285Y-158128571D01*
X108021428Y-157628571D02*
X108021428Y-158914285D01*
X107949999Y-159057142D01*
X107807142Y-159128571D01*
X107664285Y-159128571D01*
X106949999Y-159128571D02*
X107092857Y-159057142D01*
X107164285Y-158985714D01*
X107235714Y-158842857D01*
X107235714Y-158414285D01*
X107164285Y-158271428D01*
X107092857Y-158200000D01*
X106949999Y-158128571D01*
X106735714Y-158128571D01*
X106592857Y-158200000D01*
X106521428Y-158271428D01*
X106449999Y-158414285D01*
X106449999Y-158842857D01*
X106521428Y-158985714D01*
X106592857Y-159057142D01*
X106735714Y-159128571D01*
X106949999Y-159128571D01*
X104664285Y-159128571D02*
X104664285Y-158128571D01*
X104664285Y-158271428D02*
X104592857Y-158200000D01*
X104449999Y-158128571D01*
X104235714Y-158128571D01*
X104092857Y-158200000D01*
X104021428Y-158342857D01*
X104021428Y-159128571D01*
X104021428Y-158342857D02*
X103949999Y-158200000D01*
X103807142Y-158128571D01*
X103592857Y-158128571D01*
X103449999Y-158200000D01*
X103378571Y-158342857D01*
X103378571Y-159128571D01*
X102021428Y-159128571D02*
X102021428Y-158342857D01*
X102092857Y-158200000D01*
X102235714Y-158128571D01*
X102521428Y-158128571D01*
X102664285Y-158200000D01*
X102021428Y-159057142D02*
X102164285Y-159128571D01*
X102521428Y-159128571D01*
X102664285Y-159057142D01*
X102735714Y-158914285D01*
X102735714Y-158771428D01*
X102664285Y-158628571D01*
X102521428Y-158557142D01*
X102164285Y-158557142D01*
X102021428Y-158485714D01*
X101307142Y-159128571D02*
X101307142Y-157628571D01*
X101164285Y-158557142D02*
X100735714Y-159128571D01*
X100735714Y-158128571D02*
X101307142Y-158700000D01*
X99521428Y-159057142D02*
X99664285Y-159128571D01*
X99949999Y-159128571D01*
X100092857Y-159057142D01*
X100164285Y-158914285D01*
X100164285Y-158342857D01*
X100092857Y-158200000D01*
X99949999Y-158128571D01*
X99664285Y-158128571D01*
X99521428Y-158200000D01*
X99449999Y-158342857D01*
X99449999Y-158485714D01*
X100164285Y-158628571D01*
X97021428Y-159128571D02*
X97021428Y-157628571D01*
X97021428Y-159057142D02*
X97164285Y-159128571D01*
X97449999Y-159128571D01*
X97592857Y-159057142D01*
X97664285Y-158985714D01*
X97735714Y-158842857D01*
X97735714Y-158414285D01*
X97664285Y-158271428D01*
X97592857Y-158200000D01*
X97449999Y-158128571D01*
X97164285Y-158128571D01*
X97021428Y-158200000D01*
X95735714Y-159057142D02*
X95878571Y-159128571D01*
X96164285Y-159128571D01*
X96307142Y-159057142D01*
X96378571Y-158914285D01*
X96378571Y-158342857D01*
X96307142Y-158200000D01*
X96164285Y-158128571D01*
X95878571Y-158128571D01*
X95735714Y-158200000D01*
X95664285Y-158342857D01*
X95664285Y-158485714D01*
X96378571Y-158628571D01*
X95021428Y-159128571D02*
X95021428Y-158128571D01*
X95021428Y-158414285D02*
X94949999Y-158271428D01*
X94878571Y-158200000D01*
X94735714Y-158128571D01*
X94592857Y-158128571D01*
X94092857Y-159128571D02*
X94092857Y-158128571D01*
X94092857Y-157628571D02*
X94164285Y-157700000D01*
X94092857Y-157771428D01*
X94021428Y-157700000D01*
X94092857Y-157628571D01*
X94092857Y-157771428D01*
X93521428Y-158128571D02*
X93164285Y-159128571D01*
X92807142Y-158128571D01*
X91592857Y-159128571D02*
X91592857Y-158342857D01*
X91664285Y-158200000D01*
X91807142Y-158128571D01*
X92092857Y-158128571D01*
X92235714Y-158200000D01*
X91592857Y-159057142D02*
X91735714Y-159128571D01*
X92092857Y-159128571D01*
X92235714Y-159057142D01*
X92307142Y-158914285D01*
X92307142Y-158771428D01*
X92235714Y-158628571D01*
X92092857Y-158557142D01*
X91735714Y-158557142D01*
X91592857Y-158485714D01*
X91092857Y-158128571D02*
X90521428Y-158128571D01*
X90878571Y-157628571D02*
X90878571Y-158914285D01*
X90807142Y-159057142D01*
X90664285Y-159128571D01*
X90521428Y-159128571D01*
X90021428Y-159128571D02*
X90021428Y-158128571D01*
X90021428Y-157628571D02*
X90092857Y-157700000D01*
X90021428Y-157771428D01*
X89949999Y-157700000D01*
X90021428Y-157628571D01*
X90021428Y-157771428D01*
X89449999Y-158128571D02*
X89092857Y-159128571D01*
X88735714Y-158128571D01*
X87592857Y-159057142D02*
X87735714Y-159128571D01*
X88021428Y-159128571D01*
X88164285Y-159057142D01*
X88235714Y-158914285D01*
X88235714Y-158342857D01*
X88164285Y-158200000D01*
X88021428Y-158128571D01*
X87735714Y-158128571D01*
X87592857Y-158200000D01*
X87521428Y-158342857D01*
X87521428Y-158485714D01*
X88235714Y-158628571D01*
X85878571Y-158128571D02*
X85592857Y-159128571D01*
X85307142Y-158414285D01*
X85021428Y-159128571D01*
X84735714Y-158128571D01*
X83949999Y-159128571D02*
X84092857Y-159057142D01*
X84164285Y-158985714D01*
X84235714Y-158842857D01*
X84235714Y-158414285D01*
X84164285Y-158271428D01*
X84092857Y-158200000D01*
X83949999Y-158128571D01*
X83735714Y-158128571D01*
X83592857Y-158200000D01*
X83521428Y-158271428D01*
X83449999Y-158414285D01*
X83449999Y-158842857D01*
X83521428Y-158985714D01*
X83592857Y-159057142D01*
X83735714Y-159128571D01*
X83949999Y-159128571D01*
X82807142Y-159128571D02*
X82807142Y-158128571D01*
X82807142Y-158414285D02*
X82735714Y-158271428D01*
X82664285Y-158200000D01*
X82521428Y-158128571D01*
X82378571Y-158128571D01*
X81878571Y-159128571D02*
X81878571Y-157628571D01*
X81735714Y-158557142D02*
X81307142Y-159128571D01*
X81307142Y-158128571D02*
X81878571Y-158700000D01*
X80735714Y-159057142D02*
X80592857Y-159128571D01*
X80307142Y-159128571D01*
X80164285Y-159057142D01*
X80092857Y-158914285D01*
X80092857Y-158842857D01*
X80164285Y-158700000D01*
X80307142Y-158628571D01*
X80521428Y-158628571D01*
X80664285Y-158557142D01*
X80735714Y-158414285D01*
X80735714Y-158342857D01*
X80664285Y-158200000D01*
X80521428Y-158128571D01*
X80307142Y-158128571D01*
X80164285Y-158200000D01*
X79449999Y-158985714D02*
X79378571Y-159057142D01*
X79449999Y-159128571D01*
X79521428Y-159057142D01*
X79449999Y-158985714D01*
X79449999Y-159128571D01*
X119735714Y-160178571D02*
X118735714Y-160178571D01*
X119378571Y-161678571D01*
X118307142Y-160178571D02*
X117378571Y-160178571D01*
X117878571Y-160750000D01*
X117664285Y-160750000D01*
X117521428Y-160821428D01*
X117450000Y-160892857D01*
X117378571Y-161035714D01*
X117378571Y-161392857D01*
X117450000Y-161535714D01*
X117521428Y-161607142D01*
X117664285Y-161678571D01*
X118092857Y-161678571D01*
X118235714Y-161607142D01*
X118307142Y-161535714D01*
X114950000Y-161678571D02*
X114950000Y-160178571D01*
X114950000Y-161607142D02*
X115092857Y-161678571D01*
X115378571Y-161678571D01*
X115521428Y-161607142D01*
X115592857Y-161535714D01*
X115664285Y-161392857D01*
X115664285Y-160964285D01*
X115592857Y-160821428D01*
X115521428Y-160750000D01*
X115378571Y-160678571D01*
X115092857Y-160678571D01*
X114950000Y-160750000D01*
X113664285Y-161607142D02*
X113807142Y-161678571D01*
X114092857Y-161678571D01*
X114235714Y-161607142D01*
X114307142Y-161464285D01*
X114307142Y-160892857D01*
X114235714Y-160750000D01*
X114092857Y-160678571D01*
X113807142Y-160678571D01*
X113664285Y-160750000D01*
X113592857Y-160892857D01*
X113592857Y-161035714D01*
X114307142Y-161178571D01*
X111164285Y-161678571D02*
X111164285Y-160892857D01*
X111235714Y-160750000D01*
X111378571Y-160678571D01*
X111664285Y-160678571D01*
X111807142Y-160750000D01*
X111164285Y-161607142D02*
X111307142Y-161678571D01*
X111664285Y-161678571D01*
X111807142Y-161607142D01*
X111878571Y-161464285D01*
X111878571Y-161321428D01*
X111807142Y-161178571D01*
X111664285Y-161107142D01*
X111307142Y-161107142D01*
X111164285Y-161035714D01*
X109807142Y-161678571D02*
X109807142Y-160178571D01*
X109807142Y-161607142D02*
X109950000Y-161678571D01*
X110235714Y-161678571D01*
X110378571Y-161607142D01*
X110450000Y-161535714D01*
X110521428Y-161392857D01*
X110521428Y-160964285D01*
X110450000Y-160821428D01*
X110378571Y-160750000D01*
X110235714Y-160678571D01*
X109950000Y-160678571D01*
X109807142Y-160750000D01*
X108378571Y-160178571D02*
X109092857Y-160178571D01*
X109164285Y-160892857D01*
X109092857Y-160821428D01*
X108950000Y-160750000D01*
X108592857Y-160750000D01*
X108450000Y-160821428D01*
X108378571Y-160892857D01*
X108307142Y-161035714D01*
X108307142Y-161392857D01*
X108378571Y-161535714D01*
X108450000Y-161607142D01*
X108592857Y-161678571D01*
X108950000Y-161678571D01*
X109092857Y-161607142D01*
X109164285Y-161535714D01*
X107021428Y-161678571D02*
X107021428Y-160178571D01*
X107021428Y-161607142D02*
X107164285Y-161678571D01*
X107450000Y-161678571D01*
X107592857Y-161607142D01*
X107664285Y-161535714D01*
X107735714Y-161392857D01*
X107735714Y-160964285D01*
X107664285Y-160821428D01*
X107592857Y-160750000D01*
X107450000Y-160678571D01*
X107164285Y-160678571D01*
X107021428Y-160750000D01*
X106450000Y-160678571D02*
X105664285Y-160678571D01*
X106450000Y-161678571D01*
X105664285Y-161678571D01*
M02*
