G04 #@! TF.GenerationSoftware,KiCad,Pcbnew,5.0.2+dfsg1-1*
G04 #@! TF.CreationDate,2019-07-23T09:39:21-06:00*
G04 #@! TF.ProjectId,hl2-front,686c322d-6672-46f6-9e74-2e6b69636164,rev?*
G04 #@! TF.SameCoordinates,Original*
G04 #@! TF.FileFunction,Soldermask,Top*
G04 #@! TF.FilePolarity,Negative*
%FSLAX46Y46*%
G04 Gerber Fmt 4.6, Leading zero omitted, Abs format (unit mm)*
G04 Created by KiCad (PCBNEW 5.0.2+dfsg1-1) date Tue 23 Jul 2019 09:39:21 AM MDT*
%MOMM*%
%LPD*%
G01*
G04 APERTURE LIST*
%ADD10C,0.100000*%
G04 APERTURE END LIST*
D10*
G36*
X65382513Y-189262834D02*
X65382516Y-189262835D01*
X65382517Y-189262835D01*
X65787982Y-189385831D01*
X65787984Y-189385832D01*
X66161662Y-189585568D01*
X66489193Y-189854365D01*
X66757990Y-190181896D01*
X66757991Y-190181898D01*
X66957727Y-190555576D01*
X67078779Y-190954632D01*
X67080724Y-190961045D01*
X67122254Y-191382711D01*
X67080724Y-191804377D01*
X67080723Y-191804380D01*
X67080723Y-191804381D01*
X66959672Y-192203435D01*
X66957726Y-192209848D01*
X66757990Y-192583526D01*
X66489193Y-192911057D01*
X66161662Y-193179854D01*
X66161660Y-193179855D01*
X65787982Y-193379591D01*
X65382517Y-193502587D01*
X65382516Y-193502587D01*
X65382513Y-193502588D01*
X65066514Y-193533711D01*
X64605180Y-193533711D01*
X64289181Y-193502588D01*
X64289178Y-193502587D01*
X64289177Y-193502587D01*
X63883712Y-193379591D01*
X63510034Y-193179855D01*
X63510032Y-193179854D01*
X63182501Y-192911057D01*
X62913704Y-192583526D01*
X62713968Y-192209848D01*
X62712023Y-192203435D01*
X62590971Y-191804381D01*
X62590971Y-191804380D01*
X62590970Y-191804377D01*
X62549440Y-191382711D01*
X62590970Y-190961045D01*
X62592915Y-190954632D01*
X62713967Y-190555576D01*
X62913703Y-190181898D01*
X62913704Y-190181896D01*
X63182501Y-189854365D01*
X63510032Y-189585568D01*
X63883710Y-189385832D01*
X63883712Y-189385831D01*
X64289177Y-189262835D01*
X64289178Y-189262835D01*
X64289181Y-189262834D01*
X64605180Y-189231711D01*
X65066514Y-189231711D01*
X65382513Y-189262834D01*
X65382513Y-189262834D01*
G37*
G36*
X161202291Y-189256421D02*
X161202294Y-189256422D01*
X161202295Y-189256422D01*
X161607760Y-189379418D01*
X161607762Y-189379419D01*
X161981440Y-189579155D01*
X162308971Y-189847952D01*
X162577768Y-190175483D01*
X162577769Y-190175485D01*
X162777505Y-190549163D01*
X162779450Y-190555576D01*
X162900502Y-190954632D01*
X162942032Y-191376298D01*
X162900502Y-191797964D01*
X162900501Y-191797967D01*
X162900501Y-191797968D01*
X162898556Y-191804381D01*
X162777504Y-192203435D01*
X162577768Y-192577113D01*
X162308971Y-192904644D01*
X161981440Y-193173441D01*
X161981438Y-193173442D01*
X161607760Y-193373178D01*
X161202295Y-193496174D01*
X161202294Y-193496174D01*
X161202291Y-193496175D01*
X160886292Y-193527298D01*
X160424958Y-193527298D01*
X160108959Y-193496175D01*
X160108956Y-193496174D01*
X160108955Y-193496174D01*
X159703490Y-193373178D01*
X159329812Y-193173442D01*
X159329810Y-193173441D01*
X159002279Y-192904644D01*
X158733482Y-192577113D01*
X158533746Y-192203435D01*
X158412695Y-191804381D01*
X158410749Y-191797968D01*
X158410749Y-191797967D01*
X158410748Y-191797964D01*
X158369218Y-191376298D01*
X158410748Y-190954632D01*
X158531800Y-190555576D01*
X158533745Y-190549163D01*
X158733481Y-190175485D01*
X158733482Y-190175483D01*
X159002279Y-189847952D01*
X159329810Y-189579155D01*
X159703488Y-189379419D01*
X159703490Y-189379418D01*
X160108955Y-189256422D01*
X160108956Y-189256422D01*
X160108959Y-189256421D01*
X160424958Y-189225298D01*
X160886292Y-189225298D01*
X161202291Y-189256421D01*
X161202291Y-189256421D01*
G37*
G36*
X121935734Y-186393232D02*
X122145202Y-186479996D01*
X122333723Y-186605962D01*
X122494038Y-186766277D01*
X122620004Y-186954798D01*
X122706768Y-187164266D01*
X122751000Y-187386635D01*
X122751000Y-187613365D01*
X122706768Y-187835734D01*
X122620004Y-188045202D01*
X122494038Y-188233723D01*
X122333723Y-188394038D01*
X122145202Y-188520004D01*
X121935734Y-188606768D01*
X121713365Y-188651000D01*
X121486635Y-188651000D01*
X121264266Y-188606768D01*
X121054798Y-188520004D01*
X120866277Y-188394038D01*
X120705962Y-188233723D01*
X120579996Y-188045202D01*
X120493232Y-187835734D01*
X120449000Y-187613365D01*
X120449000Y-187386635D01*
X120493232Y-187164266D01*
X120579996Y-186954798D01*
X120705962Y-186766277D01*
X120866277Y-186605962D01*
X121054798Y-186479996D01*
X121264266Y-186393232D01*
X121486635Y-186349000D01*
X121713365Y-186349000D01*
X121935734Y-186393232D01*
X121935734Y-186393232D01*
G37*
G36*
X104235734Y-186393232D02*
X104445202Y-186479996D01*
X104633723Y-186605962D01*
X104794038Y-186766277D01*
X104920004Y-186954798D01*
X105006768Y-187164266D01*
X105051000Y-187386635D01*
X105051000Y-187613365D01*
X105006768Y-187835734D01*
X104920004Y-188045202D01*
X104794038Y-188233723D01*
X104633723Y-188394038D01*
X104445202Y-188520004D01*
X104235734Y-188606768D01*
X104013365Y-188651000D01*
X103786635Y-188651000D01*
X103564266Y-188606768D01*
X103354798Y-188520004D01*
X103166277Y-188394038D01*
X103005962Y-188233723D01*
X102879996Y-188045202D01*
X102793232Y-187835734D01*
X102749000Y-187613365D01*
X102749000Y-187386635D01*
X102793232Y-187164266D01*
X102879996Y-186954798D01*
X103005962Y-186766277D01*
X103166277Y-186605962D01*
X103354798Y-186479996D01*
X103564266Y-186393232D01*
X103786635Y-186349000D01*
X104013365Y-186349000D01*
X104235734Y-186393232D01*
X104235734Y-186393232D01*
G37*
G36*
X110135734Y-186393232D02*
X110345202Y-186479996D01*
X110533723Y-186605962D01*
X110694038Y-186766277D01*
X110820004Y-186954798D01*
X110906768Y-187164266D01*
X110951000Y-187386635D01*
X110951000Y-187613365D01*
X110906768Y-187835734D01*
X110820004Y-188045202D01*
X110694038Y-188233723D01*
X110533723Y-188394038D01*
X110345202Y-188520004D01*
X110135734Y-188606768D01*
X109913365Y-188651000D01*
X109686635Y-188651000D01*
X109464266Y-188606768D01*
X109254798Y-188520004D01*
X109066277Y-188394038D01*
X108905962Y-188233723D01*
X108779996Y-188045202D01*
X108693232Y-187835734D01*
X108649000Y-187613365D01*
X108649000Y-187386635D01*
X108693232Y-187164266D01*
X108779996Y-186954798D01*
X108905962Y-186766277D01*
X109066277Y-186605962D01*
X109254798Y-186479996D01*
X109464266Y-186393232D01*
X109686635Y-186349000D01*
X109913365Y-186349000D01*
X110135734Y-186393232D01*
X110135734Y-186393232D01*
G37*
G36*
X116035734Y-186393232D02*
X116245202Y-186479996D01*
X116433723Y-186605962D01*
X116594038Y-186766277D01*
X116720004Y-186954798D01*
X116806768Y-187164266D01*
X116851000Y-187386635D01*
X116851000Y-187613365D01*
X116806768Y-187835734D01*
X116720004Y-188045202D01*
X116594038Y-188233723D01*
X116433723Y-188394038D01*
X116245202Y-188520004D01*
X116035734Y-188606768D01*
X115813365Y-188651000D01*
X115586635Y-188651000D01*
X115364266Y-188606768D01*
X115154798Y-188520004D01*
X114966277Y-188394038D01*
X114805962Y-188233723D01*
X114679996Y-188045202D01*
X114593232Y-187835734D01*
X114549000Y-187613365D01*
X114549000Y-187386635D01*
X114593232Y-187164266D01*
X114679996Y-186954798D01*
X114805962Y-186766277D01*
X114966277Y-186605962D01*
X115154798Y-186479996D01*
X115364266Y-186393232D01*
X115586635Y-186349000D01*
X115813365Y-186349000D01*
X116035734Y-186393232D01*
X116035734Y-186393232D01*
G37*
G36*
X152895742Y-181588694D02*
X153121204Y-181633541D01*
X153385116Y-181742857D01*
X153758344Y-181897453D01*
X153758345Y-181897454D01*
X154331758Y-182280596D01*
X154819404Y-182768242D01*
X154860265Y-182829395D01*
X155202547Y-183341656D01*
X155357143Y-183714884D01*
X155448697Y-183935914D01*
X155466459Y-183978797D01*
X155601000Y-184655180D01*
X155601000Y-185344820D01*
X155466459Y-186021203D01*
X155202547Y-186658344D01*
X155202546Y-186658345D01*
X154819404Y-187231758D01*
X154331758Y-187719404D01*
X153949483Y-187974832D01*
X153758344Y-188102547D01*
X153385116Y-188257143D01*
X153121204Y-188366459D01*
X152982554Y-188394038D01*
X152444820Y-188501000D01*
X151755180Y-188501000D01*
X151217446Y-188394038D01*
X151078796Y-188366459D01*
X150814884Y-188257143D01*
X150441656Y-188102547D01*
X150250517Y-187974832D01*
X149868242Y-187719404D01*
X149380596Y-187231758D01*
X148997454Y-186658345D01*
X148997453Y-186658344D01*
X148733541Y-186021203D01*
X148599000Y-185344820D01*
X148599000Y-184655180D01*
X148733541Y-183978797D01*
X148751304Y-183935914D01*
X148842857Y-183714884D01*
X148997453Y-183341656D01*
X149339735Y-182829395D01*
X149380596Y-182768242D01*
X149868242Y-182280596D01*
X150441655Y-181897454D01*
X150441656Y-181897453D01*
X150814884Y-181742857D01*
X151078796Y-181633541D01*
X151304258Y-181588694D01*
X151755180Y-181499000D01*
X152444820Y-181499000D01*
X152895742Y-181588694D01*
X152895742Y-181588694D01*
G37*
G36*
X70994714Y-177495769D02*
X71464958Y-177589306D01*
X72129397Y-177864525D01*
X72727377Y-178264083D01*
X73235917Y-178772623D01*
X73635475Y-179370603D01*
X73910694Y-180035042D01*
X74051000Y-180740408D01*
X74051000Y-181459592D01*
X73910694Y-182164958D01*
X73635475Y-182829397D01*
X73235917Y-183427377D01*
X72727377Y-183935917D01*
X72129397Y-184335475D01*
X71464958Y-184610694D01*
X70994714Y-184704231D01*
X70759593Y-184751000D01*
X70040407Y-184751000D01*
X69805286Y-184704231D01*
X69335042Y-184610694D01*
X68670603Y-184335475D01*
X68072623Y-183935917D01*
X67564083Y-183427377D01*
X67164525Y-182829397D01*
X66889306Y-182164958D01*
X66749000Y-181459592D01*
X66749000Y-180740408D01*
X66889306Y-180035042D01*
X67164525Y-179370603D01*
X67564083Y-178772623D01*
X68072623Y-178264083D01*
X68670603Y-177864525D01*
X69335042Y-177589306D01*
X69805286Y-177495769D01*
X70040407Y-177449000D01*
X70759593Y-177449000D01*
X70994714Y-177495769D01*
X70994714Y-177495769D01*
G37*
G36*
X65384330Y-142341527D02*
X65384333Y-142341528D01*
X65384334Y-142341528D01*
X65789799Y-142464524D01*
X65789801Y-142464525D01*
X66163479Y-142664261D01*
X66491010Y-142933058D01*
X66759807Y-143260589D01*
X66959543Y-143634267D01*
X67082541Y-144039738D01*
X67124071Y-144461404D01*
X67082541Y-144883070D01*
X67082540Y-144883073D01*
X67082540Y-144883074D01*
X66960063Y-145286829D01*
X66959543Y-145288541D01*
X66759807Y-145662219D01*
X66491010Y-145989750D01*
X66163479Y-146258547D01*
X66163477Y-146258548D01*
X65789799Y-146458284D01*
X65384334Y-146581280D01*
X65384333Y-146581280D01*
X65384330Y-146581281D01*
X65068331Y-146612404D01*
X64606997Y-146612404D01*
X64290998Y-146581281D01*
X64290995Y-146581280D01*
X64290994Y-146581280D01*
X63885529Y-146458284D01*
X63511851Y-146258548D01*
X63511849Y-146258547D01*
X63184318Y-145989750D01*
X62915521Y-145662219D01*
X62715785Y-145288541D01*
X62715266Y-145286829D01*
X62592788Y-144883074D01*
X62592788Y-144883073D01*
X62592787Y-144883070D01*
X62551257Y-144461404D01*
X62592787Y-144039738D01*
X62715785Y-143634267D01*
X62915521Y-143260589D01*
X63184318Y-142933058D01*
X63511849Y-142664261D01*
X63885527Y-142464525D01*
X63885529Y-142464524D01*
X64290994Y-142341528D01*
X64290995Y-142341528D01*
X64290998Y-142341527D01*
X64606997Y-142310404D01*
X65068331Y-142310404D01*
X65384330Y-142341527D01*
X65384330Y-142341527D01*
G37*
G36*
X161195879Y-142339817D02*
X161195882Y-142339818D01*
X161195883Y-142339818D01*
X161601348Y-142462814D01*
X161601350Y-142462815D01*
X161975028Y-142662551D01*
X162302559Y-142931348D01*
X162571356Y-143258879D01*
X162571357Y-143258881D01*
X162771093Y-143632559D01*
X162894089Y-144038024D01*
X162894090Y-144038028D01*
X162935620Y-144459694D01*
X162894090Y-144881360D01*
X162771092Y-145286831D01*
X162571356Y-145660509D01*
X162302559Y-145988040D01*
X161975028Y-146256837D01*
X161975026Y-146256838D01*
X161601348Y-146456574D01*
X161195883Y-146579570D01*
X161195882Y-146579570D01*
X161195879Y-146579571D01*
X160879880Y-146610694D01*
X160418546Y-146610694D01*
X160102547Y-146579571D01*
X160102544Y-146579570D01*
X160102543Y-146579570D01*
X159697078Y-146456574D01*
X159323400Y-146256838D01*
X159323398Y-146256837D01*
X158995867Y-145988040D01*
X158727070Y-145660509D01*
X158527334Y-145286831D01*
X158404336Y-144881360D01*
X158362806Y-144459694D01*
X158404336Y-144038028D01*
X158404337Y-144038024D01*
X158527333Y-143632559D01*
X158727069Y-143258881D01*
X158727070Y-143258879D01*
X158995867Y-142931348D01*
X159323398Y-142662551D01*
X159697076Y-142462815D01*
X159697078Y-142462814D01*
X160102543Y-142339818D01*
X160102544Y-142339818D01*
X160102547Y-142339817D01*
X160418546Y-142308694D01*
X160879880Y-142308694D01*
X161195879Y-142339817D01*
X161195879Y-142339817D01*
G37*
M02*
