G04 #@! TF.GenerationSoftware,KiCad,Pcbnew,5.0.2+dfsg1-1*
G04 #@! TF.CreationDate,2019-07-23T09:39:21-06:00*
G04 #@! TF.ProjectId,hl2-front,686c322d-6672-46f6-9e74-2e6b69636164,rev?*
G04 #@! TF.SameCoordinates,Original*
G04 #@! TF.FileFunction,Profile,NP*
%FSLAX46Y46*%
G04 Gerber Fmt 4.6, Leading zero omitted, Abs format (unit mm)*
G04 Created by KiCad (PCBNEW 5.0.2+dfsg1-1) date Tue 23 Jul 2019 09:39:21 AM MDT*
%MOMM*%
%LPD*%
G01*
G04 APERTURE LIST*
%ADD10C,0.200000*%
G04 APERTURE END LIST*
D10*
X94732331Y-187739969D02*
X76952334Y-187739969D01*
X94732331Y-176133591D02*
X94732331Y-187739969D01*
X76952334Y-176133591D02*
X94732331Y-176133591D01*
X76952334Y-187739969D02*
X76952334Y-176133591D01*
X63400000Y-195100000D02*
X63100000Y-195100000D01*
X60400000Y-192100000D02*
X63100000Y-195100000D01*
X63400000Y-195100000D02*
X162100000Y-195100000D01*
X162100000Y-195100000D02*
X165100000Y-192100000D01*
X165100000Y-192100000D02*
X165100000Y-184714296D01*
X162100000Y-140800000D02*
X165100000Y-143800000D01*
X162100000Y-140800000D02*
X63600000Y-140800000D01*
X165100000Y-143800000D02*
X165100000Y-143800000D01*
X63600000Y-140800000D02*
X63400000Y-140800000D01*
X60400000Y-143800000D02*
X63400000Y-140800000D01*
X60395554Y-143800000D02*
X60395554Y-151130000D01*
X60395554Y-184714296D02*
X60395554Y-192100000D01*
X61383334Y-184714380D02*
X60395554Y-184714296D01*
X61383334Y-151129920D02*
X61383334Y-184714380D01*
X60395554Y-151130000D02*
X61383334Y-151129920D01*
X164112220Y-151129920D02*
X165100000Y-151130000D01*
X164112220Y-184714380D02*
X164112220Y-151129920D01*
X165100000Y-184714296D02*
X164112220Y-184714380D01*
X165100000Y-151130000D02*
X165100000Y-143800000D01*
M02*
