G04 #@! TF.GenerationSoftware,KiCad,Pcbnew,5.0.2+dfsg1-1*
G04 #@! TF.CreationDate,2019-07-23T09:39:21-06:00*
G04 #@! TF.ProjectId,hl2-front,686c322d-6672-46f6-9e74-2e6b69636164,rev?*
G04 #@! TF.SameCoordinates,Original*
G04 #@! TF.FileFunction,Legend,Top*
G04 #@! TF.FilePolarity,Positive*
%FSLAX46Y46*%
G04 Gerber Fmt 4.6, Leading zero omitted, Abs format (unit mm)*
G04 Created by KiCad (PCBNEW 5.0.2+dfsg1-1) date Tue 23 Jul 2019 09:39:21 AM MDT*
%MOMM*%
%LPD*%
G01*
G04 APERTURE LIST*
%ADD10C,0.150000*%
G04 APERTURE END LIST*
G04 #@! TO.C,REF\002A\002A*
D10*
X120266666Y-184752380D02*
X119933333Y-184276190D01*
X119695238Y-184752380D02*
X119695238Y-183752380D01*
X120076190Y-183752380D01*
X120171428Y-183800000D01*
X120219047Y-183847619D01*
X120266666Y-183942857D01*
X120266666Y-184085714D01*
X120219047Y-184180952D01*
X120171428Y-184228571D01*
X120076190Y-184276190D01*
X119695238Y-184276190D01*
X120695238Y-184228571D02*
X121028571Y-184228571D01*
X121171428Y-184752380D02*
X120695238Y-184752380D01*
X120695238Y-183752380D01*
X121171428Y-183752380D01*
X121933333Y-184228571D02*
X121600000Y-184228571D01*
X121600000Y-184752380D02*
X121600000Y-183752380D01*
X122076190Y-183752380D01*
X122600000Y-183752380D02*
X122600000Y-183990476D01*
X122361904Y-183895238D02*
X122600000Y-183990476D01*
X122838095Y-183895238D01*
X122457142Y-184180952D02*
X122600000Y-183990476D01*
X122742857Y-184180952D01*
X123361904Y-183752380D02*
X123361904Y-183990476D01*
X123123809Y-183895238D02*
X123361904Y-183990476D01*
X123600000Y-183895238D01*
X123219047Y-184180952D02*
X123361904Y-183990476D01*
X123504761Y-184180952D01*
X114366666Y-184752380D02*
X114033333Y-184276190D01*
X113795238Y-184752380D02*
X113795238Y-183752380D01*
X114176190Y-183752380D01*
X114271428Y-183800000D01*
X114319047Y-183847619D01*
X114366666Y-183942857D01*
X114366666Y-184085714D01*
X114319047Y-184180952D01*
X114271428Y-184228571D01*
X114176190Y-184276190D01*
X113795238Y-184276190D01*
X114795238Y-184228571D02*
X115128571Y-184228571D01*
X115271428Y-184752380D02*
X114795238Y-184752380D01*
X114795238Y-183752380D01*
X115271428Y-183752380D01*
X116033333Y-184228571D02*
X115700000Y-184228571D01*
X115700000Y-184752380D02*
X115700000Y-183752380D01*
X116176190Y-183752380D01*
X116700000Y-183752380D02*
X116700000Y-183990476D01*
X116461904Y-183895238D02*
X116700000Y-183990476D01*
X116938095Y-183895238D01*
X116557142Y-184180952D02*
X116700000Y-183990476D01*
X116842857Y-184180952D01*
X117461904Y-183752380D02*
X117461904Y-183990476D01*
X117223809Y-183895238D02*
X117461904Y-183990476D01*
X117700000Y-183895238D01*
X117319047Y-184180952D02*
X117461904Y-183990476D01*
X117604761Y-184180952D01*
X108466666Y-184752380D02*
X108133333Y-184276190D01*
X107895238Y-184752380D02*
X107895238Y-183752380D01*
X108276190Y-183752380D01*
X108371428Y-183800000D01*
X108419047Y-183847619D01*
X108466666Y-183942857D01*
X108466666Y-184085714D01*
X108419047Y-184180952D01*
X108371428Y-184228571D01*
X108276190Y-184276190D01*
X107895238Y-184276190D01*
X108895238Y-184228571D02*
X109228571Y-184228571D01*
X109371428Y-184752380D02*
X108895238Y-184752380D01*
X108895238Y-183752380D01*
X109371428Y-183752380D01*
X110133333Y-184228571D02*
X109800000Y-184228571D01*
X109800000Y-184752380D02*
X109800000Y-183752380D01*
X110276190Y-183752380D01*
X110800000Y-183752380D02*
X110800000Y-183990476D01*
X110561904Y-183895238D02*
X110800000Y-183990476D01*
X111038095Y-183895238D01*
X110657142Y-184180952D02*
X110800000Y-183990476D01*
X110942857Y-184180952D01*
X111561904Y-183752380D02*
X111561904Y-183990476D01*
X111323809Y-183895238D02*
X111561904Y-183990476D01*
X111800000Y-183895238D01*
X111419047Y-184180952D02*
X111561904Y-183990476D01*
X111704761Y-184180952D01*
G04 #@! TO.C,H1*
X64075759Y-145413784D02*
X64075759Y-144413784D01*
X64075759Y-144889975D02*
X64647187Y-144889975D01*
X64647187Y-145413784D02*
X64647187Y-144413784D01*
X65647187Y-145413784D02*
X65075759Y-145413784D01*
X65361473Y-145413784D02*
X65361473Y-144413784D01*
X65266235Y-144556642D01*
X65170997Y-144651880D01*
X65075759Y-144699499D01*
G04 #@! TO.C,H4*
X64073942Y-192335091D02*
X64073942Y-191335091D01*
X64073942Y-191811282D02*
X64645370Y-191811282D01*
X64645370Y-192335091D02*
X64645370Y-191335091D01*
X65550132Y-191668425D02*
X65550132Y-192335091D01*
X65312037Y-191287472D02*
X65073942Y-192001758D01*
X65692989Y-192001758D01*
G04 #@! TO.C,H3*
X159893720Y-192328678D02*
X159893720Y-191328678D01*
X159893720Y-191804869D02*
X160465148Y-191804869D01*
X160465148Y-192328678D02*
X160465148Y-191328678D01*
X160846101Y-191328678D02*
X161465148Y-191328678D01*
X161131815Y-191709631D01*
X161274672Y-191709631D01*
X161369910Y-191757250D01*
X161417529Y-191804869D01*
X161465148Y-191900107D01*
X161465148Y-192138202D01*
X161417529Y-192233440D01*
X161369910Y-192281059D01*
X161274672Y-192328678D01*
X160988958Y-192328678D01*
X160893720Y-192281059D01*
X160846101Y-192233440D01*
G04 #@! TO.C,H2*
X159887308Y-145412074D02*
X159887308Y-144412074D01*
X159887308Y-144888265D02*
X160458736Y-144888265D01*
X160458736Y-145412074D02*
X160458736Y-144412074D01*
X160887308Y-144507313D02*
X160934927Y-144459694D01*
X161030165Y-144412074D01*
X161268260Y-144412074D01*
X161363498Y-144459694D01*
X161411117Y-144507313D01*
X161458736Y-144602551D01*
X161458736Y-144697789D01*
X161411117Y-144840646D01*
X160839689Y-145412074D01*
X161458736Y-145412074D01*
G04 #@! TO.C,REF\002A\002A*
X69066666Y-174552380D02*
X68733333Y-174076190D01*
X68495238Y-174552380D02*
X68495238Y-173552380D01*
X68876190Y-173552380D01*
X68971428Y-173600000D01*
X69019047Y-173647619D01*
X69066666Y-173742857D01*
X69066666Y-173885714D01*
X69019047Y-173980952D01*
X68971428Y-174028571D01*
X68876190Y-174076190D01*
X68495238Y-174076190D01*
X69495238Y-174028571D02*
X69828571Y-174028571D01*
X69971428Y-174552380D02*
X69495238Y-174552380D01*
X69495238Y-173552380D01*
X69971428Y-173552380D01*
X70733333Y-174028571D02*
X70400000Y-174028571D01*
X70400000Y-174552380D02*
X70400000Y-173552380D01*
X70876190Y-173552380D01*
X71400000Y-173552380D02*
X71400000Y-173790476D01*
X71161904Y-173695238D02*
X71400000Y-173790476D01*
X71638095Y-173695238D01*
X71257142Y-173980952D02*
X71400000Y-173790476D01*
X71542857Y-173980952D01*
X72161904Y-173552380D02*
X72161904Y-173790476D01*
X71923809Y-173695238D02*
X72161904Y-173790476D01*
X72400000Y-173695238D01*
X72019047Y-173980952D02*
X72161904Y-173790476D01*
X72304761Y-173980952D01*
X102566666Y-184752380D02*
X102233333Y-184276190D01*
X101995238Y-184752380D02*
X101995238Y-183752380D01*
X102376190Y-183752380D01*
X102471428Y-183800000D01*
X102519047Y-183847619D01*
X102566666Y-183942857D01*
X102566666Y-184085714D01*
X102519047Y-184180952D01*
X102471428Y-184228571D01*
X102376190Y-184276190D01*
X101995238Y-184276190D01*
X102995238Y-184228571D02*
X103328571Y-184228571D01*
X103471428Y-184752380D02*
X102995238Y-184752380D01*
X102995238Y-183752380D01*
X103471428Y-183752380D01*
X104233333Y-184228571D02*
X103900000Y-184228571D01*
X103900000Y-184752380D02*
X103900000Y-183752380D01*
X104376190Y-183752380D01*
X104900000Y-183752380D02*
X104900000Y-183990476D01*
X104661904Y-183895238D02*
X104900000Y-183990476D01*
X105138095Y-183895238D01*
X104757142Y-184180952D02*
X104900000Y-183990476D01*
X105042857Y-184180952D01*
X105661904Y-183752380D02*
X105661904Y-183990476D01*
X105423809Y-183895238D02*
X105661904Y-183990476D01*
X105900000Y-183895238D01*
X105519047Y-184180952D02*
X105661904Y-183990476D01*
X105804761Y-184180952D01*
X150766666Y-177952380D02*
X150433333Y-177476190D01*
X150195238Y-177952380D02*
X150195238Y-176952380D01*
X150576190Y-176952380D01*
X150671428Y-177000000D01*
X150719047Y-177047619D01*
X150766666Y-177142857D01*
X150766666Y-177285714D01*
X150719047Y-177380952D01*
X150671428Y-177428571D01*
X150576190Y-177476190D01*
X150195238Y-177476190D01*
X151195238Y-177428571D02*
X151528571Y-177428571D01*
X151671428Y-177952380D02*
X151195238Y-177952380D01*
X151195238Y-176952380D01*
X151671428Y-176952380D01*
X152433333Y-177428571D02*
X152100000Y-177428571D01*
X152100000Y-177952380D02*
X152100000Y-176952380D01*
X152576190Y-176952380D01*
X153100000Y-176952380D02*
X153100000Y-177190476D01*
X152861904Y-177095238D02*
X153100000Y-177190476D01*
X153338095Y-177095238D01*
X152957142Y-177380952D02*
X153100000Y-177190476D01*
X153242857Y-177380952D01*
X153861904Y-176952380D02*
X153861904Y-177190476D01*
X153623809Y-177095238D02*
X153861904Y-177190476D01*
X154100000Y-177095238D01*
X153719047Y-177380952D02*
X153861904Y-177190476D01*
X154004761Y-177380952D01*
G04 #@! TD*
M02*
