G04 #@! TF.GenerationSoftware,KiCad,Pcbnew,5.0.2-bee76a0~70~ubuntu16.04.1*
G04 #@! TF.CreationDate,2019-02-20T20:44:02-08:00*
G04 #@! TF.ProjectId,n2adr,6e326164-722e-46b6-9963-61645f706362,E5b8*
G04 #@! TF.SameCoordinates,PX3dfd240PY3473bc0*
G04 #@! TF.FileFunction,Copper,L3,Inr*
G04 #@! TF.FilePolarity,Positive*
%FSLAX46Y46*%
G04 Gerber Fmt 4.6, Leading zero omitted, Abs format (unit mm)*
G04 Created by KiCad (PCBNEW 5.0.2-bee76a0~70~ubuntu16.04.1) date Wed 20 Feb 2019 08:44:02 PM PST*
%MOMM*%
%LPD*%
G01*
G04 APERTURE LIST*
G04 #@! TA.AperFunction,ViaPad*
%ADD10C,1.270000*%
G04 #@! TD*
G04 #@! TA.AperFunction,ViaPad*
%ADD11C,1.850000*%
G04 #@! TD*
G04 #@! TA.AperFunction,ViaPad*
%ADD12C,2.700020*%
G04 #@! TD*
G04 #@! TA.AperFunction,ViaPad*
%ADD13R,2.200000X2.200000*%
G04 #@! TD*
G04 #@! TA.AperFunction,ViaPad*
%ADD14C,1.000000*%
G04 #@! TD*
G04 #@! TA.AperFunction,ViaPad*
%ADD15R,1.600000X5.200000*%
G04 #@! TD*
G04 #@! TA.AperFunction,ViaPad*
%ADD16R,4.400000X5.200000*%
G04 #@! TD*
G04 #@! TA.AperFunction,ViaPad*
%ADD17R,2.032000X1.727200*%
G04 #@! TD*
G04 #@! TA.AperFunction,ViaPad*
%ADD18O,2.032000X1.727200*%
G04 #@! TD*
G04 #@! TA.AperFunction,ViaPad*
%ADD19R,1.700000X1.700000*%
G04 #@! TD*
G04 #@! TA.AperFunction,ViaPad*
%ADD20O,1.700000X1.700000*%
G04 #@! TD*
G04 #@! TA.AperFunction,ViaPad*
%ADD21C,1.998980*%
G04 #@! TD*
G04 #@! TA.AperFunction,ViaPad*
%ADD22C,4.200000*%
G04 #@! TD*
G04 #@! TA.AperFunction,ViaPad*
%ADD23C,3.500000*%
G04 #@! TD*
G04 #@! TA.AperFunction,ViaPad*
%ADD24C,0.600000*%
G04 #@! TD*
G04 #@! TA.AperFunction,ViaPad*
%ADD25C,0.800000*%
G04 #@! TD*
G04 #@! TA.AperFunction,Conductor*
%ADD26C,0.200000*%
G04 #@! TD*
G04 APERTURE END LIST*
D10*
G04 #@! TO.N,GND*
G04 #@! TO.C,REF\002A\002A*
X73800000Y-31250000D03*
G04 #@! TD*
G04 #@! TO.N,GND*
G04 #@! TO.C,REF\002A\002A*
X12300000Y-12100000D03*
G04 #@! TD*
G04 #@! TO.N,GND*
G04 #@! TO.C,REF\002A\002A*
X30400000Y-10300000D03*
G04 #@! TD*
G04 #@! TO.N,GND*
G04 #@! TO.C,REF\002A\002A*
X30500000Y-20000000D03*
G04 #@! TD*
G04 #@! TO.N,GND*
G04 #@! TO.C,REF\002A\002A*
X86100000Y-38200000D03*
G04 #@! TD*
G04 #@! TO.N,GND*
G04 #@! TO.C,REF\002A\002A*
X85300000Y-30600000D03*
G04 #@! TD*
G04 #@! TO.N,GND*
G04 #@! TO.C,REF\002A\002A*
X85700000Y-12400000D03*
G04 #@! TD*
G04 #@! TO.N,GND*
G04 #@! TO.C,REF\002A\002A*
X50500000Y-11200000D03*
G04 #@! TD*
G04 #@! TO.N,GND*
G04 #@! TO.C,REF\002A\002A*
X57100000Y-20000000D03*
G04 #@! TD*
G04 #@! TO.N,GND*
G04 #@! TO.C,REF\002A\002A*
X70700000Y-10500000D03*
G04 #@! TD*
G04 #@! TO.N,GND*
G04 #@! TO.C,REF\002A\002A*
X76500000Y-38100000D03*
G04 #@! TD*
G04 #@! TO.N,GND*
G04 #@! TO.C,REF\002A\002A*
X66550000Y-34850000D03*
G04 #@! TD*
G04 #@! TO.N,GND*
G04 #@! TO.C,REF\002A\002A*
X30400000Y-14600000D03*
G04 #@! TD*
G04 #@! TO.N,GND*
G04 #@! TO.C,REF\002A\002A*
X49900000Y-26800000D03*
G04 #@! TD*
G04 #@! TO.N,GND*
G04 #@! TO.C,REF\002A\002A*
X78800000Y-30800000D03*
G04 #@! TD*
G04 #@! TO.N,GND*
G04 #@! TO.C,REF\002A\002A*
X86000000Y-20600000D03*
G04 #@! TD*
G04 #@! TO.N,GND*
G04 #@! TO.C,REF\002A\002A*
X62300000Y-25100000D03*
G04 #@! TD*
G04 #@! TO.N,GND*
G04 #@! TO.C,REF\002A\002A*
X60000000Y-34000000D03*
G04 #@! TD*
G04 #@! TO.N,GND*
G04 #@! TO.C,REF\002A\002A*
X42300000Y-48500000D03*
G04 #@! TD*
G04 #@! TO.N,GND*
G04 #@! TO.C,REF\002A\002A*
X38200000Y-23800000D03*
G04 #@! TD*
G04 #@! TO.N,GND*
G04 #@! TO.C,REF\002A\002A*
X37100000Y-39750000D03*
G04 #@! TD*
G04 #@! TO.N,GND*
G04 #@! TO.C,REF\002A\002A*
X25500000Y-38500000D03*
G04 #@! TD*
G04 #@! TO.N,GND*
G04 #@! TO.C,REF\002A\002A*
X23500000Y-27500000D03*
G04 #@! TD*
G04 #@! TO.N,GND*
G04 #@! TO.C,REF\002A\002A*
X25000000Y-22500000D03*
G04 #@! TD*
G04 #@! TO.N,GND*
G04 #@! TO.C,REF\002A\002A*
X12500000Y-22500000D03*
G04 #@! TD*
G04 #@! TO.N,GND*
G04 #@! TO.C,REF\002A\002A*
X6000000Y-33000000D03*
G04 #@! TD*
G04 #@! TO.N,GND*
G04 #@! TO.C,REF\002A\002A*
X5500000Y-23500000D03*
G04 #@! TD*
G04 #@! TO.N,GND*
G04 #@! TO.C,REF\002A\002A*
X1500000Y-47500000D03*
G04 #@! TD*
G04 #@! TO.N,GND*
G04 #@! TO.C,REF\002A\002A*
X1500000Y-42500000D03*
G04 #@! TD*
G04 #@! TO.N,GND*
G04 #@! TO.C,REF\002A\002A*
X1500000Y-37500000D03*
G04 #@! TD*
G04 #@! TO.N,GND*
G04 #@! TO.C,REF\002A\002A*
X1500000Y-32500000D03*
G04 #@! TD*
G04 #@! TO.N,GND*
G04 #@! TO.C,REF\002A\002A*
X1500000Y-27500000D03*
G04 #@! TD*
G04 #@! TO.N,GND*
G04 #@! TO.C,REF\002A\002A*
X1500000Y-22500000D03*
G04 #@! TD*
G04 #@! TO.N,GND*
G04 #@! TO.C,REF\002A\002A*
X1500000Y-17500000D03*
G04 #@! TD*
G04 #@! TO.N,GND*
G04 #@! TO.C,REF\002A\002A*
X1500000Y-12500000D03*
G04 #@! TD*
G04 #@! TO.N,GND*
G04 #@! TO.C,REF\002A\002A*
X1500000Y-7500000D03*
G04 #@! TD*
G04 #@! TO.N,GND*
G04 #@! TO.C,REF\002A\002A*
X1500000Y-2500000D03*
G04 #@! TD*
G04 #@! TO.N,GND*
G04 #@! TO.C,REF\002A\002A*
X98500000Y-47500000D03*
G04 #@! TD*
G04 #@! TO.N,GND*
G04 #@! TO.C,REF\002A\002A*
X98500000Y-42500000D03*
G04 #@! TD*
G04 #@! TO.N,GND*
G04 #@! TO.C,REF\002A\002A*
X98500000Y-37500000D03*
G04 #@! TD*
G04 #@! TO.N,GND*
G04 #@! TO.C,REF\002A\002A*
X98500000Y-32500000D03*
G04 #@! TD*
G04 #@! TO.N,GND*
G04 #@! TO.C,REF\002A\002A*
X98500000Y-27500000D03*
G04 #@! TD*
G04 #@! TO.N,GND*
G04 #@! TO.C,REF\002A\002A*
X98500000Y-22500000D03*
G04 #@! TD*
G04 #@! TO.N,GND*
G04 #@! TO.C,REF\002A\002A*
X98500000Y-17500000D03*
G04 #@! TD*
G04 #@! TO.N,GND*
G04 #@! TO.C,REF\002A\002A*
X98500000Y-12500000D03*
G04 #@! TD*
G04 #@! TO.N,GND*
G04 #@! TO.C,REF\002A\002A*
X98500000Y-7500000D03*
G04 #@! TD*
G04 #@! TO.N,GND*
G04 #@! TO.C,REF\002A\002A*
X98500000Y-2500000D03*
G04 #@! TD*
G04 #@! TO.N,GND*
G04 #@! TO.C,REF\002A\002A*
X76500000Y-4100000D03*
G04 #@! TD*
G04 #@! TO.N,GND*
G04 #@! TO.C,REF\002A\002A*
X43000000Y-13600000D03*
G04 #@! TD*
D11*
G04 #@! TO.N,Band3*
G04 #@! TO.C,K3*
X53540000Y-9920000D03*
G04 #@! TO.N,Net-(K3-Pad2)*
X53540000Y-15000000D03*
G04 #@! TO.N,Net-(K2-Pad3)*
X53540000Y-17540000D03*
G04 #@! TO.N,Net-(C40-Pad1)*
X53540000Y-20080000D03*
G04 #@! TO.N,Net-(C32-Pad2)*
X48460000Y-20080000D03*
G04 #@! TO.N,Net-(K3-Pad3)*
X48460000Y-17540000D03*
G04 #@! TO.N,Net-(K3-Pad2)*
X48460000Y-15000000D03*
G04 #@! TO.N,+3V3*
X48460000Y-9920000D03*
G04 #@! TD*
G04 #@! TO.N,Band4*
G04 #@! TO.C,K4*
X40540000Y-9920000D03*
G04 #@! TO.N,Net-(K4-Pad2)*
X40540000Y-15000000D03*
G04 #@! TO.N,Net-(K3-Pad3)*
X40540000Y-17540000D03*
G04 #@! TO.N,Net-(C41-Pad1)*
X40540000Y-20080000D03*
G04 #@! TO.N,Net-(C33-Pad2)*
X35460000Y-20080000D03*
G04 #@! TO.N,Net-(K4-Pad3)*
X35460000Y-17540000D03*
G04 #@! TO.N,Net-(K4-Pad2)*
X35460000Y-15000000D03*
G04 #@! TO.N,+3V3*
X35460000Y-9920000D03*
G04 #@! TD*
D12*
G04 #@! TO.N,Net-(CN4-Pad1)*
G04 #@! TO.C,JP1*
X81100000Y-43300000D03*
G04 #@! TO.N,FilterOut*
X81100000Y-33140000D03*
G04 #@! TD*
D13*
G04 #@! TO.N,Net-(D1-Pad3)*
G04 #@! TO.C,L3*
X80100000Y-40100000D03*
G04 #@! TO.N,Net-(D2-Pad4)*
X82100000Y-36300000D03*
G04 #@! TO.N,Net-(D1-Pad3)*
X82100000Y-40100000D03*
G04 #@! TO.N,Net-(D2-Pad4)*
X80100000Y-36300000D03*
G04 #@! TD*
D14*
G04 #@! TO.N,Band3*
G04 #@! TO.C,P3*
X44900000Y-10500000D03*
G04 #@! TD*
G04 #@! TO.N,Band6*
G04 #@! TO.C,P6*
X18900000Y-7500000D03*
G04 #@! TD*
G04 #@! TO.N,Band1*
G04 #@! TO.C,P1*
X71300000Y-6500000D03*
G04 #@! TD*
G04 #@! TO.N,Band2*
G04 #@! TO.C,P2*
X69000000Y-7400000D03*
G04 #@! TD*
G04 #@! TO.N,Band4*
G04 #@! TO.C,P4*
X40400000Y-7500000D03*
G04 #@! TD*
G04 #@! TO.N,Band5*
G04 #@! TO.C,P5*
X29700000Y-7500000D03*
G04 #@! TD*
G04 #@! TO.N,Band7*
G04 #@! TO.C,P7*
X90500000Y-31000000D03*
G04 #@! TD*
D15*
G04 #@! TO.N,Net-(CN4-Pad1)*
G04 #@! TO.C,CN4*
X64000000Y-45000000D03*
D16*
G04 #@! TO.N,GND*
X60200000Y-45000000D03*
X67800000Y-45000000D03*
G04 #@! TD*
D15*
G04 #@! TO.N,Net-(CN2-Pad10)*
G04 #@! TO.C,CN3*
X32000000Y-45000000D03*
D16*
G04 #@! TO.N,GND*
X28200000Y-45000000D03*
X35800000Y-45000000D03*
G04 #@! TD*
D11*
G04 #@! TO.N,Band1*
G04 #@! TO.C,K1*
X73520000Y-9860000D03*
G04 #@! TO.N,Net-(K1-Pad2)*
X78600000Y-9860000D03*
G04 #@! TO.N,Net-(K1-Pad6)*
X81140000Y-9860000D03*
G04 #@! TO.N,Net-(C23-Pad1)*
X83680000Y-9860000D03*
G04 #@! TO.N,Net-(C21-Pad1)*
X83680000Y-14940000D03*
G04 #@! TO.N,Net-(K1-Pad3)*
X81140000Y-14940000D03*
G04 #@! TO.N,Net-(K1-Pad2)*
X78600000Y-14940000D03*
G04 #@! TO.N,+3V3*
X73520000Y-14940000D03*
G04 #@! TD*
G04 #@! TO.N,Band2*
G04 #@! TO.C,K2*
X66540000Y-7920000D03*
G04 #@! TO.N,Net-(K2-Pad2)*
X66540000Y-13000000D03*
G04 #@! TO.N,Net-(K1-Pad6)*
X66540000Y-15540000D03*
G04 #@! TO.N,Net-(C10-Pad2)*
X66540000Y-18080000D03*
G04 #@! TO.N,Net-(C8-Pad2)*
X61460000Y-18080000D03*
G04 #@! TO.N,Net-(K2-Pad3)*
X61460000Y-15540000D03*
G04 #@! TO.N,Net-(K2-Pad2)*
X61460000Y-13000000D03*
G04 #@! TO.N,+3V3*
X61460000Y-7920000D03*
G04 #@! TD*
G04 #@! TO.N,Band5*
G04 #@! TO.C,K5*
X27540000Y-9920000D03*
G04 #@! TO.N,Net-(K5-Pad2)*
X27540000Y-15000000D03*
G04 #@! TO.N,Net-(K4-Pad3)*
X27540000Y-17540000D03*
G04 #@! TO.N,Net-(C44-Pad2)*
X27540000Y-20080000D03*
G04 #@! TO.N,Net-(C34-Pad2)*
X22460000Y-20080000D03*
G04 #@! TO.N,Net-(K5-Pad3)*
X22460000Y-17540000D03*
G04 #@! TO.N,Net-(K5-Pad2)*
X22460000Y-15000000D03*
G04 #@! TO.N,+3V3*
X22460000Y-9920000D03*
G04 #@! TD*
G04 #@! TO.N,Band6*
G04 #@! TO.C,K6*
X14540000Y-9920000D03*
G04 #@! TO.N,Net-(K6-Pad2)*
X14540000Y-15000000D03*
G04 #@! TO.N,Net-(K5-Pad3)*
X14540000Y-17540000D03*
G04 #@! TO.N,Net-(C26-Pad2)*
X14540000Y-20080000D03*
G04 #@! TO.N,Net-(C24-Pad2)*
X9460000Y-20080000D03*
G04 #@! TO.N,RFInput*
X9460000Y-17540000D03*
G04 #@! TO.N,Net-(K6-Pad2)*
X9460000Y-15000000D03*
G04 #@! TO.N,+3V3*
X9460000Y-9920000D03*
G04 #@! TD*
G04 #@! TO.N,Band7*
G04 #@! TO.C,K7*
X88680000Y-27740000D03*
G04 #@! TO.N,Net-(C49-Pad1)*
X83600000Y-27740000D03*
G04 #@! TO.N,FilterOut*
X81060000Y-27740000D03*
G04 #@! TO.N,Net-(K7-Pad4)*
X78520000Y-27740000D03*
X78520000Y-22660000D03*
G04 #@! TO.N,Net-(K1-Pad3)*
X81060000Y-22660000D03*
G04 #@! TO.N,Net-(C47-Pad2)*
X83600000Y-22660000D03*
G04 #@! TO.N,+3V3*
X88680000Y-22660000D03*
G04 #@! TD*
D17*
G04 #@! TO.N,Net-(CN2-Pad19)*
G04 #@! TO.C,CN5*
X57300000Y-5300000D03*
D18*
G04 #@! TO.N,Net-(CN2-Pad20)*
X57300000Y-7840000D03*
G04 #@! TO.N,GND*
X57300000Y-10380000D03*
G04 #@! TD*
D19*
G04 #@! TO.N,GND*
G04 #@! TO.C,J3*
X67588000Y-1134000D03*
G04 #@! TD*
G04 #@! TO.N,GND*
G04 #@! TO.C,CN2*
X9168000Y-1134000D03*
D20*
G04 #@! TO.N,RFInput*
X11708000Y-1134000D03*
G04 #@! TO.N,GND*
X14248000Y-1134000D03*
X16788000Y-1134000D03*
X19328000Y-1134000D03*
G04 #@! TO.N,Net-(CN2-Pad6)*
X21868000Y-1134000D03*
G04 #@! TO.N,GND*
X24408000Y-1134000D03*
X26948000Y-1134000D03*
X29488000Y-1134000D03*
G04 #@! TO.N,Net-(CN2-Pad10)*
X32028000Y-1134000D03*
G04 #@! TO.N,GND*
X34568000Y-1134000D03*
X37108000Y-1134000D03*
G04 #@! TO.N,INTTR*
X39648000Y-1134000D03*
G04 #@! TO.N,Net-(CN2-Pad14)*
X42188000Y-1134000D03*
G04 #@! TO.N,Net-(CN1-Pad1)*
X44728000Y-1134000D03*
G04 #@! TO.N,Net-(CN2-Pad16)*
X47268000Y-1134000D03*
G04 #@! TO.N,Net-(CN2-Pad17)*
X49808000Y-1134000D03*
G04 #@! TO.N,Net-(CN2-Pad18)*
X52348000Y-1134000D03*
G04 #@! TO.N,Net-(CN2-Pad19)*
X54888000Y-1134000D03*
G04 #@! TO.N,Net-(CN2-Pad20)*
X57428000Y-1134000D03*
G04 #@! TD*
D21*
G04 #@! TO.N,Net-(P13-Pad1)*
G04 #@! TO.C,P13*
X52000000Y-45800000D03*
G04 #@! TD*
D14*
G04 #@! TO.N,Net-(CN2-Pad14)*
G04 #@! TO.C,P8*
X42800000Y-5000000D03*
G04 #@! TD*
G04 #@! TO.N,INTTR*
G04 #@! TO.C,P14*
X40700000Y-5000000D03*
G04 #@! TD*
G04 #@! TO.N,Net-(CN1-Pad1)*
G04 #@! TO.C,P16*
X45000000Y-5000000D03*
G04 #@! TD*
D10*
G04 #@! TO.N,GND*
G04 #@! TO.C,REF\002A\002A*
X17900000Y-10300000D03*
G04 #@! TD*
D22*
G04 #@! TO.N,GND*
G04 #@! TO.C,CN1*
X12000000Y-44500000D03*
D23*
G04 #@! TO.N,Net-(CN1-Pad1)*
X12000000Y-40000000D03*
G04 #@! TD*
D10*
G04 #@! TO.N,Net-(CN2-Pad6)*
G04 #@! TO.C,P15*
X20800000Y-5400000D03*
G04 #@! TD*
D24*
G04 #@! TO.N,GND*
X73400000Y-43800000D03*
X49800000Y-35800000D03*
G04 #@! TO.N,Band1*
X43000000Y-15600000D03*
G04 #@! TO.N,Band2*
X44400000Y-14600000D03*
G04 #@! TO.N,Band5*
X33500000Y-10800000D03*
G04 #@! TO.N,Band6*
X23500000Y-33000000D03*
X35200000Y-32800000D03*
G04 #@! TO.N,Band7*
X49400000Y-23800000D03*
G04 #@! TO.N,INTTR*
X51600000Y-36200000D03*
G04 #@! TO.N,Net-(P13-Pad1)*
X47800000Y-41300000D03*
D14*
G04 #@! TO.N,+3V3*
X73900000Y-27800000D03*
D25*
X60700000Y-39800000D03*
X53300000Y-43400000D03*
X40100000Y-44800000D03*
X52000000Y-37400000D03*
X39500000Y-28400000D03*
X15200000Y-3400000D03*
D14*
X61500000Y-3900000D03*
D25*
X48800000Y-40400000D03*
D24*
X36500000Y-4100000D03*
D25*
X25300000Y-4100000D03*
X48400000Y-3400000D03*
X46200000Y-3400000D03*
G04 #@! TO.N,Net-(CN1-Pad1)*
X17600000Y-13700000D03*
G04 #@! TO.N,Net-(CN2-Pad18)*
X53800000Y-4900000D03*
G04 #@! TD*
D26*
G04 #@! TO.N,GND*
G36*
X7918000Y-734000D02*
X8018000Y-834000D01*
X8868000Y-834000D01*
X8868000Y-814000D01*
X9468000Y-814000D01*
X9468000Y-834000D01*
X9488000Y-834000D01*
X9488000Y-1434000D01*
X9468000Y-1434000D01*
X9468000Y-2284000D01*
X9568000Y-2384000D01*
X10097565Y-2384000D01*
X10244582Y-2323104D01*
X10357104Y-2210582D01*
X10418000Y-2063565D01*
X10418000Y-1813310D01*
X10662608Y-2179392D01*
X11142238Y-2499870D01*
X11565188Y-2584000D01*
X11850812Y-2584000D01*
X12273762Y-2499870D01*
X12753392Y-2179392D01*
X13073870Y-1699762D01*
X13126733Y-1434002D01*
X13134506Y-1434002D01*
X13096376Y-1620139D01*
X13370075Y-2023841D01*
X13761866Y-2285596D01*
X13948000Y-2244180D01*
X13948000Y-1434000D01*
X14548000Y-1434000D01*
X14548000Y-2244180D01*
X14734134Y-2285596D01*
X15125925Y-2023841D01*
X15399624Y-1620139D01*
X15636376Y-1620139D01*
X15910075Y-2023841D01*
X16301866Y-2285596D01*
X16488000Y-2244180D01*
X16488000Y-1434000D01*
X17088000Y-1434000D01*
X17088000Y-2244180D01*
X17274134Y-2285596D01*
X17665925Y-2023841D01*
X17939624Y-1620139D01*
X18176376Y-1620139D01*
X18450075Y-2023841D01*
X18841866Y-2285596D01*
X19028000Y-2244180D01*
X19028000Y-1434000D01*
X18214506Y-1434000D01*
X18176376Y-1620139D01*
X17939624Y-1620139D01*
X17901494Y-1434000D01*
X17088000Y-1434000D01*
X16488000Y-1434000D01*
X15674506Y-1434000D01*
X15636376Y-1620139D01*
X15399624Y-1620139D01*
X15361494Y-1434000D01*
X14548000Y-1434000D01*
X13948000Y-1434000D01*
X13928000Y-1434000D01*
X13928000Y-834000D01*
X13948000Y-834000D01*
X13948000Y-814000D01*
X14548000Y-814000D01*
X14548000Y-834000D01*
X15361494Y-834000D01*
X15394065Y-675000D01*
X15641935Y-675000D01*
X15674506Y-834000D01*
X16488000Y-834000D01*
X16488000Y-814000D01*
X17088000Y-814000D01*
X17088000Y-834000D01*
X17901494Y-834000D01*
X17934065Y-675000D01*
X18181935Y-675000D01*
X18214506Y-834000D01*
X19028000Y-834000D01*
X19028000Y-814000D01*
X19628000Y-814000D01*
X19628000Y-834000D01*
X19648000Y-834000D01*
X19648000Y-1434000D01*
X19628000Y-1434000D01*
X19628000Y-2244180D01*
X19814134Y-2285596D01*
X20205925Y-2023841D01*
X20479624Y-1620139D01*
X20441494Y-1434002D01*
X20449267Y-1434002D01*
X20502130Y-1699762D01*
X20822608Y-2179392D01*
X21302238Y-2499870D01*
X21725188Y-2584000D01*
X22010812Y-2584000D01*
X22433762Y-2499870D01*
X22913392Y-2179392D01*
X23233870Y-1699762D01*
X23286733Y-1434002D01*
X23294506Y-1434002D01*
X23256376Y-1620139D01*
X23530075Y-2023841D01*
X23921866Y-2285596D01*
X24108000Y-2244180D01*
X24108000Y-1434000D01*
X24708000Y-1434000D01*
X24708000Y-2244180D01*
X24894134Y-2285596D01*
X25285925Y-2023841D01*
X25559624Y-1620139D01*
X25796376Y-1620139D01*
X26070075Y-2023841D01*
X26461866Y-2285596D01*
X26648000Y-2244180D01*
X26648000Y-1434000D01*
X27248000Y-1434000D01*
X27248000Y-2244180D01*
X27434134Y-2285596D01*
X27825925Y-2023841D01*
X28099624Y-1620139D01*
X28336376Y-1620139D01*
X28610075Y-2023841D01*
X29001866Y-2285596D01*
X29188000Y-2244180D01*
X29188000Y-1434000D01*
X28374506Y-1434000D01*
X28336376Y-1620139D01*
X28099624Y-1620139D01*
X28061494Y-1434000D01*
X27248000Y-1434000D01*
X26648000Y-1434000D01*
X25834506Y-1434000D01*
X25796376Y-1620139D01*
X25559624Y-1620139D01*
X25521494Y-1434000D01*
X24708000Y-1434000D01*
X24108000Y-1434000D01*
X24088000Y-1434000D01*
X24088000Y-834000D01*
X24108000Y-834000D01*
X24108000Y-814000D01*
X24708000Y-814000D01*
X24708000Y-834000D01*
X25521494Y-834000D01*
X25554065Y-675000D01*
X25801935Y-675000D01*
X25834506Y-834000D01*
X26648000Y-834000D01*
X26648000Y-814000D01*
X27248000Y-814000D01*
X27248000Y-834000D01*
X28061494Y-834000D01*
X28094065Y-675000D01*
X28341935Y-675000D01*
X28374506Y-834000D01*
X29188000Y-834000D01*
X29188000Y-814000D01*
X29788000Y-814000D01*
X29788000Y-834000D01*
X29808000Y-834000D01*
X29808000Y-1434000D01*
X29788000Y-1434000D01*
X29788000Y-2244180D01*
X29974134Y-2285596D01*
X30365925Y-2023841D01*
X30639624Y-1620139D01*
X30601494Y-1434002D01*
X30609267Y-1434002D01*
X30662130Y-1699762D01*
X30982608Y-2179392D01*
X31462238Y-2499870D01*
X31885188Y-2584000D01*
X32170812Y-2584000D01*
X32593762Y-2499870D01*
X33073392Y-2179392D01*
X33393870Y-1699762D01*
X33446733Y-1434002D01*
X33454506Y-1434002D01*
X33416376Y-1620139D01*
X33690075Y-2023841D01*
X34081866Y-2285596D01*
X34268000Y-2244180D01*
X34268000Y-1434000D01*
X34868000Y-1434000D01*
X34868000Y-2244180D01*
X35054134Y-2285596D01*
X35445925Y-2023841D01*
X35719624Y-1620139D01*
X35956376Y-1620139D01*
X36230075Y-2023841D01*
X36621866Y-2285596D01*
X36808000Y-2244180D01*
X36808000Y-1434000D01*
X35994506Y-1434000D01*
X35956376Y-1620139D01*
X35719624Y-1620139D01*
X35681494Y-1434000D01*
X34868000Y-1434000D01*
X34268000Y-1434000D01*
X34248000Y-1434000D01*
X34248000Y-834000D01*
X34268000Y-834000D01*
X34268000Y-814000D01*
X34868000Y-814000D01*
X34868000Y-834000D01*
X35681494Y-834000D01*
X35714065Y-675000D01*
X35961935Y-675000D01*
X35994506Y-834000D01*
X36808000Y-834000D01*
X36808000Y-814000D01*
X37408000Y-814000D01*
X37408000Y-834000D01*
X37428000Y-834000D01*
X37428000Y-1434000D01*
X37408000Y-1434000D01*
X37408000Y-2244180D01*
X37594134Y-2285596D01*
X37985925Y-2023841D01*
X38259624Y-1620139D01*
X38221494Y-1434002D01*
X38229267Y-1434002D01*
X38282130Y-1699762D01*
X38602608Y-2179392D01*
X39082238Y-2499870D01*
X39505188Y-2584000D01*
X39790812Y-2584000D01*
X40213762Y-2499870D01*
X40693392Y-2179392D01*
X40918000Y-1843242D01*
X41142608Y-2179392D01*
X41622238Y-2499870D01*
X42045188Y-2584000D01*
X42330812Y-2584000D01*
X42753762Y-2499870D01*
X43233392Y-2179392D01*
X43458000Y-1843242D01*
X43682608Y-2179392D01*
X44162238Y-2499870D01*
X44585188Y-2584000D01*
X44870812Y-2584000D01*
X45293762Y-2499870D01*
X45773392Y-2179392D01*
X45998000Y-1843242D01*
X46222608Y-2179392D01*
X46702238Y-2499870D01*
X47125188Y-2584000D01*
X47410812Y-2584000D01*
X47833762Y-2499870D01*
X48313392Y-2179392D01*
X48538000Y-1843242D01*
X48762608Y-2179392D01*
X49242238Y-2499870D01*
X49665188Y-2584000D01*
X49950812Y-2584000D01*
X50373762Y-2499870D01*
X50853392Y-2179392D01*
X51078000Y-1843242D01*
X51302608Y-2179392D01*
X51782238Y-2499870D01*
X52205188Y-2584000D01*
X52490812Y-2584000D01*
X52913762Y-2499870D01*
X53393392Y-2179392D01*
X53618000Y-1843242D01*
X53842608Y-2179392D01*
X54322238Y-2499870D01*
X54745188Y-2584000D01*
X55030812Y-2584000D01*
X55453762Y-2499870D01*
X55933392Y-2179392D01*
X56158000Y-1843242D01*
X56382608Y-2179392D01*
X56862238Y-2499870D01*
X57285188Y-2584000D01*
X57570812Y-2584000D01*
X57993762Y-2499870D01*
X58473392Y-2179392D01*
X58793870Y-1699762D01*
X58826842Y-1534000D01*
X66338000Y-1534000D01*
X66338000Y-2063565D01*
X66398896Y-2210582D01*
X66511418Y-2323104D01*
X66658435Y-2384000D01*
X67188000Y-2384000D01*
X67288000Y-2284000D01*
X67288000Y-1434000D01*
X67888000Y-1434000D01*
X67888000Y-2284000D01*
X67988000Y-2384000D01*
X68517565Y-2384000D01*
X68664582Y-2323104D01*
X68777104Y-2210582D01*
X68838000Y-2063565D01*
X68838000Y-1534000D01*
X68738000Y-1434000D01*
X67888000Y-1434000D01*
X67288000Y-1434000D01*
X66438000Y-1434000D01*
X66338000Y-1534000D01*
X58826842Y-1534000D01*
X58906407Y-1134000D01*
X58815106Y-675000D01*
X66338000Y-675000D01*
X66338000Y-734000D01*
X66438000Y-834000D01*
X67288000Y-834000D01*
X67288000Y-814000D01*
X67888000Y-814000D01*
X67888000Y-834000D01*
X68738000Y-834000D01*
X68838000Y-734000D01*
X68838000Y-675000D01*
X99325000Y-675000D01*
X99325001Y-49325000D01*
X70675000Y-49325000D01*
X70675000Y-48066481D01*
X70688224Y-48000000D01*
X70635836Y-47736628D01*
X70486648Y-47513352D01*
X70400000Y-47455456D01*
X70400000Y-45400000D01*
X70300000Y-45300000D01*
X68100000Y-45300000D01*
X68100000Y-45320000D01*
X67500000Y-45320000D01*
X67500000Y-45300000D01*
X67480000Y-45300000D01*
X67480000Y-44700000D01*
X67500000Y-44700000D01*
X67500000Y-42100000D01*
X68100000Y-42100000D01*
X68100000Y-44700000D01*
X70300000Y-44700000D01*
X70400000Y-44600000D01*
X70400000Y-42320435D01*
X70339104Y-42173418D01*
X70226582Y-42060896D01*
X70079565Y-42000000D01*
X68200000Y-42000000D01*
X68100000Y-42100000D01*
X67500000Y-42100000D01*
X67400000Y-42000000D01*
X65520435Y-42000000D01*
X65373418Y-42060896D01*
X65326428Y-42107886D01*
X65232575Y-41967425D01*
X65034108Y-41834813D01*
X64800000Y-41788246D01*
X63200000Y-41788246D01*
X62965892Y-41834813D01*
X62767425Y-41967425D01*
X62673572Y-42107886D01*
X62626582Y-42060896D01*
X62479565Y-42000000D01*
X60600000Y-42000000D01*
X60500000Y-42100000D01*
X60500000Y-44700000D01*
X60520000Y-44700000D01*
X60520000Y-45300000D01*
X60500000Y-45300000D01*
X60500000Y-45320000D01*
X59900000Y-45320000D01*
X59900000Y-45300000D01*
X57700000Y-45300000D01*
X57600000Y-45400000D01*
X57600000Y-47455456D01*
X57513352Y-47513352D01*
X57364164Y-47736628D01*
X57311776Y-48000000D01*
X57325001Y-48066486D01*
X57325000Y-49325000D01*
X38675000Y-49325000D01*
X38675000Y-48066481D01*
X38688224Y-48000000D01*
X38635836Y-47736628D01*
X38486648Y-47513352D01*
X38400000Y-47455456D01*
X38400000Y-45400000D01*
X38300000Y-45300000D01*
X36100000Y-45300000D01*
X36100000Y-45320000D01*
X35500000Y-45320000D01*
X35500000Y-45300000D01*
X35480000Y-45300000D01*
X35480000Y-44700000D01*
X35500000Y-44700000D01*
X35500000Y-42100000D01*
X36100000Y-42100000D01*
X36100000Y-44700000D01*
X38300000Y-44700000D01*
X38398912Y-44601088D01*
X39100000Y-44601088D01*
X39100000Y-44998912D01*
X39252241Y-45366454D01*
X39533546Y-45647759D01*
X39901088Y-45800000D01*
X40298912Y-45800000D01*
X40666454Y-45647759D01*
X40832371Y-45481842D01*
X50400510Y-45481842D01*
X50400510Y-46118158D01*
X50644018Y-46706038D01*
X51093962Y-47155982D01*
X51681842Y-47399490D01*
X52318158Y-47399490D01*
X52906038Y-47155982D01*
X53355982Y-46706038D01*
X53599490Y-46118158D01*
X53599490Y-45481842D01*
X53355982Y-44893962D01*
X52906038Y-44444018D01*
X52318158Y-44200510D01*
X51681842Y-44200510D01*
X51093962Y-44444018D01*
X50644018Y-44893962D01*
X50400510Y-45481842D01*
X40832371Y-45481842D01*
X40947759Y-45366454D01*
X41100000Y-44998912D01*
X41100000Y-44601088D01*
X40947759Y-44233546D01*
X40666454Y-43952241D01*
X40298912Y-43800000D01*
X39901088Y-43800000D01*
X39533546Y-43952241D01*
X39252241Y-44233546D01*
X39100000Y-44601088D01*
X38398912Y-44601088D01*
X38400000Y-44600000D01*
X38400000Y-43201088D01*
X52300000Y-43201088D01*
X52300000Y-43598912D01*
X52452241Y-43966454D01*
X52733546Y-44247759D01*
X53101088Y-44400000D01*
X53498912Y-44400000D01*
X53866454Y-44247759D01*
X54147759Y-43966454D01*
X54300000Y-43598912D01*
X54300000Y-43201088D01*
X54147759Y-42833546D01*
X53866454Y-42552241D01*
X53498912Y-42400000D01*
X53101088Y-42400000D01*
X52733546Y-42552241D01*
X52452241Y-42833546D01*
X52300000Y-43201088D01*
X38400000Y-43201088D01*
X38400000Y-42320435D01*
X57600000Y-42320435D01*
X57600000Y-44600000D01*
X57700000Y-44700000D01*
X59900000Y-44700000D01*
X59900000Y-42100000D01*
X59800000Y-42000000D01*
X57920435Y-42000000D01*
X57773418Y-42060896D01*
X57660896Y-42173418D01*
X57600000Y-42320435D01*
X38400000Y-42320435D01*
X38339104Y-42173418D01*
X38226582Y-42060896D01*
X38079565Y-42000000D01*
X36200000Y-42000000D01*
X36100000Y-42100000D01*
X35500000Y-42100000D01*
X35400000Y-42000000D01*
X33520435Y-42000000D01*
X33373418Y-42060896D01*
X33326428Y-42107886D01*
X33232575Y-41967425D01*
X33034108Y-41834813D01*
X32800000Y-41788246D01*
X31200000Y-41788246D01*
X30965892Y-41834813D01*
X30767425Y-41967425D01*
X30673572Y-42107886D01*
X30626582Y-42060896D01*
X30479565Y-42000000D01*
X28600000Y-42000000D01*
X28500000Y-42100000D01*
X28500000Y-44700000D01*
X28520000Y-44700000D01*
X28520000Y-45300000D01*
X28500000Y-45300000D01*
X28500000Y-45320000D01*
X27900000Y-45320000D01*
X27900000Y-45300000D01*
X25700000Y-45300000D01*
X25600000Y-45400000D01*
X25600000Y-47455456D01*
X25513352Y-47513352D01*
X25364164Y-47736628D01*
X25311776Y-48000000D01*
X25325001Y-48066486D01*
X25325000Y-49325000D01*
X17014344Y-49325000D01*
X17292276Y-49209877D01*
X17809877Y-48692276D01*
X18090000Y-48015999D01*
X18090000Y-47284001D01*
X17809877Y-46607724D01*
X17292276Y-46090123D01*
X16615999Y-45810000D01*
X15884001Y-45810000D01*
X15207724Y-46090123D01*
X14690123Y-46607724D01*
X14410000Y-47284001D01*
X14410000Y-48015999D01*
X14690123Y-48692276D01*
X15207724Y-49209877D01*
X15485656Y-49325000D01*
X8409818Y-49325000D01*
X8769618Y-49175966D01*
X9275966Y-48669618D01*
X9550000Y-48008042D01*
X9550000Y-47291958D01*
X9275966Y-46630382D01*
X9076363Y-46430779D01*
X10493485Y-46430779D01*
X10754866Y-46724170D01*
X11700800Y-47031357D01*
X12692284Y-46953168D01*
X13245134Y-46724170D01*
X13506515Y-46430779D01*
X12000000Y-44924264D01*
X10493485Y-46430779D01*
X9076363Y-46430779D01*
X8769618Y-46124034D01*
X8108042Y-45850000D01*
X7391958Y-45850000D01*
X6730382Y-46124034D01*
X6224034Y-46630382D01*
X5950000Y-47291958D01*
X5950000Y-48008042D01*
X6224034Y-48669618D01*
X6730382Y-49175966D01*
X7090182Y-49325000D01*
X675000Y-49325000D01*
X675000Y-44200800D01*
X9468643Y-44200800D01*
X9546832Y-45192284D01*
X9775830Y-45745134D01*
X10069221Y-46006515D01*
X11575736Y-44500000D01*
X12424264Y-44500000D01*
X13930779Y-46006515D01*
X14224170Y-45745134D01*
X14531357Y-44799200D01*
X14453168Y-43807716D01*
X14224170Y-43254866D01*
X13930779Y-42993485D01*
X12424264Y-44500000D01*
X11575736Y-44500000D01*
X10069221Y-42993485D01*
X9775830Y-43254866D01*
X9468643Y-44200800D01*
X675000Y-44200800D01*
X675000Y-39532556D01*
X9650000Y-39532556D01*
X9650000Y-40467444D01*
X10007766Y-41331168D01*
X10668832Y-41992234D01*
X11054180Y-42151850D01*
X10754866Y-42275830D01*
X10493485Y-42569221D01*
X12000000Y-44075736D01*
X13506515Y-42569221D01*
X13284873Y-42320435D01*
X25600000Y-42320435D01*
X25600000Y-44600000D01*
X25700000Y-44700000D01*
X27900000Y-44700000D01*
X27900000Y-42100000D01*
X27800000Y-42000000D01*
X25920435Y-42000000D01*
X25773418Y-42060896D01*
X25660896Y-42173418D01*
X25600000Y-42320435D01*
X13284873Y-42320435D01*
X13245134Y-42275830D01*
X12909581Y-42166861D01*
X13331168Y-41992234D01*
X13992234Y-41331168D01*
X14079297Y-41120979D01*
X46900000Y-41120979D01*
X46900000Y-41479021D01*
X47037017Y-41809809D01*
X47290191Y-42062983D01*
X47620979Y-42200000D01*
X47979021Y-42200000D01*
X48309809Y-42062983D01*
X48562983Y-41809809D01*
X48700000Y-41479021D01*
X48700000Y-41400000D01*
X48998912Y-41400000D01*
X49366454Y-41247759D01*
X49647759Y-40966454D01*
X49800000Y-40598912D01*
X49800000Y-40201088D01*
X49647759Y-39833546D01*
X49415301Y-39601088D01*
X59700000Y-39601088D01*
X59700000Y-39998912D01*
X59852241Y-40366454D01*
X60133546Y-40647759D01*
X60501088Y-40800000D01*
X60898912Y-40800000D01*
X61266454Y-40647759D01*
X61547759Y-40366454D01*
X61700000Y-39998912D01*
X61700000Y-39601088D01*
X61547759Y-39233546D01*
X61314213Y-39000000D01*
X78388246Y-39000000D01*
X78388246Y-41200000D01*
X78434813Y-41434108D01*
X78567425Y-41632575D01*
X78765892Y-41765187D01*
X79000000Y-41811754D01*
X79830515Y-41811754D01*
X79446861Y-42195408D01*
X79149990Y-42912119D01*
X79149990Y-43687881D01*
X79446861Y-44404592D01*
X79995408Y-44953139D01*
X80712119Y-45250010D01*
X81487881Y-45250010D01*
X82204592Y-44953139D01*
X82753139Y-44404592D01*
X83050010Y-43687881D01*
X83050010Y-42912119D01*
X82753139Y-42195408D01*
X82369485Y-41811754D01*
X83200000Y-41811754D01*
X83434108Y-41765187D01*
X83632575Y-41632575D01*
X83765187Y-41434108D01*
X83811754Y-41200000D01*
X83811754Y-39000000D01*
X83765187Y-38765892D01*
X83632575Y-38567425D01*
X83434108Y-38434813D01*
X83200000Y-38388246D01*
X79000000Y-38388246D01*
X78765892Y-38434813D01*
X78567425Y-38567425D01*
X78434813Y-38765892D01*
X78388246Y-39000000D01*
X61314213Y-39000000D01*
X61266454Y-38952241D01*
X60898912Y-38800000D01*
X60501088Y-38800000D01*
X60133546Y-38952241D01*
X59852241Y-39233546D01*
X59700000Y-39601088D01*
X49415301Y-39601088D01*
X49366454Y-39552241D01*
X48998912Y-39400000D01*
X48601088Y-39400000D01*
X48233546Y-39552241D01*
X47952241Y-39833546D01*
X47800000Y-40201088D01*
X47800000Y-40400000D01*
X47620979Y-40400000D01*
X47290191Y-40537017D01*
X47037017Y-40790191D01*
X46900000Y-41120979D01*
X14079297Y-41120979D01*
X14350000Y-40467444D01*
X14350000Y-39532556D01*
X13992234Y-38668832D01*
X13331168Y-38007766D01*
X12467444Y-37650000D01*
X11532556Y-37650000D01*
X10668832Y-38007766D01*
X10007766Y-38668832D01*
X9650000Y-39532556D01*
X675000Y-39532556D01*
X675000Y-36020979D01*
X50700000Y-36020979D01*
X50700000Y-36379021D01*
X50837017Y-36709809D01*
X51090191Y-36962983D01*
X51097391Y-36965965D01*
X51000000Y-37201088D01*
X51000000Y-37598912D01*
X51152241Y-37966454D01*
X51433546Y-38247759D01*
X51801088Y-38400000D01*
X52198912Y-38400000D01*
X52566454Y-38247759D01*
X52847759Y-37966454D01*
X53000000Y-37598912D01*
X53000000Y-37201088D01*
X52847759Y-36833546D01*
X52566454Y-36552241D01*
X52448489Y-36503378D01*
X52500000Y-36379021D01*
X52500000Y-36020979D01*
X52362983Y-35690191D01*
X52109809Y-35437017D01*
X51779021Y-35300000D01*
X51420979Y-35300000D01*
X51090191Y-35437017D01*
X50837017Y-35690191D01*
X50700000Y-36020979D01*
X675000Y-36020979D01*
X675000Y-35200000D01*
X78388246Y-35200000D01*
X78388246Y-37400000D01*
X78434813Y-37634108D01*
X78567425Y-37832575D01*
X78765892Y-37965187D01*
X79000000Y-38011754D01*
X83200000Y-38011754D01*
X83434108Y-37965187D01*
X83632575Y-37832575D01*
X83765187Y-37634108D01*
X83811754Y-37400000D01*
X83811754Y-35200000D01*
X83765187Y-34965892D01*
X83632575Y-34767425D01*
X83434108Y-34634813D01*
X83200000Y-34588246D01*
X82409485Y-34588246D01*
X82753139Y-34244592D01*
X83050010Y-33527881D01*
X83050010Y-32752119D01*
X82753139Y-32035408D01*
X82204592Y-31486861D01*
X81487881Y-31189990D01*
X80712119Y-31189990D01*
X79995408Y-31486861D01*
X79446861Y-32035408D01*
X79149990Y-32752119D01*
X79149990Y-33527881D01*
X79446861Y-34244592D01*
X79790515Y-34588246D01*
X79000000Y-34588246D01*
X78765892Y-34634813D01*
X78567425Y-34767425D01*
X78434813Y-34965892D01*
X78388246Y-35200000D01*
X675000Y-35200000D01*
X675000Y-32820979D01*
X22600000Y-32820979D01*
X22600000Y-33179021D01*
X22737017Y-33509809D01*
X22990191Y-33762983D01*
X23320979Y-33900000D01*
X23679021Y-33900000D01*
X24009809Y-33762983D01*
X24262983Y-33509809D01*
X24400000Y-33179021D01*
X24400000Y-32820979D01*
X24317158Y-32620979D01*
X34300000Y-32620979D01*
X34300000Y-32979021D01*
X34437017Y-33309809D01*
X34690191Y-33562983D01*
X35020979Y-33700000D01*
X35379021Y-33700000D01*
X35709809Y-33562983D01*
X35962983Y-33309809D01*
X36100000Y-32979021D01*
X36100000Y-32620979D01*
X35962983Y-32290191D01*
X35709809Y-32037017D01*
X35379021Y-31900000D01*
X35020979Y-31900000D01*
X34690191Y-32037017D01*
X34437017Y-32290191D01*
X34300000Y-32620979D01*
X24317158Y-32620979D01*
X24262983Y-32490191D01*
X24009809Y-32237017D01*
X23679021Y-32100000D01*
X23320979Y-32100000D01*
X22990191Y-32237017D01*
X22737017Y-32490191D01*
X22600000Y-32820979D01*
X675000Y-32820979D01*
X675000Y-30781196D01*
X89400000Y-30781196D01*
X89400000Y-31218804D01*
X89567465Y-31623100D01*
X89876900Y-31932535D01*
X90281196Y-32100000D01*
X90718804Y-32100000D01*
X91123100Y-31932535D01*
X91432535Y-31623100D01*
X91600000Y-31218804D01*
X91600000Y-30781196D01*
X91432535Y-30376900D01*
X91123100Y-30067465D01*
X90718804Y-29900000D01*
X90281196Y-29900000D01*
X89876900Y-30067465D01*
X89567465Y-30376900D01*
X89400000Y-30781196D01*
X675000Y-30781196D01*
X675000Y-28201088D01*
X38500000Y-28201088D01*
X38500000Y-28598912D01*
X38652241Y-28966454D01*
X38933546Y-29247759D01*
X39301088Y-29400000D01*
X39698912Y-29400000D01*
X40066454Y-29247759D01*
X40347759Y-28966454D01*
X40500000Y-28598912D01*
X40500000Y-28201088D01*
X40347759Y-27833546D01*
X40095409Y-27581196D01*
X72800000Y-27581196D01*
X72800000Y-28018804D01*
X72967465Y-28423100D01*
X73276900Y-28732535D01*
X73681196Y-28900000D01*
X74118804Y-28900000D01*
X74523100Y-28732535D01*
X74832535Y-28423100D01*
X75000000Y-28018804D01*
X75000000Y-27581196D01*
X74940131Y-27436659D01*
X76995000Y-27436659D01*
X76995000Y-28043341D01*
X77227167Y-28603843D01*
X77656157Y-29032833D01*
X78216659Y-29265000D01*
X78823341Y-29265000D01*
X79383843Y-29032833D01*
X79790000Y-28626676D01*
X80196157Y-29032833D01*
X80756659Y-29265000D01*
X81363341Y-29265000D01*
X81923843Y-29032833D01*
X82330000Y-28626676D01*
X82736157Y-29032833D01*
X83296659Y-29265000D01*
X83903341Y-29265000D01*
X84463843Y-29032833D01*
X84892833Y-28603843D01*
X85125000Y-28043341D01*
X85125000Y-27436659D01*
X87155000Y-27436659D01*
X87155000Y-28043341D01*
X87387167Y-28603843D01*
X87816157Y-29032833D01*
X88376659Y-29265000D01*
X88983341Y-29265000D01*
X89543843Y-29032833D01*
X89972833Y-28603843D01*
X90205000Y-28043341D01*
X90205000Y-27436659D01*
X89972833Y-26876157D01*
X89543843Y-26447167D01*
X88983341Y-26215000D01*
X88376659Y-26215000D01*
X87816157Y-26447167D01*
X87387167Y-26876157D01*
X87155000Y-27436659D01*
X85125000Y-27436659D01*
X84892833Y-26876157D01*
X84463843Y-26447167D01*
X83903341Y-26215000D01*
X83296659Y-26215000D01*
X82736157Y-26447167D01*
X82330000Y-26853324D01*
X81923843Y-26447167D01*
X81363341Y-26215000D01*
X80756659Y-26215000D01*
X80196157Y-26447167D01*
X79790000Y-26853324D01*
X79383843Y-26447167D01*
X78823341Y-26215000D01*
X78216659Y-26215000D01*
X77656157Y-26447167D01*
X77227167Y-26876157D01*
X76995000Y-27436659D01*
X74940131Y-27436659D01*
X74832535Y-27176900D01*
X74523100Y-26867465D01*
X74118804Y-26700000D01*
X73681196Y-26700000D01*
X73276900Y-26867465D01*
X72967465Y-27176900D01*
X72800000Y-27581196D01*
X40095409Y-27581196D01*
X40066454Y-27552241D01*
X39698912Y-27400000D01*
X39301088Y-27400000D01*
X38933546Y-27552241D01*
X38652241Y-27833546D01*
X38500000Y-28201088D01*
X675000Y-28201088D01*
X675000Y-23620979D01*
X48500000Y-23620979D01*
X48500000Y-23979021D01*
X48637017Y-24309809D01*
X48890191Y-24562983D01*
X49220979Y-24700000D01*
X49579021Y-24700000D01*
X49909809Y-24562983D01*
X50162983Y-24309809D01*
X50300000Y-23979021D01*
X50300000Y-23620979D01*
X50162983Y-23290191D01*
X49909809Y-23037017D01*
X49579021Y-22900000D01*
X49220979Y-22900000D01*
X48890191Y-23037017D01*
X48637017Y-23290191D01*
X48500000Y-23620979D01*
X675000Y-23620979D01*
X675000Y-22356659D01*
X76995000Y-22356659D01*
X76995000Y-22963341D01*
X77227167Y-23523843D01*
X77656157Y-23952833D01*
X78216659Y-24185000D01*
X78823341Y-24185000D01*
X79383843Y-23952833D01*
X79790000Y-23546676D01*
X80196157Y-23952833D01*
X80756659Y-24185000D01*
X81363341Y-24185000D01*
X81923843Y-23952833D01*
X82330000Y-23546676D01*
X82736157Y-23952833D01*
X83296659Y-24185000D01*
X83903341Y-24185000D01*
X84463843Y-23952833D01*
X84892833Y-23523843D01*
X85125000Y-22963341D01*
X85125000Y-22356659D01*
X87155000Y-22356659D01*
X87155000Y-22963341D01*
X87387167Y-23523843D01*
X87816157Y-23952833D01*
X88376659Y-24185000D01*
X88983341Y-24185000D01*
X89543843Y-23952833D01*
X89972833Y-23523843D01*
X90205000Y-22963341D01*
X90205000Y-22356659D01*
X89972833Y-21796157D01*
X89543843Y-21367167D01*
X88983341Y-21135000D01*
X88376659Y-21135000D01*
X87816157Y-21367167D01*
X87387167Y-21796157D01*
X87155000Y-22356659D01*
X85125000Y-22356659D01*
X84892833Y-21796157D01*
X84463843Y-21367167D01*
X83903341Y-21135000D01*
X83296659Y-21135000D01*
X82736157Y-21367167D01*
X82330000Y-21773324D01*
X81923843Y-21367167D01*
X81363341Y-21135000D01*
X80756659Y-21135000D01*
X80196157Y-21367167D01*
X79790000Y-21773324D01*
X79383843Y-21367167D01*
X78823341Y-21135000D01*
X78216659Y-21135000D01*
X77656157Y-21367167D01*
X77227167Y-21796157D01*
X76995000Y-22356659D01*
X675000Y-22356659D01*
X675000Y-14696659D01*
X7935000Y-14696659D01*
X7935000Y-15303341D01*
X8167167Y-15863843D01*
X8573324Y-16270000D01*
X8167167Y-16676157D01*
X7935000Y-17236659D01*
X7935000Y-17843341D01*
X8167167Y-18403843D01*
X8573324Y-18810000D01*
X8167167Y-19216157D01*
X7935000Y-19776659D01*
X7935000Y-20383341D01*
X8167167Y-20943843D01*
X8596157Y-21372833D01*
X9156659Y-21605000D01*
X9763341Y-21605000D01*
X10323843Y-21372833D01*
X10752833Y-20943843D01*
X10985000Y-20383341D01*
X10985000Y-19776659D01*
X10752833Y-19216157D01*
X10346676Y-18810000D01*
X10752833Y-18403843D01*
X10985000Y-17843341D01*
X10985000Y-17236659D01*
X10752833Y-16676157D01*
X10346676Y-16270000D01*
X10752833Y-15863843D01*
X10985000Y-15303341D01*
X10985000Y-14696659D01*
X13015000Y-14696659D01*
X13015000Y-15303341D01*
X13247167Y-15863843D01*
X13653324Y-16270000D01*
X13247167Y-16676157D01*
X13015000Y-17236659D01*
X13015000Y-17843341D01*
X13247167Y-18403843D01*
X13653324Y-18810000D01*
X13247167Y-19216157D01*
X13015000Y-19776659D01*
X13015000Y-20383341D01*
X13247167Y-20943843D01*
X13676157Y-21372833D01*
X14236659Y-21605000D01*
X14843341Y-21605000D01*
X15403843Y-21372833D01*
X15832833Y-20943843D01*
X16065000Y-20383341D01*
X16065000Y-19776659D01*
X15832833Y-19216157D01*
X15426676Y-18810000D01*
X15832833Y-18403843D01*
X16065000Y-17843341D01*
X16065000Y-17236659D01*
X15832833Y-16676157D01*
X15426676Y-16270000D01*
X15832833Y-15863843D01*
X16065000Y-15303341D01*
X16065000Y-14696659D01*
X15832833Y-14136157D01*
X15403843Y-13707167D01*
X14906324Y-13501088D01*
X16600000Y-13501088D01*
X16600000Y-13898912D01*
X16752241Y-14266454D01*
X17033546Y-14547759D01*
X17401088Y-14700000D01*
X17798912Y-14700000D01*
X17806977Y-14696659D01*
X20935000Y-14696659D01*
X20935000Y-15303341D01*
X21167167Y-15863843D01*
X21573324Y-16270000D01*
X21167167Y-16676157D01*
X20935000Y-17236659D01*
X20935000Y-17843341D01*
X21167167Y-18403843D01*
X21573324Y-18810000D01*
X21167167Y-19216157D01*
X20935000Y-19776659D01*
X20935000Y-20383341D01*
X21167167Y-20943843D01*
X21596157Y-21372833D01*
X22156659Y-21605000D01*
X22763341Y-21605000D01*
X23323843Y-21372833D01*
X23752833Y-20943843D01*
X23985000Y-20383341D01*
X23985000Y-19776659D01*
X23752833Y-19216157D01*
X23346676Y-18810000D01*
X23752833Y-18403843D01*
X23985000Y-17843341D01*
X23985000Y-17236659D01*
X23752833Y-16676157D01*
X23346676Y-16270000D01*
X23752833Y-15863843D01*
X23985000Y-15303341D01*
X23985000Y-14696659D01*
X26015000Y-14696659D01*
X26015000Y-15303341D01*
X26247167Y-15863843D01*
X26653324Y-16270000D01*
X26247167Y-16676157D01*
X26015000Y-17236659D01*
X26015000Y-17843341D01*
X26247167Y-18403843D01*
X26653324Y-18810000D01*
X26247167Y-19216157D01*
X26015000Y-19776659D01*
X26015000Y-20383341D01*
X26247167Y-20943843D01*
X26676157Y-21372833D01*
X27236659Y-21605000D01*
X27843341Y-21605000D01*
X28403843Y-21372833D01*
X28832833Y-20943843D01*
X29065000Y-20383341D01*
X29065000Y-19776659D01*
X28832833Y-19216157D01*
X28426676Y-18810000D01*
X28832833Y-18403843D01*
X29065000Y-17843341D01*
X29065000Y-17236659D01*
X28832833Y-16676157D01*
X28426676Y-16270000D01*
X28832833Y-15863843D01*
X29065000Y-15303341D01*
X29065000Y-14696659D01*
X33935000Y-14696659D01*
X33935000Y-15303341D01*
X34167167Y-15863843D01*
X34573324Y-16270000D01*
X34167167Y-16676157D01*
X33935000Y-17236659D01*
X33935000Y-17843341D01*
X34167167Y-18403843D01*
X34573324Y-18810000D01*
X34167167Y-19216157D01*
X33935000Y-19776659D01*
X33935000Y-20383341D01*
X34167167Y-20943843D01*
X34596157Y-21372833D01*
X35156659Y-21605000D01*
X35763341Y-21605000D01*
X36323843Y-21372833D01*
X36752833Y-20943843D01*
X36985000Y-20383341D01*
X36985000Y-19776659D01*
X36752833Y-19216157D01*
X36346676Y-18810000D01*
X36752833Y-18403843D01*
X36985000Y-17843341D01*
X36985000Y-17236659D01*
X36752833Y-16676157D01*
X36346676Y-16270000D01*
X36752833Y-15863843D01*
X36985000Y-15303341D01*
X36985000Y-14696659D01*
X39015000Y-14696659D01*
X39015000Y-15303341D01*
X39247167Y-15863843D01*
X39653324Y-16270000D01*
X39247167Y-16676157D01*
X39015000Y-17236659D01*
X39015000Y-17843341D01*
X39247167Y-18403843D01*
X39653324Y-18810000D01*
X39247167Y-19216157D01*
X39015000Y-19776659D01*
X39015000Y-20383341D01*
X39247167Y-20943843D01*
X39676157Y-21372833D01*
X40236659Y-21605000D01*
X40843341Y-21605000D01*
X41403843Y-21372833D01*
X41832833Y-20943843D01*
X42065000Y-20383341D01*
X42065000Y-19776659D01*
X41832833Y-19216157D01*
X41426676Y-18810000D01*
X41832833Y-18403843D01*
X42065000Y-17843341D01*
X42065000Y-17236659D01*
X41832833Y-16676157D01*
X41426676Y-16270000D01*
X41832833Y-15863843D01*
X42016272Y-15420979D01*
X42100000Y-15420979D01*
X42100000Y-15779021D01*
X42237017Y-16109809D01*
X42490191Y-16362983D01*
X42820979Y-16500000D01*
X43179021Y-16500000D01*
X43509809Y-16362983D01*
X43762983Y-16109809D01*
X43900000Y-15779021D01*
X43900000Y-15420979D01*
X43865927Y-15338719D01*
X43890191Y-15362983D01*
X44220979Y-15500000D01*
X44579021Y-15500000D01*
X44909809Y-15362983D01*
X45162983Y-15109809D01*
X45300000Y-14779021D01*
X45300000Y-14696659D01*
X46935000Y-14696659D01*
X46935000Y-15303341D01*
X47167167Y-15863843D01*
X47573324Y-16270000D01*
X47167167Y-16676157D01*
X46935000Y-17236659D01*
X46935000Y-17843341D01*
X47167167Y-18403843D01*
X47573324Y-18810000D01*
X47167167Y-19216157D01*
X46935000Y-19776659D01*
X46935000Y-20383341D01*
X47167167Y-20943843D01*
X47596157Y-21372833D01*
X48156659Y-21605000D01*
X48763341Y-21605000D01*
X49323843Y-21372833D01*
X49752833Y-20943843D01*
X49985000Y-20383341D01*
X49985000Y-19776659D01*
X49752833Y-19216157D01*
X49346676Y-18810000D01*
X49752833Y-18403843D01*
X49985000Y-17843341D01*
X49985000Y-17236659D01*
X49752833Y-16676157D01*
X49346676Y-16270000D01*
X49752833Y-15863843D01*
X49985000Y-15303341D01*
X49985000Y-14696659D01*
X52015000Y-14696659D01*
X52015000Y-15303341D01*
X52247167Y-15863843D01*
X52653324Y-16270000D01*
X52247167Y-16676157D01*
X52015000Y-17236659D01*
X52015000Y-17843341D01*
X52247167Y-18403843D01*
X52653324Y-18810000D01*
X52247167Y-19216157D01*
X52015000Y-19776659D01*
X52015000Y-20383341D01*
X52247167Y-20943843D01*
X52676157Y-21372833D01*
X53236659Y-21605000D01*
X53843341Y-21605000D01*
X54403843Y-21372833D01*
X54832833Y-20943843D01*
X55065000Y-20383341D01*
X55065000Y-19776659D01*
X54832833Y-19216157D01*
X54426676Y-18810000D01*
X54832833Y-18403843D01*
X55065000Y-17843341D01*
X55065000Y-17236659D01*
X54832833Y-16676157D01*
X54426676Y-16270000D01*
X54832833Y-15863843D01*
X55065000Y-15303341D01*
X55065000Y-14696659D01*
X54832833Y-14136157D01*
X54403843Y-13707167D01*
X53843341Y-13475000D01*
X53236659Y-13475000D01*
X52676157Y-13707167D01*
X52247167Y-14136157D01*
X52015000Y-14696659D01*
X49985000Y-14696659D01*
X49752833Y-14136157D01*
X49323843Y-13707167D01*
X48763341Y-13475000D01*
X48156659Y-13475000D01*
X47596157Y-13707167D01*
X47167167Y-14136157D01*
X46935000Y-14696659D01*
X45300000Y-14696659D01*
X45300000Y-14420979D01*
X45162983Y-14090191D01*
X44909809Y-13837017D01*
X44579021Y-13700000D01*
X44220979Y-13700000D01*
X43890191Y-13837017D01*
X43637017Y-14090191D01*
X43500000Y-14420979D01*
X43500000Y-14779021D01*
X43534073Y-14861281D01*
X43509809Y-14837017D01*
X43179021Y-14700000D01*
X42820979Y-14700000D01*
X42490191Y-14837017D01*
X42237017Y-15090191D01*
X42100000Y-15420979D01*
X42016272Y-15420979D01*
X42065000Y-15303341D01*
X42065000Y-14696659D01*
X41832833Y-14136157D01*
X41403843Y-13707167D01*
X40843341Y-13475000D01*
X40236659Y-13475000D01*
X39676157Y-13707167D01*
X39247167Y-14136157D01*
X39015000Y-14696659D01*
X36985000Y-14696659D01*
X36752833Y-14136157D01*
X36323843Y-13707167D01*
X35763341Y-13475000D01*
X35156659Y-13475000D01*
X34596157Y-13707167D01*
X34167167Y-14136157D01*
X33935000Y-14696659D01*
X29065000Y-14696659D01*
X28832833Y-14136157D01*
X28403843Y-13707167D01*
X27843341Y-13475000D01*
X27236659Y-13475000D01*
X26676157Y-13707167D01*
X26247167Y-14136157D01*
X26015000Y-14696659D01*
X23985000Y-14696659D01*
X23752833Y-14136157D01*
X23323843Y-13707167D01*
X22763341Y-13475000D01*
X22156659Y-13475000D01*
X21596157Y-13707167D01*
X21167167Y-14136157D01*
X20935000Y-14696659D01*
X17806977Y-14696659D01*
X18166454Y-14547759D01*
X18447759Y-14266454D01*
X18600000Y-13898912D01*
X18600000Y-13501088D01*
X18447759Y-13133546D01*
X18166454Y-12852241D01*
X17798912Y-12700000D01*
X17401088Y-12700000D01*
X17033546Y-12852241D01*
X16752241Y-13133546D01*
X16600000Y-13501088D01*
X14906324Y-13501088D01*
X14843341Y-13475000D01*
X14236659Y-13475000D01*
X13676157Y-13707167D01*
X13247167Y-14136157D01*
X13015000Y-14696659D01*
X10985000Y-14696659D01*
X10752833Y-14136157D01*
X10323843Y-13707167D01*
X9763341Y-13475000D01*
X9156659Y-13475000D01*
X8596157Y-13707167D01*
X8167167Y-14136157D01*
X7935000Y-14696659D01*
X675000Y-14696659D01*
X675000Y-12696659D01*
X59935000Y-12696659D01*
X59935000Y-13303341D01*
X60167167Y-13863843D01*
X60573324Y-14270000D01*
X60167167Y-14676157D01*
X59935000Y-15236659D01*
X59935000Y-15843341D01*
X60167167Y-16403843D01*
X60573324Y-16810000D01*
X60167167Y-17216157D01*
X59935000Y-17776659D01*
X59935000Y-18383341D01*
X60167167Y-18943843D01*
X60596157Y-19372833D01*
X61156659Y-19605000D01*
X61763341Y-19605000D01*
X62323843Y-19372833D01*
X62752833Y-18943843D01*
X62985000Y-18383341D01*
X62985000Y-17776659D01*
X62752833Y-17216157D01*
X62346676Y-16810000D01*
X62752833Y-16403843D01*
X62985000Y-15843341D01*
X62985000Y-15236659D01*
X62752833Y-14676157D01*
X62346676Y-14270000D01*
X62752833Y-13863843D01*
X62985000Y-13303341D01*
X62985000Y-12696659D01*
X65015000Y-12696659D01*
X65015000Y-13303341D01*
X65247167Y-13863843D01*
X65653324Y-14270000D01*
X65247167Y-14676157D01*
X65015000Y-15236659D01*
X65015000Y-15843341D01*
X65247167Y-16403843D01*
X65653324Y-16810000D01*
X65247167Y-17216157D01*
X65015000Y-17776659D01*
X65015000Y-18383341D01*
X65247167Y-18943843D01*
X65676157Y-19372833D01*
X66236659Y-19605000D01*
X66843341Y-19605000D01*
X67403843Y-19372833D01*
X67832833Y-18943843D01*
X68065000Y-18383341D01*
X68065000Y-17776659D01*
X67832833Y-17216157D01*
X67426676Y-16810000D01*
X67832833Y-16403843D01*
X68065000Y-15843341D01*
X68065000Y-15236659D01*
X67832833Y-14676157D01*
X67793335Y-14636659D01*
X71995000Y-14636659D01*
X71995000Y-15243341D01*
X72227167Y-15803843D01*
X72656157Y-16232833D01*
X73216659Y-16465000D01*
X73823341Y-16465000D01*
X74383843Y-16232833D01*
X74812833Y-15803843D01*
X75045000Y-15243341D01*
X75045000Y-14636659D01*
X77075000Y-14636659D01*
X77075000Y-15243341D01*
X77307167Y-15803843D01*
X77736157Y-16232833D01*
X78296659Y-16465000D01*
X78903341Y-16465000D01*
X79463843Y-16232833D01*
X79870000Y-15826676D01*
X80276157Y-16232833D01*
X80836659Y-16465000D01*
X81443341Y-16465000D01*
X82003843Y-16232833D01*
X82410000Y-15826676D01*
X82816157Y-16232833D01*
X83376659Y-16465000D01*
X83983341Y-16465000D01*
X84543843Y-16232833D01*
X84972833Y-15803843D01*
X85205000Y-15243341D01*
X85205000Y-14636659D01*
X84972833Y-14076157D01*
X84543843Y-13647167D01*
X83983341Y-13415000D01*
X83376659Y-13415000D01*
X82816157Y-13647167D01*
X82410000Y-14053324D01*
X82003843Y-13647167D01*
X81443341Y-13415000D01*
X80836659Y-13415000D01*
X80276157Y-13647167D01*
X79870000Y-14053324D01*
X79463843Y-13647167D01*
X78903341Y-13415000D01*
X78296659Y-13415000D01*
X77736157Y-13647167D01*
X77307167Y-14076157D01*
X77075000Y-14636659D01*
X75045000Y-14636659D01*
X74812833Y-14076157D01*
X74383843Y-13647167D01*
X73823341Y-13415000D01*
X73216659Y-13415000D01*
X72656157Y-13647167D01*
X72227167Y-14076157D01*
X71995000Y-14636659D01*
X67793335Y-14636659D01*
X67426676Y-14270000D01*
X67832833Y-13863843D01*
X68065000Y-13303341D01*
X68065000Y-12696659D01*
X67832833Y-12136157D01*
X67403843Y-11707167D01*
X66843341Y-11475000D01*
X66236659Y-11475000D01*
X65676157Y-11707167D01*
X65247167Y-12136157D01*
X65015000Y-12696659D01*
X62985000Y-12696659D01*
X62752833Y-12136157D01*
X62323843Y-11707167D01*
X61763341Y-11475000D01*
X61156659Y-11475000D01*
X60596157Y-11707167D01*
X60167167Y-12136157D01*
X59935000Y-12696659D01*
X675000Y-12696659D01*
X675000Y-9616659D01*
X7935000Y-9616659D01*
X7935000Y-10223341D01*
X8167167Y-10783843D01*
X8596157Y-11212833D01*
X9156659Y-11445000D01*
X9763341Y-11445000D01*
X10323843Y-11212833D01*
X10752833Y-10783843D01*
X10985000Y-10223341D01*
X10985000Y-9616659D01*
X13015000Y-9616659D01*
X13015000Y-10223341D01*
X13247167Y-10783843D01*
X13676157Y-11212833D01*
X14236659Y-11445000D01*
X14843341Y-11445000D01*
X15403843Y-11212833D01*
X15832833Y-10783843D01*
X16065000Y-10223341D01*
X16065000Y-9616659D01*
X20935000Y-9616659D01*
X20935000Y-10223341D01*
X21167167Y-10783843D01*
X21596157Y-11212833D01*
X22156659Y-11445000D01*
X22763341Y-11445000D01*
X23323843Y-11212833D01*
X23752833Y-10783843D01*
X23985000Y-10223341D01*
X23985000Y-9616659D01*
X26015000Y-9616659D01*
X26015000Y-10223341D01*
X26247167Y-10783843D01*
X26676157Y-11212833D01*
X27236659Y-11445000D01*
X27843341Y-11445000D01*
X28403843Y-11212833D01*
X28832833Y-10783843D01*
X28900293Y-10620979D01*
X32600000Y-10620979D01*
X32600000Y-10979021D01*
X32737017Y-11309809D01*
X32990191Y-11562983D01*
X33320979Y-11700000D01*
X33679021Y-11700000D01*
X34009809Y-11562983D01*
X34262983Y-11309809D01*
X34388971Y-11005647D01*
X34596157Y-11212833D01*
X35156659Y-11445000D01*
X35763341Y-11445000D01*
X36323843Y-11212833D01*
X36752833Y-10783843D01*
X36985000Y-10223341D01*
X36985000Y-9616659D01*
X39015000Y-9616659D01*
X39015000Y-10223341D01*
X39247167Y-10783843D01*
X39676157Y-11212833D01*
X40236659Y-11445000D01*
X40843341Y-11445000D01*
X41403843Y-11212833D01*
X41832833Y-10783843D01*
X42041035Y-10281196D01*
X43800000Y-10281196D01*
X43800000Y-10718804D01*
X43967465Y-11123100D01*
X44276900Y-11432535D01*
X44681196Y-11600000D01*
X45118804Y-11600000D01*
X45523100Y-11432535D01*
X45832535Y-11123100D01*
X46000000Y-10718804D01*
X46000000Y-10281196D01*
X45832535Y-9876900D01*
X45572294Y-9616659D01*
X46935000Y-9616659D01*
X46935000Y-10223341D01*
X47167167Y-10783843D01*
X47596157Y-11212833D01*
X48156659Y-11445000D01*
X48763341Y-11445000D01*
X49323843Y-11212833D01*
X49752833Y-10783843D01*
X49985000Y-10223341D01*
X49985000Y-9616659D01*
X52015000Y-9616659D01*
X52015000Y-10223341D01*
X52247167Y-10783843D01*
X52676157Y-11212833D01*
X53236659Y-11445000D01*
X53843341Y-11445000D01*
X54403843Y-11212833D01*
X54748351Y-10868325D01*
X55982172Y-10868325D01*
X56052834Y-10992951D01*
X56370734Y-11365242D01*
X56806905Y-11587539D01*
X57000000Y-11525969D01*
X57000000Y-10680000D01*
X57600000Y-10680000D01*
X57600000Y-11525969D01*
X57793095Y-11587539D01*
X58229266Y-11365242D01*
X58547166Y-10992951D01*
X58617828Y-10868325D01*
X58576662Y-10680000D01*
X57600000Y-10680000D01*
X57000000Y-10680000D01*
X56023338Y-10680000D01*
X55982172Y-10868325D01*
X54748351Y-10868325D01*
X54832833Y-10783843D01*
X55065000Y-10223341D01*
X55065000Y-9616659D01*
X54832833Y-9056157D01*
X54403843Y-8627167D01*
X53843341Y-8395000D01*
X53236659Y-8395000D01*
X52676157Y-8627167D01*
X52247167Y-9056157D01*
X52015000Y-9616659D01*
X49985000Y-9616659D01*
X49752833Y-9056157D01*
X49323843Y-8627167D01*
X48763341Y-8395000D01*
X48156659Y-8395000D01*
X47596157Y-8627167D01*
X47167167Y-9056157D01*
X46935000Y-9616659D01*
X45572294Y-9616659D01*
X45523100Y-9567465D01*
X45118804Y-9400000D01*
X44681196Y-9400000D01*
X44276900Y-9567465D01*
X43967465Y-9876900D01*
X43800000Y-10281196D01*
X42041035Y-10281196D01*
X42065000Y-10223341D01*
X42065000Y-9616659D01*
X41832833Y-9056157D01*
X41403843Y-8627167D01*
X40978529Y-8450997D01*
X41023100Y-8432535D01*
X41332535Y-8123100D01*
X41449798Y-7840000D01*
X55655327Y-7840000D01*
X55768920Y-8411068D01*
X56092404Y-8895196D01*
X56576532Y-9218680D01*
X56677005Y-9238665D01*
X56370734Y-9394758D01*
X56052834Y-9767049D01*
X55982172Y-9891675D01*
X56023338Y-10080000D01*
X57000000Y-10080000D01*
X57000000Y-10060000D01*
X57600000Y-10060000D01*
X57600000Y-10080000D01*
X58576662Y-10080000D01*
X58617828Y-9891675D01*
X58547166Y-9767049D01*
X58367514Y-9556659D01*
X71995000Y-9556659D01*
X71995000Y-10163341D01*
X72227167Y-10723843D01*
X72656157Y-11152833D01*
X73216659Y-11385000D01*
X73823341Y-11385000D01*
X74383843Y-11152833D01*
X74812833Y-10723843D01*
X75045000Y-10163341D01*
X75045000Y-9556659D01*
X77075000Y-9556659D01*
X77075000Y-10163341D01*
X77307167Y-10723843D01*
X77736157Y-11152833D01*
X78296659Y-11385000D01*
X78903341Y-11385000D01*
X79463843Y-11152833D01*
X79870000Y-10746676D01*
X80276157Y-11152833D01*
X80836659Y-11385000D01*
X81443341Y-11385000D01*
X82003843Y-11152833D01*
X82410000Y-10746676D01*
X82816157Y-11152833D01*
X83376659Y-11385000D01*
X83983341Y-11385000D01*
X84543843Y-11152833D01*
X84972833Y-10723843D01*
X85205000Y-10163341D01*
X85205000Y-9556659D01*
X84972833Y-8996157D01*
X84543843Y-8567167D01*
X83983341Y-8335000D01*
X83376659Y-8335000D01*
X82816157Y-8567167D01*
X82410000Y-8973324D01*
X82003843Y-8567167D01*
X81443341Y-8335000D01*
X80836659Y-8335000D01*
X80276157Y-8567167D01*
X79870000Y-8973324D01*
X79463843Y-8567167D01*
X78903341Y-8335000D01*
X78296659Y-8335000D01*
X77736157Y-8567167D01*
X77307167Y-8996157D01*
X77075000Y-9556659D01*
X75045000Y-9556659D01*
X74812833Y-8996157D01*
X74383843Y-8567167D01*
X73823341Y-8335000D01*
X73216659Y-8335000D01*
X72656157Y-8567167D01*
X72227167Y-8996157D01*
X71995000Y-9556659D01*
X58367514Y-9556659D01*
X58229266Y-9394758D01*
X57922995Y-9238665D01*
X58023468Y-9218680D01*
X58507596Y-8895196D01*
X58831080Y-8411068D01*
X58944673Y-7840000D01*
X58900248Y-7616659D01*
X59935000Y-7616659D01*
X59935000Y-8223341D01*
X60167167Y-8783843D01*
X60596157Y-9212833D01*
X61156659Y-9445000D01*
X61763341Y-9445000D01*
X62323843Y-9212833D01*
X62752833Y-8783843D01*
X62985000Y-8223341D01*
X62985000Y-7616659D01*
X65015000Y-7616659D01*
X65015000Y-8223341D01*
X65247167Y-8783843D01*
X65676157Y-9212833D01*
X66236659Y-9445000D01*
X66843341Y-9445000D01*
X67403843Y-9212833D01*
X67832833Y-8783843D01*
X68065000Y-8223341D01*
X68065000Y-8017149D01*
X68067465Y-8023100D01*
X68376900Y-8332535D01*
X68781196Y-8500000D01*
X69218804Y-8500000D01*
X69623100Y-8332535D01*
X69932535Y-8023100D01*
X70100000Y-7618804D01*
X70100000Y-7181196D01*
X69932535Y-6776900D01*
X69623100Y-6467465D01*
X69218804Y-6300000D01*
X68781196Y-6300000D01*
X68376900Y-6467465D01*
X68067465Y-6776900D01*
X67900000Y-7181196D01*
X67900000Y-7218313D01*
X67832833Y-7056157D01*
X67403843Y-6627167D01*
X66843341Y-6395000D01*
X66236659Y-6395000D01*
X65676157Y-6627167D01*
X65247167Y-7056157D01*
X65015000Y-7616659D01*
X62985000Y-7616659D01*
X62752833Y-7056157D01*
X62323843Y-6627167D01*
X61763341Y-6395000D01*
X61156659Y-6395000D01*
X60596157Y-6627167D01*
X60167167Y-7056157D01*
X59935000Y-7616659D01*
X58900248Y-7616659D01*
X58831080Y-7268932D01*
X58507596Y-6784804D01*
X58452745Y-6748154D01*
X58550108Y-6728787D01*
X58748575Y-6596175D01*
X58881187Y-6397708D01*
X58904362Y-6281196D01*
X70200000Y-6281196D01*
X70200000Y-6718804D01*
X70367465Y-7123100D01*
X70676900Y-7432535D01*
X71081196Y-7600000D01*
X71518804Y-7600000D01*
X71923100Y-7432535D01*
X72232535Y-7123100D01*
X72400000Y-6718804D01*
X72400000Y-6281196D01*
X72232535Y-5876900D01*
X71923100Y-5567465D01*
X71518804Y-5400000D01*
X71081196Y-5400000D01*
X70676900Y-5567465D01*
X70367465Y-5876900D01*
X70200000Y-6281196D01*
X58904362Y-6281196D01*
X58927754Y-6163600D01*
X58927754Y-4436400D01*
X58881187Y-4202292D01*
X58748575Y-4003825D01*
X58550108Y-3871213D01*
X58316000Y-3824646D01*
X56284000Y-3824646D01*
X56049892Y-3871213D01*
X55851425Y-4003825D01*
X55718813Y-4202292D01*
X55672246Y-4436400D01*
X55672246Y-6163600D01*
X55718813Y-6397708D01*
X55851425Y-6596175D01*
X56049892Y-6728787D01*
X56147255Y-6748154D01*
X56092404Y-6784804D01*
X55768920Y-7268932D01*
X55655327Y-7840000D01*
X41449798Y-7840000D01*
X41500000Y-7718804D01*
X41500000Y-7281196D01*
X41332535Y-6876900D01*
X41023100Y-6567465D01*
X40618804Y-6400000D01*
X40181196Y-6400000D01*
X39776900Y-6567465D01*
X39467465Y-6876900D01*
X39300000Y-7281196D01*
X39300000Y-7718804D01*
X39467465Y-8123100D01*
X39776900Y-8432535D01*
X39961470Y-8508987D01*
X39676157Y-8627167D01*
X39247167Y-9056157D01*
X39015000Y-9616659D01*
X36985000Y-9616659D01*
X36752833Y-9056157D01*
X36323843Y-8627167D01*
X35763341Y-8395000D01*
X35156659Y-8395000D01*
X34596157Y-8627167D01*
X34167167Y-9056157D01*
X33935000Y-9616659D01*
X33935000Y-10006030D01*
X33679021Y-9900000D01*
X33320979Y-9900000D01*
X32990191Y-10037017D01*
X32737017Y-10290191D01*
X32600000Y-10620979D01*
X28900293Y-10620979D01*
X29065000Y-10223341D01*
X29065000Y-9616659D01*
X28832833Y-9056157D01*
X28403843Y-8627167D01*
X27843341Y-8395000D01*
X27236659Y-8395000D01*
X26676157Y-8627167D01*
X26247167Y-9056157D01*
X26015000Y-9616659D01*
X23985000Y-9616659D01*
X23752833Y-9056157D01*
X23323843Y-8627167D01*
X22763341Y-8395000D01*
X22156659Y-8395000D01*
X21596157Y-8627167D01*
X21167167Y-9056157D01*
X20935000Y-9616659D01*
X16065000Y-9616659D01*
X15832833Y-9056157D01*
X15403843Y-8627167D01*
X14843341Y-8395000D01*
X14236659Y-8395000D01*
X13676157Y-8627167D01*
X13247167Y-9056157D01*
X13015000Y-9616659D01*
X10985000Y-9616659D01*
X10752833Y-9056157D01*
X10323843Y-8627167D01*
X9763341Y-8395000D01*
X9156659Y-8395000D01*
X8596157Y-8627167D01*
X8167167Y-9056157D01*
X7935000Y-9616659D01*
X675000Y-9616659D01*
X675000Y-7281196D01*
X17800000Y-7281196D01*
X17800000Y-7718804D01*
X17967465Y-8123100D01*
X18276900Y-8432535D01*
X18681196Y-8600000D01*
X19118804Y-8600000D01*
X19523100Y-8432535D01*
X19832535Y-8123100D01*
X20000000Y-7718804D01*
X20000000Y-7281196D01*
X28600000Y-7281196D01*
X28600000Y-7718804D01*
X28767465Y-8123100D01*
X29076900Y-8432535D01*
X29481196Y-8600000D01*
X29918804Y-8600000D01*
X30323100Y-8432535D01*
X30632535Y-8123100D01*
X30800000Y-7718804D01*
X30800000Y-7281196D01*
X30632535Y-6876900D01*
X30323100Y-6567465D01*
X29918804Y-6400000D01*
X29481196Y-6400000D01*
X29076900Y-6567465D01*
X28767465Y-6876900D01*
X28600000Y-7281196D01*
X20000000Y-7281196D01*
X19832535Y-6876900D01*
X19523100Y-6567465D01*
X19118804Y-6400000D01*
X18681196Y-6400000D01*
X18276900Y-6567465D01*
X17967465Y-6876900D01*
X17800000Y-7281196D01*
X675000Y-7281196D01*
X675000Y-5154343D01*
X19565000Y-5154343D01*
X19565000Y-5645657D01*
X19753018Y-6099571D01*
X20100429Y-6446982D01*
X20554343Y-6635000D01*
X21045657Y-6635000D01*
X21499571Y-6446982D01*
X21846982Y-6099571D01*
X22035000Y-5645657D01*
X22035000Y-5154343D01*
X21846982Y-4700429D01*
X21499571Y-4353018D01*
X21045657Y-4165000D01*
X20554343Y-4165000D01*
X20100429Y-4353018D01*
X19753018Y-4700429D01*
X19565000Y-5154343D01*
X675000Y-5154343D01*
X675000Y-3201088D01*
X14200000Y-3201088D01*
X14200000Y-3598912D01*
X14352241Y-3966454D01*
X14633546Y-4247759D01*
X15001088Y-4400000D01*
X15398912Y-4400000D01*
X15766454Y-4247759D01*
X16047759Y-3966454D01*
X16074834Y-3901088D01*
X24300000Y-3901088D01*
X24300000Y-4298912D01*
X24452241Y-4666454D01*
X24733546Y-4947759D01*
X25101088Y-5100000D01*
X25498912Y-5100000D01*
X25866454Y-4947759D01*
X26147759Y-4666454D01*
X26300000Y-4298912D01*
X26300000Y-3920979D01*
X35600000Y-3920979D01*
X35600000Y-4279021D01*
X35737017Y-4609809D01*
X35990191Y-4862983D01*
X36320979Y-5000000D01*
X36679021Y-5000000D01*
X37009809Y-4862983D01*
X37091596Y-4781196D01*
X39600000Y-4781196D01*
X39600000Y-5218804D01*
X39767465Y-5623100D01*
X40076900Y-5932535D01*
X40481196Y-6100000D01*
X40918804Y-6100000D01*
X41323100Y-5932535D01*
X41632535Y-5623100D01*
X41750000Y-5339515D01*
X41867465Y-5623100D01*
X42176900Y-5932535D01*
X42581196Y-6100000D01*
X43018804Y-6100000D01*
X43423100Y-5932535D01*
X43732535Y-5623100D01*
X43900000Y-5218804D01*
X44067465Y-5623100D01*
X44376900Y-5932535D01*
X44781196Y-6100000D01*
X45218804Y-6100000D01*
X45623100Y-5932535D01*
X45932535Y-5623100D01*
X46100000Y-5218804D01*
X46100000Y-4781196D01*
X46066819Y-4701088D01*
X52800000Y-4701088D01*
X52800000Y-5098912D01*
X52952241Y-5466454D01*
X53233546Y-5747759D01*
X53601088Y-5900000D01*
X53998912Y-5900000D01*
X54366454Y-5747759D01*
X54647759Y-5466454D01*
X54800000Y-5098912D01*
X54800000Y-4701088D01*
X54647759Y-4333546D01*
X54366454Y-4052241D01*
X53998912Y-3900000D01*
X53601088Y-3900000D01*
X53233546Y-4052241D01*
X52952241Y-4333546D01*
X52800000Y-4701088D01*
X46066819Y-4701088D01*
X45932535Y-4376900D01*
X45923495Y-4367860D01*
X46001088Y-4400000D01*
X46398912Y-4400000D01*
X46766454Y-4247759D01*
X47047759Y-3966454D01*
X47200000Y-3598912D01*
X47200000Y-3201088D01*
X47400000Y-3201088D01*
X47400000Y-3598912D01*
X47552241Y-3966454D01*
X47833546Y-4247759D01*
X48201088Y-4400000D01*
X48598912Y-4400000D01*
X48966454Y-4247759D01*
X49247759Y-3966454D01*
X49365916Y-3681196D01*
X60400000Y-3681196D01*
X60400000Y-4118804D01*
X60567465Y-4523100D01*
X60876900Y-4832535D01*
X61281196Y-5000000D01*
X61718804Y-5000000D01*
X62123100Y-4832535D01*
X62432535Y-4523100D01*
X62600000Y-4118804D01*
X62600000Y-3681196D01*
X62432535Y-3276900D01*
X62123100Y-2967465D01*
X61718804Y-2800000D01*
X61281196Y-2800000D01*
X60876900Y-2967465D01*
X60567465Y-3276900D01*
X60400000Y-3681196D01*
X49365916Y-3681196D01*
X49400000Y-3598912D01*
X49400000Y-3201088D01*
X49247759Y-2833546D01*
X48966454Y-2552241D01*
X48598912Y-2400000D01*
X48201088Y-2400000D01*
X47833546Y-2552241D01*
X47552241Y-2833546D01*
X47400000Y-3201088D01*
X47200000Y-3201088D01*
X47047759Y-2833546D01*
X46766454Y-2552241D01*
X46398912Y-2400000D01*
X46001088Y-2400000D01*
X45633546Y-2552241D01*
X45352241Y-2833546D01*
X45200000Y-3201088D01*
X45200000Y-3598912D01*
X45346650Y-3952955D01*
X45218804Y-3900000D01*
X44781196Y-3900000D01*
X44376900Y-4067465D01*
X44067465Y-4376900D01*
X43900000Y-4781196D01*
X43732535Y-4376900D01*
X43423100Y-4067465D01*
X43018804Y-3900000D01*
X42581196Y-3900000D01*
X42176900Y-4067465D01*
X41867465Y-4376900D01*
X41750000Y-4660485D01*
X41632535Y-4376900D01*
X41323100Y-4067465D01*
X40918804Y-3900000D01*
X40481196Y-3900000D01*
X40076900Y-4067465D01*
X39767465Y-4376900D01*
X39600000Y-4781196D01*
X37091596Y-4781196D01*
X37262983Y-4609809D01*
X37400000Y-4279021D01*
X37400000Y-3920979D01*
X37262983Y-3590191D01*
X37009809Y-3337017D01*
X36679021Y-3200000D01*
X36320979Y-3200000D01*
X35990191Y-3337017D01*
X35737017Y-3590191D01*
X35600000Y-3920979D01*
X26300000Y-3920979D01*
X26300000Y-3901088D01*
X26147759Y-3533546D01*
X25866454Y-3252241D01*
X25498912Y-3100000D01*
X25101088Y-3100000D01*
X24733546Y-3252241D01*
X24452241Y-3533546D01*
X24300000Y-3901088D01*
X16074834Y-3901088D01*
X16200000Y-3598912D01*
X16200000Y-3201088D01*
X16047759Y-2833546D01*
X15766454Y-2552241D01*
X15398912Y-2400000D01*
X15001088Y-2400000D01*
X14633546Y-2552241D01*
X14352241Y-2833546D01*
X14200000Y-3201088D01*
X675000Y-3201088D01*
X675000Y-1534000D01*
X7918000Y-1534000D01*
X7918000Y-2063565D01*
X7978896Y-2210582D01*
X8091418Y-2323104D01*
X8238435Y-2384000D01*
X8768000Y-2384000D01*
X8868000Y-2284000D01*
X8868000Y-1434000D01*
X8018000Y-1434000D01*
X7918000Y-1534000D01*
X675000Y-1534000D01*
X675000Y-675000D01*
X7918000Y-675000D01*
X7918000Y-734000D01*
X7918000Y-734000D01*
G37*
X7918000Y-734000D02*
X8018000Y-834000D01*
X8868000Y-834000D01*
X8868000Y-814000D01*
X9468000Y-814000D01*
X9468000Y-834000D01*
X9488000Y-834000D01*
X9488000Y-1434000D01*
X9468000Y-1434000D01*
X9468000Y-2284000D01*
X9568000Y-2384000D01*
X10097565Y-2384000D01*
X10244582Y-2323104D01*
X10357104Y-2210582D01*
X10418000Y-2063565D01*
X10418000Y-1813310D01*
X10662608Y-2179392D01*
X11142238Y-2499870D01*
X11565188Y-2584000D01*
X11850812Y-2584000D01*
X12273762Y-2499870D01*
X12753392Y-2179392D01*
X13073870Y-1699762D01*
X13126733Y-1434002D01*
X13134506Y-1434002D01*
X13096376Y-1620139D01*
X13370075Y-2023841D01*
X13761866Y-2285596D01*
X13948000Y-2244180D01*
X13948000Y-1434000D01*
X14548000Y-1434000D01*
X14548000Y-2244180D01*
X14734134Y-2285596D01*
X15125925Y-2023841D01*
X15399624Y-1620139D01*
X15636376Y-1620139D01*
X15910075Y-2023841D01*
X16301866Y-2285596D01*
X16488000Y-2244180D01*
X16488000Y-1434000D01*
X17088000Y-1434000D01*
X17088000Y-2244180D01*
X17274134Y-2285596D01*
X17665925Y-2023841D01*
X17939624Y-1620139D01*
X18176376Y-1620139D01*
X18450075Y-2023841D01*
X18841866Y-2285596D01*
X19028000Y-2244180D01*
X19028000Y-1434000D01*
X18214506Y-1434000D01*
X18176376Y-1620139D01*
X17939624Y-1620139D01*
X17901494Y-1434000D01*
X17088000Y-1434000D01*
X16488000Y-1434000D01*
X15674506Y-1434000D01*
X15636376Y-1620139D01*
X15399624Y-1620139D01*
X15361494Y-1434000D01*
X14548000Y-1434000D01*
X13948000Y-1434000D01*
X13928000Y-1434000D01*
X13928000Y-834000D01*
X13948000Y-834000D01*
X13948000Y-814000D01*
X14548000Y-814000D01*
X14548000Y-834000D01*
X15361494Y-834000D01*
X15394065Y-675000D01*
X15641935Y-675000D01*
X15674506Y-834000D01*
X16488000Y-834000D01*
X16488000Y-814000D01*
X17088000Y-814000D01*
X17088000Y-834000D01*
X17901494Y-834000D01*
X17934065Y-675000D01*
X18181935Y-675000D01*
X18214506Y-834000D01*
X19028000Y-834000D01*
X19028000Y-814000D01*
X19628000Y-814000D01*
X19628000Y-834000D01*
X19648000Y-834000D01*
X19648000Y-1434000D01*
X19628000Y-1434000D01*
X19628000Y-2244180D01*
X19814134Y-2285596D01*
X20205925Y-2023841D01*
X20479624Y-1620139D01*
X20441494Y-1434002D01*
X20449267Y-1434002D01*
X20502130Y-1699762D01*
X20822608Y-2179392D01*
X21302238Y-2499870D01*
X21725188Y-2584000D01*
X22010812Y-2584000D01*
X22433762Y-2499870D01*
X22913392Y-2179392D01*
X23233870Y-1699762D01*
X23286733Y-1434002D01*
X23294506Y-1434002D01*
X23256376Y-1620139D01*
X23530075Y-2023841D01*
X23921866Y-2285596D01*
X24108000Y-2244180D01*
X24108000Y-1434000D01*
X24708000Y-1434000D01*
X24708000Y-2244180D01*
X24894134Y-2285596D01*
X25285925Y-2023841D01*
X25559624Y-1620139D01*
X25796376Y-1620139D01*
X26070075Y-2023841D01*
X26461866Y-2285596D01*
X26648000Y-2244180D01*
X26648000Y-1434000D01*
X27248000Y-1434000D01*
X27248000Y-2244180D01*
X27434134Y-2285596D01*
X27825925Y-2023841D01*
X28099624Y-1620139D01*
X28336376Y-1620139D01*
X28610075Y-2023841D01*
X29001866Y-2285596D01*
X29188000Y-2244180D01*
X29188000Y-1434000D01*
X28374506Y-1434000D01*
X28336376Y-1620139D01*
X28099624Y-1620139D01*
X28061494Y-1434000D01*
X27248000Y-1434000D01*
X26648000Y-1434000D01*
X25834506Y-1434000D01*
X25796376Y-1620139D01*
X25559624Y-1620139D01*
X25521494Y-1434000D01*
X24708000Y-1434000D01*
X24108000Y-1434000D01*
X24088000Y-1434000D01*
X24088000Y-834000D01*
X24108000Y-834000D01*
X24108000Y-814000D01*
X24708000Y-814000D01*
X24708000Y-834000D01*
X25521494Y-834000D01*
X25554065Y-675000D01*
X25801935Y-675000D01*
X25834506Y-834000D01*
X26648000Y-834000D01*
X26648000Y-814000D01*
X27248000Y-814000D01*
X27248000Y-834000D01*
X28061494Y-834000D01*
X28094065Y-675000D01*
X28341935Y-675000D01*
X28374506Y-834000D01*
X29188000Y-834000D01*
X29188000Y-814000D01*
X29788000Y-814000D01*
X29788000Y-834000D01*
X29808000Y-834000D01*
X29808000Y-1434000D01*
X29788000Y-1434000D01*
X29788000Y-2244180D01*
X29974134Y-2285596D01*
X30365925Y-2023841D01*
X30639624Y-1620139D01*
X30601494Y-1434002D01*
X30609267Y-1434002D01*
X30662130Y-1699762D01*
X30982608Y-2179392D01*
X31462238Y-2499870D01*
X31885188Y-2584000D01*
X32170812Y-2584000D01*
X32593762Y-2499870D01*
X33073392Y-2179392D01*
X33393870Y-1699762D01*
X33446733Y-1434002D01*
X33454506Y-1434002D01*
X33416376Y-1620139D01*
X33690075Y-2023841D01*
X34081866Y-2285596D01*
X34268000Y-2244180D01*
X34268000Y-1434000D01*
X34868000Y-1434000D01*
X34868000Y-2244180D01*
X35054134Y-2285596D01*
X35445925Y-2023841D01*
X35719624Y-1620139D01*
X35956376Y-1620139D01*
X36230075Y-2023841D01*
X36621866Y-2285596D01*
X36808000Y-2244180D01*
X36808000Y-1434000D01*
X35994506Y-1434000D01*
X35956376Y-1620139D01*
X35719624Y-1620139D01*
X35681494Y-1434000D01*
X34868000Y-1434000D01*
X34268000Y-1434000D01*
X34248000Y-1434000D01*
X34248000Y-834000D01*
X34268000Y-834000D01*
X34268000Y-814000D01*
X34868000Y-814000D01*
X34868000Y-834000D01*
X35681494Y-834000D01*
X35714065Y-675000D01*
X35961935Y-675000D01*
X35994506Y-834000D01*
X36808000Y-834000D01*
X36808000Y-814000D01*
X37408000Y-814000D01*
X37408000Y-834000D01*
X37428000Y-834000D01*
X37428000Y-1434000D01*
X37408000Y-1434000D01*
X37408000Y-2244180D01*
X37594134Y-2285596D01*
X37985925Y-2023841D01*
X38259624Y-1620139D01*
X38221494Y-1434002D01*
X38229267Y-1434002D01*
X38282130Y-1699762D01*
X38602608Y-2179392D01*
X39082238Y-2499870D01*
X39505188Y-2584000D01*
X39790812Y-2584000D01*
X40213762Y-2499870D01*
X40693392Y-2179392D01*
X40918000Y-1843242D01*
X41142608Y-2179392D01*
X41622238Y-2499870D01*
X42045188Y-2584000D01*
X42330812Y-2584000D01*
X42753762Y-2499870D01*
X43233392Y-2179392D01*
X43458000Y-1843242D01*
X43682608Y-2179392D01*
X44162238Y-2499870D01*
X44585188Y-2584000D01*
X44870812Y-2584000D01*
X45293762Y-2499870D01*
X45773392Y-2179392D01*
X45998000Y-1843242D01*
X46222608Y-2179392D01*
X46702238Y-2499870D01*
X47125188Y-2584000D01*
X47410812Y-2584000D01*
X47833762Y-2499870D01*
X48313392Y-2179392D01*
X48538000Y-1843242D01*
X48762608Y-2179392D01*
X49242238Y-2499870D01*
X49665188Y-2584000D01*
X49950812Y-2584000D01*
X50373762Y-2499870D01*
X50853392Y-2179392D01*
X51078000Y-1843242D01*
X51302608Y-2179392D01*
X51782238Y-2499870D01*
X52205188Y-2584000D01*
X52490812Y-2584000D01*
X52913762Y-2499870D01*
X53393392Y-2179392D01*
X53618000Y-1843242D01*
X53842608Y-2179392D01*
X54322238Y-2499870D01*
X54745188Y-2584000D01*
X55030812Y-2584000D01*
X55453762Y-2499870D01*
X55933392Y-2179392D01*
X56158000Y-1843242D01*
X56382608Y-2179392D01*
X56862238Y-2499870D01*
X57285188Y-2584000D01*
X57570812Y-2584000D01*
X57993762Y-2499870D01*
X58473392Y-2179392D01*
X58793870Y-1699762D01*
X58826842Y-1534000D01*
X66338000Y-1534000D01*
X66338000Y-2063565D01*
X66398896Y-2210582D01*
X66511418Y-2323104D01*
X66658435Y-2384000D01*
X67188000Y-2384000D01*
X67288000Y-2284000D01*
X67288000Y-1434000D01*
X67888000Y-1434000D01*
X67888000Y-2284000D01*
X67988000Y-2384000D01*
X68517565Y-2384000D01*
X68664582Y-2323104D01*
X68777104Y-2210582D01*
X68838000Y-2063565D01*
X68838000Y-1534000D01*
X68738000Y-1434000D01*
X67888000Y-1434000D01*
X67288000Y-1434000D01*
X66438000Y-1434000D01*
X66338000Y-1534000D01*
X58826842Y-1534000D01*
X58906407Y-1134000D01*
X58815106Y-675000D01*
X66338000Y-675000D01*
X66338000Y-734000D01*
X66438000Y-834000D01*
X67288000Y-834000D01*
X67288000Y-814000D01*
X67888000Y-814000D01*
X67888000Y-834000D01*
X68738000Y-834000D01*
X68838000Y-734000D01*
X68838000Y-675000D01*
X99325000Y-675000D01*
X99325001Y-49325000D01*
X70675000Y-49325000D01*
X70675000Y-48066481D01*
X70688224Y-48000000D01*
X70635836Y-47736628D01*
X70486648Y-47513352D01*
X70400000Y-47455456D01*
X70400000Y-45400000D01*
X70300000Y-45300000D01*
X68100000Y-45300000D01*
X68100000Y-45320000D01*
X67500000Y-45320000D01*
X67500000Y-45300000D01*
X67480000Y-45300000D01*
X67480000Y-44700000D01*
X67500000Y-44700000D01*
X67500000Y-42100000D01*
X68100000Y-42100000D01*
X68100000Y-44700000D01*
X70300000Y-44700000D01*
X70400000Y-44600000D01*
X70400000Y-42320435D01*
X70339104Y-42173418D01*
X70226582Y-42060896D01*
X70079565Y-42000000D01*
X68200000Y-42000000D01*
X68100000Y-42100000D01*
X67500000Y-42100000D01*
X67400000Y-42000000D01*
X65520435Y-42000000D01*
X65373418Y-42060896D01*
X65326428Y-42107886D01*
X65232575Y-41967425D01*
X65034108Y-41834813D01*
X64800000Y-41788246D01*
X63200000Y-41788246D01*
X62965892Y-41834813D01*
X62767425Y-41967425D01*
X62673572Y-42107886D01*
X62626582Y-42060896D01*
X62479565Y-42000000D01*
X60600000Y-42000000D01*
X60500000Y-42100000D01*
X60500000Y-44700000D01*
X60520000Y-44700000D01*
X60520000Y-45300000D01*
X60500000Y-45300000D01*
X60500000Y-45320000D01*
X59900000Y-45320000D01*
X59900000Y-45300000D01*
X57700000Y-45300000D01*
X57600000Y-45400000D01*
X57600000Y-47455456D01*
X57513352Y-47513352D01*
X57364164Y-47736628D01*
X57311776Y-48000000D01*
X57325001Y-48066486D01*
X57325000Y-49325000D01*
X38675000Y-49325000D01*
X38675000Y-48066481D01*
X38688224Y-48000000D01*
X38635836Y-47736628D01*
X38486648Y-47513352D01*
X38400000Y-47455456D01*
X38400000Y-45400000D01*
X38300000Y-45300000D01*
X36100000Y-45300000D01*
X36100000Y-45320000D01*
X35500000Y-45320000D01*
X35500000Y-45300000D01*
X35480000Y-45300000D01*
X35480000Y-44700000D01*
X35500000Y-44700000D01*
X35500000Y-42100000D01*
X36100000Y-42100000D01*
X36100000Y-44700000D01*
X38300000Y-44700000D01*
X38398912Y-44601088D01*
X39100000Y-44601088D01*
X39100000Y-44998912D01*
X39252241Y-45366454D01*
X39533546Y-45647759D01*
X39901088Y-45800000D01*
X40298912Y-45800000D01*
X40666454Y-45647759D01*
X40832371Y-45481842D01*
X50400510Y-45481842D01*
X50400510Y-46118158D01*
X50644018Y-46706038D01*
X51093962Y-47155982D01*
X51681842Y-47399490D01*
X52318158Y-47399490D01*
X52906038Y-47155982D01*
X53355982Y-46706038D01*
X53599490Y-46118158D01*
X53599490Y-45481842D01*
X53355982Y-44893962D01*
X52906038Y-44444018D01*
X52318158Y-44200510D01*
X51681842Y-44200510D01*
X51093962Y-44444018D01*
X50644018Y-44893962D01*
X50400510Y-45481842D01*
X40832371Y-45481842D01*
X40947759Y-45366454D01*
X41100000Y-44998912D01*
X41100000Y-44601088D01*
X40947759Y-44233546D01*
X40666454Y-43952241D01*
X40298912Y-43800000D01*
X39901088Y-43800000D01*
X39533546Y-43952241D01*
X39252241Y-44233546D01*
X39100000Y-44601088D01*
X38398912Y-44601088D01*
X38400000Y-44600000D01*
X38400000Y-43201088D01*
X52300000Y-43201088D01*
X52300000Y-43598912D01*
X52452241Y-43966454D01*
X52733546Y-44247759D01*
X53101088Y-44400000D01*
X53498912Y-44400000D01*
X53866454Y-44247759D01*
X54147759Y-43966454D01*
X54300000Y-43598912D01*
X54300000Y-43201088D01*
X54147759Y-42833546D01*
X53866454Y-42552241D01*
X53498912Y-42400000D01*
X53101088Y-42400000D01*
X52733546Y-42552241D01*
X52452241Y-42833546D01*
X52300000Y-43201088D01*
X38400000Y-43201088D01*
X38400000Y-42320435D01*
X57600000Y-42320435D01*
X57600000Y-44600000D01*
X57700000Y-44700000D01*
X59900000Y-44700000D01*
X59900000Y-42100000D01*
X59800000Y-42000000D01*
X57920435Y-42000000D01*
X57773418Y-42060896D01*
X57660896Y-42173418D01*
X57600000Y-42320435D01*
X38400000Y-42320435D01*
X38339104Y-42173418D01*
X38226582Y-42060896D01*
X38079565Y-42000000D01*
X36200000Y-42000000D01*
X36100000Y-42100000D01*
X35500000Y-42100000D01*
X35400000Y-42000000D01*
X33520435Y-42000000D01*
X33373418Y-42060896D01*
X33326428Y-42107886D01*
X33232575Y-41967425D01*
X33034108Y-41834813D01*
X32800000Y-41788246D01*
X31200000Y-41788246D01*
X30965892Y-41834813D01*
X30767425Y-41967425D01*
X30673572Y-42107886D01*
X30626582Y-42060896D01*
X30479565Y-42000000D01*
X28600000Y-42000000D01*
X28500000Y-42100000D01*
X28500000Y-44700000D01*
X28520000Y-44700000D01*
X28520000Y-45300000D01*
X28500000Y-45300000D01*
X28500000Y-45320000D01*
X27900000Y-45320000D01*
X27900000Y-45300000D01*
X25700000Y-45300000D01*
X25600000Y-45400000D01*
X25600000Y-47455456D01*
X25513352Y-47513352D01*
X25364164Y-47736628D01*
X25311776Y-48000000D01*
X25325001Y-48066486D01*
X25325000Y-49325000D01*
X17014344Y-49325000D01*
X17292276Y-49209877D01*
X17809877Y-48692276D01*
X18090000Y-48015999D01*
X18090000Y-47284001D01*
X17809877Y-46607724D01*
X17292276Y-46090123D01*
X16615999Y-45810000D01*
X15884001Y-45810000D01*
X15207724Y-46090123D01*
X14690123Y-46607724D01*
X14410000Y-47284001D01*
X14410000Y-48015999D01*
X14690123Y-48692276D01*
X15207724Y-49209877D01*
X15485656Y-49325000D01*
X8409818Y-49325000D01*
X8769618Y-49175966D01*
X9275966Y-48669618D01*
X9550000Y-48008042D01*
X9550000Y-47291958D01*
X9275966Y-46630382D01*
X9076363Y-46430779D01*
X10493485Y-46430779D01*
X10754866Y-46724170D01*
X11700800Y-47031357D01*
X12692284Y-46953168D01*
X13245134Y-46724170D01*
X13506515Y-46430779D01*
X12000000Y-44924264D01*
X10493485Y-46430779D01*
X9076363Y-46430779D01*
X8769618Y-46124034D01*
X8108042Y-45850000D01*
X7391958Y-45850000D01*
X6730382Y-46124034D01*
X6224034Y-46630382D01*
X5950000Y-47291958D01*
X5950000Y-48008042D01*
X6224034Y-48669618D01*
X6730382Y-49175966D01*
X7090182Y-49325000D01*
X675000Y-49325000D01*
X675000Y-44200800D01*
X9468643Y-44200800D01*
X9546832Y-45192284D01*
X9775830Y-45745134D01*
X10069221Y-46006515D01*
X11575736Y-44500000D01*
X12424264Y-44500000D01*
X13930779Y-46006515D01*
X14224170Y-45745134D01*
X14531357Y-44799200D01*
X14453168Y-43807716D01*
X14224170Y-43254866D01*
X13930779Y-42993485D01*
X12424264Y-44500000D01*
X11575736Y-44500000D01*
X10069221Y-42993485D01*
X9775830Y-43254866D01*
X9468643Y-44200800D01*
X675000Y-44200800D01*
X675000Y-39532556D01*
X9650000Y-39532556D01*
X9650000Y-40467444D01*
X10007766Y-41331168D01*
X10668832Y-41992234D01*
X11054180Y-42151850D01*
X10754866Y-42275830D01*
X10493485Y-42569221D01*
X12000000Y-44075736D01*
X13506515Y-42569221D01*
X13284873Y-42320435D01*
X25600000Y-42320435D01*
X25600000Y-44600000D01*
X25700000Y-44700000D01*
X27900000Y-44700000D01*
X27900000Y-42100000D01*
X27800000Y-42000000D01*
X25920435Y-42000000D01*
X25773418Y-42060896D01*
X25660896Y-42173418D01*
X25600000Y-42320435D01*
X13284873Y-42320435D01*
X13245134Y-42275830D01*
X12909581Y-42166861D01*
X13331168Y-41992234D01*
X13992234Y-41331168D01*
X14079297Y-41120979D01*
X46900000Y-41120979D01*
X46900000Y-41479021D01*
X47037017Y-41809809D01*
X47290191Y-42062983D01*
X47620979Y-42200000D01*
X47979021Y-42200000D01*
X48309809Y-42062983D01*
X48562983Y-41809809D01*
X48700000Y-41479021D01*
X48700000Y-41400000D01*
X48998912Y-41400000D01*
X49366454Y-41247759D01*
X49647759Y-40966454D01*
X49800000Y-40598912D01*
X49800000Y-40201088D01*
X49647759Y-39833546D01*
X49415301Y-39601088D01*
X59700000Y-39601088D01*
X59700000Y-39998912D01*
X59852241Y-40366454D01*
X60133546Y-40647759D01*
X60501088Y-40800000D01*
X60898912Y-40800000D01*
X61266454Y-40647759D01*
X61547759Y-40366454D01*
X61700000Y-39998912D01*
X61700000Y-39601088D01*
X61547759Y-39233546D01*
X61314213Y-39000000D01*
X78388246Y-39000000D01*
X78388246Y-41200000D01*
X78434813Y-41434108D01*
X78567425Y-41632575D01*
X78765892Y-41765187D01*
X79000000Y-41811754D01*
X79830515Y-41811754D01*
X79446861Y-42195408D01*
X79149990Y-42912119D01*
X79149990Y-43687881D01*
X79446861Y-44404592D01*
X79995408Y-44953139D01*
X80712119Y-45250010D01*
X81487881Y-45250010D01*
X82204592Y-44953139D01*
X82753139Y-44404592D01*
X83050010Y-43687881D01*
X83050010Y-42912119D01*
X82753139Y-42195408D01*
X82369485Y-41811754D01*
X83200000Y-41811754D01*
X83434108Y-41765187D01*
X83632575Y-41632575D01*
X83765187Y-41434108D01*
X83811754Y-41200000D01*
X83811754Y-39000000D01*
X83765187Y-38765892D01*
X83632575Y-38567425D01*
X83434108Y-38434813D01*
X83200000Y-38388246D01*
X79000000Y-38388246D01*
X78765892Y-38434813D01*
X78567425Y-38567425D01*
X78434813Y-38765892D01*
X78388246Y-39000000D01*
X61314213Y-39000000D01*
X61266454Y-38952241D01*
X60898912Y-38800000D01*
X60501088Y-38800000D01*
X60133546Y-38952241D01*
X59852241Y-39233546D01*
X59700000Y-39601088D01*
X49415301Y-39601088D01*
X49366454Y-39552241D01*
X48998912Y-39400000D01*
X48601088Y-39400000D01*
X48233546Y-39552241D01*
X47952241Y-39833546D01*
X47800000Y-40201088D01*
X47800000Y-40400000D01*
X47620979Y-40400000D01*
X47290191Y-40537017D01*
X47037017Y-40790191D01*
X46900000Y-41120979D01*
X14079297Y-41120979D01*
X14350000Y-40467444D01*
X14350000Y-39532556D01*
X13992234Y-38668832D01*
X13331168Y-38007766D01*
X12467444Y-37650000D01*
X11532556Y-37650000D01*
X10668832Y-38007766D01*
X10007766Y-38668832D01*
X9650000Y-39532556D01*
X675000Y-39532556D01*
X675000Y-36020979D01*
X50700000Y-36020979D01*
X50700000Y-36379021D01*
X50837017Y-36709809D01*
X51090191Y-36962983D01*
X51097391Y-36965965D01*
X51000000Y-37201088D01*
X51000000Y-37598912D01*
X51152241Y-37966454D01*
X51433546Y-38247759D01*
X51801088Y-38400000D01*
X52198912Y-38400000D01*
X52566454Y-38247759D01*
X52847759Y-37966454D01*
X53000000Y-37598912D01*
X53000000Y-37201088D01*
X52847759Y-36833546D01*
X52566454Y-36552241D01*
X52448489Y-36503378D01*
X52500000Y-36379021D01*
X52500000Y-36020979D01*
X52362983Y-35690191D01*
X52109809Y-35437017D01*
X51779021Y-35300000D01*
X51420979Y-35300000D01*
X51090191Y-35437017D01*
X50837017Y-35690191D01*
X50700000Y-36020979D01*
X675000Y-36020979D01*
X675000Y-35200000D01*
X78388246Y-35200000D01*
X78388246Y-37400000D01*
X78434813Y-37634108D01*
X78567425Y-37832575D01*
X78765892Y-37965187D01*
X79000000Y-38011754D01*
X83200000Y-38011754D01*
X83434108Y-37965187D01*
X83632575Y-37832575D01*
X83765187Y-37634108D01*
X83811754Y-37400000D01*
X83811754Y-35200000D01*
X83765187Y-34965892D01*
X83632575Y-34767425D01*
X83434108Y-34634813D01*
X83200000Y-34588246D01*
X82409485Y-34588246D01*
X82753139Y-34244592D01*
X83050010Y-33527881D01*
X83050010Y-32752119D01*
X82753139Y-32035408D01*
X82204592Y-31486861D01*
X81487881Y-31189990D01*
X80712119Y-31189990D01*
X79995408Y-31486861D01*
X79446861Y-32035408D01*
X79149990Y-32752119D01*
X79149990Y-33527881D01*
X79446861Y-34244592D01*
X79790515Y-34588246D01*
X79000000Y-34588246D01*
X78765892Y-34634813D01*
X78567425Y-34767425D01*
X78434813Y-34965892D01*
X78388246Y-35200000D01*
X675000Y-35200000D01*
X675000Y-32820979D01*
X22600000Y-32820979D01*
X22600000Y-33179021D01*
X22737017Y-33509809D01*
X22990191Y-33762983D01*
X23320979Y-33900000D01*
X23679021Y-33900000D01*
X24009809Y-33762983D01*
X24262983Y-33509809D01*
X24400000Y-33179021D01*
X24400000Y-32820979D01*
X24317158Y-32620979D01*
X34300000Y-32620979D01*
X34300000Y-32979021D01*
X34437017Y-33309809D01*
X34690191Y-33562983D01*
X35020979Y-33700000D01*
X35379021Y-33700000D01*
X35709809Y-33562983D01*
X35962983Y-33309809D01*
X36100000Y-32979021D01*
X36100000Y-32620979D01*
X35962983Y-32290191D01*
X35709809Y-32037017D01*
X35379021Y-31900000D01*
X35020979Y-31900000D01*
X34690191Y-32037017D01*
X34437017Y-32290191D01*
X34300000Y-32620979D01*
X24317158Y-32620979D01*
X24262983Y-32490191D01*
X24009809Y-32237017D01*
X23679021Y-32100000D01*
X23320979Y-32100000D01*
X22990191Y-32237017D01*
X22737017Y-32490191D01*
X22600000Y-32820979D01*
X675000Y-32820979D01*
X675000Y-30781196D01*
X89400000Y-30781196D01*
X89400000Y-31218804D01*
X89567465Y-31623100D01*
X89876900Y-31932535D01*
X90281196Y-32100000D01*
X90718804Y-32100000D01*
X91123100Y-31932535D01*
X91432535Y-31623100D01*
X91600000Y-31218804D01*
X91600000Y-30781196D01*
X91432535Y-30376900D01*
X91123100Y-30067465D01*
X90718804Y-29900000D01*
X90281196Y-29900000D01*
X89876900Y-30067465D01*
X89567465Y-30376900D01*
X89400000Y-30781196D01*
X675000Y-30781196D01*
X675000Y-28201088D01*
X38500000Y-28201088D01*
X38500000Y-28598912D01*
X38652241Y-28966454D01*
X38933546Y-29247759D01*
X39301088Y-29400000D01*
X39698912Y-29400000D01*
X40066454Y-29247759D01*
X40347759Y-28966454D01*
X40500000Y-28598912D01*
X40500000Y-28201088D01*
X40347759Y-27833546D01*
X40095409Y-27581196D01*
X72800000Y-27581196D01*
X72800000Y-28018804D01*
X72967465Y-28423100D01*
X73276900Y-28732535D01*
X73681196Y-28900000D01*
X74118804Y-28900000D01*
X74523100Y-28732535D01*
X74832535Y-28423100D01*
X75000000Y-28018804D01*
X75000000Y-27581196D01*
X74940131Y-27436659D01*
X76995000Y-27436659D01*
X76995000Y-28043341D01*
X77227167Y-28603843D01*
X77656157Y-29032833D01*
X78216659Y-29265000D01*
X78823341Y-29265000D01*
X79383843Y-29032833D01*
X79790000Y-28626676D01*
X80196157Y-29032833D01*
X80756659Y-29265000D01*
X81363341Y-29265000D01*
X81923843Y-29032833D01*
X82330000Y-28626676D01*
X82736157Y-29032833D01*
X83296659Y-29265000D01*
X83903341Y-29265000D01*
X84463843Y-29032833D01*
X84892833Y-28603843D01*
X85125000Y-28043341D01*
X85125000Y-27436659D01*
X87155000Y-27436659D01*
X87155000Y-28043341D01*
X87387167Y-28603843D01*
X87816157Y-29032833D01*
X88376659Y-29265000D01*
X88983341Y-29265000D01*
X89543843Y-29032833D01*
X89972833Y-28603843D01*
X90205000Y-28043341D01*
X90205000Y-27436659D01*
X89972833Y-26876157D01*
X89543843Y-26447167D01*
X88983341Y-26215000D01*
X88376659Y-26215000D01*
X87816157Y-26447167D01*
X87387167Y-26876157D01*
X87155000Y-27436659D01*
X85125000Y-27436659D01*
X84892833Y-26876157D01*
X84463843Y-26447167D01*
X83903341Y-26215000D01*
X83296659Y-26215000D01*
X82736157Y-26447167D01*
X82330000Y-26853324D01*
X81923843Y-26447167D01*
X81363341Y-26215000D01*
X80756659Y-26215000D01*
X80196157Y-26447167D01*
X79790000Y-26853324D01*
X79383843Y-26447167D01*
X78823341Y-26215000D01*
X78216659Y-26215000D01*
X77656157Y-26447167D01*
X77227167Y-26876157D01*
X76995000Y-27436659D01*
X74940131Y-27436659D01*
X74832535Y-27176900D01*
X74523100Y-26867465D01*
X74118804Y-26700000D01*
X73681196Y-26700000D01*
X73276900Y-26867465D01*
X72967465Y-27176900D01*
X72800000Y-27581196D01*
X40095409Y-27581196D01*
X40066454Y-27552241D01*
X39698912Y-27400000D01*
X39301088Y-27400000D01*
X38933546Y-27552241D01*
X38652241Y-27833546D01*
X38500000Y-28201088D01*
X675000Y-28201088D01*
X675000Y-23620979D01*
X48500000Y-23620979D01*
X48500000Y-23979021D01*
X48637017Y-24309809D01*
X48890191Y-24562983D01*
X49220979Y-24700000D01*
X49579021Y-24700000D01*
X49909809Y-24562983D01*
X50162983Y-24309809D01*
X50300000Y-23979021D01*
X50300000Y-23620979D01*
X50162983Y-23290191D01*
X49909809Y-23037017D01*
X49579021Y-22900000D01*
X49220979Y-22900000D01*
X48890191Y-23037017D01*
X48637017Y-23290191D01*
X48500000Y-23620979D01*
X675000Y-23620979D01*
X675000Y-22356659D01*
X76995000Y-22356659D01*
X76995000Y-22963341D01*
X77227167Y-23523843D01*
X77656157Y-23952833D01*
X78216659Y-24185000D01*
X78823341Y-24185000D01*
X79383843Y-23952833D01*
X79790000Y-23546676D01*
X80196157Y-23952833D01*
X80756659Y-24185000D01*
X81363341Y-24185000D01*
X81923843Y-23952833D01*
X82330000Y-23546676D01*
X82736157Y-23952833D01*
X83296659Y-24185000D01*
X83903341Y-24185000D01*
X84463843Y-23952833D01*
X84892833Y-23523843D01*
X85125000Y-22963341D01*
X85125000Y-22356659D01*
X87155000Y-22356659D01*
X87155000Y-22963341D01*
X87387167Y-23523843D01*
X87816157Y-23952833D01*
X88376659Y-24185000D01*
X88983341Y-24185000D01*
X89543843Y-23952833D01*
X89972833Y-23523843D01*
X90205000Y-22963341D01*
X90205000Y-22356659D01*
X89972833Y-21796157D01*
X89543843Y-21367167D01*
X88983341Y-21135000D01*
X88376659Y-21135000D01*
X87816157Y-21367167D01*
X87387167Y-21796157D01*
X87155000Y-22356659D01*
X85125000Y-22356659D01*
X84892833Y-21796157D01*
X84463843Y-21367167D01*
X83903341Y-21135000D01*
X83296659Y-21135000D01*
X82736157Y-21367167D01*
X82330000Y-21773324D01*
X81923843Y-21367167D01*
X81363341Y-21135000D01*
X80756659Y-21135000D01*
X80196157Y-21367167D01*
X79790000Y-21773324D01*
X79383843Y-21367167D01*
X78823341Y-21135000D01*
X78216659Y-21135000D01*
X77656157Y-21367167D01*
X77227167Y-21796157D01*
X76995000Y-22356659D01*
X675000Y-22356659D01*
X675000Y-14696659D01*
X7935000Y-14696659D01*
X7935000Y-15303341D01*
X8167167Y-15863843D01*
X8573324Y-16270000D01*
X8167167Y-16676157D01*
X7935000Y-17236659D01*
X7935000Y-17843341D01*
X8167167Y-18403843D01*
X8573324Y-18810000D01*
X8167167Y-19216157D01*
X7935000Y-19776659D01*
X7935000Y-20383341D01*
X8167167Y-20943843D01*
X8596157Y-21372833D01*
X9156659Y-21605000D01*
X9763341Y-21605000D01*
X10323843Y-21372833D01*
X10752833Y-20943843D01*
X10985000Y-20383341D01*
X10985000Y-19776659D01*
X10752833Y-19216157D01*
X10346676Y-18810000D01*
X10752833Y-18403843D01*
X10985000Y-17843341D01*
X10985000Y-17236659D01*
X10752833Y-16676157D01*
X10346676Y-16270000D01*
X10752833Y-15863843D01*
X10985000Y-15303341D01*
X10985000Y-14696659D01*
X13015000Y-14696659D01*
X13015000Y-15303341D01*
X13247167Y-15863843D01*
X13653324Y-16270000D01*
X13247167Y-16676157D01*
X13015000Y-17236659D01*
X13015000Y-17843341D01*
X13247167Y-18403843D01*
X13653324Y-18810000D01*
X13247167Y-19216157D01*
X13015000Y-19776659D01*
X13015000Y-20383341D01*
X13247167Y-20943843D01*
X13676157Y-21372833D01*
X14236659Y-21605000D01*
X14843341Y-21605000D01*
X15403843Y-21372833D01*
X15832833Y-20943843D01*
X16065000Y-20383341D01*
X16065000Y-19776659D01*
X15832833Y-19216157D01*
X15426676Y-18810000D01*
X15832833Y-18403843D01*
X16065000Y-17843341D01*
X16065000Y-17236659D01*
X15832833Y-16676157D01*
X15426676Y-16270000D01*
X15832833Y-15863843D01*
X16065000Y-15303341D01*
X16065000Y-14696659D01*
X15832833Y-14136157D01*
X15403843Y-13707167D01*
X14906324Y-13501088D01*
X16600000Y-13501088D01*
X16600000Y-13898912D01*
X16752241Y-14266454D01*
X17033546Y-14547759D01*
X17401088Y-14700000D01*
X17798912Y-14700000D01*
X17806977Y-14696659D01*
X20935000Y-14696659D01*
X20935000Y-15303341D01*
X21167167Y-15863843D01*
X21573324Y-16270000D01*
X21167167Y-16676157D01*
X20935000Y-17236659D01*
X20935000Y-17843341D01*
X21167167Y-18403843D01*
X21573324Y-18810000D01*
X21167167Y-19216157D01*
X20935000Y-19776659D01*
X20935000Y-20383341D01*
X21167167Y-20943843D01*
X21596157Y-21372833D01*
X22156659Y-21605000D01*
X22763341Y-21605000D01*
X23323843Y-21372833D01*
X23752833Y-20943843D01*
X23985000Y-20383341D01*
X23985000Y-19776659D01*
X23752833Y-19216157D01*
X23346676Y-18810000D01*
X23752833Y-18403843D01*
X23985000Y-17843341D01*
X23985000Y-17236659D01*
X23752833Y-16676157D01*
X23346676Y-16270000D01*
X23752833Y-15863843D01*
X23985000Y-15303341D01*
X23985000Y-14696659D01*
X26015000Y-14696659D01*
X26015000Y-15303341D01*
X26247167Y-15863843D01*
X26653324Y-16270000D01*
X26247167Y-16676157D01*
X26015000Y-17236659D01*
X26015000Y-17843341D01*
X26247167Y-18403843D01*
X26653324Y-18810000D01*
X26247167Y-19216157D01*
X26015000Y-19776659D01*
X26015000Y-20383341D01*
X26247167Y-20943843D01*
X26676157Y-21372833D01*
X27236659Y-21605000D01*
X27843341Y-21605000D01*
X28403843Y-21372833D01*
X28832833Y-20943843D01*
X29065000Y-20383341D01*
X29065000Y-19776659D01*
X28832833Y-19216157D01*
X28426676Y-18810000D01*
X28832833Y-18403843D01*
X29065000Y-17843341D01*
X29065000Y-17236659D01*
X28832833Y-16676157D01*
X28426676Y-16270000D01*
X28832833Y-15863843D01*
X29065000Y-15303341D01*
X29065000Y-14696659D01*
X33935000Y-14696659D01*
X33935000Y-15303341D01*
X34167167Y-15863843D01*
X34573324Y-16270000D01*
X34167167Y-16676157D01*
X33935000Y-17236659D01*
X33935000Y-17843341D01*
X34167167Y-18403843D01*
X34573324Y-18810000D01*
X34167167Y-19216157D01*
X33935000Y-19776659D01*
X33935000Y-20383341D01*
X34167167Y-20943843D01*
X34596157Y-21372833D01*
X35156659Y-21605000D01*
X35763341Y-21605000D01*
X36323843Y-21372833D01*
X36752833Y-20943843D01*
X36985000Y-20383341D01*
X36985000Y-19776659D01*
X36752833Y-19216157D01*
X36346676Y-18810000D01*
X36752833Y-18403843D01*
X36985000Y-17843341D01*
X36985000Y-17236659D01*
X36752833Y-16676157D01*
X36346676Y-16270000D01*
X36752833Y-15863843D01*
X36985000Y-15303341D01*
X36985000Y-14696659D01*
X39015000Y-14696659D01*
X39015000Y-15303341D01*
X39247167Y-15863843D01*
X39653324Y-16270000D01*
X39247167Y-16676157D01*
X39015000Y-17236659D01*
X39015000Y-17843341D01*
X39247167Y-18403843D01*
X39653324Y-18810000D01*
X39247167Y-19216157D01*
X39015000Y-19776659D01*
X39015000Y-20383341D01*
X39247167Y-20943843D01*
X39676157Y-21372833D01*
X40236659Y-21605000D01*
X40843341Y-21605000D01*
X41403843Y-21372833D01*
X41832833Y-20943843D01*
X42065000Y-20383341D01*
X42065000Y-19776659D01*
X41832833Y-19216157D01*
X41426676Y-18810000D01*
X41832833Y-18403843D01*
X42065000Y-17843341D01*
X42065000Y-17236659D01*
X41832833Y-16676157D01*
X41426676Y-16270000D01*
X41832833Y-15863843D01*
X42016272Y-15420979D01*
X42100000Y-15420979D01*
X42100000Y-15779021D01*
X42237017Y-16109809D01*
X42490191Y-16362983D01*
X42820979Y-16500000D01*
X43179021Y-16500000D01*
X43509809Y-16362983D01*
X43762983Y-16109809D01*
X43900000Y-15779021D01*
X43900000Y-15420979D01*
X43865927Y-15338719D01*
X43890191Y-15362983D01*
X44220979Y-15500000D01*
X44579021Y-15500000D01*
X44909809Y-15362983D01*
X45162983Y-15109809D01*
X45300000Y-14779021D01*
X45300000Y-14696659D01*
X46935000Y-14696659D01*
X46935000Y-15303341D01*
X47167167Y-15863843D01*
X47573324Y-16270000D01*
X47167167Y-16676157D01*
X46935000Y-17236659D01*
X46935000Y-17843341D01*
X47167167Y-18403843D01*
X47573324Y-18810000D01*
X47167167Y-19216157D01*
X46935000Y-19776659D01*
X46935000Y-20383341D01*
X47167167Y-20943843D01*
X47596157Y-21372833D01*
X48156659Y-21605000D01*
X48763341Y-21605000D01*
X49323843Y-21372833D01*
X49752833Y-20943843D01*
X49985000Y-20383341D01*
X49985000Y-19776659D01*
X49752833Y-19216157D01*
X49346676Y-18810000D01*
X49752833Y-18403843D01*
X49985000Y-17843341D01*
X49985000Y-17236659D01*
X49752833Y-16676157D01*
X49346676Y-16270000D01*
X49752833Y-15863843D01*
X49985000Y-15303341D01*
X49985000Y-14696659D01*
X52015000Y-14696659D01*
X52015000Y-15303341D01*
X52247167Y-15863843D01*
X52653324Y-16270000D01*
X52247167Y-16676157D01*
X52015000Y-17236659D01*
X52015000Y-17843341D01*
X52247167Y-18403843D01*
X52653324Y-18810000D01*
X52247167Y-19216157D01*
X52015000Y-19776659D01*
X52015000Y-20383341D01*
X52247167Y-20943843D01*
X52676157Y-21372833D01*
X53236659Y-21605000D01*
X53843341Y-21605000D01*
X54403843Y-21372833D01*
X54832833Y-20943843D01*
X55065000Y-20383341D01*
X55065000Y-19776659D01*
X54832833Y-19216157D01*
X54426676Y-18810000D01*
X54832833Y-18403843D01*
X55065000Y-17843341D01*
X55065000Y-17236659D01*
X54832833Y-16676157D01*
X54426676Y-16270000D01*
X54832833Y-15863843D01*
X55065000Y-15303341D01*
X55065000Y-14696659D01*
X54832833Y-14136157D01*
X54403843Y-13707167D01*
X53843341Y-13475000D01*
X53236659Y-13475000D01*
X52676157Y-13707167D01*
X52247167Y-14136157D01*
X52015000Y-14696659D01*
X49985000Y-14696659D01*
X49752833Y-14136157D01*
X49323843Y-13707167D01*
X48763341Y-13475000D01*
X48156659Y-13475000D01*
X47596157Y-13707167D01*
X47167167Y-14136157D01*
X46935000Y-14696659D01*
X45300000Y-14696659D01*
X45300000Y-14420979D01*
X45162983Y-14090191D01*
X44909809Y-13837017D01*
X44579021Y-13700000D01*
X44220979Y-13700000D01*
X43890191Y-13837017D01*
X43637017Y-14090191D01*
X43500000Y-14420979D01*
X43500000Y-14779021D01*
X43534073Y-14861281D01*
X43509809Y-14837017D01*
X43179021Y-14700000D01*
X42820979Y-14700000D01*
X42490191Y-14837017D01*
X42237017Y-15090191D01*
X42100000Y-15420979D01*
X42016272Y-15420979D01*
X42065000Y-15303341D01*
X42065000Y-14696659D01*
X41832833Y-14136157D01*
X41403843Y-13707167D01*
X40843341Y-13475000D01*
X40236659Y-13475000D01*
X39676157Y-13707167D01*
X39247167Y-14136157D01*
X39015000Y-14696659D01*
X36985000Y-14696659D01*
X36752833Y-14136157D01*
X36323843Y-13707167D01*
X35763341Y-13475000D01*
X35156659Y-13475000D01*
X34596157Y-13707167D01*
X34167167Y-14136157D01*
X33935000Y-14696659D01*
X29065000Y-14696659D01*
X28832833Y-14136157D01*
X28403843Y-13707167D01*
X27843341Y-13475000D01*
X27236659Y-13475000D01*
X26676157Y-13707167D01*
X26247167Y-14136157D01*
X26015000Y-14696659D01*
X23985000Y-14696659D01*
X23752833Y-14136157D01*
X23323843Y-13707167D01*
X22763341Y-13475000D01*
X22156659Y-13475000D01*
X21596157Y-13707167D01*
X21167167Y-14136157D01*
X20935000Y-14696659D01*
X17806977Y-14696659D01*
X18166454Y-14547759D01*
X18447759Y-14266454D01*
X18600000Y-13898912D01*
X18600000Y-13501088D01*
X18447759Y-13133546D01*
X18166454Y-12852241D01*
X17798912Y-12700000D01*
X17401088Y-12700000D01*
X17033546Y-12852241D01*
X16752241Y-13133546D01*
X16600000Y-13501088D01*
X14906324Y-13501088D01*
X14843341Y-13475000D01*
X14236659Y-13475000D01*
X13676157Y-13707167D01*
X13247167Y-14136157D01*
X13015000Y-14696659D01*
X10985000Y-14696659D01*
X10752833Y-14136157D01*
X10323843Y-13707167D01*
X9763341Y-13475000D01*
X9156659Y-13475000D01*
X8596157Y-13707167D01*
X8167167Y-14136157D01*
X7935000Y-14696659D01*
X675000Y-14696659D01*
X675000Y-12696659D01*
X59935000Y-12696659D01*
X59935000Y-13303341D01*
X60167167Y-13863843D01*
X60573324Y-14270000D01*
X60167167Y-14676157D01*
X59935000Y-15236659D01*
X59935000Y-15843341D01*
X60167167Y-16403843D01*
X60573324Y-16810000D01*
X60167167Y-17216157D01*
X59935000Y-17776659D01*
X59935000Y-18383341D01*
X60167167Y-18943843D01*
X60596157Y-19372833D01*
X61156659Y-19605000D01*
X61763341Y-19605000D01*
X62323843Y-19372833D01*
X62752833Y-18943843D01*
X62985000Y-18383341D01*
X62985000Y-17776659D01*
X62752833Y-17216157D01*
X62346676Y-16810000D01*
X62752833Y-16403843D01*
X62985000Y-15843341D01*
X62985000Y-15236659D01*
X62752833Y-14676157D01*
X62346676Y-14270000D01*
X62752833Y-13863843D01*
X62985000Y-13303341D01*
X62985000Y-12696659D01*
X65015000Y-12696659D01*
X65015000Y-13303341D01*
X65247167Y-13863843D01*
X65653324Y-14270000D01*
X65247167Y-14676157D01*
X65015000Y-15236659D01*
X65015000Y-15843341D01*
X65247167Y-16403843D01*
X65653324Y-16810000D01*
X65247167Y-17216157D01*
X65015000Y-17776659D01*
X65015000Y-18383341D01*
X65247167Y-18943843D01*
X65676157Y-19372833D01*
X66236659Y-19605000D01*
X66843341Y-19605000D01*
X67403843Y-19372833D01*
X67832833Y-18943843D01*
X68065000Y-18383341D01*
X68065000Y-17776659D01*
X67832833Y-17216157D01*
X67426676Y-16810000D01*
X67832833Y-16403843D01*
X68065000Y-15843341D01*
X68065000Y-15236659D01*
X67832833Y-14676157D01*
X67793335Y-14636659D01*
X71995000Y-14636659D01*
X71995000Y-15243341D01*
X72227167Y-15803843D01*
X72656157Y-16232833D01*
X73216659Y-16465000D01*
X73823341Y-16465000D01*
X74383843Y-16232833D01*
X74812833Y-15803843D01*
X75045000Y-15243341D01*
X75045000Y-14636659D01*
X77075000Y-14636659D01*
X77075000Y-15243341D01*
X77307167Y-15803843D01*
X77736157Y-16232833D01*
X78296659Y-16465000D01*
X78903341Y-16465000D01*
X79463843Y-16232833D01*
X79870000Y-15826676D01*
X80276157Y-16232833D01*
X80836659Y-16465000D01*
X81443341Y-16465000D01*
X82003843Y-16232833D01*
X82410000Y-15826676D01*
X82816157Y-16232833D01*
X83376659Y-16465000D01*
X83983341Y-16465000D01*
X84543843Y-16232833D01*
X84972833Y-15803843D01*
X85205000Y-15243341D01*
X85205000Y-14636659D01*
X84972833Y-14076157D01*
X84543843Y-13647167D01*
X83983341Y-13415000D01*
X83376659Y-13415000D01*
X82816157Y-13647167D01*
X82410000Y-14053324D01*
X82003843Y-13647167D01*
X81443341Y-13415000D01*
X80836659Y-13415000D01*
X80276157Y-13647167D01*
X79870000Y-14053324D01*
X79463843Y-13647167D01*
X78903341Y-13415000D01*
X78296659Y-13415000D01*
X77736157Y-13647167D01*
X77307167Y-14076157D01*
X77075000Y-14636659D01*
X75045000Y-14636659D01*
X74812833Y-14076157D01*
X74383843Y-13647167D01*
X73823341Y-13415000D01*
X73216659Y-13415000D01*
X72656157Y-13647167D01*
X72227167Y-14076157D01*
X71995000Y-14636659D01*
X67793335Y-14636659D01*
X67426676Y-14270000D01*
X67832833Y-13863843D01*
X68065000Y-13303341D01*
X68065000Y-12696659D01*
X67832833Y-12136157D01*
X67403843Y-11707167D01*
X66843341Y-11475000D01*
X66236659Y-11475000D01*
X65676157Y-11707167D01*
X65247167Y-12136157D01*
X65015000Y-12696659D01*
X62985000Y-12696659D01*
X62752833Y-12136157D01*
X62323843Y-11707167D01*
X61763341Y-11475000D01*
X61156659Y-11475000D01*
X60596157Y-11707167D01*
X60167167Y-12136157D01*
X59935000Y-12696659D01*
X675000Y-12696659D01*
X675000Y-9616659D01*
X7935000Y-9616659D01*
X7935000Y-10223341D01*
X8167167Y-10783843D01*
X8596157Y-11212833D01*
X9156659Y-11445000D01*
X9763341Y-11445000D01*
X10323843Y-11212833D01*
X10752833Y-10783843D01*
X10985000Y-10223341D01*
X10985000Y-9616659D01*
X13015000Y-9616659D01*
X13015000Y-10223341D01*
X13247167Y-10783843D01*
X13676157Y-11212833D01*
X14236659Y-11445000D01*
X14843341Y-11445000D01*
X15403843Y-11212833D01*
X15832833Y-10783843D01*
X16065000Y-10223341D01*
X16065000Y-9616659D01*
X20935000Y-9616659D01*
X20935000Y-10223341D01*
X21167167Y-10783843D01*
X21596157Y-11212833D01*
X22156659Y-11445000D01*
X22763341Y-11445000D01*
X23323843Y-11212833D01*
X23752833Y-10783843D01*
X23985000Y-10223341D01*
X23985000Y-9616659D01*
X26015000Y-9616659D01*
X26015000Y-10223341D01*
X26247167Y-10783843D01*
X26676157Y-11212833D01*
X27236659Y-11445000D01*
X27843341Y-11445000D01*
X28403843Y-11212833D01*
X28832833Y-10783843D01*
X28900293Y-10620979D01*
X32600000Y-10620979D01*
X32600000Y-10979021D01*
X32737017Y-11309809D01*
X32990191Y-11562983D01*
X33320979Y-11700000D01*
X33679021Y-11700000D01*
X34009809Y-11562983D01*
X34262983Y-11309809D01*
X34388971Y-11005647D01*
X34596157Y-11212833D01*
X35156659Y-11445000D01*
X35763341Y-11445000D01*
X36323843Y-11212833D01*
X36752833Y-10783843D01*
X36985000Y-10223341D01*
X36985000Y-9616659D01*
X39015000Y-9616659D01*
X39015000Y-10223341D01*
X39247167Y-10783843D01*
X39676157Y-11212833D01*
X40236659Y-11445000D01*
X40843341Y-11445000D01*
X41403843Y-11212833D01*
X41832833Y-10783843D01*
X42041035Y-10281196D01*
X43800000Y-10281196D01*
X43800000Y-10718804D01*
X43967465Y-11123100D01*
X44276900Y-11432535D01*
X44681196Y-11600000D01*
X45118804Y-11600000D01*
X45523100Y-11432535D01*
X45832535Y-11123100D01*
X46000000Y-10718804D01*
X46000000Y-10281196D01*
X45832535Y-9876900D01*
X45572294Y-9616659D01*
X46935000Y-9616659D01*
X46935000Y-10223341D01*
X47167167Y-10783843D01*
X47596157Y-11212833D01*
X48156659Y-11445000D01*
X48763341Y-11445000D01*
X49323843Y-11212833D01*
X49752833Y-10783843D01*
X49985000Y-10223341D01*
X49985000Y-9616659D01*
X52015000Y-9616659D01*
X52015000Y-10223341D01*
X52247167Y-10783843D01*
X52676157Y-11212833D01*
X53236659Y-11445000D01*
X53843341Y-11445000D01*
X54403843Y-11212833D01*
X54748351Y-10868325D01*
X55982172Y-10868325D01*
X56052834Y-10992951D01*
X56370734Y-11365242D01*
X56806905Y-11587539D01*
X57000000Y-11525969D01*
X57000000Y-10680000D01*
X57600000Y-10680000D01*
X57600000Y-11525969D01*
X57793095Y-11587539D01*
X58229266Y-11365242D01*
X58547166Y-10992951D01*
X58617828Y-10868325D01*
X58576662Y-10680000D01*
X57600000Y-10680000D01*
X57000000Y-10680000D01*
X56023338Y-10680000D01*
X55982172Y-10868325D01*
X54748351Y-10868325D01*
X54832833Y-10783843D01*
X55065000Y-10223341D01*
X55065000Y-9616659D01*
X54832833Y-9056157D01*
X54403843Y-8627167D01*
X53843341Y-8395000D01*
X53236659Y-8395000D01*
X52676157Y-8627167D01*
X52247167Y-9056157D01*
X52015000Y-9616659D01*
X49985000Y-9616659D01*
X49752833Y-9056157D01*
X49323843Y-8627167D01*
X48763341Y-8395000D01*
X48156659Y-8395000D01*
X47596157Y-8627167D01*
X47167167Y-9056157D01*
X46935000Y-9616659D01*
X45572294Y-9616659D01*
X45523100Y-9567465D01*
X45118804Y-9400000D01*
X44681196Y-9400000D01*
X44276900Y-9567465D01*
X43967465Y-9876900D01*
X43800000Y-10281196D01*
X42041035Y-10281196D01*
X42065000Y-10223341D01*
X42065000Y-9616659D01*
X41832833Y-9056157D01*
X41403843Y-8627167D01*
X40978529Y-8450997D01*
X41023100Y-8432535D01*
X41332535Y-8123100D01*
X41449798Y-7840000D01*
X55655327Y-7840000D01*
X55768920Y-8411068D01*
X56092404Y-8895196D01*
X56576532Y-9218680D01*
X56677005Y-9238665D01*
X56370734Y-9394758D01*
X56052834Y-9767049D01*
X55982172Y-9891675D01*
X56023338Y-10080000D01*
X57000000Y-10080000D01*
X57000000Y-10060000D01*
X57600000Y-10060000D01*
X57600000Y-10080000D01*
X58576662Y-10080000D01*
X58617828Y-9891675D01*
X58547166Y-9767049D01*
X58367514Y-9556659D01*
X71995000Y-9556659D01*
X71995000Y-10163341D01*
X72227167Y-10723843D01*
X72656157Y-11152833D01*
X73216659Y-11385000D01*
X73823341Y-11385000D01*
X74383843Y-11152833D01*
X74812833Y-10723843D01*
X75045000Y-10163341D01*
X75045000Y-9556659D01*
X77075000Y-9556659D01*
X77075000Y-10163341D01*
X77307167Y-10723843D01*
X77736157Y-11152833D01*
X78296659Y-11385000D01*
X78903341Y-11385000D01*
X79463843Y-11152833D01*
X79870000Y-10746676D01*
X80276157Y-11152833D01*
X80836659Y-11385000D01*
X81443341Y-11385000D01*
X82003843Y-11152833D01*
X82410000Y-10746676D01*
X82816157Y-11152833D01*
X83376659Y-11385000D01*
X83983341Y-11385000D01*
X84543843Y-11152833D01*
X84972833Y-10723843D01*
X85205000Y-10163341D01*
X85205000Y-9556659D01*
X84972833Y-8996157D01*
X84543843Y-8567167D01*
X83983341Y-8335000D01*
X83376659Y-8335000D01*
X82816157Y-8567167D01*
X82410000Y-8973324D01*
X82003843Y-8567167D01*
X81443341Y-8335000D01*
X80836659Y-8335000D01*
X80276157Y-8567167D01*
X79870000Y-8973324D01*
X79463843Y-8567167D01*
X78903341Y-8335000D01*
X78296659Y-8335000D01*
X77736157Y-8567167D01*
X77307167Y-8996157D01*
X77075000Y-9556659D01*
X75045000Y-9556659D01*
X74812833Y-8996157D01*
X74383843Y-8567167D01*
X73823341Y-8335000D01*
X73216659Y-8335000D01*
X72656157Y-8567167D01*
X72227167Y-8996157D01*
X71995000Y-9556659D01*
X58367514Y-9556659D01*
X58229266Y-9394758D01*
X57922995Y-9238665D01*
X58023468Y-9218680D01*
X58507596Y-8895196D01*
X58831080Y-8411068D01*
X58944673Y-7840000D01*
X58900248Y-7616659D01*
X59935000Y-7616659D01*
X59935000Y-8223341D01*
X60167167Y-8783843D01*
X60596157Y-9212833D01*
X61156659Y-9445000D01*
X61763341Y-9445000D01*
X62323843Y-9212833D01*
X62752833Y-8783843D01*
X62985000Y-8223341D01*
X62985000Y-7616659D01*
X65015000Y-7616659D01*
X65015000Y-8223341D01*
X65247167Y-8783843D01*
X65676157Y-9212833D01*
X66236659Y-9445000D01*
X66843341Y-9445000D01*
X67403843Y-9212833D01*
X67832833Y-8783843D01*
X68065000Y-8223341D01*
X68065000Y-8017149D01*
X68067465Y-8023100D01*
X68376900Y-8332535D01*
X68781196Y-8500000D01*
X69218804Y-8500000D01*
X69623100Y-8332535D01*
X69932535Y-8023100D01*
X70100000Y-7618804D01*
X70100000Y-7181196D01*
X69932535Y-6776900D01*
X69623100Y-6467465D01*
X69218804Y-6300000D01*
X68781196Y-6300000D01*
X68376900Y-6467465D01*
X68067465Y-6776900D01*
X67900000Y-7181196D01*
X67900000Y-7218313D01*
X67832833Y-7056157D01*
X67403843Y-6627167D01*
X66843341Y-6395000D01*
X66236659Y-6395000D01*
X65676157Y-6627167D01*
X65247167Y-7056157D01*
X65015000Y-7616659D01*
X62985000Y-7616659D01*
X62752833Y-7056157D01*
X62323843Y-6627167D01*
X61763341Y-6395000D01*
X61156659Y-6395000D01*
X60596157Y-6627167D01*
X60167167Y-7056157D01*
X59935000Y-7616659D01*
X58900248Y-7616659D01*
X58831080Y-7268932D01*
X58507596Y-6784804D01*
X58452745Y-6748154D01*
X58550108Y-6728787D01*
X58748575Y-6596175D01*
X58881187Y-6397708D01*
X58904362Y-6281196D01*
X70200000Y-6281196D01*
X70200000Y-6718804D01*
X70367465Y-7123100D01*
X70676900Y-7432535D01*
X71081196Y-7600000D01*
X71518804Y-7600000D01*
X71923100Y-7432535D01*
X72232535Y-7123100D01*
X72400000Y-6718804D01*
X72400000Y-6281196D01*
X72232535Y-5876900D01*
X71923100Y-5567465D01*
X71518804Y-5400000D01*
X71081196Y-5400000D01*
X70676900Y-5567465D01*
X70367465Y-5876900D01*
X70200000Y-6281196D01*
X58904362Y-6281196D01*
X58927754Y-6163600D01*
X58927754Y-4436400D01*
X58881187Y-4202292D01*
X58748575Y-4003825D01*
X58550108Y-3871213D01*
X58316000Y-3824646D01*
X56284000Y-3824646D01*
X56049892Y-3871213D01*
X55851425Y-4003825D01*
X55718813Y-4202292D01*
X55672246Y-4436400D01*
X55672246Y-6163600D01*
X55718813Y-6397708D01*
X55851425Y-6596175D01*
X56049892Y-6728787D01*
X56147255Y-6748154D01*
X56092404Y-6784804D01*
X55768920Y-7268932D01*
X55655327Y-7840000D01*
X41449798Y-7840000D01*
X41500000Y-7718804D01*
X41500000Y-7281196D01*
X41332535Y-6876900D01*
X41023100Y-6567465D01*
X40618804Y-6400000D01*
X40181196Y-6400000D01*
X39776900Y-6567465D01*
X39467465Y-6876900D01*
X39300000Y-7281196D01*
X39300000Y-7718804D01*
X39467465Y-8123100D01*
X39776900Y-8432535D01*
X39961470Y-8508987D01*
X39676157Y-8627167D01*
X39247167Y-9056157D01*
X39015000Y-9616659D01*
X36985000Y-9616659D01*
X36752833Y-9056157D01*
X36323843Y-8627167D01*
X35763341Y-8395000D01*
X35156659Y-8395000D01*
X34596157Y-8627167D01*
X34167167Y-9056157D01*
X33935000Y-9616659D01*
X33935000Y-10006030D01*
X33679021Y-9900000D01*
X33320979Y-9900000D01*
X32990191Y-10037017D01*
X32737017Y-10290191D01*
X32600000Y-10620979D01*
X28900293Y-10620979D01*
X29065000Y-10223341D01*
X29065000Y-9616659D01*
X28832833Y-9056157D01*
X28403843Y-8627167D01*
X27843341Y-8395000D01*
X27236659Y-8395000D01*
X26676157Y-8627167D01*
X26247167Y-9056157D01*
X26015000Y-9616659D01*
X23985000Y-9616659D01*
X23752833Y-9056157D01*
X23323843Y-8627167D01*
X22763341Y-8395000D01*
X22156659Y-8395000D01*
X21596157Y-8627167D01*
X21167167Y-9056157D01*
X20935000Y-9616659D01*
X16065000Y-9616659D01*
X15832833Y-9056157D01*
X15403843Y-8627167D01*
X14843341Y-8395000D01*
X14236659Y-8395000D01*
X13676157Y-8627167D01*
X13247167Y-9056157D01*
X13015000Y-9616659D01*
X10985000Y-9616659D01*
X10752833Y-9056157D01*
X10323843Y-8627167D01*
X9763341Y-8395000D01*
X9156659Y-8395000D01*
X8596157Y-8627167D01*
X8167167Y-9056157D01*
X7935000Y-9616659D01*
X675000Y-9616659D01*
X675000Y-7281196D01*
X17800000Y-7281196D01*
X17800000Y-7718804D01*
X17967465Y-8123100D01*
X18276900Y-8432535D01*
X18681196Y-8600000D01*
X19118804Y-8600000D01*
X19523100Y-8432535D01*
X19832535Y-8123100D01*
X20000000Y-7718804D01*
X20000000Y-7281196D01*
X28600000Y-7281196D01*
X28600000Y-7718804D01*
X28767465Y-8123100D01*
X29076900Y-8432535D01*
X29481196Y-8600000D01*
X29918804Y-8600000D01*
X30323100Y-8432535D01*
X30632535Y-8123100D01*
X30800000Y-7718804D01*
X30800000Y-7281196D01*
X30632535Y-6876900D01*
X30323100Y-6567465D01*
X29918804Y-6400000D01*
X29481196Y-6400000D01*
X29076900Y-6567465D01*
X28767465Y-6876900D01*
X28600000Y-7281196D01*
X20000000Y-7281196D01*
X19832535Y-6876900D01*
X19523100Y-6567465D01*
X19118804Y-6400000D01*
X18681196Y-6400000D01*
X18276900Y-6567465D01*
X17967465Y-6876900D01*
X17800000Y-7281196D01*
X675000Y-7281196D01*
X675000Y-5154343D01*
X19565000Y-5154343D01*
X19565000Y-5645657D01*
X19753018Y-6099571D01*
X20100429Y-6446982D01*
X20554343Y-6635000D01*
X21045657Y-6635000D01*
X21499571Y-6446982D01*
X21846982Y-6099571D01*
X22035000Y-5645657D01*
X22035000Y-5154343D01*
X21846982Y-4700429D01*
X21499571Y-4353018D01*
X21045657Y-4165000D01*
X20554343Y-4165000D01*
X20100429Y-4353018D01*
X19753018Y-4700429D01*
X19565000Y-5154343D01*
X675000Y-5154343D01*
X675000Y-3201088D01*
X14200000Y-3201088D01*
X14200000Y-3598912D01*
X14352241Y-3966454D01*
X14633546Y-4247759D01*
X15001088Y-4400000D01*
X15398912Y-4400000D01*
X15766454Y-4247759D01*
X16047759Y-3966454D01*
X16074834Y-3901088D01*
X24300000Y-3901088D01*
X24300000Y-4298912D01*
X24452241Y-4666454D01*
X24733546Y-4947759D01*
X25101088Y-5100000D01*
X25498912Y-5100000D01*
X25866454Y-4947759D01*
X26147759Y-4666454D01*
X26300000Y-4298912D01*
X26300000Y-3920979D01*
X35600000Y-3920979D01*
X35600000Y-4279021D01*
X35737017Y-4609809D01*
X35990191Y-4862983D01*
X36320979Y-5000000D01*
X36679021Y-5000000D01*
X37009809Y-4862983D01*
X37091596Y-4781196D01*
X39600000Y-4781196D01*
X39600000Y-5218804D01*
X39767465Y-5623100D01*
X40076900Y-5932535D01*
X40481196Y-6100000D01*
X40918804Y-6100000D01*
X41323100Y-5932535D01*
X41632535Y-5623100D01*
X41750000Y-5339515D01*
X41867465Y-5623100D01*
X42176900Y-5932535D01*
X42581196Y-6100000D01*
X43018804Y-6100000D01*
X43423100Y-5932535D01*
X43732535Y-5623100D01*
X43900000Y-5218804D01*
X44067465Y-5623100D01*
X44376900Y-5932535D01*
X44781196Y-6100000D01*
X45218804Y-6100000D01*
X45623100Y-5932535D01*
X45932535Y-5623100D01*
X46100000Y-5218804D01*
X46100000Y-4781196D01*
X46066819Y-4701088D01*
X52800000Y-4701088D01*
X52800000Y-5098912D01*
X52952241Y-5466454D01*
X53233546Y-5747759D01*
X53601088Y-5900000D01*
X53998912Y-5900000D01*
X54366454Y-5747759D01*
X54647759Y-5466454D01*
X54800000Y-5098912D01*
X54800000Y-4701088D01*
X54647759Y-4333546D01*
X54366454Y-4052241D01*
X53998912Y-3900000D01*
X53601088Y-3900000D01*
X53233546Y-4052241D01*
X52952241Y-4333546D01*
X52800000Y-4701088D01*
X46066819Y-4701088D01*
X45932535Y-4376900D01*
X45923495Y-4367860D01*
X46001088Y-4400000D01*
X46398912Y-4400000D01*
X46766454Y-4247759D01*
X47047759Y-3966454D01*
X47200000Y-3598912D01*
X47200000Y-3201088D01*
X47400000Y-3201088D01*
X47400000Y-3598912D01*
X47552241Y-3966454D01*
X47833546Y-4247759D01*
X48201088Y-4400000D01*
X48598912Y-4400000D01*
X48966454Y-4247759D01*
X49247759Y-3966454D01*
X49365916Y-3681196D01*
X60400000Y-3681196D01*
X60400000Y-4118804D01*
X60567465Y-4523100D01*
X60876900Y-4832535D01*
X61281196Y-5000000D01*
X61718804Y-5000000D01*
X62123100Y-4832535D01*
X62432535Y-4523100D01*
X62600000Y-4118804D01*
X62600000Y-3681196D01*
X62432535Y-3276900D01*
X62123100Y-2967465D01*
X61718804Y-2800000D01*
X61281196Y-2800000D01*
X60876900Y-2967465D01*
X60567465Y-3276900D01*
X60400000Y-3681196D01*
X49365916Y-3681196D01*
X49400000Y-3598912D01*
X49400000Y-3201088D01*
X49247759Y-2833546D01*
X48966454Y-2552241D01*
X48598912Y-2400000D01*
X48201088Y-2400000D01*
X47833546Y-2552241D01*
X47552241Y-2833546D01*
X47400000Y-3201088D01*
X47200000Y-3201088D01*
X47047759Y-2833546D01*
X46766454Y-2552241D01*
X46398912Y-2400000D01*
X46001088Y-2400000D01*
X45633546Y-2552241D01*
X45352241Y-2833546D01*
X45200000Y-3201088D01*
X45200000Y-3598912D01*
X45346650Y-3952955D01*
X45218804Y-3900000D01*
X44781196Y-3900000D01*
X44376900Y-4067465D01*
X44067465Y-4376900D01*
X43900000Y-4781196D01*
X43732535Y-4376900D01*
X43423100Y-4067465D01*
X43018804Y-3900000D01*
X42581196Y-3900000D01*
X42176900Y-4067465D01*
X41867465Y-4376900D01*
X41750000Y-4660485D01*
X41632535Y-4376900D01*
X41323100Y-4067465D01*
X40918804Y-3900000D01*
X40481196Y-3900000D01*
X40076900Y-4067465D01*
X39767465Y-4376900D01*
X39600000Y-4781196D01*
X37091596Y-4781196D01*
X37262983Y-4609809D01*
X37400000Y-4279021D01*
X37400000Y-3920979D01*
X37262983Y-3590191D01*
X37009809Y-3337017D01*
X36679021Y-3200000D01*
X36320979Y-3200000D01*
X35990191Y-3337017D01*
X35737017Y-3590191D01*
X35600000Y-3920979D01*
X26300000Y-3920979D01*
X26300000Y-3901088D01*
X26147759Y-3533546D01*
X25866454Y-3252241D01*
X25498912Y-3100000D01*
X25101088Y-3100000D01*
X24733546Y-3252241D01*
X24452241Y-3533546D01*
X24300000Y-3901088D01*
X16074834Y-3901088D01*
X16200000Y-3598912D01*
X16200000Y-3201088D01*
X16047759Y-2833546D01*
X15766454Y-2552241D01*
X15398912Y-2400000D01*
X15001088Y-2400000D01*
X14633546Y-2552241D01*
X14352241Y-2833546D01*
X14200000Y-3201088D01*
X675000Y-3201088D01*
X675000Y-1534000D01*
X7918000Y-1534000D01*
X7918000Y-2063565D01*
X7978896Y-2210582D01*
X8091418Y-2323104D01*
X8238435Y-2384000D01*
X8768000Y-2384000D01*
X8868000Y-2284000D01*
X8868000Y-1434000D01*
X8018000Y-1434000D01*
X7918000Y-1534000D01*
X675000Y-1534000D01*
X675000Y-675000D01*
X7918000Y-675000D01*
X7918000Y-734000D01*
G04 #@! TD*
M02*
