G04 #@! TF.GenerationSoftware,KiCad,Pcbnew,5.0.2-bee76a0~70~ubuntu16.04.1*
G04 #@! TF.CreationDate,2019-02-20T20:44:02-08:00*
G04 #@! TF.ProjectId,n2adr,6e326164-722e-46b6-9963-61645f706362,E5b8*
G04 #@! TF.SameCoordinates,PX3dfd240PY3473bc0*
G04 #@! TF.FileFunction,Soldermask,Top*
G04 #@! TF.FilePolarity,Negative*
%FSLAX46Y46*%
G04 Gerber Fmt 4.6, Leading zero omitted, Abs format (unit mm)*
G04 Created by KiCad (PCBNEW 5.0.2-bee76a0~70~ubuntu16.04.1) date Wed 20 Feb 2019 08:44:02 PM PST*
%MOMM*%
%LPD*%
G01*
G04 APERTURE LIST*
%ADD10C,2.250000*%
%ADD11R,3.900000X2.200000*%
%ADD12R,1.650000X1.600000*%
%ADD13R,1.600000X1.650000*%
%ADD14R,2.000000X2.000000*%
%ADD15C,3.100020*%
%ADD16R,2.600000X2.600000*%
%ADD17C,1.400000*%
%ADD18R,2.000000X2.900000*%
%ADD19R,2.900000X2.000000*%
%ADD20R,2.200000X3.900000*%
%ADD21R,2.000000X5.600000*%
%ADD22R,4.800000X5.600000*%
%ADD23R,2.432000X2.127200*%
%ADD24O,2.432000X2.127200*%
%ADD25R,2.100000X2.100000*%
%ADD26O,2.100000X2.100000*%
%ADD27C,2.398980*%
%ADD28C,4.600000*%
%ADD29C,3.900000*%
%ADD30C,2.880000*%
%ADD31C,2.800000*%
%ADD32R,1.700000X1.700000*%
%ADD33R,1.700000X2.400000*%
%ADD34R,1.300000X1.600000*%
%ADD35C,1.670000*%
%ADD36C,1.000000*%
%ADD37C,1.200000*%
%ADD38C,0.200000*%
G04 APERTURE END LIST*
D10*
G04 #@! TO.C,K3*
X53540000Y-9920000D03*
X53540000Y-15000000D03*
X53540000Y-17540000D03*
X53540000Y-20080000D03*
X48460000Y-20080000D03*
X48460000Y-17540000D03*
X48460000Y-15000000D03*
X48460000Y-9920000D03*
G04 #@! TD*
G04 #@! TO.C,K4*
X40540000Y-9920000D03*
X40540000Y-15000000D03*
X40540000Y-17540000D03*
X40540000Y-20080000D03*
X35460000Y-20080000D03*
X35460000Y-17540000D03*
X35460000Y-15000000D03*
X35460000Y-9920000D03*
G04 #@! TD*
D11*
G04 #@! TO.C,L2*
X70400000Y-31500000D03*
X70400000Y-26500000D03*
G04 #@! TD*
D12*
G04 #@! TO.C,C1*
X73300000Y-5200000D03*
X73300000Y-7400000D03*
G04 #@! TD*
D13*
G04 #@! TO.C,C2*
X68700000Y-5100000D03*
X66500000Y-5100000D03*
G04 #@! TD*
G04 #@! TO.C,C4*
X53600000Y-7100000D03*
X51400000Y-7100000D03*
G04 #@! TD*
D14*
G04 #@! TO.C,C8*
X65200000Y-32800000D03*
X62000000Y-32800000D03*
G04 #@! TD*
G04 #@! TO.C,C9*
X68600000Y-35000000D03*
X71800000Y-35000000D03*
G04 #@! TD*
G04 #@! TO.C,C10*
X64400000Y-23800000D03*
X67600000Y-23800000D03*
G04 #@! TD*
D15*
G04 #@! TO.C,JP1*
X81100000Y-43300000D03*
X81100000Y-33140000D03*
G04 #@! TD*
D16*
G04 #@! TO.C,L3*
X80100000Y-40100000D03*
X82100000Y-36300000D03*
X82100000Y-40100000D03*
X80100000Y-36300000D03*
G04 #@! TD*
D17*
G04 #@! TO.C,P3*
X44900000Y-10500000D03*
G04 #@! TD*
G04 #@! TO.C,P6*
X18900000Y-7500000D03*
G04 #@! TD*
D13*
G04 #@! TO.C,R2*
X94100000Y-34500000D03*
X91900000Y-34500000D03*
G04 #@! TD*
G04 #@! TO.C,R3*
X91900000Y-42000000D03*
X94100000Y-42000000D03*
G04 #@! TD*
G04 #@! TO.C,R6*
X94100000Y-39500000D03*
X91900000Y-39500000D03*
G04 #@! TD*
G04 #@! TO.C,R7*
X91900000Y-37000000D03*
X94100000Y-37000000D03*
G04 #@! TD*
D14*
G04 #@! TO.C,C21*
X95200000Y-16800000D03*
X95200000Y-13600000D03*
G04 #@! TD*
G04 #@! TO.C,C22*
X95200000Y-7200000D03*
X95200000Y-10400000D03*
G04 #@! TD*
G04 #@! TO.C,C23*
X83600000Y-4400000D03*
X80400000Y-4400000D03*
G04 #@! TD*
G04 #@! TO.C,C24*
X5500000Y-25900000D03*
X5500000Y-29100000D03*
G04 #@! TD*
G04 #@! TO.C,C25*
X8900000Y-33000000D03*
X12100000Y-33000000D03*
G04 #@! TD*
G04 #@! TO.C,C26*
X13900000Y-25500000D03*
X17100000Y-25500000D03*
G04 #@! TD*
D18*
G04 #@! TO.C,L7*
X8900000Y-29500000D03*
X12100000Y-29500000D03*
G04 #@! TD*
D19*
G04 #@! TO.C,L8*
X17000000Y-31600000D03*
X17000000Y-28400000D03*
G04 #@! TD*
D14*
G04 #@! TO.C,C32*
X47250000Y-37600000D03*
X47250000Y-34400000D03*
G04 #@! TD*
G04 #@! TO.C,C33*
X33750000Y-37600000D03*
X33750000Y-34400000D03*
G04 #@! TD*
G04 #@! TO.C,C34*
X24200000Y-35200000D03*
X21000000Y-35200000D03*
G04 #@! TD*
G04 #@! TO.C,C35*
X50600000Y-31000000D03*
X47400000Y-31000000D03*
G04 #@! TD*
G04 #@! TO.C,C36*
X36850000Y-31000000D03*
X33650000Y-31000000D03*
G04 #@! TD*
G04 #@! TO.C,C37*
X50250000Y-37600000D03*
X50250000Y-34400000D03*
G04 #@! TD*
G04 #@! TO.C,C38*
X36750000Y-37600000D03*
X36750000Y-34400000D03*
G04 #@! TD*
G04 #@! TO.C,C39*
X27000000Y-35200000D03*
X30200000Y-35200000D03*
G04 #@! TD*
G04 #@! TO.C,C40*
X57100000Y-31000000D03*
X53900000Y-31000000D03*
G04 #@! TD*
G04 #@! TO.C,C41*
X43600000Y-30500000D03*
X40400000Y-30500000D03*
G04 #@! TD*
G04 #@! TO.C,C42*
X54400000Y-40500000D03*
X57600000Y-40500000D03*
G04 #@! TD*
G04 #@! TO.C,C43*
X40400000Y-37500000D03*
X43600000Y-37500000D03*
G04 #@! TD*
G04 #@! TO.C,C44*
X26000000Y-25700000D03*
X29200000Y-25700000D03*
G04 #@! TD*
D18*
G04 #@! TO.C,L10*
X34400000Y-27000000D03*
X37600000Y-27000000D03*
G04 #@! TD*
G04 #@! TO.C,L11*
X21000000Y-30200000D03*
X24200000Y-30200000D03*
G04 #@! TD*
G04 #@! TO.C,L13*
X40400000Y-34000000D03*
X43600000Y-34000000D03*
G04 #@! TD*
D19*
G04 #@! TO.C,L14*
X28600000Y-31800000D03*
X28600000Y-28600000D03*
G04 #@! TD*
D17*
G04 #@! TO.C,P1*
X71300000Y-6500000D03*
G04 #@! TD*
G04 #@! TO.C,P2*
X69000000Y-7400000D03*
G04 #@! TD*
G04 #@! TO.C,P4*
X40400000Y-7500000D03*
G04 #@! TD*
G04 #@! TO.C,P5*
X29700000Y-7500000D03*
G04 #@! TD*
D20*
G04 #@! TO.C,L1*
X60300000Y-28400000D03*
X65300000Y-28400000D03*
G04 #@! TD*
D11*
G04 #@! TO.C,L5*
X90800000Y-16100000D03*
X90800000Y-11100000D03*
G04 #@! TD*
D20*
G04 #@! TO.C,L6*
X94300000Y-3400000D03*
X89300000Y-3400000D03*
G04 #@! TD*
G04 #@! TO.C,L9*
X47500000Y-27000000D03*
X52500000Y-27000000D03*
G04 #@! TD*
D18*
G04 #@! TO.C,L12*
X54400000Y-36000000D03*
X57600000Y-36000000D03*
G04 #@! TD*
D12*
G04 #@! TO.C,C50*
X51600000Y-40800000D03*
X51600000Y-43000000D03*
G04 #@! TD*
D17*
G04 #@! TO.C,P7*
X90500000Y-31000000D03*
G04 #@! TD*
D12*
G04 #@! TO.C,C47*
X92000000Y-21400000D03*
X92000000Y-23600000D03*
G04 #@! TD*
G04 #@! TO.C,C48*
X95500000Y-26600000D03*
X95500000Y-24400000D03*
G04 #@! TD*
G04 #@! TO.C,C49*
X92000000Y-26900000D03*
X92000000Y-29100000D03*
G04 #@! TD*
G04 #@! TO.C,L4*
X95500000Y-31100000D03*
X95500000Y-28900000D03*
G04 #@! TD*
G04 #@! TO.C,L15*
X95500000Y-19900000D03*
X95500000Y-22100000D03*
G04 #@! TD*
D21*
G04 #@! TO.C,CN4*
X64000000Y-45000000D03*
D22*
X60200000Y-45000000D03*
X67800000Y-45000000D03*
G04 #@! TD*
D21*
G04 #@! TO.C,CN3*
X32000000Y-45000000D03*
D22*
X28200000Y-45000000D03*
X35800000Y-45000000D03*
G04 #@! TD*
D12*
G04 #@! TO.C,R1*
X94800000Y-47100000D03*
X94800000Y-44900000D03*
G04 #@! TD*
D10*
G04 #@! TO.C,K1*
X73520000Y-9860000D03*
X78600000Y-9860000D03*
X81140000Y-9860000D03*
X83680000Y-9860000D03*
X83680000Y-14940000D03*
X81140000Y-14940000D03*
X78600000Y-14940000D03*
X73520000Y-14940000D03*
G04 #@! TD*
G04 #@! TO.C,K2*
X66540000Y-7920000D03*
X66540000Y-13000000D03*
X66540000Y-15540000D03*
X66540000Y-18080000D03*
X61460000Y-18080000D03*
X61460000Y-15540000D03*
X61460000Y-13000000D03*
X61460000Y-7920000D03*
G04 #@! TD*
G04 #@! TO.C,K5*
X27540000Y-9920000D03*
X27540000Y-15000000D03*
X27540000Y-17540000D03*
X27540000Y-20080000D03*
X22460000Y-20080000D03*
X22460000Y-17540000D03*
X22460000Y-15000000D03*
X22460000Y-9920000D03*
G04 #@! TD*
G04 #@! TO.C,K6*
X14540000Y-9920000D03*
X14540000Y-15000000D03*
X14540000Y-17540000D03*
X14540000Y-20080000D03*
X9460000Y-20080000D03*
X9460000Y-17540000D03*
X9460000Y-15000000D03*
X9460000Y-9920000D03*
G04 #@! TD*
G04 #@! TO.C,K7*
X88680000Y-27740000D03*
X83600000Y-27740000D03*
X81060000Y-27740000D03*
X78520000Y-27740000D03*
X78520000Y-22660000D03*
X81060000Y-22660000D03*
X83600000Y-22660000D03*
X88680000Y-22660000D03*
G04 #@! TD*
D23*
G04 #@! TO.C,CN5*
X57300000Y-5300000D03*
D24*
X57300000Y-7840000D03*
X57300000Y-10380000D03*
G04 #@! TD*
D25*
G04 #@! TO.C,J3*
X67588000Y-1134000D03*
G04 #@! TD*
G04 #@! TO.C,CN2*
X9168000Y-1134000D03*
D26*
X11708000Y-1134000D03*
X14248000Y-1134000D03*
X16788000Y-1134000D03*
X19328000Y-1134000D03*
X21868000Y-1134000D03*
X24408000Y-1134000D03*
X26948000Y-1134000D03*
X29488000Y-1134000D03*
X32028000Y-1134000D03*
X34568000Y-1134000D03*
X37108000Y-1134000D03*
X39648000Y-1134000D03*
X42188000Y-1134000D03*
X44728000Y-1134000D03*
X47268000Y-1134000D03*
X49808000Y-1134000D03*
X52348000Y-1134000D03*
X54888000Y-1134000D03*
X57428000Y-1134000D03*
G04 #@! TD*
D27*
G04 #@! TO.C,P13*
X52000000Y-45800000D03*
G04 #@! TD*
D17*
G04 #@! TO.C,P8*
X42800000Y-5000000D03*
G04 #@! TD*
G04 #@! TO.C,P14*
X40700000Y-5000000D03*
G04 #@! TD*
G04 #@! TO.C,P16*
X45000000Y-5000000D03*
G04 #@! TD*
D28*
G04 #@! TO.C,CN1*
X12000000Y-44500000D03*
D29*
X12000000Y-40000000D03*
D30*
X16250000Y-47650000D03*
D31*
X7750000Y-47650000D03*
G04 #@! TD*
D32*
G04 #@! TO.C,RV1*
X90250000Y-44850000D03*
D33*
X84750000Y-46000000D03*
D32*
X90250000Y-47150000D03*
G04 #@! TD*
D34*
G04 #@! TO.C,D3*
X36050000Y-5400000D03*
X39350000Y-5400000D03*
G04 #@! TD*
D13*
G04 #@! TO.C,FB1*
X49900000Y-4200000D03*
X52100000Y-4200000D03*
G04 #@! TD*
D35*
G04 #@! TO.C,P15*
X20800000Y-5400000D03*
G04 #@! TD*
D36*
X73400000Y-43800000D03*
X49800000Y-35800000D03*
X43000000Y-15600000D03*
X44400000Y-14600000D03*
X33500000Y-10800000D03*
X23500000Y-33000000D03*
X35200000Y-32800000D03*
X49400000Y-23800000D03*
X51600000Y-36200000D03*
X47800000Y-41300000D03*
D17*
X73900000Y-27800000D03*
D37*
X60700000Y-39800000D03*
X53300000Y-43400000D03*
X40100000Y-44800000D03*
X52000000Y-37400000D03*
X39500000Y-28400000D03*
X15200000Y-3400000D03*
D17*
X61500000Y-3900000D03*
D37*
X48800000Y-40400000D03*
D36*
X36500000Y-4100000D03*
D37*
X25300000Y-4100000D03*
X48400000Y-3400000D03*
X46200000Y-3400000D03*
X17600000Y-13700000D03*
X53800000Y-4900000D03*
D38*
G36*
X2900000Y-49900000D02*
X100000Y-49900000D01*
X100000Y-100000D01*
X2900000Y-100000D01*
X2900000Y-49900000D01*
X2900000Y-49900000D01*
G37*
X2900000Y-49900000D02*
X100000Y-49900000D01*
X100000Y-100000D01*
X2900000Y-100000D01*
X2900000Y-49900000D01*
G36*
X99900000Y-49900000D02*
X97100000Y-49900000D01*
X97100000Y-100000D01*
X99900000Y-100000D01*
X99900000Y-49900000D01*
X99900000Y-49900000D01*
G37*
X99900000Y-49900000D02*
X97100000Y-49900000D01*
X97100000Y-100000D01*
X99900000Y-100000D01*
X99900000Y-49900000D01*
M02*
