G04 #@! TF.FileFunction,Soldermask,Bot*
%FSLAX46Y46*%
G04 Gerber Fmt 4.6, Leading zero omitted, Abs format (unit mm)*
G04 Created by KiCad (PCBNEW 4.0.6) date 06/25/17 22:41:49*
%MOMM*%
%LPD*%
G01*
G04 APERTURE LIST*
%ADD10C,0.100000*%
%ADD11C,1.900000*%
%ADD12C,0.700000*%
%ADD13C,3.200000*%
%ADD14C,2.700000*%
%ADD15C,4.200000*%
%ADD16R,1.343000X0.835000*%
%ADD17R,2.050000X2.050000*%
%ADD18C,2.050000*%
%ADD19R,0.835000X1.343000*%
%ADD20R,1.089000X1.597000*%
%ADD21R,1.800000X2.000000*%
%ADD22R,1.597000X1.089000*%
%ADD23R,1.200000X1.200000*%
%ADD24R,1.250000X0.800000*%
%ADD25R,1.300000X0.800000*%
%ADD26R,3.200000X1.700000*%
%ADD27R,1.978000X2.994000*%
%ADD28R,0.800000X2.400000*%
%ADD29C,1.600000*%
%ADD30C,2.000000*%
%ADD31C,3.450000*%
%ADD32C,2.740000*%
%ADD33C,1.000000*%
%ADD34C,2.200000*%
%ADD35R,1.000000X1.100000*%
%ADD36R,1.100000X1.000000*%
%ADD37C,2.500000*%
%ADD38R,2.300000X2.200000*%
%ADD39R,0.600000X1.200000*%
%ADD40C,5.500000*%
%ADD41R,12.200000X10.300000*%
%ADD42O,1.800000X2.600000*%
%ADD43C,2.300000*%
%ADD44C,3.000000*%
%ADD45R,10.200000X3.200000*%
%ADD46C,2.800000*%
%ADD47R,1.597000X1.550000*%
%ADD48R,5.200000X3.500000*%
%ADD49C,0.801000*%
%ADD50C,0.803000*%
%ADD51C,0.800000*%
%ADD52C,0.802000*%
%ADD53C,0.254000*%
G04 APERTURE END LIST*
D10*
G36*
X68419238Y-31166548D02*
X69833452Y-32580762D01*
X68560660Y-33853554D01*
X67146446Y-32439340D01*
X68419238Y-31166548D01*
X68419238Y-31166548D01*
G37*
G36*
X66439340Y-33146446D02*
X67853554Y-34560660D01*
X66580762Y-35833452D01*
X65166548Y-34419238D01*
X66439340Y-33146446D01*
X66439340Y-33146446D01*
G37*
D11*
X21255000Y-66820715D03*
D12*
X22755000Y-67320715D03*
X22755000Y-65320715D03*
X22755000Y-66420715D03*
X21655000Y-65320715D03*
X20755000Y-65320715D03*
X22255000Y-65820715D03*
D13*
X43500000Y-67800000D03*
D12*
X44500000Y-72800000D03*
X44500000Y-71300000D03*
X43000000Y-72800000D03*
X43000000Y-71300000D03*
X38500000Y-72800000D03*
X40000000Y-72800000D03*
X40000000Y-66800000D03*
X38500000Y-66800000D03*
X38500000Y-68300000D03*
X40000000Y-68300000D03*
X40000000Y-71300000D03*
X38500000Y-71300000D03*
X38500000Y-69800000D03*
X40000000Y-69800000D03*
X44500000Y-69800000D03*
X43000000Y-69800000D03*
X41500000Y-66800000D03*
X41500000Y-68300000D03*
X41500000Y-72800000D03*
X41500000Y-71300000D03*
X41500000Y-69800000D03*
X71395000Y-70325000D03*
X74395000Y-70325000D03*
X71395000Y-68825000D03*
D11*
X74700000Y-68950000D03*
D12*
X72895000Y-70325000D03*
X72895000Y-68825000D03*
X52500000Y-23750000D03*
D14*
X49500000Y-23750000D03*
D12*
X51500000Y-23750000D03*
X67200000Y-23750000D03*
D14*
X64200000Y-23750000D03*
D12*
X66200000Y-23750000D03*
X81900000Y-23750000D03*
D14*
X78900000Y-23750000D03*
D12*
X80900000Y-23750000D03*
X38600000Y-43800000D03*
X37100000Y-46800000D03*
X37100000Y-45300000D03*
X35600000Y-45300000D03*
X38600000Y-45300000D03*
X35600000Y-43800000D03*
X37100000Y-43800000D03*
D15*
X39200000Y-47400000D03*
D12*
X35600000Y-46800000D03*
D16*
X76200000Y-57638000D03*
X76200000Y-59162000D03*
X81900000Y-57638000D03*
X81900000Y-59162000D03*
X87600000Y-57638000D03*
X87600000Y-59162000D03*
D17*
X79500000Y-55800000D03*
D18*
X79500000Y-58340000D03*
D17*
X85200000Y-55800000D03*
D18*
X85200000Y-58340000D03*
D17*
X90900000Y-55800000D03*
D18*
X90900000Y-58340000D03*
D16*
X84800000Y-43438000D03*
X84800000Y-44962000D03*
D19*
X76438000Y-45800000D03*
X77962000Y-45800000D03*
X79438000Y-47900000D03*
X80962000Y-47900000D03*
D16*
X84800000Y-40162000D03*
X84800000Y-38638000D03*
D19*
X76438000Y-42600000D03*
X77962000Y-42600000D03*
D16*
X79300000Y-43538000D03*
X79300000Y-45062000D03*
X83200000Y-40162000D03*
X83200000Y-38638000D03*
D19*
X76438000Y-41000000D03*
X77962000Y-41000000D03*
D16*
X79300000Y-40062000D03*
X79300000Y-38538000D03*
X83200000Y-43438000D03*
X83200000Y-44962000D03*
D19*
X76438000Y-37800000D03*
X77962000Y-37800000D03*
X79438000Y-36300000D03*
X80962000Y-36300000D03*
X84762000Y-41900000D03*
X83238000Y-41900000D03*
X77962000Y-44200000D03*
X76438000Y-44200000D03*
X77962000Y-39400000D03*
X76438000Y-39400000D03*
D16*
X73000000Y-41238000D03*
X73000000Y-42762000D03*
X73000000Y-39862000D03*
X73000000Y-38338000D03*
D17*
X70900000Y-37300000D03*
D18*
X70900000Y-39840000D03*
X70900000Y-42380000D03*
X70900000Y-44920000D03*
D16*
X73000000Y-44238000D03*
X73000000Y-45762000D03*
D17*
X98570000Y-46010000D03*
D18*
X96030000Y-46010000D03*
X98570000Y-43470000D03*
X96030000Y-43470000D03*
X98570000Y-40930000D03*
X96030000Y-40930000D03*
X98570000Y-38390000D03*
X96030000Y-38390000D03*
D19*
X74662000Y-56900000D03*
X73138000Y-56900000D03*
X73462000Y-53700000D03*
X71938000Y-53700000D03*
D17*
X77500000Y-48000000D03*
D18*
X74960000Y-48000000D03*
D16*
X74000000Y-72438000D03*
X74000000Y-73962000D03*
D20*
X63652500Y-74800000D03*
X61747500Y-74800000D03*
X63652500Y-65800000D03*
X61747500Y-65800000D03*
X63652500Y-72800000D03*
X61747500Y-72800000D03*
X63652500Y-63800000D03*
X61747500Y-63800000D03*
D19*
X68162000Y-62500000D03*
X66638000Y-62500000D03*
X70862000Y-62500000D03*
X69338000Y-62500000D03*
X69462000Y-66600000D03*
X67938000Y-66600000D03*
D17*
X98400000Y-51400000D03*
D18*
X98400000Y-53940000D03*
D21*
X85300000Y-34200000D03*
X88100000Y-34200000D03*
D19*
X93862000Y-77200000D03*
X92338000Y-77200000D03*
D17*
X57500000Y-12000000D03*
D18*
X57500000Y-14540000D03*
D17*
X98100000Y-30500000D03*
D18*
X98100000Y-33040000D03*
D17*
X73300000Y-24400000D03*
D18*
X75840000Y-24400000D03*
D20*
X81047500Y-27700000D03*
X82952500Y-27700000D03*
D17*
X43900000Y-24400000D03*
D18*
X46440000Y-24400000D03*
D17*
X55500000Y-28800000D03*
D18*
X55500000Y-26260000D03*
D17*
X84400000Y-16600000D03*
D18*
X86940000Y-16600000D03*
D17*
X58600000Y-24400000D03*
D18*
X61140000Y-24400000D03*
D17*
X70200000Y-28800000D03*
D18*
X70200000Y-26260000D03*
D20*
X87352500Y-70700000D03*
X85447500Y-70700000D03*
D17*
X82100000Y-76600000D03*
D18*
X79560000Y-76600000D03*
D17*
X82900000Y-68900000D03*
D18*
X80360000Y-68900000D03*
D22*
X86300000Y-65652500D03*
X86300000Y-63747500D03*
D16*
X56000000Y-83338000D03*
X56000000Y-84862000D03*
D17*
X47600000Y-79200000D03*
D18*
X50140000Y-79200000D03*
D22*
X53600000Y-89552500D03*
X53600000Y-87647500D03*
D20*
X47347500Y-91500000D03*
X49252500Y-91500000D03*
D17*
X53700000Y-85500000D03*
D18*
X53700000Y-82960000D03*
D22*
X51300000Y-86252500D03*
X51300000Y-84347500D03*
D20*
X51147500Y-91500000D03*
X53052500Y-91500000D03*
D22*
X47600000Y-87652500D03*
X47600000Y-85747500D03*
X51300000Y-87647500D03*
X51300000Y-89552500D03*
D20*
X49252500Y-89300000D03*
X47347500Y-89300000D03*
D16*
X84000000Y-72262000D03*
X84000000Y-70738000D03*
D17*
X54600000Y-78200000D03*
D18*
X54600000Y-75660000D03*
X54600000Y-73120000D03*
X54600000Y-70580000D03*
D17*
X45200000Y-90100000D03*
D18*
X45200000Y-87560000D03*
D17*
X48700000Y-60800000D03*
D18*
X51240000Y-60800000D03*
D19*
X76162000Y-81000000D03*
X74638000Y-81000000D03*
D22*
X63100000Y-84952500D03*
X63100000Y-83047500D03*
X74900000Y-83047500D03*
X74900000Y-84952500D03*
D20*
X59152500Y-88100000D03*
X57247500Y-88100000D03*
D22*
X76800000Y-84652500D03*
X76800000Y-82747500D03*
D16*
X64700000Y-89462000D03*
X64700000Y-87938000D03*
X81700000Y-89462000D03*
X81700000Y-87938000D03*
D17*
X77200000Y-65700000D03*
D18*
X77200000Y-68240000D03*
X77200000Y-70780000D03*
X77200000Y-73320000D03*
D16*
X68100000Y-72762000D03*
X68100000Y-71238000D03*
X69900000Y-69562000D03*
X69900000Y-68038000D03*
D19*
X68138000Y-64200000D03*
X69662000Y-64200000D03*
D16*
X69900000Y-72162000D03*
X69900000Y-70638000D03*
D17*
X12730000Y-82990000D03*
D18*
X15270000Y-82990000D03*
X12730000Y-85530000D03*
X15270000Y-85530000D03*
X12730000Y-88070000D03*
X15270000Y-88070000D03*
X12730000Y-90610000D03*
X15270000Y-90610000D03*
D16*
X12700000Y-36862000D03*
X12700000Y-35338000D03*
D17*
X20500000Y-37000000D03*
D18*
X17960000Y-37000000D03*
D17*
X18000000Y-34200000D03*
D18*
X20540000Y-34200000D03*
D19*
X45438000Y-60600000D03*
X46962000Y-60600000D03*
D23*
X34700000Y-67100000D03*
D16*
X50000000Y-73762000D03*
X50000000Y-72238000D03*
D10*
G36*
X35240790Y-75808854D02*
X34291146Y-74859210D01*
X34881580Y-74268776D01*
X35831224Y-75218420D01*
X35240790Y-75808854D01*
X35240790Y-75808854D01*
G37*
G36*
X36318420Y-74731224D02*
X35368776Y-73781580D01*
X35959210Y-73191146D01*
X36908854Y-74140790D01*
X36318420Y-74731224D01*
X36318420Y-74731224D01*
G37*
G36*
X36440790Y-77008854D02*
X35491146Y-76059210D01*
X36081580Y-75468776D01*
X37031224Y-76418420D01*
X36440790Y-77008854D01*
X36440790Y-77008854D01*
G37*
G36*
X37518420Y-75931224D02*
X36568776Y-74981580D01*
X37159210Y-74391146D01*
X38108854Y-75340790D01*
X37518420Y-75931224D01*
X37518420Y-75931224D01*
G37*
D19*
X50838000Y-63800000D03*
X52362000Y-63800000D03*
X49562000Y-70900000D03*
X48038000Y-70900000D03*
X49862000Y-75900000D03*
X48338000Y-75900000D03*
X45038000Y-76500000D03*
X46562000Y-76500000D03*
X48038000Y-65400000D03*
X49562000Y-65400000D03*
X46762000Y-63800000D03*
X45238000Y-63800000D03*
D16*
X39300000Y-65238000D03*
X39300000Y-66762000D03*
D19*
X48038000Y-69300000D03*
X49562000Y-69300000D03*
X46562000Y-70900000D03*
X45038000Y-70900000D03*
D16*
X46700000Y-74862000D03*
X46700000Y-73338000D03*
X45100000Y-74862000D03*
X45100000Y-73338000D03*
X43500000Y-76338000D03*
X43500000Y-77862000D03*
X41600000Y-76338000D03*
X41600000Y-77862000D03*
X39500000Y-76338000D03*
X39500000Y-77862000D03*
D19*
X46762000Y-65400000D03*
X45238000Y-65400000D03*
X46762000Y-67400000D03*
X45238000Y-67400000D03*
D16*
X37600000Y-65238000D03*
X37600000Y-66762000D03*
D19*
X46562000Y-69300000D03*
X45038000Y-69300000D03*
D16*
X43500000Y-74862000D03*
X43500000Y-73338000D03*
X41600000Y-74862000D03*
X41600000Y-73338000D03*
X39500000Y-74862000D03*
X39500000Y-73338000D03*
D24*
X58300000Y-32500000D03*
X58300000Y-33450000D03*
X58300000Y-34400000D03*
X55600000Y-34400000D03*
X55600000Y-32500000D03*
D16*
X60000000Y-32438000D03*
X60000000Y-33962000D03*
X53900000Y-32538000D03*
X53900000Y-34062000D03*
D19*
X55562000Y-35900000D03*
X54038000Y-35900000D03*
D16*
X38000000Y-29262000D03*
X38000000Y-27738000D03*
D19*
X43962000Y-12300000D03*
X42438000Y-12300000D03*
X19362000Y-42200000D03*
X17838000Y-42200000D03*
X19362000Y-40500000D03*
X17838000Y-40500000D03*
D20*
X51747500Y-26400000D03*
X53652500Y-26400000D03*
X66447500Y-26400000D03*
X68352500Y-26400000D03*
D22*
X55100000Y-14952500D03*
X55100000Y-13047500D03*
D16*
X18200000Y-74938000D03*
X18200000Y-76462000D03*
D25*
X22600000Y-77050000D03*
X19800000Y-77050000D03*
X22600000Y-76100000D03*
X19800000Y-76100000D03*
X22600000Y-75150000D03*
X19800000Y-75150000D03*
D19*
X22238000Y-73500000D03*
X23762000Y-73500000D03*
X19538000Y-73500000D03*
X21062000Y-73500000D03*
D17*
X27400000Y-71400000D03*
D18*
X27400000Y-73940000D03*
X27400000Y-76480000D03*
X27400000Y-79020000D03*
D16*
X20500000Y-70862000D03*
X20500000Y-69338000D03*
D19*
X16862000Y-76600000D03*
X15338000Y-76600000D03*
X16862000Y-74900000D03*
X15338000Y-74900000D03*
X17362000Y-62700000D03*
X15838000Y-62700000D03*
X17362000Y-61100000D03*
X15838000Y-61100000D03*
X17362000Y-64300000D03*
X15838000Y-64300000D03*
D16*
X18800000Y-69338000D03*
X18800000Y-70862000D03*
D19*
X24962000Y-69300000D03*
X23438000Y-69300000D03*
X16162000Y-68600000D03*
X14638000Y-68600000D03*
X16162000Y-70300000D03*
X14638000Y-70300000D03*
X18538000Y-64300000D03*
X20062000Y-64300000D03*
D16*
X22100000Y-69362000D03*
X22100000Y-67838000D03*
D19*
X18538000Y-65900000D03*
X20062000Y-65900000D03*
D16*
X23000000Y-63138000D03*
X23000000Y-64662000D03*
D19*
X16862000Y-72100000D03*
X15338000Y-72100000D03*
X14662000Y-62700000D03*
X13138000Y-62700000D03*
X24962000Y-67600000D03*
X23438000Y-67600000D03*
X14662000Y-64300000D03*
X13138000Y-64300000D03*
X24962000Y-66000000D03*
X23438000Y-66000000D03*
X18538000Y-67800000D03*
X20062000Y-67800000D03*
X17362000Y-65900000D03*
X15838000Y-65900000D03*
X20162000Y-62300000D03*
X18638000Y-62300000D03*
D16*
X10300000Y-34938000D03*
X10300000Y-36462000D03*
X10400000Y-50038000D03*
X10400000Y-51562000D03*
D26*
X1900000Y-85950000D03*
X1900000Y-83450000D03*
X1900000Y-91050000D03*
X1900000Y-88550000D03*
D17*
X7400000Y-69400000D03*
D18*
X7400000Y-66860000D03*
X7400000Y-64320000D03*
X7400000Y-61780000D03*
D17*
X1430000Y-50290000D03*
D18*
X3970000Y-50290000D03*
X1430000Y-52830000D03*
X3970000Y-52830000D03*
X1430000Y-55370000D03*
X3970000Y-55370000D03*
X1430000Y-57910000D03*
X3970000Y-57910000D03*
D17*
X1430000Y-35190000D03*
D18*
X3970000Y-35190000D03*
X1430000Y-37730000D03*
X3970000Y-37730000D03*
X1430000Y-40270000D03*
X3970000Y-40270000D03*
X1430000Y-42810000D03*
X3970000Y-42810000D03*
D19*
X51962000Y-36500000D03*
X50438000Y-36500000D03*
X26938000Y-52000000D03*
X28462000Y-52000000D03*
D16*
X47700000Y-48938000D03*
X47700000Y-50462000D03*
X23600000Y-38962000D03*
X23600000Y-37438000D03*
D19*
X48462000Y-32900000D03*
X46938000Y-32900000D03*
X28762000Y-57800000D03*
X27238000Y-57800000D03*
X42538000Y-52500000D03*
X44062000Y-52500000D03*
X27362000Y-33200000D03*
X25838000Y-33200000D03*
X35462000Y-51200000D03*
X33938000Y-51200000D03*
D16*
X31300000Y-40762000D03*
X31300000Y-39238000D03*
X43300000Y-40762000D03*
X43300000Y-39238000D03*
D19*
X39838000Y-52500000D03*
X41362000Y-52500000D03*
D27*
X40878000Y-40300000D03*
X37322000Y-40300000D03*
D16*
X50000000Y-35062000D03*
X50000000Y-33538000D03*
X26500000Y-53338000D03*
X26500000Y-54862000D03*
X46100000Y-50462000D03*
X46100000Y-48938000D03*
X24000000Y-36362000D03*
X24000000Y-34838000D03*
D28*
X51795000Y-53800000D03*
X51795000Y-48600000D03*
X53065000Y-53800000D03*
X53065000Y-48600000D03*
X54335000Y-53800000D03*
X54335000Y-48600000D03*
X55605000Y-53800000D03*
X55605000Y-48600000D03*
D16*
X44100000Y-50462000D03*
X44100000Y-48938000D03*
X44500000Y-47762000D03*
X44500000Y-46238000D03*
X29600000Y-44838000D03*
X29600000Y-46362000D03*
D19*
X58438000Y-39600000D03*
X59962000Y-39600000D03*
D16*
X59400000Y-54638000D03*
X59400000Y-56162000D03*
X57600000Y-54638000D03*
X57600000Y-56162000D03*
D19*
X52962000Y-46400000D03*
X51438000Y-46400000D03*
D17*
X58230000Y-42220000D03*
D18*
X60770000Y-42220000D03*
X58230000Y-44760000D03*
X60770000Y-44760000D03*
X58230000Y-47300000D03*
X60770000Y-47300000D03*
X58230000Y-49840000D03*
X60770000Y-49840000D03*
X58230000Y-52380000D03*
X60770000Y-52380000D03*
D16*
X46200000Y-46462000D03*
X46200000Y-44938000D03*
D19*
X48862000Y-41600000D03*
X47338000Y-41600000D03*
D16*
X40200000Y-33538000D03*
X40200000Y-35062000D03*
X43300000Y-33538000D03*
X43300000Y-35062000D03*
X32500000Y-33538000D03*
X32500000Y-35062000D03*
X35800000Y-33538000D03*
X35800000Y-35062000D03*
D19*
X25338000Y-40400000D03*
X26862000Y-40400000D03*
D16*
X28000000Y-46338000D03*
X28000000Y-47862000D03*
X34400000Y-57262000D03*
X34400000Y-55738000D03*
X32800000Y-57262000D03*
X32800000Y-55738000D03*
D19*
X49062000Y-36500000D03*
X47538000Y-36500000D03*
D16*
X28200000Y-53338000D03*
X28200000Y-54862000D03*
D19*
X48962000Y-53100000D03*
X47438000Y-53100000D03*
X25338000Y-36500000D03*
X26862000Y-36500000D03*
D16*
X44300000Y-57162000D03*
X44300000Y-55638000D03*
X38900000Y-57062000D03*
X38900000Y-55538000D03*
D19*
X46938000Y-34500000D03*
X48462000Y-34500000D03*
X27262000Y-56200000D03*
X25738000Y-56200000D03*
X48962000Y-54700000D03*
X47438000Y-54700000D03*
X25838000Y-34800000D03*
X27362000Y-34800000D03*
X42638000Y-54400000D03*
X44162000Y-54400000D03*
X40862000Y-54400000D03*
X39338000Y-54400000D03*
X36362000Y-54400000D03*
X34838000Y-54400000D03*
X31538000Y-54400000D03*
X33062000Y-54400000D03*
D16*
X28000000Y-50462000D03*
X28000000Y-48938000D03*
D19*
X25338000Y-38800000D03*
X26862000Y-38800000D03*
D16*
X28000000Y-42338000D03*
X28000000Y-43862000D03*
X30200000Y-35338000D03*
X30200000Y-36862000D03*
D19*
X41962000Y-36200000D03*
X40438000Y-36200000D03*
X33838000Y-36200000D03*
X35362000Y-36200000D03*
D16*
X45400000Y-35062000D03*
X45400000Y-33538000D03*
X46200000Y-37962000D03*
X46200000Y-36438000D03*
X46100000Y-39738000D03*
X46100000Y-41262000D03*
X46200000Y-51638000D03*
X46200000Y-53162000D03*
D19*
X39462000Y-24900000D03*
X37938000Y-24900000D03*
X37638000Y-20200000D03*
X39162000Y-20200000D03*
X39238000Y-16300000D03*
X40762000Y-16300000D03*
X40762000Y-17900000D03*
X39238000Y-17900000D03*
X39162000Y-21800000D03*
X37638000Y-21800000D03*
D16*
X36500000Y-24638000D03*
X36500000Y-26162000D03*
X35500000Y-29562000D03*
X35500000Y-28038000D03*
X34700000Y-24638000D03*
X34700000Y-26162000D03*
X33800000Y-29562000D03*
X33800000Y-28038000D03*
D19*
X40762000Y-14700000D03*
X39238000Y-14700000D03*
D16*
X39700000Y-26238000D03*
X39700000Y-27762000D03*
X23400000Y-14262000D03*
X23400000Y-12738000D03*
D19*
X7438000Y-11800000D03*
X8962000Y-11800000D03*
X7438000Y-30800000D03*
X8962000Y-30800000D03*
X36538000Y-11600000D03*
X38062000Y-11600000D03*
X30738000Y-29400000D03*
X32262000Y-29400000D03*
D16*
X20200000Y-28838000D03*
X20200000Y-30362000D03*
X17700000Y-28838000D03*
X17700000Y-30362000D03*
X17700000Y-13762000D03*
X17700000Y-12238000D03*
X20200000Y-13762000D03*
X20200000Y-12238000D03*
D19*
X42438000Y-10700000D03*
X43962000Y-10700000D03*
D16*
X40400000Y-10388000D03*
X40400000Y-11912000D03*
D19*
X24538000Y-22400000D03*
X26062000Y-22400000D03*
X24538000Y-20300000D03*
X26062000Y-20300000D03*
D16*
X28800000Y-17138000D03*
X28800000Y-18662000D03*
X30500000Y-17138000D03*
X30500000Y-18662000D03*
D19*
X33462000Y-19600000D03*
X31938000Y-19600000D03*
D16*
X25600000Y-27562000D03*
X25600000Y-26038000D03*
X32200000Y-16538000D03*
X32200000Y-18062000D03*
D19*
X33662000Y-21200000D03*
X32138000Y-21200000D03*
X33662000Y-22900000D03*
X32138000Y-22900000D03*
D16*
X31500000Y-25762000D03*
X31500000Y-24238000D03*
X29600000Y-25762000D03*
X29600000Y-24238000D03*
X27700000Y-25762000D03*
X27700000Y-24238000D03*
X27200000Y-17138000D03*
X27200000Y-18662000D03*
D19*
X24538000Y-24100000D03*
X26062000Y-24100000D03*
D16*
X25600000Y-17138000D03*
X25600000Y-18662000D03*
D29*
X17700000Y-26380000D03*
X17700000Y-24350000D03*
X17700000Y-22320000D03*
X17700000Y-20280000D03*
X17700000Y-18250000D03*
X17700000Y-16220000D03*
X20240000Y-27400000D03*
X20240000Y-25370000D03*
X20240000Y-23340000D03*
X20240000Y-19260000D03*
X20240000Y-17230000D03*
X20240000Y-15200000D03*
D30*
X4750000Y-28820000D03*
X2210000Y-28820000D03*
X7290000Y-13780000D03*
X4750000Y-13780000D03*
X2210000Y-13780000D03*
D31*
X11100000Y-26125000D03*
X11100000Y-16475000D03*
D32*
X11100000Y-30090000D03*
X11100000Y-12510000D03*
D19*
X48038000Y-67100000D03*
X49562000Y-67100000D03*
D20*
X69952500Y-86500000D03*
X68047500Y-86500000D03*
D22*
X61200000Y-81247500D03*
X61200000Y-83152500D03*
D20*
X64152500Y-79600000D03*
X62247500Y-79600000D03*
D33*
X18200000Y-51600000D03*
X13500000Y-46100000D03*
X17300000Y-47400000D03*
X13900000Y-43200000D03*
D12*
X90100000Y-32400000D03*
X91300000Y-32400000D03*
D34*
X90700000Y-34600000D03*
D35*
X60950000Y-86500000D03*
X60000000Y-84500000D03*
X59050000Y-86500000D03*
D36*
X78400000Y-84650000D03*
X80400000Y-83700000D03*
X78400000Y-82750000D03*
D18*
X88500000Y-64800000D03*
X87200000Y-75500000D03*
D16*
X78000000Y-49638000D03*
X78000000Y-51162000D03*
D19*
X82138000Y-66400000D03*
X83662000Y-66400000D03*
X81938000Y-74400000D03*
X83462000Y-74400000D03*
D18*
X45200000Y-93200000D03*
D12*
X27216525Y-22015000D03*
X28616525Y-20615000D03*
X27216525Y-19215000D03*
X31416525Y-19215000D03*
X28616525Y-23415000D03*
X28616525Y-22015000D03*
X30016525Y-19215000D03*
X28616525Y-19215000D03*
X31416525Y-20615000D03*
X30016525Y-20615000D03*
D37*
X30616525Y-22615000D03*
D12*
X27216525Y-23415000D03*
X27216525Y-20615000D03*
D19*
X67362000Y-28700000D03*
X65838000Y-28700000D03*
D20*
X40452500Y-83200000D03*
X38547500Y-83200000D03*
D36*
X6100000Y-36250000D03*
X8100000Y-35300000D03*
X6100000Y-34350000D03*
X6100000Y-41350000D03*
X8100000Y-40400000D03*
X6100000Y-39450000D03*
D38*
X92200000Y-25480000D03*
X92200000Y-21520000D03*
D36*
X6100000Y-50950000D03*
X8100000Y-50000000D03*
X6100000Y-49050000D03*
X6100000Y-56150000D03*
X8100000Y-55200000D03*
X6100000Y-54250000D03*
D19*
X76938000Y-28700000D03*
X78462000Y-28700000D03*
D16*
X81300000Y-45862000D03*
X81300000Y-44338000D03*
D23*
X39500000Y-62000000D03*
D39*
X65300000Y-30200000D03*
X65950000Y-30200000D03*
X66600000Y-30200000D03*
X66600000Y-32150000D03*
X65950000Y-32150000D03*
X65300000Y-32150000D03*
D18*
X92640000Y-79320000D03*
X92640000Y-84400000D03*
X92640000Y-86940000D03*
X92640000Y-89480000D03*
X87560000Y-89480000D03*
X87560000Y-86940000D03*
X87560000Y-84400000D03*
X87560000Y-79320000D03*
X92640000Y-81860000D03*
X92640000Y-92020000D03*
D16*
X81300000Y-37738000D03*
X81300000Y-39262000D03*
X93400000Y-33738000D03*
X93400000Y-35262000D03*
D17*
X73100000Y-12000000D03*
D18*
X73100000Y-14540000D03*
D19*
X91838000Y-36900000D03*
X93362000Y-36900000D03*
D17*
X98400000Y-56800000D03*
D18*
X98400000Y-59340000D03*
D19*
X24362000Y-10900000D03*
X22838000Y-10900000D03*
D16*
X48400000Y-72938000D03*
X48400000Y-74462000D03*
D40*
X3000000Y-8300000D03*
X3000000Y-97000000D03*
X97000000Y-97000000D03*
X97000000Y-8300000D03*
X71800000Y-93300000D03*
D18*
X30900000Y-65400000D03*
D16*
X71400000Y-32938000D03*
X71400000Y-34462000D03*
X56500000Y-63362000D03*
X56500000Y-61838000D03*
D19*
X58438000Y-62200000D03*
X59962000Y-62200000D03*
X67962000Y-88500000D03*
X66438000Y-88500000D03*
X84962000Y-88500000D03*
X83438000Y-88500000D03*
D12*
X62600000Y-98000000D03*
X61600000Y-98000000D03*
X60600000Y-98000000D03*
X59600000Y-98000000D03*
X58600000Y-98000000D03*
X58600000Y-99000000D03*
X59600000Y-99000000D03*
X60600000Y-99000000D03*
X61600000Y-99000000D03*
X62600000Y-99000000D03*
X68000000Y-99000000D03*
X67000000Y-99000000D03*
X66000000Y-99000000D03*
X65000000Y-99000000D03*
X64000000Y-99000000D03*
X64000000Y-98000000D03*
X65000000Y-98000000D03*
X66000000Y-98000000D03*
X67000000Y-98000000D03*
D41*
X63300000Y-94950000D03*
D12*
X63300000Y-98500000D03*
X64000000Y-97000000D03*
X62600000Y-97000000D03*
X63300000Y-97500000D03*
X64000000Y-96000000D03*
X62600000Y-96000000D03*
X63300000Y-96500000D03*
X63300000Y-95500000D03*
X62600000Y-95000000D03*
X64000000Y-95000000D03*
X63300000Y-94500000D03*
X68000000Y-98000000D03*
D42*
X63300000Y-92600000D03*
D12*
X79600000Y-98000000D03*
X78600000Y-98000000D03*
X77600000Y-98000000D03*
X76600000Y-98000000D03*
X75600000Y-98000000D03*
X75600000Y-99000000D03*
X76600000Y-99000000D03*
X77600000Y-99000000D03*
X78600000Y-99000000D03*
X79600000Y-99000000D03*
X85000000Y-99000000D03*
X84000000Y-99000000D03*
X83000000Y-99000000D03*
X82000000Y-99000000D03*
X81000000Y-99000000D03*
X81000000Y-98000000D03*
X82000000Y-98000000D03*
X83000000Y-98000000D03*
X84000000Y-98000000D03*
D41*
X80300000Y-94950000D03*
D12*
X80300000Y-98500000D03*
X81000000Y-97000000D03*
X79600000Y-97000000D03*
X80300000Y-97500000D03*
X81000000Y-96000000D03*
X79600000Y-96000000D03*
X80300000Y-96500000D03*
X80300000Y-95500000D03*
X79600000Y-95000000D03*
X81000000Y-95000000D03*
X80300000Y-94500000D03*
X85000000Y-98000000D03*
D42*
X80300000Y-92600000D03*
D30*
X42194000Y-80806000D03*
D43*
X39400000Y-80806000D03*
D30*
X36606000Y-80806000D03*
X36606000Y-86394000D03*
X42194000Y-86394000D03*
D44*
X24600000Y-85000000D03*
X22060000Y-82460000D03*
X27140000Y-82460000D03*
X27140000Y-87540000D03*
X22060000Y-87540000D03*
D14*
X95800000Y-20900000D03*
X95800000Y-25900000D03*
D44*
X88400000Y-19450000D03*
X88400000Y-27350000D03*
D45*
X93100000Y-27300000D03*
X93100000Y-19500000D03*
D46*
X72200000Y-81000000D03*
X65800000Y-81000000D03*
X65800000Y-85600000D03*
X72200000Y-85600000D03*
D44*
X69000000Y-83300000D03*
D30*
X87206000Y-67406000D03*
X87206000Y-72994000D03*
X92794000Y-72994000D03*
X92794000Y-67406000D03*
D47*
X86700000Y-37400000D03*
X86700000Y-39800000D03*
X86700000Y-46200000D03*
X86700000Y-43800000D03*
D48*
X97200000Y-73900000D03*
X97200000Y-80500000D03*
D18*
X98500000Y-77200000D03*
X98500000Y-74660000D03*
X98500000Y-79740000D03*
X96090000Y-79740000D03*
X96090000Y-74660000D03*
D48*
X97200000Y-84900000D03*
X97200000Y-91500000D03*
D18*
X98500000Y-88200000D03*
X98500000Y-85660000D03*
X98500000Y-90740000D03*
X96090000Y-90740000D03*
X96090000Y-85660000D03*
D48*
X97200000Y-62900000D03*
X97200000Y-69500000D03*
D18*
X98500000Y-66200000D03*
X98500000Y-63660000D03*
X98500000Y-68740000D03*
X96090000Y-68740000D03*
X96090000Y-63660000D03*
D48*
X2800000Y-70100000D03*
X2800000Y-63500000D03*
D18*
X1500000Y-66800000D03*
X1500000Y-69340000D03*
X1500000Y-64260000D03*
X3910000Y-64260000D03*
X3910000Y-69340000D03*
D48*
X2800000Y-80400000D03*
X2800000Y-73800000D03*
D18*
X1500000Y-77100000D03*
X1500000Y-79640000D03*
X1500000Y-74560000D03*
X3910000Y-74560000D03*
X3910000Y-79640000D03*
X86160000Y-6440000D03*
X83620000Y-6440000D03*
X73460000Y-6440000D03*
X65840000Y-6440000D03*
X63300000Y-6440000D03*
X60760000Y-6440000D03*
X53140000Y-6440000D03*
X50600000Y-6440000D03*
X48060000Y-6440000D03*
X40440000Y-6440000D03*
X37900000Y-6440000D03*
X30280000Y-6440000D03*
X27740000Y-6440000D03*
X15040000Y-8980000D03*
X17580000Y-8980000D03*
X20120000Y-8980000D03*
X20120000Y-6440000D03*
X17580000Y-6440000D03*
X15040000Y-6440000D03*
X12500000Y-8980000D03*
X63300000Y-8980000D03*
X86160000Y-3900000D03*
X83620000Y-3900000D03*
X76000000Y-3900000D03*
X73460000Y-3900000D03*
X65840000Y-3900000D03*
X63300000Y-3900000D03*
X60760000Y-3900000D03*
X53140000Y-3900000D03*
X50600000Y-3900000D03*
X48060000Y-3900000D03*
X40440000Y-3900000D03*
X37900000Y-3900000D03*
X30280000Y-3900000D03*
X27740000Y-3900000D03*
X20120000Y-3900000D03*
X17580000Y-3900000D03*
X15040000Y-3900000D03*
X12500000Y-3900000D03*
X76000000Y-6440000D03*
X50600000Y-8980000D03*
X48060000Y-8980000D03*
X12500000Y-6440000D03*
D49*
X6000000Y-36900000D03*
D50*
X31700000Y-16000000D03*
D33*
X35500000Y-16200000D03*
X33000000Y-16200000D03*
D50*
X34200000Y-21800000D03*
X33800000Y-23800000D03*
X31800000Y-26300000D03*
D51*
X28900000Y-27300000D03*
D50*
X26800000Y-26000000D03*
D33*
X41800000Y-31100000D03*
X42600000Y-30300000D03*
X41500000Y-30100000D03*
X44000000Y-29100000D03*
X42800000Y-29100000D03*
X37700000Y-13800000D03*
X36600000Y-13800000D03*
D50*
X45600000Y-35500000D03*
X27300000Y-50800000D03*
X24900000Y-39300000D03*
X46900000Y-51800000D03*
X42600000Y-55100000D03*
X41100000Y-55100000D03*
X46900000Y-39800000D03*
X46900000Y-37700000D03*
X27300000Y-42300000D03*
X42100000Y-35500000D03*
X33700000Y-35500000D03*
X29500000Y-35500000D03*
X31600000Y-55100000D03*
X36100000Y-55100000D03*
D52*
X16600000Y-32500000D03*
D49*
X36000000Y-11400000D03*
D51*
X24000000Y-28200000D03*
D49*
X6000000Y-51600000D03*
D51*
X24800000Y-47900000D03*
D33*
X92700000Y-94200000D03*
X89700000Y-89500000D03*
X56100000Y-86400000D03*
D51*
X45100000Y-10300000D03*
D33*
X8900000Y-88000000D03*
D51*
X16100000Y-35400000D03*
D33*
X62900000Y-58000000D03*
X61800000Y-58000000D03*
X72700000Y-59300000D03*
X73500000Y-60100000D03*
X89400000Y-75200000D03*
D52*
X14200000Y-66900000D03*
D51*
X12900000Y-58400000D03*
D49*
X81600000Y-66600000D03*
X81400000Y-74600000D03*
D33*
X72800000Y-43500000D03*
X63500000Y-34800000D03*
X85500000Y-41800000D03*
X58800000Y-26000000D03*
X58800000Y-27200000D03*
X58800000Y-28400000D03*
X56900000Y-18400000D03*
X56900000Y-17200000D03*
X55700000Y-17200000D03*
X55700000Y-18400000D03*
X30400000Y-54200000D03*
X29900000Y-47300000D03*
X22100000Y-40800000D03*
X20100000Y-40800000D03*
X50600000Y-41200000D03*
X53000000Y-41200000D03*
D52*
X52200000Y-51500000D03*
X52200000Y-52600000D03*
D50*
X46900000Y-46300000D03*
X49300000Y-41300000D03*
X27300000Y-46700000D03*
X32100000Y-57500000D03*
X35100000Y-57500000D03*
X39100000Y-57500000D03*
X43600000Y-57500000D03*
D33*
X63500000Y-33500000D03*
X82000000Y-31100000D03*
X10000000Y-1000000D03*
X7500000Y-1000000D03*
X92500000Y-1000000D03*
X90000000Y-1000000D03*
X87500000Y-1000000D03*
X12500000Y-1000000D03*
X85000000Y-1000000D03*
X82500000Y-1000000D03*
X80000000Y-1000000D03*
X77500000Y-1000000D03*
X75000000Y-1000000D03*
X72500000Y-1000000D03*
X70000000Y-1000000D03*
X67500000Y-1000000D03*
X65000000Y-1000000D03*
X62500000Y-1000000D03*
X60000000Y-1000000D03*
X57500000Y-1000000D03*
X55000000Y-1000000D03*
X52500000Y-1000000D03*
X50000000Y-1000000D03*
X47500000Y-1000000D03*
X45000000Y-1000000D03*
X42500000Y-1000000D03*
X40000000Y-1000000D03*
X37500000Y-1000000D03*
X35000000Y-1000000D03*
X32500000Y-1000000D03*
X30000000Y-1000000D03*
X27500000Y-1000000D03*
X25000000Y-1000000D03*
X22500000Y-1000000D03*
X20000000Y-1000000D03*
X17500000Y-1000000D03*
X15000000Y-1000000D03*
D51*
X19000000Y-12300000D03*
X18600000Y-11300000D03*
D33*
X77800000Y-82100000D03*
D51*
X58200000Y-86500000D03*
X57300000Y-89300000D03*
X35250000Y-71050000D03*
D33*
X73500000Y-34900000D03*
D52*
X78000000Y-31500000D03*
D50*
X65200000Y-28800000D03*
X61100000Y-63900000D03*
D52*
X61900000Y-60200000D03*
D51*
X58600000Y-59900000D03*
X83300000Y-26400000D03*
D33*
X85800000Y-9900000D03*
X8500000Y-33300000D03*
X8500000Y-43200000D03*
X8500000Y-48500000D03*
X8500000Y-58300000D03*
D52*
X21800000Y-78000000D03*
D33*
X32500000Y-99000000D03*
X35000000Y-99000000D03*
X37500000Y-99000000D03*
X40000000Y-99000000D03*
X42500000Y-99000000D03*
X45000000Y-99000000D03*
X47500000Y-99000000D03*
X50000000Y-99000000D03*
X52500000Y-99000000D03*
X55000000Y-99000000D03*
D52*
X69700000Y-24800000D03*
X33500000Y-12300000D03*
X31500000Y-12600000D03*
D50*
X25700000Y-25500000D03*
D33*
X85600000Y-93200000D03*
X58000000Y-93200000D03*
D52*
X52800000Y-93700000D03*
D33*
X56800000Y-94200000D03*
X86800000Y-94200000D03*
D52*
X82500000Y-62100000D03*
D50*
X78900000Y-51050000D03*
D52*
X92700000Y-50300000D03*
D33*
X87500000Y-99000000D03*
X90000000Y-99000000D03*
X92500000Y-99000000D03*
X74300000Y-99000000D03*
X71800000Y-99000000D03*
X69300000Y-99000000D03*
X7500000Y-99000000D03*
X10000000Y-99000000D03*
X12500000Y-99000000D03*
X15000000Y-99000000D03*
X17500000Y-99000000D03*
X20000000Y-99000000D03*
X22500000Y-99000000D03*
X25000000Y-99000000D03*
X27500000Y-99000000D03*
X30000000Y-99000000D03*
X57300000Y-99000000D03*
D52*
X28300000Y-14800000D03*
D50*
X23800000Y-12200000D03*
D52*
X25200000Y-12100000D03*
D50*
X22700000Y-12300000D03*
D33*
X41300000Y-11800000D03*
D52*
X94400000Y-48700000D03*
X91700000Y-43000000D03*
D50*
X61800000Y-75800000D03*
D51*
X60800000Y-73600000D03*
D50*
X71600000Y-62500000D03*
D51*
X60800000Y-65400000D03*
D52*
X75800000Y-45800000D03*
D50*
X75800000Y-44200000D03*
X75800000Y-41000000D03*
X75800000Y-39400000D03*
D49*
X75800000Y-37800000D03*
D33*
X75300000Y-42600000D03*
D51*
X83900000Y-34900000D03*
D50*
X84800000Y-45500000D03*
X83200000Y-45500000D03*
X84800000Y-38100000D03*
X83200000Y-38100000D03*
D33*
X82500000Y-41800000D03*
X70200000Y-65700000D03*
D50*
X70100000Y-66900000D03*
D52*
X70000000Y-19600000D03*
D33*
X70600000Y-16300000D03*
D49*
X83000000Y-28600000D03*
D52*
X84400000Y-24800000D03*
D33*
X76600000Y-19100000D03*
X77500000Y-19800000D03*
X77500000Y-18400000D03*
X76600000Y-22200000D03*
X76600000Y-20500000D03*
X85600000Y-11300000D03*
X43000000Y-14000000D03*
X74800000Y-93400000D03*
X68800000Y-93400000D03*
X53800000Y-91500000D03*
X47600000Y-85000000D03*
D52*
X60100000Y-64500000D03*
X60100000Y-74400000D03*
X63800000Y-76200000D03*
X71900000Y-78500000D03*
X71200000Y-76100000D03*
D51*
X84900000Y-65600000D03*
X84800000Y-73500000D03*
D50*
X49900000Y-74300000D03*
D51*
X55700000Y-67000000D03*
D52*
X52200000Y-65100000D03*
D51*
X49300000Y-43900000D03*
D33*
X34300000Y-90000000D03*
X35300000Y-88300000D03*
D52*
X68500000Y-27500000D03*
D33*
X62800000Y-18400000D03*
X48200000Y-20800000D03*
X46100000Y-21200000D03*
X48200000Y-19600000D03*
X48200000Y-18400000D03*
D51*
X55000000Y-24800000D03*
X53700000Y-28600000D03*
D52*
X42100000Y-78900000D03*
X43700000Y-78900000D03*
D49*
X44400000Y-78200000D03*
X42800000Y-78300000D03*
D50*
X24000000Y-34300000D03*
X21000000Y-30400000D03*
X18500000Y-30400000D03*
X43300000Y-41300000D03*
D33*
X41900000Y-41900000D03*
X41900000Y-38700000D03*
D50*
X31300000Y-41300000D03*
X39300000Y-52500000D03*
X36100000Y-51200000D03*
X53300000Y-34600000D03*
X54200000Y-35100000D03*
X60800000Y-34000000D03*
X57600000Y-33400000D03*
X59400000Y-33700000D03*
X50800000Y-33500000D03*
X13100000Y-65100000D03*
X13100000Y-61900000D03*
X14500000Y-71100000D03*
X15300000Y-72900000D03*
X15300000Y-74100000D03*
D52*
X14900000Y-78500000D03*
X23700000Y-78000000D03*
D50*
X24300000Y-74300000D03*
D52*
X25100000Y-71200000D03*
D50*
X49700000Y-64700000D03*
X49700000Y-66200000D03*
D49*
X50100000Y-69000000D03*
D52*
X52200000Y-66800000D03*
D50*
X27400000Y-54700000D03*
X45300000Y-49000000D03*
X27300000Y-40800000D03*
X28800000Y-43700000D03*
X27300000Y-35600000D03*
D51*
X24100000Y-48400000D03*
X24800000Y-46800000D03*
X40000000Y-28300000D03*
D52*
X8600000Y-53900000D03*
X8600000Y-52900000D03*
D50*
X35700000Y-73300000D03*
X38100000Y-75600000D03*
X45900000Y-62800000D03*
D52*
X23900000Y-71700000D03*
D50*
X15400000Y-66300000D03*
X18700000Y-61600000D03*
X45800000Y-33100000D03*
X47200000Y-55400000D03*
D51*
X55400000Y-49900000D03*
D52*
X54700000Y-51700000D03*
D50*
X27300000Y-48800000D03*
X27300000Y-47800000D03*
D51*
X46900000Y-43800000D03*
D50*
X25300000Y-56800000D03*
X33400000Y-53900000D03*
X34500000Y-53900000D03*
X46900000Y-53000000D03*
X45500000Y-53100000D03*
X46900000Y-53800000D03*
X44100000Y-53700000D03*
X38900000Y-54000000D03*
X44100000Y-55100000D03*
X39100000Y-55100000D03*
X46900000Y-44900000D03*
X46200000Y-41700000D03*
X46900000Y-41300000D03*
X45400000Y-36400000D03*
X48200000Y-35200000D03*
X46900000Y-36400000D03*
X27300000Y-39300000D03*
X39900000Y-36600000D03*
X40100000Y-35500000D03*
X35900000Y-36600000D03*
X35600000Y-35500000D03*
X32600000Y-35500000D03*
X29400000Y-36800000D03*
X25600000Y-54700000D03*
X33100000Y-55100000D03*
X35100000Y-55100000D03*
X43600000Y-35500000D03*
X27300000Y-36800000D03*
D52*
X8700000Y-38800000D03*
X8700000Y-37800000D03*
D51*
X37400000Y-77900000D03*
D33*
X60800000Y-21200000D03*
X62800000Y-20800000D03*
X62800000Y-19600000D03*
D50*
X26900000Y-16600000D03*
D33*
X24700000Y-17100000D03*
X22700000Y-17100000D03*
D50*
X24700000Y-25000000D03*
D51*
X30700000Y-15900000D03*
X41100000Y-23900000D03*
D33*
X40700000Y-32200000D03*
D50*
X33950000Y-19450000D03*
X26500000Y-27500000D03*
D33*
X33500000Y-30200000D03*
X33500000Y-32300000D03*
D50*
X44100000Y-33100000D03*
X40600000Y-33100000D03*
X36100000Y-33100000D03*
X33100000Y-33100000D03*
D33*
X31500000Y-13800000D03*
D50*
X28800000Y-16600000D03*
D33*
X29200000Y-11200000D03*
D51*
X23600000Y-19550000D03*
X23650000Y-23050000D03*
D50*
X33900000Y-27500000D03*
X34700000Y-26700000D03*
X35500000Y-27500000D03*
X36500000Y-26700000D03*
X37000000Y-21600000D03*
X37100000Y-19900000D03*
D51*
X36300000Y-17600000D03*
D50*
X39600000Y-18900000D03*
D51*
X36700000Y-16400000D03*
X37700000Y-16200000D03*
D52*
X40200000Y-24600000D03*
D51*
X22700000Y-16000000D03*
D50*
X49300000Y-54300000D03*
X49300000Y-52800000D03*
D51*
X49300000Y-51800000D03*
X49300000Y-50300000D03*
D50*
X44800000Y-50400000D03*
D51*
X50900000Y-48200000D03*
X49300000Y-47800000D03*
D50*
X45300000Y-47700000D03*
D51*
X55300000Y-46400000D03*
D50*
X49400000Y-36800000D03*
X46600000Y-34900000D03*
X25600000Y-35400000D03*
X24900000Y-37300000D03*
X28500000Y-44800000D03*
X27300000Y-53300000D03*
X27700000Y-55800000D03*
D49*
X6000000Y-42000000D03*
X5900000Y-56800000D03*
D51*
X36600000Y-18500000D03*
X38300000Y-18200000D03*
X33600000Y-70300000D03*
X33600000Y-60900000D03*
X37200000Y-60900000D03*
X35400000Y-65400000D03*
D33*
X14400000Y-35500000D03*
X10900000Y-48000000D03*
X12400000Y-33300000D03*
D51*
X16000000Y-49400000D03*
X16000000Y-53800000D03*
D33*
X16000000Y-44300000D03*
D51*
X23700000Y-40700000D03*
D33*
X16000000Y-40500000D03*
D50*
X24900000Y-40800000D03*
D49*
X16900000Y-72900000D03*
D52*
X16900000Y-73700000D03*
D50*
X20300000Y-63100000D03*
X17500000Y-66600000D03*
X18100000Y-67300000D03*
D49*
X25500000Y-69200000D03*
D50*
X25400000Y-65800000D03*
X22200000Y-63100000D03*
X18600000Y-66600000D03*
D51*
X19600000Y-78300000D03*
D49*
X14900000Y-77300000D03*
D33*
X20300000Y-60900000D03*
X25200000Y-62500000D03*
D50*
X39000000Y-75400000D03*
X41000000Y-75400000D03*
X43000000Y-75400000D03*
X47100000Y-68900000D03*
X36800000Y-65400000D03*
X47100000Y-65900000D03*
X47300000Y-68100000D03*
X34900000Y-67800000D03*
X34600000Y-74500000D03*
X36800000Y-76700000D03*
X49100000Y-72000000D03*
D33*
X9600000Y-70000000D03*
D51*
X22100000Y-49700000D03*
X10700000Y-79600000D03*
X24100000Y-50300000D03*
X4600000Y-86700000D03*
X24800000Y-50800000D03*
X12200000Y-80200000D03*
X4600000Y-91800000D03*
X23400000Y-49800000D03*
X9300000Y-78700000D03*
D49*
X69400000Y-65000000D03*
X68900000Y-73200000D03*
D52*
X72200000Y-73800000D03*
X73500000Y-65200000D03*
D33*
X77900000Y-85900000D03*
X58000000Y-77400000D03*
X58300000Y-63300000D03*
X61100000Y-88600000D03*
X59900000Y-88600000D03*
X68900000Y-89000000D03*
X56500000Y-64400000D03*
X56900000Y-76300000D03*
X63500000Y-87600000D03*
X76900000Y-89000000D03*
X78100000Y-89000000D03*
X85100000Y-87500000D03*
D51*
X26200000Y-66300000D03*
X26900000Y-64700000D03*
D49*
X86700000Y-63100000D03*
X84500000Y-72600000D03*
D51*
X79800000Y-66600000D03*
D52*
X79800000Y-64200000D03*
D33*
X73500000Y-28400000D03*
X73500000Y-26000000D03*
X73500000Y-27200000D03*
X75000000Y-74000000D03*
X84100000Y-33700000D03*
X91800000Y-74500000D03*
D51*
X73500000Y-62800000D03*
X70700000Y-54500000D03*
X73700000Y-55000000D03*
X73300000Y-49700000D03*
X74600000Y-55800000D03*
X74600000Y-50600000D03*
D49*
X76000000Y-57100000D03*
X81700000Y-57100000D03*
X87400000Y-57100000D03*
D52*
X78500000Y-46100000D03*
D51*
X79000000Y-42400000D03*
X79000000Y-41200000D03*
D49*
X78500000Y-37500000D03*
X87700000Y-37600000D03*
D52*
X87700000Y-39300000D03*
D49*
X87700000Y-45900000D03*
X87700000Y-44300000D03*
D33*
X90400000Y-76600000D03*
X65500000Y-75800000D03*
X66700000Y-75200000D03*
X66700000Y-76400000D03*
X65500000Y-74600000D03*
D51*
X4600000Y-85200000D03*
X4600000Y-90300000D03*
D50*
X64800000Y-32000000D03*
D51*
X79600000Y-27700000D03*
D52*
X80300000Y-37600000D03*
X80300000Y-39300000D03*
X80300000Y-46000000D03*
X80300000Y-44300000D03*
D51*
X39500000Y-61300000D03*
X75300000Y-29600000D03*
X76200000Y-30400000D03*
D49*
X93400000Y-36000000D03*
D33*
X83200000Y-32400000D03*
D51*
X66400000Y-60200000D03*
X62200000Y-61400000D03*
X70200000Y-55500000D03*
X49500000Y-56000000D03*
X56100000Y-56200000D03*
X70100000Y-60300000D03*
X42000000Y-60900000D03*
X48200000Y-72000000D03*
D33*
X67800000Y-19600000D03*
D51*
X64900000Y-27300000D03*
X63400000Y-26900000D03*
X49800000Y-27700000D03*
X48700000Y-26900000D03*
X78300000Y-27100000D03*
D33*
X82500000Y-19600000D03*
X53100000Y-19600000D03*
D53*
G36*
X99823000Y-2373000D02*
X127000Y-2373000D01*
X127000Y-127000D01*
X99823000Y-127000D01*
X99823000Y-2373000D01*
X99823000Y-2373000D01*
G37*
X99823000Y-2373000D02*
X127000Y-2373000D01*
X127000Y-127000D01*
X99823000Y-127000D01*
X99823000Y-2373000D01*
G36*
X88373000Y-97500000D02*
X88383006Y-97549410D01*
X88411447Y-97591035D01*
X88453841Y-97618315D01*
X88500000Y-97627000D01*
X99823000Y-97627000D01*
X99823000Y-99873000D01*
X127000Y-99873000D01*
X127000Y-97627000D01*
X55100000Y-97627000D01*
X55149410Y-97616994D01*
X55191035Y-97588553D01*
X55218315Y-97546159D01*
X55227000Y-97500000D01*
X55227000Y-90027000D01*
X88373000Y-90027000D01*
X88373000Y-97500000D01*
X88373000Y-97500000D01*
G37*
X88373000Y-97500000D02*
X88383006Y-97549410D01*
X88411447Y-97591035D01*
X88453841Y-97618315D01*
X88500000Y-97627000D01*
X99823000Y-97627000D01*
X99823000Y-99873000D01*
X127000Y-99873000D01*
X127000Y-97627000D01*
X55100000Y-97627000D01*
X55149410Y-97616994D01*
X55191035Y-97588553D01*
X55218315Y-97546159D01*
X55227000Y-97500000D01*
X55227000Y-90027000D01*
X88373000Y-90027000D01*
X88373000Y-97500000D01*
M02*
