G04 #@! TF.FileFunction,Soldermask,Top*
%FSLAX46Y46*%
G04 Gerber Fmt 4.6, Leading zero omitted, Abs format (unit mm)*
G04 Created by KiCad (PCBNEW 4.0.4-stable) date 01/09/17 22:08:19*
%MOMM*%
%LPD*%
G01*
G04 APERTURE LIST*
%ADD10C,0.100000*%
%ADD11R,1.035000X1.543000*%
%ADD12C,2.100000*%
%ADD13C,0.900000*%
%ADD14R,1.400000X1.400000*%
%ADD15R,0.650000X1.200000*%
%ADD16R,1.200000X0.650000*%
%ADD17R,3.200000X3.200000*%
%ADD18C,3.400000*%
%ADD19R,2.900000X2.900000*%
%ADD20R,7.400000X7.400000*%
%ADD21R,1.000000X2.600000*%
%ADD22R,7.400000X3.340000*%
%ADD23R,0.910000X1.500000*%
%ADD24R,3.900000X3.000000*%
%ADD25C,2.900000*%
%ADD26O,1.600000X0.680000*%
%ADD27O,0.680000X1.600000*%
%ADD28C,4.400000*%
%ADD29R,5.400000X5.400000*%
%ADD30R,2.250000X2.250000*%
%ADD31C,2.250000*%
%ADD32R,2.000000X1.000000*%
%ADD33R,1.750000X0.800000*%
%ADD34R,1.543000X1.035000*%
%ADD35R,1.850000X0.850000*%
%ADD36R,1.000000X1.450000*%
%ADD37R,1.289000X1.797000*%
%ADD38R,2.800000X6.100000*%
%ADD39R,2.000000X2.200000*%
%ADD40R,2.700000X6.000000*%
%ADD41R,1.797000X1.289000*%
%ADD42R,2.940000X2.050000*%
%ADD43R,2.050000X1.415000*%
%ADD44C,2.200000*%
%ADD45R,1.400000X0.800000*%
%ADD46C,3.600000*%
%ADD47R,1.400760X0.999440*%
%ADD48R,2.050000X2.940000*%
%ADD49R,1.415000X2.050000*%
%ADD50R,1.160000X2.050000*%
%ADD51R,2.050000X2.400000*%
%ADD52C,2.500000*%
%ADD53R,1.600000X1.800000*%
%ADD54R,2.178000X3.194000*%
%ADD55C,3.200000*%
%ADD56R,3.400000X1.900000*%
%ADD57C,1.800000*%
%ADD58C,3.650000*%
%ADD59C,2.940000*%
%ADD60C,3.000000*%
%ADD61R,1.800000X1.600000*%
%ADD62C,1.200000*%
%ADD63R,5.400000X2.000000*%
%ADD64R,5.400000X3.700000*%
%ADD65R,1.900000X1.050000*%
%ADD66R,3.100000X4.000000*%
%ADD67C,2.400000*%
%ADD68C,5.700000*%
%ADD69C,4.700000*%
%ADD70R,12.400000X2.800000*%
%ADD71R,1.100000X1.650000*%
%ADD72O,2.200000X2.600000*%
%ADD73O,2.000000X2.800000*%
%ADD74R,2.400000X2.400000*%
%ADD75R,1.400000X4.400000*%
%ADD76R,1.100000X1.800000*%
%ADD77R,2.300000X4.680000*%
%ADD78R,1.300000X1.200000*%
%ADD79R,1.200000X1.300000*%
%ADD80C,2.700000*%
%ADD81R,1.480000X1.440000*%
%ADD82R,2.340000X2.350000*%
%ADD83C,1.000000*%
%ADD84C,1.600000*%
%ADD85C,0.254000*%
G04 APERTURE END LIST*
D10*
D11*
X22862000Y-61800000D03*
X21338000Y-61800000D03*
D12*
X21255000Y-66820715D03*
D13*
X22755000Y-67320715D03*
X22755000Y-65320715D03*
X22755000Y-66420715D03*
X21655000Y-65320715D03*
X20755000Y-65320715D03*
D14*
X22455000Y-65620715D03*
X22455000Y-67020715D03*
X21055000Y-65620715D03*
D15*
X20505000Y-68420715D03*
X21005000Y-68420715D03*
X21505000Y-68420715D03*
X22005000Y-68420715D03*
X22505000Y-68420715D03*
X23005000Y-68420715D03*
D16*
X23855000Y-67570715D03*
X23855000Y-67070715D03*
X23855000Y-66570715D03*
X23855000Y-66070715D03*
X23855000Y-65570715D03*
X23855000Y-65070715D03*
D15*
X23005000Y-64220715D03*
X22505000Y-64220715D03*
X22005000Y-64220715D03*
X21505000Y-64220715D03*
X21005000Y-64220715D03*
X20505000Y-64220715D03*
D16*
X19655000Y-65070715D03*
X19655000Y-65570715D03*
X19655000Y-66070715D03*
X19655000Y-66570715D03*
X19655000Y-67070715D03*
X19655000Y-67570715D03*
D17*
X21755000Y-66320715D03*
D14*
X21055000Y-67020715D03*
D13*
X22255000Y-65820715D03*
D18*
X43500000Y-67800000D03*
D13*
X44500000Y-72800000D03*
X44500000Y-71300000D03*
X43000000Y-72800000D03*
X43000000Y-71300000D03*
X38500000Y-72800000D03*
X40000000Y-72800000D03*
X40000000Y-66800000D03*
X38500000Y-66800000D03*
X38500000Y-68300000D03*
X40000000Y-68300000D03*
X40000000Y-71300000D03*
X38500000Y-71300000D03*
X38500000Y-69800000D03*
X40000000Y-69800000D03*
X44500000Y-69800000D03*
X43000000Y-69800000D03*
X41500000Y-66800000D03*
X41500000Y-68300000D03*
X41500000Y-72800000D03*
X41500000Y-71300000D03*
D19*
X43250000Y-71550000D03*
X39750000Y-71550000D03*
X39750000Y-68050000D03*
D15*
X45250000Y-65200000D03*
X44750000Y-65200000D03*
X44250000Y-65200000D03*
X43750000Y-65200000D03*
X43250000Y-65200000D03*
X42750000Y-65200000D03*
X42250000Y-65200000D03*
X41750000Y-65200000D03*
X41250000Y-65200000D03*
X40750000Y-65200000D03*
X40250000Y-65200000D03*
X39750000Y-65200000D03*
X39250000Y-65200000D03*
X38750000Y-65200000D03*
X38250000Y-65200000D03*
X37750000Y-65200000D03*
D16*
X36900000Y-66050000D03*
X36900000Y-66550000D03*
X36900000Y-67050000D03*
X36900000Y-67550000D03*
X36900000Y-68050000D03*
X36900000Y-68550000D03*
X36900000Y-69050000D03*
X36900000Y-69550000D03*
X36900000Y-70050000D03*
X36900000Y-70550000D03*
X36900000Y-71050000D03*
X36900000Y-71550000D03*
X36900000Y-72050000D03*
X36900000Y-72550000D03*
X36900000Y-73050000D03*
X36900000Y-73550000D03*
D15*
X37750000Y-74400000D03*
X38250000Y-74400000D03*
X38750000Y-74400000D03*
X39250000Y-74400000D03*
X39750000Y-74400000D03*
X40250000Y-74400000D03*
X40750000Y-74400000D03*
X41250000Y-74400000D03*
X41750000Y-74400000D03*
X42250000Y-74400000D03*
X42750000Y-74400000D03*
X43250000Y-74400000D03*
X43750000Y-74400000D03*
X44250000Y-74400000D03*
X44750000Y-74400000D03*
X45250000Y-74400000D03*
D16*
X46100000Y-73550000D03*
X46100000Y-73050000D03*
X46100000Y-72550000D03*
X46100000Y-72050000D03*
X46100000Y-71550000D03*
X46100000Y-71050000D03*
X46100000Y-70550000D03*
X46100000Y-70050000D03*
X46100000Y-69550000D03*
X46100000Y-69050000D03*
X46100000Y-68550000D03*
X46100000Y-68050000D03*
X46100000Y-67550000D03*
X46100000Y-67050000D03*
X46100000Y-66550000D03*
X46100000Y-66050000D03*
D20*
X41500000Y-69800000D03*
D19*
X43250000Y-68050000D03*
D13*
X41500000Y-69800000D03*
X71395000Y-70325000D03*
X74395000Y-70325000D03*
X71395000Y-68825000D03*
D12*
X74700000Y-68950000D03*
D13*
X72895000Y-70325000D03*
D21*
X74800000Y-66700000D03*
X73530000Y-66700000D03*
X72260000Y-66700000D03*
X70990000Y-66700000D03*
X70990000Y-72450000D03*
X72260000Y-72450000D03*
X73530000Y-72450000D03*
X74800000Y-72450000D03*
D22*
X72895000Y-69575000D03*
D13*
X72895000Y-68825000D03*
X52500000Y-23750000D03*
D23*
X49395000Y-21100000D03*
X49395000Y-26400000D03*
X50665000Y-21100000D03*
X50665000Y-26400000D03*
X51935000Y-21100000D03*
X51935000Y-26400000D03*
X53205000Y-21100000D03*
X53205000Y-26400000D03*
D24*
X51300000Y-23750000D03*
D25*
X49500000Y-23750000D03*
D13*
X51500000Y-23750000D03*
X67200000Y-23750000D03*
D23*
X64095000Y-21100000D03*
X64095000Y-26400000D03*
X65365000Y-21100000D03*
X65365000Y-26400000D03*
X66635000Y-21100000D03*
X66635000Y-26400000D03*
X67905000Y-21100000D03*
X67905000Y-26400000D03*
D24*
X66000000Y-23750000D03*
D25*
X64200000Y-23750000D03*
D13*
X66200000Y-23750000D03*
X81900000Y-23750000D03*
D23*
X78795000Y-21100000D03*
X78795000Y-26400000D03*
X80065000Y-21100000D03*
X80065000Y-26400000D03*
X81335000Y-21100000D03*
X81335000Y-26400000D03*
X82605000Y-21100000D03*
X82605000Y-26400000D03*
D24*
X80700000Y-23750000D03*
D25*
X78900000Y-23750000D03*
D13*
X80900000Y-23750000D03*
X38600000Y-43800000D03*
X37100000Y-46800000D03*
X37100000Y-45300000D03*
X35600000Y-45300000D03*
X38600000Y-45300000D03*
X35600000Y-43800000D03*
X37100000Y-43800000D03*
D26*
X48100000Y-54050000D03*
X48100000Y-53550000D03*
X48100000Y-53050000D03*
X48100000Y-52550000D03*
X48100000Y-52050000D03*
X48100000Y-51550000D03*
X48100000Y-51050000D03*
X48100000Y-50550000D03*
X48100000Y-50050000D03*
X48100000Y-49550000D03*
X48100000Y-49050000D03*
X48100000Y-48550000D03*
X48100000Y-48050000D03*
X48100000Y-47550000D03*
X48100000Y-47050000D03*
X48100000Y-46550000D03*
X48100000Y-46050000D03*
X48100000Y-45550000D03*
X48100000Y-45050000D03*
X48100000Y-44550000D03*
X48100000Y-44050000D03*
X48100000Y-43550000D03*
X48100000Y-43050000D03*
X48100000Y-42550000D03*
X48100000Y-42050000D03*
X48100000Y-41550000D03*
X48100000Y-41050000D03*
X48100000Y-40550000D03*
X48100000Y-40050000D03*
X48100000Y-39550000D03*
X48100000Y-39050000D03*
X48100000Y-38550000D03*
X48100000Y-38050000D03*
X48100000Y-37550000D03*
X48100000Y-37050000D03*
X48100000Y-36550000D03*
D27*
X45850000Y-34300000D03*
X45350000Y-34300000D03*
X44850000Y-34300000D03*
X44350000Y-34300000D03*
X43850000Y-34300000D03*
X43350000Y-34300000D03*
X42850000Y-34300000D03*
X42350000Y-34300000D03*
X41850000Y-34300000D03*
X41350000Y-34300000D03*
X40850000Y-34300000D03*
X40350000Y-34300000D03*
X39850000Y-34300000D03*
X39350000Y-34300000D03*
X38850000Y-34300000D03*
X38350000Y-34300000D03*
X37850000Y-34300000D03*
X37350000Y-34300000D03*
X36850000Y-34300000D03*
X36350000Y-34300000D03*
X35850000Y-34300000D03*
X35350000Y-34300000D03*
X34850000Y-34300000D03*
X34350000Y-34300000D03*
X33850000Y-34300000D03*
X33350000Y-34300000D03*
X32850000Y-34300000D03*
X32350000Y-34300000D03*
X31850000Y-34300000D03*
X31350000Y-34300000D03*
X30850000Y-34300000D03*
X30350000Y-34300000D03*
X29850000Y-34300000D03*
X29350000Y-34300000D03*
X28850000Y-34300000D03*
X28350000Y-34300000D03*
D26*
X26100000Y-36550000D03*
X26100000Y-37050000D03*
X26100000Y-37550000D03*
X26100000Y-38050000D03*
X26100000Y-38550000D03*
X26100000Y-39050000D03*
X26100000Y-39550000D03*
X26100000Y-40050000D03*
X26100000Y-40550000D03*
X26100000Y-41050000D03*
X26100000Y-41550000D03*
X26100000Y-42050000D03*
X26100000Y-42550000D03*
X26100000Y-43050000D03*
X26100000Y-43550000D03*
X26100000Y-44050000D03*
X26100000Y-44550000D03*
X26100000Y-45050000D03*
X26100000Y-45550000D03*
X26100000Y-46050000D03*
X26100000Y-46550000D03*
X26100000Y-47050000D03*
X26100000Y-47550000D03*
X26100000Y-48050000D03*
X26100000Y-48550000D03*
X26100000Y-49050000D03*
X26100000Y-49550000D03*
X26100000Y-50050000D03*
X26100000Y-50550000D03*
X26100000Y-51050000D03*
X26100000Y-51550000D03*
X26100000Y-52050000D03*
X26100000Y-52550000D03*
X26100000Y-53050000D03*
X26100000Y-53550000D03*
X26100000Y-54050000D03*
D27*
X28350000Y-56300000D03*
X28850000Y-56300000D03*
X29350000Y-56300000D03*
X29850000Y-56300000D03*
X30350000Y-56300000D03*
X30850000Y-56300000D03*
X31350000Y-56300000D03*
X31850000Y-56300000D03*
X32350000Y-56300000D03*
X32850000Y-56300000D03*
X33350000Y-56300000D03*
X33850000Y-56300000D03*
X34350000Y-56300000D03*
X34850000Y-56300000D03*
X35350000Y-56300000D03*
X35850000Y-56300000D03*
X36350000Y-56300000D03*
X36850000Y-56300000D03*
X37350000Y-56300000D03*
X37850000Y-56300000D03*
X38350000Y-56300000D03*
X38850000Y-56300000D03*
X39350000Y-56300000D03*
X39850000Y-56300000D03*
X40350000Y-56300000D03*
X40850000Y-56300000D03*
X41350000Y-56300000D03*
X41850000Y-56300000D03*
X42350000Y-56300000D03*
X42850000Y-56300000D03*
X43350000Y-56300000D03*
X43850000Y-56300000D03*
X44350000Y-56300000D03*
X44850000Y-56300000D03*
X45350000Y-56300000D03*
X45850000Y-56300000D03*
D28*
X39200000Y-47400000D03*
D29*
X37100000Y-45300000D03*
D13*
X35600000Y-46800000D03*
D14*
X82100000Y-31700000D03*
D11*
X77462000Y-55400000D03*
X75938000Y-55400000D03*
X83162000Y-55400000D03*
X81638000Y-55400000D03*
X88862000Y-55400000D03*
X87338000Y-55400000D03*
D30*
X79500000Y-55800000D03*
D31*
X79500000Y-58340000D03*
D30*
X85200000Y-55800000D03*
D31*
X85200000Y-58340000D03*
D30*
X90900000Y-55800000D03*
D31*
X90900000Y-58340000D03*
D11*
X75938000Y-57900000D03*
X77462000Y-57900000D03*
X81638000Y-57900000D03*
X83162000Y-57900000D03*
X87338000Y-57900000D03*
X88862000Y-57900000D03*
D32*
X81350000Y-45610000D03*
X86650000Y-45610000D03*
X81350000Y-44340000D03*
X86650000Y-44340000D03*
X81350000Y-43070000D03*
X86650000Y-43070000D03*
X81350000Y-41800000D03*
X86650000Y-41800000D03*
X81350000Y-40530000D03*
X86650000Y-40530000D03*
X81350000Y-39260000D03*
X86650000Y-39260000D03*
X81350000Y-37990000D03*
X86650000Y-37990000D03*
D11*
X77962000Y-45800000D03*
X76438000Y-45800000D03*
X77962000Y-37800000D03*
X76438000Y-37800000D03*
D33*
X73350000Y-42775000D03*
X77650000Y-42775000D03*
X73350000Y-42125000D03*
X77650000Y-42125000D03*
X73350000Y-41475000D03*
X77650000Y-41475000D03*
X73350000Y-40825000D03*
X77650000Y-40825000D03*
D30*
X70900000Y-37300000D03*
D31*
X70900000Y-39840000D03*
X70900000Y-42380000D03*
X70900000Y-44920000D03*
D30*
X98400000Y-30600000D03*
D31*
X98400000Y-33140000D03*
D30*
X98570000Y-46010000D03*
D31*
X96030000Y-46010000D03*
X98570000Y-43470000D03*
X96030000Y-43470000D03*
X98570000Y-40930000D03*
X96030000Y-40930000D03*
X98570000Y-38390000D03*
X96030000Y-38390000D03*
D34*
X93500000Y-39162000D03*
X93500000Y-37638000D03*
D11*
X92238000Y-41200000D03*
X93762000Y-41200000D03*
X92338000Y-46400000D03*
X93862000Y-46400000D03*
X92338000Y-44700000D03*
X93862000Y-44700000D03*
D30*
X77500000Y-35600000D03*
D31*
X74960000Y-35600000D03*
D30*
X77500000Y-48000000D03*
D31*
X74960000Y-48000000D03*
D30*
X95900000Y-57300000D03*
D31*
X98440000Y-57300000D03*
D11*
X92338000Y-48100000D03*
X93862000Y-48100000D03*
D34*
X90900000Y-44762000D03*
X90900000Y-43238000D03*
D35*
X62950000Y-59250000D03*
X57050000Y-59250000D03*
X62950000Y-59900000D03*
X57050000Y-59900000D03*
X62950000Y-60550000D03*
X57050000Y-60550000D03*
X62950000Y-61200000D03*
X57050000Y-61200000D03*
X62950000Y-61850000D03*
X57050000Y-61850000D03*
X62950000Y-62500000D03*
X57050000Y-62500000D03*
X62950000Y-63150000D03*
X57050000Y-63150000D03*
D36*
X67000000Y-62200000D03*
X67950000Y-62200000D03*
X68900000Y-62200000D03*
X68900000Y-59500000D03*
X67000000Y-59500000D03*
D37*
X67047500Y-57700000D03*
X68952500Y-57700000D03*
D34*
X70500000Y-59562000D03*
X70500000Y-58038000D03*
X77600000Y-85262000D03*
X77600000Y-83738000D03*
D11*
X60462000Y-87400000D03*
X58938000Y-87400000D03*
D34*
X79900000Y-63562000D03*
X79900000Y-62038000D03*
X81600000Y-62038000D03*
X81600000Y-63562000D03*
X92700000Y-50938000D03*
X92700000Y-52462000D03*
D30*
X98400000Y-51400000D03*
D31*
X98400000Y-53940000D03*
D11*
X84938000Y-34900000D03*
X86462000Y-34900000D03*
D34*
X86200000Y-32038000D03*
X86200000Y-33562000D03*
D11*
X77038000Y-30900000D03*
X78562000Y-30900000D03*
D30*
X57500000Y-12000000D03*
D31*
X57500000Y-14540000D03*
D30*
X90100000Y-23400000D03*
D31*
X87560000Y-23400000D03*
D25*
X95800000Y-20900000D03*
X95800000Y-25900000D03*
X90100000Y-19450000D03*
X90100000Y-27350000D03*
D30*
X72900000Y-14500000D03*
D31*
X72900000Y-11960000D03*
D11*
X83938000Y-21100000D03*
X85462000Y-21100000D03*
X81038000Y-28200000D03*
X82562000Y-28200000D03*
X75138000Y-26600000D03*
X76662000Y-26600000D03*
D38*
X80050000Y-14600000D03*
X76150000Y-14600000D03*
D34*
X84200000Y-24262000D03*
X84200000Y-22738000D03*
D30*
X73300000Y-24400000D03*
D31*
X75840000Y-24400000D03*
D30*
X84900000Y-28800000D03*
D31*
X84900000Y-26260000D03*
D39*
X81450000Y-19000000D03*
X78650000Y-19000000D03*
D37*
X72552500Y-19200000D03*
X70647500Y-19200000D03*
X72552500Y-17300000D03*
X70647500Y-17300000D03*
X73947500Y-22200000D03*
X75852500Y-22200000D03*
X73947500Y-20500000D03*
X75852500Y-20500000D03*
X73947500Y-18700000D03*
X75852500Y-18700000D03*
D11*
X75138000Y-28200000D03*
X76662000Y-28200000D03*
D30*
X43900000Y-24400000D03*
D31*
X46440000Y-24400000D03*
D30*
X55500000Y-28800000D03*
D31*
X55500000Y-26260000D03*
D30*
X84400000Y-16500000D03*
D31*
X86940000Y-16500000D03*
D30*
X58600000Y-24400000D03*
D31*
X61140000Y-24400000D03*
D30*
X70200000Y-28800000D03*
D31*
X70200000Y-26260000D03*
D40*
X97300000Y-14400000D03*
X89900000Y-14400000D03*
D41*
X85200000Y-80847500D03*
X85200000Y-82752500D03*
D30*
X82100000Y-76600000D03*
D31*
X79560000Y-76600000D03*
D30*
X82900000Y-68900000D03*
D31*
X80360000Y-68900000D03*
D42*
X92540000Y-72740000D03*
X92540000Y-67660000D03*
X87460000Y-72740000D03*
X87460000Y-67660000D03*
D43*
X92730000Y-71597500D03*
X92730000Y-68802500D03*
X89550000Y-71597500D03*
X89550000Y-68802500D03*
D10*
G36*
X89719949Y-72105000D02*
X88730000Y-73094949D01*
X87740051Y-72105000D01*
X88730000Y-71115051D01*
X89719949Y-72105000D01*
X89719949Y-72105000D01*
G37*
G36*
X89719949Y-68295000D02*
X88730000Y-69284949D01*
X87740051Y-68295000D01*
X88730000Y-67305051D01*
X89719949Y-68295000D01*
X89719949Y-68295000D01*
G37*
D44*
X87206000Y-67406000D03*
X87206000Y-72994000D03*
X92794000Y-72994000D03*
X92794000Y-67406000D03*
D31*
X92640000Y-79320000D03*
X92640000Y-84400000D03*
X92640000Y-86940000D03*
X92640000Y-89480000D03*
X87560000Y-89480000D03*
X87560000Y-86940000D03*
X87560000Y-84400000D03*
X87560000Y-79320000D03*
X92640000Y-81860000D03*
X92640000Y-92020000D03*
D30*
X47600000Y-79200000D03*
D31*
X50140000Y-79200000D03*
D30*
X53700000Y-85500000D03*
D31*
X53700000Y-82960000D03*
D45*
X83900000Y-74200000D03*
X83900000Y-73550000D03*
X83900000Y-72900000D03*
X81950000Y-72900000D03*
X81950000Y-73550000D03*
X81950000Y-74200000D03*
X83900000Y-66200000D03*
X83900000Y-65550000D03*
X83900000Y-64900000D03*
X81950000Y-64900000D03*
X81950000Y-65550000D03*
X81950000Y-66200000D03*
D37*
X77152500Y-75600000D03*
X75247500Y-75600000D03*
X78152500Y-63400000D03*
X76247500Y-63400000D03*
D11*
X80562000Y-73500000D03*
X79038000Y-73500000D03*
D34*
X84300000Y-75338000D03*
X84300000Y-76862000D03*
D11*
X84638000Y-63300000D03*
X86162000Y-63300000D03*
X80562000Y-65500000D03*
X79038000Y-65500000D03*
D34*
X85000000Y-67338000D03*
X85000000Y-68862000D03*
D30*
X54600000Y-78200000D03*
D31*
X54600000Y-75660000D03*
X54600000Y-73120000D03*
X54600000Y-70580000D03*
D30*
X45200000Y-90100000D03*
D31*
X45200000Y-87560000D03*
D30*
X48700000Y-60800000D03*
D31*
X51240000Y-60800000D03*
D18*
X72200000Y-81000000D03*
X65800000Y-81000000D03*
X65800000Y-85600000D03*
X72200000Y-85600000D03*
D46*
X69000000Y-83300000D03*
D11*
X64338000Y-76700000D03*
X65862000Y-76700000D03*
X84412000Y-87400000D03*
X82888000Y-87400000D03*
X78138000Y-89200000D03*
X79662000Y-89200000D03*
D41*
X79400000Y-85452500D03*
X79400000Y-83547500D03*
D37*
X63947500Y-89200000D03*
X65852500Y-89200000D03*
X79647500Y-87200000D03*
X81552500Y-87200000D03*
X79647500Y-81800000D03*
X81552500Y-81800000D03*
D41*
X81800000Y-85452500D03*
X81800000Y-83547500D03*
D37*
X80947500Y-89200000D03*
X82852500Y-89200000D03*
D41*
X67500000Y-88947500D03*
X67500000Y-90852500D03*
X84500000Y-88947500D03*
X84500000Y-90852500D03*
D11*
X69538000Y-89100000D03*
X71062000Y-89100000D03*
X61138000Y-89200000D03*
X62662000Y-89200000D03*
X71262000Y-78400000D03*
X69738000Y-78400000D03*
X66338000Y-78400000D03*
X67862000Y-78400000D03*
X70562000Y-76700000D03*
X69038000Y-76700000D03*
D30*
X77200000Y-65700000D03*
D31*
X77200000Y-68240000D03*
X77200000Y-70780000D03*
X77200000Y-73320000D03*
D11*
X70962000Y-74700000D03*
X69438000Y-74700000D03*
X73762000Y-74700000D03*
X72238000Y-74700000D03*
X74962000Y-64200000D03*
X73438000Y-64200000D03*
X71162000Y-64200000D03*
X69638000Y-64200000D03*
X59562000Y-74200000D03*
X58038000Y-74200000D03*
D34*
X66200000Y-70262000D03*
X66200000Y-68738000D03*
X62100000Y-70262000D03*
X62100000Y-68738000D03*
D11*
X58038000Y-64900000D03*
X59562000Y-64900000D03*
D37*
X66352500Y-72200000D03*
X64447500Y-72200000D03*
D41*
X62200000Y-73452500D03*
X62200000Y-71547500D03*
D37*
X59952500Y-72200000D03*
X58047500Y-72200000D03*
X64447500Y-66800000D03*
X66352500Y-66800000D03*
D41*
X62200000Y-67452500D03*
X62200000Y-65547500D03*
D37*
X58047500Y-66800000D03*
X59952500Y-66800000D03*
D41*
X68100000Y-68547500D03*
X68100000Y-70452500D03*
X64300000Y-68547500D03*
X64300000Y-70452500D03*
X60200000Y-68547500D03*
X60200000Y-70452500D03*
X58000000Y-68547500D03*
X58000000Y-70452500D03*
D34*
X68100000Y-73462000D03*
X68100000Y-71938000D03*
X68100000Y-65438000D03*
X68100000Y-66962000D03*
D11*
X35938000Y-88700000D03*
X37462000Y-88700000D03*
D34*
X40400000Y-88438000D03*
X40400000Y-89962000D03*
D47*
X35100180Y-90400000D03*
X37299820Y-90400000D03*
D39*
X52050000Y-19000000D03*
X49250000Y-19000000D03*
X66750000Y-19000000D03*
X63950000Y-19000000D03*
D30*
X12730000Y-82990000D03*
D31*
X15270000Y-82990000D03*
X12730000Y-85530000D03*
X15270000Y-85530000D03*
X12730000Y-88070000D03*
X15270000Y-88070000D03*
X12730000Y-90610000D03*
X15270000Y-90610000D03*
D30*
X20500000Y-37000000D03*
D31*
X17960000Y-37000000D03*
D30*
X18000000Y-34200000D03*
D31*
X20540000Y-34200000D03*
D11*
X11762000Y-70400000D03*
X10238000Y-70400000D03*
D34*
X22300000Y-48462000D03*
X22300000Y-46938000D03*
X22300000Y-44338000D03*
X22300000Y-45862000D03*
D48*
X36860000Y-86140000D03*
X41940000Y-86140000D03*
X36860000Y-81060000D03*
D10*
G36*
X38820000Y-82530000D02*
X38370000Y-79590000D01*
X40430000Y-79590000D01*
X39980000Y-82530000D01*
X38820000Y-82530000D01*
X38820000Y-82530000D01*
G37*
D48*
X41940000Y-81060000D03*
D49*
X38002500Y-86330000D03*
X40797500Y-86330000D03*
X38002500Y-83150000D03*
D50*
X39400000Y-83150000D03*
D49*
X40797500Y-83150000D03*
D10*
G36*
X37495000Y-83319949D02*
X36505051Y-82330000D01*
X37495000Y-81340051D01*
X38484949Y-82330000D01*
X37495000Y-83319949D01*
X37495000Y-83319949D01*
G37*
G36*
X41305000Y-83319949D02*
X40315051Y-82330000D01*
X41305000Y-81340051D01*
X42294949Y-82330000D01*
X41305000Y-83319949D01*
X41305000Y-83319949D01*
G37*
D51*
X39400000Y-80790000D03*
D44*
X42194000Y-80806000D03*
D52*
X39400000Y-80806000D03*
D44*
X36606000Y-80806000D03*
X36606000Y-86394000D03*
X42194000Y-86394000D03*
D34*
X38800000Y-89962000D03*
X38800000Y-88438000D03*
D11*
X41738000Y-88700000D03*
X43262000Y-88700000D03*
D34*
X38600000Y-78362000D03*
X38600000Y-76838000D03*
X40200000Y-78362000D03*
X40200000Y-76838000D03*
D53*
X52250000Y-69800000D03*
X52250000Y-67600000D03*
X50550000Y-67600000D03*
X50550000Y-69800000D03*
D34*
X54000000Y-68662000D03*
X54000000Y-67138000D03*
D11*
X50838000Y-65900000D03*
X52362000Y-65900000D03*
X48962000Y-77000000D03*
X47438000Y-77000000D03*
X48962000Y-74800000D03*
X47438000Y-74800000D03*
D14*
X48400000Y-67600000D03*
D34*
X42000000Y-78362000D03*
X42000000Y-76838000D03*
X48300000Y-64738000D03*
X48300000Y-66262000D03*
X43600000Y-76838000D03*
X43600000Y-78362000D03*
D10*
G36*
X36764585Y-76793914D02*
X35493914Y-78064585D01*
X34582453Y-77153124D01*
X35853124Y-75882453D01*
X36764585Y-76793914D01*
X36764585Y-76793914D01*
G37*
G36*
X35417547Y-75446876D02*
X34146876Y-76717547D01*
X33235415Y-75806086D01*
X34506086Y-74535415D01*
X35417547Y-75446876D01*
X35417547Y-75446876D01*
G37*
G36*
X37650276Y-75459210D02*
X36559210Y-76550276D01*
X35827354Y-75818420D01*
X36918420Y-74727354D01*
X37650276Y-75459210D01*
X37650276Y-75459210D01*
G37*
G36*
X36572646Y-74381580D02*
X35481580Y-75472646D01*
X34749724Y-74740790D01*
X35840790Y-73649724D01*
X36572646Y-74381580D01*
X36572646Y-74381580D01*
G37*
D11*
X54538000Y-21100000D03*
X56062000Y-21100000D03*
X51638000Y-28200000D03*
X53162000Y-28200000D03*
X45738000Y-26600000D03*
X47262000Y-26600000D03*
D38*
X50650000Y-14600000D03*
X46750000Y-14600000D03*
D34*
X54800000Y-24262000D03*
X54800000Y-22738000D03*
D54*
X43422000Y-19500000D03*
X46978000Y-19500000D03*
D37*
X43747500Y-22100000D03*
X45652500Y-22100000D03*
D41*
X43000000Y-16652500D03*
X43000000Y-14747500D03*
D11*
X45738000Y-28200000D03*
X47262000Y-28200000D03*
D38*
X65350000Y-14600000D03*
X61450000Y-14600000D03*
D11*
X69238000Y-21100000D03*
X70762000Y-21100000D03*
X66338000Y-28200000D03*
X67862000Y-28200000D03*
X60438000Y-26600000D03*
X61962000Y-26600000D03*
D34*
X69500000Y-24262000D03*
X69500000Y-22738000D03*
D55*
X24600000Y-85000000D03*
X22060000Y-82460000D03*
X27140000Y-82460000D03*
X27140000Y-87540000D03*
X22060000Y-87540000D03*
D54*
X58122000Y-19500000D03*
X61678000Y-19500000D03*
D37*
X58447500Y-22100000D03*
X60352500Y-22100000D03*
D11*
X60438000Y-28200000D03*
X61962000Y-28200000D03*
D34*
X11500000Y-71938000D03*
X11500000Y-73462000D03*
X29500000Y-75762000D03*
X29500000Y-74238000D03*
X29500000Y-72962000D03*
X29500000Y-71438000D03*
X18200000Y-63138000D03*
X18200000Y-64662000D03*
D30*
X27400000Y-71400000D03*
D31*
X27400000Y-73940000D03*
X27400000Y-76480000D03*
X27400000Y-79020000D03*
D11*
X15438000Y-67800000D03*
X16962000Y-67800000D03*
X19138000Y-70000000D03*
X20662000Y-70000000D03*
X17962000Y-69500000D03*
X16438000Y-69500000D03*
D34*
X15700000Y-76938000D03*
X15700000Y-78462000D03*
D11*
X16438000Y-71200000D03*
X17962000Y-71200000D03*
D34*
X24700000Y-71738000D03*
X24700000Y-73262000D03*
X22600000Y-71562000D03*
X22600000Y-70038000D03*
X24700000Y-69138000D03*
X24700000Y-70662000D03*
X10700000Y-61162000D03*
X10700000Y-59638000D03*
D11*
X12138000Y-66900000D03*
X13662000Y-66900000D03*
X10962000Y-62600000D03*
X9438000Y-62600000D03*
X10962000Y-68600000D03*
X9438000Y-68600000D03*
X9438000Y-64300000D03*
X10962000Y-64300000D03*
X9438000Y-66900000D03*
X10962000Y-66900000D03*
X8062000Y-56800000D03*
X6538000Y-56800000D03*
X8062000Y-55300000D03*
X6538000Y-55300000D03*
D34*
X11200000Y-56638000D03*
X11200000Y-58162000D03*
X11200000Y-55462000D03*
X11200000Y-53938000D03*
D11*
X8062000Y-51500000D03*
X6538000Y-51500000D03*
X8062000Y-50000000D03*
X6538000Y-50000000D03*
D34*
X11200000Y-51338000D03*
X11200000Y-52862000D03*
X11200000Y-50162000D03*
X11200000Y-48638000D03*
X9500000Y-56638000D03*
X9500000Y-58162000D03*
X9500000Y-55462000D03*
X9500000Y-53938000D03*
X9500000Y-51338000D03*
X9500000Y-52862000D03*
X9500000Y-50162000D03*
X9500000Y-48638000D03*
D11*
X8062000Y-38300000D03*
X6538000Y-38300000D03*
X8062000Y-41800000D03*
X6538000Y-41800000D03*
X8062000Y-40100000D03*
X6538000Y-40100000D03*
D34*
X11200000Y-41538000D03*
X11200000Y-43062000D03*
X11200000Y-40362000D03*
X11200000Y-38838000D03*
D11*
X8062000Y-36500000D03*
X6538000Y-36500000D03*
X8062000Y-34800000D03*
X6538000Y-34800000D03*
D34*
X11200000Y-36238000D03*
X11200000Y-37762000D03*
X11200000Y-35062000D03*
X11200000Y-33538000D03*
D11*
X8062000Y-53400000D03*
X6538000Y-53400000D03*
D34*
X9500000Y-41538000D03*
X9500000Y-43062000D03*
X9500000Y-40362000D03*
X9500000Y-38838000D03*
X9500000Y-36238000D03*
X9500000Y-37762000D03*
X9500000Y-35062000D03*
X9500000Y-33538000D03*
X9000000Y-90562000D03*
X9000000Y-89038000D03*
X9000000Y-85838000D03*
X9000000Y-87362000D03*
D56*
X1900000Y-83450000D03*
X1900000Y-85950000D03*
X1900000Y-88550000D03*
X1900000Y-91050000D03*
D30*
X7400000Y-69400000D03*
D31*
X7400000Y-66860000D03*
X7400000Y-64320000D03*
X7400000Y-61780000D03*
D30*
X1430000Y-50290000D03*
D31*
X3970000Y-50290000D03*
X1430000Y-52830000D03*
X3970000Y-52830000D03*
X1430000Y-55370000D03*
X3970000Y-55370000D03*
X1430000Y-57910000D03*
X3970000Y-57910000D03*
D30*
X1430000Y-35190000D03*
D31*
X3970000Y-35190000D03*
X1430000Y-37730000D03*
X3970000Y-37730000D03*
X1430000Y-40270000D03*
X3970000Y-40270000D03*
X1430000Y-42810000D03*
X3970000Y-42810000D03*
D11*
X52638000Y-52300000D03*
X54162000Y-52300000D03*
D30*
X58230000Y-42220000D03*
D31*
X60770000Y-42220000D03*
X58230000Y-44760000D03*
X60770000Y-44760000D03*
X58230000Y-47300000D03*
X60770000Y-47300000D03*
X58230000Y-49840000D03*
X60770000Y-49840000D03*
X58230000Y-52380000D03*
X60770000Y-52380000D03*
D34*
X40400000Y-25138000D03*
X40400000Y-26662000D03*
D11*
X35662000Y-13700000D03*
X34138000Y-13700000D03*
X33662000Y-10900000D03*
X32138000Y-10900000D03*
D34*
X32700000Y-13862000D03*
X32700000Y-12338000D03*
X30700000Y-11138000D03*
X30700000Y-12662000D03*
D11*
X27562000Y-11200000D03*
X26038000Y-11200000D03*
D34*
X23400000Y-14962000D03*
X23400000Y-13438000D03*
D57*
X17700000Y-26380000D03*
X17700000Y-24350000D03*
X17700000Y-22320000D03*
X17700000Y-20280000D03*
X17700000Y-18250000D03*
X17700000Y-16220000D03*
X20240000Y-27400000D03*
X20240000Y-25370000D03*
X20240000Y-23340000D03*
X20240000Y-19260000D03*
X20240000Y-17230000D03*
X20240000Y-15200000D03*
D44*
X4750000Y-28820000D03*
X2210000Y-28820000D03*
X7290000Y-13780000D03*
X4750000Y-13780000D03*
X2210000Y-13780000D03*
D58*
X11100000Y-26125000D03*
X11100000Y-16475000D03*
D59*
X11100000Y-30090000D03*
X11100000Y-12510000D03*
D60*
X92400000Y-96000000D03*
X7600000Y-96000000D03*
X92400000Y-9500000D03*
D61*
X27400000Y-12850000D03*
X25200000Y-12850000D03*
X25200000Y-14550000D03*
X27400000Y-14550000D03*
D62*
X18200000Y-51600000D03*
X13500000Y-46100000D03*
X17300000Y-47400000D03*
X13900000Y-43200000D03*
D63*
X2800000Y-77100000D03*
D64*
X2800000Y-73800000D03*
X2800000Y-80400000D03*
D31*
X1500000Y-77100000D03*
X1500000Y-79640000D03*
X1500000Y-74560000D03*
D63*
X2800000Y-66800000D03*
D64*
X2800000Y-63500000D03*
X2800000Y-70100000D03*
D31*
X1500000Y-66800000D03*
X1500000Y-69340000D03*
X1500000Y-64260000D03*
D63*
X97200000Y-66200000D03*
D64*
X97200000Y-69500000D03*
X97200000Y-62900000D03*
D31*
X98500000Y-66200000D03*
X98500000Y-63660000D03*
X98500000Y-68740000D03*
D63*
X97200000Y-88200000D03*
D64*
X97200000Y-91500000D03*
X97200000Y-84900000D03*
D31*
X98500000Y-88200000D03*
X98500000Y-85660000D03*
X98500000Y-90740000D03*
D64*
X97200000Y-80500000D03*
X97200000Y-73900000D03*
D31*
X98500000Y-77200000D03*
X98500000Y-79740000D03*
X98500000Y-74660000D03*
D13*
X90100000Y-32400000D03*
D65*
X88000000Y-31495000D03*
X88000000Y-32765000D03*
X88000000Y-34035000D03*
X88000000Y-35305000D03*
X93400000Y-35305000D03*
X93400000Y-34035000D03*
X93400000Y-32765000D03*
X93400000Y-31495000D03*
D66*
X90700000Y-33400000D03*
D13*
X91300000Y-32400000D03*
D67*
X90700000Y-34600000D03*
D68*
X97000000Y-8300000D03*
X97000000Y-97000000D03*
X3000000Y-97000000D03*
X3000000Y-8300000D03*
D69*
X71800000Y-93300000D03*
D13*
X62600000Y-98000000D03*
X61600000Y-98000000D03*
X60600000Y-98000000D03*
X59600000Y-98000000D03*
X58600000Y-98000000D03*
X58600000Y-99000000D03*
X59600000Y-99000000D03*
X60600000Y-99000000D03*
X61600000Y-99000000D03*
X62600000Y-99000000D03*
X68000000Y-99000000D03*
X67000000Y-99000000D03*
X66000000Y-99000000D03*
X65000000Y-99000000D03*
X64000000Y-99000000D03*
X64000000Y-98000000D03*
X65000000Y-98000000D03*
X66000000Y-98000000D03*
X67000000Y-98000000D03*
X63300000Y-98500000D03*
X64000000Y-97000000D03*
X62600000Y-97000000D03*
X63300000Y-97500000D03*
X64000000Y-96000000D03*
X62600000Y-96000000D03*
X63300000Y-96500000D03*
X63300000Y-95500000D03*
X62600000Y-95000000D03*
X64000000Y-95000000D03*
X63300000Y-94500000D03*
X68000000Y-98000000D03*
D70*
X63300000Y-98800000D03*
D71*
X61800000Y-93700000D03*
D72*
X60800000Y-93500000D03*
X65800000Y-93500000D03*
D73*
X63300000Y-92600000D03*
D74*
X66300000Y-95200000D03*
X60300000Y-95200000D03*
D75*
X68800000Y-95800000D03*
X57800000Y-95800000D03*
D71*
X64800000Y-93700000D03*
D76*
X63300000Y-93700000D03*
D10*
G36*
X62150000Y-95062500D02*
X62675000Y-94137500D01*
X63925000Y-94137500D01*
X64450000Y-95062500D01*
X62150000Y-95062500D01*
X62150000Y-95062500D01*
G37*
D77*
X63300000Y-97000000D03*
D13*
X79600000Y-98000000D03*
X78600000Y-98000000D03*
X77600000Y-98000000D03*
X76600000Y-98000000D03*
X75600000Y-98000000D03*
X75600000Y-99000000D03*
X76600000Y-99000000D03*
X77600000Y-99000000D03*
X78600000Y-99000000D03*
X79600000Y-99000000D03*
X85000000Y-99000000D03*
X84000000Y-99000000D03*
X83000000Y-99000000D03*
X82000000Y-99000000D03*
X81000000Y-99000000D03*
X81000000Y-98000000D03*
X82000000Y-98000000D03*
X83000000Y-98000000D03*
X84000000Y-98000000D03*
X80300000Y-98500000D03*
X81000000Y-97000000D03*
X79600000Y-97000000D03*
X80300000Y-97500000D03*
X81000000Y-96000000D03*
X79600000Y-96000000D03*
X80300000Y-96500000D03*
X80300000Y-95500000D03*
X79600000Y-95000000D03*
X81000000Y-95000000D03*
X80300000Y-94500000D03*
X85000000Y-98000000D03*
D70*
X80300000Y-98800000D03*
D71*
X78800000Y-93700000D03*
D72*
X77800000Y-93500000D03*
X82800000Y-93500000D03*
D73*
X80300000Y-92600000D03*
D74*
X83300000Y-95200000D03*
X77300000Y-95200000D03*
D75*
X85800000Y-95800000D03*
X74800000Y-95800000D03*
D71*
X81800000Y-93700000D03*
D76*
X80300000Y-93700000D03*
D10*
G36*
X79150000Y-95062500D02*
X79675000Y-94137500D01*
X80925000Y-94137500D01*
X81450000Y-95062500D01*
X79150000Y-95062500D01*
X79150000Y-95062500D01*
G37*
D77*
X80300000Y-97000000D03*
D14*
X36400000Y-31700000D03*
D78*
X85600000Y-12250000D03*
X87600000Y-13200000D03*
X85600000Y-14150000D03*
D79*
X94250000Y-53100000D03*
X95200000Y-51100000D03*
X96150000Y-53100000D03*
D31*
X88500000Y-64800000D03*
X87200000Y-75500000D03*
D78*
X89200000Y-95950000D03*
X87200000Y-95000000D03*
X89200000Y-94050000D03*
D34*
X52800000Y-95862000D03*
X52800000Y-94338000D03*
D78*
X54400000Y-94050000D03*
X56400000Y-95000000D03*
X54400000Y-95950000D03*
D31*
X45200000Y-93200000D03*
D13*
X27216525Y-22015000D03*
X28616525Y-20615000D03*
X27216525Y-19215000D03*
X31416525Y-19215000D03*
X28616525Y-23415000D03*
X28616525Y-22015000D03*
X30016525Y-19215000D03*
X28616525Y-19215000D03*
X31416525Y-20615000D03*
X30016525Y-20615000D03*
D16*
X25816525Y-18565000D03*
X25816525Y-19065000D03*
X25816525Y-19565000D03*
X25816525Y-20065000D03*
X25816525Y-20565000D03*
X25816525Y-21065000D03*
X25816525Y-21565000D03*
X25816525Y-22065000D03*
X25816525Y-22565000D03*
X25816525Y-23065000D03*
X25816525Y-23565000D03*
X25816525Y-24065000D03*
D15*
X26566525Y-24815000D03*
X27066525Y-24815000D03*
X27566525Y-24815000D03*
X28066525Y-24815000D03*
X28566525Y-24815000D03*
X29066525Y-24815000D03*
X29566525Y-24815000D03*
X30066525Y-24815000D03*
X30566525Y-24815000D03*
X31066525Y-24815000D03*
X31566525Y-24815000D03*
X32066525Y-24815000D03*
D16*
X32816525Y-24065000D03*
X32816525Y-23565000D03*
X32816525Y-23065000D03*
X32816525Y-22565000D03*
X32816525Y-22065000D03*
X32816525Y-21565000D03*
X32816525Y-21065000D03*
X32816525Y-20565000D03*
X32816525Y-20065000D03*
X32816525Y-19565000D03*
X32816525Y-19065000D03*
X32816525Y-18565000D03*
D15*
X32066525Y-17815000D03*
X31566525Y-17815000D03*
X31066525Y-17815000D03*
X30566525Y-17815000D03*
X30066525Y-17815000D03*
X29566525Y-17815000D03*
X29066525Y-17815000D03*
X28566525Y-17815000D03*
X28066525Y-17815000D03*
X27566525Y-17815000D03*
X27066525Y-17815000D03*
X26566525Y-17815000D03*
D29*
X29316525Y-21315000D03*
D80*
X30616525Y-22615000D03*
D13*
X27216525Y-23415000D03*
X27216525Y-20615000D03*
D81*
X21460000Y-76190000D03*
X21460000Y-74610000D03*
X18940000Y-74610000D03*
D82*
X17850000Y-77500000D03*
X22550000Y-77500000D03*
X22550000Y-73300000D03*
X17850000Y-73300000D03*
D81*
X18940000Y-76190000D03*
D83*
X23400000Y-49800000D03*
D62*
X4400000Y-85000000D03*
D83*
X24100000Y-50300000D03*
X22100000Y-49700000D03*
X31700000Y-16000000D03*
D62*
X35500000Y-16200000D03*
X33000000Y-16200000D03*
D83*
X34200000Y-21800000D03*
X33800000Y-23800000D03*
X31800000Y-26300000D03*
X28900000Y-27300000D03*
X26800000Y-26000000D03*
D62*
X41800000Y-31100000D03*
X42600000Y-30300000D03*
X41500000Y-30100000D03*
X44000000Y-29100000D03*
X42800000Y-29100000D03*
X37700000Y-13800000D03*
X36600000Y-13800000D03*
D83*
X45600000Y-35500000D03*
X27300000Y-50800000D03*
X24900000Y-39300000D03*
X46900000Y-51800000D03*
X42600000Y-55100000D03*
X41100000Y-55100000D03*
X46900000Y-39800000D03*
X46900000Y-37700000D03*
X27300000Y-42300000D03*
X42100000Y-35500000D03*
X33700000Y-35500000D03*
X29500000Y-35500000D03*
X31600000Y-55100000D03*
X36100000Y-55100000D03*
X36000000Y-11400000D03*
X24000000Y-28200000D03*
X24800000Y-50800000D03*
D62*
X4400000Y-90100000D03*
D83*
X24800000Y-47900000D03*
X14200000Y-66900000D03*
X12900000Y-58400000D03*
D84*
X90900000Y-93400000D03*
X56100000Y-92600000D03*
D83*
X81600000Y-66600000D03*
X81400000Y-74600000D03*
D62*
X72100000Y-54800000D03*
X89800000Y-75500000D03*
X70900000Y-54800000D03*
X62600000Y-55900000D03*
X63700000Y-55100000D03*
X62900000Y-58100000D03*
X72800000Y-43500000D03*
X80700000Y-34300000D03*
X81900000Y-34300000D03*
X63500000Y-32200000D03*
X63500000Y-33400000D03*
X85500000Y-41800000D03*
X58800000Y-26000000D03*
X58800000Y-27200000D03*
X58800000Y-28400000D03*
X56900000Y-18400000D03*
X56900000Y-17200000D03*
X55700000Y-17200000D03*
X55700000Y-18400000D03*
X30400000Y-54200000D03*
X29900000Y-47300000D03*
X22100000Y-40800000D03*
X20100000Y-40800000D03*
X50600000Y-41200000D03*
X53000000Y-41200000D03*
D83*
X52200000Y-51500000D03*
X52200000Y-52600000D03*
X46900000Y-46300000D03*
X49300000Y-41300000D03*
X27300000Y-46700000D03*
X32100000Y-57500000D03*
X35100000Y-57500000D03*
X39100000Y-57500000D03*
X43600000Y-57500000D03*
X21800000Y-78000000D03*
D62*
X32500000Y-99000000D03*
X35000000Y-99000000D03*
X37500000Y-99000000D03*
X40000000Y-99000000D03*
X42500000Y-99000000D03*
X45000000Y-99000000D03*
X47500000Y-99000000D03*
X50000000Y-99000000D03*
X52500000Y-99000000D03*
X55000000Y-99000000D03*
D83*
X69700000Y-24800000D03*
X33500000Y-12300000D03*
X31500000Y-12600000D03*
X25700000Y-25500000D03*
D84*
X85600000Y-93200000D03*
X58000000Y-93200000D03*
D83*
X52800000Y-93700000D03*
D62*
X56800000Y-94200000D03*
X86800000Y-94200000D03*
D83*
X82500000Y-62100000D03*
X78900000Y-51050000D03*
D62*
X57000000Y-90400000D03*
X74000000Y-90400000D03*
D83*
X92700000Y-50300000D03*
D62*
X96700000Y-53900000D03*
X98000000Y-1000000D03*
X96000000Y-1000000D03*
X94000000Y-1000000D03*
X92000000Y-1000000D03*
X47000000Y-1000000D03*
X49000000Y-1000000D03*
X51000000Y-1000000D03*
X53000000Y-1000000D03*
X7500000Y-6500000D03*
X2000000Y-1000000D03*
X4000000Y-1000000D03*
X6000000Y-1000000D03*
X8000000Y-1000000D03*
X87500000Y-99000000D03*
X90000000Y-99000000D03*
X92500000Y-99000000D03*
X74300000Y-99000000D03*
X71800000Y-99000000D03*
X69300000Y-99000000D03*
X7500000Y-99000000D03*
X10000000Y-99000000D03*
X12500000Y-99000000D03*
X15000000Y-99000000D03*
X17500000Y-99000000D03*
X20000000Y-99000000D03*
X22500000Y-99000000D03*
X25000000Y-99000000D03*
X27500000Y-99000000D03*
X30000000Y-99000000D03*
X57300000Y-99000000D03*
X12500000Y-6500000D03*
X92500000Y-6500000D03*
X90000000Y-6500000D03*
X87500000Y-6500000D03*
X85000000Y-6500000D03*
X82500000Y-6500000D03*
X80000000Y-6500000D03*
X77500000Y-6500000D03*
X75000000Y-6500000D03*
X72500000Y-6500000D03*
X70000000Y-6500000D03*
X67500000Y-6500000D03*
X65000000Y-6500000D03*
X62500000Y-6500000D03*
X60000000Y-6500000D03*
X57500000Y-6500000D03*
X55000000Y-6500000D03*
X52500000Y-6500000D03*
X50000000Y-6500000D03*
X47500000Y-6500000D03*
X45000000Y-6500000D03*
X42500000Y-6500000D03*
X40000000Y-6500000D03*
X37500000Y-6500000D03*
X35000000Y-6500000D03*
X32500000Y-6500000D03*
X30000000Y-6500000D03*
X27500000Y-6500000D03*
X25000000Y-6500000D03*
X22500000Y-6500000D03*
X20000000Y-6500000D03*
X17500000Y-6500000D03*
X15000000Y-6500000D03*
X10000000Y-6500000D03*
X58300000Y-87400000D03*
D83*
X28300000Y-14800000D03*
X23800000Y-12200000D03*
X25200000Y-12100000D03*
X22700000Y-12300000D03*
D62*
X4900000Y-75000000D03*
X4900000Y-79200000D03*
X4900000Y-81600000D03*
X4900000Y-72600000D03*
X4900000Y-71300000D03*
X4900000Y-68900000D03*
X4900000Y-64700000D03*
X4900000Y-62300000D03*
X95200000Y-92700000D03*
X95200000Y-90300000D03*
X95200000Y-86100000D03*
X95200000Y-83700000D03*
X95200000Y-81700000D03*
X95200000Y-79300000D03*
X95200000Y-75100000D03*
X95200000Y-72700000D03*
X95200000Y-70700000D03*
X95200000Y-68300000D03*
X95200000Y-61700000D03*
X95200000Y-64200000D03*
X41300000Y-11800000D03*
D83*
X94400000Y-48700000D03*
X91700000Y-43000000D03*
X60800000Y-59400000D03*
X61800000Y-75800000D03*
X60800000Y-73600000D03*
X71600000Y-62500000D03*
D62*
X70300000Y-57200000D03*
X68100000Y-60800000D03*
X61500000Y-60400000D03*
D83*
X60800000Y-65400000D03*
X61100000Y-63500000D03*
D62*
X55700000Y-61200000D03*
D83*
X55700000Y-63200000D03*
X55700000Y-59600000D03*
D62*
X95000000Y-33200000D03*
D83*
X75800000Y-45800000D03*
X75800000Y-44200000D03*
X75800000Y-41000000D03*
X75800000Y-39400000D03*
X75800000Y-37800000D03*
D62*
X75300000Y-42600000D03*
D83*
X83900000Y-34900000D03*
X84800000Y-45500000D03*
X83200000Y-45500000D03*
X84800000Y-38100000D03*
X83200000Y-38100000D03*
D62*
X82500000Y-41800000D03*
D83*
X77600000Y-83200000D03*
D62*
X70200000Y-65700000D03*
D83*
X70100000Y-66900000D03*
X70000000Y-19600000D03*
D62*
X70600000Y-16300000D03*
D83*
X83000000Y-28600000D03*
X84400000Y-24800000D03*
D62*
X76600000Y-19100000D03*
X77500000Y-19800000D03*
X77500000Y-18400000D03*
X76600000Y-22200000D03*
X76600000Y-20500000D03*
X85600000Y-11300000D03*
X43000000Y-14000000D03*
X74800000Y-93400000D03*
X68800000Y-93400000D03*
X53800000Y-91500000D03*
X47600000Y-85000000D03*
D83*
X60100000Y-64500000D03*
X60100000Y-74400000D03*
X63800000Y-76200000D03*
X71900000Y-78500000D03*
X71200000Y-76100000D03*
X84900000Y-65600000D03*
X84800000Y-73500000D03*
X49900000Y-74300000D03*
X55700000Y-67000000D03*
X52200000Y-65100000D03*
X49300000Y-43900000D03*
D62*
X34300000Y-90000000D03*
X35300000Y-88300000D03*
D83*
X68400000Y-28600000D03*
D62*
X62800000Y-18400000D03*
X48200000Y-20800000D03*
X46100000Y-21200000D03*
X48200000Y-19600000D03*
X48200000Y-18400000D03*
D83*
X55000000Y-24800000D03*
X53700000Y-28600000D03*
X42100000Y-78900000D03*
X43700000Y-78900000D03*
X44400000Y-78200000D03*
X42800000Y-78300000D03*
X24000000Y-34300000D03*
X18500000Y-12200000D03*
X21000000Y-12200000D03*
X21000000Y-30400000D03*
X18500000Y-30400000D03*
X43300000Y-41300000D03*
D62*
X41900000Y-41900000D03*
X41900000Y-38700000D03*
D83*
X31300000Y-41300000D03*
X39300000Y-52500000D03*
X36100000Y-51200000D03*
X53300000Y-34600000D03*
X54200000Y-35100000D03*
X60800000Y-34000000D03*
X57600000Y-33400000D03*
X59400000Y-33700000D03*
X50800000Y-33500000D03*
X13100000Y-65100000D03*
X13100000Y-61900000D03*
X14500000Y-71100000D03*
X15300000Y-72900000D03*
X15300000Y-74100000D03*
X14900000Y-78500000D03*
X23700000Y-78000000D03*
X24300000Y-74300000D03*
X25100000Y-71200000D03*
X49700000Y-64700000D03*
X49700000Y-66200000D03*
X50100000Y-69000000D03*
X52200000Y-66800000D03*
X27400000Y-54700000D03*
X45300000Y-49000000D03*
X27300000Y-40800000D03*
X28800000Y-43700000D03*
X27300000Y-35600000D03*
X24100000Y-48400000D03*
X24800000Y-46800000D03*
X40000000Y-28300000D03*
X8700000Y-43100000D03*
X8700000Y-33500000D03*
X8600000Y-58200000D03*
X8600000Y-48600000D03*
X8600000Y-53900000D03*
X8600000Y-52900000D03*
X35700000Y-73300000D03*
X38100000Y-75600000D03*
X45900000Y-62800000D03*
X23900000Y-71700000D03*
X15400000Y-66300000D03*
X18700000Y-61600000D03*
X45800000Y-33100000D03*
X47200000Y-55400000D03*
X55400000Y-49900000D03*
X54700000Y-51700000D03*
X27300000Y-48800000D03*
X27300000Y-47800000D03*
X46900000Y-43800000D03*
X25300000Y-56800000D03*
X33400000Y-53900000D03*
X34500000Y-53900000D03*
X46900000Y-53000000D03*
X45500000Y-53100000D03*
X46900000Y-53800000D03*
X44100000Y-53700000D03*
X38900000Y-54000000D03*
X44100000Y-55100000D03*
X39100000Y-55100000D03*
X46900000Y-44900000D03*
X46200000Y-41700000D03*
X46900000Y-41300000D03*
X45400000Y-36400000D03*
X48200000Y-35200000D03*
X46900000Y-36400000D03*
X27300000Y-39300000D03*
X39900000Y-36600000D03*
X40100000Y-35500000D03*
X35900000Y-36600000D03*
X35600000Y-35500000D03*
X32600000Y-35500000D03*
X29400000Y-36800000D03*
X25600000Y-54700000D03*
X33100000Y-55100000D03*
X35100000Y-55100000D03*
X43600000Y-35500000D03*
X27300000Y-36800000D03*
X8700000Y-38800000D03*
X8700000Y-37800000D03*
X37400000Y-77900000D03*
D62*
X60800000Y-21200000D03*
X62800000Y-20800000D03*
X62800000Y-19600000D03*
D83*
X26900000Y-16600000D03*
D62*
X24700000Y-17100000D03*
X22700000Y-17100000D03*
D83*
X24700000Y-25000000D03*
X30700000Y-15900000D03*
X41100000Y-23900000D03*
D62*
X40700000Y-32200000D03*
D83*
X33950000Y-19450000D03*
X26500000Y-27500000D03*
D62*
X33500000Y-30200000D03*
X33500000Y-32300000D03*
D83*
X44100000Y-33100000D03*
X40600000Y-33100000D03*
X36100000Y-33100000D03*
X33100000Y-33100000D03*
D62*
X31500000Y-13800000D03*
D83*
X28800000Y-16600000D03*
D62*
X29200000Y-11200000D03*
D83*
X23600000Y-19550000D03*
X23650000Y-23050000D03*
X33900000Y-27500000D03*
X34700000Y-26700000D03*
X35500000Y-27500000D03*
X36500000Y-26700000D03*
X37000000Y-21600000D03*
X37100000Y-19900000D03*
X36300000Y-17600000D03*
X39600000Y-18900000D03*
X36700000Y-16400000D03*
X37700000Y-16200000D03*
X40200000Y-24600000D03*
X22700000Y-16000000D03*
X49300000Y-54300000D03*
X49300000Y-52800000D03*
X49300000Y-51800000D03*
X49300000Y-50300000D03*
X44800000Y-50400000D03*
X50900000Y-48200000D03*
X49300000Y-47800000D03*
X45300000Y-47700000D03*
X55300000Y-46400000D03*
X49400000Y-36800000D03*
X46600000Y-34900000D03*
X25600000Y-35400000D03*
X24900000Y-37300000D03*
X28500000Y-44800000D03*
X27300000Y-53300000D03*
X27700000Y-55800000D03*
X36600000Y-18500000D03*
X38300000Y-18200000D03*
X38000000Y-63600000D03*
X34600000Y-63400000D03*
X38500000Y-62600000D03*
X36100000Y-62200000D03*
X16000000Y-49400000D03*
X15200000Y-36400000D03*
X16000000Y-53800000D03*
D62*
X16000000Y-44300000D03*
D83*
X23700000Y-40700000D03*
D62*
X16000000Y-40500000D03*
D83*
X24900000Y-40800000D03*
D62*
X6300000Y-44300000D03*
D83*
X16900000Y-72900000D03*
X16900000Y-73700000D03*
X20300000Y-63100000D03*
X17500000Y-66600000D03*
X18100000Y-67300000D03*
X25500000Y-69200000D03*
X25400000Y-65800000D03*
X22200000Y-63100000D03*
X18600000Y-66600000D03*
X19600000Y-78300000D03*
X14900000Y-77300000D03*
D62*
X20300000Y-60900000D03*
X25200000Y-62500000D03*
D83*
X78300000Y-27100000D03*
D62*
X82500000Y-19600000D03*
X65200000Y-27200000D03*
X67800000Y-19600000D03*
X53100000Y-19600000D03*
X50500000Y-27200000D03*
D83*
X39000000Y-75400000D03*
X41000000Y-75400000D03*
X43000000Y-75400000D03*
X47100000Y-68900000D03*
X36800000Y-65400000D03*
X47100000Y-65900000D03*
X47300000Y-68100000D03*
X34300000Y-66500000D03*
X34600000Y-74500000D03*
X36800000Y-76700000D03*
X48200000Y-72000000D03*
X49100000Y-72000000D03*
D62*
X9600000Y-70000000D03*
D83*
X4400000Y-86400000D03*
X7500000Y-86400000D03*
X69400000Y-65000000D03*
X68900000Y-73200000D03*
X72200000Y-73800000D03*
X73500000Y-65200000D03*
D62*
X58000000Y-77400000D03*
X60100000Y-62600000D03*
X77900000Y-85900000D03*
X60500000Y-89600000D03*
X68900000Y-89100000D03*
X63500000Y-87600000D03*
X56900000Y-76300000D03*
X58600000Y-62600000D03*
X77500000Y-89600000D03*
X84550000Y-88300000D03*
X91800000Y-74500000D03*
D83*
X26200000Y-66300000D03*
X26900000Y-64700000D03*
X86700000Y-63100000D03*
X84500000Y-72600000D03*
X79800000Y-66600000D03*
X79800000Y-64200000D03*
D62*
X65500000Y-75800000D03*
X66700000Y-75200000D03*
X66700000Y-76400000D03*
X65500000Y-74600000D03*
X65200000Y-63000000D03*
X95000000Y-31600000D03*
X73500000Y-26000000D03*
X73500000Y-27200000D03*
X73500000Y-28400000D03*
X84100000Y-33700000D03*
X75000000Y-74000000D03*
X93500000Y-53100000D03*
D83*
X69900000Y-53400000D03*
X73500000Y-62000000D03*
X69400000Y-60800000D03*
X69000000Y-36100000D03*
X73300000Y-49700000D03*
X73700000Y-55000000D03*
X74600000Y-55800000D03*
X74600000Y-50600000D03*
X76000000Y-57100000D03*
X81700000Y-57100000D03*
X87400000Y-57100000D03*
X78500000Y-46100000D03*
X79000000Y-42400000D03*
X79000000Y-41200000D03*
X78500000Y-37500000D03*
X80300000Y-46000000D03*
X80300000Y-44300000D03*
X80300000Y-37600000D03*
X80300000Y-39300000D03*
X87700000Y-37600000D03*
X87700000Y-39300000D03*
X87700000Y-45900000D03*
X87700000Y-44300000D03*
X93300000Y-35900000D03*
X78700000Y-30000000D03*
X79500000Y-27700000D03*
D84*
X88500000Y-93300000D03*
D62*
X90800000Y-76500000D03*
D85*
G36*
X99873000Y-7873000D02*
X127000Y-7873000D01*
X127000Y-5627000D01*
X99873000Y-5627000D01*
X99873000Y-7873000D01*
X99873000Y-7873000D01*
G37*
X99873000Y-7873000D02*
X127000Y-7873000D01*
X127000Y-5627000D01*
X99873000Y-5627000D01*
X99873000Y-7873000D01*
G36*
X99873000Y-2373000D02*
X90127000Y-2373000D01*
X90127000Y-127000D01*
X99873000Y-127000D01*
X99873000Y-2373000D01*
X99873000Y-2373000D01*
G37*
X99873000Y-2373000D02*
X90127000Y-2373000D01*
X90127000Y-127000D01*
X99873000Y-127000D01*
X99873000Y-2373000D01*
G36*
X54873000Y-2373000D02*
X45127000Y-2373000D01*
X45127000Y-127000D01*
X54873000Y-127000D01*
X54873000Y-2373000D01*
X54873000Y-2373000D01*
G37*
X54873000Y-2373000D02*
X45127000Y-2373000D01*
X45127000Y-127000D01*
X54873000Y-127000D01*
X54873000Y-2373000D01*
G36*
X9873000Y-2373000D02*
X127000Y-2373000D01*
X127000Y-127000D01*
X9873000Y-127000D01*
X9873000Y-2373000D01*
X9873000Y-2373000D01*
G37*
X9873000Y-2373000D02*
X127000Y-2373000D01*
X127000Y-127000D01*
X9873000Y-127000D01*
X9873000Y-2373000D01*
G36*
X99873000Y-99873000D02*
X127000Y-99873000D01*
X127000Y-97627000D01*
X99873000Y-97627000D01*
X99873000Y-99873000D01*
X99873000Y-99873000D01*
G37*
X99873000Y-99873000D02*
X127000Y-99873000D01*
X127000Y-97627000D01*
X99873000Y-97627000D01*
X99873000Y-99873000D01*
M02*
