M48
;DRILL file {KiCad 4.0.4-stable} date 01/09/17 22:08:26
;FORMAT={-:-/ absolute / metric / decimal}
FMAT,2
METRIC,TZ
T1C0.300
T2C0.500
T3C0.800
T4C0.890
T5C0.900
T6C1.000
T7C1.100
T8C1.200
T9C1.270
T10C1.300
T11C1.500
T12C1.550
T13C1.570
T14C1.650
T15C1.800
T16C2.000
T17C2.300
T18C2.500
T19C2.850
T20C3.250
%
G90
G05
M71
T1
X4.4Y-86.4
X7.5Y-86.4
X8.6Y-48.6
X8.6Y-52.9
X8.6Y-53.9
X8.6Y-58.2
X8.7Y-33.5
X8.7Y-37.8
X8.7Y-38.8
X8.7Y-43.1
X12.9Y-58.4
X13.1Y-61.9
X13.1Y-65.1
X14.2Y-66.9
X14.5Y-71.1
X14.9Y-77.3
X14.9Y-78.5
X15.2Y-36.4
X15.3Y-72.9
X15.3Y-74.1
X15.4Y-66.3
X16.Y-49.4
X16.Y-53.8
X16.9Y-72.9
X16.9Y-73.7
X17.5Y-66.6
X18.1Y-67.3
X18.5Y-12.2
X18.5Y-30.4
X18.6Y-66.6
X18.7Y-61.6
X19.6Y-78.3
X20.3Y-63.1
X20.755Y-65.321
X21.Y-12.2
X21.Y-30.4
X21.655Y-65.321
X21.8Y-78.
X22.1Y-49.7
X22.2Y-63.1
X22.255Y-65.821
X22.7Y-12.3
X22.7Y-16.
X22.755Y-65.321
X22.755Y-66.421
X22.755Y-67.321
X23.4Y-49.8
X23.6Y-19.55
X23.65Y-23.05
X23.7Y-40.7
X23.7Y-78.
X23.8Y-12.2
X23.9Y-71.7
X24.Y-28.2
X24.Y-34.3
X24.1Y-48.4
X24.1Y-50.3
X24.3Y-74.3
X24.7Y-25.
X24.8Y-46.8
X24.8Y-47.9
X24.8Y-50.8
X24.9Y-37.3
X24.9Y-39.3
X24.9Y-40.8
X25.1Y-71.2
X25.2Y-12.1
X25.3Y-56.8
X25.4Y-65.8
X25.5Y-69.2
X25.6Y-35.4
X25.6Y-54.7
X25.7Y-25.5
X26.2Y-66.3
X26.5Y-27.5
X26.8Y-26.
X26.9Y-16.6
X26.9Y-64.7
X27.217Y-19.215
X27.217Y-20.615
X27.217Y-22.015
X27.217Y-23.415
X27.3Y-35.6
X27.3Y-36.8
X27.3Y-39.3
X27.3Y-40.8
X27.3Y-42.3
X27.3Y-46.7
X27.3Y-47.8
X27.3Y-48.8
X27.3Y-50.8
X27.3Y-53.3
X27.4Y-54.7
X27.7Y-55.8
X28.3Y-14.8
X28.5Y-44.8
X28.617Y-19.215
X28.617Y-20.615
X28.617Y-22.015
X28.617Y-23.415
X28.8Y-16.6
X28.8Y-43.7
X28.9Y-27.3
X29.4Y-36.8
X29.5Y-35.5
X30.017Y-19.215
X30.017Y-20.615
X30.7Y-15.9
X31.3Y-41.3
X31.417Y-19.215
X31.417Y-20.615
X31.5Y-12.6
X31.6Y-55.1
X31.7Y-16.
X31.8Y-26.3
X32.1Y-57.5
X32.6Y-35.5
X33.1Y-33.1
X33.1Y-55.1
X33.4Y-53.9
X33.5Y-12.3
X33.7Y-35.5
X33.8Y-23.8
X33.9Y-27.5
X33.95Y-19.45
X34.2Y-21.8
X34.3Y-66.5
X34.5Y-53.9
X34.6Y-63.4
X34.6Y-74.5
X34.7Y-26.7
X35.1Y-55.1
X35.1Y-57.5
X35.5Y-27.5
X35.6Y-35.5
X35.6Y-43.8
X35.6Y-45.3
X35.6Y-46.8
X35.7Y-73.3
X35.9Y-36.6
X36.Y-11.4
X36.1Y-33.1
X36.1Y-51.2
X36.1Y-55.1
X36.1Y-62.2
X36.3Y-17.6
X36.5Y-26.7
X36.6Y-18.5
X36.7Y-16.4
X36.8Y-65.4
X36.8Y-76.7
X37.Y-21.6
X37.1Y-19.9
X37.1Y-43.8
X37.1Y-45.3
X37.1Y-46.8
X37.4Y-77.9
X37.7Y-16.2
X38.Y-63.6
X38.1Y-75.6
X38.3Y-18.2
X38.5Y-62.6
X38.5Y-66.8
X38.5Y-68.3
X38.5Y-69.8
X38.5Y-71.3
X38.5Y-72.8
X38.6Y-43.8
X38.6Y-45.3
X38.9Y-54.
X39.Y-75.4
X39.1Y-55.1
X39.1Y-57.5
X39.3Y-52.5
X39.6Y-18.9
X39.9Y-36.6
X40.Y-28.3
X40.Y-66.8
X40.Y-68.3
X40.Y-69.8
X40.Y-71.3
X40.Y-72.8
X40.1Y-35.5
X40.2Y-24.6
X40.6Y-33.1
X41.Y-75.4
X41.1Y-23.9
X41.1Y-55.1
X41.5Y-66.8
X41.5Y-68.3
X41.5Y-69.8
X41.5Y-71.3
X41.5Y-72.8
X42.1Y-35.5
X42.1Y-78.9
X42.6Y-55.1
X42.8Y-78.3
X43.Y-69.8
X43.Y-71.3
X43.Y-72.8
X43.Y-75.4
X43.3Y-41.3
X43.6Y-35.5
X43.6Y-57.5
X43.7Y-78.9
X44.1Y-33.1
X44.1Y-53.7
X44.1Y-55.1
X44.4Y-78.2
X44.5Y-69.8
X44.5Y-71.3
X44.5Y-72.8
X44.8Y-50.4
X45.3Y-47.7
X45.3Y-49.
X45.4Y-36.4
X45.5Y-53.1
X45.6Y-35.5
X45.8Y-33.1
X45.9Y-62.8
X46.2Y-41.7
X46.6Y-34.9
X46.9Y-36.4
X46.9Y-37.7
X46.9Y-39.8
X46.9Y-41.3
X46.9Y-43.8
X46.9Y-44.9
X46.9Y-46.3
X46.9Y-51.8
X46.9Y-53.
X46.9Y-53.8
X47.1Y-65.9
X47.1Y-68.9
X47.2Y-55.4
X47.3Y-68.1
X48.2Y-35.2
X48.2Y-72.
X49.1Y-72.
X49.3Y-41.3
X49.3Y-43.9
X49.3Y-47.8
X49.3Y-50.3
X49.3Y-51.8
X49.3Y-52.8
X49.3Y-54.3
X49.4Y-36.8
X49.7Y-64.7
X49.7Y-66.2
X49.9Y-74.3
X50.1Y-69.
X50.8Y-33.5
X50.9Y-48.2
X51.5Y-23.75
X52.2Y-51.5
X52.2Y-52.6
X52.2Y-65.1
X52.2Y-66.8
X52.5Y-23.75
X52.8Y-93.7
X53.3Y-34.6
X53.7Y-28.6
X54.2Y-35.1
X54.7Y-51.7
X55.Y-24.8
X55.3Y-46.4
X55.4Y-49.9
X55.7Y-59.6
X55.7Y-63.2
X55.7Y-67.
X57.6Y-33.4
X58.6Y-98.
X58.6Y-99.
X59.4Y-33.7
X59.6Y-98.
X59.6Y-99.
X60.1Y-64.5
X60.1Y-74.4
X60.6Y-98.
X60.6Y-99.
X60.8Y-34.
X60.8Y-59.4
X60.8Y-65.4
X60.8Y-73.6
X61.1Y-63.5
X61.6Y-98.
X61.6Y-99.
X61.8Y-75.8
X62.6Y-95.
X62.6Y-96.
X62.6Y-97.
X62.6Y-98.
X62.6Y-99.
X63.3Y-94.5
X63.3Y-95.5
X63.3Y-96.5
X63.3Y-97.5
X63.3Y-98.5
X63.8Y-76.2
X64.Y-95.
X64.Y-96.
X64.Y-97.
X64.Y-98.
X64.Y-99.
X65.Y-98.
X65.Y-99.
X66.Y-98.
X66.Y-99.
X66.2Y-23.75
X67.Y-98.
X67.Y-99.
X67.2Y-23.75
X68.Y-98.
X68.Y-99.
X68.4Y-28.6
X68.9Y-73.2
X69.Y-36.1
X69.4Y-60.8
X69.4Y-65.
X69.7Y-24.8
X69.9Y-53.4
X70.Y-19.6
X70.1Y-66.9
X71.2Y-76.1
X71.395Y-68.825
X71.395Y-70.325
X71.6Y-62.5
X71.9Y-78.5
X72.2Y-73.8
X72.895Y-68.825
X72.895Y-70.325
X73.3Y-49.7
X73.5Y-62.
X73.5Y-65.2
X73.7Y-55.
X74.395Y-70.325
X74.6Y-50.6
X74.6Y-55.8
X75.6Y-98.
X75.6Y-99.
X75.8Y-37.8
X75.8Y-39.4
X75.8Y-41.
X75.8Y-44.2
X75.8Y-45.8
X76.Y-57.1
X76.6Y-98.
X76.6Y-99.
X77.6Y-83.2
X77.6Y-98.
X77.6Y-99.
X78.3Y-27.1
X78.5Y-37.5
X78.5Y-46.1
X78.6Y-98.
X78.6Y-99.
X78.7Y-30.
X78.9Y-51.05
X79.Y-41.2
X79.Y-42.4
X79.5Y-27.7
X79.6Y-95.
X79.6Y-96.
X79.6Y-97.
X79.6Y-98.
X79.6Y-99.
X79.8Y-64.2
X79.8Y-66.6
X80.3Y-37.6
X80.3Y-39.3
X80.3Y-44.3
X80.3Y-46.
X80.3Y-94.5
X80.3Y-95.5
X80.3Y-96.5
X80.3Y-97.5
X80.3Y-98.5
X80.9Y-23.75
X81.Y-95.
X81.Y-96.
X81.Y-97.
X81.Y-98.
X81.Y-99.
X81.4Y-74.6
X81.6Y-66.6
X81.7Y-57.1
X81.9Y-23.75
X82.Y-98.
X82.Y-99.
X82.5Y-62.1
X83.Y-28.6
X83.Y-98.
X83.Y-99.
X83.2Y-38.1
X83.2Y-45.5
X83.9Y-34.9
X84.Y-98.
X84.Y-99.
X84.4Y-24.8
X84.5Y-72.6
X84.8Y-38.1
X84.8Y-45.5
X84.8Y-73.5
X84.9Y-65.6
X85.Y-98.
X85.Y-99.
X86.7Y-63.1
X87.4Y-57.1
X87.7Y-37.6
X87.7Y-39.3
X87.7Y-44.3
X87.7Y-45.9
X90.1Y-32.4
X91.3Y-32.4
X91.7Y-43.
X92.7Y-50.3
X93.3Y-35.9
X94.4Y-48.7
T2
X2.Y-1.
X4.Y-1.
X4.4Y-85.
X4.4Y-90.1
X4.9Y-62.3
X4.9Y-64.7
X4.9Y-68.9
X4.9Y-71.3
X4.9Y-72.6
X4.9Y-75.
X4.9Y-79.2
X4.9Y-81.6
X6.Y-1.
X6.3Y-44.3
X7.5Y-6.5
X7.5Y-99.
X8.Y-1.
X9.6Y-70.
X10.Y-6.5
X10.Y-99.
X12.5Y-6.5
X12.5Y-99.
X13.5Y-46.1
X13.9Y-43.2
X15.Y-6.5
X15.Y-99.
X16.Y-40.5
X16.Y-44.3
X17.3Y-47.4
X17.5Y-6.5
X17.5Y-99.
X18.2Y-51.6
X20.Y-6.5
X20.Y-99.
X20.1Y-40.8
X20.3Y-60.9
X22.1Y-40.8
X22.5Y-6.5
X22.5Y-99.
X22.7Y-17.1
X24.7Y-17.1
X25.Y-6.5
X25.Y-99.
X25.2Y-62.5
X27.5Y-6.5
X27.5Y-99.
X29.2Y-11.2
X29.9Y-47.3
X30.Y-6.5
X30.Y-99.
X30.4Y-54.2
X31.5Y-13.8
X32.5Y-6.5
X32.5Y-99.
X33.Y-16.2
X33.5Y-30.2
X33.5Y-32.3
X34.3Y-90.
X35.Y-6.5
X35.Y-99.
X35.3Y-88.3
X35.5Y-16.2
X36.6Y-13.8
X37.5Y-6.5
X37.5Y-99.
X37.7Y-13.8
X40.Y-6.5
X40.Y-99.
X40.7Y-32.2
X41.3Y-11.8
X41.5Y-30.1
X41.8Y-31.1
X41.9Y-38.7
X41.9Y-41.9
X42.5Y-6.5
X42.5Y-99.
X42.6Y-30.3
X42.8Y-29.1
X43.Y-14.
X44.Y-29.1
X45.Y-6.5
X45.Y-99.
X46.1Y-21.2
X47.Y-1.
X47.5Y-6.5
X47.5Y-99.
X47.6Y-85.
X48.2Y-18.4
X48.2Y-19.6
X48.2Y-20.8
X49.Y-1.
X50.Y-6.5
X50.Y-99.
X50.5Y-27.2
X50.6Y-41.2
X51.Y-1.
X52.5Y-6.5
X52.5Y-99.
X53.Y-1.
X53.Y-41.2
X53.1Y-19.6
X53.8Y-91.5
X55.Y-6.5
X55.Y-99.
X55.7Y-17.2
X55.7Y-18.4
X55.7Y-61.2
X56.8Y-94.2
X56.9Y-17.2
X56.9Y-18.4
X56.9Y-76.3
X57.Y-90.4
X57.3Y-99.
X57.5Y-6.5
X58.Y-77.4
X58.3Y-87.4
X58.6Y-62.6
X58.8Y-26.
X58.8Y-27.2
X58.8Y-28.4
X60.Y-6.5
X60.1Y-62.6
X60.5Y-89.6
X60.8Y-21.2
X61.5Y-60.4
X62.5Y-6.5
X62.6Y-55.9
X62.8Y-18.4
X62.8Y-19.6
X62.8Y-20.8
X62.9Y-58.1
X63.5Y-32.2
X63.5Y-33.4
X63.5Y-87.6
X63.7Y-55.1
X65.Y-6.5
X65.2Y-27.2
X65.2Y-63.
X65.5Y-74.6
X65.5Y-75.8
X66.7Y-75.2
X66.7Y-76.4
X67.5Y-6.5
X67.8Y-19.6
X68.1Y-60.8
X68.8Y-93.4
X68.9Y-89.1
X69.3Y-99.
X70.Y-6.5
X70.2Y-65.7
X70.3Y-57.2
X70.6Y-16.3
X70.9Y-54.8
X71.8Y-99.
X72.1Y-54.8
X72.5Y-6.5
X72.8Y-43.5
X73.5Y-26.
X73.5Y-27.2
X73.5Y-28.4
X74.Y-90.4
X74.3Y-99.
X74.8Y-93.4
X75.Y-6.5
X75.Y-74.
X75.3Y-42.6
X76.6Y-19.1
X76.6Y-20.5
X76.6Y-22.2
X77.5Y-6.5
X77.5Y-18.4
X77.5Y-19.8
X77.5Y-89.6
X77.9Y-85.9
X80.Y-6.5
X80.7Y-34.3
X81.9Y-34.3
X82.5Y-6.5
X82.5Y-19.6
X82.5Y-41.8
X84.1Y-33.7
X84.55Y-88.3
X85.Y-6.5
X85.5Y-41.8
X85.6Y-11.3
X86.8Y-94.2
X87.5Y-6.5
X87.5Y-99.
X89.8Y-75.5
X90.Y-6.5
X90.Y-99.
X90.8Y-76.5
X91.8Y-74.5
X92.Y-1.
X92.5Y-6.5
X92.5Y-99.
X93.5Y-53.1
X94.Y-1.
X95.Y-31.6
X95.Y-33.2
X95.2Y-61.7
X95.2Y-64.2
X95.2Y-68.3
X95.2Y-70.7
X95.2Y-72.7
X95.2Y-75.1
X95.2Y-79.3
X95.2Y-81.7
X95.2Y-83.7
X95.2Y-86.1
X95.2Y-90.3
X95.2Y-92.7
X96.Y-1.
X96.7Y-53.9
X98.Y-1.
T3
X56.1Y-92.6
X58.Y-93.2
X85.6Y-93.2
X88.5Y-93.3
X90.9Y-93.4
T4
X17.7Y-16.22
X17.7Y-18.25
X17.7Y-20.28
X17.7Y-22.32
X17.7Y-24.35
X17.7Y-26.38
X20.24Y-15.2
X20.24Y-17.23
X20.24Y-19.26
X20.24Y-23.34
X20.24Y-25.37
X20.24Y-27.4
T5
X36.606Y-80.806
X36.606Y-86.394
X42.194Y-80.806
X42.194Y-86.394
X87.206Y-67.406
X87.206Y-72.994
X92.794Y-67.406
X92.794Y-72.994
T6
X1.43Y-35.19
X1.43Y-37.73
X1.43Y-40.27
X1.43Y-42.81
X1.43Y-50.29
X1.43Y-52.83
X1.43Y-55.37
X1.43Y-57.91
X1.5Y-64.26
X1.5Y-66.8
X1.5Y-69.34
X1.5Y-74.56
X1.5Y-77.1
X1.5Y-79.64
X3.97Y-35.19
X3.97Y-37.73
X3.97Y-40.27
X3.97Y-42.81
X3.97Y-50.29
X3.97Y-52.83
X3.97Y-55.37
X3.97Y-57.91
X7.4Y-61.78
X7.4Y-64.32
X7.4Y-66.86
X7.4Y-69.4
X12.73Y-82.99
X12.73Y-85.53
X12.73Y-88.07
X12.73Y-90.61
X15.27Y-82.99
X15.27Y-85.53
X15.27Y-88.07
X15.27Y-90.61
X17.96Y-37.
X18.Y-34.2
X20.5Y-37.
X20.54Y-34.2
X27.4Y-71.4
X27.4Y-73.94
X27.4Y-76.48
X27.4Y-79.02
X43.9Y-24.4
X45.2Y-87.56
X45.2Y-90.1
X45.2Y-93.2
X46.44Y-24.4
X47.6Y-79.2
X48.7Y-60.8
X50.14Y-79.2
X51.24Y-60.8
X53.7Y-82.96
X53.7Y-85.5
X54.6Y-70.58
X54.6Y-73.12
X54.6Y-75.66
X54.6Y-78.2
X55.5Y-26.26
X55.5Y-28.8
X57.5Y-12.
X57.5Y-14.54
X58.23Y-42.22
X58.23Y-44.76
X58.23Y-47.3
X58.23Y-49.84
X58.23Y-52.38
X58.6Y-24.4
X60.77Y-42.22
X60.77Y-44.76
X60.77Y-47.3
X60.77Y-49.84
X60.77Y-52.38
X61.14Y-24.4
X70.2Y-26.26
X70.2Y-28.8
X70.9Y-37.3
X70.9Y-39.84
X70.9Y-42.38
X70.9Y-44.92
X72.9Y-11.96
X72.9Y-14.5
X73.3Y-24.4
X74.96Y-35.6
X74.96Y-48.
X75.84Y-24.4
X77.2Y-65.7
X77.2Y-68.24
X77.2Y-70.78
X77.2Y-73.32
X77.5Y-35.6
X77.5Y-48.
X79.5Y-55.8
X79.5Y-58.34
X79.56Y-76.6
X80.36Y-68.9
X82.1Y-76.6
X82.9Y-68.9
X84.4Y-16.5
X84.9Y-26.26
X84.9Y-28.8
X85.2Y-55.8
X85.2Y-58.34
X86.94Y-16.5
X87.2Y-75.5
X87.56Y-23.4
X87.56Y-79.32
X87.56Y-84.4
X87.56Y-86.94
X87.56Y-89.48
X88.5Y-64.8
X90.1Y-23.4
X90.9Y-55.8
X90.9Y-58.34
X92.64Y-79.32
X92.64Y-81.86
X92.64Y-84.4
X92.64Y-86.94
X92.64Y-89.48
X92.64Y-92.02
X95.9Y-57.3
X96.03Y-38.39
X96.03Y-40.93
X96.03Y-43.47
X96.03Y-46.01
X98.4Y-30.6
X98.4Y-33.14
X98.4Y-51.4
X98.4Y-53.94
X98.44Y-57.3
X98.5Y-63.66
X98.5Y-66.2
X98.5Y-68.74
X98.5Y-74.66
X98.5Y-77.2
X98.5Y-79.74
X98.5Y-85.66
X98.5Y-88.2
X98.5Y-90.74
X98.57Y-38.39
X98.57Y-40.93
X98.57Y-43.47
X98.57Y-46.01
T7
X60.8Y-93.5
X63.3Y-92.6
X65.8Y-93.5
X77.8Y-93.5
X80.3Y-92.6
X82.8Y-93.5
T8
X39.4Y-80.806
T9
X2.21Y-13.78
X2.21Y-28.82
X4.75Y-13.78
X4.75Y-28.82
X7.29Y-13.78
T10
X90.1Y-19.45
X90.1Y-27.35
X95.8Y-20.9
X95.8Y-25.9
T11
X21.255Y-66.821
X49.5Y-23.75
X64.2Y-23.75
X74.7Y-68.95
X78.9Y-23.75
X90.7Y-34.6
T12
X22.06Y-87.54
X24.6Y-85.
X27.14Y-82.46
X27.14Y-87.54
T13
X11.1Y-12.51
X11.1Y-30.09
T14
X22.06Y-82.46
T15
X65.8Y-81.
X65.8Y-85.6
X72.2Y-81.
X72.2Y-85.6
T16
X30.617Y-22.615
X69.Y-83.3
T17
X71.8Y-93.3
T18
X39.2Y-47.4
X43.5Y-67.8
T19
X3.Y-8.3
X3.Y-97.
X97.Y-8.3
X97.Y-97.
T20
X11.1Y-16.475
X11.1Y-26.125
T0
M30
