G04 #@! TF.FileFunction,Soldermask,Bot*
%FSLAX46Y46*%
G04 Gerber Fmt 4.6, Leading zero omitted, Abs format (unit mm)*
G04 Created by KiCad (PCBNEW 4.0.6) date 11/05/17 19:46:03*
%MOMM*%
%LPD*%
G01*
G04 APERTURE LIST*
%ADD10C,0.100000*%
%ADD11R,0.835000X1.343000*%
%ADD12C,1.000000*%
%ADD13C,1.900000*%
%ADD14C,0.000000*%
%ADD15C,3.200000*%
%ADD16C,2.700000*%
%ADD17C,4.200000*%
%ADD18R,1.343000X0.835000*%
%ADD19R,2.050000X2.050000*%
%ADD20C,2.050000*%
%ADD21R,1.089000X1.597000*%
%ADD22R,1.800000X2.000000*%
%ADD23R,1.597000X1.089000*%
%ADD24R,1.200000X1.200000*%
%ADD25R,1.250000X0.800000*%
%ADD26R,1.978000X2.994000*%
%ADD27R,0.800000X2.400000*%
%ADD28C,1.600000*%
%ADD29C,2.000000*%
%ADD30C,3.450000*%
%ADD31C,2.740000*%
%ADD32C,2.200000*%
%ADD33R,1.100000X1.000000*%
%ADD34R,1.000000X1.100000*%
%ADD35C,2.500000*%
%ADD36R,2.200000X2.300000*%
%ADD37R,0.600000X1.200000*%
%ADD38C,5.500000*%
%ADD39R,12.200000X10.300000*%
%ADD40O,1.800000X2.600000*%
%ADD41C,2.300000*%
%ADD42C,2.800000*%
%ADD43C,3.000000*%
%ADD44R,5.200000X3.500000*%
%ADD45O,3.200000X4.800000*%
%ADD46O,2.700000X5.200000*%
%ADD47O,5.200000X2.800000*%
%ADD48R,2.200000X2.200000*%
%ADD49R,1.600000X2.200000*%
%ADD50C,1.400000*%
%ADD51O,2.600000X1.600000*%
%ADD52O,1.600000X2.600000*%
%ADD53C,0.000000*%
%ADD54C,0.700000*%
%ADD55C,0.000000*%
%ADD56C,0.700000*%
%ADD57C,0.254000*%
G04 APERTURE END LIST*
D10*
D11*
X79462000Y-45700000D03*
X77938000Y-45700000D03*
D12*
X20400000Y-35900000D03*
D10*
G36*
X68419238Y-31166548D02*
X69833452Y-32580762D01*
X68560660Y-33853554D01*
X67146446Y-32439340D01*
X68419238Y-31166548D01*
X68419238Y-31166548D01*
G37*
G36*
X66439340Y-33146446D02*
X67853554Y-34560660D01*
X66580762Y-35833452D01*
X65166548Y-34419238D01*
X66439340Y-33146446D01*
X66439340Y-33146446D01*
G37*
D13*
X24555000Y-70620715D03*
D14*
X26055000Y-71120715D03*
X26055000Y-69120715D03*
X26055000Y-70220715D03*
X24955000Y-69120715D03*
X24055000Y-69120715D03*
X25555000Y-69620715D03*
D15*
X43500000Y-67800000D03*
D14*
X44500000Y-72800000D03*
X44500000Y-71300000D03*
X43000000Y-72800000D03*
X43000000Y-71300000D03*
X38500000Y-72800000D03*
X40000000Y-72800000D03*
X40000000Y-66800000D03*
X38500000Y-66800000D03*
X38500000Y-68300000D03*
X40000000Y-68300000D03*
X40000000Y-71300000D03*
X38500000Y-71300000D03*
X38500000Y-69800000D03*
X40000000Y-69800000D03*
X44500000Y-69800000D03*
X43000000Y-69800000D03*
X41500000Y-66800000D03*
X41500000Y-68300000D03*
X41500000Y-72800000D03*
X41500000Y-71300000D03*
X41500000Y-69800000D03*
X71395000Y-70325000D03*
X74395000Y-70325000D03*
X71395000Y-68825000D03*
D13*
X74700000Y-68950000D03*
D14*
X72895000Y-70325000D03*
X72895000Y-68825000D03*
X52500000Y-23750000D03*
D16*
X49500000Y-23750000D03*
D14*
X51500000Y-23750000D03*
X67200000Y-23750000D03*
D16*
X64200000Y-23750000D03*
D14*
X66200000Y-23750000D03*
X81900000Y-23750000D03*
D16*
X78900000Y-23750000D03*
D14*
X80900000Y-23750000D03*
X38600000Y-43800000D03*
X37100000Y-46800000D03*
X37100000Y-45300000D03*
X35600000Y-45300000D03*
X38600000Y-45300000D03*
X35600000Y-43800000D03*
X37100000Y-43800000D03*
D17*
X39200000Y-47400000D03*
D14*
X35600000Y-46800000D03*
D18*
X74300000Y-56838000D03*
X74300000Y-58362000D03*
X83000000Y-57638000D03*
X83000000Y-59162000D03*
X87600000Y-57638000D03*
X87600000Y-59162000D03*
D19*
X76500000Y-55800000D03*
D20*
X76500000Y-58340000D03*
D19*
X85200000Y-55800000D03*
D20*
X85200000Y-58340000D03*
D19*
X91100000Y-55800000D03*
D20*
X91100000Y-58340000D03*
D11*
X77938000Y-47300000D03*
X79462000Y-47300000D03*
X77938000Y-44100000D03*
X79462000Y-44100000D03*
X77938000Y-42500000D03*
X79462000Y-42500000D03*
X80638000Y-41300000D03*
X82162000Y-41300000D03*
X77938000Y-39300000D03*
X79462000Y-39300000D03*
X79462000Y-40900000D03*
X77938000Y-40900000D03*
D18*
X74500000Y-42788000D03*
X74500000Y-44312000D03*
X74500000Y-41362000D03*
X74500000Y-39838000D03*
D19*
X72400000Y-38800000D03*
D20*
X72400000Y-41340000D03*
X72400000Y-43880000D03*
X72400000Y-46420000D03*
D18*
X87900000Y-49062000D03*
X87900000Y-47538000D03*
X89600000Y-47762000D03*
X89600000Y-46238000D03*
X74000000Y-72438000D03*
X74000000Y-73962000D03*
D21*
X63652500Y-74800000D03*
X61747500Y-74800000D03*
X63652500Y-65800000D03*
X61747500Y-65800000D03*
X63652500Y-72800000D03*
X61747500Y-72800000D03*
X63652500Y-63800000D03*
X61747500Y-63800000D03*
D11*
X68162000Y-62500000D03*
X66638000Y-62500000D03*
X70862000Y-62500000D03*
X69338000Y-62500000D03*
X69462000Y-66600000D03*
X67938000Y-66600000D03*
D22*
X85400000Y-34700000D03*
X88200000Y-34700000D03*
D19*
X86000000Y-19620000D03*
D20*
X86000000Y-17080000D03*
D19*
X73300000Y-24400000D03*
D20*
X75840000Y-24400000D03*
D21*
X81047500Y-27700000D03*
X82952500Y-27700000D03*
D19*
X55500000Y-28800000D03*
D20*
X55500000Y-26260000D03*
D19*
X70200000Y-28800000D03*
D20*
X70200000Y-26260000D03*
D21*
X87352500Y-70700000D03*
X85447500Y-70700000D03*
D19*
X83300000Y-76600000D03*
D20*
X80760000Y-76600000D03*
D19*
X82900000Y-68900000D03*
D20*
X80360000Y-68900000D03*
D23*
X86300000Y-65652500D03*
X86300000Y-63747500D03*
D18*
X54700000Y-83938000D03*
X54700000Y-85462000D03*
D19*
X47000000Y-79100000D03*
D20*
X49540000Y-79100000D03*
D23*
X53600000Y-89552500D03*
X53600000Y-87647500D03*
D21*
X47347500Y-91500000D03*
X49252500Y-91500000D03*
D23*
X51300000Y-86252500D03*
X51300000Y-84347500D03*
D21*
X51147500Y-91500000D03*
X53052500Y-91500000D03*
D23*
X47600000Y-87652500D03*
X47600000Y-85747500D03*
X51300000Y-87647500D03*
X51300000Y-89552500D03*
D21*
X49252500Y-89300000D03*
X47347500Y-89300000D03*
D19*
X54600000Y-78200000D03*
D20*
X54600000Y-75660000D03*
X54600000Y-73120000D03*
X54600000Y-70580000D03*
D11*
X75862000Y-81000000D03*
X74338000Y-81000000D03*
D23*
X63100000Y-84952500D03*
X63100000Y-83047500D03*
X74900000Y-83047500D03*
X74900000Y-84952500D03*
D21*
X59152500Y-88100000D03*
X57247500Y-88100000D03*
D23*
X76800000Y-84652500D03*
X76800000Y-82747500D03*
D18*
X64700000Y-89462000D03*
X64700000Y-87938000D03*
X81700000Y-89462000D03*
X81700000Y-87938000D03*
D19*
X77200000Y-65700000D03*
D20*
X77200000Y-68240000D03*
X77200000Y-70780000D03*
X77200000Y-73320000D03*
D18*
X68100000Y-72762000D03*
X68100000Y-71238000D03*
X69900000Y-69562000D03*
X69900000Y-68038000D03*
D11*
X68138000Y-64200000D03*
X69662000Y-64200000D03*
D18*
X69900000Y-72162000D03*
X69900000Y-70638000D03*
D11*
X45438000Y-60600000D03*
X46962000Y-60600000D03*
D24*
X34700000Y-67100000D03*
D18*
X50000000Y-73762000D03*
X50000000Y-72238000D03*
D10*
G36*
X35240790Y-75808854D02*
X34291146Y-74859210D01*
X34881580Y-74268776D01*
X35831224Y-75218420D01*
X35240790Y-75808854D01*
X35240790Y-75808854D01*
G37*
G36*
X36318420Y-74731224D02*
X35368776Y-73781580D01*
X35959210Y-73191146D01*
X36908854Y-74140790D01*
X36318420Y-74731224D01*
X36318420Y-74731224D01*
G37*
G36*
X36440790Y-77008854D02*
X35491146Y-76059210D01*
X36081580Y-75468776D01*
X37031224Y-76418420D01*
X36440790Y-77008854D01*
X36440790Y-77008854D01*
G37*
G36*
X37518420Y-75931224D02*
X36568776Y-74981580D01*
X37159210Y-74391146D01*
X38108854Y-75340790D01*
X37518420Y-75931224D01*
X37518420Y-75931224D01*
G37*
D11*
X50838000Y-63800000D03*
X52362000Y-63800000D03*
X49562000Y-70900000D03*
X48038000Y-70900000D03*
X49862000Y-75900000D03*
X48338000Y-75900000D03*
X45038000Y-76500000D03*
X46562000Y-76500000D03*
X48038000Y-65400000D03*
X49562000Y-65400000D03*
X46762000Y-63800000D03*
X45238000Y-63800000D03*
D18*
X39300000Y-65238000D03*
X39300000Y-66762000D03*
D11*
X48038000Y-69300000D03*
X49562000Y-69300000D03*
X46562000Y-70900000D03*
X45038000Y-70900000D03*
D18*
X46700000Y-74862000D03*
X46700000Y-73338000D03*
X45100000Y-74862000D03*
X45100000Y-73338000D03*
X43500000Y-76338000D03*
X43500000Y-77862000D03*
X41600000Y-76338000D03*
X41600000Y-77862000D03*
X39500000Y-76338000D03*
X39500000Y-77862000D03*
D11*
X46762000Y-65400000D03*
X45238000Y-65400000D03*
X46762000Y-67400000D03*
X45238000Y-67400000D03*
D18*
X37600000Y-65238000D03*
X37600000Y-66762000D03*
D11*
X46562000Y-69300000D03*
X45038000Y-69300000D03*
D18*
X43500000Y-74862000D03*
X43500000Y-73338000D03*
X41600000Y-74862000D03*
X41600000Y-73338000D03*
X39500000Y-74862000D03*
X39500000Y-73338000D03*
D25*
X58300000Y-32500000D03*
X58300000Y-33450000D03*
X58300000Y-34400000D03*
X55600000Y-34400000D03*
X55600000Y-32500000D03*
D18*
X60000000Y-32438000D03*
X60000000Y-33962000D03*
X53900000Y-32538000D03*
X53900000Y-34062000D03*
D11*
X55562000Y-35900000D03*
X54038000Y-35900000D03*
D18*
X38000000Y-29262000D03*
X38000000Y-27738000D03*
D11*
X21262000Y-39300000D03*
X19738000Y-39300000D03*
D21*
X47652500Y-25800000D03*
X45747500Y-25800000D03*
X66447500Y-26400000D03*
X68352500Y-26400000D03*
D23*
X56400000Y-16052500D03*
X56400000Y-14147500D03*
D18*
X23200000Y-59162000D03*
X23200000Y-57638000D03*
X21100000Y-59162000D03*
X21100000Y-57638000D03*
X23800000Y-74662000D03*
X23800000Y-73138000D03*
D11*
X20162000Y-80400000D03*
X18638000Y-80400000D03*
X20162000Y-78700000D03*
X18638000Y-78700000D03*
X20662000Y-66500000D03*
X19138000Y-66500000D03*
X20662000Y-64900000D03*
X19138000Y-64900000D03*
X20662000Y-68100000D03*
X19138000Y-68100000D03*
D18*
X22100000Y-73138000D03*
X22100000Y-74662000D03*
D11*
X28262000Y-73100000D03*
X26738000Y-73100000D03*
X19462000Y-72400000D03*
X17938000Y-72400000D03*
X19462000Y-74100000D03*
X17938000Y-74100000D03*
X21838000Y-68100000D03*
X23362000Y-68100000D03*
D18*
X25400000Y-73162000D03*
X25400000Y-71638000D03*
D11*
X21838000Y-69700000D03*
X23362000Y-69700000D03*
D18*
X26300000Y-66938000D03*
X26300000Y-68462000D03*
D11*
X20162000Y-75900000D03*
X18638000Y-75900000D03*
X17962000Y-66500000D03*
X16438000Y-66500000D03*
X28262000Y-71400000D03*
X26738000Y-71400000D03*
X17962000Y-68100000D03*
X16438000Y-68100000D03*
X28262000Y-69800000D03*
X26738000Y-69800000D03*
X21838000Y-71600000D03*
X23362000Y-71600000D03*
X20662000Y-69700000D03*
X19138000Y-69700000D03*
X23462000Y-66100000D03*
X21938000Y-66100000D03*
X14162000Y-88300000D03*
X12638000Y-88300000D03*
D18*
X12100000Y-81638000D03*
X12100000Y-83162000D03*
D11*
X12438000Y-64600000D03*
X13962000Y-64600000D03*
X12438000Y-62900000D03*
X13962000Y-62900000D03*
X15738000Y-88300000D03*
X17262000Y-88300000D03*
X11862000Y-80200000D03*
X10338000Y-80200000D03*
D18*
X1300000Y-57638000D03*
X1300000Y-59162000D03*
X1300000Y-51438000D03*
X1300000Y-52962000D03*
X1300000Y-45238000D03*
X1300000Y-46762000D03*
X1300000Y-39038000D03*
X1300000Y-40562000D03*
D11*
X51962000Y-36500000D03*
X50438000Y-36500000D03*
X26938000Y-52000000D03*
X28462000Y-52000000D03*
D18*
X47700000Y-48938000D03*
X47700000Y-50462000D03*
X23600000Y-38962000D03*
X23600000Y-37438000D03*
D11*
X48462000Y-32900000D03*
X46938000Y-32900000D03*
X28762000Y-57800000D03*
X27238000Y-57800000D03*
X42538000Y-52500000D03*
X44062000Y-52500000D03*
X27362000Y-33200000D03*
X25838000Y-33200000D03*
X35462000Y-51200000D03*
X33938000Y-51200000D03*
D18*
X31300000Y-40762000D03*
X31300000Y-39238000D03*
X43300000Y-40762000D03*
X43300000Y-39238000D03*
D11*
X39838000Y-52500000D03*
X41362000Y-52500000D03*
D26*
X40878000Y-40300000D03*
X37322000Y-40300000D03*
D18*
X50000000Y-35062000D03*
X50000000Y-33538000D03*
X26500000Y-53338000D03*
X26500000Y-54862000D03*
X46100000Y-50462000D03*
X46100000Y-48938000D03*
X24000000Y-36362000D03*
X24000000Y-34838000D03*
D27*
X51795000Y-53800000D03*
X51795000Y-48600000D03*
X53065000Y-53800000D03*
X53065000Y-48600000D03*
X54335000Y-53800000D03*
X54335000Y-48600000D03*
X55605000Y-53800000D03*
X55605000Y-48600000D03*
D18*
X44100000Y-50462000D03*
X44100000Y-48938000D03*
X44500000Y-47762000D03*
X44500000Y-46238000D03*
X29600000Y-44838000D03*
X29600000Y-46362000D03*
D11*
X58438000Y-39600000D03*
X59962000Y-39600000D03*
D18*
X59400000Y-54638000D03*
X59400000Y-56162000D03*
X57600000Y-54638000D03*
X57600000Y-56162000D03*
D11*
X52962000Y-46400000D03*
X51438000Y-46400000D03*
D19*
X58230000Y-42220000D03*
D20*
X60770000Y-42220000D03*
X58230000Y-44760000D03*
X60770000Y-44760000D03*
X58230000Y-47300000D03*
X60770000Y-47300000D03*
X58230000Y-49840000D03*
X60770000Y-49840000D03*
X58230000Y-52380000D03*
X60770000Y-52380000D03*
D18*
X46200000Y-46462000D03*
X46200000Y-44938000D03*
D11*
X48862000Y-41600000D03*
X47338000Y-41600000D03*
D18*
X40200000Y-33538000D03*
X40200000Y-35062000D03*
X43300000Y-33538000D03*
X43300000Y-35062000D03*
X32500000Y-33538000D03*
X32500000Y-35062000D03*
X35800000Y-33538000D03*
X35800000Y-35062000D03*
D11*
X25338000Y-40400000D03*
X26862000Y-40400000D03*
D18*
X28000000Y-46338000D03*
X28000000Y-47862000D03*
X34400000Y-57262000D03*
X34400000Y-55738000D03*
X32800000Y-57262000D03*
X32800000Y-55738000D03*
D11*
X49062000Y-36500000D03*
X47538000Y-36500000D03*
D18*
X28200000Y-53338000D03*
X28200000Y-54862000D03*
D11*
X48962000Y-53100000D03*
X47438000Y-53100000D03*
X25338000Y-36500000D03*
X26862000Y-36500000D03*
D18*
X44300000Y-57162000D03*
X44300000Y-55638000D03*
X38900000Y-57062000D03*
X38900000Y-55538000D03*
D11*
X46938000Y-34500000D03*
X48462000Y-34500000D03*
X27262000Y-56200000D03*
X25738000Y-56200000D03*
X48962000Y-54700000D03*
X47438000Y-54700000D03*
X25838000Y-34800000D03*
X27362000Y-34800000D03*
X42638000Y-54400000D03*
X44162000Y-54400000D03*
X40862000Y-54400000D03*
X39338000Y-54400000D03*
X36362000Y-54400000D03*
X34838000Y-54400000D03*
X31538000Y-54400000D03*
X33062000Y-54400000D03*
D18*
X28000000Y-50462000D03*
X28000000Y-48938000D03*
D11*
X25338000Y-38800000D03*
X26862000Y-38800000D03*
D18*
X28000000Y-42338000D03*
X28000000Y-43862000D03*
X30200000Y-35338000D03*
X30200000Y-36862000D03*
D11*
X41962000Y-36200000D03*
X40438000Y-36200000D03*
X33838000Y-36200000D03*
X35362000Y-36200000D03*
D18*
X45400000Y-35062000D03*
X45400000Y-33538000D03*
X46200000Y-37962000D03*
X46200000Y-36438000D03*
X46100000Y-39738000D03*
X46100000Y-41262000D03*
X46200000Y-51638000D03*
X46200000Y-53162000D03*
D11*
X39462000Y-24900000D03*
X37938000Y-24900000D03*
X37638000Y-20200000D03*
X39162000Y-20200000D03*
X39238000Y-16300000D03*
X40762000Y-16300000D03*
X40762000Y-17900000D03*
X39238000Y-17900000D03*
X39162000Y-21800000D03*
X37638000Y-21800000D03*
D18*
X36500000Y-24638000D03*
X36500000Y-26162000D03*
X35500000Y-29562000D03*
X35500000Y-28038000D03*
X34700000Y-24638000D03*
X34700000Y-26162000D03*
X33800000Y-29562000D03*
X33800000Y-28038000D03*
D11*
X40762000Y-14700000D03*
X39238000Y-14700000D03*
D18*
X39700000Y-26238000D03*
X39700000Y-27762000D03*
X23400000Y-14262000D03*
X23400000Y-12738000D03*
X20200000Y-30338000D03*
X20200000Y-31862000D03*
X17700000Y-30338000D03*
X17700000Y-31862000D03*
X17700000Y-15262000D03*
X17700000Y-13738000D03*
X20200000Y-15262000D03*
X20200000Y-13738000D03*
D11*
X42438000Y-10700000D03*
X43962000Y-10700000D03*
D18*
X40400000Y-10388000D03*
X40400000Y-11912000D03*
D11*
X24538000Y-22400000D03*
X26062000Y-22400000D03*
X24538000Y-20300000D03*
X26062000Y-20300000D03*
D18*
X28800000Y-17138000D03*
X28800000Y-18662000D03*
X30500000Y-17138000D03*
X30500000Y-18662000D03*
D11*
X33462000Y-19600000D03*
X31938000Y-19600000D03*
D18*
X25600000Y-27562000D03*
X25600000Y-26038000D03*
X32200000Y-16538000D03*
X32200000Y-18062000D03*
D11*
X33662000Y-21200000D03*
X32138000Y-21200000D03*
X33662000Y-22900000D03*
X32138000Y-22900000D03*
D18*
X31500000Y-25762000D03*
X31500000Y-24238000D03*
X29600000Y-25762000D03*
X29600000Y-24238000D03*
X27700000Y-25762000D03*
X27700000Y-24238000D03*
X27200000Y-17138000D03*
X27200000Y-18662000D03*
D11*
X24538000Y-24100000D03*
X26062000Y-24100000D03*
D18*
X25600000Y-17138000D03*
X25600000Y-18662000D03*
D28*
X17700000Y-27880000D03*
X17700000Y-25850000D03*
X17700000Y-23820000D03*
X17700000Y-21780000D03*
X17700000Y-19750000D03*
X17700000Y-17720000D03*
X20240000Y-28900000D03*
X20240000Y-26870000D03*
X20240000Y-24840000D03*
X20240000Y-20760000D03*
X20240000Y-18730000D03*
X20240000Y-16700000D03*
D29*
X4750000Y-30320000D03*
X2210000Y-30320000D03*
X7290000Y-15280000D03*
X4750000Y-15280000D03*
X2210000Y-15280000D03*
D30*
X11100000Y-27625000D03*
X11100000Y-17975000D03*
D31*
X11100000Y-31590000D03*
X11100000Y-14010000D03*
D11*
X48038000Y-67100000D03*
X49562000Y-67100000D03*
D21*
X69952500Y-86500000D03*
X68047500Y-86500000D03*
D23*
X61200000Y-81247500D03*
X61200000Y-83152500D03*
D21*
X64152500Y-79600000D03*
X62247500Y-79600000D03*
D12*
X24500000Y-87100000D03*
X15100000Y-58300000D03*
X85800000Y-43900000D03*
D14*
X90200000Y-32900000D03*
X91400000Y-32900000D03*
D32*
X90800000Y-35100000D03*
D33*
X94500000Y-60650000D03*
X96500000Y-59700000D03*
X94500000Y-58750000D03*
D34*
X60950000Y-86500000D03*
X60000000Y-84500000D03*
X59050000Y-86500000D03*
D33*
X78400000Y-84650000D03*
X80400000Y-83700000D03*
X78400000Y-82750000D03*
D20*
X88500000Y-64800000D03*
X87200000Y-75500000D03*
D11*
X82138000Y-66400000D03*
X83662000Y-66400000D03*
X81938000Y-74400000D03*
X83462000Y-74400000D03*
D14*
X27216525Y-22015000D03*
X28616525Y-20615000D03*
X27216525Y-19215000D03*
X31416525Y-19215000D03*
X28616525Y-23415000D03*
X28616525Y-22015000D03*
X30016525Y-19215000D03*
X28616525Y-19215000D03*
X31416525Y-20615000D03*
X30016525Y-20615000D03*
D35*
X30616525Y-22615000D03*
D14*
X27216525Y-23415000D03*
X27216525Y-20615000D03*
D11*
X67362000Y-28700000D03*
X65838000Y-28700000D03*
D21*
X40452500Y-83200000D03*
X38547500Y-83200000D03*
D33*
X12600000Y-86550000D03*
X14600000Y-85600000D03*
X12600000Y-84650000D03*
D36*
X58920000Y-6900000D03*
X62880000Y-6900000D03*
D11*
X76938000Y-28700000D03*
X78462000Y-28700000D03*
X91438000Y-60400000D03*
X92962000Y-60400000D03*
D24*
X39500000Y-62000000D03*
D37*
X65300000Y-30200000D03*
X65950000Y-30200000D03*
X66600000Y-30200000D03*
X66600000Y-32150000D03*
X65950000Y-32150000D03*
X65300000Y-32150000D03*
D20*
X92640000Y-79320000D03*
X92640000Y-84400000D03*
X92640000Y-86940000D03*
X92640000Y-89480000D03*
X87560000Y-89480000D03*
X87560000Y-86940000D03*
X87560000Y-84400000D03*
X87560000Y-79320000D03*
X92640000Y-81860000D03*
X92640000Y-92020000D03*
D18*
X93500000Y-34238000D03*
X93500000Y-35762000D03*
D19*
X69700000Y-14100000D03*
D20*
X72240000Y-14100000D03*
D11*
X91838000Y-36900000D03*
X93362000Y-36900000D03*
X6138000Y-35600000D03*
X7662000Y-35600000D03*
X24362000Y-10900000D03*
X22838000Y-10900000D03*
X7662000Y-33900000D03*
X6138000Y-33900000D03*
D18*
X48400000Y-72938000D03*
X48400000Y-74462000D03*
D38*
X20000000Y-3000000D03*
X20000000Y-97000000D03*
X97000000Y-97000000D03*
X97000000Y-3000000D03*
X71800000Y-93300000D03*
D20*
X4040000Y-35420000D03*
D18*
X71400000Y-32938000D03*
X71400000Y-34462000D03*
X56500000Y-63362000D03*
X56500000Y-61838000D03*
D11*
X58438000Y-62200000D03*
X59962000Y-62200000D03*
X67962000Y-88500000D03*
X66438000Y-88500000D03*
X84962000Y-88500000D03*
X83438000Y-88500000D03*
D14*
X62600000Y-98000000D03*
X61600000Y-98000000D03*
X60600000Y-98000000D03*
X59600000Y-98000000D03*
X58600000Y-98000000D03*
X58600000Y-99000000D03*
X59600000Y-99000000D03*
X60600000Y-99000000D03*
X61600000Y-99000000D03*
X62600000Y-99000000D03*
X68000000Y-99000000D03*
X67000000Y-99000000D03*
X66000000Y-99000000D03*
X65000000Y-99000000D03*
X64000000Y-99000000D03*
X64000000Y-98000000D03*
X65000000Y-98000000D03*
X66000000Y-98000000D03*
X67000000Y-98000000D03*
D39*
X63300000Y-94950000D03*
D14*
X63300000Y-98500000D03*
X64000000Y-97000000D03*
X62600000Y-97000000D03*
X63300000Y-97500000D03*
X64000000Y-96000000D03*
X62600000Y-96000000D03*
X63300000Y-96500000D03*
X63300000Y-95500000D03*
X62600000Y-95000000D03*
X64000000Y-95000000D03*
X63300000Y-94500000D03*
X68000000Y-98000000D03*
D40*
X63300000Y-92600000D03*
D14*
X79600000Y-98000000D03*
X78600000Y-98000000D03*
X77600000Y-98000000D03*
X76600000Y-98000000D03*
X75600000Y-98000000D03*
X75600000Y-99000000D03*
X76600000Y-99000000D03*
X77600000Y-99000000D03*
X78600000Y-99000000D03*
X79600000Y-99000000D03*
X85000000Y-99000000D03*
X84000000Y-99000000D03*
X83000000Y-99000000D03*
X82000000Y-99000000D03*
X81000000Y-99000000D03*
X81000000Y-98000000D03*
X82000000Y-98000000D03*
X83000000Y-98000000D03*
X84000000Y-98000000D03*
D39*
X80300000Y-94950000D03*
D14*
X80300000Y-98500000D03*
X81000000Y-97000000D03*
X79600000Y-97000000D03*
X80300000Y-97500000D03*
X81000000Y-96000000D03*
X79600000Y-96000000D03*
X80300000Y-96500000D03*
X80300000Y-95500000D03*
X79600000Y-95000000D03*
X81000000Y-95000000D03*
X80300000Y-94500000D03*
X85000000Y-98000000D03*
D40*
X80300000Y-92600000D03*
D29*
X42194000Y-80806000D03*
D41*
X39400000Y-80806000D03*
D29*
X36606000Y-80806000D03*
X36606000Y-86394000D03*
X42194000Y-86394000D03*
D42*
X72200000Y-81000000D03*
X65800000Y-81000000D03*
X65800000Y-85600000D03*
X72200000Y-85600000D03*
D43*
X69000000Y-83300000D03*
D29*
X87206000Y-67406000D03*
X87206000Y-72994000D03*
X92794000Y-72994000D03*
X92794000Y-67406000D03*
D18*
X74500000Y-45438000D03*
X74500000Y-46962000D03*
D11*
X81138000Y-64400000D03*
X82662000Y-64400000D03*
D18*
X80600000Y-70538000D03*
X80600000Y-72062000D03*
D23*
X69000000Y-81052500D03*
X69000000Y-79147500D03*
D44*
X97200000Y-84900000D03*
X97200000Y-91500000D03*
D20*
X98415000Y-88200000D03*
X98700000Y-85660000D03*
X98700000Y-90740000D03*
X96005000Y-90740000D03*
X96005000Y-85660000D03*
D29*
X96160000Y-88200000D03*
D20*
X98700000Y-83120000D03*
D44*
X97200000Y-74740000D03*
X97200000Y-81340000D03*
D20*
X98415000Y-78040000D03*
X98700000Y-75500000D03*
X98700000Y-80580000D03*
X96005000Y-80580000D03*
X96005000Y-75500000D03*
D29*
X96160000Y-78040000D03*
D20*
X98700000Y-72960000D03*
D44*
X97200000Y-64580000D03*
X97200000Y-71180000D03*
D20*
X98415000Y-67880000D03*
X98700000Y-65340000D03*
X98700000Y-70420000D03*
X96005000Y-70420000D03*
X96005000Y-65340000D03*
D29*
X96160000Y-67880000D03*
D20*
X98700000Y-62800000D03*
D45*
X13800000Y-7200000D03*
D46*
X7650000Y-7200000D03*
D47*
X10800000Y-11850000D03*
D32*
X10700000Y-7200000D03*
X5700000Y-7200000D03*
D48*
X11800000Y-7200000D03*
D49*
X6300000Y-7200000D03*
D45*
X86300000Y-10700000D03*
D46*
X92450000Y-10700000D03*
D47*
X89300000Y-6050000D03*
D32*
X89400000Y-10700000D03*
X94400000Y-10700000D03*
D48*
X88300000Y-10700000D03*
D49*
X93800000Y-10700000D03*
D19*
X41600000Y-7800000D03*
D20*
X44140000Y-7800000D03*
X46680000Y-7800000D03*
X49220000Y-7800000D03*
X51760000Y-7800000D03*
X54300000Y-7800000D03*
D11*
X54362000Y-10100000D03*
X52838000Y-10100000D03*
D19*
X13500000Y-47460000D03*
D20*
X16040000Y-47460000D03*
X13500000Y-50000000D03*
X16040000Y-50000000D03*
X13500000Y-52540000D03*
X16040000Y-52540000D03*
D50*
X2000000Y-85000000D03*
X2000000Y-95000000D03*
X4500000Y-85000000D03*
X4500000Y-95000000D03*
X9500000Y-90000000D03*
D51*
X9500000Y-87500000D03*
X9500000Y-85000000D03*
X9500000Y-92500000D03*
X9500000Y-95000000D03*
D52*
X4500000Y-90000000D03*
D20*
X4040000Y-63360000D03*
D44*
X3000000Y-71740000D03*
X3000000Y-65140000D03*
D20*
X1785000Y-68440000D03*
X1500000Y-70980000D03*
X1500000Y-65900000D03*
X4195000Y-65900000D03*
X4195000Y-70980000D03*
D29*
X4040000Y-68440000D03*
D20*
X4040000Y-73520000D03*
D44*
X3000000Y-81900000D03*
X3000000Y-75300000D03*
D20*
X1785000Y-78600000D03*
X1500000Y-81140000D03*
X1500000Y-76060000D03*
X4195000Y-76060000D03*
X4195000Y-81140000D03*
D29*
X4040000Y-78600000D03*
D19*
X4040000Y-37960000D03*
D20*
X6580000Y-37960000D03*
X4040000Y-40500000D03*
X6580000Y-40500000D03*
X4040000Y-43040000D03*
X6580000Y-43040000D03*
X4040000Y-45580000D03*
X6580000Y-45580000D03*
X4040000Y-48120000D03*
X6580000Y-48120000D03*
X4040000Y-50660000D03*
X6580000Y-50660000D03*
X4040000Y-53200000D03*
X6580000Y-53200000D03*
X4040000Y-55740000D03*
X6580000Y-55740000D03*
X4040000Y-58280000D03*
X6580000Y-58280000D03*
X4040000Y-60820000D03*
X6580000Y-60820000D03*
D19*
X98700000Y-60260000D03*
D20*
X98700000Y-57720000D03*
X98700000Y-55180000D03*
X98700000Y-52640000D03*
X98700000Y-50100000D03*
X98700000Y-47560000D03*
X98700000Y-45020000D03*
X98700000Y-42480000D03*
X98700000Y-39940000D03*
X98700000Y-37400000D03*
X98700000Y-34860000D03*
X98700000Y-32320000D03*
X98700000Y-29780000D03*
X98700000Y-27240000D03*
X98700000Y-24700000D03*
X98700000Y-22160000D03*
X98700000Y-19620000D03*
X98700000Y-17080000D03*
X98700000Y-14540000D03*
X98700000Y-12000000D03*
X98700000Y-9460000D03*
X98700000Y-6920000D03*
D19*
X97100000Y-52640000D03*
D20*
X94560000Y-52640000D03*
X97100000Y-50100000D03*
X94560000Y-50100000D03*
X97100000Y-47560000D03*
X94560000Y-47560000D03*
X97100000Y-45020000D03*
X94560000Y-45020000D03*
X97100000Y-42480000D03*
X94560000Y-42480000D03*
X88540000Y-27240000D03*
X91080000Y-27240000D03*
X93620000Y-27240000D03*
X88540000Y-24700000D03*
X91080000Y-24700000D03*
X93620000Y-24700000D03*
X88540000Y-22160000D03*
X91080000Y-22160000D03*
X93620000Y-22160000D03*
X88540000Y-19620000D03*
X91080000Y-19620000D03*
X93620000Y-19620000D03*
X96160000Y-27240000D03*
X88540000Y-17080000D03*
X91080000Y-17080000D03*
X93620000Y-17080000D03*
D19*
X96160000Y-24700000D03*
D20*
X96160000Y-22160000D03*
X96160000Y-19620000D03*
X96160000Y-17080000D03*
D11*
X51262000Y-10100000D03*
X49738000Y-10100000D03*
D18*
X84700000Y-29262000D03*
X84700000Y-27738000D03*
D20*
X51500000Y-61800000D03*
X52080000Y-79100000D03*
X32100000Y-71900000D03*
X32100000Y-65700000D03*
X33300000Y-79100000D03*
D18*
X90500000Y-77738000D03*
X90500000Y-79262000D03*
D11*
X91062000Y-87000000D03*
X89538000Y-87000000D03*
D18*
X83300000Y-23562000D03*
X83300000Y-22038000D03*
D11*
X91838000Y-77200000D03*
X93362000Y-77200000D03*
X80638000Y-45300000D03*
X82162000Y-45300000D03*
D12*
X20300000Y-44500000D03*
X83900000Y-47700000D03*
X89200000Y-81000000D03*
X20600000Y-62800000D03*
X96500000Y-56500000D03*
D53*
X31700000Y-16000000D03*
D12*
X35500000Y-16200000D03*
X33000000Y-16200000D03*
D53*
X34200000Y-21800000D03*
X33800000Y-23800000D03*
X31800000Y-26300000D03*
D54*
X28900000Y-27300000D03*
D53*
X26800000Y-26000000D03*
D12*
X41800000Y-31100000D03*
X42600000Y-30300000D03*
X41500000Y-30100000D03*
X44000000Y-29100000D03*
X42800000Y-29100000D03*
X37700000Y-13800000D03*
X36600000Y-13800000D03*
D53*
X45600000Y-35500000D03*
X27300000Y-50800000D03*
X24900000Y-39300000D03*
X46900000Y-51800000D03*
X42600000Y-55100000D03*
X41100000Y-55100000D03*
X46900000Y-39800000D03*
X46900000Y-37700000D03*
X27300000Y-42300000D03*
X42100000Y-35500000D03*
X33700000Y-35500000D03*
X29500000Y-35500000D03*
X31600000Y-55100000D03*
X36100000Y-55100000D03*
D54*
X23200000Y-30600000D03*
X15600000Y-11300000D03*
X24000000Y-28200000D03*
X24800000Y-47900000D03*
D12*
X25200000Y-9800000D03*
X92200000Y-46300000D03*
X89700000Y-89500000D03*
X92700000Y-94200000D03*
X62900000Y-58000000D03*
X61800000Y-58000000D03*
X72700000Y-59300000D03*
X73500000Y-60100000D03*
D55*
X81600000Y-66600000D03*
X81400000Y-74600000D03*
D12*
X63500000Y-34800000D03*
X58800000Y-26000000D03*
X58800000Y-27200000D03*
X58800000Y-28400000D03*
X56900000Y-18400000D03*
X56900000Y-17200000D03*
X55700000Y-17200000D03*
X55700000Y-18400000D03*
X30400000Y-54200000D03*
X29900000Y-47300000D03*
X50600000Y-41200000D03*
X53000000Y-41200000D03*
D56*
X52200000Y-51500000D03*
X52200000Y-52600000D03*
D53*
X46900000Y-46300000D03*
X49300000Y-41300000D03*
X27300000Y-46700000D03*
X32100000Y-57500000D03*
X35100000Y-57500000D03*
X39100000Y-57500000D03*
X43600000Y-57500000D03*
D12*
X63500000Y-33500000D03*
X89400000Y-75200000D03*
X57900000Y-14400000D03*
X44100000Y-84100000D03*
X34700000Y-84000000D03*
X77800000Y-82100000D03*
X92300000Y-61800000D03*
X56600000Y-85600000D03*
X52900000Y-82400000D03*
D54*
X49200000Y-59900000D03*
D12*
X80000000Y-58400000D03*
X80000000Y-53200000D03*
X2500000Y-1000000D03*
X5000000Y-1000000D03*
X7500000Y-1000000D03*
X10000000Y-1000000D03*
X12500000Y-1000000D03*
X15000000Y-1000000D03*
X17500000Y-1000000D03*
X37500000Y-1000000D03*
X40000000Y-1000000D03*
X42500000Y-1000000D03*
X45000000Y-1000000D03*
X47500000Y-1000000D03*
X50000000Y-1000000D03*
X52500000Y-1000000D03*
X55000000Y-1000000D03*
X57500000Y-1000000D03*
X60000000Y-1000000D03*
X62500000Y-1000000D03*
X65000000Y-1000000D03*
X67500000Y-1000000D03*
X70000000Y-1000000D03*
X72500000Y-1000000D03*
X75000000Y-1000000D03*
X77500000Y-1000000D03*
X80000000Y-1000000D03*
X22500000Y-1000000D03*
X25000000Y-1000000D03*
X27500000Y-1000000D03*
X30000000Y-1000000D03*
X32500000Y-1000000D03*
X35000000Y-1000000D03*
X92500000Y-1000000D03*
X90000000Y-1000000D03*
X87500000Y-1000000D03*
X85000000Y-1000000D03*
X82500000Y-1000000D03*
X13000000Y-72900000D03*
X13000000Y-70400000D03*
D54*
X30400000Y-81500000D03*
D12*
X27800000Y-81700000D03*
D54*
X17100000Y-87000000D03*
X10300000Y-81500000D03*
X8900000Y-64000000D03*
X6700000Y-64000000D03*
X8900000Y-74200000D03*
X6700000Y-74200000D03*
X25100000Y-29200000D03*
X27500000Y-29200000D03*
D12*
X14400000Y-84200000D03*
X5000000Y-99000000D03*
X17500000Y-99000000D03*
X15000000Y-99000000D03*
X12500000Y-99000000D03*
X10000000Y-99000000D03*
X7500000Y-99000000D03*
X2500000Y-99000000D03*
X56800000Y-94200000D03*
X63300000Y-5000000D03*
X62100000Y-5000000D03*
X70700000Y-7600000D03*
X45700000Y-24600000D03*
X45700000Y-23300000D03*
X60700000Y-23700000D03*
X97000000Y-33700000D03*
D54*
X87500000Y-53100000D03*
D12*
X76950000Y-45850000D03*
X77050000Y-43650000D03*
D53*
X83300000Y-63800000D03*
D56*
X82600000Y-61900000D03*
D12*
X81700000Y-31400000D03*
D54*
X19000000Y-13800000D03*
X18600000Y-12800000D03*
X58200000Y-86500000D03*
X57300000Y-89300000D03*
X35250000Y-71050000D03*
D12*
X73500000Y-34900000D03*
D56*
X78000000Y-31500000D03*
D53*
X65200000Y-28800000D03*
X61100000Y-63900000D03*
D56*
X61900000Y-60200000D03*
D54*
X58600000Y-59900000D03*
X83300000Y-26400000D03*
D56*
X25100000Y-81800000D03*
D12*
X32500000Y-99000000D03*
X35000000Y-99000000D03*
X37500000Y-99000000D03*
X40000000Y-99000000D03*
X42500000Y-99000000D03*
X45000000Y-99000000D03*
X47500000Y-99000000D03*
X50000000Y-99000000D03*
X52500000Y-99000000D03*
D56*
X69700000Y-24800000D03*
X33500000Y-12300000D03*
X31500000Y-12600000D03*
D53*
X25700000Y-25500000D03*
D12*
X85600000Y-93200000D03*
X58000000Y-93200000D03*
X86800000Y-94200000D03*
X87500000Y-99000000D03*
X90000000Y-99000000D03*
X92500000Y-99000000D03*
X74300000Y-99000000D03*
X71800000Y-99000000D03*
X69300000Y-99000000D03*
X22500000Y-99000000D03*
X25000000Y-99000000D03*
X27500000Y-99000000D03*
X30000000Y-99000000D03*
X57300000Y-99000000D03*
D56*
X28300000Y-14800000D03*
D53*
X23800000Y-12200000D03*
D56*
X25200000Y-12100000D03*
D53*
X22700000Y-12300000D03*
D12*
X41300000Y-11800000D03*
D53*
X61800000Y-75800000D03*
D54*
X60800000Y-73600000D03*
D53*
X71600000Y-62500000D03*
D54*
X60800000Y-65400000D03*
D56*
X77300000Y-47300000D03*
D53*
X77300000Y-42500000D03*
X77300000Y-40900000D03*
D55*
X77300000Y-39300000D03*
D54*
X84000000Y-35400000D03*
D12*
X70200000Y-65700000D03*
D53*
X70100000Y-66900000D03*
D56*
X70000000Y-19600000D03*
D12*
X70600000Y-16300000D03*
D55*
X83000000Y-28600000D03*
D12*
X76600000Y-19100000D03*
X77500000Y-19800000D03*
X77500000Y-18400000D03*
X76600000Y-22200000D03*
X76600000Y-20500000D03*
X43000000Y-14000000D03*
X74800000Y-93400000D03*
X68800000Y-93400000D03*
X53800000Y-91500000D03*
X47600000Y-85000000D03*
D56*
X60100000Y-64500000D03*
X60100000Y-74400000D03*
X63800000Y-76200000D03*
X71900000Y-78500000D03*
X71200000Y-76100000D03*
D54*
X84900000Y-65600000D03*
X84800000Y-73500000D03*
D53*
X49900000Y-74300000D03*
D54*
X55700000Y-67000000D03*
D56*
X52200000Y-65100000D03*
D54*
X49300000Y-43900000D03*
D56*
X68500000Y-27500000D03*
D12*
X62800000Y-18400000D03*
X45800000Y-19500000D03*
X46100000Y-21200000D03*
X48200000Y-19600000D03*
X48200000Y-18400000D03*
D54*
X55000000Y-24800000D03*
X53700000Y-28600000D03*
D56*
X42100000Y-78900000D03*
X43700000Y-78900000D03*
D55*
X44400000Y-78200000D03*
X42800000Y-78300000D03*
D53*
X24000000Y-34300000D03*
X21000000Y-31900000D03*
X18500000Y-31900000D03*
X43300000Y-41300000D03*
D12*
X41900000Y-41900000D03*
X41900000Y-38700000D03*
D53*
X31300000Y-41300000D03*
X39300000Y-52500000D03*
X36100000Y-51200000D03*
X53300000Y-34600000D03*
X54200000Y-35000000D03*
X60800000Y-34000000D03*
X57600000Y-33400000D03*
X59400000Y-33700000D03*
X50800000Y-33500000D03*
X16400000Y-68900000D03*
X16400000Y-65700000D03*
X17800000Y-74900000D03*
X18600000Y-76700000D03*
X18600000Y-77900000D03*
D56*
X18200000Y-82300000D03*
X28400000Y-75000000D03*
D53*
X49700000Y-64700000D03*
X49700000Y-66200000D03*
D55*
X50100000Y-69000000D03*
D56*
X52200000Y-66800000D03*
D53*
X27400000Y-54700000D03*
X45300000Y-49000000D03*
X27300000Y-40800000D03*
X28800000Y-43700000D03*
X27300000Y-35600000D03*
D54*
X23900000Y-48300000D03*
X24800000Y-46800000D03*
X40000000Y-28300000D03*
D53*
X35700000Y-73300000D03*
X38100000Y-75600000D03*
X45900000Y-62800000D03*
D56*
X27200000Y-75500000D03*
D53*
X18700000Y-70100000D03*
X22000000Y-65400000D03*
X45800000Y-33100000D03*
X47200000Y-55400000D03*
D54*
X55400000Y-49900000D03*
D56*
X54700000Y-51700000D03*
D53*
X27300000Y-48800000D03*
X27300000Y-47800000D03*
D54*
X46900000Y-43800000D03*
D53*
X25300000Y-56800000D03*
X33400000Y-53900000D03*
X34500000Y-53900000D03*
X46900000Y-53000000D03*
X45500000Y-53100000D03*
X46900000Y-53800000D03*
X44100000Y-53700000D03*
X38900000Y-54000000D03*
X44100000Y-55100000D03*
X39100000Y-55100000D03*
X46900000Y-44900000D03*
X46200000Y-41700000D03*
X46900000Y-41300000D03*
X45400000Y-36400000D03*
X48200000Y-35200000D03*
X46900000Y-36400000D03*
X27300000Y-39300000D03*
X39900000Y-36600000D03*
X40100000Y-35500000D03*
X35900000Y-36600000D03*
X35600000Y-35500000D03*
X32600000Y-35500000D03*
X29400000Y-36800000D03*
X25600000Y-54700000D03*
X33100000Y-55100000D03*
X35100000Y-55100000D03*
X43600000Y-35500000D03*
X27300000Y-36800000D03*
D54*
X37400000Y-77900000D03*
D12*
X60800000Y-21200000D03*
X62800000Y-20800000D03*
X62800000Y-19600000D03*
X55000000Y-99000000D03*
D53*
X26900000Y-16600000D03*
D12*
X24700000Y-17100000D03*
X22700000Y-17100000D03*
D53*
X24700000Y-25000000D03*
D54*
X30700000Y-15900000D03*
X41100000Y-23900000D03*
D12*
X40700000Y-32200000D03*
D53*
X33950000Y-19450000D03*
X26500000Y-27500000D03*
D12*
X33500000Y-30200000D03*
X33500000Y-32300000D03*
D53*
X44100000Y-33100000D03*
X40600000Y-33100000D03*
X36100000Y-33100000D03*
X33100000Y-33100000D03*
D12*
X31500000Y-13800000D03*
D53*
X28800000Y-16600000D03*
D12*
X29200000Y-11200000D03*
D54*
X23600000Y-19550000D03*
X23650000Y-23050000D03*
D53*
X33900000Y-27500000D03*
X34700000Y-26700000D03*
X35500000Y-27500000D03*
X36500000Y-26700000D03*
X37000000Y-21600000D03*
X37100000Y-19900000D03*
D54*
X36300000Y-17600000D03*
D53*
X39600000Y-18900000D03*
D54*
X36700000Y-16400000D03*
X37700000Y-16200000D03*
D56*
X40200000Y-24600000D03*
D54*
X22700000Y-16000000D03*
D53*
X49300000Y-54300000D03*
X49300000Y-52800000D03*
D54*
X49300000Y-51800000D03*
X49300000Y-50300000D03*
D53*
X44800000Y-50400000D03*
D54*
X50900000Y-48200000D03*
X49300000Y-47800000D03*
D53*
X45300000Y-47700000D03*
D54*
X55300000Y-46400000D03*
D53*
X49400000Y-36800000D03*
X46600000Y-34900000D03*
X25600000Y-35400000D03*
X24900000Y-37300000D03*
X28500000Y-44800000D03*
X27300000Y-53300000D03*
X27700000Y-55800000D03*
D54*
X36600000Y-18500000D03*
X38300000Y-18200000D03*
D12*
X11500000Y-63300000D03*
D54*
X21500000Y-47100000D03*
D12*
X11500000Y-65000000D03*
D54*
X20200000Y-48600000D03*
X34600000Y-61900000D03*
X33600000Y-70400000D03*
X37200000Y-60900000D03*
X35400000Y-65400000D03*
X20800000Y-40800000D03*
X23600000Y-40800000D03*
D53*
X24900000Y-40800000D03*
X23600000Y-66900000D03*
X20800000Y-70400000D03*
X21400000Y-71100000D03*
D55*
X28800000Y-73000000D03*
D53*
X28700000Y-69600000D03*
X25500000Y-66900000D03*
X21900000Y-70400000D03*
D55*
X18200000Y-81100000D03*
D12*
X23600000Y-64700000D03*
D53*
X39000000Y-75400000D03*
X41000000Y-75400000D03*
X43000000Y-75400000D03*
X47100000Y-68900000D03*
X36800000Y-65400000D03*
X47100000Y-65900000D03*
X47300000Y-68100000D03*
X34900000Y-67800000D03*
X34600000Y-74500000D03*
X36800000Y-76700000D03*
X49100000Y-72000000D03*
D12*
X48300000Y-61700000D03*
X45800000Y-90100000D03*
D55*
X69400000Y-65000000D03*
X68900000Y-73200000D03*
D56*
X72200000Y-73800000D03*
X73500000Y-65200000D03*
D12*
X77900000Y-85900000D03*
X58000000Y-77400000D03*
X58300000Y-63300000D03*
X61100000Y-88600000D03*
X59900000Y-88600000D03*
X68900000Y-89000000D03*
X56500000Y-64400000D03*
X56900000Y-76300000D03*
X63500000Y-87600000D03*
X76900000Y-89000000D03*
X78100000Y-89000000D03*
X85100000Y-87500000D03*
D55*
X80500000Y-64600000D03*
X80400000Y-72600000D03*
D12*
X54300000Y-86400000D03*
D54*
X79800000Y-66600000D03*
D56*
X79800000Y-63700000D03*
D12*
X73500000Y-28400000D03*
X73500000Y-26000000D03*
X73500000Y-27200000D03*
X75000000Y-74000000D03*
X84200000Y-34200000D03*
D54*
X70200000Y-54000000D03*
X73500000Y-62800000D03*
X89900000Y-48600000D03*
X72000000Y-54500000D03*
X72000000Y-48800000D03*
X88300000Y-49900000D03*
X72300000Y-56100000D03*
X72900000Y-49900000D03*
X74300000Y-55400000D03*
X83000000Y-56800000D03*
D12*
X65500000Y-75800000D03*
X66700000Y-75200000D03*
X66700000Y-76400000D03*
X65500000Y-74600000D03*
D54*
X1500000Y-38000000D03*
X1500000Y-44200000D03*
X1500000Y-50400000D03*
X1500000Y-56600000D03*
D53*
X64800000Y-32000000D03*
D12*
X81600000Y-38700000D03*
D54*
X79600000Y-27700000D03*
X39500000Y-61300000D03*
X75300000Y-29600000D03*
X76200000Y-30400000D03*
D55*
X93500000Y-36500000D03*
D12*
X83200000Y-32400000D03*
D54*
X66400000Y-60200000D03*
X62200000Y-61400000D03*
X42000000Y-60900000D03*
X48200000Y-72000000D03*
D12*
X53100000Y-19600000D03*
D54*
X48700000Y-26900000D03*
D12*
X84200000Y-25000000D03*
X67800000Y-19600000D03*
D54*
X63400000Y-26900000D03*
X78300000Y-27100000D03*
D53*
X74500000Y-47700000D03*
D54*
X80500000Y-42700000D03*
D12*
X91800000Y-74500000D03*
D54*
X91300000Y-47800000D03*
D12*
X56800000Y-6900000D03*
X56800000Y-8100000D03*
X56800000Y-5700000D03*
X56800000Y-4500000D03*
D54*
X50500000Y-27700000D03*
X64900000Y-27300000D03*
X22900000Y-48700000D03*
X22800000Y-49800000D03*
X21300000Y-50800000D03*
X24800000Y-50800000D03*
D55*
X20200000Y-76700000D03*
D56*
X20200000Y-77500000D03*
D54*
X23100000Y-55500000D03*
X21800000Y-56700000D03*
X22200000Y-51800000D03*
D12*
X90400000Y-76600000D03*
D54*
X84800000Y-64200000D03*
X84600000Y-72000000D03*
X93700000Y-60600000D03*
X70200000Y-55500000D03*
X49500000Y-56000000D03*
X56100000Y-56200000D03*
X70100000Y-60300000D03*
X83300000Y-21100000D03*
D55*
X87400000Y-57100000D03*
X80000000Y-39000000D03*
D56*
X80000000Y-48000000D03*
D54*
X80500000Y-43900000D03*
D57*
G36*
X99823000Y-2373000D02*
X127000Y-2373000D01*
X127000Y-127000D01*
X99823000Y-127000D01*
X99823000Y-2373000D01*
X99823000Y-2373000D01*
G37*
X99823000Y-2373000D02*
X127000Y-2373000D01*
X127000Y-127000D01*
X99823000Y-127000D01*
X99823000Y-2373000D01*
G36*
X88373000Y-97500000D02*
X88383006Y-97549410D01*
X88411447Y-97591035D01*
X88453841Y-97618315D01*
X88500000Y-97627000D01*
X99823000Y-97627000D01*
X99823000Y-99873000D01*
X127000Y-99873000D01*
X127000Y-97627000D01*
X55100000Y-97627000D01*
X55149410Y-97616994D01*
X55191035Y-97588553D01*
X55218315Y-97546159D01*
X55227000Y-97500000D01*
X55227000Y-90027000D01*
X88373000Y-90027000D01*
X88373000Y-97500000D01*
X88373000Y-97500000D01*
G37*
X88373000Y-97500000D02*
X88383006Y-97549410D01*
X88411447Y-97591035D01*
X88453841Y-97618315D01*
X88500000Y-97627000D01*
X99823000Y-97627000D01*
X99823000Y-99873000D01*
X127000Y-99873000D01*
X127000Y-97627000D01*
X55100000Y-97627000D01*
X55149410Y-97616994D01*
X55191035Y-97588553D01*
X55218315Y-97546159D01*
X55227000Y-97500000D01*
X55227000Y-90027000D01*
X88373000Y-90027000D01*
X88373000Y-97500000D01*
M02*
