G04 #@! TF.GenerationSoftware,KiCad,Pcbnew,5.0.2-bee76a0~70~ubuntu16.04.1*
G04 #@! TF.CreationDate,2019-08-24T21:48:25-07:00*
G04 #@! TF.ProjectId,endcap,656e6463-6170-42e6-9b69-6361645f7063,rev?*
G04 #@! TF.SameCoordinates,PX2faf080PY2faf080*
G04 #@! TF.FileFunction,Soldermask,Top*
G04 #@! TF.FilePolarity,Negative*
%FSLAX46Y46*%
G04 Gerber Fmt 4.6, Leading zero omitted, Abs format (unit mm)*
G04 Created by KiCad (PCBNEW 5.0.2-bee76a0~70~ubuntu16.04.1) date Sat 24 Aug 2019 09:48:25 PM PDT*
%MOMM*%
%LPD*%
G01*
G04 APERTURE LIST*
%ADD10C,0.100000*%
G04 APERTURE END LIST*
D10*
G36*
X101612921Y-48797056D02*
X101854515Y-48845112D01*
X102176356Y-48978423D01*
X102297576Y-49028634D01*
X102309668Y-49033643D01*
X102713841Y-49303703D01*
X102719297Y-49307349D01*
X103067651Y-49655703D01*
X103067653Y-49655706D01*
X103238807Y-49911855D01*
X103341358Y-50065334D01*
X103529888Y-50520486D01*
X103626000Y-51003672D01*
X103626000Y-51496328D01*
X103529888Y-51979514D01*
X103341358Y-52434666D01*
X103067651Y-52844297D01*
X102719297Y-53192651D01*
X102719294Y-53192653D01*
X102309668Y-53466357D01*
X101854515Y-53654888D01*
X101612921Y-53702944D01*
X101371328Y-53751000D01*
X100878672Y-53751000D01*
X100637079Y-53702944D01*
X100395485Y-53654888D01*
X99940332Y-53466357D01*
X99530706Y-53192653D01*
X99530703Y-53192651D01*
X99182349Y-52844297D01*
X98908642Y-52434666D01*
X98720112Y-51979514D01*
X98624000Y-51496328D01*
X98624000Y-51003672D01*
X98720112Y-50520486D01*
X98908642Y-50065334D01*
X99011194Y-49911855D01*
X99182347Y-49655706D01*
X99182349Y-49655703D01*
X99530703Y-49307349D01*
X99536159Y-49303703D01*
X99940332Y-49033643D01*
X99952425Y-49028634D01*
X100073644Y-48978423D01*
X100395485Y-48845112D01*
X100637079Y-48797056D01*
X100878672Y-48749000D01*
X101371328Y-48749000D01*
X101612921Y-48797056D01*
X101612921Y-48797056D01*
G37*
G36*
X5362921Y-48797056D02*
X5604515Y-48845112D01*
X5926356Y-48978423D01*
X6047576Y-49028634D01*
X6059668Y-49033643D01*
X6463841Y-49303703D01*
X6469297Y-49307349D01*
X6817651Y-49655703D01*
X6817653Y-49655706D01*
X6988807Y-49911855D01*
X7091358Y-50065334D01*
X7279888Y-50520486D01*
X7376000Y-51003672D01*
X7376000Y-51496328D01*
X7279888Y-51979514D01*
X7091358Y-52434666D01*
X6817651Y-52844297D01*
X6469297Y-53192651D01*
X6469294Y-53192653D01*
X6059668Y-53466357D01*
X5604515Y-53654888D01*
X5362921Y-53702944D01*
X5121328Y-53751000D01*
X4628672Y-53751000D01*
X4387079Y-53702944D01*
X4145485Y-53654888D01*
X3690332Y-53466357D01*
X3280706Y-53192653D01*
X3280703Y-53192651D01*
X2932349Y-52844297D01*
X2658642Y-52434666D01*
X2470112Y-51979514D01*
X2374000Y-51496328D01*
X2374000Y-51003672D01*
X2470112Y-50520486D01*
X2658642Y-50065334D01*
X2761194Y-49911855D01*
X2932347Y-49655706D01*
X2932349Y-49655703D01*
X3280703Y-49307349D01*
X3286159Y-49303703D01*
X3690332Y-49033643D01*
X3702425Y-49028634D01*
X3823644Y-48978423D01*
X4145485Y-48845112D01*
X4387079Y-48797056D01*
X4628672Y-48749000D01*
X5121328Y-48749000D01*
X5362921Y-48797056D01*
X5362921Y-48797056D01*
G37*
G36*
X72475786Y-43350462D02*
X72475788Y-43350463D01*
X72475789Y-43350463D01*
X73122029Y-43618144D01*
X73157329Y-43641731D01*
X73703634Y-44006760D01*
X74198240Y-44501366D01*
X74198242Y-44501369D01*
X74586856Y-45082971D01*
X74660015Y-45259593D01*
X74854538Y-45729214D01*
X74991000Y-46415256D01*
X74991000Y-47114744D01*
X74854724Y-47799853D01*
X74854537Y-47800789D01*
X74586856Y-48447029D01*
X74586855Y-48447030D01*
X74198240Y-49028634D01*
X73703634Y-49523240D01*
X73703631Y-49523242D01*
X73122029Y-49911856D01*
X72475789Y-50179537D01*
X72475788Y-50179537D01*
X72475786Y-50179538D01*
X71789744Y-50316000D01*
X71090256Y-50316000D01*
X70404214Y-50179538D01*
X70404212Y-50179537D01*
X70404211Y-50179537D01*
X69757971Y-49911856D01*
X69176369Y-49523242D01*
X69176366Y-49523240D01*
X68681760Y-49028634D01*
X68293145Y-48447030D01*
X68293144Y-48447029D01*
X68025463Y-47800789D01*
X68025277Y-47799853D01*
X67889000Y-47114744D01*
X67889000Y-46415256D01*
X68025462Y-45729214D01*
X68219985Y-45259593D01*
X68293144Y-45082971D01*
X68681758Y-44501369D01*
X68681760Y-44501366D01*
X69176366Y-44006760D01*
X69722671Y-43641731D01*
X69757971Y-43618144D01*
X70404211Y-43350463D01*
X70404212Y-43350463D01*
X70404214Y-43350462D01*
X71090256Y-43214000D01*
X71789744Y-43214000D01*
X72475786Y-43350462D01*
X72475786Y-43350462D01*
G37*
G36*
X82635786Y-43350462D02*
X82635788Y-43350463D01*
X82635789Y-43350463D01*
X83282029Y-43618144D01*
X83317329Y-43641731D01*
X83863634Y-44006760D01*
X84358240Y-44501366D01*
X84358242Y-44501369D01*
X84746856Y-45082971D01*
X84820015Y-45259593D01*
X85014538Y-45729214D01*
X85151000Y-46415256D01*
X85151000Y-47114744D01*
X85014724Y-47799853D01*
X85014537Y-47800789D01*
X84746856Y-48447029D01*
X84746855Y-48447030D01*
X84358240Y-49028634D01*
X83863634Y-49523240D01*
X83863631Y-49523242D01*
X83282029Y-49911856D01*
X82635789Y-50179537D01*
X82635788Y-50179537D01*
X82635786Y-50179538D01*
X81949744Y-50316000D01*
X81250256Y-50316000D01*
X80564214Y-50179538D01*
X80564212Y-50179537D01*
X80564211Y-50179537D01*
X79917971Y-49911856D01*
X79336369Y-49523242D01*
X79336366Y-49523240D01*
X78841760Y-49028634D01*
X78453145Y-48447030D01*
X78453144Y-48447029D01*
X78185463Y-47800789D01*
X78185277Y-47799853D01*
X78049000Y-47114744D01*
X78049000Y-46415256D01*
X78185462Y-45729214D01*
X78379985Y-45259593D01*
X78453144Y-45082971D01*
X78841758Y-44501369D01*
X78841760Y-44501366D01*
X79336366Y-44006760D01*
X79882671Y-43641731D01*
X79917971Y-43618144D01*
X80564211Y-43350463D01*
X80564212Y-43350463D01*
X80564214Y-43350462D01*
X81250256Y-43214000D01*
X81949744Y-43214000D01*
X82635786Y-43350462D01*
X82635786Y-43350462D01*
G37*
G36*
X93594714Y-41295769D02*
X94064958Y-41389306D01*
X94729397Y-41664525D01*
X95327377Y-42064083D01*
X95835917Y-42572623D01*
X96235475Y-43170603D01*
X96510694Y-43835042D01*
X96651000Y-44540408D01*
X96651000Y-45259592D01*
X96510694Y-45964958D01*
X96235475Y-46629397D01*
X95835917Y-47227377D01*
X95327377Y-47735917D01*
X94729397Y-48135475D01*
X94064958Y-48410694D01*
X93594714Y-48504231D01*
X93359593Y-48551000D01*
X92640407Y-48551000D01*
X92405286Y-48504231D01*
X91935042Y-48410694D01*
X91270603Y-48135475D01*
X90672623Y-47735917D01*
X90164083Y-47227377D01*
X89764525Y-46629397D01*
X89489306Y-45964958D01*
X89349000Y-45259592D01*
X89349000Y-44540408D01*
X89489306Y-43835042D01*
X89764525Y-43170603D01*
X90164083Y-42572623D01*
X90672623Y-42064083D01*
X91270603Y-41664525D01*
X91935042Y-41389306D01*
X92405286Y-41295769D01*
X92640407Y-41249000D01*
X93359593Y-41249000D01*
X93594714Y-41295769D01*
X93594714Y-41295769D01*
G37*
G36*
X62562812Y-46233624D02*
X62726784Y-46301544D01*
X62874354Y-46400147D01*
X62999853Y-46525646D01*
X63098456Y-46673216D01*
X63166376Y-46837188D01*
X63201000Y-47011259D01*
X63201000Y-47188741D01*
X63166376Y-47362812D01*
X63098456Y-47526784D01*
X62999853Y-47674354D01*
X62874354Y-47799853D01*
X62726784Y-47898456D01*
X62562812Y-47966376D01*
X62388741Y-48001000D01*
X62211259Y-48001000D01*
X62037188Y-47966376D01*
X61873216Y-47898456D01*
X61725646Y-47799853D01*
X61600147Y-47674354D01*
X61501544Y-47526784D01*
X61433624Y-47362812D01*
X61399000Y-47188741D01*
X61399000Y-47011259D01*
X61433624Y-46837188D01*
X61501544Y-46673216D01*
X61600147Y-46525646D01*
X61725646Y-46400147D01*
X61873216Y-46301544D01*
X62037188Y-46233624D01*
X62211259Y-46199000D01*
X62388741Y-46199000D01*
X62562812Y-46233624D01*
X62562812Y-46233624D01*
G37*
G36*
X43962812Y-46233624D02*
X44126784Y-46301544D01*
X44274354Y-46400147D01*
X44399853Y-46525646D01*
X44498456Y-46673216D01*
X44566376Y-46837188D01*
X44601000Y-47011259D01*
X44601000Y-47188741D01*
X44566376Y-47362812D01*
X44498456Y-47526784D01*
X44399853Y-47674354D01*
X44274354Y-47799853D01*
X44126784Y-47898456D01*
X43962812Y-47966376D01*
X43788741Y-48001000D01*
X43611259Y-48001000D01*
X43437188Y-47966376D01*
X43273216Y-47898456D01*
X43125646Y-47799853D01*
X43000147Y-47674354D01*
X42901544Y-47526784D01*
X42833624Y-47362812D01*
X42799000Y-47188741D01*
X42799000Y-47011259D01*
X42833624Y-46837188D01*
X42901544Y-46673216D01*
X43000147Y-46525646D01*
X43125646Y-46400147D01*
X43273216Y-46301544D01*
X43437188Y-46233624D01*
X43611259Y-46199000D01*
X43788741Y-46199000D01*
X43962812Y-46233624D01*
X43962812Y-46233624D01*
G37*
G36*
X50162812Y-46233624D02*
X50326784Y-46301544D01*
X50474354Y-46400147D01*
X50599853Y-46525646D01*
X50698456Y-46673216D01*
X50766376Y-46837188D01*
X50801000Y-47011259D01*
X50801000Y-47188741D01*
X50766376Y-47362812D01*
X50698456Y-47526784D01*
X50599853Y-47674354D01*
X50474354Y-47799853D01*
X50326784Y-47898456D01*
X50162812Y-47966376D01*
X49988741Y-48001000D01*
X49811259Y-48001000D01*
X49637188Y-47966376D01*
X49473216Y-47898456D01*
X49325646Y-47799853D01*
X49200147Y-47674354D01*
X49101544Y-47526784D01*
X49033624Y-47362812D01*
X48999000Y-47188741D01*
X48999000Y-47011259D01*
X49033624Y-46837188D01*
X49101544Y-46673216D01*
X49200147Y-46525646D01*
X49325646Y-46400147D01*
X49473216Y-46301544D01*
X49637188Y-46233624D01*
X49811259Y-46199000D01*
X49988741Y-46199000D01*
X50162812Y-46233624D01*
X50162812Y-46233624D01*
G37*
G36*
X56362812Y-46233624D02*
X56526784Y-46301544D01*
X56674354Y-46400147D01*
X56799853Y-46525646D01*
X56898456Y-46673216D01*
X56966376Y-46837188D01*
X57001000Y-47011259D01*
X57001000Y-47188741D01*
X56966376Y-47362812D01*
X56898456Y-47526784D01*
X56799853Y-47674354D01*
X56674354Y-47799853D01*
X56526784Y-47898456D01*
X56362812Y-47966376D01*
X56188741Y-48001000D01*
X56011259Y-48001000D01*
X55837188Y-47966376D01*
X55673216Y-47898456D01*
X55525646Y-47799853D01*
X55400147Y-47674354D01*
X55301544Y-47526784D01*
X55233624Y-47362812D01*
X55199000Y-47188741D01*
X55199000Y-47011259D01*
X55233624Y-46837188D01*
X55301544Y-46673216D01*
X55400147Y-46525646D01*
X55525646Y-46400147D01*
X55673216Y-46301544D01*
X55837188Y-46233624D01*
X56011259Y-46199000D01*
X56188741Y-46199000D01*
X56362812Y-46233624D01*
X56362812Y-46233624D01*
G37*
G36*
X11454555Y-36764284D02*
X12237286Y-37088502D01*
X12237288Y-37088503D01*
X12932356Y-37552933D01*
X12941731Y-37559197D01*
X13540803Y-38158269D01*
X14011498Y-38862714D01*
X14335716Y-39645445D01*
X14501000Y-40476387D01*
X14501000Y-41323613D01*
X14335716Y-42154555D01*
X14011498Y-42937286D01*
X13540803Y-43641731D01*
X12941731Y-44240803D01*
X12941728Y-44240805D01*
X12237288Y-44711497D01*
X12237287Y-44711498D01*
X12237286Y-44711498D01*
X11454555Y-45035716D01*
X10623613Y-45201000D01*
X9776387Y-45201000D01*
X8945445Y-45035716D01*
X8162714Y-44711498D01*
X8162713Y-44711498D01*
X8162712Y-44711497D01*
X7458272Y-44240805D01*
X7458269Y-44240803D01*
X6859197Y-43641731D01*
X6388502Y-42937286D01*
X6064284Y-42154555D01*
X5899000Y-41323613D01*
X5899000Y-40476387D01*
X6064284Y-39645445D01*
X6388502Y-38862714D01*
X6859197Y-38158269D01*
X7458269Y-37559197D01*
X7467644Y-37552933D01*
X8162712Y-37088503D01*
X8162714Y-37088502D01*
X8945445Y-36764284D01*
X9776387Y-36599000D01*
X10623613Y-36599000D01*
X11454555Y-36764284D01*
X11454555Y-36764284D01*
G37*
G36*
X90632004Y-30960544D02*
X90719059Y-30977860D01*
X90855732Y-31034472D01*
X90855733Y-31034473D01*
X90978738Y-31116662D01*
X91083338Y-31221262D01*
X91083340Y-31221265D01*
X91165528Y-31344268D01*
X91222140Y-31480941D01*
X91251000Y-31626033D01*
X91251000Y-31773967D01*
X91222140Y-31919059D01*
X91165528Y-32055732D01*
X91165527Y-32055733D01*
X91083338Y-32178738D01*
X90978738Y-32283338D01*
X90978735Y-32283340D01*
X90855732Y-32365528D01*
X90719059Y-32422140D01*
X90632004Y-32439456D01*
X90573969Y-32451000D01*
X90426031Y-32451000D01*
X90367996Y-32439456D01*
X90280941Y-32422140D01*
X90144268Y-32365528D01*
X90021265Y-32283340D01*
X90021262Y-32283338D01*
X89916662Y-32178738D01*
X89834473Y-32055733D01*
X89834472Y-32055732D01*
X89777860Y-31919059D01*
X89749000Y-31773967D01*
X89749000Y-31626033D01*
X89777860Y-31480941D01*
X89834472Y-31344268D01*
X89916660Y-31221265D01*
X89916662Y-31221262D01*
X90021262Y-31116662D01*
X90144267Y-31034473D01*
X90144268Y-31034472D01*
X90280941Y-30977860D01*
X90367996Y-30960544D01*
X90426031Y-30949000D01*
X90573969Y-30949000D01*
X90632004Y-30960544D01*
X90632004Y-30960544D01*
G37*
G36*
X95632004Y-30960544D02*
X95719059Y-30977860D01*
X95855732Y-31034472D01*
X95855733Y-31034473D01*
X95978738Y-31116662D01*
X96083338Y-31221262D01*
X96083340Y-31221265D01*
X96165528Y-31344268D01*
X96222140Y-31480941D01*
X96251000Y-31626033D01*
X96251000Y-31773967D01*
X96222140Y-31919059D01*
X96165528Y-32055732D01*
X96165527Y-32055733D01*
X96083338Y-32178738D01*
X95978738Y-32283338D01*
X95978735Y-32283340D01*
X95855732Y-32365528D01*
X95719059Y-32422140D01*
X95632004Y-32439456D01*
X95573969Y-32451000D01*
X95426031Y-32451000D01*
X95367996Y-32439456D01*
X95280941Y-32422140D01*
X95144268Y-32365528D01*
X95021265Y-32283340D01*
X95021262Y-32283338D01*
X94916662Y-32178738D01*
X94834473Y-32055733D01*
X94834472Y-32055732D01*
X94777860Y-31919059D01*
X94749000Y-31773967D01*
X94749000Y-31626033D01*
X94777860Y-31480941D01*
X94834472Y-31344268D01*
X94916660Y-31221265D01*
X94916662Y-31221262D01*
X95021262Y-31116662D01*
X95144267Y-31034473D01*
X95144268Y-31034472D01*
X95280941Y-30977860D01*
X95367996Y-30960544D01*
X95426031Y-30949000D01*
X95573969Y-30949000D01*
X95632004Y-30960544D01*
X95632004Y-30960544D01*
G37*
G36*
X93132004Y-30960544D02*
X93219059Y-30977860D01*
X93355732Y-31034472D01*
X93355733Y-31034473D01*
X93478738Y-31116662D01*
X93583338Y-31221262D01*
X93583340Y-31221265D01*
X93665528Y-31344268D01*
X93722140Y-31480941D01*
X93751000Y-31626033D01*
X93751000Y-31773967D01*
X93722140Y-31919059D01*
X93665528Y-32055732D01*
X93665527Y-32055733D01*
X93583338Y-32178738D01*
X93478738Y-32283338D01*
X93478735Y-32283340D01*
X93355732Y-32365528D01*
X93219059Y-32422140D01*
X93132004Y-32439456D01*
X93073969Y-32451000D01*
X92926031Y-32451000D01*
X92867996Y-32439456D01*
X92780941Y-32422140D01*
X92644268Y-32365528D01*
X92521265Y-32283340D01*
X92521262Y-32283338D01*
X92416662Y-32178738D01*
X92334473Y-32055733D01*
X92334472Y-32055732D01*
X92277860Y-31919059D01*
X92249000Y-31773967D01*
X92249000Y-31626033D01*
X92277860Y-31480941D01*
X92334472Y-31344268D01*
X92416660Y-31221265D01*
X92416662Y-31221262D01*
X92521262Y-31116662D01*
X92644267Y-31034473D01*
X92644268Y-31034472D01*
X92780941Y-30977860D01*
X92867996Y-30960544D01*
X92926031Y-30949000D01*
X93073969Y-30949000D01*
X93132004Y-30960544D01*
X93132004Y-30960544D01*
G37*
G36*
X93132004Y-28460544D02*
X93219059Y-28477860D01*
X93355732Y-28534472D01*
X93355733Y-28534473D01*
X93478738Y-28616662D01*
X93583338Y-28721262D01*
X93583340Y-28721265D01*
X93665528Y-28844268D01*
X93722140Y-28980941D01*
X93751000Y-29126033D01*
X93751000Y-29273967D01*
X93722140Y-29419059D01*
X93665528Y-29555732D01*
X93665527Y-29555733D01*
X93583338Y-29678738D01*
X93478738Y-29783338D01*
X93478735Y-29783340D01*
X93355732Y-29865528D01*
X93219059Y-29922140D01*
X93132004Y-29939456D01*
X93073969Y-29951000D01*
X92926031Y-29951000D01*
X92867996Y-29939456D01*
X92780941Y-29922140D01*
X92644268Y-29865528D01*
X92521265Y-29783340D01*
X92521262Y-29783338D01*
X92416662Y-29678738D01*
X92334473Y-29555733D01*
X92334472Y-29555732D01*
X92277860Y-29419059D01*
X92249000Y-29273967D01*
X92249000Y-29126033D01*
X92277860Y-28980941D01*
X92334472Y-28844268D01*
X92416660Y-28721265D01*
X92416662Y-28721262D01*
X92521262Y-28616662D01*
X92644267Y-28534473D01*
X92644268Y-28534472D01*
X92780941Y-28477860D01*
X92867996Y-28460544D01*
X92926031Y-28449000D01*
X93073969Y-28449000D01*
X93132004Y-28460544D01*
X93132004Y-28460544D01*
G37*
G36*
X95632004Y-28460544D02*
X95719059Y-28477860D01*
X95855732Y-28534472D01*
X95855733Y-28534473D01*
X95978738Y-28616662D01*
X96083338Y-28721262D01*
X96083340Y-28721265D01*
X96165528Y-28844268D01*
X96222140Y-28980941D01*
X96251000Y-29126033D01*
X96251000Y-29273967D01*
X96222140Y-29419059D01*
X96165528Y-29555732D01*
X96165527Y-29555733D01*
X96083338Y-29678738D01*
X95978738Y-29783338D01*
X95978735Y-29783340D01*
X95855732Y-29865528D01*
X95719059Y-29922140D01*
X95632004Y-29939456D01*
X95573969Y-29951000D01*
X95426031Y-29951000D01*
X95367996Y-29939456D01*
X95280941Y-29922140D01*
X95144268Y-29865528D01*
X95021265Y-29783340D01*
X95021262Y-29783338D01*
X94916662Y-29678738D01*
X94834473Y-29555733D01*
X94834472Y-29555732D01*
X94777860Y-29419059D01*
X94749000Y-29273967D01*
X94749000Y-29126033D01*
X94777860Y-28980941D01*
X94834472Y-28844268D01*
X94916660Y-28721265D01*
X94916662Y-28721262D01*
X95021262Y-28616662D01*
X95144267Y-28534473D01*
X95144268Y-28534472D01*
X95280941Y-28477860D01*
X95367996Y-28460544D01*
X95426031Y-28449000D01*
X95573969Y-28449000D01*
X95632004Y-28460544D01*
X95632004Y-28460544D01*
G37*
G36*
X90632004Y-28460544D02*
X90719059Y-28477860D01*
X90855732Y-28534472D01*
X90855733Y-28534473D01*
X90978738Y-28616662D01*
X91083338Y-28721262D01*
X91083340Y-28721265D01*
X91165528Y-28844268D01*
X91222140Y-28980941D01*
X91251000Y-29126033D01*
X91251000Y-29273967D01*
X91222140Y-29419059D01*
X91165528Y-29555732D01*
X91165527Y-29555733D01*
X91083338Y-29678738D01*
X90978738Y-29783338D01*
X90978735Y-29783340D01*
X90855732Y-29865528D01*
X90719059Y-29922140D01*
X90632004Y-29939456D01*
X90573969Y-29951000D01*
X90426031Y-29951000D01*
X90367996Y-29939456D01*
X90280941Y-29922140D01*
X90144268Y-29865528D01*
X90021265Y-29783340D01*
X90021262Y-29783338D01*
X89916662Y-29678738D01*
X89834473Y-29555733D01*
X89834472Y-29555732D01*
X89777860Y-29419059D01*
X89749000Y-29273967D01*
X89749000Y-29126033D01*
X89777860Y-28980941D01*
X89834472Y-28844268D01*
X89916660Y-28721265D01*
X89916662Y-28721262D01*
X90021262Y-28616662D01*
X90144267Y-28534473D01*
X90144268Y-28534472D01*
X90280941Y-28477860D01*
X90367996Y-28460544D01*
X90426031Y-28449000D01*
X90573969Y-28449000D01*
X90632004Y-28460544D01*
X90632004Y-28460544D01*
G37*
G36*
X95632004Y-25960544D02*
X95719059Y-25977860D01*
X95855732Y-26034472D01*
X95855733Y-26034473D01*
X95978738Y-26116662D01*
X96083338Y-26221262D01*
X96083340Y-26221265D01*
X96165528Y-26344268D01*
X96222140Y-26480941D01*
X96251000Y-26626033D01*
X96251000Y-26773967D01*
X96222140Y-26919059D01*
X96165528Y-27055732D01*
X96165527Y-27055733D01*
X96083338Y-27178738D01*
X95978738Y-27283338D01*
X95978735Y-27283340D01*
X95855732Y-27365528D01*
X95719059Y-27422140D01*
X95632004Y-27439456D01*
X95573969Y-27451000D01*
X95426031Y-27451000D01*
X95367996Y-27439456D01*
X95280941Y-27422140D01*
X95144268Y-27365528D01*
X95021265Y-27283340D01*
X95021262Y-27283338D01*
X94916662Y-27178738D01*
X94834473Y-27055733D01*
X94834472Y-27055732D01*
X94777860Y-26919059D01*
X94749000Y-26773967D01*
X94749000Y-26626033D01*
X94777860Y-26480941D01*
X94834472Y-26344268D01*
X94916660Y-26221265D01*
X94916662Y-26221262D01*
X95021262Y-26116662D01*
X95144267Y-26034473D01*
X95144268Y-26034472D01*
X95280941Y-25977860D01*
X95367996Y-25960544D01*
X95426031Y-25949000D01*
X95573969Y-25949000D01*
X95632004Y-25960544D01*
X95632004Y-25960544D01*
G37*
G36*
X93132004Y-25960544D02*
X93219059Y-25977860D01*
X93355732Y-26034472D01*
X93355733Y-26034473D01*
X93478738Y-26116662D01*
X93583338Y-26221262D01*
X93583340Y-26221265D01*
X93665528Y-26344268D01*
X93722140Y-26480941D01*
X93751000Y-26626033D01*
X93751000Y-26773967D01*
X93722140Y-26919059D01*
X93665528Y-27055732D01*
X93665527Y-27055733D01*
X93583338Y-27178738D01*
X93478738Y-27283338D01*
X93478735Y-27283340D01*
X93355732Y-27365528D01*
X93219059Y-27422140D01*
X93132004Y-27439456D01*
X93073969Y-27451000D01*
X92926031Y-27451000D01*
X92867996Y-27439456D01*
X92780941Y-27422140D01*
X92644268Y-27365528D01*
X92521265Y-27283340D01*
X92521262Y-27283338D01*
X92416662Y-27178738D01*
X92334473Y-27055733D01*
X92334472Y-27055732D01*
X92277860Y-26919059D01*
X92249000Y-26773967D01*
X92249000Y-26626033D01*
X92277860Y-26480941D01*
X92334472Y-26344268D01*
X92416660Y-26221265D01*
X92416662Y-26221262D01*
X92521262Y-26116662D01*
X92644267Y-26034473D01*
X92644268Y-26034472D01*
X92780941Y-25977860D01*
X92867996Y-25960544D01*
X92926031Y-25949000D01*
X93073969Y-25949000D01*
X93132004Y-25960544D01*
X93132004Y-25960544D01*
G37*
G36*
X90632004Y-25960544D02*
X90719059Y-25977860D01*
X90855732Y-26034472D01*
X90855733Y-26034473D01*
X90978738Y-26116662D01*
X91083338Y-26221262D01*
X91083340Y-26221265D01*
X91165528Y-26344268D01*
X91222140Y-26480941D01*
X91251000Y-26626033D01*
X91251000Y-26773967D01*
X91222140Y-26919059D01*
X91165528Y-27055732D01*
X91165527Y-27055733D01*
X91083338Y-27178738D01*
X90978738Y-27283338D01*
X90978735Y-27283340D01*
X90855732Y-27365528D01*
X90719059Y-27422140D01*
X90632004Y-27439456D01*
X90573969Y-27451000D01*
X90426031Y-27451000D01*
X90367996Y-27439456D01*
X90280941Y-27422140D01*
X90144268Y-27365528D01*
X90021265Y-27283340D01*
X90021262Y-27283338D01*
X89916662Y-27178738D01*
X89834473Y-27055733D01*
X89834472Y-27055732D01*
X89777860Y-26919059D01*
X89749000Y-26773967D01*
X89749000Y-26626033D01*
X89777860Y-26480941D01*
X89834472Y-26344268D01*
X89916660Y-26221265D01*
X89916662Y-26221262D01*
X90021262Y-26116662D01*
X90144267Y-26034473D01*
X90144268Y-26034472D01*
X90280941Y-25977860D01*
X90367996Y-25960544D01*
X90426031Y-25949000D01*
X90573969Y-25949000D01*
X90632004Y-25960544D01*
X90632004Y-25960544D01*
G37*
G36*
X95632004Y-20960544D02*
X95719059Y-20977860D01*
X95855732Y-21034472D01*
X95855733Y-21034473D01*
X95978738Y-21116662D01*
X96083338Y-21221262D01*
X96083340Y-21221265D01*
X96165528Y-21344268D01*
X96222140Y-21480941D01*
X96251000Y-21626033D01*
X96251000Y-21773967D01*
X96222140Y-21919059D01*
X96165528Y-22055732D01*
X96165527Y-22055733D01*
X96083338Y-22178738D01*
X95978738Y-22283338D01*
X95978735Y-22283340D01*
X95855732Y-22365528D01*
X95719059Y-22422140D01*
X95632004Y-22439456D01*
X95573969Y-22451000D01*
X95426031Y-22451000D01*
X95367996Y-22439456D01*
X95280941Y-22422140D01*
X95144268Y-22365528D01*
X95021265Y-22283340D01*
X95021262Y-22283338D01*
X94916662Y-22178738D01*
X94834473Y-22055733D01*
X94834472Y-22055732D01*
X94777860Y-21919059D01*
X94749000Y-21773967D01*
X94749000Y-21626033D01*
X94777860Y-21480941D01*
X94834472Y-21344268D01*
X94916660Y-21221265D01*
X94916662Y-21221262D01*
X95021262Y-21116662D01*
X95144267Y-21034473D01*
X95144268Y-21034472D01*
X95280941Y-20977860D01*
X95367996Y-20960544D01*
X95426031Y-20949000D01*
X95573969Y-20949000D01*
X95632004Y-20960544D01*
X95632004Y-20960544D01*
G37*
G36*
X93132004Y-20960544D02*
X93219059Y-20977860D01*
X93355732Y-21034472D01*
X93355733Y-21034473D01*
X93478738Y-21116662D01*
X93583338Y-21221262D01*
X93583340Y-21221265D01*
X93665528Y-21344268D01*
X93722140Y-21480941D01*
X93751000Y-21626033D01*
X93751000Y-21773967D01*
X93722140Y-21919059D01*
X93665528Y-22055732D01*
X93665527Y-22055733D01*
X93583338Y-22178738D01*
X93478738Y-22283338D01*
X93478735Y-22283340D01*
X93355732Y-22365528D01*
X93219059Y-22422140D01*
X93132004Y-22439456D01*
X93073969Y-22451000D01*
X92926031Y-22451000D01*
X92867996Y-22439456D01*
X92780941Y-22422140D01*
X92644268Y-22365528D01*
X92521265Y-22283340D01*
X92521262Y-22283338D01*
X92416662Y-22178738D01*
X92334473Y-22055733D01*
X92334472Y-22055732D01*
X92277860Y-21919059D01*
X92249000Y-21773967D01*
X92249000Y-21626033D01*
X92277860Y-21480941D01*
X92334472Y-21344268D01*
X92416660Y-21221265D01*
X92416662Y-21221262D01*
X92521262Y-21116662D01*
X92644267Y-21034473D01*
X92644268Y-21034472D01*
X92780941Y-20977860D01*
X92867996Y-20960544D01*
X92926031Y-20949000D01*
X93073969Y-20949000D01*
X93132004Y-20960544D01*
X93132004Y-20960544D01*
G37*
G36*
X90632004Y-20960544D02*
X90719059Y-20977860D01*
X90855732Y-21034472D01*
X90855733Y-21034473D01*
X90978738Y-21116662D01*
X91083338Y-21221262D01*
X91083340Y-21221265D01*
X91165528Y-21344268D01*
X91222140Y-21480941D01*
X91251000Y-21626033D01*
X91251000Y-21773967D01*
X91222140Y-21919059D01*
X91165528Y-22055732D01*
X91165527Y-22055733D01*
X91083338Y-22178738D01*
X90978738Y-22283338D01*
X90978735Y-22283340D01*
X90855732Y-22365528D01*
X90719059Y-22422140D01*
X90632004Y-22439456D01*
X90573969Y-22451000D01*
X90426031Y-22451000D01*
X90367996Y-22439456D01*
X90280941Y-22422140D01*
X90144268Y-22365528D01*
X90021265Y-22283340D01*
X90021262Y-22283338D01*
X89916662Y-22178738D01*
X89834473Y-22055733D01*
X89834472Y-22055732D01*
X89777860Y-21919059D01*
X89749000Y-21773967D01*
X89749000Y-21626033D01*
X89777860Y-21480941D01*
X89834472Y-21344268D01*
X89916660Y-21221265D01*
X89916662Y-21221262D01*
X90021262Y-21116662D01*
X90144267Y-21034473D01*
X90144268Y-21034472D01*
X90280941Y-20977860D01*
X90367996Y-20960544D01*
X90426031Y-20949000D01*
X90573969Y-20949000D01*
X90632004Y-20960544D01*
X90632004Y-20960544D01*
G37*
G36*
X93132004Y-18460544D02*
X93219059Y-18477860D01*
X93355732Y-18534472D01*
X93355733Y-18534473D01*
X93478738Y-18616662D01*
X93583338Y-18721262D01*
X93583340Y-18721265D01*
X93665528Y-18844268D01*
X93722140Y-18980941D01*
X93751000Y-19126033D01*
X93751000Y-19273967D01*
X93722140Y-19419059D01*
X93665528Y-19555732D01*
X93665527Y-19555733D01*
X93583338Y-19678738D01*
X93478738Y-19783338D01*
X93478735Y-19783340D01*
X93355732Y-19865528D01*
X93219059Y-19922140D01*
X93132004Y-19939456D01*
X93073969Y-19951000D01*
X92926031Y-19951000D01*
X92867996Y-19939456D01*
X92780941Y-19922140D01*
X92644268Y-19865528D01*
X92521265Y-19783340D01*
X92521262Y-19783338D01*
X92416662Y-19678738D01*
X92334473Y-19555733D01*
X92334472Y-19555732D01*
X92277860Y-19419059D01*
X92249000Y-19273967D01*
X92249000Y-19126033D01*
X92277860Y-18980941D01*
X92334472Y-18844268D01*
X92416660Y-18721265D01*
X92416662Y-18721262D01*
X92521262Y-18616662D01*
X92644267Y-18534473D01*
X92644268Y-18534472D01*
X92780941Y-18477860D01*
X92867996Y-18460544D01*
X92926031Y-18449000D01*
X93073969Y-18449000D01*
X93132004Y-18460544D01*
X93132004Y-18460544D01*
G37*
G36*
X90632004Y-18460544D02*
X90719059Y-18477860D01*
X90855732Y-18534472D01*
X90855733Y-18534473D01*
X90978738Y-18616662D01*
X91083338Y-18721262D01*
X91083340Y-18721265D01*
X91165528Y-18844268D01*
X91222140Y-18980941D01*
X91251000Y-19126033D01*
X91251000Y-19273967D01*
X91222140Y-19419059D01*
X91165528Y-19555732D01*
X91165527Y-19555733D01*
X91083338Y-19678738D01*
X90978738Y-19783338D01*
X90978735Y-19783340D01*
X90855732Y-19865528D01*
X90719059Y-19922140D01*
X90632004Y-19939456D01*
X90573969Y-19951000D01*
X90426031Y-19951000D01*
X90367996Y-19939456D01*
X90280941Y-19922140D01*
X90144268Y-19865528D01*
X90021265Y-19783340D01*
X90021262Y-19783338D01*
X89916662Y-19678738D01*
X89834473Y-19555733D01*
X89834472Y-19555732D01*
X89777860Y-19419059D01*
X89749000Y-19273967D01*
X89749000Y-19126033D01*
X89777860Y-18980941D01*
X89834472Y-18844268D01*
X89916660Y-18721265D01*
X89916662Y-18721262D01*
X90021262Y-18616662D01*
X90144267Y-18534473D01*
X90144268Y-18534472D01*
X90280941Y-18477860D01*
X90367996Y-18460544D01*
X90426031Y-18449000D01*
X90573969Y-18449000D01*
X90632004Y-18460544D01*
X90632004Y-18460544D01*
G37*
G36*
X95632004Y-18460544D02*
X95719059Y-18477860D01*
X95855732Y-18534472D01*
X95855733Y-18534473D01*
X95978738Y-18616662D01*
X96083338Y-18721262D01*
X96083340Y-18721265D01*
X96165528Y-18844268D01*
X96222140Y-18980941D01*
X96251000Y-19126033D01*
X96251000Y-19273967D01*
X96222140Y-19419059D01*
X96165528Y-19555732D01*
X96165527Y-19555733D01*
X96083338Y-19678738D01*
X95978738Y-19783338D01*
X95978735Y-19783340D01*
X95855732Y-19865528D01*
X95719059Y-19922140D01*
X95632004Y-19939456D01*
X95573969Y-19951000D01*
X95426031Y-19951000D01*
X95367996Y-19939456D01*
X95280941Y-19922140D01*
X95144268Y-19865528D01*
X95021265Y-19783340D01*
X95021262Y-19783338D01*
X94916662Y-19678738D01*
X94834473Y-19555733D01*
X94834472Y-19555732D01*
X94777860Y-19419059D01*
X94749000Y-19273967D01*
X94749000Y-19126033D01*
X94777860Y-18980941D01*
X94834472Y-18844268D01*
X94916660Y-18721265D01*
X94916662Y-18721262D01*
X95021262Y-18616662D01*
X95144267Y-18534473D01*
X95144268Y-18534472D01*
X95280941Y-18477860D01*
X95367996Y-18460544D01*
X95426031Y-18449000D01*
X95573969Y-18449000D01*
X95632004Y-18460544D01*
X95632004Y-18460544D01*
G37*
G36*
X95632004Y-15960544D02*
X95719059Y-15977860D01*
X95855732Y-16034472D01*
X95855733Y-16034473D01*
X95978738Y-16116662D01*
X96083338Y-16221262D01*
X96083340Y-16221265D01*
X96165528Y-16344268D01*
X96222140Y-16480941D01*
X96251000Y-16626033D01*
X96251000Y-16773967D01*
X96222140Y-16919059D01*
X96165528Y-17055732D01*
X96165527Y-17055733D01*
X96083338Y-17178738D01*
X95978738Y-17283338D01*
X95978735Y-17283340D01*
X95855732Y-17365528D01*
X95719059Y-17422140D01*
X95632004Y-17439456D01*
X95573969Y-17451000D01*
X95426031Y-17451000D01*
X95367996Y-17439456D01*
X95280941Y-17422140D01*
X95144268Y-17365528D01*
X95021265Y-17283340D01*
X95021262Y-17283338D01*
X94916662Y-17178738D01*
X94834473Y-17055733D01*
X94834472Y-17055732D01*
X94777860Y-16919059D01*
X94749000Y-16773967D01*
X94749000Y-16626033D01*
X94777860Y-16480941D01*
X94834472Y-16344268D01*
X94916660Y-16221265D01*
X94916662Y-16221262D01*
X95021262Y-16116662D01*
X95144267Y-16034473D01*
X95144268Y-16034472D01*
X95280941Y-15977860D01*
X95367996Y-15960544D01*
X95426031Y-15949000D01*
X95573969Y-15949000D01*
X95632004Y-15960544D01*
X95632004Y-15960544D01*
G37*
G36*
X93132004Y-15960544D02*
X93219059Y-15977860D01*
X93355732Y-16034472D01*
X93355733Y-16034473D01*
X93478738Y-16116662D01*
X93583338Y-16221262D01*
X93583340Y-16221265D01*
X93665528Y-16344268D01*
X93722140Y-16480941D01*
X93751000Y-16626033D01*
X93751000Y-16773967D01*
X93722140Y-16919059D01*
X93665528Y-17055732D01*
X93665527Y-17055733D01*
X93583338Y-17178738D01*
X93478738Y-17283338D01*
X93478735Y-17283340D01*
X93355732Y-17365528D01*
X93219059Y-17422140D01*
X93132004Y-17439456D01*
X93073969Y-17451000D01*
X92926031Y-17451000D01*
X92867996Y-17439456D01*
X92780941Y-17422140D01*
X92644268Y-17365528D01*
X92521265Y-17283340D01*
X92521262Y-17283338D01*
X92416662Y-17178738D01*
X92334473Y-17055733D01*
X92334472Y-17055732D01*
X92277860Y-16919059D01*
X92249000Y-16773967D01*
X92249000Y-16626033D01*
X92277860Y-16480941D01*
X92334472Y-16344268D01*
X92416660Y-16221265D01*
X92416662Y-16221262D01*
X92521262Y-16116662D01*
X92644267Y-16034473D01*
X92644268Y-16034472D01*
X92780941Y-15977860D01*
X92867996Y-15960544D01*
X92926031Y-15949000D01*
X93073969Y-15949000D01*
X93132004Y-15960544D01*
X93132004Y-15960544D01*
G37*
G36*
X90632004Y-15960544D02*
X90719059Y-15977860D01*
X90855732Y-16034472D01*
X90855733Y-16034473D01*
X90978738Y-16116662D01*
X91083338Y-16221262D01*
X91083340Y-16221265D01*
X91165528Y-16344268D01*
X91222140Y-16480941D01*
X91251000Y-16626033D01*
X91251000Y-16773967D01*
X91222140Y-16919059D01*
X91165528Y-17055732D01*
X91165527Y-17055733D01*
X91083338Y-17178738D01*
X90978738Y-17283338D01*
X90978735Y-17283340D01*
X90855732Y-17365528D01*
X90719059Y-17422140D01*
X90632004Y-17439456D01*
X90573969Y-17451000D01*
X90426031Y-17451000D01*
X90367996Y-17439456D01*
X90280941Y-17422140D01*
X90144268Y-17365528D01*
X90021265Y-17283340D01*
X90021262Y-17283338D01*
X89916662Y-17178738D01*
X89834473Y-17055733D01*
X89834472Y-17055732D01*
X89777860Y-16919059D01*
X89749000Y-16773967D01*
X89749000Y-16626033D01*
X89777860Y-16480941D01*
X89834472Y-16344268D01*
X89916660Y-16221265D01*
X89916662Y-16221262D01*
X90021262Y-16116662D01*
X90144267Y-16034473D01*
X90144268Y-16034472D01*
X90280941Y-15977860D01*
X90367996Y-15960544D01*
X90426031Y-15949000D01*
X90573969Y-15949000D01*
X90632004Y-15960544D01*
X90632004Y-15960544D01*
G37*
G36*
X93132004Y-10960544D02*
X93219059Y-10977860D01*
X93355732Y-11034472D01*
X93355733Y-11034473D01*
X93478738Y-11116662D01*
X93583338Y-11221262D01*
X93583340Y-11221265D01*
X93665528Y-11344268D01*
X93722140Y-11480941D01*
X93751000Y-11626033D01*
X93751000Y-11773967D01*
X93722140Y-11919059D01*
X93665528Y-12055732D01*
X93665527Y-12055733D01*
X93583338Y-12178738D01*
X93478738Y-12283338D01*
X93478735Y-12283340D01*
X93355732Y-12365528D01*
X93219059Y-12422140D01*
X93132004Y-12439456D01*
X93073969Y-12451000D01*
X92926031Y-12451000D01*
X92867996Y-12439456D01*
X92780941Y-12422140D01*
X92644268Y-12365528D01*
X92521265Y-12283340D01*
X92521262Y-12283338D01*
X92416662Y-12178738D01*
X92334473Y-12055733D01*
X92334472Y-12055732D01*
X92277860Y-11919059D01*
X92249000Y-11773967D01*
X92249000Y-11626033D01*
X92277860Y-11480941D01*
X92334472Y-11344268D01*
X92416660Y-11221265D01*
X92416662Y-11221262D01*
X92521262Y-11116662D01*
X92644267Y-11034473D01*
X92644268Y-11034472D01*
X92780941Y-10977860D01*
X92867996Y-10960544D01*
X92926031Y-10949000D01*
X93073969Y-10949000D01*
X93132004Y-10960544D01*
X93132004Y-10960544D01*
G37*
G36*
X95632004Y-10960544D02*
X95719059Y-10977860D01*
X95855732Y-11034472D01*
X95855733Y-11034473D01*
X95978738Y-11116662D01*
X96083338Y-11221262D01*
X96083340Y-11221265D01*
X96165528Y-11344268D01*
X96222140Y-11480941D01*
X96251000Y-11626033D01*
X96251000Y-11773967D01*
X96222140Y-11919059D01*
X96165528Y-12055732D01*
X96165527Y-12055733D01*
X96083338Y-12178738D01*
X95978738Y-12283338D01*
X95978735Y-12283340D01*
X95855732Y-12365528D01*
X95719059Y-12422140D01*
X95632004Y-12439456D01*
X95573969Y-12451000D01*
X95426031Y-12451000D01*
X95367996Y-12439456D01*
X95280941Y-12422140D01*
X95144268Y-12365528D01*
X95021265Y-12283340D01*
X95021262Y-12283338D01*
X94916662Y-12178738D01*
X94834473Y-12055733D01*
X94834472Y-12055732D01*
X94777860Y-11919059D01*
X94749000Y-11773967D01*
X94749000Y-11626033D01*
X94777860Y-11480941D01*
X94834472Y-11344268D01*
X94916660Y-11221265D01*
X94916662Y-11221262D01*
X95021262Y-11116662D01*
X95144267Y-11034473D01*
X95144268Y-11034472D01*
X95280941Y-10977860D01*
X95367996Y-10960544D01*
X95426031Y-10949000D01*
X95573969Y-10949000D01*
X95632004Y-10960544D01*
X95632004Y-10960544D01*
G37*
G36*
X90632004Y-10960544D02*
X90719059Y-10977860D01*
X90855732Y-11034472D01*
X90855733Y-11034473D01*
X90978738Y-11116662D01*
X91083338Y-11221262D01*
X91083340Y-11221265D01*
X91165528Y-11344268D01*
X91222140Y-11480941D01*
X91251000Y-11626033D01*
X91251000Y-11773967D01*
X91222140Y-11919059D01*
X91165528Y-12055732D01*
X91165527Y-12055733D01*
X91083338Y-12178738D01*
X90978738Y-12283338D01*
X90978735Y-12283340D01*
X90855732Y-12365528D01*
X90719059Y-12422140D01*
X90632004Y-12439456D01*
X90573969Y-12451000D01*
X90426031Y-12451000D01*
X90367996Y-12439456D01*
X90280941Y-12422140D01*
X90144268Y-12365528D01*
X90021265Y-12283340D01*
X90021262Y-12283338D01*
X89916662Y-12178738D01*
X89834473Y-12055733D01*
X89834472Y-12055732D01*
X89777860Y-11919059D01*
X89749000Y-11773967D01*
X89749000Y-11626033D01*
X89777860Y-11480941D01*
X89834472Y-11344268D01*
X89916660Y-11221265D01*
X89916662Y-11221262D01*
X90021262Y-11116662D01*
X90144267Y-11034473D01*
X90144268Y-11034472D01*
X90280941Y-10977860D01*
X90367996Y-10960544D01*
X90426031Y-10949000D01*
X90573969Y-10949000D01*
X90632004Y-10960544D01*
X90632004Y-10960544D01*
G37*
G36*
X93132004Y-8460544D02*
X93219059Y-8477860D01*
X93355732Y-8534472D01*
X93355733Y-8534473D01*
X93478738Y-8616662D01*
X93583338Y-8721262D01*
X93583340Y-8721265D01*
X93665528Y-8844268D01*
X93722140Y-8980941D01*
X93751000Y-9126033D01*
X93751000Y-9273967D01*
X93722140Y-9419059D01*
X93665528Y-9555732D01*
X93665527Y-9555733D01*
X93583338Y-9678738D01*
X93478738Y-9783338D01*
X93478735Y-9783340D01*
X93355732Y-9865528D01*
X93219059Y-9922140D01*
X93132004Y-9939456D01*
X93073969Y-9951000D01*
X92926031Y-9951000D01*
X92867996Y-9939456D01*
X92780941Y-9922140D01*
X92644268Y-9865528D01*
X92521265Y-9783340D01*
X92521262Y-9783338D01*
X92416662Y-9678738D01*
X92334473Y-9555733D01*
X92334472Y-9555732D01*
X92277860Y-9419059D01*
X92249000Y-9273967D01*
X92249000Y-9126033D01*
X92277860Y-8980941D01*
X92334472Y-8844268D01*
X92416660Y-8721265D01*
X92416662Y-8721262D01*
X92521262Y-8616662D01*
X92644267Y-8534473D01*
X92644268Y-8534472D01*
X92780941Y-8477860D01*
X92867996Y-8460544D01*
X92926031Y-8449000D01*
X93073969Y-8449000D01*
X93132004Y-8460544D01*
X93132004Y-8460544D01*
G37*
G36*
X95632004Y-8460544D02*
X95719059Y-8477860D01*
X95855732Y-8534472D01*
X95855733Y-8534473D01*
X95978738Y-8616662D01*
X96083338Y-8721262D01*
X96083340Y-8721265D01*
X96165528Y-8844268D01*
X96222140Y-8980941D01*
X96251000Y-9126033D01*
X96251000Y-9273967D01*
X96222140Y-9419059D01*
X96165528Y-9555732D01*
X96165527Y-9555733D01*
X96083338Y-9678738D01*
X95978738Y-9783338D01*
X95978735Y-9783340D01*
X95855732Y-9865528D01*
X95719059Y-9922140D01*
X95632004Y-9939456D01*
X95573969Y-9951000D01*
X95426031Y-9951000D01*
X95367996Y-9939456D01*
X95280941Y-9922140D01*
X95144268Y-9865528D01*
X95021265Y-9783340D01*
X95021262Y-9783338D01*
X94916662Y-9678738D01*
X94834473Y-9555733D01*
X94834472Y-9555732D01*
X94777860Y-9419059D01*
X94749000Y-9273967D01*
X94749000Y-9126033D01*
X94777860Y-8980941D01*
X94834472Y-8844268D01*
X94916660Y-8721265D01*
X94916662Y-8721262D01*
X95021262Y-8616662D01*
X95144267Y-8534473D01*
X95144268Y-8534472D01*
X95280941Y-8477860D01*
X95367996Y-8460544D01*
X95426031Y-8449000D01*
X95573969Y-8449000D01*
X95632004Y-8460544D01*
X95632004Y-8460544D01*
G37*
G36*
X90632004Y-8460544D02*
X90719059Y-8477860D01*
X90855732Y-8534472D01*
X90855733Y-8534473D01*
X90978738Y-8616662D01*
X91083338Y-8721262D01*
X91083340Y-8721265D01*
X91165528Y-8844268D01*
X91222140Y-8980941D01*
X91251000Y-9126033D01*
X91251000Y-9273967D01*
X91222140Y-9419059D01*
X91165528Y-9555732D01*
X91165527Y-9555733D01*
X91083338Y-9678738D01*
X90978738Y-9783338D01*
X90978735Y-9783340D01*
X90855732Y-9865528D01*
X90719059Y-9922140D01*
X90632004Y-9939456D01*
X90573969Y-9951000D01*
X90426031Y-9951000D01*
X90367996Y-9939456D01*
X90280941Y-9922140D01*
X90144268Y-9865528D01*
X90021265Y-9783340D01*
X90021262Y-9783338D01*
X89916662Y-9678738D01*
X89834473Y-9555733D01*
X89834472Y-9555732D01*
X89777860Y-9419059D01*
X89749000Y-9273967D01*
X89749000Y-9126033D01*
X89777860Y-8980941D01*
X89834472Y-8844268D01*
X89916660Y-8721265D01*
X89916662Y-8721262D01*
X90021262Y-8616662D01*
X90144267Y-8534473D01*
X90144268Y-8534472D01*
X90280941Y-8477860D01*
X90367996Y-8460544D01*
X90426031Y-8449000D01*
X90573969Y-8449000D01*
X90632004Y-8460544D01*
X90632004Y-8460544D01*
G37*
G36*
X90632004Y-5960544D02*
X90719059Y-5977860D01*
X90855732Y-6034472D01*
X90855733Y-6034473D01*
X90978738Y-6116662D01*
X91083338Y-6221262D01*
X91083340Y-6221265D01*
X91165528Y-6344268D01*
X91222140Y-6480941D01*
X91251000Y-6626033D01*
X91251000Y-6773967D01*
X91222140Y-6919059D01*
X91165528Y-7055732D01*
X91165527Y-7055733D01*
X91083338Y-7178738D01*
X90978738Y-7283338D01*
X90978735Y-7283340D01*
X90855732Y-7365528D01*
X90719059Y-7422140D01*
X90632004Y-7439456D01*
X90573969Y-7451000D01*
X90426031Y-7451000D01*
X90367996Y-7439456D01*
X90280941Y-7422140D01*
X90144268Y-7365528D01*
X90021265Y-7283340D01*
X90021262Y-7283338D01*
X89916662Y-7178738D01*
X89834473Y-7055733D01*
X89834472Y-7055732D01*
X89777860Y-6919059D01*
X89749000Y-6773967D01*
X89749000Y-6626033D01*
X89777860Y-6480941D01*
X89834472Y-6344268D01*
X89916660Y-6221265D01*
X89916662Y-6221262D01*
X90021262Y-6116662D01*
X90144267Y-6034473D01*
X90144268Y-6034472D01*
X90280941Y-5977860D01*
X90367996Y-5960544D01*
X90426031Y-5949000D01*
X90573969Y-5949000D01*
X90632004Y-5960544D01*
X90632004Y-5960544D01*
G37*
G36*
X93132004Y-5960544D02*
X93219059Y-5977860D01*
X93355732Y-6034472D01*
X93355733Y-6034473D01*
X93478738Y-6116662D01*
X93583338Y-6221262D01*
X93583340Y-6221265D01*
X93665528Y-6344268D01*
X93722140Y-6480941D01*
X93751000Y-6626033D01*
X93751000Y-6773967D01*
X93722140Y-6919059D01*
X93665528Y-7055732D01*
X93665527Y-7055733D01*
X93583338Y-7178738D01*
X93478738Y-7283338D01*
X93478735Y-7283340D01*
X93355732Y-7365528D01*
X93219059Y-7422140D01*
X93132004Y-7439456D01*
X93073969Y-7451000D01*
X92926031Y-7451000D01*
X92867996Y-7439456D01*
X92780941Y-7422140D01*
X92644268Y-7365528D01*
X92521265Y-7283340D01*
X92521262Y-7283338D01*
X92416662Y-7178738D01*
X92334473Y-7055733D01*
X92334472Y-7055732D01*
X92277860Y-6919059D01*
X92249000Y-6773967D01*
X92249000Y-6626033D01*
X92277860Y-6480941D01*
X92334472Y-6344268D01*
X92416660Y-6221265D01*
X92416662Y-6221262D01*
X92521262Y-6116662D01*
X92644267Y-6034473D01*
X92644268Y-6034472D01*
X92780941Y-5977860D01*
X92867996Y-5960544D01*
X92926031Y-5949000D01*
X93073969Y-5949000D01*
X93132004Y-5960544D01*
X93132004Y-5960544D01*
G37*
G36*
X95632004Y-5960544D02*
X95719059Y-5977860D01*
X95855732Y-6034472D01*
X95855733Y-6034473D01*
X95978738Y-6116662D01*
X96083338Y-6221262D01*
X96083340Y-6221265D01*
X96165528Y-6344268D01*
X96222140Y-6480941D01*
X96251000Y-6626033D01*
X96251000Y-6773967D01*
X96222140Y-6919059D01*
X96165528Y-7055732D01*
X96165527Y-7055733D01*
X96083338Y-7178738D01*
X95978738Y-7283338D01*
X95978735Y-7283340D01*
X95855732Y-7365528D01*
X95719059Y-7422140D01*
X95632004Y-7439456D01*
X95573969Y-7451000D01*
X95426031Y-7451000D01*
X95367996Y-7439456D01*
X95280941Y-7422140D01*
X95144268Y-7365528D01*
X95021265Y-7283340D01*
X95021262Y-7283338D01*
X94916662Y-7178738D01*
X94834473Y-7055733D01*
X94834472Y-7055732D01*
X94777860Y-6919059D01*
X94749000Y-6773967D01*
X94749000Y-6626033D01*
X94777860Y-6480941D01*
X94834472Y-6344268D01*
X94916660Y-6221265D01*
X94916662Y-6221262D01*
X95021262Y-6116662D01*
X95144267Y-6034473D01*
X95144268Y-6034472D01*
X95280941Y-5977860D01*
X95367996Y-5960544D01*
X95426031Y-5949000D01*
X95573969Y-5949000D01*
X95632004Y-5960544D01*
X95632004Y-5960544D01*
G37*
G36*
X5362921Y-1297056D02*
X5604515Y-1345112D01*
X6059668Y-1533643D01*
X6399513Y-1760721D01*
X6469297Y-1807349D01*
X6817651Y-2155703D01*
X7091358Y-2565334D01*
X7279888Y-3020486D01*
X7376000Y-3503672D01*
X7376000Y-3996328D01*
X7279888Y-4479514D01*
X7091358Y-4934666D01*
X6817651Y-5344297D01*
X6469297Y-5692651D01*
X6469294Y-5692653D01*
X6059668Y-5966357D01*
X6059667Y-5966358D01*
X6059666Y-5966358D01*
X5926356Y-6021577D01*
X5604515Y-6154888D01*
X5362921Y-6202944D01*
X5121328Y-6251000D01*
X4628672Y-6251000D01*
X4387079Y-6202944D01*
X4145485Y-6154888D01*
X3823644Y-6021577D01*
X3690334Y-5966358D01*
X3690333Y-5966358D01*
X3690332Y-5966357D01*
X3280706Y-5692653D01*
X3280703Y-5692651D01*
X2932349Y-5344297D01*
X2658642Y-4934666D01*
X2470112Y-4479514D01*
X2374000Y-3996328D01*
X2374000Y-3503672D01*
X2470112Y-3020486D01*
X2658642Y-2565334D01*
X2932349Y-2155703D01*
X3280703Y-1807349D01*
X3350487Y-1760721D01*
X3690332Y-1533643D01*
X4145485Y-1345112D01*
X4387079Y-1297056D01*
X4628672Y-1249000D01*
X5121328Y-1249000D01*
X5362921Y-1297056D01*
X5362921Y-1297056D01*
G37*
G36*
X101612921Y-1297056D02*
X101854515Y-1345112D01*
X102309668Y-1533643D01*
X102649513Y-1760721D01*
X102719297Y-1807349D01*
X103067651Y-2155703D01*
X103341358Y-2565334D01*
X103529888Y-3020486D01*
X103626000Y-3503672D01*
X103626000Y-3996328D01*
X103529888Y-4479514D01*
X103341358Y-4934666D01*
X103067651Y-5344297D01*
X102719297Y-5692651D01*
X102719294Y-5692653D01*
X102309668Y-5966357D01*
X102309667Y-5966358D01*
X102309666Y-5966358D01*
X102176356Y-6021577D01*
X101854515Y-6154888D01*
X101612921Y-6202944D01*
X101371328Y-6251000D01*
X100878672Y-6251000D01*
X100637079Y-6202944D01*
X100395485Y-6154888D01*
X100073644Y-6021577D01*
X99940334Y-5966358D01*
X99940333Y-5966358D01*
X99940332Y-5966357D01*
X99530706Y-5692653D01*
X99530703Y-5692651D01*
X99182349Y-5344297D01*
X98908642Y-4934666D01*
X98720112Y-4479514D01*
X98624000Y-3996328D01*
X98624000Y-3503672D01*
X98720112Y-3020486D01*
X98908642Y-2565334D01*
X99182349Y-2155703D01*
X99530703Y-1807349D01*
X99600487Y-1760721D01*
X99940332Y-1533643D01*
X100395485Y-1345112D01*
X100637079Y-1297056D01*
X100878672Y-1249000D01*
X101371328Y-1249000D01*
X101612921Y-1297056D01*
X101612921Y-1297056D01*
G37*
G36*
X38660721Y-3170174D02*
X38760995Y-3211709D01*
X38851245Y-3272012D01*
X38927988Y-3348755D01*
X38988291Y-3439005D01*
X39029826Y-3539279D01*
X39051000Y-3645730D01*
X39051000Y-3754270D01*
X39029826Y-3860721D01*
X38988291Y-3960995D01*
X38927988Y-4051245D01*
X38851245Y-4127988D01*
X38760995Y-4188291D01*
X38660721Y-4229826D01*
X38554270Y-4251000D01*
X38445730Y-4251000D01*
X38339279Y-4229826D01*
X38239005Y-4188291D01*
X38148755Y-4127988D01*
X38072012Y-4051245D01*
X38011709Y-3960995D01*
X37970174Y-3860721D01*
X37949000Y-3754270D01*
X37949000Y-3645730D01*
X37970174Y-3539279D01*
X38011709Y-3439005D01*
X38072012Y-3348755D01*
X38148755Y-3272012D01*
X38239005Y-3211709D01*
X38339279Y-3170174D01*
X38445730Y-3149000D01*
X38554270Y-3149000D01*
X38660721Y-3170174D01*
X38660721Y-3170174D01*
G37*
G36*
X67660721Y-3170174D02*
X67760995Y-3211709D01*
X67851245Y-3272012D01*
X67927988Y-3348755D01*
X67988291Y-3439005D01*
X68029826Y-3539279D01*
X68051000Y-3645730D01*
X68051000Y-3754270D01*
X68029826Y-3860721D01*
X67988291Y-3960995D01*
X67927988Y-4051245D01*
X67851245Y-4127988D01*
X67760995Y-4188291D01*
X67660721Y-4229826D01*
X67554270Y-4251000D01*
X67445730Y-4251000D01*
X67339279Y-4229826D01*
X67239005Y-4188291D01*
X67148755Y-4127988D01*
X67072012Y-4051245D01*
X67011709Y-3960995D01*
X66970174Y-3860721D01*
X66949000Y-3754270D01*
X66949000Y-3645730D01*
X66970174Y-3539279D01*
X67011709Y-3439005D01*
X67072012Y-3348755D01*
X67148755Y-3272012D01*
X67239005Y-3211709D01*
X67339279Y-3170174D01*
X67445730Y-3149000D01*
X67554270Y-3149000D01*
X67660721Y-3170174D01*
X67660721Y-3170174D01*
G37*
G36*
X67660721Y-1070174D02*
X67760995Y-1111709D01*
X67851245Y-1172012D01*
X67927988Y-1248755D01*
X67988291Y-1339005D01*
X68029826Y-1439279D01*
X68051000Y-1545730D01*
X68051000Y-1654270D01*
X68029826Y-1760721D01*
X67988291Y-1860995D01*
X67927988Y-1951245D01*
X67851245Y-2027988D01*
X67760995Y-2088291D01*
X67660721Y-2129826D01*
X67554270Y-2151000D01*
X67445730Y-2151000D01*
X67339279Y-2129826D01*
X67239005Y-2088291D01*
X67148755Y-2027988D01*
X67072012Y-1951245D01*
X67011709Y-1860995D01*
X66970174Y-1760721D01*
X66949000Y-1654270D01*
X66949000Y-1545730D01*
X66970174Y-1439279D01*
X67011709Y-1339005D01*
X67072012Y-1248755D01*
X67148755Y-1172012D01*
X67239005Y-1111709D01*
X67339279Y-1070174D01*
X67445730Y-1049000D01*
X67554270Y-1049000D01*
X67660721Y-1070174D01*
X67660721Y-1070174D01*
G37*
G36*
X38660721Y-1070174D02*
X38760995Y-1111709D01*
X38851245Y-1172012D01*
X38927988Y-1248755D01*
X38988291Y-1339005D01*
X39029826Y-1439279D01*
X39051000Y-1545730D01*
X39051000Y-1654270D01*
X39029826Y-1760721D01*
X38988291Y-1860995D01*
X38927988Y-1951245D01*
X38851245Y-2027988D01*
X38760995Y-2088291D01*
X38660721Y-2129826D01*
X38554270Y-2151000D01*
X38445730Y-2151000D01*
X38339279Y-2129826D01*
X38239005Y-2088291D01*
X38148755Y-2027988D01*
X38072012Y-1951245D01*
X38011709Y-1860995D01*
X37970174Y-1760721D01*
X37949000Y-1654270D01*
X37949000Y-1545730D01*
X37970174Y-1439279D01*
X38011709Y-1339005D01*
X38072012Y-1248755D01*
X38148755Y-1172012D01*
X38239005Y-1111709D01*
X38339279Y-1070174D01*
X38445730Y-1049000D01*
X38554270Y-1049000D01*
X38660721Y-1070174D01*
X38660721Y-1070174D01*
G37*
M02*
