G04 #@! TF.GenerationSoftware,KiCad,Pcbnew,5.0.2-bee76a0~70~ubuntu16.04.1*
G04 #@! TF.CreationDate,2019-08-24T21:48:25-07:00*
G04 #@! TF.ProjectId,endcap,656e6463-6170-42e6-9b69-6361645f7063,rev?*
G04 #@! TF.SameCoordinates,PX2faf080PY2faf080*
G04 #@! TF.FileFunction,Copper,L1,Top*
G04 #@! TF.FilePolarity,Positive*
%FSLAX46Y46*%
G04 Gerber Fmt 4.6, Leading zero omitted, Abs format (unit mm)*
G04 Created by KiCad (PCBNEW 5.0.2-bee76a0~70~ubuntu16.04.1) date Sat 24 Aug 2019 09:48:25 PM PDT*
%MOMM*%
%LPD*%
G01*
G04 APERTURE LIST*
G04 #@! TA.AperFunction,ComponentPad*
%ADD10C,4.900000*%
G04 #@! TD*
G04 #@! TA.AperFunction,Conductor*
%ADD11C,0.200000*%
G04 #@! TD*
G04 APERTURE END LIST*
D10*
G04 #@! TO.P,MH1,1*
G04 #@! TO.N,GND*
X4875000Y-3750000D03*
G04 #@! TD*
G04 #@! TO.P,MH2,1*
G04 #@! TO.N,GND*
X101125000Y-3750000D03*
G04 #@! TD*
G04 #@! TO.P,MH3,1*
G04 #@! TO.N,GND*
X101125000Y-51250000D03*
G04 #@! TD*
G04 #@! TO.P,MH4,1*
G04 #@! TO.N,GND*
X4875000Y-51250000D03*
G04 #@! TD*
D11*
G04 #@! TO.N,GND*
G36*
X104426658Y-540949D02*
X104819014Y-719342D01*
X105145532Y-1000688D01*
X105379961Y-1362368D01*
X105508162Y-1791043D01*
X105525000Y-2017627D01*
X105525001Y-9706433D01*
X104844694Y-10046588D01*
X104814665Y-10052561D01*
X104760903Y-10088483D01*
X104745734Y-10096068D01*
X104722095Y-10114414D01*
X104657545Y-10157545D01*
X104647876Y-10172015D01*
X104634131Y-10182683D01*
X104595690Y-10250118D01*
X104552561Y-10314666D01*
X104549166Y-10331734D01*
X104540549Y-10346850D01*
X104530842Y-10423853D01*
X104525000Y-10453222D01*
X104525000Y-10470196D01*
X104516915Y-10534332D01*
X104525000Y-10563856D01*
X104525001Y-44436141D01*
X104516915Y-44465668D01*
X104525001Y-44529812D01*
X104525001Y-44546779D01*
X104530841Y-44576136D01*
X104540549Y-44653150D01*
X104549167Y-44668269D01*
X104552562Y-44685335D01*
X104595687Y-44749876D01*
X104634131Y-44817317D01*
X104647878Y-44827986D01*
X104657546Y-44842455D01*
X104722089Y-44885581D01*
X104745734Y-44903932D01*
X104760907Y-44911519D01*
X104814666Y-44947439D01*
X104844694Y-44953412D01*
X105525000Y-45293566D01*
X105525001Y-52966151D01*
X105459052Y-53426656D01*
X105280658Y-53819015D01*
X104999312Y-54145532D01*
X104637631Y-54379962D01*
X104208957Y-54508162D01*
X103982374Y-54525000D01*
X2033842Y-54525000D01*
X1573344Y-54459052D01*
X1180985Y-54280658D01*
X854468Y-53999312D01*
X620038Y-53637631D01*
X491838Y-53208957D01*
X475000Y-52982374D01*
X475000Y-45293566D01*
X1155309Y-44953411D01*
X1185334Y-44947439D01*
X1239088Y-44911522D01*
X1254266Y-44903933D01*
X1277916Y-44885578D01*
X1342455Y-44842455D01*
X1352122Y-44827987D01*
X1365869Y-44817318D01*
X1404311Y-44749880D01*
X1447439Y-44685335D01*
X1450834Y-44668267D01*
X1459451Y-44653151D01*
X1469158Y-44576149D01*
X1475000Y-44546779D01*
X1475000Y-44529804D01*
X1483085Y-44465668D01*
X1475000Y-44436144D01*
X1475000Y-39975057D01*
X5550000Y-39975057D01*
X5550000Y-41824943D01*
X6257920Y-43534013D01*
X7565987Y-44842080D01*
X9275057Y-45550000D01*
X11124943Y-45550000D01*
X12834013Y-44842080D01*
X14142080Y-43534013D01*
X14850000Y-41824943D01*
X14850000Y-39975057D01*
X14142080Y-38265987D01*
X12834013Y-36957920D01*
X11124943Y-36250000D01*
X9275057Y-36250000D01*
X7565987Y-36957920D01*
X6257920Y-38265987D01*
X5550000Y-39975057D01*
X1475000Y-39975057D01*
X1475000Y-35600000D01*
X16565695Y-35600000D01*
X16575000Y-35646779D01*
X16575001Y-47653216D01*
X16565695Y-47700000D01*
X16602561Y-47885335D01*
X16707545Y-48042455D01*
X16864665Y-48147439D01*
X17003221Y-48175000D01*
X17003222Y-48175000D01*
X17050000Y-48184305D01*
X17096779Y-48175000D01*
X34503222Y-48175000D01*
X34550000Y-48184305D01*
X34735335Y-48147439D01*
X34892455Y-48042455D01*
X34997439Y-47885335D01*
X35025000Y-47746779D01*
X35034305Y-47700000D01*
X35025000Y-47653221D01*
X35025000Y-46851360D01*
X42450000Y-46851360D01*
X42450000Y-47348640D01*
X42640301Y-47808068D01*
X42991932Y-48159699D01*
X43451360Y-48350000D01*
X43948640Y-48350000D01*
X44408068Y-48159699D01*
X44759699Y-47808068D01*
X44950000Y-47348640D01*
X44950000Y-46851360D01*
X48650000Y-46851360D01*
X48650000Y-47348640D01*
X48840301Y-47808068D01*
X49191932Y-48159699D01*
X49651360Y-48350000D01*
X50148640Y-48350000D01*
X50608068Y-48159699D01*
X50959699Y-47808068D01*
X51150000Y-47348640D01*
X51150000Y-46851360D01*
X54850000Y-46851360D01*
X54850000Y-47348640D01*
X55040301Y-47808068D01*
X55391932Y-48159699D01*
X55851360Y-48350000D01*
X56348640Y-48350000D01*
X56808068Y-48159699D01*
X57159699Y-47808068D01*
X57350000Y-47348640D01*
X57350000Y-46851360D01*
X61050000Y-46851360D01*
X61050000Y-47348640D01*
X61240301Y-47808068D01*
X61591932Y-48159699D01*
X62051360Y-48350000D01*
X62548640Y-48350000D01*
X63008068Y-48159699D01*
X63359699Y-47808068D01*
X63550000Y-47348640D01*
X63550000Y-46851360D01*
X63359699Y-46391932D01*
X63008068Y-46040301D01*
X62884801Y-45989242D01*
X67540000Y-45989242D01*
X67540000Y-47540758D01*
X68133739Y-48974173D01*
X69230827Y-50071261D01*
X70664242Y-50665000D01*
X72215758Y-50665000D01*
X73649173Y-50071261D01*
X74746261Y-48974173D01*
X75340000Y-47540758D01*
X75340000Y-45989242D01*
X77700000Y-45989242D01*
X77700000Y-47540758D01*
X78293739Y-48974173D01*
X79390827Y-50071261D01*
X80824242Y-50665000D01*
X82375758Y-50665000D01*
X83809173Y-50071261D01*
X84906261Y-48974173D01*
X85500000Y-47540758D01*
X85500000Y-45989242D01*
X84906261Y-44555827D01*
X84454784Y-44104350D01*
X89000000Y-44104350D01*
X89000000Y-45695650D01*
X89608963Y-47165818D01*
X90734182Y-48291037D01*
X92204350Y-48900000D01*
X93795650Y-48900000D01*
X95265818Y-48291037D01*
X96391037Y-47165818D01*
X97000000Y-45695650D01*
X97000000Y-44104350D01*
X96391037Y-42634182D01*
X95265818Y-41508963D01*
X93795650Y-40900000D01*
X92204350Y-40900000D01*
X90734182Y-41508963D01*
X89608963Y-42634182D01*
X89000000Y-44104350D01*
X84454784Y-44104350D01*
X83809173Y-43458739D01*
X82375758Y-42865000D01*
X80824242Y-42865000D01*
X79390827Y-43458739D01*
X78293739Y-44555827D01*
X77700000Y-45989242D01*
X75340000Y-45989242D01*
X74746261Y-44555827D01*
X73649173Y-43458739D01*
X72215758Y-42865000D01*
X70664242Y-42865000D01*
X69230827Y-43458739D01*
X68133739Y-44555827D01*
X67540000Y-45989242D01*
X62884801Y-45989242D01*
X62548640Y-45850000D01*
X62051360Y-45850000D01*
X61591932Y-46040301D01*
X61240301Y-46391932D01*
X61050000Y-46851360D01*
X57350000Y-46851360D01*
X57159699Y-46391932D01*
X56808068Y-46040301D01*
X56348640Y-45850000D01*
X55851360Y-45850000D01*
X55391932Y-46040301D01*
X55040301Y-46391932D01*
X54850000Y-46851360D01*
X51150000Y-46851360D01*
X50959699Y-46391932D01*
X50608068Y-46040301D01*
X50148640Y-45850000D01*
X49651360Y-45850000D01*
X49191932Y-46040301D01*
X48840301Y-46391932D01*
X48650000Y-46851360D01*
X44950000Y-46851360D01*
X44759699Y-46391932D01*
X44408068Y-46040301D01*
X43948640Y-45850000D01*
X43451360Y-45850000D01*
X42991932Y-46040301D01*
X42640301Y-46391932D01*
X42450000Y-46851360D01*
X35025000Y-46851360D01*
X35025000Y-35646779D01*
X35034305Y-35600000D01*
X34997439Y-35414665D01*
X34892455Y-35257545D01*
X34735335Y-35152561D01*
X34596779Y-35125000D01*
X34596778Y-35125000D01*
X34550000Y-35115695D01*
X34503221Y-35125000D01*
X17096778Y-35125000D01*
X17050000Y-35115695D01*
X17003221Y-35125000D01*
X16864665Y-35152561D01*
X16707545Y-35257545D01*
X16602561Y-35414665D01*
X16565695Y-35600000D01*
X1475000Y-35600000D01*
X1475000Y-31481196D01*
X89400000Y-31481196D01*
X89400000Y-31918804D01*
X89567465Y-32323100D01*
X89876900Y-32632535D01*
X90281196Y-32800000D01*
X90718804Y-32800000D01*
X91123100Y-32632535D01*
X91432535Y-32323100D01*
X91600000Y-31918804D01*
X91600000Y-31481196D01*
X91900000Y-31481196D01*
X91900000Y-31918804D01*
X92067465Y-32323100D01*
X92376900Y-32632535D01*
X92781196Y-32800000D01*
X93218804Y-32800000D01*
X93623100Y-32632535D01*
X93932535Y-32323100D01*
X94100000Y-31918804D01*
X94100000Y-31481196D01*
X94400000Y-31481196D01*
X94400000Y-31918804D01*
X94567465Y-32323100D01*
X94876900Y-32632535D01*
X95281196Y-32800000D01*
X95718804Y-32800000D01*
X96123100Y-32632535D01*
X96432535Y-32323100D01*
X96600000Y-31918804D01*
X96600000Y-31481196D01*
X96432535Y-31076900D01*
X96123100Y-30767465D01*
X95718804Y-30600000D01*
X95281196Y-30600000D01*
X94876900Y-30767465D01*
X94567465Y-31076900D01*
X94400000Y-31481196D01*
X94100000Y-31481196D01*
X93932535Y-31076900D01*
X93623100Y-30767465D01*
X93218804Y-30600000D01*
X92781196Y-30600000D01*
X92376900Y-30767465D01*
X92067465Y-31076900D01*
X91900000Y-31481196D01*
X91600000Y-31481196D01*
X91432535Y-31076900D01*
X91123100Y-30767465D01*
X90718804Y-30600000D01*
X90281196Y-30600000D01*
X89876900Y-30767465D01*
X89567465Y-31076900D01*
X89400000Y-31481196D01*
X1475000Y-31481196D01*
X1475000Y-28981196D01*
X89400000Y-28981196D01*
X89400000Y-29418804D01*
X89567465Y-29823100D01*
X89876900Y-30132535D01*
X90281196Y-30300000D01*
X90718804Y-30300000D01*
X91123100Y-30132535D01*
X91432535Y-29823100D01*
X91600000Y-29418804D01*
X91600000Y-28981196D01*
X91900000Y-28981196D01*
X91900000Y-29418804D01*
X92067465Y-29823100D01*
X92376900Y-30132535D01*
X92781196Y-30300000D01*
X93218804Y-30300000D01*
X93623100Y-30132535D01*
X93932535Y-29823100D01*
X94100000Y-29418804D01*
X94100000Y-28981196D01*
X94400000Y-28981196D01*
X94400000Y-29418804D01*
X94567465Y-29823100D01*
X94876900Y-30132535D01*
X95281196Y-30300000D01*
X95718804Y-30300000D01*
X96123100Y-30132535D01*
X96432535Y-29823100D01*
X96600000Y-29418804D01*
X96600000Y-28981196D01*
X96432535Y-28576900D01*
X96123100Y-28267465D01*
X95718804Y-28100000D01*
X95281196Y-28100000D01*
X94876900Y-28267465D01*
X94567465Y-28576900D01*
X94400000Y-28981196D01*
X94100000Y-28981196D01*
X93932535Y-28576900D01*
X93623100Y-28267465D01*
X93218804Y-28100000D01*
X92781196Y-28100000D01*
X92376900Y-28267465D01*
X92067465Y-28576900D01*
X91900000Y-28981196D01*
X91600000Y-28981196D01*
X91432535Y-28576900D01*
X91123100Y-28267465D01*
X90718804Y-28100000D01*
X90281196Y-28100000D01*
X89876900Y-28267465D01*
X89567465Y-28576900D01*
X89400000Y-28981196D01*
X1475000Y-28981196D01*
X1475000Y-26481196D01*
X89400000Y-26481196D01*
X89400000Y-26918804D01*
X89567465Y-27323100D01*
X89876900Y-27632535D01*
X90281196Y-27800000D01*
X90718804Y-27800000D01*
X91123100Y-27632535D01*
X91432535Y-27323100D01*
X91600000Y-26918804D01*
X91600000Y-26481196D01*
X91900000Y-26481196D01*
X91900000Y-26918804D01*
X92067465Y-27323100D01*
X92376900Y-27632535D01*
X92781196Y-27800000D01*
X93218804Y-27800000D01*
X93623100Y-27632535D01*
X93932535Y-27323100D01*
X94100000Y-26918804D01*
X94100000Y-26481196D01*
X94400000Y-26481196D01*
X94400000Y-26918804D01*
X94567465Y-27323100D01*
X94876900Y-27632535D01*
X95281196Y-27800000D01*
X95718804Y-27800000D01*
X96123100Y-27632535D01*
X96432535Y-27323100D01*
X96600000Y-26918804D01*
X96600000Y-26481196D01*
X96432535Y-26076900D01*
X96123100Y-25767465D01*
X95718804Y-25600000D01*
X95281196Y-25600000D01*
X94876900Y-25767465D01*
X94567465Y-26076900D01*
X94400000Y-26481196D01*
X94100000Y-26481196D01*
X93932535Y-26076900D01*
X93623100Y-25767465D01*
X93218804Y-25600000D01*
X92781196Y-25600000D01*
X92376900Y-25767465D01*
X92067465Y-26076900D01*
X91900000Y-26481196D01*
X91600000Y-26481196D01*
X91432535Y-26076900D01*
X91123100Y-25767465D01*
X90718804Y-25600000D01*
X90281196Y-25600000D01*
X89876900Y-25767465D01*
X89567465Y-26076900D01*
X89400000Y-26481196D01*
X1475000Y-26481196D01*
X1475000Y-21481196D01*
X89400000Y-21481196D01*
X89400000Y-21918804D01*
X89567465Y-22323100D01*
X89876900Y-22632535D01*
X90281196Y-22800000D01*
X90718804Y-22800000D01*
X91123100Y-22632535D01*
X91432535Y-22323100D01*
X91600000Y-21918804D01*
X91600000Y-21481196D01*
X91900000Y-21481196D01*
X91900000Y-21918804D01*
X92067465Y-22323100D01*
X92376900Y-22632535D01*
X92781196Y-22800000D01*
X93218804Y-22800000D01*
X93623100Y-22632535D01*
X93932535Y-22323100D01*
X94100000Y-21918804D01*
X94100000Y-21481196D01*
X94400000Y-21481196D01*
X94400000Y-21918804D01*
X94567465Y-22323100D01*
X94876900Y-22632535D01*
X95281196Y-22800000D01*
X95718804Y-22800000D01*
X96123100Y-22632535D01*
X96432535Y-22323100D01*
X96600000Y-21918804D01*
X96600000Y-21481196D01*
X96432535Y-21076900D01*
X96123100Y-20767465D01*
X95718804Y-20600000D01*
X95281196Y-20600000D01*
X94876900Y-20767465D01*
X94567465Y-21076900D01*
X94400000Y-21481196D01*
X94100000Y-21481196D01*
X93932535Y-21076900D01*
X93623100Y-20767465D01*
X93218804Y-20600000D01*
X92781196Y-20600000D01*
X92376900Y-20767465D01*
X92067465Y-21076900D01*
X91900000Y-21481196D01*
X91600000Y-21481196D01*
X91432535Y-21076900D01*
X91123100Y-20767465D01*
X90718804Y-20600000D01*
X90281196Y-20600000D01*
X89876900Y-20767465D01*
X89567465Y-21076900D01*
X89400000Y-21481196D01*
X1475000Y-21481196D01*
X1475000Y-18981196D01*
X89400000Y-18981196D01*
X89400000Y-19418804D01*
X89567465Y-19823100D01*
X89876900Y-20132535D01*
X90281196Y-20300000D01*
X90718804Y-20300000D01*
X91123100Y-20132535D01*
X91432535Y-19823100D01*
X91600000Y-19418804D01*
X91600000Y-18981196D01*
X91900000Y-18981196D01*
X91900000Y-19418804D01*
X92067465Y-19823100D01*
X92376900Y-20132535D01*
X92781196Y-20300000D01*
X93218804Y-20300000D01*
X93623100Y-20132535D01*
X93932535Y-19823100D01*
X94100000Y-19418804D01*
X94100000Y-18981196D01*
X94400000Y-18981196D01*
X94400000Y-19418804D01*
X94567465Y-19823100D01*
X94876900Y-20132535D01*
X95281196Y-20300000D01*
X95718804Y-20300000D01*
X96123100Y-20132535D01*
X96432535Y-19823100D01*
X96600000Y-19418804D01*
X96600000Y-18981196D01*
X96432535Y-18576900D01*
X96123100Y-18267465D01*
X95718804Y-18100000D01*
X95281196Y-18100000D01*
X94876900Y-18267465D01*
X94567465Y-18576900D01*
X94400000Y-18981196D01*
X94100000Y-18981196D01*
X93932535Y-18576900D01*
X93623100Y-18267465D01*
X93218804Y-18100000D01*
X92781196Y-18100000D01*
X92376900Y-18267465D01*
X92067465Y-18576900D01*
X91900000Y-18981196D01*
X91600000Y-18981196D01*
X91432535Y-18576900D01*
X91123100Y-18267465D01*
X90718804Y-18100000D01*
X90281196Y-18100000D01*
X89876900Y-18267465D01*
X89567465Y-18576900D01*
X89400000Y-18981196D01*
X1475000Y-18981196D01*
X1475000Y-16481196D01*
X89400000Y-16481196D01*
X89400000Y-16918804D01*
X89567465Y-17323100D01*
X89876900Y-17632535D01*
X90281196Y-17800000D01*
X90718804Y-17800000D01*
X91123100Y-17632535D01*
X91432535Y-17323100D01*
X91600000Y-16918804D01*
X91600000Y-16481196D01*
X91900000Y-16481196D01*
X91900000Y-16918804D01*
X92067465Y-17323100D01*
X92376900Y-17632535D01*
X92781196Y-17800000D01*
X93218804Y-17800000D01*
X93623100Y-17632535D01*
X93932535Y-17323100D01*
X94100000Y-16918804D01*
X94100000Y-16481196D01*
X94400000Y-16481196D01*
X94400000Y-16918804D01*
X94567465Y-17323100D01*
X94876900Y-17632535D01*
X95281196Y-17800000D01*
X95718804Y-17800000D01*
X96123100Y-17632535D01*
X96432535Y-17323100D01*
X96600000Y-16918804D01*
X96600000Y-16481196D01*
X96432535Y-16076900D01*
X96123100Y-15767465D01*
X95718804Y-15600000D01*
X95281196Y-15600000D01*
X94876900Y-15767465D01*
X94567465Y-16076900D01*
X94400000Y-16481196D01*
X94100000Y-16481196D01*
X93932535Y-16076900D01*
X93623100Y-15767465D01*
X93218804Y-15600000D01*
X92781196Y-15600000D01*
X92376900Y-15767465D01*
X92067465Y-16076900D01*
X91900000Y-16481196D01*
X91600000Y-16481196D01*
X91432535Y-16076900D01*
X91123100Y-15767465D01*
X90718804Y-15600000D01*
X90281196Y-15600000D01*
X89876900Y-15767465D01*
X89567465Y-16076900D01*
X89400000Y-16481196D01*
X1475000Y-16481196D01*
X1475000Y-11481196D01*
X89400000Y-11481196D01*
X89400000Y-11918804D01*
X89567465Y-12323100D01*
X89876900Y-12632535D01*
X90281196Y-12800000D01*
X90718804Y-12800000D01*
X91123100Y-12632535D01*
X91432535Y-12323100D01*
X91600000Y-11918804D01*
X91600000Y-11481196D01*
X91900000Y-11481196D01*
X91900000Y-11918804D01*
X92067465Y-12323100D01*
X92376900Y-12632535D01*
X92781196Y-12800000D01*
X93218804Y-12800000D01*
X93623100Y-12632535D01*
X93932535Y-12323100D01*
X94100000Y-11918804D01*
X94100000Y-11481196D01*
X94400000Y-11481196D01*
X94400000Y-11918804D01*
X94567465Y-12323100D01*
X94876900Y-12632535D01*
X95281196Y-12800000D01*
X95718804Y-12800000D01*
X96123100Y-12632535D01*
X96432535Y-12323100D01*
X96600000Y-11918804D01*
X96600000Y-11481196D01*
X96432535Y-11076900D01*
X96123100Y-10767465D01*
X95718804Y-10600000D01*
X95281196Y-10600000D01*
X94876900Y-10767465D01*
X94567465Y-11076900D01*
X94400000Y-11481196D01*
X94100000Y-11481196D01*
X93932535Y-11076900D01*
X93623100Y-10767465D01*
X93218804Y-10600000D01*
X92781196Y-10600000D01*
X92376900Y-10767465D01*
X92067465Y-11076900D01*
X91900000Y-11481196D01*
X91600000Y-11481196D01*
X91432535Y-11076900D01*
X91123100Y-10767465D01*
X90718804Y-10600000D01*
X90281196Y-10600000D01*
X89876900Y-10767465D01*
X89567465Y-11076900D01*
X89400000Y-11481196D01*
X1475000Y-11481196D01*
X1475000Y-10563856D01*
X1483085Y-10534332D01*
X1475000Y-10470196D01*
X1475000Y-10453221D01*
X1469158Y-10423851D01*
X1459451Y-10346849D01*
X1450834Y-10331733D01*
X1447439Y-10314665D01*
X1404311Y-10250120D01*
X1365869Y-10182682D01*
X1352122Y-10172013D01*
X1342455Y-10157545D01*
X1277914Y-10114420D01*
X1254266Y-10096067D01*
X1239091Y-10088479D01*
X1185335Y-10052561D01*
X1155309Y-10046588D01*
X475000Y-9706434D01*
X475000Y-8981196D01*
X89400000Y-8981196D01*
X89400000Y-9418804D01*
X89567465Y-9823100D01*
X89876900Y-10132535D01*
X90281196Y-10300000D01*
X90718804Y-10300000D01*
X91123100Y-10132535D01*
X91432535Y-9823100D01*
X91600000Y-9418804D01*
X91600000Y-8981196D01*
X91900000Y-8981196D01*
X91900000Y-9418804D01*
X92067465Y-9823100D01*
X92376900Y-10132535D01*
X92781196Y-10300000D01*
X93218804Y-10300000D01*
X93623100Y-10132535D01*
X93932535Y-9823100D01*
X94100000Y-9418804D01*
X94100000Y-8981196D01*
X94400000Y-8981196D01*
X94400000Y-9418804D01*
X94567465Y-9823100D01*
X94876900Y-10132535D01*
X95281196Y-10300000D01*
X95718804Y-10300000D01*
X96123100Y-10132535D01*
X96432535Y-9823100D01*
X96600000Y-9418804D01*
X96600000Y-8981196D01*
X96432535Y-8576900D01*
X96123100Y-8267465D01*
X95718804Y-8100000D01*
X95281196Y-8100000D01*
X94876900Y-8267465D01*
X94567465Y-8576900D01*
X94400000Y-8981196D01*
X94100000Y-8981196D01*
X93932535Y-8576900D01*
X93623100Y-8267465D01*
X93218804Y-8100000D01*
X92781196Y-8100000D01*
X92376900Y-8267465D01*
X92067465Y-8576900D01*
X91900000Y-8981196D01*
X91600000Y-8981196D01*
X91432535Y-8576900D01*
X91123100Y-8267465D01*
X90718804Y-8100000D01*
X90281196Y-8100000D01*
X89876900Y-8267465D01*
X89567465Y-8576900D01*
X89400000Y-8981196D01*
X475000Y-8981196D01*
X475000Y-5712208D01*
X37558646Y-5712208D01*
X37558646Y-5887790D01*
X37596707Y-6079132D01*
X37596707Y-6079134D01*
X37615465Y-6124419D01*
X37663898Y-6241349D01*
X37663902Y-6241353D01*
X37772282Y-6403554D01*
X37772284Y-6403558D01*
X37896442Y-6527716D01*
X37896446Y-6527718D01*
X38058647Y-6636098D01*
X38058651Y-6636102D01*
X38220868Y-6703294D01*
X38412210Y-6741354D01*
X38412212Y-6741354D01*
X38455679Y-6750000D01*
X67544321Y-6750000D01*
X67587788Y-6741354D01*
X67587790Y-6741354D01*
X67779132Y-6703293D01*
X67779134Y-6703293D01*
X67849464Y-6674161D01*
X67941349Y-6636102D01*
X67941353Y-6636098D01*
X68103554Y-6527718D01*
X68103558Y-6527716D01*
X68150078Y-6481196D01*
X89400000Y-6481196D01*
X89400000Y-6918804D01*
X89567465Y-7323100D01*
X89876900Y-7632535D01*
X90281196Y-7800000D01*
X90718804Y-7800000D01*
X91123100Y-7632535D01*
X91432535Y-7323100D01*
X91600000Y-6918804D01*
X91600000Y-6481196D01*
X91900000Y-6481196D01*
X91900000Y-6918804D01*
X92067465Y-7323100D01*
X92376900Y-7632535D01*
X92781196Y-7800000D01*
X93218804Y-7800000D01*
X93623100Y-7632535D01*
X93932535Y-7323100D01*
X94100000Y-6918804D01*
X94100000Y-6481196D01*
X94400000Y-6481196D01*
X94400000Y-6918804D01*
X94567465Y-7323100D01*
X94876900Y-7632535D01*
X95281196Y-7800000D01*
X95718804Y-7800000D01*
X96123100Y-7632535D01*
X96432535Y-7323100D01*
X96600000Y-6918804D01*
X96600000Y-6481196D01*
X96432535Y-6076900D01*
X96123100Y-5767465D01*
X95718804Y-5600000D01*
X95281196Y-5600000D01*
X94876900Y-5767465D01*
X94567465Y-6076900D01*
X94400000Y-6481196D01*
X94100000Y-6481196D01*
X93932535Y-6076900D01*
X93623100Y-5767465D01*
X93218804Y-5600000D01*
X92781196Y-5600000D01*
X92376900Y-5767465D01*
X92067465Y-6076900D01*
X91900000Y-6481196D01*
X91600000Y-6481196D01*
X91432535Y-6076900D01*
X91123100Y-5767465D01*
X90718804Y-5600000D01*
X90281196Y-5600000D01*
X89876900Y-5767465D01*
X89567465Y-6076900D01*
X89400000Y-6481196D01*
X68150078Y-6481196D01*
X68227716Y-6403558D01*
X68227718Y-6403554D01*
X68336098Y-6241353D01*
X68336102Y-6241349D01*
X68403294Y-6079132D01*
X68441354Y-5887790D01*
X68441354Y-5712208D01*
X68441353Y-5712206D01*
X68403294Y-5520868D01*
X68336102Y-5358651D01*
X68336097Y-5358646D01*
X68227718Y-5196446D01*
X68227716Y-5196442D01*
X68103558Y-5072284D01*
X68103554Y-5072282D01*
X67941353Y-4963902D01*
X67941349Y-4963898D01*
X67834797Y-4919764D01*
X67779134Y-4896707D01*
X67779132Y-4896707D01*
X67587790Y-4858646D01*
X67587788Y-4858646D01*
X67544321Y-4850000D01*
X38455679Y-4850000D01*
X38412212Y-4858646D01*
X38412210Y-4858646D01*
X38220868Y-4896706D01*
X38058651Y-4963898D01*
X38058647Y-4963902D01*
X37896446Y-5072282D01*
X37896442Y-5072284D01*
X37772284Y-5196442D01*
X37772282Y-5196446D01*
X37663903Y-5358646D01*
X37663898Y-5358651D01*
X37636064Y-5425850D01*
X37596707Y-5520866D01*
X37596707Y-5520868D01*
X37558647Y-5712206D01*
X37558646Y-5712208D01*
X475000Y-5712208D01*
X475000Y-3520979D01*
X37600000Y-3520979D01*
X37600000Y-3879021D01*
X37737017Y-4209809D01*
X37990191Y-4462983D01*
X38320979Y-4600000D01*
X38679021Y-4600000D01*
X39009809Y-4462983D01*
X39262983Y-4209809D01*
X39400000Y-3879021D01*
X39400000Y-3520979D01*
X66600000Y-3520979D01*
X66600000Y-3879021D01*
X66737017Y-4209809D01*
X66990191Y-4462983D01*
X67320979Y-4600000D01*
X67679021Y-4600000D01*
X68009809Y-4462983D01*
X68262983Y-4209809D01*
X68400000Y-3879021D01*
X68400000Y-3520979D01*
X68262983Y-3190191D01*
X68009809Y-2937017D01*
X67679021Y-2800000D01*
X67320979Y-2800000D01*
X66990191Y-2937017D01*
X66737017Y-3190191D01*
X66600000Y-3520979D01*
X39400000Y-3520979D01*
X39262983Y-3190191D01*
X39009809Y-2937017D01*
X38679021Y-2800000D01*
X38320979Y-2800000D01*
X37990191Y-2937017D01*
X37737017Y-3190191D01*
X37600000Y-3520979D01*
X475000Y-3520979D01*
X475000Y-2033842D01*
X540949Y-1573342D01*
X610224Y-1420979D01*
X37600000Y-1420979D01*
X37600000Y-1779021D01*
X37737017Y-2109809D01*
X37990191Y-2362983D01*
X38320979Y-2500000D01*
X38679021Y-2500000D01*
X39009809Y-2362983D01*
X39262983Y-2109809D01*
X39400000Y-1779021D01*
X39400000Y-1420979D01*
X66600000Y-1420979D01*
X66600000Y-1779021D01*
X66737017Y-2109809D01*
X66990191Y-2362983D01*
X67320979Y-2500000D01*
X67679021Y-2500000D01*
X68009809Y-2362983D01*
X68262983Y-2109809D01*
X68400000Y-1779021D01*
X68400000Y-1420979D01*
X68262983Y-1090191D01*
X68009809Y-837017D01*
X67679021Y-700000D01*
X67320979Y-700000D01*
X66990191Y-837017D01*
X66737017Y-1090191D01*
X66600000Y-1420979D01*
X39400000Y-1420979D01*
X39262983Y-1090191D01*
X39009809Y-837017D01*
X38679021Y-700000D01*
X38320979Y-700000D01*
X37990191Y-837017D01*
X37737017Y-1090191D01*
X37600000Y-1420979D01*
X610224Y-1420979D01*
X719342Y-1180986D01*
X1000688Y-854468D01*
X1362368Y-620039D01*
X1791043Y-491838D01*
X2017626Y-475000D01*
X103966158Y-475000D01*
X104426658Y-540949D01*
X104426658Y-540949D01*
G37*
X104426658Y-540949D02*
X104819014Y-719342D01*
X105145532Y-1000688D01*
X105379961Y-1362368D01*
X105508162Y-1791043D01*
X105525000Y-2017627D01*
X105525001Y-9706433D01*
X104844694Y-10046588D01*
X104814665Y-10052561D01*
X104760903Y-10088483D01*
X104745734Y-10096068D01*
X104722095Y-10114414D01*
X104657545Y-10157545D01*
X104647876Y-10172015D01*
X104634131Y-10182683D01*
X104595690Y-10250118D01*
X104552561Y-10314666D01*
X104549166Y-10331734D01*
X104540549Y-10346850D01*
X104530842Y-10423853D01*
X104525000Y-10453222D01*
X104525000Y-10470196D01*
X104516915Y-10534332D01*
X104525000Y-10563856D01*
X104525001Y-44436141D01*
X104516915Y-44465668D01*
X104525001Y-44529812D01*
X104525001Y-44546779D01*
X104530841Y-44576136D01*
X104540549Y-44653150D01*
X104549167Y-44668269D01*
X104552562Y-44685335D01*
X104595687Y-44749876D01*
X104634131Y-44817317D01*
X104647878Y-44827986D01*
X104657546Y-44842455D01*
X104722089Y-44885581D01*
X104745734Y-44903932D01*
X104760907Y-44911519D01*
X104814666Y-44947439D01*
X104844694Y-44953412D01*
X105525000Y-45293566D01*
X105525001Y-52966151D01*
X105459052Y-53426656D01*
X105280658Y-53819015D01*
X104999312Y-54145532D01*
X104637631Y-54379962D01*
X104208957Y-54508162D01*
X103982374Y-54525000D01*
X2033842Y-54525000D01*
X1573344Y-54459052D01*
X1180985Y-54280658D01*
X854468Y-53999312D01*
X620038Y-53637631D01*
X491838Y-53208957D01*
X475000Y-52982374D01*
X475000Y-45293566D01*
X1155309Y-44953411D01*
X1185334Y-44947439D01*
X1239088Y-44911522D01*
X1254266Y-44903933D01*
X1277916Y-44885578D01*
X1342455Y-44842455D01*
X1352122Y-44827987D01*
X1365869Y-44817318D01*
X1404311Y-44749880D01*
X1447439Y-44685335D01*
X1450834Y-44668267D01*
X1459451Y-44653151D01*
X1469158Y-44576149D01*
X1475000Y-44546779D01*
X1475000Y-44529804D01*
X1483085Y-44465668D01*
X1475000Y-44436144D01*
X1475000Y-39975057D01*
X5550000Y-39975057D01*
X5550000Y-41824943D01*
X6257920Y-43534013D01*
X7565987Y-44842080D01*
X9275057Y-45550000D01*
X11124943Y-45550000D01*
X12834013Y-44842080D01*
X14142080Y-43534013D01*
X14850000Y-41824943D01*
X14850000Y-39975057D01*
X14142080Y-38265987D01*
X12834013Y-36957920D01*
X11124943Y-36250000D01*
X9275057Y-36250000D01*
X7565987Y-36957920D01*
X6257920Y-38265987D01*
X5550000Y-39975057D01*
X1475000Y-39975057D01*
X1475000Y-35600000D01*
X16565695Y-35600000D01*
X16575000Y-35646779D01*
X16575001Y-47653216D01*
X16565695Y-47700000D01*
X16602561Y-47885335D01*
X16707545Y-48042455D01*
X16864665Y-48147439D01*
X17003221Y-48175000D01*
X17003222Y-48175000D01*
X17050000Y-48184305D01*
X17096779Y-48175000D01*
X34503222Y-48175000D01*
X34550000Y-48184305D01*
X34735335Y-48147439D01*
X34892455Y-48042455D01*
X34997439Y-47885335D01*
X35025000Y-47746779D01*
X35034305Y-47700000D01*
X35025000Y-47653221D01*
X35025000Y-46851360D01*
X42450000Y-46851360D01*
X42450000Y-47348640D01*
X42640301Y-47808068D01*
X42991932Y-48159699D01*
X43451360Y-48350000D01*
X43948640Y-48350000D01*
X44408068Y-48159699D01*
X44759699Y-47808068D01*
X44950000Y-47348640D01*
X44950000Y-46851360D01*
X48650000Y-46851360D01*
X48650000Y-47348640D01*
X48840301Y-47808068D01*
X49191932Y-48159699D01*
X49651360Y-48350000D01*
X50148640Y-48350000D01*
X50608068Y-48159699D01*
X50959699Y-47808068D01*
X51150000Y-47348640D01*
X51150000Y-46851360D01*
X54850000Y-46851360D01*
X54850000Y-47348640D01*
X55040301Y-47808068D01*
X55391932Y-48159699D01*
X55851360Y-48350000D01*
X56348640Y-48350000D01*
X56808068Y-48159699D01*
X57159699Y-47808068D01*
X57350000Y-47348640D01*
X57350000Y-46851360D01*
X61050000Y-46851360D01*
X61050000Y-47348640D01*
X61240301Y-47808068D01*
X61591932Y-48159699D01*
X62051360Y-48350000D01*
X62548640Y-48350000D01*
X63008068Y-48159699D01*
X63359699Y-47808068D01*
X63550000Y-47348640D01*
X63550000Y-46851360D01*
X63359699Y-46391932D01*
X63008068Y-46040301D01*
X62884801Y-45989242D01*
X67540000Y-45989242D01*
X67540000Y-47540758D01*
X68133739Y-48974173D01*
X69230827Y-50071261D01*
X70664242Y-50665000D01*
X72215758Y-50665000D01*
X73649173Y-50071261D01*
X74746261Y-48974173D01*
X75340000Y-47540758D01*
X75340000Y-45989242D01*
X77700000Y-45989242D01*
X77700000Y-47540758D01*
X78293739Y-48974173D01*
X79390827Y-50071261D01*
X80824242Y-50665000D01*
X82375758Y-50665000D01*
X83809173Y-50071261D01*
X84906261Y-48974173D01*
X85500000Y-47540758D01*
X85500000Y-45989242D01*
X84906261Y-44555827D01*
X84454784Y-44104350D01*
X89000000Y-44104350D01*
X89000000Y-45695650D01*
X89608963Y-47165818D01*
X90734182Y-48291037D01*
X92204350Y-48900000D01*
X93795650Y-48900000D01*
X95265818Y-48291037D01*
X96391037Y-47165818D01*
X97000000Y-45695650D01*
X97000000Y-44104350D01*
X96391037Y-42634182D01*
X95265818Y-41508963D01*
X93795650Y-40900000D01*
X92204350Y-40900000D01*
X90734182Y-41508963D01*
X89608963Y-42634182D01*
X89000000Y-44104350D01*
X84454784Y-44104350D01*
X83809173Y-43458739D01*
X82375758Y-42865000D01*
X80824242Y-42865000D01*
X79390827Y-43458739D01*
X78293739Y-44555827D01*
X77700000Y-45989242D01*
X75340000Y-45989242D01*
X74746261Y-44555827D01*
X73649173Y-43458739D01*
X72215758Y-42865000D01*
X70664242Y-42865000D01*
X69230827Y-43458739D01*
X68133739Y-44555827D01*
X67540000Y-45989242D01*
X62884801Y-45989242D01*
X62548640Y-45850000D01*
X62051360Y-45850000D01*
X61591932Y-46040301D01*
X61240301Y-46391932D01*
X61050000Y-46851360D01*
X57350000Y-46851360D01*
X57159699Y-46391932D01*
X56808068Y-46040301D01*
X56348640Y-45850000D01*
X55851360Y-45850000D01*
X55391932Y-46040301D01*
X55040301Y-46391932D01*
X54850000Y-46851360D01*
X51150000Y-46851360D01*
X50959699Y-46391932D01*
X50608068Y-46040301D01*
X50148640Y-45850000D01*
X49651360Y-45850000D01*
X49191932Y-46040301D01*
X48840301Y-46391932D01*
X48650000Y-46851360D01*
X44950000Y-46851360D01*
X44759699Y-46391932D01*
X44408068Y-46040301D01*
X43948640Y-45850000D01*
X43451360Y-45850000D01*
X42991932Y-46040301D01*
X42640301Y-46391932D01*
X42450000Y-46851360D01*
X35025000Y-46851360D01*
X35025000Y-35646779D01*
X35034305Y-35600000D01*
X34997439Y-35414665D01*
X34892455Y-35257545D01*
X34735335Y-35152561D01*
X34596779Y-35125000D01*
X34596778Y-35125000D01*
X34550000Y-35115695D01*
X34503221Y-35125000D01*
X17096778Y-35125000D01*
X17050000Y-35115695D01*
X17003221Y-35125000D01*
X16864665Y-35152561D01*
X16707545Y-35257545D01*
X16602561Y-35414665D01*
X16565695Y-35600000D01*
X1475000Y-35600000D01*
X1475000Y-31481196D01*
X89400000Y-31481196D01*
X89400000Y-31918804D01*
X89567465Y-32323100D01*
X89876900Y-32632535D01*
X90281196Y-32800000D01*
X90718804Y-32800000D01*
X91123100Y-32632535D01*
X91432535Y-32323100D01*
X91600000Y-31918804D01*
X91600000Y-31481196D01*
X91900000Y-31481196D01*
X91900000Y-31918804D01*
X92067465Y-32323100D01*
X92376900Y-32632535D01*
X92781196Y-32800000D01*
X93218804Y-32800000D01*
X93623100Y-32632535D01*
X93932535Y-32323100D01*
X94100000Y-31918804D01*
X94100000Y-31481196D01*
X94400000Y-31481196D01*
X94400000Y-31918804D01*
X94567465Y-32323100D01*
X94876900Y-32632535D01*
X95281196Y-32800000D01*
X95718804Y-32800000D01*
X96123100Y-32632535D01*
X96432535Y-32323100D01*
X96600000Y-31918804D01*
X96600000Y-31481196D01*
X96432535Y-31076900D01*
X96123100Y-30767465D01*
X95718804Y-30600000D01*
X95281196Y-30600000D01*
X94876900Y-30767465D01*
X94567465Y-31076900D01*
X94400000Y-31481196D01*
X94100000Y-31481196D01*
X93932535Y-31076900D01*
X93623100Y-30767465D01*
X93218804Y-30600000D01*
X92781196Y-30600000D01*
X92376900Y-30767465D01*
X92067465Y-31076900D01*
X91900000Y-31481196D01*
X91600000Y-31481196D01*
X91432535Y-31076900D01*
X91123100Y-30767465D01*
X90718804Y-30600000D01*
X90281196Y-30600000D01*
X89876900Y-30767465D01*
X89567465Y-31076900D01*
X89400000Y-31481196D01*
X1475000Y-31481196D01*
X1475000Y-28981196D01*
X89400000Y-28981196D01*
X89400000Y-29418804D01*
X89567465Y-29823100D01*
X89876900Y-30132535D01*
X90281196Y-30300000D01*
X90718804Y-30300000D01*
X91123100Y-30132535D01*
X91432535Y-29823100D01*
X91600000Y-29418804D01*
X91600000Y-28981196D01*
X91900000Y-28981196D01*
X91900000Y-29418804D01*
X92067465Y-29823100D01*
X92376900Y-30132535D01*
X92781196Y-30300000D01*
X93218804Y-30300000D01*
X93623100Y-30132535D01*
X93932535Y-29823100D01*
X94100000Y-29418804D01*
X94100000Y-28981196D01*
X94400000Y-28981196D01*
X94400000Y-29418804D01*
X94567465Y-29823100D01*
X94876900Y-30132535D01*
X95281196Y-30300000D01*
X95718804Y-30300000D01*
X96123100Y-30132535D01*
X96432535Y-29823100D01*
X96600000Y-29418804D01*
X96600000Y-28981196D01*
X96432535Y-28576900D01*
X96123100Y-28267465D01*
X95718804Y-28100000D01*
X95281196Y-28100000D01*
X94876900Y-28267465D01*
X94567465Y-28576900D01*
X94400000Y-28981196D01*
X94100000Y-28981196D01*
X93932535Y-28576900D01*
X93623100Y-28267465D01*
X93218804Y-28100000D01*
X92781196Y-28100000D01*
X92376900Y-28267465D01*
X92067465Y-28576900D01*
X91900000Y-28981196D01*
X91600000Y-28981196D01*
X91432535Y-28576900D01*
X91123100Y-28267465D01*
X90718804Y-28100000D01*
X90281196Y-28100000D01*
X89876900Y-28267465D01*
X89567465Y-28576900D01*
X89400000Y-28981196D01*
X1475000Y-28981196D01*
X1475000Y-26481196D01*
X89400000Y-26481196D01*
X89400000Y-26918804D01*
X89567465Y-27323100D01*
X89876900Y-27632535D01*
X90281196Y-27800000D01*
X90718804Y-27800000D01*
X91123100Y-27632535D01*
X91432535Y-27323100D01*
X91600000Y-26918804D01*
X91600000Y-26481196D01*
X91900000Y-26481196D01*
X91900000Y-26918804D01*
X92067465Y-27323100D01*
X92376900Y-27632535D01*
X92781196Y-27800000D01*
X93218804Y-27800000D01*
X93623100Y-27632535D01*
X93932535Y-27323100D01*
X94100000Y-26918804D01*
X94100000Y-26481196D01*
X94400000Y-26481196D01*
X94400000Y-26918804D01*
X94567465Y-27323100D01*
X94876900Y-27632535D01*
X95281196Y-27800000D01*
X95718804Y-27800000D01*
X96123100Y-27632535D01*
X96432535Y-27323100D01*
X96600000Y-26918804D01*
X96600000Y-26481196D01*
X96432535Y-26076900D01*
X96123100Y-25767465D01*
X95718804Y-25600000D01*
X95281196Y-25600000D01*
X94876900Y-25767465D01*
X94567465Y-26076900D01*
X94400000Y-26481196D01*
X94100000Y-26481196D01*
X93932535Y-26076900D01*
X93623100Y-25767465D01*
X93218804Y-25600000D01*
X92781196Y-25600000D01*
X92376900Y-25767465D01*
X92067465Y-26076900D01*
X91900000Y-26481196D01*
X91600000Y-26481196D01*
X91432535Y-26076900D01*
X91123100Y-25767465D01*
X90718804Y-25600000D01*
X90281196Y-25600000D01*
X89876900Y-25767465D01*
X89567465Y-26076900D01*
X89400000Y-26481196D01*
X1475000Y-26481196D01*
X1475000Y-21481196D01*
X89400000Y-21481196D01*
X89400000Y-21918804D01*
X89567465Y-22323100D01*
X89876900Y-22632535D01*
X90281196Y-22800000D01*
X90718804Y-22800000D01*
X91123100Y-22632535D01*
X91432535Y-22323100D01*
X91600000Y-21918804D01*
X91600000Y-21481196D01*
X91900000Y-21481196D01*
X91900000Y-21918804D01*
X92067465Y-22323100D01*
X92376900Y-22632535D01*
X92781196Y-22800000D01*
X93218804Y-22800000D01*
X93623100Y-22632535D01*
X93932535Y-22323100D01*
X94100000Y-21918804D01*
X94100000Y-21481196D01*
X94400000Y-21481196D01*
X94400000Y-21918804D01*
X94567465Y-22323100D01*
X94876900Y-22632535D01*
X95281196Y-22800000D01*
X95718804Y-22800000D01*
X96123100Y-22632535D01*
X96432535Y-22323100D01*
X96600000Y-21918804D01*
X96600000Y-21481196D01*
X96432535Y-21076900D01*
X96123100Y-20767465D01*
X95718804Y-20600000D01*
X95281196Y-20600000D01*
X94876900Y-20767465D01*
X94567465Y-21076900D01*
X94400000Y-21481196D01*
X94100000Y-21481196D01*
X93932535Y-21076900D01*
X93623100Y-20767465D01*
X93218804Y-20600000D01*
X92781196Y-20600000D01*
X92376900Y-20767465D01*
X92067465Y-21076900D01*
X91900000Y-21481196D01*
X91600000Y-21481196D01*
X91432535Y-21076900D01*
X91123100Y-20767465D01*
X90718804Y-20600000D01*
X90281196Y-20600000D01*
X89876900Y-20767465D01*
X89567465Y-21076900D01*
X89400000Y-21481196D01*
X1475000Y-21481196D01*
X1475000Y-18981196D01*
X89400000Y-18981196D01*
X89400000Y-19418804D01*
X89567465Y-19823100D01*
X89876900Y-20132535D01*
X90281196Y-20300000D01*
X90718804Y-20300000D01*
X91123100Y-20132535D01*
X91432535Y-19823100D01*
X91600000Y-19418804D01*
X91600000Y-18981196D01*
X91900000Y-18981196D01*
X91900000Y-19418804D01*
X92067465Y-19823100D01*
X92376900Y-20132535D01*
X92781196Y-20300000D01*
X93218804Y-20300000D01*
X93623100Y-20132535D01*
X93932535Y-19823100D01*
X94100000Y-19418804D01*
X94100000Y-18981196D01*
X94400000Y-18981196D01*
X94400000Y-19418804D01*
X94567465Y-19823100D01*
X94876900Y-20132535D01*
X95281196Y-20300000D01*
X95718804Y-20300000D01*
X96123100Y-20132535D01*
X96432535Y-19823100D01*
X96600000Y-19418804D01*
X96600000Y-18981196D01*
X96432535Y-18576900D01*
X96123100Y-18267465D01*
X95718804Y-18100000D01*
X95281196Y-18100000D01*
X94876900Y-18267465D01*
X94567465Y-18576900D01*
X94400000Y-18981196D01*
X94100000Y-18981196D01*
X93932535Y-18576900D01*
X93623100Y-18267465D01*
X93218804Y-18100000D01*
X92781196Y-18100000D01*
X92376900Y-18267465D01*
X92067465Y-18576900D01*
X91900000Y-18981196D01*
X91600000Y-18981196D01*
X91432535Y-18576900D01*
X91123100Y-18267465D01*
X90718804Y-18100000D01*
X90281196Y-18100000D01*
X89876900Y-18267465D01*
X89567465Y-18576900D01*
X89400000Y-18981196D01*
X1475000Y-18981196D01*
X1475000Y-16481196D01*
X89400000Y-16481196D01*
X89400000Y-16918804D01*
X89567465Y-17323100D01*
X89876900Y-17632535D01*
X90281196Y-17800000D01*
X90718804Y-17800000D01*
X91123100Y-17632535D01*
X91432535Y-17323100D01*
X91600000Y-16918804D01*
X91600000Y-16481196D01*
X91900000Y-16481196D01*
X91900000Y-16918804D01*
X92067465Y-17323100D01*
X92376900Y-17632535D01*
X92781196Y-17800000D01*
X93218804Y-17800000D01*
X93623100Y-17632535D01*
X93932535Y-17323100D01*
X94100000Y-16918804D01*
X94100000Y-16481196D01*
X94400000Y-16481196D01*
X94400000Y-16918804D01*
X94567465Y-17323100D01*
X94876900Y-17632535D01*
X95281196Y-17800000D01*
X95718804Y-17800000D01*
X96123100Y-17632535D01*
X96432535Y-17323100D01*
X96600000Y-16918804D01*
X96600000Y-16481196D01*
X96432535Y-16076900D01*
X96123100Y-15767465D01*
X95718804Y-15600000D01*
X95281196Y-15600000D01*
X94876900Y-15767465D01*
X94567465Y-16076900D01*
X94400000Y-16481196D01*
X94100000Y-16481196D01*
X93932535Y-16076900D01*
X93623100Y-15767465D01*
X93218804Y-15600000D01*
X92781196Y-15600000D01*
X92376900Y-15767465D01*
X92067465Y-16076900D01*
X91900000Y-16481196D01*
X91600000Y-16481196D01*
X91432535Y-16076900D01*
X91123100Y-15767465D01*
X90718804Y-15600000D01*
X90281196Y-15600000D01*
X89876900Y-15767465D01*
X89567465Y-16076900D01*
X89400000Y-16481196D01*
X1475000Y-16481196D01*
X1475000Y-11481196D01*
X89400000Y-11481196D01*
X89400000Y-11918804D01*
X89567465Y-12323100D01*
X89876900Y-12632535D01*
X90281196Y-12800000D01*
X90718804Y-12800000D01*
X91123100Y-12632535D01*
X91432535Y-12323100D01*
X91600000Y-11918804D01*
X91600000Y-11481196D01*
X91900000Y-11481196D01*
X91900000Y-11918804D01*
X92067465Y-12323100D01*
X92376900Y-12632535D01*
X92781196Y-12800000D01*
X93218804Y-12800000D01*
X93623100Y-12632535D01*
X93932535Y-12323100D01*
X94100000Y-11918804D01*
X94100000Y-11481196D01*
X94400000Y-11481196D01*
X94400000Y-11918804D01*
X94567465Y-12323100D01*
X94876900Y-12632535D01*
X95281196Y-12800000D01*
X95718804Y-12800000D01*
X96123100Y-12632535D01*
X96432535Y-12323100D01*
X96600000Y-11918804D01*
X96600000Y-11481196D01*
X96432535Y-11076900D01*
X96123100Y-10767465D01*
X95718804Y-10600000D01*
X95281196Y-10600000D01*
X94876900Y-10767465D01*
X94567465Y-11076900D01*
X94400000Y-11481196D01*
X94100000Y-11481196D01*
X93932535Y-11076900D01*
X93623100Y-10767465D01*
X93218804Y-10600000D01*
X92781196Y-10600000D01*
X92376900Y-10767465D01*
X92067465Y-11076900D01*
X91900000Y-11481196D01*
X91600000Y-11481196D01*
X91432535Y-11076900D01*
X91123100Y-10767465D01*
X90718804Y-10600000D01*
X90281196Y-10600000D01*
X89876900Y-10767465D01*
X89567465Y-11076900D01*
X89400000Y-11481196D01*
X1475000Y-11481196D01*
X1475000Y-10563856D01*
X1483085Y-10534332D01*
X1475000Y-10470196D01*
X1475000Y-10453221D01*
X1469158Y-10423851D01*
X1459451Y-10346849D01*
X1450834Y-10331733D01*
X1447439Y-10314665D01*
X1404311Y-10250120D01*
X1365869Y-10182682D01*
X1352122Y-10172013D01*
X1342455Y-10157545D01*
X1277914Y-10114420D01*
X1254266Y-10096067D01*
X1239091Y-10088479D01*
X1185335Y-10052561D01*
X1155309Y-10046588D01*
X475000Y-9706434D01*
X475000Y-8981196D01*
X89400000Y-8981196D01*
X89400000Y-9418804D01*
X89567465Y-9823100D01*
X89876900Y-10132535D01*
X90281196Y-10300000D01*
X90718804Y-10300000D01*
X91123100Y-10132535D01*
X91432535Y-9823100D01*
X91600000Y-9418804D01*
X91600000Y-8981196D01*
X91900000Y-8981196D01*
X91900000Y-9418804D01*
X92067465Y-9823100D01*
X92376900Y-10132535D01*
X92781196Y-10300000D01*
X93218804Y-10300000D01*
X93623100Y-10132535D01*
X93932535Y-9823100D01*
X94100000Y-9418804D01*
X94100000Y-8981196D01*
X94400000Y-8981196D01*
X94400000Y-9418804D01*
X94567465Y-9823100D01*
X94876900Y-10132535D01*
X95281196Y-10300000D01*
X95718804Y-10300000D01*
X96123100Y-10132535D01*
X96432535Y-9823100D01*
X96600000Y-9418804D01*
X96600000Y-8981196D01*
X96432535Y-8576900D01*
X96123100Y-8267465D01*
X95718804Y-8100000D01*
X95281196Y-8100000D01*
X94876900Y-8267465D01*
X94567465Y-8576900D01*
X94400000Y-8981196D01*
X94100000Y-8981196D01*
X93932535Y-8576900D01*
X93623100Y-8267465D01*
X93218804Y-8100000D01*
X92781196Y-8100000D01*
X92376900Y-8267465D01*
X92067465Y-8576900D01*
X91900000Y-8981196D01*
X91600000Y-8981196D01*
X91432535Y-8576900D01*
X91123100Y-8267465D01*
X90718804Y-8100000D01*
X90281196Y-8100000D01*
X89876900Y-8267465D01*
X89567465Y-8576900D01*
X89400000Y-8981196D01*
X475000Y-8981196D01*
X475000Y-5712208D01*
X37558646Y-5712208D01*
X37558646Y-5887790D01*
X37596707Y-6079132D01*
X37596707Y-6079134D01*
X37615465Y-6124419D01*
X37663898Y-6241349D01*
X37663902Y-6241353D01*
X37772282Y-6403554D01*
X37772284Y-6403558D01*
X37896442Y-6527716D01*
X37896446Y-6527718D01*
X38058647Y-6636098D01*
X38058651Y-6636102D01*
X38220868Y-6703294D01*
X38412210Y-6741354D01*
X38412212Y-6741354D01*
X38455679Y-6750000D01*
X67544321Y-6750000D01*
X67587788Y-6741354D01*
X67587790Y-6741354D01*
X67779132Y-6703293D01*
X67779134Y-6703293D01*
X67849464Y-6674161D01*
X67941349Y-6636102D01*
X67941353Y-6636098D01*
X68103554Y-6527718D01*
X68103558Y-6527716D01*
X68150078Y-6481196D01*
X89400000Y-6481196D01*
X89400000Y-6918804D01*
X89567465Y-7323100D01*
X89876900Y-7632535D01*
X90281196Y-7800000D01*
X90718804Y-7800000D01*
X91123100Y-7632535D01*
X91432535Y-7323100D01*
X91600000Y-6918804D01*
X91600000Y-6481196D01*
X91900000Y-6481196D01*
X91900000Y-6918804D01*
X92067465Y-7323100D01*
X92376900Y-7632535D01*
X92781196Y-7800000D01*
X93218804Y-7800000D01*
X93623100Y-7632535D01*
X93932535Y-7323100D01*
X94100000Y-6918804D01*
X94100000Y-6481196D01*
X94400000Y-6481196D01*
X94400000Y-6918804D01*
X94567465Y-7323100D01*
X94876900Y-7632535D01*
X95281196Y-7800000D01*
X95718804Y-7800000D01*
X96123100Y-7632535D01*
X96432535Y-7323100D01*
X96600000Y-6918804D01*
X96600000Y-6481196D01*
X96432535Y-6076900D01*
X96123100Y-5767465D01*
X95718804Y-5600000D01*
X95281196Y-5600000D01*
X94876900Y-5767465D01*
X94567465Y-6076900D01*
X94400000Y-6481196D01*
X94100000Y-6481196D01*
X93932535Y-6076900D01*
X93623100Y-5767465D01*
X93218804Y-5600000D01*
X92781196Y-5600000D01*
X92376900Y-5767465D01*
X92067465Y-6076900D01*
X91900000Y-6481196D01*
X91600000Y-6481196D01*
X91432535Y-6076900D01*
X91123100Y-5767465D01*
X90718804Y-5600000D01*
X90281196Y-5600000D01*
X89876900Y-5767465D01*
X89567465Y-6076900D01*
X89400000Y-6481196D01*
X68150078Y-6481196D01*
X68227716Y-6403558D01*
X68227718Y-6403554D01*
X68336098Y-6241353D01*
X68336102Y-6241349D01*
X68403294Y-6079132D01*
X68441354Y-5887790D01*
X68441354Y-5712208D01*
X68441353Y-5712206D01*
X68403294Y-5520868D01*
X68336102Y-5358651D01*
X68336097Y-5358646D01*
X68227718Y-5196446D01*
X68227716Y-5196442D01*
X68103558Y-5072284D01*
X68103554Y-5072282D01*
X67941353Y-4963902D01*
X67941349Y-4963898D01*
X67834797Y-4919764D01*
X67779134Y-4896707D01*
X67779132Y-4896707D01*
X67587790Y-4858646D01*
X67587788Y-4858646D01*
X67544321Y-4850000D01*
X38455679Y-4850000D01*
X38412212Y-4858646D01*
X38412210Y-4858646D01*
X38220868Y-4896706D01*
X38058651Y-4963898D01*
X38058647Y-4963902D01*
X37896446Y-5072282D01*
X37896442Y-5072284D01*
X37772284Y-5196442D01*
X37772282Y-5196446D01*
X37663903Y-5358646D01*
X37663898Y-5358651D01*
X37636064Y-5425850D01*
X37596707Y-5520866D01*
X37596707Y-5520868D01*
X37558647Y-5712206D01*
X37558646Y-5712208D01*
X475000Y-5712208D01*
X475000Y-3520979D01*
X37600000Y-3520979D01*
X37600000Y-3879021D01*
X37737017Y-4209809D01*
X37990191Y-4462983D01*
X38320979Y-4600000D01*
X38679021Y-4600000D01*
X39009809Y-4462983D01*
X39262983Y-4209809D01*
X39400000Y-3879021D01*
X39400000Y-3520979D01*
X66600000Y-3520979D01*
X66600000Y-3879021D01*
X66737017Y-4209809D01*
X66990191Y-4462983D01*
X67320979Y-4600000D01*
X67679021Y-4600000D01*
X68009809Y-4462983D01*
X68262983Y-4209809D01*
X68400000Y-3879021D01*
X68400000Y-3520979D01*
X68262983Y-3190191D01*
X68009809Y-2937017D01*
X67679021Y-2800000D01*
X67320979Y-2800000D01*
X66990191Y-2937017D01*
X66737017Y-3190191D01*
X66600000Y-3520979D01*
X39400000Y-3520979D01*
X39262983Y-3190191D01*
X39009809Y-2937017D01*
X38679021Y-2800000D01*
X38320979Y-2800000D01*
X37990191Y-2937017D01*
X37737017Y-3190191D01*
X37600000Y-3520979D01*
X475000Y-3520979D01*
X475000Y-2033842D01*
X540949Y-1573342D01*
X610224Y-1420979D01*
X37600000Y-1420979D01*
X37600000Y-1779021D01*
X37737017Y-2109809D01*
X37990191Y-2362983D01*
X38320979Y-2500000D01*
X38679021Y-2500000D01*
X39009809Y-2362983D01*
X39262983Y-2109809D01*
X39400000Y-1779021D01*
X39400000Y-1420979D01*
X66600000Y-1420979D01*
X66600000Y-1779021D01*
X66737017Y-2109809D01*
X66990191Y-2362983D01*
X67320979Y-2500000D01*
X67679021Y-2500000D01*
X68009809Y-2362983D01*
X68262983Y-2109809D01*
X68400000Y-1779021D01*
X68400000Y-1420979D01*
X68262983Y-1090191D01*
X68009809Y-837017D01*
X67679021Y-700000D01*
X67320979Y-700000D01*
X66990191Y-837017D01*
X66737017Y-1090191D01*
X66600000Y-1420979D01*
X39400000Y-1420979D01*
X39262983Y-1090191D01*
X39009809Y-837017D01*
X38679021Y-700000D01*
X38320979Y-700000D01*
X37990191Y-837017D01*
X37737017Y-1090191D01*
X37600000Y-1420979D01*
X610224Y-1420979D01*
X719342Y-1180986D01*
X1000688Y-854468D01*
X1362368Y-620039D01*
X1791043Y-491838D01*
X2017626Y-475000D01*
X103966158Y-475000D01*
X104426658Y-540949D01*
G04 #@! TD*
M02*
