G04 #@! TF.GenerationSoftware,KiCad,Pcbnew,5.0.2-bee76a0~70~ubuntu16.04.1*
G04 #@! TF.CreationDate,2019-08-24T21:48:25-07:00*
G04 #@! TF.ProjectId,endcap,656e6463-6170-42e6-9b69-6361645f7063,rev?*
G04 #@! TF.SameCoordinates,PX2faf080PY2faf080*
G04 #@! TF.FileFunction,Legend,Bot*
G04 #@! TF.FilePolarity,Positive*
%FSLAX46Y46*%
G04 Gerber Fmt 4.6, Leading zero omitted, Abs format (unit mm)*
G04 Created by KiCad (PCBNEW 5.0.2-bee76a0~70~ubuntu16.04.1) date Sat 24 Aug 2019 09:48:25 PM PDT*
%MOMM*%
%LPD*%
G01*
G04 APERTURE LIST*
%ADD10C,0.100000*%
%ADD11C,0.120000*%
%ADD12C,0.150000*%
G04 APERTURE END LIST*
D10*
G04 #@! TO.C,C1*
X53762000Y-28944500D02*
X53762000Y-27928500D01*
X53762000Y-27928500D02*
X52238000Y-27928500D01*
X52238000Y-27928500D02*
X52238000Y-28944500D01*
X52238000Y-29960500D02*
X52238000Y-30976500D01*
X52238000Y-30976500D02*
X53762000Y-30976500D01*
X53762000Y-30976500D02*
X53762000Y-29960500D01*
G04 #@! TO.C,C2*
X56808000Y-29262000D02*
X57824000Y-29262000D01*
X57824000Y-29262000D02*
X57824000Y-27738000D01*
X57824000Y-27738000D02*
X56808000Y-27738000D01*
X55792000Y-27738000D02*
X54776000Y-27738000D01*
X54776000Y-27738000D02*
X54776000Y-29262000D01*
X54776000Y-29262000D02*
X55792000Y-29262000D01*
G04 #@! TO.C,C3*
X56576000Y-34762000D02*
X57592000Y-34762000D01*
X56576000Y-33238000D02*
X56576000Y-34762000D01*
X57592000Y-33238000D02*
X56576000Y-33238000D01*
X59624000Y-33238000D02*
X58608000Y-33238000D01*
X59624000Y-34762000D02*
X59624000Y-33238000D01*
X58608000Y-34762000D02*
X59624000Y-34762000D01*
G04 #@! TO.C,C4*
X69638000Y-33408000D02*
X69638000Y-34424000D01*
X69638000Y-34424000D02*
X71162000Y-34424000D01*
X71162000Y-34424000D02*
X71162000Y-33408000D01*
X71162000Y-32392000D02*
X71162000Y-31376000D01*
X71162000Y-31376000D02*
X69638000Y-31376000D01*
X69638000Y-31376000D02*
X69638000Y-32392000D01*
G04 #@! TO.C,R1*
X48223500Y-29262000D02*
X49239500Y-29262000D01*
X48223500Y-27738000D02*
X48223500Y-29262000D01*
X49239500Y-27738000D02*
X48223500Y-27738000D01*
X51271500Y-27738000D02*
X50255500Y-27738000D01*
X51271500Y-29262000D02*
X51271500Y-27738000D01*
X50255500Y-29262000D02*
X51271500Y-29262000D01*
G04 #@! TO.C,R2*
X60808000Y-29262000D02*
X61824000Y-29262000D01*
X61824000Y-29262000D02*
X61824000Y-27738000D01*
X61824000Y-27738000D02*
X60808000Y-27738000D01*
X59792000Y-27738000D02*
X58776000Y-27738000D01*
X58776000Y-27738000D02*
X58776000Y-29262000D01*
X58776000Y-29262000D02*
X59792000Y-29262000D01*
G04 #@! TO.C,R3*
X62776000Y-29262000D02*
X63792000Y-29262000D01*
X62776000Y-27738000D02*
X62776000Y-29262000D01*
X63792000Y-27738000D02*
X62776000Y-27738000D01*
X65824000Y-27738000D02*
X64808000Y-27738000D01*
X65824000Y-29262000D02*
X65824000Y-27738000D01*
X64808000Y-29262000D02*
X65824000Y-29262000D01*
D11*
G04 #@! TO.C,TP1*
X47550000Y-29500000D02*
G75*
G03X47550000Y-29500000I-1750000J0D01*
G01*
G04 #@! TO.C,TP2*
X53150000Y-33900000D02*
G75*
G03X53150000Y-33900000I-1750000J0D01*
G01*
G04 #@! TO.C,TP3*
X76550000Y-33000000D02*
G75*
G03X76550000Y-33000000I-1750000J0D01*
G01*
G04 #@! TO.C,TP4*
X72150000Y-37400000D02*
G75*
G03X72150000Y-37400000I-1750000J0D01*
G01*
G04 #@! TO.C,TP5*
X72150000Y-28400000D02*
G75*
G03X72150000Y-28400000I-1750000J0D01*
G01*
G04 #@! TO.C,TP6*
X60750000Y-37400000D02*
G75*
G03X60750000Y-37400000I-1750000J0D01*
G01*
G04 #@! TO.C,TP7*
X59300000Y-31300000D02*
G75*
G03X59300000Y-31300000I-1200000J0D01*
G01*
D10*
G04 #@! TO.C,U1*
X62324264Y-35700000D02*
G75*
G03X62324264Y-35700000I-424264J0D01*
G01*
X62100000Y-30400000D02*
X62100000Y-30100000D01*
X62100000Y-30100000D02*
X67300000Y-30100000D01*
X67300000Y-30100000D02*
X67300000Y-30400000D01*
X67300000Y-35200000D02*
X67300000Y-35500000D01*
X67300000Y-35500000D02*
X62100000Y-35500000D01*
X62100000Y-35500000D02*
X62100000Y-35200000D01*
G04 #@! TO.C,C1*
X53133333Y-27085714D02*
X53171428Y-27123809D01*
X53285714Y-27161904D01*
X53361904Y-27161904D01*
X53476190Y-27123809D01*
X53552380Y-27047619D01*
X53590476Y-26971428D01*
X53628571Y-26819047D01*
X53628571Y-26704761D01*
X53590476Y-26552380D01*
X53552380Y-26476190D01*
X53476190Y-26400000D01*
X53361904Y-26361904D01*
X53285714Y-26361904D01*
X53171428Y-26400000D01*
X53133333Y-26438095D01*
X52371428Y-27161904D02*
X52828571Y-27161904D01*
X52600000Y-27161904D02*
X52600000Y-26361904D01*
X52676190Y-26476190D01*
X52752380Y-26552380D01*
X52828571Y-26590476D01*
G04 #@! TO.C,C2*
X56433333Y-27085714D02*
X56471428Y-27123809D01*
X56585714Y-27161904D01*
X56661904Y-27161904D01*
X56776190Y-27123809D01*
X56852380Y-27047619D01*
X56890476Y-26971428D01*
X56928571Y-26819047D01*
X56928571Y-26704761D01*
X56890476Y-26552380D01*
X56852380Y-26476190D01*
X56776190Y-26400000D01*
X56661904Y-26361904D01*
X56585714Y-26361904D01*
X56471428Y-26400000D01*
X56433333Y-26438095D01*
X56128571Y-26438095D02*
X56090476Y-26400000D01*
X56014285Y-26361904D01*
X55823809Y-26361904D01*
X55747619Y-26400000D01*
X55709523Y-26438095D01*
X55671428Y-26514285D01*
X55671428Y-26590476D01*
X55709523Y-26704761D01*
X56166666Y-27161904D01*
X55671428Y-27161904D01*
G04 #@! TO.C,C3*
X55533333Y-34285714D02*
X55571428Y-34323809D01*
X55685714Y-34361904D01*
X55761904Y-34361904D01*
X55876190Y-34323809D01*
X55952380Y-34247619D01*
X55990476Y-34171428D01*
X56028571Y-34019047D01*
X56028571Y-33904761D01*
X55990476Y-33752380D01*
X55952380Y-33676190D01*
X55876190Y-33600000D01*
X55761904Y-33561904D01*
X55685714Y-33561904D01*
X55571428Y-33600000D01*
X55533333Y-33638095D01*
X55266666Y-33561904D02*
X54771428Y-33561904D01*
X55038095Y-33866666D01*
X54923809Y-33866666D01*
X54847619Y-33904761D01*
X54809523Y-33942857D01*
X54771428Y-34019047D01*
X54771428Y-34209523D01*
X54809523Y-34285714D01*
X54847619Y-34323809D01*
X54923809Y-34361904D01*
X55152380Y-34361904D01*
X55228571Y-34323809D01*
X55266666Y-34285714D01*
G04 #@! TO.C,C4*
X72233333Y-31385714D02*
X72271428Y-31423809D01*
X72385714Y-31461904D01*
X72461904Y-31461904D01*
X72576190Y-31423809D01*
X72652380Y-31347619D01*
X72690476Y-31271428D01*
X72728571Y-31119047D01*
X72728571Y-31004761D01*
X72690476Y-30852380D01*
X72652380Y-30776190D01*
X72576190Y-30700000D01*
X72461904Y-30661904D01*
X72385714Y-30661904D01*
X72271428Y-30700000D01*
X72233333Y-30738095D01*
X71547619Y-30928571D02*
X71547619Y-31461904D01*
X71738095Y-30623809D02*
X71928571Y-31195238D01*
X71433333Y-31195238D01*
G04 #@! TO.C,R1*
X49833333Y-27161904D02*
X50100000Y-26780952D01*
X50290476Y-27161904D02*
X50290476Y-26361904D01*
X49985714Y-26361904D01*
X49909523Y-26400000D01*
X49871428Y-26438095D01*
X49833333Y-26514285D01*
X49833333Y-26628571D01*
X49871428Y-26704761D01*
X49909523Y-26742857D01*
X49985714Y-26780952D01*
X50290476Y-26780952D01*
X49071428Y-27161904D02*
X49528571Y-27161904D01*
X49300000Y-27161904D02*
X49300000Y-26361904D01*
X49376190Y-26476190D01*
X49452380Y-26552380D01*
X49528571Y-26590476D01*
G04 #@! TO.C,R2*
X60333333Y-27161904D02*
X60600000Y-26780952D01*
X60790476Y-27161904D02*
X60790476Y-26361904D01*
X60485714Y-26361904D01*
X60409523Y-26400000D01*
X60371428Y-26438095D01*
X60333333Y-26514285D01*
X60333333Y-26628571D01*
X60371428Y-26704761D01*
X60409523Y-26742857D01*
X60485714Y-26780952D01*
X60790476Y-26780952D01*
X60028571Y-26438095D02*
X59990476Y-26400000D01*
X59914285Y-26361904D01*
X59723809Y-26361904D01*
X59647619Y-26400000D01*
X59609523Y-26438095D01*
X59571428Y-26514285D01*
X59571428Y-26590476D01*
X59609523Y-26704761D01*
X60066666Y-27161904D01*
X59571428Y-27161904D01*
G04 #@! TO.C,R3*
X64533333Y-27161904D02*
X64800000Y-26780952D01*
X64990476Y-27161904D02*
X64990476Y-26361904D01*
X64685714Y-26361904D01*
X64609523Y-26400000D01*
X64571428Y-26438095D01*
X64533333Y-26514285D01*
X64533333Y-26628571D01*
X64571428Y-26704761D01*
X64609523Y-26742857D01*
X64685714Y-26780952D01*
X64990476Y-26780952D01*
X64266666Y-26361904D02*
X63771428Y-26361904D01*
X64038095Y-26666666D01*
X63923809Y-26666666D01*
X63847619Y-26704761D01*
X63809523Y-26742857D01*
X63771428Y-26819047D01*
X63771428Y-27009523D01*
X63809523Y-27085714D01*
X63847619Y-27123809D01*
X63923809Y-27161904D01*
X64152380Y-27161904D01*
X64228571Y-27123809D01*
X64266666Y-27085714D01*
G04 #@! TO.C,TP1*
D12*
X43104761Y-29952380D02*
X43104761Y-28952380D01*
X42723809Y-28952380D01*
X42628571Y-29000000D01*
X42580952Y-29047619D01*
X42533333Y-29142857D01*
X42533333Y-29285714D01*
X42580952Y-29380952D01*
X42628571Y-29428571D01*
X42723809Y-29476190D01*
X43104761Y-29476190D01*
X42200000Y-28952380D02*
X41961904Y-29952380D01*
X41771428Y-29238095D01*
X41580952Y-29952380D01*
X41342857Y-28952380D01*
X40961904Y-29952380D02*
X40961904Y-28952380D01*
X40628571Y-29666666D01*
X40295238Y-28952380D01*
X40295238Y-29952380D01*
G04 #@! TO.C,TP2*
X48561904Y-33400000D02*
X48657142Y-33352380D01*
X48800000Y-33352380D01*
X48942857Y-33400000D01*
X49038095Y-33495238D01*
X49085714Y-33590476D01*
X49133333Y-33780952D01*
X49133333Y-33923809D01*
X49085714Y-34114285D01*
X49038095Y-34209523D01*
X48942857Y-34304761D01*
X48800000Y-34352380D01*
X48704761Y-34352380D01*
X48561904Y-34304761D01*
X48514285Y-34257142D01*
X48514285Y-33923809D01*
X48704761Y-33923809D01*
X48085714Y-34352380D02*
X48085714Y-33352380D01*
X47514285Y-34352380D01*
X47514285Y-33352380D01*
X47038095Y-34352380D02*
X47038095Y-33352380D01*
X46800000Y-33352380D01*
X46657142Y-33400000D01*
X46561904Y-33495238D01*
X46514285Y-33590476D01*
X46466666Y-33780952D01*
X46466666Y-33923809D01*
X46514285Y-34114285D01*
X46561904Y-34209523D01*
X46657142Y-34304761D01*
X46800000Y-34352380D01*
X47038095Y-34352380D01*
G04 #@! TO.C,TP3*
X80076190Y-32452380D02*
X79457142Y-32452380D01*
X79790476Y-32833333D01*
X79647619Y-32833333D01*
X79552380Y-32880952D01*
X79504761Y-32928571D01*
X79457142Y-33023809D01*
X79457142Y-33261904D01*
X79504761Y-33357142D01*
X79552380Y-33404761D01*
X79647619Y-33452380D01*
X79933333Y-33452380D01*
X80028571Y-33404761D01*
X80076190Y-33357142D01*
X79028571Y-33357142D02*
X78980952Y-33404761D01*
X79028571Y-33452380D01*
X79076190Y-33404761D01*
X79028571Y-33357142D01*
X79028571Y-33452380D01*
X78647619Y-32452380D02*
X78028571Y-32452380D01*
X78361904Y-32833333D01*
X78219047Y-32833333D01*
X78123809Y-32880952D01*
X78076190Y-32928571D01*
X78028571Y-33023809D01*
X78028571Y-33261904D01*
X78076190Y-33357142D01*
X78123809Y-33404761D01*
X78219047Y-33452380D01*
X78504761Y-33452380D01*
X78600000Y-33404761D01*
X78647619Y-33357142D01*
X77742857Y-32452380D02*
X77409523Y-33452380D01*
X77076190Y-32452380D01*
G04 #@! TO.C,TP4*
X74457142Y-37566666D02*
X73980952Y-37566666D01*
X74552380Y-37852380D02*
X74219047Y-36852380D01*
X73885714Y-37852380D01*
X73552380Y-37471428D02*
X72790476Y-37471428D01*
X73171428Y-37852380D02*
X73171428Y-37090476D01*
G04 #@! TO.C,TP5*
X74457142Y-28566666D02*
X73980952Y-28566666D01*
X74552380Y-28852380D02*
X74219047Y-27852380D01*
X73885714Y-28852380D01*
X73552380Y-28471428D02*
X72790476Y-28471428D01*
G04 #@! TO.C,TP6*
X56685714Y-37804761D02*
X56542857Y-37852380D01*
X56304761Y-37852380D01*
X56209523Y-37804761D01*
X56161904Y-37757142D01*
X56114285Y-37661904D01*
X56114285Y-37566666D01*
X56161904Y-37471428D01*
X56209523Y-37423809D01*
X56304761Y-37376190D01*
X56495238Y-37328571D01*
X56590476Y-37280952D01*
X56638095Y-37233333D01*
X56685714Y-37138095D01*
X56685714Y-37042857D01*
X56638095Y-36947619D01*
X56590476Y-36900000D01*
X56495238Y-36852380D01*
X56257142Y-36852380D01*
X56114285Y-36900000D01*
X55685714Y-37852380D02*
X55685714Y-36852380D01*
X55447619Y-36852380D01*
X55304761Y-36900000D01*
X55209523Y-36995238D01*
X55161904Y-37090476D01*
X55114285Y-37280952D01*
X55114285Y-37423809D01*
X55161904Y-37614285D01*
X55209523Y-37709523D01*
X55304761Y-37804761D01*
X55447619Y-37852380D01*
X55685714Y-37852380D01*
G04 #@! TO.C,TP7*
D10*
X56214285Y-31661904D02*
X56214285Y-30861904D01*
X55833333Y-31661904D02*
X55833333Y-30861904D01*
X55376190Y-31661904D01*
X55376190Y-30861904D01*
X54995238Y-31357142D02*
X54385714Y-31357142D01*
X54690476Y-31661904D02*
X54690476Y-31052380D01*
G04 #@! TO.C,U1*
X65309523Y-35961904D02*
X65309523Y-36609523D01*
X65271428Y-36685714D01*
X65233333Y-36723809D01*
X65157142Y-36761904D01*
X65004761Y-36761904D01*
X64928571Y-36723809D01*
X64890476Y-36685714D01*
X64852380Y-36609523D01*
X64852380Y-35961904D01*
X64052380Y-36761904D02*
X64509523Y-36761904D01*
X64280952Y-36761904D02*
X64280952Y-35961904D01*
X64357142Y-36076190D01*
X64433333Y-36152380D01*
X64509523Y-36190476D01*
G04 #@! TD*
M02*
