G04 #@! TF.GenerationSoftware,KiCad,Pcbnew,5.0.2-bee76a0~70~ubuntu16.04.1*
G04 #@! TF.CreationDate,2019-08-25T20:36:25-07:00*
G04 #@! TF.ProjectId,endcap,656e6463-6170-42e6-9b69-6361645f7063,rev?*
G04 #@! TF.SameCoordinates,PX2faf080PY2faf080*
G04 #@! TF.FileFunction,Other,ECO1*
%FSLAX46Y46*%
G04 Gerber Fmt 4.6, Leading zero omitted, Abs format (unit mm)*
G04 Created by KiCad (PCBNEW 5.0.2-bee76a0~70~ubuntu16.04.1) date Sun 25 Aug 2019 08:36:25 PM PDT*
%MOMM*%
%LPD*%
G01*
G04 APERTURE LIST*
%ADD10C,0.300000*%
%ADD11C,0.200000*%
%ADD12C,0.800000*%
G04 APERTURE END LIST*
D10*
X8771428Y-46795238D02*
X8866666Y-46700000D01*
X9057142Y-46604761D01*
X9533333Y-46604761D01*
X9723809Y-46700000D01*
X9819047Y-46795238D01*
X9914285Y-46985714D01*
X9914285Y-47176190D01*
X9819047Y-47461904D01*
X8676190Y-48604761D01*
X9914285Y-48604761D01*
X10676190Y-48033333D02*
X11628571Y-48033333D01*
X10485714Y-48604761D02*
X11152380Y-46604761D01*
X11819047Y-48604761D01*
X5519047Y-34804761D02*
X4376190Y-34804761D01*
X4947619Y-34804761D02*
X4947619Y-32804761D01*
X4757142Y-33090476D01*
X4566666Y-33280952D01*
X4376190Y-33376190D01*
X7423809Y-34804761D02*
X6280952Y-34804761D01*
X6852380Y-34804761D02*
X6852380Y-32804761D01*
X6661904Y-33090476D01*
X6471428Y-33280952D01*
X6280952Y-33376190D01*
X8280952Y-34042857D02*
X9804761Y-34042857D01*
X11804761Y-34804761D02*
X10661904Y-34804761D01*
X11233333Y-34804761D02*
X11233333Y-32804761D01*
X11042857Y-33090476D01*
X10852380Y-33280952D01*
X10661904Y-33376190D01*
X13519047Y-32804761D02*
X13138095Y-32804761D01*
X12947619Y-32900000D01*
X12852380Y-32995238D01*
X12661904Y-33280952D01*
X12566666Y-33661904D01*
X12566666Y-34423809D01*
X12661904Y-34614285D01*
X12757142Y-34709523D01*
X12947619Y-34804761D01*
X13328571Y-34804761D01*
X13519047Y-34709523D01*
X13614285Y-34614285D01*
X13709523Y-34423809D01*
X13709523Y-33947619D01*
X13614285Y-33757142D01*
X13519047Y-33661904D01*
X13328571Y-33566666D01*
X12947619Y-33566666D01*
X12757142Y-33661904D01*
X12661904Y-33757142D01*
X12566666Y-33947619D01*
X14280952Y-32804761D02*
X14947619Y-34804761D01*
X15614285Y-32804761D01*
X90142857Y-36705952D02*
X90142857Y-34205952D01*
X91571428Y-36705952D02*
X90500000Y-35277380D01*
X91571428Y-34205952D02*
X90142857Y-35634523D01*
X92642857Y-35396428D02*
X93476190Y-35396428D01*
X93833333Y-36705952D02*
X92642857Y-36705952D01*
X92642857Y-34205952D01*
X93833333Y-34205952D01*
X95380952Y-35515476D02*
X95380952Y-36705952D01*
X94547619Y-34205952D02*
X95380952Y-35515476D01*
X96214285Y-34205952D01*
X90440476Y-40755952D02*
X90440476Y-38255952D01*
X91392857Y-38255952D01*
X91630952Y-38375000D01*
X91750000Y-38494047D01*
X91869047Y-38732142D01*
X91869047Y-39089285D01*
X91750000Y-39327380D01*
X91630952Y-39446428D01*
X91392857Y-39565476D01*
X90440476Y-39565476D01*
X92583333Y-38255952D02*
X94011904Y-38255952D01*
X93297619Y-40755952D02*
X93297619Y-38255952D01*
X94488095Y-38255952D02*
X95916666Y-38255952D01*
X95202380Y-40755952D02*
X95202380Y-38255952D01*
X80171428Y-40492857D02*
X80052380Y-40611904D01*
X79695238Y-40730952D01*
X79457142Y-40730952D01*
X79100000Y-40611904D01*
X78861904Y-40373809D01*
X78742857Y-40135714D01*
X78623809Y-39659523D01*
X78623809Y-39302380D01*
X78742857Y-38826190D01*
X78861904Y-38588095D01*
X79100000Y-38350000D01*
X79457142Y-38230952D01*
X79695238Y-38230952D01*
X80052380Y-38350000D01*
X80171428Y-38469047D01*
X82433333Y-40730952D02*
X81242857Y-40730952D01*
X81242857Y-38230952D01*
X84576190Y-40730952D02*
X83147619Y-40730952D01*
X83861904Y-40730952D02*
X83861904Y-38230952D01*
X83623809Y-38588095D01*
X83385714Y-38826190D01*
X83147619Y-38945238D01*
X70011428Y-40492857D02*
X69892380Y-40611904D01*
X69535238Y-40730952D01*
X69297142Y-40730952D01*
X68940000Y-40611904D01*
X68701904Y-40373809D01*
X68582857Y-40135714D01*
X68463809Y-39659523D01*
X68463809Y-39302380D01*
X68582857Y-38826190D01*
X68701904Y-38588095D01*
X68940000Y-38350000D01*
X69297142Y-38230952D01*
X69535238Y-38230952D01*
X69892380Y-38350000D01*
X70011428Y-38469047D01*
X72273333Y-40730952D02*
X71082857Y-40730952D01*
X71082857Y-38230952D01*
X72987619Y-38469047D02*
X73106666Y-38350000D01*
X73344761Y-38230952D01*
X73940000Y-38230952D01*
X74178095Y-38350000D01*
X74297142Y-38469047D01*
X74416190Y-38707142D01*
X74416190Y-38945238D01*
X74297142Y-39302380D01*
X72868571Y-40730952D01*
X74416190Y-40730952D01*
X56504761Y-40016666D02*
X57695238Y-40016666D01*
X56266666Y-40730952D02*
X57100000Y-38230952D01*
X57933333Y-40730952D01*
X58766666Y-40730952D02*
X58766666Y-38230952D01*
X59361904Y-38230952D01*
X59719047Y-38350000D01*
X59957142Y-38588095D01*
X60076190Y-38826190D01*
X60195238Y-39302380D01*
X60195238Y-39659523D01*
X60076190Y-40135714D01*
X59957142Y-40373809D01*
X59719047Y-40611904D01*
X59361904Y-40730952D01*
X58766666Y-40730952D01*
X62695238Y-40492857D02*
X62576190Y-40611904D01*
X62219047Y-40730952D01*
X61980952Y-40730952D01*
X61623809Y-40611904D01*
X61385714Y-40373809D01*
X61266666Y-40135714D01*
X61147619Y-39659523D01*
X61147619Y-39302380D01*
X61266666Y-38826190D01*
X61385714Y-38588095D01*
X61623809Y-38350000D01*
X61980952Y-38230952D01*
X62219047Y-38230952D01*
X62576190Y-38350000D01*
X62695238Y-38469047D01*
D11*
X65500000Y-41900000D02*
X65500000Y-42900000D01*
X53600000Y-41900000D02*
X65500000Y-41900000D01*
X53600000Y-42900000D02*
X53600000Y-41900000D01*
X60866339Y-50678571D02*
X61053839Y-49178571D01*
X60964553Y-49892857D02*
X61821696Y-49892857D01*
X61723482Y-50678571D02*
X61910982Y-49178571D01*
X62482410Y-49178571D02*
X62652053Y-50678571D01*
X63071696Y-49607142D01*
X63223482Y-50678571D01*
X63768125Y-49178571D01*
X54032410Y-50607142D02*
X54237767Y-50678571D01*
X54594910Y-50678571D01*
X54746696Y-50607142D01*
X54827053Y-50535714D01*
X54916339Y-50392857D01*
X54934196Y-50250000D01*
X54880625Y-50107142D01*
X54818125Y-50035714D01*
X54684196Y-49964285D01*
X54407410Y-49892857D01*
X54273482Y-49821428D01*
X54210982Y-49750000D01*
X54157410Y-49607142D01*
X54175267Y-49464285D01*
X54264553Y-49321428D01*
X54344910Y-49250000D01*
X54496696Y-49178571D01*
X54853839Y-49178571D01*
X55059196Y-49250000D01*
X55523482Y-50678571D02*
X55710982Y-49178571D01*
X56282410Y-49178571D01*
X56416339Y-49250000D01*
X56478839Y-49321428D01*
X56532410Y-49464285D01*
X56505625Y-49678571D01*
X56416339Y-49821428D01*
X56335982Y-49892857D01*
X56184196Y-49964285D01*
X55612767Y-49964285D01*
X57023482Y-50678571D02*
X57210982Y-49178571D01*
X57568125Y-49178571D01*
X57773482Y-49250000D01*
X57898482Y-49392857D01*
X57952053Y-49535714D01*
X57987767Y-49821428D01*
X57960982Y-50035714D01*
X57853839Y-50321428D01*
X57764553Y-50464285D01*
X57603839Y-50607142D01*
X57380625Y-50678571D01*
X57023482Y-50678571D01*
X49002053Y-50678571D02*
X49189553Y-49178571D01*
X49716339Y-50678571D02*
X49903839Y-49178571D01*
X50475267Y-49178571D01*
X50609196Y-49250000D01*
X50671696Y-49321428D01*
X50725267Y-49464285D01*
X50698482Y-49678571D01*
X50609196Y-49821428D01*
X50528839Y-49892857D01*
X50377053Y-49964285D01*
X49805625Y-49964285D01*
X42677053Y-50535714D02*
X42596696Y-50607142D01*
X42373482Y-50678571D01*
X42230625Y-50678571D01*
X42025267Y-50607142D01*
X41900267Y-50464285D01*
X41846696Y-50321428D01*
X41810982Y-50035714D01*
X41837767Y-49821428D01*
X41944910Y-49535714D01*
X42034196Y-49392857D01*
X42194910Y-49250000D01*
X42418125Y-49178571D01*
X42560982Y-49178571D01*
X42766339Y-49250000D01*
X42828839Y-49321428D01*
X44016339Y-50678571D02*
X43302053Y-50678571D01*
X43489553Y-49178571D01*
X44516339Y-50678571D02*
X44703839Y-49178571D01*
X45373482Y-50678571D02*
X44837767Y-49821428D01*
X45560982Y-49178571D02*
X44596696Y-50035714D01*
D10*
X60966666Y-44904761D02*
X59823809Y-44904761D01*
X60395238Y-44904761D02*
X60395238Y-42904761D01*
X60204761Y-43190476D01*
X60014285Y-43380952D01*
X59823809Y-43476190D01*
X62204761Y-42904761D02*
X62395238Y-42904761D01*
X62585714Y-43000000D01*
X62680952Y-43095238D01*
X62776190Y-43285714D01*
X62871428Y-43666666D01*
X62871428Y-44142857D01*
X62776190Y-44523809D01*
X62680952Y-44714285D01*
X62585714Y-44809523D01*
X62395238Y-44904761D01*
X62204761Y-44904761D01*
X62014285Y-44809523D01*
X61919047Y-44714285D01*
X61823809Y-44523809D01*
X61728571Y-44142857D01*
X61728571Y-43666666D01*
X61823809Y-43285714D01*
X61919047Y-43095238D01*
X62014285Y-43000000D01*
X62204761Y-42904761D01*
X64109523Y-42904761D02*
X64300000Y-42904761D01*
X64490476Y-43000000D01*
X64585714Y-43095238D01*
X64680952Y-43285714D01*
X64776190Y-43666666D01*
X64776190Y-44142857D01*
X64680952Y-44523809D01*
X64585714Y-44714285D01*
X64490476Y-44809523D01*
X64300000Y-44904761D01*
X64109523Y-44904761D01*
X63919047Y-44809523D01*
X63823809Y-44714285D01*
X63728571Y-44523809D01*
X63633333Y-44142857D01*
X63633333Y-43666666D01*
X63728571Y-43285714D01*
X63823809Y-43095238D01*
X63919047Y-43000000D01*
X64109523Y-42904761D01*
X54480952Y-42904761D02*
X55814285Y-42904761D01*
X54957142Y-44904761D01*
X57528571Y-42904761D02*
X56576190Y-42904761D01*
X56480952Y-43857142D01*
X56576190Y-43761904D01*
X56766666Y-43666666D01*
X57242857Y-43666666D01*
X57433333Y-43761904D01*
X57528571Y-43857142D01*
X57623809Y-44047619D01*
X57623809Y-44523809D01*
X57528571Y-44714285D01*
X57433333Y-44809523D01*
X57242857Y-44904761D01*
X56766666Y-44904761D01*
X56576190Y-44809523D01*
X56480952Y-44714285D01*
X48376190Y-42904761D02*
X49519047Y-42904761D01*
X48947619Y-44904761D02*
X48947619Y-42904761D01*
X49995238Y-42904761D02*
X51328571Y-44904761D01*
X51328571Y-42904761D02*
X49995238Y-44904761D01*
X42223809Y-44904761D02*
X41557142Y-43952380D01*
X41080952Y-44904761D02*
X41080952Y-42904761D01*
X41842857Y-42904761D01*
X42033333Y-43000000D01*
X42128571Y-43095238D01*
X42223809Y-43285714D01*
X42223809Y-43571428D01*
X42128571Y-43761904D01*
X42033333Y-43857142D01*
X41842857Y-43952380D01*
X41080952Y-43952380D01*
X43080952Y-42904761D02*
X43080952Y-44523809D01*
X43176190Y-44714285D01*
X43271428Y-44809523D01*
X43461904Y-44904761D01*
X43842857Y-44904761D01*
X44033333Y-44809523D01*
X44128571Y-44714285D01*
X44223809Y-44523809D01*
X44223809Y-42904761D01*
X45176190Y-44904761D02*
X45176190Y-42904761D01*
X46319047Y-44904761D01*
X46319047Y-42904761D01*
D11*
X31728571Y-34278571D02*
X31014285Y-34278571D01*
X31014285Y-32778571D01*
X32228571Y-34278571D02*
X32228571Y-32778571D01*
X33085714Y-34278571D01*
X33085714Y-32778571D01*
X33800000Y-34278571D02*
X33800000Y-32778571D01*
X34657142Y-34278571D02*
X34014285Y-33421428D01*
X34657142Y-32778571D02*
X33800000Y-33635714D01*
X17121428Y-33850000D02*
X17835714Y-33850000D01*
X16978571Y-34278571D02*
X17478571Y-32778571D01*
X17978571Y-34278571D01*
X19335714Y-34135714D02*
X19264285Y-34207142D01*
X19050000Y-34278571D01*
X18907142Y-34278571D01*
X18692857Y-34207142D01*
X18550000Y-34064285D01*
X18478571Y-33921428D01*
X18407142Y-33635714D01*
X18407142Y-33421428D01*
X18478571Y-33135714D01*
X18550000Y-32992857D01*
X18692857Y-32850000D01*
X18907142Y-32778571D01*
X19050000Y-32778571D01*
X19264285Y-32850000D01*
X19335714Y-32921428D01*
X19764285Y-32778571D02*
X20621428Y-32778571D01*
X20192857Y-34278571D02*
X20192857Y-32778571D01*
D12*
X21500000Y-21966666D02*
X21500000Y-14966666D01*
X21500000Y-18300000D02*
X25500000Y-18300000D01*
X25500000Y-21966666D02*
X25500000Y-14966666D01*
X31500000Y-21633333D02*
X30833333Y-21966666D01*
X29500000Y-21966666D01*
X28833333Y-21633333D01*
X28500000Y-20966666D01*
X28500000Y-18300000D01*
X28833333Y-17633333D01*
X29500000Y-17300000D01*
X30833333Y-17300000D01*
X31500000Y-17633333D01*
X31833333Y-18300000D01*
X31833333Y-18966666D01*
X28500000Y-19633333D01*
X34833333Y-21966666D02*
X34833333Y-17300000D01*
X34833333Y-18633333D02*
X35166666Y-17966666D01*
X35500000Y-17633333D01*
X36166666Y-17300000D01*
X36833333Y-17300000D01*
X39166666Y-21966666D02*
X39166666Y-17300000D01*
X39166666Y-17966666D02*
X39500000Y-17633333D01*
X40166666Y-17300000D01*
X41166666Y-17300000D01*
X41833333Y-17633333D01*
X42166666Y-18300000D01*
X42166666Y-21966666D01*
X42166666Y-18300000D02*
X42500000Y-17633333D01*
X43166666Y-17300000D01*
X44166666Y-17300000D01*
X44833333Y-17633333D01*
X45166666Y-18300000D01*
X45166666Y-21966666D01*
X51166666Y-21633333D02*
X50500000Y-21966666D01*
X49166666Y-21966666D01*
X48500000Y-21633333D01*
X48166666Y-20966666D01*
X48166666Y-18300000D01*
X48500000Y-17633333D01*
X49166666Y-17300000D01*
X50500000Y-17300000D01*
X51166666Y-17633333D01*
X51500000Y-18300000D01*
X51500000Y-18966666D01*
X48166666Y-19633333D01*
X54166666Y-21633333D02*
X54833333Y-21966666D01*
X56166666Y-21966666D01*
X56833333Y-21633333D01*
X57166666Y-20966666D01*
X57166666Y-20633333D01*
X56833333Y-19966666D01*
X56166666Y-19633333D01*
X55166666Y-19633333D01*
X54500000Y-19300000D01*
X54166666Y-18633333D01*
X54166666Y-18300000D01*
X54500000Y-17633333D01*
X55166666Y-17300000D01*
X56166666Y-17300000D01*
X56833333Y-17633333D01*
X60166666Y-19300000D02*
X65500000Y-19300000D01*
X72166666Y-21966666D02*
X68833333Y-21966666D01*
X68833333Y-14966666D01*
X74500000Y-21966666D02*
X74500000Y-17300000D01*
X74500000Y-14966666D02*
X74166666Y-15300000D01*
X74500000Y-15633333D01*
X74833333Y-15300000D01*
X74500000Y-14966666D01*
X74500000Y-15633333D01*
X76833333Y-17300000D02*
X79500000Y-17300000D01*
X77833333Y-14966666D02*
X77833333Y-20966666D01*
X78166666Y-21633333D01*
X78833333Y-21966666D01*
X79500000Y-21966666D01*
X84500000Y-21633333D02*
X83833333Y-21966666D01*
X82500000Y-21966666D01*
X81833333Y-21633333D01*
X81500000Y-20966666D01*
X81500000Y-18300000D01*
X81833333Y-17633333D01*
X82500000Y-17300000D01*
X83833333Y-17300000D01*
X84500000Y-17633333D01*
X84833333Y-18300000D01*
X84833333Y-18966666D01*
X81500000Y-19633333D01*
M02*
