M48
; DRILL file {KiCad (5.1.8)-1} date 12/19/20 16:26:38
; FORMAT={-:-/ absolute / inch / decimal}
; #@! TF.CreationDate,2020-12-19T16:26:38-06:00
; #@! TF.GenerationSoftware,Kicad,Pcbnew,(5.1.8)-1
FMAT,2
INCH
T1C0.1339
T2C0.0394
T3C0.0551
T4C0.0669
T5C0.2756
T6C0.2835
T7C0.3346
%
G90
G05
T2
X1.5157Y-0.063
X1.5157Y-0.1457
X2.6575Y-0.063
X2.6575Y-0.1457
T3
X2.45Y-0.3642
X2.45Y-0.4626
X2.45Y-0.561
X2.45Y-0.6594
X2.45Y-0.7579
X2.45Y-0.8563
X2.45Y-0.9547
X2.45Y-1.0531
X2.45Y-1.1516
X2.45Y-1.25
X2.5484Y-0.3642
X2.5484Y-0.4626
X2.5484Y-0.561
X2.5484Y-0.6594
X2.5484Y-0.7579
X2.5484Y-0.8563
X2.5484Y-0.9547
X2.5484Y-1.0531
X2.5484Y-1.1516
X2.5484Y-1.25
X2.6469Y-0.3642
X2.6469Y-0.4626
X2.6469Y-0.561
X2.6469Y-0.6594
X2.6469Y-0.7579
X2.6469Y-0.8563
X2.6469Y-0.9547
X2.6469Y-1.0531
X2.6469Y-1.1516
X2.6469Y-1.25
X2.7453Y-0.3642
X2.7453Y-0.4626
X2.7453Y-0.561
X2.7453Y-0.6594
X2.7453Y-0.7579
X2.7453Y-0.8563
X2.7453Y-0.9547
X2.7453Y-1.0531
X2.7453Y-1.1516
X2.7453Y-1.25
X2.8437Y-0.3642
X2.8437Y-0.4626
X2.8437Y-0.561
X2.8437Y-0.6594
X2.8437Y-0.7579
X2.8437Y-0.8563
X2.8437Y-0.9547
X2.8437Y-1.0531
X2.8437Y-1.1516
X2.8437Y-1.25
X2.9421Y-0.3642
X2.9421Y-0.4626
X2.9421Y-0.561
X2.9421Y-0.6594
X2.9421Y-0.7579
X2.9421Y-0.8563
X2.9421Y-0.9547
X2.9421Y-1.0531
X2.9421Y-1.1516
X2.9421Y-1.25
X3.0406Y-0.3642
X3.0406Y-0.4626
X3.0406Y-0.561
X3.0406Y-0.6594
X3.0406Y-0.7579
X3.0406Y-0.8563
X3.0406Y-0.9547
X3.0406Y-1.0531
X3.0406Y-1.1516
X3.0406Y-1.25
X3.139Y-0.3642
X3.139Y-0.4626
X3.139Y-0.561
X3.139Y-0.6594
X3.139Y-0.7579
X3.139Y-0.8563
X3.139Y-0.9547
X3.139Y-1.0531
X3.139Y-1.1516
X3.139Y-1.25
X3.2374Y-0.3642
X3.2374Y-0.4626
X3.2374Y-0.561
X3.2374Y-0.6594
X3.2374Y-0.7579
X3.2374Y-0.8563
X3.2374Y-0.9547
X3.2374Y-1.0531
X3.2374Y-1.1516
X3.2374Y-1.25
X3.3358Y-0.3642
X3.3358Y-0.4626
X3.3358Y-0.561
X3.3358Y-0.6594
X3.3358Y-0.7579
X3.3358Y-0.8563
X3.3358Y-0.9547
X3.3358Y-1.0531
X3.3358Y-1.1516
X3.3358Y-1.25
X3.4343Y-0.3642
X3.4343Y-0.4626
X3.4343Y-0.561
X3.4343Y-0.6594
X3.4343Y-0.7579
X3.4343Y-0.8563
X3.4343Y-0.9547
X3.4343Y-1.0531
X3.4343Y-1.1516
X3.4343Y-1.25
X3.5327Y-0.3642
X3.5327Y-0.4626
X3.5327Y-0.561
X3.5327Y-0.6594
X3.5327Y-0.7579
X3.5327Y-0.8563
X3.5327Y-0.9547
X3.5327Y-1.0531
X3.5327Y-1.1516
X3.5327Y-1.25
X3.6311Y-0.3642
X3.6311Y-0.4626
X3.6311Y-0.561
X3.6311Y-0.6594
X3.6311Y-0.7579
X3.6311Y-0.8563
X3.6311Y-0.9547
X3.6311Y-1.0531
X3.6311Y-1.1516
X3.6311Y-1.25
X3.7295Y-0.3642
X3.7295Y-0.4626
X3.7295Y-0.561
X3.7295Y-0.6594
X3.7295Y-0.7579
X3.7295Y-0.8563
X3.7295Y-0.9547
X3.7295Y-1.0531
X3.7295Y-1.1516
X3.7295Y-1.25
X3.828Y-0.3642
X3.828Y-0.4626
X3.828Y-0.561
X3.828Y-0.6594
X3.828Y-0.7579
X3.828Y-0.8563
X3.828Y-0.9547
X3.828Y-1.0531
X3.828Y-1.1516
X3.828Y-1.25
T4
X1.7205Y-1.8543
X1.9646Y-1.8543
X2.2087Y-1.8543
X2.4528Y-1.8543
T5
X2.8126Y-1.8411
X3.2126Y-1.8411
T6
X3.6614Y-1.7677
T7
X0.4016Y-1.6102
T1
G00X0.187Y-0.1476
M15
G01X0.1969Y-0.1476
M16
G05
G00X0.187Y-2.0177
M15
G01X0.1969Y-2.0177
M16
G05
G00X3.9764Y-0.1476
M15
G01X3.9862Y-0.1476
M16
G05
G00X3.9764Y-2.0177
M15
G01X3.9862Y-2.0177
M16
G05
T0
M30
