G04 #@! TF.GenerationSoftware,KiCad,Pcbnew,5.1.5-52549c5~84~ubuntu18.04.1*
G04 #@! TF.CreationDate,2020-03-18T22:27:28-07:00*
G04 #@! TF.ProjectId,endcap,656e6463-6170-42e6-9b69-6361645f7063,rev?*
G04 #@! TF.SameCoordinates,PX2faf080PY3dfd240*
G04 #@! TF.FileFunction,Legend,Top*
G04 #@! TF.FilePolarity,Positive*
%FSLAX46Y46*%
G04 Gerber Fmt 4.6, Leading zero omitted, Abs format (unit mm)*
G04 Created by KiCad (PCBNEW 5.1.5-52549c5~84~ubuntu18.04.1) date 2020-03-18 22:27:28*
%MOMM*%
%LPD*%
G04 APERTURE LIST*
%ADD10C,0.200000*%
%ADD11C,0.300000*%
%ADD12C,0.400000*%
G04 APERTURE END LIST*
D10*
X64000000Y-21900000D02*
X64000000Y-22400000D01*
X54400000Y-21900000D02*
X54400000Y-22400000D01*
X64000000Y-21900000D02*
X54400000Y-21900000D01*
D11*
X58683333Y-15004761D02*
X58683333Y-16195238D01*
X57969047Y-14766666D02*
X60469047Y-15600000D01*
X57969047Y-16433333D01*
X57969047Y-17266666D02*
X60469047Y-17266666D01*
X60469047Y-17861904D01*
X60350000Y-18219047D01*
X60111904Y-18457142D01*
X59873809Y-18576190D01*
X59397619Y-18695238D01*
X59040476Y-18695238D01*
X58564285Y-18576190D01*
X58326190Y-18457142D01*
X58088095Y-18219047D01*
X57969047Y-17861904D01*
X57969047Y-17266666D01*
X58207142Y-21195238D02*
X58088095Y-21076190D01*
X57969047Y-20719047D01*
X57969047Y-20480952D01*
X58088095Y-20123809D01*
X58326190Y-19885714D01*
X58564285Y-19766666D01*
X59040476Y-19647619D01*
X59397619Y-19647619D01*
X59873809Y-19766666D01*
X60111904Y-19885714D01*
X60350000Y-20123809D01*
X60469047Y-20480952D01*
X60469047Y-20719047D01*
X60350000Y-21076190D01*
X60230952Y-21195238D01*
X70507142Y-20518809D02*
X70388095Y-20399761D01*
X70269047Y-20042619D01*
X70269047Y-19804523D01*
X70388095Y-19447380D01*
X70626190Y-19209285D01*
X70864285Y-19090238D01*
X71340476Y-18971190D01*
X71697619Y-18971190D01*
X72173809Y-19090238D01*
X72411904Y-19209285D01*
X72650000Y-19447380D01*
X72769047Y-19804523D01*
X72769047Y-20042619D01*
X72650000Y-20399761D01*
X72530952Y-20518809D01*
X70269047Y-22780714D02*
X70269047Y-21590238D01*
X72769047Y-21590238D01*
X72530952Y-23495000D02*
X72650000Y-23614047D01*
X72769047Y-23852142D01*
X72769047Y-24447380D01*
X72650000Y-24685476D01*
X72530952Y-24804523D01*
X72292857Y-24923571D01*
X72054761Y-24923571D01*
X71697619Y-24804523D01*
X70269047Y-23375952D01*
X70269047Y-24923571D01*
X80607142Y-20518809D02*
X80488095Y-20399761D01*
X80369047Y-20042619D01*
X80369047Y-19804523D01*
X80488095Y-19447380D01*
X80726190Y-19209285D01*
X80964285Y-19090238D01*
X81440476Y-18971190D01*
X81797619Y-18971190D01*
X82273809Y-19090238D01*
X82511904Y-19209285D01*
X82750000Y-19447380D01*
X82869047Y-19804523D01*
X82869047Y-20042619D01*
X82750000Y-20399761D01*
X82630952Y-20518809D01*
X80369047Y-22780714D02*
X80369047Y-21590238D01*
X82869047Y-21590238D01*
X80369047Y-24923571D02*
X80369047Y-23495000D01*
X80369047Y-24209285D02*
X82869047Y-24209285D01*
X82511904Y-23971190D01*
X82273809Y-23733095D01*
X82154761Y-23495000D01*
D10*
X32121428Y-15628571D02*
X32121428Y-14914285D01*
X33621428Y-14914285D01*
X32121428Y-16128571D02*
X33621428Y-16128571D01*
X32121428Y-16985714D01*
X33621428Y-16985714D01*
X32121428Y-17700000D02*
X33621428Y-17700000D01*
X32121428Y-18557142D02*
X32978571Y-17914285D01*
X33621428Y-18557142D02*
X32764285Y-17700000D01*
X18550000Y-15021428D02*
X18550000Y-15735714D01*
X18121428Y-14878571D02*
X19621428Y-15378571D01*
X18121428Y-15878571D01*
X18264285Y-17235714D02*
X18192857Y-17164285D01*
X18121428Y-16950000D01*
X18121428Y-16807142D01*
X18192857Y-16592857D01*
X18335714Y-16450000D01*
X18478571Y-16378571D01*
X18764285Y-16307142D01*
X18978571Y-16307142D01*
X19264285Y-16378571D01*
X19407142Y-16450000D01*
X19550000Y-16592857D01*
X19621428Y-16807142D01*
X19621428Y-16950000D01*
X19550000Y-17164285D01*
X19478571Y-17235714D01*
X19621428Y-17664285D02*
X19621428Y-18521428D01*
X18121428Y-18092857D02*
X19621428Y-18092857D01*
X61521428Y-33366339D02*
X63021428Y-33553839D01*
X62307142Y-33464553D02*
X62307142Y-34321696D01*
X61521428Y-34223482D02*
X63021428Y-34410982D01*
X63021428Y-34982410D02*
X61521428Y-35152053D01*
X62592857Y-35571696D01*
X61521428Y-35723482D01*
X63021428Y-36268125D01*
X55392857Y-33532410D02*
X55321428Y-33737767D01*
X55321428Y-34094910D01*
X55392857Y-34246696D01*
X55464285Y-34327053D01*
X55607142Y-34416339D01*
X55750000Y-34434196D01*
X55892857Y-34380625D01*
X55964285Y-34318125D01*
X56035714Y-34184196D01*
X56107142Y-33907410D01*
X56178571Y-33773482D01*
X56250000Y-33710982D01*
X56392857Y-33657410D01*
X56535714Y-33675267D01*
X56678571Y-33764553D01*
X56750000Y-33844910D01*
X56821428Y-33996696D01*
X56821428Y-34353839D01*
X56750000Y-34559196D01*
X55321428Y-35023482D02*
X56821428Y-35210982D01*
X56821428Y-35782410D01*
X56750000Y-35916339D01*
X56678571Y-35978839D01*
X56535714Y-36032410D01*
X56321428Y-36005625D01*
X56178571Y-35916339D01*
X56107142Y-35835982D01*
X56035714Y-35684196D01*
X56035714Y-35112767D01*
X55321428Y-36523482D02*
X56821428Y-36710982D01*
X56821428Y-37068125D01*
X56750000Y-37273482D01*
X56607142Y-37398482D01*
X56464285Y-37452053D01*
X56178571Y-37487767D01*
X55964285Y-37460982D01*
X55678571Y-37353839D01*
X55535714Y-37264553D01*
X55392857Y-37103839D01*
X55321428Y-36880625D01*
X55321428Y-36523482D01*
X49221428Y-33402053D02*
X50721428Y-33589553D01*
X49221428Y-34116339D02*
X50721428Y-34303839D01*
X50721428Y-34875267D01*
X50650000Y-35009196D01*
X50578571Y-35071696D01*
X50435714Y-35125267D01*
X50221428Y-35098482D01*
X50078571Y-35009196D01*
X50007142Y-34928839D01*
X49935714Y-34777053D01*
X49935714Y-34205625D01*
X43064285Y-34277053D02*
X42992857Y-34196696D01*
X42921428Y-33973482D01*
X42921428Y-33830625D01*
X42992857Y-33625267D01*
X43135714Y-33500267D01*
X43278571Y-33446696D01*
X43564285Y-33410982D01*
X43778571Y-33437767D01*
X44064285Y-33544910D01*
X44207142Y-33634196D01*
X44350000Y-33794910D01*
X44421428Y-34018125D01*
X44421428Y-34160982D01*
X44350000Y-34366339D01*
X44278571Y-34428839D01*
X42921428Y-35616339D02*
X42921428Y-34902053D01*
X44421428Y-35089553D01*
X42921428Y-36116339D02*
X44421428Y-36303839D01*
X42921428Y-36973482D02*
X43778571Y-36437767D01*
X44421428Y-37160982D02*
X43564285Y-36196696D01*
D11*
X42469047Y-23854761D02*
X43659523Y-23021428D01*
X42469047Y-22426190D02*
X44969047Y-22426190D01*
X44969047Y-23378571D01*
X44850000Y-23616666D01*
X44730952Y-23735714D01*
X44492857Y-23854761D01*
X44135714Y-23854761D01*
X43897619Y-23735714D01*
X43778571Y-23616666D01*
X43659523Y-23378571D01*
X43659523Y-22426190D01*
X44969047Y-24926190D02*
X42945238Y-24926190D01*
X42707142Y-25045238D01*
X42588095Y-25164285D01*
X42469047Y-25402380D01*
X42469047Y-25878571D01*
X42588095Y-26116666D01*
X42707142Y-26235714D01*
X42945238Y-26354761D01*
X44969047Y-26354761D01*
X42469047Y-27545238D02*
X44969047Y-27545238D01*
X42469047Y-28973809D01*
X44969047Y-28973809D01*
X51069047Y-25295238D02*
X51069047Y-26723809D01*
X48569047Y-26009523D02*
X51069047Y-26009523D01*
X51069047Y-27319047D02*
X48569047Y-28985714D01*
X51069047Y-28985714D02*
X48569047Y-27319047D01*
X61069047Y-24233333D02*
X61069047Y-22804761D01*
X61069047Y-23519047D02*
X63569047Y-23519047D01*
X63211904Y-23280952D01*
X62973809Y-23042857D01*
X62854761Y-22804761D01*
X63569047Y-25780952D02*
X63569047Y-26019047D01*
X63450000Y-26257142D01*
X63330952Y-26376190D01*
X63092857Y-26495238D01*
X62616666Y-26614285D01*
X62021428Y-26614285D01*
X61545238Y-26495238D01*
X61307142Y-26376190D01*
X61188095Y-26257142D01*
X61069047Y-26019047D01*
X61069047Y-25780952D01*
X61188095Y-25542857D01*
X61307142Y-25423809D01*
X61545238Y-25304761D01*
X62021428Y-25185714D01*
X62616666Y-25185714D01*
X63092857Y-25304761D01*
X63330952Y-25423809D01*
X63450000Y-25542857D01*
X63569047Y-25780952D01*
X63569047Y-28161904D02*
X63569047Y-28400000D01*
X63450000Y-28638095D01*
X63330952Y-28757142D01*
X63092857Y-28876190D01*
X62616666Y-28995238D01*
X62021428Y-28995238D01*
X61545238Y-28876190D01*
X61307142Y-28757142D01*
X61188095Y-28638095D01*
X61069047Y-28400000D01*
X61069047Y-28161904D01*
X61188095Y-27923809D01*
X61307142Y-27804761D01*
X61545238Y-27685714D01*
X62021428Y-27566666D01*
X62616666Y-27566666D01*
X63092857Y-27685714D01*
X63330952Y-27804761D01*
X63450000Y-27923809D01*
X63569047Y-28161904D01*
X57369047Y-25076190D02*
X57369047Y-26742857D01*
X54869047Y-25671428D01*
X57369047Y-28885714D02*
X57369047Y-27695238D01*
X56178571Y-27576190D01*
X56297619Y-27695238D01*
X56416666Y-27933333D01*
X56416666Y-28528571D01*
X56297619Y-28766666D01*
X56178571Y-28885714D01*
X55940476Y-29004761D01*
X55345238Y-29004761D01*
X55107142Y-28885714D01*
X54988095Y-28766666D01*
X54869047Y-28528571D01*
X54869047Y-27933333D01*
X54988095Y-27695238D01*
X55107142Y-27576190D01*
X11094047Y-7247857D02*
X11094047Y-5819285D01*
X11094047Y-6533571D02*
X13594047Y-6533571D01*
X13236904Y-6295476D01*
X12998809Y-6057380D01*
X12879761Y-5819285D01*
X11094047Y-9628809D02*
X11094047Y-8200238D01*
X11094047Y-8914523D02*
X13594047Y-8914523D01*
X13236904Y-8676428D01*
X12998809Y-8438333D01*
X12879761Y-8200238D01*
X12046428Y-10700238D02*
X12046428Y-12605000D01*
X11094047Y-15105000D02*
X11094047Y-13676428D01*
X11094047Y-14390714D02*
X13594047Y-14390714D01*
X13236904Y-14152619D01*
X12998809Y-13914523D01*
X12879761Y-13676428D01*
X13594047Y-17247857D02*
X13594047Y-16771666D01*
X13475000Y-16533571D01*
X13355952Y-16414523D01*
X12998809Y-16176428D01*
X12522619Y-16057380D01*
X11570238Y-16057380D01*
X11332142Y-16176428D01*
X11213095Y-16295476D01*
X11094047Y-16533571D01*
X11094047Y-17009761D01*
X11213095Y-17247857D01*
X11332142Y-17366904D01*
X11570238Y-17485952D01*
X12165476Y-17485952D01*
X12403571Y-17366904D01*
X12522619Y-17247857D01*
X12641666Y-17009761D01*
X12641666Y-16533571D01*
X12522619Y-16295476D01*
X12403571Y-16176428D01*
X12165476Y-16057380D01*
X13594047Y-18200238D02*
X11094047Y-19033571D01*
X13594047Y-19866904D01*
X9305952Y-16057380D02*
X9425000Y-16176428D01*
X9544047Y-16414523D01*
X9544047Y-17009761D01*
X9425000Y-17247857D01*
X9305952Y-17366904D01*
X9067857Y-17485952D01*
X8829761Y-17485952D01*
X8472619Y-17366904D01*
X7044047Y-15938333D01*
X7044047Y-17485952D01*
X7758333Y-18438333D02*
X7758333Y-19628809D01*
X7044047Y-18200238D02*
X9544047Y-19033571D01*
X7044047Y-19866904D01*
X93494047Y-19090238D02*
X95994047Y-19090238D01*
X93494047Y-20518809D02*
X94922619Y-19447380D01*
X95994047Y-20518809D02*
X94565476Y-19090238D01*
X94803571Y-21590238D02*
X94803571Y-22423571D01*
X93494047Y-22780714D02*
X93494047Y-21590238D01*
X95994047Y-21590238D01*
X95994047Y-22780714D01*
X94684523Y-24328333D02*
X93494047Y-24328333D01*
X95994047Y-23495000D02*
X94684523Y-24328333D01*
X95994047Y-25161666D01*
X89444047Y-19090238D02*
X91944047Y-19090238D01*
X91944047Y-20042619D01*
X91825000Y-20280714D01*
X91705952Y-20399761D01*
X91467857Y-20518809D01*
X91110714Y-20518809D01*
X90872619Y-20399761D01*
X90753571Y-20280714D01*
X90634523Y-20042619D01*
X90634523Y-19090238D01*
X91944047Y-21233095D02*
X91944047Y-22661666D01*
X89444047Y-21947380D02*
X91944047Y-21947380D01*
X91944047Y-23137857D02*
X91944047Y-24566428D01*
X89444047Y-23852142D02*
X91944047Y-23852142D01*
D12*
X35000000Y-11909523D02*
X35000000Y-7909523D01*
X35000000Y-9814285D02*
X37285714Y-9814285D01*
X37285714Y-11909523D02*
X37285714Y-7909523D01*
X40714285Y-11719047D02*
X40333333Y-11909523D01*
X39571428Y-11909523D01*
X39190476Y-11719047D01*
X39000000Y-11338095D01*
X39000000Y-9814285D01*
X39190476Y-9433333D01*
X39571428Y-9242857D01*
X40333333Y-9242857D01*
X40714285Y-9433333D01*
X40904761Y-9814285D01*
X40904761Y-10195238D01*
X39000000Y-10576190D01*
X42619047Y-11909523D02*
X42619047Y-9242857D01*
X42619047Y-10004761D02*
X42809523Y-9623809D01*
X43000000Y-9433333D01*
X43380952Y-9242857D01*
X43761904Y-9242857D01*
X45095238Y-11909523D02*
X45095238Y-9242857D01*
X45095238Y-9623809D02*
X45285714Y-9433333D01*
X45666666Y-9242857D01*
X46238095Y-9242857D01*
X46619047Y-9433333D01*
X46809523Y-9814285D01*
X46809523Y-11909523D01*
X46809523Y-9814285D02*
X47000000Y-9433333D01*
X47380952Y-9242857D01*
X47952380Y-9242857D01*
X48333333Y-9433333D01*
X48523809Y-9814285D01*
X48523809Y-11909523D01*
X51952380Y-11719047D02*
X51571428Y-11909523D01*
X50809523Y-11909523D01*
X50428571Y-11719047D01*
X50238095Y-11338095D01*
X50238095Y-9814285D01*
X50428571Y-9433333D01*
X50809523Y-9242857D01*
X51571428Y-9242857D01*
X51952380Y-9433333D01*
X52142857Y-9814285D01*
X52142857Y-10195238D01*
X50238095Y-10576190D01*
X53666666Y-11719047D02*
X54047619Y-11909523D01*
X54809523Y-11909523D01*
X55190476Y-11719047D01*
X55380952Y-11338095D01*
X55380952Y-11147619D01*
X55190476Y-10766666D01*
X54809523Y-10576190D01*
X54238095Y-10576190D01*
X53857142Y-10385714D01*
X53666666Y-10004761D01*
X53666666Y-9814285D01*
X53857142Y-9433333D01*
X54238095Y-9242857D01*
X54809523Y-9242857D01*
X55190476Y-9433333D01*
X57095238Y-10385714D02*
X60142857Y-10385714D01*
X63952380Y-11909523D02*
X62047619Y-11909523D01*
X62047619Y-7909523D01*
X65285714Y-11909523D02*
X65285714Y-9242857D01*
X65285714Y-7909523D02*
X65095238Y-8100000D01*
X65285714Y-8290476D01*
X65476190Y-8100000D01*
X65285714Y-7909523D01*
X65285714Y-8290476D01*
X66619047Y-9242857D02*
X68142857Y-9242857D01*
X67190476Y-7909523D02*
X67190476Y-11338095D01*
X67380952Y-11719047D01*
X67761904Y-11909523D01*
X68142857Y-11909523D01*
X71000000Y-11719047D02*
X70619047Y-11909523D01*
X69857142Y-11909523D01*
X69476190Y-11719047D01*
X69285714Y-11338095D01*
X69285714Y-9814285D01*
X69476190Y-9433333D01*
X69857142Y-9242857D01*
X70619047Y-9242857D01*
X71000000Y-9433333D01*
X71190476Y-9814285D01*
X71190476Y-10195238D01*
X69285714Y-10576190D01*
M02*
