G04 #@! TF.GenerationSoftware,KiCad,Pcbnew,5.1.5-52549c5~84~ubuntu18.04.1*
G04 #@! TF.CreationDate,2020-03-18T22:27:28-07:00*
G04 #@! TF.ProjectId,endcap,656e6463-6170-42e6-9b69-6361645f7063,rev?*
G04 #@! TF.SameCoordinates,PX2faf080PY3dfd240*
G04 #@! TF.FileFunction,Copper,L1,Top*
G04 #@! TF.FilePolarity,Positive*
%FSLAX46Y46*%
G04 Gerber Fmt 4.6, Leading zero omitted, Abs format (unit mm)*
G04 Created by KiCad (PCBNEW 5.1.5-52549c5~84~ubuntu18.04.1) date 2020-03-18 22:27:28*
%MOMM*%
%LPD*%
G04 APERTURE LIST*
%ADD10C,4.900000*%
%ADD11C,0.200000*%
G04 APERTURE END LIST*
D10*
X4000000Y-4000000D03*
X102000000Y-4000000D03*
X102000000Y-36000000D03*
X4000000Y-36000000D03*
D11*
G36*
X104295764Y-506278D02*
G01*
X104580263Y-592173D01*
X104842665Y-731695D01*
X105072961Y-919521D01*
X105262394Y-1148505D01*
X105403741Y-1409921D01*
X105491620Y-1693812D01*
X105525000Y-2011398D01*
X105525001Y-37976758D01*
X105493722Y-38295765D01*
X105407826Y-38580265D01*
X105268307Y-38842661D01*
X105080479Y-39072962D01*
X104851495Y-39262394D01*
X104590079Y-39403741D01*
X104306188Y-39491620D01*
X103988602Y-39525000D01*
X2023232Y-39525000D01*
X1704235Y-39493722D01*
X1419735Y-39407826D01*
X1157339Y-39268307D01*
X927038Y-39080479D01*
X737606Y-38851495D01*
X596259Y-38590079D01*
X508380Y-38306188D01*
X475000Y-37988602D01*
X475000Y-24542015D01*
X5550000Y-24542015D01*
X5550000Y-25457985D01*
X5728697Y-26356355D01*
X6079224Y-27202601D01*
X6588109Y-27964202D01*
X7235798Y-28611891D01*
X7997399Y-29120776D01*
X8843645Y-29471303D01*
X9742015Y-29650000D01*
X10657985Y-29650000D01*
X11556355Y-29471303D01*
X12402601Y-29120776D01*
X13164202Y-28611891D01*
X13811891Y-27964202D01*
X14320776Y-27202601D01*
X14671303Y-26356355D01*
X14850000Y-25457985D01*
X14850000Y-24542015D01*
X14671303Y-23643645D01*
X14320776Y-22797399D01*
X13811891Y-22035798D01*
X13164202Y-21388109D01*
X12402601Y-20879224D01*
X11556355Y-20528697D01*
X10657985Y-20350000D01*
X9742015Y-20350000D01*
X8843645Y-20528697D01*
X7997399Y-20879224D01*
X7235798Y-21388109D01*
X6588109Y-22035798D01*
X6079224Y-22797399D01*
X5728697Y-23643645D01*
X5550000Y-24542015D01*
X475000Y-24542015D01*
X475000Y-19700000D01*
X16572702Y-19700000D01*
X16575000Y-19723332D01*
X16575001Y-31776658D01*
X16572702Y-31800000D01*
X16581873Y-31893116D01*
X16609034Y-31982654D01*
X16653141Y-32065173D01*
X16712499Y-32137501D01*
X16784827Y-32196859D01*
X16867346Y-32240966D01*
X16956884Y-32268127D01*
X17026668Y-32275000D01*
X17050000Y-32277298D01*
X17073332Y-32275000D01*
X34526668Y-32275000D01*
X34550000Y-32277298D01*
X34573332Y-32275000D01*
X34643116Y-32268127D01*
X34732654Y-32240966D01*
X34815173Y-32196859D01*
X34887501Y-32137501D01*
X34946859Y-32065173D01*
X34990966Y-31982654D01*
X35018127Y-31893116D01*
X35027298Y-31800000D01*
X35025000Y-31776668D01*
X35025000Y-31076886D01*
X42450000Y-31076886D01*
X42450000Y-31323114D01*
X42498037Y-31564611D01*
X42592265Y-31792097D01*
X42729062Y-31996828D01*
X42903172Y-32170938D01*
X43107903Y-32307735D01*
X43335389Y-32401963D01*
X43576886Y-32450000D01*
X43823114Y-32450000D01*
X44064611Y-32401963D01*
X44292097Y-32307735D01*
X44496828Y-32170938D01*
X44670938Y-31996828D01*
X44807735Y-31792097D01*
X44901963Y-31564611D01*
X44950000Y-31323114D01*
X44950000Y-31076886D01*
X48650000Y-31076886D01*
X48650000Y-31323114D01*
X48698037Y-31564611D01*
X48792265Y-31792097D01*
X48929062Y-31996828D01*
X49103172Y-32170938D01*
X49307903Y-32307735D01*
X49535389Y-32401963D01*
X49776886Y-32450000D01*
X50023114Y-32450000D01*
X50264611Y-32401963D01*
X50492097Y-32307735D01*
X50696828Y-32170938D01*
X50870938Y-31996828D01*
X51007735Y-31792097D01*
X51101963Y-31564611D01*
X51150000Y-31323114D01*
X51150000Y-31076886D01*
X54850000Y-31076886D01*
X54850000Y-31323114D01*
X54898037Y-31564611D01*
X54992265Y-31792097D01*
X55129062Y-31996828D01*
X55303172Y-32170938D01*
X55507903Y-32307735D01*
X55735389Y-32401963D01*
X55976886Y-32450000D01*
X56223114Y-32450000D01*
X56464611Y-32401963D01*
X56692097Y-32307735D01*
X56896828Y-32170938D01*
X57070938Y-31996828D01*
X57207735Y-31792097D01*
X57301963Y-31564611D01*
X57350000Y-31323114D01*
X57350000Y-31076886D01*
X61050000Y-31076886D01*
X61050000Y-31323114D01*
X61098037Y-31564611D01*
X61192265Y-31792097D01*
X61329062Y-31996828D01*
X61503172Y-32170938D01*
X61707903Y-32307735D01*
X61935389Y-32401963D01*
X62176886Y-32450000D01*
X62423114Y-32450000D01*
X62664611Y-32401963D01*
X62892097Y-32307735D01*
X63096828Y-32170938D01*
X63270938Y-31996828D01*
X63407735Y-31792097D01*
X63501963Y-31564611D01*
X63550000Y-31323114D01*
X63550000Y-31076886D01*
X63501963Y-30835389D01*
X63407735Y-30607903D01*
X63322864Y-30480884D01*
X67540000Y-30480884D01*
X67540000Y-31249116D01*
X67689875Y-32002588D01*
X67983865Y-32712343D01*
X68410673Y-33351105D01*
X68953895Y-33894327D01*
X69592657Y-34321135D01*
X70302412Y-34615125D01*
X71055884Y-34765000D01*
X71824116Y-34765000D01*
X72577588Y-34615125D01*
X73287343Y-34321135D01*
X73926105Y-33894327D01*
X74469327Y-33351105D01*
X74896135Y-32712343D01*
X75190125Y-32002588D01*
X75340000Y-31249116D01*
X75340000Y-30480884D01*
X77700000Y-30480884D01*
X77700000Y-31249116D01*
X77849875Y-32002588D01*
X78143865Y-32712343D01*
X78570673Y-33351105D01*
X79113895Y-33894327D01*
X79752657Y-34321135D01*
X80462412Y-34615125D01*
X81215884Y-34765000D01*
X81984116Y-34765000D01*
X82737588Y-34615125D01*
X83447343Y-34321135D01*
X84086105Y-33894327D01*
X84629327Y-33351105D01*
X85056135Y-32712343D01*
X85350125Y-32002588D01*
X85500000Y-31249116D01*
X85500000Y-30480884D01*
X85350125Y-29727412D01*
X85056135Y-29017657D01*
X84781097Y-28606034D01*
X89000000Y-28606034D01*
X89000000Y-29393966D01*
X89153718Y-30166757D01*
X89455246Y-30894710D01*
X89892997Y-31549851D01*
X90450149Y-32107003D01*
X91105290Y-32544754D01*
X91833243Y-32846282D01*
X92606034Y-33000000D01*
X93393966Y-33000000D01*
X94166757Y-32846282D01*
X94894710Y-32544754D01*
X95549851Y-32107003D01*
X96107003Y-31549851D01*
X96544754Y-30894710D01*
X96846282Y-30166757D01*
X97000000Y-29393966D01*
X97000000Y-28606034D01*
X96846282Y-27833243D01*
X96544754Y-27105290D01*
X96107003Y-26450149D01*
X95549851Y-25892997D01*
X94894710Y-25455246D01*
X94166757Y-25153718D01*
X93393966Y-25000000D01*
X92606034Y-25000000D01*
X91833243Y-25153718D01*
X91105290Y-25455246D01*
X90450149Y-25892997D01*
X89892997Y-26450149D01*
X89455246Y-27105290D01*
X89153718Y-27833243D01*
X89000000Y-28606034D01*
X84781097Y-28606034D01*
X84629327Y-28378895D01*
X84086105Y-27835673D01*
X83447343Y-27408865D01*
X82737588Y-27114875D01*
X81984116Y-26965000D01*
X81215884Y-26965000D01*
X80462412Y-27114875D01*
X79752657Y-27408865D01*
X79113895Y-27835673D01*
X78570673Y-28378895D01*
X78143865Y-29017657D01*
X77849875Y-29727412D01*
X77700000Y-30480884D01*
X75340000Y-30480884D01*
X75190125Y-29727412D01*
X74896135Y-29017657D01*
X74469327Y-28378895D01*
X73926105Y-27835673D01*
X73287343Y-27408865D01*
X72577588Y-27114875D01*
X71824116Y-26965000D01*
X71055884Y-26965000D01*
X70302412Y-27114875D01*
X69592657Y-27408865D01*
X68953895Y-27835673D01*
X68410673Y-28378895D01*
X67983865Y-29017657D01*
X67689875Y-29727412D01*
X67540000Y-30480884D01*
X63322864Y-30480884D01*
X63270938Y-30403172D01*
X63096828Y-30229062D01*
X62892097Y-30092265D01*
X62664611Y-29998037D01*
X62423114Y-29950000D01*
X62176886Y-29950000D01*
X61935389Y-29998037D01*
X61707903Y-30092265D01*
X61503172Y-30229062D01*
X61329062Y-30403172D01*
X61192265Y-30607903D01*
X61098037Y-30835389D01*
X61050000Y-31076886D01*
X57350000Y-31076886D01*
X57301963Y-30835389D01*
X57207735Y-30607903D01*
X57070938Y-30403172D01*
X56896828Y-30229062D01*
X56692097Y-30092265D01*
X56464611Y-29998037D01*
X56223114Y-29950000D01*
X55976886Y-29950000D01*
X55735389Y-29998037D01*
X55507903Y-30092265D01*
X55303172Y-30229062D01*
X55129062Y-30403172D01*
X54992265Y-30607903D01*
X54898037Y-30835389D01*
X54850000Y-31076886D01*
X51150000Y-31076886D01*
X51101963Y-30835389D01*
X51007735Y-30607903D01*
X50870938Y-30403172D01*
X50696828Y-30229062D01*
X50492097Y-30092265D01*
X50264611Y-29998037D01*
X50023114Y-29950000D01*
X49776886Y-29950000D01*
X49535389Y-29998037D01*
X49307903Y-30092265D01*
X49103172Y-30229062D01*
X48929062Y-30403172D01*
X48792265Y-30607903D01*
X48698037Y-30835389D01*
X48650000Y-31076886D01*
X44950000Y-31076886D01*
X44901963Y-30835389D01*
X44807735Y-30607903D01*
X44670938Y-30403172D01*
X44496828Y-30229062D01*
X44292097Y-30092265D01*
X44064611Y-29998037D01*
X43823114Y-29950000D01*
X43576886Y-29950000D01*
X43335389Y-29998037D01*
X43107903Y-30092265D01*
X42903172Y-30229062D01*
X42729062Y-30403172D01*
X42592265Y-30607903D01*
X42498037Y-30835389D01*
X42450000Y-31076886D01*
X35025000Y-31076886D01*
X35025000Y-19723332D01*
X35027298Y-19700000D01*
X35018127Y-19606884D01*
X34990966Y-19517346D01*
X34946859Y-19434827D01*
X34887501Y-19362499D01*
X34815173Y-19303141D01*
X34732654Y-19259034D01*
X34643116Y-19231873D01*
X34573332Y-19225000D01*
X34550000Y-19222702D01*
X34526668Y-19225000D01*
X17073332Y-19225000D01*
X17050000Y-19222702D01*
X17026668Y-19225000D01*
X16956884Y-19231873D01*
X16867346Y-19259034D01*
X16784827Y-19303141D01*
X16712499Y-19362499D01*
X16653141Y-19434827D01*
X16609034Y-19517346D01*
X16581873Y-19606884D01*
X16572702Y-19700000D01*
X475000Y-19700000D01*
X475000Y-15091659D01*
X89500000Y-15091659D01*
X89500000Y-15308341D01*
X89542273Y-15520858D01*
X89625193Y-15721045D01*
X89745575Y-15901209D01*
X89898791Y-16054425D01*
X90078955Y-16174807D01*
X90279142Y-16257727D01*
X90491659Y-16300000D01*
X90708341Y-16300000D01*
X90920858Y-16257727D01*
X91121045Y-16174807D01*
X91301209Y-16054425D01*
X91454425Y-15901209D01*
X91574807Y-15721045D01*
X91657727Y-15520858D01*
X91700000Y-15308341D01*
X91700000Y-15091659D01*
X92000000Y-15091659D01*
X92000000Y-15308341D01*
X92042273Y-15520858D01*
X92125193Y-15721045D01*
X92245575Y-15901209D01*
X92398791Y-16054425D01*
X92578955Y-16174807D01*
X92779142Y-16257727D01*
X92991659Y-16300000D01*
X93208341Y-16300000D01*
X93420858Y-16257727D01*
X93621045Y-16174807D01*
X93801209Y-16054425D01*
X93954425Y-15901209D01*
X94074807Y-15721045D01*
X94157727Y-15520858D01*
X94200000Y-15308341D01*
X94200000Y-15091659D01*
X94500000Y-15091659D01*
X94500000Y-15308341D01*
X94542273Y-15520858D01*
X94625193Y-15721045D01*
X94745575Y-15901209D01*
X94898791Y-16054425D01*
X95078955Y-16174807D01*
X95279142Y-16257727D01*
X95491659Y-16300000D01*
X95708341Y-16300000D01*
X95920858Y-16257727D01*
X96121045Y-16174807D01*
X96301209Y-16054425D01*
X96454425Y-15901209D01*
X96574807Y-15721045D01*
X96657727Y-15520858D01*
X96700000Y-15308341D01*
X96700000Y-15091659D01*
X96657727Y-14879142D01*
X96574807Y-14678955D01*
X96454425Y-14498791D01*
X96301209Y-14345575D01*
X96121045Y-14225193D01*
X95920858Y-14142273D01*
X95708341Y-14100000D01*
X95491659Y-14100000D01*
X95279142Y-14142273D01*
X95078955Y-14225193D01*
X94898791Y-14345575D01*
X94745575Y-14498791D01*
X94625193Y-14678955D01*
X94542273Y-14879142D01*
X94500000Y-15091659D01*
X94200000Y-15091659D01*
X94157727Y-14879142D01*
X94074807Y-14678955D01*
X93954425Y-14498791D01*
X93801209Y-14345575D01*
X93621045Y-14225193D01*
X93420858Y-14142273D01*
X93208341Y-14100000D01*
X92991659Y-14100000D01*
X92779142Y-14142273D01*
X92578955Y-14225193D01*
X92398791Y-14345575D01*
X92245575Y-14498791D01*
X92125193Y-14678955D01*
X92042273Y-14879142D01*
X92000000Y-15091659D01*
X91700000Y-15091659D01*
X91657727Y-14879142D01*
X91574807Y-14678955D01*
X91454425Y-14498791D01*
X91301209Y-14345575D01*
X91121045Y-14225193D01*
X90920858Y-14142273D01*
X90708341Y-14100000D01*
X90491659Y-14100000D01*
X90279142Y-14142273D01*
X90078955Y-14225193D01*
X89898791Y-14345575D01*
X89745575Y-14498791D01*
X89625193Y-14678955D01*
X89542273Y-14879142D01*
X89500000Y-15091659D01*
X475000Y-15091659D01*
X475000Y-12591659D01*
X89500000Y-12591659D01*
X89500000Y-12808341D01*
X89542273Y-13020858D01*
X89625193Y-13221045D01*
X89745575Y-13401209D01*
X89898791Y-13554425D01*
X90078955Y-13674807D01*
X90279142Y-13757727D01*
X90491659Y-13800000D01*
X90708341Y-13800000D01*
X90920858Y-13757727D01*
X91121045Y-13674807D01*
X91301209Y-13554425D01*
X91454425Y-13401209D01*
X91574807Y-13221045D01*
X91657727Y-13020858D01*
X91700000Y-12808341D01*
X91700000Y-12591659D01*
X92000000Y-12591659D01*
X92000000Y-12808341D01*
X92042273Y-13020858D01*
X92125193Y-13221045D01*
X92245575Y-13401209D01*
X92398791Y-13554425D01*
X92578955Y-13674807D01*
X92779142Y-13757727D01*
X92991659Y-13800000D01*
X93208341Y-13800000D01*
X93420858Y-13757727D01*
X93621045Y-13674807D01*
X93801209Y-13554425D01*
X93954425Y-13401209D01*
X94074807Y-13221045D01*
X94157727Y-13020858D01*
X94200000Y-12808341D01*
X94200000Y-12591659D01*
X94500000Y-12591659D01*
X94500000Y-12808341D01*
X94542273Y-13020858D01*
X94625193Y-13221045D01*
X94745575Y-13401209D01*
X94898791Y-13554425D01*
X95078955Y-13674807D01*
X95279142Y-13757727D01*
X95491659Y-13800000D01*
X95708341Y-13800000D01*
X95920858Y-13757727D01*
X96121045Y-13674807D01*
X96301209Y-13554425D01*
X96454425Y-13401209D01*
X96574807Y-13221045D01*
X96657727Y-13020858D01*
X96700000Y-12808341D01*
X96700000Y-12591659D01*
X96657727Y-12379142D01*
X96574807Y-12178955D01*
X96454425Y-11998791D01*
X96301209Y-11845575D01*
X96121045Y-11725193D01*
X95920858Y-11642273D01*
X95708341Y-11600000D01*
X95491659Y-11600000D01*
X95279142Y-11642273D01*
X95078955Y-11725193D01*
X94898791Y-11845575D01*
X94745575Y-11998791D01*
X94625193Y-12178955D01*
X94542273Y-12379142D01*
X94500000Y-12591659D01*
X94200000Y-12591659D01*
X94157727Y-12379142D01*
X94074807Y-12178955D01*
X93954425Y-11998791D01*
X93801209Y-11845575D01*
X93621045Y-11725193D01*
X93420858Y-11642273D01*
X93208341Y-11600000D01*
X92991659Y-11600000D01*
X92779142Y-11642273D01*
X92578955Y-11725193D01*
X92398791Y-11845575D01*
X92245575Y-11998791D01*
X92125193Y-12178955D01*
X92042273Y-12379142D01*
X92000000Y-12591659D01*
X91700000Y-12591659D01*
X91657727Y-12379142D01*
X91574807Y-12178955D01*
X91454425Y-11998791D01*
X91301209Y-11845575D01*
X91121045Y-11725193D01*
X90920858Y-11642273D01*
X90708341Y-11600000D01*
X90491659Y-11600000D01*
X90279142Y-11642273D01*
X90078955Y-11725193D01*
X89898791Y-11845575D01*
X89745575Y-11998791D01*
X89625193Y-12178955D01*
X89542273Y-12379142D01*
X89500000Y-12591659D01*
X475000Y-12591659D01*
X475000Y-10091659D01*
X89500000Y-10091659D01*
X89500000Y-10308341D01*
X89542273Y-10520858D01*
X89625193Y-10721045D01*
X89745575Y-10901209D01*
X89898791Y-11054425D01*
X90078955Y-11174807D01*
X90279142Y-11257727D01*
X90491659Y-11300000D01*
X90708341Y-11300000D01*
X90920858Y-11257727D01*
X91121045Y-11174807D01*
X91301209Y-11054425D01*
X91454425Y-10901209D01*
X91574807Y-10721045D01*
X91657727Y-10520858D01*
X91700000Y-10308341D01*
X91700000Y-10091659D01*
X92000000Y-10091659D01*
X92000000Y-10308341D01*
X92042273Y-10520858D01*
X92125193Y-10721045D01*
X92245575Y-10901209D01*
X92398791Y-11054425D01*
X92578955Y-11174807D01*
X92779142Y-11257727D01*
X92991659Y-11300000D01*
X93208341Y-11300000D01*
X93420858Y-11257727D01*
X93621045Y-11174807D01*
X93801209Y-11054425D01*
X93954425Y-10901209D01*
X94074807Y-10721045D01*
X94157727Y-10520858D01*
X94200000Y-10308341D01*
X94200000Y-10091659D01*
X94500000Y-10091659D01*
X94500000Y-10308341D01*
X94542273Y-10520858D01*
X94625193Y-10721045D01*
X94745575Y-10901209D01*
X94898791Y-11054425D01*
X95078955Y-11174807D01*
X95279142Y-11257727D01*
X95491659Y-11300000D01*
X95708341Y-11300000D01*
X95920858Y-11257727D01*
X96121045Y-11174807D01*
X96301209Y-11054425D01*
X96454425Y-10901209D01*
X96574807Y-10721045D01*
X96657727Y-10520858D01*
X96700000Y-10308341D01*
X96700000Y-10091659D01*
X96657727Y-9879142D01*
X96574807Y-9678955D01*
X96454425Y-9498791D01*
X96301209Y-9345575D01*
X96121045Y-9225193D01*
X95920858Y-9142273D01*
X95708341Y-9100000D01*
X95491659Y-9100000D01*
X95279142Y-9142273D01*
X95078955Y-9225193D01*
X94898791Y-9345575D01*
X94745575Y-9498791D01*
X94625193Y-9678955D01*
X94542273Y-9879142D01*
X94500000Y-10091659D01*
X94200000Y-10091659D01*
X94157727Y-9879142D01*
X94074807Y-9678955D01*
X93954425Y-9498791D01*
X93801209Y-9345575D01*
X93621045Y-9225193D01*
X93420858Y-9142273D01*
X93208341Y-9100000D01*
X92991659Y-9100000D01*
X92779142Y-9142273D01*
X92578955Y-9225193D01*
X92398791Y-9345575D01*
X92245575Y-9498791D01*
X92125193Y-9678955D01*
X92042273Y-9879142D01*
X92000000Y-10091659D01*
X91700000Y-10091659D01*
X91657727Y-9879142D01*
X91574807Y-9678955D01*
X91454425Y-9498791D01*
X91301209Y-9345575D01*
X91121045Y-9225193D01*
X90920858Y-9142273D01*
X90708341Y-9100000D01*
X90491659Y-9100000D01*
X90279142Y-9142273D01*
X90078955Y-9225193D01*
X89898791Y-9345575D01*
X89745575Y-9498791D01*
X89625193Y-9678955D01*
X89542273Y-9879142D01*
X89500000Y-10091659D01*
X475000Y-10091659D01*
X475000Y-5762708D01*
X37551864Y-5762708D01*
X37552149Y-5803525D01*
X37551864Y-5844275D01*
X37552477Y-5850528D01*
X37562677Y-5947577D01*
X37570887Y-5987574D01*
X37578521Y-6027592D01*
X37580334Y-6033597D01*
X37580336Y-6033607D01*
X37580340Y-6033616D01*
X37609193Y-6126826D01*
X37625005Y-6164440D01*
X37640278Y-6202243D01*
X37643227Y-6207791D01*
X37689640Y-6293629D01*
X37712471Y-6327477D01*
X37734780Y-6361568D01*
X37738747Y-6366432D01*
X37738751Y-6366438D01*
X37738756Y-6366443D01*
X37800952Y-6441626D01*
X37829894Y-6470367D01*
X37858426Y-6499503D01*
X37863267Y-6503508D01*
X37938888Y-6565184D01*
X37972888Y-6587774D01*
X38006517Y-6610800D01*
X38012044Y-6613789D01*
X38098205Y-6659601D01*
X38135935Y-6675152D01*
X38173397Y-6691208D01*
X38179399Y-6693066D01*
X38272817Y-6721271D01*
X38312828Y-6729194D01*
X38352724Y-6737674D01*
X38358973Y-6738331D01*
X38456090Y-6747853D01*
X38456095Y-6747853D01*
X38477895Y-6750000D01*
X67522105Y-6750000D01*
X67544412Y-6747803D01*
X67550891Y-6747803D01*
X67557140Y-6747147D01*
X67654115Y-6736270D01*
X67694040Y-6727784D01*
X67734020Y-6719868D01*
X67740016Y-6718012D01*
X67740020Y-6718011D01*
X67740023Y-6718010D01*
X67833037Y-6688504D01*
X67870532Y-6672433D01*
X67908233Y-6656895D01*
X67913760Y-6653906D01*
X67999272Y-6606895D01*
X68032906Y-6583866D01*
X68066899Y-6561281D01*
X68071740Y-6557276D01*
X68146492Y-6494551D01*
X68175076Y-6465362D01*
X68203966Y-6436673D01*
X68207938Y-6431804D01*
X68269084Y-6355754D01*
X68291433Y-6321602D01*
X68314224Y-6287812D01*
X68317174Y-6282265D01*
X68362384Y-6195785D01*
X68377686Y-6157913D01*
X68393466Y-6120374D01*
X68395283Y-6114359D01*
X68422835Y-6020747D01*
X68430487Y-5980635D01*
X68438679Y-5940728D01*
X68439292Y-5934474D01*
X68448136Y-5837292D01*
X68447851Y-5796476D01*
X68448136Y-5755726D01*
X68447523Y-5749472D01*
X68437323Y-5652424D01*
X68429114Y-5612433D01*
X68421479Y-5572408D01*
X68419666Y-5566403D01*
X68419664Y-5566393D01*
X68419660Y-5566384D01*
X68390807Y-5473174D01*
X68375001Y-5435573D01*
X68359722Y-5397756D01*
X68356773Y-5392209D01*
X68310360Y-5306371D01*
X68287529Y-5272523D01*
X68265220Y-5238432D01*
X68261249Y-5233562D01*
X68199047Y-5158374D01*
X68170125Y-5129653D01*
X68141574Y-5100497D01*
X68136733Y-5096492D01*
X68061112Y-5034816D01*
X68027089Y-5012210D01*
X67993483Y-4989200D01*
X67987956Y-4986211D01*
X67901795Y-4940399D01*
X67864065Y-4924848D01*
X67826603Y-4908792D01*
X67820601Y-4906934D01*
X67727183Y-4878729D01*
X67687179Y-4870808D01*
X67647276Y-4862326D01*
X67641037Y-4861671D01*
X67641032Y-4861670D01*
X67641028Y-4861670D01*
X67543910Y-4852147D01*
X67543905Y-4852147D01*
X67522105Y-4850000D01*
X38477895Y-4850000D01*
X38455588Y-4852197D01*
X38449109Y-4852197D01*
X38442860Y-4852853D01*
X38345885Y-4863730D01*
X38305960Y-4872216D01*
X38265980Y-4880132D01*
X38259984Y-4881988D01*
X38259980Y-4881989D01*
X38259977Y-4881990D01*
X38259978Y-4881990D01*
X38166963Y-4911496D01*
X38129419Y-4927587D01*
X38091767Y-4943106D01*
X38086245Y-4946091D01*
X38086241Y-4946093D01*
X38086240Y-4946094D01*
X38000727Y-4993105D01*
X37967034Y-5016175D01*
X37933101Y-5038720D01*
X37928271Y-5042716D01*
X37928262Y-5042722D01*
X37928255Y-5042729D01*
X37853508Y-5105449D01*
X37824941Y-5134622D01*
X37796034Y-5163327D01*
X37792062Y-5168196D01*
X37730916Y-5244246D01*
X37708579Y-5278380D01*
X37685776Y-5312187D01*
X37682826Y-5317735D01*
X37637616Y-5404214D01*
X37622335Y-5442036D01*
X37606533Y-5479627D01*
X37604717Y-5485642D01*
X37577165Y-5579253D01*
X37569515Y-5619353D01*
X37561321Y-5659272D01*
X37560708Y-5665525D01*
X37551864Y-5762708D01*
X475000Y-5762708D01*
X475000Y-3611358D01*
X37600000Y-3611358D01*
X37600000Y-3788642D01*
X37634586Y-3962520D01*
X37702430Y-4126310D01*
X37800924Y-4273717D01*
X37926283Y-4399076D01*
X38073690Y-4497570D01*
X38237480Y-4565414D01*
X38411358Y-4600000D01*
X38588642Y-4600000D01*
X38762520Y-4565414D01*
X38926310Y-4497570D01*
X39073717Y-4399076D01*
X39199076Y-4273717D01*
X39297570Y-4126310D01*
X39365414Y-3962520D01*
X39400000Y-3788642D01*
X39400000Y-3611358D01*
X66600000Y-3611358D01*
X66600000Y-3788642D01*
X66634586Y-3962520D01*
X66702430Y-4126310D01*
X66800924Y-4273717D01*
X66926283Y-4399076D01*
X67073690Y-4497570D01*
X67237480Y-4565414D01*
X67411358Y-4600000D01*
X67588642Y-4600000D01*
X67762520Y-4565414D01*
X67926310Y-4497570D01*
X68073717Y-4399076D01*
X68199076Y-4273717D01*
X68297570Y-4126310D01*
X68365414Y-3962520D01*
X68400000Y-3788642D01*
X68400000Y-3611358D01*
X68365414Y-3437480D01*
X68297570Y-3273690D01*
X68199076Y-3126283D01*
X68073717Y-3000924D01*
X67926310Y-2902430D01*
X67762520Y-2834586D01*
X67588642Y-2800000D01*
X67411358Y-2800000D01*
X67237480Y-2834586D01*
X67073690Y-2902430D01*
X66926283Y-3000924D01*
X66800924Y-3126283D01*
X66702430Y-3273690D01*
X66634586Y-3437480D01*
X66600000Y-3611358D01*
X39400000Y-3611358D01*
X39365414Y-3437480D01*
X39297570Y-3273690D01*
X39199076Y-3126283D01*
X39073717Y-3000924D01*
X38926310Y-2902430D01*
X38762520Y-2834586D01*
X38588642Y-2800000D01*
X38411358Y-2800000D01*
X38237480Y-2834586D01*
X38073690Y-2902430D01*
X37926283Y-3000924D01*
X37800924Y-3126283D01*
X37702430Y-3273690D01*
X37634586Y-3437480D01*
X37600000Y-3611358D01*
X475000Y-3611358D01*
X475000Y-2023232D01*
X506278Y-1704236D01*
X564511Y-1511358D01*
X37600000Y-1511358D01*
X37600000Y-1688642D01*
X37634586Y-1862520D01*
X37702430Y-2026310D01*
X37800924Y-2173717D01*
X37926283Y-2299076D01*
X38073690Y-2397570D01*
X38237480Y-2465414D01*
X38411358Y-2500000D01*
X38588642Y-2500000D01*
X38762520Y-2465414D01*
X38926310Y-2397570D01*
X39073717Y-2299076D01*
X39199076Y-2173717D01*
X39297570Y-2026310D01*
X39365414Y-1862520D01*
X39400000Y-1688642D01*
X39400000Y-1511358D01*
X66600000Y-1511358D01*
X66600000Y-1688642D01*
X66634586Y-1862520D01*
X66702430Y-2026310D01*
X66800924Y-2173717D01*
X66926283Y-2299076D01*
X67073690Y-2397570D01*
X67237480Y-2465414D01*
X67411358Y-2500000D01*
X67588642Y-2500000D01*
X67762520Y-2465414D01*
X67926310Y-2397570D01*
X68073717Y-2299076D01*
X68199076Y-2173717D01*
X68297570Y-2026310D01*
X68365414Y-1862520D01*
X68400000Y-1688642D01*
X68400000Y-1511358D01*
X68365414Y-1337480D01*
X68297570Y-1173690D01*
X68199076Y-1026283D01*
X68073717Y-900924D01*
X67926310Y-802430D01*
X67762520Y-734586D01*
X67588642Y-700000D01*
X67411358Y-700000D01*
X67237480Y-734586D01*
X67073690Y-802430D01*
X66926283Y-900924D01*
X66800924Y-1026283D01*
X66702430Y-1173690D01*
X66634586Y-1337480D01*
X66600000Y-1511358D01*
X39400000Y-1511358D01*
X39365414Y-1337480D01*
X39297570Y-1173690D01*
X39199076Y-1026283D01*
X39073717Y-900924D01*
X38926310Y-802430D01*
X38762520Y-734586D01*
X38588642Y-700000D01*
X38411358Y-700000D01*
X38237480Y-734586D01*
X38073690Y-802430D01*
X37926283Y-900924D01*
X37800924Y-1026283D01*
X37702430Y-1173690D01*
X37634586Y-1337480D01*
X37600000Y-1511358D01*
X564511Y-1511358D01*
X592173Y-1419737D01*
X731695Y-1157335D01*
X919521Y-927039D01*
X1148505Y-737606D01*
X1409921Y-596259D01*
X1693812Y-508380D01*
X2011398Y-475000D01*
X103976768Y-475000D01*
X104295764Y-506278D01*
G37*
X104295764Y-506278D02*
X104580263Y-592173D01*
X104842665Y-731695D01*
X105072961Y-919521D01*
X105262394Y-1148505D01*
X105403741Y-1409921D01*
X105491620Y-1693812D01*
X105525000Y-2011398D01*
X105525001Y-37976758D01*
X105493722Y-38295765D01*
X105407826Y-38580265D01*
X105268307Y-38842661D01*
X105080479Y-39072962D01*
X104851495Y-39262394D01*
X104590079Y-39403741D01*
X104306188Y-39491620D01*
X103988602Y-39525000D01*
X2023232Y-39525000D01*
X1704235Y-39493722D01*
X1419735Y-39407826D01*
X1157339Y-39268307D01*
X927038Y-39080479D01*
X737606Y-38851495D01*
X596259Y-38590079D01*
X508380Y-38306188D01*
X475000Y-37988602D01*
X475000Y-24542015D01*
X5550000Y-24542015D01*
X5550000Y-25457985D01*
X5728697Y-26356355D01*
X6079224Y-27202601D01*
X6588109Y-27964202D01*
X7235798Y-28611891D01*
X7997399Y-29120776D01*
X8843645Y-29471303D01*
X9742015Y-29650000D01*
X10657985Y-29650000D01*
X11556355Y-29471303D01*
X12402601Y-29120776D01*
X13164202Y-28611891D01*
X13811891Y-27964202D01*
X14320776Y-27202601D01*
X14671303Y-26356355D01*
X14850000Y-25457985D01*
X14850000Y-24542015D01*
X14671303Y-23643645D01*
X14320776Y-22797399D01*
X13811891Y-22035798D01*
X13164202Y-21388109D01*
X12402601Y-20879224D01*
X11556355Y-20528697D01*
X10657985Y-20350000D01*
X9742015Y-20350000D01*
X8843645Y-20528697D01*
X7997399Y-20879224D01*
X7235798Y-21388109D01*
X6588109Y-22035798D01*
X6079224Y-22797399D01*
X5728697Y-23643645D01*
X5550000Y-24542015D01*
X475000Y-24542015D01*
X475000Y-19700000D01*
X16572702Y-19700000D01*
X16575000Y-19723332D01*
X16575001Y-31776658D01*
X16572702Y-31800000D01*
X16581873Y-31893116D01*
X16609034Y-31982654D01*
X16653141Y-32065173D01*
X16712499Y-32137501D01*
X16784827Y-32196859D01*
X16867346Y-32240966D01*
X16956884Y-32268127D01*
X17026668Y-32275000D01*
X17050000Y-32277298D01*
X17073332Y-32275000D01*
X34526668Y-32275000D01*
X34550000Y-32277298D01*
X34573332Y-32275000D01*
X34643116Y-32268127D01*
X34732654Y-32240966D01*
X34815173Y-32196859D01*
X34887501Y-32137501D01*
X34946859Y-32065173D01*
X34990966Y-31982654D01*
X35018127Y-31893116D01*
X35027298Y-31800000D01*
X35025000Y-31776668D01*
X35025000Y-31076886D01*
X42450000Y-31076886D01*
X42450000Y-31323114D01*
X42498037Y-31564611D01*
X42592265Y-31792097D01*
X42729062Y-31996828D01*
X42903172Y-32170938D01*
X43107903Y-32307735D01*
X43335389Y-32401963D01*
X43576886Y-32450000D01*
X43823114Y-32450000D01*
X44064611Y-32401963D01*
X44292097Y-32307735D01*
X44496828Y-32170938D01*
X44670938Y-31996828D01*
X44807735Y-31792097D01*
X44901963Y-31564611D01*
X44950000Y-31323114D01*
X44950000Y-31076886D01*
X48650000Y-31076886D01*
X48650000Y-31323114D01*
X48698037Y-31564611D01*
X48792265Y-31792097D01*
X48929062Y-31996828D01*
X49103172Y-32170938D01*
X49307903Y-32307735D01*
X49535389Y-32401963D01*
X49776886Y-32450000D01*
X50023114Y-32450000D01*
X50264611Y-32401963D01*
X50492097Y-32307735D01*
X50696828Y-32170938D01*
X50870938Y-31996828D01*
X51007735Y-31792097D01*
X51101963Y-31564611D01*
X51150000Y-31323114D01*
X51150000Y-31076886D01*
X54850000Y-31076886D01*
X54850000Y-31323114D01*
X54898037Y-31564611D01*
X54992265Y-31792097D01*
X55129062Y-31996828D01*
X55303172Y-32170938D01*
X55507903Y-32307735D01*
X55735389Y-32401963D01*
X55976886Y-32450000D01*
X56223114Y-32450000D01*
X56464611Y-32401963D01*
X56692097Y-32307735D01*
X56896828Y-32170938D01*
X57070938Y-31996828D01*
X57207735Y-31792097D01*
X57301963Y-31564611D01*
X57350000Y-31323114D01*
X57350000Y-31076886D01*
X61050000Y-31076886D01*
X61050000Y-31323114D01*
X61098037Y-31564611D01*
X61192265Y-31792097D01*
X61329062Y-31996828D01*
X61503172Y-32170938D01*
X61707903Y-32307735D01*
X61935389Y-32401963D01*
X62176886Y-32450000D01*
X62423114Y-32450000D01*
X62664611Y-32401963D01*
X62892097Y-32307735D01*
X63096828Y-32170938D01*
X63270938Y-31996828D01*
X63407735Y-31792097D01*
X63501963Y-31564611D01*
X63550000Y-31323114D01*
X63550000Y-31076886D01*
X63501963Y-30835389D01*
X63407735Y-30607903D01*
X63322864Y-30480884D01*
X67540000Y-30480884D01*
X67540000Y-31249116D01*
X67689875Y-32002588D01*
X67983865Y-32712343D01*
X68410673Y-33351105D01*
X68953895Y-33894327D01*
X69592657Y-34321135D01*
X70302412Y-34615125D01*
X71055884Y-34765000D01*
X71824116Y-34765000D01*
X72577588Y-34615125D01*
X73287343Y-34321135D01*
X73926105Y-33894327D01*
X74469327Y-33351105D01*
X74896135Y-32712343D01*
X75190125Y-32002588D01*
X75340000Y-31249116D01*
X75340000Y-30480884D01*
X77700000Y-30480884D01*
X77700000Y-31249116D01*
X77849875Y-32002588D01*
X78143865Y-32712343D01*
X78570673Y-33351105D01*
X79113895Y-33894327D01*
X79752657Y-34321135D01*
X80462412Y-34615125D01*
X81215884Y-34765000D01*
X81984116Y-34765000D01*
X82737588Y-34615125D01*
X83447343Y-34321135D01*
X84086105Y-33894327D01*
X84629327Y-33351105D01*
X85056135Y-32712343D01*
X85350125Y-32002588D01*
X85500000Y-31249116D01*
X85500000Y-30480884D01*
X85350125Y-29727412D01*
X85056135Y-29017657D01*
X84781097Y-28606034D01*
X89000000Y-28606034D01*
X89000000Y-29393966D01*
X89153718Y-30166757D01*
X89455246Y-30894710D01*
X89892997Y-31549851D01*
X90450149Y-32107003D01*
X91105290Y-32544754D01*
X91833243Y-32846282D01*
X92606034Y-33000000D01*
X93393966Y-33000000D01*
X94166757Y-32846282D01*
X94894710Y-32544754D01*
X95549851Y-32107003D01*
X96107003Y-31549851D01*
X96544754Y-30894710D01*
X96846282Y-30166757D01*
X97000000Y-29393966D01*
X97000000Y-28606034D01*
X96846282Y-27833243D01*
X96544754Y-27105290D01*
X96107003Y-26450149D01*
X95549851Y-25892997D01*
X94894710Y-25455246D01*
X94166757Y-25153718D01*
X93393966Y-25000000D01*
X92606034Y-25000000D01*
X91833243Y-25153718D01*
X91105290Y-25455246D01*
X90450149Y-25892997D01*
X89892997Y-26450149D01*
X89455246Y-27105290D01*
X89153718Y-27833243D01*
X89000000Y-28606034D01*
X84781097Y-28606034D01*
X84629327Y-28378895D01*
X84086105Y-27835673D01*
X83447343Y-27408865D01*
X82737588Y-27114875D01*
X81984116Y-26965000D01*
X81215884Y-26965000D01*
X80462412Y-27114875D01*
X79752657Y-27408865D01*
X79113895Y-27835673D01*
X78570673Y-28378895D01*
X78143865Y-29017657D01*
X77849875Y-29727412D01*
X77700000Y-30480884D01*
X75340000Y-30480884D01*
X75190125Y-29727412D01*
X74896135Y-29017657D01*
X74469327Y-28378895D01*
X73926105Y-27835673D01*
X73287343Y-27408865D01*
X72577588Y-27114875D01*
X71824116Y-26965000D01*
X71055884Y-26965000D01*
X70302412Y-27114875D01*
X69592657Y-27408865D01*
X68953895Y-27835673D01*
X68410673Y-28378895D01*
X67983865Y-29017657D01*
X67689875Y-29727412D01*
X67540000Y-30480884D01*
X63322864Y-30480884D01*
X63270938Y-30403172D01*
X63096828Y-30229062D01*
X62892097Y-30092265D01*
X62664611Y-29998037D01*
X62423114Y-29950000D01*
X62176886Y-29950000D01*
X61935389Y-29998037D01*
X61707903Y-30092265D01*
X61503172Y-30229062D01*
X61329062Y-30403172D01*
X61192265Y-30607903D01*
X61098037Y-30835389D01*
X61050000Y-31076886D01*
X57350000Y-31076886D01*
X57301963Y-30835389D01*
X57207735Y-30607903D01*
X57070938Y-30403172D01*
X56896828Y-30229062D01*
X56692097Y-30092265D01*
X56464611Y-29998037D01*
X56223114Y-29950000D01*
X55976886Y-29950000D01*
X55735389Y-29998037D01*
X55507903Y-30092265D01*
X55303172Y-30229062D01*
X55129062Y-30403172D01*
X54992265Y-30607903D01*
X54898037Y-30835389D01*
X54850000Y-31076886D01*
X51150000Y-31076886D01*
X51101963Y-30835389D01*
X51007735Y-30607903D01*
X50870938Y-30403172D01*
X50696828Y-30229062D01*
X50492097Y-30092265D01*
X50264611Y-29998037D01*
X50023114Y-29950000D01*
X49776886Y-29950000D01*
X49535389Y-29998037D01*
X49307903Y-30092265D01*
X49103172Y-30229062D01*
X48929062Y-30403172D01*
X48792265Y-30607903D01*
X48698037Y-30835389D01*
X48650000Y-31076886D01*
X44950000Y-31076886D01*
X44901963Y-30835389D01*
X44807735Y-30607903D01*
X44670938Y-30403172D01*
X44496828Y-30229062D01*
X44292097Y-30092265D01*
X44064611Y-29998037D01*
X43823114Y-29950000D01*
X43576886Y-29950000D01*
X43335389Y-29998037D01*
X43107903Y-30092265D01*
X42903172Y-30229062D01*
X42729062Y-30403172D01*
X42592265Y-30607903D01*
X42498037Y-30835389D01*
X42450000Y-31076886D01*
X35025000Y-31076886D01*
X35025000Y-19723332D01*
X35027298Y-19700000D01*
X35018127Y-19606884D01*
X34990966Y-19517346D01*
X34946859Y-19434827D01*
X34887501Y-19362499D01*
X34815173Y-19303141D01*
X34732654Y-19259034D01*
X34643116Y-19231873D01*
X34573332Y-19225000D01*
X34550000Y-19222702D01*
X34526668Y-19225000D01*
X17073332Y-19225000D01*
X17050000Y-19222702D01*
X17026668Y-19225000D01*
X16956884Y-19231873D01*
X16867346Y-19259034D01*
X16784827Y-19303141D01*
X16712499Y-19362499D01*
X16653141Y-19434827D01*
X16609034Y-19517346D01*
X16581873Y-19606884D01*
X16572702Y-19700000D01*
X475000Y-19700000D01*
X475000Y-15091659D01*
X89500000Y-15091659D01*
X89500000Y-15308341D01*
X89542273Y-15520858D01*
X89625193Y-15721045D01*
X89745575Y-15901209D01*
X89898791Y-16054425D01*
X90078955Y-16174807D01*
X90279142Y-16257727D01*
X90491659Y-16300000D01*
X90708341Y-16300000D01*
X90920858Y-16257727D01*
X91121045Y-16174807D01*
X91301209Y-16054425D01*
X91454425Y-15901209D01*
X91574807Y-15721045D01*
X91657727Y-15520858D01*
X91700000Y-15308341D01*
X91700000Y-15091659D01*
X92000000Y-15091659D01*
X92000000Y-15308341D01*
X92042273Y-15520858D01*
X92125193Y-15721045D01*
X92245575Y-15901209D01*
X92398791Y-16054425D01*
X92578955Y-16174807D01*
X92779142Y-16257727D01*
X92991659Y-16300000D01*
X93208341Y-16300000D01*
X93420858Y-16257727D01*
X93621045Y-16174807D01*
X93801209Y-16054425D01*
X93954425Y-15901209D01*
X94074807Y-15721045D01*
X94157727Y-15520858D01*
X94200000Y-15308341D01*
X94200000Y-15091659D01*
X94500000Y-15091659D01*
X94500000Y-15308341D01*
X94542273Y-15520858D01*
X94625193Y-15721045D01*
X94745575Y-15901209D01*
X94898791Y-16054425D01*
X95078955Y-16174807D01*
X95279142Y-16257727D01*
X95491659Y-16300000D01*
X95708341Y-16300000D01*
X95920858Y-16257727D01*
X96121045Y-16174807D01*
X96301209Y-16054425D01*
X96454425Y-15901209D01*
X96574807Y-15721045D01*
X96657727Y-15520858D01*
X96700000Y-15308341D01*
X96700000Y-15091659D01*
X96657727Y-14879142D01*
X96574807Y-14678955D01*
X96454425Y-14498791D01*
X96301209Y-14345575D01*
X96121045Y-14225193D01*
X95920858Y-14142273D01*
X95708341Y-14100000D01*
X95491659Y-14100000D01*
X95279142Y-14142273D01*
X95078955Y-14225193D01*
X94898791Y-14345575D01*
X94745575Y-14498791D01*
X94625193Y-14678955D01*
X94542273Y-14879142D01*
X94500000Y-15091659D01*
X94200000Y-15091659D01*
X94157727Y-14879142D01*
X94074807Y-14678955D01*
X93954425Y-14498791D01*
X93801209Y-14345575D01*
X93621045Y-14225193D01*
X93420858Y-14142273D01*
X93208341Y-14100000D01*
X92991659Y-14100000D01*
X92779142Y-14142273D01*
X92578955Y-14225193D01*
X92398791Y-14345575D01*
X92245575Y-14498791D01*
X92125193Y-14678955D01*
X92042273Y-14879142D01*
X92000000Y-15091659D01*
X91700000Y-15091659D01*
X91657727Y-14879142D01*
X91574807Y-14678955D01*
X91454425Y-14498791D01*
X91301209Y-14345575D01*
X91121045Y-14225193D01*
X90920858Y-14142273D01*
X90708341Y-14100000D01*
X90491659Y-14100000D01*
X90279142Y-14142273D01*
X90078955Y-14225193D01*
X89898791Y-14345575D01*
X89745575Y-14498791D01*
X89625193Y-14678955D01*
X89542273Y-14879142D01*
X89500000Y-15091659D01*
X475000Y-15091659D01*
X475000Y-12591659D01*
X89500000Y-12591659D01*
X89500000Y-12808341D01*
X89542273Y-13020858D01*
X89625193Y-13221045D01*
X89745575Y-13401209D01*
X89898791Y-13554425D01*
X90078955Y-13674807D01*
X90279142Y-13757727D01*
X90491659Y-13800000D01*
X90708341Y-13800000D01*
X90920858Y-13757727D01*
X91121045Y-13674807D01*
X91301209Y-13554425D01*
X91454425Y-13401209D01*
X91574807Y-13221045D01*
X91657727Y-13020858D01*
X91700000Y-12808341D01*
X91700000Y-12591659D01*
X92000000Y-12591659D01*
X92000000Y-12808341D01*
X92042273Y-13020858D01*
X92125193Y-13221045D01*
X92245575Y-13401209D01*
X92398791Y-13554425D01*
X92578955Y-13674807D01*
X92779142Y-13757727D01*
X92991659Y-13800000D01*
X93208341Y-13800000D01*
X93420858Y-13757727D01*
X93621045Y-13674807D01*
X93801209Y-13554425D01*
X93954425Y-13401209D01*
X94074807Y-13221045D01*
X94157727Y-13020858D01*
X94200000Y-12808341D01*
X94200000Y-12591659D01*
X94500000Y-12591659D01*
X94500000Y-12808341D01*
X94542273Y-13020858D01*
X94625193Y-13221045D01*
X94745575Y-13401209D01*
X94898791Y-13554425D01*
X95078955Y-13674807D01*
X95279142Y-13757727D01*
X95491659Y-13800000D01*
X95708341Y-13800000D01*
X95920858Y-13757727D01*
X96121045Y-13674807D01*
X96301209Y-13554425D01*
X96454425Y-13401209D01*
X96574807Y-13221045D01*
X96657727Y-13020858D01*
X96700000Y-12808341D01*
X96700000Y-12591659D01*
X96657727Y-12379142D01*
X96574807Y-12178955D01*
X96454425Y-11998791D01*
X96301209Y-11845575D01*
X96121045Y-11725193D01*
X95920858Y-11642273D01*
X95708341Y-11600000D01*
X95491659Y-11600000D01*
X95279142Y-11642273D01*
X95078955Y-11725193D01*
X94898791Y-11845575D01*
X94745575Y-11998791D01*
X94625193Y-12178955D01*
X94542273Y-12379142D01*
X94500000Y-12591659D01*
X94200000Y-12591659D01*
X94157727Y-12379142D01*
X94074807Y-12178955D01*
X93954425Y-11998791D01*
X93801209Y-11845575D01*
X93621045Y-11725193D01*
X93420858Y-11642273D01*
X93208341Y-11600000D01*
X92991659Y-11600000D01*
X92779142Y-11642273D01*
X92578955Y-11725193D01*
X92398791Y-11845575D01*
X92245575Y-11998791D01*
X92125193Y-12178955D01*
X92042273Y-12379142D01*
X92000000Y-12591659D01*
X91700000Y-12591659D01*
X91657727Y-12379142D01*
X91574807Y-12178955D01*
X91454425Y-11998791D01*
X91301209Y-11845575D01*
X91121045Y-11725193D01*
X90920858Y-11642273D01*
X90708341Y-11600000D01*
X90491659Y-11600000D01*
X90279142Y-11642273D01*
X90078955Y-11725193D01*
X89898791Y-11845575D01*
X89745575Y-11998791D01*
X89625193Y-12178955D01*
X89542273Y-12379142D01*
X89500000Y-12591659D01*
X475000Y-12591659D01*
X475000Y-10091659D01*
X89500000Y-10091659D01*
X89500000Y-10308341D01*
X89542273Y-10520858D01*
X89625193Y-10721045D01*
X89745575Y-10901209D01*
X89898791Y-11054425D01*
X90078955Y-11174807D01*
X90279142Y-11257727D01*
X90491659Y-11300000D01*
X90708341Y-11300000D01*
X90920858Y-11257727D01*
X91121045Y-11174807D01*
X91301209Y-11054425D01*
X91454425Y-10901209D01*
X91574807Y-10721045D01*
X91657727Y-10520858D01*
X91700000Y-10308341D01*
X91700000Y-10091659D01*
X92000000Y-10091659D01*
X92000000Y-10308341D01*
X92042273Y-10520858D01*
X92125193Y-10721045D01*
X92245575Y-10901209D01*
X92398791Y-11054425D01*
X92578955Y-11174807D01*
X92779142Y-11257727D01*
X92991659Y-11300000D01*
X93208341Y-11300000D01*
X93420858Y-11257727D01*
X93621045Y-11174807D01*
X93801209Y-11054425D01*
X93954425Y-10901209D01*
X94074807Y-10721045D01*
X94157727Y-10520858D01*
X94200000Y-10308341D01*
X94200000Y-10091659D01*
X94500000Y-10091659D01*
X94500000Y-10308341D01*
X94542273Y-10520858D01*
X94625193Y-10721045D01*
X94745575Y-10901209D01*
X94898791Y-11054425D01*
X95078955Y-11174807D01*
X95279142Y-11257727D01*
X95491659Y-11300000D01*
X95708341Y-11300000D01*
X95920858Y-11257727D01*
X96121045Y-11174807D01*
X96301209Y-11054425D01*
X96454425Y-10901209D01*
X96574807Y-10721045D01*
X96657727Y-10520858D01*
X96700000Y-10308341D01*
X96700000Y-10091659D01*
X96657727Y-9879142D01*
X96574807Y-9678955D01*
X96454425Y-9498791D01*
X96301209Y-9345575D01*
X96121045Y-9225193D01*
X95920858Y-9142273D01*
X95708341Y-9100000D01*
X95491659Y-9100000D01*
X95279142Y-9142273D01*
X95078955Y-9225193D01*
X94898791Y-9345575D01*
X94745575Y-9498791D01*
X94625193Y-9678955D01*
X94542273Y-9879142D01*
X94500000Y-10091659D01*
X94200000Y-10091659D01*
X94157727Y-9879142D01*
X94074807Y-9678955D01*
X93954425Y-9498791D01*
X93801209Y-9345575D01*
X93621045Y-9225193D01*
X93420858Y-9142273D01*
X93208341Y-9100000D01*
X92991659Y-9100000D01*
X92779142Y-9142273D01*
X92578955Y-9225193D01*
X92398791Y-9345575D01*
X92245575Y-9498791D01*
X92125193Y-9678955D01*
X92042273Y-9879142D01*
X92000000Y-10091659D01*
X91700000Y-10091659D01*
X91657727Y-9879142D01*
X91574807Y-9678955D01*
X91454425Y-9498791D01*
X91301209Y-9345575D01*
X91121045Y-9225193D01*
X90920858Y-9142273D01*
X90708341Y-9100000D01*
X90491659Y-9100000D01*
X90279142Y-9142273D01*
X90078955Y-9225193D01*
X89898791Y-9345575D01*
X89745575Y-9498791D01*
X89625193Y-9678955D01*
X89542273Y-9879142D01*
X89500000Y-10091659D01*
X475000Y-10091659D01*
X475000Y-5762708D01*
X37551864Y-5762708D01*
X37552149Y-5803525D01*
X37551864Y-5844275D01*
X37552477Y-5850528D01*
X37562677Y-5947577D01*
X37570887Y-5987574D01*
X37578521Y-6027592D01*
X37580334Y-6033597D01*
X37580336Y-6033607D01*
X37580340Y-6033616D01*
X37609193Y-6126826D01*
X37625005Y-6164440D01*
X37640278Y-6202243D01*
X37643227Y-6207791D01*
X37689640Y-6293629D01*
X37712471Y-6327477D01*
X37734780Y-6361568D01*
X37738747Y-6366432D01*
X37738751Y-6366438D01*
X37738756Y-6366443D01*
X37800952Y-6441626D01*
X37829894Y-6470367D01*
X37858426Y-6499503D01*
X37863267Y-6503508D01*
X37938888Y-6565184D01*
X37972888Y-6587774D01*
X38006517Y-6610800D01*
X38012044Y-6613789D01*
X38098205Y-6659601D01*
X38135935Y-6675152D01*
X38173397Y-6691208D01*
X38179399Y-6693066D01*
X38272817Y-6721271D01*
X38312828Y-6729194D01*
X38352724Y-6737674D01*
X38358973Y-6738331D01*
X38456090Y-6747853D01*
X38456095Y-6747853D01*
X38477895Y-6750000D01*
X67522105Y-6750000D01*
X67544412Y-6747803D01*
X67550891Y-6747803D01*
X67557140Y-6747147D01*
X67654115Y-6736270D01*
X67694040Y-6727784D01*
X67734020Y-6719868D01*
X67740016Y-6718012D01*
X67740020Y-6718011D01*
X67740023Y-6718010D01*
X67833037Y-6688504D01*
X67870532Y-6672433D01*
X67908233Y-6656895D01*
X67913760Y-6653906D01*
X67999272Y-6606895D01*
X68032906Y-6583866D01*
X68066899Y-6561281D01*
X68071740Y-6557276D01*
X68146492Y-6494551D01*
X68175076Y-6465362D01*
X68203966Y-6436673D01*
X68207938Y-6431804D01*
X68269084Y-6355754D01*
X68291433Y-6321602D01*
X68314224Y-6287812D01*
X68317174Y-6282265D01*
X68362384Y-6195785D01*
X68377686Y-6157913D01*
X68393466Y-6120374D01*
X68395283Y-6114359D01*
X68422835Y-6020747D01*
X68430487Y-5980635D01*
X68438679Y-5940728D01*
X68439292Y-5934474D01*
X68448136Y-5837292D01*
X68447851Y-5796476D01*
X68448136Y-5755726D01*
X68447523Y-5749472D01*
X68437323Y-5652424D01*
X68429114Y-5612433D01*
X68421479Y-5572408D01*
X68419666Y-5566403D01*
X68419664Y-5566393D01*
X68419660Y-5566384D01*
X68390807Y-5473174D01*
X68375001Y-5435573D01*
X68359722Y-5397756D01*
X68356773Y-5392209D01*
X68310360Y-5306371D01*
X68287529Y-5272523D01*
X68265220Y-5238432D01*
X68261249Y-5233562D01*
X68199047Y-5158374D01*
X68170125Y-5129653D01*
X68141574Y-5100497D01*
X68136733Y-5096492D01*
X68061112Y-5034816D01*
X68027089Y-5012210D01*
X67993483Y-4989200D01*
X67987956Y-4986211D01*
X67901795Y-4940399D01*
X67864065Y-4924848D01*
X67826603Y-4908792D01*
X67820601Y-4906934D01*
X67727183Y-4878729D01*
X67687179Y-4870808D01*
X67647276Y-4862326D01*
X67641037Y-4861671D01*
X67641032Y-4861670D01*
X67641028Y-4861670D01*
X67543910Y-4852147D01*
X67543905Y-4852147D01*
X67522105Y-4850000D01*
X38477895Y-4850000D01*
X38455588Y-4852197D01*
X38449109Y-4852197D01*
X38442860Y-4852853D01*
X38345885Y-4863730D01*
X38305960Y-4872216D01*
X38265980Y-4880132D01*
X38259984Y-4881988D01*
X38259980Y-4881989D01*
X38259977Y-4881990D01*
X38259978Y-4881990D01*
X38166963Y-4911496D01*
X38129419Y-4927587D01*
X38091767Y-4943106D01*
X38086245Y-4946091D01*
X38086241Y-4946093D01*
X38086240Y-4946094D01*
X38000727Y-4993105D01*
X37967034Y-5016175D01*
X37933101Y-5038720D01*
X37928271Y-5042716D01*
X37928262Y-5042722D01*
X37928255Y-5042729D01*
X37853508Y-5105449D01*
X37824941Y-5134622D01*
X37796034Y-5163327D01*
X37792062Y-5168196D01*
X37730916Y-5244246D01*
X37708579Y-5278380D01*
X37685776Y-5312187D01*
X37682826Y-5317735D01*
X37637616Y-5404214D01*
X37622335Y-5442036D01*
X37606533Y-5479627D01*
X37604717Y-5485642D01*
X37577165Y-5579253D01*
X37569515Y-5619353D01*
X37561321Y-5659272D01*
X37560708Y-5665525D01*
X37551864Y-5762708D01*
X475000Y-5762708D01*
X475000Y-3611358D01*
X37600000Y-3611358D01*
X37600000Y-3788642D01*
X37634586Y-3962520D01*
X37702430Y-4126310D01*
X37800924Y-4273717D01*
X37926283Y-4399076D01*
X38073690Y-4497570D01*
X38237480Y-4565414D01*
X38411358Y-4600000D01*
X38588642Y-4600000D01*
X38762520Y-4565414D01*
X38926310Y-4497570D01*
X39073717Y-4399076D01*
X39199076Y-4273717D01*
X39297570Y-4126310D01*
X39365414Y-3962520D01*
X39400000Y-3788642D01*
X39400000Y-3611358D01*
X66600000Y-3611358D01*
X66600000Y-3788642D01*
X66634586Y-3962520D01*
X66702430Y-4126310D01*
X66800924Y-4273717D01*
X66926283Y-4399076D01*
X67073690Y-4497570D01*
X67237480Y-4565414D01*
X67411358Y-4600000D01*
X67588642Y-4600000D01*
X67762520Y-4565414D01*
X67926310Y-4497570D01*
X68073717Y-4399076D01*
X68199076Y-4273717D01*
X68297570Y-4126310D01*
X68365414Y-3962520D01*
X68400000Y-3788642D01*
X68400000Y-3611358D01*
X68365414Y-3437480D01*
X68297570Y-3273690D01*
X68199076Y-3126283D01*
X68073717Y-3000924D01*
X67926310Y-2902430D01*
X67762520Y-2834586D01*
X67588642Y-2800000D01*
X67411358Y-2800000D01*
X67237480Y-2834586D01*
X67073690Y-2902430D01*
X66926283Y-3000924D01*
X66800924Y-3126283D01*
X66702430Y-3273690D01*
X66634586Y-3437480D01*
X66600000Y-3611358D01*
X39400000Y-3611358D01*
X39365414Y-3437480D01*
X39297570Y-3273690D01*
X39199076Y-3126283D01*
X39073717Y-3000924D01*
X38926310Y-2902430D01*
X38762520Y-2834586D01*
X38588642Y-2800000D01*
X38411358Y-2800000D01*
X38237480Y-2834586D01*
X38073690Y-2902430D01*
X37926283Y-3000924D01*
X37800924Y-3126283D01*
X37702430Y-3273690D01*
X37634586Y-3437480D01*
X37600000Y-3611358D01*
X475000Y-3611358D01*
X475000Y-2023232D01*
X506278Y-1704236D01*
X564511Y-1511358D01*
X37600000Y-1511358D01*
X37600000Y-1688642D01*
X37634586Y-1862520D01*
X37702430Y-2026310D01*
X37800924Y-2173717D01*
X37926283Y-2299076D01*
X38073690Y-2397570D01*
X38237480Y-2465414D01*
X38411358Y-2500000D01*
X38588642Y-2500000D01*
X38762520Y-2465414D01*
X38926310Y-2397570D01*
X39073717Y-2299076D01*
X39199076Y-2173717D01*
X39297570Y-2026310D01*
X39365414Y-1862520D01*
X39400000Y-1688642D01*
X39400000Y-1511358D01*
X66600000Y-1511358D01*
X66600000Y-1688642D01*
X66634586Y-1862520D01*
X66702430Y-2026310D01*
X66800924Y-2173717D01*
X66926283Y-2299076D01*
X67073690Y-2397570D01*
X67237480Y-2465414D01*
X67411358Y-2500000D01*
X67588642Y-2500000D01*
X67762520Y-2465414D01*
X67926310Y-2397570D01*
X68073717Y-2299076D01*
X68199076Y-2173717D01*
X68297570Y-2026310D01*
X68365414Y-1862520D01*
X68400000Y-1688642D01*
X68400000Y-1511358D01*
X68365414Y-1337480D01*
X68297570Y-1173690D01*
X68199076Y-1026283D01*
X68073717Y-900924D01*
X67926310Y-802430D01*
X67762520Y-734586D01*
X67588642Y-700000D01*
X67411358Y-700000D01*
X67237480Y-734586D01*
X67073690Y-802430D01*
X66926283Y-900924D01*
X66800924Y-1026283D01*
X66702430Y-1173690D01*
X66634586Y-1337480D01*
X66600000Y-1511358D01*
X39400000Y-1511358D01*
X39365414Y-1337480D01*
X39297570Y-1173690D01*
X39199076Y-1026283D01*
X39073717Y-900924D01*
X38926310Y-802430D01*
X38762520Y-734586D01*
X38588642Y-700000D01*
X38411358Y-700000D01*
X38237480Y-734586D01*
X38073690Y-802430D01*
X37926283Y-900924D01*
X37800924Y-1026283D01*
X37702430Y-1173690D01*
X37634586Y-1337480D01*
X37600000Y-1511358D01*
X564511Y-1511358D01*
X592173Y-1419737D01*
X731695Y-1157335D01*
X919521Y-927039D01*
X1148505Y-737606D01*
X1409921Y-596259D01*
X1693812Y-508380D01*
X2011398Y-475000D01*
X103976768Y-475000D01*
X104295764Y-506278D01*
M02*
