G04 #@! TF.GenerationSoftware,KiCad,Pcbnew,5.0.2-bee76a0~70~ubuntu16.04.1*
G04 #@! TF.CreationDate,2019-08-17T11:50:25-07:00*
G04 #@! TF.ProjectId,n2adr,6e326164-722e-46b6-9963-61645f706362,E5b9*
G04 #@! TF.SameCoordinates,PX3dfd240PY3473bc0*
G04 #@! TF.FileFunction,Paste,Bot*
G04 #@! TF.FilePolarity,Positive*
%FSLAX46Y46*%
G04 Gerber Fmt 4.6, Leading zero omitted, Abs format (unit mm)*
G04 Created by KiCad (PCBNEW 5.0.2-bee76a0~70~ubuntu16.04.1) date Sat 17 Aug 2019 11:50:25 AM PDT*
%MOMM*%
%LPD*%
G01*
G04 APERTURE LIST*
%ADD10R,1.250000X1.200000*%
%ADD11R,1.200000X1.250000*%
%ADD12R,0.450000X1.750000*%
%ADD13R,0.450000X1.500000*%
%ADD14R,1.399540X1.198880*%
%ADD15R,1.399540X1.000760*%
%ADD16R,0.450000X1.450000*%
%ADD17R,0.650000X1.560000*%
%ADD18R,1.600000X1.800000*%
G04 APERTURE END LIST*
D10*
G04 #@! TO.C,C3*
X38400000Y-5300000D03*
X38400000Y-7500000D03*
G04 #@! TD*
G04 #@! TO.C,C5*
X16900000Y-5300000D03*
X16900000Y-7500000D03*
G04 #@! TD*
G04 #@! TO.C,C6*
X27700000Y-5300000D03*
X27700000Y-7500000D03*
G04 #@! TD*
D11*
G04 #@! TO.C,C11*
X72100000Y-39000000D03*
X69900000Y-39000000D03*
G04 #@! TD*
G04 #@! TO.C,C13*
X72100000Y-36500000D03*
X69900000Y-36500000D03*
G04 #@! TD*
D10*
G04 #@! TO.C,C14*
X40900000Y-25000000D03*
X40900000Y-27200000D03*
G04 #@! TD*
G04 #@! TO.C,R5*
X75000000Y-47100000D03*
X75000000Y-44900000D03*
G04 #@! TD*
G04 #@! TO.C,R8*
X71500000Y-29400000D03*
X71500000Y-31600000D03*
G04 #@! TD*
G04 #@! TO.C,C27*
X34800000Y-5300000D03*
X34800000Y-7500000D03*
G04 #@! TD*
G04 #@! TO.C,C28*
X22900000Y-5300000D03*
X22900000Y-7500000D03*
G04 #@! TD*
G04 #@! TO.C,C29*
X70800000Y-17200000D03*
X70800000Y-15000000D03*
G04 #@! TD*
D11*
G04 #@! TO.C,C30*
X63700000Y-5500000D03*
X61500000Y-5500000D03*
G04 #@! TD*
G04 #@! TO.C,C31*
X50000000Y-7400000D03*
X47800000Y-7400000D03*
G04 #@! TD*
D12*
G04 #@! TO.C,U1*
X48575000Y-45500000D03*
X47925000Y-45500000D03*
X47275000Y-45500000D03*
X46625000Y-45500000D03*
X45975000Y-45500000D03*
X45325000Y-45500000D03*
X44675000Y-45500000D03*
X44025000Y-45500000D03*
X43375000Y-45500000D03*
X42725000Y-45500000D03*
X42725000Y-38300000D03*
X43375000Y-38300000D03*
X44025000Y-38300000D03*
X44675000Y-38300000D03*
X45325000Y-38300000D03*
X45975000Y-38300000D03*
X46625000Y-38300000D03*
X47275000Y-38300000D03*
X47925000Y-38300000D03*
X48575000Y-38300000D03*
G04 #@! TD*
D13*
G04 #@! TO.C,U2*
X47275000Y-34950000D03*
X46625000Y-34950000D03*
X45975000Y-34950000D03*
X45325000Y-34950000D03*
X44675000Y-34950000D03*
X44025000Y-34950000D03*
X43375000Y-34950000D03*
X42725000Y-34950000D03*
X42725000Y-29050000D03*
X43375000Y-29050000D03*
X44025000Y-29050000D03*
X44675000Y-29050000D03*
X45325000Y-29050000D03*
X45975000Y-29050000D03*
X46625000Y-29050000D03*
X47275000Y-29050000D03*
G04 #@! TD*
D10*
G04 #@! TO.C,C20*
X9500000Y-5300000D03*
X9500000Y-7500000D03*
G04 #@! TD*
D14*
G04 #@! TO.C,D1*
X74400180Y-42269620D03*
D15*
X74400180Y-40550040D03*
X76599820Y-40550040D03*
X76599820Y-42449960D03*
G04 #@! TD*
D14*
G04 #@! TO.C,D2*
X74400180Y-35769620D03*
D15*
X74400180Y-34050040D03*
X76599820Y-34050040D03*
X76599820Y-35949960D03*
G04 #@! TD*
D10*
G04 #@! TO.C,R4*
X77500000Y-47100000D03*
X77500000Y-44900000D03*
G04 #@! TD*
G04 #@! TO.C,R9*
X76500000Y-31600000D03*
X76500000Y-29400000D03*
G04 #@! TD*
D11*
G04 #@! TO.C,R10*
X61800000Y-27900000D03*
X64000000Y-27900000D03*
G04 #@! TD*
G04 #@! TO.C,R11*
X64000000Y-30800000D03*
X61800000Y-30800000D03*
G04 #@! TD*
G04 #@! TO.C,R12*
X59100000Y-32000000D03*
X56900000Y-32000000D03*
G04 #@! TD*
G04 #@! TO.C,R13*
X56900000Y-36000000D03*
X59100000Y-36000000D03*
G04 #@! TD*
G04 #@! TO.C,R14*
X64600000Y-40900000D03*
X62400000Y-40900000D03*
G04 #@! TD*
G04 #@! TO.C,R15*
X59100000Y-40900000D03*
X56900000Y-40900000D03*
G04 #@! TD*
D16*
G04 #@! TO.C,U3*
X62525000Y-34300000D03*
X63175000Y-34300000D03*
X63825000Y-34300000D03*
X64475000Y-34300000D03*
X64475000Y-38700000D03*
X63825000Y-38700000D03*
X63175000Y-38700000D03*
X62525000Y-38700000D03*
G04 #@! TD*
D11*
G04 #@! TO.C,C45*
X90500000Y-19000000D03*
X88300000Y-19000000D03*
G04 #@! TD*
G04 #@! TO.C,C46*
X94600000Y-31200000D03*
X92400000Y-31200000D03*
G04 #@! TD*
G04 #@! TO.C,C7*
X56900000Y-38500000D03*
X59100000Y-38500000D03*
G04 #@! TD*
D17*
G04 #@! TO.C,U5*
X51550000Y-34150000D03*
X50600000Y-34150000D03*
X49650000Y-34150000D03*
X49650000Y-31450000D03*
X51550000Y-31450000D03*
G04 #@! TD*
D11*
G04 #@! TO.C,C12*
X12100000Y-4200000D03*
X14300000Y-4200000D03*
G04 #@! TD*
D18*
G04 #@! TO.C,C15*
X64400000Y-2200000D03*
X61600000Y-2200000D03*
G04 #@! TD*
D10*
G04 #@! TO.C,R16*
X40200000Y-43200000D03*
X40200000Y-41000000D03*
G04 #@! TD*
M02*
