G04 #@! TF.GenerationSoftware,KiCad,Pcbnew,5.0.2-bee76a0~70~ubuntu16.04.1*
G04 #@! TF.CreationDate,2019-02-17T19:23:45-08:00*
G04 #@! TF.ProjectId,hermeslite,6865726d-6573-46c6-9974-652e6b696361,2.0-build8*
G04 #@! TF.SameCoordinates,PX42c1d80PY2625a00*
G04 #@! TF.FileFunction,Paste,Top*
G04 #@! TF.FilePolarity,Positive*
%FSLAX46Y46*%
G04 Gerber Fmt 4.6, Leading zero omitted, Abs format (unit mm)*
G04 Created by KiCad (PCBNEW 5.0.2-bee76a0~70~ubuntu16.04.1) date Sun 17 Feb 2019 07:23:45 PM PST*
%MOMM*%
%LPD*%
G01*
G04 APERTURE LIST*
%ADD10C,0.150000*%
%ADD11R,0.250000X0.800000*%
%ADD12R,0.800000X0.250000*%
%ADD13R,1.900000X4.280000*%
%ADD14C,0.525000*%
%ADD15C,0.100000*%
%ADD16R,0.700000X1.400000*%
%ADD17R,0.900000X1.250000*%
%ADD18O,0.280000X1.200000*%
%ADD19O,1.200000X0.280000*%
%ADD20R,1.143000X0.635000*%
%ADD21R,1.000000X1.000000*%
%ADD22R,2.500000X2.500000*%
%ADD23R,0.600000X2.200000*%
%ADD24R,7.000000X2.940000*%
%ADD25R,0.510000X1.100000*%
%ADD26R,3.500000X2.600000*%
%ADD27R,0.635000X1.143000*%
%ADD28R,1.350000X0.400000*%
%ADD29R,1.397000X0.889000*%
%ADD30R,2.400000X5.700000*%
%ADD31R,1.600000X1.800000*%
%ADD32R,0.889000X1.397000*%
%ADD33R,2.300000X5.600000*%
%ADD34R,1.000000X0.400000*%
%ADD35R,1.200000X1.400000*%
%ADD36C,0.635000*%
%ADD37R,1.778000X2.794000*%
%ADD38R,1.500000X0.650000*%
%ADD39R,2.700000X3.600000*%
%ADD40R,0.800000X0.900000*%
%ADD41R,0.900000X0.800000*%
%ADD42R,1.800000X1.600000*%
%ADD43R,1.400000X0.300000*%
%ADD44R,0.600000X1.050000*%
%ADD45C,1.600000*%
%ADD46R,1.650000X2.540000*%
%ADD47C,1.191446*%
%ADD48R,1.015000X1.650000*%
%ADD49R,0.760000X1.650000*%
%ADD50C,1.000000*%
%ADD51R,1.650000X2.000000*%
%ADD52R,2.540000X1.650000*%
%ADD53R,1.650000X1.015000*%
%ADD54R,1.400000X1.200000*%
%ADD55R,1.000760X0.599440*%
%ADD56R,1.100000X1.600000*%
%ADD57R,1.050000X2.200000*%
%ADD58R,2.200000X1.050000*%
%ADD59R,1.000000X2.510000*%
%ADD60R,1.080000X1.040000*%
G04 APERTURE END LIST*
D10*
G04 #@! TO.C,U4*
G36*
X29716525Y-21715000D02*
X29716525Y-23315000D01*
X31116525Y-23315000D01*
X31116525Y-21715000D01*
X29716525Y-21715000D01*
G37*
X29716525Y-21715000D02*
X29716525Y-23315000D01*
X31116525Y-23315000D01*
X31116525Y-21715000D01*
X29716525Y-21715000D01*
G36*
X27516525Y-23315000D02*
X27516525Y-21715000D01*
X28916525Y-21715000D01*
X28916525Y-23315000D01*
X27516525Y-23315000D01*
G37*
X27516525Y-23315000D02*
X27516525Y-21715000D01*
X28916525Y-21715000D01*
X28916525Y-23315000D01*
X27516525Y-23315000D01*
G36*
X31116525Y-19415000D02*
X31116525Y-20915000D01*
X29716525Y-20915000D01*
X29716525Y-19415000D01*
X31116525Y-19415000D01*
G37*
X31116525Y-19415000D02*
X31116525Y-20915000D01*
X29716525Y-20915000D01*
X29716525Y-19415000D01*
X31116525Y-19415000D01*
G36*
X27516525Y-19415000D02*
X27516525Y-20915000D01*
X28916525Y-20915000D01*
X28916525Y-19415000D01*
X27516525Y-19415000D01*
G37*
X27516525Y-19415000D02*
X27516525Y-20915000D01*
X28916525Y-20915000D01*
X28916525Y-19415000D01*
X27516525Y-19415000D01*
G04 #@! TO.C,U2*
G36*
X35600000Y-46800000D02*
X35600000Y-43800000D01*
X38600000Y-43800000D01*
X38600000Y-46800000D01*
X35600000Y-46800000D01*
G37*
X35600000Y-46800000D02*
X35600000Y-43800000D01*
X38600000Y-43800000D01*
X38600000Y-46800000D01*
X35600000Y-46800000D01*
G04 #@! TD*
D11*
G04 #@! TO.C,U4*
X26566525Y-17815000D03*
X27066525Y-17815000D03*
X27566525Y-17815000D03*
X28066525Y-17815000D03*
X28566525Y-17815000D03*
X29066525Y-17815000D03*
X29566525Y-17815000D03*
X30066525Y-17815000D03*
X30566525Y-17815000D03*
X31066525Y-17815000D03*
X31566525Y-17815000D03*
X32066525Y-17815000D03*
D12*
X32816525Y-18565000D03*
X32816525Y-19065000D03*
X32816525Y-19565000D03*
X32816525Y-20065000D03*
X32816525Y-20565000D03*
X32816525Y-21065000D03*
X32816525Y-21565000D03*
X32816525Y-22065000D03*
X32816525Y-22565000D03*
X32816525Y-23065000D03*
X32816525Y-23565000D03*
X32816525Y-24065000D03*
D11*
X32066525Y-24815000D03*
X31566525Y-24815000D03*
X31066525Y-24815000D03*
X30566525Y-24815000D03*
X30066525Y-24815000D03*
X29566525Y-24815000D03*
X29066525Y-24815000D03*
X28566525Y-24815000D03*
X28066525Y-24815000D03*
X27566525Y-24815000D03*
X27066525Y-24815000D03*
X26566525Y-24815000D03*
D12*
X25816525Y-24065000D03*
X25816525Y-23565000D03*
X25816525Y-23065000D03*
X25816525Y-22565000D03*
X25816525Y-22065000D03*
X25816525Y-21565000D03*
X25816525Y-21065000D03*
X25816525Y-20565000D03*
X25816525Y-20065000D03*
X25816525Y-19565000D03*
X25816525Y-19065000D03*
X25816525Y-18565000D03*
G04 #@! TD*
D13*
G04 #@! TO.C,Q3*
X80300000Y-97000000D03*
D14*
X80300000Y-94600000D03*
D15*
G36*
X79350000Y-94862500D02*
X79875000Y-94337500D01*
X80725000Y-94337500D01*
X81250000Y-94862500D01*
X79350000Y-94862500D01*
X79350000Y-94862500D01*
G37*
D16*
X80300000Y-93700000D03*
D17*
X81900000Y-93700000D03*
X78700000Y-93700000D03*
G04 #@! TD*
D13*
G04 #@! TO.C,Q4*
X63300000Y-97000000D03*
D14*
X63300000Y-94600000D03*
D15*
G36*
X62350000Y-94862500D02*
X62875000Y-94337500D01*
X63725000Y-94337500D01*
X64250000Y-94862500D01*
X62350000Y-94862500D01*
X62350000Y-94862500D01*
G37*
D16*
X63300000Y-93700000D03*
D17*
X64900000Y-93700000D03*
X61700000Y-93700000D03*
G04 #@! TD*
D18*
G04 #@! TO.C,U2*
X45850000Y-56300000D03*
X45350000Y-56300000D03*
X44850000Y-56300000D03*
X44350000Y-56300000D03*
X43850000Y-56300000D03*
X43350000Y-56300000D03*
X42850000Y-56300000D03*
X42350000Y-56300000D03*
X41850000Y-56300000D03*
X41350000Y-56300000D03*
X40850000Y-56300000D03*
X40350000Y-56300000D03*
X39850000Y-56300000D03*
X39350000Y-56300000D03*
X38850000Y-56300000D03*
X38350000Y-56300000D03*
X37850000Y-56300000D03*
X37350000Y-56300000D03*
X36850000Y-56300000D03*
X36350000Y-56300000D03*
X35850000Y-56300000D03*
X35350000Y-56300000D03*
X34850000Y-56300000D03*
X34350000Y-56300000D03*
X33850000Y-56300000D03*
X33350000Y-56300000D03*
X32850000Y-56300000D03*
X32350000Y-56300000D03*
X31850000Y-56300000D03*
X31350000Y-56300000D03*
X30850000Y-56300000D03*
X30350000Y-56300000D03*
X29850000Y-56300000D03*
X29350000Y-56300000D03*
X28850000Y-56300000D03*
X28350000Y-56300000D03*
D19*
X26100000Y-54050000D03*
X26100000Y-53550000D03*
X26100000Y-53050000D03*
X26100000Y-52550000D03*
X26100000Y-52050000D03*
X26100000Y-51550000D03*
X26100000Y-51050000D03*
X26100000Y-50550000D03*
X26100000Y-50050000D03*
X26100000Y-49550000D03*
X26100000Y-49050000D03*
X26100000Y-48550000D03*
X26100000Y-48050000D03*
X26100000Y-47550000D03*
X26100000Y-47050000D03*
X26100000Y-46550000D03*
X26100000Y-46050000D03*
X26100000Y-45550000D03*
X26100000Y-45050000D03*
X26100000Y-44550000D03*
X26100000Y-44050000D03*
X26100000Y-43550000D03*
X26100000Y-43050000D03*
X26100000Y-42550000D03*
X26100000Y-42050000D03*
X26100000Y-41550000D03*
X26100000Y-41050000D03*
X26100000Y-40550000D03*
X26100000Y-40050000D03*
X26100000Y-39550000D03*
X26100000Y-39050000D03*
X26100000Y-38550000D03*
X26100000Y-38050000D03*
X26100000Y-37550000D03*
X26100000Y-37050000D03*
X26100000Y-36550000D03*
D18*
X28350000Y-34300000D03*
X28850000Y-34300000D03*
X29350000Y-34300000D03*
X29850000Y-34300000D03*
X30350000Y-34300000D03*
X30850000Y-34300000D03*
X31350000Y-34300000D03*
X31850000Y-34300000D03*
X32350000Y-34300000D03*
X32850000Y-34300000D03*
X33350000Y-34300000D03*
X33850000Y-34300000D03*
X34350000Y-34300000D03*
X34850000Y-34300000D03*
X35350000Y-34300000D03*
X35850000Y-34300000D03*
X36350000Y-34300000D03*
X36850000Y-34300000D03*
X37350000Y-34300000D03*
X37850000Y-34300000D03*
X38350000Y-34300000D03*
X38850000Y-34300000D03*
X39350000Y-34300000D03*
X39850000Y-34300000D03*
X40350000Y-34300000D03*
X40850000Y-34300000D03*
X41350000Y-34300000D03*
X41850000Y-34300000D03*
X42350000Y-34300000D03*
X42850000Y-34300000D03*
X43350000Y-34300000D03*
X43850000Y-34300000D03*
X44350000Y-34300000D03*
X44850000Y-34300000D03*
X45350000Y-34300000D03*
X45850000Y-34300000D03*
D19*
X48100000Y-36550000D03*
X48100000Y-37050000D03*
X48100000Y-37550000D03*
X48100000Y-38050000D03*
X48100000Y-38550000D03*
X48100000Y-39050000D03*
X48100000Y-39550000D03*
X48100000Y-40050000D03*
X48100000Y-40550000D03*
X48100000Y-41050000D03*
X48100000Y-41550000D03*
X48100000Y-42050000D03*
X48100000Y-42550000D03*
X48100000Y-43050000D03*
X48100000Y-43550000D03*
X48100000Y-44050000D03*
X48100000Y-44550000D03*
X48100000Y-45050000D03*
X48100000Y-45550000D03*
X48100000Y-46050000D03*
X48100000Y-46550000D03*
X48100000Y-47050000D03*
X48100000Y-47550000D03*
X48100000Y-48050000D03*
X48100000Y-48550000D03*
X48100000Y-49050000D03*
X48100000Y-49550000D03*
X48100000Y-50050000D03*
X48100000Y-50550000D03*
X48100000Y-51050000D03*
X48100000Y-51550000D03*
X48100000Y-52050000D03*
X48100000Y-52550000D03*
X48100000Y-53050000D03*
X48100000Y-53550000D03*
X48100000Y-54050000D03*
G04 #@! TD*
D20*
G04 #@! TO.C,R45*
X25100000Y-64238000D03*
X25100000Y-65762000D03*
G04 #@! TD*
D21*
G04 #@! TO.C,U6*
X25755000Y-69420715D03*
X25755000Y-70820715D03*
X24355000Y-69420715D03*
D11*
X23805000Y-72220715D03*
X24305000Y-72220715D03*
X24805000Y-72220715D03*
X25305000Y-72220715D03*
X25805000Y-72220715D03*
X26305000Y-72220715D03*
D12*
X27155000Y-71370715D03*
X27155000Y-70870715D03*
X27155000Y-70370715D03*
X27155000Y-69870715D03*
X27155000Y-69370715D03*
X27155000Y-68870715D03*
D11*
X26305000Y-68020715D03*
X25805000Y-68020715D03*
X25305000Y-68020715D03*
X24805000Y-68020715D03*
X24305000Y-68020715D03*
X23805000Y-68020715D03*
D12*
X22955000Y-68870715D03*
X22955000Y-69370715D03*
X22955000Y-69870715D03*
X22955000Y-70370715D03*
X22955000Y-70870715D03*
X22955000Y-71370715D03*
D21*
X24355000Y-70820715D03*
G04 #@! TD*
D22*
G04 #@! TO.C,U7*
X43250000Y-71550000D03*
X39750000Y-71550000D03*
X39750000Y-68050000D03*
D11*
X45250000Y-65200000D03*
X44750000Y-65200000D03*
X44250000Y-65200000D03*
X43750000Y-65200000D03*
X43250000Y-65200000D03*
X42750000Y-65200000D03*
X42250000Y-65200000D03*
X41750000Y-65200000D03*
X41250000Y-65200000D03*
X40750000Y-65200000D03*
X40250000Y-65200000D03*
X39750000Y-65200000D03*
X39250000Y-65200000D03*
X38750000Y-65200000D03*
X38250000Y-65200000D03*
X37750000Y-65200000D03*
D12*
X36900000Y-66050000D03*
X36900000Y-66550000D03*
X36900000Y-67050000D03*
X36900000Y-67550000D03*
X36900000Y-68050000D03*
X36900000Y-68550000D03*
X36900000Y-69050000D03*
X36900000Y-69550000D03*
X36900000Y-70050000D03*
X36900000Y-70550000D03*
X36900000Y-71050000D03*
X36900000Y-71550000D03*
X36900000Y-72050000D03*
X36900000Y-72550000D03*
X36900000Y-73050000D03*
X36900000Y-73550000D03*
D11*
X37750000Y-74400000D03*
X38250000Y-74400000D03*
X38750000Y-74400000D03*
X39250000Y-74400000D03*
X39750000Y-74400000D03*
X40250000Y-74400000D03*
X40750000Y-74400000D03*
X41250000Y-74400000D03*
X41750000Y-74400000D03*
X42250000Y-74400000D03*
X42750000Y-74400000D03*
X43250000Y-74400000D03*
X43750000Y-74400000D03*
X44250000Y-74400000D03*
X44750000Y-74400000D03*
X45250000Y-74400000D03*
D12*
X46100000Y-73550000D03*
X46100000Y-73050000D03*
X46100000Y-72550000D03*
X46100000Y-72050000D03*
X46100000Y-71550000D03*
X46100000Y-71050000D03*
X46100000Y-70550000D03*
X46100000Y-70050000D03*
X46100000Y-69550000D03*
X46100000Y-69050000D03*
X46100000Y-68550000D03*
X46100000Y-68050000D03*
X46100000Y-67550000D03*
X46100000Y-67050000D03*
X46100000Y-66550000D03*
X46100000Y-66050000D03*
D22*
X43250000Y-68050000D03*
G04 #@! TD*
D23*
G04 #@! TO.C,U9*
X74800000Y-66700000D03*
X73530000Y-66700000D03*
X72260000Y-66700000D03*
X70990000Y-66700000D03*
X70990000Y-72450000D03*
X72260000Y-72450000D03*
X73530000Y-72450000D03*
X74800000Y-72450000D03*
D24*
X72895000Y-69575000D03*
G04 #@! TD*
D25*
G04 #@! TO.C,U16*
X49395000Y-21100000D03*
X49395000Y-26400000D03*
X50665000Y-21100000D03*
X50665000Y-26400000D03*
X51935000Y-21100000D03*
X51935000Y-26400000D03*
X53205000Y-21100000D03*
X53205000Y-26400000D03*
D26*
X51300000Y-23750000D03*
G04 #@! TD*
D25*
G04 #@! TO.C,U3*
X64095000Y-21100000D03*
X64095000Y-26400000D03*
X65365000Y-21100000D03*
X65365000Y-26400000D03*
X66635000Y-21100000D03*
X66635000Y-26400000D03*
X67905000Y-21100000D03*
X67905000Y-26400000D03*
D26*
X66000000Y-23750000D03*
G04 #@! TD*
D25*
G04 #@! TO.C,U8*
X78795000Y-21100000D03*
X78795000Y-26400000D03*
X80065000Y-21100000D03*
X80065000Y-26400000D03*
X81335000Y-21100000D03*
X81335000Y-26400000D03*
X82605000Y-21100000D03*
X82605000Y-26400000D03*
D26*
X80700000Y-23750000D03*
G04 #@! TD*
D20*
G04 #@! TO.C,C80*
X74300000Y-56338000D03*
X74300000Y-57862000D03*
G04 #@! TD*
G04 #@! TO.C,C79*
X83000000Y-57638000D03*
X83000000Y-59162000D03*
G04 #@! TD*
D27*
G04 #@! TO.C,C47*
X87338000Y-57900000D03*
X88862000Y-57900000D03*
G04 #@! TD*
G04 #@! TO.C,C83*
X79462000Y-47300000D03*
X77938000Y-47300000D03*
G04 #@! TD*
G04 #@! TO.C,C82*
X79462000Y-39300000D03*
X77938000Y-39300000D03*
G04 #@! TD*
D28*
G04 #@! TO.C,U13*
X74850000Y-44275000D03*
X79150000Y-44275000D03*
X74850000Y-43625000D03*
X79150000Y-43625000D03*
X74850000Y-42975000D03*
X79150000Y-42975000D03*
X74850000Y-42325000D03*
X79150000Y-42325000D03*
G04 #@! TD*
D27*
G04 #@! TO.C,B94*
X74438000Y-46000000D03*
X75962000Y-46000000D03*
G04 #@! TD*
D20*
G04 #@! TO.C,B108*
X62800000Y-58638000D03*
X62800000Y-60162000D03*
G04 #@! TD*
G04 #@! TO.C,FB14*
X79900000Y-63062000D03*
X79900000Y-61538000D03*
G04 #@! TD*
G04 #@! TO.C,B66*
X81600000Y-61538000D03*
X81600000Y-63062000D03*
G04 #@! TD*
G04 #@! TO.C,R125*
X88700000Y-53362000D03*
X88700000Y-51838000D03*
G04 #@! TD*
D27*
G04 #@! TO.C,R102*
X85038000Y-35400000D03*
X86562000Y-35400000D03*
G04 #@! TD*
D20*
G04 #@! TO.C,R91*
X86300000Y-32538000D03*
X86300000Y-34062000D03*
G04 #@! TD*
D29*
G04 #@! TO.C,C46*
X95500000Y-31747500D03*
X95500000Y-33652500D03*
G04 #@! TD*
D27*
G04 #@! TO.C,FB15*
X74338000Y-31900000D03*
X75862000Y-31900000D03*
G04 #@! TD*
G04 #@! TO.C,R46*
X81038000Y-28200000D03*
X82562000Y-28200000D03*
G04 #@! TD*
G04 #@! TO.C,R19*
X75138000Y-26600000D03*
X76662000Y-26600000D03*
G04 #@! TD*
D30*
G04 #@! TO.C,L3*
X80050000Y-14600000D03*
X76150000Y-14600000D03*
G04 #@! TD*
D31*
G04 #@! TO.C,C33*
X81450000Y-19000000D03*
X78650000Y-19000000D03*
G04 #@! TD*
D32*
G04 #@! TO.C,C32*
X72552500Y-19200000D03*
X70647500Y-19200000D03*
G04 #@! TD*
G04 #@! TO.C,C31*
X72552500Y-17300000D03*
X70647500Y-17300000D03*
G04 #@! TD*
G04 #@! TO.C,C30*
X73947500Y-22200000D03*
X75852500Y-22200000D03*
G04 #@! TD*
G04 #@! TO.C,C29*
X73947500Y-20500000D03*
X75852500Y-20500000D03*
G04 #@! TD*
G04 #@! TO.C,C28*
X73947500Y-18700000D03*
X75852500Y-18700000D03*
G04 #@! TD*
D27*
G04 #@! TO.C,C27*
X75138000Y-28200000D03*
X76662000Y-28200000D03*
G04 #@! TD*
D33*
G04 #@! TO.C,F1*
X58800000Y-5900000D03*
X66200000Y-5900000D03*
G04 #@! TD*
D32*
G04 #@! TO.C,C81*
X91747500Y-75500000D03*
X93652500Y-75500000D03*
G04 #@! TD*
D34*
G04 #@! TO.C,U11*
X83900000Y-74200000D03*
X83900000Y-73550000D03*
X83900000Y-72900000D03*
X81950000Y-72900000D03*
X81950000Y-73550000D03*
X81950000Y-74200000D03*
G04 #@! TD*
G04 #@! TO.C,U10*
X83900000Y-66200000D03*
X83900000Y-65550000D03*
X83900000Y-64900000D03*
X81950000Y-64900000D03*
X81950000Y-65550000D03*
X81950000Y-66200000D03*
G04 #@! TD*
D32*
G04 #@! TO.C,R62*
X77152500Y-75600000D03*
X75247500Y-75600000D03*
G04 #@! TD*
G04 #@! TO.C,R52*
X78152500Y-63400000D03*
X76247500Y-63400000D03*
G04 #@! TD*
D27*
G04 #@! TO.C,B77*
X80562000Y-73500000D03*
X79038000Y-73500000D03*
G04 #@! TD*
G04 #@! TO.C,B70*
X80562000Y-65500000D03*
X79038000Y-65500000D03*
G04 #@! TD*
G04 #@! TO.C,B100*
X64338000Y-76700000D03*
X65862000Y-76700000D03*
G04 #@! TD*
G04 #@! TO.C,B99*
X84412000Y-87400000D03*
X82888000Y-87400000D03*
G04 #@! TD*
G04 #@! TO.C,B97*
X78138000Y-90000000D03*
X79662000Y-90000000D03*
G04 #@! TD*
D29*
G04 #@! TO.C,R100*
X79400000Y-85452500D03*
X79400000Y-83547500D03*
G04 #@! TD*
D32*
G04 #@! TO.C,R98*
X79647500Y-87200000D03*
X81552500Y-87200000D03*
G04 #@! TD*
G04 #@! TO.C,R97*
X80547500Y-81500000D03*
X82452500Y-81500000D03*
G04 #@! TD*
D29*
G04 #@! TO.C,R94*
X81800000Y-85452500D03*
X81800000Y-83547500D03*
G04 #@! TD*
D27*
G04 #@! TO.C,B106*
X74038000Y-89000000D03*
X75562000Y-89000000D03*
G04 #@! TD*
G04 #@! TO.C,B105*
X61138000Y-89600000D03*
X62662000Y-89600000D03*
G04 #@! TD*
G04 #@! TO.C,B103*
X71262000Y-78400000D03*
X69738000Y-78400000D03*
G04 #@! TD*
G04 #@! TO.C,B102*
X66338000Y-78400000D03*
X67862000Y-78400000D03*
G04 #@! TD*
G04 #@! TO.C,B101*
X70562000Y-76700000D03*
X69038000Y-76700000D03*
G04 #@! TD*
G04 #@! TO.C,R63*
X70962000Y-74700000D03*
X69438000Y-74700000D03*
G04 #@! TD*
G04 #@! TO.C,R59*
X73762000Y-74700000D03*
X72238000Y-74700000D03*
G04 #@! TD*
G04 #@! TO.C,R56*
X74962000Y-64200000D03*
X73438000Y-64200000D03*
G04 #@! TD*
G04 #@! TO.C,R51*
X71162000Y-64200000D03*
X69638000Y-64200000D03*
G04 #@! TD*
G04 #@! TO.C,R64*
X59562000Y-74200000D03*
X58038000Y-74200000D03*
G04 #@! TD*
D20*
G04 #@! TO.C,R58*
X66200000Y-70262000D03*
X66200000Y-68738000D03*
G04 #@! TD*
G04 #@! TO.C,R57*
X62100000Y-70262000D03*
X62100000Y-68738000D03*
G04 #@! TD*
D27*
G04 #@! TO.C,R50*
X58038000Y-64900000D03*
X59562000Y-64900000D03*
G04 #@! TD*
D32*
G04 #@! TO.C,L9*
X66352500Y-72200000D03*
X64447500Y-72200000D03*
G04 #@! TD*
D29*
G04 #@! TO.C,L8*
X62200000Y-73452500D03*
X62200000Y-71547500D03*
G04 #@! TD*
D32*
G04 #@! TO.C,L7*
X59952500Y-72200000D03*
X58047500Y-72200000D03*
G04 #@! TD*
G04 #@! TO.C,L6*
X64447500Y-66800000D03*
X66352500Y-66800000D03*
G04 #@! TD*
D29*
G04 #@! TO.C,L5*
X62200000Y-67452500D03*
X62200000Y-65547500D03*
G04 #@! TD*
D32*
G04 #@! TO.C,L4*
X58047500Y-66800000D03*
X59952500Y-66800000D03*
G04 #@! TD*
D29*
G04 #@! TO.C,C52*
X68100000Y-68547500D03*
X68100000Y-70452500D03*
G04 #@! TD*
G04 #@! TO.C,C51*
X64300000Y-68547500D03*
X64300000Y-70452500D03*
G04 #@! TD*
G04 #@! TO.C,C50*
X60200000Y-68547500D03*
X60200000Y-70452500D03*
G04 #@! TD*
G04 #@! TO.C,C49*
X58000000Y-68547500D03*
X58000000Y-70452500D03*
G04 #@! TD*
D20*
G04 #@! TO.C,B78*
X68100000Y-73462000D03*
X68100000Y-71938000D03*
G04 #@! TD*
G04 #@! TO.C,B68*
X68100000Y-65438000D03*
X68100000Y-66962000D03*
G04 #@! TD*
D31*
G04 #@! TO.C,C23*
X52050000Y-19000000D03*
X49250000Y-19000000D03*
G04 #@! TD*
G04 #@! TO.C,C17*
X66750000Y-19000000D03*
X63950000Y-19000000D03*
G04 #@! TD*
D20*
G04 #@! TO.C,R17*
X22300000Y-44338000D03*
X22300000Y-45862000D03*
G04 #@! TD*
D27*
G04 #@! TO.C,J16*
X43062000Y-90400000D03*
X41538000Y-90400000D03*
G04 #@! TD*
D20*
G04 #@! TO.C,J12*
X44100000Y-86362000D03*
X44100000Y-84838000D03*
G04 #@! TD*
G04 #@! TO.C,B84*
X38600000Y-78362000D03*
X38600000Y-76838000D03*
G04 #@! TD*
G04 #@! TO.C,B83*
X40200000Y-78362000D03*
X40200000Y-76838000D03*
G04 #@! TD*
D35*
G04 #@! TO.C,X3*
X52250000Y-69800000D03*
X52250000Y-67600000D03*
X50550000Y-67600000D03*
X50550000Y-69800000D03*
G04 #@! TD*
D20*
G04 #@! TO.C,C59*
X54000000Y-68662000D03*
X54000000Y-67138000D03*
G04 #@! TD*
D27*
G04 #@! TO.C,C58*
X50838000Y-65900000D03*
X52362000Y-65900000D03*
G04 #@! TD*
G04 #@! TO.C,J8*
X47462000Y-77000000D03*
X45938000Y-77000000D03*
G04 #@! TD*
G04 #@! TO.C,J7*
X48962000Y-74800000D03*
X47438000Y-74800000D03*
G04 #@! TD*
D21*
G04 #@! TO.C,TP6*
X48400000Y-67600000D03*
G04 #@! TD*
G04 #@! TO.C,TP5*
X33700000Y-67500000D03*
G04 #@! TD*
D20*
G04 #@! TO.C,R69*
X42000000Y-78362000D03*
X42000000Y-76838000D03*
G04 #@! TD*
G04 #@! TO.C,J10*
X48300000Y-64738000D03*
X48300000Y-66262000D03*
G04 #@! TD*
G04 #@! TO.C,B85*
X43600000Y-76838000D03*
X43600000Y-78362000D03*
G04 #@! TD*
D36*
G04 #@! TO.C,B73*
X36738815Y-75638815D03*
D15*
G36*
X37367433Y-75459210D02*
X36559210Y-76267433D01*
X36110197Y-75818420D01*
X36918420Y-75010197D01*
X37367433Y-75459210D01*
X37367433Y-75459210D01*
G37*
D36*
X35661185Y-74561185D03*
D15*
G36*
X36289803Y-74381580D02*
X35481580Y-75189803D01*
X35032567Y-74740790D01*
X35840790Y-73932567D01*
X36289803Y-74381580D01*
X36289803Y-74381580D01*
G37*
G04 #@! TD*
D27*
G04 #@! TO.C,R16*
X54538000Y-21100000D03*
X56062000Y-21100000D03*
G04 #@! TD*
G04 #@! TO.C,R15*
X51638000Y-28200000D03*
X53162000Y-28200000D03*
G04 #@! TD*
G04 #@! TO.C,R14*
X45738000Y-26600000D03*
X47262000Y-26600000D03*
G04 #@! TD*
D30*
G04 #@! TO.C,L2*
X50650000Y-14600000D03*
X46750000Y-14600000D03*
G04 #@! TD*
D20*
G04 #@! TO.C,J11*
X54800000Y-24262000D03*
X54800000Y-22738000D03*
G04 #@! TD*
D37*
G04 #@! TO.C,C22*
X43422000Y-19500000D03*
X46978000Y-19500000D03*
G04 #@! TD*
D32*
G04 #@! TO.C,C21*
X43747500Y-22100000D03*
X45652500Y-22100000D03*
G04 #@! TD*
D29*
G04 #@! TO.C,C20*
X43000000Y-16652500D03*
X43000000Y-14747500D03*
G04 #@! TD*
D27*
G04 #@! TO.C,C19*
X45738000Y-28200000D03*
X47262000Y-28200000D03*
G04 #@! TD*
D30*
G04 #@! TO.C,L1*
X65350000Y-14600000D03*
X61450000Y-14600000D03*
G04 #@! TD*
D27*
G04 #@! TO.C,R13*
X69238000Y-21100000D03*
X70762000Y-21100000D03*
G04 #@! TD*
G04 #@! TO.C,R12*
X66338000Y-28200000D03*
X67862000Y-28200000D03*
G04 #@! TD*
G04 #@! TO.C,R11*
X60438000Y-26600000D03*
X61962000Y-26600000D03*
G04 #@! TD*
D20*
G04 #@! TO.C,J2*
X69500000Y-24262000D03*
X69500000Y-22738000D03*
G04 #@! TD*
D37*
G04 #@! TO.C,C16*
X58122000Y-19500000D03*
X61678000Y-19500000D03*
G04 #@! TD*
D32*
G04 #@! TO.C,C14*
X58447500Y-22100000D03*
X60352500Y-22100000D03*
G04 #@! TD*
D27*
G04 #@! TO.C,C13*
X60438000Y-28200000D03*
X61962000Y-28200000D03*
G04 #@! TD*
D20*
G04 #@! TO.C,R42*
X21500000Y-66938000D03*
X21500000Y-68462000D03*
G04 #@! TD*
D27*
G04 #@! TO.C,R41*
X18738000Y-71600000D03*
X20262000Y-71600000D03*
G04 #@! TD*
G04 #@! TO.C,R40*
X22438000Y-73800000D03*
X23962000Y-73800000D03*
G04 #@! TD*
G04 #@! TO.C,R39*
X21262000Y-73300000D03*
X19738000Y-73300000D03*
G04 #@! TD*
D20*
G04 #@! TO.C,R38*
X19000000Y-80738000D03*
X19000000Y-82262000D03*
G04 #@! TD*
D27*
G04 #@! TO.C,J4*
X19738000Y-75000000D03*
X21262000Y-75000000D03*
G04 #@! TD*
D20*
G04 #@! TO.C,C42*
X28000000Y-75538000D03*
X28000000Y-77062000D03*
G04 #@! TD*
G04 #@! TO.C,B57*
X25900000Y-75362000D03*
X25900000Y-73838000D03*
G04 #@! TD*
G04 #@! TO.C,B63*
X28000000Y-72938000D03*
X28000000Y-74462000D03*
G04 #@! TD*
D27*
G04 #@! TO.C,B1*
X52638000Y-52300000D03*
X54162000Y-52300000D03*
G04 #@! TD*
G04 #@! TO.C,FB11*
X35662000Y-13700000D03*
X34138000Y-13700000D03*
G04 #@! TD*
G04 #@! TO.C,FB9*
X36062000Y-11300000D03*
X34538000Y-11300000D03*
G04 #@! TD*
D20*
G04 #@! TO.C,C40*
X32700000Y-13862000D03*
X32700000Y-12338000D03*
G04 #@! TD*
G04 #@! TO.C,C38*
X30700000Y-11138000D03*
X30700000Y-12662000D03*
G04 #@! TD*
D27*
G04 #@! TO.C,C37*
X27562000Y-11200000D03*
X26038000Y-11200000D03*
G04 #@! TD*
D20*
G04 #@! TO.C,C36*
X23400000Y-14962000D03*
X23400000Y-13438000D03*
G04 #@! TD*
D38*
G04 #@! TO.C,U12*
X88100000Y-31995000D03*
X88100000Y-33265000D03*
X88100000Y-34535000D03*
X88100000Y-35805000D03*
X93500000Y-35805000D03*
X93500000Y-34535000D03*
X93500000Y-33265000D03*
X93500000Y-31995000D03*
D39*
X90800000Y-33900000D03*
G04 #@! TD*
D21*
G04 #@! TO.C,TP2*
X36400000Y-31700000D03*
G04 #@! TD*
D40*
G04 #@! TO.C,Q1*
X71850000Y-8300000D03*
X72800000Y-6300000D03*
X73750000Y-8300000D03*
G04 #@! TD*
D41*
G04 #@! TO.C,Q5*
X90200000Y-51550000D03*
X92200000Y-52500000D03*
X90200000Y-53450000D03*
G04 #@! TD*
D20*
G04 #@! TO.C,B118*
X90800000Y-95462000D03*
X90800000Y-93938000D03*
G04 #@! TD*
D41*
G04 #@! TO.C,Q6*
X89200000Y-95950000D03*
X87200000Y-95000000D03*
X89200000Y-94050000D03*
G04 #@! TD*
D42*
G04 #@! TO.C,C86*
X69100000Y-5200000D03*
X69100000Y-8000000D03*
G04 #@! TD*
D27*
G04 #@! TO.C,R124*
X74338000Y-33600000D03*
X75862000Y-33600000D03*
G04 #@! TD*
D21*
G04 #@! TO.C,TP7*
X39100000Y-58700000D03*
G04 #@! TD*
G04 #@! TO.C,TP8*
X39100000Y-60100000D03*
G04 #@! TD*
D43*
G04 #@! TO.C,U15*
X60900000Y-58500000D03*
X56500000Y-58500000D03*
X60900000Y-59000000D03*
X56500000Y-59000000D03*
X60900000Y-59500000D03*
X56500000Y-59500000D03*
X60900000Y-60000000D03*
X56500000Y-60000000D03*
X60900000Y-60500000D03*
X56500000Y-60500000D03*
G04 #@! TD*
D20*
G04 #@! TO.C,R128*
X54600000Y-60338000D03*
X54600000Y-61862000D03*
G04 #@! TD*
D27*
G04 #@! TO.C,R129*
X62962000Y-62600000D03*
X61438000Y-62600000D03*
G04 #@! TD*
G04 #@! TO.C,B109*
X75862000Y-35300000D03*
X74338000Y-35300000D03*
G04 #@! TD*
D32*
G04 #@! TO.C,C89*
X79552500Y-30500000D03*
X77647500Y-30500000D03*
G04 #@! TD*
D44*
G04 #@! TO.C,U19*
X79100000Y-32600000D03*
X78150000Y-32600000D03*
X77200000Y-32600000D03*
X77200000Y-35300000D03*
X79100000Y-35300000D03*
G04 #@! TD*
D21*
G04 #@! TO.C,TP1*
X90300000Y-61000000D03*
G04 #@! TD*
G04 #@! TO.C,TP4*
X86100000Y-50800000D03*
G04 #@! TD*
D27*
G04 #@! TO.C,R134*
X22838000Y-10900000D03*
X24362000Y-10900000D03*
G04 #@! TD*
D45*
G04 #@! TO.C,C48*
X35389949Y-77389949D03*
D15*
G36*
X36592031Y-77319238D02*
X35319238Y-78592031D01*
X34187867Y-77460660D01*
X35460660Y-76187867D01*
X36592031Y-77319238D01*
X36592031Y-77319238D01*
G37*
D45*
X33410051Y-75410051D03*
D15*
G36*
X34612133Y-75339340D02*
X33339340Y-76612133D01*
X32207969Y-75480762D01*
X33480762Y-74207969D01*
X34612133Y-75339340D01*
X34612133Y-75339340D01*
G37*
G04 #@! TD*
D20*
G04 #@! TO.C,L33*
X84500000Y-89138000D03*
X84500000Y-90662000D03*
G04 #@! TD*
G04 #@! TO.C,L34*
X67500000Y-89138000D03*
X67500000Y-90662000D03*
G04 #@! TD*
D27*
G04 #@! TO.C,R92*
X81138000Y-89200000D03*
X82662000Y-89200000D03*
G04 #@! TD*
G04 #@! TO.C,R99*
X64138000Y-89200000D03*
X65662000Y-89200000D03*
G04 #@! TD*
G04 #@! TO.C,R66*
X59962000Y-62200000D03*
X58438000Y-62200000D03*
G04 #@! TD*
D20*
G04 #@! TO.C,R47*
X56500000Y-61838000D03*
X56500000Y-63362000D03*
G04 #@! TD*
D46*
G04 #@! TO.C,T2*
X36860000Y-86140000D03*
X41940000Y-86140000D03*
X36860000Y-81060000D03*
D47*
X39400000Y-81060000D03*
D15*
G36*
X39020000Y-82330000D02*
X38570000Y-79790000D01*
X40230000Y-79790000D01*
X39780000Y-82330000D01*
X39020000Y-82330000D01*
X39020000Y-82330000D01*
G37*
D46*
X41940000Y-81060000D03*
D48*
X38002500Y-86330000D03*
X40797500Y-86330000D03*
X38002500Y-83150000D03*
D49*
X39400000Y-83150000D03*
D48*
X40797500Y-83150000D03*
D50*
X37495000Y-82330000D03*
D15*
G36*
X37495000Y-83037107D02*
X36787893Y-82330000D01*
X37495000Y-81622893D01*
X38202107Y-82330000D01*
X37495000Y-83037107D01*
X37495000Y-83037107D01*
G37*
D50*
X41305000Y-82330000D03*
D15*
G36*
X41305000Y-83037107D02*
X40597893Y-82330000D01*
X41305000Y-81622893D01*
X42012107Y-82330000D01*
X41305000Y-83037107D01*
X41305000Y-83037107D01*
G37*
D51*
X39400000Y-80790000D03*
G04 #@! TD*
D52*
G04 #@! TO.C,T1*
X92540000Y-72740000D03*
X92540000Y-67660000D03*
X87460000Y-72740000D03*
X87460000Y-67660000D03*
D53*
X92730000Y-71597500D03*
X92730000Y-68802500D03*
X89550000Y-71597500D03*
X89550000Y-68802500D03*
D50*
X88730000Y-72105000D03*
D15*
G36*
X89437107Y-72105000D02*
X88730000Y-72812107D01*
X88022893Y-72105000D01*
X88730000Y-71397893D01*
X89437107Y-72105000D01*
X89437107Y-72105000D01*
G37*
D50*
X88730000Y-68295000D03*
D15*
G36*
X89437107Y-68295000D02*
X88730000Y-69002107D01*
X88022893Y-68295000D01*
X88730000Y-67587893D01*
X89437107Y-68295000D01*
X89437107Y-68295000D01*
G37*
G04 #@! TD*
D54*
G04 #@! TO.C,X1*
X27400000Y-12850000D03*
X25200000Y-12850000D03*
X25200000Y-14550000D03*
X27400000Y-14550000D03*
G04 #@! TD*
D55*
G04 #@! TO.C,D1*
X40499820Y-88900000D03*
X38300180Y-88900000D03*
G04 #@! TD*
D42*
G04 #@! TO.C,C88*
X81100000Y-35600000D03*
X81100000Y-32800000D03*
G04 #@! TD*
D56*
G04 #@! TO.C,D2*
X1000000Y-39450000D03*
X1000000Y-41950000D03*
G04 #@! TD*
G04 #@! TO.C,D3*
X1000000Y-45650000D03*
X1000000Y-48150000D03*
G04 #@! TD*
G04 #@! TO.C,D4*
X1000000Y-51850000D03*
X1000000Y-54350000D03*
G04 #@! TD*
G04 #@! TO.C,D5*
X1000000Y-58050000D03*
X1000000Y-60550000D03*
G04 #@! TD*
D21*
G04 #@! TO.C,CL3*
X29200000Y-78300000D03*
D57*
X27725000Y-79800000D03*
X30675000Y-79800000D03*
D21*
X29200000Y-81300000D03*
G04 #@! TD*
G04 #@! TO.C,CL5*
X7900000Y-77400000D03*
D57*
X9375000Y-75900000D03*
X6425000Y-75900000D03*
D21*
X7900000Y-74400000D03*
G04 #@! TD*
G04 #@! TO.C,CL6*
X16300000Y-71700000D03*
D58*
X14800000Y-70225000D03*
X14800000Y-73175000D03*
D21*
X13300000Y-71700000D03*
G04 #@! TD*
G04 #@! TO.C,CL7*
X7900000Y-67200000D03*
D57*
X9375000Y-65700000D03*
X6425000Y-65700000D03*
D21*
X7900000Y-64200000D03*
G04 #@! TD*
G04 #@! TO.C,CL8*
X26300000Y-32300000D03*
D57*
X27775000Y-30800000D03*
X24825000Y-30800000D03*
D21*
X26300000Y-29300000D03*
G04 #@! TD*
D27*
G04 #@! TO.C,J5*
X7938000Y-78900000D03*
X9462000Y-78900000D03*
G04 #@! TD*
G04 #@! TO.C,J13*
X9462000Y-68700000D03*
X7938000Y-68700000D03*
G04 #@! TD*
D21*
G04 #@! TO.C,CL10*
X78500000Y-55800000D03*
D58*
X80000000Y-57275000D03*
X80000000Y-54325000D03*
D21*
X81500000Y-55800000D03*
G04 #@! TD*
G04 #@! TO.C,CL4*
X49200000Y-61100000D03*
D57*
X50675000Y-59600000D03*
X47725000Y-59600000D03*
D21*
X49200000Y-58100000D03*
G04 #@! TD*
G04 #@! TO.C,RF4*
X44700000Y-90100000D03*
D58*
X46200000Y-91575000D03*
X46200000Y-88625000D03*
D21*
X47700000Y-90100000D03*
G04 #@! TD*
G04 #@! TO.C,RF5*
X54100000Y-85700000D03*
D57*
X55575000Y-84200000D03*
X52625000Y-84200000D03*
D21*
X54100000Y-82700000D03*
G04 #@! TD*
G04 #@! TO.C,RF6*
X92200000Y-65900000D03*
D57*
X93675000Y-64400000D03*
X90725000Y-64400000D03*
D21*
X92200000Y-62900000D03*
G04 #@! TD*
D27*
G04 #@! TO.C,B55*
X73138000Y-78500000D03*
X74662000Y-78500000D03*
G04 #@! TD*
D21*
G04 #@! TO.C,RF7*
X76600000Y-79800000D03*
D58*
X78100000Y-81275000D03*
X78100000Y-78325000D03*
D21*
X79600000Y-79800000D03*
G04 #@! TD*
D20*
G04 #@! TO.C,J17*
X34700000Y-84738000D03*
X34700000Y-86262000D03*
G04 #@! TD*
G04 #@! TO.C,J18*
X40400000Y-25138000D03*
X40400000Y-26662000D03*
G04 #@! TD*
D27*
G04 #@! TO.C,J19*
X41538000Y-88800000D03*
X43062000Y-88800000D03*
G04 #@! TD*
G04 #@! TO.C,J23*
X80638000Y-40600000D03*
X82162000Y-40600000D03*
G04 #@! TD*
G04 #@! TO.C,J25*
X24362000Y-32900000D03*
X22838000Y-32900000D03*
G04 #@! TD*
G04 #@! TO.C,J27*
X80638000Y-46600000D03*
X82162000Y-46600000D03*
G04 #@! TD*
G04 #@! TO.C,J28*
X88962000Y-55400000D03*
X87438000Y-55400000D03*
G04 #@! TD*
G04 #@! TO.C,J29*
X84362000Y-53700000D03*
X82838000Y-53700000D03*
G04 #@! TD*
G04 #@! TO.C,J30*
X75662000Y-53700000D03*
X74138000Y-53700000D03*
G04 #@! TD*
D59*
G04 #@! TO.C,DB6*
X47000000Y-79100000D03*
X49540000Y-82410000D03*
G04 #@! TD*
D60*
G04 #@! TO.C,X2*
X24760000Y-79990000D03*
X24760000Y-78410000D03*
X22240000Y-78410000D03*
X22240000Y-79990000D03*
G04 #@! TD*
M02*
