G04 #@! TF.GenerationSoftware,KiCad,Pcbnew,5.0.2-bee76a0~70~ubuntu16.04.1*
G04 #@! TF.CreationDate,2019-02-23T19:03:37-08:00*
G04 #@! TF.ProjectId,hermeslite,6865726d-6573-46c6-9974-652e6b696361,2.0-build8*
G04 #@! TF.SameCoordinates,PX42c1d80PY2625a00*
G04 #@! TF.FileFunction,Paste,Bot*
G04 #@! TF.FilePolarity,Positive*
%FSLAX46Y46*%
G04 Gerber Fmt 4.6, Leading zero omitted, Abs format (unit mm)*
G04 Created by KiCad (PCBNEW 5.0.2-bee76a0~70~ubuntu16.04.1) date Sat 23 Feb 2019 07:03:37 PM PST*
%MOMM*%
%LPD*%
G01*
G04 APERTURE LIST*
%ADD10R,0.635000X1.143000*%
%ADD11C,1.600000*%
%ADD12C,0.100000*%
%ADD13R,1.143000X0.635000*%
%ADD14R,0.889000X1.397000*%
%ADD15R,1.600000X1.800000*%
%ADD16R,1.397000X0.889000*%
%ADD17C,0.635000*%
%ADD18R,1.050000X0.600000*%
%ADD19R,1.778000X2.794000*%
%ADD20R,0.600000X2.200000*%
%ADD21R,0.900000X0.800000*%
%ADD22R,0.800000X0.900000*%
%ADD23R,2.000000X2.100000*%
%ADD24R,1.000000X1.000000*%
%ADD25R,0.400000X1.000000*%
G04 APERTURE END LIST*
D10*
G04 #@! TO.C,C91*
X79462000Y-45700000D03*
X77938000Y-45700000D03*
G04 #@! TD*
D11*
G04 #@! TO.C,R123*
X68489949Y-32510051D03*
D12*
G36*
X68419238Y-31307969D02*
X69692031Y-32580762D01*
X68560660Y-33712133D01*
X67287867Y-32439340D01*
X68419238Y-31307969D01*
X68419238Y-31307969D01*
G37*
D11*
X66510051Y-34489949D03*
D12*
G36*
X66439340Y-33287867D02*
X67712133Y-34560660D01*
X66580762Y-35692031D01*
X65307969Y-34419238D01*
X66439340Y-33287867D01*
X66439340Y-33287867D01*
G37*
G04 #@! TD*
D13*
G04 #@! TO.C,R119*
X74300000Y-56838000D03*
X74300000Y-58362000D03*
G04 #@! TD*
G04 #@! TO.C,R118*
X83000000Y-57638000D03*
X83000000Y-59162000D03*
G04 #@! TD*
G04 #@! TO.C,R117*
X87600000Y-57638000D03*
X87600000Y-59162000D03*
G04 #@! TD*
D10*
G04 #@! TO.C,R115*
X77938000Y-47300000D03*
X79462000Y-47300000D03*
G04 #@! TD*
G04 #@! TO.C,R112*
X77938000Y-44100000D03*
X79462000Y-44100000D03*
G04 #@! TD*
G04 #@! TO.C,R109*
X77938000Y-42500000D03*
X79462000Y-42500000D03*
G04 #@! TD*
G04 #@! TO.C,R108*
X80638000Y-41300000D03*
X82162000Y-41300000D03*
G04 #@! TD*
G04 #@! TO.C,R104*
X77938000Y-39300000D03*
X79462000Y-39300000D03*
G04 #@! TD*
G04 #@! TO.C,C90*
X79462000Y-40900000D03*
X77938000Y-40900000D03*
G04 #@! TD*
D13*
G04 #@! TO.C,R107*
X74500000Y-42788000D03*
X74500000Y-44312000D03*
G04 #@! TD*
G04 #@! TO.C,R106*
X74500000Y-41362000D03*
X74500000Y-39838000D03*
G04 #@! TD*
G04 #@! TO.C,R53*
X87900000Y-49062000D03*
X87900000Y-47538000D03*
G04 #@! TD*
G04 #@! TO.C,R48*
X89600000Y-47762000D03*
X89600000Y-46238000D03*
G04 #@! TD*
G04 #@! TO.C,B111*
X74000000Y-72438000D03*
X74000000Y-73962000D03*
G04 #@! TD*
D14*
G04 #@! TO.C,C147*
X63652500Y-74800000D03*
X61747500Y-74800000D03*
G04 #@! TD*
G04 #@! TO.C,C146*
X63652500Y-65800000D03*
X61747500Y-65800000D03*
G04 #@! TD*
G04 #@! TO.C,C145*
X63652500Y-72800000D03*
X61747500Y-72800000D03*
G04 #@! TD*
G04 #@! TO.C,C144*
X63652500Y-63800000D03*
X61747500Y-63800000D03*
G04 #@! TD*
D10*
G04 #@! TO.C,R68*
X68162000Y-62500000D03*
X66638000Y-62500000D03*
G04 #@! TD*
G04 #@! TO.C,R67*
X70862000Y-62500000D03*
X69338000Y-62500000D03*
G04 #@! TD*
G04 #@! TO.C,B80*
X69462000Y-66600000D03*
X67938000Y-66600000D03*
G04 #@! TD*
D15*
G04 #@! TO.C,C43*
X85400000Y-34700000D03*
X88200000Y-34700000D03*
G04 #@! TD*
D14*
G04 #@! TO.C,C34*
X81047500Y-27700000D03*
X82952500Y-27700000D03*
G04 #@! TD*
G04 #@! TO.C,R61*
X87352500Y-70700000D03*
X85447500Y-70700000D03*
G04 #@! TD*
D16*
G04 #@! TO.C,R54*
X86300000Y-65652500D03*
X86300000Y-63747500D03*
G04 #@! TD*
D13*
G04 #@! TO.C,B81*
X54700000Y-83938000D03*
X54700000Y-85462000D03*
G04 #@! TD*
D16*
G04 #@! TO.C,L11*
X53600000Y-89552500D03*
X53600000Y-87647500D03*
G04 #@! TD*
D14*
G04 #@! TO.C,L10*
X47347500Y-91500000D03*
X49252500Y-91500000D03*
G04 #@! TD*
D16*
G04 #@! TO.C,C57*
X51300000Y-86252500D03*
X51300000Y-84347500D03*
G04 #@! TD*
D14*
G04 #@! TO.C,C56*
X51147500Y-91500000D03*
X53052500Y-91500000D03*
G04 #@! TD*
D16*
G04 #@! TO.C,C55*
X47600000Y-87652500D03*
X47600000Y-85747500D03*
G04 #@! TD*
G04 #@! TO.C,C54*
X51300000Y-87647500D03*
X51300000Y-89552500D03*
G04 #@! TD*
D14*
G04 #@! TO.C,C53*
X49252500Y-89300000D03*
X47347500Y-89300000D03*
G04 #@! TD*
D10*
G04 #@! TO.C,B98*
X75862000Y-81000000D03*
X74338000Y-81000000D03*
G04 #@! TD*
D16*
G04 #@! TO.C,R96*
X63100000Y-84952500D03*
X63100000Y-83047500D03*
G04 #@! TD*
G04 #@! TO.C,R93*
X74900000Y-83047500D03*
X74900000Y-84952500D03*
G04 #@! TD*
D14*
G04 #@! TO.C,C149*
X59152500Y-88100000D03*
X57247500Y-88100000D03*
G04 #@! TD*
D16*
G04 #@! TO.C,C148*
X76800000Y-84652500D03*
X76800000Y-82747500D03*
G04 #@! TD*
D13*
G04 #@! TO.C,B107*
X64700000Y-89462000D03*
X64700000Y-87938000D03*
G04 #@! TD*
G04 #@! TO.C,B104*
X81700000Y-89462000D03*
X81700000Y-87938000D03*
G04 #@! TD*
G04 #@! TO.C,R65*
X68100000Y-72762000D03*
X68100000Y-71238000D03*
G04 #@! TD*
G04 #@! TO.C,R55*
X69900000Y-69562000D03*
X69900000Y-68038000D03*
G04 #@! TD*
D10*
G04 #@! TO.C,R49*
X68138000Y-64200000D03*
X69662000Y-64200000D03*
G04 #@! TD*
D13*
G04 #@! TO.C,B75*
X69900000Y-72162000D03*
X69900000Y-70638000D03*
G04 #@! TD*
D10*
G04 #@! TO.C,J22*
X45438000Y-60600000D03*
X46962000Y-60600000D03*
G04 #@! TD*
D13*
G04 #@! TO.C,J9*
X50000000Y-73762000D03*
X50000000Y-72238000D03*
G04 #@! TD*
D17*
G04 #@! TO.C,B74*
X35061185Y-75038815D03*
D12*
G36*
X35240790Y-75667433D02*
X34432567Y-74859210D01*
X34881580Y-74410197D01*
X35689803Y-75218420D01*
X35240790Y-75667433D01*
X35240790Y-75667433D01*
G37*
D17*
X36138815Y-73961185D03*
D12*
G36*
X36318420Y-74589803D02*
X35510197Y-73781580D01*
X35959210Y-73332567D01*
X36767433Y-74140790D01*
X36318420Y-74589803D01*
X36318420Y-74589803D01*
G37*
G04 #@! TD*
D17*
G04 #@! TO.C,B72*
X36261185Y-76238815D03*
D12*
G36*
X36440790Y-76867433D02*
X35632567Y-76059210D01*
X36081580Y-75610197D01*
X36889803Y-76418420D01*
X36440790Y-76867433D01*
X36440790Y-76867433D01*
G37*
D17*
X37338815Y-75161185D03*
D12*
G36*
X37518420Y-75789803D02*
X36710197Y-74981580D01*
X37159210Y-74532567D01*
X37967433Y-75340790D01*
X37518420Y-75789803D01*
X37518420Y-75789803D01*
G37*
G04 #@! TD*
D10*
G04 #@! TO.C,FB20*
X50838000Y-63800000D03*
X52362000Y-63800000D03*
G04 #@! TD*
G04 #@! TO.C,FB19*
X49562000Y-70900000D03*
X48038000Y-70900000D03*
G04 #@! TD*
G04 #@! TO.C,FB18*
X49862000Y-75900000D03*
X48338000Y-75900000D03*
G04 #@! TD*
G04 #@! TO.C,FB17*
X45038000Y-76500000D03*
X46562000Y-76500000D03*
G04 #@! TD*
G04 #@! TO.C,C70*
X48038000Y-65400000D03*
X49562000Y-65400000D03*
G04 #@! TD*
G04 #@! TO.C,C69*
X46762000Y-63800000D03*
X45238000Y-63800000D03*
G04 #@! TD*
D13*
G04 #@! TO.C,C67*
X39300000Y-65238000D03*
X39300000Y-66762000D03*
G04 #@! TD*
D10*
G04 #@! TO.C,C66*
X48038000Y-69300000D03*
X49562000Y-69300000D03*
G04 #@! TD*
G04 #@! TO.C,C65*
X46562000Y-70900000D03*
X45038000Y-70900000D03*
G04 #@! TD*
D13*
G04 #@! TO.C,C64*
X46700000Y-74862000D03*
X46700000Y-73338000D03*
G04 #@! TD*
G04 #@! TO.C,C63*
X45100000Y-74862000D03*
X45100000Y-73338000D03*
G04 #@! TD*
G04 #@! TO.C,C62*
X43500000Y-76338000D03*
X43500000Y-77862000D03*
G04 #@! TD*
G04 #@! TO.C,C61*
X41600000Y-76338000D03*
X41600000Y-77862000D03*
G04 #@! TD*
G04 #@! TO.C,C60*
X39500000Y-76338000D03*
X39500000Y-77862000D03*
G04 #@! TD*
D10*
G04 #@! TO.C,B92*
X46762000Y-65400000D03*
X45238000Y-65400000D03*
G04 #@! TD*
G04 #@! TO.C,B91*
X46762000Y-67400000D03*
X45238000Y-67400000D03*
G04 #@! TD*
D13*
G04 #@! TO.C,B90*
X37600000Y-65238000D03*
X37600000Y-66762000D03*
G04 #@! TD*
D10*
G04 #@! TO.C,B89*
X46562000Y-69300000D03*
X45038000Y-69300000D03*
G04 #@! TD*
D13*
G04 #@! TO.C,B88*
X43500000Y-74862000D03*
X43500000Y-73338000D03*
G04 #@! TD*
G04 #@! TO.C,B87*
X41600000Y-74862000D03*
X41600000Y-73338000D03*
G04 #@! TD*
G04 #@! TO.C,B86*
X39500000Y-74862000D03*
X39500000Y-73338000D03*
G04 #@! TD*
D18*
G04 #@! TO.C,U17*
X58300000Y-32500000D03*
X58300000Y-33450000D03*
X58300000Y-34400000D03*
X55600000Y-34400000D03*
X55600000Y-32500000D03*
G04 #@! TD*
D13*
G04 #@! TO.C,C26*
X60000000Y-32438000D03*
X60000000Y-33962000D03*
G04 #@! TD*
G04 #@! TO.C,C25*
X53900000Y-32538000D03*
X53900000Y-34062000D03*
G04 #@! TD*
D10*
G04 #@! TO.C,B116*
X55562000Y-35900000D03*
X54038000Y-35900000D03*
G04 #@! TD*
D13*
G04 #@! TO.C,FB30*
X38000000Y-29262000D03*
X38000000Y-27738000D03*
G04 #@! TD*
D10*
G04 #@! TO.C,FB28*
X21262000Y-39300000D03*
X19738000Y-39300000D03*
G04 #@! TD*
D14*
G04 #@! TO.C,C24*
X47652500Y-25800000D03*
X45747500Y-25800000D03*
G04 #@! TD*
G04 #@! TO.C,C18*
X66447500Y-26400000D03*
X68352500Y-26400000D03*
G04 #@! TD*
D16*
G04 #@! TO.C,C15*
X56400000Y-16052500D03*
X56400000Y-14147500D03*
G04 #@! TD*
D13*
G04 #@! TO.C,R44*
X23200000Y-59162000D03*
X23200000Y-57638000D03*
G04 #@! TD*
G04 #@! TO.C,R43*
X21100000Y-59162000D03*
X21100000Y-57638000D03*
G04 #@! TD*
G04 #@! TO.C,R10*
X23800000Y-74662000D03*
X23800000Y-73138000D03*
G04 #@! TD*
D10*
G04 #@! TO.C,R36*
X20162000Y-80400000D03*
X18638000Y-80400000D03*
G04 #@! TD*
G04 #@! TO.C,J3*
X20162000Y-78700000D03*
X18638000Y-78700000D03*
G04 #@! TD*
G04 #@! TO.C,FB26*
X20662000Y-66500000D03*
X19138000Y-66500000D03*
G04 #@! TD*
G04 #@! TO.C,FB25*
X20662000Y-64900000D03*
X19138000Y-64900000D03*
G04 #@! TD*
G04 #@! TO.C,FB24*
X20662000Y-68100000D03*
X19138000Y-68100000D03*
G04 #@! TD*
D13*
G04 #@! TO.C,FB23*
X22100000Y-73138000D03*
X22100000Y-74662000D03*
G04 #@! TD*
D10*
G04 #@! TO.C,FB13*
X28262000Y-73100000D03*
X26738000Y-73100000D03*
G04 #@! TD*
G04 #@! TO.C,FB12*
X19462000Y-72400000D03*
X17938000Y-72400000D03*
G04 #@! TD*
G04 #@! TO.C,C41*
X19462000Y-74100000D03*
X17938000Y-74100000D03*
G04 #@! TD*
G04 #@! TO.C,C12*
X21838000Y-68100000D03*
X23362000Y-68100000D03*
G04 #@! TD*
D13*
G04 #@! TO.C,B115*
X25400000Y-73162000D03*
X25400000Y-71638000D03*
G04 #@! TD*
D10*
G04 #@! TO.C,B114*
X21838000Y-69700000D03*
X23362000Y-69700000D03*
G04 #@! TD*
D13*
G04 #@! TO.C,B113*
X26300000Y-66938000D03*
X26300000Y-68462000D03*
G04 #@! TD*
D10*
G04 #@! TO.C,B56*
X20162000Y-75900000D03*
X18638000Y-75900000D03*
G04 #@! TD*
G04 #@! TO.C,C45*
X17962000Y-66500000D03*
X16438000Y-66500000D03*
G04 #@! TD*
G04 #@! TO.C,C44*
X28262000Y-71400000D03*
X26738000Y-71400000D03*
G04 #@! TD*
G04 #@! TO.C,B64*
X17962000Y-68100000D03*
X16438000Y-68100000D03*
G04 #@! TD*
G04 #@! TO.C,B62*
X28262000Y-69800000D03*
X26738000Y-69800000D03*
G04 #@! TD*
G04 #@! TO.C,B61*
X21838000Y-71600000D03*
X23362000Y-71600000D03*
G04 #@! TD*
G04 #@! TO.C,B60*
X20662000Y-69700000D03*
X19138000Y-69700000D03*
G04 #@! TD*
G04 #@! TO.C,B59*
X23462000Y-66100000D03*
X21938000Y-66100000D03*
G04 #@! TD*
G04 #@! TO.C,R78*
X14162000Y-88300000D03*
X12638000Y-88300000D03*
G04 #@! TD*
D13*
G04 #@! TO.C,R77*
X12100000Y-81638000D03*
X12100000Y-83162000D03*
G04 #@! TD*
D10*
G04 #@! TO.C,R76*
X12438000Y-64600000D03*
X13962000Y-64600000D03*
G04 #@! TD*
G04 #@! TO.C,R75*
X12438000Y-62900000D03*
X13962000Y-62900000D03*
G04 #@! TD*
G04 #@! TO.C,C72*
X15738000Y-88300000D03*
X17262000Y-88300000D03*
G04 #@! TD*
G04 #@! TO.C,C71*
X11862000Y-80200000D03*
X10338000Y-80200000D03*
G04 #@! TD*
D13*
G04 #@! TO.C,R74*
X1300000Y-57638000D03*
X1300000Y-59162000D03*
G04 #@! TD*
G04 #@! TO.C,R73*
X1300000Y-51438000D03*
X1300000Y-52962000D03*
G04 #@! TD*
G04 #@! TO.C,R72*
X1300000Y-45238000D03*
X1300000Y-46762000D03*
G04 #@! TD*
G04 #@! TO.C,R71*
X1300000Y-39038000D03*
X1300000Y-40562000D03*
G04 #@! TD*
D10*
G04 #@! TO.C,FB8*
X51962000Y-36500000D03*
X50438000Y-36500000D03*
G04 #@! TD*
G04 #@! TO.C,FB7*
X26938000Y-52000000D03*
X28462000Y-52000000D03*
G04 #@! TD*
D13*
G04 #@! TO.C,FB6*
X47700000Y-48938000D03*
X47700000Y-50462000D03*
G04 #@! TD*
G04 #@! TO.C,FB5*
X23600000Y-38962000D03*
X23600000Y-37438000D03*
G04 #@! TD*
D10*
G04 #@! TO.C,FB4*
X48462000Y-32900000D03*
X46938000Y-32900000D03*
G04 #@! TD*
G04 #@! TO.C,FB3*
X28762000Y-57800000D03*
X27238000Y-57800000D03*
G04 #@! TD*
G04 #@! TO.C,FB2*
X42538000Y-52500000D03*
X44062000Y-52500000D03*
G04 #@! TD*
G04 #@! TO.C,FB1*
X27362000Y-33200000D03*
X25838000Y-33200000D03*
G04 #@! TD*
G04 #@! TO.C,C9*
X35462000Y-51200000D03*
X33938000Y-51200000D03*
G04 #@! TD*
D13*
G04 #@! TO.C,C8*
X31300000Y-40762000D03*
X31300000Y-39238000D03*
G04 #@! TD*
G04 #@! TO.C,C7*
X43300000Y-40762000D03*
X43300000Y-39238000D03*
G04 #@! TD*
D10*
G04 #@! TO.C,C6*
X39838000Y-52500000D03*
X41362000Y-52500000D03*
G04 #@! TD*
D19*
G04 #@! TO.C,C5*
X40878000Y-40300000D03*
X37322000Y-40300000D03*
G04 #@! TD*
D13*
G04 #@! TO.C,C4*
X50000000Y-35062000D03*
X50000000Y-33538000D03*
G04 #@! TD*
G04 #@! TO.C,C3*
X26500000Y-53338000D03*
X26500000Y-54862000D03*
G04 #@! TD*
G04 #@! TO.C,C2*
X46100000Y-50462000D03*
X46100000Y-48938000D03*
G04 #@! TD*
G04 #@! TO.C,C1*
X24000000Y-36362000D03*
X24000000Y-34838000D03*
G04 #@! TD*
D20*
G04 #@! TO.C,U1*
X51795000Y-53800000D03*
X51795000Y-48600000D03*
X53065000Y-53800000D03*
X53065000Y-48600000D03*
X54335000Y-53800000D03*
X54335000Y-48600000D03*
X55605000Y-53800000D03*
X55605000Y-48600000D03*
G04 #@! TD*
D13*
G04 #@! TO.C,R7*
X44100000Y-50462000D03*
X44100000Y-48938000D03*
G04 #@! TD*
G04 #@! TO.C,R6*
X44500000Y-47762000D03*
X44500000Y-46238000D03*
G04 #@! TD*
G04 #@! TO.C,R5*
X29600000Y-44838000D03*
X29600000Y-46362000D03*
G04 #@! TD*
D10*
G04 #@! TO.C,R4*
X58438000Y-39600000D03*
X59962000Y-39600000D03*
G04 #@! TD*
D13*
G04 #@! TO.C,R3*
X59400000Y-54638000D03*
X59400000Y-56162000D03*
G04 #@! TD*
G04 #@! TO.C,R2*
X57600000Y-54638000D03*
X57600000Y-56162000D03*
G04 #@! TD*
D10*
G04 #@! TO.C,R1*
X52962000Y-46400000D03*
X51438000Y-46400000D03*
G04 #@! TD*
D13*
G04 #@! TO.C,B35*
X46200000Y-46462000D03*
X46200000Y-44938000D03*
G04 #@! TD*
D10*
G04 #@! TO.C,B34*
X48862000Y-41600000D03*
X47338000Y-41600000D03*
G04 #@! TD*
D13*
G04 #@! TO.C,B33*
X40200000Y-33538000D03*
X40200000Y-35062000D03*
G04 #@! TD*
G04 #@! TO.C,B32*
X43300000Y-33538000D03*
X43300000Y-35062000D03*
G04 #@! TD*
G04 #@! TO.C,B31*
X32500000Y-33538000D03*
X32500000Y-35062000D03*
G04 #@! TD*
G04 #@! TO.C,B30*
X35800000Y-33538000D03*
X35800000Y-35062000D03*
G04 #@! TD*
D10*
G04 #@! TO.C,B29*
X25338000Y-40400000D03*
X26862000Y-40400000D03*
G04 #@! TD*
D13*
G04 #@! TO.C,B28*
X28000000Y-46338000D03*
X28000000Y-47862000D03*
G04 #@! TD*
G04 #@! TO.C,B13*
X34400000Y-57262000D03*
X34400000Y-55738000D03*
G04 #@! TD*
G04 #@! TO.C,B12*
X32800000Y-57262000D03*
X32800000Y-55738000D03*
G04 #@! TD*
D10*
G04 #@! TO.C,B11*
X49062000Y-36500000D03*
X47538000Y-36500000D03*
G04 #@! TD*
D13*
G04 #@! TO.C,B10*
X28200000Y-53338000D03*
X28200000Y-54862000D03*
G04 #@! TD*
D10*
G04 #@! TO.C,B9*
X48962000Y-53100000D03*
X47438000Y-53100000D03*
G04 #@! TD*
G04 #@! TO.C,B8*
X25338000Y-36500000D03*
X26862000Y-36500000D03*
G04 #@! TD*
D13*
G04 #@! TO.C,B7*
X44300000Y-57162000D03*
X44300000Y-55638000D03*
G04 #@! TD*
G04 #@! TO.C,B6*
X38900000Y-57062000D03*
X38900000Y-55538000D03*
G04 #@! TD*
D10*
G04 #@! TO.C,B5*
X46938000Y-34500000D03*
X48462000Y-34500000D03*
G04 #@! TD*
G04 #@! TO.C,B4*
X27262000Y-56200000D03*
X25738000Y-56200000D03*
G04 #@! TD*
G04 #@! TO.C,B3*
X48962000Y-54700000D03*
X47438000Y-54700000D03*
G04 #@! TD*
G04 #@! TO.C,B2*
X25838000Y-34800000D03*
X27362000Y-34800000D03*
G04 #@! TD*
G04 #@! TO.C,B27*
X42638000Y-54400000D03*
X44162000Y-54400000D03*
G04 #@! TD*
G04 #@! TO.C,B26*
X40862000Y-54400000D03*
X39338000Y-54400000D03*
G04 #@! TD*
G04 #@! TO.C,B25*
X36362000Y-54400000D03*
X34838000Y-54400000D03*
G04 #@! TD*
G04 #@! TO.C,B24*
X31538000Y-54400000D03*
X33062000Y-54400000D03*
G04 #@! TD*
D13*
G04 #@! TO.C,B23*
X28000000Y-50462000D03*
X28000000Y-48938000D03*
G04 #@! TD*
D10*
G04 #@! TO.C,B22*
X25338000Y-38800000D03*
X26862000Y-38800000D03*
G04 #@! TD*
D13*
G04 #@! TO.C,B21*
X28000000Y-42338000D03*
X28000000Y-43862000D03*
G04 #@! TD*
G04 #@! TO.C,B20*
X30200000Y-35338000D03*
X30200000Y-36862000D03*
G04 #@! TD*
D10*
G04 #@! TO.C,B19*
X41962000Y-36200000D03*
X40438000Y-36200000D03*
G04 #@! TD*
G04 #@! TO.C,B18*
X33838000Y-36200000D03*
X35362000Y-36200000D03*
G04 #@! TD*
D13*
G04 #@! TO.C,B17*
X45400000Y-35062000D03*
X45400000Y-33538000D03*
G04 #@! TD*
G04 #@! TO.C,B16*
X46200000Y-37962000D03*
X46200000Y-36438000D03*
G04 #@! TD*
G04 #@! TO.C,B15*
X46100000Y-39738000D03*
X46100000Y-41262000D03*
G04 #@! TD*
G04 #@! TO.C,B14*
X46200000Y-51638000D03*
X46200000Y-53162000D03*
G04 #@! TD*
D10*
G04 #@! TO.C,R29*
X39462000Y-24900000D03*
X37938000Y-24900000D03*
G04 #@! TD*
G04 #@! TO.C,R28*
X37638000Y-20200000D03*
X39162000Y-20200000D03*
G04 #@! TD*
G04 #@! TO.C,R27*
X39238000Y-16300000D03*
X40762000Y-16300000D03*
G04 #@! TD*
G04 #@! TO.C,R26*
X40762000Y-17900000D03*
X39238000Y-17900000D03*
G04 #@! TD*
G04 #@! TO.C,R25*
X39162000Y-21800000D03*
X37638000Y-21800000D03*
G04 #@! TD*
D13*
G04 #@! TO.C,R24*
X36500000Y-24638000D03*
X36500000Y-26162000D03*
G04 #@! TD*
G04 #@! TO.C,R23*
X35500000Y-29562000D03*
X35500000Y-28038000D03*
G04 #@! TD*
G04 #@! TO.C,R22*
X34700000Y-24638000D03*
X34700000Y-26162000D03*
G04 #@! TD*
G04 #@! TO.C,R21*
X33800000Y-29562000D03*
X33800000Y-28038000D03*
G04 #@! TD*
D10*
G04 #@! TO.C,R20*
X40762000Y-14700000D03*
X39238000Y-14700000D03*
G04 #@! TD*
D13*
G04 #@! TO.C,C35*
X39700000Y-26238000D03*
X39700000Y-27762000D03*
G04 #@! TD*
G04 #@! TO.C,R34*
X23400000Y-14262000D03*
X23400000Y-12738000D03*
G04 #@! TD*
G04 #@! TO.C,B39*
X20200000Y-30338000D03*
X20200000Y-31862000D03*
G04 #@! TD*
G04 #@! TO.C,B38*
X17700000Y-30338000D03*
X17700000Y-31862000D03*
G04 #@! TD*
G04 #@! TO.C,B37*
X17700000Y-15262000D03*
X17700000Y-13738000D03*
G04 #@! TD*
G04 #@! TO.C,B36*
X20200000Y-15262000D03*
X20200000Y-13738000D03*
G04 #@! TD*
D10*
G04 #@! TO.C,FB10*
X42438000Y-10700000D03*
X43962000Y-10700000D03*
G04 #@! TD*
D13*
G04 #@! TO.C,C39*
X40400000Y-10388000D03*
X40400000Y-11912000D03*
G04 #@! TD*
D10*
G04 #@! TO.C,B41*
X24538000Y-22400000D03*
X26062000Y-22400000D03*
G04 #@! TD*
G04 #@! TO.C,B40*
X24538000Y-20300000D03*
X26062000Y-20300000D03*
G04 #@! TD*
D13*
G04 #@! TO.C,B54*
X28800000Y-17138000D03*
X28800000Y-18662000D03*
G04 #@! TD*
G04 #@! TO.C,B53*
X30500000Y-17138000D03*
X30500000Y-18662000D03*
G04 #@! TD*
D10*
G04 #@! TO.C,B52*
X33462000Y-19600000D03*
X31938000Y-19600000D03*
G04 #@! TD*
D13*
G04 #@! TO.C,B51*
X25600000Y-27562000D03*
X25600000Y-26038000D03*
G04 #@! TD*
G04 #@! TO.C,B50*
X32200000Y-16538000D03*
X32200000Y-18062000D03*
G04 #@! TD*
D10*
G04 #@! TO.C,B49*
X33662000Y-21200000D03*
X32138000Y-21200000D03*
G04 #@! TD*
G04 #@! TO.C,B48*
X33662000Y-22900000D03*
X32138000Y-22900000D03*
G04 #@! TD*
D13*
G04 #@! TO.C,B47*
X31500000Y-25762000D03*
X31500000Y-24238000D03*
G04 #@! TD*
G04 #@! TO.C,B46*
X29600000Y-25762000D03*
X29600000Y-24238000D03*
G04 #@! TD*
G04 #@! TO.C,B45*
X27700000Y-25762000D03*
X27700000Y-24238000D03*
G04 #@! TD*
G04 #@! TO.C,B44*
X27200000Y-17138000D03*
X27200000Y-18662000D03*
G04 #@! TD*
D10*
G04 #@! TO.C,B43*
X24538000Y-24100000D03*
X26062000Y-24100000D03*
G04 #@! TD*
D13*
G04 #@! TO.C,B42*
X25600000Y-17138000D03*
X25600000Y-18662000D03*
G04 #@! TD*
D10*
G04 #@! TO.C,C68*
X48038000Y-67100000D03*
X49562000Y-67100000D03*
G04 #@! TD*
D14*
G04 #@! TO.C,C84*
X69952500Y-86500000D03*
X68047500Y-86500000D03*
G04 #@! TD*
D16*
G04 #@! TO.C,C85*
X61200000Y-81247500D03*
X61200000Y-83152500D03*
G04 #@! TD*
D14*
G04 #@! TO.C,R60*
X64152500Y-79600000D03*
X62247500Y-79600000D03*
G04 #@! TD*
D21*
G04 #@! TO.C,Q2*
X94500000Y-60650000D03*
X96500000Y-59700000D03*
X94500000Y-58750000D03*
G04 #@! TD*
D22*
G04 #@! TO.C,D7*
X60950000Y-86500000D03*
X60000000Y-84500000D03*
X59050000Y-86500000D03*
G04 #@! TD*
D21*
G04 #@! TO.C,D6*
X78400000Y-84650000D03*
X80400000Y-83700000D03*
X78400000Y-82750000D03*
G04 #@! TD*
D10*
G04 #@! TO.C,B119*
X82138000Y-66400000D03*
X83662000Y-66400000D03*
G04 #@! TD*
G04 #@! TO.C,B120*
X81938000Y-74400000D03*
X83462000Y-74400000D03*
G04 #@! TD*
G04 #@! TO.C,B122*
X67362000Y-28700000D03*
X65838000Y-28700000D03*
G04 #@! TD*
D14*
G04 #@! TO.C,C87*
X40452500Y-83200000D03*
X38547500Y-83200000D03*
G04 #@! TD*
D21*
G04 #@! TO.C,D8*
X12600000Y-86550000D03*
X14600000Y-85600000D03*
X12600000Y-84650000D03*
G04 #@! TD*
D23*
G04 #@! TO.C,D12*
X58920000Y-6900000D03*
X62880000Y-6900000D03*
G04 #@! TD*
D10*
G04 #@! TO.C,FB16*
X76938000Y-28700000D03*
X78462000Y-28700000D03*
G04 #@! TD*
G04 #@! TO.C,R126*
X91438000Y-60400000D03*
X92962000Y-60400000D03*
G04 #@! TD*
D24*
G04 #@! TO.C,TP9*
X39500000Y-62000000D03*
G04 #@! TD*
D25*
G04 #@! TO.C,U14*
X65300000Y-30200000D03*
X65950000Y-30200000D03*
X66600000Y-30200000D03*
X66600000Y-32150000D03*
X65950000Y-32150000D03*
X65300000Y-32150000D03*
G04 #@! TD*
D13*
G04 #@! TO.C,FB21*
X93500000Y-34238000D03*
X93500000Y-35762000D03*
G04 #@! TD*
D10*
G04 #@! TO.C,R130*
X91838000Y-36900000D03*
X93362000Y-36900000D03*
G04 #@! TD*
G04 #@! TO.C,R131*
X25062000Y-29800000D03*
X23538000Y-29800000D03*
G04 #@! TD*
D13*
G04 #@! TO.C,R132*
X23900000Y-27562000D03*
X23900000Y-26038000D03*
G04 #@! TD*
D10*
G04 #@! TO.C,R133*
X7662000Y-33900000D03*
X6138000Y-33900000D03*
G04 #@! TD*
D13*
G04 #@! TO.C,R135*
X48400000Y-72938000D03*
X48400000Y-74462000D03*
G04 #@! TD*
G04 #@! TO.C,J20*
X71400000Y-32938000D03*
X71400000Y-34462000D03*
G04 #@! TD*
G04 #@! TO.C,R70*
X56500000Y-63362000D03*
X56500000Y-61838000D03*
G04 #@! TD*
D10*
G04 #@! TO.C,R127*
X58438000Y-62200000D03*
X59962000Y-62200000D03*
G04 #@! TD*
G04 #@! TO.C,J32*
X67962000Y-88500000D03*
X66438000Y-88500000D03*
G04 #@! TD*
G04 #@! TO.C,J31*
X84962000Y-88500000D03*
X83438000Y-88500000D03*
G04 #@! TD*
D13*
G04 #@! TO.C,FB22*
X74500000Y-45438000D03*
X74500000Y-46962000D03*
G04 #@! TD*
D10*
G04 #@! TO.C,R95*
X81138000Y-64400000D03*
X82662000Y-64400000D03*
G04 #@! TD*
D13*
G04 #@! TO.C,R101*
X80600000Y-70538000D03*
X80600000Y-72062000D03*
G04 #@! TD*
D16*
G04 #@! TO.C,C92*
X69000000Y-81052500D03*
X69000000Y-79147500D03*
G04 #@! TD*
D10*
G04 #@! TO.C,J24*
X54362000Y-10100000D03*
X52838000Y-10100000D03*
G04 #@! TD*
G04 #@! TO.C,R8*
X51262000Y-10100000D03*
X49738000Y-10100000D03*
G04 #@! TD*
D13*
G04 #@! TO.C,R9*
X84700000Y-29262000D03*
X84700000Y-27738000D03*
G04 #@! TD*
G04 #@! TO.C,J1*
X90500000Y-77738000D03*
X90500000Y-79262000D03*
G04 #@! TD*
D10*
G04 #@! TO.C,J14*
X91062000Y-87000000D03*
X89538000Y-87000000D03*
G04 #@! TD*
D13*
G04 #@! TO.C,J15*
X83300000Y-23562000D03*
X83300000Y-22038000D03*
G04 #@! TD*
D10*
G04 #@! TO.C,J21*
X91838000Y-77200000D03*
X93362000Y-77200000D03*
G04 #@! TD*
G04 #@! TO.C,J26*
X80638000Y-45300000D03*
X82162000Y-45300000D03*
G04 #@! TD*
M02*
