G04 #@! TF.GenerationSoftware,KiCad,Pcbnew,5.0.2-bee76a0~70~ubuntu16.04.1*
G04 #@! TF.CreationDate,2019-12-01T18:12:19-08:00*
G04 #@! TF.ProjectId,smallio,736d616c-6c69-46f2-9e6b-696361645f70,1.0*
G04 #@! TF.SameCoordinates,PX8a1ee30PY3b71490*
G04 #@! TF.FileFunction,Copper,L1,Top*
G04 #@! TF.FilePolarity,Positive*
%FSLAX46Y46*%
G04 Gerber Fmt 4.6, Leading zero omitted, Abs format (unit mm)*
G04 Created by KiCad (PCBNEW 5.0.2-bee76a0~70~ubuntu16.04.1) date Sun 01 Dec 2019 06:12:19 PM PST*
%MOMM*%
%LPD*%
G01*
G04 APERTURE LIST*
G04 #@! TA.AperFunction,SMDPad,CuDef*
%ADD10R,4.000000X1.600000*%
G04 #@! TD*
G04 #@! TA.AperFunction,ComponentPad*
%ADD11R,1.850000X1.850000*%
G04 #@! TD*
G04 #@! TA.AperFunction,ComponentPad*
%ADD12C,1.850000*%
G04 #@! TD*
G04 #@! TA.AperFunction,SMDPad,CuDef*
%ADD13R,1.750000X0.450000*%
G04 #@! TD*
G04 #@! TA.AperFunction,ViaPad*
%ADD14C,0.800000*%
G04 #@! TD*
G04 #@! TA.AperFunction,Conductor*
%ADD15C,0.250000*%
G04 #@! TD*
G04 #@! TA.AperFunction,Conductor*
%ADD16C,0.400000*%
G04 #@! TD*
G04 #@! TA.AperFunction,Conductor*
%ADD17C,0.254000*%
G04 #@! TD*
G04 APERTURE END LIST*
D10*
G04 #@! TO.P,DB1,1*
G04 #@! TO.N,Net-(DB1-Pad1)*
X16370000Y-11270000D03*
G04 #@! TO.P,DB1,3*
G04 #@! TO.N,Net-(DB1-Pad3)*
X16370000Y-8730000D03*
G04 #@! TO.P,DB1,5*
G04 #@! TO.N,Net-(DB1-Pad5)*
X16370000Y-6190000D03*
G04 #@! TO.P,DB1,7*
G04 #@! TO.N,Net-(DB1-Pad7)*
X16370000Y-3650000D03*
G04 #@! TO.P,DB1,9*
G04 #@! TO.N,GNDS*
X16370000Y-1110000D03*
G04 #@! TD*
D11*
G04 #@! TO.P,DB17,1*
G04 #@! TO.N,VCC*
X1270000Y-1270000D03*
D12*
G04 #@! TO.P,DB17,2*
G04 #@! TO.N,Net-(DB17-Pad2)*
X1270000Y-3810000D03*
G04 #@! TO.P,DB17,3*
G04 #@! TO.N,Net-(DB17-Pad3)*
X1270000Y-6350000D03*
G04 #@! TO.P,DB17,4*
G04 #@! TO.N,GNDS*
X1270000Y-8890000D03*
G04 #@! TD*
D13*
G04 #@! TO.P,U1,1*
G04 #@! TO.N,Net-(DB17-Pad2)*
X4605001Y-3870001D03*
G04 #@! TO.P,U1,2*
G04 #@! TO.N,Net-(DB17-Pad3)*
X4605001Y-4520001D03*
G04 #@! TO.P,U1,3*
G04 #@! TO.N,GNDS*
X4605001Y-5170001D03*
G04 #@! TO.P,U1,4*
X4605001Y-5820001D03*
G04 #@! TO.P,U1,5*
G04 #@! TO.N,Net-(J1-Pad1)*
X4605001Y-6470001D03*
G04 #@! TO.P,U1,6*
G04 #@! TO.N,VCC*
X4605001Y-7120001D03*
G04 #@! TO.P,U1,7*
G04 #@! TO.N,Net-(U1-Pad7)*
X4605001Y-7770001D03*
G04 #@! TO.P,U1,8*
G04 #@! TO.N,Net-(U1-Pad8)*
X4605001Y-8420001D03*
G04 #@! TO.P,U1,9*
G04 #@! TO.N,GNDS*
X4605001Y-9070001D03*
G04 #@! TO.P,U1,10*
G04 #@! TO.N,Net-(U1-Pad10)*
X4605001Y-9720001D03*
G04 #@! TO.P,U1,11*
G04 #@! TO.N,Net-(U1-Pad11)*
X11805001Y-9720001D03*
G04 #@! TO.P,U1,12*
G04 #@! TO.N,Net-(DB1-Pad1)*
X11805001Y-9070001D03*
G04 #@! TO.P,U1,13*
G04 #@! TO.N,Net-(DB1-Pad2)*
X11805001Y-8420001D03*
G04 #@! TO.P,U1,14*
G04 #@! TO.N,Net-(DB1-Pad3)*
X11805001Y-7770001D03*
G04 #@! TO.P,U1,15*
G04 #@! TO.N,Net-(DB1-Pad4)*
X11805001Y-7120001D03*
G04 #@! TO.P,U1,16*
G04 #@! TO.N,Net-(DB1-Pad5)*
X11805001Y-6470001D03*
G04 #@! TO.P,U1,17*
G04 #@! TO.N,Net-(DB1-Pad6)*
X11805001Y-5820001D03*
G04 #@! TO.P,U1,18*
G04 #@! TO.N,Net-(DB1-Pad7)*
X11805001Y-5170001D03*
G04 #@! TO.P,U1,19*
G04 #@! TO.N,Net-(DB1-Pad8)*
X11805001Y-4520001D03*
G04 #@! TO.P,U1,20*
G04 #@! TO.N,VCC*
X11805001Y-3870001D03*
G04 #@! TD*
D14*
G04 #@! TO.N,VCC*
X6870000Y-6170000D03*
X9970000Y-3470000D03*
G04 #@! TO.N,GNDS*
X7070000Y-4070000D03*
X11770000Y-2570000D03*
G04 #@! TO.N,Net-(J1-Pad1)*
X3070000Y-6470000D03*
G04 #@! TO.N,Net-(DB1-Pad2)*
X13070000Y-11270000D03*
G04 #@! TO.N,Net-(DB1-Pad4)*
X9970000Y-7070000D03*
G04 #@! TO.N,Net-(DB1-Pad6)*
X9970000Y-5470000D03*
G04 #@! TO.N,Net-(DB1-Pad8)*
X13470000Y-3070000D03*
G04 #@! TD*
D15*
G04 #@! TO.N,VCC*
X5919999Y-7120001D02*
X6870000Y-6170000D01*
X4605001Y-7120001D02*
X5919999Y-7120001D01*
X10370001Y-3870001D02*
X9970000Y-3470000D01*
X11805001Y-3870001D02*
X10370001Y-3870001D01*
G04 #@! TO.N,GNDS*
X1450001Y-9070001D02*
X1270000Y-8890000D01*
X4605001Y-9070001D02*
X1450001Y-9070001D01*
X4605001Y-5170001D02*
X6169999Y-5170001D01*
X5730001Y-5820001D02*
X6170000Y-5380002D01*
X4605001Y-5820001D02*
X5730001Y-5820001D01*
X6170000Y-5380002D02*
X6170000Y-5170000D01*
D16*
X13230000Y-1110000D02*
X16370000Y-1110000D01*
X11770000Y-2570000D02*
X13230000Y-1110000D01*
D15*
X6169999Y-5170001D02*
X7070000Y-4270000D01*
X7070000Y-4270000D02*
X7070000Y-4070000D01*
G04 #@! TO.N,Net-(J1-Pad1)*
X3070001Y-6470001D02*
X3070000Y-6470000D01*
X4605001Y-6470001D02*
X3070001Y-6470001D01*
G04 #@! TO.N,Net-(DB1-Pad1)*
X12970001Y-9070001D02*
X15170000Y-11270000D01*
X11805001Y-9070001D02*
X12970001Y-9070001D01*
X15170000Y-11270000D02*
X16470000Y-11270000D01*
G04 #@! TO.N,Net-(DB1-Pad3)*
X11805001Y-7770001D02*
X12930002Y-7770000D01*
X12930002Y-7770000D02*
X13870000Y-7770000D01*
X13870000Y-7770000D02*
X14770000Y-8670000D01*
X14770000Y-8670000D02*
X16370000Y-8670000D01*
G04 #@! TO.N,Net-(DB1-Pad5)*
X11805001Y-6470001D02*
X16069999Y-6470001D01*
X16069999Y-6470001D02*
X16370000Y-6170000D01*
G04 #@! TO.N,Net-(DB1-Pad7)*
X11805001Y-5170001D02*
X12930002Y-5170000D01*
X12930002Y-5170000D02*
X13470000Y-5170000D01*
X13470000Y-5170000D02*
X14970000Y-3670000D01*
X14970000Y-3670000D02*
X16370000Y-3670000D01*
G04 #@! TO.N,Net-(DB1-Pad2)*
X11805001Y-8420001D02*
X10319999Y-8420001D01*
X10319999Y-8420001D02*
X10070000Y-8670000D01*
X10070000Y-8670000D02*
X10070000Y-10170000D01*
X10070000Y-10170000D02*
X10070000Y-10270000D01*
X10070000Y-10270000D02*
X11070000Y-11270000D01*
X11070000Y-11270000D02*
X13070000Y-11270000D01*
G04 #@! TO.N,Net-(DB1-Pad4)*
X10020001Y-7120001D02*
X9970000Y-7070000D01*
X11805001Y-7120001D02*
X10020001Y-7120001D01*
G04 #@! TO.N,Net-(DB1-Pad6)*
X10320001Y-5820001D02*
X9970000Y-5470000D01*
X11805001Y-5820001D02*
X10320001Y-5820001D01*
G04 #@! TO.N,Net-(DB1-Pad8)*
X13470000Y-3980002D02*
X13470000Y-3070000D01*
X12930001Y-4520001D02*
X13470000Y-3980002D01*
X11805001Y-4520001D02*
X12930001Y-4520001D01*
G04 #@! TO.N,Net-(DB17-Pad2)*
X4545000Y-3810000D02*
X4605001Y-3870001D01*
X1270000Y-3810000D02*
X4545000Y-3810000D01*
G04 #@! TO.N,Net-(DB17-Pad3)*
X3099999Y-4520001D02*
X1270000Y-6350000D01*
X4605001Y-4520001D02*
X3099999Y-4520001D01*
G04 #@! TD*
D17*
G04 #@! TO.N,GNDS*
G36*
X13735000Y-824250D02*
X13893750Y-983000D01*
X16243000Y-983000D01*
X16243000Y-963000D01*
X16497000Y-963000D01*
X16497000Y-983000D01*
X16517000Y-983000D01*
X16517000Y-1237000D01*
X16497000Y-1237000D01*
X16497000Y-1257000D01*
X16243000Y-1257000D01*
X16243000Y-1237000D01*
X13893750Y-1237000D01*
X13735000Y-1395750D01*
X13735000Y-2036309D01*
X13746591Y-2064292D01*
X13675874Y-2035000D01*
X13264126Y-2035000D01*
X12883720Y-2192569D01*
X12592569Y-2483720D01*
X12435000Y-2864126D01*
X12435000Y-2997561D01*
X10930001Y-2997561D01*
X10897281Y-3004069D01*
X10847431Y-2883720D01*
X10556280Y-2592569D01*
X10175874Y-2435000D01*
X9764126Y-2435000D01*
X9383720Y-2592569D01*
X9092569Y-2883720D01*
X8935000Y-3264126D01*
X8935000Y-3675874D01*
X9092569Y-4056280D01*
X9383720Y-4347431D01*
X9679628Y-4470000D01*
X9383720Y-4592569D01*
X9092569Y-4883720D01*
X8935000Y-5264126D01*
X8935000Y-5675874D01*
X9092569Y-6056280D01*
X9306289Y-6270000D01*
X9092569Y-6483720D01*
X8935000Y-6864126D01*
X8935000Y-7275874D01*
X9092569Y-7656280D01*
X9383720Y-7947431D01*
X9619928Y-8045271D01*
X9585530Y-8079669D01*
X9522071Y-8122071D01*
X9354096Y-8373464D01*
X9310000Y-8595149D01*
X9310000Y-8595153D01*
X9295112Y-8670000D01*
X9310000Y-8744847D01*
X9310001Y-10095144D01*
X9310000Y-10095149D01*
X9310000Y-10195153D01*
X9295112Y-10270000D01*
X9310000Y-10344847D01*
X9310000Y-10344852D01*
X9354096Y-10566537D01*
X9522071Y-10817929D01*
X9585529Y-10860330D01*
X10479671Y-11754473D01*
X10500069Y-11785000D01*
X655000Y-11785000D01*
X655000Y-10326009D01*
X1023368Y-10461325D01*
X1643461Y-10436097D01*
X2099179Y-10247332D01*
X2188651Y-9988256D01*
X1270000Y-9069605D01*
X1255858Y-9083748D01*
X1076253Y-8904143D01*
X1090395Y-8890000D01*
X1449605Y-8890000D01*
X2368256Y-9808651D01*
X2627332Y-9719179D01*
X2841325Y-9136632D01*
X2816097Y-8516539D01*
X2627332Y-8060821D01*
X2368256Y-7971349D01*
X1449605Y-8890000D01*
X1090395Y-8890000D01*
X1076253Y-8875858D01*
X1255858Y-8696253D01*
X1270000Y-8710395D01*
X2188651Y-7791744D01*
X2148247Y-7674750D01*
X2153669Y-7672504D01*
X2481231Y-7344942D01*
X2483720Y-7347431D01*
X2864126Y-7505000D01*
X3090518Y-7505000D01*
X3082561Y-7545001D01*
X3082561Y-7995001D01*
X3102452Y-8095001D01*
X3082561Y-8195001D01*
X3082561Y-8645001D01*
X3096499Y-8715074D01*
X3095001Y-8718691D01*
X3095001Y-8798751D01*
X3117648Y-8821398D01*
X3131844Y-8892766D01*
X3250270Y-9070001D01*
X3131844Y-9247236D01*
X3117648Y-9318604D01*
X3095001Y-9341251D01*
X3095001Y-9421311D01*
X3096499Y-9424928D01*
X3082561Y-9495001D01*
X3082561Y-9945001D01*
X3131844Y-10192766D01*
X3272192Y-10402810D01*
X3482236Y-10543158D01*
X3730001Y-10592441D01*
X5480001Y-10592441D01*
X5727766Y-10543158D01*
X5937810Y-10402810D01*
X6078158Y-10192766D01*
X6127441Y-9945001D01*
X6127441Y-9495001D01*
X6113503Y-9424928D01*
X6115001Y-9421311D01*
X6115001Y-9341251D01*
X6092354Y-9318604D01*
X6078158Y-9247236D01*
X5959732Y-9070001D01*
X6078158Y-8892766D01*
X6092354Y-8821398D01*
X6115001Y-8798751D01*
X6115001Y-8718691D01*
X6113503Y-8715074D01*
X6127441Y-8645001D01*
X6127441Y-8195001D01*
X6107550Y-8095001D01*
X6127441Y-7995001D01*
X6127441Y-7853627D01*
X6216536Y-7835905D01*
X6467928Y-7667930D01*
X6510330Y-7604472D01*
X6909802Y-7205000D01*
X7075874Y-7205000D01*
X7456280Y-7047431D01*
X7747431Y-6756280D01*
X7905000Y-6375874D01*
X7905000Y-5964126D01*
X7747431Y-5583720D01*
X7456280Y-5292569D01*
X7075874Y-5135000D01*
X6664126Y-5135000D01*
X6283720Y-5292569D01*
X6115001Y-5461288D01*
X6115001Y-5441251D01*
X6095598Y-5421848D01*
X6018328Y-5235302D01*
X5957046Y-5174021D01*
X6078158Y-4992766D01*
X6092354Y-4921398D01*
X6115001Y-4898751D01*
X6115001Y-4818691D01*
X6113503Y-4815074D01*
X6127441Y-4745001D01*
X6127441Y-4295001D01*
X6107550Y-4195001D01*
X6127441Y-4095001D01*
X6127441Y-3645001D01*
X6078158Y-3397236D01*
X5937810Y-3187192D01*
X5727766Y-3046844D01*
X5480001Y-2997561D01*
X3730001Y-2997561D01*
X3482236Y-3046844D01*
X3477513Y-3050000D01*
X2643729Y-3050000D01*
X2592504Y-2926331D01*
X2452695Y-2786522D01*
X2652809Y-2652809D01*
X2793157Y-2442765D01*
X2842440Y-2195000D01*
X2842440Y-655000D01*
X13735000Y-655000D01*
X13735000Y-824250D01*
X13735000Y-824250D01*
G37*
X13735000Y-824250D02*
X13893750Y-983000D01*
X16243000Y-983000D01*
X16243000Y-963000D01*
X16497000Y-963000D01*
X16497000Y-983000D01*
X16517000Y-983000D01*
X16517000Y-1237000D01*
X16497000Y-1237000D01*
X16497000Y-1257000D01*
X16243000Y-1257000D01*
X16243000Y-1237000D01*
X13893750Y-1237000D01*
X13735000Y-1395750D01*
X13735000Y-2036309D01*
X13746591Y-2064292D01*
X13675874Y-2035000D01*
X13264126Y-2035000D01*
X12883720Y-2192569D01*
X12592569Y-2483720D01*
X12435000Y-2864126D01*
X12435000Y-2997561D01*
X10930001Y-2997561D01*
X10897281Y-3004069D01*
X10847431Y-2883720D01*
X10556280Y-2592569D01*
X10175874Y-2435000D01*
X9764126Y-2435000D01*
X9383720Y-2592569D01*
X9092569Y-2883720D01*
X8935000Y-3264126D01*
X8935000Y-3675874D01*
X9092569Y-4056280D01*
X9383720Y-4347431D01*
X9679628Y-4470000D01*
X9383720Y-4592569D01*
X9092569Y-4883720D01*
X8935000Y-5264126D01*
X8935000Y-5675874D01*
X9092569Y-6056280D01*
X9306289Y-6270000D01*
X9092569Y-6483720D01*
X8935000Y-6864126D01*
X8935000Y-7275874D01*
X9092569Y-7656280D01*
X9383720Y-7947431D01*
X9619928Y-8045271D01*
X9585530Y-8079669D01*
X9522071Y-8122071D01*
X9354096Y-8373464D01*
X9310000Y-8595149D01*
X9310000Y-8595153D01*
X9295112Y-8670000D01*
X9310000Y-8744847D01*
X9310001Y-10095144D01*
X9310000Y-10095149D01*
X9310000Y-10195153D01*
X9295112Y-10270000D01*
X9310000Y-10344847D01*
X9310000Y-10344852D01*
X9354096Y-10566537D01*
X9522071Y-10817929D01*
X9585529Y-10860330D01*
X10479671Y-11754473D01*
X10500069Y-11785000D01*
X655000Y-11785000D01*
X655000Y-10326009D01*
X1023368Y-10461325D01*
X1643461Y-10436097D01*
X2099179Y-10247332D01*
X2188651Y-9988256D01*
X1270000Y-9069605D01*
X1255858Y-9083748D01*
X1076253Y-8904143D01*
X1090395Y-8890000D01*
X1449605Y-8890000D01*
X2368256Y-9808651D01*
X2627332Y-9719179D01*
X2841325Y-9136632D01*
X2816097Y-8516539D01*
X2627332Y-8060821D01*
X2368256Y-7971349D01*
X1449605Y-8890000D01*
X1090395Y-8890000D01*
X1076253Y-8875858D01*
X1255858Y-8696253D01*
X1270000Y-8710395D01*
X2188651Y-7791744D01*
X2148247Y-7674750D01*
X2153669Y-7672504D01*
X2481231Y-7344942D01*
X2483720Y-7347431D01*
X2864126Y-7505000D01*
X3090518Y-7505000D01*
X3082561Y-7545001D01*
X3082561Y-7995001D01*
X3102452Y-8095001D01*
X3082561Y-8195001D01*
X3082561Y-8645001D01*
X3096499Y-8715074D01*
X3095001Y-8718691D01*
X3095001Y-8798751D01*
X3117648Y-8821398D01*
X3131844Y-8892766D01*
X3250270Y-9070001D01*
X3131844Y-9247236D01*
X3117648Y-9318604D01*
X3095001Y-9341251D01*
X3095001Y-9421311D01*
X3096499Y-9424928D01*
X3082561Y-9495001D01*
X3082561Y-9945001D01*
X3131844Y-10192766D01*
X3272192Y-10402810D01*
X3482236Y-10543158D01*
X3730001Y-10592441D01*
X5480001Y-10592441D01*
X5727766Y-10543158D01*
X5937810Y-10402810D01*
X6078158Y-10192766D01*
X6127441Y-9945001D01*
X6127441Y-9495001D01*
X6113503Y-9424928D01*
X6115001Y-9421311D01*
X6115001Y-9341251D01*
X6092354Y-9318604D01*
X6078158Y-9247236D01*
X5959732Y-9070001D01*
X6078158Y-8892766D01*
X6092354Y-8821398D01*
X6115001Y-8798751D01*
X6115001Y-8718691D01*
X6113503Y-8715074D01*
X6127441Y-8645001D01*
X6127441Y-8195001D01*
X6107550Y-8095001D01*
X6127441Y-7995001D01*
X6127441Y-7853627D01*
X6216536Y-7835905D01*
X6467928Y-7667930D01*
X6510330Y-7604472D01*
X6909802Y-7205000D01*
X7075874Y-7205000D01*
X7456280Y-7047431D01*
X7747431Y-6756280D01*
X7905000Y-6375874D01*
X7905000Y-5964126D01*
X7747431Y-5583720D01*
X7456280Y-5292569D01*
X7075874Y-5135000D01*
X6664126Y-5135000D01*
X6283720Y-5292569D01*
X6115001Y-5461288D01*
X6115001Y-5441251D01*
X6095598Y-5421848D01*
X6018328Y-5235302D01*
X5957046Y-5174021D01*
X6078158Y-4992766D01*
X6092354Y-4921398D01*
X6115001Y-4898751D01*
X6115001Y-4818691D01*
X6113503Y-4815074D01*
X6127441Y-4745001D01*
X6127441Y-4295001D01*
X6107550Y-4195001D01*
X6127441Y-4095001D01*
X6127441Y-3645001D01*
X6078158Y-3397236D01*
X5937810Y-3187192D01*
X5727766Y-3046844D01*
X5480001Y-2997561D01*
X3730001Y-2997561D01*
X3482236Y-3046844D01*
X3477513Y-3050000D01*
X2643729Y-3050000D01*
X2592504Y-2926331D01*
X2452695Y-2786522D01*
X2652809Y-2652809D01*
X2793157Y-2442765D01*
X2842440Y-2195000D01*
X2842440Y-655000D01*
X13735000Y-655000D01*
X13735000Y-824250D01*
G04 #@! TD*
M02*
