G04 #@! TF.GenerationSoftware,KiCad,Pcbnew,5.0.2-bee76a0~70~ubuntu16.04.1*
G04 #@! TF.CreationDate,2019-12-01T18:12:19-08:00*
G04 #@! TF.ProjectId,smallio,736d616c-6c69-46f2-9e6b-696361645f70,1.0*
G04 #@! TF.SameCoordinates,PX8a1ee30PY3b71490*
G04 #@! TF.FileFunction,Soldermask,Top*
G04 #@! TF.FilePolarity,Negative*
%FSLAX46Y46*%
G04 Gerber Fmt 4.6, Leading zero omitted, Abs format (unit mm)*
G04 Created by KiCad (PCBNEW 5.0.2-bee76a0~70~ubuntu16.04.1) date Sun 01 Dec 2019 06:12:19 PM PST*
%MOMM*%
%LPD*%
G01*
G04 APERTURE LIST*
%ADD10C,0.100000*%
G04 APERTURE END LIST*
D10*
G36*
X18370000Y-12070000D02*
X14370000Y-12070000D01*
X14370000Y-10470000D01*
X18370000Y-10470000D01*
X18370000Y-12070000D01*
X18370000Y-12070000D01*
G37*
G36*
X12680001Y-9945001D02*
X10930001Y-9945001D01*
X10930001Y-3645001D01*
X12680001Y-3645001D01*
X12680001Y-9945001D01*
X12680001Y-9945001D01*
G37*
G36*
X5480001Y-9945001D02*
X3730001Y-9945001D01*
X3730001Y-3645001D01*
X5480001Y-3645001D01*
X5480001Y-9945001D01*
X5480001Y-9945001D01*
G37*
G36*
X1539811Y-8000546D02*
X1539814Y-8000547D01*
X1539813Y-8000547D01*
X1708152Y-8070275D01*
X1708153Y-8070276D01*
X1859656Y-8171507D01*
X1988493Y-8300344D01*
X1988495Y-8300347D01*
X2089725Y-8451848D01*
X2143657Y-8582052D01*
X2159454Y-8620189D01*
X2195000Y-8798894D01*
X2195000Y-8981106D01*
X2159454Y-9159811D01*
X2159453Y-9159813D01*
X2089725Y-9328152D01*
X2089724Y-9328153D01*
X1988493Y-9479656D01*
X1859656Y-9608493D01*
X1859653Y-9608495D01*
X1708152Y-9709725D01*
X1577948Y-9763657D01*
X1539811Y-9779454D01*
X1361106Y-9815000D01*
X1178894Y-9815000D01*
X1000189Y-9779454D01*
X962052Y-9763657D01*
X831848Y-9709725D01*
X680347Y-9608495D01*
X680344Y-9608493D01*
X551507Y-9479656D01*
X450276Y-9328153D01*
X450275Y-9328152D01*
X380547Y-9159813D01*
X380546Y-9159811D01*
X345000Y-8981106D01*
X345000Y-8798894D01*
X380546Y-8620189D01*
X396343Y-8582052D01*
X450275Y-8451848D01*
X551505Y-8300347D01*
X551507Y-8300344D01*
X680344Y-8171507D01*
X831847Y-8070276D01*
X831848Y-8070275D01*
X1000187Y-8000547D01*
X1000186Y-8000547D01*
X1000189Y-8000546D01*
X1178894Y-7965000D01*
X1361106Y-7965000D01*
X1539811Y-8000546D01*
X1539811Y-8000546D01*
G37*
G36*
X18370000Y-9530000D02*
X14370000Y-9530000D01*
X14370000Y-7930000D01*
X18370000Y-7930000D01*
X18370000Y-9530000D01*
X18370000Y-9530000D01*
G37*
G36*
X1539811Y-5460546D02*
X1539814Y-5460547D01*
X1539813Y-5460547D01*
X1708152Y-5530275D01*
X1708153Y-5530276D01*
X1859656Y-5631507D01*
X1988493Y-5760344D01*
X1988495Y-5760347D01*
X2089725Y-5911848D01*
X2143657Y-6042052D01*
X2159454Y-6080189D01*
X2195000Y-6258894D01*
X2195000Y-6441106D01*
X2159454Y-6619811D01*
X2159453Y-6619813D01*
X2089725Y-6788152D01*
X1989860Y-6937611D01*
X1988493Y-6939656D01*
X1859656Y-7068493D01*
X1859653Y-7068495D01*
X1708152Y-7169725D01*
X1577948Y-7223657D01*
X1539811Y-7239454D01*
X1361106Y-7275000D01*
X1178894Y-7275000D01*
X1000189Y-7239454D01*
X962052Y-7223657D01*
X831848Y-7169725D01*
X680347Y-7068495D01*
X680344Y-7068493D01*
X551507Y-6939656D01*
X550140Y-6937611D01*
X450275Y-6788152D01*
X380547Y-6619813D01*
X380546Y-6619811D01*
X345000Y-6441106D01*
X345000Y-6258894D01*
X380546Y-6080189D01*
X396343Y-6042052D01*
X450275Y-5911848D01*
X551505Y-5760347D01*
X551507Y-5760344D01*
X680344Y-5631507D01*
X831847Y-5530276D01*
X831848Y-5530275D01*
X1000187Y-5460547D01*
X1000186Y-5460547D01*
X1000189Y-5460546D01*
X1178894Y-5425000D01*
X1361106Y-5425000D01*
X1539811Y-5460546D01*
X1539811Y-5460546D01*
G37*
G36*
X18370000Y-6990000D02*
X14370000Y-6990000D01*
X14370000Y-5390000D01*
X18370000Y-5390000D01*
X18370000Y-6990000D01*
X18370000Y-6990000D01*
G37*
G36*
X1539811Y-2920546D02*
X1539814Y-2920547D01*
X1539813Y-2920547D01*
X1708152Y-2990275D01*
X1708153Y-2990276D01*
X1859656Y-3091507D01*
X1988493Y-3220344D01*
X1988495Y-3220347D01*
X2089725Y-3371848D01*
X2143657Y-3502052D01*
X2159454Y-3540189D01*
X2195000Y-3718894D01*
X2195000Y-3901106D01*
X2159454Y-4079811D01*
X2159453Y-4079813D01*
X2089725Y-4248152D01*
X2089724Y-4248153D01*
X1988493Y-4399656D01*
X1859656Y-4528493D01*
X1859653Y-4528495D01*
X1708152Y-4629725D01*
X1577948Y-4683657D01*
X1539811Y-4699454D01*
X1361106Y-4735000D01*
X1178894Y-4735000D01*
X1000189Y-4699454D01*
X962052Y-4683657D01*
X831848Y-4629725D01*
X680347Y-4528495D01*
X680344Y-4528493D01*
X551507Y-4399656D01*
X450276Y-4248153D01*
X450275Y-4248152D01*
X380547Y-4079813D01*
X380546Y-4079811D01*
X345000Y-3901106D01*
X345000Y-3718894D01*
X380546Y-3540189D01*
X396343Y-3502052D01*
X450275Y-3371848D01*
X551505Y-3220347D01*
X551507Y-3220344D01*
X680344Y-3091507D01*
X831847Y-2990276D01*
X831848Y-2990275D01*
X1000187Y-2920547D01*
X1000186Y-2920547D01*
X1000189Y-2920546D01*
X1178894Y-2885000D01*
X1361106Y-2885000D01*
X1539811Y-2920546D01*
X1539811Y-2920546D01*
G37*
G36*
X18370000Y-4450000D02*
X14370000Y-4450000D01*
X14370000Y-2850000D01*
X18370000Y-2850000D01*
X18370000Y-4450000D01*
X18370000Y-4450000D01*
G37*
G36*
X2195000Y-2195000D02*
X345000Y-2195000D01*
X345000Y-345000D01*
X2195000Y-345000D01*
X2195000Y-2195000D01*
X2195000Y-2195000D01*
G37*
G36*
X18370000Y-1910000D02*
X14370000Y-1910000D01*
X14370000Y-310000D01*
X18370000Y-310000D01*
X18370000Y-1910000D01*
X18370000Y-1910000D01*
G37*
M02*
