G04 #@! TF.GenerationSoftware,KiCad,Pcbnew,5.0.2-bee76a0~70~ubuntu16.04.1*
G04 #@! TF.CreationDate,2019-12-01T18:12:19-08:00*
G04 #@! TF.ProjectId,smallio,736d616c-6c69-46f2-9e6b-696361645f70,1.0*
G04 #@! TF.SameCoordinates,PX8a1ee30PY3b71490*
G04 #@! TF.FileFunction,Copper,L2,Bot*
G04 #@! TF.FilePolarity,Positive*
%FSLAX46Y46*%
G04 Gerber Fmt 4.6, Leading zero omitted, Abs format (unit mm)*
G04 Created by KiCad (PCBNEW 5.0.2-bee76a0~70~ubuntu16.04.1) date Sun 01 Dec 2019 06:12:19 PM PST*
%MOMM*%
%LPD*%
G01*
G04 APERTURE LIST*
G04 #@! TA.AperFunction,SMDPad,CuDef*
%ADD10R,1.397000X0.889000*%
G04 #@! TD*
G04 #@! TA.AperFunction,SMDPad,CuDef*
%ADD11R,4.000000X1.600000*%
G04 #@! TD*
G04 #@! TA.AperFunction,ComponentPad*
%ADD12R,1.850000X1.850000*%
G04 #@! TD*
G04 #@! TA.AperFunction,ComponentPad*
%ADD13C,1.850000*%
G04 #@! TD*
G04 #@! TA.AperFunction,ViaPad*
%ADD14C,0.800000*%
G04 #@! TD*
G04 #@! TA.AperFunction,Conductor*
%ADD15C,0.400000*%
G04 #@! TD*
G04 #@! TA.AperFunction,Conductor*
%ADD16C,0.700000*%
G04 #@! TD*
G04 #@! TA.AperFunction,Conductor*
%ADD17C,0.250000*%
G04 #@! TD*
G04 #@! TA.AperFunction,Conductor*
%ADD18C,0.254000*%
G04 #@! TD*
G04 APERTURE END LIST*
D10*
G04 #@! TO.P,C1,1*
G04 #@! TO.N,GNDS*
X8370000Y-4322500D03*
G04 #@! TO.P,C1,2*
G04 #@! TO.N,VCC*
X8370000Y-2417500D03*
G04 #@! TD*
D11*
G04 #@! TO.P,DB1,2*
G04 #@! TO.N,Net-(DB1-Pad2)*
X16370000Y-11270000D03*
G04 #@! TO.P,DB1,4*
G04 #@! TO.N,Net-(DB1-Pad4)*
X16370000Y-8730000D03*
G04 #@! TO.P,DB1,6*
G04 #@! TO.N,Net-(DB1-Pad6)*
X16370000Y-6190000D03*
G04 #@! TO.P,DB1,8*
G04 #@! TO.N,Net-(DB1-Pad8)*
X16370000Y-3650000D03*
G04 #@! TO.P,DB1,10*
G04 #@! TO.N,VCC*
X16370000Y-1110000D03*
G04 #@! TD*
D12*
G04 #@! TO.P,DB17,1*
G04 #@! TO.N,VCC*
X1270000Y-1270000D03*
D13*
G04 #@! TO.P,DB17,2*
G04 #@! TO.N,Net-(DB17-Pad2)*
X1270000Y-3810000D03*
G04 #@! TO.P,DB17,3*
G04 #@! TO.N,Net-(DB17-Pad3)*
X1270000Y-6350000D03*
G04 #@! TO.P,DB17,4*
G04 #@! TO.N,GNDS*
X1270000Y-8890000D03*
G04 #@! TD*
D10*
G04 #@! TO.P,J1,2*
G04 #@! TO.N,GNDS*
X4370000Y-9122500D03*
G04 #@! TO.P,J1,1*
G04 #@! TO.N,Net-(J1-Pad1)*
X4370000Y-7217500D03*
G04 #@! TD*
G04 #@! TO.P,J2,1*
G04 #@! TO.N,VCC*
X4370000Y-3817500D03*
G04 #@! TO.P,J2,2*
G04 #@! TO.N,Net-(J1-Pad1)*
X4370000Y-5722500D03*
G04 #@! TD*
D14*
G04 #@! TO.N,VCC*
X6870000Y-6170000D03*
X9970000Y-3470000D03*
G04 #@! TO.N,GNDS*
X7070000Y-4070000D03*
X11770000Y-2570000D03*
G04 #@! TO.N,Net-(J1-Pad1)*
X3070000Y-6470000D03*
G04 #@! TO.N,Net-(DB1-Pad2)*
X13070000Y-11270000D03*
G04 #@! TO.N,Net-(DB1-Pad4)*
X9970000Y-7070000D03*
G04 #@! TO.N,Net-(DB1-Pad6)*
X9970000Y-5470000D03*
G04 #@! TO.N,Net-(DB1-Pad8)*
X13470000Y-3070000D03*
G04 #@! TD*
D15*
G04 #@! TO.N,VCC*
X6970000Y-6270000D02*
X6870000Y-6170000D01*
D16*
X1430000Y-1110000D02*
X1270000Y-1270000D01*
X16370000Y-1110000D02*
X1430000Y-1110000D01*
X4370000Y-3817500D02*
X4370000Y-2673000D01*
X4370000Y-2673000D02*
X4370000Y-1170000D01*
X8370000Y-2417500D02*
X8370000Y-1273000D01*
X8370000Y-1273000D02*
X8370000Y-1170000D01*
X8917500Y-2417500D02*
X8370000Y-2417500D01*
X9970000Y-3470000D02*
X8917500Y-2417500D01*
D17*
X5318500Y-3817500D02*
X6870000Y-5369000D01*
X4370000Y-3817500D02*
X5318500Y-3817500D01*
X6870000Y-5369000D02*
X6870000Y-5470000D01*
X6870000Y-5470000D02*
X6870000Y-6170000D01*
D15*
G04 #@! TO.N,GNDS*
X1502500Y-9122500D02*
X1270000Y-8890000D01*
X4370000Y-9122500D02*
X1502500Y-9122500D01*
X4470000Y-9022500D02*
X4370000Y-9122500D01*
X8370000Y-4322500D02*
X9022500Y-4322500D01*
X9022500Y-4322500D02*
X9170000Y-4470000D01*
X9170000Y-4470000D02*
X11070000Y-4470000D01*
X11070000Y-4470000D02*
X11670000Y-3870000D01*
X11770000Y-3770000D02*
X11770000Y-2570000D01*
X11670000Y-3870000D02*
X11770000Y-3770000D01*
X8370000Y-4322500D02*
X7322500Y-4322500D01*
X7322500Y-4322500D02*
X7070000Y-4070000D01*
G04 #@! TO.N,Net-(J1-Pad1)*
X3622500Y-6470000D02*
X4370000Y-5722500D01*
X3622500Y-6470000D02*
X4370000Y-7217500D01*
X3070000Y-6470000D02*
X3622500Y-6470000D01*
D17*
G04 #@! TO.N,Net-(DB1-Pad2)*
X13070000Y-11270000D02*
X16170000Y-11270000D01*
X16170000Y-11270000D02*
X16270000Y-11170000D01*
G04 #@! TO.N,Net-(DB1-Pad4)*
X14120000Y-8730000D02*
X16370000Y-8730000D01*
X12195685Y-8730000D02*
X14120000Y-8730000D01*
X10535685Y-7070000D02*
X12195685Y-8730000D01*
X9970000Y-7070000D02*
X10535685Y-7070000D01*
G04 #@! TO.N,Net-(DB1-Pad6)*
X10690000Y-6190000D02*
X16370000Y-6190000D01*
X9970000Y-5470000D02*
X10690000Y-6190000D01*
G04 #@! TO.N,Net-(DB1-Pad8)*
X15790000Y-3070000D02*
X16370000Y-3650000D01*
X13470000Y-3070000D02*
X15790000Y-3070000D01*
G04 #@! TD*
D18*
G04 #@! TO.N,GNDS*
G36*
X7024060Y-2862000D02*
X7073343Y-3109765D01*
X7213691Y-3319809D01*
X7284411Y-3367063D01*
X7133173Y-3518302D01*
X7036500Y-3751691D01*
X7036500Y-4036750D01*
X7195250Y-4195500D01*
X8243000Y-4195500D01*
X8243000Y-4175500D01*
X8497000Y-4175500D01*
X8497000Y-4195500D01*
X8517000Y-4195500D01*
X8517000Y-4449500D01*
X8497000Y-4449500D01*
X8497000Y-5243250D01*
X8655750Y-5402000D01*
X8935000Y-5402000D01*
X8935000Y-5675874D01*
X9092569Y-6056280D01*
X9306289Y-6270000D01*
X9092569Y-6483720D01*
X8935000Y-6864126D01*
X8935000Y-7275874D01*
X9092569Y-7656280D01*
X9383720Y-7947431D01*
X9764126Y-8105000D01*
X10175874Y-8105000D01*
X10402155Y-8011271D01*
X11605356Y-9214473D01*
X11647756Y-9277929D01*
X11899148Y-9445904D01*
X12120833Y-9490000D01*
X12120837Y-9490000D01*
X12195685Y-9504888D01*
X12270533Y-9490000D01*
X13722560Y-9490000D01*
X13722560Y-9530000D01*
X13771843Y-9777765D01*
X13912191Y-9987809D01*
X13930436Y-10000000D01*
X13912191Y-10012191D01*
X13771843Y-10222235D01*
X13724410Y-10460699D01*
X13656280Y-10392569D01*
X13275874Y-10235000D01*
X12864126Y-10235000D01*
X12483720Y-10392569D01*
X12192569Y-10683720D01*
X12035000Y-11064126D01*
X12035000Y-11475874D01*
X12163044Y-11785000D01*
X655000Y-11785000D01*
X655000Y-10326009D01*
X1023368Y-10461325D01*
X1643461Y-10436097D01*
X2099179Y-10247332D01*
X2188651Y-9988256D01*
X1270000Y-9069605D01*
X1255858Y-9083748D01*
X1076253Y-8904143D01*
X1090395Y-8890000D01*
X1449605Y-8890000D01*
X2368256Y-9808651D01*
X2627332Y-9719179D01*
X2741548Y-9408250D01*
X3036500Y-9408250D01*
X3036500Y-9693309D01*
X3133173Y-9926698D01*
X3311801Y-10105327D01*
X3545190Y-10202000D01*
X4084250Y-10202000D01*
X4243000Y-10043250D01*
X4243000Y-9249500D01*
X4497000Y-9249500D01*
X4497000Y-10043250D01*
X4655750Y-10202000D01*
X5194810Y-10202000D01*
X5428199Y-10105327D01*
X5606827Y-9926698D01*
X5703500Y-9693309D01*
X5703500Y-9408250D01*
X5544750Y-9249500D01*
X4497000Y-9249500D01*
X4243000Y-9249500D01*
X3195250Y-9249500D01*
X3036500Y-9408250D01*
X2741548Y-9408250D01*
X2841325Y-9136632D01*
X2816097Y-8516539D01*
X2627332Y-8060821D01*
X2368256Y-7971349D01*
X1449605Y-8890000D01*
X1090395Y-8890000D01*
X1076253Y-8875858D01*
X1255858Y-8696253D01*
X1270000Y-8710395D01*
X2188651Y-7791744D01*
X2148247Y-7674750D01*
X2153669Y-7672504D01*
X2481231Y-7344942D01*
X2483720Y-7347431D01*
X2864126Y-7505000D01*
X3024060Y-7505000D01*
X3024060Y-7662000D01*
X3073343Y-7909765D01*
X3213691Y-8119809D01*
X3284411Y-8167063D01*
X3133173Y-8318302D01*
X3036500Y-8551691D01*
X3036500Y-8836750D01*
X3195250Y-8995500D01*
X4243000Y-8995500D01*
X4243000Y-8975500D01*
X4497000Y-8975500D01*
X4497000Y-8995500D01*
X5544750Y-8995500D01*
X5703500Y-8836750D01*
X5703500Y-8551691D01*
X5606827Y-8318302D01*
X5455589Y-8167063D01*
X5526309Y-8119809D01*
X5666657Y-7909765D01*
X5715940Y-7662000D01*
X5715940Y-6773000D01*
X5666657Y-6525235D01*
X5629750Y-6470000D01*
X5666657Y-6414765D01*
X5715940Y-6167000D01*
X5715940Y-5289742D01*
X6001243Y-5575046D01*
X5992569Y-5583720D01*
X5835000Y-5964126D01*
X5835000Y-6375874D01*
X5992569Y-6756280D01*
X6283720Y-7047431D01*
X6664126Y-7205000D01*
X7075874Y-7205000D01*
X7456280Y-7047431D01*
X7747431Y-6756280D01*
X7905000Y-6375874D01*
X7905000Y-5964126D01*
X7747431Y-5583720D01*
X7630000Y-5466289D01*
X7630000Y-5443846D01*
X7638324Y-5402000D01*
X8084250Y-5402000D01*
X8243000Y-5243250D01*
X8243000Y-4449500D01*
X7195250Y-4449500D01*
X7110276Y-4534474D01*
X5908831Y-3333030D01*
X5866429Y-3269571D01*
X5669147Y-3137751D01*
X5666657Y-3125235D01*
X5526309Y-2915191D01*
X5355000Y-2800725D01*
X5355000Y-2095000D01*
X7024060Y-2095000D01*
X7024060Y-2862000D01*
X7024060Y-2862000D01*
G37*
X7024060Y-2862000D02*
X7073343Y-3109765D01*
X7213691Y-3319809D01*
X7284411Y-3367063D01*
X7133173Y-3518302D01*
X7036500Y-3751691D01*
X7036500Y-4036750D01*
X7195250Y-4195500D01*
X8243000Y-4195500D01*
X8243000Y-4175500D01*
X8497000Y-4175500D01*
X8497000Y-4195500D01*
X8517000Y-4195500D01*
X8517000Y-4449500D01*
X8497000Y-4449500D01*
X8497000Y-5243250D01*
X8655750Y-5402000D01*
X8935000Y-5402000D01*
X8935000Y-5675874D01*
X9092569Y-6056280D01*
X9306289Y-6270000D01*
X9092569Y-6483720D01*
X8935000Y-6864126D01*
X8935000Y-7275874D01*
X9092569Y-7656280D01*
X9383720Y-7947431D01*
X9764126Y-8105000D01*
X10175874Y-8105000D01*
X10402155Y-8011271D01*
X11605356Y-9214473D01*
X11647756Y-9277929D01*
X11899148Y-9445904D01*
X12120833Y-9490000D01*
X12120837Y-9490000D01*
X12195685Y-9504888D01*
X12270533Y-9490000D01*
X13722560Y-9490000D01*
X13722560Y-9530000D01*
X13771843Y-9777765D01*
X13912191Y-9987809D01*
X13930436Y-10000000D01*
X13912191Y-10012191D01*
X13771843Y-10222235D01*
X13724410Y-10460699D01*
X13656280Y-10392569D01*
X13275874Y-10235000D01*
X12864126Y-10235000D01*
X12483720Y-10392569D01*
X12192569Y-10683720D01*
X12035000Y-11064126D01*
X12035000Y-11475874D01*
X12163044Y-11785000D01*
X655000Y-11785000D01*
X655000Y-10326009D01*
X1023368Y-10461325D01*
X1643461Y-10436097D01*
X2099179Y-10247332D01*
X2188651Y-9988256D01*
X1270000Y-9069605D01*
X1255858Y-9083748D01*
X1076253Y-8904143D01*
X1090395Y-8890000D01*
X1449605Y-8890000D01*
X2368256Y-9808651D01*
X2627332Y-9719179D01*
X2741548Y-9408250D01*
X3036500Y-9408250D01*
X3036500Y-9693309D01*
X3133173Y-9926698D01*
X3311801Y-10105327D01*
X3545190Y-10202000D01*
X4084250Y-10202000D01*
X4243000Y-10043250D01*
X4243000Y-9249500D01*
X4497000Y-9249500D01*
X4497000Y-10043250D01*
X4655750Y-10202000D01*
X5194810Y-10202000D01*
X5428199Y-10105327D01*
X5606827Y-9926698D01*
X5703500Y-9693309D01*
X5703500Y-9408250D01*
X5544750Y-9249500D01*
X4497000Y-9249500D01*
X4243000Y-9249500D01*
X3195250Y-9249500D01*
X3036500Y-9408250D01*
X2741548Y-9408250D01*
X2841325Y-9136632D01*
X2816097Y-8516539D01*
X2627332Y-8060821D01*
X2368256Y-7971349D01*
X1449605Y-8890000D01*
X1090395Y-8890000D01*
X1076253Y-8875858D01*
X1255858Y-8696253D01*
X1270000Y-8710395D01*
X2188651Y-7791744D01*
X2148247Y-7674750D01*
X2153669Y-7672504D01*
X2481231Y-7344942D01*
X2483720Y-7347431D01*
X2864126Y-7505000D01*
X3024060Y-7505000D01*
X3024060Y-7662000D01*
X3073343Y-7909765D01*
X3213691Y-8119809D01*
X3284411Y-8167063D01*
X3133173Y-8318302D01*
X3036500Y-8551691D01*
X3036500Y-8836750D01*
X3195250Y-8995500D01*
X4243000Y-8995500D01*
X4243000Y-8975500D01*
X4497000Y-8975500D01*
X4497000Y-8995500D01*
X5544750Y-8995500D01*
X5703500Y-8836750D01*
X5703500Y-8551691D01*
X5606827Y-8318302D01*
X5455589Y-8167063D01*
X5526309Y-8119809D01*
X5666657Y-7909765D01*
X5715940Y-7662000D01*
X5715940Y-6773000D01*
X5666657Y-6525235D01*
X5629750Y-6470000D01*
X5666657Y-6414765D01*
X5715940Y-6167000D01*
X5715940Y-5289742D01*
X6001243Y-5575046D01*
X5992569Y-5583720D01*
X5835000Y-5964126D01*
X5835000Y-6375874D01*
X5992569Y-6756280D01*
X6283720Y-7047431D01*
X6664126Y-7205000D01*
X7075874Y-7205000D01*
X7456280Y-7047431D01*
X7747431Y-6756280D01*
X7905000Y-6375874D01*
X7905000Y-5964126D01*
X7747431Y-5583720D01*
X7630000Y-5466289D01*
X7630000Y-5443846D01*
X7638324Y-5402000D01*
X8084250Y-5402000D01*
X8243000Y-5243250D01*
X8243000Y-4449500D01*
X7195250Y-4449500D01*
X7110276Y-4534474D01*
X5908831Y-3333030D01*
X5866429Y-3269571D01*
X5669147Y-3137751D01*
X5666657Y-3125235D01*
X5526309Y-2915191D01*
X5355000Y-2800725D01*
X5355000Y-2095000D01*
X7024060Y-2095000D01*
X7024060Y-2862000D01*
G36*
X12883720Y-2192569D02*
X12592569Y-2483720D01*
X12435000Y-2864126D01*
X12435000Y-3275874D01*
X12592569Y-3656280D01*
X12883720Y-3947431D01*
X13264126Y-4105000D01*
X13675874Y-4105000D01*
X13722560Y-4085662D01*
X13722560Y-4450000D01*
X13771843Y-4697765D01*
X13912191Y-4907809D01*
X13930436Y-4920000D01*
X13912191Y-4932191D01*
X13771843Y-5142235D01*
X13722560Y-5390000D01*
X13722560Y-5430000D01*
X11005000Y-5430000D01*
X11005000Y-5264126D01*
X10847431Y-4883720D01*
X10556280Y-4592569D01*
X10260372Y-4470000D01*
X10556280Y-4347431D01*
X10847431Y-4056280D01*
X11005000Y-3675874D01*
X11005000Y-3264126D01*
X10847431Y-2883720D01*
X10556280Y-2592569D01*
X10435570Y-2542569D01*
X9988000Y-2095000D01*
X13119273Y-2095000D01*
X12883720Y-2192569D01*
X12883720Y-2192569D01*
G37*
X12883720Y-2192569D02*
X12592569Y-2483720D01*
X12435000Y-2864126D01*
X12435000Y-3275874D01*
X12592569Y-3656280D01*
X12883720Y-3947431D01*
X13264126Y-4105000D01*
X13675874Y-4105000D01*
X13722560Y-4085662D01*
X13722560Y-4450000D01*
X13771843Y-4697765D01*
X13912191Y-4907809D01*
X13930436Y-4920000D01*
X13912191Y-4932191D01*
X13771843Y-5142235D01*
X13722560Y-5390000D01*
X13722560Y-5430000D01*
X11005000Y-5430000D01*
X11005000Y-5264126D01*
X10847431Y-4883720D01*
X10556280Y-4592569D01*
X10260372Y-4470000D01*
X10556280Y-4347431D01*
X10847431Y-4056280D01*
X11005000Y-3675874D01*
X11005000Y-3264126D01*
X10847431Y-2883720D01*
X10556280Y-2592569D01*
X10435570Y-2542569D01*
X9988000Y-2095000D01*
X13119273Y-2095000D01*
X12883720Y-2192569D01*
G04 #@! TD*
M02*
