G04 #@! TF.GenerationSoftware,KiCad,Pcbnew,5.0.2-bee76a0~70~ubuntu16.04.1*
G04 #@! TF.CreationDate,2019-12-01T18:12:19-08:00*
G04 #@! TF.ProjectId,smallio,736d616c-6c69-46f2-9e6b-696361645f70,1.0*
G04 #@! TF.SameCoordinates,PX8a1ee30PY3b71490*
G04 #@! TF.FileFunction,Legend,Bot*
G04 #@! TF.FilePolarity,Positive*
%FSLAX46Y46*%
G04 Gerber Fmt 4.6, Leading zero omitted, Abs format (unit mm)*
G04 Created by KiCad (PCBNEW 5.0.2-bee76a0~70~ubuntu16.04.1) date Sun 01 Dec 2019 06:12:19 PM PST*
%MOMM*%
%LPD*%
G01*
G04 APERTURE LIST*
%ADD10C,0.100000*%
G04 APERTURE END LIST*
D10*
G04 #@! TO.C,C1*
X7608000Y-3878000D02*
X7608000Y-4894000D01*
X7608000Y-4894000D02*
X9132000Y-4894000D01*
X9132000Y-4894000D02*
X9132000Y-3878000D01*
X9132000Y-2862000D02*
X9132000Y-1846000D01*
X9132000Y-1846000D02*
X7608000Y-1846000D01*
X7608000Y-1846000D02*
X7608000Y-2862000D01*
G04 #@! TO.C,J1*
X5132000Y-9694000D02*
X5132000Y-8678000D01*
X3608000Y-9694000D02*
X5132000Y-9694000D01*
X3608000Y-8678000D02*
X3608000Y-9694000D01*
X3608000Y-6646000D02*
X3608000Y-7662000D01*
X5132000Y-6646000D02*
X3608000Y-6646000D01*
X5132000Y-7662000D02*
X5132000Y-6646000D01*
G04 #@! TO.C,J2*
X5132000Y-4262000D02*
X5132000Y-3246000D01*
X5132000Y-3246000D02*
X3608000Y-3246000D01*
X3608000Y-3246000D02*
X3608000Y-4262000D01*
X3608000Y-5278000D02*
X3608000Y-6294000D01*
X3608000Y-6294000D02*
X5132000Y-6294000D01*
X5132000Y-6294000D02*
X5132000Y-5278000D01*
G04 #@! TO.C,C1*
X8503333Y-5855714D02*
X8541428Y-5893809D01*
X8655714Y-5931904D01*
X8731904Y-5931904D01*
X8846190Y-5893809D01*
X8922380Y-5817619D01*
X8960476Y-5741428D01*
X8998571Y-5589047D01*
X8998571Y-5474761D01*
X8960476Y-5322380D01*
X8922380Y-5246190D01*
X8846190Y-5170000D01*
X8731904Y-5131904D01*
X8655714Y-5131904D01*
X8541428Y-5170000D01*
X8503333Y-5208095D01*
X7741428Y-5931904D02*
X8198571Y-5931904D01*
X7970000Y-5931904D02*
X7970000Y-5131904D01*
X8046190Y-5246190D01*
X8122380Y-5322380D01*
X8198571Y-5360476D01*
G04 #@! TO.C,DB1*
X13308095Y-10341428D02*
X13270000Y-10379523D01*
X13231904Y-10455714D01*
X13231904Y-10646190D01*
X13270000Y-10722380D01*
X13308095Y-10760476D01*
X13384285Y-10798571D01*
X13460476Y-10798571D01*
X13574761Y-10760476D01*
X14031904Y-10303333D01*
X14031904Y-10798571D01*
G04 #@! TO.C,J1*
X4736666Y-9931904D02*
X4736666Y-10503333D01*
X4774761Y-10617619D01*
X4850952Y-10693809D01*
X4965238Y-10731904D01*
X5041428Y-10731904D01*
X3936666Y-10731904D02*
X4393809Y-10731904D01*
X4165238Y-10731904D02*
X4165238Y-9931904D01*
X4241428Y-10046190D01*
X4317619Y-10122380D01*
X4393809Y-10160476D01*
G04 #@! TO.C,J2*
X4536666Y-2031904D02*
X4536666Y-2603333D01*
X4574761Y-2717619D01*
X4650952Y-2793809D01*
X4765238Y-2831904D01*
X4841428Y-2831904D01*
X4193809Y-2108095D02*
X4155714Y-2070000D01*
X4079523Y-2031904D01*
X3889047Y-2031904D01*
X3812857Y-2070000D01*
X3774761Y-2108095D01*
X3736666Y-2184285D01*
X3736666Y-2260476D01*
X3774761Y-2374761D01*
X4231904Y-2831904D01*
X3736666Y-2831904D01*
G04 #@! TD*
M02*
