G04 #@! TF.GenerationSoftware,KiCad,Pcbnew,5.0.2-bee76a0~70~ubuntu16.04.1*
G04 #@! TF.CreationDate,2019-08-24T22:06:37-07:00*
G04 #@! TF.ProjectId,endcap,656e6463-6170-42e6-9b69-6361645f7063,rev?*
G04 #@! TF.SameCoordinates,PX2faf080PY2faf080*
G04 #@! TF.FileFunction,Drawing*
%FSLAX46Y46*%
G04 Gerber Fmt 4.6, Leading zero omitted, Abs format (unit mm)*
G04 Created by KiCad (PCBNEW 5.0.2-bee76a0~70~ubuntu16.04.1) date Sat 24 Aug 2019 10:06:37 PM PDT*
%MOMM*%
%LPD*%
G01*
G04 APERTURE LIST*
%ADD10C,0.100000*%
G04 APERTURE END LIST*
D10*
G04 #@! TO.C,MH1*
X4750000Y-5450000D02*
G75*
G02X4750000Y-2050000I0J1700000D01*
G01*
X5000000Y-2050000D02*
G75*
G02X5000000Y-5450000I0J-1700000D01*
G01*
X5000000Y-3750000D02*
X5000000Y-2750000D01*
X4750000Y-3750000D02*
X4750000Y-4750000D01*
X3775000Y-3750000D02*
X5975000Y-3750000D01*
G04 #@! TO.C,MH2*
X101000000Y-5450000D02*
G75*
G02X101000000Y-2050000I0J1700000D01*
G01*
X101250000Y-2050000D02*
G75*
G02X101250000Y-5450000I0J-1700000D01*
G01*
X101250000Y-3750000D02*
X101250000Y-2750000D01*
X101000000Y-3750000D02*
X101000000Y-4750000D01*
X100025000Y-3750000D02*
X102225000Y-3750000D01*
G04 #@! TO.C,MH3*
X101000000Y-52950000D02*
G75*
G02X101000000Y-49550000I0J1700000D01*
G01*
X101250000Y-49550000D02*
G75*
G02X101250000Y-52950000I0J-1700000D01*
G01*
X101250000Y-51250000D02*
X101250000Y-50250000D01*
X101000000Y-51250000D02*
X101000000Y-52250000D01*
X100025000Y-51250000D02*
X102225000Y-51250000D01*
G04 #@! TO.C,MH4*
X4750000Y-52950000D02*
G75*
G02X4750000Y-49550000I0J1700000D01*
G01*
X5000000Y-49550000D02*
G75*
G02X5000000Y-52950000I0J-1700000D01*
G01*
X5000000Y-51250000D02*
X5000000Y-50250000D01*
X4750000Y-51250000D02*
X4750000Y-52250000D01*
X3775000Y-51250000D02*
X5975000Y-51250000D01*
G04 #@! TO.C,REF\002A\002A*
X91000000Y-13100000D02*
X91000000Y-15100000D01*
X92000000Y-14100000D02*
X90000000Y-14100000D01*
X95800000Y-14100000D02*
G75*
G03X95800000Y-14100000I-4800000J0D01*
G01*
X40000000Y-8250000D02*
X38000000Y-8250000D01*
X39000000Y-9250000D02*
X39000000Y-7250000D01*
X42500000Y-8250000D02*
G75*
G03X42500000Y-8250000I-3500000J0D01*
G01*
X71000000Y-9250000D02*
X71000000Y-7250000D01*
X72000000Y-8250000D02*
X70000000Y-8250000D01*
X74500000Y-8250000D02*
G75*
G03X74500000Y-8250000I-3500000J0D01*
G01*
G04 #@! TD*
M02*
