G04 #@! TF.GenerationSoftware,KiCad,Pcbnew,5.0.2-bee76a0~70~ubuntu16.04.1*
G04 #@! TF.CreationDate,2019-08-24T21:48:25-07:00*
G04 #@! TF.ProjectId,endcap,656e6463-6170-42e6-9b69-6361645f7063,rev?*
G04 #@! TF.SameCoordinates,PX2faf080PY2faf080*
G04 #@! TF.FileFunction,Drawing*
%FSLAX46Y46*%
G04 Gerber Fmt 4.6, Leading zero omitted, Abs format (unit mm)*
G04 Created by KiCad (PCBNEW 5.0.2-bee76a0~70~ubuntu16.04.1) date Sat 24 Aug 2019 09:48:25 PM PDT*
%MOMM*%
%LPD*%
G01*
G04 APERTURE LIST*
%ADD10C,0.100000*%
G04 APERTURE END LIST*
D10*
G04 #@! TO.C,REF\002A\002A*
X81600000Y-45765000D02*
X81600000Y-47765000D01*
X71440000Y-45765000D02*
X71440000Y-47765000D01*
X80600000Y-46765000D02*
X82600000Y-46765000D01*
X70440000Y-46765000D02*
X72440000Y-46765000D01*
X85150000Y-46765000D02*
G75*
G03X85150000Y-46765000I-3550000J0D01*
G01*
X74990000Y-46765000D02*
G75*
G03X74990000Y-46765000I-3550000J0D01*
G01*
X17800000Y-46000000D02*
X19800000Y-46000000D01*
X18800000Y-47000000D02*
X18800000Y-45000000D01*
X20600000Y-46000000D02*
G75*
G03X20600000Y-46000000I-1800000J0D01*
G01*
X18800000Y-36300000D02*
X18800000Y-38300000D01*
X17800000Y-37300000D02*
X19800000Y-37300000D01*
X20600000Y-37300000D02*
G75*
G03X20600000Y-37300000I-1800000J0D01*
G01*
X33800000Y-37300000D02*
X31800000Y-37300000D01*
X32800000Y-38300000D02*
X32800000Y-36300000D01*
X34600000Y-37300000D02*
G75*
G03X34600000Y-37300000I-1800000J0D01*
G01*
X32800000Y-45000000D02*
X32800000Y-47000000D01*
X31800000Y-46000000D02*
X33800000Y-46000000D01*
X34600000Y-46000000D02*
G75*
G03X34600000Y-46000000I-1800000J0D01*
G01*
X32400000Y-41700000D02*
X34400000Y-41700000D01*
X33400000Y-40700000D02*
X33400000Y-42700000D01*
X34600000Y-41700000D02*
G75*
G03X34600000Y-41700000I-1200000J0D01*
G01*
X17200000Y-41700000D02*
X19200000Y-41700000D01*
X18200000Y-40700000D02*
X18200000Y-42700000D01*
X19400000Y-41700000D02*
G75*
G03X19400000Y-41700000I-1200000J0D01*
G01*
X24800000Y-41650000D02*
X26800000Y-41650000D01*
X25800000Y-40650000D02*
X25800000Y-42650000D01*
X31940000Y-41650000D02*
G75*
G03X31940000Y-41650000I-6140000J0D01*
G01*
X96612478Y-44900000D02*
G75*
G03X96612478Y-44900000I-3612478J0D01*
G01*
X93000000Y-43900000D02*
X93000000Y-45900000D01*
X92000000Y-44900000D02*
X94000000Y-44900000D01*
X63160233Y-47100000D02*
G75*
G03X63160233Y-47100000I-860233J0D01*
G01*
X61300000Y-47100000D02*
X63300000Y-47100000D01*
X62300000Y-46100000D02*
X62300000Y-48100000D01*
X56994427Y-47100000D02*
G75*
G03X56994427Y-47100000I-894427J0D01*
G01*
X56100000Y-46100000D02*
X56100000Y-48100000D01*
X57100000Y-47100000D02*
X55100000Y-47100000D01*
X50748528Y-47100000D02*
G75*
G03X50748528Y-47100000I-848528J0D01*
G01*
X49900000Y-46100000D02*
X49900000Y-48100000D01*
X50900000Y-47100000D02*
X48900000Y-47100000D01*
X44594427Y-47100000D02*
G75*
G03X44594427Y-47100000I-894427J0D01*
G01*
X43700000Y-46100000D02*
X43700000Y-48100000D01*
X42700000Y-47100000D02*
X44700000Y-47100000D01*
X14501163Y-40900000D02*
G75*
G03X14501163Y-40900000I-4301163J0D01*
G01*
X9200000Y-40900000D02*
X11200000Y-40900000D01*
X10200000Y-39900000D02*
X10200000Y-41900000D01*
G04 #@! TO.C,MH1*
X4750000Y-5450000D02*
G75*
G02X4750000Y-2050000I0J1700000D01*
G01*
X5000000Y-2050000D02*
G75*
G02X5000000Y-5450000I0J-1700000D01*
G01*
X5000000Y-3750000D02*
X5000000Y-2750000D01*
X4750000Y-3750000D02*
X4750000Y-4750000D01*
X3775000Y-3750000D02*
X5975000Y-3750000D01*
G04 #@! TO.C,MH2*
X101000000Y-5450000D02*
G75*
G02X101000000Y-2050000I0J1700000D01*
G01*
X101250000Y-2050000D02*
G75*
G02X101250000Y-5450000I0J-1700000D01*
G01*
X101250000Y-3750000D02*
X101250000Y-2750000D01*
X101000000Y-3750000D02*
X101000000Y-4750000D01*
X100025000Y-3750000D02*
X102225000Y-3750000D01*
G04 #@! TO.C,MH3*
X101000000Y-52950000D02*
G75*
G02X101000000Y-49550000I0J1700000D01*
G01*
X101250000Y-49550000D02*
G75*
G02X101250000Y-52950000I0J-1700000D01*
G01*
X101250000Y-51250000D02*
X101250000Y-50250000D01*
X101000000Y-51250000D02*
X101000000Y-52250000D01*
X100025000Y-51250000D02*
X102225000Y-51250000D01*
G04 #@! TO.C,MH4*
X4750000Y-52950000D02*
G75*
G02X4750000Y-49550000I0J1700000D01*
G01*
X5000000Y-49550000D02*
G75*
G02X5000000Y-52950000I0J-1700000D01*
G01*
X5000000Y-51250000D02*
X5000000Y-50250000D01*
X4750000Y-51250000D02*
X4750000Y-52250000D01*
X3775000Y-51250000D02*
X5975000Y-51250000D01*
G04 #@! TD*
M02*
