G04 #@! TF.GenerationSoftware,KiCad,Pcbnew,5.0.2+dfsg1-1*
G04 #@! TF.CreationDate,2019-07-23T09:37:26-06:00*
G04 #@! TF.ProjectId,hl2-back-vert,686c322d-6261-4636-9b2d-766572742e6b,rev?*
G04 #@! TF.SameCoordinates,Original*
G04 #@! TF.FileFunction,Legend,Top*
G04 #@! TF.FilePolarity,Positive*
%FSLAX46Y46*%
G04 Gerber Fmt 4.6, Leading zero omitted, Abs format (unit mm)*
G04 Created by KiCad (PCBNEW 5.0.2+dfsg1-1) date Tue 23 Jul 2019 09:37:26 AM MDT*
%MOMM*%
%LPD*%
G01*
G04 APERTURE LIST*
%ADD10C,0.500000*%
%ADD11C,0.300000*%
%ADD12C,0.150000*%
G04 APERTURE END LIST*
D10*
X143842857Y-151400000D02*
X146842857Y-151400000D01*
X145414285Y-151400000D02*
X145414285Y-153114285D01*
X143842857Y-153114285D02*
X146842857Y-153114285D01*
X143985714Y-155685714D02*
X143842857Y-155400000D01*
X143842857Y-154828571D01*
X143985714Y-154542857D01*
X144271428Y-154400000D01*
X145414285Y-154400000D01*
X145700000Y-154542857D01*
X145842857Y-154828571D01*
X145842857Y-155400000D01*
X145700000Y-155685714D01*
X145414285Y-155828571D01*
X145128571Y-155828571D01*
X144842857Y-154400000D01*
X143842857Y-157114285D02*
X145842857Y-157114285D01*
X145271428Y-157114285D02*
X145557142Y-157257142D01*
X145700000Y-157400000D01*
X145842857Y-157685714D01*
X145842857Y-157971428D01*
X143842857Y-158971428D02*
X145842857Y-158971428D01*
X145557142Y-158971428D02*
X145700000Y-159114285D01*
X145842857Y-159400000D01*
X145842857Y-159828571D01*
X145700000Y-160114285D01*
X145414285Y-160257142D01*
X143842857Y-160257142D01*
X145414285Y-160257142D02*
X145700000Y-160400000D01*
X145842857Y-160685714D01*
X145842857Y-161114285D01*
X145700000Y-161400000D01*
X145414285Y-161542857D01*
X143842857Y-161542857D01*
X143985714Y-164114285D02*
X143842857Y-163828571D01*
X143842857Y-163257142D01*
X143985714Y-162971428D01*
X144271428Y-162828571D01*
X145414285Y-162828571D01*
X145700000Y-162971428D01*
X145842857Y-163257142D01*
X145842857Y-163828571D01*
X145700000Y-164114285D01*
X145414285Y-164257142D01*
X145128571Y-164257142D01*
X144842857Y-162828571D01*
X143985714Y-165400000D02*
X143842857Y-165685714D01*
X143842857Y-166257142D01*
X143985714Y-166542857D01*
X144271428Y-166685714D01*
X144414285Y-166685714D01*
X144700000Y-166542857D01*
X144842857Y-166257142D01*
X144842857Y-165828571D01*
X144985714Y-165542857D01*
X145271428Y-165400000D01*
X145414285Y-165400000D01*
X145700000Y-165542857D01*
X145842857Y-165828571D01*
X145842857Y-166257142D01*
X145700000Y-166542857D01*
X144985714Y-167971428D02*
X144985714Y-170257142D01*
X143842857Y-173114285D02*
X143842857Y-171685714D01*
X146842857Y-171685714D01*
X143842857Y-174114285D02*
X145842857Y-174114285D01*
X146842857Y-174114285D02*
X146700000Y-173971428D01*
X146557142Y-174114285D01*
X146700000Y-174257142D01*
X146842857Y-174114285D01*
X146557142Y-174114285D01*
X145842857Y-175114285D02*
X145842857Y-176257142D01*
X146842857Y-175542857D02*
X144271428Y-175542857D01*
X143985714Y-175685714D01*
X143842857Y-175971428D01*
X143842857Y-176257142D01*
X143985714Y-178400000D02*
X143842857Y-178114285D01*
X143842857Y-177542857D01*
X143985714Y-177257142D01*
X144271428Y-177114285D01*
X145414285Y-177114285D01*
X145700000Y-177257142D01*
X145842857Y-177542857D01*
X145842857Y-178114285D01*
X145700000Y-178400000D01*
X145414285Y-178542857D01*
X145128571Y-178542857D01*
X144842857Y-177114285D01*
G04 #@! TO.C,RF1*
D11*
X94321428Y-178807142D02*
X95035714Y-178307142D01*
X94321428Y-177950000D02*
X95821428Y-177950000D01*
X95821428Y-178521428D01*
X95750000Y-178664285D01*
X95678571Y-178735714D01*
X95535714Y-178807142D01*
X95321428Y-178807142D01*
X95178571Y-178735714D01*
X95107142Y-178664285D01*
X95035714Y-178521428D01*
X95035714Y-177950000D01*
X95107142Y-179950000D02*
X95107142Y-179450000D01*
X94321428Y-179450000D02*
X95821428Y-179450000D01*
X95821428Y-180164285D01*
X94321428Y-181521428D02*
X94321428Y-180664285D01*
X94321428Y-181092857D02*
X95821428Y-181092857D01*
X95607142Y-180950000D01*
X95464285Y-180807142D01*
X95392857Y-180664285D01*
G04 #@! TO.C,H1*
D12*
X64075759Y-145413784D02*
X64075759Y-144413784D01*
X64075759Y-144889975D02*
X64647187Y-144889975D01*
X64647187Y-145413784D02*
X64647187Y-144413784D01*
X65647187Y-145413784D02*
X65075759Y-145413784D01*
X65361473Y-145413784D02*
X65361473Y-144413784D01*
X65266235Y-144556642D01*
X65170997Y-144651880D01*
X65075759Y-144699499D01*
G04 #@! TO.C,H4*
X64073942Y-192335091D02*
X64073942Y-191335091D01*
X64073942Y-191811282D02*
X64645370Y-191811282D01*
X64645370Y-192335091D02*
X64645370Y-191335091D01*
X65550132Y-191668425D02*
X65550132Y-192335091D01*
X65312037Y-191287472D02*
X65073942Y-192001758D01*
X65692989Y-192001758D01*
G04 #@! TO.C,H3*
X159893720Y-192328678D02*
X159893720Y-191328678D01*
X159893720Y-191804869D02*
X160465148Y-191804869D01*
X160465148Y-192328678D02*
X160465148Y-191328678D01*
X160846101Y-191328678D02*
X161465148Y-191328678D01*
X161131815Y-191709631D01*
X161274672Y-191709631D01*
X161369910Y-191757250D01*
X161417529Y-191804869D01*
X161465148Y-191900107D01*
X161465148Y-192138202D01*
X161417529Y-192233440D01*
X161369910Y-192281059D01*
X161274672Y-192328678D01*
X160988958Y-192328678D01*
X160893720Y-192281059D01*
X160846101Y-192233440D01*
G04 #@! TO.C,H2*
X159887308Y-145412074D02*
X159887308Y-144412074D01*
X159887308Y-144888265D02*
X160458736Y-144888265D01*
X160458736Y-145412074D02*
X160458736Y-144412074D01*
X160887308Y-144507313D02*
X160934927Y-144459694D01*
X161030165Y-144412074D01*
X161268260Y-144412074D01*
X161363498Y-144459694D01*
X161411117Y-144507313D01*
X161458736Y-144602551D01*
X161458736Y-144697789D01*
X161411117Y-144840646D01*
X160839689Y-145412074D01*
X161458736Y-145412074D01*
G04 #@! TO.C,ANT*
D11*
X126350000Y-177985714D02*
X126350000Y-178700000D01*
X125921428Y-177842857D02*
X127421428Y-178342857D01*
X125921428Y-178842857D01*
X125921428Y-179342857D02*
X127421428Y-179342857D01*
X125921428Y-180200000D01*
X127421428Y-180200000D01*
X127421428Y-180700000D02*
X127421428Y-181557142D01*
X125921428Y-181128571D02*
X127421428Y-181128571D01*
G04 #@! TO.C,EXTTR*
X75307142Y-168971428D02*
X75307142Y-169471428D01*
X74521428Y-169685714D02*
X74521428Y-168971428D01*
X76021428Y-168971428D01*
X76021428Y-169685714D01*
X76021428Y-170185714D02*
X74521428Y-171185714D01*
X76021428Y-171185714D02*
X74521428Y-170185714D01*
X76021428Y-171542857D02*
X76021428Y-172400000D01*
X74521428Y-171971428D02*
X76021428Y-171971428D01*
X76021428Y-172685714D02*
X76021428Y-173542857D01*
X74521428Y-173114285D02*
X76021428Y-173114285D01*
X74521428Y-174900000D02*
X75235714Y-174400000D01*
X74521428Y-174042857D02*
X76021428Y-174042857D01*
X76021428Y-174614285D01*
X75950000Y-174757142D01*
X75878571Y-174828571D01*
X75735714Y-174900000D01*
X75521428Y-174900000D01*
X75378571Y-174828571D01*
X75307142Y-174757142D01*
X75235714Y-174614285D01*
X75235714Y-174042857D01*
G04 #@! TD*
M02*
