999
dxfrw 0.6.3
  0
SECTION
  2
HEADER
  9
$ACADVER
  1
AC1021
  9
$DWGCODEPAGE
  3
ANSI_1252
  9
$INSBASE
 10
0
 20
0
 30
0
  9
$EXTMIN
 10
0.130669
 20
-1.442205728782288
 30
0
  9
$EXTMAX
 10
104.835115
 20
52.88556777121771
 30
0
  9
$LIMMIN
 10
0
 20
0
  9
$LIMMAX
 10
420
 20
297
  9
$ORTHOMODE
 70
    0
  9
$REGENMODE
 70
    1
  9
$FILLMODE
 70
    1
  9
$QTEXTMODE
 70
    0
  9
$MIRRTEXT
 70
    0
  9
$LTSCALE
 40
1
  9
$ATTMODE
 70
    0
  9
$TEXTSIZE
 40
2.5
  9
$TRACEWID
 40
15.68
  9
$TEXTSTYLE
  7
STANDARD
  9
$CLAYER
  8
0
  9
$CELTYPE
  6
BYLAYER
  9
$CECOLOR
 62
  256
  9
$CELTSCALE
 40
1
  9
$DISPSILH
 70
    0
  9
$DIMSCALE
 40
2.5
  9
$DIMASZ
 40
2.5
  9
$DIMEXO
 40
0.625
  9
$DIMDLI
 40
3.75
  9
$DIMRND
 40
0
  9
$DIMDLE
 40
0
  9
$DIMEXE
 40
1.25
  9
$DIMTP
 40
0
  9
$DIMTM
 40
0
  9
$DIMTXT
 40
2.5
  9
$DIMCEN
 40
2.5
  9
$DIMTSZ
 40
0
  9
$DIMTOL
 70
    0
  9
$DIMLIM
 70
    0
  9
$DIMTIH
 70
    0
  9
$DIMTOH
 70
    0
  9
$DIMSE1
 70
    0
  9
$DIMSE2
 70
    0
  9
$DIMTAD
 70
    1
  9
$DIMZIN
 70
    8
  9
$DIMBLK
  1

  9
$DIMASO
 70
    1
  9
$DIMSHO
 70
    1
  9
$DIMPOST
  1

  9
$DIMAPOST
  1

  9
$DIMALT
 70
    0
  9
$DIMALTD
 70
    3
  9
$DIMALTF
 40
0.03937
  9
$DIMLFAC
 40
1
  9
$DIMTOFL
 70
    1
  9
$DIMTVP
 40
0
  9
$DIMTIX
 70
    0
  9
$DIMSOXD
 70
    0
  9
$DIMSAH
 70
    0
  9
$DIMBLK1
  1

  9
$DIMBLK2
  1

  9
$DIMSTYLE
  2
Standard
  9
$DIMCLRD
 70
    0
  9
$DIMCLRE
 70
    0
  9
$DIMCLRT
 70
    0
  9
$DIMTFAC
 40
1
  9
$DIMGAP
 40
0.625
  9
$DIMJUST
 70
    0
  9
$DIMSD1
 70
    0
  9
$DIMSD2
 70
    0
  9
$DIMTOLJ
 70
    0
  9
$DIMTZIN
 70
    8
  9
$DIMALTZ
 70
    0
  9
$DIMALTTZ
 70
    0
  9
$DIMUPT
 70
    0
  9
$DIMDEC
 70
    2
  9
$DIMTDEC
 70
    2
  9
$DIMALTU
 70
    2
  9
$DIMALTTD
 70
    3
  9
$DIMTXSTY
  7
STANDARD
  9
$DIMAUNIT
 70
    0
  9
$DIMADEC
 70
    0
  9
$DIMALTRND
 40
0
  9
$DIMAZIN
 70
    0
  9
$DIMDSEP
 70
   44
  9
$DIMATFIT
 70
    3
  9
$DIMFRAC
 70
    0
  9
$DIMLDRBLK
  1
STANDARD
  9
$DIMLUNIT
 70
    2
  9
$DIMLWD
 70
   -2
  9
$DIMLWE
 70
   -2
  9
$DIMTMOVE
 70
    0
  9
$DIMFXL
 40
1
  9
$DIMFXLON
 70
    0
  9
$DIMJOGANG
 40
0.7854
  9
$DIMTFILL
 70
    0
  9
$DIMTFILLCLR
 70
    0
  9
$DIMARCSYM
 70
    0
  9
$DIMLTYPE
  6

  9
$DIMLTEX1
  6

  9
$DIMLTEX2
  6

  9
$LUNITS
 70
    2
  9
$LUPREC
 70
    4
  9
$SKETCHINC
 40
1
  9
$FILLETRAD
 40
0
  9
$AUNITS
 70
    0
  9
$AUPREC
 70
    2
  9
$MENU
  1
.
  9
$ELEVATION
 40
0
  9
$PELEVATION
 40
0
  9
$THICKNESS
 40
0
  9
$LIMCHECK
 70
    0
  9
$CHAMFERA
 40
0
  9
$CHAMFERB
 40
0
  9
$CHAMFERC
 40
0
  9
$CHAMFERD
 40
0
  9
$SKPOLY
 70
    0
  9
$USRTIMER
 70
    1
  9
$ANGBASE
 50
0
  9
$ANGDIR
 70
    0
  9
$PDMODE
 70
   34
  9
$PDSIZE
 40
0
  9
$PLINEWID
 40
0
  9
$SPLFRAME
 70
    0
  9
$SPLINETYPE
 70
    2
  9
$SPLINESEGS
 70
    8
  9
$HANDSEED
  5
20000
  9
$SURFTAB1
 70
    6
  9
$SURFTAB2
 70
    6
  9
$SURFTYPE
 70
    6
  9
$SURFU
 70
    6
  9
$SURFV
 70
    6
  9
$UCSBASE
  2

  9
$UCSNAME
  2

  9
$UCSORG
 10
0
 20
0
 30
0
  9
$UCSXDIR
 10
1
 20
0
 30
0
  9
$UCSYDIR
 10
0
 20
1
 30
0
  9
$UCSORTHOREF
  2

  9
$UCSORTHOVIEW
 70
    0
  9
$UCSORGTOP
 10
0
 20
0
 30
0
  9
$UCSORGBOTTOM
 10
0
 20
0
 30
0
  9
$UCSORGLEFT
 10
0
 20
0
 30
0
  9
$UCSORGRIGHT
 10
0
 20
0
 30
0
  9
$UCSORGFRONT
 10
0
 20
0
 30
0
  9
$UCSORGBACK
 10
0
 20
0
 30
0
  9
$PUCSBASE
  2

  9
$PUCSNAME
  2

  9
$PUCSORG
 10
0
 20
0
 30
0
  9
$PUCSXDIR
 10
1
 20
0
 30
0
  9
$PUCSYDIR
 10
0
 20
1
 30
0
  9
$PUCSORTHOREF
  2

  9
$PUCSORTHOVIEW
 70
    0
  9
$PUCSORGTOP
 10
0
 20
0
 30
0
  9
$PUCSORGBOTTOM
 10
0
 20
0
 30
0
  9
$PUCSORGLEFT
 10
0
 20
0
 30
0
  9
$PUCSORGRIGHT
 10
0
 20
0
 30
0
  9
$PUCSORGFRONT
 10
0
 20
0
 30
0
  9
$PUCSORGBACK
 10
0
 20
0
 30
0
  9
$USERI1
 70
    0
  9
$USERI2
 70
    0
  9
$USERI3
 70
    0
  9
$USERI4
 70
    0
  9
$USERI5
 70
    0
  9
$USERR1
 40
0
  9
$USERR2
 40
0
  9
$USERR3
 40
0
  9
$USERR4
 40
0
  9
$USERR5
 40
0
  9
$WORLDVIEW
 70
    1
  9
$SHADEDGE
 70
    3
  9
$SHADEDIF
 70
   70
  9
$TILEMODE
 70
    1
  9
$MAXACTVP
 70
   64
  9
$PINSBASE
 10
0
 20
0
 30
0
  9
$PLIMCHECK
 70
    0
  9
$PEXTMIN
 10
0
 20
0
 30
0
  9
$PEXTMAX
 10
0
 20
0
 30
0
  9
$GRIDMODE
 70
    0
  9
$SNAPSTYLE
 70
    0
  9
$PLIMMIN
 10
0
 20
0
  9
$PLIMMAX
 10
210
 20
297
  9
$UNITMODE
 70
    0
  9
$VISRETAIN
 70
    1
  9
$PLINEGEN
 70
    0
  9
$PSLTSCALE
 70
    1
  9
$TREEDEPTH
 70
 3020
  9
$CMLSTYLE
  2
Standard
  9
$CMLJUST
 70
    0
  9
$CMLSCALE
 40
20
  9
$PROXYGRAPHICS
 70
    1
  9
$MEASUREMENT
 70
    1
  9
$CELWEIGHT
370
   -1
  9
$ENDCAPS
280
    0
  9
$JOINSTYLE
280
    0
  9
$LWDISPLAY
290
    0
  9
$INSUNITS
 70
    4
  9
$HYPERLINKBASE
  1

  9
$STYLESHEET
  1

  9
$XEDIT
290
    1
  9
$CEPSNTYPE
380
    0
  9
$PSTYLEMODE
290
    1
  9
$EXTNAMES
290
    1
  9
$PSVPSCALE
 40
1
  9
$OLESTARTUP
290
    0
  9
$SORTENTS
280
  127
  9
$INDEXCTL
280
    0
  9
$HIDETEXT
280
    1
  9
$XCLIPFRAME
290
    0
  9
$HALOGAP
280
    0
  9
$OBSCOLOR
 70
  257
  9
$OBSLTYPE
280
    0
  9
$INTERSECTIONDISPLAY
280
    0
  9
$INTERSECTIONCOLOR
 70
  257
  9
$DIMASSOC
280
    1
  9
$PROJECTNAME
  1

  9
$CAMERADISPLAY
290
    0
  9
$LENSLENGTH
 40
50
  9
$CAMERAHEIGHT
 40
0
  9
$STEPSPERSEC
 40
2
  9
$STEPSIZE
 40
50
  9
$3DDWFPREC
 40
2
  9
$PSOLWIDTH
 40
5
  9
$PSOLHEIGHT
 40
80
  9
$LOFTANG1
 40
1.570796326794897
  9
$LOFTANG2
 40
1.570796326794897
  9
$LOFTMAG1
 40
0
  9
$LOFTMAG2
 40
0
  9
$LOFTPARAM
 70
    7
  9
$LOFTNORMALS
280
    1
  9
$LATITUDE
 40
1
  9
$LONGITUDE
 40
1
  9
$NORTHDIRECTION
 40
0
  9
$TIMEZONE
 70
-8000
  9
$LIGHTGLYPHDISPLAY
280
    1
  9
$TILEMODELIGHTSYNCH
280
    1
  9
$SOLIDHIST
280
    1
  9
$SHOWHIST
280
    1
  9
$DWFFRAME
280
    2
  9
$DGNFRAME
280
    0
  9
$REALWORLDSCALE
290
    1
  9
$INTERFERECOLOR
 62
    1
  9
$CSHADOW
280
    0
  9
$SHADOWPLANELOCATION
 40
0
  0
ENDSEC
  0
SECTION
  2
CLASSES
  0
ENDSEC
  0
SECTION
  2
TABLES
  0
TABLE
  2
VPORT
  5
8
330
0
100
AcDbSymbolTable
 70
    1
  0
VPORT
  5
31
330
2
100
AcDbSymbolTableRecord
100
AcDbViewportTableRecord
  2
*ACTIVE
 70
    0
 10
0
 20
0
 11
1
 21
1
 12
53.06937673972603
 22
32.79348464383562
 13
0
 23
0
 14
10
 24
10
 15
10
 25
10
 16
0
 26
0
 36
1
 17
0
 27
0
 37
0
 40
79.5388693150685
 41
1.349180327868853
 42
50
 43
0
 44
0
 50
0
 51
0
 71
    0
 72
  100
 73
    1
 74
    3
 75
    0
 76
    0
 77
    0
 78
    0
281
    0
 65
    1
110
0
120
0
130
0
111
1
121
0
131
0
112
0
122
1
132
0
 79
    0
146
0
348
10020
 60
    7
 61
    5
292
1
282
    1
141
0
142
0
 63
  250
421
3358443
  0
ENDTAB
  0
TABLE
  2
LTYPE
  5
5
330
0
100
AcDbSymbolTable
 70
    4
  0
LTYPE
  5
14
330
5
100
AcDbSymbolTableRecord
100
AcDbLinetypeTableRecord
  2
ByBlock
 70
    0
  3

 72
   65
 73
    0
 40
0
  0
LTYPE
  5
15
330
5
100
AcDbSymbolTableRecord
100
AcDbLinetypeTableRecord
  2
ByLayer
 70
    0
  3

 72
   65
 73
    0
 40
0
  0
LTYPE
  5
16
330
5
100
AcDbSymbolTableRecord
100
AcDbLinetypeTableRecord
  2
Continuous
 70
    0
  3
Solid line
 72
   65
 73
    0
 40
0
  0
LTYPE
  5
32
330
5
100
AcDbSymbolTableRecord
100
AcDbLinetypeTableRecord
  2
DOT
 70
    0
  3
Dot . . . . . . . . . . . . . . . . . . . . . .
 72
   65
 73
    2
 40
6.35
 49
0
 74
    0
 49
-6.35
 74
    0
  0
LTYPE
  5
33
330
5
100
AcDbSymbolTableRecord
100
AcDbLinetypeTableRecord
  2
DOTTINY
 70
    0
  3
Dot (.15x) .....................................
 72
   65
 73
    2
 40
0.9525
 49
0
 74
    0
 49
-0.9525
 74
    0
  0
LTYPE
  5
34
330
5
100
AcDbSymbolTableRecord
100
AcDbLinetypeTableRecord
  2
DOT2
 70
    0
  3
Dot (.5x) .....................................
 72
   65
 73
    2
 40
3.175
 49
0
 74
    0
 49
-3.175
 74
    0
  0
LTYPE
  5
35
330
5
100
AcDbSymbolTableRecord
100
AcDbLinetypeTableRecord
  2
DOTX2
 70
    0
  3
Dot (2x) .  .  .  .  .  .  .  .  .  .  .  .  .
 72
   65
 73
    2
 40
12.7
 49
0
 74
    0
 49
-12.7
 74
    0
  0
LTYPE
  5
36
330
5
100
AcDbSymbolTableRecord
100
AcDbLinetypeTableRecord
  2
DASHED
 70
    0
  3
Dashed _ _ _ _ _ _ _ _ _ _ _ _ _ _ _ _ _
 72
   65
 73
    2
 40
19.05
 49
12.7
 74
    0
 49
-6.35
 74
    0
  0
LTYPE
  5
37
330
5
100
AcDbSymbolTableRecord
100
AcDbLinetypeTableRecord
  2
DASHEDTINY
 70
    0
  3
Dashed (.15x) _ _ _ _ _ _ _ _ _ _ _ _ _ _ _ _ _
 72
   65
 73
    2
 40
2.8575
 49
1.905
 74
    0
 49
-0.9525
 74
    0
  0
LTYPE
  5
38
330
5
100
AcDbSymbolTableRecord
100
AcDbLinetypeTableRecord
  2
DASHED2
 70
    0
  3
Dashed (.5x) _ _ _ _ _ _ _ _ _ _ _ _ _ _ _ _ _
 72
   65
 73
    2
 40
9.524999999999999
 49
6.35
 74
    0
 49
-3.175
 74
    0
  0
LTYPE
  5
39
330
5
100
AcDbSymbolTableRecord
100
AcDbLinetypeTableRecord
  2
DASHEDX2
 70
    0
  3
Dashed (2x) ____  ____  ____  ____  ____  ___
 72
   65
 73
    2
 40
38.09999999999999
 49
25.4
 74
    0
 49
-12.7
 74
    0
  0
LTYPE
  5
3A
330
5
100
AcDbSymbolTableRecord
100
AcDbLinetypeTableRecord
  2
DASHDOT
 70
    0
  3
Dash dot __ . __ . __ . __ . __ . __ . __ . __
 72
   65
 73
    4
 40
25.4
 49
12.7
 74
    0
 49
-6.35
 74
    0
 49
0
 74
    0
 49
-6.35
 74
    0
  0
LTYPE
  5
3B
330
5
100
AcDbSymbolTableRecord
100
AcDbLinetypeTableRecord
  2
DASHDOTTINY
 70
    0
  3
Dash dot (.15x) _._._._._._._._._._._._._._._.
 72
   65
 73
    4
 40
3.81
 49
1.905
 74
    0
 49
-0.9525
 74
    0
 49
0
 74
    0
 49
-0.9525
 74
    0
  0
LTYPE
  5
3C
330
5
100
AcDbSymbolTableRecord
100
AcDbLinetypeTableRecord
  2
DASHDOT2
 70
    0
  3
Dash dot (.5x) _._._._._._._._._._._._._._._.
 72
   65
 73
    4
 40
12.7
 49
6.35
 74
    0
 49
-3.175
 74
    0
 49
0
 74
    0
 49
-3.175
 74
    0
  0
LTYPE
  5
3D
330
5
100
AcDbSymbolTableRecord
100
AcDbLinetypeTableRecord
  2
DASHDOTX2
 70
    0
  3
Dash dot (2x) ____  .  ____  .  ____  .  ___
 72
   65
 73
    4
 40
50.8
 49
25.4
 74
    0
 49
-12.7
 74
    0
 49
0
 74
    0
 49
-12.7
 74
    0
  0
LTYPE
  5
3E
330
5
100
AcDbSymbolTableRecord
100
AcDbLinetypeTableRecord
  2
DIVIDE
 70
    0
  3
Divide ____ . . ____ . . ____ . . ____ . . ____
 72
   65
 73
    6
 40
31.75
 49
12.7
 74
    0
 49
-6.35
 74
    0
 49
0
 74
    0
 49
-6.35
 74
    0
 49
0
 74
    0
 49
-6.35
 74
    0
  0
LTYPE
  5
3F
330
5
100
AcDbSymbolTableRecord
100
AcDbLinetypeTableRecord
  2
DIVIDETINY
 70
    0
  3
Divide (.15x) __..__..__..__..__..__..__..__.._
 72
   65
 73
    6
 40
4.7625
 49
1.905
 74
    0
 49
-0.9525
 74
    0
 49
0
 74
    0
 49
-0.9525
 74
    0
 49
0
 74
    0
 49
-0.9525
 74
    0
  0
LTYPE
  5
40
330
5
100
AcDbSymbolTableRecord
100
AcDbLinetypeTableRecord
  2
DIVIDE2
 70
    0
  3
Divide (.5x) __..__..__..__..__..__..__..__.._
 72
   65
 73
    6
 40
15.875
 49
6.35
 74
    0
 49
-3.175
 74
    0
 49
0
 74
    0
 49
-3.175
 74
    0
 49
0
 74
    0
 49
-3.175
 74
    0
  0
LTYPE
  5
41
330
5
100
AcDbSymbolTableRecord
100
AcDbLinetypeTableRecord
  2
DIVIDEX2
 70
    0
  3
Divide (2x) ________  .  .  ________  .  .  _
 72
   65
 73
    6
 40
63.5
 49
25.4
 74
    0
 49
-12.7
 74
    0
 49
0
 74
    0
 49
-12.7
 74
    0
 49
0
 74
    0
 49
-12.7
 74
    0
  0
LTYPE
  5
42
330
5
100
AcDbSymbolTableRecord
100
AcDbLinetypeTableRecord
  2
BORDER
 70
    0
  3
Border __ __ . __ __ . __ __ . __ __ . __ __ .
 72
   65
 73
    6
 40
44.45
 49
12.7
 74
    0
 49
-6.35
 74
    0
 49
12.7
 74
    0
 49
-6.35
 74
    0
 49
0
 74
    0
 49
-6.35
 74
    0
  0
LTYPE
  5
43
330
5
100
AcDbSymbolTableRecord
100
AcDbLinetypeTableRecord
  2
BORDERTINY
 70
    0
  3
Border (.15x) __.__.__.__.__.__.__.__.__.__.__.
 72
   65
 73
    6
 40
6.6675
 49
1.905
 74
    0
 49
-0.9525
 74
    0
 49
1.905
 74
    0
 49
-0.9525
 74
    0
 49
0
 74
    0
 49
-0.9525
 74
    0
  0
LTYPE
  5
44
330
5
100
AcDbSymbolTableRecord
100
AcDbLinetypeTableRecord
  2
BORDER2
 70
    0
  3
Border (.5x) __.__.__.__.__.__.__.__.__.__.__.
 72
   65
 73
    6
 40
22.225
 49
6.35
 74
    0
 49
-3.175
 74
    0
 49
6.35
 74
    0
 49
-3.175
 74
    0
 49
0
 74
    0
 49
-3.175
 74
    0
  0
LTYPE
  5
45
330
5
100
AcDbSymbolTableRecord
100
AcDbLinetypeTableRecord
  2
BORDERX2
 70
    0
  3
Border (2x) ____  ____  .  ____  ____  .  ___
 72
   65
 73
    6
 40
88.89999999999999
 49
25.4
 74
    0
 49
-12.7
 74
    0
 49
25.4
 74
    0
 49
-12.7
 74
    0
 49
0
 74
    0
 49
-12.7
 74
    0
  0
LTYPE
  5
46
330
5
100
AcDbSymbolTableRecord
100
AcDbLinetypeTableRecord
  2
CENTER
 70
    0
  3
Center ____ _ ____ _ ____ _ ____ _ ____ _ ____
 72
   65
 73
    4
 40
50.8
 49
31.75
 74
    0
 49
-6.35
 74
    0
 49
6.35
 74
    0
 49
-6.35
 74
    0
  0
LTYPE
  5
47
330
5
100
AcDbSymbolTableRecord
100
AcDbLinetypeTableRecord
  2
CENTERTINY
 70
    0
  3
Center (.15x) ___ _ ___ _ ___ _ ___ _ ___ _ ___
 72
   65
 73
    4
 40
7.619999999999999
 49
4.7625
 74
    0
 49
-0.9525
 74
    0
 49
0.9525
 74
    0
 49
-0.9525
 74
    0
  0
LTYPE
  5
48
330
5
100
AcDbSymbolTableRecord
100
AcDbLinetypeTableRecord
  2
CENTER2
 70
    0
  3
Center (.5x) ___ _ ___ _ ___ _ ___ _ ___ _ ___
 72
   65
 73
    4
 40
28.575
 49
19.05
 74
    0
 49
-3.175
 74
    0
 49
3.175
 74
    0
 49
-3.175
 74
    0
  0
LTYPE
  5
49
330
5
100
AcDbSymbolTableRecord
100
AcDbLinetypeTableRecord
  2
CENTERX2
 70
    0
  3
Center (2x) ________  __  ________  __  _____
 72
   65
 73
    4
 40
101.6
 49
63.5
 74
    0
 49
-12.7
 74
    0
 49
12.7
 74
    0
 49
-12.7
 74
    0
  0
ENDTAB
  0
TABLE
  2
LAYER
  5
2
330
0
100
AcDbSymbolTable
 70
    1
  0
LAYER
  5
10
330
2
100
AcDbSymbolTableRecord
100
AcDbLayerTableRecord
  2
0
 70
    0
 62
    7
  6
CONTINUOUS
370
   -3
390
F
  0
LAYER
  5
4A
330
2
100
AcDbSymbolTableRecord
100
AcDbLayerTableRecord
  2
Layer_1
 70
    0
 62
    7
  6
CONTINUOUS
370
   -3
390
F
  0
ENDTAB
  0
TABLE
  2
STYLE
  5
3
330
0
100
AcDbSymbolTable
 70
    3
  0
STYLE
  5
4B
330
2
100
AcDbSymbolTableRecord
100
AcDbTextStyleTableRecord
  2
Standard
 70
    0
 40
0
 41
1
 50
0
 71
    0
 42
1
  3
txt
  4

  0
ENDTAB
  0
TABLE
  2
VIEW
  5
6
330
0
100
AcDbSymbolTable
 70
    0
  0
ENDTAB
  0
TABLE
  2
UCS
  5
7
330
0
100
AcDbSymbolTable
 70
    0
  0
ENDTAB
  0
TABLE
  2
APPID
  5
9
330
0
100
AcDbSymbolTable
 70
    1
  0
APPID
  5
12
330
9
100
AcDbSymbolTableRecord
100
AcDbRegAppTableRecord
  2
ACAD
 70
    0
  0
APPID
  5
4C
330
9
100
AcDbSymbolTableRecord
100
AcDbRegAppTableRecord
  2
LibreCad
 70
    0
  0
ENDTAB
  0
TABLE
  2
DIMSTYLE
  5
A
330
0
100
AcDbSymbolTable
 70
    1
100
AcDbDimStyleTable
 71
    1
  0
DIMSTYLE
105
4D
330
A
100
AcDbSymbolTableRecord
100
AcDbDimStyleTableRecord
  2
Standard
 70
    0
 40
2.5
 41
2.5
 42
0.625
 43
0.38
 44
1.25
 45
0
 46
0
 47
0
 48
0
 49
1
140
2.5
141
0.09
142
0
143
25.4
144
1
145
0
146
1
147
0.625
148
0
 71
    0
 72
    0
 73
    0
 74
    1
 75
    0
 76
    0
 77
    0
 78
    8
 79
    0
170
    0
171
    2
172
    0
173
    0
174
    0
175
    0
176
    0
177
    0
178
    0
179
    0
271
    2
272
    4
273
    2
274
    2
275
    0
276
    0
277
    2
278
   44
279
    0
280
    0
281
    0
282
    0
283
    1
284
    0
285
    0
286
    0
288
    0
289
    3
340
STANDARD
341

371
   -2
372
   -2
  0
ENDTAB
  0
TABLE
  2
BLOCK_RECORD
  5
1
330
0
100
AcDbSymbolTable
 70
    2
  0
BLOCK_RECORD
  5
1F
330
1
100
AcDbSymbolTableRecord
100
AcDbBlockTableRecord
  2
*Model_Space
 70
    0
280
    1
281
    0
  0
BLOCK_RECORD
  5
1E
330
1
100
AcDbSymbolTableRecord
100
AcDbBlockTableRecord
  2
*Paper_Space
 70
    0
280
    1
281
    0
  0
ENDTAB
  0
ENDSEC
  0
SECTION
  2
BLOCKS
  0
BLOCK
  5
20
330
1F
100
AcDbEntity
  8
0
100
AcDbBlockBegin
  2
*Model_Space
 70
    0
 10
0
 20
0
 30
0
  3
*Model_Space
  1

  0
ENDBLK
  5
21
330
1F
100
AcDbEntity
  8
0
100
AcDbBlockEnd
  0
BLOCK
  5
1C
330
1B
100
AcDbEntity
  8
0
100
AcDbBlockBegin
  2
*Paper_Space
 70
    0
 10
0
 20
0
 30
0
  3
*Paper_Space
  1

  0
ENDBLK
  5
1D
330
1F
100
AcDbEntity
  8
0
100
AcDbBlockEnd
  0
ENDSEC
  0
SECTION
  2
ENTITIES
  0
SPLINE
  5
4E
100
AcDbEntity
  8
Layer_1
  6
ByLayer
 62
    1
370
   -1
100
AcDbSpline
210
0
220
0
230
0
 70
    8
 71
    3
 72
    8
 73
    4
 74
    0
 42
1e-07
 43
1e-07
 40
0
 40
0
 40
0
 40
0
 40
1
 40
1
 40
1
 40
1
 10
6.4030575
 20
49.18140927121771
 30
0
 10
6.4030575
 20
49.74604677121771
 30
0
 10
6.1018265
 20
50.26779527121771
 30
0
 10
5.612838
 20
50.55011227121771
 30
0
  0
SPLINE
  5
4F
100
AcDbEntity
  8
Layer_1
  6
ByLayer
 62
    1
370
   -1
100
AcDbSpline
210
0
220
0
230
0
 70
    8
 71
    3
 72
    8
 73
    4
 74
    0
 42
1e-07
 43
1e-07
 40
0
 40
0
 40
0
 40
0
 40
1
 40
1
 40
1
 40
1
 10
5.612838
 20
50.55011227121771
 30
0
 10
5.123846
 20
50.83243277121771
 30
0
 10
4.521384
 20
50.83243277121771
 30
0
 10
4.032392
 20
50.55011227121771
 30
0
  0
SPLINE
  5
50
100
AcDbEntity
  8
Layer_1
  6
ByLayer
 62
    1
370
   -1
100
AcDbSpline
210
0
220
0
230
0
 70
    8
 71
    3
 72
    8
 73
    4
 74
    0
 42
1e-07
 43
1e-07
 40
0
 40
0
 40
0
 40
0
 40
1
 40
1
 40
1
 40
1
 10
4.032392
 20
50.55011227121771
 30
0
 10
3.5434
 20
50.26779527121771
 30
0
 10
3.242169
 20
49.74604677121771
 30
0
 10
3.242169
 20
49.18140927121771
 30
0
  0
SPLINE
  5
51
100
AcDbEntity
  8
Layer_1
  6
ByLayer
 62
    1
370
   -1
100
AcDbSpline
210
0
220
0
230
0
 70
    8
 71
    3
 72
    8
 73
    4
 74
    0
 42
1e-07
 43
1e-07
 40
0
 40
0
 40
0
 40
0
 40
1
 40
1
 40
1
 40
1
 10
3.242169
 20
49.18140927121771
 30
0
 10
3.242169
 20
48.61676827121771
 30
0
 10
3.5434
 20
48.09502327121771
 30
0
 10
4.032392
 20
47.81270277121771
 30
0
  0
SPLINE
  5
52
100
AcDbEntity
  8
Layer_1
  6
ByLayer
 62
    1
370
   -1
100
AcDbSpline
210
0
220
0
230
0
 70
    8
 71
    3
 72
    8
 73
    4
 74
    0
 42
1e-07
 43
1e-07
 40
0
 40
0
 40
0
 40
0
 40
1
 40
1
 40
1
 40
1
 10
4.032392
 20
47.81270277121771
 30
0
 10
4.521384
 20
47.53038227121771
 30
0
 10
5.123846
 20
47.53038227121771
 30
0
 10
5.612838
 20
47.81270277121771
 30
0
  0
SPLINE
  5
53
100
AcDbEntity
  8
Layer_1
  6
ByLayer
 62
    1
370
   -1
100
AcDbSpline
210
0
220
0
230
0
 70
    8
 71
    3
 72
    8
 73
    4
 74
    0
 42
1e-07
 43
1e-07
 40
0
 40
0
 40
0
 40
0
 40
1
 40
1
 40
1
 40
1
 10
5.612838
 20
47.81270277121771
 30
0
 10
6.1018265
 20
48.09502327121771
 30
0
 10
6.4030575
 20
48.61676827121771
 30
0
 10
6.4030575
 20
49.18140927121771
 30
0
  0
SPLINE
  5
54
100
AcDbEntity
  8
Layer_1
  6
ByLayer
 62
    1
370
   -1
100
AcDbSpline
210
0
220
0
230
0
 70
    8
 71
    3
 72
    8
 73
    4
 74
    0
 42
1e-07
 43
1e-07
 40
0
 40
0
 40
0
 40
0
 40
1
 40
1
 40
1
 40
1
 10
101.723615
 20
49.18140927121771
 30
0
 10
101.723895
 20
49.74623577121771
 30
0
 10
101.422727
 20
50.26827827121771
 30
0
 10
100.9336195
 20
50.55077027121771
 30
0
  0
SPLINE
  5
55
100
AcDbEntity
  8
Layer_1
  6
ByLayer
 62
    1
370
   -1
100
AcDbSpline
210
0
220
0
230
0
 70
    8
 71
    3
 72
    8
 73
    4
 74
    0
 42
1e-07
 43
1e-07
 40
0
 40
0
 40
0
 40
0
 40
1
 40
1
 40
1
 40
1
 10
100.9336195
 20
50.55077027121771
 30
0
 10
100.444512
 20
50.83326577121771
 30
0
 10
99.841826
 20
50.83326577121771
 30
0
 10
99.35271849999999
 20
50.55077027121771
 30
0
  0
SPLINE
  5
56
100
AcDbEntity
  8
Layer_1
  6
ByLayer
 62
    1
370
   -1
100
AcDbSpline
210
0
220
0
230
0
 70
    8
 71
    3
 72
    8
 73
    4
 74
    0
 42
1e-07
 43
1e-07
 40
0
 40
0
 40
0
 40
0
 40
1
 40
1
 40
1
 40
1
 10
99.35271849999999
 20
50.55077027121771
 30
0
 10
98.86361100000001
 20
50.26827827121771
 30
0
 10
98.562443
 20
49.74623577121771
 30
0
 10
98.56272300000001
 20
49.18140927121771
 30
0
  0
SPLINE
  5
57
100
AcDbEntity
  8
Layer_1
  6
ByLayer
 62
    1
370
   -1
100
AcDbSpline
210
0
220
0
230
0
 70
    8
 71
    3
 72
    8
 73
    4
 74
    0
 42
1e-07
 43
1e-07
 40
0
 40
0
 40
0
 40
0
 40
1
 40
1
 40
1
 40
1
 10
98.56272300000001
 20
49.18140927121771
 30
0
 10
98.562443
 20
48.61658277121771
 30
0
 10
98.86361100000001
 20
48.0945402712177
 30
0
 10
99.35271849999999
 20
47.81204477121771
 30
0
  0
SPLINE
  5
58
100
AcDbEntity
  8
Layer_1
  6
ByLayer
 62
    1
370
   -1
100
AcDbSpline
210
0
220
0
230
0
 70
    8
 71
    3
 72
    8
 73
    4
 74
    0
 42
1e-07
 43
1e-07
 40
0
 40
0
 40
0
 40
0
 40
1
 40
1
 40
1
 40
1
 10
99.35271849999999
 20
47.81204477121771
 30
0
 10
99.841826
 20
47.52954927121771
 30
0
 10
100.444512
 20
47.52954927121771
 30
0
 10
100.9336195
 20
47.81204477121771
 30
0
  0
SPLINE
  5
59
100
AcDbEntity
  8
Layer_1
  6
ByLayer
 62
    1
370
   -1
100
AcDbSpline
210
0
220
0
230
0
 70
    8
 71
    3
 72
    8
 73
    4
 74
    0
 42
1e-07
 43
1e-07
 40
0
 40
0
 40
0
 40
0
 40
1
 40
1
 40
1
 40
1
 10
100.9336195
 20
47.81204477121771
 30
0
 10
101.422727
 20
48.0945402712177
 30
0
 10
101.723895
 20
48.61658277121771
 30
0
 10
101.723615
 20
49.18140927121771
 30
0
  0
LWPOLYLINE
  5
5A
100
AcDbEntity
  8
Layer_1
  6
ByLayer
 62
    1
370
   -1
100
AcDbPolyline
 90
    2
 70
    1
 43
0
 10
6.4030575
 20
49.18140927121771
 10
6.4030575
 20
49.18140927121771
  0
SPLINE
  5
5B
100
AcDbEntity
  8
Layer_1
  6
ByLayer
 62
    1
370
   -1
100
AcDbSpline
210
0
220
0
230
0
 70
    8
 71
    3
 72
    8
 73
    4
 74
    0
 42
1e-07
 43
1e-07
 40
0
 40
0
 40
0
 40
0
 40
1
 40
1
 40
1
 40
1
 10
101.723615
 20
2.261952771217712
 30
0
 10
101.723895
 20
2.826779271217712
 30
0
 10
101.422727
 20
3.348821771217712
 30
0
 10
100.9336195
 20
3.631317271217712
 30
0
  0
SPLINE
  5
5C
100
AcDbEntity
  8
Layer_1
  6
ByLayer
 62
    1
370
   -1
100
AcDbSpline
210
0
220
0
230
0
 70
    8
 71
    3
 72
    8
 73
    4
 74
    0
 42
1e-07
 43
1e-07
 40
0
 40
0
 40
0
 40
0
 40
1
 40
1
 40
1
 40
1
 10
100.9336195
 20
3.631317271217712
 30
0
 10
100.444512
 20
3.913812771217712
 30
0
 10
99.841826
 20
3.913812771217712
 30
0
 10
99.35271849999999
 20
3.631317271217712
 30
0
  0
SPLINE
  5
5D
100
AcDbEntity
  8
Layer_1
  6
ByLayer
 62
    1
370
   -1
100
AcDbSpline
210
0
220
0
230
0
 70
    8
 71
    3
 72
    8
 73
    4
 74
    0
 42
1e-07
 43
1e-07
 40
0
 40
0
 40
0
 40
0
 40
1
 40
1
 40
1
 40
1
 10
99.35271849999999
 20
3.631317271217712
 30
0
 10
98.86361100000001
 20
3.348821771217712
 30
0
 10
98.562443
 20
2.826779271217712
 30
0
 10
98.56272300000001
 20
2.261952771217712
 30
0
  0
SPLINE
  5
5E
100
AcDbEntity
  8
Layer_1
  6
ByLayer
 62
    1
370
   -1
100
AcDbSpline
210
0
220
0
230
0
 70
    8
 71
    3
 72
    8
 73
    4
 74
    0
 42
1e-07
 43
1e-07
 40
0
 40
0
 40
0
 40
0
 40
1
 40
1
 40
1
 40
1
 10
98.56272300000001
 20
2.261952771217712
 30
0
 10
98.562443
 20
1.697126271217712
 30
0
 10
98.86361100000001
 20
1.175083771217712
 30
0
 10
99.35271849999999
 20
0.8925882712177122
 30
0
  0
SPLINE
  5
5F
100
AcDbEntity
  8
Layer_1
  6
ByLayer
 62
    1
370
   -1
100
AcDbSpline
210
0
220
0
230
0
 70
    8
 71
    3
 72
    8
 73
    4
 74
    0
 42
1e-07
 43
1e-07
 40
0
 40
0
 40
0
 40
0
 40
1
 40
1
 40
1
 40
1
 10
99.35271849999999
 20
0.8925882712177122
 30
0
 10
99.841826
 20
0.6100962712177121
 30
0
 10
100.444512
 20
0.6100962712177121
 30
0
 10
100.9336195
 20
0.8925882712177122
 30
0
  0
SPLINE
  5
60
100
AcDbEntity
  8
Layer_1
  6
ByLayer
 62
    1
370
   -1
100
AcDbSpline
210
0
220
0
230
0
 70
    8
 71
    3
 72
    8
 73
    4
 74
    0
 42
1e-07
 43
1e-07
 40
0
 40
0
 40
0
 40
0
 40
1
 40
1
 40
1
 40
1
 10
100.9336195
 20
0.8925882712177122
 30
0
 10
101.422727
 20
1.175083771217712
 30
0
 10
101.723895
 20
1.697126271217712
 30
0
 10
101.723615
 20
2.261952771217712
 30
0
  0
LWPOLYLINE
  5
61
100
AcDbEntity
  8
Layer_1
  6
ByLayer
 62
    1
370
   -1
100
AcDbPolyline
 90
    2
 70
    1
 43
0
 10
101.723615
 20
49.18140927121771
 10
101.723615
 20
49.18140927121771
  0
SPLINE
  5
62
100
AcDbEntity
  8
Layer_1
  6
ByLayer
 62
    1
370
   -1
100
AcDbSpline
210
0
220
0
230
0
 70
    8
 71
    3
 72
    8
 73
    4
 74
    0
 42
1e-07
 43
1e-07
 40
0
 40
0
 40
0
 40
0
 40
1
 40
1
 40
1
 40
1
 10
6.4030575
 20
2.261952771217712
 30
0
 10
6.4030575
 20
2.826593771217713
 30
0
 10
6.1018265
 20
3.348338771217712
 30
0
 10
5.612838
 20
3.630659271217713
 30
0
  0
SPLINE
  5
63
100
AcDbEntity
  8
Layer_1
  6
ByLayer
 62
    1
370
   -1
100
AcDbSpline
210
0
220
0
230
0
 70
    8
 71
    3
 72
    8
 73
    4
 74
    0
 42
1e-07
 43
1e-07
 40
0
 40
0
 40
0
 40
0
 40
1
 40
1
 40
1
 40
1
 10
5.612838
 20
3.630659271217713
 30
0
 10
5.123846
 20
3.912979771217712
 30
0
 10
4.521384
 20
3.912979771217712
 30
0
 10
4.032392
 20
3.630659271217713
 30
0
  0
SPLINE
  5
64
100
AcDbEntity
  8
Layer_1
  6
ByLayer
 62
    1
370
   -1
100
AcDbSpline
210
0
220
0
230
0
 70
    8
 71
    3
 72
    8
 73
    4
 74
    0
 42
1e-07
 43
1e-07
 40
0
 40
0
 40
0
 40
0
 40
1
 40
1
 40
1
 40
1
 10
4.032392
 20
3.630659271217713
 30
0
 10
3.5434
 20
3.348338771217712
 30
0
 10
3.242169
 20
2.826593771217713
 30
0
 10
3.242169
 20
2.261952771217712
 30
0
  0
SPLINE
  5
65
100
AcDbEntity
  8
Layer_1
  6
ByLayer
 62
    1
370
   -1
100
AcDbSpline
210
0
220
0
230
0
 70
    8
 71
    3
 72
    8
 73
    4
 74
    0
 42
1e-07
 43
1e-07
 40
0
 40
0
 40
0
 40
0
 40
1
 40
1
 40
1
 40
1
 10
3.242169
 20
2.261952771217712
 30
0
 10
3.242169
 20
1.697315271217712
 30
0
 10
3.5434
 20
1.175566771217712
 30
0
 10
4.032392
 20
0.8932497712177121
 30
0
  0
SPLINE
  5
66
100
AcDbEntity
  8
Layer_1
  6
ByLayer
 62
    1
370
   -1
100
AcDbSpline
210
0
220
0
230
0
 70
    8
 71
    3
 72
    8
 73
    4
 74
    0
 42
1e-07
 43
1e-07
 40
0
 40
0
 40
0
 40
0
 40
1
 40
1
 40
1
 40
1
 10
4.032392
 20
0.8932497712177121
 30
0
 10
4.521384
 20
0.610929271217712
 30
0
 10
5.123846
 20
0.610929271217712
 30
0
 10
5.612838
 20
0.8932497712177121
 30
0
  0
SPLINE
  5
67
100
AcDbEntity
  8
Layer_1
  6
ByLayer
 62
    1
370
   -1
100
AcDbSpline
210
0
220
0
230
0
 70
    8
 71
    3
 72
    8
 73
    4
 74
    0
 42
1e-07
 43
1e-07
 40
0
 40
0
 40
0
 40
0
 40
1
 40
1
 40
1
 40
1
 10
5.612838
 20
0.8932497712177121
 30
0
 10
6.1018265
 20
1.175566771217712
 30
0
 10
6.4030575
 20
1.697315271217712
 30
0
 10
6.4030575
 20
2.261952771217712
 30
0
  0
LWPOLYLINE
  5
68
100
AcDbEntity
  8
Layer_1
  6
ByLayer
 62
    1
370
   -1
100
AcDbPolyline
 90
    2
 70
    1
 43
0
 10
101.723615
 20
2.261952771217712
 10
101.723615
 20
2.261952771217712
  0
LWPOLYLINE
  5
69
100
AcDbEntity
  8
Layer_1
  6
ByLayer
 62
    1
370
   -1
100
AcDbPolyline
 90
    2
 70
    1
 43
0
 10
6.4030575
 20
2.261952771217712
 10
6.4030575
 20
2.261952771217712
  0
SPLINE
  5
6A
100
AcDbEntity
  8
Layer_1
  6
ByLayer
 62
    1
370
   -1
100
AcDbSpline
210
0
220
0
230
0
 70
    8
 71
    3
 72
    8
 73
    4
 74
    0
 42
1e-07
 43
1e-07
 40
0
 40
0
 40
0
 40
0
 40
1
 40
1
 40
1
 40
1
 10
13.6879225
 20
12.53484477121771
 30
0
 10
13.68822
 20
13.81430477121771
 30
0
 10
13.005811
 20
14.99670277121771
 30
0
 10
11.897816
 20
15.63652027121771
 30
0
  0
SPLINE
  5
6B
100
AcDbEntity
  8
Layer_1
  6
ByLayer
 62
    1
370
   -1
100
AcDbSpline
210
0
220
0
230
0
 70
    8
 71
    3
 72
    8
 73
    4
 74
    0
 42
1e-07
 43
1e-07
 40
0
 40
0
 40
0
 40
0
 40
1
 40
1
 40
1
 40
1
 10
11.897816
 20
15.63652027121771
 30
0
 10
10.789821
 20
16.27633427121771
 30
0
 10
9.424628499999999
 20
16.27633427121771
 30
0
 10
8.316637
 20
15.63652027121771
 30
0
  0
SPLINE
  5
6C
100
AcDbEntity
  8
Layer_1
  6
ByLayer
 62
    1
370
   -1
100
AcDbSpline
210
0
220
0
230
0
 70
    8
 71
    3
 72
    8
 73
    4
 74
    0
 42
1e-07
 43
1e-07
 40
0
 40
0
 40
0
 40
0
 40
1
 40
1
 40
1
 40
1
 10
8.316637
 20
15.63652027121771
 30
0
 10
7.208642
 20
14.99670277121771
 30
0
 10
6.5262295
 20
13.81430477121771
 30
0
 10
6.5265305
 20
12.53484477121771
 30
0
  0
SPLINE
  5
6D
100
AcDbEntity
  8
Layer_1
  6
ByLayer
 62
    1
370
   -1
100
AcDbSpline
210
0
220
0
230
0
 70
    8
 71
    3
 72
    8
 73
    4
 74
    0
 42
1e-07
 43
1e-07
 40
0
 40
0
 40
0
 40
0
 40
1
 40
1
 40
1
 40
1
 10
6.5265305
 20
12.53484477121771
 30
0
 10
6.5262295
 20
11.25538477121771
 30
0
 10
7.208642
 20
10.07298677121771
 30
0
 10
8.316637
 20
9.433172771217713
 30
0
  0
SPLINE
  5
6E
100
AcDbEntity
  8
Layer_1
  6
ByLayer
 62
    1
370
   -1
100
AcDbSpline
210
0
220
0
230
0
 70
    8
 71
    3
 72
    8
 73
    4
 74
    0
 42
1e-07
 43
1e-07
 40
0
 40
0
 40
0
 40
0
 40
1
 40
1
 40
1
 40
1
 10
8.316637
 20
9.433172771217713
 30
0
 10
9.424628499999999
 20
8.793355271217713
 30
0
 10
10.789821
 20
8.793355271217713
 30
0
 10
11.897816
 20
9.433172771217713
 30
0
  0
SPLINE
  5
6F
100
AcDbEntity
  8
Layer_1
  6
ByLayer
 62
    1
370
   -1
100
AcDbSpline
210
0
220
0
230
0
 70
    8
 71
    3
 72
    8
 73
    4
 74
    0
 42
1e-07
 43
1e-07
 40
0
 40
0
 40
0
 40
0
 40
1
 40
1
 40
1
 40
1
 10
11.897816
 20
9.433172771217713
 30
0
 10
13.005811
 20
10.07298677121771
 30
0
 10
13.68822
 20
11.25538477121771
 30
0
 10
13.6879225
 20
12.53484477121771
 30
0
  0
LWPOLYLINE
  5
70
100
AcDbEntity
  8
Layer_1
  6
ByLayer
 62
    5
370
   -1
100
AcDbPolyline
 90
   13
 70
    1
 43
0
 10
0.130669
 20
52.88556777121771
 10
0.130669
 20
42.51382877121771
 10
1.1184495
 20
42.51390927121771
 10
1.1184495
 20
8.929449271217713
 10
0.130669
 20
8.929533271217712
 10
0.130669
 20
-1.442205728782288
 10
104.835115
 20
-1.442205728782288
 10
104.835115
 20
8.929533271217712
 10
103.8473345
 20
8.929449271217713
 10
103.8473345
 20
42.51390927121771
 10
104.835115
 20
42.51382877121771
 10
104.835115
 20
52.88556777121771
 10
0.130669
 20
52.88556777121771
  0
SPLINE
  5
71
100
AcDbEntity
  8
Layer_1
  6
ByLayer
 62
    1
370
   -1
100
AcDbSpline
210
0
220
0
230
0
 70
    8
 71
    3
 72
    8
 73
    4
 74
    0
 42
1e-07
 43
1e-07
 40
0
 40
0
 40
0
 40
0
 40
1
 40
1
 40
1
 40
1
 10
95.30305749999999
 20
8.68252777121771
 30
0
 10
95.303355
 20
9.917870271217714
 30
0
 10
94.6444765
 20
11.05950027121771
 30
0
 10
93.574684
 20
11.67725727121771
 30
0
  0
SPLINE
  5
72
100
AcDbEntity
  8
Layer_1
  6
ByLayer
 62
    1
370
   -1
100
AcDbSpline
210
0
220
0
230
0
 70
    8
 71
    3
 72
    8
 73
    4
 74
    0
 42
1e-07
 43
1e-07
 40
0
 40
0
 40
0
 40
0
 40
1
 40
1
 40
1
 40
1
 10
93.574684
 20
11.67725727121771
 30
0
 10
92.504895
 20
12.29501427121771
 30
0
 10
91.186774
 20
12.29501427121771
 30
0
 10
90.116985
 20
11.67725727121771
 30
0
  0
SPLINE
  5
73
100
AcDbEntity
  8
Layer_1
  6
ByLayer
 62
    1
370
   -1
100
AcDbSpline
210
0
220
0
230
0
 70
    8
 71
    3
 72
    8
 73
    4
 74
    0
 42
1e-07
 43
1e-07
 40
0
 40
0
 40
0
 40
0
 40
1
 40
1
 40
1
 40
1
 10
90.116985
 20
11.67725727121771
 30
0
 10
89.047196
 20
11.05950027121771
 30
0
 10
88.3883175
 20
9.917870271217714
 30
0
 10
88.38861499999999
 20
8.68252777121771
 30
0
  0
SPLINE
  5
74
100
AcDbEntity
  8
Layer_1
  6
ByLayer
 62
    1
370
   -1
100
AcDbSpline
210
0
220
0
230
0
 70
    8
 71
    3
 72
    8
 73
    4
 74
    0
 42
1e-07
 43
1e-07
 40
0
 40
0
 40
0
 40
0
 40
1
 40
1
 40
1
 40
1
 10
88.38861499999999
 20
8.68252777121771
 30
0
 10
88.38861499999999
 20
7.447381271217712
 30
0
 10
89.0475565
 20
6.306059271217713
 30
0
 10
90.117223
 20
5.688484271217712
 30
0
  0
SPLINE
  5
75
100
AcDbEntity
  8
Layer_1
  6
ByLayer
 62
    1
370
   -1
100
AcDbSpline
210
0
220
0
230
0
 70
    8
 71
    3
 72
    8
 73
    4
 74
    0
 42
1e-07
 43
1e-07
 40
0
 40
0
 40
0
 40
0
 40
1
 40
1
 40
1
 40
1
 10
90.117223
 20
5.688484271217712
 30
0
 10
91.186893
 20
5.070912771217712
 30
0
 10
92.5047795
 20
5.070912771217712
 30
0
 10
93.57444599999999
 20
5.688484271217712
 30
0
  0
SPLINE
  5
76
100
AcDbEntity
  8
Layer_1
  6
ByLayer
 62
    1
370
   -1
100
AcDbSpline
210
0
220
0
230
0
 70
    8
 71
    3
 72
    8
 73
    4
 74
    0
 42
1e-07
 43
1e-07
 40
0
 40
0
 40
0
 40
0
 40
1
 40
1
 40
1
 40
1
 10
93.57444599999999
 20
5.688484271217712
 30
0
 10
94.644116
 20
6.306059271217713
 30
0
 10
95.30305749999999
 20
7.447381271217712
 30
0
 10
95.30305749999999
 20
8.68252777121771
 30
0
  0
LWPOLYLINE
  5
77
100
AcDbEntity
  8
Layer_1
  6
ByLayer
 62
    1
370
   -1
100
AcDbPolyline
 90
    2
 70
    1
 43
0
 10
13.6879225
 20
12.53484477121771
 10
13.6879225
 20
12.53484477121771
  0
SPLINE
  5
78
100
AcDbEntity
  8
Layer_1
  6
ByLayer
 62
    1
370
   -1
100
AcDbSpline
210
0
220
0
230
0
 70
    8
 71
    3
 72
    8
 73
    4
 74
    0
 42
1e-07
 43
1e-07
 40
0
 40
0
 40
0
 40
0
 40
1
 40
1
 40
1
 40
1
 10
44.580669
 20
6.213060771217712
 30
0
 10
44.5808265
 20
6.566067271217713
 30
0
 10
44.392593
 20
6.892323271217712
 30
0
 10
44.0869065
 20
7.068870271217713
 30
0
  0
SPLINE
  5
79
100
AcDbEntity
  8
Layer_1
  6
ByLayer
 62
    1
370
   -1
100
AcDbSpline
210
0
220
0
230
0
 70
    8
 71
    3
 72
    8
 73
    4
 74
    0
 42
1e-07
 43
1e-07
 40
0
 40
0
 40
0
 40
0
 40
1
 40
1
 40
1
 40
1
 10
44.0869065
 20
7.068870271217713
 30
0
 10
43.7812235
 20
7.245417271217712
 30
0
 10
43.4045605
 20
7.245417271217712
 30
0
 10
43.098874
 20
7.068870271217713
 30
0
  0
SPLINE
  5
7A
100
AcDbEntity
  8
Layer_1
  6
ByLayer
 62
    1
370
   -1
100
AcDbSpline
210
0
220
0
230
0
 70
    8
 71
    3
 72
    8
 73
    4
 74
    0
 42
1e-07
 43
1e-07
 40
0
 40
0
 40
0
 40
0
 40
1
 40
1
 40
1
 40
1
 10
43.098874
 20
7.068870271217713
 30
0
 10
42.793191
 20
6.892323271217712
 30
0
 10
42.604954
 20
6.566067271217713
 30
0
 10
42.605115
 20
6.213060771217712
 30
0
  0
SPLINE
  5
7B
100
AcDbEntity
  8
Layer_1
  6
ByLayer
 62
    1
370
   -1
100
AcDbSpline
210
0
220
0
230
0
 70
    8
 71
    3
 72
    8
 73
    4
 74
    0
 42
1e-07
 43
1e-07
 40
0
 40
0
 40
0
 40
0
 40
1
 40
1
 40
1
 40
1
 10
42.605115
 20
6.213060771217712
 30
0
 10
42.604954
 20
5.860057771217711
 30
0
 10
42.793191
 20
5.533801771217711
 30
0
 10
43.098874
 20
5.357251271217713
 30
0
  0
SPLINE
  5
7C
100
AcDbEntity
  8
Layer_1
  6
ByLayer
 62
    1
370
   -1
100
AcDbSpline
210
0
220
0
230
0
 70
    8
 71
    3
 72
    8
 73
    4
 74
    0
 42
1e-07
 43
1e-07
 40
0
 40
0
 40
0
 40
0
 40
1
 40
1
 40
1
 40
1
 10
43.098874
 20
5.357251271217713
 30
0
 10
43.4045605
 20
5.180704271217712
 30
0
 10
43.7812235
 20
5.180704271217712
 30
0
 10
44.0869065
 20
5.357251271217713
 30
0
  0
SPLINE
  5
7D
100
AcDbEntity
  8
Layer_1
  6
ByLayer
 62
    1
370
   -1
100
AcDbSpline
210
0
220
0
230
0
 70
    8
 71
    3
 72
    8
 73
    4
 74
    0
 42
1e-07
 43
1e-07
 40
0
 40
0
 40
0
 40
0
 40
1
 40
1
 40
1
 40
1
 10
44.0869065
 20
5.357251271217713
 30
0
 10
44.392593
 20
5.533801771217711
 30
0
 10
44.5808265
 20
5.860057771217711
 30
0
 10
44.580669
 20
6.213060771217712
 30
0
  0
LWPOLYLINE
  5
7E
100
AcDbEntity
  8
Layer_1
  6
ByLayer
 62
    1
370
   -1
100
AcDbPolyline
 90
    2
 70
    1
 43
0
 10
95.30305749999999
 20
8.68252777121771
 10
95.30305749999999
 20
8.68252777121771
  0
SPLINE
  5
7F
100
AcDbEntity
  8
Layer_1
  6
ByLayer
 62
    1
370
   -1
100
AcDbSpline
210
0
220
0
230
0
 70
    8
 71
    3
 72
    8
 73
    4
 74
    0
 42
1e-07
 43
1e-07
 40
0
 40
0
 40
0
 40
0
 40
1
 40
1
 40
1
 40
1
 10
50.5073345
 20
6.213060771217712
 30
0
 10
50.507492
 20
6.566067271217713
 30
0
 10
50.3192585
 20
6.892323271217712
 30
0
 10
50.0135755
 20
7.068870271217713
 30
0
  0
SPLINE
  5
80
100
AcDbEntity
  8
Layer_1
  6
ByLayer
 62
    1
370
   -1
100
AcDbSpline
210
0
220
0
230
0
 70
    8
 71
    3
 72
    8
 73
    4
 74
    0
 42
1e-07
 43
1e-07
 40
0
 40
0
 40
0
 40
0
 40
1
 40
1
 40
1
 40
1
 10
50.0135755
 20
7.068870271217713
 30
0
 10
49.707889
 20
7.245417271217712
 30
0
 10
49.331226
 20
7.245417271217712
 30
0
 10
49.025543
 20
7.068870271217713
 30
0
  0
SPLINE
  5
81
100
AcDbEntity
  8
Layer_1
  6
ByLayer
 62
    1
370
   -1
100
AcDbSpline
210
0
220
0
230
0
 70
    8
 71
    3
 72
    8
 73
    4
 74
    0
 42
1e-07
 43
1e-07
 40
0
 40
0
 40
0
 40
0
 40
1
 40
1
 40
1
 40
1
 10
49.025543
 20
7.068870271217713
 30
0
 10
48.7198565
 20
6.892323271217712
 30
0
 10
48.531623
 20
6.566067271217713
 30
0
 10
48.5317805
 20
6.213060771217712
 30
0
  0
SPLINE
  5
82
100
AcDbEntity
  8
Layer_1
  6
ByLayer
 62
    1
370
   -1
100
AcDbSpline
210
0
220
0
230
0
 70
    8
 71
    3
 72
    8
 73
    4
 74
    0
 42
1e-07
 43
1e-07
 40
0
 40
0
 40
0
 40
0
 40
1
 40
1
 40
1
 40
1
 10
48.5317805
 20
6.213060771217712
 30
0
 10
48.531623
 20
5.860057771217711
 30
0
 10
48.7198565
 20
5.533801771217711
 30
0
 10
49.025543
 20
5.357251271217713
 30
0
  0
SPLINE
  5
83
100
AcDbEntity
  8
Layer_1
  6
ByLayer
 62
    1
370
   -1
100
AcDbSpline
210
0
220
0
230
0
 70
    8
 71
    3
 72
    8
 73
    4
 74
    0
 42
1e-07
 43
1e-07
 40
0
 40
0
 40
0
 40
0
 40
1
 40
1
 40
1
 40
1
 10
49.025543
 20
5.357251271217713
 30
0
 10
49.331226
 20
5.180704271217712
 30
0
 10
49.707889
 20
5.180704271217712
 30
0
 10
50.0135755
 20
5.357251271217713
 30
0
  0
SPLINE
  5
84
100
AcDbEntity
  8
Layer_1
  6
ByLayer
 62
    1
370
   -1
100
AcDbSpline
210
0
220
0
230
0
 70
    8
 71
    3
 72
    8
 73
    4
 74
    0
 42
1e-07
 43
1e-07
 40
0
 40
0
 40
0
 40
0
 40
1
 40
1
 40
1
 40
1
 10
50.0135755
 20
5.357251271217713
 30
0
 10
50.3192585
 20
5.533801771217711
 30
0
 10
50.507492
 20
5.860057771217711
 30
0
 10
50.5073345
 20
6.213060771217712
 30
0
  0
LWPOLYLINE
  5
85
100
AcDbEntity
  8
Layer_1
  6
ByLayer
 62
    1
370
   -1
100
AcDbPolyline
 90
    2
 70
    1
 43
0
 10
44.580669
 20
6.213060771217712
 10
44.580669
 20
6.213060771217712
  0
SPLINE
  5
86
100
AcDbEntity
  8
Layer_1
  6
ByLayer
 62
    1
370
   -1
100
AcDbSpline
210
0
220
0
230
0
 70
    8
 71
    3
 72
    8
 73
    4
 74
    0
 42
1e-07
 43
1e-07
 40
0
 40
0
 40
0
 40
0
 40
1
 40
1
 40
1
 40
1
 10
56.4340035
 20
6.213060771217712
 30
0
 10
56.434161
 20
6.566067271217713
 30
0
 10
56.245924
 20
6.892323271217712
 30
0
 10
55.940241
 20
7.068870271217713
 30
0
  0
SPLINE
  5
87
100
AcDbEntity
  8
Layer_1
  6
ByLayer
 62
    1
370
   -1
100
AcDbSpline
210
0
220
0
230
0
 70
    8
 71
    3
 72
    8
 73
    4
 74
    0
 42
1e-07
 43
1e-07
 40
0
 40
0
 40
0
 40
0
 40
1
 40
1
 40
1
 40
1
 10
55.940241
 20
7.068870271217713
 30
0
 10
55.634558
 20
7.245417271217712
 30
0
 10
55.2578915
 20
7.245417271217712
 30
0
 10
54.9522085
 20
7.068870271217713
 30
0
  0
SPLINE
  5
88
100
AcDbEntity
  8
Layer_1
  6
ByLayer
 62
    1
370
   -1
100
AcDbSpline
210
0
220
0
230
0
 70
    8
 71
    3
 72
    8
 73
    4
 74
    0
 42
1e-07
 43
1e-07
 40
0
 40
0
 40
0
 40
0
 40
1
 40
1
 40
1
 40
1
 10
54.9522085
 20
7.068870271217713
 30
0
 10
54.6465255
 20
6.892323271217712
 30
0
 10
54.4582885
 20
6.566067271217713
 30
0
 10
54.458446
 20
6.213060771217712
 30
0
  0
SPLINE
  5
89
100
AcDbEntity
  8
Layer_1
  6
ByLayer
 62
    1
370
   -1
100
AcDbSpline
210
0
220
0
230
0
 70
    8
 71
    3
 72
    8
 73
    4
 74
    0
 42
1e-07
 43
1e-07
 40
0
 40
0
 40
0
 40
0
 40
1
 40
1
 40
1
 40
1
 10
54.458446
 20
6.213060771217712
 30
0
 10
54.4582885
 20
5.860057771217711
 30
0
 10
54.6465255
 20
5.533801771217711
 30
0
 10
54.9522085
 20
5.357251271217713
 30
0
  0
SPLINE
  5
8A
100
AcDbEntity
  8
Layer_1
  6
ByLayer
 62
    1
370
   -1
100
AcDbSpline
210
0
220
0
230
0
 70
    8
 71
    3
 72
    8
 73
    4
 74
    0
 42
1e-07
 43
1e-07
 40
0
 40
0
 40
0
 40
0
 40
1
 40
1
 40
1
 40
1
 10
54.9522085
 20
5.357251271217713
 30
0
 10
55.2578915
 20
5.180704271217712
 30
0
 10
55.634558
 20
5.180704271217712
 30
0
 10
55.940241
 20
5.357251271217713
 30
0
  0
SPLINE
  5
8B
100
AcDbEntity
  8
Layer_1
  6
ByLayer
 62
    1
370
   -1
100
AcDbSpline
210
0
220
0
230
0
 70
    8
 71
    3
 72
    8
 73
    4
 74
    0
 42
1e-07
 43
1e-07
 40
0
 40
0
 40
0
 40
0
 40
1
 40
1
 40
1
 40
1
 10
55.940241
 20
5.357251271217713
 30
0
 10
56.245924
 20
5.533801771217711
 30
0
 10
56.434161
 20
5.860057771217711
 30
0
 10
56.4340035
 20
6.213060771217712
 30
0
  0
LWPOLYLINE
  5
8C
100
AcDbEntity
  8
Layer_1
  6
ByLayer
 62
    1
370
   -1
100
AcDbPolyline
 90
    2
 70
    1
 43
0
 10
50.5073345
 20
6.213060771217712
 10
50.5073345
 20
6.213060771217712
  0
SPLINE
  5
8D
100
AcDbEntity
  8
Layer_1
  6
ByLayer
 62
    1
370
   -1
100
AcDbSpline
210
0
220
0
230
0
 70
    8
 71
    3
 72
    8
 73
    4
 74
    0
 42
1e-07
 43
1e-07
 40
0
 40
0
 40
0
 40
0
 40
1
 40
1
 40
1
 40
1
 10
62.36066899999999
 20
6.213060771217712
 30
0
 10
62.36082649999999
 20
6.566067271217713
 30
0
 10
62.17259300000001
 20
6.892323271217712
 30
0
 10
61.86690650000001
 20
7.068870271217713
 30
0
  0
SPLINE
  5
8E
100
AcDbEntity
  8
Layer_1
  6
ByLayer
 62
    1
370
   -1
100
AcDbSpline
210
0
220
0
230
0
 70
    8
 71
    3
 72
    8
 73
    4
 74
    0
 42
1e-07
 43
1e-07
 40
0
 40
0
 40
0
 40
0
 40
1
 40
1
 40
1
 40
1
 10
61.86690650000001
 20
7.068870271217713
 30
0
 10
61.5612235
 20
7.245417271217712
 30
0
 10
61.1845605
 20
7.245417271217712
 30
0
 10
60.878874
 20
7.068870271217713
 30
0
  0
SPLINE
  5
8F
100
AcDbEntity
  8
Layer_1
  6
ByLayer
 62
    1
370
   -1
100
AcDbSpline
210
0
220
0
230
0
 70
    8
 71
    3
 72
    8
 73
    4
 74
    0
 42
1e-07
 43
1e-07
 40
0
 40
0
 40
0
 40
0
 40
1
 40
1
 40
1
 40
1
 10
60.878874
 20
7.068870271217713
 30
0
 10
60.57319100000001
 20
6.892323271217712
 30
0
 10
60.384954
 20
6.566067271217713
 30
0
 10
60.385115
 20
6.213060771217712
 30
0
  0
SPLINE
  5
90
100
AcDbEntity
  8
Layer_1
  6
ByLayer
 62
    1
370
   -1
100
AcDbSpline
210
0
220
0
230
0
 70
    8
 71
    3
 72
    8
 73
    4
 74
    0
 42
1e-07
 43
1e-07
 40
0
 40
0
 40
0
 40
0
 40
1
 40
1
 40
1
 40
1
 10
60.385115
 20
6.213060771217712
 30
0
 10
60.384954
 20
5.860057771217711
 30
0
 10
60.57319100000001
 20
5.533801771217711
 30
0
 10
60.878874
 20
5.357251271217713
 30
0
  0
SPLINE
  5
91
100
AcDbEntity
  8
Layer_1
  6
ByLayer
 62
    1
370
   -1
100
AcDbSpline
210
0
220
0
230
0
 70
    8
 71
    3
 72
    8
 73
    4
 74
    0
 42
1e-07
 43
1e-07
 40
0
 40
0
 40
0
 40
0
 40
1
 40
1
 40
1
 40
1
 10
60.878874
 20
5.357251271217713
 30
0
 10
61.1845605
 20
5.180704271217712
 30
0
 10
61.5612235
 20
5.180704271217712
 30
0
 10
61.86690650000001
 20
5.357251271217713
 30
0
  0
SPLINE
  5
92
100
AcDbEntity
  8
Layer_1
  6
ByLayer
 62
    1
370
   -1
100
AcDbSpline
210
0
220
0
230
0
 70
    8
 71
    3
 72
    8
 73
    4
 74
    0
 42
1e-07
 43
1e-07
 40
0
 40
0
 40
0
 40
0
 40
1
 40
1
 40
1
 40
1
 10
61.86690650000001
 20
5.357251271217713
 30
0
 10
62.17259300000001
 20
5.533801771217711
 30
0
 10
62.36082649999999
 20
5.860057771217711
 30
0
 10
62.36066899999999
 20
6.213060771217712
 30
0
  0
LWPOLYLINE
  5
93
100
AcDbEntity
  8
Layer_1
  6
ByLayer
 62
    1
370
   -1
100
AcDbPolyline
 90
    2
 70
    1
 43
0
 10
56.4340035
 20
6.213060771217712
 10
56.4340035
 20
6.213060771217712
  0
LWPOLYLINE
  5
94
100
AcDbEntity
  8
Layer_1
  6
ByLayer
 62
    1
370
   -1
100
AcDbPolyline
 90
    2
 70
    1
 43
0
 10
62.36066899999999
 20
6.213060771217712
 10
62.36066899999999
 20
6.213060771217712
  0
LWPOLYLINE
  5
95
100
AcDbEntity
  8
Layer_1
  6
ByLayer
 62
    1
370
   -1
100
AcDbPolyline
 90
    5
 70
    1
 43
0
 10
16.6759495
 20
5.941439771217713
 10
16.6759495
 20
17.54781777121771
 10
34.455946
 20
17.54781777121771
 10
34.455946
 20
5.941439771217713
 10
16.6759495
 20
5.941439771217713
  0
CIRCLE
  5
96
100
AcDbEntity
  8
0
  6
ByLayer
 62
  256
370
   -1
100
AcDbCircle
 10
4.82277874089378
 20
49.1824248460813
 40
1.587123470831444
  0
CIRCLE
  5
97
100
AcDbEntity
  8
0
  6
ByLayer
 62
  256
370
   -1
100
AcDbCircle
 10
100.1343276824612
 20
49.18413489970806
 40
1.581751191015238
  0
CIRCLE
  5
98
100
AcDbEntity
  8
0
  6
ByLayer
 62
  256
370
   -1
100
AcDbCircle
 10
4.820961808915338
 20
2.26111840799461
 40
1.580951257830319
  0
CIRCLE
  5
99
100
AcDbEntity
  8
0
  6
ByLayer
 62
  256
370
   -1
100
AcDbCircle
 10
100.1407403835616
 20
2.267531109094992
 40
1.580222796447888
  0
CIRCLE
  5
9A
100
AcDbEntity
  8
0
  6
ByLayer
 62
  256
370
   -1
100
AcDbCircle
 10
10.112188365192
 20
12.53811319146643
 40
3.584709608718241
  0
CIRCLE
  5
9B
100
AcDbEntity
  8
0
  6
ByLayer
 62
  256
370
   -1
100
AcDbCircle
 10
91.84195701120595
 20
8.688675599258929
 40
3.452913616014057
  0
CIRCLE
  5
9C
100
AcDbEntity
  8
0
  6
ByLayer
 62
  256
370
   -1
100
AcDbCircle
 10
43.58342824560994
 20
6.218237043359576
 40
1.004228167313672
  0
CIRCLE
  5
9D
100
AcDbEntity
  8
0
  6
ByLayer
 62
  256
370
   -1
100
AcDbCircle
 10
49.50887834298173
 20
6.218237043359576
 40
0.9768523620126632
  0
CIRCLE
  5
9E
100
AcDbEntity
  8
0
  6
ByLayer
 62
  256
370
   -1
100
AcDbCircle
 10
55.44827067587676
 20
6.218237043359576
 40
0.9768523620126632
  0
CIRCLE
  5
9F
100
AcDbEntity
  8
0
  6
ByLayer
 62
  256
370
   -1
100
AcDbCircle
 10
61.35977853772532
 20
6.218237043359576
 40
0.9784430039976175
  0
ENDSEC
  0
SECTION
  2
OBJECTS
  0
DICTIONARY
  5
C
330
0
100
AcDbDictionary
281
    1
  3
ACAD_GROUP
350
D
  0
DICTIONARY
  5
D
330
C
100
AcDbDictionary
281
    1
  0
ENDSEC
  0
EOF
