G04 #@! TF.GenerationSoftware,KiCad,Pcbnew,5.0.2+dfsg1-1*
G04 #@! TF.CreationDate,2019-07-23T09:40:36-06:00*
G04 #@! TF.ProjectId,hl2-front-horiz,686c322d-6672-46f6-9e74-2d686f72697a,rev?*
G04 #@! TF.SameCoordinates,Original*
G04 #@! TF.FileFunction,Legend,Top*
G04 #@! TF.FilePolarity,Positive*
%FSLAX46Y46*%
G04 Gerber Fmt 4.6, Leading zero omitted, Abs format (unit mm)*
G04 Created by KiCad (PCBNEW 5.0.2+dfsg1-1) date Tue 23 Jul 2019 09:40:36 AM MDT*
%MOMM*%
%LPD*%
G01*
G04 APERTURE LIST*
%ADD10C,0.500000*%
%ADD11C,0.300000*%
%ADD12C,0.150000*%
G04 APERTURE END LIST*
D10*
X98800000Y-153557142D02*
X98800000Y-150557142D01*
X98800000Y-151985714D02*
X100514285Y-151985714D01*
X100514285Y-153557142D02*
X100514285Y-150557142D01*
X103085714Y-153414285D02*
X102800000Y-153557142D01*
X102228571Y-153557142D01*
X101942857Y-153414285D01*
X101800000Y-153128571D01*
X101800000Y-151985714D01*
X101942857Y-151700000D01*
X102228571Y-151557142D01*
X102800000Y-151557142D01*
X103085714Y-151700000D01*
X103228571Y-151985714D01*
X103228571Y-152271428D01*
X101800000Y-152557142D01*
X104514285Y-153557142D02*
X104514285Y-151557142D01*
X104514285Y-152128571D02*
X104657142Y-151842857D01*
X104800000Y-151700000D01*
X105085714Y-151557142D01*
X105371428Y-151557142D01*
X106371428Y-153557142D02*
X106371428Y-151557142D01*
X106371428Y-151842857D02*
X106514285Y-151700000D01*
X106800000Y-151557142D01*
X107228571Y-151557142D01*
X107514285Y-151700000D01*
X107657142Y-151985714D01*
X107657142Y-153557142D01*
X107657142Y-151985714D02*
X107800000Y-151700000D01*
X108085714Y-151557142D01*
X108514285Y-151557142D01*
X108800000Y-151700000D01*
X108942857Y-151985714D01*
X108942857Y-153557142D01*
X111514285Y-153414285D02*
X111228571Y-153557142D01*
X110657142Y-153557142D01*
X110371428Y-153414285D01*
X110228571Y-153128571D01*
X110228571Y-151985714D01*
X110371428Y-151700000D01*
X110657142Y-151557142D01*
X111228571Y-151557142D01*
X111514285Y-151700000D01*
X111657142Y-151985714D01*
X111657142Y-152271428D01*
X110228571Y-152557142D01*
X112800000Y-153414285D02*
X113085714Y-153557142D01*
X113657142Y-153557142D01*
X113942857Y-153414285D01*
X114085714Y-153128571D01*
X114085714Y-152985714D01*
X113942857Y-152700000D01*
X113657142Y-152557142D01*
X113228571Y-152557142D01*
X112942857Y-152414285D01*
X112800000Y-152128571D01*
X112800000Y-151985714D01*
X112942857Y-151700000D01*
X113228571Y-151557142D01*
X113657142Y-151557142D01*
X113942857Y-151700000D01*
X115371428Y-152414285D02*
X117657142Y-152414285D01*
X120514285Y-153557142D02*
X119085714Y-153557142D01*
X119085714Y-150557142D01*
X121514285Y-153557142D02*
X121514285Y-151557142D01*
X121514285Y-150557142D02*
X121371428Y-150700000D01*
X121514285Y-150842857D01*
X121657142Y-150700000D01*
X121514285Y-150557142D01*
X121514285Y-150842857D01*
X122514285Y-151557142D02*
X123657142Y-151557142D01*
X122942857Y-150557142D02*
X122942857Y-153128571D01*
X123085714Y-153414285D01*
X123371428Y-153557142D01*
X123657142Y-153557142D01*
X125800000Y-153414285D02*
X125514285Y-153557142D01*
X124942857Y-153557142D01*
X124657142Y-153414285D01*
X124514285Y-153128571D01*
X124514285Y-151985714D01*
X124657142Y-151700000D01*
X124942857Y-151557142D01*
X125514285Y-151557142D01*
X125800000Y-151700000D01*
X125942857Y-151985714D01*
X125942857Y-152271428D01*
X124514285Y-152557142D01*
G04 #@! TO.C,4*
D11*
X121885714Y-183978571D02*
X121885714Y-184978571D01*
X121528571Y-183407142D02*
X121171428Y-184478571D01*
X122100000Y-184478571D01*
G04 #@! TO.C,3*
X115200000Y-183478571D02*
X116128571Y-183478571D01*
X115628571Y-184050000D01*
X115842857Y-184050000D01*
X115985714Y-184121428D01*
X116057142Y-184192857D01*
X116128571Y-184335714D01*
X116128571Y-184692857D01*
X116057142Y-184835714D01*
X115985714Y-184907142D01*
X115842857Y-184978571D01*
X115414285Y-184978571D01*
X115271428Y-184907142D01*
X115200000Y-184835714D01*
G04 #@! TO.C,2*
X109371428Y-183621428D02*
X109442857Y-183550000D01*
X109585714Y-183478571D01*
X109942857Y-183478571D01*
X110085714Y-183550000D01*
X110157142Y-183621428D01*
X110228571Y-183764285D01*
X110228571Y-183907142D01*
X110157142Y-184121428D01*
X109300000Y-184978571D01*
X110228571Y-184978571D01*
G04 #@! TO.C,H1*
D12*
X64075759Y-145413784D02*
X64075759Y-144413784D01*
X64075759Y-144889975D02*
X64647187Y-144889975D01*
X64647187Y-145413784D02*
X64647187Y-144413784D01*
X65647187Y-145413784D02*
X65075759Y-145413784D01*
X65361473Y-145413784D02*
X65361473Y-144413784D01*
X65266235Y-144556642D01*
X65170997Y-144651880D01*
X65075759Y-144699499D01*
G04 #@! TO.C,H4*
X64073942Y-192335091D02*
X64073942Y-191335091D01*
X64073942Y-191811282D02*
X64645370Y-191811282D01*
X64645370Y-192335091D02*
X64645370Y-191335091D01*
X65550132Y-191668425D02*
X65550132Y-192335091D01*
X65312037Y-191287472D02*
X65073942Y-192001758D01*
X65692989Y-192001758D01*
G04 #@! TO.C,H3*
X159893720Y-192328678D02*
X159893720Y-191328678D01*
X159893720Y-191804869D02*
X160465148Y-191804869D01*
X160465148Y-192328678D02*
X160465148Y-191328678D01*
X160846101Y-191328678D02*
X161465148Y-191328678D01*
X161131815Y-191709631D01*
X161274672Y-191709631D01*
X161369910Y-191757250D01*
X161417529Y-191804869D01*
X161465148Y-191900107D01*
X161465148Y-192138202D01*
X161417529Y-192233440D01*
X161369910Y-192281059D01*
X161274672Y-192328678D01*
X160988958Y-192328678D01*
X160893720Y-192281059D01*
X160846101Y-192233440D01*
G04 #@! TO.C,H2*
X159887308Y-145412074D02*
X159887308Y-144412074D01*
X159887308Y-144888265D02*
X160458736Y-144888265D01*
X160458736Y-145412074D02*
X160458736Y-144412074D01*
X160887308Y-144507313D02*
X160934927Y-144459694D01*
X161030165Y-144412074D01*
X161268260Y-144412074D01*
X161363498Y-144459694D01*
X161411117Y-144507313D01*
X161458736Y-144602551D01*
X161458736Y-144697789D01*
X161411117Y-144840646D01*
X160839689Y-145412074D01*
X161458736Y-145412074D01*
G04 #@! TO.C,12V  2A*
D11*
X66971428Y-174778571D02*
X66114285Y-174778571D01*
X66542857Y-174778571D02*
X66542857Y-173278571D01*
X66400000Y-173492857D01*
X66257142Y-173635714D01*
X66114285Y-173707142D01*
X67542857Y-173421428D02*
X67614285Y-173350000D01*
X67757142Y-173278571D01*
X68114285Y-173278571D01*
X68257142Y-173350000D01*
X68328571Y-173421428D01*
X68400000Y-173564285D01*
X68400000Y-173707142D01*
X68328571Y-173921428D01*
X67471428Y-174778571D01*
X68400000Y-174778571D01*
X68828571Y-173278571D02*
X69328571Y-174778571D01*
X69828571Y-173278571D01*
X72542857Y-173421428D02*
X72614285Y-173350000D01*
X72757142Y-173278571D01*
X73114285Y-173278571D01*
X73257142Y-173350000D01*
X73328571Y-173421428D01*
X73400000Y-173564285D01*
X73400000Y-173707142D01*
X73328571Y-173921428D01*
X72471428Y-174778571D01*
X73400000Y-174778571D01*
X73971428Y-174350000D02*
X74685714Y-174350000D01*
X73828571Y-174778571D02*
X74328571Y-173278571D01*
X74828571Y-174778571D01*
G04 #@! TO.C,1*
X104328571Y-184978571D02*
X103471428Y-184978571D01*
X103900000Y-184978571D02*
X103900000Y-183478571D01*
X103757142Y-183692857D01*
X103614285Y-183835714D01*
X103471428Y-183907142D01*
G04 #@! TO.C,KEY/PTT*
X147707142Y-178178571D02*
X147707142Y-176678571D01*
X148564285Y-178178571D02*
X147921428Y-177321428D01*
X148564285Y-176678571D02*
X147707142Y-177535714D01*
X149207142Y-177392857D02*
X149707142Y-177392857D01*
X149921428Y-178178571D02*
X149207142Y-178178571D01*
X149207142Y-176678571D01*
X149921428Y-176678571D01*
X150850000Y-177464285D02*
X150850000Y-178178571D01*
X150350000Y-176678571D02*
X150850000Y-177464285D01*
X151350000Y-176678571D01*
X152921428Y-176607142D02*
X151635714Y-178535714D01*
X153421428Y-178178571D02*
X153421428Y-176678571D01*
X153992857Y-176678571D01*
X154135714Y-176750000D01*
X154207142Y-176821428D01*
X154278571Y-176964285D01*
X154278571Y-177178571D01*
X154207142Y-177321428D01*
X154135714Y-177392857D01*
X153992857Y-177464285D01*
X153421428Y-177464285D01*
X154707142Y-176678571D02*
X155564285Y-176678571D01*
X155135714Y-178178571D02*
X155135714Y-176678571D01*
X155850000Y-176678571D02*
X156707142Y-176678571D01*
X156278571Y-178178571D02*
X156278571Y-176678571D01*
G04 #@! TD*
M02*
