G04 #@! TF.GenerationSoftware,KiCad,Pcbnew,5.1.5-52549c5~84~ubuntu18.04.1*
G04 #@! TF.CreationDate,2020-03-18T22:44:17-07:00*
G04 #@! TF.ProjectId,endcap,656e6463-6170-42e6-9b69-6361645f7063,rev?*
G04 #@! TF.SameCoordinates,PX2faf080PY2faf080*
G04 #@! TF.FileFunction,Profile,NP*
%FSLAX46Y46*%
G04 Gerber Fmt 4.6, Leading zero omitted, Abs format (unit mm)*
G04 Created by KiCad (PCBNEW 5.1.5-52549c5~84~ubuntu18.04.1) date 2020-03-18 22:44:17*
%MOMM*%
%LPD*%
G04 APERTURE LIST*
%ADD10C,0.150000*%
%ADD11C,0.100000*%
G04 APERTURE END LIST*
D10*
X104000000Y0D02*
G75*
G02X106000000Y-2000000I0J-2000000D01*
G01*
X106000000Y-53000000D02*
G75*
G02X104000000Y-55000000I-2000000J0D01*
G01*
X2000000Y-55000000D02*
G75*
G02X0Y-53000000I0J2000000D01*
G01*
X0Y-2000000D02*
G75*
G02X2000000Y0I2000000J0D01*
G01*
X0Y-10000000D02*
X0Y-2000000D01*
X1000000Y-10500000D02*
X0Y-10000000D01*
X1000000Y-44500000D02*
X1000000Y-10500000D01*
X0Y-45000000D02*
X1000000Y-44500000D01*
X0Y-53000000D02*
X0Y-45000000D01*
X104000000Y-55000000D02*
X2000000Y-55000000D01*
X106000000Y-45000000D02*
X106000000Y-53000000D01*
X105000000Y-44500000D02*
X106000000Y-45000000D01*
X106000000Y-10000000D02*
X105000000Y-10500000D01*
X105000000Y-10500000D02*
X105000000Y-44500000D01*
X106000000Y-2000000D02*
X106000000Y-10000000D01*
X2000000Y0D02*
X104000000Y0D01*
X17050000Y-47700000D02*
X34550000Y-47700000D01*
X17050000Y-35600000D02*
X34550000Y-35600000D01*
X17050000Y-35600000D02*
X17050000Y-47700000D01*
X34550000Y-35600000D02*
X34550000Y-47700000D01*
D11*
X38500000Y-6300000D02*
G75*
G02X38500000Y-5300000I0J500000D01*
G01*
X67500000Y-5300000D02*
X38500000Y-5300000D01*
X67500000Y-5300000D02*
G75*
G02X67500000Y-6300000I0J-500000D01*
G01*
X38500000Y-6300000D02*
X67500000Y-6300000D01*
M02*
