  0
SECTION
  2
HEADER
  9
$ACADVER
  1
AC1014
  9
$HANDSEED
  5
FFFF
  9
$MEASUREMENT
 70
     1
  0
ENDSEC
  0
SECTION
  2
TABLES
  0
TABLE
  2
VPORT
  5
8
330
0
100
AcDbSymbolTable
 70
     4
  0
VPORT
  5
2E
330
8
100
AcDbSymbolTableRecord
100
AcDbViewportTableRecord
  2
*ACTIVE
 70
     0
 10
0.0
 20
0.0
 11
1.0
 21
1.0
 12
210.0
 22
148.5
 13
0.0
 23
0.0
 14
10.0
 24
10.0
 15
10.0
 25
10.0
 16
0.0
 26
0.0
 36
1.0
 17
0.0
 27
0.0
 37
0.0
 40
341.0
 41
1.24
 42
50.0
 43
0.0
 44
0.0
 50
0.0
 51
0.0
 71
     0
 72
   100
 73
     1
 74
     3
 75
     0
 76
     0
 77
     0
 78
     0
  0
ENDTAB
  0
TABLE
  2
LTYPE
  5
5
330
0
100
AcDbSymbolTable
 70
     1
  0
LTYPE
  5
14
330
5
100
AcDbSymbolTableRecord
100
AcDbLinetypeTableRecord
  2
BYBLOCK
 70
     0
  3

 72
    65
 73
     0
 40
0.0
  0
LTYPE
  5
15
330
5
100
AcDbSymbolTableRecord
100
AcDbLinetypeTableRecord
  2
BYLAYER
 70
     0
  3

 72
    65
 73
     0
 40
0.0
  0
LTYPE
  5
16
330
5
100
AcDbSymbolTableRecord
100
AcDbLinetypeTableRecord
  2
CONTINUOUS
 70
     0
  3
Solid line
 72
    65
 73
     0
 40
0.0
  0
ENDTAB
  0
TABLE
  2
LAYER
  5
2
100
AcDbSymbolTable
 70
2
  0
LAYER
  5
50
100
AcDbSymbolTableRecord
100
AcDbLayerTableRecord
  2
0
 70
0
  6
CONTINUOUS
  0
LAYER
  5
51
100
AcDbSymbolTableRecord
100
AcDbLayerTableRecord
  2
Layer_1
 70
0
  6
CONTINUOUS
  0
ENDTAB
  0
TABLE
  2
STYLE
  5
3
330
0
100
AcDbSymbolTable
 70
     1
  0
STYLE
  5
11
330
3
100
AcDbSymbolTableRecord
100
AcDbTextStyleTableRecord
  2
STANDARD
 70
     0
 40
0.0
 41
1.0
 50
0.0
 71
     0
 42
2.5
  3
txt
  4

  0
ENDTAB
  0
TABLE
  2
VIEW
  5
6
330
0
100
AcDbSymbolTable
 70
     0
  0
ENDTAB
  0
TABLE
  2
UCS
  5
7
330
0
100
AcDbSymbolTable
 70
     0
  0
ENDTAB
  0
TABLE
  2
APPID
  5
9
330
0
100
AcDbSymbolTable
 70
     2
  0
APPID
  5
12
330
9
100
AcDbSymbolTableRecord
100
AcDbRegAppTableRecord
  2
ACAD
 70
     0
  0
ENDTAB
  0
TABLE
  2
DIMSTYLE
  5
A
330
0
100
AcDbSymbolTable
 70
     1
  0
DIMSTYLE
105
27
330
A
100
AcDbSymbolTableRecord
100
AcDbDimStyleTableRecord
  2
ISO-25
 70
     0
  3

  4

  5

  6

  7

 40
1.0
 41
2.5
 42
0.625
 43
3.75
 44
1.25
 45
0.0
 46
0.0
 47
0.0
 48
0.0
140
2.5
141
2.5
142
0.0
143
0.03937007874016
144
1.0
145
0.0
146
1.0
147
0.625
 71
     0
 72
     0
 73
     0
 74
     0
 75
     0
 76
     0
 77
     1
 78
     8
170
     0
171
     3
172
     1
173
     0
174
     0
175
     0
176
     0
177
     0
178
     0
270
     2
271
     2
272
     2
273
     2
274
     3
340
11
275
     0
280
     0
281
     0
282
     0
283
     0
284
     8
285
     0
286
     0
287
     3
288
     0
  0
ENDTAB
  0
TABLE
  2
BLOCK_RECORD
  5
1
330
0
100
AcDbSymbolTable
 70
     1
  0
BLOCK_RECORD
  5
1F
330
1
100
AcDbSymbolTableRecord
100
AcDbBlockTableRecord
  2
*MODEL_SPACE
  0
BLOCK_RECORD
  5
1B
330
1
100
AcDbSymbolTableRecord
100
AcDbBlockTableRecord
  2
*PAPER_SPACE
  0
ENDTAB
  0
ENDSEC
  0
SECTION
  2
BLOCKS
  0
BLOCK
  5
20
330
1F
100
AcDbEntity
  8
0
100
AcDbBlockBegin
  2
*MODEL_SPACE
 70
     0
 10
0.0
 20
0.0
 30
0.0
  3
*MODEL_SPACE
  1

  0
ENDBLK
  5
21
330
1F
100
AcDbEntity
  8
0
100
AcDbBlockEnd
  0
BLOCK
  5
1C
330
1B
100
AcDbEntity
 67
     1
  8
0
100
AcDbBlockBegin
  2
*PAPER_SPACE
  1

  0
ENDBLK
  5
1D
330
1B
100
AcDbEntity
 67
     1
  8
0
100
AcDbBlockEnd
  0
ENDSEC
  0
SECTION
  2
ENTITIES
  0
SPLINE
  5
100
100
AcDbEntity
  8
Layer_1
 62
1
100
AcDbSpline
 70
8
 71
3
 72
8
 73
4
 74
0
 40
0
 40
0
 40
0
 40
0
 40
1
 40
1
 40
1
 40
1
 10
1.829445
 20
14.501225
 30
0.0
 10
1.829445
 20
14.662550
 30
0.0
 10
1.743379
 20
14.811621
 30
0.0
 10
1.603668
 20
14.892283
 30
0.0
  0
SPLINE
  5
101
100
AcDbEntity
  8
Layer_1
 62
1
100
AcDbSpline
 70
8
 71
3
 72
8
 73
4
 74
0
 40
0
 40
0
 40
0
 40
0
 40
1
 40
1
 40
1
 40
1
 10
1.603668
 20
14.892283
 30
0.0
 10
1.463956
 20
14.972946
 30
0.0
 10
1.291824
 20
14.972946
 30
0.0
 10
1.152112
 20
14.892283
 30
0.0
  0
SPLINE
  5
102
100
AcDbEntity
  8
Layer_1
 62
1
100
AcDbSpline
 70
8
 71
3
 72
8
 73
4
 74
0
 40
0
 40
0
 40
0
 40
0
 40
1
 40
1
 40
1
 40
1
 10
1.152112
 20
14.892283
 30
0.0
 10
1.012400
 20
14.811621
 30
0.0
 10
0.926334
 20
14.662550
 30
0.0
 10
0.926334
 20
14.501225
 30
0.0
  0
SPLINE
  5
103
100
AcDbEntity
  8
Layer_1
 62
1
100
AcDbSpline
 70
8
 71
3
 72
8
 73
4
 74
0
 40
0
 40
0
 40
0
 40
0
 40
1
 40
1
 40
1
 40
1
 10
0.926334
 20
14.501225
 30
0.0
 10
0.926334
 20
14.339899
 30
0.0
 10
1.012400
 20
14.190829
 30
0.0
 10
1.152112
 20
14.110166
 30
0.0
  0
SPLINE
  5
104
100
AcDbEntity
  8
Layer_1
 62
1
100
AcDbSpline
 70
8
 71
3
 72
8
 73
4
 74
0
 40
0
 40
0
 40
0
 40
0
 40
1
 40
1
 40
1
 40
1
 10
1.152112
 20
14.110166
 30
0.0
 10
1.291824
 20
14.029503
 30
0.0
 10
1.463956
 20
14.029503
 30
0.0
 10
1.603668
 20
14.110166
 30
0.0
  0
SPLINE
  5
105
100
AcDbEntity
  8
Layer_1
 62
1
100
AcDbSpline
 70
8
 71
3
 72
8
 73
4
 74
0
 40
0
 40
0
 40
0
 40
0
 40
1
 40
1
 40
1
 40
1
 10
1.603668
 20
14.110166
 30
0.0
 10
1.743379
 20
14.190829
 30
0.0
 10
1.829445
 20
14.339899
 30
0.0
 10
1.829445
 20
14.501225
 30
0.0
  0
SPLINE
  5
106
100
AcDbEntity
  8
Layer_1
 62
1
100
AcDbSpline
 70
8
 71
3
 72
8
 73
4
 74
0
 40
0
 40
0
 40
0
 40
0
 40
1
 40
1
 40
1
 40
1
 10
29.063890
 20
14.501225
 30
0.0
 10
29.063970
 20
14.662604
 30
0.0
 10
28.977922
 20
14.811759
 30
0.0
 10
28.838177
 20
14.892471
 30
0.0
  0
SPLINE
  5
107
100
AcDbEntity
  8
Layer_1
 62
1
100
AcDbSpline
 70
8
 71
3
 72
8
 73
4
 74
0
 40
0
 40
0
 40
0
 40
0
 40
1
 40
1
 40
1
 40
1
 10
28.838177
 20
14.892471
 30
0.0
 10
28.698432
 20
14.973184
 30
0.0
 10
28.526236
 20
14.973184
 30
0.0
 10
28.386491
 20
14.892471
 30
0.0
  0
SPLINE
  5
108
100
AcDbEntity
  8
Layer_1
 62
1
100
AcDbSpline
 70
8
 71
3
 72
8
 73
4
 74
0
 40
0
 40
0
 40
0
 40
0
 40
1
 40
1
 40
1
 40
1
 10
28.386491
 20
14.892471
 30
0.0
 10
28.246746
 20
14.811759
 30
0.0
 10
28.160698
 20
14.662604
 30
0.0
 10
28.160778
 20
14.501225
 30
0.0
  0
SPLINE
  5
109
100
AcDbEntity
  8
Layer_1
 62
1
100
AcDbSpline
 70
8
 71
3
 72
8
 73
4
 74
0
 40
0
 40
0
 40
0
 40
0
 40
1
 40
1
 40
1
 40
1
 10
28.160778
 20
14.501225
 30
0.0
 10
28.160698
 20
14.339846
 30
0.0
 10
28.246746
 20
14.190691
 30
0.0
 10
28.386491
 20
14.109978
 30
0.0
  0
SPLINE
  5
10a
100
AcDbEntity
  8
Layer_1
 62
1
100
AcDbSpline
 70
8
 71
3
 72
8
 73
4
 74
0
 40
0
 40
0
 40
0
 40
0
 40
1
 40
1
 40
1
 40
1
 10
28.386491
 20
14.109978
 30
0.0
 10
28.526236
 20
14.029265
 30
0.0
 10
28.698432
 20
14.029265
 30
0.0
 10
28.838177
 20
14.109978
 30
0.0
  0
SPLINE
  5
10b
100
AcDbEntity
  8
Layer_1
 62
1
100
AcDbSpline
 70
8
 71
3
 72
8
 73
4
 74
0
 40
0
 40
0
 40
0
 40
0
 40
1
 40
1
 40
1
 40
1
 10
28.838177
 20
14.109978
 30
0.0
 10
28.977922
 20
14.190691
 30
0.0
 10
29.063970
 20
14.339846
 30
0.0
 10
29.063890
 20
14.501225
 30
0.0
  0
LWPOLYLINE
  5
10c
100
AcDbEntity
  8
Layer_1
 62
1
100
AcDbPolyline
 90
2
 70
1
 10
1.829445
 20
14.501225
 30
0.0
 10
1.829445
 20
14.501225
 30
0.0
  0
SPLINE
  5
10d
100
AcDbEntity
  8
Layer_1
 62
1
100
AcDbSpline
 70
8
 71
3
 72
8
 73
4
 74
0
 40
0
 40
0
 40
0
 40
0
 40
1
 40
1
 40
1
 40
1
 10
29.063890
 20
1.095666
 30
0.0
 10
29.063970
 20
1.257045
 30
0.0
 10
28.977922
 20
1.406200
 30
0.0
 10
28.838177
 20
1.486913
 30
0.0
  0
SPLINE
  5
10e
100
AcDbEntity
  8
Layer_1
 62
1
100
AcDbSpline
 70
8
 71
3
 72
8
 73
4
 74
0
 40
0
 40
0
 40
0
 40
0
 40
1
 40
1
 40
1
 40
1
 10
28.838177
 20
1.486913
 30
0.0
 10
28.698432
 20
1.567626
 30
0.0
 10
28.526236
 20
1.567626
 30
0.0
 10
28.386491
 20
1.486913
 30
0.0
  0
SPLINE
  5
10f
100
AcDbEntity
  8
Layer_1
 62
1
100
AcDbSpline
 70
8
 71
3
 72
8
 73
4
 74
0
 40
0
 40
0
 40
0
 40
0
 40
1
 40
1
 40
1
 40
1
 10
28.386491
 20
1.486913
 30
0.0
 10
28.246746
 20
1.406200
 30
0.0
 10
28.160698
 20
1.257045
 30
0.0
 10
28.160778
 20
1.095666
 30
0.0
  0
SPLINE
  5
110
100
AcDbEntity
  8
Layer_1
 62
1
100
AcDbSpline
 70
8
 71
3
 72
8
 73
4
 74
0
 40
0
 40
0
 40
0
 40
0
 40
1
 40
1
 40
1
 40
1
 10
28.160778
 20
1.095666
 30
0.0
 10
28.160698
 20
0.934287
 30
0.0
 10
28.246746
 20
0.785132
 30
0.0
 10
28.386491
 20
0.704419
 30
0.0
  0
SPLINE
  5
111
100
AcDbEntity
  8
Layer_1
 62
1
100
AcDbSpline
 70
8
 71
3
 72
8
 73
4
 74
0
 40
0
 40
0
 40
0
 40
0
 40
1
 40
1
 40
1
 40
1
 10
28.386491
 20
0.704419
 30
0.0
 10
28.526236
 20
0.623707
 30
0.0
 10
28.698432
 20
0.623707
 30
0.0
 10
28.838177
 20
0.704419
 30
0.0
  0
SPLINE
  5
112
100
AcDbEntity
  8
Layer_1
 62
1
100
AcDbSpline
 70
8
 71
3
 72
8
 73
4
 74
0
 40
0
 40
0
 40
0
 40
0
 40
1
 40
1
 40
1
 40
1
 10
28.838177
 20
0.704419
 30
0.0
 10
28.977922
 20
0.785132
 30
0.0
 10
29.063970
 20
0.934287
 30
0.0
 10
29.063890
 20
1.095666
 30
0.0
  0
LWPOLYLINE
  5
113
100
AcDbEntity
  8
Layer_1
 62
1
100
AcDbPolyline
 90
2
 70
1
 10
29.063890
 20
14.501225
 30
0.0
 10
29.063890
 20
14.501225
 30
0.0
  0
SPLINE
  5
114
100
AcDbEntity
  8
Layer_1
 62
1
100
AcDbSpline
 70
8
 71
3
 72
8
 73
4
 74
0
 40
0
 40
0
 40
0
 40
0
 40
1
 40
1
 40
1
 40
1
 10
1.829445
 20
1.095666
 30
0.0
 10
1.829445
 20
1.256992
 30
0.0
 10
1.743379
 20
1.406062
 30
0.0
 10
1.603668
 20
1.486725
 30
0.0
  0
SPLINE
  5
115
100
AcDbEntity
  8
Layer_1
 62
1
100
AcDbSpline
 70
8
 71
3
 72
8
 73
4
 74
0
 40
0
 40
0
 40
0
 40
0
 40
1
 40
1
 40
1
 40
1
 10
1.603668
 20
1.486725
 30
0.0
 10
1.463956
 20
1.567388
 30
0.0
 10
1.291824
 20
1.567388
 30
0.0
 10
1.152112
 20
1.486725
 30
0.0
  0
SPLINE
  5
116
100
AcDbEntity
  8
Layer_1
 62
1
100
AcDbSpline
 70
8
 71
3
 72
8
 73
4
 74
0
 40
0
 40
0
 40
0
 40
0
 40
1
 40
1
 40
1
 40
1
 10
1.152112
 20
1.486725
 30
0.0
 10
1.012400
 20
1.406062
 30
0.0
 10
0.926334
 20
1.256992
 30
0.0
 10
0.926334
 20
1.095666
 30
0.0
  0
SPLINE
  5
117
100
AcDbEntity
  8
Layer_1
 62
1
100
AcDbSpline
 70
8
 71
3
 72
8
 73
4
 74
0
 40
0
 40
0
 40
0
 40
0
 40
1
 40
1
 40
1
 40
1
 10
0.926334
 20
1.095666
 30
0.0
 10
0.926334
 20
0.934341
 30
0.0
 10
1.012400
 20
0.785270
 30
0.0
 10
1.152112
 20
0.704608
 30
0.0
  0
SPLINE
  5
118
100
AcDbEntity
  8
Layer_1
 62
1
100
AcDbSpline
 70
8
 71
3
 72
8
 73
4
 74
0
 40
0
 40
0
 40
0
 40
0
 40
1
 40
1
 40
1
 40
1
 10
1.152112
 20
0.704608
 30
0.0
 10
1.291824
 20
0.623945
 30
0.0
 10
1.463956
 20
0.623945
 30
0.0
 10
1.603668
 20
0.704608
 30
0.0
  0
SPLINE
  5
119
100
AcDbEntity
  8
Layer_1
 62
1
100
AcDbSpline
 70
8
 71
3
 72
8
 73
4
 74
0
 40
0
 40
0
 40
0
 40
0
 40
1
 40
1
 40
1
 40
1
 10
1.603668
 20
0.704608
 30
0.0
 10
1.743379
 20
0.785270
 30
0.0
 10
1.829445
 20
0.934341
 30
0.0
 10
1.829445
 20
1.095666
 30
0.0
  0
LWPOLYLINE
  5
11a
100
AcDbEntity
  8
Layer_1
 62
1
100
AcDbPolyline
 90
2
 70
1
 10
29.063890
 20
1.095666
 30
0.0
 10
29.063890
 20
1.095666
 30
0.0
  0
LWPOLYLINE
  5
11b
100
AcDbEntity
  8
Layer_1
 62
1
100
AcDbPolyline
 90
2
 70
1
 10
1.829445
 20
1.095666
 30
0.0
 10
1.829445
 20
1.095666
 30
0.0
  0
SPLINE
  5
11c
100
AcDbEntity
  8
Layer_1
 62
1
100
AcDbSpline
 70
8
 71
3
 72
8
 73
4
 74
0
 40
0
 40
0
 40
0
 40
0
 40
1
 40
1
 40
1
 40
1
 10
3.910835
 20
4.030778
 30
0.0
 10
3.910920
 20
4.396338
 30
0.0
 10
3.715946
 20
4.734166
 30
0.0
 10
3.399376
 20
4.916971
 30
0.0
  0
SPLINE
  5
11d
100
AcDbEntity
  8
Layer_1
 62
1
100
AcDbSpline
 70
8
 71
3
 72
8
 73
4
 74
0
 40
0
 40
0
 40
0
 40
0
 40
1
 40
1
 40
1
 40
1
 10
3.399376
 20
4.916971
 30
0.0
 10
3.082806
 20
5.099775
 30
0.0
 10
2.692751
 20
5.099775
 30
0.0
 10
2.376182
 20
4.916971
 30
0.0
  0
SPLINE
  5
11e
100
AcDbEntity
  8
Layer_1
 62
1
100
AcDbSpline
 70
8
 71
3
 72
8
 73
4
 74
0
 40
0
 40
0
 40
0
 40
0
 40
1
 40
1
 40
1
 40
1
 10
2.376182
 20
4.916971
 30
0.0
 10
2.059612
 20
4.734166
 30
0.0
 10
1.864637
 20
4.396338
 30
0.0
 10
1.864723
 20
4.030778
 30
0.0
  0
SPLINE
  5
11f
100
AcDbEntity
  8
Layer_1
 62
1
100
AcDbSpline
 70
8
 71
3
 72
8
 73
4
 74
0
 40
0
 40
0
 40
0
 40
0
 40
1
 40
1
 40
1
 40
1
 10
1.864723
 20
4.030778
 30
0.0
 10
1.864637
 20
3.665218
 30
0.0
 10
2.059612
 20
3.327390
 30
0.0
 10
2.376182
 20
3.144586
 30
0.0
  0
SPLINE
  5
120
100
AcDbEntity
  8
Layer_1
 62
1
100
AcDbSpline
 70
8
 71
3
 72
8
 73
4
 74
0
 40
0
 40
0
 40
0
 40
0
 40
1
 40
1
 40
1
 40
1
 10
2.376182
 20
3.144586
 30
0.0
 10
2.692751
 20
2.961781
 30
0.0
 10
3.082806
 20
2.961781
 30
0.0
 10
3.399376
 20
3.144586
 30
0.0
  0
SPLINE
  5
121
100
AcDbEntity
  8
Layer_1
 62
1
100
AcDbSpline
 70
8
 71
3
 72
8
 73
4
 74
0
 40
0
 40
0
 40
0
 40
0
 40
1
 40
1
 40
1
 40
1
 10
3.399376
 20
3.144586
 30
0.0
 10
3.715946
 20
3.327390
 30
0.0
 10
3.910920
 20
3.665218
 30
0.0
 10
3.910835
 20
4.030778
 30
0.0
  0
LWPOLYLINE
  5
122
100
AcDbEntity
  8
Layer_1
 62
5
100
AcDbPolyline
 90
13
 70
1
 10
0.037334
 20
15.559556
 30
0.0
 10
0.037334
 20
12.596202
 30
0.0
 10
0.319557
 20
12.596225
 30
0.0
 10
0.319557
 20
3.000665
 30
0.0
 10
0.037334
 20
3.000689
 30
0.0
 10
0.037334
 20
0.037335
 30
0.0
 10
29.952890
 20
0.037335
 30
0.0
 10
29.952890
 20
3.000689
 30
0.0
 10
29.670667
 20
3.000665
 30
0.0
 10
29.670667
 20
12.596225
 30
0.0
 10
29.952890
 20
12.596202
 30
0.0
 10
29.952890
 20
15.559556
 30
0.0
 10
0.037334
 20
15.559556
 30
0.0
  0
SPLINE
  5
123
100
AcDbEntity
  8
Layer_1
 62
1
100
AcDbSpline
 70
8
 71
3
 72
8
 73
4
 74
0
 40
0
 40
0
 40
0
 40
0
 40
1
 40
1
 40
1
 40
1
 10
27.229445
 20
2.930116
 30
0.0
 10
27.229530
 20
3.283071
 30
0.0
 10
27.041279
 20
3.609251
 30
0.0
 10
26.735624
 20
3.785753
 30
0.0
  0
SPLINE
  5
124
100
AcDbEntity
  8
Layer_1
 62
1
100
AcDbSpline
 70
8
 71
3
 72
8
 73
4
 74
0
 40
0
 40
0
 40
0
 40
0
 40
1
 40
1
 40
1
 40
1
 10
26.735624
 20
3.785753
 30
0.0
 10
26.429970
 20
3.962255
 30
0.0
 10
26.053364
 20
3.962255
 30
0.0
 10
25.747710
 20
3.785753
 30
0.0
  0
SPLINE
  5
125
100
AcDbEntity
  8
Layer_1
 62
1
100
AcDbSpline
 70
8
 71
3
 72
8
 73
4
 74
0
 40
0
 40
0
 40
0
 40
0
 40
1
 40
1
 40
1
 40
1
 10
25.747710
 20
3.785753
 30
0.0
 10
25.442056
 20
3.609251
 30
0.0
 10
25.253805
 20
3.283071
 30
0.0
 10
25.253890
 20
2.930116
 30
0.0
  0
SPLINE
  5
126
100
AcDbEntity
  8
Layer_1
 62
1
100
AcDbSpline
 70
8
 71
3
 72
8
 73
4
 74
0
 40
0
 40
0
 40
0
 40
0
 40
1
 40
1
 40
1
 40
1
 10
25.253890
 20
2.930116
 30
0.0
 10
25.253890
 20
2.577217
 30
0.0
 10
25.442159
 20
2.251125
 30
0.0
 10
25.747778
 20
2.074675
 30
0.0
  0
SPLINE
  5
127
100
AcDbEntity
  8
Layer_1
 62
1
100
AcDbSpline
 70
8
 71
3
 72
8
 73
4
 74
0
 40
0
 40
0
 40
0
 40
0
 40
1
 40
1
 40
1
 40
1
 10
25.747778
 20
2.074675
 30
0.0
 10
26.053398
 20
1.898226
 30
0.0
 10
26.429937
 20
1.898226
 30
0.0
 10
26.735556
 20
2.074675
 30
0.0
  0
SPLINE
  5
128
100
AcDbEntity
  8
Layer_1
 62
1
100
AcDbSpline
 70
8
 71
3
 72
8
 73
4
 74
0
 40
0
 40
0
 40
0
 40
0
 40
1
 40
1
 40
1
 40
1
 10
26.735556
 20
2.074675
 30
0.0
 10
27.041176
 20
2.251125
 30
0.0
 10
27.229445
 20
2.577217
 30
0.0
 10
27.229445
 20
2.930116
 30
0.0
  0
LWPOLYLINE
  5
129
100
AcDbEntity
  8
Layer_1
 62
1
100
AcDbPolyline
 90
2
 70
1
 10
3.910835
 20
4.030778
 30
0.0
 10
3.910835
 20
4.030778
 30
0.0
  0
SPLINE
  5
12a
100
AcDbEntity
  8
Layer_1
 62
1
100
AcDbSpline
 70
8
 71
3
 72
8
 73
4
 74
0
 40
0
 40
0
 40
0
 40
0
 40
1
 40
1
 40
1
 40
1
 10
12.737334
 20
2.224554
 30
0.0
 10
12.737379
 20
2.325413
 30
0.0
 10
12.683598
 20
2.418629
 30
0.0
 10
12.596259
 20
2.469071
 30
0.0
  0
SPLINE
  5
12b
100
AcDbEntity
  8
Layer_1
 62
1
100
AcDbSpline
 70
8
 71
3
 72
8
 73
4
 74
0
 40
0
 40
0
 40
0
 40
0
 40
1
 40
1
 40
1
 40
1
 10
12.596259
 20
2.469071
 30
0.0
 10
12.508921
 20
2.519513
 30
0.0
 10
12.401303
 20
2.519513
 30
0.0
 10
12.313964
 20
2.469071
 30
0.0
  0
SPLINE
  5
12c
100
AcDbEntity
  8
Layer_1
 62
1
100
AcDbSpline
 70
8
 71
3
 72
8
 73
4
 74
0
 40
0
 40
0
 40
0
 40
0
 40
1
 40
1
 40
1
 40
1
 10
12.313964
 20
2.469071
 30
0.0
 10
12.226626
 20
2.418629
 30
0.0
 10
12.172844
 20
2.325413
 30
0.0
 10
12.172890
 20
2.224554
 30
0.0
  0
SPLINE
  5
12d
100
AcDbEntity
  8
Layer_1
 62
1
100
AcDbSpline
 70
8
 71
3
 72
8
 73
4
 74
0
 40
0
 40
0
 40
0
 40
0
 40
1
 40
1
 40
1
 40
1
 10
12.172890
 20
2.224554
 30
0.0
 10
12.172844
 20
2.123696
 30
0.0
 10
12.226626
 20
2.030480
 30
0.0
 10
12.313964
 20
1.980037
 30
0.0
  0
SPLINE
  5
12e
100
AcDbEntity
  8
Layer_1
 62
1
100
AcDbSpline
 70
8
 71
3
 72
8
 73
4
 74
0
 40
0
 40
0
 40
0
 40
0
 40
1
 40
1
 40
1
 40
1
 10
12.313964
 20
1.980037
 30
0.0
 10
12.401303
 20
1.929595
 30
0.0
 10
12.508921
 20
1.929595
 30
0.0
 10
12.596259
 20
1.980037
 30
0.0
  0
SPLINE
  5
12f
100
AcDbEntity
  8
Layer_1
 62
1
100
AcDbSpline
 70
8
 71
3
 72
8
 73
4
 74
0
 40
0
 40
0
 40
0
 40
0
 40
1
 40
1
 40
1
 40
1
 10
12.596259
 20
1.980037
 30
0.0
 10
12.683598
 20
2.030480
 30
0.0
 10
12.737379
 20
2.123696
 30
0.0
 10
12.737334
 20
2.224554
 30
0.0
  0
LWPOLYLINE
  5
130
100
AcDbEntity
  8
Layer_1
 62
1
100
AcDbPolyline
 90
2
 70
1
 10
27.229445
 20
2.930116
 30
0.0
 10
27.229445
 20
2.930116
 30
0.0
  0
SPLINE
  5
131
100
AcDbEntity
  8
Layer_1
 62
1
100
AcDbSpline
 70
8
 71
3
 72
8
 73
4
 74
0
 40
0
 40
0
 40
0
 40
0
 40
1
 40
1
 40
1
 40
1
 10
14.430667
 20
2.224554
 30
0.0
 10
14.430712
 20
2.325413
 30
0.0
 10
14.376931
 20
2.418629
 30
0.0
 10
14.289593
 20
2.469071
 30
0.0
  0
SPLINE
  5
132
100
AcDbEntity
  8
Layer_1
 62
1
100
AcDbSpline
 70
8
 71
3
 72
8
 73
4
 74
0
 40
0
 40
0
 40
0
 40
0
 40
1
 40
1
 40
1
 40
1
 10
14.289593
 20
2.469071
 30
0.0
 10
14.202254
 20
2.519513
 30
0.0
 10
14.094636
 20
2.519513
 30
0.0
 10
14.007298
 20
2.469071
 30
0.0
  0
SPLINE
  5
133
100
AcDbEntity
  8
Layer_1
 62
1
100
AcDbSpline
 70
8
 71
3
 72
8
 73
4
 74
0
 40
0
 40
0
 40
0
 40
0
 40
1
 40
1
 40
1
 40
1
 10
14.007298
 20
2.469071
 30
0.0
 10
13.919959
 20
2.418629
 30
0.0
 10
13.866178
 20
2.325413
 30
0.0
 10
13.866223
 20
2.224554
 30
0.0
  0
SPLINE
  5
134
100
AcDbEntity
  8
Layer_1
 62
1
100
AcDbSpline
 70
8
 71
3
 72
8
 73
4
 74
0
 40
0
 40
0
 40
0
 40
0
 40
1
 40
1
 40
1
 40
1
 10
13.866223
 20
2.224554
 30
0.0
 10
13.866178
 20
2.123696
 30
0.0
 10
13.919959
 20
2.030480
 30
0.0
 10
14.007298
 20
1.980037
 30
0.0
  0
SPLINE
  5
135
100
AcDbEntity
  8
Layer_1
 62
1
100
AcDbSpline
 70
8
 71
3
 72
8
 73
4
 74
0
 40
0
 40
0
 40
0
 40
0
 40
1
 40
1
 40
1
 40
1
 10
14.007298
 20
1.980037
 30
0.0
 10
14.094636
 20
1.929595
 30
0.0
 10
14.202254
 20
1.929595
 30
0.0
 10
14.289593
 20
1.980037
 30
0.0
  0
SPLINE
  5
136
100
AcDbEntity
  8
Layer_1
 62
1
100
AcDbSpline
 70
8
 71
3
 72
8
 73
4
 74
0
 40
0
 40
0
 40
0
 40
0
 40
1
 40
1
 40
1
 40
1
 10
14.289593
 20
1.980037
 30
0.0
 10
14.376931
 20
2.030480
 30
0.0
 10
14.430712
 20
2.123696
 30
0.0
 10
14.430667
 20
2.224554
 30
0.0
  0
LWPOLYLINE
  5
137
100
AcDbEntity
  8
Layer_1
 62
1
100
AcDbPolyline
 90
2
 70
1
 10
12.737334
 20
2.224554
 30
0.0
 10
12.737334
 20
2.224554
 30
0.0
  0
SPLINE
  5
138
100
AcDbEntity
  8
Layer_1
 62
1
100
AcDbSpline
 70
8
 71
3
 72
8
 73
4
 74
0
 40
0
 40
0
 40
0
 40
0
 40
1
 40
1
 40
1
 40
1
 10
16.124001
 20
2.224554
 30
0.0
 10
16.124046
 20
2.325413
 30
0.0
 10
16.070264
 20
2.418629
 30
0.0
 10
15.982926
 20
2.469071
 30
0.0
  0
SPLINE
  5
139
100
AcDbEntity
  8
Layer_1
 62
1
100
AcDbSpline
 70
8
 71
3
 72
8
 73
4
 74
0
 40
0
 40
0
 40
0
 40
0
 40
1
 40
1
 40
1
 40
1
 10
15.982926
 20
2.469071
 30
0.0
 10
15.895588
 20
2.519513
 30
0.0
 10
15.787969
 20
2.519513
 30
0.0
 10
15.700631
 20
2.469071
 30
0.0
  0
SPLINE
  5
13a
100
AcDbEntity
  8
Layer_1
 62
1
100
AcDbSpline
 70
8
 71
3
 72
8
 73
4
 74
0
 40
0
 40
0
 40
0
 40
0
 40
1
 40
1
 40
1
 40
1
 10
15.700631
 20
2.469071
 30
0.0
 10
15.613293
 20
2.418629
 30
0.0
 10
15.559511
 20
2.325413
 30
0.0
 10
15.559556
 20
2.224554
 30
0.0
  0
SPLINE
  5
13b
100
AcDbEntity
  8
Layer_1
 62
1
100
AcDbSpline
 70
8
 71
3
 72
8
 73
4
 74
0
 40
0
 40
0
 40
0
 40
0
 40
1
 40
1
 40
1
 40
1
 10
15.559556
 20
2.224554
 30
0.0
 10
15.559511
 20
2.123696
 30
0.0
 10
15.613293
 20
2.030480
 30
0.0
 10
15.700631
 20
1.980037
 30
0.0
  0
SPLINE
  5
13c
100
AcDbEntity
  8
Layer_1
 62
1
100
AcDbSpline
 70
8
 71
3
 72
8
 73
4
 74
0
 40
0
 40
0
 40
0
 40
0
 40
1
 40
1
 40
1
 40
1
 10
15.700631
 20
1.980037
 30
0.0
 10
15.787969
 20
1.929595
 30
0.0
 10
15.895588
 20
1.929595
 30
0.0
 10
15.982926
 20
1.980037
 30
0.0
  0
SPLINE
  5
13d
100
AcDbEntity
  8
Layer_1
 62
1
100
AcDbSpline
 70
8
 71
3
 72
8
 73
4
 74
0
 40
0
 40
0
 40
0
 40
0
 40
1
 40
1
 40
1
 40
1
 10
15.982926
 20
1.980037
 30
0.0
 10
16.070264
 20
2.030480
 30
0.0
 10
16.124046
 20
2.123696
 30
0.0
 10
16.124001
 20
2.224554
 30
0.0
  0
LWPOLYLINE
  5
13e
100
AcDbEntity
  8
Layer_1
 62
1
100
AcDbPolyline
 90
2
 70
1
 10
14.430667
 20
2.224554
 30
0.0
 10
14.430667
 20
2.224554
 30
0.0
  0
SPLINE
  5
13f
100
AcDbEntity
  8
Layer_1
 62
1
100
AcDbSpline
 70
8
 71
3
 72
8
 73
4
 74
0
 40
0
 40
0
 40
0
 40
0
 40
1
 40
1
 40
1
 40
1
 10
17.817334
 20
2.224554
 30
0.0
 10
17.817379
 20
2.325413
 30
0.0
 10
17.763598
 20
2.418629
 30
0.0
 10
17.676259
 20
2.469071
 30
0.0
  0
SPLINE
  5
140
100
AcDbEntity
  8
Layer_1
 62
1
100
AcDbSpline
 70
8
 71
3
 72
8
 73
4
 74
0
 40
0
 40
0
 40
0
 40
0
 40
1
 40
1
 40
1
 40
1
 10
17.676259
 20
2.469071
 30
0.0
 10
17.588921
 20
2.519513
 30
0.0
 10
17.481303
 20
2.519513
 30
0.0
 10
17.393964
 20
2.469071
 30
0.0
  0
SPLINE
  5
141
100
AcDbEntity
  8
Layer_1
 62
1
100
AcDbSpline
 70
8
 71
3
 72
8
 73
4
 74
0
 40
0
 40
0
 40
0
 40
0
 40
1
 40
1
 40
1
 40
1
 10
17.393964
 20
2.469071
 30
0.0
 10
17.306626
 20
2.418629
 30
0.0
 10
17.252844
 20
2.325413
 30
0.0
 10
17.252890
 20
2.224554
 30
0.0
  0
SPLINE
  5
142
100
AcDbEntity
  8
Layer_1
 62
1
100
AcDbSpline
 70
8
 71
3
 72
8
 73
4
 74
0
 40
0
 40
0
 40
0
 40
0
 40
1
 40
1
 40
1
 40
1
 10
17.252890
 20
2.224554
 30
0.0
 10
17.252844
 20
2.123696
 30
0.0
 10
17.306626
 20
2.030480
 30
0.0
 10
17.393964
 20
1.980037
 30
0.0
  0
SPLINE
  5
143
100
AcDbEntity
  8
Layer_1
 62
1
100
AcDbSpline
 70
8
 71
3
 72
8
 73
4
 74
0
 40
0
 40
0
 40
0
 40
0
 40
1
 40
1
 40
1
 40
1
 10
17.393964
 20
1.980037
 30
0.0
 10
17.481303
 20
1.929595
 30
0.0
 10
17.588921
 20
1.929595
 30
0.0
 10
17.676259
 20
1.980037
 30
0.0
  0
SPLINE
  5
144
100
AcDbEntity
  8
Layer_1
 62
1
100
AcDbSpline
 70
8
 71
3
 72
8
 73
4
 74
0
 40
0
 40
0
 40
0
 40
0
 40
1
 40
1
 40
1
 40
1
 10
17.676259
 20
1.980037
 30
0.0
 10
17.763598
 20
2.030480
 30
0.0
 10
17.817379
 20
2.123696
 30
0.0
 10
17.817334
 20
2.224554
 30
0.0
  0
LWPOLYLINE
  5
145
100
AcDbEntity
  8
Layer_1
 62
1
100
AcDbPolyline
 90
2
 70
1
 10
16.124001
 20
2.224554
 30
0.0
 10
16.124001
 20
2.224554
 30
0.0
  0
LWPOLYLINE
  5
146
100
AcDbEntity
  8
Layer_1
 62
1
100
AcDbPolyline
 90
2
 70
1
 10
17.817334
 20
2.224554
 30
0.0
 10
17.817334
 20
2.224554
 30
0.0
  0
LWPOLYLINE
  5
147
100
AcDbEntity
  8
Layer_1
 62
1
100
AcDbPolyline
 90
5
 70
1
 10
4.764557
 20
2.146948
 30
0.0
 10
4.764557
 20
5.463056
 30
0.0
 10
9.844556
 20
5.463056
 30
0.0
 10
9.844556
 20
2.146948
 30
0.0
 10
4.764557
 20
2.146948
 30
0.0
  0
ENDSEC
  0
SECTION
  2
OBJECTS
  0
DICTIONARY
  5
C
330
0
100
AcDbDictionary
  3
ACAD_GROUP
350
D
  3
ACAD_MLINESTYLE
350
17
  0
DICTIONARY
  5
D
330
C
100
AcDbDictionary
  0
DICTIONARY
  5
1A
330
C
100
AcDbDictionary
  0
DICTIONARY
  5
17
330
C
100
AcDbDictionary
  3
STANDARD
350
18
  0
DICTIONARY
  5
19
330
C
100
AcDbDictionary
  0
ENDSEC
  0
EOF
