<?xml version="1.0" encoding="UTF-8" standalone="no"?>
<!-- Created with Inkscape (http://www.inkscape.org/) -->

<svg
   xmlns:dc="http://purl.org/dc/elements/1.1/"
   xmlns:cc="http://creativecommons.org/ns#"
   xmlns:rdf="http://www.w3.org/1999/02/22-rdf-syntax-ns#"
   xmlns:svg="http://www.w3.org/2000/svg"
   xmlns="http://www.w3.org/2000/svg"
   xmlns:sodipodi="http://sodipodi.sourceforge.net/DTD/sodipodi-0.dtd"
   xmlns:inkscape="http://www.inkscape.org/namespaces/inkscape"
   width="106.26458mm"
   height="55.264576mm"
   viewBox="0 0 106.26458 55.264576"
   version="1.1"
   id="svg8"
   inkscape:version="0.92.3 (2405546, 2018-03-11)"
   sodipodi:docname="front.svg">
  <defs
     id="defs2">
    <marker
       style="overflow:visible"
       refY="0"
       refX="0"
       orient="auto"
       id="DistanceX">
      <path
         id="path12"
         style="stroke:#000000;stroke-width:0.5"
         d="M 3,-3 -3,3 M 0,-5 0,5"
         inkscape:connector-curvature="0" />
    </marker>
    <pattern
       y="0"
       x="0"
       width="8"
       patternUnits="userSpaceOnUse"
       id="Hatch"
       height="8">
      <path
         id="path15"
         stroke-width="0.25"
         stroke="#000000"
         linecap="square"
         d="M8 4 l-4,4" />
      <path
         id="path17"
         stroke-width="0.25"
         stroke="#000000"
         linecap="square"
         d="M6 2 l-4,4" />
      <path
         id="path19"
         stroke-width="0.25"
         stroke="#000000"
         linecap="square"
         d="M4 0 l-4,4" />
    </pattern>
    <symbol
       id="*MODEL_SPACE" />
    <symbol
       id="*PAPER_SPACE" />
  </defs>
  <sodipodi:namedview
     id="base"
     pagecolor="#ffffff"
     bordercolor="#666666"
     borderopacity="1.0"
     inkscape:pageopacity="0.0"
     inkscape:pageshadow="2"
     inkscape:zoom="2"
     inkscape:cx="166.76313"
     inkscape:cy="37.457829"
     inkscape:document-units="mm"
     inkscape:current-layer="layer1"
     showgrid="false"
     inkscape:window-width="1200"
     inkscape:window-height="1836"
     inkscape:window-x="-8"
     inkscape:window-y="-8"
     inkscape:window-maximized="1"
     fit-margin-top="0"
     fit-margin-left="0"
     fit-margin-right="0"
     fit-margin-bottom="0" />
  <metadata
     id="metadata5">
    <rdf:RDF>
      <cc:Work
         rdf:about="">
        <dc:format>image/svg+xml</dc:format>
        <dc:type
           rdf:resource="http://purl.org/dc/dcmitype/StillImage" />
        <dc:title />
      </cc:Work>
    </rdf:RDF>
  </metadata>
  <g
     inkscape:label="Layer 1"
     inkscape:groupmode="layer"
     id="layer1"
     transform="translate(-47.409384,-19.903421)">
    <path
       inkscape:connector-curvature="0"
       d="m 53.891671,23.785705 a 1.6000005,1.6000005 0 1 0 -3.200001,0 1.6000005,1.6000005 0 1 0 3.200001,0 z"
       style="fill:none;stroke:#ff0000;stroke-width:0.26458332;stroke-opacity:1"
       id="path50" />
    <path
       inkscape:connector-curvature="0"
       d="m 150.39167,23.785705 a 1.6000002,1.6000002 0 1 0 -3.2,0 1.6000002,1.6000002 0 1 0 3.2,0 z"
       style="fill:none;stroke:#ff0000;stroke-width:0.26458332;stroke-opacity:1"
       id="path52" />
    <path
       inkscape:connector-curvature="0"
       d="m 150.39167,71.285715 a 1.6000002,1.6000002 0 1 0 -3.2,0 1.6000002,1.6000002 0 1 0 3.2,0 z"
       style="fill:none;stroke:#ff0000;stroke-width:0.26458332;stroke-opacity:1"
       id="path54" />
    <path
       inkscape:connector-curvature="0"
       d="m 53.891671,71.285715 a 1.6000005,1.6000005 0 1 0 -3.200001,0 1.6000005,1.6000005 0 1 0 3.200001,0 z"
       style="fill:none;stroke:#ff0000;stroke-width:0.26458332;stroke-opacity:1"
       id="path56" />
    <path
       id="path70"
       style="fill:none;stroke:#0000ff;stroke-width:0.26458332;stroke-opacity:1"
       d="m 47.541671,20.035713 0,10.500072 1,-8.3e-5 0,34.000016 -1,-8.3e-5 0,10.500072 105.999999,0 0,-10.500072 -1,8.3e-5 0,-34.000016 1,8.2e-5 0,-10.500071 z"
       inkscape:connector-curvature="0"
       sodipodi:nodetypes="ccccccccccccc" />
    <path
       inkscape:connector-curvature="0"
       d="m 61.266672,60.885712 a 3.6250006,3.6250006 0 1 0 -7.250001,0 3.6250006,3.6250006 0 1 0 7.250001,0 z"
       style="fill:none;stroke:#ff0000;stroke-width:0.26458332;stroke-opacity:1"
       id="path72" />
    <path
       inkscape:connector-curvature="0"
       d="m 143.89167,64.785697 a 3.5000001,3.5000001 0 1 0 -7,0 3.5,3.5 0 1 0 7,0 z"
       style="fill:none;stroke:#ff0000;stroke-width:0.26458332;stroke-opacity:1"
       id="path74" />
    <path
       inkscape:connector-curvature="0"
       d="m 92.54167,67.285718 a 1.0000001,1.0000001 0 1 0 -2,0 1.0000001,1.0000001 0 1 0 2,0 z"
       style="fill:none;stroke:#ff0000;stroke-width:0.26458332;stroke-opacity:1"
       id="path76" />
    <path
       inkscape:connector-curvature="0"
       d="m 98.54167,67.285718 a 1.0000001,1.0000001 0 1 0 -2,0 1.0000001,1.0000001 0 1 0 2,0 z"
       style="fill:none;stroke:#ff0000;stroke-width:0.26458332;stroke-opacity:1"
       id="path78" />
    <path
       inkscape:connector-curvature="0"
       d="m 104.54167,67.285718 a 1.0000001,1.0000001 0 1 0 -2,0 1.0000001,1.0000001 0 1 0 2,0 z"
       style="fill:none;stroke:#ff0000;stroke-width:0.26458332;stroke-opacity:1"
       id="path80" />
    <path
       inkscape:connector-curvature="0"
       d="m 110.54167,67.285718 a 1.0000001,1.0000001 0 1 0 -2,0 1.0000001,1.0000001 0 1 0 2,0 z"
       style="fill:none;stroke:#ff0000;stroke-width:0.26458332;stroke-opacity:1"
       id="path82" />
    <path
       id="path90"
       style="fill:none;stroke:#ff0000;stroke-width:0.26458332;stroke-opacity:1"
       d="M 64.291672,67.5607 V 55.810713 H 82.29167 V 67.5607 Z"
       inkscape:connector-curvature="0"
       sodipodi:nodetypes="ccccc" />
  </g>
</svg>
