  0
SECTION
  2
HEADER
  9
$ACADVER
  1
AC1014
  9
$HANDSEED
  5
FFFF
  9
$MEASUREMENT
 70
     1
  0
ENDSEC
  0
SECTION
  2
TABLES
  0
TABLE
  2
VPORT
  5
8
330
0
100
AcDbSymbolTable
 70
     4
  0
VPORT
  5
2E
330
8
100
AcDbSymbolTableRecord
100
AcDbViewportTableRecord
  2
*ACTIVE
 70
     0
 10
0.0
 20
0.0
 11
1.0
 21
1.0
 12
210.0
 22
148.5
 13
0.0
 23
0.0
 14
10.0
 24
10.0
 15
10.0
 25
10.0
 16
0.0
 26
0.0
 36
1.0
 17
0.0
 27
0.0
 37
0.0
 40
341.0
 41
1.24
 42
50.0
 43
0.0
 44
0.0
 50
0.0
 51
0.0
 71
     0
 72
   100
 73
     1
 74
     3
 75
     0
 76
     0
 77
     0
 78
     0
  0
ENDTAB
  0
TABLE
  2
LTYPE
  5
5
330
0
100
AcDbSymbolTable
 70
     1
  0
LTYPE
  5
14
330
5
100
AcDbSymbolTableRecord
100
AcDbLinetypeTableRecord
  2
BYBLOCK
 70
     0
  3

 72
    65
 73
     0
 40
0.0
  0
LTYPE
  5
15
330
5
100
AcDbSymbolTableRecord
100
AcDbLinetypeTableRecord
  2
BYLAYER
 70
     0
  3

 72
    65
 73
     0
 40
0.0
  0
LTYPE
  5
16
330
5
100
AcDbSymbolTableRecord
100
AcDbLinetypeTableRecord
  2
CONTINUOUS
 70
     0
  3
Solid line
 72
    65
 73
     0
 40
0.0
  0
ENDTAB
  0
TABLE
  2
LAYER
  5
2
100
AcDbSymbolTable
 70
2
  0
LAYER
  5
50
100
AcDbSymbolTableRecord
100
AcDbLayerTableRecord
  2
0
 70
0
  6
CONTINUOUS
  0
LAYER
  5
51
100
AcDbSymbolTableRecord
100
AcDbLayerTableRecord
  2
Layer_1
 70
0
  6
CONTINUOUS
  0
ENDTAB
  0
TABLE
  2
STYLE
  5
3
330
0
100
AcDbSymbolTable
 70
     1
  0
STYLE
  5
11
330
3
100
AcDbSymbolTableRecord
100
AcDbTextStyleTableRecord
  2
STANDARD
 70
     0
 40
0.0
 41
1.0
 50
0.0
 71
     0
 42
2.5
  3
txt
  4

  0
ENDTAB
  0
TABLE
  2
VIEW
  5
6
330
0
100
AcDbSymbolTable
 70
     0
  0
ENDTAB
  0
TABLE
  2
UCS
  5
7
330
0
100
AcDbSymbolTable
 70
     0
  0
ENDTAB
  0
TABLE
  2
APPID
  5
9
330
0
100
AcDbSymbolTable
 70
     2
  0
APPID
  5
12
330
9
100
AcDbSymbolTableRecord
100
AcDbRegAppTableRecord
  2
ACAD
 70
     0
  0
ENDTAB
  0
TABLE
  2
DIMSTYLE
  5
A
330
0
100
AcDbSymbolTable
 70
     1
  0
DIMSTYLE
105
27
330
A
100
AcDbSymbolTableRecord
100
AcDbDimStyleTableRecord
  2
ISO-25
 70
     0
  3

  4

  5

  6

  7

 40
1.0
 41
2.5
 42
0.625
 43
3.75
 44
1.25
 45
0.0
 46
0.0
 47
0.0
 48
0.0
140
2.5
141
2.5
142
0.0
143
0.03937007874016
144
1.0
145
0.0
146
1.0
147
0.625
 71
     0
 72
     0
 73
     0
 74
     0
 75
     0
 76
     0
 77
     1
 78
     8
170
     0
171
     3
172
     1
173
     0
174
     0
175
     0
176
     0
177
     0
178
     0
270
     2
271
     2
272
     2
273
     2
274
     3
340
11
275
     0
280
     0
281
     0
282
     0
283
     0
284
     8
285
     0
286
     0
287
     3
288
     0
  0
ENDTAB
  0
TABLE
  2
BLOCK_RECORD
  5
1
330
0
100
AcDbSymbolTable
 70
     1
  0
BLOCK_RECORD
  5
1F
330
1
100
AcDbSymbolTableRecord
100
AcDbBlockTableRecord
  2
*MODEL_SPACE
  0
BLOCK_RECORD
  5
1B
330
1
100
AcDbSymbolTableRecord
100
AcDbBlockTableRecord
  2
*PAPER_SPACE
  0
ENDTAB
  0
ENDSEC
  0
SECTION
  2
BLOCKS
  0
BLOCK
  5
20
330
1F
100
AcDbEntity
  8
0
100
AcDbBlockBegin
  2
*MODEL_SPACE
 70
     0
 10
0.0
 20
0.0
 30
0.0
  3
*MODEL_SPACE
  1

  0
ENDBLK
  5
21
330
1F
100
AcDbEntity
  8
0
100
AcDbBlockEnd
  0
BLOCK
  5
1C
330
1B
100
AcDbEntity
 67
     1
  8
0
100
AcDbBlockBegin
  2
*PAPER_SPACE
  1

  0
ENDBLK
  5
1D
330
1B
100
AcDbEntity
 67
     1
  8
0
100
AcDbBlockEnd
  0
ENDSEC
  0
SECTION
  2
ENTITIES
  0
SPLINE
  5
100
100
AcDbEntity
  8
Layer_1
 62
1
100
AcDbSpline
 70
8
 71
3
 72
8
 73
4
 74
0
 40
0
 40
0
 40
0
 40
0
 40
1
 40
1
 40
1
 40
1
 10
1.829445
 20
14.501225
 30
0.0
 10
1.829445
 20
14.662550
 30
0.0
 10
1.743379
 20
14.811621
 30
0.0
 10
1.603668
 20
14.892283
 30
0.0
  0
SPLINE
  5
101
100
AcDbEntity
  8
Layer_1
 62
1
100
AcDbSpline
 70
8
 71
3
 72
8
 73
4
 74
0
 40
0
 40
0
 40
0
 40
0
 40
1
 40
1
 40
1
 40
1
 10
1.603668
 20
14.892283
 30
0.0
 10
1.463956
 20
14.972946
 30
0.0
 10
1.291824
 20
14.972946
 30
0.0
 10
1.152112
 20
14.892283
 30
0.0
  0
SPLINE
  5
102
100
AcDbEntity
  8
Layer_1
 62
1
100
AcDbSpline
 70
8
 71
3
 72
8
 73
4
 74
0
 40
0
 40
0
 40
0
 40
0
 40
1
 40
1
 40
1
 40
1
 10
1.152112
 20
14.892283
 30
0.0
 10
1.012400
 20
14.811621
 30
0.0
 10
0.926334
 20
14.662550
 30
0.0
 10
0.926334
 20
14.501225
 30
0.0
  0
SPLINE
  5
103
100
AcDbEntity
  8
Layer_1
 62
1
100
AcDbSpline
 70
8
 71
3
 72
8
 73
4
 74
0
 40
0
 40
0
 40
0
 40
0
 40
1
 40
1
 40
1
 40
1
 10
0.926334
 20
14.501225
 30
0.0
 10
0.926334
 20
14.339899
 30
0.0
 10
1.012400
 20
14.190829
 30
0.0
 10
1.152112
 20
14.110166
 30
0.0
  0
SPLINE
  5
104
100
AcDbEntity
  8
Layer_1
 62
1
100
AcDbSpline
 70
8
 71
3
 72
8
 73
4
 74
0
 40
0
 40
0
 40
0
 40
0
 40
1
 40
1
 40
1
 40
1
 10
1.152112
 20
14.110166
 30
0.0
 10
1.291824
 20
14.029503
 30
0.0
 10
1.463956
 20
14.029503
 30
0.0
 10
1.603668
 20
14.110166
 30
0.0
  0
SPLINE
  5
105
100
AcDbEntity
  8
Layer_1
 62
1
100
AcDbSpline
 70
8
 71
3
 72
8
 73
4
 74
0
 40
0
 40
0
 40
0
 40
0
 40
1
 40
1
 40
1
 40
1
 10
1.603668
 20
14.110166
 30
0.0
 10
1.743379
 20
14.190829
 30
0.0
 10
1.829445
 20
14.339899
 30
0.0
 10
1.829445
 20
14.501225
 30
0.0
  0
SPLINE
  5
106
100
AcDbEntity
  8
Layer_1
 62
1
100
AcDbSpline
 70
8
 71
3
 72
8
 73
4
 74
0
 40
0
 40
0
 40
0
 40
0
 40
1
 40
1
 40
1
 40
1
 10
29.063890
 20
14.501225
 30
0.0
 10
29.063971
 20
14.662604
 30
0.0
 10
28.977923
 20
14.811759
 30
0.0
 10
28.838178
 20
14.892471
 30
0.0
  0
SPLINE
  5
107
100
AcDbEntity
  8
Layer_1
 62
1
100
AcDbSpline
 70
8
 71
3
 72
8
 73
4
 74
0
 40
0
 40
0
 40
0
 40
0
 40
1
 40
1
 40
1
 40
1
 10
28.838178
 20
14.892471
 30
0.0
 10
28.698433
 20
14.973184
 30
0.0
 10
28.526237
 20
14.973184
 30
0.0
 10
28.386492
 20
14.892471
 30
0.0
  0
SPLINE
  5
108
100
AcDbEntity
  8
Layer_1
 62
1
100
AcDbSpline
 70
8
 71
3
 72
8
 73
4
 74
0
 40
0
 40
0
 40
0
 40
0
 40
1
 40
1
 40
1
 40
1
 10
28.386492
 20
14.892471
 30
0.0
 10
28.246747
 20
14.811759
 30
0.0
 10
28.160698
 20
14.662604
 30
0.0
 10
28.160779
 20
14.501225
 30
0.0
  0
SPLINE
  5
109
100
AcDbEntity
  8
Layer_1
 62
1
100
AcDbSpline
 70
8
 71
3
 72
8
 73
4
 74
0
 40
0
 40
0
 40
0
 40
0
 40
1
 40
1
 40
1
 40
1
 10
28.160779
 20
14.501225
 30
0.0
 10
28.160698
 20
14.339846
 30
0.0
 10
28.246747
 20
14.190691
 30
0.0
 10
28.386492
 20
14.109978
 30
0.0
  0
SPLINE
  5
10a
100
AcDbEntity
  8
Layer_1
 62
1
100
AcDbSpline
 70
8
 71
3
 72
8
 73
4
 74
0
 40
0
 40
0
 40
0
 40
0
 40
1
 40
1
 40
1
 40
1
 10
28.386492
 20
14.109978
 30
0.0
 10
28.526237
 20
14.029265
 30
0.0
 10
28.698433
 20
14.029265
 30
0.0
 10
28.838178
 20
14.109978
 30
0.0
  0
SPLINE
  5
10b
100
AcDbEntity
  8
Layer_1
 62
1
100
AcDbSpline
 70
8
 71
3
 72
8
 73
4
 74
0
 40
0
 40
0
 40
0
 40
0
 40
1
 40
1
 40
1
 40
1
 10
28.838178
 20
14.109978
 30
0.0
 10
28.977923
 20
14.190691
 30
0.0
 10
29.063971
 20
14.339846
 30
0.0
 10
29.063890
 20
14.501225
 30
0.0
  0
LWPOLYLINE
  5
10c
100
AcDbEntity
  8
Layer_1
 62
1
100
AcDbPolyline
 90
2
 70
1
 10
1.829445
 20
14.501225
 30
0.0
 10
1.829445
 20
14.501225
 30
0.0
  0
SPLINE
  5
10d
100
AcDbEntity
  8
Layer_1
 62
1
100
AcDbSpline
 70
8
 71
3
 72
8
 73
4
 74
0
 40
0
 40
0
 40
0
 40
0
 40
1
 40
1
 40
1
 40
1
 10
29.063890
 20
1.095666
 30
0.0
 10
29.063971
 20
1.257045
 30
0.0
 10
28.977923
 20
1.406200
 30
0.0
 10
28.838178
 20
1.486913
 30
0.0
  0
SPLINE
  5
10e
100
AcDbEntity
  8
Layer_1
 62
1
100
AcDbSpline
 70
8
 71
3
 72
8
 73
4
 74
0
 40
0
 40
0
 40
0
 40
0
 40
1
 40
1
 40
1
 40
1
 10
28.838178
 20
1.486913
 30
0.0
 10
28.698433
 20
1.567626
 30
0.0
 10
28.526237
 20
1.567626
 30
0.0
 10
28.386492
 20
1.486913
 30
0.0
  0
SPLINE
  5
10f
100
AcDbEntity
  8
Layer_1
 62
1
100
AcDbSpline
 70
8
 71
3
 72
8
 73
4
 74
0
 40
0
 40
0
 40
0
 40
0
 40
1
 40
1
 40
1
 40
1
 10
28.386492
 20
1.486913
 30
0.0
 10
28.246747
 20
1.406200
 30
0.0
 10
28.160698
 20
1.257045
 30
0.0
 10
28.160779
 20
1.095666
 30
0.0
  0
SPLINE
  5
110
100
AcDbEntity
  8
Layer_1
 62
1
100
AcDbSpline
 70
8
 71
3
 72
8
 73
4
 74
0
 40
0
 40
0
 40
0
 40
0
 40
1
 40
1
 40
1
 40
1
 10
28.160779
 20
1.095666
 30
0.0
 10
28.160698
 20
0.934287
 30
0.0
 10
28.246747
 20
0.785132
 30
0.0
 10
28.386492
 20
0.704419
 30
0.0
  0
SPLINE
  5
111
100
AcDbEntity
  8
Layer_1
 62
1
100
AcDbSpline
 70
8
 71
3
 72
8
 73
4
 74
0
 40
0
 40
0
 40
0
 40
0
 40
1
 40
1
 40
1
 40
1
 10
28.386492
 20
0.704419
 30
0.0
 10
28.526237
 20
0.623707
 30
0.0
 10
28.698433
 20
0.623707
 30
0.0
 10
28.838178
 20
0.704419
 30
0.0
  0
SPLINE
  5
112
100
AcDbEntity
  8
Layer_1
 62
1
100
AcDbSpline
 70
8
 71
3
 72
8
 73
4
 74
0
 40
0
 40
0
 40
0
 40
0
 40
1
 40
1
 40
1
 40
1
 10
28.838178
 20
0.704419
 30
0.0
 10
28.977923
 20
0.785132
 30
0.0
 10
29.063971
 20
0.934287
 30
0.0
 10
29.063890
 20
1.095666
 30
0.0
  0
LWPOLYLINE
  5
113
100
AcDbEntity
  8
Layer_1
 62
1
100
AcDbPolyline
 90
2
 70
1
 10
29.063890
 20
14.501225
 30
0.0
 10
29.063890
 20
14.501225
 30
0.0
  0
SPLINE
  5
114
100
AcDbEntity
  8
Layer_1
 62
1
100
AcDbSpline
 70
8
 71
3
 72
8
 73
4
 74
0
 40
0
 40
0
 40
0
 40
0
 40
1
 40
1
 40
1
 40
1
 10
1.829445
 20
1.095666
 30
0.0
 10
1.829445
 20
1.256992
 30
0.0
 10
1.743379
 20
1.406062
 30
0.0
 10
1.603668
 20
1.486725
 30
0.0
  0
SPLINE
  5
115
100
AcDbEntity
  8
Layer_1
 62
1
100
AcDbSpline
 70
8
 71
3
 72
8
 73
4
 74
0
 40
0
 40
0
 40
0
 40
0
 40
1
 40
1
 40
1
 40
1
 10
1.603668
 20
1.486725
 30
0.0
 10
1.463956
 20
1.567388
 30
0.0
 10
1.291824
 20
1.567388
 30
0.0
 10
1.152112
 20
1.486725
 30
0.0
  0
SPLINE
  5
116
100
AcDbEntity
  8
Layer_1
 62
1
100
AcDbSpline
 70
8
 71
3
 72
8
 73
4
 74
0
 40
0
 40
0
 40
0
 40
0
 40
1
 40
1
 40
1
 40
1
 10
1.152112
 20
1.486725
 30
0.0
 10
1.012400
 20
1.406062
 30
0.0
 10
0.926334
 20
1.256992
 30
0.0
 10
0.926334
 20
1.095666
 30
0.0
  0
SPLINE
  5
117
100
AcDbEntity
  8
Layer_1
 62
1
100
AcDbSpline
 70
8
 71
3
 72
8
 73
4
 74
0
 40
0
 40
0
 40
0
 40
0
 40
1
 40
1
 40
1
 40
1
 10
0.926334
 20
1.095666
 30
0.0
 10
0.926334
 20
0.934341
 30
0.0
 10
1.012400
 20
0.785270
 30
0.0
 10
1.152112
 20
0.704608
 30
0.0
  0
SPLINE
  5
118
100
AcDbEntity
  8
Layer_1
 62
1
100
AcDbSpline
 70
8
 71
3
 72
8
 73
4
 74
0
 40
0
 40
0
 40
0
 40
0
 40
1
 40
1
 40
1
 40
1
 10
1.152112
 20
0.704608
 30
0.0
 10
1.291824
 20
0.623945
 30
0.0
 10
1.463956
 20
0.623945
 30
0.0
 10
1.603668
 20
0.704608
 30
0.0
  0
SPLINE
  5
119
100
AcDbEntity
  8
Layer_1
 62
1
100
AcDbSpline
 70
8
 71
3
 72
8
 73
4
 74
0
 40
0
 40
0
 40
0
 40
0
 40
1
 40
1
 40
1
 40
1
 10
1.603668
 20
0.704608
 30
0.0
 10
1.743379
 20
0.785270
 30
0.0
 10
1.829445
 20
0.934341
 30
0.0
 10
1.829445
 20
1.095666
 30
0.0
  0
LWPOLYLINE
  5
11a
100
AcDbEntity
  8
Layer_1
 62
1
100
AcDbPolyline
 90
2
 70
1
 10
29.063890
 20
1.095666
 30
0.0
 10
29.063890
 20
1.095666
 30
0.0
  0
LWPOLYLINE
  5
11b
100
AcDbEntity
  8
Layer_1
 62
1
100
AcDbPolyline
 90
2
 70
1
 10
1.829445
 20
1.095666
 30
0.0
 10
1.829445
 20
1.095666
 30
0.0
  0
SPLINE
  5
11c
100
AcDbEntity
  8
Layer_1
 62
1
100
AcDbSpline
 70
8
 71
3
 72
8
 73
4
 74
0
 40
0
 40
0
 40
0
 40
0
 40
1
 40
1
 40
1
 40
1
 10
5.540668
 20
3.988447
 30
0.0
 10
5.540803
 20
4.442265
 30
0.0
 10
5.298772
 20
4.861667
 30
0.0
 10
4.905777
 20
5.088615
 30
0.0
  0
SPLINE
  5
11d
100
AcDbEntity
  8
Layer_1
 62
1
100
AcDbSpline
 70
8
 71
3
 72
8
 73
4
 74
0
 40
0
 40
0
 40
0
 40
0
 40
1
 40
1
 40
1
 40
1
 10
4.905777
 20
5.088615
 30
0.0
 10
4.512782
 20
5.315563
 30
0.0
 10
4.028553
 20
5.315563
 30
0.0
 10
3.635558
 20
5.088615
 30
0.0
  0
SPLINE
  5
11e
100
AcDbEntity
  8
Layer_1
 62
1
100
AcDbSpline
 70
8
 71
3
 72
8
 73
4
 74
0
 40
0
 40
0
 40
0
 40
0
 40
1
 40
1
 40
1
 40
1
 10
3.635558
 20
5.088615
 30
0.0
 10
3.242563
 20
4.861667
 30
0.0
 10
3.000532
 20
4.442265
 30
0.0
 10
3.000668
 20
3.988447
 30
0.0
  0
SPLINE
  5
11f
100
AcDbEntity
  8
Layer_1
 62
1
100
AcDbSpline
 70
8
 71
3
 72
8
 73
4
 74
0
 40
0
 40
0
 40
0
 40
0
 40
1
 40
1
 40
1
 40
1
 10
3.000668
 20
3.988447
 30
0.0
 10
3.000532
 20
3.534630
 30
0.0
 10
3.242563
 20
3.115227
 30
0.0
 10
3.635558
 20
2.888279
 30
0.0
  0
SPLINE
  5
120
100
AcDbEntity
  8
Layer_1
 62
1
100
AcDbSpline
 70
8
 71
3
 72
8
 73
4
 74
0
 40
0
 40
0
 40
0
 40
0
 40
1
 40
1
 40
1
 40
1
 10
3.635558
 20
2.888279
 30
0.0
 10
4.028553
 20
2.661331
 30
0.0
 10
4.512782
 20
2.661331
 30
0.0
 10
4.905777
 20
2.888279
 30
0.0
  0
SPLINE
  5
121
100
AcDbEntity
  8
Layer_1
 62
1
100
AcDbSpline
 70
8
 71
3
 72
8
 73
4
 74
0
 40
0
 40
0
 40
0
 40
0
 40
1
 40
1
 40
1
 40
1
 10
4.905777
 20
2.888279
 30
0.0
 10
5.298772
 20
3.115227
 30
0.0
 10
5.540803
 20
3.534630
 30
0.0
 10
5.540668
 20
3.988447
 30
0.0
  0
LWPOLYLINE
  5
122
100
AcDbEntity
  8
Layer_1
 62
5
100
AcDbPolyline
 90
13
 70
1
 10
0.037334
 20
15.559556
 30
0.0
 10
0.037334
 20
12.596202
 30
0.0
 10
0.319557
 20
12.596225
 30
0.0
 10
0.319557
 20
3.000665
 30
0.0
 10
0.037334
 20
3.000689
 30
0.0
 10
0.037334
 20
0.037335
 30
0.0
 10
29.952890
 20
0.037335
 30
0.0
 10
29.952890
 20
3.000689
 30
0.0
 10
29.670668
 20
3.000665
 30
0.0
 10
29.670668
 20
12.596225
 30
0.0
 10
29.952890
 20
12.596202
 30
0.0
 10
29.952890
 20
15.559556
 30
0.0
 10
0.037334
 20
15.559556
 30
0.0
  0
SPLINE
  5
123
100
AcDbEntity
  8
Layer_1
 62
1
100
AcDbSpline
 70
8
 71
3
 72
8
 73
4
 74
0
 40
0
 40
0
 40
0
 40
0
 40
1
 40
1
 40
1
 40
1
 10
10.832334
 20
2.295111
 30
0.0
 10
10.832415
 20
2.622857
 30
0.0
 10
10.657612
 20
2.925742
 30
0.0
 10
10.373789
 20
3.089639
 30
0.0
  0
SPLINE
  5
124
100
AcDbEntity
  8
Layer_1
 62
1
100
AcDbSpline
 70
8
 71
3
 72
8
 73
4
 74
0
 40
0
 40
0
 40
0
 40
0
 40
1
 40
1
 40
1
 40
1
 10
10.373789
 20
3.089639
 30
0.0
 10
10.089966
 20
3.253535
 30
0.0
 10
9.740258
 20
3.253535
 30
0.0
 10
9.456435
 20
3.089639
 30
0.0
  0
SPLINE
  5
125
100
AcDbEntity
  8
Layer_1
 62
1
100
AcDbSpline
 70
8
 71
3
 72
8
 73
4
 74
0
 40
0
 40
0
 40
0
 40
0
 40
1
 40
1
 40
1
 40
1
 10
9.456435
 20
3.089639
 30
0.0
 10
9.172612
 20
2.925742
 30
0.0
 10
8.997808
 20
2.622857
 30
0.0
 10
8.997890
 20
2.295111
 30
0.0
  0
SPLINE
  5
126
100
AcDbEntity
  8
Layer_1
 62
1
100
AcDbSpline
 70
8
 71
3
 72
8
 73
4
 74
0
 40
0
 40
0
 40
0
 40
0
 40
1
 40
1
 40
1
 40
1
 10
8.997890
 20
2.295111
 30
0.0
 10
8.997808
 20
1.967365
 30
0.0
 10
9.172612
 20
1.664480
 30
0.0
 10
9.456435
 20
1.500584
 30
0.0
  0
SPLINE
  5
127
100
AcDbEntity
  8
Layer_1
 62
1
100
AcDbSpline
 70
8
 71
3
 72
8
 73
4
 74
0
 40
0
 40
0
 40
0
 40
0
 40
1
 40
1
 40
1
 40
1
 10
9.456435
 20
1.500584
 30
0.0
 10
9.740258
 20
1.336687
 30
0.0
 10
10.089966
 20
1.336687
 30
0.0
 10
10.373789
 20
1.500584
 30
0.0
  0
SPLINE
  5
128
100
AcDbEntity
  8
Layer_1
 62
1
100
AcDbSpline
 70
8
 71
3
 72
8
 73
4
 74
0
 40
0
 40
0
 40
0
 40
0
 40
1
 40
1
 40
1
 40
1
 10
10.373789
 20
1.500584
 30
0.0
 10
10.657612
 20
1.664480
 30
0.0
 10
10.832415
 20
1.967365
 30
0.0
 10
10.832334
 20
2.295111
 30
0.0
  0
LWPOLYLINE
  5
129
100
AcDbEntity
  8
Layer_1
 62
1
100
AcDbPolyline
 90
2
 70
1
 10
5.540668
 20
3.988447
 30
0.0
 10
5.540668
 20
3.988447
 30
0.0
  0
SPLINE
  5
12a
100
AcDbEntity
  8
Layer_1
 62
1
100
AcDbSpline
 70
8
 71
3
 72
8
 73
4
 74
0
 40
0
 40
0
 40
0
 40
0
 40
1
 40
1
 40
1
 40
1
 10
19.863446
 20
2.295111
 30
0.0
 10
19.863527
 20
2.622857
 30
0.0
 10
19.688723
 20
2.925742
 30
0.0
 10
19.404900
 20
3.089639
 30
0.0
  0
SPLINE
  5
12b
100
AcDbEntity
  8
Layer_1
 62
1
100
AcDbSpline
 70
8
 71
3
 72
8
 73
4
 74
0
 40
0
 40
0
 40
0
 40
0
 40
1
 40
1
 40
1
 40
1
 10
19.404900
 20
3.089639
 30
0.0
 10
19.121077
 20
3.253535
 30
0.0
 10
18.771370
 20
3.253535
 30
0.0
 10
18.487547
 20
3.089639
 30
0.0
  0
SPLINE
  5
12c
100
AcDbEntity
  8
Layer_1
 62
1
100
AcDbSpline
 70
8
 71
3
 72
8
 73
4
 74
0
 40
0
 40
0
 40
0
 40
0
 40
1
 40
1
 40
1
 40
1
 10
18.487547
 20
3.089639
 30
0.0
 10
18.203724
 20
2.925742
 30
0.0
 10
18.028920
 20
2.622857
 30
0.0
 10
18.029001
 20
2.295111
 30
0.0
  0
SPLINE
  5
12d
100
AcDbEntity
  8
Layer_1
 62
1
100
AcDbSpline
 70
8
 71
3
 72
8
 73
4
 74
0
 40
0
 40
0
 40
0
 40
0
 40
1
 40
1
 40
1
 40
1
 10
18.029001
 20
2.295111
 30
0.0
 10
18.028920
 20
1.967365
 30
0.0
 10
18.203724
 20
1.664480
 30
0.0
 10
18.487547
 20
1.500584
 30
0.0
  0
SPLINE
  5
12e
100
AcDbEntity
  8
Layer_1
 62
1
100
AcDbSpline
 70
8
 71
3
 72
8
 73
4
 74
0
 40
0
 40
0
 40
0
 40
0
 40
1
 40
1
 40
1
 40
1
 10
18.487547
 20
1.500584
 30
0.0
 10
18.771370
 20
1.336687
 30
0.0
 10
19.121077
 20
1.336687
 30
0.0
 10
19.404900
 20
1.500584
 30
0.0
  0
SPLINE
  5
12f
100
AcDbEntity
  8
Layer_1
 62
1
100
AcDbSpline
 70
8
 71
3
 72
8
 73
4
 74
0
 40
0
 40
0
 40
0
 40
0
 40
1
 40
1
 40
1
 40
1
 10
19.404900
 20
1.500584
 30
0.0
 10
19.688723
 20
1.664480
 30
0.0
 10
19.863527
 20
1.967365
 30
0.0
 10
19.863446
 20
2.295111
 30
0.0
  0
LWPOLYLINE
  5
130
100
AcDbEntity
  8
Layer_1
 62
1
100
AcDbPolyline
 90
2
 70
1
 10
10.832334
 20
2.295111
 30
0.0
 10
10.832334
 20
2.295111
 30
0.0
  0
LWPOLYLINE
  5
131
100
AcDbEntity
  8
Layer_1
 62
1
100
AcDbPolyline
 90
2
 70
1
 10
19.863446
 20
2.295111
 30
0.0
 10
19.863446
 20
2.295111
 30
0.0
  0
ENDSEC
  0
SECTION
  2
OBJECTS
  0
DICTIONARY
  5
C
330
0
100
AcDbDictionary
  3
ACAD_GROUP
350
D
  3
ACAD_MLINESTYLE
350
17
  0
DICTIONARY
  5
D
330
C
100
AcDbDictionary
  0
DICTIONARY
  5
1A
330
C
100
AcDbDictionary
  0
DICTIONARY
  5
17
330
C
100
AcDbDictionary
  3
STANDARD
350
18
  0
DICTIONARY
  5
19
330
C
100
AcDbDictionary
  0
ENDSEC
  0
EOF
