G04 #@! TF.GenerationSoftware,KiCad,Pcbnew,5.1.5-52549c5~84~ubuntu18.04.1*
G04 #@! TF.CreationDate,2020-03-18T22:44:17-07:00*
G04 #@! TF.ProjectId,endcap,656e6463-6170-42e6-9b69-6361645f7063,rev?*
G04 #@! TF.SameCoordinates,PX2faf080PY2faf080*
G04 #@! TF.FileFunction,Legend,Top*
G04 #@! TF.FilePolarity,Positive*
%FSLAX46Y46*%
G04 Gerber Fmt 4.6, Leading zero omitted, Abs format (unit mm)*
G04 Created by KiCad (PCBNEW 5.1.5-52549c5~84~ubuntu18.04.1) date 2020-03-18 22:44:17*
%MOMM*%
%LPD*%
G04 APERTURE LIST*
%ADD10C,0.300000*%
%ADD11C,0.200000*%
%ADD12C,0.500000*%
G04 APERTURE END LIST*
D10*
X58683333Y-30904761D02*
X58683333Y-32095238D01*
X57969047Y-30666666D02*
X60469047Y-31500000D01*
X57969047Y-32333333D01*
X57969047Y-33166666D02*
X60469047Y-33166666D01*
X60469047Y-33761904D01*
X60350000Y-34119047D01*
X60111904Y-34357142D01*
X59873809Y-34476190D01*
X59397619Y-34595238D01*
X59040476Y-34595238D01*
X58564285Y-34476190D01*
X58326190Y-34357142D01*
X58088095Y-34119047D01*
X57969047Y-33761904D01*
X57969047Y-33166666D01*
X58207142Y-37095238D02*
X58088095Y-36976190D01*
X57969047Y-36619047D01*
X57969047Y-36380952D01*
X58088095Y-36023809D01*
X58326190Y-35785714D01*
X58564285Y-35666666D01*
X59040476Y-35547619D01*
X59397619Y-35547619D01*
X59873809Y-35666666D01*
X60111904Y-35785714D01*
X60350000Y-36023809D01*
X60469047Y-36380952D01*
X60469047Y-36619047D01*
X60350000Y-36976190D01*
X60230952Y-37095238D01*
D11*
X64000000Y-37800000D02*
X64000000Y-38300000D01*
X54400000Y-37800000D02*
X54400000Y-38300000D01*
X64000000Y-37800000D02*
X54400000Y-37800000D01*
D10*
X70507142Y-36418809D02*
X70388095Y-36299761D01*
X70269047Y-35942619D01*
X70269047Y-35704523D01*
X70388095Y-35347380D01*
X70626190Y-35109285D01*
X70864285Y-34990238D01*
X71340476Y-34871190D01*
X71697619Y-34871190D01*
X72173809Y-34990238D01*
X72411904Y-35109285D01*
X72650000Y-35347380D01*
X72769047Y-35704523D01*
X72769047Y-35942619D01*
X72650000Y-36299761D01*
X72530952Y-36418809D01*
X70269047Y-38680714D02*
X70269047Y-37490238D01*
X72769047Y-37490238D01*
X72530952Y-39395000D02*
X72650000Y-39514047D01*
X72769047Y-39752142D01*
X72769047Y-40347380D01*
X72650000Y-40585476D01*
X72530952Y-40704523D01*
X72292857Y-40823571D01*
X72054761Y-40823571D01*
X71697619Y-40704523D01*
X70269047Y-39275952D01*
X70269047Y-40823571D01*
X80607142Y-36418809D02*
X80488095Y-36299761D01*
X80369047Y-35942619D01*
X80369047Y-35704523D01*
X80488095Y-35347380D01*
X80726190Y-35109285D01*
X80964285Y-34990238D01*
X81440476Y-34871190D01*
X81797619Y-34871190D01*
X82273809Y-34990238D01*
X82511904Y-35109285D01*
X82750000Y-35347380D01*
X82869047Y-35704523D01*
X82869047Y-35942619D01*
X82750000Y-36299761D01*
X82630952Y-36418809D01*
X80369047Y-38680714D02*
X80369047Y-37490238D01*
X82869047Y-37490238D01*
X80369047Y-40823571D02*
X80369047Y-39395000D01*
X80369047Y-40109285D02*
X82869047Y-40109285D01*
X82511904Y-39871190D01*
X82273809Y-39633095D01*
X82154761Y-39395000D01*
D11*
X32121428Y-31528571D02*
X32121428Y-30814285D01*
X33621428Y-30814285D01*
X32121428Y-32028571D02*
X33621428Y-32028571D01*
X32121428Y-32885714D01*
X33621428Y-32885714D01*
X32121428Y-33600000D02*
X33621428Y-33600000D01*
X32121428Y-34457142D02*
X32978571Y-33814285D01*
X33621428Y-34457142D02*
X32764285Y-33600000D01*
X18550000Y-30921428D02*
X18550000Y-31635714D01*
X18121428Y-30778571D02*
X19621428Y-31278571D01*
X18121428Y-31778571D01*
X18264285Y-33135714D02*
X18192857Y-33064285D01*
X18121428Y-32850000D01*
X18121428Y-32707142D01*
X18192857Y-32492857D01*
X18335714Y-32350000D01*
X18478571Y-32278571D01*
X18764285Y-32207142D01*
X18978571Y-32207142D01*
X19264285Y-32278571D01*
X19407142Y-32350000D01*
X19550000Y-32492857D01*
X19621428Y-32707142D01*
X19621428Y-32850000D01*
X19550000Y-33064285D01*
X19478571Y-33135714D01*
X19621428Y-33564285D02*
X19621428Y-34421428D01*
X18121428Y-33992857D02*
X19621428Y-33992857D01*
X61521428Y-48666339D02*
X63021428Y-48853839D01*
X62307142Y-48764553D02*
X62307142Y-49621696D01*
X61521428Y-49523482D02*
X63021428Y-49710982D01*
X63021428Y-50282410D02*
X61521428Y-50452053D01*
X62592857Y-50871696D01*
X61521428Y-51023482D01*
X63021428Y-51568125D01*
X55392857Y-48832410D02*
X55321428Y-49037767D01*
X55321428Y-49394910D01*
X55392857Y-49546696D01*
X55464285Y-49627053D01*
X55607142Y-49716339D01*
X55750000Y-49734196D01*
X55892857Y-49680625D01*
X55964285Y-49618125D01*
X56035714Y-49484196D01*
X56107142Y-49207410D01*
X56178571Y-49073482D01*
X56250000Y-49010982D01*
X56392857Y-48957410D01*
X56535714Y-48975267D01*
X56678571Y-49064553D01*
X56750000Y-49144910D01*
X56821428Y-49296696D01*
X56821428Y-49653839D01*
X56750000Y-49859196D01*
X55321428Y-50323482D02*
X56821428Y-50510982D01*
X56821428Y-51082410D01*
X56750000Y-51216339D01*
X56678571Y-51278839D01*
X56535714Y-51332410D01*
X56321428Y-51305625D01*
X56178571Y-51216339D01*
X56107142Y-51135982D01*
X56035714Y-50984196D01*
X56035714Y-50412767D01*
X55321428Y-51823482D02*
X56821428Y-52010982D01*
X56821428Y-52368125D01*
X56750000Y-52573482D01*
X56607142Y-52698482D01*
X56464285Y-52752053D01*
X56178571Y-52787767D01*
X55964285Y-52760982D01*
X55678571Y-52653839D01*
X55535714Y-52564553D01*
X55392857Y-52403839D01*
X55321428Y-52180625D01*
X55321428Y-51823482D01*
X49221428Y-48702053D02*
X50721428Y-48889553D01*
X49221428Y-49416339D02*
X50721428Y-49603839D01*
X50721428Y-50175267D01*
X50650000Y-50309196D01*
X50578571Y-50371696D01*
X50435714Y-50425267D01*
X50221428Y-50398482D01*
X50078571Y-50309196D01*
X50007142Y-50228839D01*
X49935714Y-50077053D01*
X49935714Y-49505625D01*
X43064285Y-49577053D02*
X42992857Y-49496696D01*
X42921428Y-49273482D01*
X42921428Y-49130625D01*
X42992857Y-48925267D01*
X43135714Y-48800267D01*
X43278571Y-48746696D01*
X43564285Y-48710982D01*
X43778571Y-48737767D01*
X44064285Y-48844910D01*
X44207142Y-48934196D01*
X44350000Y-49094910D01*
X44421428Y-49318125D01*
X44421428Y-49460982D01*
X44350000Y-49666339D01*
X44278571Y-49728839D01*
X42921428Y-50916339D02*
X42921428Y-50202053D01*
X44421428Y-50389553D01*
X42921428Y-51416339D02*
X44421428Y-51603839D01*
X42921428Y-52273482D02*
X43778571Y-51737767D01*
X44421428Y-52460982D02*
X43564285Y-51496696D01*
D10*
X42469047Y-39754761D02*
X43659523Y-38921428D01*
X42469047Y-38326190D02*
X44969047Y-38326190D01*
X44969047Y-39278571D01*
X44850000Y-39516666D01*
X44730952Y-39635714D01*
X44492857Y-39754761D01*
X44135714Y-39754761D01*
X43897619Y-39635714D01*
X43778571Y-39516666D01*
X43659523Y-39278571D01*
X43659523Y-38326190D01*
X44969047Y-40826190D02*
X42945238Y-40826190D01*
X42707142Y-40945238D01*
X42588095Y-41064285D01*
X42469047Y-41302380D01*
X42469047Y-41778571D01*
X42588095Y-42016666D01*
X42707142Y-42135714D01*
X42945238Y-42254761D01*
X44969047Y-42254761D01*
X42469047Y-43445238D02*
X44969047Y-43445238D01*
X42469047Y-44873809D01*
X44969047Y-44873809D01*
X51069047Y-41195238D02*
X51069047Y-42623809D01*
X48569047Y-41909523D02*
X51069047Y-41909523D01*
X51069047Y-43219047D02*
X48569047Y-44885714D01*
X51069047Y-44885714D02*
X48569047Y-43219047D01*
X61069047Y-40133333D02*
X61069047Y-38704761D01*
X61069047Y-39419047D02*
X63569047Y-39419047D01*
X63211904Y-39180952D01*
X62973809Y-38942857D01*
X62854761Y-38704761D01*
X63569047Y-41680952D02*
X63569047Y-41919047D01*
X63450000Y-42157142D01*
X63330952Y-42276190D01*
X63092857Y-42395238D01*
X62616666Y-42514285D01*
X62021428Y-42514285D01*
X61545238Y-42395238D01*
X61307142Y-42276190D01*
X61188095Y-42157142D01*
X61069047Y-41919047D01*
X61069047Y-41680952D01*
X61188095Y-41442857D01*
X61307142Y-41323809D01*
X61545238Y-41204761D01*
X62021428Y-41085714D01*
X62616666Y-41085714D01*
X63092857Y-41204761D01*
X63330952Y-41323809D01*
X63450000Y-41442857D01*
X63569047Y-41680952D01*
X63569047Y-44061904D02*
X63569047Y-44300000D01*
X63450000Y-44538095D01*
X63330952Y-44657142D01*
X63092857Y-44776190D01*
X62616666Y-44895238D01*
X62021428Y-44895238D01*
X61545238Y-44776190D01*
X61307142Y-44657142D01*
X61188095Y-44538095D01*
X61069047Y-44300000D01*
X61069047Y-44061904D01*
X61188095Y-43823809D01*
X61307142Y-43704761D01*
X61545238Y-43585714D01*
X62021428Y-43466666D01*
X62616666Y-43466666D01*
X63092857Y-43585714D01*
X63330952Y-43704761D01*
X63450000Y-43823809D01*
X63569047Y-44061904D01*
X57369047Y-40976190D02*
X57369047Y-42642857D01*
X54869047Y-41571428D01*
X57369047Y-44785714D02*
X57369047Y-43595238D01*
X56178571Y-43476190D01*
X56297619Y-43595238D01*
X56416666Y-43833333D01*
X56416666Y-44428571D01*
X56297619Y-44666666D01*
X56178571Y-44785714D01*
X55940476Y-44904761D01*
X55345238Y-44904761D01*
X55107142Y-44785714D01*
X54988095Y-44666666D01*
X54869047Y-44428571D01*
X54869047Y-43833333D01*
X54988095Y-43595238D01*
X55107142Y-43476190D01*
X11094047Y-23147857D02*
X11094047Y-21719285D01*
X11094047Y-22433571D02*
X13594047Y-22433571D01*
X13236904Y-22195476D01*
X12998809Y-21957380D01*
X12879761Y-21719285D01*
X11094047Y-25528809D02*
X11094047Y-24100238D01*
X11094047Y-24814523D02*
X13594047Y-24814523D01*
X13236904Y-24576428D01*
X12998809Y-24338333D01*
X12879761Y-24100238D01*
X12046428Y-26600238D02*
X12046428Y-28505000D01*
X11094047Y-31005000D02*
X11094047Y-29576428D01*
X11094047Y-30290714D02*
X13594047Y-30290714D01*
X13236904Y-30052619D01*
X12998809Y-29814523D01*
X12879761Y-29576428D01*
X13594047Y-33147857D02*
X13594047Y-32671666D01*
X13475000Y-32433571D01*
X13355952Y-32314523D01*
X12998809Y-32076428D01*
X12522619Y-31957380D01*
X11570238Y-31957380D01*
X11332142Y-32076428D01*
X11213095Y-32195476D01*
X11094047Y-32433571D01*
X11094047Y-32909761D01*
X11213095Y-33147857D01*
X11332142Y-33266904D01*
X11570238Y-33385952D01*
X12165476Y-33385952D01*
X12403571Y-33266904D01*
X12522619Y-33147857D01*
X12641666Y-32909761D01*
X12641666Y-32433571D01*
X12522619Y-32195476D01*
X12403571Y-32076428D01*
X12165476Y-31957380D01*
X13594047Y-34100238D02*
X11094047Y-34933571D01*
X13594047Y-35766904D01*
X9305952Y-31957380D02*
X9425000Y-32076428D01*
X9544047Y-32314523D01*
X9544047Y-32909761D01*
X9425000Y-33147857D01*
X9305952Y-33266904D01*
X9067857Y-33385952D01*
X8829761Y-33385952D01*
X8472619Y-33266904D01*
X7044047Y-31838333D01*
X7044047Y-33385952D01*
X7758333Y-34338333D02*
X7758333Y-35528809D01*
X7044047Y-34100238D02*
X9544047Y-34933571D01*
X7044047Y-35766904D01*
X93494047Y-34990238D02*
X95994047Y-34990238D01*
X93494047Y-36418809D02*
X94922619Y-35347380D01*
X95994047Y-36418809D02*
X94565476Y-34990238D01*
X94803571Y-37490238D02*
X94803571Y-38323571D01*
X93494047Y-38680714D02*
X93494047Y-37490238D01*
X95994047Y-37490238D01*
X95994047Y-38680714D01*
X94684523Y-40228333D02*
X93494047Y-40228333D01*
X95994047Y-39395000D02*
X94684523Y-40228333D01*
X95994047Y-41061666D01*
X89444047Y-34990238D02*
X91944047Y-34990238D01*
X91944047Y-35942619D01*
X91825000Y-36180714D01*
X91705952Y-36299761D01*
X91467857Y-36418809D01*
X91110714Y-36418809D01*
X90872619Y-36299761D01*
X90753571Y-36180714D01*
X90634523Y-35942619D01*
X90634523Y-34990238D01*
X91944047Y-37133095D02*
X91944047Y-38561666D01*
X89444047Y-37847380D02*
X91944047Y-37847380D01*
X91944047Y-39037857D02*
X91944047Y-40466428D01*
X89444047Y-39752142D02*
X91944047Y-39752142D01*
D12*
X98900000Y-8500000D02*
X103100000Y-8500000D01*
X101100000Y-8500000D02*
X101100000Y-10900000D01*
X98900000Y-10900000D02*
X103100000Y-10900000D01*
X99100000Y-14500000D02*
X98900000Y-14100000D01*
X98900000Y-13300000D01*
X99100000Y-12900000D01*
X99500000Y-12700000D01*
X101100000Y-12700000D01*
X101500000Y-12900000D01*
X101700000Y-13300000D01*
X101700000Y-14100000D01*
X101500000Y-14500000D01*
X101100000Y-14700000D01*
X100700000Y-14700000D01*
X100300000Y-12700000D01*
X98900000Y-16500000D02*
X101700000Y-16500000D01*
X100900000Y-16500000D02*
X101300000Y-16700000D01*
X101500000Y-16900000D01*
X101700000Y-17300000D01*
X101700000Y-17700000D01*
X98900000Y-19100000D02*
X101700000Y-19100000D01*
X101300000Y-19100000D02*
X101500000Y-19300000D01*
X101700000Y-19700000D01*
X101700000Y-20300000D01*
X101500000Y-20700000D01*
X101100000Y-20900000D01*
X98900000Y-20900000D01*
X101100000Y-20900000D02*
X101500000Y-21100000D01*
X101700000Y-21500000D01*
X101700000Y-22100000D01*
X101500000Y-22500000D01*
X101100000Y-22700000D01*
X98900000Y-22700000D01*
X99100000Y-26300000D02*
X98900000Y-25900000D01*
X98900000Y-25100000D01*
X99100000Y-24700000D01*
X99500000Y-24500000D01*
X101100000Y-24500000D01*
X101500000Y-24700000D01*
X101700000Y-25100000D01*
X101700000Y-25900000D01*
X101500000Y-26300000D01*
X101100000Y-26500000D01*
X100700000Y-26500000D01*
X100300000Y-24500000D01*
X99100000Y-28100000D02*
X98900000Y-28500000D01*
X98900000Y-29300000D01*
X99100000Y-29700000D01*
X99500000Y-29900000D01*
X99700000Y-29900000D01*
X100100000Y-29700000D01*
X100300000Y-29300000D01*
X100300000Y-28700000D01*
X100500000Y-28300000D01*
X100900000Y-28100000D01*
X101100000Y-28100000D01*
X101500000Y-28300000D01*
X101700000Y-28700000D01*
X101700000Y-29300000D01*
X101500000Y-29700000D01*
X100500000Y-31700000D02*
X100500000Y-34900000D01*
X98900000Y-38900000D02*
X98900000Y-36900000D01*
X103100000Y-36900000D01*
X98900000Y-40300000D02*
X101700000Y-40300000D01*
X103100000Y-40300000D02*
X102900000Y-40100000D01*
X102700000Y-40300000D01*
X102900000Y-40500000D01*
X103100000Y-40300000D01*
X102700000Y-40300000D01*
X101700000Y-41700000D02*
X101700000Y-43300000D01*
X103100000Y-42300000D02*
X99500000Y-42300000D01*
X99100000Y-42500000D01*
X98900000Y-42900000D01*
X98900000Y-43300000D01*
X99100000Y-46300000D02*
X98900000Y-45900000D01*
X98900000Y-45100000D01*
X99100000Y-44700000D01*
X99500000Y-44500000D01*
X101100000Y-44500000D01*
X101500000Y-44700000D01*
X101700000Y-45100000D01*
X101700000Y-45900000D01*
X101500000Y-46300000D01*
X101100000Y-46500000D01*
X100700000Y-46500000D01*
X100300000Y-44500000D01*
M02*
