G04 #@! TF.GenerationSoftware,KiCad,Pcbnew,5.1.5-52549c5~84~ubuntu18.04.1*
G04 #@! TF.CreationDate,2020-03-29T21:38:33-07:00*
G04 #@! TF.ProjectId,endcap,656e6463-6170-42e6-9b69-6361645f7063,2.1*
G04 #@! TF.SameCoordinates,PX2faf080PY2faf080*
G04 #@! TF.FileFunction,Legend,Top*
G04 #@! TF.FilePolarity,Positive*
%FSLAX46Y46*%
G04 Gerber Fmt 4.6, Leading zero omitted, Abs format (unit mm)*
G04 Created by KiCad (PCBNEW 5.1.5-52549c5~84~ubuntu18.04.1) date 2020-03-29 21:38:33*
%MOMM*%
%LPD*%
G04 APERTURE LIST*
%ADD10C,0.200000*%
%ADD11C,0.300000*%
G04 APERTURE END LIST*
D10*
X25700000Y-2285714D02*
X25700000Y-4085714D01*
X25700000Y-3228571D02*
X24671428Y-3228571D01*
X24671428Y-2285714D02*
X24671428Y-4085714D01*
X23128571Y-2371428D02*
X23300000Y-2285714D01*
X23642857Y-2285714D01*
X23814285Y-2371428D01*
X23900000Y-2542857D01*
X23900000Y-3228571D01*
X23814285Y-3400000D01*
X23642857Y-3485714D01*
X23300000Y-3485714D01*
X23128571Y-3400000D01*
X23042857Y-3228571D01*
X23042857Y-3057142D01*
X23900000Y-2885714D01*
X22271428Y-2285714D02*
X22271428Y-3485714D01*
X22271428Y-3142857D02*
X22185714Y-3314285D01*
X22100000Y-3400000D01*
X21928571Y-3485714D01*
X21757142Y-3485714D01*
X21157142Y-2285714D02*
X21157142Y-3485714D01*
X21157142Y-3314285D02*
X21071428Y-3400000D01*
X20900000Y-3485714D01*
X20642857Y-3485714D01*
X20471428Y-3400000D01*
X20385714Y-3228571D01*
X20385714Y-2285714D01*
X20385714Y-3228571D02*
X20300000Y-3400000D01*
X20128571Y-3485714D01*
X19871428Y-3485714D01*
X19700000Y-3400000D01*
X19614285Y-3228571D01*
X19614285Y-2285714D01*
X18071428Y-2371428D02*
X18242857Y-2285714D01*
X18585714Y-2285714D01*
X18757142Y-2371428D01*
X18842857Y-2542857D01*
X18842857Y-3228571D01*
X18757142Y-3400000D01*
X18585714Y-3485714D01*
X18242857Y-3485714D01*
X18071428Y-3400000D01*
X17985714Y-3228571D01*
X17985714Y-3057142D01*
X18842857Y-2885714D01*
X17300000Y-2371428D02*
X17128571Y-2285714D01*
X16785714Y-2285714D01*
X16614285Y-2371428D01*
X16528571Y-2542857D01*
X16528571Y-2628571D01*
X16614285Y-2800000D01*
X16785714Y-2885714D01*
X17042857Y-2885714D01*
X17214285Y-2971428D01*
X17300000Y-3142857D01*
X17300000Y-3228571D01*
X17214285Y-3400000D01*
X17042857Y-3485714D01*
X16785714Y-3485714D01*
X16614285Y-3400000D01*
X15757142Y-2971428D02*
X14385714Y-2971428D01*
X12671428Y-2285714D02*
X13528571Y-2285714D01*
X13528571Y-4085714D01*
X12071428Y-2285714D02*
X12071428Y-3485714D01*
X12071428Y-4085714D02*
X12157142Y-4000000D01*
X12071428Y-3914285D01*
X11985714Y-4000000D01*
X12071428Y-4085714D01*
X12071428Y-3914285D01*
X11471428Y-3485714D02*
X10785714Y-3485714D01*
X11214285Y-4085714D02*
X11214285Y-2542857D01*
X11128571Y-2371428D01*
X10957142Y-2285714D01*
X10785714Y-2285714D01*
X9500000Y-2371428D02*
X9671428Y-2285714D01*
X10014285Y-2285714D01*
X10185714Y-2371428D01*
X10271428Y-2542857D01*
X10271428Y-3228571D01*
X10185714Y-3400000D01*
X10014285Y-3485714D01*
X9671428Y-3485714D01*
X9500000Y-3400000D01*
X9414285Y-3228571D01*
X9414285Y-3057142D01*
X10271428Y-2885714D01*
D11*
X100688095Y-24169047D02*
X101521428Y-25359523D01*
X102116666Y-24169047D02*
X102116666Y-26669047D01*
X101164285Y-26669047D01*
X100926190Y-26550000D01*
X100807142Y-26430952D01*
X100688095Y-26192857D01*
X100688095Y-25835714D01*
X100807142Y-25597619D01*
X100926190Y-25478571D01*
X101164285Y-25359523D01*
X102116666Y-25359523D01*
X98783333Y-25478571D02*
X99616666Y-25478571D01*
X99616666Y-24169047D02*
X99616666Y-26669047D01*
X98426190Y-26669047D01*
X97711904Y-26669047D02*
X96164285Y-26669047D01*
X96997619Y-25716666D01*
X96640476Y-25716666D01*
X96402380Y-25597619D01*
X96283333Y-25478571D01*
X96164285Y-25240476D01*
X96164285Y-24645238D01*
X96283333Y-24407142D01*
X96402380Y-24288095D01*
X96640476Y-24169047D01*
X97354761Y-24169047D01*
X97592857Y-24288095D01*
X97711904Y-24407142D01*
X84500000Y-26869047D02*
X84500000Y-29369047D01*
X83428571Y-26988095D02*
X83071428Y-26869047D01*
X82476190Y-26869047D01*
X82238095Y-26988095D01*
X82119047Y-27107142D01*
X82000000Y-27345238D01*
X82000000Y-27583333D01*
X82119047Y-27821428D01*
X82238095Y-27940476D01*
X82476190Y-28059523D01*
X82952380Y-28178571D01*
X83190476Y-28297619D01*
X83309523Y-28416666D01*
X83428571Y-28654761D01*
X83428571Y-28892857D01*
X83309523Y-29130952D01*
X83190476Y-29250000D01*
X82952380Y-29369047D01*
X82357142Y-29369047D01*
X82000000Y-29250000D01*
X80452380Y-29369047D02*
X79976190Y-29369047D01*
X79738095Y-29250000D01*
X79500000Y-29011904D01*
X79380952Y-28535714D01*
X79380952Y-27702380D01*
X79500000Y-27226190D01*
X79738095Y-26988095D01*
X79976190Y-26869047D01*
X80452380Y-26869047D01*
X80690476Y-26988095D01*
X80928571Y-27226190D01*
X81047619Y-27702380D01*
X81047619Y-28535714D01*
X80928571Y-29011904D01*
X80690476Y-29250000D01*
X80452380Y-29369047D01*
X59285714Y-27583333D02*
X58095238Y-27583333D01*
X59523809Y-26869047D02*
X58690476Y-29369047D01*
X57857142Y-26869047D01*
X55595238Y-27107142D02*
X55714285Y-26988095D01*
X56071428Y-26869047D01*
X56309523Y-26869047D01*
X56666666Y-26988095D01*
X56904761Y-27226190D01*
X57023809Y-27464285D01*
X57142857Y-27940476D01*
X57142857Y-28297619D01*
X57023809Y-28773809D01*
X56904761Y-29011904D01*
X56666666Y-29250000D01*
X56309523Y-29369047D01*
X56071428Y-29369047D01*
X55714285Y-29250000D01*
X55595238Y-29130952D01*
X53095238Y-27107142D02*
X53214285Y-26988095D01*
X53571428Y-26869047D01*
X53809523Y-26869047D01*
X54166666Y-26988095D01*
X54404761Y-27226190D01*
X54523809Y-27464285D01*
X54642857Y-27940476D01*
X54642857Y-28297619D01*
X54523809Y-28773809D01*
X54404761Y-29011904D01*
X54166666Y-29250000D01*
X53809523Y-29369047D01*
X53571428Y-29369047D01*
X53214285Y-29250000D01*
X53095238Y-29130952D01*
X50714285Y-26869047D02*
X52142857Y-26869047D01*
X51428571Y-26869047D02*
X51428571Y-29369047D01*
X51666666Y-29011904D01*
X51904761Y-28773809D01*
X52142857Y-28654761D01*
X28485714Y-21683333D02*
X27295238Y-21683333D01*
X28723809Y-20969047D02*
X27890476Y-23469047D01*
X27057142Y-20969047D01*
X24795238Y-21207142D02*
X24914285Y-21088095D01*
X25271428Y-20969047D01*
X25509523Y-20969047D01*
X25866666Y-21088095D01*
X26104761Y-21326190D01*
X26223809Y-21564285D01*
X26342857Y-22040476D01*
X26342857Y-22397619D01*
X26223809Y-22873809D01*
X26104761Y-23111904D01*
X25866666Y-23350000D01*
X25509523Y-23469047D01*
X25271428Y-23469047D01*
X24914285Y-23350000D01*
X24795238Y-23230952D01*
X22295238Y-21207142D02*
X22414285Y-21088095D01*
X22771428Y-20969047D01*
X23009523Y-20969047D01*
X23366666Y-21088095D01*
X23604761Y-21326190D01*
X23723809Y-21564285D01*
X23842857Y-22040476D01*
X23842857Y-22397619D01*
X23723809Y-22873809D01*
X23604761Y-23111904D01*
X23366666Y-23350000D01*
X23009523Y-23469047D01*
X22771428Y-23469047D01*
X22414285Y-23350000D01*
X22295238Y-23230952D01*
X21342857Y-23230952D02*
X21223809Y-23350000D01*
X20985714Y-23469047D01*
X20390476Y-23469047D01*
X20152380Y-23350000D01*
X20033333Y-23230952D01*
X19914285Y-22992857D01*
X19914285Y-22754761D01*
X20033333Y-22397619D01*
X21461904Y-20969047D01*
X19914285Y-20969047D01*
X95880952Y-7378571D02*
X95047619Y-7378571D01*
X94690476Y-6069047D02*
X95880952Y-6069047D01*
X95880952Y-8569047D01*
X94690476Y-8569047D01*
X93857142Y-8569047D02*
X92190476Y-6069047D01*
X92190476Y-8569047D02*
X93857142Y-6069047D01*
X91595238Y-8569047D02*
X90166666Y-8569047D01*
X90880952Y-6069047D02*
X90880952Y-8569047D01*
X89690476Y-8569047D02*
X88261904Y-8569047D01*
X88976190Y-6069047D02*
X88976190Y-8569047D01*
X86000000Y-6069047D02*
X86833333Y-7259523D01*
X87428571Y-6069047D02*
X87428571Y-8569047D01*
X86476190Y-8569047D01*
X86238095Y-8450000D01*
X86119047Y-8330952D01*
X86000000Y-8092857D01*
X86000000Y-7735714D01*
X86119047Y-7497619D01*
X86238095Y-7378571D01*
X86476190Y-7259523D01*
X87428571Y-7259523D01*
X33957142Y-8683333D02*
X32766666Y-8683333D01*
X34195238Y-7969047D02*
X33361904Y-10469047D01*
X32528571Y-7969047D01*
X31695238Y-7969047D02*
X31695238Y-10469047D01*
X30266666Y-7969047D01*
X30266666Y-10469047D01*
X29433333Y-10469047D02*
X28004761Y-10469047D01*
X28719047Y-7969047D02*
X28719047Y-10469047D01*
X64688095Y-7969047D02*
X65521428Y-9159523D01*
X66116666Y-7969047D02*
X66116666Y-10469047D01*
X65164285Y-10469047D01*
X64926190Y-10350000D01*
X64807142Y-10230952D01*
X64688095Y-9992857D01*
X64688095Y-9635714D01*
X64807142Y-9397619D01*
X64926190Y-9278571D01*
X65164285Y-9159523D01*
X66116666Y-9159523D01*
X62783333Y-9278571D02*
X63616666Y-9278571D01*
X63616666Y-7969047D02*
X63616666Y-10469047D01*
X62426190Y-10469047D01*
X60164285Y-7969047D02*
X61592857Y-7969047D01*
X60878571Y-7969047D02*
X60878571Y-10469047D01*
X61116666Y-10111904D01*
X61354761Y-9873809D01*
X61592857Y-9754761D01*
M02*
