G04 #@! TF.GenerationSoftware,KiCad,Pcbnew,5.0.2-bee76a0~70~ubuntu16.04.1*
G04 #@! TF.CreationDate,2019-12-01T15:03:48-08:00*
G04 #@! TF.ProjectId,endcap,656e6463-6170-42e6-9b69-6361645f7063,2.0*
G04 #@! TF.SameCoordinates,PX2faf080PY2faf080*
G04 #@! TF.FileFunction,Soldermask,Top*
G04 #@! TF.FilePolarity,Negative*
%FSLAX46Y46*%
G04 Gerber Fmt 4.6, Leading zero omitted, Abs format (unit mm)*
G04 Created by KiCad (PCBNEW 5.0.2-bee76a0~70~ubuntu16.04.1) date Sun 01 Dec 2019 03:03:48 PM PST*
%MOMM*%
%LPD*%
G01*
G04 APERTURE LIST*
%ADD10C,0.100000*%
G04 APERTURE END LIST*
D10*
G36*
X102487921Y-33547056D02*
X102729515Y-33595112D01*
X103184668Y-33783643D01*
X103588841Y-34053703D01*
X103594297Y-34057349D01*
X103942651Y-34405703D01*
X104216358Y-34815334D01*
X104404888Y-35270486D01*
X104501000Y-35753672D01*
X104501000Y-36246328D01*
X104404888Y-36729514D01*
X104216358Y-37184666D01*
X103942651Y-37594297D01*
X103594297Y-37942651D01*
X103594294Y-37942653D01*
X103184668Y-38216357D01*
X102729515Y-38404888D01*
X102487921Y-38452944D01*
X102246328Y-38501000D01*
X101753672Y-38501000D01*
X101512079Y-38452944D01*
X101270485Y-38404888D01*
X100815332Y-38216357D01*
X100405706Y-37942653D01*
X100405703Y-37942651D01*
X100057349Y-37594297D01*
X99783642Y-37184666D01*
X99595112Y-36729514D01*
X99499000Y-36246328D01*
X99499000Y-35753672D01*
X99595112Y-35270486D01*
X99783642Y-34815334D01*
X100057349Y-34405703D01*
X100405703Y-34057349D01*
X100411159Y-34053703D01*
X100815332Y-33783643D01*
X101270485Y-33595112D01*
X101512079Y-33547056D01*
X101753672Y-33499000D01*
X102246328Y-33499000D01*
X102487921Y-33547056D01*
X102487921Y-33547056D01*
G37*
G36*
X4487921Y-33547056D02*
X4729515Y-33595112D01*
X5184668Y-33783643D01*
X5588841Y-34053703D01*
X5594297Y-34057349D01*
X5942651Y-34405703D01*
X6216358Y-34815334D01*
X6404888Y-35270486D01*
X6501000Y-35753672D01*
X6501000Y-36246328D01*
X6404888Y-36729514D01*
X6216358Y-37184666D01*
X5942651Y-37594297D01*
X5594297Y-37942651D01*
X5594294Y-37942653D01*
X5184668Y-38216357D01*
X4729515Y-38404888D01*
X4487921Y-38452944D01*
X4246328Y-38501000D01*
X3753672Y-38501000D01*
X3512079Y-38452944D01*
X3270485Y-38404888D01*
X2815332Y-38216357D01*
X2405706Y-37942653D01*
X2405703Y-37942651D01*
X2057349Y-37594297D01*
X1783642Y-37184666D01*
X1595112Y-36729514D01*
X1499000Y-36246328D01*
X1499000Y-35753672D01*
X1595112Y-35270486D01*
X1783642Y-34815334D01*
X2057349Y-34405703D01*
X2405703Y-34057349D01*
X2411159Y-34053703D01*
X2815332Y-33783643D01*
X3270485Y-33595112D01*
X3512079Y-33547056D01*
X3753672Y-33499000D01*
X4246328Y-33499000D01*
X4487921Y-33547056D01*
X4487921Y-33547056D01*
G37*
G36*
X10805739Y-29434048D02*
X11059702Y-29484564D01*
X11346516Y-29603367D01*
X11604642Y-29775841D01*
X11824159Y-29995358D01*
X11996633Y-30253484D01*
X12115436Y-30540298D01*
X12176000Y-30844778D01*
X12176000Y-31155222D01*
X12115436Y-31459702D01*
X11996633Y-31746516D01*
X11824159Y-32004642D01*
X11604642Y-32224159D01*
X11346516Y-32396633D01*
X11059702Y-32515436D01*
X10805739Y-32565952D01*
X10755223Y-32576000D01*
X10444777Y-32576000D01*
X10394261Y-32565952D01*
X10140298Y-32515436D01*
X9853484Y-32396633D01*
X9595358Y-32224159D01*
X9375841Y-32004642D01*
X9203367Y-31746516D01*
X9084564Y-31459702D01*
X9024000Y-31155222D01*
X9024000Y-30844778D01*
X9084564Y-30540298D01*
X9203367Y-30253484D01*
X9375841Y-29995358D01*
X9595358Y-29775841D01*
X9853484Y-29603367D01*
X10140298Y-29484564D01*
X10394261Y-29434048D01*
X10444777Y-29424000D01*
X10755223Y-29424000D01*
X10805739Y-29434048D01*
X10805739Y-29434048D01*
G37*
G36*
X35805739Y-29434048D02*
X36059702Y-29484564D01*
X36346516Y-29603367D01*
X36604642Y-29775841D01*
X36824159Y-29995358D01*
X36996633Y-30253484D01*
X37115436Y-30540298D01*
X37176000Y-30844778D01*
X37176000Y-31155222D01*
X37115436Y-31459702D01*
X36996633Y-31746516D01*
X36824159Y-32004642D01*
X36604642Y-32224159D01*
X36346516Y-32396633D01*
X36059702Y-32515436D01*
X35805739Y-32565952D01*
X35755223Y-32576000D01*
X35444777Y-32576000D01*
X35394261Y-32565952D01*
X35140298Y-32515436D01*
X34853484Y-32396633D01*
X34595358Y-32224159D01*
X34375841Y-32004642D01*
X34203367Y-31746516D01*
X34084564Y-31459702D01*
X34024000Y-31155222D01*
X34024000Y-30844778D01*
X34084564Y-30540298D01*
X34203367Y-30253484D01*
X34375841Y-29995358D01*
X34595358Y-29775841D01*
X34853484Y-29603367D01*
X35140298Y-29484564D01*
X35394261Y-29434048D01*
X35444777Y-29424000D01*
X35755223Y-29424000D01*
X35805739Y-29434048D01*
X35805739Y-29434048D01*
G37*
G36*
X92400399Y-10383499D02*
X93274125Y-10745408D01*
X94060462Y-11270822D01*
X94729178Y-11939538D01*
X95254592Y-12725875D01*
X95616501Y-13599601D01*
X95801000Y-14527141D01*
X95801000Y-15472859D01*
X95616501Y-16400399D01*
X95254592Y-17274125D01*
X94729178Y-18060462D01*
X94060462Y-18729178D01*
X93274125Y-19254592D01*
X92400399Y-19616501D01*
X91472859Y-19801000D01*
X90527141Y-19801000D01*
X89599601Y-19616501D01*
X88725875Y-19254592D01*
X87939538Y-18729178D01*
X87270822Y-18060462D01*
X86745408Y-17274125D01*
X86383499Y-16400399D01*
X86199000Y-15472859D01*
X86199000Y-14527141D01*
X86383499Y-13599601D01*
X86745408Y-12725875D01*
X87270822Y-11939538D01*
X87939538Y-11270822D01*
X88725875Y-10745408D01*
X89599601Y-10383499D01*
X90527141Y-10199000D01*
X91472859Y-10199000D01*
X92400399Y-10383499D01*
X92400399Y-10383499D01*
G37*
G36*
X10432004Y-17260544D02*
X10519059Y-17277860D01*
X10655732Y-17334472D01*
X10655733Y-17334473D01*
X10778738Y-17416662D01*
X10883338Y-17521262D01*
X10883340Y-17521265D01*
X10965528Y-17644268D01*
X11022140Y-17780941D01*
X11051000Y-17926033D01*
X11051000Y-18073967D01*
X11022140Y-18219059D01*
X10965528Y-18355732D01*
X10965527Y-18355733D01*
X10883338Y-18478738D01*
X10778738Y-18583338D01*
X10778735Y-18583340D01*
X10655732Y-18665528D01*
X10519059Y-18722140D01*
X10432004Y-18739456D01*
X10373969Y-18751000D01*
X10226031Y-18751000D01*
X10167996Y-18739456D01*
X10080941Y-18722140D01*
X9944268Y-18665528D01*
X9821265Y-18583340D01*
X9821262Y-18583338D01*
X9716662Y-18478738D01*
X9634473Y-18355733D01*
X9634472Y-18355732D01*
X9577860Y-18219059D01*
X9549000Y-18073967D01*
X9549000Y-17926033D01*
X9577860Y-17780941D01*
X9634472Y-17644268D01*
X9716660Y-17521265D01*
X9716662Y-17521262D01*
X9821262Y-17416662D01*
X9944267Y-17334473D01*
X9944268Y-17334472D01*
X10080941Y-17277860D01*
X10167996Y-17260544D01*
X10226031Y-17249000D01*
X10373969Y-17249000D01*
X10432004Y-17260544D01*
X10432004Y-17260544D01*
G37*
G36*
X12932004Y-17260544D02*
X13019059Y-17277860D01*
X13155732Y-17334472D01*
X13155733Y-17334473D01*
X13278738Y-17416662D01*
X13383338Y-17521262D01*
X13383340Y-17521265D01*
X13465528Y-17644268D01*
X13522140Y-17780941D01*
X13551000Y-17926033D01*
X13551000Y-18073967D01*
X13522140Y-18219059D01*
X13465528Y-18355732D01*
X13465527Y-18355733D01*
X13383338Y-18478738D01*
X13278738Y-18583338D01*
X13278735Y-18583340D01*
X13155732Y-18665528D01*
X13019059Y-18722140D01*
X12932004Y-18739456D01*
X12873969Y-18751000D01*
X12726031Y-18751000D01*
X12667996Y-18739456D01*
X12580941Y-18722140D01*
X12444268Y-18665528D01*
X12321265Y-18583340D01*
X12321262Y-18583338D01*
X12216662Y-18478738D01*
X12134473Y-18355733D01*
X12134472Y-18355732D01*
X12077860Y-18219059D01*
X12049000Y-18073967D01*
X12049000Y-17926033D01*
X12077860Y-17780941D01*
X12134472Y-17644268D01*
X12216660Y-17521265D01*
X12216662Y-17521262D01*
X12321262Y-17416662D01*
X12444267Y-17334473D01*
X12444268Y-17334472D01*
X12580941Y-17277860D01*
X12667996Y-17260544D01*
X12726031Y-17249000D01*
X12873969Y-17249000D01*
X12932004Y-17260544D01*
X12932004Y-17260544D01*
G37*
G36*
X15432004Y-17260544D02*
X15519059Y-17277860D01*
X15655732Y-17334472D01*
X15655733Y-17334473D01*
X15778738Y-17416662D01*
X15883338Y-17521262D01*
X15883340Y-17521265D01*
X15965528Y-17644268D01*
X16022140Y-17780941D01*
X16051000Y-17926033D01*
X16051000Y-18073967D01*
X16022140Y-18219059D01*
X15965528Y-18355732D01*
X15965527Y-18355733D01*
X15883338Y-18478738D01*
X15778738Y-18583338D01*
X15778735Y-18583340D01*
X15655732Y-18665528D01*
X15519059Y-18722140D01*
X15432004Y-18739456D01*
X15373969Y-18751000D01*
X15226031Y-18751000D01*
X15167996Y-18739456D01*
X15080941Y-18722140D01*
X14944268Y-18665528D01*
X14821265Y-18583340D01*
X14821262Y-18583338D01*
X14716662Y-18478738D01*
X14634473Y-18355733D01*
X14634472Y-18355732D01*
X14577860Y-18219059D01*
X14549000Y-18073967D01*
X14549000Y-17926033D01*
X14577860Y-17780941D01*
X14634472Y-17644268D01*
X14716660Y-17521265D01*
X14716662Y-17521262D01*
X14821262Y-17416662D01*
X14944267Y-17334473D01*
X14944268Y-17334472D01*
X15080941Y-17277860D01*
X15167996Y-17260544D01*
X15226031Y-17249000D01*
X15373969Y-17249000D01*
X15432004Y-17260544D01*
X15432004Y-17260544D01*
G37*
G36*
X12932004Y-14760544D02*
X13019059Y-14777860D01*
X13155732Y-14834472D01*
X13155733Y-14834473D01*
X13278738Y-14916662D01*
X13383338Y-15021262D01*
X13383340Y-15021265D01*
X13465528Y-15144268D01*
X13522140Y-15280941D01*
X13551000Y-15426033D01*
X13551000Y-15573967D01*
X13522140Y-15719059D01*
X13465528Y-15855732D01*
X13465527Y-15855733D01*
X13383338Y-15978738D01*
X13278738Y-16083338D01*
X13278735Y-16083340D01*
X13155732Y-16165528D01*
X13019059Y-16222140D01*
X12932004Y-16239456D01*
X12873969Y-16251000D01*
X12726031Y-16251000D01*
X12667996Y-16239456D01*
X12580941Y-16222140D01*
X12444268Y-16165528D01*
X12321265Y-16083340D01*
X12321262Y-16083338D01*
X12216662Y-15978738D01*
X12134473Y-15855733D01*
X12134472Y-15855732D01*
X12077860Y-15719059D01*
X12049000Y-15573967D01*
X12049000Y-15426033D01*
X12077860Y-15280941D01*
X12134472Y-15144268D01*
X12216660Y-15021265D01*
X12216662Y-15021262D01*
X12321262Y-14916662D01*
X12444267Y-14834473D01*
X12444268Y-14834472D01*
X12580941Y-14777860D01*
X12667996Y-14760544D01*
X12726031Y-14749000D01*
X12873969Y-14749000D01*
X12932004Y-14760544D01*
X12932004Y-14760544D01*
G37*
G36*
X10432004Y-14760544D02*
X10519059Y-14777860D01*
X10655732Y-14834472D01*
X10655733Y-14834473D01*
X10778738Y-14916662D01*
X10883338Y-15021262D01*
X10883340Y-15021265D01*
X10965528Y-15144268D01*
X11022140Y-15280941D01*
X11051000Y-15426033D01*
X11051000Y-15573967D01*
X11022140Y-15719059D01*
X10965528Y-15855732D01*
X10965527Y-15855733D01*
X10883338Y-15978738D01*
X10778738Y-16083338D01*
X10778735Y-16083340D01*
X10655732Y-16165528D01*
X10519059Y-16222140D01*
X10432004Y-16239456D01*
X10373969Y-16251000D01*
X10226031Y-16251000D01*
X10167996Y-16239456D01*
X10080941Y-16222140D01*
X9944268Y-16165528D01*
X9821265Y-16083340D01*
X9821262Y-16083338D01*
X9716662Y-15978738D01*
X9634473Y-15855733D01*
X9634472Y-15855732D01*
X9577860Y-15719059D01*
X9549000Y-15573967D01*
X9549000Y-15426033D01*
X9577860Y-15280941D01*
X9634472Y-15144268D01*
X9716660Y-15021265D01*
X9716662Y-15021262D01*
X9821262Y-14916662D01*
X9944267Y-14834473D01*
X9944268Y-14834472D01*
X10080941Y-14777860D01*
X10167996Y-14760544D01*
X10226031Y-14749000D01*
X10373969Y-14749000D01*
X10432004Y-14760544D01*
X10432004Y-14760544D01*
G37*
G36*
X15432004Y-14760544D02*
X15519059Y-14777860D01*
X15655732Y-14834472D01*
X15655733Y-14834473D01*
X15778738Y-14916662D01*
X15883338Y-15021262D01*
X15883340Y-15021265D01*
X15965528Y-15144268D01*
X16022140Y-15280941D01*
X16051000Y-15426033D01*
X16051000Y-15573967D01*
X16022140Y-15719059D01*
X15965528Y-15855732D01*
X15965527Y-15855733D01*
X15883338Y-15978738D01*
X15778738Y-16083338D01*
X15778735Y-16083340D01*
X15655732Y-16165528D01*
X15519059Y-16222140D01*
X15432004Y-16239456D01*
X15373969Y-16251000D01*
X15226031Y-16251000D01*
X15167996Y-16239456D01*
X15080941Y-16222140D01*
X14944268Y-16165528D01*
X14821265Y-16083340D01*
X14821262Y-16083338D01*
X14716662Y-15978738D01*
X14634473Y-15855733D01*
X14634472Y-15855732D01*
X14577860Y-15719059D01*
X14549000Y-15573967D01*
X14549000Y-15426033D01*
X14577860Y-15280941D01*
X14634472Y-15144268D01*
X14716660Y-15021265D01*
X14716662Y-15021262D01*
X14821262Y-14916662D01*
X14944267Y-14834473D01*
X14944268Y-14834472D01*
X15080941Y-14777860D01*
X15167996Y-14760544D01*
X15226031Y-14749000D01*
X15373969Y-14749000D01*
X15432004Y-14760544D01*
X15432004Y-14760544D01*
G37*
G36*
X10432004Y-12260544D02*
X10519059Y-12277860D01*
X10655732Y-12334472D01*
X10655733Y-12334473D01*
X10778738Y-12416662D01*
X10883338Y-12521262D01*
X10883340Y-12521265D01*
X10965528Y-12644268D01*
X11022140Y-12780941D01*
X11051000Y-12926033D01*
X11051000Y-13073967D01*
X11022140Y-13219059D01*
X10965528Y-13355732D01*
X10965527Y-13355733D01*
X10883338Y-13478738D01*
X10778738Y-13583338D01*
X10778735Y-13583340D01*
X10655732Y-13665528D01*
X10519059Y-13722140D01*
X10432004Y-13739456D01*
X10373969Y-13751000D01*
X10226031Y-13751000D01*
X10167996Y-13739456D01*
X10080941Y-13722140D01*
X9944268Y-13665528D01*
X9821265Y-13583340D01*
X9821262Y-13583338D01*
X9716662Y-13478738D01*
X9634473Y-13355733D01*
X9634472Y-13355732D01*
X9577860Y-13219059D01*
X9549000Y-13073967D01*
X9549000Y-12926033D01*
X9577860Y-12780941D01*
X9634472Y-12644268D01*
X9716660Y-12521265D01*
X9716662Y-12521262D01*
X9821262Y-12416662D01*
X9944267Y-12334473D01*
X9944268Y-12334472D01*
X10080941Y-12277860D01*
X10167996Y-12260544D01*
X10226031Y-12249000D01*
X10373969Y-12249000D01*
X10432004Y-12260544D01*
X10432004Y-12260544D01*
G37*
G36*
X12932004Y-12260544D02*
X13019059Y-12277860D01*
X13155732Y-12334472D01*
X13155733Y-12334473D01*
X13278738Y-12416662D01*
X13383338Y-12521262D01*
X13383340Y-12521265D01*
X13465528Y-12644268D01*
X13522140Y-12780941D01*
X13551000Y-12926033D01*
X13551000Y-13073967D01*
X13522140Y-13219059D01*
X13465528Y-13355732D01*
X13465527Y-13355733D01*
X13383338Y-13478738D01*
X13278738Y-13583338D01*
X13278735Y-13583340D01*
X13155732Y-13665528D01*
X13019059Y-13722140D01*
X12932004Y-13739456D01*
X12873969Y-13751000D01*
X12726031Y-13751000D01*
X12667996Y-13739456D01*
X12580941Y-13722140D01*
X12444268Y-13665528D01*
X12321265Y-13583340D01*
X12321262Y-13583338D01*
X12216662Y-13478738D01*
X12134473Y-13355733D01*
X12134472Y-13355732D01*
X12077860Y-13219059D01*
X12049000Y-13073967D01*
X12049000Y-12926033D01*
X12077860Y-12780941D01*
X12134472Y-12644268D01*
X12216660Y-12521265D01*
X12216662Y-12521262D01*
X12321262Y-12416662D01*
X12444267Y-12334473D01*
X12444268Y-12334472D01*
X12580941Y-12277860D01*
X12667996Y-12260544D01*
X12726031Y-12249000D01*
X12873969Y-12249000D01*
X12932004Y-12260544D01*
X12932004Y-12260544D01*
G37*
G36*
X15432004Y-12260544D02*
X15519059Y-12277860D01*
X15655732Y-12334472D01*
X15655733Y-12334473D01*
X15778738Y-12416662D01*
X15883338Y-12521262D01*
X15883340Y-12521265D01*
X15965528Y-12644268D01*
X16022140Y-12780941D01*
X16051000Y-12926033D01*
X16051000Y-13073967D01*
X16022140Y-13219059D01*
X15965528Y-13355732D01*
X15965527Y-13355733D01*
X15883338Y-13478738D01*
X15778738Y-13583338D01*
X15778735Y-13583340D01*
X15655732Y-13665528D01*
X15519059Y-13722140D01*
X15432004Y-13739456D01*
X15373969Y-13751000D01*
X15226031Y-13751000D01*
X15167996Y-13739456D01*
X15080941Y-13722140D01*
X14944268Y-13665528D01*
X14821265Y-13583340D01*
X14821262Y-13583338D01*
X14716662Y-13478738D01*
X14634473Y-13355733D01*
X14634472Y-13355732D01*
X14577860Y-13219059D01*
X14549000Y-13073967D01*
X14549000Y-12926033D01*
X14577860Y-12780941D01*
X14634472Y-12644268D01*
X14716660Y-12521265D01*
X14716662Y-12521262D01*
X14821262Y-12416662D01*
X14944267Y-12334473D01*
X14944268Y-12334472D01*
X15080941Y-12277860D01*
X15167996Y-12260544D01*
X15226031Y-12249000D01*
X15373969Y-12249000D01*
X15432004Y-12260544D01*
X15432004Y-12260544D01*
G37*
G36*
X72035786Y-5720462D02*
X72035788Y-5720463D01*
X72035789Y-5720463D01*
X72682029Y-5988144D01*
X72682030Y-5988145D01*
X73263634Y-6376760D01*
X73758240Y-6871366D01*
X73758242Y-6871369D01*
X74146856Y-7452971D01*
X74414537Y-8099211D01*
X74551000Y-8785257D01*
X74551000Y-9484743D01*
X74414537Y-10170789D01*
X74146856Y-10817029D01*
X74146855Y-10817030D01*
X73758240Y-11398634D01*
X73263634Y-11893240D01*
X73263631Y-11893242D01*
X72682029Y-12281856D01*
X72035789Y-12549537D01*
X72035788Y-12549537D01*
X72035786Y-12549538D01*
X71349744Y-12686000D01*
X70650256Y-12686000D01*
X69964214Y-12549538D01*
X69964212Y-12549537D01*
X69964211Y-12549537D01*
X69317971Y-12281856D01*
X68736369Y-11893242D01*
X68736366Y-11893240D01*
X68241760Y-11398634D01*
X67853145Y-10817030D01*
X67853144Y-10817029D01*
X67585463Y-10170789D01*
X67449000Y-9484743D01*
X67449000Y-8785257D01*
X67585463Y-8099211D01*
X67853144Y-7452971D01*
X68241758Y-6871369D01*
X68241760Y-6871366D01*
X68736366Y-6376760D01*
X69317970Y-5988145D01*
X69317971Y-5988144D01*
X69964211Y-5720463D01*
X69964212Y-5720463D01*
X69964214Y-5720462D01*
X70650256Y-5584000D01*
X71349744Y-5584000D01*
X72035786Y-5720462D01*
X72035786Y-5720462D01*
G37*
G36*
X40035786Y-5720462D02*
X40035788Y-5720463D01*
X40035789Y-5720463D01*
X40682029Y-5988144D01*
X40682030Y-5988145D01*
X41263634Y-6376760D01*
X41758240Y-6871366D01*
X41758242Y-6871369D01*
X42146856Y-7452971D01*
X42414537Y-8099211D01*
X42551000Y-8785257D01*
X42551000Y-9484743D01*
X42414537Y-10170789D01*
X42146856Y-10817029D01*
X42146855Y-10817030D01*
X41758240Y-11398634D01*
X41263634Y-11893240D01*
X41263631Y-11893242D01*
X40682029Y-12281856D01*
X40035789Y-12549537D01*
X40035788Y-12549537D01*
X40035786Y-12549538D01*
X39349744Y-12686000D01*
X38650256Y-12686000D01*
X37964214Y-12549538D01*
X37964212Y-12549537D01*
X37964211Y-12549537D01*
X37317971Y-12281856D01*
X36736369Y-11893242D01*
X36736366Y-11893240D01*
X36241760Y-11398634D01*
X35853145Y-10817030D01*
X35853144Y-10817029D01*
X35585463Y-10170789D01*
X35449000Y-9484743D01*
X35449000Y-8785257D01*
X35585463Y-8099211D01*
X35853144Y-7452971D01*
X36241758Y-6871369D01*
X36241760Y-6871366D01*
X36736366Y-6376760D01*
X37317970Y-5988145D01*
X37317971Y-5988144D01*
X37964211Y-5720463D01*
X37964212Y-5720463D01*
X37964214Y-5720462D01*
X38650256Y-5584000D01*
X39349744Y-5584000D01*
X40035786Y-5720462D01*
X40035786Y-5720462D01*
G37*
G36*
X102487921Y-1547056D02*
X102729515Y-1595112D01*
X103184668Y-1783643D01*
X103588841Y-2053703D01*
X103594297Y-2057349D01*
X103942651Y-2405703D01*
X104216358Y-2815334D01*
X104404888Y-3270486D01*
X104501000Y-3753672D01*
X104501000Y-4246328D01*
X104404888Y-4729514D01*
X104216358Y-5184666D01*
X103942651Y-5594297D01*
X103594297Y-5942651D01*
X103594294Y-5942653D01*
X103184668Y-6216357D01*
X102729515Y-6404888D01*
X102487921Y-6452944D01*
X102246328Y-6501000D01*
X101753672Y-6501000D01*
X101512079Y-6452944D01*
X101270485Y-6404888D01*
X100815332Y-6216357D01*
X100405706Y-5942653D01*
X100405703Y-5942651D01*
X100057349Y-5594297D01*
X99783642Y-5184666D01*
X99595112Y-4729514D01*
X99499000Y-4246328D01*
X99499000Y-3753672D01*
X99595112Y-3270486D01*
X99783642Y-2815334D01*
X100057349Y-2405703D01*
X100405703Y-2057349D01*
X100411159Y-2053703D01*
X100815332Y-1783643D01*
X101270485Y-1595112D01*
X101512079Y-1547056D01*
X101753672Y-1499000D01*
X102246328Y-1499000D01*
X102487921Y-1547056D01*
X102487921Y-1547056D01*
G37*
G36*
X4487921Y-1547056D02*
X4729515Y-1595112D01*
X5184668Y-1783643D01*
X5588841Y-2053703D01*
X5594297Y-2057349D01*
X5942651Y-2405703D01*
X6216358Y-2815334D01*
X6404888Y-3270486D01*
X6501000Y-3753672D01*
X6501000Y-4246328D01*
X6404888Y-4729514D01*
X6216358Y-5184666D01*
X5942651Y-5594297D01*
X5594297Y-5942651D01*
X5594294Y-5942653D01*
X5184668Y-6216357D01*
X4729515Y-6404888D01*
X4487921Y-6452944D01*
X4246328Y-6501000D01*
X3753672Y-6501000D01*
X3512079Y-6452944D01*
X3270485Y-6404888D01*
X2815332Y-6216357D01*
X2405706Y-5942653D01*
X2405703Y-5942651D01*
X2057349Y-5594297D01*
X1783642Y-5184666D01*
X1595112Y-4729514D01*
X1499000Y-4246328D01*
X1499000Y-3753672D01*
X1595112Y-3270486D01*
X1783642Y-2815334D01*
X2057349Y-2405703D01*
X2405703Y-2057349D01*
X2411159Y-2053703D01*
X2815332Y-1783643D01*
X3270485Y-1595112D01*
X3512079Y-1547056D01*
X3753672Y-1499000D01*
X4246328Y-1499000D01*
X4487921Y-1547056D01*
X4487921Y-1547056D01*
G37*
M02*
