G04 #@! TF.GenerationSoftware,KiCad,Pcbnew,5.0.2-bee76a0~70~ubuntu16.04.1*
G04 #@! TF.CreationDate,2019-12-01T15:03:48-08:00*
G04 #@! TF.ProjectId,endcap,656e6463-6170-42e6-9b69-6361645f7063,2.0*
G04 #@! TF.SameCoordinates,PX2faf080PY2faf080*
G04 #@! TF.FileFunction,Soldermask,Bot*
G04 #@! TF.FilePolarity,Negative*
%FSLAX46Y46*%
G04 Gerber Fmt 4.6, Leading zero omitted, Abs format (unit mm)*
G04 Created by KiCad (PCBNEW 5.0.2-bee76a0~70~ubuntu16.04.1) date Sun 01 Dec 2019 03:03:48 PM PST*
%MOMM*%
%LPD*%
G01*
G04 APERTURE LIST*
%ADD10C,0.100000*%
G04 APERTURE END LIST*
D10*
G36*
X102487921Y-33547056D02*
X102729515Y-33595112D01*
X103184668Y-33783643D01*
X103544387Y-34024000D01*
X103594297Y-34057349D01*
X103942651Y-34405703D01*
X104216358Y-34815334D01*
X104404888Y-35270486D01*
X104501000Y-35753672D01*
X104501000Y-36246328D01*
X104404888Y-36729514D01*
X104216358Y-37184666D01*
X103942651Y-37594297D01*
X103594297Y-37942651D01*
X103594294Y-37942653D01*
X103184668Y-38216357D01*
X102729515Y-38404888D01*
X102487921Y-38452944D01*
X102246328Y-38501000D01*
X101753672Y-38501000D01*
X101512079Y-38452944D01*
X101270485Y-38404888D01*
X100815332Y-38216357D01*
X100405706Y-37942653D01*
X100405703Y-37942651D01*
X100057349Y-37594297D01*
X99783642Y-37184666D01*
X99595112Y-36729514D01*
X99499000Y-36246328D01*
X99499000Y-35753672D01*
X99595112Y-35270486D01*
X99783642Y-34815334D01*
X100057349Y-34405703D01*
X100405703Y-34057349D01*
X100455613Y-34024000D01*
X100815332Y-33783643D01*
X101270485Y-33595112D01*
X101512079Y-33547056D01*
X101753672Y-33499000D01*
X102246328Y-33499000D01*
X102487921Y-33547056D01*
X102487921Y-33547056D01*
G37*
G36*
X4487921Y-33547056D02*
X4729515Y-33595112D01*
X5184668Y-33783643D01*
X5544387Y-34024000D01*
X5594297Y-34057349D01*
X5942651Y-34405703D01*
X6216358Y-34815334D01*
X6404888Y-35270486D01*
X6501000Y-35753672D01*
X6501000Y-36246328D01*
X6404888Y-36729514D01*
X6216358Y-37184666D01*
X5942651Y-37594297D01*
X5594297Y-37942651D01*
X5594294Y-37942653D01*
X5184668Y-38216357D01*
X4729515Y-38404888D01*
X4487921Y-38452944D01*
X4246328Y-38501000D01*
X3753672Y-38501000D01*
X3512079Y-38452944D01*
X3270485Y-38404888D01*
X2815332Y-38216357D01*
X2405706Y-37942653D01*
X2405703Y-37942651D01*
X2057349Y-37594297D01*
X1783642Y-37184666D01*
X1595112Y-36729514D01*
X1499000Y-36246328D01*
X1499000Y-35753672D01*
X1595112Y-35270486D01*
X1783642Y-34815334D01*
X2057349Y-34405703D01*
X2405703Y-34057349D01*
X2455613Y-34024000D01*
X2815332Y-33783643D01*
X3270485Y-33595112D01*
X3512079Y-33547056D01*
X3753672Y-33499000D01*
X4246328Y-33499000D01*
X4487921Y-33547056D01*
X4487921Y-33547056D01*
G37*
G36*
X48001000Y-34199801D02*
X48000450Y-34201614D01*
X47998048Y-34226000D01*
X48000450Y-34250386D01*
X48007563Y-34273835D01*
X48019114Y-34295446D01*
X48034660Y-34314388D01*
X48098106Y-34377834D01*
X48098108Y-34377837D01*
X48204920Y-34537691D01*
X48209190Y-34548000D01*
X48278493Y-34715314D01*
X48316000Y-34903871D01*
X48316000Y-35096129D01*
X48281318Y-35270486D01*
X48278492Y-35284689D01*
X48204920Y-35462309D01*
X48204919Y-35462310D01*
X48098106Y-35622166D01*
X47962166Y-35758106D01*
X47962163Y-35758108D01*
X47802309Y-35864920D01*
X47624689Y-35938492D01*
X47624688Y-35938492D01*
X47624686Y-35938493D01*
X47436129Y-35976000D01*
X47243871Y-35976000D01*
X47055314Y-35938493D01*
X47055312Y-35938492D01*
X47055311Y-35938492D01*
X46877691Y-35864920D01*
X46717837Y-35758108D01*
X46717834Y-35758106D01*
X46581894Y-35622166D01*
X46475081Y-35462310D01*
X46475080Y-35462309D01*
X46401508Y-35284689D01*
X46398683Y-35270486D01*
X46364000Y-35096129D01*
X46364000Y-34903871D01*
X46401507Y-34715314D01*
X46470810Y-34548000D01*
X46475080Y-34537691D01*
X46581892Y-34377837D01*
X46581894Y-34377834D01*
X46645340Y-34314388D01*
X46660886Y-34295446D01*
X46672437Y-34273835D01*
X46679550Y-34250386D01*
X46681952Y-34226000D01*
X46679550Y-34201614D01*
X46672437Y-34178165D01*
X46660886Y-34156554D01*
X46645340Y-34137612D01*
X46626398Y-34122066D01*
X46604787Y-34110515D01*
X46599000Y-34108760D01*
X46599000Y-31399000D01*
X48001000Y-31399000D01*
X48001000Y-34199801D01*
X48001000Y-34199801D01*
G37*
G36*
X88264686Y-34061507D02*
X88264688Y-34061508D01*
X88264689Y-34061508D01*
X88442309Y-34135080D01*
X88539170Y-34199801D01*
X88602166Y-34241894D01*
X88738106Y-34377834D01*
X88738108Y-34377837D01*
X88844920Y-34537691D01*
X88849190Y-34548000D01*
X88918493Y-34715314D01*
X88956000Y-34903871D01*
X88956000Y-35096129D01*
X88921318Y-35270486D01*
X88918492Y-35284689D01*
X88844920Y-35462309D01*
X88844919Y-35462310D01*
X88738106Y-35622166D01*
X88602166Y-35758106D01*
X88602163Y-35758108D01*
X88442309Y-35864920D01*
X88264689Y-35938492D01*
X88264688Y-35938492D01*
X88264686Y-35938493D01*
X88076129Y-35976000D01*
X87883871Y-35976000D01*
X87695314Y-35938493D01*
X87695312Y-35938492D01*
X87695311Y-35938492D01*
X87517691Y-35864920D01*
X87357837Y-35758108D01*
X87357834Y-35758106D01*
X87221894Y-35622166D01*
X87115081Y-35462310D01*
X87115080Y-35462309D01*
X87041508Y-35284689D01*
X87038683Y-35270486D01*
X87004000Y-35096129D01*
X87004000Y-34903871D01*
X87041507Y-34715314D01*
X87110810Y-34548000D01*
X87115080Y-34537691D01*
X87221892Y-34377837D01*
X87221894Y-34377834D01*
X87357834Y-34241894D01*
X87420830Y-34199801D01*
X87517691Y-34135080D01*
X87695311Y-34061508D01*
X87695312Y-34061508D01*
X87695314Y-34061507D01*
X87883871Y-34024000D01*
X88076129Y-34024000D01*
X88264686Y-34061507D01*
X88264686Y-34061507D01*
G37*
G36*
X85724686Y-34061507D02*
X85724688Y-34061508D01*
X85724689Y-34061508D01*
X85902309Y-34135080D01*
X85999170Y-34199801D01*
X86062166Y-34241894D01*
X86198106Y-34377834D01*
X86198108Y-34377837D01*
X86304920Y-34537691D01*
X86309190Y-34548000D01*
X86378493Y-34715314D01*
X86416000Y-34903871D01*
X86416000Y-35096129D01*
X86381318Y-35270486D01*
X86378492Y-35284689D01*
X86304920Y-35462309D01*
X86304919Y-35462310D01*
X86198106Y-35622166D01*
X86062166Y-35758106D01*
X86062163Y-35758108D01*
X85902309Y-35864920D01*
X85724689Y-35938492D01*
X85724688Y-35938492D01*
X85724686Y-35938493D01*
X85536129Y-35976000D01*
X85343871Y-35976000D01*
X85155314Y-35938493D01*
X85155312Y-35938492D01*
X85155311Y-35938492D01*
X84977691Y-35864920D01*
X84817837Y-35758108D01*
X84817834Y-35758106D01*
X84681894Y-35622166D01*
X84575081Y-35462310D01*
X84575080Y-35462309D01*
X84501508Y-35284689D01*
X84498683Y-35270486D01*
X84464000Y-35096129D01*
X84464000Y-34903871D01*
X84501507Y-34715314D01*
X84570810Y-34548000D01*
X84575080Y-34537691D01*
X84681892Y-34377837D01*
X84681894Y-34377834D01*
X84817834Y-34241894D01*
X84880830Y-34199801D01*
X84977691Y-34135080D01*
X85155311Y-34061508D01*
X85155312Y-34061508D01*
X85155314Y-34061507D01*
X85343871Y-34024000D01*
X85536129Y-34024000D01*
X85724686Y-34061507D01*
X85724686Y-34061507D01*
G37*
G36*
X83184686Y-34061507D02*
X83184688Y-34061508D01*
X83184689Y-34061508D01*
X83362309Y-34135080D01*
X83459170Y-34199801D01*
X83522166Y-34241894D01*
X83658106Y-34377834D01*
X83658108Y-34377837D01*
X83764920Y-34537691D01*
X83769190Y-34548000D01*
X83838493Y-34715314D01*
X83876000Y-34903871D01*
X83876000Y-35096129D01*
X83841318Y-35270486D01*
X83838492Y-35284689D01*
X83764920Y-35462309D01*
X83764919Y-35462310D01*
X83658106Y-35622166D01*
X83522166Y-35758106D01*
X83522163Y-35758108D01*
X83362309Y-35864920D01*
X83184689Y-35938492D01*
X83184688Y-35938492D01*
X83184686Y-35938493D01*
X82996129Y-35976000D01*
X82803871Y-35976000D01*
X82615314Y-35938493D01*
X82615312Y-35938492D01*
X82615311Y-35938492D01*
X82437691Y-35864920D01*
X82277837Y-35758108D01*
X82277834Y-35758106D01*
X82141894Y-35622166D01*
X82035081Y-35462310D01*
X82035080Y-35462309D01*
X81961508Y-35284689D01*
X81958683Y-35270486D01*
X81924000Y-35096129D01*
X81924000Y-34903871D01*
X81961507Y-34715314D01*
X82030810Y-34548000D01*
X82035080Y-34537691D01*
X82141892Y-34377837D01*
X82141894Y-34377834D01*
X82277834Y-34241894D01*
X82340830Y-34199801D01*
X82437691Y-34135080D01*
X82615311Y-34061508D01*
X82615312Y-34061508D01*
X82615314Y-34061507D01*
X82803871Y-34024000D01*
X82996129Y-34024000D01*
X83184686Y-34061507D01*
X83184686Y-34061507D01*
G37*
G36*
X80644686Y-34061507D02*
X80644688Y-34061508D01*
X80644689Y-34061508D01*
X80822309Y-34135080D01*
X80919170Y-34199801D01*
X80982166Y-34241894D01*
X81118106Y-34377834D01*
X81118108Y-34377837D01*
X81224920Y-34537691D01*
X81229190Y-34548000D01*
X81298493Y-34715314D01*
X81336000Y-34903871D01*
X81336000Y-35096129D01*
X81301318Y-35270486D01*
X81298492Y-35284689D01*
X81224920Y-35462309D01*
X81224919Y-35462310D01*
X81118106Y-35622166D01*
X80982166Y-35758106D01*
X80982163Y-35758108D01*
X80822309Y-35864920D01*
X80644689Y-35938492D01*
X80644688Y-35938492D01*
X80644686Y-35938493D01*
X80456129Y-35976000D01*
X80263871Y-35976000D01*
X80075314Y-35938493D01*
X80075312Y-35938492D01*
X80075311Y-35938492D01*
X79897691Y-35864920D01*
X79737837Y-35758108D01*
X79737834Y-35758106D01*
X79601894Y-35622166D01*
X79495081Y-35462310D01*
X79495080Y-35462309D01*
X79421508Y-35284689D01*
X79418683Y-35270486D01*
X79384000Y-35096129D01*
X79384000Y-34903871D01*
X79421507Y-34715314D01*
X79490810Y-34548000D01*
X79495080Y-34537691D01*
X79601892Y-34377837D01*
X79601894Y-34377834D01*
X79737834Y-34241894D01*
X79800830Y-34199801D01*
X79897691Y-34135080D01*
X80075311Y-34061508D01*
X80075312Y-34061508D01*
X80075314Y-34061507D01*
X80263871Y-34024000D01*
X80456129Y-34024000D01*
X80644686Y-34061507D01*
X80644686Y-34061507D01*
G37*
G36*
X78104686Y-34061507D02*
X78104688Y-34061508D01*
X78104689Y-34061508D01*
X78282309Y-34135080D01*
X78379170Y-34199801D01*
X78442166Y-34241894D01*
X78578106Y-34377834D01*
X78578108Y-34377837D01*
X78684920Y-34537691D01*
X78689190Y-34548000D01*
X78758493Y-34715314D01*
X78796000Y-34903871D01*
X78796000Y-35096129D01*
X78761318Y-35270486D01*
X78758492Y-35284689D01*
X78684920Y-35462309D01*
X78684919Y-35462310D01*
X78578106Y-35622166D01*
X78442166Y-35758106D01*
X78442163Y-35758108D01*
X78282309Y-35864920D01*
X78104689Y-35938492D01*
X78104688Y-35938492D01*
X78104686Y-35938493D01*
X77916129Y-35976000D01*
X77723871Y-35976000D01*
X77535314Y-35938493D01*
X77535312Y-35938492D01*
X77535311Y-35938492D01*
X77357691Y-35864920D01*
X77197837Y-35758108D01*
X77197834Y-35758106D01*
X77061894Y-35622166D01*
X76955081Y-35462310D01*
X76955080Y-35462309D01*
X76881508Y-35284689D01*
X76878683Y-35270486D01*
X76844000Y-35096129D01*
X76844000Y-34903871D01*
X76881507Y-34715314D01*
X76950810Y-34548000D01*
X76955080Y-34537691D01*
X77061892Y-34377837D01*
X77061894Y-34377834D01*
X77197834Y-34241894D01*
X77260830Y-34199801D01*
X77357691Y-34135080D01*
X77535311Y-34061508D01*
X77535312Y-34061508D01*
X77535314Y-34061507D01*
X77723871Y-34024000D01*
X77916129Y-34024000D01*
X78104686Y-34061507D01*
X78104686Y-34061507D01*
G37*
G36*
X65781000Y-34199801D02*
X65780450Y-34201614D01*
X65778048Y-34226000D01*
X65780450Y-34250386D01*
X65787563Y-34273835D01*
X65799114Y-34295446D01*
X65814660Y-34314388D01*
X65878106Y-34377834D01*
X65878108Y-34377837D01*
X65984920Y-34537691D01*
X65989190Y-34548000D01*
X66058493Y-34715314D01*
X66096000Y-34903871D01*
X66096000Y-35096129D01*
X66061318Y-35270486D01*
X66058492Y-35284689D01*
X65984920Y-35462309D01*
X65984919Y-35462310D01*
X65878106Y-35622166D01*
X65742166Y-35758106D01*
X65742163Y-35758108D01*
X65582309Y-35864920D01*
X65404689Y-35938492D01*
X65404688Y-35938492D01*
X65404686Y-35938493D01*
X65216129Y-35976000D01*
X65023871Y-35976000D01*
X64835314Y-35938493D01*
X64835312Y-35938492D01*
X64835311Y-35938492D01*
X64657691Y-35864920D01*
X64497837Y-35758108D01*
X64497834Y-35758106D01*
X64361894Y-35622166D01*
X64255081Y-35462310D01*
X64255080Y-35462309D01*
X64181508Y-35284689D01*
X64178683Y-35270486D01*
X64144000Y-35096129D01*
X64144000Y-34903871D01*
X64181507Y-34715314D01*
X64250810Y-34548000D01*
X64255080Y-34537691D01*
X64361892Y-34377837D01*
X64361894Y-34377834D01*
X64425340Y-34314388D01*
X64440886Y-34295446D01*
X64452437Y-34273835D01*
X64459550Y-34250386D01*
X64461952Y-34226000D01*
X64459550Y-34201614D01*
X64452437Y-34178165D01*
X64440886Y-34156554D01*
X64425340Y-34137612D01*
X64406398Y-34122066D01*
X64384787Y-34110515D01*
X64379000Y-34108760D01*
X64379000Y-31399000D01*
X65781000Y-31399000D01*
X65781000Y-34199801D01*
X65781000Y-34199801D01*
G37*
G36*
X63241000Y-34199801D02*
X63240450Y-34201614D01*
X63238048Y-34226000D01*
X63240450Y-34250386D01*
X63247563Y-34273835D01*
X63259114Y-34295446D01*
X63274660Y-34314388D01*
X63338106Y-34377834D01*
X63338108Y-34377837D01*
X63444920Y-34537691D01*
X63449190Y-34548000D01*
X63518493Y-34715314D01*
X63556000Y-34903871D01*
X63556000Y-35096129D01*
X63521318Y-35270486D01*
X63518492Y-35284689D01*
X63444920Y-35462309D01*
X63444919Y-35462310D01*
X63338106Y-35622166D01*
X63202166Y-35758106D01*
X63202163Y-35758108D01*
X63042309Y-35864920D01*
X62864689Y-35938492D01*
X62864688Y-35938492D01*
X62864686Y-35938493D01*
X62676129Y-35976000D01*
X62483871Y-35976000D01*
X62295314Y-35938493D01*
X62295312Y-35938492D01*
X62295311Y-35938492D01*
X62117691Y-35864920D01*
X61957837Y-35758108D01*
X61957834Y-35758106D01*
X61821894Y-35622166D01*
X61715081Y-35462310D01*
X61715080Y-35462309D01*
X61641508Y-35284689D01*
X61638683Y-35270486D01*
X61604000Y-35096129D01*
X61604000Y-34903871D01*
X61641507Y-34715314D01*
X61710810Y-34548000D01*
X61715080Y-34537691D01*
X61821892Y-34377837D01*
X61821894Y-34377834D01*
X61885340Y-34314388D01*
X61900886Y-34295446D01*
X61912437Y-34273835D01*
X61919550Y-34250386D01*
X61921952Y-34226000D01*
X61919550Y-34201614D01*
X61912437Y-34178165D01*
X61900886Y-34156554D01*
X61885340Y-34137612D01*
X61866398Y-34122066D01*
X61844787Y-34110515D01*
X61839000Y-34108760D01*
X61839000Y-31399000D01*
X63241000Y-31399000D01*
X63241000Y-34199801D01*
X63241000Y-34199801D01*
G37*
G36*
X60701000Y-34199801D02*
X60700450Y-34201614D01*
X60698048Y-34226000D01*
X60700450Y-34250386D01*
X60707563Y-34273835D01*
X60719114Y-34295446D01*
X60734660Y-34314388D01*
X60798106Y-34377834D01*
X60798108Y-34377837D01*
X60904920Y-34537691D01*
X60909190Y-34548000D01*
X60978493Y-34715314D01*
X61016000Y-34903871D01*
X61016000Y-35096129D01*
X60981318Y-35270486D01*
X60978492Y-35284689D01*
X60904920Y-35462309D01*
X60904919Y-35462310D01*
X60798106Y-35622166D01*
X60662166Y-35758106D01*
X60662163Y-35758108D01*
X60502309Y-35864920D01*
X60324689Y-35938492D01*
X60324688Y-35938492D01*
X60324686Y-35938493D01*
X60136129Y-35976000D01*
X59943871Y-35976000D01*
X59755314Y-35938493D01*
X59755312Y-35938492D01*
X59755311Y-35938492D01*
X59577691Y-35864920D01*
X59417837Y-35758108D01*
X59417834Y-35758106D01*
X59281894Y-35622166D01*
X59175081Y-35462310D01*
X59175080Y-35462309D01*
X59101508Y-35284689D01*
X59098683Y-35270486D01*
X59064000Y-35096129D01*
X59064000Y-34903871D01*
X59101507Y-34715314D01*
X59170810Y-34548000D01*
X59175080Y-34537691D01*
X59281892Y-34377837D01*
X59281894Y-34377834D01*
X59345340Y-34314388D01*
X59360886Y-34295446D01*
X59372437Y-34273835D01*
X59379550Y-34250386D01*
X59381952Y-34226000D01*
X59379550Y-34201614D01*
X59372437Y-34178165D01*
X59360886Y-34156554D01*
X59345340Y-34137612D01*
X59326398Y-34122066D01*
X59304787Y-34110515D01*
X59299000Y-34108760D01*
X59299000Y-31399000D01*
X60701000Y-31399000D01*
X60701000Y-34199801D01*
X60701000Y-34199801D01*
G37*
G36*
X58161000Y-34199801D02*
X58160450Y-34201614D01*
X58158048Y-34226000D01*
X58160450Y-34250386D01*
X58167563Y-34273835D01*
X58179114Y-34295446D01*
X58194660Y-34314388D01*
X58258106Y-34377834D01*
X58258108Y-34377837D01*
X58364920Y-34537691D01*
X58369190Y-34548000D01*
X58438493Y-34715314D01*
X58476000Y-34903871D01*
X58476000Y-35096129D01*
X58441318Y-35270486D01*
X58438492Y-35284689D01*
X58364920Y-35462309D01*
X58364919Y-35462310D01*
X58258106Y-35622166D01*
X58122166Y-35758106D01*
X58122163Y-35758108D01*
X57962309Y-35864920D01*
X57784689Y-35938492D01*
X57784688Y-35938492D01*
X57784686Y-35938493D01*
X57596129Y-35976000D01*
X57403871Y-35976000D01*
X57215314Y-35938493D01*
X57215312Y-35938492D01*
X57215311Y-35938492D01*
X57037691Y-35864920D01*
X56877837Y-35758108D01*
X56877834Y-35758106D01*
X56741894Y-35622166D01*
X56635081Y-35462310D01*
X56635080Y-35462309D01*
X56561508Y-35284689D01*
X56558683Y-35270486D01*
X56524000Y-35096129D01*
X56524000Y-34903871D01*
X56561507Y-34715314D01*
X56630810Y-34548000D01*
X56635080Y-34537691D01*
X56741892Y-34377837D01*
X56741894Y-34377834D01*
X56805340Y-34314388D01*
X56820886Y-34295446D01*
X56832437Y-34273835D01*
X56839550Y-34250386D01*
X56841952Y-34226000D01*
X56839550Y-34201614D01*
X56832437Y-34178165D01*
X56820886Y-34156554D01*
X56805340Y-34137612D01*
X56786398Y-34122066D01*
X56764787Y-34110515D01*
X56759000Y-34108760D01*
X56759000Y-31399000D01*
X58161000Y-31399000D01*
X58161000Y-34199801D01*
X58161000Y-34199801D01*
G37*
G36*
X55621000Y-34199801D02*
X55620450Y-34201614D01*
X55618048Y-34226000D01*
X55620450Y-34250386D01*
X55627563Y-34273835D01*
X55639114Y-34295446D01*
X55654660Y-34314388D01*
X55718106Y-34377834D01*
X55718108Y-34377837D01*
X55824920Y-34537691D01*
X55829190Y-34548000D01*
X55898493Y-34715314D01*
X55936000Y-34903871D01*
X55936000Y-35096129D01*
X55901318Y-35270486D01*
X55898492Y-35284689D01*
X55824920Y-35462309D01*
X55824919Y-35462310D01*
X55718106Y-35622166D01*
X55582166Y-35758106D01*
X55582163Y-35758108D01*
X55422309Y-35864920D01*
X55244689Y-35938492D01*
X55244688Y-35938492D01*
X55244686Y-35938493D01*
X55056129Y-35976000D01*
X54863871Y-35976000D01*
X54675314Y-35938493D01*
X54675312Y-35938492D01*
X54675311Y-35938492D01*
X54497691Y-35864920D01*
X54337837Y-35758108D01*
X54337834Y-35758106D01*
X54201894Y-35622166D01*
X54095081Y-35462310D01*
X54095080Y-35462309D01*
X54021508Y-35284689D01*
X54018683Y-35270486D01*
X53984000Y-35096129D01*
X53984000Y-34903871D01*
X54021507Y-34715314D01*
X54090810Y-34548000D01*
X54095080Y-34537691D01*
X54201892Y-34377837D01*
X54201894Y-34377834D01*
X54265340Y-34314388D01*
X54280886Y-34295446D01*
X54292437Y-34273835D01*
X54299550Y-34250386D01*
X54301952Y-34226000D01*
X54299550Y-34201614D01*
X54292437Y-34178165D01*
X54280886Y-34156554D01*
X54265340Y-34137612D01*
X54246398Y-34122066D01*
X54224787Y-34110515D01*
X54219000Y-34108760D01*
X54219000Y-31399000D01*
X55621000Y-31399000D01*
X55621000Y-34199801D01*
X55621000Y-34199801D01*
G37*
G36*
X53081000Y-34199801D02*
X53080450Y-34201614D01*
X53078048Y-34226000D01*
X53080450Y-34250386D01*
X53087563Y-34273835D01*
X53099114Y-34295446D01*
X53114660Y-34314388D01*
X53178106Y-34377834D01*
X53178108Y-34377837D01*
X53284920Y-34537691D01*
X53289190Y-34548000D01*
X53358493Y-34715314D01*
X53396000Y-34903871D01*
X53396000Y-35096129D01*
X53361318Y-35270486D01*
X53358492Y-35284689D01*
X53284920Y-35462309D01*
X53284919Y-35462310D01*
X53178106Y-35622166D01*
X53042166Y-35758106D01*
X53042163Y-35758108D01*
X52882309Y-35864920D01*
X52704689Y-35938492D01*
X52704688Y-35938492D01*
X52704686Y-35938493D01*
X52516129Y-35976000D01*
X52323871Y-35976000D01*
X52135314Y-35938493D01*
X52135312Y-35938492D01*
X52135311Y-35938492D01*
X51957691Y-35864920D01*
X51797837Y-35758108D01*
X51797834Y-35758106D01*
X51661894Y-35622166D01*
X51555081Y-35462310D01*
X51555080Y-35462309D01*
X51481508Y-35284689D01*
X51478683Y-35270486D01*
X51444000Y-35096129D01*
X51444000Y-34903871D01*
X51481507Y-34715314D01*
X51550810Y-34548000D01*
X51555080Y-34537691D01*
X51661892Y-34377837D01*
X51661894Y-34377834D01*
X51725340Y-34314388D01*
X51740886Y-34295446D01*
X51752437Y-34273835D01*
X51759550Y-34250386D01*
X51761952Y-34226000D01*
X51759550Y-34201614D01*
X51752437Y-34178165D01*
X51740886Y-34156554D01*
X51725340Y-34137612D01*
X51706398Y-34122066D01*
X51684787Y-34110515D01*
X51679000Y-34108760D01*
X51679000Y-31399000D01*
X53081000Y-31399000D01*
X53081000Y-34199801D01*
X53081000Y-34199801D01*
G37*
G36*
X50541000Y-34199801D02*
X50540450Y-34201614D01*
X50538048Y-34226000D01*
X50540450Y-34250386D01*
X50547563Y-34273835D01*
X50559114Y-34295446D01*
X50574660Y-34314388D01*
X50638106Y-34377834D01*
X50638108Y-34377837D01*
X50744920Y-34537691D01*
X50749190Y-34548000D01*
X50818493Y-34715314D01*
X50856000Y-34903871D01*
X50856000Y-35096129D01*
X50821318Y-35270486D01*
X50818492Y-35284689D01*
X50744920Y-35462309D01*
X50744919Y-35462310D01*
X50638106Y-35622166D01*
X50502166Y-35758106D01*
X50502163Y-35758108D01*
X50342309Y-35864920D01*
X50164689Y-35938492D01*
X50164688Y-35938492D01*
X50164686Y-35938493D01*
X49976129Y-35976000D01*
X49783871Y-35976000D01*
X49595314Y-35938493D01*
X49595312Y-35938492D01*
X49595311Y-35938492D01*
X49417691Y-35864920D01*
X49257837Y-35758108D01*
X49257834Y-35758106D01*
X49121894Y-35622166D01*
X49015081Y-35462310D01*
X49015080Y-35462309D01*
X48941508Y-35284689D01*
X48938683Y-35270486D01*
X48904000Y-35096129D01*
X48904000Y-34903871D01*
X48941507Y-34715314D01*
X49010810Y-34548000D01*
X49015080Y-34537691D01*
X49121892Y-34377837D01*
X49121894Y-34377834D01*
X49185340Y-34314388D01*
X49200886Y-34295446D01*
X49212437Y-34273835D01*
X49219550Y-34250386D01*
X49221952Y-34226000D01*
X49219550Y-34201614D01*
X49212437Y-34178165D01*
X49200886Y-34156554D01*
X49185340Y-34137612D01*
X49166398Y-34122066D01*
X49144787Y-34110515D01*
X49139000Y-34108760D01*
X49139000Y-31399000D01*
X50541000Y-31399000D01*
X50541000Y-34199801D01*
X50541000Y-34199801D01*
G37*
G36*
X45084686Y-34061507D02*
X45084688Y-34061508D01*
X45084689Y-34061508D01*
X45262309Y-34135080D01*
X45359170Y-34199801D01*
X45422166Y-34241894D01*
X45558106Y-34377834D01*
X45558108Y-34377837D01*
X45664920Y-34537691D01*
X45669190Y-34548000D01*
X45738493Y-34715314D01*
X45776000Y-34903871D01*
X45776000Y-35096129D01*
X45741318Y-35270486D01*
X45738492Y-35284689D01*
X45664920Y-35462309D01*
X45664919Y-35462310D01*
X45558106Y-35622166D01*
X45422166Y-35758106D01*
X45422163Y-35758108D01*
X45262309Y-35864920D01*
X45084689Y-35938492D01*
X45084688Y-35938492D01*
X45084686Y-35938493D01*
X44896129Y-35976000D01*
X44703871Y-35976000D01*
X44515314Y-35938493D01*
X44515312Y-35938492D01*
X44515311Y-35938492D01*
X44337691Y-35864920D01*
X44177837Y-35758108D01*
X44177834Y-35758106D01*
X44041894Y-35622166D01*
X43935081Y-35462310D01*
X43935080Y-35462309D01*
X43861508Y-35284689D01*
X43858683Y-35270486D01*
X43824000Y-35096129D01*
X43824000Y-34903871D01*
X43861507Y-34715314D01*
X43930810Y-34548000D01*
X43935080Y-34537691D01*
X44041892Y-34377837D01*
X44041894Y-34377834D01*
X44177834Y-34241894D01*
X44240830Y-34199801D01*
X44337691Y-34135080D01*
X44515311Y-34061508D01*
X44515312Y-34061508D01*
X44515314Y-34061507D01*
X44703871Y-34024000D01*
X44896129Y-34024000D01*
X45084686Y-34061507D01*
X45084686Y-34061507D01*
G37*
G36*
X41049500Y-34548000D02*
X39550500Y-34548000D01*
X39550500Y-33557000D01*
X41049500Y-33557000D01*
X41049500Y-34548000D01*
X41049500Y-34548000D01*
G37*
G36*
X76549500Y-33648000D02*
X75050500Y-33648000D01*
X75050500Y-32657000D01*
X76549500Y-32657000D01*
X76549500Y-33648000D01*
X76549500Y-33648000D01*
G37*
G36*
X78943000Y-32749500D02*
X77952000Y-32749500D01*
X77952000Y-31250500D01*
X78943000Y-31250500D01*
X78943000Y-32749500D01*
X78943000Y-32749500D01*
G37*
G36*
X80848000Y-32749500D02*
X79857000Y-32749500D01*
X79857000Y-31250500D01*
X80848000Y-31250500D01*
X80848000Y-32749500D01*
X80848000Y-32749500D01*
G37*
G36*
X43049500Y-32648000D02*
X41550500Y-32648000D01*
X41550500Y-31657000D01*
X43049500Y-31657000D01*
X43049500Y-32648000D01*
X43049500Y-32648000D01*
G37*
G36*
X41049500Y-32643000D02*
X39550500Y-32643000D01*
X39550500Y-31652000D01*
X41049500Y-31652000D01*
X41049500Y-32643000D01*
X41049500Y-32643000D01*
G37*
G36*
X10805739Y-29434048D02*
X11059702Y-29484564D01*
X11346516Y-29603367D01*
X11604642Y-29775841D01*
X11824159Y-29995358D01*
X11996633Y-30253484D01*
X12115436Y-30540298D01*
X12176000Y-30844778D01*
X12176000Y-31155222D01*
X12115436Y-31459702D01*
X11996633Y-31746516D01*
X11824159Y-32004642D01*
X11604642Y-32224159D01*
X11346516Y-32396633D01*
X11059702Y-32515436D01*
X10805739Y-32565952D01*
X10755223Y-32576000D01*
X10444777Y-32576000D01*
X10394261Y-32565952D01*
X10140298Y-32515436D01*
X9853484Y-32396633D01*
X9595358Y-32224159D01*
X9375841Y-32004642D01*
X9203367Y-31746516D01*
X9084564Y-31459702D01*
X9024000Y-31155222D01*
X9024000Y-30844778D01*
X9084564Y-30540298D01*
X9203367Y-30253484D01*
X9375841Y-29995358D01*
X9595358Y-29775841D01*
X9853484Y-29603367D01*
X10140298Y-29484564D01*
X10394261Y-29434048D01*
X10444777Y-29424000D01*
X10755223Y-29424000D01*
X10805739Y-29434048D01*
X10805739Y-29434048D01*
G37*
G36*
X35805739Y-29434048D02*
X36059702Y-29484564D01*
X36346516Y-29603367D01*
X36604642Y-29775841D01*
X36824159Y-29995358D01*
X36996633Y-30253484D01*
X37115436Y-30540298D01*
X37176000Y-30844778D01*
X37176000Y-31155222D01*
X37115436Y-31459702D01*
X36996633Y-31746516D01*
X36824159Y-32004642D01*
X36604642Y-32224159D01*
X36346516Y-32396633D01*
X36059702Y-32515436D01*
X35805739Y-32565952D01*
X35755223Y-32576000D01*
X35444777Y-32576000D01*
X35394261Y-32565952D01*
X35140298Y-32515436D01*
X34853484Y-32396633D01*
X34595358Y-32224159D01*
X34375841Y-32004642D01*
X34203367Y-31746516D01*
X34084564Y-31459702D01*
X34024000Y-31155222D01*
X34024000Y-30844778D01*
X34084564Y-30540298D01*
X34203367Y-30253484D01*
X34375841Y-29995358D01*
X34595358Y-29775841D01*
X34853484Y-29603367D01*
X35140298Y-29484564D01*
X35394261Y-29434048D01*
X35444777Y-29424000D01*
X35755223Y-29424000D01*
X35805739Y-29434048D01*
X35805739Y-29434048D01*
G37*
G36*
X76549500Y-31743000D02*
X75050500Y-31743000D01*
X75050500Y-30752000D01*
X76549500Y-30752000D01*
X76549500Y-31743000D01*
X76549500Y-31743000D01*
G37*
G36*
X70543000Y-31549500D02*
X69552000Y-31549500D01*
X69552000Y-30050500D01*
X70543000Y-30050500D01*
X70543000Y-31549500D01*
X70543000Y-31549500D01*
G37*
G36*
X72448000Y-31549500D02*
X71457000Y-31549500D01*
X71457000Y-30050500D01*
X72448000Y-30050500D01*
X72448000Y-31549500D01*
X72448000Y-31549500D01*
G37*
G36*
X43049500Y-30743000D02*
X41550500Y-30743000D01*
X41550500Y-29752000D01*
X43049500Y-29752000D01*
X43049500Y-30743000D01*
X43049500Y-30743000D01*
G37*
G36*
X81041000Y-30701000D02*
X80299000Y-30701000D01*
X80299000Y-28599000D01*
X81041000Y-28599000D01*
X81041000Y-30701000D01*
X81041000Y-30701000D01*
G37*
G36*
X78501000Y-30701000D02*
X77759000Y-30701000D01*
X77759000Y-28599000D01*
X78501000Y-28599000D01*
X78501000Y-30701000D01*
X78501000Y-30701000D01*
G37*
G36*
X79771000Y-30701000D02*
X79029000Y-30701000D01*
X79029000Y-28599000D01*
X79771000Y-28599000D01*
X79771000Y-30701000D01*
X79771000Y-30701000D01*
G37*
G36*
X70749500Y-29248000D02*
X69250500Y-29248000D01*
X69250500Y-28257000D01*
X70749500Y-28257000D01*
X70749500Y-29248000D01*
X70749500Y-29248000D01*
G37*
G36*
X43049500Y-29148000D02*
X41550500Y-29148000D01*
X41550500Y-28157000D01*
X43049500Y-28157000D01*
X43049500Y-29148000D01*
X43049500Y-29148000D01*
G37*
G36*
X48001000Y-28601000D02*
X46599000Y-28601000D01*
X46599000Y-25899000D01*
X48001000Y-25899000D01*
X48001000Y-28601000D01*
X48001000Y-28601000D01*
G37*
G36*
X50541000Y-28601000D02*
X49139000Y-28601000D01*
X49139000Y-25899000D01*
X50541000Y-25899000D01*
X50541000Y-28601000D01*
X50541000Y-28601000D01*
G37*
G36*
X55621000Y-28601000D02*
X54219000Y-28601000D01*
X54219000Y-25899000D01*
X55621000Y-25899000D01*
X55621000Y-28601000D01*
X55621000Y-28601000D01*
G37*
G36*
X58161000Y-28601000D02*
X56759000Y-28601000D01*
X56759000Y-25899000D01*
X58161000Y-25899000D01*
X58161000Y-28601000D01*
X58161000Y-28601000D01*
G37*
G36*
X63241000Y-28601000D02*
X61839000Y-28601000D01*
X61839000Y-25899000D01*
X63241000Y-25899000D01*
X63241000Y-28601000D01*
X63241000Y-28601000D01*
G37*
G36*
X65781000Y-28601000D02*
X64379000Y-28601000D01*
X64379000Y-25899000D01*
X65781000Y-25899000D01*
X65781000Y-28601000D01*
X65781000Y-28601000D01*
G37*
G36*
X53081000Y-28601000D02*
X51679000Y-28601000D01*
X51679000Y-25899000D01*
X53081000Y-25899000D01*
X53081000Y-28601000D01*
X53081000Y-28601000D01*
G37*
G36*
X60701000Y-28601000D02*
X59299000Y-28601000D01*
X59299000Y-25899000D01*
X60701000Y-25899000D01*
X60701000Y-28601000D01*
X60701000Y-28601000D01*
G37*
G36*
X72949500Y-27348000D02*
X71450500Y-27348000D01*
X71450500Y-26357000D01*
X72949500Y-26357000D01*
X72949500Y-27348000D01*
X72949500Y-27348000D01*
G37*
G36*
X70749500Y-27343000D02*
X69250500Y-27343000D01*
X69250500Y-26352000D01*
X70749500Y-26352000D01*
X70749500Y-27343000D01*
X70749500Y-27343000D01*
G37*
G36*
X43049500Y-27243000D02*
X41550500Y-27243000D01*
X41550500Y-26252000D01*
X43049500Y-26252000D01*
X43049500Y-27243000D01*
X43049500Y-27243000D01*
G37*
G36*
X72949500Y-25443000D02*
X71450500Y-25443000D01*
X71450500Y-24452000D01*
X72949500Y-24452000D01*
X72949500Y-25443000D01*
X72949500Y-25443000D01*
G37*
G36*
X60651000Y-24651000D02*
X59449000Y-24651000D01*
X59449000Y-23449000D01*
X60651000Y-23449000D01*
X60651000Y-24651000D01*
X60651000Y-24651000D01*
G37*
G36*
X46051000Y-24651000D02*
X44849000Y-24651000D01*
X44849000Y-23449000D01*
X46051000Y-23449000D01*
X46051000Y-24651000D01*
X46051000Y-24651000D01*
G37*
G36*
X67951000Y-24651000D02*
X66749000Y-24651000D01*
X66749000Y-23449000D01*
X67951000Y-23449000D01*
X67951000Y-24651000D01*
X67951000Y-24651000D01*
G37*
G36*
X53351000Y-24651000D02*
X52149000Y-24651000D01*
X52149000Y-23449000D01*
X53351000Y-23449000D01*
X53351000Y-24651000D01*
X53351000Y-24651000D01*
G37*
G36*
X44149500Y-24548000D02*
X42650500Y-24548000D01*
X42650500Y-23557000D01*
X44149500Y-23557000D01*
X44149500Y-24548000D01*
X44149500Y-24548000D01*
G37*
G36*
X58749500Y-24548000D02*
X57250500Y-24548000D01*
X57250500Y-23557000D01*
X58749500Y-23557000D01*
X58749500Y-24548000D01*
X58749500Y-24548000D01*
G37*
G36*
X51449500Y-24548000D02*
X49950500Y-24548000D01*
X49950500Y-23557000D01*
X51449500Y-23557000D01*
X51449500Y-24548000D01*
X51449500Y-24548000D01*
G37*
G36*
X66049500Y-24548000D02*
X64550500Y-24548000D01*
X64550500Y-23557000D01*
X66049500Y-23557000D01*
X66049500Y-24548000D01*
X66049500Y-24548000D01*
G37*
G36*
X81041000Y-24401000D02*
X80299000Y-24401000D01*
X80299000Y-22299000D01*
X81041000Y-22299000D01*
X81041000Y-24401000D01*
X81041000Y-24401000D01*
G37*
G36*
X78501000Y-24401000D02*
X77759000Y-24401000D01*
X77759000Y-22299000D01*
X78501000Y-22299000D01*
X78501000Y-24401000D01*
X78501000Y-24401000D01*
G37*
G36*
X70151000Y-23701000D02*
X68949000Y-23701000D01*
X68949000Y-22499000D01*
X70151000Y-22499000D01*
X70151000Y-23701000D01*
X70151000Y-23701000D01*
G37*
G36*
X62851000Y-23701000D02*
X61649000Y-23701000D01*
X61649000Y-22499000D01*
X62851000Y-22499000D01*
X62851000Y-23701000D01*
X62851000Y-23701000D01*
G37*
G36*
X48251000Y-23701000D02*
X47049000Y-23701000D01*
X47049000Y-22499000D01*
X48251000Y-22499000D01*
X48251000Y-23701000D01*
X48251000Y-23701000D01*
G37*
G36*
X55551000Y-23701000D02*
X54349000Y-23701000D01*
X54349000Y-22499000D01*
X55551000Y-22499000D01*
X55551000Y-23701000D01*
X55551000Y-23701000D01*
G37*
G36*
X38751000Y-22951000D02*
X37549000Y-22951000D01*
X37549000Y-21749000D01*
X38751000Y-21749000D01*
X38751000Y-22951000D01*
X38751000Y-22951000D01*
G37*
G36*
X36849500Y-22848000D02*
X35350500Y-22848000D01*
X35350500Y-21857000D01*
X36849500Y-21857000D01*
X36849500Y-22848000D01*
X36849500Y-22848000D01*
G37*
G36*
X61901000Y-21501000D02*
X61388587Y-21501000D01*
X61364201Y-21503402D01*
X61340752Y-21510515D01*
X61319141Y-21522066D01*
X61300199Y-21537612D01*
X60687612Y-22150199D01*
X60672066Y-22169141D01*
X60660515Y-22190752D01*
X60653402Y-22214201D01*
X60651000Y-22238587D01*
X60651000Y-22751000D01*
X59449000Y-22751000D01*
X59449000Y-21549000D01*
X59961413Y-21549000D01*
X59985799Y-21546598D01*
X60009248Y-21539485D01*
X60030859Y-21527934D01*
X60049801Y-21512388D01*
X60662388Y-20899801D01*
X60677934Y-20880859D01*
X60689485Y-20859248D01*
X60696598Y-20835799D01*
X60699000Y-20811413D01*
X60699000Y-20299000D01*
X61901000Y-20299000D01*
X61901000Y-21501000D01*
X61901000Y-21501000D01*
G37*
G36*
X54601000Y-21501000D02*
X54088587Y-21501000D01*
X54064201Y-21503402D01*
X54040752Y-21510515D01*
X54019141Y-21522066D01*
X54000199Y-21537612D01*
X53387612Y-22150199D01*
X53372066Y-22169141D01*
X53360515Y-22190752D01*
X53353402Y-22214201D01*
X53351000Y-22238587D01*
X53351000Y-22751000D01*
X52149000Y-22751000D01*
X52149000Y-21549000D01*
X52661413Y-21549000D01*
X52685799Y-21546598D01*
X52709248Y-21539485D01*
X52730859Y-21527934D01*
X52749801Y-21512388D01*
X53362388Y-20899801D01*
X53377934Y-20880859D01*
X53389485Y-20859248D01*
X53396598Y-20835799D01*
X53399000Y-20811413D01*
X53399000Y-20299000D01*
X54601000Y-20299000D01*
X54601000Y-21501000D01*
X54601000Y-21501000D01*
G37*
G36*
X69201000Y-21501000D02*
X68688587Y-21501000D01*
X68664201Y-21503402D01*
X68640752Y-21510515D01*
X68619141Y-21522066D01*
X68600199Y-21537612D01*
X67987612Y-22150199D01*
X67972066Y-22169141D01*
X67960515Y-22190752D01*
X67953402Y-22214201D01*
X67951000Y-22238587D01*
X67951000Y-22751000D01*
X66749000Y-22751000D01*
X66749000Y-21549000D01*
X67261413Y-21549000D01*
X67285799Y-21546598D01*
X67309248Y-21539485D01*
X67330859Y-21527934D01*
X67349801Y-21512388D01*
X67962388Y-20899801D01*
X67977934Y-20880859D01*
X67989485Y-20859248D01*
X67996598Y-20835799D01*
X67999000Y-20811413D01*
X67999000Y-20299000D01*
X69201000Y-20299000D01*
X69201000Y-21501000D01*
X69201000Y-21501000D01*
G37*
G36*
X47301000Y-21501000D02*
X46788587Y-21501000D01*
X46764201Y-21503402D01*
X46740752Y-21510515D01*
X46719141Y-21522066D01*
X46700199Y-21537612D01*
X46087612Y-22150199D01*
X46072066Y-22169141D01*
X46060515Y-22190752D01*
X46053402Y-22214201D01*
X46051000Y-22238587D01*
X46051000Y-22751000D01*
X44849000Y-22751000D01*
X44849000Y-21549000D01*
X45361413Y-21549000D01*
X45385799Y-21546598D01*
X45409248Y-21539485D01*
X45430859Y-21527934D01*
X45449801Y-21512388D01*
X46062388Y-20899801D01*
X46077934Y-20880859D01*
X46089485Y-20859248D01*
X46096598Y-20835799D01*
X46099000Y-20811413D01*
X46099000Y-20299000D01*
X47301000Y-20299000D01*
X47301000Y-21501000D01*
X47301000Y-21501000D01*
G37*
G36*
X44149500Y-22643000D02*
X42650500Y-22643000D01*
X42650500Y-21652000D01*
X44149500Y-21652000D01*
X44149500Y-22643000D01*
X44149500Y-22643000D01*
G37*
G36*
X58749500Y-22643000D02*
X57250500Y-22643000D01*
X57250500Y-21652000D01*
X58749500Y-21652000D01*
X58749500Y-22643000D01*
X58749500Y-22643000D01*
G37*
G36*
X51449500Y-22643000D02*
X49950500Y-22643000D01*
X49950500Y-21652000D01*
X51449500Y-21652000D01*
X51449500Y-22643000D01*
X51449500Y-22643000D01*
G37*
G36*
X66049500Y-22643000D02*
X64550500Y-22643000D01*
X64550500Y-21652000D01*
X66049500Y-21652000D01*
X66049500Y-22643000D01*
X66049500Y-22643000D01*
G37*
G36*
X40951000Y-22001000D02*
X39749000Y-22001000D01*
X39749000Y-20799000D01*
X40951000Y-20799000D01*
X40951000Y-22001000D01*
X40951000Y-22001000D01*
G37*
G36*
X24943000Y-21949500D02*
X23952000Y-21949500D01*
X23952000Y-20450500D01*
X24943000Y-20450500D01*
X24943000Y-21949500D01*
X24943000Y-21949500D01*
G37*
G36*
X23448000Y-21949500D02*
X22457000Y-21949500D01*
X22457000Y-20450500D01*
X23448000Y-20450500D01*
X23448000Y-21949500D01*
X23448000Y-21949500D01*
G37*
G36*
X26848000Y-21949500D02*
X25857000Y-21949500D01*
X25857000Y-20450500D01*
X26848000Y-20450500D01*
X26848000Y-21949500D01*
X26848000Y-21949500D01*
G37*
G36*
X21543000Y-21949500D02*
X20552000Y-21949500D01*
X20552000Y-20450500D01*
X21543000Y-20450500D01*
X21543000Y-21949500D01*
X21543000Y-21949500D01*
G37*
G36*
X81043000Y-21649500D02*
X80052000Y-21649500D01*
X80052000Y-20150500D01*
X81043000Y-20150500D01*
X81043000Y-21649500D01*
X81043000Y-21649500D01*
G37*
G36*
X82948000Y-21649500D02*
X81957000Y-21649500D01*
X81957000Y-20150500D01*
X82948000Y-20150500D01*
X82948000Y-21649500D01*
X82948000Y-21649500D01*
G37*
G36*
X78548000Y-21649500D02*
X77557000Y-21649500D01*
X77557000Y-20150500D01*
X78548000Y-20150500D01*
X78548000Y-21649500D01*
X78548000Y-21649500D01*
G37*
G36*
X76643000Y-21649500D02*
X75652000Y-21649500D01*
X75652000Y-20150500D01*
X76643000Y-20150500D01*
X76643000Y-21649500D01*
X76643000Y-21649500D01*
G37*
G36*
X56501000Y-21501000D02*
X55299000Y-21501000D01*
X55299000Y-20299000D01*
X56501000Y-20299000D01*
X56501000Y-21501000D01*
X56501000Y-21501000D01*
G37*
G36*
X49201000Y-21501000D02*
X47999000Y-21501000D01*
X47999000Y-20299000D01*
X49201000Y-20299000D01*
X49201000Y-21501000D01*
X49201000Y-21501000D01*
G37*
G36*
X63801000Y-21501000D02*
X62599000Y-21501000D01*
X62599000Y-20299000D01*
X63801000Y-20299000D01*
X63801000Y-21501000D01*
X63801000Y-21501000D01*
G37*
G36*
X71101000Y-21501000D02*
X69899000Y-21501000D01*
X69899000Y-20299000D01*
X71101000Y-20299000D01*
X71101000Y-21501000D01*
X71101000Y-21501000D01*
G37*
G36*
X40001000Y-19801000D02*
X39488587Y-19801000D01*
X39464201Y-19803402D01*
X39440752Y-19810515D01*
X39419141Y-19822066D01*
X39400199Y-19837612D01*
X38787612Y-20450199D01*
X38772066Y-20469141D01*
X38760515Y-20490752D01*
X38753402Y-20514201D01*
X38751000Y-20538587D01*
X38751000Y-21051000D01*
X37549000Y-21051000D01*
X37549000Y-19849000D01*
X38061413Y-19849000D01*
X38085799Y-19846598D01*
X38109248Y-19839485D01*
X38130859Y-19827934D01*
X38149801Y-19812388D01*
X38762388Y-19199801D01*
X38777934Y-19180859D01*
X38789485Y-19159248D01*
X38796598Y-19135799D01*
X38799000Y-19111413D01*
X38799000Y-18599000D01*
X40001000Y-18599000D01*
X40001000Y-19801000D01*
X40001000Y-19801000D01*
G37*
G36*
X36849500Y-20943000D02*
X35350500Y-20943000D01*
X35350500Y-19952000D01*
X36849500Y-19952000D01*
X36849500Y-20943000D01*
X36849500Y-20943000D01*
G37*
G36*
X49148000Y-19949500D02*
X48157000Y-19949500D01*
X48157000Y-18450500D01*
X49148000Y-18450500D01*
X49148000Y-19949500D01*
X49148000Y-19949500D01*
G37*
G36*
X47243000Y-19949500D02*
X46252000Y-19949500D01*
X46252000Y-18450500D01*
X47243000Y-18450500D01*
X47243000Y-19949500D01*
X47243000Y-19949500D01*
G37*
G36*
X61843000Y-19949500D02*
X60852000Y-19949500D01*
X60852000Y-18450500D01*
X61843000Y-18450500D01*
X61843000Y-19949500D01*
X61843000Y-19949500D01*
G37*
G36*
X56448000Y-19949500D02*
X55457000Y-19949500D01*
X55457000Y-18450500D01*
X56448000Y-18450500D01*
X56448000Y-19949500D01*
X56448000Y-19949500D01*
G37*
G36*
X54543000Y-19949500D02*
X53552000Y-19949500D01*
X53552000Y-18450500D01*
X54543000Y-18450500D01*
X54543000Y-19949500D01*
X54543000Y-19949500D01*
G37*
G36*
X63748000Y-19949500D02*
X62757000Y-19949500D01*
X62757000Y-18450500D01*
X63748000Y-18450500D01*
X63748000Y-19949500D01*
X63748000Y-19949500D01*
G37*
G36*
X71048000Y-19949500D02*
X70057000Y-19949500D01*
X70057000Y-18450500D01*
X71048000Y-18450500D01*
X71048000Y-19949500D01*
X71048000Y-19949500D01*
G37*
G36*
X69143000Y-19949500D02*
X68152000Y-19949500D01*
X68152000Y-18450500D01*
X69143000Y-18450500D01*
X69143000Y-19949500D01*
X69143000Y-19949500D01*
G37*
G36*
X92400399Y-10383499D02*
X93274125Y-10745408D01*
X94060462Y-11270822D01*
X94729178Y-11939538D01*
X95254592Y-12725875D01*
X95616501Y-13599601D01*
X95801000Y-14527141D01*
X95801000Y-15472859D01*
X95616501Y-16400399D01*
X95254592Y-17274125D01*
X94729178Y-18060462D01*
X94060462Y-18729178D01*
X93274125Y-19254592D01*
X92400399Y-19616501D01*
X91472859Y-19801000D01*
X90527141Y-19801000D01*
X89599601Y-19616501D01*
X88725875Y-19254592D01*
X87939538Y-18729178D01*
X87270822Y-18060462D01*
X86745408Y-17274125D01*
X86383499Y-16400399D01*
X86199000Y-15472859D01*
X86199000Y-14527141D01*
X86383499Y-13599601D01*
X86745408Y-12725875D01*
X87270822Y-11939538D01*
X87939538Y-11270822D01*
X88725875Y-10745408D01*
X89599601Y-10383499D01*
X90527141Y-10199000D01*
X91472859Y-10199000D01*
X92400399Y-10383499D01*
X92400399Y-10383499D01*
G37*
G36*
X41901000Y-19801000D02*
X40699000Y-19801000D01*
X40699000Y-18599000D01*
X41901000Y-18599000D01*
X41901000Y-19801000D01*
X41901000Y-19801000D01*
G37*
G36*
X24361000Y-19651000D02*
X22959000Y-19651000D01*
X22959000Y-11549000D01*
X24361000Y-11549000D01*
X24361000Y-19651000D01*
X24361000Y-19651000D01*
G37*
G36*
X26901000Y-19651000D02*
X25499000Y-19651000D01*
X25499000Y-11549000D01*
X26901000Y-11549000D01*
X26901000Y-19651000D01*
X26901000Y-19651000D01*
G37*
G36*
X32849500Y-19448000D02*
X31350500Y-19448000D01*
X31350500Y-18457000D01*
X32849500Y-18457000D01*
X32849500Y-19448000D01*
X32849500Y-19448000D01*
G37*
G36*
X30901000Y-19401000D02*
X29899000Y-19401000D01*
X29899000Y-18249000D01*
X30901000Y-18249000D01*
X30901000Y-19401000D01*
X30901000Y-19401000D01*
G37*
G36*
X10432004Y-17260544D02*
X10519059Y-17277860D01*
X10655732Y-17334472D01*
X10655733Y-17334473D01*
X10778738Y-17416662D01*
X10883338Y-17521262D01*
X10883340Y-17521265D01*
X10965528Y-17644268D01*
X11022140Y-17780941D01*
X11051000Y-17926033D01*
X11051000Y-18073967D01*
X11022140Y-18219059D01*
X10965528Y-18355732D01*
X10965527Y-18355733D01*
X10883338Y-18478738D01*
X10778738Y-18583338D01*
X10778735Y-18583340D01*
X10655732Y-18665528D01*
X10519059Y-18722140D01*
X10439696Y-18737926D01*
X10373969Y-18751000D01*
X10226031Y-18751000D01*
X10160304Y-18737926D01*
X10080941Y-18722140D01*
X9944268Y-18665528D01*
X9821265Y-18583340D01*
X9821262Y-18583338D01*
X9716662Y-18478738D01*
X9634473Y-18355733D01*
X9634472Y-18355732D01*
X9577860Y-18219059D01*
X9549000Y-18073967D01*
X9549000Y-17926033D01*
X9577860Y-17780941D01*
X9634472Y-17644268D01*
X9716660Y-17521265D01*
X9716662Y-17521262D01*
X9821262Y-17416662D01*
X9944267Y-17334473D01*
X9944268Y-17334472D01*
X10080941Y-17277860D01*
X10167996Y-17260544D01*
X10226031Y-17249000D01*
X10373969Y-17249000D01*
X10432004Y-17260544D01*
X10432004Y-17260544D01*
G37*
G36*
X12932004Y-17260544D02*
X13019059Y-17277860D01*
X13155732Y-17334472D01*
X13155733Y-17334473D01*
X13278738Y-17416662D01*
X13383338Y-17521262D01*
X13383340Y-17521265D01*
X13465528Y-17644268D01*
X13522140Y-17780941D01*
X13551000Y-17926033D01*
X13551000Y-18073967D01*
X13522140Y-18219059D01*
X13465528Y-18355732D01*
X13465527Y-18355733D01*
X13383338Y-18478738D01*
X13278738Y-18583338D01*
X13278735Y-18583340D01*
X13155732Y-18665528D01*
X13019059Y-18722140D01*
X12939696Y-18737926D01*
X12873969Y-18751000D01*
X12726031Y-18751000D01*
X12660304Y-18737926D01*
X12580941Y-18722140D01*
X12444268Y-18665528D01*
X12321265Y-18583340D01*
X12321262Y-18583338D01*
X12216662Y-18478738D01*
X12134473Y-18355733D01*
X12134472Y-18355732D01*
X12077860Y-18219059D01*
X12049000Y-18073967D01*
X12049000Y-17926033D01*
X12077860Y-17780941D01*
X12134472Y-17644268D01*
X12216660Y-17521265D01*
X12216662Y-17521262D01*
X12321262Y-17416662D01*
X12444267Y-17334473D01*
X12444268Y-17334472D01*
X12580941Y-17277860D01*
X12667996Y-17260544D01*
X12726031Y-17249000D01*
X12873969Y-17249000D01*
X12932004Y-17260544D01*
X12932004Y-17260544D01*
G37*
G36*
X15432004Y-17260544D02*
X15519059Y-17277860D01*
X15655732Y-17334472D01*
X15655733Y-17334473D01*
X15778738Y-17416662D01*
X15883338Y-17521262D01*
X15883340Y-17521265D01*
X15965528Y-17644268D01*
X16022140Y-17780941D01*
X16051000Y-17926033D01*
X16051000Y-18073967D01*
X16022140Y-18219059D01*
X15965528Y-18355732D01*
X15965527Y-18355733D01*
X15883338Y-18478738D01*
X15778738Y-18583338D01*
X15778735Y-18583340D01*
X15655732Y-18665528D01*
X15519059Y-18722140D01*
X15439696Y-18737926D01*
X15373969Y-18751000D01*
X15226031Y-18751000D01*
X15160304Y-18737926D01*
X15080941Y-18722140D01*
X14944268Y-18665528D01*
X14821265Y-18583340D01*
X14821262Y-18583338D01*
X14716662Y-18478738D01*
X14634473Y-18355733D01*
X14634472Y-18355732D01*
X14577860Y-18219059D01*
X14549000Y-18073967D01*
X14549000Y-17926033D01*
X14577860Y-17780941D01*
X14634472Y-17644268D01*
X14716660Y-17521265D01*
X14716662Y-17521262D01*
X14821262Y-17416662D01*
X14944267Y-17334473D01*
X14944268Y-17334472D01*
X15080941Y-17277860D01*
X15167996Y-17260544D01*
X15226031Y-17249000D01*
X15373969Y-17249000D01*
X15432004Y-17260544D01*
X15432004Y-17260544D01*
G37*
G36*
X28901000Y-18451000D02*
X27899000Y-18451000D01*
X27899000Y-17549000D01*
X28901000Y-17549000D01*
X28901000Y-18451000D01*
X28901000Y-18451000D01*
G37*
G36*
X39943000Y-18249500D02*
X38952000Y-18249500D01*
X38952000Y-16750500D01*
X39943000Y-16750500D01*
X39943000Y-18249500D01*
X39943000Y-18249500D01*
G37*
G36*
X41848000Y-18249500D02*
X40857000Y-18249500D01*
X40857000Y-16750500D01*
X41848000Y-16750500D01*
X41848000Y-18249500D01*
X41848000Y-18249500D01*
G37*
G36*
X56961000Y-17901000D02*
X55559000Y-17901000D01*
X55559000Y-15199000D01*
X56961000Y-15199000D01*
X56961000Y-17901000D01*
X56961000Y-17901000D01*
G37*
G36*
X64581000Y-17901000D02*
X63179000Y-17901000D01*
X63179000Y-15199000D01*
X64581000Y-15199000D01*
X64581000Y-17901000D01*
X64581000Y-17901000D01*
G37*
G36*
X62041000Y-17901000D02*
X60639000Y-17901000D01*
X60639000Y-15199000D01*
X62041000Y-15199000D01*
X62041000Y-17901000D01*
X62041000Y-17901000D01*
G37*
G36*
X59501000Y-17901000D02*
X58099000Y-17901000D01*
X58099000Y-15199000D01*
X59501000Y-15199000D01*
X59501000Y-17901000D01*
X59501000Y-17901000D01*
G37*
G36*
X54421000Y-17901000D02*
X53019000Y-17901000D01*
X53019000Y-15199000D01*
X54421000Y-15199000D01*
X54421000Y-17901000D01*
X54421000Y-17901000D01*
G37*
G36*
X51881000Y-17901000D02*
X50479000Y-17901000D01*
X50479000Y-15199000D01*
X51881000Y-15199000D01*
X51881000Y-17901000D01*
X51881000Y-17901000D01*
G37*
G36*
X46801000Y-17901000D02*
X45399000Y-17901000D01*
X45399000Y-15199000D01*
X46801000Y-15199000D01*
X46801000Y-17901000D01*
X46801000Y-17901000D01*
G37*
G36*
X49341000Y-17901000D02*
X47939000Y-17901000D01*
X47939000Y-15199000D01*
X49341000Y-15199000D01*
X49341000Y-17901000D01*
X49341000Y-17901000D01*
G37*
G36*
X30901000Y-17751000D02*
X29899000Y-17751000D01*
X29899000Y-16599000D01*
X30901000Y-16599000D01*
X30901000Y-17751000D01*
X30901000Y-17751000D01*
G37*
G36*
X32849500Y-17543000D02*
X31350500Y-17543000D01*
X31350500Y-16552000D01*
X32849500Y-16552000D01*
X32849500Y-17543000D01*
X32849500Y-17543000D01*
G37*
G36*
X35143000Y-16349500D02*
X34152000Y-16349500D01*
X34152000Y-14850500D01*
X35143000Y-14850500D01*
X35143000Y-16349500D01*
X35143000Y-16349500D01*
G37*
G36*
X37048000Y-16349500D02*
X36057000Y-16349500D01*
X36057000Y-14850500D01*
X37048000Y-14850500D01*
X37048000Y-16349500D01*
X37048000Y-16349500D01*
G37*
G36*
X15432004Y-14760544D02*
X15519059Y-14777860D01*
X15655732Y-14834472D01*
X15777079Y-14915554D01*
X15778738Y-14916662D01*
X15883338Y-15021262D01*
X15883340Y-15021265D01*
X15965528Y-15144268D01*
X16022140Y-15280941D01*
X16051000Y-15426033D01*
X16051000Y-15573967D01*
X16022140Y-15719059D01*
X15965528Y-15855732D01*
X15965527Y-15855733D01*
X15883338Y-15978738D01*
X15778738Y-16083338D01*
X15778735Y-16083340D01*
X15655732Y-16165528D01*
X15519059Y-16222140D01*
X15432004Y-16239456D01*
X15373969Y-16251000D01*
X15226031Y-16251000D01*
X15167996Y-16239456D01*
X15080941Y-16222140D01*
X14944268Y-16165528D01*
X14821265Y-16083340D01*
X14821262Y-16083338D01*
X14716662Y-15978738D01*
X14634473Y-15855733D01*
X14634472Y-15855732D01*
X14577860Y-15719059D01*
X14549000Y-15573967D01*
X14549000Y-15426033D01*
X14577860Y-15280941D01*
X14634472Y-15144268D01*
X14716660Y-15021265D01*
X14716662Y-15021262D01*
X14821262Y-14916662D01*
X14822921Y-14915554D01*
X14944268Y-14834472D01*
X15080941Y-14777860D01*
X15167996Y-14760544D01*
X15226031Y-14749000D01*
X15373969Y-14749000D01*
X15432004Y-14760544D01*
X15432004Y-14760544D01*
G37*
G36*
X12932004Y-14760544D02*
X13019059Y-14777860D01*
X13155732Y-14834472D01*
X13277079Y-14915554D01*
X13278738Y-14916662D01*
X13383338Y-15021262D01*
X13383340Y-15021265D01*
X13465528Y-15144268D01*
X13522140Y-15280941D01*
X13551000Y-15426033D01*
X13551000Y-15573967D01*
X13522140Y-15719059D01*
X13465528Y-15855732D01*
X13465527Y-15855733D01*
X13383338Y-15978738D01*
X13278738Y-16083338D01*
X13278735Y-16083340D01*
X13155732Y-16165528D01*
X13019059Y-16222140D01*
X12932004Y-16239456D01*
X12873969Y-16251000D01*
X12726031Y-16251000D01*
X12667996Y-16239456D01*
X12580941Y-16222140D01*
X12444268Y-16165528D01*
X12321265Y-16083340D01*
X12321262Y-16083338D01*
X12216662Y-15978738D01*
X12134473Y-15855733D01*
X12134472Y-15855732D01*
X12077860Y-15719059D01*
X12049000Y-15573967D01*
X12049000Y-15426033D01*
X12077860Y-15280941D01*
X12134472Y-15144268D01*
X12216660Y-15021265D01*
X12216662Y-15021262D01*
X12321262Y-14916662D01*
X12322921Y-14915554D01*
X12444268Y-14834472D01*
X12580941Y-14777860D01*
X12667996Y-14760544D01*
X12726031Y-14749000D01*
X12873969Y-14749000D01*
X12932004Y-14760544D01*
X12932004Y-14760544D01*
G37*
G36*
X10432004Y-14760544D02*
X10519059Y-14777860D01*
X10655732Y-14834472D01*
X10777079Y-14915554D01*
X10778738Y-14916662D01*
X10883338Y-15021262D01*
X10883340Y-15021265D01*
X10965528Y-15144268D01*
X11022140Y-15280941D01*
X11051000Y-15426033D01*
X11051000Y-15573967D01*
X11022140Y-15719059D01*
X10965528Y-15855732D01*
X10965527Y-15855733D01*
X10883338Y-15978738D01*
X10778738Y-16083338D01*
X10778735Y-16083340D01*
X10655732Y-16165528D01*
X10519059Y-16222140D01*
X10432004Y-16239456D01*
X10373969Y-16251000D01*
X10226031Y-16251000D01*
X10167996Y-16239456D01*
X10080941Y-16222140D01*
X9944268Y-16165528D01*
X9821265Y-16083340D01*
X9821262Y-16083338D01*
X9716662Y-15978738D01*
X9634473Y-15855733D01*
X9634472Y-15855732D01*
X9577860Y-15719059D01*
X9549000Y-15573967D01*
X9549000Y-15426033D01*
X9577860Y-15280941D01*
X9634472Y-15144268D01*
X9716660Y-15021265D01*
X9716662Y-15021262D01*
X9821262Y-14916662D01*
X9822921Y-14915554D01*
X9944268Y-14834472D01*
X10080941Y-14777860D01*
X10167996Y-14760544D01*
X10226031Y-14749000D01*
X10373969Y-14749000D01*
X10432004Y-14760544D01*
X10432004Y-14760544D01*
G37*
G36*
X31651000Y-15801000D02*
X30749000Y-15801000D01*
X30749000Y-14799000D01*
X31651000Y-14799000D01*
X31651000Y-15801000D01*
X31651000Y-15801000D01*
G37*
G36*
X32601000Y-13801000D02*
X31449000Y-13801000D01*
X31449000Y-12799000D01*
X32601000Y-12799000D01*
X32601000Y-13801000D01*
X32601000Y-13801000D01*
G37*
G36*
X30951000Y-13801000D02*
X29799000Y-13801000D01*
X29799000Y-12799000D01*
X30951000Y-12799000D01*
X30951000Y-13801000D01*
X30951000Y-13801000D01*
G37*
G36*
X12932004Y-12260544D02*
X13019059Y-12277860D01*
X13155732Y-12334472D01*
X13155733Y-12334473D01*
X13278738Y-12416662D01*
X13383338Y-12521262D01*
X13383340Y-12521265D01*
X13465528Y-12644268D01*
X13522140Y-12780941D01*
X13551000Y-12926033D01*
X13551000Y-13073967D01*
X13522140Y-13219059D01*
X13465528Y-13355732D01*
X13465527Y-13355733D01*
X13383338Y-13478738D01*
X13278738Y-13583338D01*
X13278735Y-13583340D01*
X13155732Y-13665528D01*
X13019059Y-13722140D01*
X12932004Y-13739456D01*
X12873969Y-13751000D01*
X12726031Y-13751000D01*
X12667996Y-13739456D01*
X12580941Y-13722140D01*
X12444268Y-13665528D01*
X12321265Y-13583340D01*
X12321262Y-13583338D01*
X12216662Y-13478738D01*
X12134473Y-13355733D01*
X12134472Y-13355732D01*
X12077860Y-13219059D01*
X12049000Y-13073967D01*
X12049000Y-12926033D01*
X12077860Y-12780941D01*
X12134472Y-12644268D01*
X12216660Y-12521265D01*
X12216662Y-12521262D01*
X12321262Y-12416662D01*
X12444267Y-12334473D01*
X12444268Y-12334472D01*
X12580941Y-12277860D01*
X12667996Y-12260544D01*
X12726031Y-12249000D01*
X12873969Y-12249000D01*
X12932004Y-12260544D01*
X12932004Y-12260544D01*
G37*
G36*
X10432004Y-12260544D02*
X10519059Y-12277860D01*
X10655732Y-12334472D01*
X10655733Y-12334473D01*
X10778738Y-12416662D01*
X10883338Y-12521262D01*
X10883340Y-12521265D01*
X10965528Y-12644268D01*
X11022140Y-12780941D01*
X11051000Y-12926033D01*
X11051000Y-13073967D01*
X11022140Y-13219059D01*
X10965528Y-13355732D01*
X10965527Y-13355733D01*
X10883338Y-13478738D01*
X10778738Y-13583338D01*
X10778735Y-13583340D01*
X10655732Y-13665528D01*
X10519059Y-13722140D01*
X10432004Y-13739456D01*
X10373969Y-13751000D01*
X10226031Y-13751000D01*
X10167996Y-13739456D01*
X10080941Y-13722140D01*
X9944268Y-13665528D01*
X9821265Y-13583340D01*
X9821262Y-13583338D01*
X9716662Y-13478738D01*
X9634473Y-13355733D01*
X9634472Y-13355732D01*
X9577860Y-13219059D01*
X9549000Y-13073967D01*
X9549000Y-12926033D01*
X9577860Y-12780941D01*
X9634472Y-12644268D01*
X9716660Y-12521265D01*
X9716662Y-12521262D01*
X9821262Y-12416662D01*
X9944267Y-12334473D01*
X9944268Y-12334472D01*
X10080941Y-12277860D01*
X10167996Y-12260544D01*
X10226031Y-12249000D01*
X10373969Y-12249000D01*
X10432004Y-12260544D01*
X10432004Y-12260544D01*
G37*
G36*
X15432004Y-12260544D02*
X15519059Y-12277860D01*
X15655732Y-12334472D01*
X15655733Y-12334473D01*
X15778738Y-12416662D01*
X15883338Y-12521262D01*
X15883340Y-12521265D01*
X15965528Y-12644268D01*
X16022140Y-12780941D01*
X16051000Y-12926033D01*
X16051000Y-13073967D01*
X16022140Y-13219059D01*
X15965528Y-13355732D01*
X15965527Y-13355733D01*
X15883338Y-13478738D01*
X15778738Y-13583338D01*
X15778735Y-13583340D01*
X15655732Y-13665528D01*
X15519059Y-13722140D01*
X15432004Y-13739456D01*
X15373969Y-13751000D01*
X15226031Y-13751000D01*
X15167996Y-13739456D01*
X15080941Y-13722140D01*
X14944268Y-13665528D01*
X14821265Y-13583340D01*
X14821262Y-13583338D01*
X14716662Y-13478738D01*
X14634473Y-13355733D01*
X14634472Y-13355732D01*
X14577860Y-13219059D01*
X14549000Y-13073967D01*
X14549000Y-12926033D01*
X14577860Y-12780941D01*
X14634472Y-12644268D01*
X14716660Y-12521265D01*
X14716662Y-12521262D01*
X14821262Y-12416662D01*
X14944267Y-12334473D01*
X14944268Y-12334472D01*
X15080941Y-12277860D01*
X15167996Y-12260544D01*
X15226031Y-12249000D01*
X15373969Y-12249000D01*
X15432004Y-12260544D01*
X15432004Y-12260544D01*
G37*
G36*
X40035786Y-5720462D02*
X40035788Y-5720463D01*
X40035789Y-5720463D01*
X40682029Y-5988144D01*
X40682030Y-5988145D01*
X41263634Y-6376760D01*
X41758240Y-6871366D01*
X41758242Y-6871369D01*
X42146856Y-7452971D01*
X42414537Y-8099211D01*
X42551000Y-8785257D01*
X42551000Y-9484743D01*
X42414537Y-10170789D01*
X42146856Y-10817029D01*
X42146855Y-10817030D01*
X41758240Y-11398634D01*
X41263634Y-11893240D01*
X41263631Y-11893242D01*
X40682029Y-12281856D01*
X40035789Y-12549537D01*
X40035788Y-12549537D01*
X40035786Y-12549538D01*
X39349744Y-12686000D01*
X38650256Y-12686000D01*
X37964214Y-12549538D01*
X37964212Y-12549537D01*
X37964211Y-12549537D01*
X37317971Y-12281856D01*
X36736369Y-11893242D01*
X36736366Y-11893240D01*
X36241760Y-11398634D01*
X35853145Y-10817030D01*
X35853144Y-10817029D01*
X35585463Y-10170789D01*
X35449000Y-9484743D01*
X35449000Y-8785257D01*
X35585463Y-8099211D01*
X35853144Y-7452971D01*
X36241758Y-6871369D01*
X36241760Y-6871366D01*
X36736366Y-6376760D01*
X37317970Y-5988145D01*
X37317971Y-5988144D01*
X37964211Y-5720463D01*
X37964212Y-5720463D01*
X37964214Y-5720462D01*
X38650256Y-5584000D01*
X39349744Y-5584000D01*
X40035786Y-5720462D01*
X40035786Y-5720462D01*
G37*
G36*
X72035786Y-5720462D02*
X72035788Y-5720463D01*
X72035789Y-5720463D01*
X72682029Y-5988144D01*
X72682030Y-5988145D01*
X73263634Y-6376760D01*
X73758240Y-6871366D01*
X73758242Y-6871369D01*
X74146856Y-7452971D01*
X74414537Y-8099211D01*
X74551000Y-8785257D01*
X74551000Y-9484743D01*
X74414537Y-10170789D01*
X74146856Y-10817029D01*
X74146855Y-10817030D01*
X73758240Y-11398634D01*
X73263634Y-11893240D01*
X73263631Y-11893242D01*
X72682029Y-12281856D01*
X72035789Y-12549537D01*
X72035788Y-12549537D01*
X72035786Y-12549538D01*
X71349744Y-12686000D01*
X70650256Y-12686000D01*
X69964214Y-12549538D01*
X69964212Y-12549537D01*
X69964211Y-12549537D01*
X69317971Y-12281856D01*
X68736369Y-11893242D01*
X68736366Y-11893240D01*
X68241760Y-11398634D01*
X67853145Y-10817030D01*
X67853144Y-10817029D01*
X67585463Y-10170789D01*
X67449000Y-9484743D01*
X67449000Y-8785257D01*
X67585463Y-8099211D01*
X67853144Y-7452971D01*
X68241758Y-6871369D01*
X68241760Y-6871366D01*
X68736366Y-6376760D01*
X69317970Y-5988145D01*
X69317971Y-5988144D01*
X69964211Y-5720463D01*
X69964212Y-5720463D01*
X69964214Y-5720462D01*
X70650256Y-5584000D01*
X71349744Y-5584000D01*
X72035786Y-5720462D01*
X72035786Y-5720462D01*
G37*
G36*
X59501000Y-12401000D02*
X58099000Y-12401000D01*
X58099000Y-9699000D01*
X59501000Y-9699000D01*
X59501000Y-12401000D01*
X59501000Y-12401000D01*
G37*
G36*
X64581000Y-12401000D02*
X63179000Y-12401000D01*
X63179000Y-9699000D01*
X64581000Y-9699000D01*
X64581000Y-12401000D01*
X64581000Y-12401000D01*
G37*
G36*
X62041000Y-12401000D02*
X60639000Y-12401000D01*
X60639000Y-9699000D01*
X62041000Y-9699000D01*
X62041000Y-12401000D01*
X62041000Y-12401000D01*
G37*
G36*
X46801000Y-12401000D02*
X45399000Y-12401000D01*
X45399000Y-9699000D01*
X46801000Y-9699000D01*
X46801000Y-12401000D01*
X46801000Y-12401000D01*
G37*
G36*
X49341000Y-12401000D02*
X47939000Y-12401000D01*
X47939000Y-9699000D01*
X49341000Y-9699000D01*
X49341000Y-12401000D01*
X49341000Y-12401000D01*
G37*
G36*
X51881000Y-12401000D02*
X50479000Y-12401000D01*
X50479000Y-9699000D01*
X51881000Y-9699000D01*
X51881000Y-12401000D01*
X51881000Y-12401000D01*
G37*
G36*
X54421000Y-12401000D02*
X53019000Y-12401000D01*
X53019000Y-9699000D01*
X54421000Y-9699000D01*
X54421000Y-12401000D01*
X54421000Y-12401000D01*
G37*
G36*
X56961000Y-12401000D02*
X55559000Y-12401000D01*
X55559000Y-9699000D01*
X56961000Y-9699000D01*
X56961000Y-12401000D01*
X56961000Y-12401000D01*
G37*
G36*
X4487921Y-1547056D02*
X4729515Y-1595112D01*
X5184668Y-1783643D01*
X5588841Y-2053703D01*
X5594297Y-2057349D01*
X5942651Y-2405703D01*
X6216358Y-2815334D01*
X6404888Y-3270486D01*
X6501000Y-3753672D01*
X6501000Y-4246328D01*
X6404888Y-4729514D01*
X6216358Y-5184666D01*
X5942651Y-5594297D01*
X5594297Y-5942651D01*
X5594294Y-5942653D01*
X5184668Y-6216357D01*
X4729515Y-6404888D01*
X4487921Y-6452944D01*
X4246328Y-6501000D01*
X3753672Y-6501000D01*
X3512079Y-6452944D01*
X3270485Y-6404888D01*
X2815332Y-6216357D01*
X2405706Y-5942653D01*
X2405703Y-5942651D01*
X2057349Y-5594297D01*
X1783642Y-5184666D01*
X1595112Y-4729514D01*
X1499000Y-4246328D01*
X1499000Y-3753672D01*
X1595112Y-3270486D01*
X1783642Y-2815334D01*
X2057349Y-2405703D01*
X2405703Y-2057349D01*
X2411159Y-2053703D01*
X2815332Y-1783643D01*
X3270485Y-1595112D01*
X3512079Y-1547056D01*
X3753672Y-1499000D01*
X4246328Y-1499000D01*
X4487921Y-1547056D01*
X4487921Y-1547056D01*
G37*
G36*
X102487921Y-1547056D02*
X102729515Y-1595112D01*
X103184668Y-1783643D01*
X103588841Y-2053703D01*
X103594297Y-2057349D01*
X103942651Y-2405703D01*
X104216358Y-2815334D01*
X104404888Y-3270486D01*
X104501000Y-3753672D01*
X104501000Y-4246328D01*
X104404888Y-4729514D01*
X104216358Y-5184666D01*
X103942651Y-5594297D01*
X103594297Y-5942651D01*
X103594294Y-5942653D01*
X103184668Y-6216357D01*
X102729515Y-6404888D01*
X102487921Y-6452944D01*
X102246328Y-6501000D01*
X101753672Y-6501000D01*
X101512079Y-6452944D01*
X101270485Y-6404888D01*
X100815332Y-6216357D01*
X100405706Y-5942653D01*
X100405703Y-5942651D01*
X100057349Y-5594297D01*
X99783642Y-5184666D01*
X99595112Y-4729514D01*
X99499000Y-4246328D01*
X99499000Y-3753672D01*
X99595112Y-3270486D01*
X99783642Y-2815334D01*
X100057349Y-2405703D01*
X100405703Y-2057349D01*
X100411159Y-2053703D01*
X100815332Y-1783643D01*
X101270485Y-1595112D01*
X101512079Y-1547056D01*
X101753672Y-1499000D01*
X102246328Y-1499000D01*
X102487921Y-1547056D01*
X102487921Y-1547056D01*
G37*
M02*
