M48
;DRILL file {KiCad 5.0.2-bee76a0~70~ubuntu16.04.1} date Sun 01 Dec 2019 06:04:22 PM PST
;FORMAT={-:-/ absolute / metric / decimal}
FMAT,2
METRIC,TZ
T1C0.400
T2C1.000
%
G90
G05
T1
X5.09Y-13.271
X5.49Y-5.071
X8.59Y-9.271
X8.59Y-10.871
X8.59Y-12.871
X11.7Y-10.8
X11.7Y-15.4
X12.1Y-9.2
X15.6Y-13.
T2
X17.56Y-1.7
X17.56Y-4.24
X17.56Y-6.78
X17.56Y-9.32
X17.56Y-11.86
X17.56Y-14.4
X17.56Y-16.94
X17.56Y-19.48
X17.56Y-22.02
X17.56Y-24.56
X17.56Y-27.1
X17.56Y-29.64
X17.56Y-32.18
X17.56Y-34.72
X17.56Y-37.26
X17.56Y-39.8
X17.56Y-42.34
X17.56Y-44.88
X17.56Y-47.42
X17.56Y-49.96
X20.1Y-1.7
X20.1Y-4.24
X20.1Y-6.78
X20.1Y-9.32
X20.1Y-11.86
X20.1Y-14.4
X20.1Y-16.94
X20.1Y-19.48
X20.1Y-22.02
X20.1Y-24.56
X20.1Y-27.1
X20.1Y-29.64
X20.1Y-32.18
X20.1Y-34.72
X20.1Y-37.26
X20.1Y-39.8
X20.1Y-42.34
X20.1Y-44.88
X20.1Y-47.42
X20.1Y-49.96
X13.8Y-15.6
X13.8Y-18.14
X13.8Y-20.68
X13.8Y-23.22
T0
M30
