G04 #@! TF.GenerationSoftware,KiCad,Pcbnew,5.0.2-bee76a0~70~ubuntu16.04.1*
G04 #@! TF.CreationDate,2019-12-01T18:04:24-08:00*
G04 #@! TF.ProjectId,io_jumper,696f5f6a-756d-4706-9572-2e6b69636164,1.0*
G04 #@! TF.SameCoordinates,PX7471920PY2d4cae0*
G04 #@! TF.FileFunction,Legend,Bot*
G04 #@! TF.FilePolarity,Positive*
%FSLAX46Y46*%
G04 Gerber Fmt 4.6, Leading zero omitted, Abs format (unit mm)*
G04 Created by KiCad (PCBNEW 5.0.2-bee76a0~70~ubuntu16.04.1) date Sun 01 Dec 2019 06:04:24 PM PST*
%MOMM*%
%LPD*%
G01*
G04 APERTURE LIST*
%ADD10C,0.100000*%
G04 APERTURE END LIST*
D10*
G04 #@! TO.C,J2*
X11262000Y-5992000D02*
X11262000Y-4976000D01*
X11262000Y-4976000D02*
X9738000Y-4976000D01*
X9738000Y-4976000D02*
X9738000Y-5992000D01*
X9738000Y-7008000D02*
X9738000Y-8024000D01*
X9738000Y-8024000D02*
X11262000Y-8024000D01*
X11262000Y-8024000D02*
X11262000Y-7008000D01*
G04 #@! TO.C,C1*
X9738000Y-15008000D02*
X9738000Y-16024000D01*
X9738000Y-16024000D02*
X11262000Y-16024000D01*
X11262000Y-16024000D02*
X11262000Y-15008000D01*
X11262000Y-13992000D02*
X11262000Y-12976000D01*
X11262000Y-12976000D02*
X9738000Y-12976000D01*
X9738000Y-12976000D02*
X9738000Y-13992000D01*
G04 #@! TO.C,J1*
X11262000Y-11424000D02*
X11262000Y-10408000D01*
X9738000Y-11424000D02*
X11262000Y-11424000D01*
X9738000Y-10408000D02*
X9738000Y-11424000D01*
X9738000Y-8376000D02*
X9738000Y-9392000D01*
X11262000Y-8376000D02*
X9738000Y-8376000D01*
X11262000Y-9392000D02*
X11262000Y-8376000D01*
G04 #@! TO.C,J2*
X10666666Y-3761904D02*
X10666666Y-4333333D01*
X10704761Y-4447619D01*
X10780952Y-4523809D01*
X10895238Y-4561904D01*
X10971428Y-4561904D01*
X10323809Y-3838095D02*
X10285714Y-3800000D01*
X10209523Y-3761904D01*
X10019047Y-3761904D01*
X9942857Y-3800000D01*
X9904761Y-3838095D01*
X9866666Y-3914285D01*
X9866666Y-3990476D01*
X9904761Y-4104761D01*
X10361904Y-4561904D01*
X9866666Y-4561904D01*
G04 #@! TO.C,C1*
X10633333Y-16985714D02*
X10671428Y-17023809D01*
X10785714Y-17061904D01*
X10861904Y-17061904D01*
X10976190Y-17023809D01*
X11052380Y-16947619D01*
X11090476Y-16871428D01*
X11128571Y-16719047D01*
X11128571Y-16604761D01*
X11090476Y-16452380D01*
X11052380Y-16376190D01*
X10976190Y-16300000D01*
X10861904Y-16261904D01*
X10785714Y-16261904D01*
X10671428Y-16300000D01*
X10633333Y-16338095D01*
X9871428Y-17061904D02*
X10328571Y-17061904D01*
X10100000Y-17061904D02*
X10100000Y-16261904D01*
X10176190Y-16376190D01*
X10252380Y-16452380D01*
X10328571Y-16490476D01*
G04 #@! TO.C,DB1*
X5028571Y-3238095D02*
X4990476Y-3200000D01*
X4914285Y-3161904D01*
X4723809Y-3161904D01*
X4647619Y-3200000D01*
X4609523Y-3238095D01*
X4571428Y-3314285D01*
X4571428Y-3390476D01*
X4609523Y-3504761D01*
X5066666Y-3961904D01*
X4571428Y-3961904D01*
G04 #@! TO.C,J1*
X10866666Y-11661904D02*
X10866666Y-12233333D01*
X10904761Y-12347619D01*
X10980952Y-12423809D01*
X11095238Y-12461904D01*
X11171428Y-12461904D01*
X10066666Y-12461904D02*
X10523809Y-12461904D01*
X10295238Y-12461904D02*
X10295238Y-11661904D01*
X10371428Y-11776190D01*
X10447619Y-11852380D01*
X10523809Y-11890476D01*
G04 #@! TD*
M02*
