G04 #@! TF.GenerationSoftware,KiCad,Pcbnew,5.0.2-bee76a0~70~ubuntu16.04.1*
G04 #@! TF.CreationDate,2019-12-01T18:04:24-08:00*
G04 #@! TF.ProjectId,io_jumper,696f5f6a-756d-4706-9572-2e6b69636164,1.0*
G04 #@! TF.SameCoordinates,PX7471920PY2d4cae0*
G04 #@! TF.FileFunction,Legend,Top*
G04 #@! TF.FilePolarity,Positive*
%FSLAX46Y46*%
G04 Gerber Fmt 4.6, Leading zero omitted, Abs format (unit mm)*
G04 Created by KiCad (PCBNEW 5.0.2-bee76a0~70~ubuntu16.04.1) date Sun 01 Dec 2019 06:04:24 PM PST*
%MOMM*%
%LPD*%
G01*
G04 APERTURE LIST*
%ADD10C,0.150000*%
%ADD11C,0.120000*%
%ADD12C,0.100000*%
%ADD13C,0.002540*%
G04 APERTURE END LIST*
D10*
X1835595Y-43652380D02*
X1835595Y-42652380D01*
X1835595Y-43128571D02*
X2407023Y-43128571D01*
X2407023Y-43652380D02*
X2407023Y-42652380D01*
X3264166Y-43604761D02*
X3168928Y-43652380D01*
X2978452Y-43652380D01*
X2883214Y-43604761D01*
X2835595Y-43509523D01*
X2835595Y-43128571D01*
X2883214Y-43033333D01*
X2978452Y-42985714D01*
X3168928Y-42985714D01*
X3264166Y-43033333D01*
X3311785Y-43128571D01*
X3311785Y-43223809D01*
X2835595Y-43319047D01*
X3740357Y-43652380D02*
X3740357Y-42985714D01*
X3740357Y-43176190D02*
X3787976Y-43080952D01*
X3835595Y-43033333D01*
X3930833Y-42985714D01*
X4026071Y-42985714D01*
X4359404Y-43652380D02*
X4359404Y-42985714D01*
X4359404Y-43080952D02*
X4407023Y-43033333D01*
X4502261Y-42985714D01*
X4645119Y-42985714D01*
X4740357Y-43033333D01*
X4787976Y-43128571D01*
X4787976Y-43652380D01*
X4787976Y-43128571D02*
X4835595Y-43033333D01*
X4930833Y-42985714D01*
X5073690Y-42985714D01*
X5168928Y-43033333D01*
X5216547Y-43128571D01*
X5216547Y-43652380D01*
X6073690Y-43604761D02*
X5978452Y-43652380D01*
X5787976Y-43652380D01*
X5692738Y-43604761D01*
X5645119Y-43509523D01*
X5645119Y-43128571D01*
X5692738Y-43033333D01*
X5787976Y-42985714D01*
X5978452Y-42985714D01*
X6073690Y-43033333D01*
X6121309Y-43128571D01*
X6121309Y-43223809D01*
X5645119Y-43319047D01*
X6502261Y-43604761D02*
X6597500Y-43652380D01*
X6787976Y-43652380D01*
X6883214Y-43604761D01*
X6930833Y-43509523D01*
X6930833Y-43461904D01*
X6883214Y-43366666D01*
X6787976Y-43319047D01*
X6645119Y-43319047D01*
X6549880Y-43271428D01*
X6502261Y-43176190D01*
X6502261Y-43128571D01*
X6549880Y-43033333D01*
X6645119Y-42985714D01*
X6787976Y-42985714D01*
X6883214Y-43033333D01*
X7359404Y-43271428D02*
X8121309Y-43271428D01*
X9073690Y-43652380D02*
X8597500Y-43652380D01*
X8597500Y-42652380D01*
X9407023Y-43652380D02*
X9407023Y-42985714D01*
X9407023Y-42652380D02*
X9359404Y-42700000D01*
X9407023Y-42747619D01*
X9454642Y-42700000D01*
X9407023Y-42652380D01*
X9407023Y-42747619D01*
X9740357Y-42985714D02*
X10121309Y-42985714D01*
X9883214Y-42652380D02*
X9883214Y-43509523D01*
X9930833Y-43604761D01*
X10026071Y-43652380D01*
X10121309Y-43652380D01*
X10835595Y-43604761D02*
X10740357Y-43652380D01*
X10549880Y-43652380D01*
X10454642Y-43604761D01*
X10407023Y-43509523D01*
X10407023Y-43128571D01*
X10454642Y-43033333D01*
X10549880Y-42985714D01*
X10740357Y-42985714D01*
X10835595Y-43033333D01*
X10883214Y-43128571D01*
X10883214Y-43223809D01*
X10407023Y-43319047D01*
X2121309Y-44302380D02*
X2121309Y-45016666D01*
X2073690Y-45159523D01*
X1978452Y-45254761D01*
X1835595Y-45302380D01*
X1740357Y-45302380D01*
X3026071Y-44635714D02*
X3026071Y-45302380D01*
X2597500Y-44635714D02*
X2597500Y-45159523D01*
X2645119Y-45254761D01*
X2740357Y-45302380D01*
X2883214Y-45302380D01*
X2978452Y-45254761D01*
X3026071Y-45207142D01*
X3502261Y-45302380D02*
X3502261Y-44635714D01*
X3502261Y-44730952D02*
X3549880Y-44683333D01*
X3645119Y-44635714D01*
X3787976Y-44635714D01*
X3883214Y-44683333D01*
X3930833Y-44778571D01*
X3930833Y-45302380D01*
X3930833Y-44778571D02*
X3978452Y-44683333D01*
X4073690Y-44635714D01*
X4216547Y-44635714D01*
X4311785Y-44683333D01*
X4359404Y-44778571D01*
X4359404Y-45302380D01*
X4835595Y-44635714D02*
X4835595Y-45635714D01*
X4835595Y-44683333D02*
X4930833Y-44635714D01*
X5121309Y-44635714D01*
X5216547Y-44683333D01*
X5264166Y-44730952D01*
X5311785Y-44826190D01*
X5311785Y-45111904D01*
X5264166Y-45207142D01*
X5216547Y-45254761D01*
X5121309Y-45302380D01*
X4930833Y-45302380D01*
X4835595Y-45254761D01*
X6121309Y-45254761D02*
X6026071Y-45302380D01*
X5835595Y-45302380D01*
X5740357Y-45254761D01*
X5692738Y-45159523D01*
X5692738Y-44778571D01*
X5740357Y-44683333D01*
X5835595Y-44635714D01*
X6026071Y-44635714D01*
X6121309Y-44683333D01*
X6168928Y-44778571D01*
X6168928Y-44873809D01*
X5692738Y-44969047D01*
X6597500Y-45302380D02*
X6597500Y-44635714D01*
X6597500Y-44826190D02*
X6645119Y-44730952D01*
X6692738Y-44683333D01*
X6787976Y-44635714D01*
X6883214Y-44635714D01*
X7978452Y-45302380D02*
X7978452Y-44302380D01*
X8645119Y-44302380D02*
X8835595Y-44302380D01*
X8930833Y-44350000D01*
X9026071Y-44445238D01*
X9073690Y-44635714D01*
X9073690Y-44969047D01*
X9026071Y-45159523D01*
X8930833Y-45254761D01*
X8835595Y-45302380D01*
X8645119Y-45302380D01*
X8549880Y-45254761D01*
X8454642Y-45159523D01*
X8407023Y-44969047D01*
X8407023Y-44635714D01*
X8454642Y-44445238D01*
X8549880Y-44350000D01*
X8645119Y-44302380D01*
X10597500Y-44778571D02*
X10740357Y-44826190D01*
X10787976Y-44873809D01*
X10835595Y-44969047D01*
X10835595Y-45111904D01*
X10787976Y-45207142D01*
X10740357Y-45254761D01*
X10645119Y-45302380D01*
X10264166Y-45302380D01*
X10264166Y-44302380D01*
X10597500Y-44302380D01*
X10692738Y-44350000D01*
X10740357Y-44397619D01*
X10787976Y-44492857D01*
X10787976Y-44588095D01*
X10740357Y-44683333D01*
X10692738Y-44730952D01*
X10597500Y-44778571D01*
X10264166Y-44778571D01*
X11407023Y-45302380D02*
X11311785Y-45254761D01*
X11264166Y-45207142D01*
X11216547Y-45111904D01*
X11216547Y-44826190D01*
X11264166Y-44730952D01*
X11311785Y-44683333D01*
X11407023Y-44635714D01*
X11549880Y-44635714D01*
X11645119Y-44683333D01*
X11692738Y-44730952D01*
X11740357Y-44826190D01*
X11740357Y-45111904D01*
X11692738Y-45207142D01*
X11645119Y-45254761D01*
X11549880Y-45302380D01*
X11407023Y-45302380D01*
X12597500Y-45302380D02*
X12597500Y-44778571D01*
X12549880Y-44683333D01*
X12454642Y-44635714D01*
X12264166Y-44635714D01*
X12168928Y-44683333D01*
X12597500Y-45254761D02*
X12502261Y-45302380D01*
X12264166Y-45302380D01*
X12168928Y-45254761D01*
X12121309Y-45159523D01*
X12121309Y-45064285D01*
X12168928Y-44969047D01*
X12264166Y-44921428D01*
X12502261Y-44921428D01*
X12597500Y-44873809D01*
X13073690Y-45302380D02*
X13073690Y-44635714D01*
X13073690Y-44826190D02*
X13121309Y-44730952D01*
X13168928Y-44683333D01*
X13264166Y-44635714D01*
X13359404Y-44635714D01*
X14121309Y-45302380D02*
X14121309Y-44302380D01*
X14121309Y-45254761D02*
X14026071Y-45302380D01*
X13835595Y-45302380D01*
X13740357Y-45254761D01*
X13692738Y-45207142D01*
X13645119Y-45111904D01*
X13645119Y-44826190D01*
X13692738Y-44730952D01*
X13740357Y-44683333D01*
X13835595Y-44635714D01*
X14026071Y-44635714D01*
X14121309Y-44683333D01*
X1740357Y-46285714D02*
X1978452Y-46952380D01*
X2216547Y-46285714D01*
X3121309Y-46952380D02*
X2549880Y-46952380D01*
X2835595Y-46952380D02*
X2835595Y-45952380D01*
X2740357Y-46095238D01*
X2645119Y-46190476D01*
X2549880Y-46238095D01*
X3549880Y-46857142D02*
X3597500Y-46904761D01*
X3549880Y-46952380D01*
X3502261Y-46904761D01*
X3549880Y-46857142D01*
X3549880Y-46952380D01*
X4216547Y-45952380D02*
X4311785Y-45952380D01*
X4407023Y-46000000D01*
X4454642Y-46047619D01*
X4502261Y-46142857D01*
X4549880Y-46333333D01*
X4549880Y-46571428D01*
X4502261Y-46761904D01*
X4454642Y-46857142D01*
X4407023Y-46904761D01*
X4311785Y-46952380D01*
X4216547Y-46952380D01*
X4121309Y-46904761D01*
X4073690Y-46857142D01*
X4026071Y-46761904D01*
X3978452Y-46571428D01*
X3978452Y-46333333D01*
X4026071Y-46142857D01*
X4073690Y-46047619D01*
X4121309Y-46000000D01*
X4216547Y-45952380D01*
X2645119Y-47840476D02*
X2549880Y-47792857D01*
X2359404Y-47792857D01*
X2264166Y-47840476D01*
X2168928Y-47935714D01*
X2121309Y-48030952D01*
X2121309Y-48221428D01*
X2168928Y-48316666D01*
X2264166Y-48411904D01*
X2359404Y-48459523D01*
X2549880Y-48459523D01*
X2645119Y-48411904D01*
X2454642Y-47459523D02*
X2216547Y-47507142D01*
X1978452Y-47650000D01*
X1835595Y-47888095D01*
X1787976Y-48126190D01*
X1835595Y-48364285D01*
X1978452Y-48602380D01*
X2216547Y-48745238D01*
X2454642Y-48792857D01*
X2692738Y-48745238D01*
X2930833Y-48602380D01*
X3073690Y-48364285D01*
X3121309Y-48126190D01*
X3073690Y-47888095D01*
X2930833Y-47650000D01*
X2692738Y-47507142D01*
X2454642Y-47459523D01*
X4264166Y-47697619D02*
X4311785Y-47650000D01*
X4407023Y-47602380D01*
X4645119Y-47602380D01*
X4740357Y-47650000D01*
X4787976Y-47697619D01*
X4835595Y-47792857D01*
X4835595Y-47888095D01*
X4787976Y-48030952D01*
X4216547Y-48602380D01*
X4835595Y-48602380D01*
X5454642Y-47602380D02*
X5549880Y-47602380D01*
X5645119Y-47650000D01*
X5692738Y-47697619D01*
X5740357Y-47792857D01*
X5787976Y-47983333D01*
X5787976Y-48221428D01*
X5740357Y-48411904D01*
X5692738Y-48507142D01*
X5645119Y-48554761D01*
X5549880Y-48602380D01*
X5454642Y-48602380D01*
X5359404Y-48554761D01*
X5311785Y-48507142D01*
X5264166Y-48411904D01*
X5216547Y-48221428D01*
X5216547Y-47983333D01*
X5264166Y-47792857D01*
X5311785Y-47697619D01*
X5359404Y-47650000D01*
X5454642Y-47602380D01*
X6740357Y-48602380D02*
X6168928Y-48602380D01*
X6454642Y-48602380D02*
X6454642Y-47602380D01*
X6359404Y-47745238D01*
X6264166Y-47840476D01*
X6168928Y-47888095D01*
X7216547Y-48602380D02*
X7407023Y-48602380D01*
X7502261Y-48554761D01*
X7549880Y-48507142D01*
X7645119Y-48364285D01*
X7692738Y-48173809D01*
X7692738Y-47792857D01*
X7645119Y-47697619D01*
X7597500Y-47650000D01*
X7502261Y-47602380D01*
X7311785Y-47602380D01*
X7216547Y-47650000D01*
X7168928Y-47697619D01*
X7121309Y-47792857D01*
X7121309Y-48030952D01*
X7168928Y-48126190D01*
X7216547Y-48173809D01*
X7311785Y-48221428D01*
X7502261Y-48221428D01*
X7597500Y-48173809D01*
X7645119Y-48126190D01*
X7692738Y-48030952D01*
X1787976Y-50204761D02*
X1930833Y-50252380D01*
X2168928Y-50252380D01*
X2264166Y-50204761D01*
X2311785Y-50157142D01*
X2359404Y-50061904D01*
X2359404Y-49966666D01*
X2311785Y-49871428D01*
X2264166Y-49823809D01*
X2168928Y-49776190D01*
X1978452Y-49728571D01*
X1883214Y-49680952D01*
X1835595Y-49633333D01*
X1787976Y-49538095D01*
X1787976Y-49442857D01*
X1835595Y-49347619D01*
X1883214Y-49300000D01*
X1978452Y-49252380D01*
X2216547Y-49252380D01*
X2359404Y-49300000D01*
X2930833Y-50252380D02*
X2835595Y-50204761D01*
X2787976Y-50157142D01*
X2740357Y-50061904D01*
X2740357Y-49776190D01*
X2787976Y-49680952D01*
X2835595Y-49633333D01*
X2930833Y-49585714D01*
X3073690Y-49585714D01*
X3168928Y-49633333D01*
X3216547Y-49680952D01*
X3264166Y-49776190D01*
X3264166Y-50061904D01*
X3216547Y-50157142D01*
X3168928Y-50204761D01*
X3073690Y-50252380D01*
X2930833Y-50252380D01*
X3549880Y-49585714D02*
X3930833Y-49585714D01*
X3692738Y-50252380D02*
X3692738Y-49395238D01*
X3740357Y-49300000D01*
X3835595Y-49252380D01*
X3930833Y-49252380D01*
X4121309Y-49585714D02*
X4502261Y-49585714D01*
X4264166Y-49252380D02*
X4264166Y-50109523D01*
X4311785Y-50204761D01*
X4407023Y-50252380D01*
X4502261Y-50252380D01*
X5216547Y-50204761D02*
X5121309Y-50252380D01*
X4930833Y-50252380D01*
X4835595Y-50204761D01*
X4787976Y-50109523D01*
X4787976Y-49728571D01*
X4835595Y-49633333D01*
X4930833Y-49585714D01*
X5121309Y-49585714D01*
X5216547Y-49633333D01*
X5264166Y-49728571D01*
X5264166Y-49823809D01*
X4787976Y-49919047D01*
X5692738Y-50252380D02*
X5692738Y-49585714D01*
X5692738Y-49776190D02*
X5740357Y-49680952D01*
X5787976Y-49633333D01*
X5883214Y-49585714D01*
X5978452Y-49585714D01*
X6311785Y-50252380D02*
X6311785Y-49252380D01*
X6311785Y-49728571D02*
X6883214Y-49728571D01*
X6883214Y-50252380D02*
X6883214Y-49252380D01*
X7787976Y-50252380D02*
X7787976Y-49728571D01*
X7740357Y-49633333D01*
X7645119Y-49585714D01*
X7454642Y-49585714D01*
X7359404Y-49633333D01*
X7787976Y-50204761D02*
X7692738Y-50252380D01*
X7454642Y-50252380D01*
X7359404Y-50204761D01*
X7311785Y-50109523D01*
X7311785Y-50014285D01*
X7359404Y-49919047D01*
X7454642Y-49871428D01*
X7692738Y-49871428D01*
X7787976Y-49823809D01*
X8264166Y-50252380D02*
X8264166Y-49585714D01*
X8264166Y-49776190D02*
X8311785Y-49680952D01*
X8359404Y-49633333D01*
X8454642Y-49585714D01*
X8549880Y-49585714D01*
X9311785Y-50252380D02*
X9311785Y-49252380D01*
X9311785Y-50204761D02*
X9216547Y-50252380D01*
X9026071Y-50252380D01*
X8930833Y-50204761D01*
X8883214Y-50157142D01*
X8835595Y-50061904D01*
X8835595Y-49776190D01*
X8883214Y-49680952D01*
X8930833Y-49633333D01*
X9026071Y-49585714D01*
X9216547Y-49585714D01*
X9311785Y-49633333D01*
X9692738Y-49585714D02*
X9883214Y-50252380D01*
X10073690Y-49776190D01*
X10264166Y-50252380D01*
X10454642Y-49585714D01*
X11264166Y-50252380D02*
X11264166Y-49728571D01*
X11216547Y-49633333D01*
X11121309Y-49585714D01*
X10930833Y-49585714D01*
X10835595Y-49633333D01*
X11264166Y-50204761D02*
X11168928Y-50252380D01*
X10930833Y-50252380D01*
X10835595Y-50204761D01*
X10787976Y-50109523D01*
X10787976Y-50014285D01*
X10835595Y-49919047D01*
X10930833Y-49871428D01*
X11168928Y-49871428D01*
X11264166Y-49823809D01*
X11740357Y-50252380D02*
X11740357Y-49585714D01*
X11740357Y-49776190D02*
X11787976Y-49680952D01*
X11835595Y-49633333D01*
X11930833Y-49585714D01*
X12026071Y-49585714D01*
X12740357Y-50204761D02*
X12645119Y-50252380D01*
X12454642Y-50252380D01*
X12359404Y-50204761D01*
X12311785Y-50109523D01*
X12311785Y-49728571D01*
X12359404Y-49633333D01*
X12454642Y-49585714D01*
X12645119Y-49585714D01*
X12740357Y-49633333D01*
X12787976Y-49728571D01*
X12787976Y-49823809D01*
X12311785Y-49919047D01*
D11*
G04 #@! TO.C,P1*
X21430000Y-2970000D02*
X21430000Y-51290000D01*
X21430000Y-51290000D02*
X16230000Y-51290000D01*
X16230000Y-51290000D02*
X16230000Y-370000D01*
X16230000Y-370000D02*
X18830000Y-370000D01*
X18830000Y-370000D02*
X18830000Y-2970000D01*
X18830000Y-2970000D02*
X21430000Y-2970000D01*
X21430000Y-1700000D02*
X21430000Y-370000D01*
X21430000Y-370000D02*
X20160000Y-370000D01*
D10*
G04 #@! TO.C,U1*
X13229538Y-13371020D02*
X13229538Y-13021020D01*
X7479538Y-13371020D02*
X7479538Y-12921020D01*
X7479538Y-5721020D02*
X7479538Y-6171020D01*
X13229538Y-5721020D02*
X13229538Y-6171020D01*
X13229538Y-13371020D02*
X7479538Y-13371020D01*
X13229538Y-5721020D02*
X7479538Y-5721020D01*
X13229538Y-13021020D02*
X14829538Y-13021020D01*
D12*
G04 #@! TO.C,R1*
X5676000Y-36538000D02*
X6692000Y-36538000D01*
X5676000Y-38062000D02*
X5676000Y-36538000D01*
X6692000Y-38062000D02*
X5676000Y-38062000D01*
X8724000Y-38062000D02*
X7708000Y-38062000D01*
X8724000Y-36538000D02*
X8724000Y-38062000D01*
X7708000Y-36538000D02*
X8724000Y-36538000D01*
G04 #@! TO.C,R2*
X9038000Y-37992000D02*
X9038000Y-36976000D01*
X9038000Y-36976000D02*
X10562000Y-36976000D01*
X10562000Y-36976000D02*
X10562000Y-37992000D01*
X10562000Y-39008000D02*
X10562000Y-40024000D01*
X10562000Y-40024000D02*
X9038000Y-40024000D01*
X9038000Y-40024000D02*
X9038000Y-39008000D01*
G04 #@! TO.C,R3*
X12908000Y-36538000D02*
X13924000Y-36538000D01*
X13924000Y-36538000D02*
X13924000Y-38062000D01*
X13924000Y-38062000D02*
X12908000Y-38062000D01*
X11892000Y-38062000D02*
X10876000Y-38062000D01*
X10876000Y-38062000D02*
X10876000Y-36538000D01*
X10876000Y-36538000D02*
X11892000Y-36538000D01*
G04 #@! TO.C,R4*
X14238000Y-40024000D02*
X14238000Y-39008000D01*
X15762000Y-40024000D02*
X14238000Y-40024000D01*
X15762000Y-39008000D02*
X15762000Y-40024000D01*
X15762000Y-36976000D02*
X15762000Y-37992000D01*
X14238000Y-36976000D02*
X15762000Y-36976000D01*
X14238000Y-37992000D02*
X14238000Y-36976000D01*
G04 #@! TO.C,RF3*
X5200000Y-42300000D02*
X0Y-42300000D01*
X0Y-42300000D02*
X0Y-32300000D01*
X0Y-32300000D02*
X5200000Y-32300000D01*
D13*
G04 #@! TO.C,G\002A\002A\002A*
G36*
X11504520Y-48196620D02*
X11494360Y-48191540D01*
X11471500Y-48176300D01*
X11438480Y-48155980D01*
X11397840Y-48128040D01*
X11359740Y-48102640D01*
X11326720Y-48079780D01*
X11303860Y-48064540D01*
X11293700Y-48059460D01*
X11288620Y-48062000D01*
X11270840Y-48072160D01*
X11242900Y-48084860D01*
X11227660Y-48092480D01*
X11202260Y-48105180D01*
X11189560Y-48107720D01*
X11187020Y-48102640D01*
X11176860Y-48084860D01*
X11164160Y-48051840D01*
X11143840Y-48008660D01*
X11123520Y-47957860D01*
X11100660Y-47901980D01*
X11077800Y-47846100D01*
X11054940Y-47792760D01*
X11034620Y-47744500D01*
X11019380Y-47706400D01*
X11009220Y-47678460D01*
X11004140Y-47668300D01*
X11006680Y-47665760D01*
X11019380Y-47653060D01*
X11039700Y-47637820D01*
X11087960Y-47597180D01*
X11133680Y-47538760D01*
X11164160Y-47472720D01*
X11171780Y-47399060D01*
X11164160Y-47333020D01*
X11138760Y-47269520D01*
X11093040Y-47208560D01*
X11037160Y-47165380D01*
X10971120Y-47137440D01*
X10900000Y-47129820D01*
X10831420Y-47137440D01*
X10765380Y-47162840D01*
X10704420Y-47208560D01*
X10681560Y-47236500D01*
X10646000Y-47297460D01*
X10625680Y-47358420D01*
X10625680Y-47373660D01*
X10628220Y-47444780D01*
X10648540Y-47513360D01*
X10684100Y-47571780D01*
X10737440Y-47622580D01*
X10742520Y-47627660D01*
X10767920Y-47645440D01*
X10783160Y-47655600D01*
X10795860Y-47665760D01*
X10706960Y-47881660D01*
X10691720Y-47917220D01*
X10666320Y-47975640D01*
X10646000Y-48026440D01*
X10628220Y-48067080D01*
X10615520Y-48092480D01*
X10610440Y-48105180D01*
X10602820Y-48105180D01*
X10587580Y-48100100D01*
X10557100Y-48084860D01*
X10536780Y-48074700D01*
X10513920Y-48064540D01*
X10503760Y-48059460D01*
X10493600Y-48064540D01*
X10473280Y-48079780D01*
X10440260Y-48100100D01*
X10402160Y-48125500D01*
X10366600Y-48150900D01*
X10331040Y-48173760D01*
X10308180Y-48189000D01*
X10295480Y-48196620D01*
X10292940Y-48196620D01*
X10282780Y-48189000D01*
X10262460Y-48173760D01*
X10234520Y-48145820D01*
X10193880Y-48105180D01*
X10186260Y-48100100D01*
X10153240Y-48064540D01*
X10125300Y-48034060D01*
X10104980Y-48013740D01*
X10099900Y-48006120D01*
X10104980Y-47993420D01*
X10120220Y-47968020D01*
X10143080Y-47935000D01*
X10171020Y-47894360D01*
X10242140Y-47790220D01*
X10201500Y-47693700D01*
X10191340Y-47663220D01*
X10176100Y-47627660D01*
X10163400Y-47602260D01*
X10158320Y-47589560D01*
X10148160Y-47587020D01*
X10120220Y-47579400D01*
X10082120Y-47571780D01*
X10036400Y-47564160D01*
X9990680Y-47554000D01*
X9952580Y-47546380D01*
X9922100Y-47541300D01*
X9909400Y-47538760D01*
X9906860Y-47536220D01*
X9904320Y-47531140D01*
X9901780Y-47518440D01*
X9901780Y-47493040D01*
X9901780Y-47454940D01*
X9901780Y-47399060D01*
X9901780Y-47393980D01*
X9901780Y-47340640D01*
X9901780Y-47300000D01*
X9904320Y-47274600D01*
X9906860Y-47264440D01*
X9919560Y-47259360D01*
X9947500Y-47254280D01*
X9985600Y-47246660D01*
X10033860Y-47236500D01*
X10036400Y-47236500D01*
X10084660Y-47228880D01*
X10122760Y-47218720D01*
X10150700Y-47213640D01*
X10163400Y-47208560D01*
X10165940Y-47206020D01*
X10176100Y-47188240D01*
X10188800Y-47157760D01*
X10204040Y-47122200D01*
X10219280Y-47086640D01*
X10234520Y-47051080D01*
X10242140Y-47028220D01*
X10244680Y-47015520D01*
X10237060Y-47005360D01*
X10221820Y-46979960D01*
X10198960Y-46946940D01*
X10171020Y-46906300D01*
X10168480Y-46901220D01*
X10140540Y-46863120D01*
X10120220Y-46827560D01*
X10104980Y-46804700D01*
X10099900Y-46794540D01*
X10099900Y-46792000D01*
X10107520Y-46781840D01*
X10127840Y-46758980D01*
X10158320Y-46728500D01*
X10193880Y-46692940D01*
X10204040Y-46682780D01*
X10242140Y-46644680D01*
X10270080Y-46619280D01*
X10287860Y-46606580D01*
X10295480Y-46601500D01*
X10295480Y-46604040D01*
X10308180Y-46609120D01*
X10333580Y-46626900D01*
X10366600Y-46649760D01*
X10407240Y-46677700D01*
X10409780Y-46680240D01*
X10450420Y-46705640D01*
X10483440Y-46728500D01*
X10506300Y-46743740D01*
X10516460Y-46751360D01*
X10519000Y-46751360D01*
X10534240Y-46746280D01*
X10564720Y-46736120D01*
X10597740Y-46723420D01*
X10635840Y-46708180D01*
X10668860Y-46692940D01*
X10694260Y-46682780D01*
X10706960Y-46675160D01*
X10712040Y-46659920D01*
X10717120Y-46629440D01*
X10727280Y-46588800D01*
X10734900Y-46540540D01*
X10737440Y-46532920D01*
X10745060Y-46484660D01*
X10752680Y-46446560D01*
X10760300Y-46418620D01*
X10762840Y-46405920D01*
X10767920Y-46405920D01*
X10793320Y-46403380D01*
X10828880Y-46403380D01*
X10872060Y-46403380D01*
X10915240Y-46403380D01*
X10958420Y-46403380D01*
X10996520Y-46405920D01*
X11021920Y-46405920D01*
X11034620Y-46408460D01*
X11034620Y-46411000D01*
X11039700Y-46423700D01*
X11044780Y-46454180D01*
X11054940Y-46494820D01*
X11062560Y-46545620D01*
X11065100Y-46553240D01*
X11072720Y-46601500D01*
X11082880Y-46639600D01*
X11087960Y-46667540D01*
X11090500Y-46677700D01*
X11095580Y-46680240D01*
X11113360Y-46687860D01*
X11146380Y-46700560D01*
X11187020Y-46718340D01*
X11278460Y-46753900D01*
X11390220Y-46677700D01*
X11400380Y-46670080D01*
X11441020Y-46642140D01*
X11474040Y-46621820D01*
X11496900Y-46606580D01*
X11507060Y-46601500D01*
X11517220Y-46611660D01*
X11540080Y-46631980D01*
X11570560Y-46662460D01*
X11606120Y-46695480D01*
X11631520Y-46723420D01*
X11662000Y-46753900D01*
X11682320Y-46774220D01*
X11692480Y-46789460D01*
X11697560Y-46797080D01*
X11695020Y-46802160D01*
X11689940Y-46814860D01*
X11672160Y-46837720D01*
X11649300Y-46873280D01*
X11621360Y-46911380D01*
X11598500Y-46946940D01*
X11575640Y-46982500D01*
X11560400Y-47010440D01*
X11552780Y-47023140D01*
X11555320Y-47028220D01*
X11562940Y-47051080D01*
X11575640Y-47084100D01*
X11593420Y-47124740D01*
X11631520Y-47213640D01*
X11689940Y-47223800D01*
X11725500Y-47231420D01*
X11776300Y-47239040D01*
X11822020Y-47249200D01*
X11895680Y-47264440D01*
X11898220Y-47531140D01*
X11888060Y-47536220D01*
X11875360Y-47541300D01*
X11849960Y-47546380D01*
X11809320Y-47554000D01*
X11763600Y-47561620D01*
X11725500Y-47569240D01*
X11684860Y-47576860D01*
X11656920Y-47581940D01*
X11644220Y-47584480D01*
X11641680Y-47589560D01*
X11631520Y-47609880D01*
X11616280Y-47640360D01*
X11601040Y-47675920D01*
X11585800Y-47714020D01*
X11573100Y-47749580D01*
X11562940Y-47774980D01*
X11557860Y-47790220D01*
X11562940Y-47800380D01*
X11578180Y-47823240D01*
X11601040Y-47856260D01*
X11626440Y-47894360D01*
X11654380Y-47935000D01*
X11677240Y-47968020D01*
X11692480Y-47993420D01*
X11700100Y-48003580D01*
X11695020Y-48011200D01*
X11679780Y-48028980D01*
X11651840Y-48059460D01*
X11606120Y-48105180D01*
X11598500Y-48110260D01*
X11565480Y-48145820D01*
X11535000Y-48171220D01*
X11514680Y-48191540D01*
X11504520Y-48196620D01*
X11504520Y-48196620D01*
G37*
X11504520Y-48196620D02*
X11494360Y-48191540D01*
X11471500Y-48176300D01*
X11438480Y-48155980D01*
X11397840Y-48128040D01*
X11359740Y-48102640D01*
X11326720Y-48079780D01*
X11303860Y-48064540D01*
X11293700Y-48059460D01*
X11288620Y-48062000D01*
X11270840Y-48072160D01*
X11242900Y-48084860D01*
X11227660Y-48092480D01*
X11202260Y-48105180D01*
X11189560Y-48107720D01*
X11187020Y-48102640D01*
X11176860Y-48084860D01*
X11164160Y-48051840D01*
X11143840Y-48008660D01*
X11123520Y-47957860D01*
X11100660Y-47901980D01*
X11077800Y-47846100D01*
X11054940Y-47792760D01*
X11034620Y-47744500D01*
X11019380Y-47706400D01*
X11009220Y-47678460D01*
X11004140Y-47668300D01*
X11006680Y-47665760D01*
X11019380Y-47653060D01*
X11039700Y-47637820D01*
X11087960Y-47597180D01*
X11133680Y-47538760D01*
X11164160Y-47472720D01*
X11171780Y-47399060D01*
X11164160Y-47333020D01*
X11138760Y-47269520D01*
X11093040Y-47208560D01*
X11037160Y-47165380D01*
X10971120Y-47137440D01*
X10900000Y-47129820D01*
X10831420Y-47137440D01*
X10765380Y-47162840D01*
X10704420Y-47208560D01*
X10681560Y-47236500D01*
X10646000Y-47297460D01*
X10625680Y-47358420D01*
X10625680Y-47373660D01*
X10628220Y-47444780D01*
X10648540Y-47513360D01*
X10684100Y-47571780D01*
X10737440Y-47622580D01*
X10742520Y-47627660D01*
X10767920Y-47645440D01*
X10783160Y-47655600D01*
X10795860Y-47665760D01*
X10706960Y-47881660D01*
X10691720Y-47917220D01*
X10666320Y-47975640D01*
X10646000Y-48026440D01*
X10628220Y-48067080D01*
X10615520Y-48092480D01*
X10610440Y-48105180D01*
X10602820Y-48105180D01*
X10587580Y-48100100D01*
X10557100Y-48084860D01*
X10536780Y-48074700D01*
X10513920Y-48064540D01*
X10503760Y-48059460D01*
X10493600Y-48064540D01*
X10473280Y-48079780D01*
X10440260Y-48100100D01*
X10402160Y-48125500D01*
X10366600Y-48150900D01*
X10331040Y-48173760D01*
X10308180Y-48189000D01*
X10295480Y-48196620D01*
X10292940Y-48196620D01*
X10282780Y-48189000D01*
X10262460Y-48173760D01*
X10234520Y-48145820D01*
X10193880Y-48105180D01*
X10186260Y-48100100D01*
X10153240Y-48064540D01*
X10125300Y-48034060D01*
X10104980Y-48013740D01*
X10099900Y-48006120D01*
X10104980Y-47993420D01*
X10120220Y-47968020D01*
X10143080Y-47935000D01*
X10171020Y-47894360D01*
X10242140Y-47790220D01*
X10201500Y-47693700D01*
X10191340Y-47663220D01*
X10176100Y-47627660D01*
X10163400Y-47602260D01*
X10158320Y-47589560D01*
X10148160Y-47587020D01*
X10120220Y-47579400D01*
X10082120Y-47571780D01*
X10036400Y-47564160D01*
X9990680Y-47554000D01*
X9952580Y-47546380D01*
X9922100Y-47541300D01*
X9909400Y-47538760D01*
X9906860Y-47536220D01*
X9904320Y-47531140D01*
X9901780Y-47518440D01*
X9901780Y-47493040D01*
X9901780Y-47454940D01*
X9901780Y-47399060D01*
X9901780Y-47393980D01*
X9901780Y-47340640D01*
X9901780Y-47300000D01*
X9904320Y-47274600D01*
X9906860Y-47264440D01*
X9919560Y-47259360D01*
X9947500Y-47254280D01*
X9985600Y-47246660D01*
X10033860Y-47236500D01*
X10036400Y-47236500D01*
X10084660Y-47228880D01*
X10122760Y-47218720D01*
X10150700Y-47213640D01*
X10163400Y-47208560D01*
X10165940Y-47206020D01*
X10176100Y-47188240D01*
X10188800Y-47157760D01*
X10204040Y-47122200D01*
X10219280Y-47086640D01*
X10234520Y-47051080D01*
X10242140Y-47028220D01*
X10244680Y-47015520D01*
X10237060Y-47005360D01*
X10221820Y-46979960D01*
X10198960Y-46946940D01*
X10171020Y-46906300D01*
X10168480Y-46901220D01*
X10140540Y-46863120D01*
X10120220Y-46827560D01*
X10104980Y-46804700D01*
X10099900Y-46794540D01*
X10099900Y-46792000D01*
X10107520Y-46781840D01*
X10127840Y-46758980D01*
X10158320Y-46728500D01*
X10193880Y-46692940D01*
X10204040Y-46682780D01*
X10242140Y-46644680D01*
X10270080Y-46619280D01*
X10287860Y-46606580D01*
X10295480Y-46601500D01*
X10295480Y-46604040D01*
X10308180Y-46609120D01*
X10333580Y-46626900D01*
X10366600Y-46649760D01*
X10407240Y-46677700D01*
X10409780Y-46680240D01*
X10450420Y-46705640D01*
X10483440Y-46728500D01*
X10506300Y-46743740D01*
X10516460Y-46751360D01*
X10519000Y-46751360D01*
X10534240Y-46746280D01*
X10564720Y-46736120D01*
X10597740Y-46723420D01*
X10635840Y-46708180D01*
X10668860Y-46692940D01*
X10694260Y-46682780D01*
X10706960Y-46675160D01*
X10712040Y-46659920D01*
X10717120Y-46629440D01*
X10727280Y-46588800D01*
X10734900Y-46540540D01*
X10737440Y-46532920D01*
X10745060Y-46484660D01*
X10752680Y-46446560D01*
X10760300Y-46418620D01*
X10762840Y-46405920D01*
X10767920Y-46405920D01*
X10793320Y-46403380D01*
X10828880Y-46403380D01*
X10872060Y-46403380D01*
X10915240Y-46403380D01*
X10958420Y-46403380D01*
X10996520Y-46405920D01*
X11021920Y-46405920D01*
X11034620Y-46408460D01*
X11034620Y-46411000D01*
X11039700Y-46423700D01*
X11044780Y-46454180D01*
X11054940Y-46494820D01*
X11062560Y-46545620D01*
X11065100Y-46553240D01*
X11072720Y-46601500D01*
X11082880Y-46639600D01*
X11087960Y-46667540D01*
X11090500Y-46677700D01*
X11095580Y-46680240D01*
X11113360Y-46687860D01*
X11146380Y-46700560D01*
X11187020Y-46718340D01*
X11278460Y-46753900D01*
X11390220Y-46677700D01*
X11400380Y-46670080D01*
X11441020Y-46642140D01*
X11474040Y-46621820D01*
X11496900Y-46606580D01*
X11507060Y-46601500D01*
X11517220Y-46611660D01*
X11540080Y-46631980D01*
X11570560Y-46662460D01*
X11606120Y-46695480D01*
X11631520Y-46723420D01*
X11662000Y-46753900D01*
X11682320Y-46774220D01*
X11692480Y-46789460D01*
X11697560Y-46797080D01*
X11695020Y-46802160D01*
X11689940Y-46814860D01*
X11672160Y-46837720D01*
X11649300Y-46873280D01*
X11621360Y-46911380D01*
X11598500Y-46946940D01*
X11575640Y-46982500D01*
X11560400Y-47010440D01*
X11552780Y-47023140D01*
X11555320Y-47028220D01*
X11562940Y-47051080D01*
X11575640Y-47084100D01*
X11593420Y-47124740D01*
X11631520Y-47213640D01*
X11689940Y-47223800D01*
X11725500Y-47231420D01*
X11776300Y-47239040D01*
X11822020Y-47249200D01*
X11895680Y-47264440D01*
X11898220Y-47531140D01*
X11888060Y-47536220D01*
X11875360Y-47541300D01*
X11849960Y-47546380D01*
X11809320Y-47554000D01*
X11763600Y-47561620D01*
X11725500Y-47569240D01*
X11684860Y-47576860D01*
X11656920Y-47581940D01*
X11644220Y-47584480D01*
X11641680Y-47589560D01*
X11631520Y-47609880D01*
X11616280Y-47640360D01*
X11601040Y-47675920D01*
X11585800Y-47714020D01*
X11573100Y-47749580D01*
X11562940Y-47774980D01*
X11557860Y-47790220D01*
X11562940Y-47800380D01*
X11578180Y-47823240D01*
X11601040Y-47856260D01*
X11626440Y-47894360D01*
X11654380Y-47935000D01*
X11677240Y-47968020D01*
X11692480Y-47993420D01*
X11700100Y-48003580D01*
X11695020Y-48011200D01*
X11679780Y-48028980D01*
X11651840Y-48059460D01*
X11606120Y-48105180D01*
X11598500Y-48110260D01*
X11565480Y-48145820D01*
X11535000Y-48171220D01*
X11514680Y-48191540D01*
X11504520Y-48196620D01*
D12*
G04 #@! TO.C,DB2*
X15070000Y-14330000D02*
X12530000Y-14330000D01*
X12530000Y-14330000D02*
X12530000Y-24490000D01*
X12530000Y-24490000D02*
X15070000Y-24490000D01*
X15070000Y-24490000D02*
X15070000Y-14330000D01*
G04 #@! TO.C,DB1*
X3809523Y-17761904D02*
X3809523Y-16961904D01*
X4000000Y-16961904D01*
X4114285Y-17000000D01*
X4190476Y-17076190D01*
X4228571Y-17152380D01*
X4266666Y-17304761D01*
X4266666Y-17419047D01*
X4228571Y-17571428D01*
X4190476Y-17647619D01*
X4114285Y-17723809D01*
X4000000Y-17761904D01*
X3809523Y-17761904D01*
X4876190Y-17342857D02*
X4990476Y-17380952D01*
X5028571Y-17419047D01*
X5066666Y-17495238D01*
X5066666Y-17609523D01*
X5028571Y-17685714D01*
X4990476Y-17723809D01*
X4914285Y-17761904D01*
X4609523Y-17761904D01*
X4609523Y-16961904D01*
X4876190Y-16961904D01*
X4952380Y-17000000D01*
X4990476Y-17038095D01*
X5028571Y-17114285D01*
X5028571Y-17190476D01*
X4990476Y-17266666D01*
X4952380Y-17304761D01*
X4876190Y-17342857D01*
X4609523Y-17342857D01*
X5828571Y-17761904D02*
X5371428Y-17761904D01*
X5600000Y-17761904D02*
X5600000Y-16961904D01*
X5523809Y-17076190D01*
X5447619Y-17152380D01*
X5371428Y-17190476D01*
X5028571Y-3961904D02*
X4571428Y-3961904D01*
X4800000Y-3961904D02*
X4800000Y-3161904D01*
X4723809Y-3276190D01*
X4647619Y-3352380D01*
X4571428Y-3390476D01*
G04 #@! TO.C,U1*
X12790476Y-4261904D02*
X12790476Y-4909523D01*
X12828571Y-4985714D01*
X12866666Y-5023809D01*
X12942857Y-5061904D01*
X13095238Y-5061904D01*
X13171428Y-5023809D01*
X13209523Y-4985714D01*
X13247619Y-4909523D01*
X13247619Y-4261904D01*
X14047619Y-5061904D02*
X13590476Y-5061904D01*
X13819047Y-5061904D02*
X13819047Y-4261904D01*
X13742857Y-4376190D01*
X13666666Y-4452380D01*
X13590476Y-4490476D01*
G04 #@! TO.C,R1*
X7166666Y-36161904D02*
X6900000Y-35780952D01*
X6709523Y-36161904D02*
X6709523Y-35361904D01*
X7014285Y-35361904D01*
X7090476Y-35400000D01*
X7128571Y-35438095D01*
X7166666Y-35514285D01*
X7166666Y-35628571D01*
X7128571Y-35704761D01*
X7090476Y-35742857D01*
X7014285Y-35780952D01*
X6709523Y-35780952D01*
X7928571Y-36161904D02*
X7471428Y-36161904D01*
X7700000Y-36161904D02*
X7700000Y-35361904D01*
X7623809Y-35476190D01*
X7547619Y-35552380D01*
X7471428Y-35590476D01*
G04 #@! TO.C,R2*
X9666666Y-41161904D02*
X9400000Y-40780952D01*
X9209523Y-41161904D02*
X9209523Y-40361904D01*
X9514285Y-40361904D01*
X9590476Y-40400000D01*
X9628571Y-40438095D01*
X9666666Y-40514285D01*
X9666666Y-40628571D01*
X9628571Y-40704761D01*
X9590476Y-40742857D01*
X9514285Y-40780952D01*
X9209523Y-40780952D01*
X9971428Y-40438095D02*
X10009523Y-40400000D01*
X10085714Y-40361904D01*
X10276190Y-40361904D01*
X10352380Y-40400000D01*
X10390476Y-40438095D01*
X10428571Y-40514285D01*
X10428571Y-40590476D01*
X10390476Y-40704761D01*
X9933333Y-41161904D01*
X10428571Y-41161904D01*
G04 #@! TO.C,R3*
X12266666Y-39361904D02*
X12000000Y-38980952D01*
X11809523Y-39361904D02*
X11809523Y-38561904D01*
X12114285Y-38561904D01*
X12190476Y-38600000D01*
X12228571Y-38638095D01*
X12266666Y-38714285D01*
X12266666Y-38828571D01*
X12228571Y-38904761D01*
X12190476Y-38942857D01*
X12114285Y-38980952D01*
X11809523Y-38980952D01*
X12533333Y-38561904D02*
X13028571Y-38561904D01*
X12761904Y-38866666D01*
X12876190Y-38866666D01*
X12952380Y-38904761D01*
X12990476Y-38942857D01*
X13028571Y-39019047D01*
X13028571Y-39209523D01*
X12990476Y-39285714D01*
X12952380Y-39323809D01*
X12876190Y-39361904D01*
X12647619Y-39361904D01*
X12571428Y-39323809D01*
X12533333Y-39285714D01*
G04 #@! TO.C,R4*
X14966666Y-41161904D02*
X14700000Y-40780952D01*
X14509523Y-41161904D02*
X14509523Y-40361904D01*
X14814285Y-40361904D01*
X14890476Y-40400000D01*
X14928571Y-40438095D01*
X14966666Y-40514285D01*
X14966666Y-40628571D01*
X14928571Y-40704761D01*
X14890476Y-40742857D01*
X14814285Y-40780952D01*
X14509523Y-40780952D01*
X15652380Y-40628571D02*
X15652380Y-41161904D01*
X15461904Y-40323809D02*
X15271428Y-40895238D01*
X15766666Y-40895238D01*
G04 #@! TO.C,RF3*
X1023809Y-31861904D02*
X757142Y-31480952D01*
X566666Y-31861904D02*
X566666Y-31061904D01*
X871428Y-31061904D01*
X947619Y-31100000D01*
X985714Y-31138095D01*
X1023809Y-31214285D01*
X1023809Y-31328571D01*
X985714Y-31404761D01*
X947619Y-31442857D01*
X871428Y-31480952D01*
X566666Y-31480952D01*
X1633333Y-31442857D02*
X1366666Y-31442857D01*
X1366666Y-31861904D02*
X1366666Y-31061904D01*
X1747619Y-31061904D01*
X1976190Y-31061904D02*
X2471428Y-31061904D01*
X2204761Y-31366666D01*
X2319047Y-31366666D01*
X2395238Y-31404761D01*
X2433333Y-31442857D01*
X2471428Y-31519047D01*
X2471428Y-31709523D01*
X2433333Y-31785714D01*
X2395238Y-31823809D01*
X2319047Y-31861904D01*
X2090476Y-31861904D01*
X2014285Y-31823809D01*
X1976190Y-31785714D01*
G04 #@! TO.C,DB2*
X12709523Y-25661904D02*
X12709523Y-24861904D01*
X12900000Y-24861904D01*
X13014285Y-24900000D01*
X13090476Y-24976190D01*
X13128571Y-25052380D01*
X13166666Y-25204761D01*
X13166666Y-25319047D01*
X13128571Y-25471428D01*
X13090476Y-25547619D01*
X13014285Y-25623809D01*
X12900000Y-25661904D01*
X12709523Y-25661904D01*
X13776190Y-25242857D02*
X13890476Y-25280952D01*
X13928571Y-25319047D01*
X13966666Y-25395238D01*
X13966666Y-25509523D01*
X13928571Y-25585714D01*
X13890476Y-25623809D01*
X13814285Y-25661904D01*
X13509523Y-25661904D01*
X13509523Y-24861904D01*
X13776190Y-24861904D01*
X13852380Y-24900000D01*
X13890476Y-24938095D01*
X13928571Y-25014285D01*
X13928571Y-25090476D01*
X13890476Y-25166666D01*
X13852380Y-25204761D01*
X13776190Y-25242857D01*
X13509523Y-25242857D01*
X14271428Y-24938095D02*
X14309523Y-24900000D01*
X14385714Y-24861904D01*
X14576190Y-24861904D01*
X14652380Y-24900000D01*
X14690476Y-24938095D01*
X14728571Y-25014285D01*
X14728571Y-25090476D01*
X14690476Y-25204761D01*
X14233333Y-25661904D01*
X14728571Y-25661904D01*
G04 #@! TD*
M02*
