G04 #@! TF.GenerationSoftware,KiCad,Pcbnew,5.0.2-bee76a0~70~ubuntu16.04.1*
G04 #@! TF.CreationDate,2019-12-01T18:04:24-08:00*
G04 #@! TF.ProjectId,io_jumper,696f5f6a-756d-4706-9572-2e6b69636164,1.0*
G04 #@! TF.SameCoordinates,PX7471920PY2d4cae0*
G04 #@! TF.FileFunction,Copper,L2,Bot*
G04 #@! TF.FilePolarity,Positive*
%FSLAX46Y46*%
G04 Gerber Fmt 4.6, Leading zero omitted, Abs format (unit mm)*
G04 Created by KiCad (PCBNEW 5.0.2-bee76a0~70~ubuntu16.04.1) date Sun 01 Dec 2019 06:04:24 PM PST*
%MOMM*%
%LPD*%
G01*
G04 APERTURE LIST*
G04 #@! TA.AperFunction,ComponentPad*
%ADD10R,1.700000X1.700000*%
G04 #@! TD*
G04 #@! TA.AperFunction,ComponentPad*
%ADD11O,1.700000X1.700000*%
G04 #@! TD*
G04 #@! TA.AperFunction,SMDPad,CuDef*
%ADD12R,1.397000X0.889000*%
G04 #@! TD*
G04 #@! TA.AperFunction,SMDPad,CuDef*
%ADD13R,4.000000X1.600000*%
G04 #@! TD*
G04 #@! TA.AperFunction,SMDPad,CuDef*
%ADD14R,5.000000X1.700000*%
G04 #@! TD*
G04 #@! TA.AperFunction,ComponentPad*
%ADD15R,1.850000X1.850000*%
G04 #@! TD*
G04 #@! TA.AperFunction,ComponentPad*
%ADD16C,1.850000*%
G04 #@! TD*
G04 #@! TA.AperFunction,ViaPad*
%ADD17C,0.800000*%
G04 #@! TD*
G04 #@! TA.AperFunction,Conductor*
%ADD18C,0.700000*%
G04 #@! TD*
G04 #@! TA.AperFunction,Conductor*
%ADD19C,0.250000*%
G04 #@! TD*
G04 #@! TA.AperFunction,Conductor*
%ADD20C,1.600000*%
G04 #@! TD*
G04 #@! TA.AperFunction,Conductor*
%ADD21C,0.400000*%
G04 #@! TD*
G04 #@! TA.AperFunction,Conductor*
%ADD22C,0.254000*%
G04 #@! TD*
G04 APERTURE END LIST*
D10*
G04 #@! TO.P,P1,1*
G04 #@! TO.N,Net-(P1-Pad1)*
X20100000Y-1700000D03*
D11*
G04 #@! TO.P,P1,2*
X17560000Y-1700000D03*
G04 #@! TO.P,P1,3*
G04 #@! TO.N,Net-(P1-Pad3)*
X20100000Y-4240000D03*
G04 #@! TO.P,P1,4*
X17560000Y-4240000D03*
G04 #@! TO.P,P1,5*
G04 #@! TO.N,VCC*
X20100000Y-6780000D03*
G04 #@! TO.P,P1,6*
X17560000Y-6780000D03*
G04 #@! TO.P,P1,7*
G04 #@! TO.N,Net-(P1-Pad7)*
X20100000Y-9320000D03*
G04 #@! TO.P,P1,8*
X17560000Y-9320000D03*
G04 #@! TO.P,P1,9*
G04 #@! TO.N,Net-(P1-Pad10)*
X20100000Y-11860000D03*
G04 #@! TO.P,P1,10*
X17560000Y-11860000D03*
G04 #@! TO.P,P1,11*
G04 #@! TO.N,Net-(DB2-Pad1)*
X20100000Y-14400000D03*
G04 #@! TO.P,P1,12*
X17560000Y-14400000D03*
G04 #@! TO.P,P1,13*
G04 #@! TO.N,Net-(DB2-Pad2)*
X20100000Y-16940000D03*
G04 #@! TO.P,P1,14*
X17560000Y-16940000D03*
G04 #@! TO.P,P1,15*
G04 #@! TO.N,Net-(DB2-Pad3)*
X20100000Y-19480000D03*
G04 #@! TO.P,P1,16*
X17560000Y-19480000D03*
G04 #@! TO.P,P1,17*
G04 #@! TO.N,GNDS*
X20100000Y-22020000D03*
G04 #@! TO.P,P1,18*
X17560000Y-22020000D03*
G04 #@! TO.P,P1,19*
X20100000Y-24560000D03*
G04 #@! TO.P,P1,20*
X17560000Y-24560000D03*
G04 #@! TO.P,P1,21*
G04 #@! TO.N,Net-(P1-Pad21)*
X20100000Y-27100000D03*
G04 #@! TO.P,P1,22*
X17560000Y-27100000D03*
G04 #@! TO.P,P1,23*
G04 #@! TO.N,GNDS*
X20100000Y-29640000D03*
G04 #@! TO.P,P1,24*
X17560000Y-29640000D03*
G04 #@! TO.P,P1,25*
X20100000Y-32180000D03*
G04 #@! TO.P,P1,26*
X17560000Y-32180000D03*
G04 #@! TO.P,P1,27*
X20100000Y-34720000D03*
G04 #@! TO.P,P1,28*
X17560000Y-34720000D03*
G04 #@! TO.P,P1,29*
G04 #@! TO.N,Net-(P1-Pad29)*
X20100000Y-37260000D03*
G04 #@! TO.P,P1,30*
G04 #@! TO.N,Net-(P1-Pad30)*
X17560000Y-37260000D03*
G04 #@! TO.P,P1,31*
G04 #@! TO.N,GNDS*
X20100000Y-39800000D03*
G04 #@! TO.P,P1,32*
X17560000Y-39800000D03*
G04 #@! TO.P,P1,33*
X20100000Y-42340000D03*
G04 #@! TO.P,P1,34*
X17560000Y-42340000D03*
G04 #@! TO.P,P1,35*
X20100000Y-44880000D03*
G04 #@! TO.P,P1,36*
X17560000Y-44880000D03*
G04 #@! TO.P,P1,37*
G04 #@! TO.N,Net-(P1-Pad37)*
X20100000Y-47420000D03*
G04 #@! TO.P,P1,38*
X17560000Y-47420000D03*
G04 #@! TO.P,P1,39*
G04 #@! TO.N,GNDS*
X20100000Y-49960000D03*
G04 #@! TO.P,P1,40*
X17560000Y-49960000D03*
G04 #@! TD*
D12*
G04 #@! TO.P,J2,1*
G04 #@! TO.N,VCC*
X10500000Y-5547500D03*
G04 #@! TO.P,J2,2*
G04 #@! TO.N,Net-(J1-Pad1)*
X10500000Y-7452500D03*
G04 #@! TD*
G04 #@! TO.P,C1,1*
G04 #@! TO.N,GNDS*
X10500000Y-15452500D03*
G04 #@! TO.P,C1,2*
G04 #@! TO.N,VCC*
X10500000Y-13547500D03*
G04 #@! TD*
D13*
G04 #@! TO.P,DB1,2*
G04 #@! TO.N,Net-(DB1-Pad2)*
X2189539Y-5071021D03*
G04 #@! TO.P,DB1,4*
G04 #@! TO.N,Net-(DB1-Pad4)*
X2189539Y-7611021D03*
G04 #@! TO.P,DB1,6*
G04 #@! TO.N,Net-(DB1-Pad6)*
X2189539Y-10151021D03*
G04 #@! TO.P,DB1,8*
G04 #@! TO.N,Net-(DB1-Pad8)*
X2189539Y-12691021D03*
G04 #@! TO.P,DB1,10*
G04 #@! TO.N,VCC*
X2189539Y-15231021D03*
G04 #@! TD*
D12*
G04 #@! TO.P,J1,2*
G04 #@! TO.N,GNDS*
X10500000Y-10852500D03*
G04 #@! TO.P,J1,1*
G04 #@! TO.N,Net-(J1-Pad1)*
X10500000Y-8947500D03*
G04 #@! TD*
D14*
G04 #@! TO.P,RF3,2*
G04 #@! TO.N,GNDS*
X2700000Y-34760000D03*
X2700000Y-39840000D03*
G04 #@! TD*
D15*
G04 #@! TO.P,DB2,1*
G04 #@! TO.N,Net-(DB2-Pad1)*
X13800000Y-15600000D03*
D16*
G04 #@! TO.P,DB2,2*
G04 #@! TO.N,Net-(DB2-Pad2)*
X13800000Y-18140000D03*
G04 #@! TO.P,DB2,3*
G04 #@! TO.N,Net-(DB2-Pad3)*
X13800000Y-20680000D03*
G04 #@! TO.P,DB2,4*
G04 #@! TO.N,GNDS*
X13800000Y-23220000D03*
G04 #@! TD*
D17*
G04 #@! TO.N,VCC*
X8589539Y-12871021D03*
G04 #@! TO.N,GNDS*
X11700000Y-10800000D03*
X11700000Y-15400000D03*
G04 #@! TO.N,Net-(J1-Pad1)*
X12100000Y-9200000D03*
G04 #@! TO.N,Net-(DB1-Pad2)*
X5489539Y-5071021D03*
G04 #@! TO.N,Net-(DB1-Pad4)*
X8589539Y-9271021D03*
G04 #@! TO.N,Net-(DB1-Pad6)*
X8589539Y-10871021D03*
G04 #@! TO.N,Net-(DB1-Pad8)*
X5089539Y-13271021D03*
G04 #@! TO.N,Net-(P1-Pad7)*
X15600000Y-13000000D03*
G04 #@! TD*
D18*
G04 #@! TO.N,VCC*
X17560000Y-6780000D02*
X14920000Y-6780000D01*
X8589539Y-12871021D02*
X13728979Y-12871021D01*
X13728979Y-12871021D02*
X14100000Y-12500000D01*
D19*
X10500000Y-13547500D02*
X10500000Y-12900000D01*
D18*
X12847500Y-5547500D02*
X10500000Y-5547500D01*
X14100000Y-6800000D02*
X12847500Y-5547500D01*
X14100000Y-12400000D02*
X14100000Y-6800000D01*
X14920000Y-6780000D02*
X14120000Y-6780000D01*
X14120000Y-6780000D02*
X14100000Y-6800000D01*
X2189539Y-15231021D02*
X6268979Y-15231021D01*
X6268979Y-15231021D02*
X8600000Y-12900000D01*
D20*
X17560000Y-6780000D02*
X20100000Y-6780000D01*
D21*
G04 #@! TO.N,GNDS*
X11647500Y-10852500D02*
X11700000Y-10800000D01*
X10500000Y-10852500D02*
X11647500Y-10852500D01*
D18*
X11647500Y-15452500D02*
X11700000Y-15400000D01*
X10500000Y-15452500D02*
X11647500Y-15452500D01*
D20*
X17560000Y-22020000D02*
X20100000Y-22020000D01*
X17560000Y-24560000D02*
X20100000Y-24560000D01*
X17560000Y-29640000D02*
X20100000Y-29640000D01*
X17560000Y-32180000D02*
X20100000Y-32180000D01*
X17560000Y-34720000D02*
X20100000Y-34720000D01*
X17560000Y-39800000D02*
X20100000Y-39800000D01*
X17560000Y-42340000D02*
X20100000Y-42340000D01*
X17560000Y-44880000D02*
X20100000Y-44880000D01*
X17560000Y-49960000D02*
X20100000Y-49960000D01*
X17520000Y-34760000D02*
X17560000Y-34720000D01*
X2700000Y-34760000D02*
X17520000Y-34760000D01*
X17520000Y-39840000D02*
X17560000Y-39800000D01*
X2700000Y-39840000D02*
X17520000Y-39840000D01*
D19*
G04 #@! TO.N,Net-(J1-Pad1)*
X10500000Y-8947500D02*
X11847500Y-8947500D01*
X11847500Y-8947500D02*
X12100000Y-9200000D01*
D21*
X10500000Y-7452500D02*
X10500000Y-8947500D01*
D19*
G04 #@! TO.N,Net-(DB1-Pad2)*
X5489539Y-5071021D02*
X2389539Y-5071021D01*
X2389539Y-5071021D02*
X2289539Y-5171021D01*
G04 #@! TO.N,Net-(DB1-Pad4)*
X4439539Y-7611021D02*
X2189539Y-7611021D01*
X6363854Y-7611021D02*
X4439539Y-7611021D01*
X8023854Y-9271021D02*
X6363854Y-7611021D01*
X8589539Y-9271021D02*
X8023854Y-9271021D01*
G04 #@! TO.N,Net-(DB1-Pad6)*
X7869539Y-10151021D02*
X2189539Y-10151021D01*
X8589539Y-10871021D02*
X7869539Y-10151021D01*
G04 #@! TO.N,Net-(DB1-Pad8)*
X2769539Y-13271021D02*
X2189539Y-12691021D01*
X5089539Y-13271021D02*
X2769539Y-13271021D01*
G04 #@! TO.N,Net-(P1-Pad7)*
X15600000Y-11280000D02*
X17560000Y-9320000D01*
X15600000Y-13000000D02*
X15600000Y-11280000D01*
D20*
X17560000Y-9320000D02*
X20100000Y-9320000D01*
G04 #@! TO.N,Net-(P1-Pad10)*
X17560000Y-11860000D02*
X20100000Y-11860000D01*
G04 #@! TO.N,Net-(P1-Pad1)*
X17560000Y-1700000D02*
X20100000Y-1700000D01*
G04 #@! TO.N,Net-(P1-Pad3)*
X17560000Y-4240000D02*
X20100000Y-4240000D01*
G04 #@! TO.N,Net-(DB2-Pad1)*
X17560000Y-14400000D02*
X20100000Y-14400000D01*
G04 #@! TO.N,Net-(DB2-Pad2)*
X17560000Y-16940000D02*
X20100000Y-16940000D01*
G04 #@! TO.N,Net-(DB2-Pad3)*
X17560000Y-19480000D02*
X20100000Y-19480000D01*
G04 #@! TO.N,Net-(P1-Pad21)*
X17560000Y-27100000D02*
X20100000Y-27100000D01*
G04 #@! TO.N,Net-(P1-Pad37)*
X17560000Y-47420000D02*
X20100000Y-47420000D01*
G04 #@! TD*
D22*
G04 #@! TO.N,GNDS*
G36*
X14722569Y-13586280D02*
X15013720Y-13877431D01*
X15394126Y-14035000D01*
X15805874Y-14035000D01*
X16146582Y-13893874D01*
X16045908Y-14400000D01*
X16161161Y-14979418D01*
X16489375Y-15470625D01*
X16787761Y-15670000D01*
X16489375Y-15869375D01*
X16161161Y-16360582D01*
X16045908Y-16940000D01*
X16161161Y-17519418D01*
X16489375Y-18010625D01*
X16787761Y-18210000D01*
X16489375Y-18409375D01*
X16161161Y-18900582D01*
X16045908Y-19480000D01*
X16161161Y-20059418D01*
X16489375Y-20550625D01*
X16808478Y-20763843D01*
X16678642Y-20824817D01*
X16288355Y-21253076D01*
X16118524Y-21663110D01*
X16239845Y-21893000D01*
X17433000Y-21893000D01*
X17433000Y-21873000D01*
X17687000Y-21873000D01*
X17687000Y-21893000D01*
X19973000Y-21893000D01*
X19973000Y-21873000D01*
X20227000Y-21873000D01*
X20227000Y-21893000D01*
X20247000Y-21893000D01*
X20247000Y-22147000D01*
X20227000Y-22147000D01*
X20227000Y-24433000D01*
X20247000Y-24433000D01*
X20247000Y-24687000D01*
X20227000Y-24687000D01*
X20227000Y-24707000D01*
X19973000Y-24707000D01*
X19973000Y-24687000D01*
X17687000Y-24687000D01*
X17687000Y-24707000D01*
X17433000Y-24707000D01*
X17433000Y-24687000D01*
X16239845Y-24687000D01*
X16118524Y-24916890D01*
X16288355Y-25326924D01*
X16678642Y-25755183D01*
X16808478Y-25816157D01*
X16489375Y-26029375D01*
X16161161Y-26520582D01*
X16045908Y-27100000D01*
X16161161Y-27679418D01*
X16489375Y-28170625D01*
X16808478Y-28383843D01*
X16678642Y-28444817D01*
X16288355Y-28873076D01*
X16118524Y-29283110D01*
X16239845Y-29513000D01*
X17433000Y-29513000D01*
X17433000Y-29493000D01*
X17687000Y-29493000D01*
X17687000Y-29513000D01*
X19973000Y-29513000D01*
X19973000Y-29493000D01*
X20227000Y-29493000D01*
X20227000Y-29513000D01*
X20247000Y-29513000D01*
X20247000Y-29767000D01*
X20227000Y-29767000D01*
X20227000Y-32053000D01*
X20247000Y-32053000D01*
X20247000Y-32307000D01*
X20227000Y-32307000D01*
X20227000Y-34593000D01*
X20247000Y-34593000D01*
X20247000Y-34847000D01*
X20227000Y-34847000D01*
X20227000Y-34867000D01*
X19973000Y-34867000D01*
X19973000Y-34847000D01*
X17687000Y-34847000D01*
X17687000Y-34867000D01*
X17433000Y-34867000D01*
X17433000Y-34847000D01*
X16239845Y-34847000D01*
X16118524Y-35076890D01*
X16288355Y-35486924D01*
X16678642Y-35915183D01*
X16808478Y-35976157D01*
X16489375Y-36189375D01*
X16161161Y-36680582D01*
X16045908Y-37260000D01*
X16161161Y-37839418D01*
X16489375Y-38330625D01*
X16808478Y-38543843D01*
X16678642Y-38604817D01*
X16288355Y-39033076D01*
X16118524Y-39443110D01*
X16239845Y-39673000D01*
X17433000Y-39673000D01*
X17433000Y-39653000D01*
X17687000Y-39653000D01*
X17687000Y-39673000D01*
X19973000Y-39673000D01*
X19973000Y-39653000D01*
X20227000Y-39653000D01*
X20227000Y-39673000D01*
X20247000Y-39673000D01*
X20247000Y-39927000D01*
X20227000Y-39927000D01*
X20227000Y-42213000D01*
X20247000Y-42213000D01*
X20247000Y-42467000D01*
X20227000Y-42467000D01*
X20227000Y-44753000D01*
X20247000Y-44753000D01*
X20247000Y-45007000D01*
X20227000Y-45007000D01*
X20227000Y-45027000D01*
X19973000Y-45027000D01*
X19973000Y-45007000D01*
X17687000Y-45007000D01*
X17687000Y-45027000D01*
X17433000Y-45027000D01*
X17433000Y-45007000D01*
X16239845Y-45007000D01*
X16118524Y-45236890D01*
X16288355Y-45646924D01*
X16678642Y-46075183D01*
X16808478Y-46136157D01*
X16489375Y-46349375D01*
X16161161Y-46840582D01*
X16045908Y-47420000D01*
X16161161Y-47999418D01*
X16489375Y-48490625D01*
X16808478Y-48703843D01*
X16678642Y-48764817D01*
X16288355Y-49193076D01*
X16118524Y-49603110D01*
X16239845Y-49833000D01*
X17433000Y-49833000D01*
X17433000Y-49813000D01*
X17687000Y-49813000D01*
X17687000Y-49833000D01*
X19973000Y-49833000D01*
X19973000Y-49813000D01*
X20227000Y-49813000D01*
X20227000Y-49833000D01*
X20247000Y-49833000D01*
X20247000Y-50087000D01*
X20227000Y-50087000D01*
X20227000Y-50107000D01*
X19973000Y-50107000D01*
X19973000Y-50087000D01*
X17687000Y-50087000D01*
X17687000Y-50107000D01*
X17433000Y-50107000D01*
X17433000Y-50087000D01*
X16239845Y-50087000D01*
X16118524Y-50316890D01*
X16288355Y-50726924D01*
X16550888Y-51015000D01*
X685000Y-51015000D01*
X685000Y-42696890D01*
X16118524Y-42696890D01*
X16288355Y-43106924D01*
X16678642Y-43535183D01*
X16837954Y-43610000D01*
X16678642Y-43684817D01*
X16288355Y-44113076D01*
X16118524Y-44523110D01*
X16239845Y-44753000D01*
X17433000Y-44753000D01*
X17433000Y-42467000D01*
X17687000Y-42467000D01*
X17687000Y-44753000D01*
X19973000Y-44753000D01*
X19973000Y-42467000D01*
X17687000Y-42467000D01*
X17433000Y-42467000D01*
X16239845Y-42467000D01*
X16118524Y-42696890D01*
X685000Y-42696890D01*
X685000Y-41325000D01*
X2414250Y-41325000D01*
X2573000Y-41166250D01*
X2573000Y-39967000D01*
X2827000Y-39967000D01*
X2827000Y-41166250D01*
X2985750Y-41325000D01*
X5326310Y-41325000D01*
X5559699Y-41228327D01*
X5738327Y-41049698D01*
X5835000Y-40816309D01*
X5835000Y-40156890D01*
X16118524Y-40156890D01*
X16288355Y-40566924D01*
X16678642Y-40995183D01*
X16837954Y-41070000D01*
X16678642Y-41144817D01*
X16288355Y-41573076D01*
X16118524Y-41983110D01*
X16239845Y-42213000D01*
X17433000Y-42213000D01*
X17433000Y-39927000D01*
X17687000Y-39927000D01*
X17687000Y-42213000D01*
X19973000Y-42213000D01*
X19973000Y-39927000D01*
X17687000Y-39927000D01*
X17433000Y-39927000D01*
X16239845Y-39927000D01*
X16118524Y-40156890D01*
X5835000Y-40156890D01*
X5835000Y-40125750D01*
X5676250Y-39967000D01*
X2827000Y-39967000D01*
X2573000Y-39967000D01*
X2553000Y-39967000D01*
X2553000Y-39713000D01*
X2573000Y-39713000D01*
X2573000Y-38513750D01*
X2827000Y-38513750D01*
X2827000Y-39713000D01*
X5676250Y-39713000D01*
X5835000Y-39554250D01*
X5835000Y-38863691D01*
X5738327Y-38630302D01*
X5559699Y-38451673D01*
X5326310Y-38355000D01*
X2985750Y-38355000D01*
X2827000Y-38513750D01*
X2573000Y-38513750D01*
X2414250Y-38355000D01*
X685000Y-38355000D01*
X685000Y-36245000D01*
X2414250Y-36245000D01*
X2573000Y-36086250D01*
X2573000Y-34887000D01*
X2827000Y-34887000D01*
X2827000Y-36086250D01*
X2985750Y-36245000D01*
X5326310Y-36245000D01*
X5559699Y-36148327D01*
X5738327Y-35969698D01*
X5835000Y-35736309D01*
X5835000Y-35045750D01*
X5676250Y-34887000D01*
X2827000Y-34887000D01*
X2573000Y-34887000D01*
X2553000Y-34887000D01*
X2553000Y-34633000D01*
X2573000Y-34633000D01*
X2573000Y-33433750D01*
X2827000Y-33433750D01*
X2827000Y-34633000D01*
X5676250Y-34633000D01*
X5835000Y-34474250D01*
X5835000Y-33783691D01*
X5738327Y-33550302D01*
X5559699Y-33371673D01*
X5326310Y-33275000D01*
X2985750Y-33275000D01*
X2827000Y-33433750D01*
X2573000Y-33433750D01*
X2414250Y-33275000D01*
X685000Y-33275000D01*
X685000Y-32536890D01*
X16118524Y-32536890D01*
X16288355Y-32946924D01*
X16678642Y-33375183D01*
X16837954Y-33450000D01*
X16678642Y-33524817D01*
X16288355Y-33953076D01*
X16118524Y-34363110D01*
X16239845Y-34593000D01*
X17433000Y-34593000D01*
X17433000Y-32307000D01*
X17687000Y-32307000D01*
X17687000Y-34593000D01*
X19973000Y-34593000D01*
X19973000Y-32307000D01*
X17687000Y-32307000D01*
X17433000Y-32307000D01*
X16239845Y-32307000D01*
X16118524Y-32536890D01*
X685000Y-32536890D01*
X685000Y-29996890D01*
X16118524Y-29996890D01*
X16288355Y-30406924D01*
X16678642Y-30835183D01*
X16837954Y-30910000D01*
X16678642Y-30984817D01*
X16288355Y-31413076D01*
X16118524Y-31823110D01*
X16239845Y-32053000D01*
X17433000Y-32053000D01*
X17433000Y-29767000D01*
X17687000Y-29767000D01*
X17687000Y-32053000D01*
X19973000Y-32053000D01*
X19973000Y-29767000D01*
X17687000Y-29767000D01*
X17433000Y-29767000D01*
X16239845Y-29767000D01*
X16118524Y-29996890D01*
X685000Y-29996890D01*
X685000Y-24318256D01*
X12881349Y-24318256D01*
X12970821Y-24577332D01*
X13553368Y-24791325D01*
X14173461Y-24766097D01*
X14629179Y-24577332D01*
X14718651Y-24318256D01*
X13800000Y-23399605D01*
X12881349Y-24318256D01*
X685000Y-24318256D01*
X685000Y-22973368D01*
X12228675Y-22973368D01*
X12253903Y-23593461D01*
X12442668Y-24049179D01*
X12701744Y-24138651D01*
X13620395Y-23220000D01*
X13979605Y-23220000D01*
X14898256Y-24138651D01*
X15157332Y-24049179D01*
X15371325Y-23466632D01*
X15346097Y-22846539D01*
X15157332Y-22390821D01*
X15116994Y-22376890D01*
X16118524Y-22376890D01*
X16288355Y-22786924D01*
X16678642Y-23215183D01*
X16837954Y-23290000D01*
X16678642Y-23364817D01*
X16288355Y-23793076D01*
X16118524Y-24203110D01*
X16239845Y-24433000D01*
X17433000Y-24433000D01*
X17433000Y-22147000D01*
X17687000Y-22147000D01*
X17687000Y-24433000D01*
X19973000Y-24433000D01*
X19973000Y-22147000D01*
X17687000Y-22147000D01*
X17433000Y-22147000D01*
X16239845Y-22147000D01*
X16118524Y-22376890D01*
X15116994Y-22376890D01*
X14898256Y-22301349D01*
X13979605Y-23220000D01*
X13620395Y-23220000D01*
X12701744Y-22301349D01*
X12442668Y-22390821D01*
X12228675Y-22973368D01*
X685000Y-22973368D01*
X685000Y-16678461D01*
X4189539Y-16678461D01*
X4437304Y-16629178D01*
X4647348Y-16488830D01*
X4787696Y-16278786D01*
X4800181Y-16216021D01*
X6171971Y-16216021D01*
X6268979Y-16235317D01*
X6365987Y-16216021D01*
X6365991Y-16216021D01*
X6653307Y-16158870D01*
X6979124Y-15941166D01*
X7034077Y-15858923D01*
X7154750Y-15738250D01*
X9166500Y-15738250D01*
X9166500Y-16023309D01*
X9263173Y-16256698D01*
X9441801Y-16435327D01*
X9675190Y-16532000D01*
X10214250Y-16532000D01*
X10373000Y-16373250D01*
X10373000Y-15579500D01*
X10627000Y-15579500D01*
X10627000Y-16373250D01*
X10785750Y-16532000D01*
X11324810Y-16532000D01*
X11558199Y-16435327D01*
X11736827Y-16256698D01*
X11833500Y-16023309D01*
X11833500Y-15738250D01*
X11674750Y-15579500D01*
X10627000Y-15579500D01*
X10373000Y-15579500D01*
X9325250Y-15579500D01*
X9166500Y-15738250D01*
X7154750Y-15738250D01*
X9036979Y-13856021D01*
X9154060Y-13856021D01*
X9154060Y-13992000D01*
X9203343Y-14239765D01*
X9343691Y-14449809D01*
X9414411Y-14497063D01*
X9263173Y-14648302D01*
X9166500Y-14881691D01*
X9166500Y-15166750D01*
X9325250Y-15325500D01*
X10373000Y-15325500D01*
X10373000Y-15305500D01*
X10627000Y-15305500D01*
X10627000Y-15325500D01*
X11674750Y-15325500D01*
X11833500Y-15166750D01*
X11833500Y-14881691D01*
X11747886Y-14675000D01*
X12227560Y-14675000D01*
X12227560Y-16525000D01*
X12276843Y-16772765D01*
X12417191Y-16982809D01*
X12617305Y-17116522D01*
X12477496Y-17256331D01*
X12240000Y-17829697D01*
X12240000Y-18450303D01*
X12477496Y-19023669D01*
X12863827Y-19410000D01*
X12477496Y-19796331D01*
X12240000Y-20369697D01*
X12240000Y-20990303D01*
X12477496Y-21563669D01*
X12916331Y-22002504D01*
X12921753Y-22004750D01*
X12881349Y-22121744D01*
X13800000Y-23040395D01*
X14718651Y-22121744D01*
X14678247Y-22004750D01*
X14683669Y-22002504D01*
X15122504Y-21563669D01*
X15360000Y-20990303D01*
X15360000Y-20369697D01*
X15122504Y-19796331D01*
X14736173Y-19410000D01*
X15122504Y-19023669D01*
X15360000Y-18450303D01*
X15360000Y-17829697D01*
X15122504Y-17256331D01*
X14982695Y-17116522D01*
X15182809Y-16982809D01*
X15323157Y-16772765D01*
X15372440Y-16525000D01*
X15372440Y-14675000D01*
X15323157Y-14427235D01*
X15182809Y-14217191D01*
X14972765Y-14076843D01*
X14725000Y-14027560D01*
X12875000Y-14027560D01*
X12627235Y-14076843D01*
X12417191Y-14217191D01*
X12276843Y-14427235D01*
X12227560Y-14675000D01*
X11747886Y-14675000D01*
X11736827Y-14648302D01*
X11585589Y-14497063D01*
X11656309Y-14449809D01*
X11796657Y-14239765D01*
X11845940Y-13992000D01*
X11845940Y-13856021D01*
X13631971Y-13856021D01*
X13728979Y-13875317D01*
X13825987Y-13856021D01*
X13825991Y-13856021D01*
X14113307Y-13798870D01*
X14439124Y-13581166D01*
X14494077Y-13498923D01*
X14630059Y-13362941D01*
X14722569Y-13586280D01*
X14722569Y-13586280D01*
G37*
X14722569Y-13586280D02*
X15013720Y-13877431D01*
X15394126Y-14035000D01*
X15805874Y-14035000D01*
X16146582Y-13893874D01*
X16045908Y-14400000D01*
X16161161Y-14979418D01*
X16489375Y-15470625D01*
X16787761Y-15670000D01*
X16489375Y-15869375D01*
X16161161Y-16360582D01*
X16045908Y-16940000D01*
X16161161Y-17519418D01*
X16489375Y-18010625D01*
X16787761Y-18210000D01*
X16489375Y-18409375D01*
X16161161Y-18900582D01*
X16045908Y-19480000D01*
X16161161Y-20059418D01*
X16489375Y-20550625D01*
X16808478Y-20763843D01*
X16678642Y-20824817D01*
X16288355Y-21253076D01*
X16118524Y-21663110D01*
X16239845Y-21893000D01*
X17433000Y-21893000D01*
X17433000Y-21873000D01*
X17687000Y-21873000D01*
X17687000Y-21893000D01*
X19973000Y-21893000D01*
X19973000Y-21873000D01*
X20227000Y-21873000D01*
X20227000Y-21893000D01*
X20247000Y-21893000D01*
X20247000Y-22147000D01*
X20227000Y-22147000D01*
X20227000Y-24433000D01*
X20247000Y-24433000D01*
X20247000Y-24687000D01*
X20227000Y-24687000D01*
X20227000Y-24707000D01*
X19973000Y-24707000D01*
X19973000Y-24687000D01*
X17687000Y-24687000D01*
X17687000Y-24707000D01*
X17433000Y-24707000D01*
X17433000Y-24687000D01*
X16239845Y-24687000D01*
X16118524Y-24916890D01*
X16288355Y-25326924D01*
X16678642Y-25755183D01*
X16808478Y-25816157D01*
X16489375Y-26029375D01*
X16161161Y-26520582D01*
X16045908Y-27100000D01*
X16161161Y-27679418D01*
X16489375Y-28170625D01*
X16808478Y-28383843D01*
X16678642Y-28444817D01*
X16288355Y-28873076D01*
X16118524Y-29283110D01*
X16239845Y-29513000D01*
X17433000Y-29513000D01*
X17433000Y-29493000D01*
X17687000Y-29493000D01*
X17687000Y-29513000D01*
X19973000Y-29513000D01*
X19973000Y-29493000D01*
X20227000Y-29493000D01*
X20227000Y-29513000D01*
X20247000Y-29513000D01*
X20247000Y-29767000D01*
X20227000Y-29767000D01*
X20227000Y-32053000D01*
X20247000Y-32053000D01*
X20247000Y-32307000D01*
X20227000Y-32307000D01*
X20227000Y-34593000D01*
X20247000Y-34593000D01*
X20247000Y-34847000D01*
X20227000Y-34847000D01*
X20227000Y-34867000D01*
X19973000Y-34867000D01*
X19973000Y-34847000D01*
X17687000Y-34847000D01*
X17687000Y-34867000D01*
X17433000Y-34867000D01*
X17433000Y-34847000D01*
X16239845Y-34847000D01*
X16118524Y-35076890D01*
X16288355Y-35486924D01*
X16678642Y-35915183D01*
X16808478Y-35976157D01*
X16489375Y-36189375D01*
X16161161Y-36680582D01*
X16045908Y-37260000D01*
X16161161Y-37839418D01*
X16489375Y-38330625D01*
X16808478Y-38543843D01*
X16678642Y-38604817D01*
X16288355Y-39033076D01*
X16118524Y-39443110D01*
X16239845Y-39673000D01*
X17433000Y-39673000D01*
X17433000Y-39653000D01*
X17687000Y-39653000D01*
X17687000Y-39673000D01*
X19973000Y-39673000D01*
X19973000Y-39653000D01*
X20227000Y-39653000D01*
X20227000Y-39673000D01*
X20247000Y-39673000D01*
X20247000Y-39927000D01*
X20227000Y-39927000D01*
X20227000Y-42213000D01*
X20247000Y-42213000D01*
X20247000Y-42467000D01*
X20227000Y-42467000D01*
X20227000Y-44753000D01*
X20247000Y-44753000D01*
X20247000Y-45007000D01*
X20227000Y-45007000D01*
X20227000Y-45027000D01*
X19973000Y-45027000D01*
X19973000Y-45007000D01*
X17687000Y-45007000D01*
X17687000Y-45027000D01*
X17433000Y-45027000D01*
X17433000Y-45007000D01*
X16239845Y-45007000D01*
X16118524Y-45236890D01*
X16288355Y-45646924D01*
X16678642Y-46075183D01*
X16808478Y-46136157D01*
X16489375Y-46349375D01*
X16161161Y-46840582D01*
X16045908Y-47420000D01*
X16161161Y-47999418D01*
X16489375Y-48490625D01*
X16808478Y-48703843D01*
X16678642Y-48764817D01*
X16288355Y-49193076D01*
X16118524Y-49603110D01*
X16239845Y-49833000D01*
X17433000Y-49833000D01*
X17433000Y-49813000D01*
X17687000Y-49813000D01*
X17687000Y-49833000D01*
X19973000Y-49833000D01*
X19973000Y-49813000D01*
X20227000Y-49813000D01*
X20227000Y-49833000D01*
X20247000Y-49833000D01*
X20247000Y-50087000D01*
X20227000Y-50087000D01*
X20227000Y-50107000D01*
X19973000Y-50107000D01*
X19973000Y-50087000D01*
X17687000Y-50087000D01*
X17687000Y-50107000D01*
X17433000Y-50107000D01*
X17433000Y-50087000D01*
X16239845Y-50087000D01*
X16118524Y-50316890D01*
X16288355Y-50726924D01*
X16550888Y-51015000D01*
X685000Y-51015000D01*
X685000Y-42696890D01*
X16118524Y-42696890D01*
X16288355Y-43106924D01*
X16678642Y-43535183D01*
X16837954Y-43610000D01*
X16678642Y-43684817D01*
X16288355Y-44113076D01*
X16118524Y-44523110D01*
X16239845Y-44753000D01*
X17433000Y-44753000D01*
X17433000Y-42467000D01*
X17687000Y-42467000D01*
X17687000Y-44753000D01*
X19973000Y-44753000D01*
X19973000Y-42467000D01*
X17687000Y-42467000D01*
X17433000Y-42467000D01*
X16239845Y-42467000D01*
X16118524Y-42696890D01*
X685000Y-42696890D01*
X685000Y-41325000D01*
X2414250Y-41325000D01*
X2573000Y-41166250D01*
X2573000Y-39967000D01*
X2827000Y-39967000D01*
X2827000Y-41166250D01*
X2985750Y-41325000D01*
X5326310Y-41325000D01*
X5559699Y-41228327D01*
X5738327Y-41049698D01*
X5835000Y-40816309D01*
X5835000Y-40156890D01*
X16118524Y-40156890D01*
X16288355Y-40566924D01*
X16678642Y-40995183D01*
X16837954Y-41070000D01*
X16678642Y-41144817D01*
X16288355Y-41573076D01*
X16118524Y-41983110D01*
X16239845Y-42213000D01*
X17433000Y-42213000D01*
X17433000Y-39927000D01*
X17687000Y-39927000D01*
X17687000Y-42213000D01*
X19973000Y-42213000D01*
X19973000Y-39927000D01*
X17687000Y-39927000D01*
X17433000Y-39927000D01*
X16239845Y-39927000D01*
X16118524Y-40156890D01*
X5835000Y-40156890D01*
X5835000Y-40125750D01*
X5676250Y-39967000D01*
X2827000Y-39967000D01*
X2573000Y-39967000D01*
X2553000Y-39967000D01*
X2553000Y-39713000D01*
X2573000Y-39713000D01*
X2573000Y-38513750D01*
X2827000Y-38513750D01*
X2827000Y-39713000D01*
X5676250Y-39713000D01*
X5835000Y-39554250D01*
X5835000Y-38863691D01*
X5738327Y-38630302D01*
X5559699Y-38451673D01*
X5326310Y-38355000D01*
X2985750Y-38355000D01*
X2827000Y-38513750D01*
X2573000Y-38513750D01*
X2414250Y-38355000D01*
X685000Y-38355000D01*
X685000Y-36245000D01*
X2414250Y-36245000D01*
X2573000Y-36086250D01*
X2573000Y-34887000D01*
X2827000Y-34887000D01*
X2827000Y-36086250D01*
X2985750Y-36245000D01*
X5326310Y-36245000D01*
X5559699Y-36148327D01*
X5738327Y-35969698D01*
X5835000Y-35736309D01*
X5835000Y-35045750D01*
X5676250Y-34887000D01*
X2827000Y-34887000D01*
X2573000Y-34887000D01*
X2553000Y-34887000D01*
X2553000Y-34633000D01*
X2573000Y-34633000D01*
X2573000Y-33433750D01*
X2827000Y-33433750D01*
X2827000Y-34633000D01*
X5676250Y-34633000D01*
X5835000Y-34474250D01*
X5835000Y-33783691D01*
X5738327Y-33550302D01*
X5559699Y-33371673D01*
X5326310Y-33275000D01*
X2985750Y-33275000D01*
X2827000Y-33433750D01*
X2573000Y-33433750D01*
X2414250Y-33275000D01*
X685000Y-33275000D01*
X685000Y-32536890D01*
X16118524Y-32536890D01*
X16288355Y-32946924D01*
X16678642Y-33375183D01*
X16837954Y-33450000D01*
X16678642Y-33524817D01*
X16288355Y-33953076D01*
X16118524Y-34363110D01*
X16239845Y-34593000D01*
X17433000Y-34593000D01*
X17433000Y-32307000D01*
X17687000Y-32307000D01*
X17687000Y-34593000D01*
X19973000Y-34593000D01*
X19973000Y-32307000D01*
X17687000Y-32307000D01*
X17433000Y-32307000D01*
X16239845Y-32307000D01*
X16118524Y-32536890D01*
X685000Y-32536890D01*
X685000Y-29996890D01*
X16118524Y-29996890D01*
X16288355Y-30406924D01*
X16678642Y-30835183D01*
X16837954Y-30910000D01*
X16678642Y-30984817D01*
X16288355Y-31413076D01*
X16118524Y-31823110D01*
X16239845Y-32053000D01*
X17433000Y-32053000D01*
X17433000Y-29767000D01*
X17687000Y-29767000D01*
X17687000Y-32053000D01*
X19973000Y-32053000D01*
X19973000Y-29767000D01*
X17687000Y-29767000D01*
X17433000Y-29767000D01*
X16239845Y-29767000D01*
X16118524Y-29996890D01*
X685000Y-29996890D01*
X685000Y-24318256D01*
X12881349Y-24318256D01*
X12970821Y-24577332D01*
X13553368Y-24791325D01*
X14173461Y-24766097D01*
X14629179Y-24577332D01*
X14718651Y-24318256D01*
X13800000Y-23399605D01*
X12881349Y-24318256D01*
X685000Y-24318256D01*
X685000Y-22973368D01*
X12228675Y-22973368D01*
X12253903Y-23593461D01*
X12442668Y-24049179D01*
X12701744Y-24138651D01*
X13620395Y-23220000D01*
X13979605Y-23220000D01*
X14898256Y-24138651D01*
X15157332Y-24049179D01*
X15371325Y-23466632D01*
X15346097Y-22846539D01*
X15157332Y-22390821D01*
X15116994Y-22376890D01*
X16118524Y-22376890D01*
X16288355Y-22786924D01*
X16678642Y-23215183D01*
X16837954Y-23290000D01*
X16678642Y-23364817D01*
X16288355Y-23793076D01*
X16118524Y-24203110D01*
X16239845Y-24433000D01*
X17433000Y-24433000D01*
X17433000Y-22147000D01*
X17687000Y-22147000D01*
X17687000Y-24433000D01*
X19973000Y-24433000D01*
X19973000Y-22147000D01*
X17687000Y-22147000D01*
X17433000Y-22147000D01*
X16239845Y-22147000D01*
X16118524Y-22376890D01*
X15116994Y-22376890D01*
X14898256Y-22301349D01*
X13979605Y-23220000D01*
X13620395Y-23220000D01*
X12701744Y-22301349D01*
X12442668Y-22390821D01*
X12228675Y-22973368D01*
X685000Y-22973368D01*
X685000Y-16678461D01*
X4189539Y-16678461D01*
X4437304Y-16629178D01*
X4647348Y-16488830D01*
X4787696Y-16278786D01*
X4800181Y-16216021D01*
X6171971Y-16216021D01*
X6268979Y-16235317D01*
X6365987Y-16216021D01*
X6365991Y-16216021D01*
X6653307Y-16158870D01*
X6979124Y-15941166D01*
X7034077Y-15858923D01*
X7154750Y-15738250D01*
X9166500Y-15738250D01*
X9166500Y-16023309D01*
X9263173Y-16256698D01*
X9441801Y-16435327D01*
X9675190Y-16532000D01*
X10214250Y-16532000D01*
X10373000Y-16373250D01*
X10373000Y-15579500D01*
X10627000Y-15579500D01*
X10627000Y-16373250D01*
X10785750Y-16532000D01*
X11324810Y-16532000D01*
X11558199Y-16435327D01*
X11736827Y-16256698D01*
X11833500Y-16023309D01*
X11833500Y-15738250D01*
X11674750Y-15579500D01*
X10627000Y-15579500D01*
X10373000Y-15579500D01*
X9325250Y-15579500D01*
X9166500Y-15738250D01*
X7154750Y-15738250D01*
X9036979Y-13856021D01*
X9154060Y-13856021D01*
X9154060Y-13992000D01*
X9203343Y-14239765D01*
X9343691Y-14449809D01*
X9414411Y-14497063D01*
X9263173Y-14648302D01*
X9166500Y-14881691D01*
X9166500Y-15166750D01*
X9325250Y-15325500D01*
X10373000Y-15325500D01*
X10373000Y-15305500D01*
X10627000Y-15305500D01*
X10627000Y-15325500D01*
X11674750Y-15325500D01*
X11833500Y-15166750D01*
X11833500Y-14881691D01*
X11747886Y-14675000D01*
X12227560Y-14675000D01*
X12227560Y-16525000D01*
X12276843Y-16772765D01*
X12417191Y-16982809D01*
X12617305Y-17116522D01*
X12477496Y-17256331D01*
X12240000Y-17829697D01*
X12240000Y-18450303D01*
X12477496Y-19023669D01*
X12863827Y-19410000D01*
X12477496Y-19796331D01*
X12240000Y-20369697D01*
X12240000Y-20990303D01*
X12477496Y-21563669D01*
X12916331Y-22002504D01*
X12921753Y-22004750D01*
X12881349Y-22121744D01*
X13800000Y-23040395D01*
X14718651Y-22121744D01*
X14678247Y-22004750D01*
X14683669Y-22002504D01*
X15122504Y-21563669D01*
X15360000Y-20990303D01*
X15360000Y-20369697D01*
X15122504Y-19796331D01*
X14736173Y-19410000D01*
X15122504Y-19023669D01*
X15360000Y-18450303D01*
X15360000Y-17829697D01*
X15122504Y-17256331D01*
X14982695Y-17116522D01*
X15182809Y-16982809D01*
X15323157Y-16772765D01*
X15372440Y-16525000D01*
X15372440Y-14675000D01*
X15323157Y-14427235D01*
X15182809Y-14217191D01*
X14972765Y-14076843D01*
X14725000Y-14027560D01*
X12875000Y-14027560D01*
X12627235Y-14076843D01*
X12417191Y-14217191D01*
X12276843Y-14427235D01*
X12227560Y-14675000D01*
X11747886Y-14675000D01*
X11736827Y-14648302D01*
X11585589Y-14497063D01*
X11656309Y-14449809D01*
X11796657Y-14239765D01*
X11845940Y-13992000D01*
X11845940Y-13856021D01*
X13631971Y-13856021D01*
X13728979Y-13875317D01*
X13825987Y-13856021D01*
X13825991Y-13856021D01*
X14113307Y-13798870D01*
X14439124Y-13581166D01*
X14494077Y-13498923D01*
X14630059Y-13362941D01*
X14722569Y-13586280D01*
G36*
X13115000Y-11886021D02*
X11435813Y-11886021D01*
X11558199Y-11835327D01*
X11736827Y-11656698D01*
X11833500Y-11423309D01*
X11833500Y-11138250D01*
X11674750Y-10979500D01*
X10627000Y-10979500D01*
X10627000Y-10999500D01*
X10373000Y-10999500D01*
X10373000Y-10979500D01*
X10353000Y-10979500D01*
X10353000Y-10725500D01*
X10373000Y-10725500D01*
X10373000Y-10705500D01*
X10627000Y-10705500D01*
X10627000Y-10725500D01*
X11674750Y-10725500D01*
X11833500Y-10566750D01*
X11833500Y-10281691D01*
X11797598Y-10195017D01*
X11894126Y-10235000D01*
X12305874Y-10235000D01*
X12686280Y-10077431D01*
X12977431Y-9786280D01*
X13115001Y-9454157D01*
X13115000Y-11886021D01*
X13115000Y-11886021D01*
G37*
X13115000Y-11886021D02*
X11435813Y-11886021D01*
X11558199Y-11835327D01*
X11736827Y-11656698D01*
X11833500Y-11423309D01*
X11833500Y-11138250D01*
X11674750Y-10979500D01*
X10627000Y-10979500D01*
X10627000Y-10999500D01*
X10373000Y-10999500D01*
X10373000Y-10979500D01*
X10353000Y-10979500D01*
X10353000Y-10725500D01*
X10373000Y-10725500D01*
X10373000Y-10705500D01*
X10627000Y-10705500D01*
X10627000Y-10725500D01*
X11674750Y-10725500D01*
X11833500Y-10566750D01*
X11833500Y-10281691D01*
X11797598Y-10195017D01*
X11894126Y-10235000D01*
X12305874Y-10235000D01*
X12686280Y-10077431D01*
X12977431Y-9786280D01*
X13115001Y-9454157D01*
X13115000Y-11886021D01*
G04 #@! TD*
M02*
