G04 #@! TF.GenerationSoftware,KiCad,Pcbnew,5.1.5-52549c5~84~ubuntu18.04.1*
G04 #@! TF.CreationDate,2020-03-18T22:18:37-07:00*
G04 #@! TF.ProjectId,endcap,656e6463-6170-42e6-9b69-6361645f7063,2.1*
G04 #@! TF.SameCoordinates,PX2faf080PY2faf080*
G04 #@! TF.FileFunction,Other,ECO1*
%FSLAX46Y46*%
G04 Gerber Fmt 4.6, Leading zero omitted, Abs format (unit mm)*
G04 Created by KiCad (PCBNEW 5.1.5-52549c5~84~ubuntu18.04.1) date 2020-03-18 22:18:37*
%MOMM*%
%LPD*%
G04 APERTURE LIST*
%ADD10C,0.200000*%
%ADD11C,0.300000*%
G04 APERTURE END LIST*
D10*
X3185714Y-11700000D02*
X4985714Y-11700000D01*
X4128571Y-11700000D02*
X4128571Y-12728571D01*
X3185714Y-12728571D02*
X4985714Y-12728571D01*
X3271428Y-14271428D02*
X3185714Y-14100000D01*
X3185714Y-13757142D01*
X3271428Y-13585714D01*
X3442857Y-13500000D01*
X4128571Y-13500000D01*
X4300000Y-13585714D01*
X4385714Y-13757142D01*
X4385714Y-14100000D01*
X4300000Y-14271428D01*
X4128571Y-14357142D01*
X3957142Y-14357142D01*
X3785714Y-13500000D01*
X3185714Y-15128571D02*
X4385714Y-15128571D01*
X4042857Y-15128571D02*
X4214285Y-15214285D01*
X4300000Y-15300000D01*
X4385714Y-15471428D01*
X4385714Y-15642857D01*
X3185714Y-16242857D02*
X4385714Y-16242857D01*
X4214285Y-16242857D02*
X4300000Y-16328571D01*
X4385714Y-16500000D01*
X4385714Y-16757142D01*
X4300000Y-16928571D01*
X4128571Y-17014285D01*
X3185714Y-17014285D01*
X4128571Y-17014285D02*
X4300000Y-17100000D01*
X4385714Y-17271428D01*
X4385714Y-17528571D01*
X4300000Y-17700000D01*
X4128571Y-17785714D01*
X3185714Y-17785714D01*
X3271428Y-19328571D02*
X3185714Y-19157142D01*
X3185714Y-18814285D01*
X3271428Y-18642857D01*
X3442857Y-18557142D01*
X4128571Y-18557142D01*
X4300000Y-18642857D01*
X4385714Y-18814285D01*
X4385714Y-19157142D01*
X4300000Y-19328571D01*
X4128571Y-19414285D01*
X3957142Y-19414285D01*
X3785714Y-18557142D01*
X3271428Y-20100000D02*
X3185714Y-20271428D01*
X3185714Y-20614285D01*
X3271428Y-20785714D01*
X3442857Y-20871428D01*
X3528571Y-20871428D01*
X3700000Y-20785714D01*
X3785714Y-20614285D01*
X3785714Y-20357142D01*
X3871428Y-20185714D01*
X4042857Y-20100000D01*
X4128571Y-20100000D01*
X4300000Y-20185714D01*
X4385714Y-20357142D01*
X4385714Y-20614285D01*
X4300000Y-20785714D01*
X3871428Y-21642857D02*
X3871428Y-23014285D01*
X3185714Y-24728571D02*
X3185714Y-23871428D01*
X4985714Y-23871428D01*
X3185714Y-25328571D02*
X4385714Y-25328571D01*
X4985714Y-25328571D02*
X4900000Y-25242857D01*
X4814285Y-25328571D01*
X4900000Y-25414285D01*
X4985714Y-25328571D01*
X4814285Y-25328571D01*
X4385714Y-25928571D02*
X4385714Y-26614285D01*
X4985714Y-26185714D02*
X3442857Y-26185714D01*
X3271428Y-26271428D01*
X3185714Y-26442857D01*
X3185714Y-26614285D01*
X3271428Y-27900000D02*
X3185714Y-27728571D01*
X3185714Y-27385714D01*
X3271428Y-27214285D01*
X3442857Y-27128571D01*
X4128571Y-27128571D01*
X4300000Y-27214285D01*
X4385714Y-27385714D01*
X4385714Y-27728571D01*
X4300000Y-27900000D01*
X4128571Y-27985714D01*
X3957142Y-27985714D01*
X3785714Y-27128571D01*
D11*
X92069047Y-32400000D02*
X94569047Y-32400000D01*
X92188095Y-33471428D02*
X92069047Y-33828571D01*
X92069047Y-34423809D01*
X92188095Y-34661904D01*
X92307142Y-34780952D01*
X92545238Y-34900000D01*
X92783333Y-34900000D01*
X93021428Y-34780952D01*
X93140476Y-34661904D01*
X93259523Y-34423809D01*
X93378571Y-33947619D01*
X93497619Y-33709523D01*
X93616666Y-33590476D01*
X93854761Y-33471428D01*
X94092857Y-33471428D01*
X94330952Y-33590476D01*
X94450000Y-33709523D01*
X94569047Y-33947619D01*
X94569047Y-34542857D01*
X94450000Y-34900000D01*
X94569047Y-36447619D02*
X94569047Y-36923809D01*
X94450000Y-37161904D01*
X94211904Y-37400000D01*
X93735714Y-37519047D01*
X92902380Y-37519047D01*
X92426190Y-37400000D01*
X92188095Y-37161904D01*
X92069047Y-36923809D01*
X92069047Y-36447619D01*
X92188095Y-36209523D01*
X92426190Y-35971428D01*
X92902380Y-35852380D01*
X93735714Y-35852380D01*
X94211904Y-35971428D01*
X94450000Y-36209523D01*
X94569047Y-36447619D01*
X97869047Y-24211904D02*
X99059523Y-23378571D01*
X97869047Y-22783333D02*
X100369047Y-22783333D01*
X100369047Y-23735714D01*
X100250000Y-23973809D01*
X100130952Y-24092857D01*
X99892857Y-24211904D01*
X99535714Y-24211904D01*
X99297619Y-24092857D01*
X99178571Y-23973809D01*
X99059523Y-23735714D01*
X99059523Y-22783333D01*
X99178571Y-26116666D02*
X99178571Y-25283333D01*
X97869047Y-25283333D02*
X100369047Y-25283333D01*
X100369047Y-26473809D01*
X100369047Y-27188095D02*
X100369047Y-28735714D01*
X99416666Y-27902380D01*
X99416666Y-28259523D01*
X99297619Y-28497619D01*
X99178571Y-28616666D01*
X98940476Y-28735714D01*
X98345238Y-28735714D01*
X98107142Y-28616666D01*
X97988095Y-28497619D01*
X97869047Y-28259523D01*
X97869047Y-27545238D01*
X97988095Y-27307142D01*
X98107142Y-27188095D01*
X70483333Y-29114285D02*
X70483333Y-30304761D01*
X69769047Y-28876190D02*
X72269047Y-29709523D01*
X69769047Y-30542857D01*
X70007142Y-32804761D02*
X69888095Y-32685714D01*
X69769047Y-32328571D01*
X69769047Y-32090476D01*
X69888095Y-31733333D01*
X70126190Y-31495238D01*
X70364285Y-31376190D01*
X70840476Y-31257142D01*
X71197619Y-31257142D01*
X71673809Y-31376190D01*
X71911904Y-31495238D01*
X72150000Y-31733333D01*
X72269047Y-32090476D01*
X72269047Y-32328571D01*
X72150000Y-32685714D01*
X72030952Y-32804761D01*
X70007142Y-35304761D02*
X69888095Y-35185714D01*
X69769047Y-34828571D01*
X69769047Y-34590476D01*
X69888095Y-34233333D01*
X70126190Y-33995238D01*
X70364285Y-33876190D01*
X70840476Y-33757142D01*
X71197619Y-33757142D01*
X71673809Y-33876190D01*
X71911904Y-33995238D01*
X72150000Y-34233333D01*
X72269047Y-34590476D01*
X72269047Y-34828571D01*
X72150000Y-35185714D01*
X72030952Y-35304761D01*
X69769047Y-37685714D02*
X69769047Y-36257142D01*
X69769047Y-36971428D02*
X72269047Y-36971428D01*
X71911904Y-36733333D01*
X71673809Y-36495238D01*
X71554761Y-36257142D01*
X26383333Y-15014285D02*
X26383333Y-16204761D01*
X25669047Y-14776190D02*
X28169047Y-15609523D01*
X25669047Y-16442857D01*
X25907142Y-18704761D02*
X25788095Y-18585714D01*
X25669047Y-18228571D01*
X25669047Y-17990476D01*
X25788095Y-17633333D01*
X26026190Y-17395238D01*
X26264285Y-17276190D01*
X26740476Y-17157142D01*
X27097619Y-17157142D01*
X27573809Y-17276190D01*
X27811904Y-17395238D01*
X28050000Y-17633333D01*
X28169047Y-17990476D01*
X28169047Y-18228571D01*
X28050000Y-18585714D01*
X27930952Y-18704761D01*
X25907142Y-21204761D02*
X25788095Y-21085714D01*
X25669047Y-20728571D01*
X25669047Y-20490476D01*
X25788095Y-20133333D01*
X26026190Y-19895238D01*
X26264285Y-19776190D01*
X26740476Y-19657142D01*
X27097619Y-19657142D01*
X27573809Y-19776190D01*
X27811904Y-19895238D01*
X28050000Y-20133333D01*
X28169047Y-20490476D01*
X28169047Y-20728571D01*
X28050000Y-21085714D01*
X27930952Y-21204761D01*
X27930952Y-22157142D02*
X28050000Y-22276190D01*
X28169047Y-22514285D01*
X28169047Y-23109523D01*
X28050000Y-23347619D01*
X27930952Y-23466666D01*
X27692857Y-23585714D01*
X27454761Y-23585714D01*
X27097619Y-23466666D01*
X25669047Y-22038095D01*
X25669047Y-23585714D01*
X44983333Y-6342857D02*
X44983333Y-7533333D01*
X44269047Y-6104761D02*
X46769047Y-6938095D01*
X44269047Y-7771428D01*
X44269047Y-8604761D02*
X46769047Y-8604761D01*
X44269047Y-10033333D01*
X46769047Y-10033333D01*
X46769047Y-10866666D02*
X46769047Y-12295238D01*
X44269047Y-11580952D02*
X46769047Y-11580952D01*
X76269047Y-7611904D02*
X77459523Y-6778571D01*
X76269047Y-6183333D02*
X78769047Y-6183333D01*
X78769047Y-7135714D01*
X78650000Y-7373809D01*
X78530952Y-7492857D01*
X78292857Y-7611904D01*
X77935714Y-7611904D01*
X77697619Y-7492857D01*
X77578571Y-7373809D01*
X77459523Y-7135714D01*
X77459523Y-6183333D01*
X77578571Y-9516666D02*
X77578571Y-8683333D01*
X76269047Y-8683333D02*
X78769047Y-8683333D01*
X78769047Y-9873809D01*
X76269047Y-12135714D02*
X76269047Y-10707142D01*
X76269047Y-11421428D02*
X78769047Y-11421428D01*
X78411904Y-11183333D01*
X78173809Y-10945238D01*
X78054761Y-10707142D01*
X99178571Y-9619047D02*
X99178571Y-10452380D01*
X97869047Y-10809523D02*
X97869047Y-9619047D01*
X100369047Y-9619047D01*
X100369047Y-10809523D01*
X100369047Y-11642857D02*
X97869047Y-13309523D01*
X100369047Y-13309523D02*
X97869047Y-11642857D01*
X100369047Y-13904761D02*
X100369047Y-15333333D01*
X97869047Y-14619047D02*
X100369047Y-14619047D01*
X100369047Y-15809523D02*
X100369047Y-17238095D01*
X97869047Y-16523809D02*
X100369047Y-16523809D01*
X97869047Y-19500000D02*
X99059523Y-18666666D01*
X97869047Y-18071428D02*
X100369047Y-18071428D01*
X100369047Y-19023809D01*
X100250000Y-19261904D01*
X100130952Y-19380952D01*
X99892857Y-19500000D01*
X99535714Y-19500000D01*
X99297619Y-19380952D01*
X99178571Y-19261904D01*
X99059523Y-19023809D01*
X99059523Y-18071428D01*
M02*
