G04 #@! TF.GenerationSoftware,KiCad,Pcbnew,5.0.2-bee76a0~70~ubuntu16.04.1*
G04 #@! TF.CreationDate,2019-12-01T15:03:48-08:00*
G04 #@! TF.ProjectId,endcap,656e6463-6170-42e6-9b69-6361645f7063,2.0*
G04 #@! TF.SameCoordinates,PX2faf080PY2faf080*
G04 #@! TF.FileFunction,Copper,L1,Top*
G04 #@! TF.FilePolarity,Positive*
%FSLAX46Y46*%
G04 Gerber Fmt 4.6, Leading zero omitted, Abs format (unit mm)*
G04 Created by KiCad (PCBNEW 5.0.2-bee76a0~70~ubuntu16.04.1) date Sun 01 Dec 2019 03:03:48 PM PST*
%MOMM*%
%LPD*%
G01*
G04 APERTURE LIST*
G04 #@! TA.AperFunction,ComponentPad*
%ADD10C,1.850000*%
G04 #@! TD*
G04 #@! TA.AperFunction,ComponentPad*
%ADD11C,4.900000*%
G04 #@! TD*
G04 #@! TA.AperFunction,ViaPad*
%ADD12C,0.800000*%
G04 #@! TD*
G04 #@! TA.AperFunction,Conductor*
%ADD13C,0.700000*%
G04 #@! TD*
G04 #@! TA.AperFunction,Conductor*
%ADD14C,0.200000*%
G04 #@! TD*
G04 APERTURE END LIST*
D10*
G04 #@! TO.P,ACC1,1*
G04 #@! TO.N,VSUP*
X44800000Y-35000000D03*
G04 #@! TO.P,ACC1,2*
G04 #@! TO.N,Net-(ACC1-Pad2)*
X47340000Y-35000000D03*
G04 #@! TO.P,ACC1,3*
G04 #@! TO.N,Net-(ACC1-Pad3)*
X49880000Y-35000000D03*
G04 #@! TO.P,ACC1,4*
G04 #@! TO.N,Net-(ACC1-Pad4)*
X52420000Y-35000000D03*
G04 #@! TO.P,ACC1,5*
G04 #@! TO.N,Net-(ACC1-Pad5)*
X54960000Y-35000000D03*
G04 #@! TO.P,ACC1,6*
G04 #@! TO.N,Net-(ACC1-Pad6)*
X57500000Y-35000000D03*
G04 #@! TO.P,ACC1,7*
G04 #@! TO.N,Net-(ACC1-Pad7)*
X60040000Y-35000000D03*
G04 #@! TO.P,ACC1,8*
G04 #@! TO.N,Net-(ACC1-Pad8)*
X62580000Y-35000000D03*
G04 #@! TO.P,ACC1,9*
G04 #@! TO.N,GNDS*
X65120000Y-35000000D03*
G04 #@! TD*
D11*
G04 #@! TO.P,MH1,1*
G04 #@! TO.N,GNDS*
X4000000Y-4000000D03*
G04 #@! TD*
G04 #@! TO.P,MH2,1*
G04 #@! TO.N,GNDS*
X102000000Y-4000000D03*
G04 #@! TD*
G04 #@! TO.P,MH3,1*
G04 #@! TO.N,GNDS*
X102000000Y-36000000D03*
G04 #@! TD*
G04 #@! TO.P,MH4,1*
G04 #@! TO.N,GNDS*
X4000000Y-36000000D03*
G04 #@! TD*
D10*
G04 #@! TO.P,ISO1,1*
G04 #@! TO.N,Net-(FB1-Pad1)*
X77820000Y-35000000D03*
G04 #@! TO.P,ISO1,2*
G04 #@! TO.N,Net-(ISO1-Pad2)*
X80360000Y-35000000D03*
G04 #@! TO.P,ISO1,3*
G04 #@! TO.N,Net-(C1-Pad2)*
X82900000Y-35000000D03*
G04 #@! TO.P,ISO1,4*
G04 #@! TO.N,Net-(ISO1-Pad4)*
X85440000Y-35000000D03*
G04 #@! TO.P,ISO1,5*
G04 #@! TO.N,Net-(ISO1-Pad5)*
X87980000Y-35000000D03*
G04 #@! TD*
D12*
G04 #@! TO.N,GNDS*
X42400000Y-17500000D03*
X49700000Y-19200000D03*
X57000000Y-19200000D03*
X64300000Y-19200000D03*
X71600000Y-19200000D03*
X33200000Y-13300000D03*
X23900000Y-10900000D03*
X23900000Y-20100000D03*
X82800000Y-19300000D03*
X65700000Y-11600000D03*
X58800000Y-9000000D03*
X61300000Y-9000000D03*
X73000000Y-30800000D03*
X40300000Y-35100000D03*
G04 #@! TO.N,Vlvds*
X49100000Y-22400000D03*
X56400000Y-22400000D03*
X63700000Y-22400000D03*
X41800000Y-22400000D03*
X34300000Y-22400000D03*
G04 #@! TD*
D13*
G04 #@! TO.N,Vlvds*
X49100000Y-22400000D02*
X41800000Y-22400000D01*
X41800000Y-22400000D02*
X34900000Y-22400000D01*
X34300000Y-22400000D02*
X34900000Y-22400000D01*
X49100000Y-22400000D02*
X56400000Y-22400000D01*
X56400000Y-22400000D02*
X63700000Y-22400000D01*
G04 #@! TD*
D14*
G04 #@! TO.N,GNDS*
G36*
X104426658Y-540949D02*
X104819014Y-719342D01*
X105145532Y-1000688D01*
X105379961Y-1362368D01*
X105508162Y-1791043D01*
X105525000Y-2017626D01*
X105525001Y-37966151D01*
X105459052Y-38426656D01*
X105280658Y-38819015D01*
X104999312Y-39145532D01*
X104637631Y-39379962D01*
X104208957Y-39508162D01*
X103982374Y-39525000D01*
X2033842Y-39525000D01*
X1573344Y-39459052D01*
X1180985Y-39280658D01*
X854468Y-38999312D01*
X620038Y-38637631D01*
X491838Y-38208957D01*
X475000Y-37982374D01*
X475000Y-33190553D01*
X12420839Y-33190553D01*
X12426264Y-33240481D01*
X12426265Y-33240498D01*
X12426267Y-33240505D01*
X12544447Y-33954377D01*
X12550791Y-33977099D01*
X12554562Y-34000382D01*
X12570583Y-34047984D01*
X12570586Y-34047996D01*
X12570587Y-34047997D01*
X12839308Y-34719846D01*
X12850379Y-34740667D01*
X12859064Y-34762604D01*
X12884935Y-34805659D01*
X12884940Y-34805668D01*
X12884943Y-34805672D01*
X13291661Y-35404140D01*
X13306950Y-35422105D01*
X13320139Y-35441658D01*
X13354648Y-35478150D01*
X13354657Y-35478161D01*
X13354662Y-35478165D01*
X13880404Y-35975334D01*
X13899189Y-35989592D01*
X13916273Y-36005862D01*
X13957813Y-36034091D01*
X13957826Y-36034101D01*
X13957833Y-36034104D01*
X14578068Y-36406780D01*
X14599482Y-36416675D01*
X14619658Y-36428894D01*
X14666298Y-36447548D01*
X14666304Y-36447551D01*
X14666307Y-36447552D01*
X15352105Y-36678348D01*
X15375142Y-36683413D01*
X15397472Y-36691015D01*
X15447037Y-36699220D01*
X16146673Y-36775225D01*
X16170679Y-36780000D01*
X30029321Y-36780000D01*
X30036696Y-36778533D01*
X30221937Y-36772388D01*
X30228577Y-36771443D01*
X30235273Y-36771747D01*
X30285159Y-36765799D01*
X30997762Y-36640148D01*
X31020416Y-36633566D01*
X31043657Y-36629552D01*
X31091102Y-36613030D01*
X31760099Y-36337289D01*
X31780810Y-36325997D01*
X31802649Y-36317085D01*
X31845425Y-36290769D01*
X31845439Y-36290761D01*
X31845445Y-36290756D01*
X32439619Y-35877794D01*
X32457422Y-35862318D01*
X32476837Y-35848925D01*
X32512967Y-35814035D01*
X32512977Y-35814026D01*
X32512981Y-35814021D01*
X33004617Y-35283103D01*
X33018678Y-35264171D01*
X33034769Y-35246915D01*
X33062564Y-35205078D01*
X33062570Y-35205070D01*
X33062572Y-35205066D01*
X33337512Y-34736441D01*
X43475000Y-34736441D01*
X43475000Y-35263559D01*
X43676719Y-35750552D01*
X44049448Y-36123281D01*
X44536441Y-36325000D01*
X45063559Y-36325000D01*
X45550552Y-36123281D01*
X45923281Y-35750552D01*
X46070000Y-35396341D01*
X46216719Y-35750552D01*
X46589448Y-36123281D01*
X47076441Y-36325000D01*
X47603559Y-36325000D01*
X48090552Y-36123281D01*
X48463281Y-35750552D01*
X48610000Y-35396341D01*
X48756719Y-35750552D01*
X49129448Y-36123281D01*
X49616441Y-36325000D01*
X50143559Y-36325000D01*
X50630552Y-36123281D01*
X51003281Y-35750552D01*
X51150000Y-35396341D01*
X51296719Y-35750552D01*
X51669448Y-36123281D01*
X52156441Y-36325000D01*
X52683559Y-36325000D01*
X53170552Y-36123281D01*
X53543281Y-35750552D01*
X53690000Y-35396341D01*
X53836719Y-35750552D01*
X54209448Y-36123281D01*
X54696441Y-36325000D01*
X55223559Y-36325000D01*
X55710552Y-36123281D01*
X56083281Y-35750552D01*
X56230000Y-35396341D01*
X56376719Y-35750552D01*
X56749448Y-36123281D01*
X57236441Y-36325000D01*
X57763559Y-36325000D01*
X58250552Y-36123281D01*
X58623281Y-35750552D01*
X58770000Y-35396341D01*
X58916719Y-35750552D01*
X59289448Y-36123281D01*
X59776441Y-36325000D01*
X60303559Y-36325000D01*
X60790552Y-36123281D01*
X61163281Y-35750552D01*
X61310000Y-35396341D01*
X61456719Y-35750552D01*
X61829448Y-36123281D01*
X62316441Y-36325000D01*
X62843559Y-36325000D01*
X63330552Y-36123281D01*
X63382953Y-36070880D01*
X64473384Y-36070880D01*
X64588459Y-36241994D01*
X65104210Y-36350865D01*
X65622365Y-36254079D01*
X65651541Y-36241994D01*
X65766616Y-36070880D01*
X65120000Y-35424264D01*
X64473384Y-36070880D01*
X63382953Y-36070880D01*
X63703281Y-35750552D01*
X63847324Y-35402802D01*
X63865921Y-35502365D01*
X63878006Y-35531541D01*
X64049120Y-35646616D01*
X64695736Y-35000000D01*
X65544264Y-35000000D01*
X66190880Y-35646616D01*
X66361994Y-35531541D01*
X66470865Y-35015790D01*
X66418686Y-34736441D01*
X76495000Y-34736441D01*
X76495000Y-35263559D01*
X76696719Y-35750552D01*
X77069448Y-36123281D01*
X77556441Y-36325000D01*
X78083559Y-36325000D01*
X78570552Y-36123281D01*
X78943281Y-35750552D01*
X79090000Y-35396341D01*
X79236719Y-35750552D01*
X79609448Y-36123281D01*
X80096441Y-36325000D01*
X80623559Y-36325000D01*
X81110552Y-36123281D01*
X81483281Y-35750552D01*
X81630000Y-35396341D01*
X81776719Y-35750552D01*
X82149448Y-36123281D01*
X82636441Y-36325000D01*
X83163559Y-36325000D01*
X83650552Y-36123281D01*
X84023281Y-35750552D01*
X84170000Y-35396341D01*
X84316719Y-35750552D01*
X84689448Y-36123281D01*
X85176441Y-36325000D01*
X85703559Y-36325000D01*
X86190552Y-36123281D01*
X86563281Y-35750552D01*
X86710000Y-35396341D01*
X86856719Y-35750552D01*
X87229448Y-36123281D01*
X87716441Y-36325000D01*
X88243559Y-36325000D01*
X88730552Y-36123281D01*
X89103281Y-35750552D01*
X89305000Y-35263559D01*
X89305000Y-34736441D01*
X89103281Y-34249448D01*
X88730552Y-33876719D01*
X88243559Y-33675000D01*
X87716441Y-33675000D01*
X87229448Y-33876719D01*
X86856719Y-34249448D01*
X86710000Y-34603659D01*
X86563281Y-34249448D01*
X86190552Y-33876719D01*
X85703559Y-33675000D01*
X85176441Y-33675000D01*
X84689448Y-33876719D01*
X84316719Y-34249448D01*
X84170000Y-34603659D01*
X84023281Y-34249448D01*
X83650552Y-33876719D01*
X83163559Y-33675000D01*
X82636441Y-33675000D01*
X82149448Y-33876719D01*
X81776719Y-34249448D01*
X81630000Y-34603659D01*
X81483281Y-34249448D01*
X81110552Y-33876719D01*
X80623559Y-33675000D01*
X80096441Y-33675000D01*
X79609448Y-33876719D01*
X79236719Y-34249448D01*
X79090000Y-34603659D01*
X78943281Y-34249448D01*
X78570552Y-33876719D01*
X78083559Y-33675000D01*
X77556441Y-33675000D01*
X77069448Y-33876719D01*
X76696719Y-34249448D01*
X76495000Y-34736441D01*
X66418686Y-34736441D01*
X66374079Y-34497635D01*
X66361994Y-34468459D01*
X66190880Y-34353384D01*
X65544264Y-35000000D01*
X64695736Y-35000000D01*
X64049120Y-34353384D01*
X63878006Y-34468459D01*
X63849646Y-34602806D01*
X63703281Y-34249448D01*
X63382953Y-33929120D01*
X64473384Y-33929120D01*
X65120000Y-34575736D01*
X65766616Y-33929120D01*
X65651541Y-33758006D01*
X65135790Y-33649135D01*
X64617635Y-33745921D01*
X64588459Y-33758006D01*
X64473384Y-33929120D01*
X63382953Y-33929120D01*
X63330552Y-33876719D01*
X62843559Y-33675000D01*
X62316441Y-33675000D01*
X61829448Y-33876719D01*
X61456719Y-34249448D01*
X61310000Y-34603659D01*
X61163281Y-34249448D01*
X60790552Y-33876719D01*
X60303559Y-33675000D01*
X59776441Y-33675000D01*
X59289448Y-33876719D01*
X58916719Y-34249448D01*
X58770000Y-34603659D01*
X58623281Y-34249448D01*
X58250552Y-33876719D01*
X57763559Y-33675000D01*
X57236441Y-33675000D01*
X56749448Y-33876719D01*
X56376719Y-34249448D01*
X56230000Y-34603659D01*
X56083281Y-34249448D01*
X55710552Y-33876719D01*
X55223559Y-33675000D01*
X54696441Y-33675000D01*
X54209448Y-33876719D01*
X53836719Y-34249448D01*
X53690000Y-34603659D01*
X53543281Y-34249448D01*
X53170552Y-33876719D01*
X52683559Y-33675000D01*
X52156441Y-33675000D01*
X51669448Y-33876719D01*
X51296719Y-34249448D01*
X51150000Y-34603659D01*
X51003281Y-34249448D01*
X50630552Y-33876719D01*
X50143559Y-33675000D01*
X49616441Y-33675000D01*
X49129448Y-33876719D01*
X48756719Y-34249448D01*
X48610000Y-34603659D01*
X48463281Y-34249448D01*
X48090552Y-33876719D01*
X47603559Y-33675000D01*
X47076441Y-33675000D01*
X46589448Y-33876719D01*
X46216719Y-34249448D01*
X46070000Y-34603659D01*
X45923281Y-34249448D01*
X45550552Y-33876719D01*
X45063559Y-33675000D01*
X44536441Y-33675000D01*
X44049448Y-33876719D01*
X43676719Y-34249448D01*
X43475000Y-34736441D01*
X33337512Y-34736441D01*
X33428734Y-34580957D01*
X33438402Y-34559444D01*
X33450411Y-34539139D01*
X33468572Y-34492316D01*
X33468579Y-34492300D01*
X33468581Y-34492291D01*
X33692181Y-33804120D01*
X33697004Y-33781036D01*
X33704373Y-33758623D01*
X33712056Y-33708990D01*
X33712059Y-33708974D01*
X33712059Y-33708966D01*
X33782669Y-32988833D01*
X33782422Y-32965245D01*
X33784806Y-32941778D01*
X33781652Y-32891657D01*
X33781652Y-32891639D01*
X33781650Y-32891631D01*
X33695974Y-32173132D01*
X33674110Y-32078424D01*
X33664107Y-32057359D01*
X33348826Y-30617094D01*
X33675000Y-30617094D01*
X33675000Y-31382906D01*
X33968064Y-32090425D01*
X34509575Y-32631936D01*
X35217094Y-32925000D01*
X35982906Y-32925000D01*
X36690425Y-32631936D01*
X37231936Y-32090425D01*
X37525000Y-31382906D01*
X37525000Y-30617094D01*
X37231936Y-29909575D01*
X36690425Y-29368064D01*
X35982906Y-29075000D01*
X35217094Y-29075000D01*
X34509575Y-29368064D01*
X33968064Y-29909575D01*
X33675000Y-30617094D01*
X33348826Y-30617094D01*
X32800113Y-28110476D01*
X32796592Y-28102416D01*
X32767239Y-27989482D01*
X32765701Y-27985427D01*
X32764986Y-27981139D01*
X32748737Y-27933600D01*
X32476484Y-27262111D01*
X32465312Y-27241336D01*
X32456526Y-27219447D01*
X32430453Y-27176514D01*
X32430448Y-27176505D01*
X32430445Y-27176501D01*
X32374028Y-27094320D01*
X87800000Y-27094320D01*
X87826109Y-27225580D01*
X87873787Y-27296936D01*
X87892017Y-27325222D01*
X87895724Y-27329767D01*
X87925568Y-27374432D01*
X87932341Y-27378958D01*
X88385693Y-27928355D01*
X88419504Y-27961087D01*
X88452826Y-27994259D01*
X88457772Y-27998134D01*
X89032968Y-28442234D01*
X89073184Y-28466658D01*
X89113034Y-28491628D01*
X89118715Y-28494310D01*
X89778007Y-28799940D01*
X89822646Y-28814851D01*
X89867026Y-28830368D01*
X89873161Y-28831725D01*
X90583781Y-28983695D01*
X90630563Y-28988340D01*
X90677329Y-28993645D01*
X90683612Y-28993609D01*
X91410242Y-28984366D01*
X91456930Y-28978526D01*
X91503669Y-28973343D01*
X91509788Y-28971916D01*
X92216313Y-28801919D01*
X92260544Y-28785882D01*
X92304977Y-28770471D01*
X92310627Y-28767723D01*
X92961931Y-28445421D01*
X93001522Y-28419976D01*
X93041424Y-28395111D01*
X93046321Y-28391183D01*
X93046326Y-28391180D01*
X93046330Y-28391176D01*
X93610040Y-27932592D01*
X93643007Y-27899011D01*
X93676411Y-27865921D01*
X93680320Y-27861002D01*
X94128425Y-27288920D01*
X94153127Y-27248879D01*
X94178377Y-27209201D01*
X94181099Y-27203538D01*
X94491324Y-26546396D01*
X94506543Y-26501870D01*
X94522372Y-26457593D01*
X94523772Y-26451467D01*
X94680700Y-25741925D01*
X94685677Y-25695130D01*
X94691303Y-25648448D01*
X94691311Y-25642165D01*
X94687140Y-24915489D01*
X94681622Y-24868718D01*
X94676769Y-24821987D01*
X94675385Y-24815858D01*
X94510324Y-24108164D01*
X94494587Y-24063796D01*
X94479496Y-24019284D01*
X94476788Y-24013614D01*
X94159041Y-23360076D01*
X94133868Y-23320301D01*
X94109287Y-23280233D01*
X94105391Y-23275304D01*
X93650749Y-22708403D01*
X93617388Y-22675191D01*
X93584543Y-22641568D01*
X93579652Y-22637625D01*
X93010713Y-22185537D01*
X92970831Y-22160547D01*
X92931345Y-22135030D01*
X92925701Y-22132268D01*
X92270740Y-21817462D01*
X92226315Y-21801930D01*
X92182154Y-21785794D01*
X92176039Y-21784352D01*
X91467610Y-21622475D01*
X91420880Y-21617175D01*
X91374211Y-21611220D01*
X91367928Y-21611168D01*
X90641240Y-21610265D01*
X90594451Y-21615454D01*
X90547668Y-21619983D01*
X90541529Y-21621324D01*
X89832701Y-21781440D01*
X89788243Y-21796860D01*
X89743606Y-21811647D01*
X89737918Y-21814315D01*
X89082176Y-22127493D01*
X89042217Y-22152393D01*
X89001990Y-22176687D01*
X88997036Y-22180548D01*
X88997032Y-22180550D01*
X88997029Y-22180553D01*
X88426972Y-22631222D01*
X88393550Y-22664329D01*
X88359676Y-22696960D01*
X88355699Y-22701824D01*
X87942812Y-23214047D01*
X87925569Y-23225568D01*
X87826110Y-23374419D01*
X87800001Y-23505679D01*
X87800000Y-27094320D01*
X32374028Y-27094320D01*
X32020355Y-26579142D01*
X32004986Y-26561255D01*
X31991701Y-26541757D01*
X31957020Y-26505428D01*
X31957011Y-26505418D01*
X31957006Y-26505414D01*
X31428207Y-26010051D01*
X31409346Y-25995874D01*
X31392193Y-25979693D01*
X31350509Y-25951650D01*
X30727670Y-25581392D01*
X30706209Y-25571598D01*
X30685977Y-25559475D01*
X30639259Y-25541044D01*
X30639243Y-25541037D01*
X30639234Y-25541035D01*
X29951426Y-25313163D01*
X29928367Y-25308207D01*
X29906001Y-25300710D01*
X29856398Y-25292738D01*
X29135692Y-25217877D01*
X29038494Y-25218334D01*
X29031084Y-25220000D01*
X17165402Y-25220000D01*
X17152912Y-25217443D01*
X17102709Y-25215542D01*
X16950520Y-25218279D01*
X16946215Y-25218825D01*
X16941885Y-25218517D01*
X16891863Y-25223184D01*
X16175297Y-25330661D01*
X16152484Y-25336659D01*
X16129144Y-25340076D01*
X16081310Y-25355370D01*
X16081292Y-25355375D01*
X16081284Y-25355379D01*
X15404520Y-25614217D01*
X15383525Y-25624975D01*
X15361466Y-25633323D01*
X15318030Y-25658533D01*
X15318015Y-25658541D01*
X15318009Y-25658546D01*
X14712613Y-26056673D01*
X14694426Y-26071681D01*
X14674666Y-26084577D01*
X14637644Y-26118538D01*
X14131858Y-26637383D01*
X14117317Y-26655948D01*
X14100788Y-26672785D01*
X14071932Y-26713892D01*
X14071922Y-26713904D01*
X14071919Y-26713911D01*
X13689349Y-27329256D01*
X13679134Y-27350510D01*
X13666606Y-27370504D01*
X13647243Y-27416862D01*
X13411138Y-28084718D01*
X13399886Y-28110476D01*
X12535292Y-32060103D01*
X12521686Y-32091098D01*
X12509278Y-32139781D01*
X12466512Y-32357765D01*
X12465940Y-32364440D01*
X12464136Y-32370900D01*
X12458711Y-32420846D01*
X12420840Y-33143450D01*
X12422156Y-33166997D01*
X12420839Y-33190553D01*
X475000Y-33190553D01*
X475000Y-30617094D01*
X8675000Y-30617094D01*
X8675000Y-31382906D01*
X8968064Y-32090425D01*
X9509575Y-32631936D01*
X10217094Y-32925000D01*
X10982906Y-32925000D01*
X11690425Y-32631936D01*
X12231936Y-32090425D01*
X12525000Y-31382906D01*
X12525000Y-30617094D01*
X12231936Y-29909575D01*
X11690425Y-29368064D01*
X10982906Y-29075000D01*
X10217094Y-29075000D01*
X9509575Y-29368064D01*
X8968064Y-29909575D01*
X8675000Y-30617094D01*
X475000Y-30617094D01*
X475000Y-22240870D01*
X33500000Y-22240870D01*
X33500000Y-22559130D01*
X33621793Y-22853164D01*
X33846836Y-23078207D01*
X34140870Y-23200000D01*
X34459130Y-23200000D01*
X34579841Y-23150000D01*
X41520159Y-23150000D01*
X41640870Y-23200000D01*
X41959130Y-23200000D01*
X42079841Y-23150000D01*
X48820159Y-23150000D01*
X48940870Y-23200000D01*
X49259130Y-23200000D01*
X49379841Y-23150000D01*
X56120159Y-23150000D01*
X56240870Y-23200000D01*
X56559130Y-23200000D01*
X56679841Y-23150000D01*
X63420159Y-23150000D01*
X63540870Y-23200000D01*
X63859130Y-23200000D01*
X64153164Y-23078207D01*
X64378207Y-22853164D01*
X64500000Y-22559130D01*
X64500000Y-22240870D01*
X64378207Y-21946836D01*
X64153164Y-21721793D01*
X63859130Y-21600000D01*
X63540870Y-21600000D01*
X63420159Y-21650000D01*
X56679841Y-21650000D01*
X56559130Y-21600000D01*
X56240870Y-21600000D01*
X56120159Y-21650000D01*
X49379841Y-21650000D01*
X49259130Y-21600000D01*
X48940870Y-21600000D01*
X48820159Y-21650000D01*
X42079841Y-21650000D01*
X41959130Y-21600000D01*
X41640870Y-21600000D01*
X41520159Y-21650000D01*
X34579841Y-21650000D01*
X34459130Y-21600000D01*
X34140870Y-21600000D01*
X33846836Y-21721793D01*
X33621793Y-21946836D01*
X33500000Y-22240870D01*
X475000Y-22240870D01*
X475000Y-17781196D01*
X9200000Y-17781196D01*
X9200000Y-18218804D01*
X9367465Y-18623100D01*
X9676900Y-18932535D01*
X10081196Y-19100000D01*
X10518804Y-19100000D01*
X10923100Y-18932535D01*
X11232535Y-18623100D01*
X11400000Y-18218804D01*
X11400000Y-17781196D01*
X11700000Y-17781196D01*
X11700000Y-18218804D01*
X11867465Y-18623100D01*
X12176900Y-18932535D01*
X12581196Y-19100000D01*
X13018804Y-19100000D01*
X13423100Y-18932535D01*
X13732535Y-18623100D01*
X13900000Y-18218804D01*
X13900000Y-17781196D01*
X14200000Y-17781196D01*
X14200000Y-18218804D01*
X14367465Y-18623100D01*
X14676900Y-18932535D01*
X15081196Y-19100000D01*
X15518804Y-19100000D01*
X15923100Y-18932535D01*
X16232535Y-18623100D01*
X16400000Y-18218804D01*
X16400000Y-17781196D01*
X16232535Y-17376900D01*
X15923100Y-17067465D01*
X15518804Y-16900000D01*
X15081196Y-16900000D01*
X14676900Y-17067465D01*
X14367465Y-17376900D01*
X14200000Y-17781196D01*
X13900000Y-17781196D01*
X13732535Y-17376900D01*
X13423100Y-17067465D01*
X13018804Y-16900000D01*
X12581196Y-16900000D01*
X12176900Y-17067465D01*
X11867465Y-17376900D01*
X11700000Y-17781196D01*
X11400000Y-17781196D01*
X11232535Y-17376900D01*
X10923100Y-17067465D01*
X10518804Y-16900000D01*
X10081196Y-16900000D01*
X9676900Y-17067465D01*
X9367465Y-17376900D01*
X9200000Y-17781196D01*
X475000Y-17781196D01*
X475000Y-15281196D01*
X9200000Y-15281196D01*
X9200000Y-15718804D01*
X9367465Y-16123100D01*
X9676900Y-16432535D01*
X10081196Y-16600000D01*
X10518804Y-16600000D01*
X10923100Y-16432535D01*
X11232535Y-16123100D01*
X11400000Y-15718804D01*
X11400000Y-15281196D01*
X11700000Y-15281196D01*
X11700000Y-15718804D01*
X11867465Y-16123100D01*
X12176900Y-16432535D01*
X12581196Y-16600000D01*
X13018804Y-16600000D01*
X13423100Y-16432535D01*
X13732535Y-16123100D01*
X13900000Y-15718804D01*
X13900000Y-15281196D01*
X14200000Y-15281196D01*
X14200000Y-15718804D01*
X14367465Y-16123100D01*
X14676900Y-16432535D01*
X15081196Y-16600000D01*
X15518804Y-16600000D01*
X15923100Y-16432535D01*
X16232535Y-16123100D01*
X16400000Y-15718804D01*
X16400000Y-15281196D01*
X16232535Y-14876900D01*
X15923100Y-14567465D01*
X15518804Y-14400000D01*
X15081196Y-14400000D01*
X14676900Y-14567465D01*
X14367465Y-14876900D01*
X14200000Y-15281196D01*
X13900000Y-15281196D01*
X13732535Y-14876900D01*
X13423100Y-14567465D01*
X13018804Y-14400000D01*
X12581196Y-14400000D01*
X12176900Y-14567465D01*
X11867465Y-14876900D01*
X11700000Y-15281196D01*
X11400000Y-15281196D01*
X11232535Y-14876900D01*
X10923100Y-14567465D01*
X10518804Y-14400000D01*
X10081196Y-14400000D01*
X9676900Y-14567465D01*
X9367465Y-14876900D01*
X9200000Y-15281196D01*
X475000Y-15281196D01*
X475000Y-12781196D01*
X9200000Y-12781196D01*
X9200000Y-13218804D01*
X9367465Y-13623100D01*
X9676900Y-13932535D01*
X10081196Y-14100000D01*
X10518804Y-14100000D01*
X10923100Y-13932535D01*
X11232535Y-13623100D01*
X11400000Y-13218804D01*
X11400000Y-12781196D01*
X11700000Y-12781196D01*
X11700000Y-13218804D01*
X11867465Y-13623100D01*
X12176900Y-13932535D01*
X12581196Y-14100000D01*
X13018804Y-14100000D01*
X13423100Y-13932535D01*
X13732535Y-13623100D01*
X13900000Y-13218804D01*
X13900000Y-12781196D01*
X14200000Y-12781196D01*
X14200000Y-13218804D01*
X14367465Y-13623100D01*
X14676900Y-13932535D01*
X15081196Y-14100000D01*
X15518804Y-14100000D01*
X15819129Y-13975601D01*
X85850000Y-13975601D01*
X85850000Y-16024399D01*
X86634041Y-17917240D01*
X88082760Y-19365959D01*
X89975601Y-20150000D01*
X92024399Y-20150000D01*
X93917240Y-19365959D01*
X95365959Y-17917240D01*
X96150000Y-16024399D01*
X96150000Y-13975601D01*
X95365959Y-12082760D01*
X93917240Y-10634041D01*
X92024399Y-9850000D01*
X89975601Y-9850000D01*
X88082760Y-10634041D01*
X86634041Y-12082760D01*
X85850000Y-13975601D01*
X15819129Y-13975601D01*
X15923100Y-13932535D01*
X16232535Y-13623100D01*
X16400000Y-13218804D01*
X16400000Y-12781196D01*
X16232535Y-12376900D01*
X15923100Y-12067465D01*
X15518804Y-11900000D01*
X15081196Y-11900000D01*
X14676900Y-12067465D01*
X14367465Y-12376900D01*
X14200000Y-12781196D01*
X13900000Y-12781196D01*
X13732535Y-12376900D01*
X13423100Y-12067465D01*
X13018804Y-11900000D01*
X12581196Y-11900000D01*
X12176900Y-12067465D01*
X11867465Y-12376900D01*
X11700000Y-12781196D01*
X11400000Y-12781196D01*
X11232535Y-12376900D01*
X10923100Y-12067465D01*
X10518804Y-11900000D01*
X10081196Y-11900000D01*
X9676900Y-12067465D01*
X9367465Y-12376900D01*
X9200000Y-12781196D01*
X475000Y-12781196D01*
X475000Y-8359242D01*
X35100000Y-8359242D01*
X35100000Y-9910758D01*
X35693739Y-11344173D01*
X36790827Y-12441261D01*
X38224242Y-13035000D01*
X39775758Y-13035000D01*
X41209173Y-12441261D01*
X42306261Y-11344173D01*
X42900000Y-9910758D01*
X42900000Y-8359242D01*
X67100000Y-8359242D01*
X67100000Y-9910758D01*
X67693739Y-11344173D01*
X68790827Y-12441261D01*
X70224242Y-13035000D01*
X71775758Y-13035000D01*
X73209173Y-12441261D01*
X74306261Y-11344173D01*
X74900000Y-9910758D01*
X74900000Y-8359242D01*
X74306261Y-6925827D01*
X73209173Y-5828739D01*
X71775758Y-5235000D01*
X70224242Y-5235000D01*
X68790827Y-5828739D01*
X67693739Y-6925827D01*
X67100000Y-8359242D01*
X42900000Y-8359242D01*
X42306261Y-6925827D01*
X41209173Y-5828739D01*
X39775758Y-5235000D01*
X38224242Y-5235000D01*
X36790827Y-5828739D01*
X35693739Y-6925827D01*
X35100000Y-8359242D01*
X475000Y-8359242D01*
X475000Y-2033842D01*
X540949Y-1573342D01*
X719342Y-1180986D01*
X1000688Y-854468D01*
X1362368Y-620039D01*
X1791043Y-491838D01*
X2017626Y-475000D01*
X103966158Y-475000D01*
X104426658Y-540949D01*
X104426658Y-540949D01*
G37*
X104426658Y-540949D02*
X104819014Y-719342D01*
X105145532Y-1000688D01*
X105379961Y-1362368D01*
X105508162Y-1791043D01*
X105525000Y-2017626D01*
X105525001Y-37966151D01*
X105459052Y-38426656D01*
X105280658Y-38819015D01*
X104999312Y-39145532D01*
X104637631Y-39379962D01*
X104208957Y-39508162D01*
X103982374Y-39525000D01*
X2033842Y-39525000D01*
X1573344Y-39459052D01*
X1180985Y-39280658D01*
X854468Y-38999312D01*
X620038Y-38637631D01*
X491838Y-38208957D01*
X475000Y-37982374D01*
X475000Y-33190553D01*
X12420839Y-33190553D01*
X12426264Y-33240481D01*
X12426265Y-33240498D01*
X12426267Y-33240505D01*
X12544447Y-33954377D01*
X12550791Y-33977099D01*
X12554562Y-34000382D01*
X12570583Y-34047984D01*
X12570586Y-34047996D01*
X12570587Y-34047997D01*
X12839308Y-34719846D01*
X12850379Y-34740667D01*
X12859064Y-34762604D01*
X12884935Y-34805659D01*
X12884940Y-34805668D01*
X12884943Y-34805672D01*
X13291661Y-35404140D01*
X13306950Y-35422105D01*
X13320139Y-35441658D01*
X13354648Y-35478150D01*
X13354657Y-35478161D01*
X13354662Y-35478165D01*
X13880404Y-35975334D01*
X13899189Y-35989592D01*
X13916273Y-36005862D01*
X13957813Y-36034091D01*
X13957826Y-36034101D01*
X13957833Y-36034104D01*
X14578068Y-36406780D01*
X14599482Y-36416675D01*
X14619658Y-36428894D01*
X14666298Y-36447548D01*
X14666304Y-36447551D01*
X14666307Y-36447552D01*
X15352105Y-36678348D01*
X15375142Y-36683413D01*
X15397472Y-36691015D01*
X15447037Y-36699220D01*
X16146673Y-36775225D01*
X16170679Y-36780000D01*
X30029321Y-36780000D01*
X30036696Y-36778533D01*
X30221937Y-36772388D01*
X30228577Y-36771443D01*
X30235273Y-36771747D01*
X30285159Y-36765799D01*
X30997762Y-36640148D01*
X31020416Y-36633566D01*
X31043657Y-36629552D01*
X31091102Y-36613030D01*
X31760099Y-36337289D01*
X31780810Y-36325997D01*
X31802649Y-36317085D01*
X31845425Y-36290769D01*
X31845439Y-36290761D01*
X31845445Y-36290756D01*
X32439619Y-35877794D01*
X32457422Y-35862318D01*
X32476837Y-35848925D01*
X32512967Y-35814035D01*
X32512977Y-35814026D01*
X32512981Y-35814021D01*
X33004617Y-35283103D01*
X33018678Y-35264171D01*
X33034769Y-35246915D01*
X33062564Y-35205078D01*
X33062570Y-35205070D01*
X33062572Y-35205066D01*
X33337512Y-34736441D01*
X43475000Y-34736441D01*
X43475000Y-35263559D01*
X43676719Y-35750552D01*
X44049448Y-36123281D01*
X44536441Y-36325000D01*
X45063559Y-36325000D01*
X45550552Y-36123281D01*
X45923281Y-35750552D01*
X46070000Y-35396341D01*
X46216719Y-35750552D01*
X46589448Y-36123281D01*
X47076441Y-36325000D01*
X47603559Y-36325000D01*
X48090552Y-36123281D01*
X48463281Y-35750552D01*
X48610000Y-35396341D01*
X48756719Y-35750552D01*
X49129448Y-36123281D01*
X49616441Y-36325000D01*
X50143559Y-36325000D01*
X50630552Y-36123281D01*
X51003281Y-35750552D01*
X51150000Y-35396341D01*
X51296719Y-35750552D01*
X51669448Y-36123281D01*
X52156441Y-36325000D01*
X52683559Y-36325000D01*
X53170552Y-36123281D01*
X53543281Y-35750552D01*
X53690000Y-35396341D01*
X53836719Y-35750552D01*
X54209448Y-36123281D01*
X54696441Y-36325000D01*
X55223559Y-36325000D01*
X55710552Y-36123281D01*
X56083281Y-35750552D01*
X56230000Y-35396341D01*
X56376719Y-35750552D01*
X56749448Y-36123281D01*
X57236441Y-36325000D01*
X57763559Y-36325000D01*
X58250552Y-36123281D01*
X58623281Y-35750552D01*
X58770000Y-35396341D01*
X58916719Y-35750552D01*
X59289448Y-36123281D01*
X59776441Y-36325000D01*
X60303559Y-36325000D01*
X60790552Y-36123281D01*
X61163281Y-35750552D01*
X61310000Y-35396341D01*
X61456719Y-35750552D01*
X61829448Y-36123281D01*
X62316441Y-36325000D01*
X62843559Y-36325000D01*
X63330552Y-36123281D01*
X63382953Y-36070880D01*
X64473384Y-36070880D01*
X64588459Y-36241994D01*
X65104210Y-36350865D01*
X65622365Y-36254079D01*
X65651541Y-36241994D01*
X65766616Y-36070880D01*
X65120000Y-35424264D01*
X64473384Y-36070880D01*
X63382953Y-36070880D01*
X63703281Y-35750552D01*
X63847324Y-35402802D01*
X63865921Y-35502365D01*
X63878006Y-35531541D01*
X64049120Y-35646616D01*
X64695736Y-35000000D01*
X65544264Y-35000000D01*
X66190880Y-35646616D01*
X66361994Y-35531541D01*
X66470865Y-35015790D01*
X66418686Y-34736441D01*
X76495000Y-34736441D01*
X76495000Y-35263559D01*
X76696719Y-35750552D01*
X77069448Y-36123281D01*
X77556441Y-36325000D01*
X78083559Y-36325000D01*
X78570552Y-36123281D01*
X78943281Y-35750552D01*
X79090000Y-35396341D01*
X79236719Y-35750552D01*
X79609448Y-36123281D01*
X80096441Y-36325000D01*
X80623559Y-36325000D01*
X81110552Y-36123281D01*
X81483281Y-35750552D01*
X81630000Y-35396341D01*
X81776719Y-35750552D01*
X82149448Y-36123281D01*
X82636441Y-36325000D01*
X83163559Y-36325000D01*
X83650552Y-36123281D01*
X84023281Y-35750552D01*
X84170000Y-35396341D01*
X84316719Y-35750552D01*
X84689448Y-36123281D01*
X85176441Y-36325000D01*
X85703559Y-36325000D01*
X86190552Y-36123281D01*
X86563281Y-35750552D01*
X86710000Y-35396341D01*
X86856719Y-35750552D01*
X87229448Y-36123281D01*
X87716441Y-36325000D01*
X88243559Y-36325000D01*
X88730552Y-36123281D01*
X89103281Y-35750552D01*
X89305000Y-35263559D01*
X89305000Y-34736441D01*
X89103281Y-34249448D01*
X88730552Y-33876719D01*
X88243559Y-33675000D01*
X87716441Y-33675000D01*
X87229448Y-33876719D01*
X86856719Y-34249448D01*
X86710000Y-34603659D01*
X86563281Y-34249448D01*
X86190552Y-33876719D01*
X85703559Y-33675000D01*
X85176441Y-33675000D01*
X84689448Y-33876719D01*
X84316719Y-34249448D01*
X84170000Y-34603659D01*
X84023281Y-34249448D01*
X83650552Y-33876719D01*
X83163559Y-33675000D01*
X82636441Y-33675000D01*
X82149448Y-33876719D01*
X81776719Y-34249448D01*
X81630000Y-34603659D01*
X81483281Y-34249448D01*
X81110552Y-33876719D01*
X80623559Y-33675000D01*
X80096441Y-33675000D01*
X79609448Y-33876719D01*
X79236719Y-34249448D01*
X79090000Y-34603659D01*
X78943281Y-34249448D01*
X78570552Y-33876719D01*
X78083559Y-33675000D01*
X77556441Y-33675000D01*
X77069448Y-33876719D01*
X76696719Y-34249448D01*
X76495000Y-34736441D01*
X66418686Y-34736441D01*
X66374079Y-34497635D01*
X66361994Y-34468459D01*
X66190880Y-34353384D01*
X65544264Y-35000000D01*
X64695736Y-35000000D01*
X64049120Y-34353384D01*
X63878006Y-34468459D01*
X63849646Y-34602806D01*
X63703281Y-34249448D01*
X63382953Y-33929120D01*
X64473384Y-33929120D01*
X65120000Y-34575736D01*
X65766616Y-33929120D01*
X65651541Y-33758006D01*
X65135790Y-33649135D01*
X64617635Y-33745921D01*
X64588459Y-33758006D01*
X64473384Y-33929120D01*
X63382953Y-33929120D01*
X63330552Y-33876719D01*
X62843559Y-33675000D01*
X62316441Y-33675000D01*
X61829448Y-33876719D01*
X61456719Y-34249448D01*
X61310000Y-34603659D01*
X61163281Y-34249448D01*
X60790552Y-33876719D01*
X60303559Y-33675000D01*
X59776441Y-33675000D01*
X59289448Y-33876719D01*
X58916719Y-34249448D01*
X58770000Y-34603659D01*
X58623281Y-34249448D01*
X58250552Y-33876719D01*
X57763559Y-33675000D01*
X57236441Y-33675000D01*
X56749448Y-33876719D01*
X56376719Y-34249448D01*
X56230000Y-34603659D01*
X56083281Y-34249448D01*
X55710552Y-33876719D01*
X55223559Y-33675000D01*
X54696441Y-33675000D01*
X54209448Y-33876719D01*
X53836719Y-34249448D01*
X53690000Y-34603659D01*
X53543281Y-34249448D01*
X53170552Y-33876719D01*
X52683559Y-33675000D01*
X52156441Y-33675000D01*
X51669448Y-33876719D01*
X51296719Y-34249448D01*
X51150000Y-34603659D01*
X51003281Y-34249448D01*
X50630552Y-33876719D01*
X50143559Y-33675000D01*
X49616441Y-33675000D01*
X49129448Y-33876719D01*
X48756719Y-34249448D01*
X48610000Y-34603659D01*
X48463281Y-34249448D01*
X48090552Y-33876719D01*
X47603559Y-33675000D01*
X47076441Y-33675000D01*
X46589448Y-33876719D01*
X46216719Y-34249448D01*
X46070000Y-34603659D01*
X45923281Y-34249448D01*
X45550552Y-33876719D01*
X45063559Y-33675000D01*
X44536441Y-33675000D01*
X44049448Y-33876719D01*
X43676719Y-34249448D01*
X43475000Y-34736441D01*
X33337512Y-34736441D01*
X33428734Y-34580957D01*
X33438402Y-34559444D01*
X33450411Y-34539139D01*
X33468572Y-34492316D01*
X33468579Y-34492300D01*
X33468581Y-34492291D01*
X33692181Y-33804120D01*
X33697004Y-33781036D01*
X33704373Y-33758623D01*
X33712056Y-33708990D01*
X33712059Y-33708974D01*
X33712059Y-33708966D01*
X33782669Y-32988833D01*
X33782422Y-32965245D01*
X33784806Y-32941778D01*
X33781652Y-32891657D01*
X33781652Y-32891639D01*
X33781650Y-32891631D01*
X33695974Y-32173132D01*
X33674110Y-32078424D01*
X33664107Y-32057359D01*
X33348826Y-30617094D01*
X33675000Y-30617094D01*
X33675000Y-31382906D01*
X33968064Y-32090425D01*
X34509575Y-32631936D01*
X35217094Y-32925000D01*
X35982906Y-32925000D01*
X36690425Y-32631936D01*
X37231936Y-32090425D01*
X37525000Y-31382906D01*
X37525000Y-30617094D01*
X37231936Y-29909575D01*
X36690425Y-29368064D01*
X35982906Y-29075000D01*
X35217094Y-29075000D01*
X34509575Y-29368064D01*
X33968064Y-29909575D01*
X33675000Y-30617094D01*
X33348826Y-30617094D01*
X32800113Y-28110476D01*
X32796592Y-28102416D01*
X32767239Y-27989482D01*
X32765701Y-27985427D01*
X32764986Y-27981139D01*
X32748737Y-27933600D01*
X32476484Y-27262111D01*
X32465312Y-27241336D01*
X32456526Y-27219447D01*
X32430453Y-27176514D01*
X32430448Y-27176505D01*
X32430445Y-27176501D01*
X32374028Y-27094320D01*
X87800000Y-27094320D01*
X87826109Y-27225580D01*
X87873787Y-27296936D01*
X87892017Y-27325222D01*
X87895724Y-27329767D01*
X87925568Y-27374432D01*
X87932341Y-27378958D01*
X88385693Y-27928355D01*
X88419504Y-27961087D01*
X88452826Y-27994259D01*
X88457772Y-27998134D01*
X89032968Y-28442234D01*
X89073184Y-28466658D01*
X89113034Y-28491628D01*
X89118715Y-28494310D01*
X89778007Y-28799940D01*
X89822646Y-28814851D01*
X89867026Y-28830368D01*
X89873161Y-28831725D01*
X90583781Y-28983695D01*
X90630563Y-28988340D01*
X90677329Y-28993645D01*
X90683612Y-28993609D01*
X91410242Y-28984366D01*
X91456930Y-28978526D01*
X91503669Y-28973343D01*
X91509788Y-28971916D01*
X92216313Y-28801919D01*
X92260544Y-28785882D01*
X92304977Y-28770471D01*
X92310627Y-28767723D01*
X92961931Y-28445421D01*
X93001522Y-28419976D01*
X93041424Y-28395111D01*
X93046321Y-28391183D01*
X93046326Y-28391180D01*
X93046330Y-28391176D01*
X93610040Y-27932592D01*
X93643007Y-27899011D01*
X93676411Y-27865921D01*
X93680320Y-27861002D01*
X94128425Y-27288920D01*
X94153127Y-27248879D01*
X94178377Y-27209201D01*
X94181099Y-27203538D01*
X94491324Y-26546396D01*
X94506543Y-26501870D01*
X94522372Y-26457593D01*
X94523772Y-26451467D01*
X94680700Y-25741925D01*
X94685677Y-25695130D01*
X94691303Y-25648448D01*
X94691311Y-25642165D01*
X94687140Y-24915489D01*
X94681622Y-24868718D01*
X94676769Y-24821987D01*
X94675385Y-24815858D01*
X94510324Y-24108164D01*
X94494587Y-24063796D01*
X94479496Y-24019284D01*
X94476788Y-24013614D01*
X94159041Y-23360076D01*
X94133868Y-23320301D01*
X94109287Y-23280233D01*
X94105391Y-23275304D01*
X93650749Y-22708403D01*
X93617388Y-22675191D01*
X93584543Y-22641568D01*
X93579652Y-22637625D01*
X93010713Y-22185537D01*
X92970831Y-22160547D01*
X92931345Y-22135030D01*
X92925701Y-22132268D01*
X92270740Y-21817462D01*
X92226315Y-21801930D01*
X92182154Y-21785794D01*
X92176039Y-21784352D01*
X91467610Y-21622475D01*
X91420880Y-21617175D01*
X91374211Y-21611220D01*
X91367928Y-21611168D01*
X90641240Y-21610265D01*
X90594451Y-21615454D01*
X90547668Y-21619983D01*
X90541529Y-21621324D01*
X89832701Y-21781440D01*
X89788243Y-21796860D01*
X89743606Y-21811647D01*
X89737918Y-21814315D01*
X89082176Y-22127493D01*
X89042217Y-22152393D01*
X89001990Y-22176687D01*
X88997036Y-22180548D01*
X88997032Y-22180550D01*
X88997029Y-22180553D01*
X88426972Y-22631222D01*
X88393550Y-22664329D01*
X88359676Y-22696960D01*
X88355699Y-22701824D01*
X87942812Y-23214047D01*
X87925569Y-23225568D01*
X87826110Y-23374419D01*
X87800001Y-23505679D01*
X87800000Y-27094320D01*
X32374028Y-27094320D01*
X32020355Y-26579142D01*
X32004986Y-26561255D01*
X31991701Y-26541757D01*
X31957020Y-26505428D01*
X31957011Y-26505418D01*
X31957006Y-26505414D01*
X31428207Y-26010051D01*
X31409346Y-25995874D01*
X31392193Y-25979693D01*
X31350509Y-25951650D01*
X30727670Y-25581392D01*
X30706209Y-25571598D01*
X30685977Y-25559475D01*
X30639259Y-25541044D01*
X30639243Y-25541037D01*
X30639234Y-25541035D01*
X29951426Y-25313163D01*
X29928367Y-25308207D01*
X29906001Y-25300710D01*
X29856398Y-25292738D01*
X29135692Y-25217877D01*
X29038494Y-25218334D01*
X29031084Y-25220000D01*
X17165402Y-25220000D01*
X17152912Y-25217443D01*
X17102709Y-25215542D01*
X16950520Y-25218279D01*
X16946215Y-25218825D01*
X16941885Y-25218517D01*
X16891863Y-25223184D01*
X16175297Y-25330661D01*
X16152484Y-25336659D01*
X16129144Y-25340076D01*
X16081310Y-25355370D01*
X16081292Y-25355375D01*
X16081284Y-25355379D01*
X15404520Y-25614217D01*
X15383525Y-25624975D01*
X15361466Y-25633323D01*
X15318030Y-25658533D01*
X15318015Y-25658541D01*
X15318009Y-25658546D01*
X14712613Y-26056673D01*
X14694426Y-26071681D01*
X14674666Y-26084577D01*
X14637644Y-26118538D01*
X14131858Y-26637383D01*
X14117317Y-26655948D01*
X14100788Y-26672785D01*
X14071932Y-26713892D01*
X14071922Y-26713904D01*
X14071919Y-26713911D01*
X13689349Y-27329256D01*
X13679134Y-27350510D01*
X13666606Y-27370504D01*
X13647243Y-27416862D01*
X13411138Y-28084718D01*
X13399886Y-28110476D01*
X12535292Y-32060103D01*
X12521686Y-32091098D01*
X12509278Y-32139781D01*
X12466512Y-32357765D01*
X12465940Y-32364440D01*
X12464136Y-32370900D01*
X12458711Y-32420846D01*
X12420840Y-33143450D01*
X12422156Y-33166997D01*
X12420839Y-33190553D01*
X475000Y-33190553D01*
X475000Y-30617094D01*
X8675000Y-30617094D01*
X8675000Y-31382906D01*
X8968064Y-32090425D01*
X9509575Y-32631936D01*
X10217094Y-32925000D01*
X10982906Y-32925000D01*
X11690425Y-32631936D01*
X12231936Y-32090425D01*
X12525000Y-31382906D01*
X12525000Y-30617094D01*
X12231936Y-29909575D01*
X11690425Y-29368064D01*
X10982906Y-29075000D01*
X10217094Y-29075000D01*
X9509575Y-29368064D01*
X8968064Y-29909575D01*
X8675000Y-30617094D01*
X475000Y-30617094D01*
X475000Y-22240870D01*
X33500000Y-22240870D01*
X33500000Y-22559130D01*
X33621793Y-22853164D01*
X33846836Y-23078207D01*
X34140870Y-23200000D01*
X34459130Y-23200000D01*
X34579841Y-23150000D01*
X41520159Y-23150000D01*
X41640870Y-23200000D01*
X41959130Y-23200000D01*
X42079841Y-23150000D01*
X48820159Y-23150000D01*
X48940870Y-23200000D01*
X49259130Y-23200000D01*
X49379841Y-23150000D01*
X56120159Y-23150000D01*
X56240870Y-23200000D01*
X56559130Y-23200000D01*
X56679841Y-23150000D01*
X63420159Y-23150000D01*
X63540870Y-23200000D01*
X63859130Y-23200000D01*
X64153164Y-23078207D01*
X64378207Y-22853164D01*
X64500000Y-22559130D01*
X64500000Y-22240870D01*
X64378207Y-21946836D01*
X64153164Y-21721793D01*
X63859130Y-21600000D01*
X63540870Y-21600000D01*
X63420159Y-21650000D01*
X56679841Y-21650000D01*
X56559130Y-21600000D01*
X56240870Y-21600000D01*
X56120159Y-21650000D01*
X49379841Y-21650000D01*
X49259130Y-21600000D01*
X48940870Y-21600000D01*
X48820159Y-21650000D01*
X42079841Y-21650000D01*
X41959130Y-21600000D01*
X41640870Y-21600000D01*
X41520159Y-21650000D01*
X34579841Y-21650000D01*
X34459130Y-21600000D01*
X34140870Y-21600000D01*
X33846836Y-21721793D01*
X33621793Y-21946836D01*
X33500000Y-22240870D01*
X475000Y-22240870D01*
X475000Y-17781196D01*
X9200000Y-17781196D01*
X9200000Y-18218804D01*
X9367465Y-18623100D01*
X9676900Y-18932535D01*
X10081196Y-19100000D01*
X10518804Y-19100000D01*
X10923100Y-18932535D01*
X11232535Y-18623100D01*
X11400000Y-18218804D01*
X11400000Y-17781196D01*
X11700000Y-17781196D01*
X11700000Y-18218804D01*
X11867465Y-18623100D01*
X12176900Y-18932535D01*
X12581196Y-19100000D01*
X13018804Y-19100000D01*
X13423100Y-18932535D01*
X13732535Y-18623100D01*
X13900000Y-18218804D01*
X13900000Y-17781196D01*
X14200000Y-17781196D01*
X14200000Y-18218804D01*
X14367465Y-18623100D01*
X14676900Y-18932535D01*
X15081196Y-19100000D01*
X15518804Y-19100000D01*
X15923100Y-18932535D01*
X16232535Y-18623100D01*
X16400000Y-18218804D01*
X16400000Y-17781196D01*
X16232535Y-17376900D01*
X15923100Y-17067465D01*
X15518804Y-16900000D01*
X15081196Y-16900000D01*
X14676900Y-17067465D01*
X14367465Y-17376900D01*
X14200000Y-17781196D01*
X13900000Y-17781196D01*
X13732535Y-17376900D01*
X13423100Y-17067465D01*
X13018804Y-16900000D01*
X12581196Y-16900000D01*
X12176900Y-17067465D01*
X11867465Y-17376900D01*
X11700000Y-17781196D01*
X11400000Y-17781196D01*
X11232535Y-17376900D01*
X10923100Y-17067465D01*
X10518804Y-16900000D01*
X10081196Y-16900000D01*
X9676900Y-17067465D01*
X9367465Y-17376900D01*
X9200000Y-17781196D01*
X475000Y-17781196D01*
X475000Y-15281196D01*
X9200000Y-15281196D01*
X9200000Y-15718804D01*
X9367465Y-16123100D01*
X9676900Y-16432535D01*
X10081196Y-16600000D01*
X10518804Y-16600000D01*
X10923100Y-16432535D01*
X11232535Y-16123100D01*
X11400000Y-15718804D01*
X11400000Y-15281196D01*
X11700000Y-15281196D01*
X11700000Y-15718804D01*
X11867465Y-16123100D01*
X12176900Y-16432535D01*
X12581196Y-16600000D01*
X13018804Y-16600000D01*
X13423100Y-16432535D01*
X13732535Y-16123100D01*
X13900000Y-15718804D01*
X13900000Y-15281196D01*
X14200000Y-15281196D01*
X14200000Y-15718804D01*
X14367465Y-16123100D01*
X14676900Y-16432535D01*
X15081196Y-16600000D01*
X15518804Y-16600000D01*
X15923100Y-16432535D01*
X16232535Y-16123100D01*
X16400000Y-15718804D01*
X16400000Y-15281196D01*
X16232535Y-14876900D01*
X15923100Y-14567465D01*
X15518804Y-14400000D01*
X15081196Y-14400000D01*
X14676900Y-14567465D01*
X14367465Y-14876900D01*
X14200000Y-15281196D01*
X13900000Y-15281196D01*
X13732535Y-14876900D01*
X13423100Y-14567465D01*
X13018804Y-14400000D01*
X12581196Y-14400000D01*
X12176900Y-14567465D01*
X11867465Y-14876900D01*
X11700000Y-15281196D01*
X11400000Y-15281196D01*
X11232535Y-14876900D01*
X10923100Y-14567465D01*
X10518804Y-14400000D01*
X10081196Y-14400000D01*
X9676900Y-14567465D01*
X9367465Y-14876900D01*
X9200000Y-15281196D01*
X475000Y-15281196D01*
X475000Y-12781196D01*
X9200000Y-12781196D01*
X9200000Y-13218804D01*
X9367465Y-13623100D01*
X9676900Y-13932535D01*
X10081196Y-14100000D01*
X10518804Y-14100000D01*
X10923100Y-13932535D01*
X11232535Y-13623100D01*
X11400000Y-13218804D01*
X11400000Y-12781196D01*
X11700000Y-12781196D01*
X11700000Y-13218804D01*
X11867465Y-13623100D01*
X12176900Y-13932535D01*
X12581196Y-14100000D01*
X13018804Y-14100000D01*
X13423100Y-13932535D01*
X13732535Y-13623100D01*
X13900000Y-13218804D01*
X13900000Y-12781196D01*
X14200000Y-12781196D01*
X14200000Y-13218804D01*
X14367465Y-13623100D01*
X14676900Y-13932535D01*
X15081196Y-14100000D01*
X15518804Y-14100000D01*
X15819129Y-13975601D01*
X85850000Y-13975601D01*
X85850000Y-16024399D01*
X86634041Y-17917240D01*
X88082760Y-19365959D01*
X89975601Y-20150000D01*
X92024399Y-20150000D01*
X93917240Y-19365959D01*
X95365959Y-17917240D01*
X96150000Y-16024399D01*
X96150000Y-13975601D01*
X95365959Y-12082760D01*
X93917240Y-10634041D01*
X92024399Y-9850000D01*
X89975601Y-9850000D01*
X88082760Y-10634041D01*
X86634041Y-12082760D01*
X85850000Y-13975601D01*
X15819129Y-13975601D01*
X15923100Y-13932535D01*
X16232535Y-13623100D01*
X16400000Y-13218804D01*
X16400000Y-12781196D01*
X16232535Y-12376900D01*
X15923100Y-12067465D01*
X15518804Y-11900000D01*
X15081196Y-11900000D01*
X14676900Y-12067465D01*
X14367465Y-12376900D01*
X14200000Y-12781196D01*
X13900000Y-12781196D01*
X13732535Y-12376900D01*
X13423100Y-12067465D01*
X13018804Y-11900000D01*
X12581196Y-11900000D01*
X12176900Y-12067465D01*
X11867465Y-12376900D01*
X11700000Y-12781196D01*
X11400000Y-12781196D01*
X11232535Y-12376900D01*
X10923100Y-12067465D01*
X10518804Y-11900000D01*
X10081196Y-11900000D01*
X9676900Y-12067465D01*
X9367465Y-12376900D01*
X9200000Y-12781196D01*
X475000Y-12781196D01*
X475000Y-8359242D01*
X35100000Y-8359242D01*
X35100000Y-9910758D01*
X35693739Y-11344173D01*
X36790827Y-12441261D01*
X38224242Y-13035000D01*
X39775758Y-13035000D01*
X41209173Y-12441261D01*
X42306261Y-11344173D01*
X42900000Y-9910758D01*
X42900000Y-8359242D01*
X67100000Y-8359242D01*
X67100000Y-9910758D01*
X67693739Y-11344173D01*
X68790827Y-12441261D01*
X70224242Y-13035000D01*
X71775758Y-13035000D01*
X73209173Y-12441261D01*
X74306261Y-11344173D01*
X74900000Y-9910758D01*
X74900000Y-8359242D01*
X74306261Y-6925827D01*
X73209173Y-5828739D01*
X71775758Y-5235000D01*
X70224242Y-5235000D01*
X68790827Y-5828739D01*
X67693739Y-6925827D01*
X67100000Y-8359242D01*
X42900000Y-8359242D01*
X42306261Y-6925827D01*
X41209173Y-5828739D01*
X39775758Y-5235000D01*
X38224242Y-5235000D01*
X36790827Y-5828739D01*
X35693739Y-6925827D01*
X35100000Y-8359242D01*
X475000Y-8359242D01*
X475000Y-2033842D01*
X540949Y-1573342D01*
X719342Y-1180986D01*
X1000688Y-854468D01*
X1362368Y-620039D01*
X1791043Y-491838D01*
X2017626Y-475000D01*
X103966158Y-475000D01*
X104426658Y-540949D01*
G04 #@! TD*
M02*
