G04 #@! TF.GenerationSoftware,KiCad,Pcbnew,5.1.5-52549c5~84~ubuntu18.04.1*
G04 #@! TF.CreationDate,2020-03-18T22:27:28-07:00*
G04 #@! TF.ProjectId,endcap,656e6463-6170-42e6-9b69-6361645f7063,rev?*
G04 #@! TF.SameCoordinates,PX2faf080PY3dfd240*
G04 #@! TF.FileFunction,Soldermask,Top*
G04 #@! TF.FilePolarity,Negative*
%FSLAX46Y46*%
G04 Gerber Fmt 4.6, Leading zero omitted, Abs format (unit mm)*
G04 Created by KiCad (PCBNEW 5.1.5-52549c5~84~ubuntu18.04.1) date 2020-03-18 22:27:28*
%MOMM*%
%LPD*%
G04 APERTURE LIST*
%ADD10C,0.100000*%
G04 APERTURE END LIST*
D10*
G36*
X102487921Y-33547056D02*
G01*
X102729515Y-33595112D01*
X103184668Y-33783643D01*
X103287769Y-33852533D01*
X103594294Y-34057346D01*
X103942654Y-34405706D01*
X104216358Y-34815334D01*
X104404888Y-35270486D01*
X104501000Y-35753672D01*
X104501000Y-36246328D01*
X104404888Y-36729514D01*
X104216358Y-37184666D01*
X103942654Y-37594294D01*
X103594294Y-37942654D01*
X103287769Y-38147467D01*
X103184668Y-38216357D01*
X102729515Y-38404888D01*
X102487921Y-38452944D01*
X102246328Y-38501000D01*
X101753672Y-38501000D01*
X101512079Y-38452944D01*
X101270485Y-38404888D01*
X100815332Y-38216357D01*
X100712231Y-38147467D01*
X100405706Y-37942654D01*
X100057346Y-37594294D01*
X99783642Y-37184666D01*
X99595112Y-36729514D01*
X99499000Y-36246328D01*
X99499000Y-35753672D01*
X99595112Y-35270486D01*
X99783642Y-34815334D01*
X100057346Y-34405706D01*
X100405706Y-34057346D01*
X100712231Y-33852533D01*
X100815332Y-33783643D01*
X101270485Y-33595112D01*
X101512079Y-33547056D01*
X101753672Y-33499000D01*
X102246328Y-33499000D01*
X102487921Y-33547056D01*
G37*
G36*
X4487921Y-33547056D02*
G01*
X4729515Y-33595112D01*
X5184668Y-33783643D01*
X5287769Y-33852533D01*
X5594294Y-34057346D01*
X5942654Y-34405706D01*
X6216358Y-34815334D01*
X6404888Y-35270486D01*
X6501000Y-35753672D01*
X6501000Y-36246328D01*
X6404888Y-36729514D01*
X6216358Y-37184666D01*
X5942654Y-37594294D01*
X5594294Y-37942654D01*
X5287769Y-38147467D01*
X5184668Y-38216357D01*
X4729515Y-38404888D01*
X4487921Y-38452944D01*
X4246328Y-38501000D01*
X3753672Y-38501000D01*
X3512079Y-38452944D01*
X3270485Y-38404888D01*
X2815332Y-38216357D01*
X2712231Y-38147467D01*
X2405706Y-37942654D01*
X2057346Y-37594294D01*
X1783642Y-37184666D01*
X1595112Y-36729514D01*
X1499000Y-36246328D01*
X1499000Y-35753672D01*
X1595112Y-35270486D01*
X1783642Y-34815334D01*
X2057346Y-34405706D01*
X2405706Y-34057346D01*
X2712231Y-33852533D01*
X2815332Y-33783643D01*
X3270485Y-33595112D01*
X3512079Y-33547056D01*
X3753672Y-33499000D01*
X4246328Y-33499000D01*
X4487921Y-33547056D01*
G37*
G36*
X82635787Y-27450462D02*
G01*
X82635790Y-27450463D01*
X82635789Y-27450463D01*
X83282029Y-27718144D01*
X83863631Y-28106758D01*
X84358242Y-28601369D01*
X84746856Y-29182971D01*
X84820015Y-29359593D01*
X85014538Y-29829213D01*
X85151000Y-30515256D01*
X85151000Y-31214744D01*
X85014538Y-31900787D01*
X85014537Y-31900789D01*
X84746856Y-32547029D01*
X84358242Y-33128631D01*
X83863631Y-33623242D01*
X83282029Y-34011856D01*
X82825068Y-34201135D01*
X82635787Y-34279538D01*
X81949744Y-34416000D01*
X81250256Y-34416000D01*
X80564213Y-34279538D01*
X80374932Y-34201135D01*
X79917971Y-34011856D01*
X79336369Y-33623242D01*
X78841758Y-33128631D01*
X78453144Y-32547029D01*
X78185463Y-31900789D01*
X78185462Y-31900787D01*
X78049000Y-31214744D01*
X78049000Y-30515256D01*
X78185462Y-29829213D01*
X78379985Y-29359593D01*
X78453144Y-29182971D01*
X78841758Y-28601369D01*
X79336369Y-28106758D01*
X79917971Y-27718144D01*
X80564211Y-27450463D01*
X80564210Y-27450463D01*
X80564213Y-27450462D01*
X81250256Y-27314000D01*
X81949744Y-27314000D01*
X82635787Y-27450462D01*
G37*
G36*
X72475787Y-27450462D02*
G01*
X72475790Y-27450463D01*
X72475789Y-27450463D01*
X73122029Y-27718144D01*
X73703631Y-28106758D01*
X74198242Y-28601369D01*
X74586856Y-29182971D01*
X74660015Y-29359593D01*
X74854538Y-29829213D01*
X74991000Y-30515256D01*
X74991000Y-31214744D01*
X74854538Y-31900787D01*
X74854537Y-31900789D01*
X74586856Y-32547029D01*
X74198242Y-33128631D01*
X73703631Y-33623242D01*
X73122029Y-34011856D01*
X72665068Y-34201135D01*
X72475787Y-34279538D01*
X71789744Y-34416000D01*
X71090256Y-34416000D01*
X70404213Y-34279538D01*
X70214932Y-34201135D01*
X69757971Y-34011856D01*
X69176369Y-33623242D01*
X68681758Y-33128631D01*
X68293144Y-32547029D01*
X68025463Y-31900789D01*
X68025462Y-31900787D01*
X67889000Y-31214744D01*
X67889000Y-30515256D01*
X68025462Y-29829213D01*
X68219985Y-29359593D01*
X68293144Y-29182971D01*
X68681758Y-28601369D01*
X69176369Y-28106758D01*
X69757971Y-27718144D01*
X70404211Y-27450463D01*
X70404210Y-27450463D01*
X70404213Y-27450462D01*
X71090256Y-27314000D01*
X71789744Y-27314000D01*
X72475787Y-27450462D01*
G37*
G36*
X93594714Y-25395769D02*
G01*
X94064958Y-25489306D01*
X94729397Y-25764525D01*
X95327377Y-26164083D01*
X95835917Y-26672623D01*
X96235475Y-27270603D01*
X96510694Y-27935042D01*
X96651000Y-28640408D01*
X96651000Y-29359592D01*
X96510694Y-30064958D01*
X96235475Y-30729397D01*
X95835917Y-31327377D01*
X95327377Y-31835917D01*
X94729397Y-32235475D01*
X94064958Y-32510694D01*
X93594714Y-32604231D01*
X93359593Y-32651000D01*
X92640407Y-32651000D01*
X92405286Y-32604231D01*
X91935042Y-32510694D01*
X91270603Y-32235475D01*
X90672623Y-31835917D01*
X90164083Y-31327377D01*
X89764525Y-30729397D01*
X89489306Y-30064958D01*
X89349000Y-29359592D01*
X89349000Y-28640408D01*
X89489306Y-27935042D01*
X89764525Y-27270603D01*
X90164083Y-26672623D01*
X90672623Y-26164083D01*
X91270603Y-25764525D01*
X91935042Y-25489306D01*
X92405286Y-25395769D01*
X92640407Y-25349000D01*
X93359593Y-25349000D01*
X93594714Y-25395769D01*
G37*
G36*
X62413512Y-30303927D02*
G01*
X62562812Y-30333624D01*
X62726784Y-30401544D01*
X62874354Y-30500147D01*
X62999853Y-30625646D01*
X63098456Y-30773216D01*
X63166376Y-30937188D01*
X63201000Y-31111259D01*
X63201000Y-31288741D01*
X63166376Y-31462812D01*
X63098456Y-31626784D01*
X62999853Y-31774354D01*
X62874354Y-31899853D01*
X62726784Y-31998456D01*
X62562812Y-32066376D01*
X62413512Y-32096073D01*
X62388742Y-32101000D01*
X62211258Y-32101000D01*
X62186488Y-32096073D01*
X62037188Y-32066376D01*
X61873216Y-31998456D01*
X61725646Y-31899853D01*
X61600147Y-31774354D01*
X61501544Y-31626784D01*
X61433624Y-31462812D01*
X61399000Y-31288741D01*
X61399000Y-31111259D01*
X61433624Y-30937188D01*
X61501544Y-30773216D01*
X61600147Y-30625646D01*
X61725646Y-30500147D01*
X61873216Y-30401544D01*
X62037188Y-30333624D01*
X62186488Y-30303927D01*
X62211258Y-30299000D01*
X62388742Y-30299000D01*
X62413512Y-30303927D01*
G37*
G36*
X43813512Y-30303927D02*
G01*
X43962812Y-30333624D01*
X44126784Y-30401544D01*
X44274354Y-30500147D01*
X44399853Y-30625646D01*
X44498456Y-30773216D01*
X44566376Y-30937188D01*
X44601000Y-31111259D01*
X44601000Y-31288741D01*
X44566376Y-31462812D01*
X44498456Y-31626784D01*
X44399853Y-31774354D01*
X44274354Y-31899853D01*
X44126784Y-31998456D01*
X43962812Y-32066376D01*
X43813512Y-32096073D01*
X43788742Y-32101000D01*
X43611258Y-32101000D01*
X43586488Y-32096073D01*
X43437188Y-32066376D01*
X43273216Y-31998456D01*
X43125646Y-31899853D01*
X43000147Y-31774354D01*
X42901544Y-31626784D01*
X42833624Y-31462812D01*
X42799000Y-31288741D01*
X42799000Y-31111259D01*
X42833624Y-30937188D01*
X42901544Y-30773216D01*
X43000147Y-30625646D01*
X43125646Y-30500147D01*
X43273216Y-30401544D01*
X43437188Y-30333624D01*
X43586488Y-30303927D01*
X43611258Y-30299000D01*
X43788742Y-30299000D01*
X43813512Y-30303927D01*
G37*
G36*
X50013512Y-30303927D02*
G01*
X50162812Y-30333624D01*
X50326784Y-30401544D01*
X50474354Y-30500147D01*
X50599853Y-30625646D01*
X50698456Y-30773216D01*
X50766376Y-30937188D01*
X50801000Y-31111259D01*
X50801000Y-31288741D01*
X50766376Y-31462812D01*
X50698456Y-31626784D01*
X50599853Y-31774354D01*
X50474354Y-31899853D01*
X50326784Y-31998456D01*
X50162812Y-32066376D01*
X50013512Y-32096073D01*
X49988742Y-32101000D01*
X49811258Y-32101000D01*
X49786488Y-32096073D01*
X49637188Y-32066376D01*
X49473216Y-31998456D01*
X49325646Y-31899853D01*
X49200147Y-31774354D01*
X49101544Y-31626784D01*
X49033624Y-31462812D01*
X48999000Y-31288741D01*
X48999000Y-31111259D01*
X49033624Y-30937188D01*
X49101544Y-30773216D01*
X49200147Y-30625646D01*
X49325646Y-30500147D01*
X49473216Y-30401544D01*
X49637188Y-30333624D01*
X49786488Y-30303927D01*
X49811258Y-30299000D01*
X49988742Y-30299000D01*
X50013512Y-30303927D01*
G37*
G36*
X56213512Y-30303927D02*
G01*
X56362812Y-30333624D01*
X56526784Y-30401544D01*
X56674354Y-30500147D01*
X56799853Y-30625646D01*
X56898456Y-30773216D01*
X56966376Y-30937188D01*
X57001000Y-31111259D01*
X57001000Y-31288741D01*
X56966376Y-31462812D01*
X56898456Y-31626784D01*
X56799853Y-31774354D01*
X56674354Y-31899853D01*
X56526784Y-31998456D01*
X56362812Y-32066376D01*
X56213512Y-32096073D01*
X56188742Y-32101000D01*
X56011258Y-32101000D01*
X55986488Y-32096073D01*
X55837188Y-32066376D01*
X55673216Y-31998456D01*
X55525646Y-31899853D01*
X55400147Y-31774354D01*
X55301544Y-31626784D01*
X55233624Y-31462812D01*
X55199000Y-31288741D01*
X55199000Y-31111259D01*
X55233624Y-30937188D01*
X55301544Y-30773216D01*
X55400147Y-30625646D01*
X55525646Y-30500147D01*
X55673216Y-30401544D01*
X55837188Y-30333624D01*
X55986488Y-30303927D01*
X56011258Y-30299000D01*
X56188742Y-30299000D01*
X56213512Y-30303927D01*
G37*
G36*
X11454554Y-20864284D02*
G01*
X11454557Y-20864285D01*
X11454556Y-20864285D01*
X12237288Y-21188503D01*
X12941728Y-21659195D01*
X13540805Y-22258272D01*
X14011497Y-22962712D01*
X14011498Y-22962714D01*
X14335716Y-23745446D01*
X14501000Y-24576387D01*
X14501000Y-25423613D01*
X14335716Y-26254554D01*
X14335715Y-26254556D01*
X14011497Y-27037288D01*
X13540805Y-27741728D01*
X12941728Y-28340805D01*
X12237288Y-28811497D01*
X12237287Y-28811498D01*
X12237286Y-28811498D01*
X11454554Y-29135716D01*
X10623613Y-29301000D01*
X9776387Y-29301000D01*
X8945446Y-29135716D01*
X8162714Y-28811498D01*
X8162713Y-28811498D01*
X8162712Y-28811497D01*
X7458272Y-28340805D01*
X6859195Y-27741728D01*
X6388503Y-27037288D01*
X6064285Y-26254556D01*
X6064284Y-26254554D01*
X5899000Y-25423613D01*
X5899000Y-24576387D01*
X6064284Y-23745446D01*
X6388502Y-22962714D01*
X6388503Y-22962712D01*
X6859195Y-22258272D01*
X7458272Y-21659195D01*
X8162712Y-21188503D01*
X8945444Y-20864285D01*
X8945443Y-20864285D01*
X8945446Y-20864284D01*
X9776387Y-20699000D01*
X10623613Y-20699000D01*
X11454554Y-20864284D01*
G37*
G36*
X90819059Y-14477860D02*
G01*
X90955732Y-14534472D01*
X91078735Y-14616660D01*
X91183340Y-14721265D01*
X91265528Y-14844268D01*
X91322140Y-14980941D01*
X91351000Y-15126033D01*
X91351000Y-15273967D01*
X91322140Y-15419059D01*
X91265528Y-15555732D01*
X91183340Y-15678735D01*
X91078735Y-15783340D01*
X90955732Y-15865528D01*
X90955731Y-15865529D01*
X90955730Y-15865529D01*
X90819059Y-15922140D01*
X90673968Y-15951000D01*
X90526032Y-15951000D01*
X90380941Y-15922140D01*
X90244270Y-15865529D01*
X90244269Y-15865529D01*
X90244268Y-15865528D01*
X90121265Y-15783340D01*
X90016660Y-15678735D01*
X89934472Y-15555732D01*
X89877860Y-15419059D01*
X89849000Y-15273967D01*
X89849000Y-15126033D01*
X89877860Y-14980941D01*
X89934472Y-14844268D01*
X90016660Y-14721265D01*
X90121265Y-14616660D01*
X90244268Y-14534472D01*
X90380941Y-14477860D01*
X90526032Y-14449000D01*
X90673968Y-14449000D01*
X90819059Y-14477860D01*
G37*
G36*
X93319059Y-14477860D02*
G01*
X93455732Y-14534472D01*
X93578735Y-14616660D01*
X93683340Y-14721265D01*
X93765528Y-14844268D01*
X93822140Y-14980941D01*
X93851000Y-15126033D01*
X93851000Y-15273967D01*
X93822140Y-15419059D01*
X93765528Y-15555732D01*
X93683340Y-15678735D01*
X93578735Y-15783340D01*
X93455732Y-15865528D01*
X93455731Y-15865529D01*
X93455730Y-15865529D01*
X93319059Y-15922140D01*
X93173968Y-15951000D01*
X93026032Y-15951000D01*
X92880941Y-15922140D01*
X92744270Y-15865529D01*
X92744269Y-15865529D01*
X92744268Y-15865528D01*
X92621265Y-15783340D01*
X92516660Y-15678735D01*
X92434472Y-15555732D01*
X92377860Y-15419059D01*
X92349000Y-15273967D01*
X92349000Y-15126033D01*
X92377860Y-14980941D01*
X92434472Y-14844268D01*
X92516660Y-14721265D01*
X92621265Y-14616660D01*
X92744268Y-14534472D01*
X92880941Y-14477860D01*
X93026032Y-14449000D01*
X93173968Y-14449000D01*
X93319059Y-14477860D01*
G37*
G36*
X95819059Y-14477860D02*
G01*
X95955732Y-14534472D01*
X96078735Y-14616660D01*
X96183340Y-14721265D01*
X96265528Y-14844268D01*
X96322140Y-14980941D01*
X96351000Y-15126033D01*
X96351000Y-15273967D01*
X96322140Y-15419059D01*
X96265528Y-15555732D01*
X96183340Y-15678735D01*
X96078735Y-15783340D01*
X95955732Y-15865528D01*
X95955731Y-15865529D01*
X95955730Y-15865529D01*
X95819059Y-15922140D01*
X95673968Y-15951000D01*
X95526032Y-15951000D01*
X95380941Y-15922140D01*
X95244270Y-15865529D01*
X95244269Y-15865529D01*
X95244268Y-15865528D01*
X95121265Y-15783340D01*
X95016660Y-15678735D01*
X94934472Y-15555732D01*
X94877860Y-15419059D01*
X94849000Y-15273967D01*
X94849000Y-15126033D01*
X94877860Y-14980941D01*
X94934472Y-14844268D01*
X95016660Y-14721265D01*
X95121265Y-14616660D01*
X95244268Y-14534472D01*
X95380941Y-14477860D01*
X95526032Y-14449000D01*
X95673968Y-14449000D01*
X95819059Y-14477860D01*
G37*
G36*
X95819059Y-11977860D02*
G01*
X95955732Y-12034472D01*
X96078735Y-12116660D01*
X96183340Y-12221265D01*
X96265528Y-12344268D01*
X96322140Y-12480941D01*
X96351000Y-12626033D01*
X96351000Y-12773967D01*
X96322140Y-12919059D01*
X96265528Y-13055732D01*
X96183340Y-13178735D01*
X96078735Y-13283340D01*
X95955732Y-13365528D01*
X95955731Y-13365529D01*
X95955730Y-13365529D01*
X95819059Y-13422140D01*
X95673968Y-13451000D01*
X95526032Y-13451000D01*
X95380941Y-13422140D01*
X95244270Y-13365529D01*
X95244269Y-13365529D01*
X95244268Y-13365528D01*
X95121265Y-13283340D01*
X95016660Y-13178735D01*
X94934472Y-13055732D01*
X94877860Y-12919059D01*
X94849000Y-12773967D01*
X94849000Y-12626033D01*
X94877860Y-12480941D01*
X94934472Y-12344268D01*
X95016660Y-12221265D01*
X95121265Y-12116660D01*
X95244268Y-12034472D01*
X95380941Y-11977860D01*
X95526032Y-11949000D01*
X95673968Y-11949000D01*
X95819059Y-11977860D01*
G37*
G36*
X93319059Y-11977860D02*
G01*
X93455732Y-12034472D01*
X93578735Y-12116660D01*
X93683340Y-12221265D01*
X93765528Y-12344268D01*
X93822140Y-12480941D01*
X93851000Y-12626033D01*
X93851000Y-12773967D01*
X93822140Y-12919059D01*
X93765528Y-13055732D01*
X93683340Y-13178735D01*
X93578735Y-13283340D01*
X93455732Y-13365528D01*
X93455731Y-13365529D01*
X93455730Y-13365529D01*
X93319059Y-13422140D01*
X93173968Y-13451000D01*
X93026032Y-13451000D01*
X92880941Y-13422140D01*
X92744270Y-13365529D01*
X92744269Y-13365529D01*
X92744268Y-13365528D01*
X92621265Y-13283340D01*
X92516660Y-13178735D01*
X92434472Y-13055732D01*
X92377860Y-12919059D01*
X92349000Y-12773967D01*
X92349000Y-12626033D01*
X92377860Y-12480941D01*
X92434472Y-12344268D01*
X92516660Y-12221265D01*
X92621265Y-12116660D01*
X92744268Y-12034472D01*
X92880941Y-11977860D01*
X93026032Y-11949000D01*
X93173968Y-11949000D01*
X93319059Y-11977860D01*
G37*
G36*
X90819059Y-11977860D02*
G01*
X90955732Y-12034472D01*
X91078735Y-12116660D01*
X91183340Y-12221265D01*
X91265528Y-12344268D01*
X91322140Y-12480941D01*
X91351000Y-12626033D01*
X91351000Y-12773967D01*
X91322140Y-12919059D01*
X91265528Y-13055732D01*
X91183340Y-13178735D01*
X91078735Y-13283340D01*
X90955732Y-13365528D01*
X90955731Y-13365529D01*
X90955730Y-13365529D01*
X90819059Y-13422140D01*
X90673968Y-13451000D01*
X90526032Y-13451000D01*
X90380941Y-13422140D01*
X90244270Y-13365529D01*
X90244269Y-13365529D01*
X90244268Y-13365528D01*
X90121265Y-13283340D01*
X90016660Y-13178735D01*
X89934472Y-13055732D01*
X89877860Y-12919059D01*
X89849000Y-12773967D01*
X89849000Y-12626033D01*
X89877860Y-12480941D01*
X89934472Y-12344268D01*
X90016660Y-12221265D01*
X90121265Y-12116660D01*
X90244268Y-12034472D01*
X90380941Y-11977860D01*
X90526032Y-11949000D01*
X90673968Y-11949000D01*
X90819059Y-11977860D01*
G37*
G36*
X95819059Y-9477860D02*
G01*
X95955732Y-9534472D01*
X96078735Y-9616660D01*
X96183340Y-9721265D01*
X96265528Y-9844268D01*
X96322140Y-9980941D01*
X96351000Y-10126033D01*
X96351000Y-10273967D01*
X96322140Y-10419059D01*
X96265528Y-10555732D01*
X96183340Y-10678735D01*
X96078735Y-10783340D01*
X95955732Y-10865528D01*
X95955731Y-10865529D01*
X95955730Y-10865529D01*
X95819059Y-10922140D01*
X95673968Y-10951000D01*
X95526032Y-10951000D01*
X95380941Y-10922140D01*
X95244270Y-10865529D01*
X95244269Y-10865529D01*
X95244268Y-10865528D01*
X95121265Y-10783340D01*
X95016660Y-10678735D01*
X94934472Y-10555732D01*
X94877860Y-10419059D01*
X94849000Y-10273967D01*
X94849000Y-10126033D01*
X94877860Y-9980941D01*
X94934472Y-9844268D01*
X95016660Y-9721265D01*
X95121265Y-9616660D01*
X95244268Y-9534472D01*
X95380941Y-9477860D01*
X95526032Y-9449000D01*
X95673968Y-9449000D01*
X95819059Y-9477860D01*
G37*
G36*
X90819059Y-9477860D02*
G01*
X90955732Y-9534472D01*
X91078735Y-9616660D01*
X91183340Y-9721265D01*
X91265528Y-9844268D01*
X91322140Y-9980941D01*
X91351000Y-10126033D01*
X91351000Y-10273967D01*
X91322140Y-10419059D01*
X91265528Y-10555732D01*
X91183340Y-10678735D01*
X91078735Y-10783340D01*
X90955732Y-10865528D01*
X90955731Y-10865529D01*
X90955730Y-10865529D01*
X90819059Y-10922140D01*
X90673968Y-10951000D01*
X90526032Y-10951000D01*
X90380941Y-10922140D01*
X90244270Y-10865529D01*
X90244269Y-10865529D01*
X90244268Y-10865528D01*
X90121265Y-10783340D01*
X90016660Y-10678735D01*
X89934472Y-10555732D01*
X89877860Y-10419059D01*
X89849000Y-10273967D01*
X89849000Y-10126033D01*
X89877860Y-9980941D01*
X89934472Y-9844268D01*
X90016660Y-9721265D01*
X90121265Y-9616660D01*
X90244268Y-9534472D01*
X90380941Y-9477860D01*
X90526032Y-9449000D01*
X90673968Y-9449000D01*
X90819059Y-9477860D01*
G37*
G36*
X93319059Y-9477860D02*
G01*
X93455732Y-9534472D01*
X93578735Y-9616660D01*
X93683340Y-9721265D01*
X93765528Y-9844268D01*
X93822140Y-9980941D01*
X93851000Y-10126033D01*
X93851000Y-10273967D01*
X93822140Y-10419059D01*
X93765528Y-10555732D01*
X93683340Y-10678735D01*
X93578735Y-10783340D01*
X93455732Y-10865528D01*
X93455731Y-10865529D01*
X93455730Y-10865529D01*
X93319059Y-10922140D01*
X93173968Y-10951000D01*
X93026032Y-10951000D01*
X92880941Y-10922140D01*
X92744270Y-10865529D01*
X92744269Y-10865529D01*
X92744268Y-10865528D01*
X92621265Y-10783340D01*
X92516660Y-10678735D01*
X92434472Y-10555732D01*
X92377860Y-10419059D01*
X92349000Y-10273967D01*
X92349000Y-10126033D01*
X92377860Y-9980941D01*
X92434472Y-9844268D01*
X92516660Y-9721265D01*
X92621265Y-9616660D01*
X92744268Y-9534472D01*
X92880941Y-9477860D01*
X93026032Y-9449000D01*
X93173968Y-9449000D01*
X93319059Y-9477860D01*
G37*
G36*
X102481255Y-1545730D02*
G01*
X102729515Y-1595112D01*
X103184668Y-1783643D01*
X103287769Y-1852533D01*
X103594294Y-2057346D01*
X103942654Y-2405706D01*
X104147467Y-2712231D01*
X104216357Y-2815332D01*
X104380543Y-3211710D01*
X104404888Y-3270486D01*
X104501000Y-3753672D01*
X104501000Y-4246328D01*
X104404888Y-4729514D01*
X104216358Y-5184666D01*
X103942654Y-5594294D01*
X103594294Y-5942654D01*
X103287769Y-6147467D01*
X103184668Y-6216357D01*
X102729515Y-6404888D01*
X102487921Y-6452944D01*
X102246328Y-6501000D01*
X101753672Y-6501000D01*
X101512079Y-6452944D01*
X101270485Y-6404888D01*
X100815332Y-6216357D01*
X100712231Y-6147467D01*
X100405706Y-5942654D01*
X100057346Y-5594294D01*
X99783642Y-5184666D01*
X99595112Y-4729514D01*
X99499000Y-4246328D01*
X99499000Y-3753672D01*
X99595112Y-3270486D01*
X99619458Y-3211710D01*
X99783643Y-2815332D01*
X99852533Y-2712231D01*
X100057346Y-2405706D01*
X100405706Y-2057346D01*
X100712231Y-1852533D01*
X100815332Y-1783643D01*
X101270485Y-1595112D01*
X101518745Y-1545730D01*
X101753672Y-1499000D01*
X102246328Y-1499000D01*
X102481255Y-1545730D01*
G37*
G36*
X4481255Y-1545730D02*
G01*
X4729515Y-1595112D01*
X5184668Y-1783643D01*
X5287769Y-1852533D01*
X5594294Y-2057346D01*
X5942654Y-2405706D01*
X6147467Y-2712231D01*
X6216357Y-2815332D01*
X6380543Y-3211710D01*
X6404888Y-3270486D01*
X6501000Y-3753672D01*
X6501000Y-4246328D01*
X6404888Y-4729514D01*
X6216358Y-5184666D01*
X5942654Y-5594294D01*
X5594294Y-5942654D01*
X5287769Y-6147467D01*
X5184668Y-6216357D01*
X4729515Y-6404888D01*
X4487921Y-6452944D01*
X4246328Y-6501000D01*
X3753672Y-6501000D01*
X3512079Y-6452944D01*
X3270485Y-6404888D01*
X2815332Y-6216357D01*
X2712231Y-6147467D01*
X2405706Y-5942654D01*
X2057346Y-5594294D01*
X1783642Y-5184666D01*
X1595112Y-4729514D01*
X1499000Y-4246328D01*
X1499000Y-3753672D01*
X1595112Y-3270486D01*
X1619458Y-3211710D01*
X1783643Y-2815332D01*
X1852533Y-2712231D01*
X2057346Y-2405706D01*
X2405706Y-2057346D01*
X2712231Y-1852533D01*
X2815332Y-1783643D01*
X3270485Y-1595112D01*
X3518745Y-1545730D01*
X3753672Y-1499000D01*
X4246328Y-1499000D01*
X4481255Y-1545730D01*
G37*
G36*
X67660721Y-3170174D02*
G01*
X67760995Y-3211709D01*
X67760996Y-3211710D01*
X67851242Y-3272010D01*
X67927990Y-3348758D01*
X67927991Y-3348760D01*
X67988291Y-3439005D01*
X68029826Y-3539279D01*
X68051000Y-3645730D01*
X68051000Y-3754270D01*
X68029826Y-3860721D01*
X67988291Y-3960995D01*
X67988290Y-3960996D01*
X67927990Y-4051242D01*
X67851242Y-4127990D01*
X67805812Y-4158345D01*
X67760995Y-4188291D01*
X67660721Y-4229826D01*
X67554270Y-4251000D01*
X67445730Y-4251000D01*
X67339279Y-4229826D01*
X67239005Y-4188291D01*
X67194188Y-4158345D01*
X67148758Y-4127990D01*
X67072010Y-4051242D01*
X67011710Y-3960996D01*
X67011709Y-3960995D01*
X66970174Y-3860721D01*
X66949000Y-3754270D01*
X66949000Y-3645730D01*
X66970174Y-3539279D01*
X67011709Y-3439005D01*
X67072009Y-3348760D01*
X67072010Y-3348758D01*
X67148758Y-3272010D01*
X67239004Y-3211710D01*
X67239005Y-3211709D01*
X67339279Y-3170174D01*
X67445730Y-3149000D01*
X67554270Y-3149000D01*
X67660721Y-3170174D01*
G37*
G36*
X38660721Y-3170174D02*
G01*
X38760995Y-3211709D01*
X38760996Y-3211710D01*
X38851242Y-3272010D01*
X38927990Y-3348758D01*
X38927991Y-3348760D01*
X38988291Y-3439005D01*
X39029826Y-3539279D01*
X39051000Y-3645730D01*
X39051000Y-3754270D01*
X39029826Y-3860721D01*
X38988291Y-3960995D01*
X38988290Y-3960996D01*
X38927990Y-4051242D01*
X38851242Y-4127990D01*
X38805812Y-4158345D01*
X38760995Y-4188291D01*
X38660721Y-4229826D01*
X38554270Y-4251000D01*
X38445730Y-4251000D01*
X38339279Y-4229826D01*
X38239005Y-4188291D01*
X38194188Y-4158345D01*
X38148758Y-4127990D01*
X38072010Y-4051242D01*
X38011710Y-3960996D01*
X38011709Y-3960995D01*
X37970174Y-3860721D01*
X37949000Y-3754270D01*
X37949000Y-3645730D01*
X37970174Y-3539279D01*
X38011709Y-3439005D01*
X38072009Y-3348760D01*
X38072010Y-3348758D01*
X38148758Y-3272010D01*
X38239004Y-3211710D01*
X38239005Y-3211709D01*
X38339279Y-3170174D01*
X38445730Y-3149000D01*
X38554270Y-3149000D01*
X38660721Y-3170174D01*
G37*
G36*
X67660721Y-1070174D02*
G01*
X67760995Y-1111709D01*
X67760996Y-1111710D01*
X67851242Y-1172010D01*
X67927990Y-1248758D01*
X67927991Y-1248760D01*
X67988291Y-1339005D01*
X68029826Y-1439279D01*
X68051000Y-1545730D01*
X68051000Y-1654270D01*
X68029826Y-1760721D01*
X67988291Y-1860995D01*
X67988290Y-1860996D01*
X67927990Y-1951242D01*
X67851242Y-2027990D01*
X67807307Y-2057346D01*
X67760995Y-2088291D01*
X67660721Y-2129826D01*
X67554270Y-2151000D01*
X67445730Y-2151000D01*
X67339279Y-2129826D01*
X67239005Y-2088291D01*
X67192693Y-2057346D01*
X67148758Y-2027990D01*
X67072010Y-1951242D01*
X67011710Y-1860996D01*
X67011709Y-1860995D01*
X66970174Y-1760721D01*
X66949000Y-1654270D01*
X66949000Y-1545730D01*
X66970174Y-1439279D01*
X67011709Y-1339005D01*
X67072009Y-1248760D01*
X67072010Y-1248758D01*
X67148758Y-1172010D01*
X67239004Y-1111710D01*
X67239005Y-1111709D01*
X67339279Y-1070174D01*
X67445730Y-1049000D01*
X67554270Y-1049000D01*
X67660721Y-1070174D01*
G37*
G36*
X38660721Y-1070174D02*
G01*
X38760995Y-1111709D01*
X38760996Y-1111710D01*
X38851242Y-1172010D01*
X38927990Y-1248758D01*
X38927991Y-1248760D01*
X38988291Y-1339005D01*
X39029826Y-1439279D01*
X39051000Y-1545730D01*
X39051000Y-1654270D01*
X39029826Y-1760721D01*
X38988291Y-1860995D01*
X38988290Y-1860996D01*
X38927990Y-1951242D01*
X38851242Y-2027990D01*
X38807307Y-2057346D01*
X38760995Y-2088291D01*
X38660721Y-2129826D01*
X38554270Y-2151000D01*
X38445730Y-2151000D01*
X38339279Y-2129826D01*
X38239005Y-2088291D01*
X38192693Y-2057346D01*
X38148758Y-2027990D01*
X38072010Y-1951242D01*
X38011710Y-1860996D01*
X38011709Y-1860995D01*
X37970174Y-1760721D01*
X37949000Y-1654270D01*
X37949000Y-1545730D01*
X37970174Y-1439279D01*
X38011709Y-1339005D01*
X38072009Y-1248760D01*
X38072010Y-1248758D01*
X38148758Y-1172010D01*
X38239004Y-1111710D01*
X38239005Y-1111709D01*
X38339279Y-1070174D01*
X38445730Y-1049000D01*
X38554270Y-1049000D01*
X38660721Y-1070174D01*
G37*
M02*
