G04 #@! TF.GenerationSoftware,KiCad,Pcbnew,5.1.5-52549c5~84~ubuntu18.04.1*
G04 #@! TF.CreationDate,2020-03-18T22:27:28-07:00*
G04 #@! TF.ProjectId,endcap,656e6463-6170-42e6-9b69-6361645f7063,rev?*
G04 #@! TF.SameCoordinates,PX2faf080PY3dfd240*
G04 #@! TF.FileFunction,Other,ECO1*
%FSLAX46Y46*%
G04 Gerber Fmt 4.6, Leading zero omitted, Abs format (unit mm)*
G04 Created by KiCad (PCBNEW 5.1.5-52549c5~84~ubuntu18.04.1) date 2020-03-18 22:27:28*
%MOMM*%
%LPD*%
G04 APERTURE LIST*
%ADD10C,0.300000*%
%ADD11C,0.200000*%
%ADD12C,0.700000*%
G04 APERTURE END LIST*
D10*
X8771428Y-30995238D02*
X8866666Y-30900000D01*
X9057142Y-30804761D01*
X9533333Y-30804761D01*
X9723809Y-30900000D01*
X9819047Y-30995238D01*
X9914285Y-31185714D01*
X9914285Y-31376190D01*
X9819047Y-31661904D01*
X8676190Y-32804761D01*
X9914285Y-32804761D01*
X10676190Y-32233333D02*
X11628571Y-32233333D01*
X10485714Y-32804761D02*
X11152380Y-30804761D01*
X11819047Y-32804761D01*
X5519047Y-18904761D02*
X4376190Y-18904761D01*
X4947619Y-18904761D02*
X4947619Y-16904761D01*
X4757142Y-17190476D01*
X4566666Y-17380952D01*
X4376190Y-17476190D01*
X7423809Y-18904761D02*
X6280952Y-18904761D01*
X6852380Y-18904761D02*
X6852380Y-16904761D01*
X6661904Y-17190476D01*
X6471428Y-17380952D01*
X6280952Y-17476190D01*
X8280952Y-18142857D02*
X9804761Y-18142857D01*
X11804761Y-18904761D02*
X10661904Y-18904761D01*
X11233333Y-18904761D02*
X11233333Y-16904761D01*
X11042857Y-17190476D01*
X10852380Y-17380952D01*
X10661904Y-17476190D01*
X13519047Y-16904761D02*
X13138095Y-16904761D01*
X12947619Y-17000000D01*
X12852380Y-17095238D01*
X12661904Y-17380952D01*
X12566666Y-17761904D01*
X12566666Y-18523809D01*
X12661904Y-18714285D01*
X12757142Y-18809523D01*
X12947619Y-18904761D01*
X13328571Y-18904761D01*
X13519047Y-18809523D01*
X13614285Y-18714285D01*
X13709523Y-18523809D01*
X13709523Y-18047619D01*
X13614285Y-17857142D01*
X13519047Y-17761904D01*
X13328571Y-17666666D01*
X12947619Y-17666666D01*
X12757142Y-17761904D01*
X12661904Y-17857142D01*
X12566666Y-18047619D01*
X14280952Y-16904761D02*
X14947619Y-18904761D01*
X15614285Y-16904761D01*
X90142857Y-20805952D02*
X90142857Y-18305952D01*
X91571428Y-20805952D02*
X90500000Y-19377380D01*
X91571428Y-18305952D02*
X90142857Y-19734523D01*
X92642857Y-19496428D02*
X93476190Y-19496428D01*
X93833333Y-20805952D02*
X92642857Y-20805952D01*
X92642857Y-18305952D01*
X93833333Y-18305952D01*
X95380952Y-19615476D02*
X95380952Y-20805952D01*
X94547619Y-18305952D02*
X95380952Y-19615476D01*
X96214285Y-18305952D01*
X90440476Y-24855952D02*
X90440476Y-22355952D01*
X91392857Y-22355952D01*
X91630952Y-22475000D01*
X91750000Y-22594047D01*
X91869047Y-22832142D01*
X91869047Y-23189285D01*
X91750000Y-23427380D01*
X91630952Y-23546428D01*
X91392857Y-23665476D01*
X90440476Y-23665476D01*
X92583333Y-22355952D02*
X94011904Y-22355952D01*
X93297619Y-24855952D02*
X93297619Y-22355952D01*
X94488095Y-22355952D02*
X95916666Y-22355952D01*
X95202380Y-24855952D02*
X95202380Y-22355952D01*
X80171428Y-24592857D02*
X80052380Y-24711904D01*
X79695238Y-24830952D01*
X79457142Y-24830952D01*
X79100000Y-24711904D01*
X78861904Y-24473809D01*
X78742857Y-24235714D01*
X78623809Y-23759523D01*
X78623809Y-23402380D01*
X78742857Y-22926190D01*
X78861904Y-22688095D01*
X79100000Y-22450000D01*
X79457142Y-22330952D01*
X79695238Y-22330952D01*
X80052380Y-22450000D01*
X80171428Y-22569047D01*
X82433333Y-24830952D02*
X81242857Y-24830952D01*
X81242857Y-22330952D01*
X84576190Y-24830952D02*
X83147619Y-24830952D01*
X83861904Y-24830952D02*
X83861904Y-22330952D01*
X83623809Y-22688095D01*
X83385714Y-22926190D01*
X83147619Y-23045238D01*
X70011428Y-24592857D02*
X69892380Y-24711904D01*
X69535238Y-24830952D01*
X69297142Y-24830952D01*
X68940000Y-24711904D01*
X68701904Y-24473809D01*
X68582857Y-24235714D01*
X68463809Y-23759523D01*
X68463809Y-23402380D01*
X68582857Y-22926190D01*
X68701904Y-22688095D01*
X68940000Y-22450000D01*
X69297142Y-22330952D01*
X69535238Y-22330952D01*
X69892380Y-22450000D01*
X70011428Y-22569047D01*
X72273333Y-24830952D02*
X71082857Y-24830952D01*
X71082857Y-22330952D01*
X72987619Y-22569047D02*
X73106666Y-22450000D01*
X73344761Y-22330952D01*
X73940000Y-22330952D01*
X74178095Y-22450000D01*
X74297142Y-22569047D01*
X74416190Y-22807142D01*
X74416190Y-23045238D01*
X74297142Y-23402380D01*
X72868571Y-24830952D01*
X74416190Y-24830952D01*
X56504761Y-24116666D02*
X57695238Y-24116666D01*
X56266666Y-24830952D02*
X57100000Y-22330952D01*
X57933333Y-24830952D01*
X58766666Y-24830952D02*
X58766666Y-22330952D01*
X59361904Y-22330952D01*
X59719047Y-22450000D01*
X59957142Y-22688095D01*
X60076190Y-22926190D01*
X60195238Y-23402380D01*
X60195238Y-23759523D01*
X60076190Y-24235714D01*
X59957142Y-24473809D01*
X59719047Y-24711904D01*
X59361904Y-24830952D01*
X58766666Y-24830952D01*
X62695238Y-24592857D02*
X62576190Y-24711904D01*
X62219047Y-24830952D01*
X61980952Y-24830952D01*
X61623809Y-24711904D01*
X61385714Y-24473809D01*
X61266666Y-24235714D01*
X61147619Y-23759523D01*
X61147619Y-23402380D01*
X61266666Y-22926190D01*
X61385714Y-22688095D01*
X61623809Y-22450000D01*
X61980952Y-22330952D01*
X62219047Y-22330952D01*
X62576190Y-22450000D01*
X62695238Y-22569047D01*
D11*
X65500000Y-26000000D02*
X65500000Y-27000000D01*
X53600000Y-26000000D02*
X65500000Y-26000000D01*
X53600000Y-27000000D02*
X53600000Y-26000000D01*
X60866339Y-35378571D02*
X61053839Y-33878571D01*
X60964553Y-34592857D02*
X61821696Y-34592857D01*
X61723482Y-35378571D02*
X61910982Y-33878571D01*
X62482410Y-33878571D02*
X62652053Y-35378571D01*
X63071696Y-34307142D01*
X63223482Y-35378571D01*
X63768125Y-33878571D01*
X54032410Y-35307142D02*
X54237767Y-35378571D01*
X54594910Y-35378571D01*
X54746696Y-35307142D01*
X54827053Y-35235714D01*
X54916339Y-35092857D01*
X54934196Y-34950000D01*
X54880625Y-34807142D01*
X54818125Y-34735714D01*
X54684196Y-34664285D01*
X54407410Y-34592857D01*
X54273482Y-34521428D01*
X54210982Y-34450000D01*
X54157410Y-34307142D01*
X54175267Y-34164285D01*
X54264553Y-34021428D01*
X54344910Y-33950000D01*
X54496696Y-33878571D01*
X54853839Y-33878571D01*
X55059196Y-33950000D01*
X55523482Y-35378571D02*
X55710982Y-33878571D01*
X56282410Y-33878571D01*
X56416339Y-33950000D01*
X56478839Y-34021428D01*
X56532410Y-34164285D01*
X56505625Y-34378571D01*
X56416339Y-34521428D01*
X56335982Y-34592857D01*
X56184196Y-34664285D01*
X55612767Y-34664285D01*
X57023482Y-35378571D02*
X57210982Y-33878571D01*
X57568125Y-33878571D01*
X57773482Y-33950000D01*
X57898482Y-34092857D01*
X57952053Y-34235714D01*
X57987767Y-34521428D01*
X57960982Y-34735714D01*
X57853839Y-35021428D01*
X57764553Y-35164285D01*
X57603839Y-35307142D01*
X57380625Y-35378571D01*
X57023482Y-35378571D01*
X49002053Y-35378571D02*
X49189553Y-33878571D01*
X49716339Y-35378571D02*
X49903839Y-33878571D01*
X50475267Y-33878571D01*
X50609196Y-33950000D01*
X50671696Y-34021428D01*
X50725267Y-34164285D01*
X50698482Y-34378571D01*
X50609196Y-34521428D01*
X50528839Y-34592857D01*
X50377053Y-34664285D01*
X49805625Y-34664285D01*
X42677053Y-35235714D02*
X42596696Y-35307142D01*
X42373482Y-35378571D01*
X42230625Y-35378571D01*
X42025267Y-35307142D01*
X41900267Y-35164285D01*
X41846696Y-35021428D01*
X41810982Y-34735714D01*
X41837767Y-34521428D01*
X41944910Y-34235714D01*
X42034196Y-34092857D01*
X42194910Y-33950000D01*
X42418125Y-33878571D01*
X42560982Y-33878571D01*
X42766339Y-33950000D01*
X42828839Y-34021428D01*
X44016339Y-35378571D02*
X43302053Y-35378571D01*
X43489553Y-33878571D01*
X44516339Y-35378571D02*
X44703839Y-33878571D01*
X45373482Y-35378571D02*
X44837767Y-34521428D01*
X45560982Y-33878571D02*
X44596696Y-34735714D01*
D10*
X60966666Y-29004761D02*
X59823809Y-29004761D01*
X60395238Y-29004761D02*
X60395238Y-27004761D01*
X60204761Y-27290476D01*
X60014285Y-27480952D01*
X59823809Y-27576190D01*
X62204761Y-27004761D02*
X62395238Y-27004761D01*
X62585714Y-27100000D01*
X62680952Y-27195238D01*
X62776190Y-27385714D01*
X62871428Y-27766666D01*
X62871428Y-28242857D01*
X62776190Y-28623809D01*
X62680952Y-28814285D01*
X62585714Y-28909523D01*
X62395238Y-29004761D01*
X62204761Y-29004761D01*
X62014285Y-28909523D01*
X61919047Y-28814285D01*
X61823809Y-28623809D01*
X61728571Y-28242857D01*
X61728571Y-27766666D01*
X61823809Y-27385714D01*
X61919047Y-27195238D01*
X62014285Y-27100000D01*
X62204761Y-27004761D01*
X64109523Y-27004761D02*
X64300000Y-27004761D01*
X64490476Y-27100000D01*
X64585714Y-27195238D01*
X64680952Y-27385714D01*
X64776190Y-27766666D01*
X64776190Y-28242857D01*
X64680952Y-28623809D01*
X64585714Y-28814285D01*
X64490476Y-28909523D01*
X64300000Y-29004761D01*
X64109523Y-29004761D01*
X63919047Y-28909523D01*
X63823809Y-28814285D01*
X63728571Y-28623809D01*
X63633333Y-28242857D01*
X63633333Y-27766666D01*
X63728571Y-27385714D01*
X63823809Y-27195238D01*
X63919047Y-27100000D01*
X64109523Y-27004761D01*
X54480952Y-27004761D02*
X55814285Y-27004761D01*
X54957142Y-29004761D01*
X57528571Y-27004761D02*
X56576190Y-27004761D01*
X56480952Y-27957142D01*
X56576190Y-27861904D01*
X56766666Y-27766666D01*
X57242857Y-27766666D01*
X57433333Y-27861904D01*
X57528571Y-27957142D01*
X57623809Y-28147619D01*
X57623809Y-28623809D01*
X57528571Y-28814285D01*
X57433333Y-28909523D01*
X57242857Y-29004761D01*
X56766666Y-29004761D01*
X56576190Y-28909523D01*
X56480952Y-28814285D01*
X48376190Y-27004761D02*
X49519047Y-27004761D01*
X48947619Y-29004761D02*
X48947619Y-27004761D01*
X49995238Y-27004761D02*
X51328571Y-29004761D01*
X51328571Y-27004761D02*
X49995238Y-29004761D01*
X42223809Y-29004761D02*
X41557142Y-28052380D01*
X41080952Y-29004761D02*
X41080952Y-27004761D01*
X41842857Y-27004761D01*
X42033333Y-27100000D01*
X42128571Y-27195238D01*
X42223809Y-27385714D01*
X42223809Y-27671428D01*
X42128571Y-27861904D01*
X42033333Y-27957142D01*
X41842857Y-28052380D01*
X41080952Y-28052380D01*
X43080952Y-27004761D02*
X43080952Y-28623809D01*
X43176190Y-28814285D01*
X43271428Y-28909523D01*
X43461904Y-29004761D01*
X43842857Y-29004761D01*
X44033333Y-28909523D01*
X44128571Y-28814285D01*
X44223809Y-28623809D01*
X44223809Y-27004761D01*
X45176190Y-29004761D02*
X45176190Y-27004761D01*
X46319047Y-29004761D01*
X46319047Y-27004761D01*
D11*
X31728571Y-18378571D02*
X31014285Y-18378571D01*
X31014285Y-16878571D01*
X32228571Y-18378571D02*
X32228571Y-16878571D01*
X33085714Y-18378571D01*
X33085714Y-16878571D01*
X33800000Y-18378571D02*
X33800000Y-16878571D01*
X34657142Y-18378571D02*
X34014285Y-17521428D01*
X34657142Y-16878571D02*
X33800000Y-17735714D01*
X17121428Y-17950000D02*
X17835714Y-17950000D01*
X16978571Y-18378571D02*
X17478571Y-16878571D01*
X17978571Y-18378571D01*
X19335714Y-18235714D02*
X19264285Y-18307142D01*
X19050000Y-18378571D01*
X18907142Y-18378571D01*
X18692857Y-18307142D01*
X18550000Y-18164285D01*
X18478571Y-18021428D01*
X18407142Y-17735714D01*
X18407142Y-17521428D01*
X18478571Y-17235714D01*
X18550000Y-17092857D01*
X18692857Y-16950000D01*
X18907142Y-16878571D01*
X19050000Y-16878571D01*
X19264285Y-16950000D01*
X19335714Y-17021428D01*
X19764285Y-16878571D02*
X20621428Y-16878571D01*
X20192857Y-18378571D02*
X20192857Y-16878571D01*
D12*
X26000000Y-13914285D02*
X26000000Y-7914285D01*
X26000000Y-10771428D02*
X29428571Y-10771428D01*
X29428571Y-13914285D02*
X29428571Y-7914285D01*
X34571428Y-13628571D02*
X34000000Y-13914285D01*
X32857142Y-13914285D01*
X32285714Y-13628571D01*
X32000000Y-13057142D01*
X32000000Y-10771428D01*
X32285714Y-10200000D01*
X32857142Y-9914285D01*
X34000000Y-9914285D01*
X34571428Y-10200000D01*
X34857142Y-10771428D01*
X34857142Y-11342857D01*
X32000000Y-11914285D01*
X37428571Y-13914285D02*
X37428571Y-9914285D01*
X37428571Y-11057142D02*
X37714285Y-10485714D01*
X38000000Y-10200000D01*
X38571428Y-9914285D01*
X39142857Y-9914285D01*
X41142857Y-13914285D02*
X41142857Y-9914285D01*
X41142857Y-10485714D02*
X41428571Y-10200000D01*
X42000000Y-9914285D01*
X42857142Y-9914285D01*
X43428571Y-10200000D01*
X43714285Y-10771428D01*
X43714285Y-13914285D01*
X43714285Y-10771428D02*
X44000000Y-10200000D01*
X44571428Y-9914285D01*
X45428571Y-9914285D01*
X46000000Y-10200000D01*
X46285714Y-10771428D01*
X46285714Y-13914285D01*
X51428571Y-13628571D02*
X50857142Y-13914285D01*
X49714285Y-13914285D01*
X49142857Y-13628571D01*
X48857142Y-13057142D01*
X48857142Y-10771428D01*
X49142857Y-10200000D01*
X49714285Y-9914285D01*
X50857142Y-9914285D01*
X51428571Y-10200000D01*
X51714285Y-10771428D01*
X51714285Y-11342857D01*
X48857142Y-11914285D01*
X54000000Y-13628571D02*
X54571428Y-13914285D01*
X55714285Y-13914285D01*
X56285714Y-13628571D01*
X56571428Y-13057142D01*
X56571428Y-12771428D01*
X56285714Y-12200000D01*
X55714285Y-11914285D01*
X54857142Y-11914285D01*
X54285714Y-11628571D01*
X54000000Y-11057142D01*
X54000000Y-10771428D01*
X54285714Y-10200000D01*
X54857142Y-9914285D01*
X55714285Y-9914285D01*
X56285714Y-10200000D01*
X59142857Y-11628571D02*
X63714285Y-11628571D01*
X69428571Y-13914285D02*
X66571428Y-13914285D01*
X66571428Y-7914285D01*
X71428571Y-13914285D02*
X71428571Y-9914285D01*
X71428571Y-7914285D02*
X71142857Y-8200000D01*
X71428571Y-8485714D01*
X71714285Y-8200000D01*
X71428571Y-7914285D01*
X71428571Y-8485714D01*
X73428571Y-9914285D02*
X75714285Y-9914285D01*
X74285714Y-7914285D02*
X74285714Y-13057142D01*
X74571428Y-13628571D01*
X75142857Y-13914285D01*
X75714285Y-13914285D01*
X80000000Y-13628571D02*
X79428571Y-13914285D01*
X78285714Y-13914285D01*
X77714285Y-13628571D01*
X77428571Y-13057142D01*
X77428571Y-10771428D01*
X77714285Y-10200000D01*
X78285714Y-9914285D01*
X79428571Y-9914285D01*
X80000000Y-10200000D01*
X80285714Y-10771428D01*
X80285714Y-11342857D01*
X77428571Y-11914285D01*
M02*
