M48
;DRILL file {KiCad 5.0.2-bee76a0~70~ubuntu16.04.1} date Sun 01 Dec 2019 03:08:31 PM PST
;FORMAT={-:-/ absolute / metric / decimal}
FMAT,2
METRIC,TZ
T1C0.400
T2C1.320
T3C3.400
T4C1.600
T5C3.050
T6C3.200
T7C7.000
T8C9.500
%
G90
G05
T1
X29.8Y-34.2
X30.3Y-20.9
X32.5Y-36.9
X38.6Y-27.4
X39.Y-48.9
X40.Y-36.9
X40.6Y-32.
X41.9Y-20.7
X47.3Y-36.9
X47.9Y-33.7
X54.6Y-36.9
X55.2Y-33.7
X56.8Y-23.4
X59.1Y-22.7
X61.9Y-36.9
X62.5Y-33.7
X63.8Y-25.5
X68.7Y-32.3
X69.Y-49.
T2
X43.Y-49.5
X45.54Y-49.5
X48.08Y-49.5
X50.62Y-49.5
X53.16Y-49.5
X55.7Y-49.5
X58.24Y-49.5
X60.78Y-49.5
X63.32Y-49.5
X49.84Y-15.9
X52.38Y-15.9
X54.92Y-15.9
X57.46Y-15.9
X60.Y-15.9
T4
X73.Y-28.5
X73.Y-32.5
X73.Y-36.5
X73.Y-40.5
X75.Y-26.5
X75.Y-30.5
X75.Y-34.5
X75.Y-38.5
X75.Y-42.5
X77.Y-24.5
X77.Y-28.5
X77.Y-32.5
X77.Y-36.5
X77.Y-40.5
X77.Y-44.5
X79.Y-22.5
X79.Y-26.5
X79.Y-30.5
X79.Y-34.5
X79.Y-38.5
X79.Y-42.5
X79.Y-46.5
X81.Y-24.5
X81.Y-28.5
X81.Y-32.5
X81.Y-36.5
X81.Y-40.5
X81.Y-44.5
X83.Y-22.5
X83.Y-26.5
X83.Y-30.5
X83.Y-34.5
X83.Y-38.5
X83.Y-42.5
X83.Y-46.5
X85.Y-24.5
X85.Y-28.5
X85.Y-32.5
X85.Y-36.5
X85.Y-40.5
X85.Y-44.5
X87.Y-22.5
X87.Y-26.5
X87.Y-30.5
X87.Y-34.5
X87.Y-38.5
X87.Y-42.5
X87.Y-46.5
X89.Y-24.5
X89.Y-28.5
X89.Y-32.5
X89.Y-36.5
X89.Y-40.5
X89.Y-44.5
X91.Y-22.5
X91.Y-26.5
X91.Y-30.5
X91.Y-34.5
X91.Y-38.5
X91.Y-42.5
X91.Y-46.5
X93.Y-24.5
X93.Y-28.5
X93.Y-32.5
X93.Y-36.5
X93.Y-40.5
X93.Y-44.5
X95.Y-26.5
X95.Y-30.5
X95.Y-34.5
X95.Y-38.5
X95.Y-42.5
X97.Y-28.5
X97.Y-32.5
X97.Y-36.5
X97.Y-40.5
T5
X13.5Y-15.
X13.5Y-40.
T6
X73.Y-22.5
X73.Y-46.5
X97.Y-22.5
X97.Y-46.5
T7
X39.Y-8.235
X71.Y-8.235
T8
X91.Y-14.1
T3
X4.75Y-3.75G85X5.Y-3.75
G05
X101.Y-3.75G85X101.25Y-3.75
G05
X101.Y-51.25G85X101.25Y-51.25
G05
X4.75Y-51.25G85X5.Y-51.25
G05
T0
M30
