G04 #@! TF.GenerationSoftware,KiCad,Pcbnew,5.1.5-52549c5~84~ubuntu18.04.1*
G04 #@! TF.CreationDate,2020-03-29T21:39:51-07:00*
G04 #@! TF.ProjectId,endcap,656e6463-6170-42e6-9b69-6361645f7063,2.1*
G04 #@! TF.SameCoordinates,PX2faf080PY2faf080*
G04 #@! TF.FileFunction,Other,ECO1*
%FSLAX46Y46*%
G04 Gerber Fmt 4.6, Leading zero omitted, Abs format (unit mm)*
G04 Created by KiCad (PCBNEW 5.1.5-52549c5~84~ubuntu18.04.1) date 2020-03-29 21:39:51*
%MOMM*%
%LPD*%
G04 APERTURE LIST*
%ADD10C,0.300000*%
G04 APERTURE END LIST*
D10*
X17885714Y-7783333D02*
X16695238Y-7783333D01*
X18123809Y-7069047D02*
X17290476Y-9569047D01*
X16457142Y-7069047D01*
X14195238Y-7307142D02*
X14314285Y-7188095D01*
X14671428Y-7069047D01*
X14909523Y-7069047D01*
X15266666Y-7188095D01*
X15504761Y-7426190D01*
X15623809Y-7664285D01*
X15742857Y-8140476D01*
X15742857Y-8497619D01*
X15623809Y-8973809D01*
X15504761Y-9211904D01*
X15266666Y-9450000D01*
X14909523Y-9569047D01*
X14671428Y-9569047D01*
X14314285Y-9450000D01*
X14195238Y-9330952D01*
X11695238Y-7307142D02*
X11814285Y-7188095D01*
X12171428Y-7069047D01*
X12409523Y-7069047D01*
X12766666Y-7188095D01*
X13004761Y-7426190D01*
X13123809Y-7664285D01*
X13242857Y-8140476D01*
X13242857Y-8497619D01*
X13123809Y-8973809D01*
X13004761Y-9211904D01*
X12766666Y-9450000D01*
X12409523Y-9569047D01*
X12171428Y-9569047D01*
X11814285Y-9450000D01*
X11695238Y-9330952D01*
X10742857Y-9330952D02*
X10623809Y-9450000D01*
X10385714Y-9569047D01*
X9790476Y-9569047D01*
X9552380Y-9450000D01*
X9433333Y-9330952D01*
X9314285Y-9092857D01*
X9314285Y-8854761D01*
X9433333Y-8497619D01*
X10861904Y-7069047D01*
X9314285Y-7069047D01*
X21688095Y-43569047D02*
X22521428Y-44759523D01*
X23116666Y-43569047D02*
X23116666Y-46069047D01*
X22164285Y-46069047D01*
X21926190Y-45950000D01*
X21807142Y-45830952D01*
X21688095Y-45592857D01*
X21688095Y-45235714D01*
X21807142Y-44997619D01*
X21926190Y-44878571D01*
X22164285Y-44759523D01*
X23116666Y-44759523D01*
X19783333Y-44878571D02*
X20616666Y-44878571D01*
X20616666Y-43569047D02*
X20616666Y-46069047D01*
X19426190Y-46069047D01*
X18711904Y-46069047D02*
X17164285Y-46069047D01*
X17997619Y-45116666D01*
X17640476Y-45116666D01*
X17402380Y-44997619D01*
X17283333Y-44878571D01*
X17164285Y-44640476D01*
X17164285Y-44045238D01*
X17283333Y-43807142D01*
X17402380Y-43688095D01*
X17640476Y-43569047D01*
X18354761Y-43569047D01*
X18592857Y-43688095D01*
X18711904Y-43807142D01*
X38085714Y-51083333D02*
X36895238Y-51083333D01*
X38323809Y-50369047D02*
X37490476Y-52869047D01*
X36657142Y-50369047D01*
X34395238Y-50607142D02*
X34514285Y-50488095D01*
X34871428Y-50369047D01*
X35109523Y-50369047D01*
X35466666Y-50488095D01*
X35704761Y-50726190D01*
X35823809Y-50964285D01*
X35942857Y-51440476D01*
X35942857Y-51797619D01*
X35823809Y-52273809D01*
X35704761Y-52511904D01*
X35466666Y-52750000D01*
X35109523Y-52869047D01*
X34871428Y-52869047D01*
X34514285Y-52750000D01*
X34395238Y-52630952D01*
X31895238Y-50607142D02*
X32014285Y-50488095D01*
X32371428Y-50369047D01*
X32609523Y-50369047D01*
X32966666Y-50488095D01*
X33204761Y-50726190D01*
X33323809Y-50964285D01*
X33442857Y-51440476D01*
X33442857Y-51797619D01*
X33323809Y-52273809D01*
X33204761Y-52511904D01*
X32966666Y-52750000D01*
X32609523Y-52869047D01*
X32371428Y-52869047D01*
X32014285Y-52750000D01*
X31895238Y-52630952D01*
X29514285Y-50369047D02*
X30942857Y-50369047D01*
X30228571Y-50369047D02*
X30228571Y-52869047D01*
X30466666Y-52511904D01*
X30704761Y-52273809D01*
X30942857Y-52154761D01*
X45400000Y-14569047D02*
X45400000Y-17069047D01*
X44328571Y-14688095D02*
X43971428Y-14569047D01*
X43376190Y-14569047D01*
X43138095Y-14688095D01*
X43019047Y-14807142D01*
X42900000Y-15045238D01*
X42900000Y-15283333D01*
X43019047Y-15521428D01*
X43138095Y-15640476D01*
X43376190Y-15759523D01*
X43852380Y-15878571D01*
X44090476Y-15997619D01*
X44209523Y-16116666D01*
X44328571Y-16354761D01*
X44328571Y-16592857D01*
X44209523Y-16830952D01*
X44090476Y-16950000D01*
X43852380Y-17069047D01*
X43257142Y-17069047D01*
X42900000Y-16950000D01*
X41352380Y-17069047D02*
X40876190Y-17069047D01*
X40638095Y-16950000D01*
X40400000Y-16711904D01*
X40280952Y-16235714D01*
X40280952Y-15402380D01*
X40400000Y-14926190D01*
X40638095Y-14688095D01*
X40876190Y-14569047D01*
X41352380Y-14569047D01*
X41590476Y-14688095D01*
X41828571Y-14926190D01*
X41947619Y-15402380D01*
X41947619Y-16235714D01*
X41828571Y-16711904D01*
X41590476Y-16950000D01*
X41352380Y-17069047D01*
X96450000Y-50769047D02*
X96450000Y-53269047D01*
X96450000Y-52078571D02*
X95021428Y-52078571D01*
X95021428Y-50769047D02*
X95021428Y-53269047D01*
X92878571Y-50888095D02*
X93116666Y-50769047D01*
X93592857Y-50769047D01*
X93830952Y-50888095D01*
X93950000Y-51126190D01*
X93950000Y-52078571D01*
X93830952Y-52316666D01*
X93592857Y-52435714D01*
X93116666Y-52435714D01*
X92878571Y-52316666D01*
X92759523Y-52078571D01*
X92759523Y-51840476D01*
X93950000Y-51602380D01*
X91688095Y-50769047D02*
X91688095Y-52435714D01*
X91688095Y-51959523D02*
X91569047Y-52197619D01*
X91450000Y-52316666D01*
X91211904Y-52435714D01*
X90973809Y-52435714D01*
X90140476Y-50769047D02*
X90140476Y-52435714D01*
X90140476Y-52197619D02*
X90021428Y-52316666D01*
X89783333Y-52435714D01*
X89426190Y-52435714D01*
X89188095Y-52316666D01*
X89069047Y-52078571D01*
X89069047Y-50769047D01*
X89069047Y-52078571D02*
X88950000Y-52316666D01*
X88711904Y-52435714D01*
X88354761Y-52435714D01*
X88116666Y-52316666D01*
X87997619Y-52078571D01*
X87997619Y-50769047D01*
X85854761Y-50888095D02*
X86092857Y-50769047D01*
X86569047Y-50769047D01*
X86807142Y-50888095D01*
X86926190Y-51126190D01*
X86926190Y-52078571D01*
X86807142Y-52316666D01*
X86569047Y-52435714D01*
X86092857Y-52435714D01*
X85854761Y-52316666D01*
X85735714Y-52078571D01*
X85735714Y-51840476D01*
X86926190Y-51602380D01*
X84783333Y-50888095D02*
X84545238Y-50769047D01*
X84069047Y-50769047D01*
X83830952Y-50888095D01*
X83711904Y-51126190D01*
X83711904Y-51245238D01*
X83830952Y-51483333D01*
X84069047Y-51602380D01*
X84426190Y-51602380D01*
X84664285Y-51721428D01*
X84783333Y-51959523D01*
X84783333Y-52078571D01*
X84664285Y-52316666D01*
X84426190Y-52435714D01*
X84069047Y-52435714D01*
X83830952Y-52316666D01*
X82640476Y-51721428D02*
X80735714Y-51721428D01*
X78354761Y-50769047D02*
X79545238Y-50769047D01*
X79545238Y-53269047D01*
X77521428Y-50769047D02*
X77521428Y-52435714D01*
X77521428Y-53269047D02*
X77640476Y-53150000D01*
X77521428Y-53030952D01*
X77402380Y-53150000D01*
X77521428Y-53269047D01*
X77521428Y-53030952D01*
X76688095Y-52435714D02*
X75735714Y-52435714D01*
X76330952Y-53269047D02*
X76330952Y-51126190D01*
X76211904Y-50888095D01*
X75973809Y-50769047D01*
X75735714Y-50769047D01*
X73950000Y-50888095D02*
X74188095Y-50769047D01*
X74664285Y-50769047D01*
X74902380Y-50888095D01*
X75021428Y-51126190D01*
X75021428Y-52078571D01*
X74902380Y-52316666D01*
X74664285Y-52435714D01*
X74188095Y-52435714D01*
X73950000Y-52316666D01*
X73830952Y-52078571D01*
X73830952Y-51840476D01*
X75021428Y-51602380D01*
X83780952Y-14078571D02*
X82947619Y-14078571D01*
X82590476Y-12769047D02*
X83780952Y-12769047D01*
X83780952Y-15269047D01*
X82590476Y-15269047D01*
X81757142Y-15269047D02*
X80090476Y-12769047D01*
X80090476Y-15269047D02*
X81757142Y-12769047D01*
X79495238Y-15269047D02*
X78066666Y-15269047D01*
X78780952Y-12769047D02*
X78780952Y-15269047D01*
X77590476Y-15269047D02*
X76161904Y-15269047D01*
X76876190Y-12769047D02*
X76876190Y-15269047D01*
X73900000Y-12769047D02*
X74733333Y-13959523D01*
X75328571Y-12769047D02*
X75328571Y-15269047D01*
X74376190Y-15269047D01*
X74138095Y-15150000D01*
X74019047Y-15030952D01*
X73900000Y-14792857D01*
X73900000Y-14435714D01*
X74019047Y-14197619D01*
X74138095Y-14078571D01*
X74376190Y-13959523D01*
X75328571Y-13959523D01*
X32857142Y-7783333D02*
X31666666Y-7783333D01*
X33095238Y-7069047D02*
X32261904Y-9569047D01*
X31428571Y-7069047D01*
X30595238Y-7069047D02*
X30595238Y-9569047D01*
X29166666Y-7069047D01*
X29166666Y-9569047D01*
X28333333Y-9569047D02*
X26904761Y-9569047D01*
X27619047Y-7069047D02*
X27619047Y-9569047D01*
X63788095Y-7069047D02*
X64621428Y-8259523D01*
X65216666Y-7069047D02*
X65216666Y-9569047D01*
X64264285Y-9569047D01*
X64026190Y-9450000D01*
X63907142Y-9330952D01*
X63788095Y-9092857D01*
X63788095Y-8735714D01*
X63907142Y-8497619D01*
X64026190Y-8378571D01*
X64264285Y-8259523D01*
X65216666Y-8259523D01*
X61883333Y-8378571D02*
X62716666Y-8378571D01*
X62716666Y-7069047D02*
X62716666Y-9569047D01*
X61526190Y-9569047D01*
X59264285Y-7069047D02*
X60692857Y-7069047D01*
X59978571Y-7069047D02*
X59978571Y-9569047D01*
X60216666Y-9211904D01*
X60454761Y-8973809D01*
X60692857Y-8854761D01*
M02*
