G04 #@! TF.GenerationSoftware,KiCad,Pcbnew,5.1.5-52549c5~84~ubuntu18.04.1*
G04 #@! TF.CreationDate,2020-03-18T22:38:39-07:00*
G04 #@! TF.ProjectId,endcap,656e6463-6170-42e6-9b69-6361645f7063,2.1*
G04 #@! TF.SameCoordinates,PX2faf080PY2faf080*
G04 #@! TF.FileFunction,Soldermask,Bot*
G04 #@! TF.FilePolarity,Negative*
%FSLAX46Y46*%
G04 Gerber Fmt 4.6, Leading zero omitted, Abs format (unit mm)*
G04 Created by KiCad (PCBNEW 5.1.5-52549c5~84~ubuntu18.04.1) date 2020-03-18 22:38:39*
%MOMM*%
%LPD*%
G04 APERTURE LIST*
%ADD10C,0.100000*%
G04 APERTURE END LIST*
D10*
G36*
X101604822Y-48795445D02*
G01*
X101854515Y-48845112D01*
X102309668Y-49033643D01*
X102315726Y-49037691D01*
X102719294Y-49307346D01*
X103067654Y-49655706D01*
X103153836Y-49784687D01*
X103341357Y-50065332D01*
X103511462Y-50476000D01*
X103529888Y-50520486D01*
X103626000Y-51003672D01*
X103626000Y-51496328D01*
X103529888Y-51979514D01*
X103341358Y-52434666D01*
X103067654Y-52844294D01*
X102719294Y-53192654D01*
X102412769Y-53397467D01*
X102309668Y-53466357D01*
X101854515Y-53654888D01*
X101612921Y-53702944D01*
X101371328Y-53751000D01*
X100878672Y-53751000D01*
X100637079Y-53702944D01*
X100395485Y-53654888D01*
X99940332Y-53466357D01*
X99837231Y-53397467D01*
X99530706Y-53192654D01*
X99182346Y-52844294D01*
X98908642Y-52434666D01*
X98720112Y-51979514D01*
X98624000Y-51496328D01*
X98624000Y-51003672D01*
X98720112Y-50520486D01*
X98738539Y-50476000D01*
X98908643Y-50065332D01*
X99096164Y-49784687D01*
X99182346Y-49655706D01*
X99530706Y-49307346D01*
X99934274Y-49037691D01*
X99940332Y-49033643D01*
X100395485Y-48845112D01*
X100645178Y-48795445D01*
X100878672Y-48749000D01*
X101371328Y-48749000D01*
X101604822Y-48795445D01*
G37*
G36*
X5354822Y-48795445D02*
G01*
X5604515Y-48845112D01*
X6059668Y-49033643D01*
X6065726Y-49037691D01*
X6469294Y-49307346D01*
X6817654Y-49655706D01*
X6903836Y-49784687D01*
X7091357Y-50065332D01*
X7261462Y-50476000D01*
X7279888Y-50520486D01*
X7376000Y-51003672D01*
X7376000Y-51496328D01*
X7279888Y-51979514D01*
X7091358Y-52434666D01*
X6817654Y-52844294D01*
X6469294Y-53192654D01*
X6162769Y-53397467D01*
X6059668Y-53466357D01*
X5604515Y-53654888D01*
X5362921Y-53702944D01*
X5121328Y-53751000D01*
X4628672Y-53751000D01*
X4387079Y-53702944D01*
X4145485Y-53654888D01*
X3690332Y-53466357D01*
X3587231Y-53397467D01*
X3280706Y-53192654D01*
X2932346Y-52844294D01*
X2658642Y-52434666D01*
X2470112Y-51979514D01*
X2374000Y-51496328D01*
X2374000Y-51003672D01*
X2470112Y-50520486D01*
X2488539Y-50476000D01*
X2658643Y-50065332D01*
X2846164Y-49784687D01*
X2932346Y-49655706D01*
X3280706Y-49307346D01*
X3684274Y-49037691D01*
X3690332Y-49033643D01*
X4145485Y-48845112D01*
X4395178Y-48795445D01*
X4628672Y-48749000D01*
X5121328Y-48749000D01*
X5354822Y-48795445D01*
G37*
G36*
X63981000Y-48699800D02*
G01*
X63980450Y-48701613D01*
X63978048Y-48725999D01*
X63980450Y-48750385D01*
X63987563Y-48773834D01*
X63999114Y-48795445D01*
X64014659Y-48814387D01*
X64078111Y-48877839D01*
X64167158Y-49011109D01*
X64184920Y-49037691D01*
X64241825Y-49175073D01*
X64258493Y-49215313D01*
X64296000Y-49403871D01*
X64296000Y-49596129D01*
X64258493Y-49784687D01*
X64258492Y-49784689D01*
X64184920Y-49962309D01*
X64184919Y-49962310D01*
X64078111Y-50122161D01*
X63942161Y-50258111D01*
X63808891Y-50347158D01*
X63782309Y-50364920D01*
X63644927Y-50421825D01*
X63604687Y-50438493D01*
X63416129Y-50476000D01*
X63223871Y-50476000D01*
X63035313Y-50438493D01*
X62995073Y-50421825D01*
X62857691Y-50364920D01*
X62831109Y-50347158D01*
X62697839Y-50258111D01*
X62561889Y-50122161D01*
X62455081Y-49962310D01*
X62455080Y-49962309D01*
X62381508Y-49784689D01*
X62381507Y-49784687D01*
X62344000Y-49596129D01*
X62344000Y-49403871D01*
X62381507Y-49215313D01*
X62398175Y-49175073D01*
X62455080Y-49037691D01*
X62472842Y-49011109D01*
X62561889Y-48877839D01*
X62625341Y-48814387D01*
X62640886Y-48795445D01*
X62652437Y-48773834D01*
X62659550Y-48750385D01*
X62661952Y-48725999D01*
X62659550Y-48701613D01*
X62652437Y-48678164D01*
X62640886Y-48656553D01*
X62625341Y-48637611D01*
X62606399Y-48622066D01*
X62584788Y-48610515D01*
X62579000Y-48608759D01*
X62579000Y-45899000D01*
X63981000Y-45899000D01*
X63981000Y-48699800D01*
G37*
G36*
X61441000Y-48699800D02*
G01*
X61440450Y-48701613D01*
X61438048Y-48725999D01*
X61440450Y-48750385D01*
X61447563Y-48773834D01*
X61459114Y-48795445D01*
X61474659Y-48814387D01*
X61538111Y-48877839D01*
X61627158Y-49011109D01*
X61644920Y-49037691D01*
X61701825Y-49175073D01*
X61718493Y-49215313D01*
X61756000Y-49403871D01*
X61756000Y-49596129D01*
X61718493Y-49784687D01*
X61718492Y-49784689D01*
X61644920Y-49962309D01*
X61644919Y-49962310D01*
X61538111Y-50122161D01*
X61402161Y-50258111D01*
X61268891Y-50347158D01*
X61242309Y-50364920D01*
X61104927Y-50421825D01*
X61064687Y-50438493D01*
X60876129Y-50476000D01*
X60683871Y-50476000D01*
X60495313Y-50438493D01*
X60455073Y-50421825D01*
X60317691Y-50364920D01*
X60291109Y-50347158D01*
X60157839Y-50258111D01*
X60021889Y-50122161D01*
X59915081Y-49962310D01*
X59915080Y-49962309D01*
X59841508Y-49784689D01*
X59841507Y-49784687D01*
X59804000Y-49596129D01*
X59804000Y-49403871D01*
X59841507Y-49215313D01*
X59858175Y-49175073D01*
X59915080Y-49037691D01*
X59932842Y-49011109D01*
X60021889Y-48877839D01*
X60085341Y-48814387D01*
X60100886Y-48795445D01*
X60112437Y-48773834D01*
X60119550Y-48750385D01*
X60121952Y-48725999D01*
X60119550Y-48701613D01*
X60112437Y-48678164D01*
X60100886Y-48656553D01*
X60085341Y-48637611D01*
X60066399Y-48622066D01*
X60044788Y-48610515D01*
X60039000Y-48608759D01*
X60039000Y-45899000D01*
X61441000Y-45899000D01*
X61441000Y-48699800D01*
G37*
G36*
X58901000Y-48699800D02*
G01*
X58900450Y-48701613D01*
X58898048Y-48725999D01*
X58900450Y-48750385D01*
X58907563Y-48773834D01*
X58919114Y-48795445D01*
X58934659Y-48814387D01*
X58998111Y-48877839D01*
X59087158Y-49011109D01*
X59104920Y-49037691D01*
X59161825Y-49175073D01*
X59178493Y-49215313D01*
X59216000Y-49403871D01*
X59216000Y-49596129D01*
X59178493Y-49784687D01*
X59178492Y-49784689D01*
X59104920Y-49962309D01*
X59104919Y-49962310D01*
X58998111Y-50122161D01*
X58862161Y-50258111D01*
X58728891Y-50347158D01*
X58702309Y-50364920D01*
X58564927Y-50421825D01*
X58524687Y-50438493D01*
X58336129Y-50476000D01*
X58143871Y-50476000D01*
X57955313Y-50438493D01*
X57915073Y-50421825D01*
X57777691Y-50364920D01*
X57751109Y-50347158D01*
X57617839Y-50258111D01*
X57481889Y-50122161D01*
X57375081Y-49962310D01*
X57375080Y-49962309D01*
X57301508Y-49784689D01*
X57301507Y-49784687D01*
X57264000Y-49596129D01*
X57264000Y-49403871D01*
X57301507Y-49215313D01*
X57318175Y-49175073D01*
X57375080Y-49037691D01*
X57392842Y-49011109D01*
X57481889Y-48877839D01*
X57545341Y-48814387D01*
X57560886Y-48795445D01*
X57572437Y-48773834D01*
X57579550Y-48750385D01*
X57581952Y-48725999D01*
X57579550Y-48701613D01*
X57572437Y-48678164D01*
X57560886Y-48656553D01*
X57545341Y-48637611D01*
X57526399Y-48622066D01*
X57504788Y-48610515D01*
X57499000Y-48608759D01*
X57499000Y-45899000D01*
X58901000Y-45899000D01*
X58901000Y-48699800D01*
G37*
G36*
X56361000Y-48699800D02*
G01*
X56360450Y-48701613D01*
X56358048Y-48725999D01*
X56360450Y-48750385D01*
X56367563Y-48773834D01*
X56379114Y-48795445D01*
X56394659Y-48814387D01*
X56458111Y-48877839D01*
X56547158Y-49011109D01*
X56564920Y-49037691D01*
X56621825Y-49175073D01*
X56638493Y-49215313D01*
X56676000Y-49403871D01*
X56676000Y-49596129D01*
X56638493Y-49784687D01*
X56638492Y-49784689D01*
X56564920Y-49962309D01*
X56564919Y-49962310D01*
X56458111Y-50122161D01*
X56322161Y-50258111D01*
X56188891Y-50347158D01*
X56162309Y-50364920D01*
X56024927Y-50421825D01*
X55984687Y-50438493D01*
X55796129Y-50476000D01*
X55603871Y-50476000D01*
X55415313Y-50438493D01*
X55375073Y-50421825D01*
X55237691Y-50364920D01*
X55211109Y-50347158D01*
X55077839Y-50258111D01*
X54941889Y-50122161D01*
X54835081Y-49962310D01*
X54835080Y-49962309D01*
X54761508Y-49784689D01*
X54761507Y-49784687D01*
X54724000Y-49596129D01*
X54724000Y-49403871D01*
X54761507Y-49215313D01*
X54778175Y-49175073D01*
X54835080Y-49037691D01*
X54852842Y-49011109D01*
X54941889Y-48877839D01*
X55005341Y-48814387D01*
X55020886Y-48795445D01*
X55032437Y-48773834D01*
X55039550Y-48750385D01*
X55041952Y-48725999D01*
X55039550Y-48701613D01*
X55032437Y-48678164D01*
X55020886Y-48656553D01*
X55005341Y-48637611D01*
X54986399Y-48622066D01*
X54964788Y-48610515D01*
X54959000Y-48608759D01*
X54959000Y-45899000D01*
X56361000Y-45899000D01*
X56361000Y-48699800D01*
G37*
G36*
X53821000Y-48699800D02*
G01*
X53820450Y-48701613D01*
X53818048Y-48725999D01*
X53820450Y-48750385D01*
X53827563Y-48773834D01*
X53839114Y-48795445D01*
X53854659Y-48814387D01*
X53918111Y-48877839D01*
X54007158Y-49011109D01*
X54024920Y-49037691D01*
X54081825Y-49175073D01*
X54098493Y-49215313D01*
X54136000Y-49403871D01*
X54136000Y-49596129D01*
X54098493Y-49784687D01*
X54098492Y-49784689D01*
X54024920Y-49962309D01*
X54024919Y-49962310D01*
X53918111Y-50122161D01*
X53782161Y-50258111D01*
X53648891Y-50347158D01*
X53622309Y-50364920D01*
X53484927Y-50421825D01*
X53444687Y-50438493D01*
X53256129Y-50476000D01*
X53063871Y-50476000D01*
X52875313Y-50438493D01*
X52835073Y-50421825D01*
X52697691Y-50364920D01*
X52671109Y-50347158D01*
X52537839Y-50258111D01*
X52401889Y-50122161D01*
X52295081Y-49962310D01*
X52295080Y-49962309D01*
X52221508Y-49784689D01*
X52221507Y-49784687D01*
X52184000Y-49596129D01*
X52184000Y-49403871D01*
X52221507Y-49215313D01*
X52238175Y-49175073D01*
X52295080Y-49037691D01*
X52312842Y-49011109D01*
X52401889Y-48877839D01*
X52465341Y-48814387D01*
X52480886Y-48795445D01*
X52492437Y-48773834D01*
X52499550Y-48750385D01*
X52501952Y-48725999D01*
X52499550Y-48701613D01*
X52492437Y-48678164D01*
X52480886Y-48656553D01*
X52465341Y-48637611D01*
X52446399Y-48622066D01*
X52424788Y-48610515D01*
X52419000Y-48608759D01*
X52419000Y-45899000D01*
X53821000Y-45899000D01*
X53821000Y-48699800D01*
G37*
G36*
X51281000Y-48699800D02*
G01*
X51280450Y-48701613D01*
X51278048Y-48725999D01*
X51280450Y-48750385D01*
X51287563Y-48773834D01*
X51299114Y-48795445D01*
X51314659Y-48814387D01*
X51378111Y-48877839D01*
X51467158Y-49011109D01*
X51484920Y-49037691D01*
X51541825Y-49175073D01*
X51558493Y-49215313D01*
X51596000Y-49403871D01*
X51596000Y-49596129D01*
X51558493Y-49784687D01*
X51558492Y-49784689D01*
X51484920Y-49962309D01*
X51484919Y-49962310D01*
X51378111Y-50122161D01*
X51242161Y-50258111D01*
X51108891Y-50347158D01*
X51082309Y-50364920D01*
X50944927Y-50421825D01*
X50904687Y-50438493D01*
X50716129Y-50476000D01*
X50523871Y-50476000D01*
X50335313Y-50438493D01*
X50295073Y-50421825D01*
X50157691Y-50364920D01*
X50131109Y-50347158D01*
X49997839Y-50258111D01*
X49861889Y-50122161D01*
X49755081Y-49962310D01*
X49755080Y-49962309D01*
X49681508Y-49784689D01*
X49681507Y-49784687D01*
X49644000Y-49596129D01*
X49644000Y-49403871D01*
X49681507Y-49215313D01*
X49698175Y-49175073D01*
X49755080Y-49037691D01*
X49772842Y-49011109D01*
X49861889Y-48877839D01*
X49925341Y-48814387D01*
X49940886Y-48795445D01*
X49952437Y-48773834D01*
X49959550Y-48750385D01*
X49961952Y-48725999D01*
X49959550Y-48701613D01*
X49952437Y-48678164D01*
X49940886Y-48656553D01*
X49925341Y-48637611D01*
X49906399Y-48622066D01*
X49884788Y-48610515D01*
X49879000Y-48608759D01*
X49879000Y-45899000D01*
X51281000Y-45899000D01*
X51281000Y-48699800D01*
G37*
G36*
X46201000Y-48699800D02*
G01*
X46200450Y-48701613D01*
X46198048Y-48725999D01*
X46200450Y-48750385D01*
X46207563Y-48773834D01*
X46219114Y-48795445D01*
X46234659Y-48814387D01*
X46298111Y-48877839D01*
X46387158Y-49011109D01*
X46404920Y-49037691D01*
X46461825Y-49175073D01*
X46478493Y-49215313D01*
X46516000Y-49403871D01*
X46516000Y-49596129D01*
X46478493Y-49784687D01*
X46478492Y-49784689D01*
X46404920Y-49962309D01*
X46404919Y-49962310D01*
X46298111Y-50122161D01*
X46162161Y-50258111D01*
X46028891Y-50347158D01*
X46002309Y-50364920D01*
X45864927Y-50421825D01*
X45824687Y-50438493D01*
X45636129Y-50476000D01*
X45443871Y-50476000D01*
X45255313Y-50438493D01*
X45215073Y-50421825D01*
X45077691Y-50364920D01*
X45051109Y-50347158D01*
X44917839Y-50258111D01*
X44781889Y-50122161D01*
X44675081Y-49962310D01*
X44675080Y-49962309D01*
X44601508Y-49784689D01*
X44601507Y-49784687D01*
X44564000Y-49596129D01*
X44564000Y-49403871D01*
X44601507Y-49215313D01*
X44618175Y-49175073D01*
X44675080Y-49037691D01*
X44692842Y-49011109D01*
X44781889Y-48877839D01*
X44845341Y-48814387D01*
X44860886Y-48795445D01*
X44872437Y-48773834D01*
X44879550Y-48750385D01*
X44881952Y-48725999D01*
X44879550Y-48701613D01*
X44872437Y-48678164D01*
X44860886Y-48656553D01*
X44845341Y-48637611D01*
X44826399Y-48622066D01*
X44804788Y-48610515D01*
X44799000Y-48608759D01*
X44799000Y-45899000D01*
X46201000Y-45899000D01*
X46201000Y-48699800D01*
G37*
G36*
X43284687Y-48561507D02*
G01*
X43284690Y-48561508D01*
X43284689Y-48561508D01*
X43462309Y-48635080D01*
X43488891Y-48652842D01*
X43622161Y-48741889D01*
X43758111Y-48877839D01*
X43847158Y-49011109D01*
X43864920Y-49037691D01*
X43921825Y-49175073D01*
X43938493Y-49215313D01*
X43976000Y-49403871D01*
X43976000Y-49596129D01*
X43938493Y-49784687D01*
X43938492Y-49784689D01*
X43864920Y-49962309D01*
X43864919Y-49962310D01*
X43758111Y-50122161D01*
X43622161Y-50258111D01*
X43488891Y-50347158D01*
X43462309Y-50364920D01*
X43324927Y-50421825D01*
X43284687Y-50438493D01*
X43096129Y-50476000D01*
X42903871Y-50476000D01*
X42715313Y-50438493D01*
X42675073Y-50421825D01*
X42537691Y-50364920D01*
X42511109Y-50347158D01*
X42377839Y-50258111D01*
X42241889Y-50122161D01*
X42135081Y-49962310D01*
X42135080Y-49962309D01*
X42061508Y-49784689D01*
X42061507Y-49784687D01*
X42024000Y-49596129D01*
X42024000Y-49403871D01*
X42061507Y-49215313D01*
X42078175Y-49175073D01*
X42135080Y-49037691D01*
X42152842Y-49011109D01*
X42241889Y-48877839D01*
X42377839Y-48741889D01*
X42511109Y-48652842D01*
X42537691Y-48635080D01*
X42715311Y-48561508D01*
X42715310Y-48561508D01*
X42715313Y-48561507D01*
X42903871Y-48524000D01*
X43096129Y-48524000D01*
X43284687Y-48561507D01*
G37*
G36*
X48741000Y-48699800D02*
G01*
X48740450Y-48701613D01*
X48738048Y-48725999D01*
X48740450Y-48750385D01*
X48747563Y-48773834D01*
X48759114Y-48795445D01*
X48774659Y-48814387D01*
X48838111Y-48877839D01*
X48927158Y-49011109D01*
X48944920Y-49037691D01*
X49001825Y-49175073D01*
X49018493Y-49215313D01*
X49056000Y-49403871D01*
X49056000Y-49596129D01*
X49018493Y-49784687D01*
X49018492Y-49784689D01*
X48944920Y-49962309D01*
X48944919Y-49962310D01*
X48838111Y-50122161D01*
X48702161Y-50258111D01*
X48568891Y-50347158D01*
X48542309Y-50364920D01*
X48404927Y-50421825D01*
X48364687Y-50438493D01*
X48176129Y-50476000D01*
X47983871Y-50476000D01*
X47795313Y-50438493D01*
X47755073Y-50421825D01*
X47617691Y-50364920D01*
X47591109Y-50347158D01*
X47457839Y-50258111D01*
X47321889Y-50122161D01*
X47215081Y-49962310D01*
X47215080Y-49962309D01*
X47141508Y-49784689D01*
X47141507Y-49784687D01*
X47104000Y-49596129D01*
X47104000Y-49403871D01*
X47141507Y-49215313D01*
X47158175Y-49175073D01*
X47215080Y-49037691D01*
X47232842Y-49011109D01*
X47321889Y-48877839D01*
X47385341Y-48814387D01*
X47400886Y-48795445D01*
X47412437Y-48773834D01*
X47419550Y-48750385D01*
X47421952Y-48725999D01*
X47419550Y-48701613D01*
X47412437Y-48678164D01*
X47400886Y-48656553D01*
X47385341Y-48637611D01*
X47366399Y-48622066D01*
X47344788Y-48610515D01*
X47339000Y-48608759D01*
X47339000Y-45899000D01*
X48741000Y-45899000D01*
X48741000Y-48699800D01*
G37*
G36*
X69749500Y-48548000D02*
G01*
X68250500Y-48548000D01*
X68250500Y-47557000D01*
X69749500Y-47557000D01*
X69749500Y-48548000D01*
G37*
G36*
X39349500Y-48348000D02*
G01*
X37850500Y-48348000D01*
X37850500Y-47357000D01*
X39349500Y-47357000D01*
X39349500Y-48348000D01*
G37*
G36*
X97375256Y-44891298D02*
G01*
X97481579Y-44912447D01*
X97782042Y-45036903D01*
X98052451Y-45217585D01*
X98282415Y-45447549D01*
X98463097Y-45717958D01*
X98562327Y-45957519D01*
X98587553Y-46018422D01*
X98651000Y-46337389D01*
X98651000Y-46662611D01*
X98633969Y-46748229D01*
X98587553Y-46981579D01*
X98463097Y-47282042D01*
X98282415Y-47552451D01*
X98052451Y-47782415D01*
X97782042Y-47963097D01*
X97481579Y-48087553D01*
X97375256Y-48108702D01*
X97162611Y-48151000D01*
X96837389Y-48151000D01*
X96624744Y-48108702D01*
X96518421Y-48087553D01*
X96217958Y-47963097D01*
X95947549Y-47782415D01*
X95717585Y-47552451D01*
X95536903Y-47282042D01*
X95412447Y-46981579D01*
X95366031Y-46748229D01*
X95349000Y-46662611D01*
X95349000Y-46337389D01*
X95412447Y-46018422D01*
X95437674Y-45957519D01*
X95536903Y-45717958D01*
X95717585Y-45447549D01*
X95947549Y-45217585D01*
X96217958Y-45036903D01*
X96518421Y-44912447D01*
X96624744Y-44891298D01*
X96837389Y-44849000D01*
X97162611Y-44849000D01*
X97375256Y-44891298D01*
G37*
G36*
X73375256Y-44891298D02*
G01*
X73481579Y-44912447D01*
X73782042Y-45036903D01*
X74052451Y-45217585D01*
X74282415Y-45447549D01*
X74463097Y-45717958D01*
X74562327Y-45957519D01*
X74587553Y-46018422D01*
X74651000Y-46337389D01*
X74651000Y-46662611D01*
X74633969Y-46748229D01*
X74587553Y-46981579D01*
X74463097Y-47282042D01*
X74282415Y-47552451D01*
X74052451Y-47782415D01*
X73782042Y-47963097D01*
X73481579Y-48087553D01*
X73375256Y-48108702D01*
X73162611Y-48151000D01*
X72837389Y-48151000D01*
X72624744Y-48108702D01*
X72518421Y-48087553D01*
X72217958Y-47963097D01*
X71947549Y-47782415D01*
X71717585Y-47552451D01*
X71536903Y-47282042D01*
X71412447Y-46981579D01*
X71366031Y-46748229D01*
X71349000Y-46662611D01*
X71349000Y-46337389D01*
X71412447Y-46018422D01*
X71437674Y-45957519D01*
X71536903Y-45717958D01*
X71717585Y-45447549D01*
X71947549Y-45217585D01*
X72217958Y-45036903D01*
X72518421Y-44912447D01*
X72624744Y-44891298D01*
X72837389Y-44849000D01*
X73162611Y-44849000D01*
X73375256Y-44891298D01*
G37*
G36*
X79248228Y-45681703D02*
G01*
X79403100Y-45745853D01*
X79542481Y-45838985D01*
X79661015Y-45957519D01*
X79754147Y-46096900D01*
X79818297Y-46251772D01*
X79851000Y-46416184D01*
X79851000Y-46583816D01*
X79818297Y-46748228D01*
X79754147Y-46903100D01*
X79661015Y-47042481D01*
X79542481Y-47161015D01*
X79403100Y-47254147D01*
X79248228Y-47318297D01*
X79083816Y-47351000D01*
X78916184Y-47351000D01*
X78751772Y-47318297D01*
X78596900Y-47254147D01*
X78457519Y-47161015D01*
X78338985Y-47042481D01*
X78245853Y-46903100D01*
X78181703Y-46748228D01*
X78149000Y-46583816D01*
X78149000Y-46416184D01*
X78181703Y-46251772D01*
X78245853Y-46096900D01*
X78338985Y-45957519D01*
X78457519Y-45838985D01*
X78596900Y-45745853D01*
X78751772Y-45681703D01*
X78916184Y-45649000D01*
X79083816Y-45649000D01*
X79248228Y-45681703D01*
G37*
G36*
X91248228Y-45681703D02*
G01*
X91403100Y-45745853D01*
X91542481Y-45838985D01*
X91661015Y-45957519D01*
X91754147Y-46096900D01*
X91818297Y-46251772D01*
X91851000Y-46416184D01*
X91851000Y-46583816D01*
X91818297Y-46748228D01*
X91754147Y-46903100D01*
X91661015Y-47042481D01*
X91542481Y-47161015D01*
X91403100Y-47254147D01*
X91248228Y-47318297D01*
X91083816Y-47351000D01*
X90916184Y-47351000D01*
X90751772Y-47318297D01*
X90596900Y-47254147D01*
X90457519Y-47161015D01*
X90338985Y-47042481D01*
X90245853Y-46903100D01*
X90181703Y-46748228D01*
X90149000Y-46583816D01*
X90149000Y-46416184D01*
X90181703Y-46251772D01*
X90245853Y-46096900D01*
X90338985Y-45957519D01*
X90457519Y-45838985D01*
X90596900Y-45745853D01*
X90751772Y-45681703D01*
X90916184Y-45649000D01*
X91083816Y-45649000D01*
X91248228Y-45681703D01*
G37*
G36*
X87248228Y-45681703D02*
G01*
X87403100Y-45745853D01*
X87542481Y-45838985D01*
X87661015Y-45957519D01*
X87754147Y-46096900D01*
X87818297Y-46251772D01*
X87851000Y-46416184D01*
X87851000Y-46583816D01*
X87818297Y-46748228D01*
X87754147Y-46903100D01*
X87661015Y-47042481D01*
X87542481Y-47161015D01*
X87403100Y-47254147D01*
X87248228Y-47318297D01*
X87083816Y-47351000D01*
X86916184Y-47351000D01*
X86751772Y-47318297D01*
X86596900Y-47254147D01*
X86457519Y-47161015D01*
X86338985Y-47042481D01*
X86245853Y-46903100D01*
X86181703Y-46748228D01*
X86149000Y-46583816D01*
X86149000Y-46416184D01*
X86181703Y-46251772D01*
X86245853Y-46096900D01*
X86338985Y-45957519D01*
X86457519Y-45838985D01*
X86596900Y-45745853D01*
X86751772Y-45681703D01*
X86916184Y-45649000D01*
X87083816Y-45649000D01*
X87248228Y-45681703D01*
G37*
G36*
X83248228Y-45681703D02*
G01*
X83403100Y-45745853D01*
X83542481Y-45838985D01*
X83661015Y-45957519D01*
X83754147Y-46096900D01*
X83818297Y-46251772D01*
X83851000Y-46416184D01*
X83851000Y-46583816D01*
X83818297Y-46748228D01*
X83754147Y-46903100D01*
X83661015Y-47042481D01*
X83542481Y-47161015D01*
X83403100Y-47254147D01*
X83248228Y-47318297D01*
X83083816Y-47351000D01*
X82916184Y-47351000D01*
X82751772Y-47318297D01*
X82596900Y-47254147D01*
X82457519Y-47161015D01*
X82338985Y-47042481D01*
X82245853Y-46903100D01*
X82181703Y-46748228D01*
X82149000Y-46583816D01*
X82149000Y-46416184D01*
X82181703Y-46251772D01*
X82245853Y-46096900D01*
X82338985Y-45957519D01*
X82457519Y-45838985D01*
X82596900Y-45745853D01*
X82751772Y-45681703D01*
X82916184Y-45649000D01*
X83083816Y-45649000D01*
X83248228Y-45681703D01*
G37*
G36*
X69749500Y-46643000D02*
G01*
X68250500Y-46643000D01*
X68250500Y-45652000D01*
X69749500Y-45652000D01*
X69749500Y-46643000D01*
G37*
G36*
X39349500Y-46443000D02*
G01*
X37850500Y-46443000D01*
X37850500Y-45452000D01*
X39349500Y-45452000D01*
X39349500Y-46443000D01*
G37*
G36*
X77248228Y-43681703D02*
G01*
X77403100Y-43745853D01*
X77542481Y-43838985D01*
X77661015Y-43957519D01*
X77754147Y-44096900D01*
X77818297Y-44251772D01*
X77851000Y-44416184D01*
X77851000Y-44583816D01*
X77818297Y-44748228D01*
X77754147Y-44903100D01*
X77661015Y-45042481D01*
X77542481Y-45161015D01*
X77403100Y-45254147D01*
X77248228Y-45318297D01*
X77083816Y-45351000D01*
X76916184Y-45351000D01*
X76751772Y-45318297D01*
X76596900Y-45254147D01*
X76457519Y-45161015D01*
X76338985Y-45042481D01*
X76245853Y-44903100D01*
X76181703Y-44748228D01*
X76149000Y-44583816D01*
X76149000Y-44416184D01*
X76181703Y-44251772D01*
X76245853Y-44096900D01*
X76338985Y-43957519D01*
X76457519Y-43838985D01*
X76596900Y-43745853D01*
X76751772Y-43681703D01*
X76916184Y-43649000D01*
X77083816Y-43649000D01*
X77248228Y-43681703D01*
G37*
G36*
X81248228Y-43681703D02*
G01*
X81403100Y-43745853D01*
X81542481Y-43838985D01*
X81661015Y-43957519D01*
X81754147Y-44096900D01*
X81818297Y-44251772D01*
X81851000Y-44416184D01*
X81851000Y-44583816D01*
X81818297Y-44748228D01*
X81754147Y-44903100D01*
X81661015Y-45042481D01*
X81542481Y-45161015D01*
X81403100Y-45254147D01*
X81248228Y-45318297D01*
X81083816Y-45351000D01*
X80916184Y-45351000D01*
X80751772Y-45318297D01*
X80596900Y-45254147D01*
X80457519Y-45161015D01*
X80338985Y-45042481D01*
X80245853Y-44903100D01*
X80181703Y-44748228D01*
X80149000Y-44583816D01*
X80149000Y-44416184D01*
X80181703Y-44251772D01*
X80245853Y-44096900D01*
X80338985Y-43957519D01*
X80457519Y-43838985D01*
X80596900Y-43745853D01*
X80751772Y-43681703D01*
X80916184Y-43649000D01*
X81083816Y-43649000D01*
X81248228Y-43681703D01*
G37*
G36*
X85248228Y-43681703D02*
G01*
X85403100Y-43745853D01*
X85542481Y-43838985D01*
X85661015Y-43957519D01*
X85754147Y-44096900D01*
X85818297Y-44251772D01*
X85851000Y-44416184D01*
X85851000Y-44583816D01*
X85818297Y-44748228D01*
X85754147Y-44903100D01*
X85661015Y-45042481D01*
X85542481Y-45161015D01*
X85403100Y-45254147D01*
X85248228Y-45318297D01*
X85083816Y-45351000D01*
X84916184Y-45351000D01*
X84751772Y-45318297D01*
X84596900Y-45254147D01*
X84457519Y-45161015D01*
X84338985Y-45042481D01*
X84245853Y-44903100D01*
X84181703Y-44748228D01*
X84149000Y-44583816D01*
X84149000Y-44416184D01*
X84181703Y-44251772D01*
X84245853Y-44096900D01*
X84338985Y-43957519D01*
X84457519Y-43838985D01*
X84596900Y-43745853D01*
X84751772Y-43681703D01*
X84916184Y-43649000D01*
X85083816Y-43649000D01*
X85248228Y-43681703D01*
G37*
G36*
X89248228Y-43681703D02*
G01*
X89403100Y-43745853D01*
X89542481Y-43838985D01*
X89661015Y-43957519D01*
X89754147Y-44096900D01*
X89818297Y-44251772D01*
X89851000Y-44416184D01*
X89851000Y-44583816D01*
X89818297Y-44748228D01*
X89754147Y-44903100D01*
X89661015Y-45042481D01*
X89542481Y-45161015D01*
X89403100Y-45254147D01*
X89248228Y-45318297D01*
X89083816Y-45351000D01*
X88916184Y-45351000D01*
X88751772Y-45318297D01*
X88596900Y-45254147D01*
X88457519Y-45161015D01*
X88338985Y-45042481D01*
X88245853Y-44903100D01*
X88181703Y-44748228D01*
X88149000Y-44583816D01*
X88149000Y-44416184D01*
X88181703Y-44251772D01*
X88245853Y-44096900D01*
X88338985Y-43957519D01*
X88457519Y-43838985D01*
X88596900Y-43745853D01*
X88751772Y-43681703D01*
X88916184Y-43649000D01*
X89083816Y-43649000D01*
X89248228Y-43681703D01*
G37*
G36*
X93248228Y-43681703D02*
G01*
X93403100Y-43745853D01*
X93542481Y-43838985D01*
X93661015Y-43957519D01*
X93754147Y-44096900D01*
X93818297Y-44251772D01*
X93851000Y-44416184D01*
X93851000Y-44583816D01*
X93818297Y-44748228D01*
X93754147Y-44903100D01*
X93661015Y-45042481D01*
X93542481Y-45161015D01*
X93403100Y-45254147D01*
X93248228Y-45318297D01*
X93083816Y-45351000D01*
X92916184Y-45351000D01*
X92751772Y-45318297D01*
X92596900Y-45254147D01*
X92457519Y-45161015D01*
X92338985Y-45042481D01*
X92245853Y-44903100D01*
X92181703Y-44748228D01*
X92149000Y-44583816D01*
X92149000Y-44416184D01*
X92181703Y-44251772D01*
X92245853Y-44096900D01*
X92338985Y-43957519D01*
X92457519Y-43838985D01*
X92596900Y-43745853D01*
X92751772Y-43681703D01*
X92916184Y-43649000D01*
X93083816Y-43649000D01*
X93248228Y-43681703D01*
G37*
G36*
X39349500Y-45048000D02*
G01*
X37850500Y-45048000D01*
X37850500Y-44057000D01*
X39349500Y-44057000D01*
X39349500Y-45048000D01*
G37*
G36*
X69749500Y-44648000D02*
G01*
X68250500Y-44648000D01*
X68250500Y-43657000D01*
X69749500Y-43657000D01*
X69749500Y-44648000D01*
G37*
G36*
X75248228Y-41681703D02*
G01*
X75403100Y-41745853D01*
X75542481Y-41838985D01*
X75661015Y-41957519D01*
X75754147Y-42096900D01*
X75818297Y-42251772D01*
X75851000Y-42416184D01*
X75851000Y-42583816D01*
X75818297Y-42748228D01*
X75754147Y-42903100D01*
X75661015Y-43042481D01*
X75542481Y-43161015D01*
X75403100Y-43254147D01*
X75248228Y-43318297D01*
X75083816Y-43351000D01*
X74916184Y-43351000D01*
X74751772Y-43318297D01*
X74596900Y-43254147D01*
X74457519Y-43161015D01*
X74338985Y-43042481D01*
X74245853Y-42903100D01*
X74181703Y-42748228D01*
X74149000Y-42583816D01*
X74149000Y-42416184D01*
X74181703Y-42251772D01*
X74245853Y-42096900D01*
X74338985Y-41957519D01*
X74457519Y-41838985D01*
X74596900Y-41745853D01*
X74751772Y-41681703D01*
X74916184Y-41649000D01*
X75083816Y-41649000D01*
X75248228Y-41681703D01*
G37*
G36*
X91248228Y-41681703D02*
G01*
X91403100Y-41745853D01*
X91542481Y-41838985D01*
X91661015Y-41957519D01*
X91754147Y-42096900D01*
X91818297Y-42251772D01*
X91851000Y-42416184D01*
X91851000Y-42583816D01*
X91818297Y-42748228D01*
X91754147Y-42903100D01*
X91661015Y-43042481D01*
X91542481Y-43161015D01*
X91403100Y-43254147D01*
X91248228Y-43318297D01*
X91083816Y-43351000D01*
X90916184Y-43351000D01*
X90751772Y-43318297D01*
X90596900Y-43254147D01*
X90457519Y-43161015D01*
X90338985Y-43042481D01*
X90245853Y-42903100D01*
X90181703Y-42748228D01*
X90149000Y-42583816D01*
X90149000Y-42416184D01*
X90181703Y-42251772D01*
X90245853Y-42096900D01*
X90338985Y-41957519D01*
X90457519Y-41838985D01*
X90596900Y-41745853D01*
X90751772Y-41681703D01*
X90916184Y-41649000D01*
X91083816Y-41649000D01*
X91248228Y-41681703D01*
G37*
G36*
X87248228Y-41681703D02*
G01*
X87403100Y-41745853D01*
X87542481Y-41838985D01*
X87661015Y-41957519D01*
X87754147Y-42096900D01*
X87818297Y-42251772D01*
X87851000Y-42416184D01*
X87851000Y-42583816D01*
X87818297Y-42748228D01*
X87754147Y-42903100D01*
X87661015Y-43042481D01*
X87542481Y-43161015D01*
X87403100Y-43254147D01*
X87248228Y-43318297D01*
X87083816Y-43351000D01*
X86916184Y-43351000D01*
X86751772Y-43318297D01*
X86596900Y-43254147D01*
X86457519Y-43161015D01*
X86338985Y-43042481D01*
X86245853Y-42903100D01*
X86181703Y-42748228D01*
X86149000Y-42583816D01*
X86149000Y-42416184D01*
X86181703Y-42251772D01*
X86245853Y-42096900D01*
X86338985Y-41957519D01*
X86457519Y-41838985D01*
X86596900Y-41745853D01*
X86751772Y-41681703D01*
X86916184Y-41649000D01*
X87083816Y-41649000D01*
X87248228Y-41681703D01*
G37*
G36*
X79248228Y-41681703D02*
G01*
X79403100Y-41745853D01*
X79542481Y-41838985D01*
X79661015Y-41957519D01*
X79754147Y-42096900D01*
X79818297Y-42251772D01*
X79851000Y-42416184D01*
X79851000Y-42583816D01*
X79818297Y-42748228D01*
X79754147Y-42903100D01*
X79661015Y-43042481D01*
X79542481Y-43161015D01*
X79403100Y-43254147D01*
X79248228Y-43318297D01*
X79083816Y-43351000D01*
X78916184Y-43351000D01*
X78751772Y-43318297D01*
X78596900Y-43254147D01*
X78457519Y-43161015D01*
X78338985Y-43042481D01*
X78245853Y-42903100D01*
X78181703Y-42748228D01*
X78149000Y-42583816D01*
X78149000Y-42416184D01*
X78181703Y-42251772D01*
X78245853Y-42096900D01*
X78338985Y-41957519D01*
X78457519Y-41838985D01*
X78596900Y-41745853D01*
X78751772Y-41681703D01*
X78916184Y-41649000D01*
X79083816Y-41649000D01*
X79248228Y-41681703D01*
G37*
G36*
X95248228Y-41681703D02*
G01*
X95403100Y-41745853D01*
X95542481Y-41838985D01*
X95661015Y-41957519D01*
X95754147Y-42096900D01*
X95818297Y-42251772D01*
X95851000Y-42416184D01*
X95851000Y-42583816D01*
X95818297Y-42748228D01*
X95754147Y-42903100D01*
X95661015Y-43042481D01*
X95542481Y-43161015D01*
X95403100Y-43254147D01*
X95248228Y-43318297D01*
X95083816Y-43351000D01*
X94916184Y-43351000D01*
X94751772Y-43318297D01*
X94596900Y-43254147D01*
X94457519Y-43161015D01*
X94338985Y-43042481D01*
X94245853Y-42903100D01*
X94181703Y-42748228D01*
X94149000Y-42583816D01*
X94149000Y-42416184D01*
X94181703Y-42251772D01*
X94245853Y-42096900D01*
X94338985Y-41957519D01*
X94457519Y-41838985D01*
X94596900Y-41745853D01*
X94751772Y-41681703D01*
X94916184Y-41649000D01*
X95083816Y-41649000D01*
X95248228Y-41681703D01*
G37*
G36*
X83248228Y-41681703D02*
G01*
X83403100Y-41745853D01*
X83542481Y-41838985D01*
X83661015Y-41957519D01*
X83754147Y-42096900D01*
X83818297Y-42251772D01*
X83851000Y-42416184D01*
X83851000Y-42583816D01*
X83818297Y-42748228D01*
X83754147Y-42903100D01*
X83661015Y-43042481D01*
X83542481Y-43161015D01*
X83403100Y-43254147D01*
X83248228Y-43318297D01*
X83083816Y-43351000D01*
X82916184Y-43351000D01*
X82751772Y-43318297D01*
X82596900Y-43254147D01*
X82457519Y-43161015D01*
X82338985Y-43042481D01*
X82245853Y-42903100D01*
X82181703Y-42748228D01*
X82149000Y-42583816D01*
X82149000Y-42416184D01*
X82181703Y-42251772D01*
X82245853Y-42096900D01*
X82338985Y-41957519D01*
X82457519Y-41838985D01*
X82596900Y-41745853D01*
X82751772Y-41681703D01*
X82916184Y-41649000D01*
X83083816Y-41649000D01*
X83248228Y-41681703D01*
G37*
G36*
X41249500Y-43148000D02*
G01*
X39750500Y-43148000D01*
X39750500Y-42157000D01*
X41249500Y-42157000D01*
X41249500Y-43148000D01*
G37*
G36*
X39349500Y-43143000D02*
G01*
X37850500Y-43143000D01*
X37850500Y-42152000D01*
X39349500Y-42152000D01*
X39349500Y-43143000D01*
G37*
G36*
X46201000Y-43101000D02*
G01*
X44799000Y-43101000D01*
X44799000Y-40399000D01*
X46201000Y-40399000D01*
X46201000Y-43101000D01*
G37*
G36*
X48741000Y-43101000D02*
G01*
X47339000Y-43101000D01*
X47339000Y-40399000D01*
X48741000Y-40399000D01*
X48741000Y-43101000D01*
G37*
G36*
X51281000Y-43101000D02*
G01*
X49879000Y-43101000D01*
X49879000Y-40399000D01*
X51281000Y-40399000D01*
X51281000Y-43101000D01*
G37*
G36*
X53821000Y-43101000D02*
G01*
X52419000Y-43101000D01*
X52419000Y-40399000D01*
X53821000Y-40399000D01*
X53821000Y-43101000D01*
G37*
G36*
X56361000Y-43101000D02*
G01*
X54959000Y-43101000D01*
X54959000Y-40399000D01*
X56361000Y-40399000D01*
X56361000Y-43101000D01*
G37*
G36*
X58901000Y-43101000D02*
G01*
X57499000Y-43101000D01*
X57499000Y-40399000D01*
X58901000Y-40399000D01*
X58901000Y-43101000D01*
G37*
G36*
X61441000Y-43101000D02*
G01*
X60039000Y-43101000D01*
X60039000Y-40399000D01*
X61441000Y-40399000D01*
X61441000Y-43101000D01*
G37*
G36*
X63981000Y-43101000D02*
G01*
X62579000Y-43101000D01*
X62579000Y-40399000D01*
X63981000Y-40399000D01*
X63981000Y-43101000D01*
G37*
G36*
X67949500Y-42748000D02*
G01*
X66450500Y-42748000D01*
X66450500Y-41757000D01*
X67949500Y-41757000D01*
X67949500Y-42748000D01*
G37*
G36*
X69749500Y-42743000D02*
G01*
X68250500Y-42743000D01*
X68250500Y-41752000D01*
X69749500Y-41752000D01*
X69749500Y-42743000D01*
G37*
G36*
X13731083Y-38439090D02*
G01*
X13959702Y-38484564D01*
X14246516Y-38603367D01*
X14504642Y-38775841D01*
X14724159Y-38995358D01*
X14896633Y-39253484D01*
X15015436Y-39540298D01*
X15076000Y-39844778D01*
X15076000Y-40155222D01*
X15015436Y-40459702D01*
X14896633Y-40746516D01*
X14724159Y-41004642D01*
X14504642Y-41224159D01*
X14246516Y-41396633D01*
X13959702Y-41515436D01*
X13731083Y-41560910D01*
X13655224Y-41576000D01*
X13344776Y-41576000D01*
X13268917Y-41560910D01*
X13040298Y-41515436D01*
X12753484Y-41396633D01*
X12495358Y-41224159D01*
X12275841Y-41004642D01*
X12103367Y-40746516D01*
X11984564Y-40459702D01*
X11924000Y-40155222D01*
X11924000Y-39844778D01*
X11984564Y-39540298D01*
X12103367Y-39253484D01*
X12275841Y-38995358D01*
X12495358Y-38775841D01*
X12753484Y-38603367D01*
X13040298Y-38484564D01*
X13268917Y-38439090D01*
X13344776Y-38424000D01*
X13655224Y-38424000D01*
X13731083Y-38439090D01*
G37*
G36*
X97248228Y-39681703D02*
G01*
X97403100Y-39745853D01*
X97542481Y-39838985D01*
X97661015Y-39957519D01*
X97754147Y-40096900D01*
X97818297Y-40251772D01*
X97851000Y-40416184D01*
X97851000Y-40583816D01*
X97818297Y-40748228D01*
X97754147Y-40903100D01*
X97661015Y-41042481D01*
X97542481Y-41161015D01*
X97403100Y-41254147D01*
X97248228Y-41318297D01*
X97083816Y-41351000D01*
X96916184Y-41351000D01*
X96751772Y-41318297D01*
X96596900Y-41254147D01*
X96457519Y-41161015D01*
X96338985Y-41042481D01*
X96245853Y-40903100D01*
X96181703Y-40748228D01*
X96149000Y-40583816D01*
X96149000Y-40416184D01*
X96181703Y-40251772D01*
X96245853Y-40096900D01*
X96338985Y-39957519D01*
X96457519Y-39838985D01*
X96596900Y-39745853D01*
X96751772Y-39681703D01*
X96916184Y-39649000D01*
X97083816Y-39649000D01*
X97248228Y-39681703D01*
G37*
G36*
X93248228Y-39681703D02*
G01*
X93403100Y-39745853D01*
X93542481Y-39838985D01*
X93661015Y-39957519D01*
X93754147Y-40096900D01*
X93818297Y-40251772D01*
X93851000Y-40416184D01*
X93851000Y-40583816D01*
X93818297Y-40748228D01*
X93754147Y-40903100D01*
X93661015Y-41042481D01*
X93542481Y-41161015D01*
X93403100Y-41254147D01*
X93248228Y-41318297D01*
X93083816Y-41351000D01*
X92916184Y-41351000D01*
X92751772Y-41318297D01*
X92596900Y-41254147D01*
X92457519Y-41161015D01*
X92338985Y-41042481D01*
X92245853Y-40903100D01*
X92181703Y-40748228D01*
X92149000Y-40583816D01*
X92149000Y-40416184D01*
X92181703Y-40251772D01*
X92245853Y-40096900D01*
X92338985Y-39957519D01*
X92457519Y-39838985D01*
X92596900Y-39745853D01*
X92751772Y-39681703D01*
X92916184Y-39649000D01*
X93083816Y-39649000D01*
X93248228Y-39681703D01*
G37*
G36*
X89248228Y-39681703D02*
G01*
X89403100Y-39745853D01*
X89542481Y-39838985D01*
X89661015Y-39957519D01*
X89754147Y-40096900D01*
X89818297Y-40251772D01*
X89851000Y-40416184D01*
X89851000Y-40583816D01*
X89818297Y-40748228D01*
X89754147Y-40903100D01*
X89661015Y-41042481D01*
X89542481Y-41161015D01*
X89403100Y-41254147D01*
X89248228Y-41318297D01*
X89083816Y-41351000D01*
X88916184Y-41351000D01*
X88751772Y-41318297D01*
X88596900Y-41254147D01*
X88457519Y-41161015D01*
X88338985Y-41042481D01*
X88245853Y-40903100D01*
X88181703Y-40748228D01*
X88149000Y-40583816D01*
X88149000Y-40416184D01*
X88181703Y-40251772D01*
X88245853Y-40096900D01*
X88338985Y-39957519D01*
X88457519Y-39838985D01*
X88596900Y-39745853D01*
X88751772Y-39681703D01*
X88916184Y-39649000D01*
X89083816Y-39649000D01*
X89248228Y-39681703D01*
G37*
G36*
X85248228Y-39681703D02*
G01*
X85403100Y-39745853D01*
X85542481Y-39838985D01*
X85661015Y-39957519D01*
X85754147Y-40096900D01*
X85818297Y-40251772D01*
X85851000Y-40416184D01*
X85851000Y-40583816D01*
X85818297Y-40748228D01*
X85754147Y-40903100D01*
X85661015Y-41042481D01*
X85542481Y-41161015D01*
X85403100Y-41254147D01*
X85248228Y-41318297D01*
X85083816Y-41351000D01*
X84916184Y-41351000D01*
X84751772Y-41318297D01*
X84596900Y-41254147D01*
X84457519Y-41161015D01*
X84338985Y-41042481D01*
X84245853Y-40903100D01*
X84181703Y-40748228D01*
X84149000Y-40583816D01*
X84149000Y-40416184D01*
X84181703Y-40251772D01*
X84245853Y-40096900D01*
X84338985Y-39957519D01*
X84457519Y-39838985D01*
X84596900Y-39745853D01*
X84751772Y-39681703D01*
X84916184Y-39649000D01*
X85083816Y-39649000D01*
X85248228Y-39681703D01*
G37*
G36*
X81248228Y-39681703D02*
G01*
X81403100Y-39745853D01*
X81542481Y-39838985D01*
X81661015Y-39957519D01*
X81754147Y-40096900D01*
X81818297Y-40251772D01*
X81851000Y-40416184D01*
X81851000Y-40583816D01*
X81818297Y-40748228D01*
X81754147Y-40903100D01*
X81661015Y-41042481D01*
X81542481Y-41161015D01*
X81403100Y-41254147D01*
X81248228Y-41318297D01*
X81083816Y-41351000D01*
X80916184Y-41351000D01*
X80751772Y-41318297D01*
X80596900Y-41254147D01*
X80457519Y-41161015D01*
X80338985Y-41042481D01*
X80245853Y-40903100D01*
X80181703Y-40748228D01*
X80149000Y-40583816D01*
X80149000Y-40416184D01*
X80181703Y-40251772D01*
X80245853Y-40096900D01*
X80338985Y-39957519D01*
X80457519Y-39838985D01*
X80596900Y-39745853D01*
X80751772Y-39681703D01*
X80916184Y-39649000D01*
X81083816Y-39649000D01*
X81248228Y-39681703D01*
G37*
G36*
X77248228Y-39681703D02*
G01*
X77403100Y-39745853D01*
X77542481Y-39838985D01*
X77661015Y-39957519D01*
X77754147Y-40096900D01*
X77818297Y-40251772D01*
X77851000Y-40416184D01*
X77851000Y-40583816D01*
X77818297Y-40748228D01*
X77754147Y-40903100D01*
X77661015Y-41042481D01*
X77542481Y-41161015D01*
X77403100Y-41254147D01*
X77248228Y-41318297D01*
X77083816Y-41351000D01*
X76916184Y-41351000D01*
X76751772Y-41318297D01*
X76596900Y-41254147D01*
X76457519Y-41161015D01*
X76338985Y-41042481D01*
X76245853Y-40903100D01*
X76181703Y-40748228D01*
X76149000Y-40583816D01*
X76149000Y-40416184D01*
X76181703Y-40251772D01*
X76245853Y-40096900D01*
X76338985Y-39957519D01*
X76457519Y-39838985D01*
X76596900Y-39745853D01*
X76751772Y-39681703D01*
X76916184Y-39649000D01*
X77083816Y-39649000D01*
X77248228Y-39681703D01*
G37*
G36*
X73248228Y-39681703D02*
G01*
X73403100Y-39745853D01*
X73542481Y-39838985D01*
X73661015Y-39957519D01*
X73754147Y-40096900D01*
X73818297Y-40251772D01*
X73851000Y-40416184D01*
X73851000Y-40583816D01*
X73818297Y-40748228D01*
X73754147Y-40903100D01*
X73661015Y-41042481D01*
X73542481Y-41161015D01*
X73403100Y-41254147D01*
X73248228Y-41318297D01*
X73083816Y-41351000D01*
X72916184Y-41351000D01*
X72751772Y-41318297D01*
X72596900Y-41254147D01*
X72457519Y-41161015D01*
X72338985Y-41042481D01*
X72245853Y-40903100D01*
X72181703Y-40748228D01*
X72149000Y-40583816D01*
X72149000Y-40416184D01*
X72181703Y-40251772D01*
X72245853Y-40096900D01*
X72338985Y-39957519D01*
X72457519Y-39838985D01*
X72596900Y-39745853D01*
X72751772Y-39681703D01*
X72916184Y-39649000D01*
X73083816Y-39649000D01*
X73248228Y-39681703D01*
G37*
G36*
X41249500Y-41243000D02*
G01*
X39750500Y-41243000D01*
X39750500Y-40252000D01*
X41249500Y-40252000D01*
X41249500Y-41243000D01*
G37*
G36*
X67949500Y-40843000D02*
G01*
X66450500Y-40843000D01*
X66450500Y-39852000D01*
X67949500Y-39852000D01*
X67949500Y-40843000D01*
G37*
G36*
X75248228Y-37681703D02*
G01*
X75403100Y-37745853D01*
X75542481Y-37838985D01*
X75661015Y-37957519D01*
X75754147Y-38096900D01*
X75818297Y-38251772D01*
X75851000Y-38416184D01*
X75851000Y-38583816D01*
X75818297Y-38748228D01*
X75754147Y-38903100D01*
X75661015Y-39042481D01*
X75542481Y-39161015D01*
X75403100Y-39254147D01*
X75248228Y-39318297D01*
X75083816Y-39351000D01*
X74916184Y-39351000D01*
X74751772Y-39318297D01*
X74596900Y-39254147D01*
X74457519Y-39161015D01*
X74338985Y-39042481D01*
X74245853Y-38903100D01*
X74181703Y-38748228D01*
X74149000Y-38583816D01*
X74149000Y-38416184D01*
X74181703Y-38251772D01*
X74245853Y-38096900D01*
X74338985Y-37957519D01*
X74457519Y-37838985D01*
X74596900Y-37745853D01*
X74751772Y-37681703D01*
X74916184Y-37649000D01*
X75083816Y-37649000D01*
X75248228Y-37681703D01*
G37*
G36*
X79248228Y-37681703D02*
G01*
X79403100Y-37745853D01*
X79542481Y-37838985D01*
X79661015Y-37957519D01*
X79754147Y-38096900D01*
X79818297Y-38251772D01*
X79851000Y-38416184D01*
X79851000Y-38583816D01*
X79818297Y-38748228D01*
X79754147Y-38903100D01*
X79661015Y-39042481D01*
X79542481Y-39161015D01*
X79403100Y-39254147D01*
X79248228Y-39318297D01*
X79083816Y-39351000D01*
X78916184Y-39351000D01*
X78751772Y-39318297D01*
X78596900Y-39254147D01*
X78457519Y-39161015D01*
X78338985Y-39042481D01*
X78245853Y-38903100D01*
X78181703Y-38748228D01*
X78149000Y-38583816D01*
X78149000Y-38416184D01*
X78181703Y-38251772D01*
X78245853Y-38096900D01*
X78338985Y-37957519D01*
X78457519Y-37838985D01*
X78596900Y-37745853D01*
X78751772Y-37681703D01*
X78916184Y-37649000D01*
X79083816Y-37649000D01*
X79248228Y-37681703D01*
G37*
G36*
X83248228Y-37681703D02*
G01*
X83403100Y-37745853D01*
X83542481Y-37838985D01*
X83661015Y-37957519D01*
X83754147Y-38096900D01*
X83818297Y-38251772D01*
X83851000Y-38416184D01*
X83851000Y-38583816D01*
X83818297Y-38748228D01*
X83754147Y-38903100D01*
X83661015Y-39042481D01*
X83542481Y-39161015D01*
X83403100Y-39254147D01*
X83248228Y-39318297D01*
X83083816Y-39351000D01*
X82916184Y-39351000D01*
X82751772Y-39318297D01*
X82596900Y-39254147D01*
X82457519Y-39161015D01*
X82338985Y-39042481D01*
X82245853Y-38903100D01*
X82181703Y-38748228D01*
X82149000Y-38583816D01*
X82149000Y-38416184D01*
X82181703Y-38251772D01*
X82245853Y-38096900D01*
X82338985Y-37957519D01*
X82457519Y-37838985D01*
X82596900Y-37745853D01*
X82751772Y-37681703D01*
X82916184Y-37649000D01*
X83083816Y-37649000D01*
X83248228Y-37681703D01*
G37*
G36*
X87248228Y-37681703D02*
G01*
X87403100Y-37745853D01*
X87542481Y-37838985D01*
X87661015Y-37957519D01*
X87754147Y-38096900D01*
X87818297Y-38251772D01*
X87851000Y-38416184D01*
X87851000Y-38583816D01*
X87818297Y-38748228D01*
X87754147Y-38903100D01*
X87661015Y-39042481D01*
X87542481Y-39161015D01*
X87403100Y-39254147D01*
X87248228Y-39318297D01*
X87083816Y-39351000D01*
X86916184Y-39351000D01*
X86751772Y-39318297D01*
X86596900Y-39254147D01*
X86457519Y-39161015D01*
X86338985Y-39042481D01*
X86245853Y-38903100D01*
X86181703Y-38748228D01*
X86149000Y-38583816D01*
X86149000Y-38416184D01*
X86181703Y-38251772D01*
X86245853Y-38096900D01*
X86338985Y-37957519D01*
X86457519Y-37838985D01*
X86596900Y-37745853D01*
X86751772Y-37681703D01*
X86916184Y-37649000D01*
X87083816Y-37649000D01*
X87248228Y-37681703D01*
G37*
G36*
X95248228Y-37681703D02*
G01*
X95403100Y-37745853D01*
X95542481Y-37838985D01*
X95661015Y-37957519D01*
X95754147Y-38096900D01*
X95818297Y-38251772D01*
X95851000Y-38416184D01*
X95851000Y-38583816D01*
X95818297Y-38748228D01*
X95754147Y-38903100D01*
X95661015Y-39042481D01*
X95542481Y-39161015D01*
X95403100Y-39254147D01*
X95248228Y-39318297D01*
X95083816Y-39351000D01*
X94916184Y-39351000D01*
X94751772Y-39318297D01*
X94596900Y-39254147D01*
X94457519Y-39161015D01*
X94338985Y-39042481D01*
X94245853Y-38903100D01*
X94181703Y-38748228D01*
X94149000Y-38583816D01*
X94149000Y-38416184D01*
X94181703Y-38251772D01*
X94245853Y-38096900D01*
X94338985Y-37957519D01*
X94457519Y-37838985D01*
X94596900Y-37745853D01*
X94751772Y-37681703D01*
X94916184Y-37649000D01*
X95083816Y-37649000D01*
X95248228Y-37681703D01*
G37*
G36*
X91248228Y-37681703D02*
G01*
X91403100Y-37745853D01*
X91542481Y-37838985D01*
X91661015Y-37957519D01*
X91754147Y-38096900D01*
X91818297Y-38251772D01*
X91851000Y-38416184D01*
X91851000Y-38583816D01*
X91818297Y-38748228D01*
X91754147Y-38903100D01*
X91661015Y-39042481D01*
X91542481Y-39161015D01*
X91403100Y-39254147D01*
X91248228Y-39318297D01*
X91083816Y-39351000D01*
X90916184Y-39351000D01*
X90751772Y-39318297D01*
X90596900Y-39254147D01*
X90457519Y-39161015D01*
X90338985Y-39042481D01*
X90245853Y-38903100D01*
X90181703Y-38748228D01*
X90149000Y-38583816D01*
X90149000Y-38416184D01*
X90181703Y-38251772D01*
X90245853Y-38096900D01*
X90338985Y-37957519D01*
X90457519Y-37838985D01*
X90596900Y-37745853D01*
X90751772Y-37681703D01*
X90916184Y-37649000D01*
X91083816Y-37649000D01*
X91248228Y-37681703D01*
G37*
G36*
X66151000Y-39151000D02*
G01*
X64949000Y-39151000D01*
X64949000Y-37949000D01*
X66151000Y-37949000D01*
X66151000Y-39151000D01*
G37*
G36*
X44251000Y-39151000D02*
G01*
X43049000Y-39151000D01*
X43049000Y-37949000D01*
X44251000Y-37949000D01*
X44251000Y-39151000D01*
G37*
G36*
X58851000Y-39151000D02*
G01*
X57649000Y-39151000D01*
X57649000Y-37949000D01*
X58851000Y-37949000D01*
X58851000Y-39151000D01*
G37*
G36*
X51551000Y-39151000D02*
G01*
X50349000Y-39151000D01*
X50349000Y-37949000D01*
X51551000Y-37949000D01*
X51551000Y-39151000D01*
G37*
G36*
X49649500Y-39048000D02*
G01*
X48150500Y-39048000D01*
X48150500Y-38057000D01*
X49649500Y-38057000D01*
X49649500Y-39048000D01*
G37*
G36*
X42349500Y-39048000D02*
G01*
X40850500Y-39048000D01*
X40850500Y-38057000D01*
X42349500Y-38057000D01*
X42349500Y-39048000D01*
G37*
G36*
X64249500Y-39048000D02*
G01*
X62750500Y-39048000D01*
X62750500Y-38057000D01*
X64249500Y-38057000D01*
X64249500Y-39048000D01*
G37*
G36*
X56949500Y-39048000D02*
G01*
X55450500Y-39048000D01*
X55450500Y-38057000D01*
X56949500Y-38057000D01*
X56949500Y-39048000D01*
G37*
G36*
X61051000Y-38201000D02*
G01*
X59849000Y-38201000D01*
X59849000Y-36999000D01*
X61051000Y-36999000D01*
X61051000Y-38201000D01*
G37*
G36*
X53751000Y-38201000D02*
G01*
X52549000Y-38201000D01*
X52549000Y-36999000D01*
X53751000Y-36999000D01*
X53751000Y-38201000D01*
G37*
G36*
X46451000Y-38201000D02*
G01*
X45249000Y-38201000D01*
X45249000Y-36999000D01*
X46451000Y-36999000D01*
X46451000Y-38201000D01*
G37*
G36*
X68351000Y-38201000D02*
G01*
X67149000Y-38201000D01*
X67149000Y-36999000D01*
X68351000Y-36999000D01*
X68351000Y-38201000D01*
G37*
G36*
X36951000Y-37451000D02*
G01*
X35749000Y-37451000D01*
X35749000Y-36249000D01*
X36951000Y-36249000D01*
X36951000Y-37451000D01*
G37*
G36*
X77248228Y-35681703D02*
G01*
X77403100Y-35745853D01*
X77542481Y-35838985D01*
X77661015Y-35957519D01*
X77754147Y-36096900D01*
X77818297Y-36251772D01*
X77851000Y-36416184D01*
X77851000Y-36583816D01*
X77818297Y-36748228D01*
X77754147Y-36903100D01*
X77661015Y-37042481D01*
X77542481Y-37161015D01*
X77403100Y-37254147D01*
X77248228Y-37318297D01*
X77083816Y-37351000D01*
X76916184Y-37351000D01*
X76751772Y-37318297D01*
X76596900Y-37254147D01*
X76457519Y-37161015D01*
X76338985Y-37042481D01*
X76245853Y-36903100D01*
X76181703Y-36748228D01*
X76149000Y-36583816D01*
X76149000Y-36416184D01*
X76181703Y-36251772D01*
X76245853Y-36096900D01*
X76338985Y-35957519D01*
X76457519Y-35838985D01*
X76596900Y-35745853D01*
X76751772Y-35681703D01*
X76916184Y-35649000D01*
X77083816Y-35649000D01*
X77248228Y-35681703D01*
G37*
G36*
X85248228Y-35681703D02*
G01*
X85403100Y-35745853D01*
X85542481Y-35838985D01*
X85661015Y-35957519D01*
X85754147Y-36096900D01*
X85818297Y-36251772D01*
X85851000Y-36416184D01*
X85851000Y-36583816D01*
X85818297Y-36748228D01*
X85754147Y-36903100D01*
X85661015Y-37042481D01*
X85542481Y-37161015D01*
X85403100Y-37254147D01*
X85248228Y-37318297D01*
X85083816Y-37351000D01*
X84916184Y-37351000D01*
X84751772Y-37318297D01*
X84596900Y-37254147D01*
X84457519Y-37161015D01*
X84338985Y-37042481D01*
X84245853Y-36903100D01*
X84181703Y-36748228D01*
X84149000Y-36583816D01*
X84149000Y-36416184D01*
X84181703Y-36251772D01*
X84245853Y-36096900D01*
X84338985Y-35957519D01*
X84457519Y-35838985D01*
X84596900Y-35745853D01*
X84751772Y-35681703D01*
X84916184Y-35649000D01*
X85083816Y-35649000D01*
X85248228Y-35681703D01*
G37*
G36*
X89248228Y-35681703D02*
G01*
X89403100Y-35745853D01*
X89542481Y-35838985D01*
X89661015Y-35957519D01*
X89754147Y-36096900D01*
X89818297Y-36251772D01*
X89851000Y-36416184D01*
X89851000Y-36583816D01*
X89818297Y-36748228D01*
X89754147Y-36903100D01*
X89661015Y-37042481D01*
X89542481Y-37161015D01*
X89403100Y-37254147D01*
X89248228Y-37318297D01*
X89083816Y-37351000D01*
X88916184Y-37351000D01*
X88751772Y-37318297D01*
X88596900Y-37254147D01*
X88457519Y-37161015D01*
X88338985Y-37042481D01*
X88245853Y-36903100D01*
X88181703Y-36748228D01*
X88149000Y-36583816D01*
X88149000Y-36416184D01*
X88181703Y-36251772D01*
X88245853Y-36096900D01*
X88338985Y-35957519D01*
X88457519Y-35838985D01*
X88596900Y-35745853D01*
X88751772Y-35681703D01*
X88916184Y-35649000D01*
X89083816Y-35649000D01*
X89248228Y-35681703D01*
G37*
G36*
X81248228Y-35681703D02*
G01*
X81403100Y-35745853D01*
X81542481Y-35838985D01*
X81661015Y-35957519D01*
X81754147Y-36096900D01*
X81818297Y-36251772D01*
X81851000Y-36416184D01*
X81851000Y-36583816D01*
X81818297Y-36748228D01*
X81754147Y-36903100D01*
X81661015Y-37042481D01*
X81542481Y-37161015D01*
X81403100Y-37254147D01*
X81248228Y-37318297D01*
X81083816Y-37351000D01*
X80916184Y-37351000D01*
X80751772Y-37318297D01*
X80596900Y-37254147D01*
X80457519Y-37161015D01*
X80338985Y-37042481D01*
X80245853Y-36903100D01*
X80181703Y-36748228D01*
X80149000Y-36583816D01*
X80149000Y-36416184D01*
X80181703Y-36251772D01*
X80245853Y-36096900D01*
X80338985Y-35957519D01*
X80457519Y-35838985D01*
X80596900Y-35745853D01*
X80751772Y-35681703D01*
X80916184Y-35649000D01*
X81083816Y-35649000D01*
X81248228Y-35681703D01*
G37*
G36*
X97248228Y-35681703D02*
G01*
X97403100Y-35745853D01*
X97542481Y-35838985D01*
X97661015Y-35957519D01*
X97754147Y-36096900D01*
X97818297Y-36251772D01*
X97851000Y-36416184D01*
X97851000Y-36583816D01*
X97818297Y-36748228D01*
X97754147Y-36903100D01*
X97661015Y-37042481D01*
X97542481Y-37161015D01*
X97403100Y-37254147D01*
X97248228Y-37318297D01*
X97083816Y-37351000D01*
X96916184Y-37351000D01*
X96751772Y-37318297D01*
X96596900Y-37254147D01*
X96457519Y-37161015D01*
X96338985Y-37042481D01*
X96245853Y-36903100D01*
X96181703Y-36748228D01*
X96149000Y-36583816D01*
X96149000Y-36416184D01*
X96181703Y-36251772D01*
X96245853Y-36096900D01*
X96338985Y-35957519D01*
X96457519Y-35838985D01*
X96596900Y-35745853D01*
X96751772Y-35681703D01*
X96916184Y-35649000D01*
X97083816Y-35649000D01*
X97248228Y-35681703D01*
G37*
G36*
X93248228Y-35681703D02*
G01*
X93403100Y-35745853D01*
X93542481Y-35838985D01*
X93661015Y-35957519D01*
X93754147Y-36096900D01*
X93818297Y-36251772D01*
X93851000Y-36416184D01*
X93851000Y-36583816D01*
X93818297Y-36748228D01*
X93754147Y-36903100D01*
X93661015Y-37042481D01*
X93542481Y-37161015D01*
X93403100Y-37254147D01*
X93248228Y-37318297D01*
X93083816Y-37351000D01*
X92916184Y-37351000D01*
X92751772Y-37318297D01*
X92596900Y-37254147D01*
X92457519Y-37161015D01*
X92338985Y-37042481D01*
X92245853Y-36903100D01*
X92181703Y-36748228D01*
X92149000Y-36583816D01*
X92149000Y-36416184D01*
X92181703Y-36251772D01*
X92245853Y-36096900D01*
X92338985Y-35957519D01*
X92457519Y-35838985D01*
X92596900Y-35745853D01*
X92751772Y-35681703D01*
X92916184Y-35649000D01*
X93083816Y-35649000D01*
X93248228Y-35681703D01*
G37*
G36*
X73248228Y-35681703D02*
G01*
X73403100Y-35745853D01*
X73542481Y-35838985D01*
X73661015Y-35957519D01*
X73754147Y-36096900D01*
X73818297Y-36251772D01*
X73851000Y-36416184D01*
X73851000Y-36583816D01*
X73818297Y-36748228D01*
X73754147Y-36903100D01*
X73661015Y-37042481D01*
X73542481Y-37161015D01*
X73403100Y-37254147D01*
X73248228Y-37318297D01*
X73083816Y-37351000D01*
X72916184Y-37351000D01*
X72751772Y-37318297D01*
X72596900Y-37254147D01*
X72457519Y-37161015D01*
X72338985Y-37042481D01*
X72245853Y-36903100D01*
X72181703Y-36748228D01*
X72149000Y-36583816D01*
X72149000Y-36416184D01*
X72181703Y-36251772D01*
X72245853Y-36096900D01*
X72338985Y-35957519D01*
X72457519Y-35838985D01*
X72596900Y-35745853D01*
X72751772Y-35681703D01*
X72916184Y-35649000D01*
X73083816Y-35649000D01*
X73248228Y-35681703D01*
G37*
G36*
X35049500Y-37348000D02*
G01*
X33550500Y-37348000D01*
X33550500Y-36357000D01*
X35049500Y-36357000D01*
X35049500Y-37348000D01*
G37*
G36*
X60101000Y-36001000D02*
G01*
X59588587Y-36001000D01*
X59564201Y-36003402D01*
X59540752Y-36010515D01*
X59519141Y-36022066D01*
X59500199Y-36037611D01*
X58887611Y-36650199D01*
X58872066Y-36669141D01*
X58860515Y-36690752D01*
X58853402Y-36714201D01*
X58851000Y-36738587D01*
X58851000Y-37251000D01*
X57649000Y-37251000D01*
X57649000Y-36049000D01*
X58161413Y-36049000D01*
X58185799Y-36046598D01*
X58209248Y-36039485D01*
X58230859Y-36027934D01*
X58249801Y-36012389D01*
X58862389Y-35399801D01*
X58877934Y-35380859D01*
X58889485Y-35359248D01*
X58896598Y-35335799D01*
X58899000Y-35311413D01*
X58899000Y-34799000D01*
X60101000Y-34799000D01*
X60101000Y-36001000D01*
G37*
G36*
X45501000Y-36001000D02*
G01*
X44988587Y-36001000D01*
X44964201Y-36003402D01*
X44940752Y-36010515D01*
X44919141Y-36022066D01*
X44900199Y-36037611D01*
X44287611Y-36650199D01*
X44272066Y-36669141D01*
X44260515Y-36690752D01*
X44253402Y-36714201D01*
X44251000Y-36738587D01*
X44251000Y-37251000D01*
X43049000Y-37251000D01*
X43049000Y-36049000D01*
X43561413Y-36049000D01*
X43585799Y-36046598D01*
X43609248Y-36039485D01*
X43630859Y-36027934D01*
X43649801Y-36012389D01*
X44262389Y-35399801D01*
X44277934Y-35380859D01*
X44289485Y-35359248D01*
X44296598Y-35335799D01*
X44299000Y-35311413D01*
X44299000Y-34799000D01*
X45501000Y-34799000D01*
X45501000Y-36001000D01*
G37*
G36*
X67401000Y-36001000D02*
G01*
X66888587Y-36001000D01*
X66864201Y-36003402D01*
X66840752Y-36010515D01*
X66819141Y-36022066D01*
X66800199Y-36037611D01*
X66187611Y-36650199D01*
X66172066Y-36669141D01*
X66160515Y-36690752D01*
X66153402Y-36714201D01*
X66151000Y-36738587D01*
X66151000Y-37251000D01*
X64949000Y-37251000D01*
X64949000Y-36049000D01*
X65461413Y-36049000D01*
X65485799Y-36046598D01*
X65509248Y-36039485D01*
X65530859Y-36027934D01*
X65549801Y-36012389D01*
X66162389Y-35399801D01*
X66177934Y-35380859D01*
X66189485Y-35359248D01*
X66196598Y-35335799D01*
X66199000Y-35311413D01*
X66199000Y-34799000D01*
X67401000Y-34799000D01*
X67401000Y-36001000D01*
G37*
G36*
X52801000Y-36001000D02*
G01*
X52288587Y-36001000D01*
X52264201Y-36003402D01*
X52240752Y-36010515D01*
X52219141Y-36022066D01*
X52200199Y-36037611D01*
X51587611Y-36650199D01*
X51572066Y-36669141D01*
X51560515Y-36690752D01*
X51553402Y-36714201D01*
X51551000Y-36738587D01*
X51551000Y-37251000D01*
X50349000Y-37251000D01*
X50349000Y-36049000D01*
X50861413Y-36049000D01*
X50885799Y-36046598D01*
X50909248Y-36039485D01*
X50930859Y-36027934D01*
X50949801Y-36012389D01*
X51562389Y-35399801D01*
X51577934Y-35380859D01*
X51589485Y-35359248D01*
X51596598Y-35335799D01*
X51599000Y-35311413D01*
X51599000Y-34799000D01*
X52801000Y-34799000D01*
X52801000Y-36001000D01*
G37*
G36*
X56949500Y-37143000D02*
G01*
X55450500Y-37143000D01*
X55450500Y-36152000D01*
X56949500Y-36152000D01*
X56949500Y-37143000D01*
G37*
G36*
X64249500Y-37143000D02*
G01*
X62750500Y-37143000D01*
X62750500Y-36152000D01*
X64249500Y-36152000D01*
X64249500Y-37143000D01*
G37*
G36*
X49649500Y-37143000D02*
G01*
X48150500Y-37143000D01*
X48150500Y-36152000D01*
X49649500Y-36152000D01*
X49649500Y-37143000D01*
G37*
G36*
X42349500Y-37143000D02*
G01*
X40850500Y-37143000D01*
X40850500Y-36152000D01*
X42349500Y-36152000D01*
X42349500Y-37143000D01*
G37*
G36*
X39151000Y-36501000D02*
G01*
X37949000Y-36501000D01*
X37949000Y-35299000D01*
X39151000Y-35299000D01*
X39151000Y-36501000D01*
G37*
G36*
X32248000Y-36249500D02*
G01*
X31257000Y-36249500D01*
X31257000Y-34750500D01*
X32248000Y-34750500D01*
X32248000Y-36249500D01*
G37*
G36*
X30343000Y-36249500D02*
G01*
X29352000Y-36249500D01*
X29352000Y-34750500D01*
X30343000Y-34750500D01*
X30343000Y-36249500D01*
G37*
G36*
X69301000Y-36001000D02*
G01*
X68099000Y-36001000D01*
X68099000Y-34799000D01*
X69301000Y-34799000D01*
X69301000Y-36001000D01*
G37*
G36*
X62001000Y-36001000D02*
G01*
X60799000Y-36001000D01*
X60799000Y-34799000D01*
X62001000Y-34799000D01*
X62001000Y-36001000D01*
G37*
G36*
X47401000Y-36001000D02*
G01*
X46199000Y-36001000D01*
X46199000Y-34799000D01*
X47401000Y-34799000D01*
X47401000Y-36001000D01*
G37*
G36*
X54701000Y-36001000D02*
G01*
X53499000Y-36001000D01*
X53499000Y-34799000D01*
X54701000Y-34799000D01*
X54701000Y-36001000D01*
G37*
G36*
X38201000Y-34301000D02*
G01*
X37688587Y-34301000D01*
X37664201Y-34303402D01*
X37640752Y-34310515D01*
X37619141Y-34322066D01*
X37600199Y-34337611D01*
X36987611Y-34950199D01*
X36972066Y-34969141D01*
X36960515Y-34990752D01*
X36953402Y-35014201D01*
X36951000Y-35038587D01*
X36951000Y-35551000D01*
X35749000Y-35551000D01*
X35749000Y-34349000D01*
X36261413Y-34349000D01*
X36285799Y-34346598D01*
X36309248Y-34339485D01*
X36330859Y-34327934D01*
X36349801Y-34312389D01*
X36962389Y-33699801D01*
X36977934Y-33680859D01*
X36989485Y-33659248D01*
X36996598Y-33635799D01*
X36999000Y-33611413D01*
X36999000Y-33099000D01*
X38201000Y-33099000D01*
X38201000Y-34301000D01*
G37*
G36*
X35049500Y-35443000D02*
G01*
X33550500Y-35443000D01*
X33550500Y-34452000D01*
X35049500Y-34452000D01*
X35049500Y-35443000D01*
G37*
G36*
X95248228Y-33681703D02*
G01*
X95403100Y-33745853D01*
X95542481Y-33838985D01*
X95661015Y-33957519D01*
X95754147Y-34096900D01*
X95818297Y-34251772D01*
X95851000Y-34416184D01*
X95851000Y-34583816D01*
X95818297Y-34748228D01*
X95754147Y-34903100D01*
X95661015Y-35042481D01*
X95542481Y-35161015D01*
X95403100Y-35254147D01*
X95248228Y-35318297D01*
X95083816Y-35351000D01*
X94916184Y-35351000D01*
X94751772Y-35318297D01*
X94596900Y-35254147D01*
X94457519Y-35161015D01*
X94338985Y-35042481D01*
X94245853Y-34903100D01*
X94181703Y-34748228D01*
X94149000Y-34583816D01*
X94149000Y-34416184D01*
X94181703Y-34251772D01*
X94245853Y-34096900D01*
X94338985Y-33957519D01*
X94457519Y-33838985D01*
X94596900Y-33745853D01*
X94751772Y-33681703D01*
X94916184Y-33649000D01*
X95083816Y-33649000D01*
X95248228Y-33681703D01*
G37*
G36*
X79248228Y-33681703D02*
G01*
X79403100Y-33745853D01*
X79542481Y-33838985D01*
X79661015Y-33957519D01*
X79754147Y-34096900D01*
X79818297Y-34251772D01*
X79851000Y-34416184D01*
X79851000Y-34583816D01*
X79818297Y-34748228D01*
X79754147Y-34903100D01*
X79661015Y-35042481D01*
X79542481Y-35161015D01*
X79403100Y-35254147D01*
X79248228Y-35318297D01*
X79083816Y-35351000D01*
X78916184Y-35351000D01*
X78751772Y-35318297D01*
X78596900Y-35254147D01*
X78457519Y-35161015D01*
X78338985Y-35042481D01*
X78245853Y-34903100D01*
X78181703Y-34748228D01*
X78149000Y-34583816D01*
X78149000Y-34416184D01*
X78181703Y-34251772D01*
X78245853Y-34096900D01*
X78338985Y-33957519D01*
X78457519Y-33838985D01*
X78596900Y-33745853D01*
X78751772Y-33681703D01*
X78916184Y-33649000D01*
X79083816Y-33649000D01*
X79248228Y-33681703D01*
G37*
G36*
X87248228Y-33681703D02*
G01*
X87403100Y-33745853D01*
X87542481Y-33838985D01*
X87661015Y-33957519D01*
X87754147Y-34096900D01*
X87818297Y-34251772D01*
X87851000Y-34416184D01*
X87851000Y-34583816D01*
X87818297Y-34748228D01*
X87754147Y-34903100D01*
X87661015Y-35042481D01*
X87542481Y-35161015D01*
X87403100Y-35254147D01*
X87248228Y-35318297D01*
X87083816Y-35351000D01*
X86916184Y-35351000D01*
X86751772Y-35318297D01*
X86596900Y-35254147D01*
X86457519Y-35161015D01*
X86338985Y-35042481D01*
X86245853Y-34903100D01*
X86181703Y-34748228D01*
X86149000Y-34583816D01*
X86149000Y-34416184D01*
X86181703Y-34251772D01*
X86245853Y-34096900D01*
X86338985Y-33957519D01*
X86457519Y-33838985D01*
X86596900Y-33745853D01*
X86751772Y-33681703D01*
X86916184Y-33649000D01*
X87083816Y-33649000D01*
X87248228Y-33681703D01*
G37*
G36*
X83248228Y-33681703D02*
G01*
X83403100Y-33745853D01*
X83542481Y-33838985D01*
X83661015Y-33957519D01*
X83754147Y-34096900D01*
X83818297Y-34251772D01*
X83851000Y-34416184D01*
X83851000Y-34583816D01*
X83818297Y-34748228D01*
X83754147Y-34903100D01*
X83661015Y-35042481D01*
X83542481Y-35161015D01*
X83403100Y-35254147D01*
X83248228Y-35318297D01*
X83083816Y-35351000D01*
X82916184Y-35351000D01*
X82751772Y-35318297D01*
X82596900Y-35254147D01*
X82457519Y-35161015D01*
X82338985Y-35042481D01*
X82245853Y-34903100D01*
X82181703Y-34748228D01*
X82149000Y-34583816D01*
X82149000Y-34416184D01*
X82181703Y-34251772D01*
X82245853Y-34096900D01*
X82338985Y-33957519D01*
X82457519Y-33838985D01*
X82596900Y-33745853D01*
X82751772Y-33681703D01*
X82916184Y-33649000D01*
X83083816Y-33649000D01*
X83248228Y-33681703D01*
G37*
G36*
X91248228Y-33681703D02*
G01*
X91403100Y-33745853D01*
X91542481Y-33838985D01*
X91661015Y-33957519D01*
X91754147Y-34096900D01*
X91818297Y-34251772D01*
X91851000Y-34416184D01*
X91851000Y-34583816D01*
X91818297Y-34748228D01*
X91754147Y-34903100D01*
X91661015Y-35042481D01*
X91542481Y-35161015D01*
X91403100Y-35254147D01*
X91248228Y-35318297D01*
X91083816Y-35351000D01*
X90916184Y-35351000D01*
X90751772Y-35318297D01*
X90596900Y-35254147D01*
X90457519Y-35161015D01*
X90338985Y-35042481D01*
X90245853Y-34903100D01*
X90181703Y-34748228D01*
X90149000Y-34583816D01*
X90149000Y-34416184D01*
X90181703Y-34251772D01*
X90245853Y-34096900D01*
X90338985Y-33957519D01*
X90457519Y-33838985D01*
X90596900Y-33745853D01*
X90751772Y-33681703D01*
X90916184Y-33649000D01*
X91083816Y-33649000D01*
X91248228Y-33681703D01*
G37*
G36*
X75248228Y-33681703D02*
G01*
X75403100Y-33745853D01*
X75542481Y-33838985D01*
X75661015Y-33957519D01*
X75754147Y-34096900D01*
X75818297Y-34251772D01*
X75851000Y-34416184D01*
X75851000Y-34583816D01*
X75818297Y-34748228D01*
X75754147Y-34903100D01*
X75661015Y-35042481D01*
X75542481Y-35161015D01*
X75403100Y-35254147D01*
X75248228Y-35318297D01*
X75083816Y-35351000D01*
X74916184Y-35351000D01*
X74751772Y-35318297D01*
X74596900Y-35254147D01*
X74457519Y-35161015D01*
X74338985Y-35042481D01*
X74245853Y-34903100D01*
X74181703Y-34748228D01*
X74149000Y-34583816D01*
X74149000Y-34416184D01*
X74181703Y-34251772D01*
X74245853Y-34096900D01*
X74338985Y-33957519D01*
X74457519Y-33838985D01*
X74596900Y-33745853D01*
X74751772Y-33681703D01*
X74916184Y-33649000D01*
X75083816Y-33649000D01*
X75248228Y-33681703D01*
G37*
G36*
X60043000Y-34449500D02*
G01*
X59052000Y-34449500D01*
X59052000Y-32950500D01*
X60043000Y-32950500D01*
X60043000Y-34449500D01*
G37*
G36*
X52743000Y-34449500D02*
G01*
X51752000Y-34449500D01*
X51752000Y-32950500D01*
X52743000Y-32950500D01*
X52743000Y-34449500D01*
G37*
G36*
X47348000Y-34449500D02*
G01*
X46357000Y-34449500D01*
X46357000Y-32950500D01*
X47348000Y-32950500D01*
X47348000Y-34449500D01*
G37*
G36*
X45443000Y-34449500D02*
G01*
X44452000Y-34449500D01*
X44452000Y-32950500D01*
X45443000Y-32950500D01*
X45443000Y-34449500D01*
G37*
G36*
X67343000Y-34449500D02*
G01*
X66352000Y-34449500D01*
X66352000Y-32950500D01*
X67343000Y-32950500D01*
X67343000Y-34449500D01*
G37*
G36*
X61948000Y-34449500D02*
G01*
X60957000Y-34449500D01*
X60957000Y-32950500D01*
X61948000Y-32950500D01*
X61948000Y-34449500D01*
G37*
G36*
X69248000Y-34449500D02*
G01*
X68257000Y-34449500D01*
X68257000Y-32950500D01*
X69248000Y-32950500D01*
X69248000Y-34449500D01*
G37*
G36*
X54648000Y-34449500D02*
G01*
X53657000Y-34449500D01*
X53657000Y-32950500D01*
X54648000Y-32950500D01*
X54648000Y-34449500D01*
G37*
G36*
X40101000Y-34301000D02*
G01*
X38899000Y-34301000D01*
X38899000Y-33099000D01*
X40101000Y-33099000D01*
X40101000Y-34301000D01*
G37*
G36*
X30349500Y-33448000D02*
G01*
X28850500Y-33448000D01*
X28850500Y-32457000D01*
X30349500Y-32457000D01*
X30349500Y-33448000D01*
G37*
G36*
X85248228Y-31681703D02*
G01*
X85403100Y-31745853D01*
X85542481Y-31838985D01*
X85661015Y-31957519D01*
X85754147Y-32096900D01*
X85818297Y-32251772D01*
X85851000Y-32416184D01*
X85851000Y-32583816D01*
X85818297Y-32748228D01*
X85754147Y-32903100D01*
X85661015Y-33042481D01*
X85542481Y-33161015D01*
X85403100Y-33254147D01*
X85248228Y-33318297D01*
X85083816Y-33351000D01*
X84916184Y-33351000D01*
X84751772Y-33318297D01*
X84596900Y-33254147D01*
X84457519Y-33161015D01*
X84338985Y-33042481D01*
X84245853Y-32903100D01*
X84181703Y-32748228D01*
X84149000Y-32583816D01*
X84149000Y-32416184D01*
X84181703Y-32251772D01*
X84245853Y-32096900D01*
X84338985Y-31957519D01*
X84457519Y-31838985D01*
X84596900Y-31745853D01*
X84751772Y-31681703D01*
X84916184Y-31649000D01*
X85083816Y-31649000D01*
X85248228Y-31681703D01*
G37*
G36*
X89248228Y-31681703D02*
G01*
X89403100Y-31745853D01*
X89542481Y-31838985D01*
X89661015Y-31957519D01*
X89754147Y-32096900D01*
X89818297Y-32251772D01*
X89851000Y-32416184D01*
X89851000Y-32583816D01*
X89818297Y-32748228D01*
X89754147Y-32903100D01*
X89661015Y-33042481D01*
X89542481Y-33161015D01*
X89403100Y-33254147D01*
X89248228Y-33318297D01*
X89083816Y-33351000D01*
X88916184Y-33351000D01*
X88751772Y-33318297D01*
X88596900Y-33254147D01*
X88457519Y-33161015D01*
X88338985Y-33042481D01*
X88245853Y-32903100D01*
X88181703Y-32748228D01*
X88149000Y-32583816D01*
X88149000Y-32416184D01*
X88181703Y-32251772D01*
X88245853Y-32096900D01*
X88338985Y-31957519D01*
X88457519Y-31838985D01*
X88596900Y-31745853D01*
X88751772Y-31681703D01*
X88916184Y-31649000D01*
X89083816Y-31649000D01*
X89248228Y-31681703D01*
G37*
G36*
X93248228Y-31681703D02*
G01*
X93403100Y-31745853D01*
X93542481Y-31838985D01*
X93661015Y-31957519D01*
X93754147Y-32096900D01*
X93818297Y-32251772D01*
X93851000Y-32416184D01*
X93851000Y-32583816D01*
X93818297Y-32748228D01*
X93754147Y-32903100D01*
X93661015Y-33042481D01*
X93542481Y-33161015D01*
X93403100Y-33254147D01*
X93248228Y-33318297D01*
X93083816Y-33351000D01*
X92916184Y-33351000D01*
X92751772Y-33318297D01*
X92596900Y-33254147D01*
X92457519Y-33161015D01*
X92338985Y-33042481D01*
X92245853Y-32903100D01*
X92181703Y-32748228D01*
X92149000Y-32583816D01*
X92149000Y-32416184D01*
X92181703Y-32251772D01*
X92245853Y-32096900D01*
X92338985Y-31957519D01*
X92457519Y-31838985D01*
X92596900Y-31745853D01*
X92751772Y-31681703D01*
X92916184Y-31649000D01*
X93083816Y-31649000D01*
X93248228Y-31681703D01*
G37*
G36*
X97248228Y-31681703D02*
G01*
X97403100Y-31745853D01*
X97542481Y-31838985D01*
X97661015Y-31957519D01*
X97754147Y-32096900D01*
X97818297Y-32251772D01*
X97851000Y-32416184D01*
X97851000Y-32583816D01*
X97818297Y-32748228D01*
X97754147Y-32903100D01*
X97661015Y-33042481D01*
X97542481Y-33161015D01*
X97403100Y-33254147D01*
X97248228Y-33318297D01*
X97083816Y-33351000D01*
X96916184Y-33351000D01*
X96751772Y-33318297D01*
X96596900Y-33254147D01*
X96457519Y-33161015D01*
X96338985Y-33042481D01*
X96245853Y-32903100D01*
X96181703Y-32748228D01*
X96149000Y-32583816D01*
X96149000Y-32416184D01*
X96181703Y-32251772D01*
X96245853Y-32096900D01*
X96338985Y-31957519D01*
X96457519Y-31838985D01*
X96596900Y-31745853D01*
X96751772Y-31681703D01*
X96916184Y-31649000D01*
X97083816Y-31649000D01*
X97248228Y-31681703D01*
G37*
G36*
X81248228Y-31681703D02*
G01*
X81403100Y-31745853D01*
X81542481Y-31838985D01*
X81661015Y-31957519D01*
X81754147Y-32096900D01*
X81818297Y-32251772D01*
X81851000Y-32416184D01*
X81851000Y-32583816D01*
X81818297Y-32748228D01*
X81754147Y-32903100D01*
X81661015Y-33042481D01*
X81542481Y-33161015D01*
X81403100Y-33254147D01*
X81248228Y-33318297D01*
X81083816Y-33351000D01*
X80916184Y-33351000D01*
X80751772Y-33318297D01*
X80596900Y-33254147D01*
X80457519Y-33161015D01*
X80338985Y-33042481D01*
X80245853Y-32903100D01*
X80181703Y-32748228D01*
X80149000Y-32583816D01*
X80149000Y-32416184D01*
X80181703Y-32251772D01*
X80245853Y-32096900D01*
X80338985Y-31957519D01*
X80457519Y-31838985D01*
X80596900Y-31745853D01*
X80751772Y-31681703D01*
X80916184Y-31649000D01*
X81083816Y-31649000D01*
X81248228Y-31681703D01*
G37*
G36*
X77248228Y-31681703D02*
G01*
X77403100Y-31745853D01*
X77542481Y-31838985D01*
X77661015Y-31957519D01*
X77754147Y-32096900D01*
X77818297Y-32251772D01*
X77851000Y-32416184D01*
X77851000Y-32583816D01*
X77818297Y-32748228D01*
X77754147Y-32903100D01*
X77661015Y-33042481D01*
X77542481Y-33161015D01*
X77403100Y-33254147D01*
X77248228Y-33318297D01*
X77083816Y-33351000D01*
X76916184Y-33351000D01*
X76751772Y-33318297D01*
X76596900Y-33254147D01*
X76457519Y-33161015D01*
X76338985Y-33042481D01*
X76245853Y-32903100D01*
X76181703Y-32748228D01*
X76149000Y-32583816D01*
X76149000Y-32416184D01*
X76181703Y-32251772D01*
X76245853Y-32096900D01*
X76338985Y-31957519D01*
X76457519Y-31838985D01*
X76596900Y-31745853D01*
X76751772Y-31681703D01*
X76916184Y-31649000D01*
X77083816Y-31649000D01*
X77248228Y-31681703D01*
G37*
G36*
X73248228Y-31681703D02*
G01*
X73403100Y-31745853D01*
X73542481Y-31838985D01*
X73661015Y-31957519D01*
X73754147Y-32096900D01*
X73818297Y-32251772D01*
X73851000Y-32416184D01*
X73851000Y-32583816D01*
X73818297Y-32748228D01*
X73754147Y-32903100D01*
X73661015Y-33042481D01*
X73542481Y-33161015D01*
X73403100Y-33254147D01*
X73248228Y-33318297D01*
X73083816Y-33351000D01*
X72916184Y-33351000D01*
X72751772Y-33318297D01*
X72596900Y-33254147D01*
X72457519Y-33161015D01*
X72338985Y-33042481D01*
X72245853Y-32903100D01*
X72181703Y-32748228D01*
X72149000Y-32583816D01*
X72149000Y-32416184D01*
X72181703Y-32251772D01*
X72245853Y-32096900D01*
X72338985Y-31957519D01*
X72457519Y-31838985D01*
X72596900Y-31745853D01*
X72751772Y-31681703D01*
X72916184Y-31649000D01*
X73083816Y-31649000D01*
X73248228Y-31681703D01*
G37*
G36*
X40048000Y-32749500D02*
G01*
X39057000Y-32749500D01*
X39057000Y-31250500D01*
X40048000Y-31250500D01*
X40048000Y-32749500D01*
G37*
G36*
X38143000Y-32749500D02*
G01*
X37152000Y-32749500D01*
X37152000Y-31250500D01*
X38143000Y-31250500D01*
X38143000Y-32749500D01*
G37*
G36*
X47541000Y-32401000D02*
G01*
X46139000Y-32401000D01*
X46139000Y-29699000D01*
X47541000Y-29699000D01*
X47541000Y-32401000D01*
G37*
G36*
X57701000Y-32401000D02*
G01*
X56299000Y-32401000D01*
X56299000Y-29699000D01*
X57701000Y-29699000D01*
X57701000Y-32401000D01*
G37*
G36*
X60241000Y-32401000D02*
G01*
X58839000Y-32401000D01*
X58839000Y-29699000D01*
X60241000Y-29699000D01*
X60241000Y-32401000D01*
G37*
G36*
X62781000Y-32401000D02*
G01*
X61379000Y-32401000D01*
X61379000Y-29699000D01*
X62781000Y-29699000D01*
X62781000Y-32401000D01*
G37*
G36*
X55161000Y-32401000D02*
G01*
X53759000Y-32401000D01*
X53759000Y-29699000D01*
X55161000Y-29699000D01*
X55161000Y-32401000D01*
G37*
G36*
X52621000Y-32401000D02*
G01*
X51219000Y-32401000D01*
X51219000Y-29699000D01*
X52621000Y-29699000D01*
X52621000Y-32401000D01*
G37*
G36*
X50081000Y-32401000D02*
G01*
X48679000Y-32401000D01*
X48679000Y-29699000D01*
X50081000Y-29699000D01*
X50081000Y-32401000D01*
G37*
G36*
X45001000Y-32401000D02*
G01*
X43599000Y-32401000D01*
X43599000Y-29699000D01*
X45001000Y-29699000D01*
X45001000Y-32401000D01*
G37*
G36*
X30349500Y-31543000D02*
G01*
X28850500Y-31543000D01*
X28850500Y-30552000D01*
X30349500Y-30552000D01*
X30349500Y-31543000D01*
G37*
G36*
X83248228Y-29681703D02*
G01*
X83403100Y-29745853D01*
X83542481Y-29838985D01*
X83661015Y-29957519D01*
X83754147Y-30096900D01*
X83818297Y-30251772D01*
X83851000Y-30416184D01*
X83851000Y-30583816D01*
X83818297Y-30748228D01*
X83754147Y-30903100D01*
X83661015Y-31042481D01*
X83542481Y-31161015D01*
X83403100Y-31254147D01*
X83248228Y-31318297D01*
X83083816Y-31351000D01*
X82916184Y-31351000D01*
X82751772Y-31318297D01*
X82596900Y-31254147D01*
X82457519Y-31161015D01*
X82338985Y-31042481D01*
X82245853Y-30903100D01*
X82181703Y-30748228D01*
X82149000Y-30583816D01*
X82149000Y-30416184D01*
X82181703Y-30251772D01*
X82245853Y-30096900D01*
X82338985Y-29957519D01*
X82457519Y-29838985D01*
X82596900Y-29745853D01*
X82751772Y-29681703D01*
X82916184Y-29649000D01*
X83083816Y-29649000D01*
X83248228Y-29681703D01*
G37*
G36*
X95248228Y-29681703D02*
G01*
X95403100Y-29745853D01*
X95542481Y-29838985D01*
X95661015Y-29957519D01*
X95754147Y-30096900D01*
X95818297Y-30251772D01*
X95851000Y-30416184D01*
X95851000Y-30583816D01*
X95818297Y-30748228D01*
X95754147Y-30903100D01*
X95661015Y-31042481D01*
X95542481Y-31161015D01*
X95403100Y-31254147D01*
X95248228Y-31318297D01*
X95083816Y-31351000D01*
X94916184Y-31351000D01*
X94751772Y-31318297D01*
X94596900Y-31254147D01*
X94457519Y-31161015D01*
X94338985Y-31042481D01*
X94245853Y-30903100D01*
X94181703Y-30748228D01*
X94149000Y-30583816D01*
X94149000Y-30416184D01*
X94181703Y-30251772D01*
X94245853Y-30096900D01*
X94338985Y-29957519D01*
X94457519Y-29838985D01*
X94596900Y-29745853D01*
X94751772Y-29681703D01*
X94916184Y-29649000D01*
X95083816Y-29649000D01*
X95248228Y-29681703D01*
G37*
G36*
X87248228Y-29681703D02*
G01*
X87403100Y-29745853D01*
X87542481Y-29838985D01*
X87661015Y-29957519D01*
X87754147Y-30096900D01*
X87818297Y-30251772D01*
X87851000Y-30416184D01*
X87851000Y-30583816D01*
X87818297Y-30748228D01*
X87754147Y-30903100D01*
X87661015Y-31042481D01*
X87542481Y-31161015D01*
X87403100Y-31254147D01*
X87248228Y-31318297D01*
X87083816Y-31351000D01*
X86916184Y-31351000D01*
X86751772Y-31318297D01*
X86596900Y-31254147D01*
X86457519Y-31161015D01*
X86338985Y-31042481D01*
X86245853Y-30903100D01*
X86181703Y-30748228D01*
X86149000Y-30583816D01*
X86149000Y-30416184D01*
X86181703Y-30251772D01*
X86245853Y-30096900D01*
X86338985Y-29957519D01*
X86457519Y-29838985D01*
X86596900Y-29745853D01*
X86751772Y-29681703D01*
X86916184Y-29649000D01*
X87083816Y-29649000D01*
X87248228Y-29681703D01*
G37*
G36*
X79248228Y-29681703D02*
G01*
X79403100Y-29745853D01*
X79542481Y-29838985D01*
X79661015Y-29957519D01*
X79754147Y-30096900D01*
X79818297Y-30251772D01*
X79851000Y-30416184D01*
X79851000Y-30583816D01*
X79818297Y-30748228D01*
X79754147Y-30903100D01*
X79661015Y-31042481D01*
X79542481Y-31161015D01*
X79403100Y-31254147D01*
X79248228Y-31318297D01*
X79083816Y-31351000D01*
X78916184Y-31351000D01*
X78751772Y-31318297D01*
X78596900Y-31254147D01*
X78457519Y-31161015D01*
X78338985Y-31042481D01*
X78245853Y-30903100D01*
X78181703Y-30748228D01*
X78149000Y-30583816D01*
X78149000Y-30416184D01*
X78181703Y-30251772D01*
X78245853Y-30096900D01*
X78338985Y-29957519D01*
X78457519Y-29838985D01*
X78596900Y-29745853D01*
X78751772Y-29681703D01*
X78916184Y-29649000D01*
X79083816Y-29649000D01*
X79248228Y-29681703D01*
G37*
G36*
X75248228Y-29681703D02*
G01*
X75403100Y-29745853D01*
X75542481Y-29838985D01*
X75661015Y-29957519D01*
X75754147Y-30096900D01*
X75818297Y-30251772D01*
X75851000Y-30416184D01*
X75851000Y-30583816D01*
X75818297Y-30748228D01*
X75754147Y-30903100D01*
X75661015Y-31042481D01*
X75542481Y-31161015D01*
X75403100Y-31254147D01*
X75248228Y-31318297D01*
X75083816Y-31351000D01*
X74916184Y-31351000D01*
X74751772Y-31318297D01*
X74596900Y-31254147D01*
X74457519Y-31161015D01*
X74338985Y-31042481D01*
X74245853Y-30903100D01*
X74181703Y-30748228D01*
X74149000Y-30583816D01*
X74149000Y-30416184D01*
X74181703Y-30251772D01*
X74245853Y-30096900D01*
X74338985Y-29957519D01*
X74457519Y-29838985D01*
X74596900Y-29745853D01*
X74751772Y-29681703D01*
X74916184Y-29649000D01*
X75083816Y-29649000D01*
X75248228Y-29681703D01*
G37*
G36*
X91248228Y-29681703D02*
G01*
X91403100Y-29745853D01*
X91542481Y-29838985D01*
X91661015Y-29957519D01*
X91754147Y-30096900D01*
X91818297Y-30251772D01*
X91851000Y-30416184D01*
X91851000Y-30583816D01*
X91818297Y-30748228D01*
X91754147Y-30903100D01*
X91661015Y-31042481D01*
X91542481Y-31161015D01*
X91403100Y-31254147D01*
X91248228Y-31318297D01*
X91083816Y-31351000D01*
X90916184Y-31351000D01*
X90751772Y-31318297D01*
X90596900Y-31254147D01*
X90457519Y-31161015D01*
X90338985Y-31042481D01*
X90245853Y-30903100D01*
X90181703Y-30748228D01*
X90149000Y-30583816D01*
X90149000Y-30416184D01*
X90181703Y-30251772D01*
X90245853Y-30096900D01*
X90338985Y-29957519D01*
X90457519Y-29838985D01*
X90596900Y-29745853D01*
X90751772Y-29681703D01*
X90916184Y-29649000D01*
X91083816Y-29649000D01*
X91248228Y-29681703D01*
G37*
G36*
X34048000Y-30649500D02*
G01*
X33057000Y-30649500D01*
X33057000Y-29150500D01*
X34048000Y-29150500D01*
X34048000Y-30649500D01*
G37*
G36*
X32143000Y-30649500D02*
G01*
X31152000Y-30649500D01*
X31152000Y-29150500D01*
X32143000Y-29150500D01*
X32143000Y-30649500D01*
G37*
G36*
X93248228Y-27681703D02*
G01*
X93403100Y-27745853D01*
X93542481Y-27838985D01*
X93661015Y-27957519D01*
X93754147Y-28096900D01*
X93818297Y-28251772D01*
X93851000Y-28416184D01*
X93851000Y-28583816D01*
X93818297Y-28748228D01*
X93754147Y-28903100D01*
X93661015Y-29042481D01*
X93542481Y-29161015D01*
X93403100Y-29254147D01*
X93248228Y-29318297D01*
X93083816Y-29351000D01*
X92916184Y-29351000D01*
X92751772Y-29318297D01*
X92596900Y-29254147D01*
X92457519Y-29161015D01*
X92338985Y-29042481D01*
X92245853Y-28903100D01*
X92181703Y-28748228D01*
X92149000Y-28583816D01*
X92149000Y-28416184D01*
X92181703Y-28251772D01*
X92245853Y-28096900D01*
X92338985Y-27957519D01*
X92457519Y-27838985D01*
X92596900Y-27745853D01*
X92751772Y-27681703D01*
X92916184Y-27649000D01*
X93083816Y-27649000D01*
X93248228Y-27681703D01*
G37*
G36*
X89248228Y-27681703D02*
G01*
X89403100Y-27745853D01*
X89542481Y-27838985D01*
X89661015Y-27957519D01*
X89754147Y-28096900D01*
X89818297Y-28251772D01*
X89851000Y-28416184D01*
X89851000Y-28583816D01*
X89818297Y-28748228D01*
X89754147Y-28903100D01*
X89661015Y-29042481D01*
X89542481Y-29161015D01*
X89403100Y-29254147D01*
X89248228Y-29318297D01*
X89083816Y-29351000D01*
X88916184Y-29351000D01*
X88751772Y-29318297D01*
X88596900Y-29254147D01*
X88457519Y-29161015D01*
X88338985Y-29042481D01*
X88245853Y-28903100D01*
X88181703Y-28748228D01*
X88149000Y-28583816D01*
X88149000Y-28416184D01*
X88181703Y-28251772D01*
X88245853Y-28096900D01*
X88338985Y-27957519D01*
X88457519Y-27838985D01*
X88596900Y-27745853D01*
X88751772Y-27681703D01*
X88916184Y-27649000D01*
X89083816Y-27649000D01*
X89248228Y-27681703D01*
G37*
G36*
X85248228Y-27681703D02*
G01*
X85403100Y-27745853D01*
X85542481Y-27838985D01*
X85661015Y-27957519D01*
X85754147Y-28096900D01*
X85818297Y-28251772D01*
X85851000Y-28416184D01*
X85851000Y-28583816D01*
X85818297Y-28748228D01*
X85754147Y-28903100D01*
X85661015Y-29042481D01*
X85542481Y-29161015D01*
X85403100Y-29254147D01*
X85248228Y-29318297D01*
X85083816Y-29351000D01*
X84916184Y-29351000D01*
X84751772Y-29318297D01*
X84596900Y-29254147D01*
X84457519Y-29161015D01*
X84338985Y-29042481D01*
X84245853Y-28903100D01*
X84181703Y-28748228D01*
X84149000Y-28583816D01*
X84149000Y-28416184D01*
X84181703Y-28251772D01*
X84245853Y-28096900D01*
X84338985Y-27957519D01*
X84457519Y-27838985D01*
X84596900Y-27745853D01*
X84751772Y-27681703D01*
X84916184Y-27649000D01*
X85083816Y-27649000D01*
X85248228Y-27681703D01*
G37*
G36*
X97248228Y-27681703D02*
G01*
X97403100Y-27745853D01*
X97542481Y-27838985D01*
X97661015Y-27957519D01*
X97754147Y-28096900D01*
X97818297Y-28251772D01*
X97851000Y-28416184D01*
X97851000Y-28583816D01*
X97818297Y-28748228D01*
X97754147Y-28903100D01*
X97661015Y-29042481D01*
X97542481Y-29161015D01*
X97403100Y-29254147D01*
X97248228Y-29318297D01*
X97083816Y-29351000D01*
X96916184Y-29351000D01*
X96751772Y-29318297D01*
X96596900Y-29254147D01*
X96457519Y-29161015D01*
X96338985Y-29042481D01*
X96245853Y-28903100D01*
X96181703Y-28748228D01*
X96149000Y-28583816D01*
X96149000Y-28416184D01*
X96181703Y-28251772D01*
X96245853Y-28096900D01*
X96338985Y-27957519D01*
X96457519Y-27838985D01*
X96596900Y-27745853D01*
X96751772Y-27681703D01*
X96916184Y-27649000D01*
X97083816Y-27649000D01*
X97248228Y-27681703D01*
G37*
G36*
X81248228Y-27681703D02*
G01*
X81403100Y-27745853D01*
X81542481Y-27838985D01*
X81661015Y-27957519D01*
X81754147Y-28096900D01*
X81818297Y-28251772D01*
X81851000Y-28416184D01*
X81851000Y-28583816D01*
X81818297Y-28748228D01*
X81754147Y-28903100D01*
X81661015Y-29042481D01*
X81542481Y-29161015D01*
X81403100Y-29254147D01*
X81248228Y-29318297D01*
X81083816Y-29351000D01*
X80916184Y-29351000D01*
X80751772Y-29318297D01*
X80596900Y-29254147D01*
X80457519Y-29161015D01*
X80338985Y-29042481D01*
X80245853Y-28903100D01*
X80181703Y-28748228D01*
X80149000Y-28583816D01*
X80149000Y-28416184D01*
X80181703Y-28251772D01*
X80245853Y-28096900D01*
X80338985Y-27957519D01*
X80457519Y-27838985D01*
X80596900Y-27745853D01*
X80751772Y-27681703D01*
X80916184Y-27649000D01*
X81083816Y-27649000D01*
X81248228Y-27681703D01*
G37*
G36*
X77248228Y-27681703D02*
G01*
X77403100Y-27745853D01*
X77542481Y-27838985D01*
X77661015Y-27957519D01*
X77754147Y-28096900D01*
X77818297Y-28251772D01*
X77851000Y-28416184D01*
X77851000Y-28583816D01*
X77818297Y-28748228D01*
X77754147Y-28903100D01*
X77661015Y-29042481D01*
X77542481Y-29161015D01*
X77403100Y-29254147D01*
X77248228Y-29318297D01*
X77083816Y-29351000D01*
X76916184Y-29351000D01*
X76751772Y-29318297D01*
X76596900Y-29254147D01*
X76457519Y-29161015D01*
X76338985Y-29042481D01*
X76245853Y-28903100D01*
X76181703Y-28748228D01*
X76149000Y-28583816D01*
X76149000Y-28416184D01*
X76181703Y-28251772D01*
X76245853Y-28096900D01*
X76338985Y-27957519D01*
X76457519Y-27838985D01*
X76596900Y-27745853D01*
X76751772Y-27681703D01*
X76916184Y-27649000D01*
X77083816Y-27649000D01*
X77248228Y-27681703D01*
G37*
G36*
X73248228Y-27681703D02*
G01*
X73403100Y-27745853D01*
X73542481Y-27838985D01*
X73661015Y-27957519D01*
X73754147Y-28096900D01*
X73818297Y-28251772D01*
X73851000Y-28416184D01*
X73851000Y-28583816D01*
X73818297Y-28748228D01*
X73754147Y-28903100D01*
X73661015Y-29042481D01*
X73542481Y-29161015D01*
X73403100Y-29254147D01*
X73248228Y-29318297D01*
X73083816Y-29351000D01*
X72916184Y-29351000D01*
X72751772Y-29318297D01*
X72596900Y-29254147D01*
X72457519Y-29161015D01*
X72338985Y-29042481D01*
X72245853Y-28903100D01*
X72181703Y-28748228D01*
X72149000Y-28583816D01*
X72149000Y-28416184D01*
X72181703Y-28251772D01*
X72245853Y-28096900D01*
X72338985Y-27957519D01*
X72457519Y-27838985D01*
X72596900Y-27745853D01*
X72751772Y-27681703D01*
X72916184Y-27649000D01*
X73083816Y-27649000D01*
X73248228Y-27681703D01*
G37*
G36*
X32451000Y-28301000D02*
G01*
X31299000Y-28301000D01*
X31299000Y-27299000D01*
X32451000Y-27299000D01*
X32451000Y-28301000D01*
G37*
G36*
X34101000Y-28301000D02*
G01*
X32949000Y-28301000D01*
X32949000Y-27299000D01*
X34101000Y-27299000D01*
X34101000Y-28301000D01*
G37*
G36*
X37901000Y-28201000D02*
G01*
X36899000Y-28201000D01*
X36899000Y-27049000D01*
X37901000Y-27049000D01*
X37901000Y-28201000D01*
G37*
G36*
X95248228Y-25681703D02*
G01*
X95403100Y-25745853D01*
X95542481Y-25838985D01*
X95661015Y-25957519D01*
X95754147Y-26096900D01*
X95818297Y-26251772D01*
X95851000Y-26416184D01*
X95851000Y-26583816D01*
X95818297Y-26748228D01*
X95754147Y-26903100D01*
X95661015Y-27042481D01*
X95542481Y-27161015D01*
X95403100Y-27254147D01*
X95248228Y-27318297D01*
X95083816Y-27351000D01*
X94916184Y-27351000D01*
X94751772Y-27318297D01*
X94596900Y-27254147D01*
X94457519Y-27161015D01*
X94338985Y-27042481D01*
X94245853Y-26903100D01*
X94181703Y-26748228D01*
X94149000Y-26583816D01*
X94149000Y-26416184D01*
X94181703Y-26251772D01*
X94245853Y-26096900D01*
X94338985Y-25957519D01*
X94457519Y-25838985D01*
X94596900Y-25745853D01*
X94751772Y-25681703D01*
X94916184Y-25649000D01*
X95083816Y-25649000D01*
X95248228Y-25681703D01*
G37*
G36*
X75248228Y-25681703D02*
G01*
X75403100Y-25745853D01*
X75542481Y-25838985D01*
X75661015Y-25957519D01*
X75754147Y-26096900D01*
X75818297Y-26251772D01*
X75851000Y-26416184D01*
X75851000Y-26583816D01*
X75818297Y-26748228D01*
X75754147Y-26903100D01*
X75661015Y-27042481D01*
X75542481Y-27161015D01*
X75403100Y-27254147D01*
X75248228Y-27318297D01*
X75083816Y-27351000D01*
X74916184Y-27351000D01*
X74751772Y-27318297D01*
X74596900Y-27254147D01*
X74457519Y-27161015D01*
X74338985Y-27042481D01*
X74245853Y-26903100D01*
X74181703Y-26748228D01*
X74149000Y-26583816D01*
X74149000Y-26416184D01*
X74181703Y-26251772D01*
X74245853Y-26096900D01*
X74338985Y-25957519D01*
X74457519Y-25838985D01*
X74596900Y-25745853D01*
X74751772Y-25681703D01*
X74916184Y-25649000D01*
X75083816Y-25649000D01*
X75248228Y-25681703D01*
G37*
G36*
X91248228Y-25681703D02*
G01*
X91403100Y-25745853D01*
X91542481Y-25838985D01*
X91661015Y-25957519D01*
X91754147Y-26096900D01*
X91818297Y-26251772D01*
X91851000Y-26416184D01*
X91851000Y-26583816D01*
X91818297Y-26748228D01*
X91754147Y-26903100D01*
X91661015Y-27042481D01*
X91542481Y-27161015D01*
X91403100Y-27254147D01*
X91248228Y-27318297D01*
X91083816Y-27351000D01*
X90916184Y-27351000D01*
X90751772Y-27318297D01*
X90596900Y-27254147D01*
X90457519Y-27161015D01*
X90338985Y-27042481D01*
X90245853Y-26903100D01*
X90181703Y-26748228D01*
X90149000Y-26583816D01*
X90149000Y-26416184D01*
X90181703Y-26251772D01*
X90245853Y-26096900D01*
X90338985Y-25957519D01*
X90457519Y-25838985D01*
X90596900Y-25745853D01*
X90751772Y-25681703D01*
X90916184Y-25649000D01*
X91083816Y-25649000D01*
X91248228Y-25681703D01*
G37*
G36*
X87248228Y-25681703D02*
G01*
X87403100Y-25745853D01*
X87542481Y-25838985D01*
X87661015Y-25957519D01*
X87754147Y-26096900D01*
X87818297Y-26251772D01*
X87851000Y-26416184D01*
X87851000Y-26583816D01*
X87818297Y-26748228D01*
X87754147Y-26903100D01*
X87661015Y-27042481D01*
X87542481Y-27161015D01*
X87403100Y-27254147D01*
X87248228Y-27318297D01*
X87083816Y-27351000D01*
X86916184Y-27351000D01*
X86751772Y-27318297D01*
X86596900Y-27254147D01*
X86457519Y-27161015D01*
X86338985Y-27042481D01*
X86245853Y-26903100D01*
X86181703Y-26748228D01*
X86149000Y-26583816D01*
X86149000Y-26416184D01*
X86181703Y-26251772D01*
X86245853Y-26096900D01*
X86338985Y-25957519D01*
X86457519Y-25838985D01*
X86596900Y-25745853D01*
X86751772Y-25681703D01*
X86916184Y-25649000D01*
X87083816Y-25649000D01*
X87248228Y-25681703D01*
G37*
G36*
X83248228Y-25681703D02*
G01*
X83403100Y-25745853D01*
X83542481Y-25838985D01*
X83661015Y-25957519D01*
X83754147Y-26096900D01*
X83818297Y-26251772D01*
X83851000Y-26416184D01*
X83851000Y-26583816D01*
X83818297Y-26748228D01*
X83754147Y-26903100D01*
X83661015Y-27042481D01*
X83542481Y-27161015D01*
X83403100Y-27254147D01*
X83248228Y-27318297D01*
X83083816Y-27351000D01*
X82916184Y-27351000D01*
X82751772Y-27318297D01*
X82596900Y-27254147D01*
X82457519Y-27161015D01*
X82338985Y-27042481D01*
X82245853Y-26903100D01*
X82181703Y-26748228D01*
X82149000Y-26583816D01*
X82149000Y-26416184D01*
X82181703Y-26251772D01*
X82245853Y-26096900D01*
X82338985Y-25957519D01*
X82457519Y-25838985D01*
X82596900Y-25745853D01*
X82751772Y-25681703D01*
X82916184Y-25649000D01*
X83083816Y-25649000D01*
X83248228Y-25681703D01*
G37*
G36*
X79248228Y-25681703D02*
G01*
X79403100Y-25745853D01*
X79542481Y-25838985D01*
X79661015Y-25957519D01*
X79754147Y-26096900D01*
X79818297Y-26251772D01*
X79851000Y-26416184D01*
X79851000Y-26583816D01*
X79818297Y-26748228D01*
X79754147Y-26903100D01*
X79661015Y-27042481D01*
X79542481Y-27161015D01*
X79403100Y-27254147D01*
X79248228Y-27318297D01*
X79083816Y-27351000D01*
X78916184Y-27351000D01*
X78751772Y-27318297D01*
X78596900Y-27254147D01*
X78457519Y-27161015D01*
X78338985Y-27042481D01*
X78245853Y-26903100D01*
X78181703Y-26748228D01*
X78149000Y-26583816D01*
X78149000Y-26416184D01*
X78181703Y-26251772D01*
X78245853Y-26096900D01*
X78338985Y-25957519D01*
X78457519Y-25838985D01*
X78596900Y-25745853D01*
X78751772Y-25681703D01*
X78916184Y-25649000D01*
X79083816Y-25649000D01*
X79248228Y-25681703D01*
G37*
G36*
X35901000Y-27251000D02*
G01*
X34899000Y-27251000D01*
X34899000Y-26349000D01*
X35901000Y-26349000D01*
X35901000Y-27251000D01*
G37*
G36*
X67249500Y-27148000D02*
G01*
X65750500Y-27148000D01*
X65750500Y-26157000D01*
X67249500Y-26157000D01*
X67249500Y-27148000D01*
G37*
G36*
X52621000Y-26901000D02*
G01*
X51219000Y-26901000D01*
X51219000Y-24199000D01*
X52621000Y-24199000D01*
X52621000Y-26901000D01*
G37*
G36*
X47541000Y-26901000D02*
G01*
X46139000Y-26901000D01*
X46139000Y-24199000D01*
X47541000Y-24199000D01*
X47541000Y-26901000D01*
G37*
G36*
X45001000Y-26901000D02*
G01*
X43599000Y-26901000D01*
X43599000Y-24199000D01*
X45001000Y-24199000D01*
X45001000Y-26901000D01*
G37*
G36*
X62781000Y-26901000D02*
G01*
X61379000Y-26901000D01*
X61379000Y-24199000D01*
X62781000Y-24199000D01*
X62781000Y-26901000D01*
G37*
G36*
X57701000Y-26901000D02*
G01*
X56299000Y-26901000D01*
X56299000Y-24199000D01*
X57701000Y-24199000D01*
X57701000Y-26901000D01*
G37*
G36*
X60241000Y-26901000D02*
G01*
X58839000Y-26901000D01*
X58839000Y-24199000D01*
X60241000Y-24199000D01*
X60241000Y-26901000D01*
G37*
G36*
X50081000Y-26901000D02*
G01*
X48679000Y-26901000D01*
X48679000Y-24199000D01*
X50081000Y-24199000D01*
X50081000Y-26901000D01*
G37*
G36*
X55161000Y-26901000D02*
G01*
X53759000Y-26901000D01*
X53759000Y-24199000D01*
X55161000Y-24199000D01*
X55161000Y-26901000D01*
G37*
G36*
X37901000Y-26551000D02*
G01*
X36899000Y-26551000D01*
X36899000Y-25399000D01*
X37901000Y-25399000D01*
X37901000Y-26551000D01*
G37*
G36*
X33151000Y-26301000D02*
G01*
X32249000Y-26301000D01*
X32249000Y-25299000D01*
X33151000Y-25299000D01*
X33151000Y-26301000D01*
G37*
G36*
X77248228Y-23681703D02*
G01*
X77403100Y-23745853D01*
X77542481Y-23838985D01*
X77661015Y-23957519D01*
X77754147Y-24096900D01*
X77818297Y-24251772D01*
X77851000Y-24416184D01*
X77851000Y-24583816D01*
X77818297Y-24748228D01*
X77754147Y-24903100D01*
X77661015Y-25042481D01*
X77542481Y-25161015D01*
X77403100Y-25254147D01*
X77248228Y-25318297D01*
X77083816Y-25351000D01*
X76916184Y-25351000D01*
X76751772Y-25318297D01*
X76596900Y-25254147D01*
X76457519Y-25161015D01*
X76338985Y-25042481D01*
X76245853Y-24903100D01*
X76181703Y-24748228D01*
X76149000Y-24583816D01*
X76149000Y-24416184D01*
X76181703Y-24251772D01*
X76245853Y-24096900D01*
X76338985Y-23957519D01*
X76457519Y-23838985D01*
X76596900Y-23745853D01*
X76751772Y-23681703D01*
X76916184Y-23649000D01*
X77083816Y-23649000D01*
X77248228Y-23681703D01*
G37*
G36*
X93248228Y-23681703D02*
G01*
X93403100Y-23745853D01*
X93542481Y-23838985D01*
X93661015Y-23957519D01*
X93754147Y-24096900D01*
X93818297Y-24251772D01*
X93851000Y-24416184D01*
X93851000Y-24583816D01*
X93818297Y-24748228D01*
X93754147Y-24903100D01*
X93661015Y-25042481D01*
X93542481Y-25161015D01*
X93403100Y-25254147D01*
X93248228Y-25318297D01*
X93083816Y-25351000D01*
X92916184Y-25351000D01*
X92751772Y-25318297D01*
X92596900Y-25254147D01*
X92457519Y-25161015D01*
X92338985Y-25042481D01*
X92245853Y-24903100D01*
X92181703Y-24748228D01*
X92149000Y-24583816D01*
X92149000Y-24416184D01*
X92181703Y-24251772D01*
X92245853Y-24096900D01*
X92338985Y-23957519D01*
X92457519Y-23838985D01*
X92596900Y-23745853D01*
X92751772Y-23681703D01*
X92916184Y-23649000D01*
X93083816Y-23649000D01*
X93248228Y-23681703D01*
G37*
G36*
X81248228Y-23681703D02*
G01*
X81403100Y-23745853D01*
X81542481Y-23838985D01*
X81661015Y-23957519D01*
X81754147Y-24096900D01*
X81818297Y-24251772D01*
X81851000Y-24416184D01*
X81851000Y-24583816D01*
X81818297Y-24748228D01*
X81754147Y-24903100D01*
X81661015Y-25042481D01*
X81542481Y-25161015D01*
X81403100Y-25254147D01*
X81248228Y-25318297D01*
X81083816Y-25351000D01*
X80916184Y-25351000D01*
X80751772Y-25318297D01*
X80596900Y-25254147D01*
X80457519Y-25161015D01*
X80338985Y-25042481D01*
X80245853Y-24903100D01*
X80181703Y-24748228D01*
X80149000Y-24583816D01*
X80149000Y-24416184D01*
X80181703Y-24251772D01*
X80245853Y-24096900D01*
X80338985Y-23957519D01*
X80457519Y-23838985D01*
X80596900Y-23745853D01*
X80751772Y-23681703D01*
X80916184Y-23649000D01*
X81083816Y-23649000D01*
X81248228Y-23681703D01*
G37*
G36*
X85248228Y-23681703D02*
G01*
X85403100Y-23745853D01*
X85542481Y-23838985D01*
X85661015Y-23957519D01*
X85754147Y-24096900D01*
X85818297Y-24251772D01*
X85851000Y-24416184D01*
X85851000Y-24583816D01*
X85818297Y-24748228D01*
X85754147Y-24903100D01*
X85661015Y-25042481D01*
X85542481Y-25161015D01*
X85403100Y-25254147D01*
X85248228Y-25318297D01*
X85083816Y-25351000D01*
X84916184Y-25351000D01*
X84751772Y-25318297D01*
X84596900Y-25254147D01*
X84457519Y-25161015D01*
X84338985Y-25042481D01*
X84245853Y-24903100D01*
X84181703Y-24748228D01*
X84149000Y-24583816D01*
X84149000Y-24416184D01*
X84181703Y-24251772D01*
X84245853Y-24096900D01*
X84338985Y-23957519D01*
X84457519Y-23838985D01*
X84596900Y-23745853D01*
X84751772Y-23681703D01*
X84916184Y-23649000D01*
X85083816Y-23649000D01*
X85248228Y-23681703D01*
G37*
G36*
X89248228Y-23681703D02*
G01*
X89403100Y-23745853D01*
X89542481Y-23838985D01*
X89661015Y-23957519D01*
X89754147Y-24096900D01*
X89818297Y-24251772D01*
X89851000Y-24416184D01*
X89851000Y-24583816D01*
X89818297Y-24748228D01*
X89754147Y-24903100D01*
X89661015Y-25042481D01*
X89542481Y-25161015D01*
X89403100Y-25254147D01*
X89248228Y-25318297D01*
X89083816Y-25351000D01*
X88916184Y-25351000D01*
X88751772Y-25318297D01*
X88596900Y-25254147D01*
X88457519Y-25161015D01*
X88338985Y-25042481D01*
X88245853Y-24903100D01*
X88181703Y-24748228D01*
X88149000Y-24583816D01*
X88149000Y-24416184D01*
X88181703Y-24251772D01*
X88245853Y-24096900D01*
X88338985Y-23957519D01*
X88457519Y-23838985D01*
X88596900Y-23745853D01*
X88751772Y-23681703D01*
X88916184Y-23649000D01*
X89083816Y-23649000D01*
X89248228Y-23681703D01*
G37*
G36*
X67249500Y-25243000D02*
G01*
X65750500Y-25243000D01*
X65750500Y-24252000D01*
X67249500Y-24252000D01*
X67249500Y-25243000D01*
G37*
G36*
X39151000Y-24201000D02*
G01*
X31049000Y-24201000D01*
X31049000Y-22799000D01*
X39151000Y-22799000D01*
X39151000Y-24201000D01*
G37*
G36*
X73375256Y-20891298D02*
G01*
X73481579Y-20912447D01*
X73782042Y-21036903D01*
X74052451Y-21217585D01*
X74282415Y-21447549D01*
X74463097Y-21717958D01*
X74562327Y-21957519D01*
X74587553Y-22018422D01*
X74651000Y-22337389D01*
X74651000Y-22662611D01*
X74633969Y-22748229D01*
X74587553Y-22981579D01*
X74463097Y-23282042D01*
X74282415Y-23552451D01*
X74052451Y-23782415D01*
X73782042Y-23963097D01*
X73481579Y-24087553D01*
X73434588Y-24096900D01*
X73162611Y-24151000D01*
X72837389Y-24151000D01*
X72565412Y-24096900D01*
X72518421Y-24087553D01*
X72217958Y-23963097D01*
X71947549Y-23782415D01*
X71717585Y-23552451D01*
X71536903Y-23282042D01*
X71412447Y-22981579D01*
X71366031Y-22748229D01*
X71349000Y-22662611D01*
X71349000Y-22337389D01*
X71412447Y-22018422D01*
X71437674Y-21957519D01*
X71536903Y-21717958D01*
X71717585Y-21447549D01*
X71947549Y-21217585D01*
X72217958Y-21036903D01*
X72518421Y-20912447D01*
X72624744Y-20891298D01*
X72837389Y-20849000D01*
X73162611Y-20849000D01*
X73375256Y-20891298D01*
G37*
G36*
X97375256Y-20891298D02*
G01*
X97481579Y-20912447D01*
X97782042Y-21036903D01*
X98052451Y-21217585D01*
X98282415Y-21447549D01*
X98463097Y-21717958D01*
X98562327Y-21957519D01*
X98587553Y-22018422D01*
X98651000Y-22337389D01*
X98651000Y-22662611D01*
X98633969Y-22748229D01*
X98587553Y-22981579D01*
X98463097Y-23282042D01*
X98282415Y-23552451D01*
X98052451Y-23782415D01*
X97782042Y-23963097D01*
X97481579Y-24087553D01*
X97434588Y-24096900D01*
X97162611Y-24151000D01*
X96837389Y-24151000D01*
X96565412Y-24096900D01*
X96518421Y-24087553D01*
X96217958Y-23963097D01*
X95947549Y-23782415D01*
X95717585Y-23552451D01*
X95536903Y-23282042D01*
X95412447Y-22981579D01*
X95366031Y-22748229D01*
X95349000Y-22662611D01*
X95349000Y-22337389D01*
X95412447Y-22018422D01*
X95437674Y-21957519D01*
X95536903Y-21717958D01*
X95717585Y-21447549D01*
X95947549Y-21217585D01*
X96217958Y-21036903D01*
X96518421Y-20912447D01*
X96624744Y-20891298D01*
X96837389Y-20849000D01*
X97162611Y-20849000D01*
X97375256Y-20891298D01*
G37*
G36*
X79248228Y-21681703D02*
G01*
X79403100Y-21745853D01*
X79542481Y-21838985D01*
X79661015Y-21957519D01*
X79754147Y-22096900D01*
X79818297Y-22251772D01*
X79851000Y-22416184D01*
X79851000Y-22583816D01*
X79818297Y-22748228D01*
X79754147Y-22903100D01*
X79661015Y-23042481D01*
X79542481Y-23161015D01*
X79403100Y-23254147D01*
X79248228Y-23318297D01*
X79083816Y-23351000D01*
X78916184Y-23351000D01*
X78751772Y-23318297D01*
X78596900Y-23254147D01*
X78457519Y-23161015D01*
X78338985Y-23042481D01*
X78245853Y-22903100D01*
X78181703Y-22748228D01*
X78149000Y-22583816D01*
X78149000Y-22416184D01*
X78181703Y-22251772D01*
X78245853Y-22096900D01*
X78338985Y-21957519D01*
X78457519Y-21838985D01*
X78596900Y-21745853D01*
X78751772Y-21681703D01*
X78916184Y-21649000D01*
X79083816Y-21649000D01*
X79248228Y-21681703D01*
G37*
G36*
X83248228Y-21681703D02*
G01*
X83403100Y-21745853D01*
X83542481Y-21838985D01*
X83661015Y-21957519D01*
X83754147Y-22096900D01*
X83818297Y-22251772D01*
X83851000Y-22416184D01*
X83851000Y-22583816D01*
X83818297Y-22748228D01*
X83754147Y-22903100D01*
X83661015Y-23042481D01*
X83542481Y-23161015D01*
X83403100Y-23254147D01*
X83248228Y-23318297D01*
X83083816Y-23351000D01*
X82916184Y-23351000D01*
X82751772Y-23318297D01*
X82596900Y-23254147D01*
X82457519Y-23161015D01*
X82338985Y-23042481D01*
X82245853Y-22903100D01*
X82181703Y-22748228D01*
X82149000Y-22583816D01*
X82149000Y-22416184D01*
X82181703Y-22251772D01*
X82245853Y-22096900D01*
X82338985Y-21957519D01*
X82457519Y-21838985D01*
X82596900Y-21745853D01*
X82751772Y-21681703D01*
X82916184Y-21649000D01*
X83083816Y-21649000D01*
X83248228Y-21681703D01*
G37*
G36*
X87248228Y-21681703D02*
G01*
X87403100Y-21745853D01*
X87542481Y-21838985D01*
X87661015Y-21957519D01*
X87754147Y-22096900D01*
X87818297Y-22251772D01*
X87851000Y-22416184D01*
X87851000Y-22583816D01*
X87818297Y-22748228D01*
X87754147Y-22903100D01*
X87661015Y-23042481D01*
X87542481Y-23161015D01*
X87403100Y-23254147D01*
X87248228Y-23318297D01*
X87083816Y-23351000D01*
X86916184Y-23351000D01*
X86751772Y-23318297D01*
X86596900Y-23254147D01*
X86457519Y-23161015D01*
X86338985Y-23042481D01*
X86245853Y-22903100D01*
X86181703Y-22748228D01*
X86149000Y-22583816D01*
X86149000Y-22416184D01*
X86181703Y-22251772D01*
X86245853Y-22096900D01*
X86338985Y-21957519D01*
X86457519Y-21838985D01*
X86596900Y-21745853D01*
X86751772Y-21681703D01*
X86916184Y-21649000D01*
X87083816Y-21649000D01*
X87248228Y-21681703D01*
G37*
G36*
X91248228Y-21681703D02*
G01*
X91403100Y-21745853D01*
X91542481Y-21838985D01*
X91661015Y-21957519D01*
X91754147Y-22096900D01*
X91818297Y-22251772D01*
X91851000Y-22416184D01*
X91851000Y-22583816D01*
X91818297Y-22748228D01*
X91754147Y-22903100D01*
X91661015Y-23042481D01*
X91542481Y-23161015D01*
X91403100Y-23254147D01*
X91248228Y-23318297D01*
X91083816Y-23351000D01*
X90916184Y-23351000D01*
X90751772Y-23318297D01*
X90596900Y-23254147D01*
X90457519Y-23161015D01*
X90338985Y-23042481D01*
X90245853Y-22903100D01*
X90181703Y-22748228D01*
X90149000Y-22583816D01*
X90149000Y-22416184D01*
X90181703Y-22251772D01*
X90245853Y-22096900D01*
X90338985Y-21957519D01*
X90457519Y-21838985D01*
X90596900Y-21745853D01*
X90751772Y-21681703D01*
X90916184Y-21649000D01*
X91083816Y-21649000D01*
X91248228Y-21681703D01*
G37*
G36*
X46643000Y-23349500D02*
G01*
X45652000Y-23349500D01*
X45652000Y-21850500D01*
X46643000Y-21850500D01*
X46643000Y-23349500D01*
G37*
G36*
X48548000Y-23349500D02*
G01*
X47557000Y-23349500D01*
X47557000Y-21850500D01*
X48548000Y-21850500D01*
X48548000Y-23349500D01*
G37*
G36*
X66941000Y-23301000D02*
G01*
X66199000Y-23301000D01*
X66199000Y-21199000D01*
X66941000Y-21199000D01*
X66941000Y-23301000D01*
G37*
G36*
X64401000Y-23301000D02*
G01*
X63659000Y-23301000D01*
X63659000Y-21199000D01*
X64401000Y-21199000D01*
X64401000Y-23301000D01*
G37*
G36*
X41349500Y-23148000D02*
G01*
X39850500Y-23148000D01*
X39850500Y-22157000D01*
X41349500Y-22157000D01*
X41349500Y-23148000D01*
G37*
G36*
X44949500Y-23048000D02*
G01*
X43450500Y-23048000D01*
X43450500Y-22057000D01*
X44949500Y-22057000D01*
X44949500Y-23048000D01*
G37*
G36*
X62648000Y-22949500D02*
G01*
X61657000Y-22949500D01*
X61657000Y-21450500D01*
X62648000Y-21450500D01*
X62648000Y-22949500D01*
G37*
G36*
X60743000Y-22949500D02*
G01*
X59752000Y-22949500D01*
X59752000Y-21450500D01*
X60743000Y-21450500D01*
X60743000Y-22949500D01*
G37*
G36*
X39151000Y-21661000D02*
G01*
X31049000Y-21661000D01*
X31049000Y-20259000D01*
X39151000Y-20259000D01*
X39151000Y-21661000D01*
G37*
G36*
X41349500Y-21243000D02*
G01*
X39850500Y-21243000D01*
X39850500Y-20252000D01*
X41349500Y-20252000D01*
X41349500Y-21243000D01*
G37*
G36*
X44949500Y-21143000D02*
G01*
X43450500Y-21143000D01*
X43450500Y-20152000D01*
X44949500Y-20152000D01*
X44949500Y-21143000D01*
G37*
G36*
X92400399Y-9483499D02*
G01*
X93274125Y-9845408D01*
X93381313Y-9917029D01*
X94060459Y-10370820D01*
X94729180Y-11039541D01*
X95080249Y-11564953D01*
X95254592Y-11825875D01*
X95616501Y-12699601D01*
X95801000Y-13627141D01*
X95801000Y-14572859D01*
X95616501Y-15500399D01*
X95254592Y-16374125D01*
X95160171Y-16515435D01*
X94729180Y-17160459D01*
X94060459Y-17829180D01*
X93535047Y-18180249D01*
X93274125Y-18354592D01*
X92400399Y-18716501D01*
X91472859Y-18901000D01*
X90527141Y-18901000D01*
X89599601Y-18716501D01*
X88725875Y-18354592D01*
X88464953Y-18180249D01*
X87939541Y-17829180D01*
X87270820Y-17160459D01*
X86839829Y-16515435D01*
X86745408Y-16374125D01*
X86383499Y-15500399D01*
X86199000Y-14572859D01*
X86199000Y-13627141D01*
X86383499Y-12699601D01*
X86745408Y-11825875D01*
X86919751Y-11564953D01*
X87270820Y-11039541D01*
X87939541Y-10370820D01*
X88618687Y-9917029D01*
X88725875Y-9845408D01*
X89599601Y-9483499D01*
X90527141Y-9299000D01*
X91472859Y-9299000D01*
X92400399Y-9483499D01*
G37*
G36*
X64401000Y-17001000D02*
G01*
X63659000Y-17001000D01*
X63659000Y-14899000D01*
X64401000Y-14899000D01*
X64401000Y-17001000D01*
G37*
G36*
X65671000Y-17001000D02*
G01*
X64929000Y-17001000D01*
X64929000Y-14899000D01*
X65671000Y-14899000D01*
X65671000Y-17001000D01*
G37*
G36*
X66941000Y-17001000D02*
G01*
X66199000Y-17001000D01*
X66199000Y-14899000D01*
X66941000Y-14899000D01*
X66941000Y-17001000D01*
G37*
G36*
X52664687Y-14961507D02*
G01*
X52664690Y-14961508D01*
X52664689Y-14961508D01*
X52842309Y-15035080D01*
X52842310Y-15035081D01*
X53002161Y-15141889D01*
X53138111Y-15277839D01*
X53227158Y-15411109D01*
X53244920Y-15437691D01*
X53301825Y-15575073D01*
X53318493Y-15615313D01*
X53356000Y-15803871D01*
X53356000Y-15996129D01*
X53318493Y-16184687D01*
X53318492Y-16184689D01*
X53244920Y-16362309D01*
X53244919Y-16362310D01*
X53138111Y-16522161D01*
X53002161Y-16658111D01*
X52868891Y-16747158D01*
X52842309Y-16764920D01*
X52704927Y-16821825D01*
X52664687Y-16838493D01*
X52476129Y-16876000D01*
X52283871Y-16876000D01*
X52095313Y-16838493D01*
X52055073Y-16821825D01*
X51917691Y-16764920D01*
X51891109Y-16747158D01*
X51757839Y-16658111D01*
X51621889Y-16522161D01*
X51515081Y-16362310D01*
X51515080Y-16362309D01*
X51441508Y-16184689D01*
X51441507Y-16184687D01*
X51404000Y-15996129D01*
X51404000Y-15803871D01*
X51441507Y-15615313D01*
X51458175Y-15575073D01*
X51515080Y-15437691D01*
X51532842Y-15411109D01*
X51621889Y-15277839D01*
X51757839Y-15141889D01*
X51917690Y-15035081D01*
X51917691Y-15035080D01*
X52095311Y-14961508D01*
X52095310Y-14961508D01*
X52095313Y-14961507D01*
X52283871Y-14924000D01*
X52476129Y-14924000D01*
X52664687Y-14961507D01*
G37*
G36*
X50124687Y-14961507D02*
G01*
X50124690Y-14961508D01*
X50124689Y-14961508D01*
X50302309Y-15035080D01*
X50302310Y-15035081D01*
X50462161Y-15141889D01*
X50598111Y-15277839D01*
X50687158Y-15411109D01*
X50704920Y-15437691D01*
X50761825Y-15575073D01*
X50778493Y-15615313D01*
X50816000Y-15803871D01*
X50816000Y-15996129D01*
X50778493Y-16184687D01*
X50778492Y-16184689D01*
X50704920Y-16362309D01*
X50704919Y-16362310D01*
X50598111Y-16522161D01*
X50462161Y-16658111D01*
X50328891Y-16747158D01*
X50302309Y-16764920D01*
X50164927Y-16821825D01*
X50124687Y-16838493D01*
X49936129Y-16876000D01*
X49743871Y-16876000D01*
X49555313Y-16838493D01*
X49515073Y-16821825D01*
X49377691Y-16764920D01*
X49351109Y-16747158D01*
X49217839Y-16658111D01*
X49081889Y-16522161D01*
X48975081Y-16362310D01*
X48975080Y-16362309D01*
X48901508Y-16184689D01*
X48901507Y-16184687D01*
X48864000Y-15996129D01*
X48864000Y-15803871D01*
X48901507Y-15615313D01*
X48918175Y-15575073D01*
X48975080Y-15437691D01*
X48992842Y-15411109D01*
X49081889Y-15277839D01*
X49217839Y-15141889D01*
X49377690Y-15035081D01*
X49377691Y-15035080D01*
X49555311Y-14961508D01*
X49555310Y-14961508D01*
X49555313Y-14961507D01*
X49743871Y-14924000D01*
X49936129Y-14924000D01*
X50124687Y-14961507D01*
G37*
G36*
X55204687Y-14961507D02*
G01*
X55204690Y-14961508D01*
X55204689Y-14961508D01*
X55382309Y-15035080D01*
X55382310Y-15035081D01*
X55542161Y-15141889D01*
X55678111Y-15277839D01*
X55767158Y-15411109D01*
X55784920Y-15437691D01*
X55841825Y-15575073D01*
X55858493Y-15615313D01*
X55896000Y-15803871D01*
X55896000Y-15996129D01*
X55858493Y-16184687D01*
X55858492Y-16184689D01*
X55784920Y-16362309D01*
X55784919Y-16362310D01*
X55678111Y-16522161D01*
X55542161Y-16658111D01*
X55408891Y-16747158D01*
X55382309Y-16764920D01*
X55244927Y-16821825D01*
X55204687Y-16838493D01*
X55016129Y-16876000D01*
X54823871Y-16876000D01*
X54635313Y-16838493D01*
X54595073Y-16821825D01*
X54457691Y-16764920D01*
X54431109Y-16747158D01*
X54297839Y-16658111D01*
X54161889Y-16522161D01*
X54055081Y-16362310D01*
X54055080Y-16362309D01*
X53981508Y-16184689D01*
X53981507Y-16184687D01*
X53944000Y-15996129D01*
X53944000Y-15803871D01*
X53981507Y-15615313D01*
X53998175Y-15575073D01*
X54055080Y-15437691D01*
X54072842Y-15411109D01*
X54161889Y-15277839D01*
X54297839Y-15141889D01*
X54457690Y-15035081D01*
X54457691Y-15035080D01*
X54635311Y-14961508D01*
X54635310Y-14961508D01*
X54635313Y-14961507D01*
X54823871Y-14924000D01*
X55016129Y-14924000D01*
X55204687Y-14961507D01*
G37*
G36*
X57744687Y-14961507D02*
G01*
X57744690Y-14961508D01*
X57744689Y-14961508D01*
X57922309Y-15035080D01*
X57922310Y-15035081D01*
X58082161Y-15141889D01*
X58218111Y-15277839D01*
X58307158Y-15411109D01*
X58324920Y-15437691D01*
X58381825Y-15575073D01*
X58398493Y-15615313D01*
X58436000Y-15803871D01*
X58436000Y-15996129D01*
X58398493Y-16184687D01*
X58398492Y-16184689D01*
X58324920Y-16362309D01*
X58324919Y-16362310D01*
X58218111Y-16522161D01*
X58082161Y-16658111D01*
X57948891Y-16747158D01*
X57922309Y-16764920D01*
X57784927Y-16821825D01*
X57744687Y-16838493D01*
X57556129Y-16876000D01*
X57363871Y-16876000D01*
X57175313Y-16838493D01*
X57135073Y-16821825D01*
X56997691Y-16764920D01*
X56971109Y-16747158D01*
X56837839Y-16658111D01*
X56701889Y-16522161D01*
X56595081Y-16362310D01*
X56595080Y-16362309D01*
X56521508Y-16184689D01*
X56521507Y-16184687D01*
X56484000Y-15996129D01*
X56484000Y-15803871D01*
X56521507Y-15615313D01*
X56538175Y-15575073D01*
X56595080Y-15437691D01*
X56612842Y-15411109D01*
X56701889Y-15277839D01*
X56837839Y-15141889D01*
X56997690Y-15035081D01*
X56997691Y-15035080D01*
X57175311Y-14961508D01*
X57175310Y-14961508D01*
X57175313Y-14961507D01*
X57363871Y-14924000D01*
X57556129Y-14924000D01*
X57744687Y-14961507D01*
G37*
G36*
X60284687Y-14961507D02*
G01*
X60284690Y-14961508D01*
X60284689Y-14961508D01*
X60462309Y-15035080D01*
X60462310Y-15035081D01*
X60622161Y-15141889D01*
X60758111Y-15277839D01*
X60847158Y-15411109D01*
X60864920Y-15437691D01*
X60921825Y-15575073D01*
X60938493Y-15615313D01*
X60976000Y-15803871D01*
X60976000Y-15996129D01*
X60938493Y-16184687D01*
X60938492Y-16184689D01*
X60864920Y-16362309D01*
X60864919Y-16362310D01*
X60758111Y-16522161D01*
X60622161Y-16658111D01*
X60488891Y-16747158D01*
X60462309Y-16764920D01*
X60324927Y-16821825D01*
X60284687Y-16838493D01*
X60096129Y-16876000D01*
X59903871Y-16876000D01*
X59715313Y-16838493D01*
X59675073Y-16821825D01*
X59537691Y-16764920D01*
X59511109Y-16747158D01*
X59377839Y-16658111D01*
X59241889Y-16522161D01*
X59135081Y-16362310D01*
X59135080Y-16362309D01*
X59061508Y-16184689D01*
X59061507Y-16184687D01*
X59024000Y-15996129D01*
X59024000Y-15803871D01*
X59061507Y-15615313D01*
X59078175Y-15575073D01*
X59135080Y-15437691D01*
X59152842Y-15411109D01*
X59241889Y-15277839D01*
X59377839Y-15141889D01*
X59537690Y-15035081D01*
X59537691Y-15035080D01*
X59715311Y-14961508D01*
X59715310Y-14961508D01*
X59715313Y-14961507D01*
X59903871Y-14924000D01*
X60096129Y-14924000D01*
X60284687Y-14961507D01*
G37*
G36*
X13731083Y-13439090D02*
G01*
X13959702Y-13484564D01*
X14246516Y-13603367D01*
X14504642Y-13775841D01*
X14724159Y-13995358D01*
X14896633Y-14253484D01*
X15015436Y-14540298D01*
X15076000Y-14844778D01*
X15076000Y-15155222D01*
X15015436Y-15459702D01*
X14896633Y-15746516D01*
X14724159Y-16004642D01*
X14504642Y-16224159D01*
X14246516Y-16396633D01*
X13959702Y-16515436D01*
X13731083Y-16560910D01*
X13655224Y-16576000D01*
X13344776Y-16576000D01*
X13268917Y-16560910D01*
X13040298Y-16515436D01*
X12753484Y-16396633D01*
X12495358Y-16224159D01*
X12275841Y-16004642D01*
X12103367Y-15746516D01*
X11984564Y-15459702D01*
X11924000Y-15155222D01*
X11924000Y-14844778D01*
X11984564Y-14540298D01*
X12103367Y-14253484D01*
X12275841Y-13995358D01*
X12495358Y-13775841D01*
X12753484Y-13603367D01*
X13040298Y-13484564D01*
X13268917Y-13439090D01*
X13344776Y-13424000D01*
X13655224Y-13424000D01*
X13731083Y-13439090D01*
G37*
G36*
X66748000Y-14349500D02*
G01*
X65757000Y-14349500D01*
X65757000Y-12850500D01*
X66748000Y-12850500D01*
X66748000Y-14349500D01*
G37*
G36*
X64843000Y-14349500D02*
G01*
X63852000Y-14349500D01*
X63852000Y-12850500D01*
X64843000Y-12850500D01*
X64843000Y-14349500D01*
G37*
G36*
X60443000Y-14349500D02*
G01*
X59452000Y-14349500D01*
X59452000Y-12850500D01*
X60443000Y-12850500D01*
X60443000Y-14349500D01*
G37*
G36*
X62348000Y-14349500D02*
G01*
X61357000Y-14349500D01*
X61357000Y-12850500D01*
X62348000Y-12850500D01*
X62348000Y-14349500D01*
G37*
G36*
X40035787Y-4820462D02*
G01*
X40035790Y-4820463D01*
X40035789Y-4820463D01*
X40682029Y-5088144D01*
X41263631Y-5476758D01*
X41758242Y-5971369D01*
X42146856Y-6552971D01*
X42146856Y-6552972D01*
X42414538Y-7199213D01*
X42551000Y-7885256D01*
X42551000Y-8584744D01*
X42414538Y-9270787D01*
X42414537Y-9270789D01*
X42146856Y-9917029D01*
X41758242Y-10498631D01*
X41263631Y-10993242D01*
X40682029Y-11381856D01*
X40225068Y-11571135D01*
X40035787Y-11649538D01*
X39349744Y-11786000D01*
X38650256Y-11786000D01*
X37964213Y-11649538D01*
X37774932Y-11571135D01*
X37317971Y-11381856D01*
X36736369Y-10993242D01*
X36241758Y-10498631D01*
X35853144Y-9917029D01*
X35585463Y-9270789D01*
X35585462Y-9270787D01*
X35449000Y-8584744D01*
X35449000Y-7885256D01*
X35585462Y-7199213D01*
X35853144Y-6552972D01*
X35853144Y-6552971D01*
X36241758Y-5971369D01*
X36736369Y-5476758D01*
X37317971Y-5088144D01*
X37964211Y-4820463D01*
X37964210Y-4820463D01*
X37964213Y-4820462D01*
X38650256Y-4684000D01*
X39349744Y-4684000D01*
X40035787Y-4820462D01*
G37*
G36*
X72035787Y-4820462D02*
G01*
X72035790Y-4820463D01*
X72035789Y-4820463D01*
X72682029Y-5088144D01*
X73263631Y-5476758D01*
X73758242Y-5971369D01*
X74146856Y-6552971D01*
X74146856Y-6552972D01*
X74414538Y-7199213D01*
X74551000Y-7885256D01*
X74551000Y-8584744D01*
X74414538Y-9270787D01*
X74414537Y-9270789D01*
X74146856Y-9917029D01*
X73758242Y-10498631D01*
X73263631Y-10993242D01*
X72682029Y-11381856D01*
X72225068Y-11571135D01*
X72035787Y-11649538D01*
X71349744Y-11786000D01*
X70650256Y-11786000D01*
X69964213Y-11649538D01*
X69774932Y-11571135D01*
X69317971Y-11381856D01*
X68736369Y-10993242D01*
X68241758Y-10498631D01*
X67853144Y-9917029D01*
X67585463Y-9270789D01*
X67585462Y-9270787D01*
X67449000Y-8584744D01*
X67449000Y-7885256D01*
X67585462Y-7199213D01*
X67853144Y-6552972D01*
X67853144Y-6552971D01*
X68241758Y-5971369D01*
X68736369Y-5476758D01*
X69317971Y-5088144D01*
X69964211Y-4820463D01*
X69964210Y-4820463D01*
X69964213Y-4820462D01*
X70650256Y-4684000D01*
X71349744Y-4684000D01*
X72035787Y-4820462D01*
G37*
G36*
X5362921Y-1297056D02*
G01*
X5604515Y-1345112D01*
X6059668Y-1533643D01*
X6162769Y-1602533D01*
X6469294Y-1807346D01*
X6817654Y-2155706D01*
X7091358Y-2565334D01*
X7279888Y-3020486D01*
X7376000Y-3503672D01*
X7376000Y-3996328D01*
X7279888Y-4479514D01*
X7091358Y-4934666D01*
X6817654Y-5344294D01*
X6469294Y-5692654D01*
X6162769Y-5897467D01*
X6059668Y-5966357D01*
X5604515Y-6154888D01*
X5362921Y-6202944D01*
X5121328Y-6251000D01*
X4628672Y-6251000D01*
X4387079Y-6202944D01*
X4145485Y-6154888D01*
X3690332Y-5966357D01*
X3587231Y-5897467D01*
X3280706Y-5692654D01*
X2932346Y-5344294D01*
X2658642Y-4934666D01*
X2470112Y-4479514D01*
X2374000Y-3996328D01*
X2374000Y-3503672D01*
X2470112Y-3020486D01*
X2658642Y-2565334D01*
X2932346Y-2155706D01*
X3280706Y-1807346D01*
X3587231Y-1602533D01*
X3690332Y-1533643D01*
X4145485Y-1345112D01*
X4387079Y-1297056D01*
X4628672Y-1249000D01*
X5121328Y-1249000D01*
X5362921Y-1297056D01*
G37*
G36*
X101612921Y-1297056D02*
G01*
X101854515Y-1345112D01*
X102309668Y-1533643D01*
X102412769Y-1602533D01*
X102719294Y-1807346D01*
X103067654Y-2155706D01*
X103341358Y-2565334D01*
X103529888Y-3020486D01*
X103626000Y-3503672D01*
X103626000Y-3996328D01*
X103529888Y-4479514D01*
X103341358Y-4934666D01*
X103067654Y-5344294D01*
X102719294Y-5692654D01*
X102412769Y-5897467D01*
X102309668Y-5966357D01*
X101854515Y-6154888D01*
X101612921Y-6202944D01*
X101371328Y-6251000D01*
X100878672Y-6251000D01*
X100637079Y-6202944D01*
X100395485Y-6154888D01*
X99940332Y-5966357D01*
X99837231Y-5897467D01*
X99530706Y-5692654D01*
X99182346Y-5344294D01*
X98908642Y-4934666D01*
X98720112Y-4479514D01*
X98624000Y-3996328D01*
X98624000Y-3503672D01*
X98720112Y-3020486D01*
X98908642Y-2565334D01*
X99182346Y-2155706D01*
X99530706Y-1807346D01*
X99837231Y-1602533D01*
X99940332Y-1533643D01*
X100395485Y-1345112D01*
X100637079Y-1297056D01*
X100878672Y-1249000D01*
X101371328Y-1249000D01*
X101612921Y-1297056D01*
G37*
M02*
