G04 #@! TF.GenerationSoftware,KiCad,Pcbnew,5.0.2-bee76a0~70~ubuntu16.04.1*
G04 #@! TF.CreationDate,2019-12-01T15:08:28-08:00*
G04 #@! TF.ProjectId,endcap,656e6463-6170-42e6-9b69-6361645f7063,2.0*
G04 #@! TF.SameCoordinates,PX2faf080PY2faf080*
G04 #@! TF.FileFunction,Copper,L1,Top*
G04 #@! TF.FilePolarity,Positive*
%FSLAX46Y46*%
G04 Gerber Fmt 4.6, Leading zero omitted, Abs format (unit mm)*
G04 Created by KiCad (PCBNEW 5.0.2-bee76a0~70~ubuntu16.04.1) date Sun 01 Dec 2019 03:08:28 PM PST*
%MOMM*%
%LPD*%
G01*
G04 APERTURE LIST*
G04 #@! TA.AperFunction,ComponentPad*
%ADD10C,1.850000*%
G04 #@! TD*
G04 #@! TA.AperFunction,ComponentPad*
%ADD11C,4.900000*%
G04 #@! TD*
G04 #@! TA.AperFunction,ViaPad*
%ADD12C,0.800000*%
G04 #@! TD*
G04 #@! TA.AperFunction,Conductor*
%ADD13C,0.700000*%
G04 #@! TD*
G04 #@! TA.AperFunction,Conductor*
%ADD14C,0.200000*%
G04 #@! TD*
G04 APERTURE END LIST*
D10*
G04 #@! TO.P,ACC1,1*
G04 #@! TO.N,VSUP*
X43000000Y-49500000D03*
G04 #@! TO.P,ACC1,2*
G04 #@! TO.N,Net-(ACC1-Pad2)*
X45540000Y-49500000D03*
G04 #@! TO.P,ACC1,3*
G04 #@! TO.N,Net-(ACC1-Pad3)*
X48080000Y-49500000D03*
G04 #@! TO.P,ACC1,4*
G04 #@! TO.N,Net-(ACC1-Pad4)*
X50620000Y-49500000D03*
G04 #@! TO.P,ACC1,5*
G04 #@! TO.N,Net-(ACC1-Pad5)*
X53160000Y-49500000D03*
G04 #@! TO.P,ACC1,6*
G04 #@! TO.N,Net-(ACC1-Pad6)*
X55700000Y-49500000D03*
G04 #@! TO.P,ACC1,7*
G04 #@! TO.N,Net-(ACC1-Pad7)*
X58240000Y-49500000D03*
G04 #@! TO.P,ACC1,8*
G04 #@! TO.N,Net-(ACC1-Pad8)*
X60780000Y-49500000D03*
G04 #@! TO.P,ACC1,9*
G04 #@! TO.N,GNDS*
X63320000Y-49500000D03*
G04 #@! TD*
D11*
G04 #@! TO.P,MH1,1*
G04 #@! TO.N,GNDS*
X4875000Y-3750000D03*
G04 #@! TD*
G04 #@! TO.P,MH2,1*
G04 #@! TO.N,GNDS*
X101125000Y-3750000D03*
G04 #@! TD*
G04 #@! TO.P,MH3,1*
G04 #@! TO.N,GNDS*
X101125000Y-51250000D03*
G04 #@! TD*
G04 #@! TO.P,MH4,1*
G04 #@! TO.N,GNDS*
X4875000Y-51250000D03*
G04 #@! TD*
D10*
G04 #@! TO.P,ISO1,1*
G04 #@! TO.N,Net-(FB1-Pad1)*
X60000000Y-15900000D03*
G04 #@! TO.P,ISO1,2*
G04 #@! TO.N,Net-(ISO1-Pad2)*
X57460000Y-15900000D03*
G04 #@! TO.P,ISO1,3*
G04 #@! TO.N,Net-(C1-Pad2)*
X54920000Y-15900000D03*
G04 #@! TO.P,ISO1,4*
G04 #@! TO.N,Net-(ISO1-Pad4)*
X52380000Y-15900000D03*
G04 #@! TO.P,ISO1,5*
G04 #@! TO.N,Net-(ISO1-Pad5)*
X49840000Y-15900000D03*
G04 #@! TD*
D12*
G04 #@! TO.N,GNDS*
X40600000Y-32000000D03*
X47900000Y-33700000D03*
X55200000Y-33700000D03*
X62500000Y-33700000D03*
X68700000Y-32300000D03*
X29800000Y-34200000D03*
X38600000Y-27400000D03*
X63800000Y-25500000D03*
X56800000Y-23400000D03*
X59100000Y-22700000D03*
X41900000Y-20700000D03*
X30300000Y-20900000D03*
X69000000Y-49000000D03*
X39000000Y-48900000D03*
G04 #@! TO.N,Vlvds*
X47300000Y-36900000D03*
X54600000Y-36900000D03*
X61900000Y-36900000D03*
X40000000Y-36900000D03*
X32500000Y-36900000D03*
G04 #@! TD*
D13*
G04 #@! TO.N,Vlvds*
X47300000Y-36900000D02*
X40000000Y-36900000D01*
X40000000Y-36900000D02*
X33100000Y-36900000D01*
X32500000Y-36900000D02*
X33100000Y-36900000D01*
X47300000Y-36900000D02*
X54600000Y-36900000D01*
X54600000Y-36900000D02*
X61900000Y-36900000D01*
G04 #@! TD*
D14*
G04 #@! TO.N,GNDS*
G36*
X104426658Y-540949D02*
X104819014Y-719342D01*
X105145532Y-1000688D01*
X105379961Y-1362368D01*
X105508162Y-1791043D01*
X105525000Y-2017627D01*
X105525001Y-9706433D01*
X104844694Y-10046588D01*
X104814665Y-10052561D01*
X104760903Y-10088483D01*
X104745734Y-10096068D01*
X104722095Y-10114414D01*
X104657545Y-10157545D01*
X104647876Y-10172015D01*
X104634131Y-10182683D01*
X104595690Y-10250118D01*
X104552561Y-10314666D01*
X104549166Y-10331734D01*
X104540549Y-10346850D01*
X104530842Y-10423853D01*
X104525000Y-10453222D01*
X104525000Y-10470196D01*
X104516915Y-10534332D01*
X104525000Y-10563856D01*
X104525001Y-44436141D01*
X104516915Y-44465668D01*
X104525001Y-44529812D01*
X104525001Y-44546779D01*
X104530841Y-44576136D01*
X104540549Y-44653150D01*
X104549167Y-44668269D01*
X104552562Y-44685335D01*
X104595687Y-44749876D01*
X104634131Y-44817317D01*
X104647878Y-44827986D01*
X104657546Y-44842455D01*
X104722089Y-44885581D01*
X104745734Y-44903932D01*
X104760907Y-44911519D01*
X104814666Y-44947439D01*
X104844694Y-44953412D01*
X105525000Y-45293566D01*
X105525001Y-52966151D01*
X105459052Y-53426656D01*
X105280658Y-53819015D01*
X104999312Y-54145532D01*
X104637631Y-54379962D01*
X104208957Y-54508162D01*
X103982374Y-54525000D01*
X2033842Y-54525000D01*
X1573344Y-54459052D01*
X1180985Y-54280658D01*
X854468Y-53999312D01*
X620038Y-53637631D01*
X491838Y-53208957D01*
X475000Y-52982374D01*
X475000Y-49236441D01*
X41675000Y-49236441D01*
X41675000Y-49763559D01*
X41876719Y-50250552D01*
X42249448Y-50623281D01*
X42736441Y-50825000D01*
X43263559Y-50825000D01*
X43750552Y-50623281D01*
X44123281Y-50250552D01*
X44270000Y-49896341D01*
X44416719Y-50250552D01*
X44789448Y-50623281D01*
X45276441Y-50825000D01*
X45803559Y-50825000D01*
X46290552Y-50623281D01*
X46663281Y-50250552D01*
X46810000Y-49896341D01*
X46956719Y-50250552D01*
X47329448Y-50623281D01*
X47816441Y-50825000D01*
X48343559Y-50825000D01*
X48830552Y-50623281D01*
X49203281Y-50250552D01*
X49350000Y-49896341D01*
X49496719Y-50250552D01*
X49869448Y-50623281D01*
X50356441Y-50825000D01*
X50883559Y-50825000D01*
X51370552Y-50623281D01*
X51743281Y-50250552D01*
X51890000Y-49896341D01*
X52036719Y-50250552D01*
X52409448Y-50623281D01*
X52896441Y-50825000D01*
X53423559Y-50825000D01*
X53910552Y-50623281D01*
X54283281Y-50250552D01*
X54430000Y-49896341D01*
X54576719Y-50250552D01*
X54949448Y-50623281D01*
X55436441Y-50825000D01*
X55963559Y-50825000D01*
X56450552Y-50623281D01*
X56823281Y-50250552D01*
X56970000Y-49896341D01*
X57116719Y-50250552D01*
X57489448Y-50623281D01*
X57976441Y-50825000D01*
X58503559Y-50825000D01*
X58990552Y-50623281D01*
X59363281Y-50250552D01*
X59510000Y-49896341D01*
X59656719Y-50250552D01*
X60029448Y-50623281D01*
X60516441Y-50825000D01*
X61043559Y-50825000D01*
X61530552Y-50623281D01*
X61582953Y-50570880D01*
X62673384Y-50570880D01*
X62788459Y-50741994D01*
X63304210Y-50850865D01*
X63822365Y-50754079D01*
X63851541Y-50741994D01*
X63966616Y-50570880D01*
X63320000Y-49924264D01*
X62673384Y-50570880D01*
X61582953Y-50570880D01*
X61903281Y-50250552D01*
X62047324Y-49902802D01*
X62065921Y-50002365D01*
X62078006Y-50031541D01*
X62249120Y-50146616D01*
X62895736Y-49500000D01*
X63744264Y-49500000D01*
X64390880Y-50146616D01*
X64561994Y-50031541D01*
X64670865Y-49515790D01*
X64574079Y-48997635D01*
X64561994Y-48968459D01*
X64390880Y-48853384D01*
X63744264Y-49500000D01*
X62895736Y-49500000D01*
X62249120Y-48853384D01*
X62078006Y-48968459D01*
X62049646Y-49102806D01*
X61903281Y-48749448D01*
X61582953Y-48429120D01*
X62673384Y-48429120D01*
X63320000Y-49075736D01*
X63966616Y-48429120D01*
X63851541Y-48258006D01*
X63335790Y-48149135D01*
X62817635Y-48245921D01*
X62788459Y-48258006D01*
X62673384Y-48429120D01*
X61582953Y-48429120D01*
X61530552Y-48376719D01*
X61043559Y-48175000D01*
X60516441Y-48175000D01*
X60029448Y-48376719D01*
X59656719Y-48749448D01*
X59510000Y-49103659D01*
X59363281Y-48749448D01*
X58990552Y-48376719D01*
X58503559Y-48175000D01*
X57976441Y-48175000D01*
X57489448Y-48376719D01*
X57116719Y-48749448D01*
X56970000Y-49103659D01*
X56823281Y-48749448D01*
X56450552Y-48376719D01*
X55963559Y-48175000D01*
X55436441Y-48175000D01*
X54949448Y-48376719D01*
X54576719Y-48749448D01*
X54430000Y-49103659D01*
X54283281Y-48749448D01*
X53910552Y-48376719D01*
X53423559Y-48175000D01*
X52896441Y-48175000D01*
X52409448Y-48376719D01*
X52036719Y-48749448D01*
X51890000Y-49103659D01*
X51743281Y-48749448D01*
X51370552Y-48376719D01*
X50883559Y-48175000D01*
X50356441Y-48175000D01*
X49869448Y-48376719D01*
X49496719Y-48749448D01*
X49350000Y-49103659D01*
X49203281Y-48749448D01*
X48830552Y-48376719D01*
X48343559Y-48175000D01*
X47816441Y-48175000D01*
X47329448Y-48376719D01*
X46956719Y-48749448D01*
X46810000Y-49103659D01*
X46663281Y-48749448D01*
X46290552Y-48376719D01*
X45803559Y-48175000D01*
X45276441Y-48175000D01*
X44789448Y-48376719D01*
X44416719Y-48749448D01*
X44270000Y-49103659D01*
X44123281Y-48749448D01*
X43750552Y-48376719D01*
X43263559Y-48175000D01*
X42736441Y-48175000D01*
X42249448Y-48376719D01*
X41876719Y-48749448D01*
X41675000Y-49236441D01*
X475000Y-49236441D01*
X475000Y-46694320D01*
X26200000Y-46694320D01*
X26226109Y-46825580D01*
X26273787Y-46896936D01*
X26292017Y-46925222D01*
X26295724Y-46929767D01*
X26325568Y-46974432D01*
X26332341Y-46978958D01*
X26785693Y-47528355D01*
X26819504Y-47561087D01*
X26852826Y-47594259D01*
X26857772Y-47598134D01*
X27432968Y-48042234D01*
X27473184Y-48066658D01*
X27513034Y-48091628D01*
X27518715Y-48094310D01*
X28178007Y-48399940D01*
X28222646Y-48414851D01*
X28267026Y-48430368D01*
X28273161Y-48431725D01*
X28983781Y-48583695D01*
X29030563Y-48588340D01*
X29077329Y-48593645D01*
X29083612Y-48593609D01*
X29810242Y-48584366D01*
X29856930Y-48578526D01*
X29903669Y-48573343D01*
X29909788Y-48571916D01*
X30616313Y-48401919D01*
X30660544Y-48385882D01*
X30704977Y-48370471D01*
X30710627Y-48367723D01*
X31361931Y-48045421D01*
X31401522Y-48019976D01*
X31441424Y-47995111D01*
X31446321Y-47991183D01*
X31446326Y-47991180D01*
X31446330Y-47991176D01*
X32010040Y-47532592D01*
X32043007Y-47499011D01*
X32076411Y-47465921D01*
X32080320Y-47461002D01*
X32528425Y-46888920D01*
X32553127Y-46848879D01*
X32578377Y-46809201D01*
X32581099Y-46803538D01*
X32891324Y-46146396D01*
X32906438Y-46102175D01*
X71000000Y-46102175D01*
X71000000Y-46897825D01*
X71304482Y-47632909D01*
X71867091Y-48195518D01*
X72602175Y-48500000D01*
X73397825Y-48500000D01*
X74132909Y-48195518D01*
X74695518Y-47632909D01*
X75000000Y-46897825D01*
X75000000Y-46261305D01*
X77800000Y-46261305D01*
X77800000Y-46738695D01*
X77982689Y-47179745D01*
X78320255Y-47517311D01*
X78761305Y-47700000D01*
X79238695Y-47700000D01*
X79679745Y-47517311D01*
X80017311Y-47179745D01*
X80200000Y-46738695D01*
X80200000Y-46261305D01*
X81800000Y-46261305D01*
X81800000Y-46738695D01*
X81982689Y-47179745D01*
X82320255Y-47517311D01*
X82761305Y-47700000D01*
X83238695Y-47700000D01*
X83679745Y-47517311D01*
X84017311Y-47179745D01*
X84200000Y-46738695D01*
X84200000Y-46261305D01*
X85800000Y-46261305D01*
X85800000Y-46738695D01*
X85982689Y-47179745D01*
X86320255Y-47517311D01*
X86761305Y-47700000D01*
X87238695Y-47700000D01*
X87679745Y-47517311D01*
X88017311Y-47179745D01*
X88200000Y-46738695D01*
X88200000Y-46261305D01*
X89800000Y-46261305D01*
X89800000Y-46738695D01*
X89982689Y-47179745D01*
X90320255Y-47517311D01*
X90761305Y-47700000D01*
X91238695Y-47700000D01*
X91679745Y-47517311D01*
X92017311Y-47179745D01*
X92200000Y-46738695D01*
X92200000Y-46261305D01*
X92134087Y-46102175D01*
X95000000Y-46102175D01*
X95000000Y-46897825D01*
X95304482Y-47632909D01*
X95867091Y-48195518D01*
X96602175Y-48500000D01*
X97397825Y-48500000D01*
X98132909Y-48195518D01*
X98695518Y-47632909D01*
X99000000Y-46897825D01*
X99000000Y-46102175D01*
X98695518Y-45367091D01*
X98132909Y-44804482D01*
X97397825Y-44500000D01*
X96602175Y-44500000D01*
X95867091Y-44804482D01*
X95304482Y-45367091D01*
X95000000Y-46102175D01*
X92134087Y-46102175D01*
X92017311Y-45820255D01*
X91679745Y-45482689D01*
X91238695Y-45300000D01*
X90761305Y-45300000D01*
X90320255Y-45482689D01*
X89982689Y-45820255D01*
X89800000Y-46261305D01*
X88200000Y-46261305D01*
X88017311Y-45820255D01*
X87679745Y-45482689D01*
X87238695Y-45300000D01*
X86761305Y-45300000D01*
X86320255Y-45482689D01*
X85982689Y-45820255D01*
X85800000Y-46261305D01*
X84200000Y-46261305D01*
X84017311Y-45820255D01*
X83679745Y-45482689D01*
X83238695Y-45300000D01*
X82761305Y-45300000D01*
X82320255Y-45482689D01*
X81982689Y-45820255D01*
X81800000Y-46261305D01*
X80200000Y-46261305D01*
X80017311Y-45820255D01*
X79679745Y-45482689D01*
X79238695Y-45300000D01*
X78761305Y-45300000D01*
X78320255Y-45482689D01*
X77982689Y-45820255D01*
X77800000Y-46261305D01*
X75000000Y-46261305D01*
X75000000Y-46102175D01*
X74695518Y-45367091D01*
X74132909Y-44804482D01*
X73397825Y-44500000D01*
X72602175Y-44500000D01*
X71867091Y-44804482D01*
X71304482Y-45367091D01*
X71000000Y-46102175D01*
X32906438Y-46102175D01*
X32906543Y-46101870D01*
X32922372Y-46057593D01*
X32923772Y-46051467D01*
X33080700Y-45341925D01*
X33085677Y-45295130D01*
X33091303Y-45248448D01*
X33091311Y-45242165D01*
X33087140Y-44515489D01*
X33081622Y-44468718D01*
X33076769Y-44421987D01*
X33075385Y-44415858D01*
X33039338Y-44261305D01*
X75800000Y-44261305D01*
X75800000Y-44738695D01*
X75982689Y-45179745D01*
X76320255Y-45517311D01*
X76761305Y-45700000D01*
X77238695Y-45700000D01*
X77679745Y-45517311D01*
X78017311Y-45179745D01*
X78200000Y-44738695D01*
X78200000Y-44261305D01*
X79800000Y-44261305D01*
X79800000Y-44738695D01*
X79982689Y-45179745D01*
X80320255Y-45517311D01*
X80761305Y-45700000D01*
X81238695Y-45700000D01*
X81679745Y-45517311D01*
X82017311Y-45179745D01*
X82200000Y-44738695D01*
X82200000Y-44261305D01*
X83800000Y-44261305D01*
X83800000Y-44738695D01*
X83982689Y-45179745D01*
X84320255Y-45517311D01*
X84761305Y-45700000D01*
X85238695Y-45700000D01*
X85679745Y-45517311D01*
X86017311Y-45179745D01*
X86200000Y-44738695D01*
X86200000Y-44261305D01*
X87800000Y-44261305D01*
X87800000Y-44738695D01*
X87982689Y-45179745D01*
X88320255Y-45517311D01*
X88761305Y-45700000D01*
X89238695Y-45700000D01*
X89679745Y-45517311D01*
X90017311Y-45179745D01*
X90200000Y-44738695D01*
X90200000Y-44261305D01*
X91800000Y-44261305D01*
X91800000Y-44738695D01*
X91982689Y-45179745D01*
X92320255Y-45517311D01*
X92761305Y-45700000D01*
X93238695Y-45700000D01*
X93679745Y-45517311D01*
X94017311Y-45179745D01*
X94200000Y-44738695D01*
X94200000Y-44261305D01*
X94017311Y-43820255D01*
X93679745Y-43482689D01*
X93238695Y-43300000D01*
X92761305Y-43300000D01*
X92320255Y-43482689D01*
X91982689Y-43820255D01*
X91800000Y-44261305D01*
X90200000Y-44261305D01*
X90017311Y-43820255D01*
X89679745Y-43482689D01*
X89238695Y-43300000D01*
X88761305Y-43300000D01*
X88320255Y-43482689D01*
X87982689Y-43820255D01*
X87800000Y-44261305D01*
X86200000Y-44261305D01*
X86017311Y-43820255D01*
X85679745Y-43482689D01*
X85238695Y-43300000D01*
X84761305Y-43300000D01*
X84320255Y-43482689D01*
X83982689Y-43820255D01*
X83800000Y-44261305D01*
X82200000Y-44261305D01*
X82017311Y-43820255D01*
X81679745Y-43482689D01*
X81238695Y-43300000D01*
X80761305Y-43300000D01*
X80320255Y-43482689D01*
X79982689Y-43820255D01*
X79800000Y-44261305D01*
X78200000Y-44261305D01*
X78017311Y-43820255D01*
X77679745Y-43482689D01*
X77238695Y-43300000D01*
X76761305Y-43300000D01*
X76320255Y-43482689D01*
X75982689Y-43820255D01*
X75800000Y-44261305D01*
X33039338Y-44261305D01*
X32910324Y-43708164D01*
X32894587Y-43663796D01*
X32879496Y-43619284D01*
X32876788Y-43613614D01*
X32559041Y-42960076D01*
X32533868Y-42920301D01*
X32509287Y-42880233D01*
X32505391Y-42875304D01*
X32050749Y-42308403D01*
X32017388Y-42275191D01*
X32003824Y-42261305D01*
X73800000Y-42261305D01*
X73800000Y-42738695D01*
X73982689Y-43179745D01*
X74320255Y-43517311D01*
X74761305Y-43700000D01*
X75238695Y-43700000D01*
X75679745Y-43517311D01*
X76017311Y-43179745D01*
X76200000Y-42738695D01*
X76200000Y-42261305D01*
X77800000Y-42261305D01*
X77800000Y-42738695D01*
X77982689Y-43179745D01*
X78320255Y-43517311D01*
X78761305Y-43700000D01*
X79238695Y-43700000D01*
X79679745Y-43517311D01*
X80017311Y-43179745D01*
X80200000Y-42738695D01*
X80200000Y-42261305D01*
X81800000Y-42261305D01*
X81800000Y-42738695D01*
X81982689Y-43179745D01*
X82320255Y-43517311D01*
X82761305Y-43700000D01*
X83238695Y-43700000D01*
X83679745Y-43517311D01*
X84017311Y-43179745D01*
X84200000Y-42738695D01*
X84200000Y-42261305D01*
X85800000Y-42261305D01*
X85800000Y-42738695D01*
X85982689Y-43179745D01*
X86320255Y-43517311D01*
X86761305Y-43700000D01*
X87238695Y-43700000D01*
X87679745Y-43517311D01*
X88017311Y-43179745D01*
X88200000Y-42738695D01*
X88200000Y-42261305D01*
X89800000Y-42261305D01*
X89800000Y-42738695D01*
X89982689Y-43179745D01*
X90320255Y-43517311D01*
X90761305Y-43700000D01*
X91238695Y-43700000D01*
X91679745Y-43517311D01*
X92017311Y-43179745D01*
X92200000Y-42738695D01*
X92200000Y-42261305D01*
X93800000Y-42261305D01*
X93800000Y-42738695D01*
X93982689Y-43179745D01*
X94320255Y-43517311D01*
X94761305Y-43700000D01*
X95238695Y-43700000D01*
X95679745Y-43517311D01*
X96017311Y-43179745D01*
X96200000Y-42738695D01*
X96200000Y-42261305D01*
X96017311Y-41820255D01*
X95679745Y-41482689D01*
X95238695Y-41300000D01*
X94761305Y-41300000D01*
X94320255Y-41482689D01*
X93982689Y-41820255D01*
X93800000Y-42261305D01*
X92200000Y-42261305D01*
X92017311Y-41820255D01*
X91679745Y-41482689D01*
X91238695Y-41300000D01*
X90761305Y-41300000D01*
X90320255Y-41482689D01*
X89982689Y-41820255D01*
X89800000Y-42261305D01*
X88200000Y-42261305D01*
X88017311Y-41820255D01*
X87679745Y-41482689D01*
X87238695Y-41300000D01*
X86761305Y-41300000D01*
X86320255Y-41482689D01*
X85982689Y-41820255D01*
X85800000Y-42261305D01*
X84200000Y-42261305D01*
X84017311Y-41820255D01*
X83679745Y-41482689D01*
X83238695Y-41300000D01*
X82761305Y-41300000D01*
X82320255Y-41482689D01*
X81982689Y-41820255D01*
X81800000Y-42261305D01*
X80200000Y-42261305D01*
X80017311Y-41820255D01*
X79679745Y-41482689D01*
X79238695Y-41300000D01*
X78761305Y-41300000D01*
X78320255Y-41482689D01*
X77982689Y-41820255D01*
X77800000Y-42261305D01*
X76200000Y-42261305D01*
X76017311Y-41820255D01*
X75679745Y-41482689D01*
X75238695Y-41300000D01*
X74761305Y-41300000D01*
X74320255Y-41482689D01*
X73982689Y-41820255D01*
X73800000Y-42261305D01*
X32003824Y-42261305D01*
X31984543Y-42241568D01*
X31979652Y-42237625D01*
X31410713Y-41785537D01*
X31370831Y-41760547D01*
X31331345Y-41735030D01*
X31325701Y-41732268D01*
X30670740Y-41417462D01*
X30626315Y-41401930D01*
X30582154Y-41385794D01*
X30576039Y-41384352D01*
X29867610Y-41222475D01*
X29820880Y-41217175D01*
X29774211Y-41211220D01*
X29767928Y-41211168D01*
X29041240Y-41210265D01*
X28994451Y-41215454D01*
X28947668Y-41219983D01*
X28941529Y-41221324D01*
X28232701Y-41381440D01*
X28188243Y-41396860D01*
X28143606Y-41411647D01*
X28137918Y-41414315D01*
X27482176Y-41727493D01*
X27442217Y-41752393D01*
X27401990Y-41776687D01*
X27397036Y-41780548D01*
X27397032Y-41780550D01*
X27397029Y-41780553D01*
X26826972Y-42231222D01*
X26793550Y-42264329D01*
X26759676Y-42296960D01*
X26755699Y-42301824D01*
X26342812Y-42814047D01*
X26325569Y-42825568D01*
X26226110Y-42974419D01*
X26200001Y-43105679D01*
X26200000Y-46694320D01*
X475000Y-46694320D01*
X475000Y-45293566D01*
X1155309Y-44953411D01*
X1185334Y-44947439D01*
X1239088Y-44911522D01*
X1254266Y-44903933D01*
X1277916Y-44885578D01*
X1342455Y-44842455D01*
X1352122Y-44827987D01*
X1365869Y-44817318D01*
X1404311Y-44749880D01*
X1447439Y-44685335D01*
X1450834Y-44668267D01*
X1459451Y-44653151D01*
X1469158Y-44576149D01*
X1475000Y-44546779D01*
X1475000Y-44529804D01*
X1483085Y-44465668D01*
X1475000Y-44436144D01*
X1475000Y-39617094D01*
X11575000Y-39617094D01*
X11575000Y-40382906D01*
X11868064Y-41090425D01*
X12409575Y-41631936D01*
X13117094Y-41925000D01*
X13882906Y-41925000D01*
X14590425Y-41631936D01*
X15131936Y-41090425D01*
X15425000Y-40382906D01*
X15425000Y-40261305D01*
X71800000Y-40261305D01*
X71800000Y-40738695D01*
X71982689Y-41179745D01*
X72320255Y-41517311D01*
X72761305Y-41700000D01*
X73238695Y-41700000D01*
X73679745Y-41517311D01*
X74017311Y-41179745D01*
X74200000Y-40738695D01*
X74200000Y-40261305D01*
X75800000Y-40261305D01*
X75800000Y-40738695D01*
X75982689Y-41179745D01*
X76320255Y-41517311D01*
X76761305Y-41700000D01*
X77238695Y-41700000D01*
X77679745Y-41517311D01*
X78017311Y-41179745D01*
X78200000Y-40738695D01*
X78200000Y-40261305D01*
X79800000Y-40261305D01*
X79800000Y-40738695D01*
X79982689Y-41179745D01*
X80320255Y-41517311D01*
X80761305Y-41700000D01*
X81238695Y-41700000D01*
X81679745Y-41517311D01*
X82017311Y-41179745D01*
X82200000Y-40738695D01*
X82200000Y-40261305D01*
X83800000Y-40261305D01*
X83800000Y-40738695D01*
X83982689Y-41179745D01*
X84320255Y-41517311D01*
X84761305Y-41700000D01*
X85238695Y-41700000D01*
X85679745Y-41517311D01*
X86017311Y-41179745D01*
X86200000Y-40738695D01*
X86200000Y-40261305D01*
X87800000Y-40261305D01*
X87800000Y-40738695D01*
X87982689Y-41179745D01*
X88320255Y-41517311D01*
X88761305Y-41700000D01*
X89238695Y-41700000D01*
X89679745Y-41517311D01*
X90017311Y-41179745D01*
X90200000Y-40738695D01*
X90200000Y-40261305D01*
X91800000Y-40261305D01*
X91800000Y-40738695D01*
X91982689Y-41179745D01*
X92320255Y-41517311D01*
X92761305Y-41700000D01*
X93238695Y-41700000D01*
X93679745Y-41517311D01*
X94017311Y-41179745D01*
X94200000Y-40738695D01*
X94200000Y-40261305D01*
X95800000Y-40261305D01*
X95800000Y-40738695D01*
X95982689Y-41179745D01*
X96320255Y-41517311D01*
X96761305Y-41700000D01*
X97238695Y-41700000D01*
X97679745Y-41517311D01*
X98017311Y-41179745D01*
X98200000Y-40738695D01*
X98200000Y-40261305D01*
X98017311Y-39820255D01*
X97679745Y-39482689D01*
X97238695Y-39300000D01*
X96761305Y-39300000D01*
X96320255Y-39482689D01*
X95982689Y-39820255D01*
X95800000Y-40261305D01*
X94200000Y-40261305D01*
X94017311Y-39820255D01*
X93679745Y-39482689D01*
X93238695Y-39300000D01*
X92761305Y-39300000D01*
X92320255Y-39482689D01*
X91982689Y-39820255D01*
X91800000Y-40261305D01*
X90200000Y-40261305D01*
X90017311Y-39820255D01*
X89679745Y-39482689D01*
X89238695Y-39300000D01*
X88761305Y-39300000D01*
X88320255Y-39482689D01*
X87982689Y-39820255D01*
X87800000Y-40261305D01*
X86200000Y-40261305D01*
X86017311Y-39820255D01*
X85679745Y-39482689D01*
X85238695Y-39300000D01*
X84761305Y-39300000D01*
X84320255Y-39482689D01*
X83982689Y-39820255D01*
X83800000Y-40261305D01*
X82200000Y-40261305D01*
X82017311Y-39820255D01*
X81679745Y-39482689D01*
X81238695Y-39300000D01*
X80761305Y-39300000D01*
X80320255Y-39482689D01*
X79982689Y-39820255D01*
X79800000Y-40261305D01*
X78200000Y-40261305D01*
X78017311Y-39820255D01*
X77679745Y-39482689D01*
X77238695Y-39300000D01*
X76761305Y-39300000D01*
X76320255Y-39482689D01*
X75982689Y-39820255D01*
X75800000Y-40261305D01*
X74200000Y-40261305D01*
X74017311Y-39820255D01*
X73679745Y-39482689D01*
X73238695Y-39300000D01*
X72761305Y-39300000D01*
X72320255Y-39482689D01*
X71982689Y-39820255D01*
X71800000Y-40261305D01*
X15425000Y-40261305D01*
X15425000Y-39617094D01*
X15131936Y-38909575D01*
X14590425Y-38368064D01*
X14332687Y-38261305D01*
X73800000Y-38261305D01*
X73800000Y-38738695D01*
X73982689Y-39179745D01*
X74320255Y-39517311D01*
X74761305Y-39700000D01*
X75238695Y-39700000D01*
X75679745Y-39517311D01*
X76017311Y-39179745D01*
X76200000Y-38738695D01*
X76200000Y-38261305D01*
X77800000Y-38261305D01*
X77800000Y-38738695D01*
X77982689Y-39179745D01*
X78320255Y-39517311D01*
X78761305Y-39700000D01*
X79238695Y-39700000D01*
X79679745Y-39517311D01*
X80017311Y-39179745D01*
X80200000Y-38738695D01*
X80200000Y-38261305D01*
X81800000Y-38261305D01*
X81800000Y-38738695D01*
X81982689Y-39179745D01*
X82320255Y-39517311D01*
X82761305Y-39700000D01*
X83238695Y-39700000D01*
X83679745Y-39517311D01*
X84017311Y-39179745D01*
X84200000Y-38738695D01*
X84200000Y-38261305D01*
X85800000Y-38261305D01*
X85800000Y-38738695D01*
X85982689Y-39179745D01*
X86320255Y-39517311D01*
X86761305Y-39700000D01*
X87238695Y-39700000D01*
X87679745Y-39517311D01*
X88017311Y-39179745D01*
X88200000Y-38738695D01*
X88200000Y-38261305D01*
X89800000Y-38261305D01*
X89800000Y-38738695D01*
X89982689Y-39179745D01*
X90320255Y-39517311D01*
X90761305Y-39700000D01*
X91238695Y-39700000D01*
X91679745Y-39517311D01*
X92017311Y-39179745D01*
X92200000Y-38738695D01*
X92200000Y-38261305D01*
X93800000Y-38261305D01*
X93800000Y-38738695D01*
X93982689Y-39179745D01*
X94320255Y-39517311D01*
X94761305Y-39700000D01*
X95238695Y-39700000D01*
X95679745Y-39517311D01*
X96017311Y-39179745D01*
X96200000Y-38738695D01*
X96200000Y-38261305D01*
X96017311Y-37820255D01*
X95679745Y-37482689D01*
X95238695Y-37300000D01*
X94761305Y-37300000D01*
X94320255Y-37482689D01*
X93982689Y-37820255D01*
X93800000Y-38261305D01*
X92200000Y-38261305D01*
X92017311Y-37820255D01*
X91679745Y-37482689D01*
X91238695Y-37300000D01*
X90761305Y-37300000D01*
X90320255Y-37482689D01*
X89982689Y-37820255D01*
X89800000Y-38261305D01*
X88200000Y-38261305D01*
X88017311Y-37820255D01*
X87679745Y-37482689D01*
X87238695Y-37300000D01*
X86761305Y-37300000D01*
X86320255Y-37482689D01*
X85982689Y-37820255D01*
X85800000Y-38261305D01*
X84200000Y-38261305D01*
X84017311Y-37820255D01*
X83679745Y-37482689D01*
X83238695Y-37300000D01*
X82761305Y-37300000D01*
X82320255Y-37482689D01*
X81982689Y-37820255D01*
X81800000Y-38261305D01*
X80200000Y-38261305D01*
X80017311Y-37820255D01*
X79679745Y-37482689D01*
X79238695Y-37300000D01*
X78761305Y-37300000D01*
X78320255Y-37482689D01*
X77982689Y-37820255D01*
X77800000Y-38261305D01*
X76200000Y-38261305D01*
X76017311Y-37820255D01*
X75679745Y-37482689D01*
X75238695Y-37300000D01*
X74761305Y-37300000D01*
X74320255Y-37482689D01*
X73982689Y-37820255D01*
X73800000Y-38261305D01*
X14332687Y-38261305D01*
X13882906Y-38075000D01*
X13117094Y-38075000D01*
X12409575Y-38368064D01*
X11868064Y-38909575D01*
X11575000Y-39617094D01*
X1475000Y-39617094D01*
X1475000Y-33497292D01*
X7715542Y-33497292D01*
X7718279Y-33649480D01*
X7718825Y-33653784D01*
X7718517Y-33658114D01*
X7723184Y-33708136D01*
X7830661Y-34424703D01*
X7836657Y-34447510D01*
X7840075Y-34470855D01*
X7855375Y-34518708D01*
X8114217Y-35195480D01*
X8124974Y-35216474D01*
X8133323Y-35238534D01*
X8158533Y-35281970D01*
X8158541Y-35281985D01*
X8158546Y-35281991D01*
X8556673Y-35887388D01*
X8571687Y-35905582D01*
X8584578Y-35925334D01*
X8618531Y-35962347D01*
X8618539Y-35962357D01*
X8618544Y-35962361D01*
X9137383Y-36468142D01*
X9155952Y-36482686D01*
X9172785Y-36499211D01*
X9213892Y-36528068D01*
X9213904Y-36528078D01*
X9213911Y-36528081D01*
X9829255Y-36910651D01*
X9850513Y-36920868D01*
X9870504Y-36933394D01*
X9916862Y-36952757D01*
X10584729Y-37188866D01*
X10610476Y-37200113D01*
X14560103Y-38064708D01*
X14591098Y-38078314D01*
X14639781Y-38090722D01*
X14857764Y-38133488D01*
X14864442Y-38134061D01*
X14870901Y-38135864D01*
X14920846Y-38141289D01*
X15643451Y-38179160D01*
X15666997Y-38177844D01*
X15690553Y-38179161D01*
X15740481Y-38173736D01*
X15740498Y-38173735D01*
X15740505Y-38173733D01*
X16454377Y-38055553D01*
X16477099Y-38049209D01*
X16500382Y-38045438D01*
X16547984Y-38029417D01*
X16547996Y-38029414D01*
X16548001Y-38029412D01*
X17219846Y-37760692D01*
X17240667Y-37749621D01*
X17262604Y-37740936D01*
X17305659Y-37715065D01*
X17305668Y-37715060D01*
X17305672Y-37715057D01*
X17904140Y-37308339D01*
X17922105Y-37293050D01*
X17941658Y-37279861D01*
X17978150Y-37245352D01*
X17978161Y-37245343D01*
X17978165Y-37245338D01*
X18455216Y-36740870D01*
X31700000Y-36740870D01*
X31700000Y-37059130D01*
X31821793Y-37353164D01*
X32046836Y-37578207D01*
X32340870Y-37700000D01*
X32659130Y-37700000D01*
X32779841Y-37650000D01*
X39720159Y-37650000D01*
X39840870Y-37700000D01*
X40159130Y-37700000D01*
X40279841Y-37650000D01*
X47020159Y-37650000D01*
X47140870Y-37700000D01*
X47459130Y-37700000D01*
X47579841Y-37650000D01*
X54320159Y-37650000D01*
X54440870Y-37700000D01*
X54759130Y-37700000D01*
X54879841Y-37650000D01*
X61620159Y-37650000D01*
X61740870Y-37700000D01*
X62059130Y-37700000D01*
X62353164Y-37578207D01*
X62578207Y-37353164D01*
X62700000Y-37059130D01*
X62700000Y-36740870D01*
X62578207Y-36446836D01*
X62392676Y-36261305D01*
X71800000Y-36261305D01*
X71800000Y-36738695D01*
X71982689Y-37179745D01*
X72320255Y-37517311D01*
X72761305Y-37700000D01*
X73238695Y-37700000D01*
X73679745Y-37517311D01*
X74017311Y-37179745D01*
X74200000Y-36738695D01*
X74200000Y-36261305D01*
X75800000Y-36261305D01*
X75800000Y-36738695D01*
X75982689Y-37179745D01*
X76320255Y-37517311D01*
X76761305Y-37700000D01*
X77238695Y-37700000D01*
X77679745Y-37517311D01*
X78017311Y-37179745D01*
X78200000Y-36738695D01*
X78200000Y-36261305D01*
X79800000Y-36261305D01*
X79800000Y-36738695D01*
X79982689Y-37179745D01*
X80320255Y-37517311D01*
X80761305Y-37700000D01*
X81238695Y-37700000D01*
X81679745Y-37517311D01*
X82017311Y-37179745D01*
X82200000Y-36738695D01*
X82200000Y-36261305D01*
X83800000Y-36261305D01*
X83800000Y-36738695D01*
X83982689Y-37179745D01*
X84320255Y-37517311D01*
X84761305Y-37700000D01*
X85238695Y-37700000D01*
X85679745Y-37517311D01*
X86017311Y-37179745D01*
X86200000Y-36738695D01*
X86200000Y-36261305D01*
X87800000Y-36261305D01*
X87800000Y-36738695D01*
X87982689Y-37179745D01*
X88320255Y-37517311D01*
X88761305Y-37700000D01*
X89238695Y-37700000D01*
X89679745Y-37517311D01*
X90017311Y-37179745D01*
X90200000Y-36738695D01*
X90200000Y-36261305D01*
X91800000Y-36261305D01*
X91800000Y-36738695D01*
X91982689Y-37179745D01*
X92320255Y-37517311D01*
X92761305Y-37700000D01*
X93238695Y-37700000D01*
X93679745Y-37517311D01*
X94017311Y-37179745D01*
X94200000Y-36738695D01*
X94200000Y-36261305D01*
X95800000Y-36261305D01*
X95800000Y-36738695D01*
X95982689Y-37179745D01*
X96320255Y-37517311D01*
X96761305Y-37700000D01*
X97238695Y-37700000D01*
X97679745Y-37517311D01*
X98017311Y-37179745D01*
X98200000Y-36738695D01*
X98200000Y-36261305D01*
X98017311Y-35820255D01*
X97679745Y-35482689D01*
X97238695Y-35300000D01*
X96761305Y-35300000D01*
X96320255Y-35482689D01*
X95982689Y-35820255D01*
X95800000Y-36261305D01*
X94200000Y-36261305D01*
X94017311Y-35820255D01*
X93679745Y-35482689D01*
X93238695Y-35300000D01*
X92761305Y-35300000D01*
X92320255Y-35482689D01*
X91982689Y-35820255D01*
X91800000Y-36261305D01*
X90200000Y-36261305D01*
X90017311Y-35820255D01*
X89679745Y-35482689D01*
X89238695Y-35300000D01*
X88761305Y-35300000D01*
X88320255Y-35482689D01*
X87982689Y-35820255D01*
X87800000Y-36261305D01*
X86200000Y-36261305D01*
X86017311Y-35820255D01*
X85679745Y-35482689D01*
X85238695Y-35300000D01*
X84761305Y-35300000D01*
X84320255Y-35482689D01*
X83982689Y-35820255D01*
X83800000Y-36261305D01*
X82200000Y-36261305D01*
X82017311Y-35820255D01*
X81679745Y-35482689D01*
X81238695Y-35300000D01*
X80761305Y-35300000D01*
X80320255Y-35482689D01*
X79982689Y-35820255D01*
X79800000Y-36261305D01*
X78200000Y-36261305D01*
X78017311Y-35820255D01*
X77679745Y-35482689D01*
X77238695Y-35300000D01*
X76761305Y-35300000D01*
X76320255Y-35482689D01*
X75982689Y-35820255D01*
X75800000Y-36261305D01*
X74200000Y-36261305D01*
X74017311Y-35820255D01*
X73679745Y-35482689D01*
X73238695Y-35300000D01*
X72761305Y-35300000D01*
X72320255Y-35482689D01*
X71982689Y-35820255D01*
X71800000Y-36261305D01*
X62392676Y-36261305D01*
X62353164Y-36221793D01*
X62059130Y-36100000D01*
X61740870Y-36100000D01*
X61620159Y-36150000D01*
X54879841Y-36150000D01*
X54759130Y-36100000D01*
X54440870Y-36100000D01*
X54320159Y-36150000D01*
X47579841Y-36150000D01*
X47459130Y-36100000D01*
X47140870Y-36100000D01*
X47020159Y-36150000D01*
X40279841Y-36150000D01*
X40159130Y-36100000D01*
X39840870Y-36100000D01*
X39720159Y-36150000D01*
X32779841Y-36150000D01*
X32659130Y-36100000D01*
X32340870Y-36100000D01*
X32046836Y-36221793D01*
X31821793Y-36446836D01*
X31700000Y-36740870D01*
X18455216Y-36740870D01*
X18475334Y-36719596D01*
X18489592Y-36700811D01*
X18505862Y-36683727D01*
X18534091Y-36642187D01*
X18534101Y-36642174D01*
X18534104Y-36642167D01*
X18906780Y-36021932D01*
X18916675Y-36000518D01*
X18928894Y-35980342D01*
X18947548Y-35933702D01*
X18947551Y-35933696D01*
X18947552Y-35933693D01*
X19178348Y-35247895D01*
X19183413Y-35224858D01*
X19191015Y-35202528D01*
X19199220Y-35152963D01*
X19275225Y-34453327D01*
X19280000Y-34429321D01*
X19280000Y-34261305D01*
X73800000Y-34261305D01*
X73800000Y-34738695D01*
X73982689Y-35179745D01*
X74320255Y-35517311D01*
X74761305Y-35700000D01*
X75238695Y-35700000D01*
X75679745Y-35517311D01*
X76017311Y-35179745D01*
X76200000Y-34738695D01*
X76200000Y-34261305D01*
X77800000Y-34261305D01*
X77800000Y-34738695D01*
X77982689Y-35179745D01*
X78320255Y-35517311D01*
X78761305Y-35700000D01*
X79238695Y-35700000D01*
X79679745Y-35517311D01*
X80017311Y-35179745D01*
X80200000Y-34738695D01*
X80200000Y-34261305D01*
X81800000Y-34261305D01*
X81800000Y-34738695D01*
X81982689Y-35179745D01*
X82320255Y-35517311D01*
X82761305Y-35700000D01*
X83238695Y-35700000D01*
X83679745Y-35517311D01*
X84017311Y-35179745D01*
X84200000Y-34738695D01*
X84200000Y-34261305D01*
X85800000Y-34261305D01*
X85800000Y-34738695D01*
X85982689Y-35179745D01*
X86320255Y-35517311D01*
X86761305Y-35700000D01*
X87238695Y-35700000D01*
X87679745Y-35517311D01*
X88017311Y-35179745D01*
X88200000Y-34738695D01*
X88200000Y-34261305D01*
X89800000Y-34261305D01*
X89800000Y-34738695D01*
X89982689Y-35179745D01*
X90320255Y-35517311D01*
X90761305Y-35700000D01*
X91238695Y-35700000D01*
X91679745Y-35517311D01*
X92017311Y-35179745D01*
X92200000Y-34738695D01*
X92200000Y-34261305D01*
X93800000Y-34261305D01*
X93800000Y-34738695D01*
X93982689Y-35179745D01*
X94320255Y-35517311D01*
X94761305Y-35700000D01*
X95238695Y-35700000D01*
X95679745Y-35517311D01*
X96017311Y-35179745D01*
X96200000Y-34738695D01*
X96200000Y-34261305D01*
X96017311Y-33820255D01*
X95679745Y-33482689D01*
X95238695Y-33300000D01*
X94761305Y-33300000D01*
X94320255Y-33482689D01*
X93982689Y-33820255D01*
X93800000Y-34261305D01*
X92200000Y-34261305D01*
X92017311Y-33820255D01*
X91679745Y-33482689D01*
X91238695Y-33300000D01*
X90761305Y-33300000D01*
X90320255Y-33482689D01*
X89982689Y-33820255D01*
X89800000Y-34261305D01*
X88200000Y-34261305D01*
X88017311Y-33820255D01*
X87679745Y-33482689D01*
X87238695Y-33300000D01*
X86761305Y-33300000D01*
X86320255Y-33482689D01*
X85982689Y-33820255D01*
X85800000Y-34261305D01*
X84200000Y-34261305D01*
X84017311Y-33820255D01*
X83679745Y-33482689D01*
X83238695Y-33300000D01*
X82761305Y-33300000D01*
X82320255Y-33482689D01*
X81982689Y-33820255D01*
X81800000Y-34261305D01*
X80200000Y-34261305D01*
X80017311Y-33820255D01*
X79679745Y-33482689D01*
X79238695Y-33300000D01*
X78761305Y-33300000D01*
X78320255Y-33482689D01*
X77982689Y-33820255D01*
X77800000Y-34261305D01*
X76200000Y-34261305D01*
X76017311Y-33820255D01*
X75679745Y-33482689D01*
X75238695Y-33300000D01*
X74761305Y-33300000D01*
X74320255Y-33482689D01*
X73982689Y-33820255D01*
X73800000Y-34261305D01*
X19280000Y-34261305D01*
X19280000Y-32261305D01*
X71800000Y-32261305D01*
X71800000Y-32738695D01*
X71982689Y-33179745D01*
X72320255Y-33517311D01*
X72761305Y-33700000D01*
X73238695Y-33700000D01*
X73679745Y-33517311D01*
X74017311Y-33179745D01*
X74200000Y-32738695D01*
X74200000Y-32261305D01*
X75800000Y-32261305D01*
X75800000Y-32738695D01*
X75982689Y-33179745D01*
X76320255Y-33517311D01*
X76761305Y-33700000D01*
X77238695Y-33700000D01*
X77679745Y-33517311D01*
X78017311Y-33179745D01*
X78200000Y-32738695D01*
X78200000Y-32261305D01*
X79800000Y-32261305D01*
X79800000Y-32738695D01*
X79982689Y-33179745D01*
X80320255Y-33517311D01*
X80761305Y-33700000D01*
X81238695Y-33700000D01*
X81679745Y-33517311D01*
X82017311Y-33179745D01*
X82200000Y-32738695D01*
X82200000Y-32261305D01*
X83800000Y-32261305D01*
X83800000Y-32738695D01*
X83982689Y-33179745D01*
X84320255Y-33517311D01*
X84761305Y-33700000D01*
X85238695Y-33700000D01*
X85679745Y-33517311D01*
X86017311Y-33179745D01*
X86200000Y-32738695D01*
X86200000Y-32261305D01*
X87800000Y-32261305D01*
X87800000Y-32738695D01*
X87982689Y-33179745D01*
X88320255Y-33517311D01*
X88761305Y-33700000D01*
X89238695Y-33700000D01*
X89679745Y-33517311D01*
X90017311Y-33179745D01*
X90200000Y-32738695D01*
X90200000Y-32261305D01*
X91800000Y-32261305D01*
X91800000Y-32738695D01*
X91982689Y-33179745D01*
X92320255Y-33517311D01*
X92761305Y-33700000D01*
X93238695Y-33700000D01*
X93679745Y-33517311D01*
X94017311Y-33179745D01*
X94200000Y-32738695D01*
X94200000Y-32261305D01*
X95800000Y-32261305D01*
X95800000Y-32738695D01*
X95982689Y-33179745D01*
X96320255Y-33517311D01*
X96761305Y-33700000D01*
X97238695Y-33700000D01*
X97679745Y-33517311D01*
X98017311Y-33179745D01*
X98200000Y-32738695D01*
X98200000Y-32261305D01*
X98017311Y-31820255D01*
X97679745Y-31482689D01*
X97238695Y-31300000D01*
X96761305Y-31300000D01*
X96320255Y-31482689D01*
X95982689Y-31820255D01*
X95800000Y-32261305D01*
X94200000Y-32261305D01*
X94017311Y-31820255D01*
X93679745Y-31482689D01*
X93238695Y-31300000D01*
X92761305Y-31300000D01*
X92320255Y-31482689D01*
X91982689Y-31820255D01*
X91800000Y-32261305D01*
X90200000Y-32261305D01*
X90017311Y-31820255D01*
X89679745Y-31482689D01*
X89238695Y-31300000D01*
X88761305Y-31300000D01*
X88320255Y-31482689D01*
X87982689Y-31820255D01*
X87800000Y-32261305D01*
X86200000Y-32261305D01*
X86017311Y-31820255D01*
X85679745Y-31482689D01*
X85238695Y-31300000D01*
X84761305Y-31300000D01*
X84320255Y-31482689D01*
X83982689Y-31820255D01*
X83800000Y-32261305D01*
X82200000Y-32261305D01*
X82017311Y-31820255D01*
X81679745Y-31482689D01*
X81238695Y-31300000D01*
X80761305Y-31300000D01*
X80320255Y-31482689D01*
X79982689Y-31820255D01*
X79800000Y-32261305D01*
X78200000Y-32261305D01*
X78017311Y-31820255D01*
X77679745Y-31482689D01*
X77238695Y-31300000D01*
X76761305Y-31300000D01*
X76320255Y-31482689D01*
X75982689Y-31820255D01*
X75800000Y-32261305D01*
X74200000Y-32261305D01*
X74017311Y-31820255D01*
X73679745Y-31482689D01*
X73238695Y-31300000D01*
X72761305Y-31300000D01*
X72320255Y-31482689D01*
X71982689Y-31820255D01*
X71800000Y-32261305D01*
X19280000Y-32261305D01*
X19280000Y-30261305D01*
X73800000Y-30261305D01*
X73800000Y-30738695D01*
X73982689Y-31179745D01*
X74320255Y-31517311D01*
X74761305Y-31700000D01*
X75238695Y-31700000D01*
X75679745Y-31517311D01*
X76017311Y-31179745D01*
X76200000Y-30738695D01*
X76200000Y-30261305D01*
X77800000Y-30261305D01*
X77800000Y-30738695D01*
X77982689Y-31179745D01*
X78320255Y-31517311D01*
X78761305Y-31700000D01*
X79238695Y-31700000D01*
X79679745Y-31517311D01*
X80017311Y-31179745D01*
X80200000Y-30738695D01*
X80200000Y-30261305D01*
X81800000Y-30261305D01*
X81800000Y-30738695D01*
X81982689Y-31179745D01*
X82320255Y-31517311D01*
X82761305Y-31700000D01*
X83238695Y-31700000D01*
X83679745Y-31517311D01*
X84017311Y-31179745D01*
X84200000Y-30738695D01*
X84200000Y-30261305D01*
X85800000Y-30261305D01*
X85800000Y-30738695D01*
X85982689Y-31179745D01*
X86320255Y-31517311D01*
X86761305Y-31700000D01*
X87238695Y-31700000D01*
X87679745Y-31517311D01*
X88017311Y-31179745D01*
X88200000Y-30738695D01*
X88200000Y-30261305D01*
X89800000Y-30261305D01*
X89800000Y-30738695D01*
X89982689Y-31179745D01*
X90320255Y-31517311D01*
X90761305Y-31700000D01*
X91238695Y-31700000D01*
X91679745Y-31517311D01*
X92017311Y-31179745D01*
X92200000Y-30738695D01*
X92200000Y-30261305D01*
X93800000Y-30261305D01*
X93800000Y-30738695D01*
X93982689Y-31179745D01*
X94320255Y-31517311D01*
X94761305Y-31700000D01*
X95238695Y-31700000D01*
X95679745Y-31517311D01*
X96017311Y-31179745D01*
X96200000Y-30738695D01*
X96200000Y-30261305D01*
X96017311Y-29820255D01*
X95679745Y-29482689D01*
X95238695Y-29300000D01*
X94761305Y-29300000D01*
X94320255Y-29482689D01*
X93982689Y-29820255D01*
X93800000Y-30261305D01*
X92200000Y-30261305D01*
X92017311Y-29820255D01*
X91679745Y-29482689D01*
X91238695Y-29300000D01*
X90761305Y-29300000D01*
X90320255Y-29482689D01*
X89982689Y-29820255D01*
X89800000Y-30261305D01*
X88200000Y-30261305D01*
X88017311Y-29820255D01*
X87679745Y-29482689D01*
X87238695Y-29300000D01*
X86761305Y-29300000D01*
X86320255Y-29482689D01*
X85982689Y-29820255D01*
X85800000Y-30261305D01*
X84200000Y-30261305D01*
X84017311Y-29820255D01*
X83679745Y-29482689D01*
X83238695Y-29300000D01*
X82761305Y-29300000D01*
X82320255Y-29482689D01*
X81982689Y-29820255D01*
X81800000Y-30261305D01*
X80200000Y-30261305D01*
X80017311Y-29820255D01*
X79679745Y-29482689D01*
X79238695Y-29300000D01*
X78761305Y-29300000D01*
X78320255Y-29482689D01*
X77982689Y-29820255D01*
X77800000Y-30261305D01*
X76200000Y-30261305D01*
X76017311Y-29820255D01*
X75679745Y-29482689D01*
X75238695Y-29300000D01*
X74761305Y-29300000D01*
X74320255Y-29482689D01*
X73982689Y-29820255D01*
X73800000Y-30261305D01*
X19280000Y-30261305D01*
X19280000Y-28261305D01*
X71800000Y-28261305D01*
X71800000Y-28738695D01*
X71982689Y-29179745D01*
X72320255Y-29517311D01*
X72761305Y-29700000D01*
X73238695Y-29700000D01*
X73679745Y-29517311D01*
X74017311Y-29179745D01*
X74200000Y-28738695D01*
X74200000Y-28261305D01*
X75800000Y-28261305D01*
X75800000Y-28738695D01*
X75982689Y-29179745D01*
X76320255Y-29517311D01*
X76761305Y-29700000D01*
X77238695Y-29700000D01*
X77679745Y-29517311D01*
X78017311Y-29179745D01*
X78200000Y-28738695D01*
X78200000Y-28261305D01*
X79800000Y-28261305D01*
X79800000Y-28738695D01*
X79982689Y-29179745D01*
X80320255Y-29517311D01*
X80761305Y-29700000D01*
X81238695Y-29700000D01*
X81679745Y-29517311D01*
X82017311Y-29179745D01*
X82200000Y-28738695D01*
X82200000Y-28261305D01*
X83800000Y-28261305D01*
X83800000Y-28738695D01*
X83982689Y-29179745D01*
X84320255Y-29517311D01*
X84761305Y-29700000D01*
X85238695Y-29700000D01*
X85679745Y-29517311D01*
X86017311Y-29179745D01*
X86200000Y-28738695D01*
X86200000Y-28261305D01*
X87800000Y-28261305D01*
X87800000Y-28738695D01*
X87982689Y-29179745D01*
X88320255Y-29517311D01*
X88761305Y-29700000D01*
X89238695Y-29700000D01*
X89679745Y-29517311D01*
X90017311Y-29179745D01*
X90200000Y-28738695D01*
X90200000Y-28261305D01*
X91800000Y-28261305D01*
X91800000Y-28738695D01*
X91982689Y-29179745D01*
X92320255Y-29517311D01*
X92761305Y-29700000D01*
X93238695Y-29700000D01*
X93679745Y-29517311D01*
X94017311Y-29179745D01*
X94200000Y-28738695D01*
X94200000Y-28261305D01*
X95800000Y-28261305D01*
X95800000Y-28738695D01*
X95982689Y-29179745D01*
X96320255Y-29517311D01*
X96761305Y-29700000D01*
X97238695Y-29700000D01*
X97679745Y-29517311D01*
X98017311Y-29179745D01*
X98200000Y-28738695D01*
X98200000Y-28261305D01*
X98017311Y-27820255D01*
X97679745Y-27482689D01*
X97238695Y-27300000D01*
X96761305Y-27300000D01*
X96320255Y-27482689D01*
X95982689Y-27820255D01*
X95800000Y-28261305D01*
X94200000Y-28261305D01*
X94017311Y-27820255D01*
X93679745Y-27482689D01*
X93238695Y-27300000D01*
X92761305Y-27300000D01*
X92320255Y-27482689D01*
X91982689Y-27820255D01*
X91800000Y-28261305D01*
X90200000Y-28261305D01*
X90017311Y-27820255D01*
X89679745Y-27482689D01*
X89238695Y-27300000D01*
X88761305Y-27300000D01*
X88320255Y-27482689D01*
X87982689Y-27820255D01*
X87800000Y-28261305D01*
X86200000Y-28261305D01*
X86017311Y-27820255D01*
X85679745Y-27482689D01*
X85238695Y-27300000D01*
X84761305Y-27300000D01*
X84320255Y-27482689D01*
X83982689Y-27820255D01*
X83800000Y-28261305D01*
X82200000Y-28261305D01*
X82017311Y-27820255D01*
X81679745Y-27482689D01*
X81238695Y-27300000D01*
X80761305Y-27300000D01*
X80320255Y-27482689D01*
X79982689Y-27820255D01*
X79800000Y-28261305D01*
X78200000Y-28261305D01*
X78017311Y-27820255D01*
X77679745Y-27482689D01*
X77238695Y-27300000D01*
X76761305Y-27300000D01*
X76320255Y-27482689D01*
X75982689Y-27820255D01*
X75800000Y-28261305D01*
X74200000Y-28261305D01*
X74017311Y-27820255D01*
X73679745Y-27482689D01*
X73238695Y-27300000D01*
X72761305Y-27300000D01*
X72320255Y-27482689D01*
X71982689Y-27820255D01*
X71800000Y-28261305D01*
X19280000Y-28261305D01*
X19280000Y-26261305D01*
X73800000Y-26261305D01*
X73800000Y-26738695D01*
X73982689Y-27179745D01*
X74320255Y-27517311D01*
X74761305Y-27700000D01*
X75238695Y-27700000D01*
X75679745Y-27517311D01*
X76017311Y-27179745D01*
X76200000Y-26738695D01*
X76200000Y-26261305D01*
X77800000Y-26261305D01*
X77800000Y-26738695D01*
X77982689Y-27179745D01*
X78320255Y-27517311D01*
X78761305Y-27700000D01*
X79238695Y-27700000D01*
X79679745Y-27517311D01*
X80017311Y-27179745D01*
X80200000Y-26738695D01*
X80200000Y-26261305D01*
X81800000Y-26261305D01*
X81800000Y-26738695D01*
X81982689Y-27179745D01*
X82320255Y-27517311D01*
X82761305Y-27700000D01*
X83238695Y-27700000D01*
X83679745Y-27517311D01*
X84017311Y-27179745D01*
X84200000Y-26738695D01*
X84200000Y-26261305D01*
X85800000Y-26261305D01*
X85800000Y-26738695D01*
X85982689Y-27179745D01*
X86320255Y-27517311D01*
X86761305Y-27700000D01*
X87238695Y-27700000D01*
X87679745Y-27517311D01*
X88017311Y-27179745D01*
X88200000Y-26738695D01*
X88200000Y-26261305D01*
X89800000Y-26261305D01*
X89800000Y-26738695D01*
X89982689Y-27179745D01*
X90320255Y-27517311D01*
X90761305Y-27700000D01*
X91238695Y-27700000D01*
X91679745Y-27517311D01*
X92017311Y-27179745D01*
X92200000Y-26738695D01*
X92200000Y-26261305D01*
X93800000Y-26261305D01*
X93800000Y-26738695D01*
X93982689Y-27179745D01*
X94320255Y-27517311D01*
X94761305Y-27700000D01*
X95238695Y-27700000D01*
X95679745Y-27517311D01*
X96017311Y-27179745D01*
X96200000Y-26738695D01*
X96200000Y-26261305D01*
X96017311Y-25820255D01*
X95679745Y-25482689D01*
X95238695Y-25300000D01*
X94761305Y-25300000D01*
X94320255Y-25482689D01*
X93982689Y-25820255D01*
X93800000Y-26261305D01*
X92200000Y-26261305D01*
X92017311Y-25820255D01*
X91679745Y-25482689D01*
X91238695Y-25300000D01*
X90761305Y-25300000D01*
X90320255Y-25482689D01*
X89982689Y-25820255D01*
X89800000Y-26261305D01*
X88200000Y-26261305D01*
X88017311Y-25820255D01*
X87679745Y-25482689D01*
X87238695Y-25300000D01*
X86761305Y-25300000D01*
X86320255Y-25482689D01*
X85982689Y-25820255D01*
X85800000Y-26261305D01*
X84200000Y-26261305D01*
X84017311Y-25820255D01*
X83679745Y-25482689D01*
X83238695Y-25300000D01*
X82761305Y-25300000D01*
X82320255Y-25482689D01*
X81982689Y-25820255D01*
X81800000Y-26261305D01*
X80200000Y-26261305D01*
X80017311Y-25820255D01*
X79679745Y-25482689D01*
X79238695Y-25300000D01*
X78761305Y-25300000D01*
X78320255Y-25482689D01*
X77982689Y-25820255D01*
X77800000Y-26261305D01*
X76200000Y-26261305D01*
X76017311Y-25820255D01*
X75679745Y-25482689D01*
X75238695Y-25300000D01*
X74761305Y-25300000D01*
X74320255Y-25482689D01*
X73982689Y-25820255D01*
X73800000Y-26261305D01*
X19280000Y-26261305D01*
X19280000Y-22102175D01*
X71000000Y-22102175D01*
X71000000Y-22897825D01*
X71304482Y-23632909D01*
X71867091Y-24195518D01*
X72602175Y-24500000D01*
X73397825Y-24500000D01*
X73974085Y-24261305D01*
X75800000Y-24261305D01*
X75800000Y-24738695D01*
X75982689Y-25179745D01*
X76320255Y-25517311D01*
X76761305Y-25700000D01*
X77238695Y-25700000D01*
X77679745Y-25517311D01*
X78017311Y-25179745D01*
X78200000Y-24738695D01*
X78200000Y-24261305D01*
X79800000Y-24261305D01*
X79800000Y-24738695D01*
X79982689Y-25179745D01*
X80320255Y-25517311D01*
X80761305Y-25700000D01*
X81238695Y-25700000D01*
X81679745Y-25517311D01*
X82017311Y-25179745D01*
X82200000Y-24738695D01*
X82200000Y-24261305D01*
X83800000Y-24261305D01*
X83800000Y-24738695D01*
X83982689Y-25179745D01*
X84320255Y-25517311D01*
X84761305Y-25700000D01*
X85238695Y-25700000D01*
X85679745Y-25517311D01*
X86017311Y-25179745D01*
X86200000Y-24738695D01*
X86200000Y-24261305D01*
X87800000Y-24261305D01*
X87800000Y-24738695D01*
X87982689Y-25179745D01*
X88320255Y-25517311D01*
X88761305Y-25700000D01*
X89238695Y-25700000D01*
X89679745Y-25517311D01*
X90017311Y-25179745D01*
X90200000Y-24738695D01*
X90200000Y-24261305D01*
X91800000Y-24261305D01*
X91800000Y-24738695D01*
X91982689Y-25179745D01*
X92320255Y-25517311D01*
X92761305Y-25700000D01*
X93238695Y-25700000D01*
X93679745Y-25517311D01*
X94017311Y-25179745D01*
X94200000Y-24738695D01*
X94200000Y-24261305D01*
X94017311Y-23820255D01*
X93679745Y-23482689D01*
X93238695Y-23300000D01*
X92761305Y-23300000D01*
X92320255Y-23482689D01*
X91982689Y-23820255D01*
X91800000Y-24261305D01*
X90200000Y-24261305D01*
X90017311Y-23820255D01*
X89679745Y-23482689D01*
X89238695Y-23300000D01*
X88761305Y-23300000D01*
X88320255Y-23482689D01*
X87982689Y-23820255D01*
X87800000Y-24261305D01*
X86200000Y-24261305D01*
X86017311Y-23820255D01*
X85679745Y-23482689D01*
X85238695Y-23300000D01*
X84761305Y-23300000D01*
X84320255Y-23482689D01*
X83982689Y-23820255D01*
X83800000Y-24261305D01*
X82200000Y-24261305D01*
X82017311Y-23820255D01*
X81679745Y-23482689D01*
X81238695Y-23300000D01*
X80761305Y-23300000D01*
X80320255Y-23482689D01*
X79982689Y-23820255D01*
X79800000Y-24261305D01*
X78200000Y-24261305D01*
X78017311Y-23820255D01*
X77679745Y-23482689D01*
X77238695Y-23300000D01*
X76761305Y-23300000D01*
X76320255Y-23482689D01*
X75982689Y-23820255D01*
X75800000Y-24261305D01*
X73974085Y-24261305D01*
X74132909Y-24195518D01*
X74695518Y-23632909D01*
X75000000Y-22897825D01*
X75000000Y-22261305D01*
X77800000Y-22261305D01*
X77800000Y-22738695D01*
X77982689Y-23179745D01*
X78320255Y-23517311D01*
X78761305Y-23700000D01*
X79238695Y-23700000D01*
X79679745Y-23517311D01*
X80017311Y-23179745D01*
X80200000Y-22738695D01*
X80200000Y-22261305D01*
X81800000Y-22261305D01*
X81800000Y-22738695D01*
X81982689Y-23179745D01*
X82320255Y-23517311D01*
X82761305Y-23700000D01*
X83238695Y-23700000D01*
X83679745Y-23517311D01*
X84017311Y-23179745D01*
X84200000Y-22738695D01*
X84200000Y-22261305D01*
X85800000Y-22261305D01*
X85800000Y-22738695D01*
X85982689Y-23179745D01*
X86320255Y-23517311D01*
X86761305Y-23700000D01*
X87238695Y-23700000D01*
X87679745Y-23517311D01*
X88017311Y-23179745D01*
X88200000Y-22738695D01*
X88200000Y-22261305D01*
X89800000Y-22261305D01*
X89800000Y-22738695D01*
X89982689Y-23179745D01*
X90320255Y-23517311D01*
X90761305Y-23700000D01*
X91238695Y-23700000D01*
X91679745Y-23517311D01*
X92017311Y-23179745D01*
X92200000Y-22738695D01*
X92200000Y-22261305D01*
X92134087Y-22102175D01*
X95000000Y-22102175D01*
X95000000Y-22897825D01*
X95304482Y-23632909D01*
X95867091Y-24195518D01*
X96602175Y-24500000D01*
X97397825Y-24500000D01*
X98132909Y-24195518D01*
X98695518Y-23632909D01*
X99000000Y-22897825D01*
X99000000Y-22102175D01*
X98695518Y-21367091D01*
X98132909Y-20804482D01*
X97397825Y-20500000D01*
X96602175Y-20500000D01*
X95867091Y-20804482D01*
X95304482Y-21367091D01*
X95000000Y-22102175D01*
X92134087Y-22102175D01*
X92017311Y-21820255D01*
X91679745Y-21482689D01*
X91238695Y-21300000D01*
X90761305Y-21300000D01*
X90320255Y-21482689D01*
X89982689Y-21820255D01*
X89800000Y-22261305D01*
X88200000Y-22261305D01*
X88017311Y-21820255D01*
X87679745Y-21482689D01*
X87238695Y-21300000D01*
X86761305Y-21300000D01*
X86320255Y-21482689D01*
X85982689Y-21820255D01*
X85800000Y-22261305D01*
X84200000Y-22261305D01*
X84017311Y-21820255D01*
X83679745Y-21482689D01*
X83238695Y-21300000D01*
X82761305Y-21300000D01*
X82320255Y-21482689D01*
X81982689Y-21820255D01*
X81800000Y-22261305D01*
X80200000Y-22261305D01*
X80017311Y-21820255D01*
X79679745Y-21482689D01*
X79238695Y-21300000D01*
X78761305Y-21300000D01*
X78320255Y-21482689D01*
X77982689Y-21820255D01*
X77800000Y-22261305D01*
X75000000Y-22261305D01*
X75000000Y-22102175D01*
X74695518Y-21367091D01*
X74132909Y-20804482D01*
X73397825Y-20500000D01*
X72602175Y-20500000D01*
X71867091Y-20804482D01*
X71304482Y-21367091D01*
X71000000Y-22102175D01*
X19280000Y-22102175D01*
X19280000Y-20570679D01*
X19278533Y-20563304D01*
X19272388Y-20378063D01*
X19271443Y-20371423D01*
X19271747Y-20364727D01*
X19265798Y-20314841D01*
X19140148Y-19602238D01*
X19133566Y-19579584D01*
X19129552Y-19556343D01*
X19113030Y-19508898D01*
X18837289Y-18839900D01*
X18825996Y-18819187D01*
X18817085Y-18797351D01*
X18790769Y-18754575D01*
X18790761Y-18754561D01*
X18790756Y-18754555D01*
X18377794Y-18160381D01*
X18362318Y-18142578D01*
X18348925Y-18123163D01*
X18314035Y-18087033D01*
X18314026Y-18087023D01*
X18314021Y-18087019D01*
X17783103Y-17595383D01*
X17764167Y-17581320D01*
X17746914Y-17565231D01*
X17705078Y-17537436D01*
X17705070Y-17537430D01*
X17705066Y-17537428D01*
X17080957Y-17171266D01*
X17059444Y-17161598D01*
X17039139Y-17149589D01*
X16992306Y-17131424D01*
X16992300Y-17131421D01*
X16992297Y-17131420D01*
X16304120Y-16907819D01*
X16281033Y-16902996D01*
X16258622Y-16895627D01*
X16208992Y-16887945D01*
X16208974Y-16887941D01*
X16208965Y-16887941D01*
X15488833Y-16817331D01*
X15465245Y-16817578D01*
X15441778Y-16815194D01*
X15391657Y-16818348D01*
X15391638Y-16818348D01*
X15391629Y-16818350D01*
X14673132Y-16904026D01*
X14578424Y-16925890D01*
X14557359Y-16935893D01*
X10610476Y-17799887D01*
X10602416Y-17803408D01*
X10489482Y-17832761D01*
X10485427Y-17834299D01*
X10481139Y-17835014D01*
X10433600Y-17851263D01*
X9762111Y-18123516D01*
X9741336Y-18134688D01*
X9719447Y-18143474D01*
X9676514Y-18169547D01*
X9676505Y-18169552D01*
X9676501Y-18169555D01*
X9079142Y-18579645D01*
X9061255Y-18595014D01*
X9041757Y-18608299D01*
X9005428Y-18642980D01*
X9005418Y-18642989D01*
X9005414Y-18642994D01*
X8510051Y-19171793D01*
X8495874Y-19190654D01*
X8479693Y-19207807D01*
X8451650Y-19249491D01*
X8081392Y-19872330D01*
X8071598Y-19893791D01*
X8059475Y-19914023D01*
X8041044Y-19960741D01*
X8041037Y-19960757D01*
X8041035Y-19960766D01*
X7813163Y-20648574D01*
X7808207Y-20671633D01*
X7800710Y-20693999D01*
X7792738Y-20743602D01*
X7717877Y-21464308D01*
X7718334Y-21561506D01*
X7720001Y-21568921D01*
X7720000Y-33434598D01*
X7717443Y-33447088D01*
X7715542Y-33497292D01*
X1475000Y-33497292D01*
X1475000Y-14617094D01*
X11575000Y-14617094D01*
X11575000Y-15382906D01*
X11868064Y-16090425D01*
X12409575Y-16631936D01*
X13117094Y-16925000D01*
X13882906Y-16925000D01*
X14590425Y-16631936D01*
X15131936Y-16090425D01*
X15319982Y-15636441D01*
X48515000Y-15636441D01*
X48515000Y-16163559D01*
X48716719Y-16650552D01*
X49089448Y-17023281D01*
X49576441Y-17225000D01*
X50103559Y-17225000D01*
X50590552Y-17023281D01*
X50963281Y-16650552D01*
X51110000Y-16296341D01*
X51256719Y-16650552D01*
X51629448Y-17023281D01*
X52116441Y-17225000D01*
X52643559Y-17225000D01*
X53130552Y-17023281D01*
X53503281Y-16650552D01*
X53650000Y-16296341D01*
X53796719Y-16650552D01*
X54169448Y-17023281D01*
X54656441Y-17225000D01*
X55183559Y-17225000D01*
X55670552Y-17023281D01*
X56043281Y-16650552D01*
X56190000Y-16296341D01*
X56336719Y-16650552D01*
X56709448Y-17023281D01*
X57196441Y-17225000D01*
X57723559Y-17225000D01*
X58210552Y-17023281D01*
X58583281Y-16650552D01*
X58730000Y-16296341D01*
X58876719Y-16650552D01*
X59249448Y-17023281D01*
X59736441Y-17225000D01*
X60263559Y-17225000D01*
X60750552Y-17023281D01*
X61123281Y-16650552D01*
X61325000Y-16163559D01*
X61325000Y-15636441D01*
X61123281Y-15149448D01*
X60750552Y-14776719D01*
X60263559Y-14575000D01*
X59736441Y-14575000D01*
X59249448Y-14776719D01*
X58876719Y-15149448D01*
X58730000Y-15503659D01*
X58583281Y-15149448D01*
X58210552Y-14776719D01*
X57723559Y-14575000D01*
X57196441Y-14575000D01*
X56709448Y-14776719D01*
X56336719Y-15149448D01*
X56190000Y-15503659D01*
X56043281Y-15149448D01*
X55670552Y-14776719D01*
X55183559Y-14575000D01*
X54656441Y-14575000D01*
X54169448Y-14776719D01*
X53796719Y-15149448D01*
X53650000Y-15503659D01*
X53503281Y-15149448D01*
X53130552Y-14776719D01*
X52643559Y-14575000D01*
X52116441Y-14575000D01*
X51629448Y-14776719D01*
X51256719Y-15149448D01*
X51110000Y-15503659D01*
X50963281Y-15149448D01*
X50590552Y-14776719D01*
X50103559Y-14575000D01*
X49576441Y-14575000D01*
X49089448Y-14776719D01*
X48716719Y-15149448D01*
X48515000Y-15636441D01*
X15319982Y-15636441D01*
X15425000Y-15382906D01*
X15425000Y-14617094D01*
X15131936Y-13909575D01*
X14590425Y-13368064D01*
X13884357Y-13075601D01*
X85850000Y-13075601D01*
X85850000Y-15124399D01*
X86634041Y-17017240D01*
X88082760Y-18465959D01*
X89975601Y-19250000D01*
X92024399Y-19250000D01*
X93917240Y-18465959D01*
X95365959Y-17017240D01*
X96150000Y-15124399D01*
X96150000Y-13075601D01*
X95365959Y-11182760D01*
X93917240Y-9734041D01*
X92024399Y-8950000D01*
X89975601Y-8950000D01*
X88082760Y-9734041D01*
X86634041Y-11182760D01*
X85850000Y-13075601D01*
X13884357Y-13075601D01*
X13882906Y-13075000D01*
X13117094Y-13075000D01*
X12409575Y-13368064D01*
X11868064Y-13909575D01*
X11575000Y-14617094D01*
X1475000Y-14617094D01*
X1475000Y-10563856D01*
X1483085Y-10534332D01*
X1475000Y-10470196D01*
X1475000Y-10453221D01*
X1469158Y-10423851D01*
X1459451Y-10346849D01*
X1450834Y-10331733D01*
X1447439Y-10314665D01*
X1404311Y-10250120D01*
X1365869Y-10182682D01*
X1352122Y-10172013D01*
X1342455Y-10157545D01*
X1277914Y-10114420D01*
X1254266Y-10096067D01*
X1239091Y-10088479D01*
X1185335Y-10052561D01*
X1155309Y-10046588D01*
X475000Y-9706434D01*
X475000Y-7459242D01*
X35100000Y-7459242D01*
X35100000Y-9010758D01*
X35693739Y-10444173D01*
X36790827Y-11541261D01*
X38224242Y-12135000D01*
X39775758Y-12135000D01*
X41209173Y-11541261D01*
X42306261Y-10444173D01*
X42900000Y-9010758D01*
X42900000Y-7459242D01*
X67100000Y-7459242D01*
X67100000Y-9010758D01*
X67693739Y-10444173D01*
X68790827Y-11541261D01*
X70224242Y-12135000D01*
X71775758Y-12135000D01*
X73209173Y-11541261D01*
X74306261Y-10444173D01*
X74900000Y-9010758D01*
X74900000Y-7459242D01*
X74306261Y-6025827D01*
X73209173Y-4928739D01*
X71775758Y-4335000D01*
X70224242Y-4335000D01*
X68790827Y-4928739D01*
X67693739Y-6025827D01*
X67100000Y-7459242D01*
X42900000Y-7459242D01*
X42306261Y-6025827D01*
X41209173Y-4928739D01*
X39775758Y-4335000D01*
X38224242Y-4335000D01*
X36790827Y-4928739D01*
X35693739Y-6025827D01*
X35100000Y-7459242D01*
X475000Y-7459242D01*
X475000Y-2033842D01*
X540949Y-1573342D01*
X719342Y-1180986D01*
X1000688Y-854468D01*
X1362368Y-620039D01*
X1791043Y-491838D01*
X2017626Y-475000D01*
X103966158Y-475000D01*
X104426658Y-540949D01*
X104426658Y-540949D01*
G37*
X104426658Y-540949D02*
X104819014Y-719342D01*
X105145532Y-1000688D01*
X105379961Y-1362368D01*
X105508162Y-1791043D01*
X105525000Y-2017627D01*
X105525001Y-9706433D01*
X104844694Y-10046588D01*
X104814665Y-10052561D01*
X104760903Y-10088483D01*
X104745734Y-10096068D01*
X104722095Y-10114414D01*
X104657545Y-10157545D01*
X104647876Y-10172015D01*
X104634131Y-10182683D01*
X104595690Y-10250118D01*
X104552561Y-10314666D01*
X104549166Y-10331734D01*
X104540549Y-10346850D01*
X104530842Y-10423853D01*
X104525000Y-10453222D01*
X104525000Y-10470196D01*
X104516915Y-10534332D01*
X104525000Y-10563856D01*
X104525001Y-44436141D01*
X104516915Y-44465668D01*
X104525001Y-44529812D01*
X104525001Y-44546779D01*
X104530841Y-44576136D01*
X104540549Y-44653150D01*
X104549167Y-44668269D01*
X104552562Y-44685335D01*
X104595687Y-44749876D01*
X104634131Y-44817317D01*
X104647878Y-44827986D01*
X104657546Y-44842455D01*
X104722089Y-44885581D01*
X104745734Y-44903932D01*
X104760907Y-44911519D01*
X104814666Y-44947439D01*
X104844694Y-44953412D01*
X105525000Y-45293566D01*
X105525001Y-52966151D01*
X105459052Y-53426656D01*
X105280658Y-53819015D01*
X104999312Y-54145532D01*
X104637631Y-54379962D01*
X104208957Y-54508162D01*
X103982374Y-54525000D01*
X2033842Y-54525000D01*
X1573344Y-54459052D01*
X1180985Y-54280658D01*
X854468Y-53999312D01*
X620038Y-53637631D01*
X491838Y-53208957D01*
X475000Y-52982374D01*
X475000Y-49236441D01*
X41675000Y-49236441D01*
X41675000Y-49763559D01*
X41876719Y-50250552D01*
X42249448Y-50623281D01*
X42736441Y-50825000D01*
X43263559Y-50825000D01*
X43750552Y-50623281D01*
X44123281Y-50250552D01*
X44270000Y-49896341D01*
X44416719Y-50250552D01*
X44789448Y-50623281D01*
X45276441Y-50825000D01*
X45803559Y-50825000D01*
X46290552Y-50623281D01*
X46663281Y-50250552D01*
X46810000Y-49896341D01*
X46956719Y-50250552D01*
X47329448Y-50623281D01*
X47816441Y-50825000D01*
X48343559Y-50825000D01*
X48830552Y-50623281D01*
X49203281Y-50250552D01*
X49350000Y-49896341D01*
X49496719Y-50250552D01*
X49869448Y-50623281D01*
X50356441Y-50825000D01*
X50883559Y-50825000D01*
X51370552Y-50623281D01*
X51743281Y-50250552D01*
X51890000Y-49896341D01*
X52036719Y-50250552D01*
X52409448Y-50623281D01*
X52896441Y-50825000D01*
X53423559Y-50825000D01*
X53910552Y-50623281D01*
X54283281Y-50250552D01*
X54430000Y-49896341D01*
X54576719Y-50250552D01*
X54949448Y-50623281D01*
X55436441Y-50825000D01*
X55963559Y-50825000D01*
X56450552Y-50623281D01*
X56823281Y-50250552D01*
X56970000Y-49896341D01*
X57116719Y-50250552D01*
X57489448Y-50623281D01*
X57976441Y-50825000D01*
X58503559Y-50825000D01*
X58990552Y-50623281D01*
X59363281Y-50250552D01*
X59510000Y-49896341D01*
X59656719Y-50250552D01*
X60029448Y-50623281D01*
X60516441Y-50825000D01*
X61043559Y-50825000D01*
X61530552Y-50623281D01*
X61582953Y-50570880D01*
X62673384Y-50570880D01*
X62788459Y-50741994D01*
X63304210Y-50850865D01*
X63822365Y-50754079D01*
X63851541Y-50741994D01*
X63966616Y-50570880D01*
X63320000Y-49924264D01*
X62673384Y-50570880D01*
X61582953Y-50570880D01*
X61903281Y-50250552D01*
X62047324Y-49902802D01*
X62065921Y-50002365D01*
X62078006Y-50031541D01*
X62249120Y-50146616D01*
X62895736Y-49500000D01*
X63744264Y-49500000D01*
X64390880Y-50146616D01*
X64561994Y-50031541D01*
X64670865Y-49515790D01*
X64574079Y-48997635D01*
X64561994Y-48968459D01*
X64390880Y-48853384D01*
X63744264Y-49500000D01*
X62895736Y-49500000D01*
X62249120Y-48853384D01*
X62078006Y-48968459D01*
X62049646Y-49102806D01*
X61903281Y-48749448D01*
X61582953Y-48429120D01*
X62673384Y-48429120D01*
X63320000Y-49075736D01*
X63966616Y-48429120D01*
X63851541Y-48258006D01*
X63335790Y-48149135D01*
X62817635Y-48245921D01*
X62788459Y-48258006D01*
X62673384Y-48429120D01*
X61582953Y-48429120D01*
X61530552Y-48376719D01*
X61043559Y-48175000D01*
X60516441Y-48175000D01*
X60029448Y-48376719D01*
X59656719Y-48749448D01*
X59510000Y-49103659D01*
X59363281Y-48749448D01*
X58990552Y-48376719D01*
X58503559Y-48175000D01*
X57976441Y-48175000D01*
X57489448Y-48376719D01*
X57116719Y-48749448D01*
X56970000Y-49103659D01*
X56823281Y-48749448D01*
X56450552Y-48376719D01*
X55963559Y-48175000D01*
X55436441Y-48175000D01*
X54949448Y-48376719D01*
X54576719Y-48749448D01*
X54430000Y-49103659D01*
X54283281Y-48749448D01*
X53910552Y-48376719D01*
X53423559Y-48175000D01*
X52896441Y-48175000D01*
X52409448Y-48376719D01*
X52036719Y-48749448D01*
X51890000Y-49103659D01*
X51743281Y-48749448D01*
X51370552Y-48376719D01*
X50883559Y-48175000D01*
X50356441Y-48175000D01*
X49869448Y-48376719D01*
X49496719Y-48749448D01*
X49350000Y-49103659D01*
X49203281Y-48749448D01*
X48830552Y-48376719D01*
X48343559Y-48175000D01*
X47816441Y-48175000D01*
X47329448Y-48376719D01*
X46956719Y-48749448D01*
X46810000Y-49103659D01*
X46663281Y-48749448D01*
X46290552Y-48376719D01*
X45803559Y-48175000D01*
X45276441Y-48175000D01*
X44789448Y-48376719D01*
X44416719Y-48749448D01*
X44270000Y-49103659D01*
X44123281Y-48749448D01*
X43750552Y-48376719D01*
X43263559Y-48175000D01*
X42736441Y-48175000D01*
X42249448Y-48376719D01*
X41876719Y-48749448D01*
X41675000Y-49236441D01*
X475000Y-49236441D01*
X475000Y-46694320D01*
X26200000Y-46694320D01*
X26226109Y-46825580D01*
X26273787Y-46896936D01*
X26292017Y-46925222D01*
X26295724Y-46929767D01*
X26325568Y-46974432D01*
X26332341Y-46978958D01*
X26785693Y-47528355D01*
X26819504Y-47561087D01*
X26852826Y-47594259D01*
X26857772Y-47598134D01*
X27432968Y-48042234D01*
X27473184Y-48066658D01*
X27513034Y-48091628D01*
X27518715Y-48094310D01*
X28178007Y-48399940D01*
X28222646Y-48414851D01*
X28267026Y-48430368D01*
X28273161Y-48431725D01*
X28983781Y-48583695D01*
X29030563Y-48588340D01*
X29077329Y-48593645D01*
X29083612Y-48593609D01*
X29810242Y-48584366D01*
X29856930Y-48578526D01*
X29903669Y-48573343D01*
X29909788Y-48571916D01*
X30616313Y-48401919D01*
X30660544Y-48385882D01*
X30704977Y-48370471D01*
X30710627Y-48367723D01*
X31361931Y-48045421D01*
X31401522Y-48019976D01*
X31441424Y-47995111D01*
X31446321Y-47991183D01*
X31446326Y-47991180D01*
X31446330Y-47991176D01*
X32010040Y-47532592D01*
X32043007Y-47499011D01*
X32076411Y-47465921D01*
X32080320Y-47461002D01*
X32528425Y-46888920D01*
X32553127Y-46848879D01*
X32578377Y-46809201D01*
X32581099Y-46803538D01*
X32891324Y-46146396D01*
X32906438Y-46102175D01*
X71000000Y-46102175D01*
X71000000Y-46897825D01*
X71304482Y-47632909D01*
X71867091Y-48195518D01*
X72602175Y-48500000D01*
X73397825Y-48500000D01*
X74132909Y-48195518D01*
X74695518Y-47632909D01*
X75000000Y-46897825D01*
X75000000Y-46261305D01*
X77800000Y-46261305D01*
X77800000Y-46738695D01*
X77982689Y-47179745D01*
X78320255Y-47517311D01*
X78761305Y-47700000D01*
X79238695Y-47700000D01*
X79679745Y-47517311D01*
X80017311Y-47179745D01*
X80200000Y-46738695D01*
X80200000Y-46261305D01*
X81800000Y-46261305D01*
X81800000Y-46738695D01*
X81982689Y-47179745D01*
X82320255Y-47517311D01*
X82761305Y-47700000D01*
X83238695Y-47700000D01*
X83679745Y-47517311D01*
X84017311Y-47179745D01*
X84200000Y-46738695D01*
X84200000Y-46261305D01*
X85800000Y-46261305D01*
X85800000Y-46738695D01*
X85982689Y-47179745D01*
X86320255Y-47517311D01*
X86761305Y-47700000D01*
X87238695Y-47700000D01*
X87679745Y-47517311D01*
X88017311Y-47179745D01*
X88200000Y-46738695D01*
X88200000Y-46261305D01*
X89800000Y-46261305D01*
X89800000Y-46738695D01*
X89982689Y-47179745D01*
X90320255Y-47517311D01*
X90761305Y-47700000D01*
X91238695Y-47700000D01*
X91679745Y-47517311D01*
X92017311Y-47179745D01*
X92200000Y-46738695D01*
X92200000Y-46261305D01*
X92134087Y-46102175D01*
X95000000Y-46102175D01*
X95000000Y-46897825D01*
X95304482Y-47632909D01*
X95867091Y-48195518D01*
X96602175Y-48500000D01*
X97397825Y-48500000D01*
X98132909Y-48195518D01*
X98695518Y-47632909D01*
X99000000Y-46897825D01*
X99000000Y-46102175D01*
X98695518Y-45367091D01*
X98132909Y-44804482D01*
X97397825Y-44500000D01*
X96602175Y-44500000D01*
X95867091Y-44804482D01*
X95304482Y-45367091D01*
X95000000Y-46102175D01*
X92134087Y-46102175D01*
X92017311Y-45820255D01*
X91679745Y-45482689D01*
X91238695Y-45300000D01*
X90761305Y-45300000D01*
X90320255Y-45482689D01*
X89982689Y-45820255D01*
X89800000Y-46261305D01*
X88200000Y-46261305D01*
X88017311Y-45820255D01*
X87679745Y-45482689D01*
X87238695Y-45300000D01*
X86761305Y-45300000D01*
X86320255Y-45482689D01*
X85982689Y-45820255D01*
X85800000Y-46261305D01*
X84200000Y-46261305D01*
X84017311Y-45820255D01*
X83679745Y-45482689D01*
X83238695Y-45300000D01*
X82761305Y-45300000D01*
X82320255Y-45482689D01*
X81982689Y-45820255D01*
X81800000Y-46261305D01*
X80200000Y-46261305D01*
X80017311Y-45820255D01*
X79679745Y-45482689D01*
X79238695Y-45300000D01*
X78761305Y-45300000D01*
X78320255Y-45482689D01*
X77982689Y-45820255D01*
X77800000Y-46261305D01*
X75000000Y-46261305D01*
X75000000Y-46102175D01*
X74695518Y-45367091D01*
X74132909Y-44804482D01*
X73397825Y-44500000D01*
X72602175Y-44500000D01*
X71867091Y-44804482D01*
X71304482Y-45367091D01*
X71000000Y-46102175D01*
X32906438Y-46102175D01*
X32906543Y-46101870D01*
X32922372Y-46057593D01*
X32923772Y-46051467D01*
X33080700Y-45341925D01*
X33085677Y-45295130D01*
X33091303Y-45248448D01*
X33091311Y-45242165D01*
X33087140Y-44515489D01*
X33081622Y-44468718D01*
X33076769Y-44421987D01*
X33075385Y-44415858D01*
X33039338Y-44261305D01*
X75800000Y-44261305D01*
X75800000Y-44738695D01*
X75982689Y-45179745D01*
X76320255Y-45517311D01*
X76761305Y-45700000D01*
X77238695Y-45700000D01*
X77679745Y-45517311D01*
X78017311Y-45179745D01*
X78200000Y-44738695D01*
X78200000Y-44261305D01*
X79800000Y-44261305D01*
X79800000Y-44738695D01*
X79982689Y-45179745D01*
X80320255Y-45517311D01*
X80761305Y-45700000D01*
X81238695Y-45700000D01*
X81679745Y-45517311D01*
X82017311Y-45179745D01*
X82200000Y-44738695D01*
X82200000Y-44261305D01*
X83800000Y-44261305D01*
X83800000Y-44738695D01*
X83982689Y-45179745D01*
X84320255Y-45517311D01*
X84761305Y-45700000D01*
X85238695Y-45700000D01*
X85679745Y-45517311D01*
X86017311Y-45179745D01*
X86200000Y-44738695D01*
X86200000Y-44261305D01*
X87800000Y-44261305D01*
X87800000Y-44738695D01*
X87982689Y-45179745D01*
X88320255Y-45517311D01*
X88761305Y-45700000D01*
X89238695Y-45700000D01*
X89679745Y-45517311D01*
X90017311Y-45179745D01*
X90200000Y-44738695D01*
X90200000Y-44261305D01*
X91800000Y-44261305D01*
X91800000Y-44738695D01*
X91982689Y-45179745D01*
X92320255Y-45517311D01*
X92761305Y-45700000D01*
X93238695Y-45700000D01*
X93679745Y-45517311D01*
X94017311Y-45179745D01*
X94200000Y-44738695D01*
X94200000Y-44261305D01*
X94017311Y-43820255D01*
X93679745Y-43482689D01*
X93238695Y-43300000D01*
X92761305Y-43300000D01*
X92320255Y-43482689D01*
X91982689Y-43820255D01*
X91800000Y-44261305D01*
X90200000Y-44261305D01*
X90017311Y-43820255D01*
X89679745Y-43482689D01*
X89238695Y-43300000D01*
X88761305Y-43300000D01*
X88320255Y-43482689D01*
X87982689Y-43820255D01*
X87800000Y-44261305D01*
X86200000Y-44261305D01*
X86017311Y-43820255D01*
X85679745Y-43482689D01*
X85238695Y-43300000D01*
X84761305Y-43300000D01*
X84320255Y-43482689D01*
X83982689Y-43820255D01*
X83800000Y-44261305D01*
X82200000Y-44261305D01*
X82017311Y-43820255D01*
X81679745Y-43482689D01*
X81238695Y-43300000D01*
X80761305Y-43300000D01*
X80320255Y-43482689D01*
X79982689Y-43820255D01*
X79800000Y-44261305D01*
X78200000Y-44261305D01*
X78017311Y-43820255D01*
X77679745Y-43482689D01*
X77238695Y-43300000D01*
X76761305Y-43300000D01*
X76320255Y-43482689D01*
X75982689Y-43820255D01*
X75800000Y-44261305D01*
X33039338Y-44261305D01*
X32910324Y-43708164D01*
X32894587Y-43663796D01*
X32879496Y-43619284D01*
X32876788Y-43613614D01*
X32559041Y-42960076D01*
X32533868Y-42920301D01*
X32509287Y-42880233D01*
X32505391Y-42875304D01*
X32050749Y-42308403D01*
X32017388Y-42275191D01*
X32003824Y-42261305D01*
X73800000Y-42261305D01*
X73800000Y-42738695D01*
X73982689Y-43179745D01*
X74320255Y-43517311D01*
X74761305Y-43700000D01*
X75238695Y-43700000D01*
X75679745Y-43517311D01*
X76017311Y-43179745D01*
X76200000Y-42738695D01*
X76200000Y-42261305D01*
X77800000Y-42261305D01*
X77800000Y-42738695D01*
X77982689Y-43179745D01*
X78320255Y-43517311D01*
X78761305Y-43700000D01*
X79238695Y-43700000D01*
X79679745Y-43517311D01*
X80017311Y-43179745D01*
X80200000Y-42738695D01*
X80200000Y-42261305D01*
X81800000Y-42261305D01*
X81800000Y-42738695D01*
X81982689Y-43179745D01*
X82320255Y-43517311D01*
X82761305Y-43700000D01*
X83238695Y-43700000D01*
X83679745Y-43517311D01*
X84017311Y-43179745D01*
X84200000Y-42738695D01*
X84200000Y-42261305D01*
X85800000Y-42261305D01*
X85800000Y-42738695D01*
X85982689Y-43179745D01*
X86320255Y-43517311D01*
X86761305Y-43700000D01*
X87238695Y-43700000D01*
X87679745Y-43517311D01*
X88017311Y-43179745D01*
X88200000Y-42738695D01*
X88200000Y-42261305D01*
X89800000Y-42261305D01*
X89800000Y-42738695D01*
X89982689Y-43179745D01*
X90320255Y-43517311D01*
X90761305Y-43700000D01*
X91238695Y-43700000D01*
X91679745Y-43517311D01*
X92017311Y-43179745D01*
X92200000Y-42738695D01*
X92200000Y-42261305D01*
X93800000Y-42261305D01*
X93800000Y-42738695D01*
X93982689Y-43179745D01*
X94320255Y-43517311D01*
X94761305Y-43700000D01*
X95238695Y-43700000D01*
X95679745Y-43517311D01*
X96017311Y-43179745D01*
X96200000Y-42738695D01*
X96200000Y-42261305D01*
X96017311Y-41820255D01*
X95679745Y-41482689D01*
X95238695Y-41300000D01*
X94761305Y-41300000D01*
X94320255Y-41482689D01*
X93982689Y-41820255D01*
X93800000Y-42261305D01*
X92200000Y-42261305D01*
X92017311Y-41820255D01*
X91679745Y-41482689D01*
X91238695Y-41300000D01*
X90761305Y-41300000D01*
X90320255Y-41482689D01*
X89982689Y-41820255D01*
X89800000Y-42261305D01*
X88200000Y-42261305D01*
X88017311Y-41820255D01*
X87679745Y-41482689D01*
X87238695Y-41300000D01*
X86761305Y-41300000D01*
X86320255Y-41482689D01*
X85982689Y-41820255D01*
X85800000Y-42261305D01*
X84200000Y-42261305D01*
X84017311Y-41820255D01*
X83679745Y-41482689D01*
X83238695Y-41300000D01*
X82761305Y-41300000D01*
X82320255Y-41482689D01*
X81982689Y-41820255D01*
X81800000Y-42261305D01*
X80200000Y-42261305D01*
X80017311Y-41820255D01*
X79679745Y-41482689D01*
X79238695Y-41300000D01*
X78761305Y-41300000D01*
X78320255Y-41482689D01*
X77982689Y-41820255D01*
X77800000Y-42261305D01*
X76200000Y-42261305D01*
X76017311Y-41820255D01*
X75679745Y-41482689D01*
X75238695Y-41300000D01*
X74761305Y-41300000D01*
X74320255Y-41482689D01*
X73982689Y-41820255D01*
X73800000Y-42261305D01*
X32003824Y-42261305D01*
X31984543Y-42241568D01*
X31979652Y-42237625D01*
X31410713Y-41785537D01*
X31370831Y-41760547D01*
X31331345Y-41735030D01*
X31325701Y-41732268D01*
X30670740Y-41417462D01*
X30626315Y-41401930D01*
X30582154Y-41385794D01*
X30576039Y-41384352D01*
X29867610Y-41222475D01*
X29820880Y-41217175D01*
X29774211Y-41211220D01*
X29767928Y-41211168D01*
X29041240Y-41210265D01*
X28994451Y-41215454D01*
X28947668Y-41219983D01*
X28941529Y-41221324D01*
X28232701Y-41381440D01*
X28188243Y-41396860D01*
X28143606Y-41411647D01*
X28137918Y-41414315D01*
X27482176Y-41727493D01*
X27442217Y-41752393D01*
X27401990Y-41776687D01*
X27397036Y-41780548D01*
X27397032Y-41780550D01*
X27397029Y-41780553D01*
X26826972Y-42231222D01*
X26793550Y-42264329D01*
X26759676Y-42296960D01*
X26755699Y-42301824D01*
X26342812Y-42814047D01*
X26325569Y-42825568D01*
X26226110Y-42974419D01*
X26200001Y-43105679D01*
X26200000Y-46694320D01*
X475000Y-46694320D01*
X475000Y-45293566D01*
X1155309Y-44953411D01*
X1185334Y-44947439D01*
X1239088Y-44911522D01*
X1254266Y-44903933D01*
X1277916Y-44885578D01*
X1342455Y-44842455D01*
X1352122Y-44827987D01*
X1365869Y-44817318D01*
X1404311Y-44749880D01*
X1447439Y-44685335D01*
X1450834Y-44668267D01*
X1459451Y-44653151D01*
X1469158Y-44576149D01*
X1475000Y-44546779D01*
X1475000Y-44529804D01*
X1483085Y-44465668D01*
X1475000Y-44436144D01*
X1475000Y-39617094D01*
X11575000Y-39617094D01*
X11575000Y-40382906D01*
X11868064Y-41090425D01*
X12409575Y-41631936D01*
X13117094Y-41925000D01*
X13882906Y-41925000D01*
X14590425Y-41631936D01*
X15131936Y-41090425D01*
X15425000Y-40382906D01*
X15425000Y-40261305D01*
X71800000Y-40261305D01*
X71800000Y-40738695D01*
X71982689Y-41179745D01*
X72320255Y-41517311D01*
X72761305Y-41700000D01*
X73238695Y-41700000D01*
X73679745Y-41517311D01*
X74017311Y-41179745D01*
X74200000Y-40738695D01*
X74200000Y-40261305D01*
X75800000Y-40261305D01*
X75800000Y-40738695D01*
X75982689Y-41179745D01*
X76320255Y-41517311D01*
X76761305Y-41700000D01*
X77238695Y-41700000D01*
X77679745Y-41517311D01*
X78017311Y-41179745D01*
X78200000Y-40738695D01*
X78200000Y-40261305D01*
X79800000Y-40261305D01*
X79800000Y-40738695D01*
X79982689Y-41179745D01*
X80320255Y-41517311D01*
X80761305Y-41700000D01*
X81238695Y-41700000D01*
X81679745Y-41517311D01*
X82017311Y-41179745D01*
X82200000Y-40738695D01*
X82200000Y-40261305D01*
X83800000Y-40261305D01*
X83800000Y-40738695D01*
X83982689Y-41179745D01*
X84320255Y-41517311D01*
X84761305Y-41700000D01*
X85238695Y-41700000D01*
X85679745Y-41517311D01*
X86017311Y-41179745D01*
X86200000Y-40738695D01*
X86200000Y-40261305D01*
X87800000Y-40261305D01*
X87800000Y-40738695D01*
X87982689Y-41179745D01*
X88320255Y-41517311D01*
X88761305Y-41700000D01*
X89238695Y-41700000D01*
X89679745Y-41517311D01*
X90017311Y-41179745D01*
X90200000Y-40738695D01*
X90200000Y-40261305D01*
X91800000Y-40261305D01*
X91800000Y-40738695D01*
X91982689Y-41179745D01*
X92320255Y-41517311D01*
X92761305Y-41700000D01*
X93238695Y-41700000D01*
X93679745Y-41517311D01*
X94017311Y-41179745D01*
X94200000Y-40738695D01*
X94200000Y-40261305D01*
X95800000Y-40261305D01*
X95800000Y-40738695D01*
X95982689Y-41179745D01*
X96320255Y-41517311D01*
X96761305Y-41700000D01*
X97238695Y-41700000D01*
X97679745Y-41517311D01*
X98017311Y-41179745D01*
X98200000Y-40738695D01*
X98200000Y-40261305D01*
X98017311Y-39820255D01*
X97679745Y-39482689D01*
X97238695Y-39300000D01*
X96761305Y-39300000D01*
X96320255Y-39482689D01*
X95982689Y-39820255D01*
X95800000Y-40261305D01*
X94200000Y-40261305D01*
X94017311Y-39820255D01*
X93679745Y-39482689D01*
X93238695Y-39300000D01*
X92761305Y-39300000D01*
X92320255Y-39482689D01*
X91982689Y-39820255D01*
X91800000Y-40261305D01*
X90200000Y-40261305D01*
X90017311Y-39820255D01*
X89679745Y-39482689D01*
X89238695Y-39300000D01*
X88761305Y-39300000D01*
X88320255Y-39482689D01*
X87982689Y-39820255D01*
X87800000Y-40261305D01*
X86200000Y-40261305D01*
X86017311Y-39820255D01*
X85679745Y-39482689D01*
X85238695Y-39300000D01*
X84761305Y-39300000D01*
X84320255Y-39482689D01*
X83982689Y-39820255D01*
X83800000Y-40261305D01*
X82200000Y-40261305D01*
X82017311Y-39820255D01*
X81679745Y-39482689D01*
X81238695Y-39300000D01*
X80761305Y-39300000D01*
X80320255Y-39482689D01*
X79982689Y-39820255D01*
X79800000Y-40261305D01*
X78200000Y-40261305D01*
X78017311Y-39820255D01*
X77679745Y-39482689D01*
X77238695Y-39300000D01*
X76761305Y-39300000D01*
X76320255Y-39482689D01*
X75982689Y-39820255D01*
X75800000Y-40261305D01*
X74200000Y-40261305D01*
X74017311Y-39820255D01*
X73679745Y-39482689D01*
X73238695Y-39300000D01*
X72761305Y-39300000D01*
X72320255Y-39482689D01*
X71982689Y-39820255D01*
X71800000Y-40261305D01*
X15425000Y-40261305D01*
X15425000Y-39617094D01*
X15131936Y-38909575D01*
X14590425Y-38368064D01*
X14332687Y-38261305D01*
X73800000Y-38261305D01*
X73800000Y-38738695D01*
X73982689Y-39179745D01*
X74320255Y-39517311D01*
X74761305Y-39700000D01*
X75238695Y-39700000D01*
X75679745Y-39517311D01*
X76017311Y-39179745D01*
X76200000Y-38738695D01*
X76200000Y-38261305D01*
X77800000Y-38261305D01*
X77800000Y-38738695D01*
X77982689Y-39179745D01*
X78320255Y-39517311D01*
X78761305Y-39700000D01*
X79238695Y-39700000D01*
X79679745Y-39517311D01*
X80017311Y-39179745D01*
X80200000Y-38738695D01*
X80200000Y-38261305D01*
X81800000Y-38261305D01*
X81800000Y-38738695D01*
X81982689Y-39179745D01*
X82320255Y-39517311D01*
X82761305Y-39700000D01*
X83238695Y-39700000D01*
X83679745Y-39517311D01*
X84017311Y-39179745D01*
X84200000Y-38738695D01*
X84200000Y-38261305D01*
X85800000Y-38261305D01*
X85800000Y-38738695D01*
X85982689Y-39179745D01*
X86320255Y-39517311D01*
X86761305Y-39700000D01*
X87238695Y-39700000D01*
X87679745Y-39517311D01*
X88017311Y-39179745D01*
X88200000Y-38738695D01*
X88200000Y-38261305D01*
X89800000Y-38261305D01*
X89800000Y-38738695D01*
X89982689Y-39179745D01*
X90320255Y-39517311D01*
X90761305Y-39700000D01*
X91238695Y-39700000D01*
X91679745Y-39517311D01*
X92017311Y-39179745D01*
X92200000Y-38738695D01*
X92200000Y-38261305D01*
X93800000Y-38261305D01*
X93800000Y-38738695D01*
X93982689Y-39179745D01*
X94320255Y-39517311D01*
X94761305Y-39700000D01*
X95238695Y-39700000D01*
X95679745Y-39517311D01*
X96017311Y-39179745D01*
X96200000Y-38738695D01*
X96200000Y-38261305D01*
X96017311Y-37820255D01*
X95679745Y-37482689D01*
X95238695Y-37300000D01*
X94761305Y-37300000D01*
X94320255Y-37482689D01*
X93982689Y-37820255D01*
X93800000Y-38261305D01*
X92200000Y-38261305D01*
X92017311Y-37820255D01*
X91679745Y-37482689D01*
X91238695Y-37300000D01*
X90761305Y-37300000D01*
X90320255Y-37482689D01*
X89982689Y-37820255D01*
X89800000Y-38261305D01*
X88200000Y-38261305D01*
X88017311Y-37820255D01*
X87679745Y-37482689D01*
X87238695Y-37300000D01*
X86761305Y-37300000D01*
X86320255Y-37482689D01*
X85982689Y-37820255D01*
X85800000Y-38261305D01*
X84200000Y-38261305D01*
X84017311Y-37820255D01*
X83679745Y-37482689D01*
X83238695Y-37300000D01*
X82761305Y-37300000D01*
X82320255Y-37482689D01*
X81982689Y-37820255D01*
X81800000Y-38261305D01*
X80200000Y-38261305D01*
X80017311Y-37820255D01*
X79679745Y-37482689D01*
X79238695Y-37300000D01*
X78761305Y-37300000D01*
X78320255Y-37482689D01*
X77982689Y-37820255D01*
X77800000Y-38261305D01*
X76200000Y-38261305D01*
X76017311Y-37820255D01*
X75679745Y-37482689D01*
X75238695Y-37300000D01*
X74761305Y-37300000D01*
X74320255Y-37482689D01*
X73982689Y-37820255D01*
X73800000Y-38261305D01*
X14332687Y-38261305D01*
X13882906Y-38075000D01*
X13117094Y-38075000D01*
X12409575Y-38368064D01*
X11868064Y-38909575D01*
X11575000Y-39617094D01*
X1475000Y-39617094D01*
X1475000Y-33497292D01*
X7715542Y-33497292D01*
X7718279Y-33649480D01*
X7718825Y-33653784D01*
X7718517Y-33658114D01*
X7723184Y-33708136D01*
X7830661Y-34424703D01*
X7836657Y-34447510D01*
X7840075Y-34470855D01*
X7855375Y-34518708D01*
X8114217Y-35195480D01*
X8124974Y-35216474D01*
X8133323Y-35238534D01*
X8158533Y-35281970D01*
X8158541Y-35281985D01*
X8158546Y-35281991D01*
X8556673Y-35887388D01*
X8571687Y-35905582D01*
X8584578Y-35925334D01*
X8618531Y-35962347D01*
X8618539Y-35962357D01*
X8618544Y-35962361D01*
X9137383Y-36468142D01*
X9155952Y-36482686D01*
X9172785Y-36499211D01*
X9213892Y-36528068D01*
X9213904Y-36528078D01*
X9213911Y-36528081D01*
X9829255Y-36910651D01*
X9850513Y-36920868D01*
X9870504Y-36933394D01*
X9916862Y-36952757D01*
X10584729Y-37188866D01*
X10610476Y-37200113D01*
X14560103Y-38064708D01*
X14591098Y-38078314D01*
X14639781Y-38090722D01*
X14857764Y-38133488D01*
X14864442Y-38134061D01*
X14870901Y-38135864D01*
X14920846Y-38141289D01*
X15643451Y-38179160D01*
X15666997Y-38177844D01*
X15690553Y-38179161D01*
X15740481Y-38173736D01*
X15740498Y-38173735D01*
X15740505Y-38173733D01*
X16454377Y-38055553D01*
X16477099Y-38049209D01*
X16500382Y-38045438D01*
X16547984Y-38029417D01*
X16547996Y-38029414D01*
X16548001Y-38029412D01*
X17219846Y-37760692D01*
X17240667Y-37749621D01*
X17262604Y-37740936D01*
X17305659Y-37715065D01*
X17305668Y-37715060D01*
X17305672Y-37715057D01*
X17904140Y-37308339D01*
X17922105Y-37293050D01*
X17941658Y-37279861D01*
X17978150Y-37245352D01*
X17978161Y-37245343D01*
X17978165Y-37245338D01*
X18455216Y-36740870D01*
X31700000Y-36740870D01*
X31700000Y-37059130D01*
X31821793Y-37353164D01*
X32046836Y-37578207D01*
X32340870Y-37700000D01*
X32659130Y-37700000D01*
X32779841Y-37650000D01*
X39720159Y-37650000D01*
X39840870Y-37700000D01*
X40159130Y-37700000D01*
X40279841Y-37650000D01*
X47020159Y-37650000D01*
X47140870Y-37700000D01*
X47459130Y-37700000D01*
X47579841Y-37650000D01*
X54320159Y-37650000D01*
X54440870Y-37700000D01*
X54759130Y-37700000D01*
X54879841Y-37650000D01*
X61620159Y-37650000D01*
X61740870Y-37700000D01*
X62059130Y-37700000D01*
X62353164Y-37578207D01*
X62578207Y-37353164D01*
X62700000Y-37059130D01*
X62700000Y-36740870D01*
X62578207Y-36446836D01*
X62392676Y-36261305D01*
X71800000Y-36261305D01*
X71800000Y-36738695D01*
X71982689Y-37179745D01*
X72320255Y-37517311D01*
X72761305Y-37700000D01*
X73238695Y-37700000D01*
X73679745Y-37517311D01*
X74017311Y-37179745D01*
X74200000Y-36738695D01*
X74200000Y-36261305D01*
X75800000Y-36261305D01*
X75800000Y-36738695D01*
X75982689Y-37179745D01*
X76320255Y-37517311D01*
X76761305Y-37700000D01*
X77238695Y-37700000D01*
X77679745Y-37517311D01*
X78017311Y-37179745D01*
X78200000Y-36738695D01*
X78200000Y-36261305D01*
X79800000Y-36261305D01*
X79800000Y-36738695D01*
X79982689Y-37179745D01*
X80320255Y-37517311D01*
X80761305Y-37700000D01*
X81238695Y-37700000D01*
X81679745Y-37517311D01*
X82017311Y-37179745D01*
X82200000Y-36738695D01*
X82200000Y-36261305D01*
X83800000Y-36261305D01*
X83800000Y-36738695D01*
X83982689Y-37179745D01*
X84320255Y-37517311D01*
X84761305Y-37700000D01*
X85238695Y-37700000D01*
X85679745Y-37517311D01*
X86017311Y-37179745D01*
X86200000Y-36738695D01*
X86200000Y-36261305D01*
X87800000Y-36261305D01*
X87800000Y-36738695D01*
X87982689Y-37179745D01*
X88320255Y-37517311D01*
X88761305Y-37700000D01*
X89238695Y-37700000D01*
X89679745Y-37517311D01*
X90017311Y-37179745D01*
X90200000Y-36738695D01*
X90200000Y-36261305D01*
X91800000Y-36261305D01*
X91800000Y-36738695D01*
X91982689Y-37179745D01*
X92320255Y-37517311D01*
X92761305Y-37700000D01*
X93238695Y-37700000D01*
X93679745Y-37517311D01*
X94017311Y-37179745D01*
X94200000Y-36738695D01*
X94200000Y-36261305D01*
X95800000Y-36261305D01*
X95800000Y-36738695D01*
X95982689Y-37179745D01*
X96320255Y-37517311D01*
X96761305Y-37700000D01*
X97238695Y-37700000D01*
X97679745Y-37517311D01*
X98017311Y-37179745D01*
X98200000Y-36738695D01*
X98200000Y-36261305D01*
X98017311Y-35820255D01*
X97679745Y-35482689D01*
X97238695Y-35300000D01*
X96761305Y-35300000D01*
X96320255Y-35482689D01*
X95982689Y-35820255D01*
X95800000Y-36261305D01*
X94200000Y-36261305D01*
X94017311Y-35820255D01*
X93679745Y-35482689D01*
X93238695Y-35300000D01*
X92761305Y-35300000D01*
X92320255Y-35482689D01*
X91982689Y-35820255D01*
X91800000Y-36261305D01*
X90200000Y-36261305D01*
X90017311Y-35820255D01*
X89679745Y-35482689D01*
X89238695Y-35300000D01*
X88761305Y-35300000D01*
X88320255Y-35482689D01*
X87982689Y-35820255D01*
X87800000Y-36261305D01*
X86200000Y-36261305D01*
X86017311Y-35820255D01*
X85679745Y-35482689D01*
X85238695Y-35300000D01*
X84761305Y-35300000D01*
X84320255Y-35482689D01*
X83982689Y-35820255D01*
X83800000Y-36261305D01*
X82200000Y-36261305D01*
X82017311Y-35820255D01*
X81679745Y-35482689D01*
X81238695Y-35300000D01*
X80761305Y-35300000D01*
X80320255Y-35482689D01*
X79982689Y-35820255D01*
X79800000Y-36261305D01*
X78200000Y-36261305D01*
X78017311Y-35820255D01*
X77679745Y-35482689D01*
X77238695Y-35300000D01*
X76761305Y-35300000D01*
X76320255Y-35482689D01*
X75982689Y-35820255D01*
X75800000Y-36261305D01*
X74200000Y-36261305D01*
X74017311Y-35820255D01*
X73679745Y-35482689D01*
X73238695Y-35300000D01*
X72761305Y-35300000D01*
X72320255Y-35482689D01*
X71982689Y-35820255D01*
X71800000Y-36261305D01*
X62392676Y-36261305D01*
X62353164Y-36221793D01*
X62059130Y-36100000D01*
X61740870Y-36100000D01*
X61620159Y-36150000D01*
X54879841Y-36150000D01*
X54759130Y-36100000D01*
X54440870Y-36100000D01*
X54320159Y-36150000D01*
X47579841Y-36150000D01*
X47459130Y-36100000D01*
X47140870Y-36100000D01*
X47020159Y-36150000D01*
X40279841Y-36150000D01*
X40159130Y-36100000D01*
X39840870Y-36100000D01*
X39720159Y-36150000D01*
X32779841Y-36150000D01*
X32659130Y-36100000D01*
X32340870Y-36100000D01*
X32046836Y-36221793D01*
X31821793Y-36446836D01*
X31700000Y-36740870D01*
X18455216Y-36740870D01*
X18475334Y-36719596D01*
X18489592Y-36700811D01*
X18505862Y-36683727D01*
X18534091Y-36642187D01*
X18534101Y-36642174D01*
X18534104Y-36642167D01*
X18906780Y-36021932D01*
X18916675Y-36000518D01*
X18928894Y-35980342D01*
X18947548Y-35933702D01*
X18947551Y-35933696D01*
X18947552Y-35933693D01*
X19178348Y-35247895D01*
X19183413Y-35224858D01*
X19191015Y-35202528D01*
X19199220Y-35152963D01*
X19275225Y-34453327D01*
X19280000Y-34429321D01*
X19280000Y-34261305D01*
X73800000Y-34261305D01*
X73800000Y-34738695D01*
X73982689Y-35179745D01*
X74320255Y-35517311D01*
X74761305Y-35700000D01*
X75238695Y-35700000D01*
X75679745Y-35517311D01*
X76017311Y-35179745D01*
X76200000Y-34738695D01*
X76200000Y-34261305D01*
X77800000Y-34261305D01*
X77800000Y-34738695D01*
X77982689Y-35179745D01*
X78320255Y-35517311D01*
X78761305Y-35700000D01*
X79238695Y-35700000D01*
X79679745Y-35517311D01*
X80017311Y-35179745D01*
X80200000Y-34738695D01*
X80200000Y-34261305D01*
X81800000Y-34261305D01*
X81800000Y-34738695D01*
X81982689Y-35179745D01*
X82320255Y-35517311D01*
X82761305Y-35700000D01*
X83238695Y-35700000D01*
X83679745Y-35517311D01*
X84017311Y-35179745D01*
X84200000Y-34738695D01*
X84200000Y-34261305D01*
X85800000Y-34261305D01*
X85800000Y-34738695D01*
X85982689Y-35179745D01*
X86320255Y-35517311D01*
X86761305Y-35700000D01*
X87238695Y-35700000D01*
X87679745Y-35517311D01*
X88017311Y-35179745D01*
X88200000Y-34738695D01*
X88200000Y-34261305D01*
X89800000Y-34261305D01*
X89800000Y-34738695D01*
X89982689Y-35179745D01*
X90320255Y-35517311D01*
X90761305Y-35700000D01*
X91238695Y-35700000D01*
X91679745Y-35517311D01*
X92017311Y-35179745D01*
X92200000Y-34738695D01*
X92200000Y-34261305D01*
X93800000Y-34261305D01*
X93800000Y-34738695D01*
X93982689Y-35179745D01*
X94320255Y-35517311D01*
X94761305Y-35700000D01*
X95238695Y-35700000D01*
X95679745Y-35517311D01*
X96017311Y-35179745D01*
X96200000Y-34738695D01*
X96200000Y-34261305D01*
X96017311Y-33820255D01*
X95679745Y-33482689D01*
X95238695Y-33300000D01*
X94761305Y-33300000D01*
X94320255Y-33482689D01*
X93982689Y-33820255D01*
X93800000Y-34261305D01*
X92200000Y-34261305D01*
X92017311Y-33820255D01*
X91679745Y-33482689D01*
X91238695Y-33300000D01*
X90761305Y-33300000D01*
X90320255Y-33482689D01*
X89982689Y-33820255D01*
X89800000Y-34261305D01*
X88200000Y-34261305D01*
X88017311Y-33820255D01*
X87679745Y-33482689D01*
X87238695Y-33300000D01*
X86761305Y-33300000D01*
X86320255Y-33482689D01*
X85982689Y-33820255D01*
X85800000Y-34261305D01*
X84200000Y-34261305D01*
X84017311Y-33820255D01*
X83679745Y-33482689D01*
X83238695Y-33300000D01*
X82761305Y-33300000D01*
X82320255Y-33482689D01*
X81982689Y-33820255D01*
X81800000Y-34261305D01*
X80200000Y-34261305D01*
X80017311Y-33820255D01*
X79679745Y-33482689D01*
X79238695Y-33300000D01*
X78761305Y-33300000D01*
X78320255Y-33482689D01*
X77982689Y-33820255D01*
X77800000Y-34261305D01*
X76200000Y-34261305D01*
X76017311Y-33820255D01*
X75679745Y-33482689D01*
X75238695Y-33300000D01*
X74761305Y-33300000D01*
X74320255Y-33482689D01*
X73982689Y-33820255D01*
X73800000Y-34261305D01*
X19280000Y-34261305D01*
X19280000Y-32261305D01*
X71800000Y-32261305D01*
X71800000Y-32738695D01*
X71982689Y-33179745D01*
X72320255Y-33517311D01*
X72761305Y-33700000D01*
X73238695Y-33700000D01*
X73679745Y-33517311D01*
X74017311Y-33179745D01*
X74200000Y-32738695D01*
X74200000Y-32261305D01*
X75800000Y-32261305D01*
X75800000Y-32738695D01*
X75982689Y-33179745D01*
X76320255Y-33517311D01*
X76761305Y-33700000D01*
X77238695Y-33700000D01*
X77679745Y-33517311D01*
X78017311Y-33179745D01*
X78200000Y-32738695D01*
X78200000Y-32261305D01*
X79800000Y-32261305D01*
X79800000Y-32738695D01*
X79982689Y-33179745D01*
X80320255Y-33517311D01*
X80761305Y-33700000D01*
X81238695Y-33700000D01*
X81679745Y-33517311D01*
X82017311Y-33179745D01*
X82200000Y-32738695D01*
X82200000Y-32261305D01*
X83800000Y-32261305D01*
X83800000Y-32738695D01*
X83982689Y-33179745D01*
X84320255Y-33517311D01*
X84761305Y-33700000D01*
X85238695Y-33700000D01*
X85679745Y-33517311D01*
X86017311Y-33179745D01*
X86200000Y-32738695D01*
X86200000Y-32261305D01*
X87800000Y-32261305D01*
X87800000Y-32738695D01*
X87982689Y-33179745D01*
X88320255Y-33517311D01*
X88761305Y-33700000D01*
X89238695Y-33700000D01*
X89679745Y-33517311D01*
X90017311Y-33179745D01*
X90200000Y-32738695D01*
X90200000Y-32261305D01*
X91800000Y-32261305D01*
X91800000Y-32738695D01*
X91982689Y-33179745D01*
X92320255Y-33517311D01*
X92761305Y-33700000D01*
X93238695Y-33700000D01*
X93679745Y-33517311D01*
X94017311Y-33179745D01*
X94200000Y-32738695D01*
X94200000Y-32261305D01*
X95800000Y-32261305D01*
X95800000Y-32738695D01*
X95982689Y-33179745D01*
X96320255Y-33517311D01*
X96761305Y-33700000D01*
X97238695Y-33700000D01*
X97679745Y-33517311D01*
X98017311Y-33179745D01*
X98200000Y-32738695D01*
X98200000Y-32261305D01*
X98017311Y-31820255D01*
X97679745Y-31482689D01*
X97238695Y-31300000D01*
X96761305Y-31300000D01*
X96320255Y-31482689D01*
X95982689Y-31820255D01*
X95800000Y-32261305D01*
X94200000Y-32261305D01*
X94017311Y-31820255D01*
X93679745Y-31482689D01*
X93238695Y-31300000D01*
X92761305Y-31300000D01*
X92320255Y-31482689D01*
X91982689Y-31820255D01*
X91800000Y-32261305D01*
X90200000Y-32261305D01*
X90017311Y-31820255D01*
X89679745Y-31482689D01*
X89238695Y-31300000D01*
X88761305Y-31300000D01*
X88320255Y-31482689D01*
X87982689Y-31820255D01*
X87800000Y-32261305D01*
X86200000Y-32261305D01*
X86017311Y-31820255D01*
X85679745Y-31482689D01*
X85238695Y-31300000D01*
X84761305Y-31300000D01*
X84320255Y-31482689D01*
X83982689Y-31820255D01*
X83800000Y-32261305D01*
X82200000Y-32261305D01*
X82017311Y-31820255D01*
X81679745Y-31482689D01*
X81238695Y-31300000D01*
X80761305Y-31300000D01*
X80320255Y-31482689D01*
X79982689Y-31820255D01*
X79800000Y-32261305D01*
X78200000Y-32261305D01*
X78017311Y-31820255D01*
X77679745Y-31482689D01*
X77238695Y-31300000D01*
X76761305Y-31300000D01*
X76320255Y-31482689D01*
X75982689Y-31820255D01*
X75800000Y-32261305D01*
X74200000Y-32261305D01*
X74017311Y-31820255D01*
X73679745Y-31482689D01*
X73238695Y-31300000D01*
X72761305Y-31300000D01*
X72320255Y-31482689D01*
X71982689Y-31820255D01*
X71800000Y-32261305D01*
X19280000Y-32261305D01*
X19280000Y-30261305D01*
X73800000Y-30261305D01*
X73800000Y-30738695D01*
X73982689Y-31179745D01*
X74320255Y-31517311D01*
X74761305Y-31700000D01*
X75238695Y-31700000D01*
X75679745Y-31517311D01*
X76017311Y-31179745D01*
X76200000Y-30738695D01*
X76200000Y-30261305D01*
X77800000Y-30261305D01*
X77800000Y-30738695D01*
X77982689Y-31179745D01*
X78320255Y-31517311D01*
X78761305Y-31700000D01*
X79238695Y-31700000D01*
X79679745Y-31517311D01*
X80017311Y-31179745D01*
X80200000Y-30738695D01*
X80200000Y-30261305D01*
X81800000Y-30261305D01*
X81800000Y-30738695D01*
X81982689Y-31179745D01*
X82320255Y-31517311D01*
X82761305Y-31700000D01*
X83238695Y-31700000D01*
X83679745Y-31517311D01*
X84017311Y-31179745D01*
X84200000Y-30738695D01*
X84200000Y-30261305D01*
X85800000Y-30261305D01*
X85800000Y-30738695D01*
X85982689Y-31179745D01*
X86320255Y-31517311D01*
X86761305Y-31700000D01*
X87238695Y-31700000D01*
X87679745Y-31517311D01*
X88017311Y-31179745D01*
X88200000Y-30738695D01*
X88200000Y-30261305D01*
X89800000Y-30261305D01*
X89800000Y-30738695D01*
X89982689Y-31179745D01*
X90320255Y-31517311D01*
X90761305Y-31700000D01*
X91238695Y-31700000D01*
X91679745Y-31517311D01*
X92017311Y-31179745D01*
X92200000Y-30738695D01*
X92200000Y-30261305D01*
X93800000Y-30261305D01*
X93800000Y-30738695D01*
X93982689Y-31179745D01*
X94320255Y-31517311D01*
X94761305Y-31700000D01*
X95238695Y-31700000D01*
X95679745Y-31517311D01*
X96017311Y-31179745D01*
X96200000Y-30738695D01*
X96200000Y-30261305D01*
X96017311Y-29820255D01*
X95679745Y-29482689D01*
X95238695Y-29300000D01*
X94761305Y-29300000D01*
X94320255Y-29482689D01*
X93982689Y-29820255D01*
X93800000Y-30261305D01*
X92200000Y-30261305D01*
X92017311Y-29820255D01*
X91679745Y-29482689D01*
X91238695Y-29300000D01*
X90761305Y-29300000D01*
X90320255Y-29482689D01*
X89982689Y-29820255D01*
X89800000Y-30261305D01*
X88200000Y-30261305D01*
X88017311Y-29820255D01*
X87679745Y-29482689D01*
X87238695Y-29300000D01*
X86761305Y-29300000D01*
X86320255Y-29482689D01*
X85982689Y-29820255D01*
X85800000Y-30261305D01*
X84200000Y-30261305D01*
X84017311Y-29820255D01*
X83679745Y-29482689D01*
X83238695Y-29300000D01*
X82761305Y-29300000D01*
X82320255Y-29482689D01*
X81982689Y-29820255D01*
X81800000Y-30261305D01*
X80200000Y-30261305D01*
X80017311Y-29820255D01*
X79679745Y-29482689D01*
X79238695Y-29300000D01*
X78761305Y-29300000D01*
X78320255Y-29482689D01*
X77982689Y-29820255D01*
X77800000Y-30261305D01*
X76200000Y-30261305D01*
X76017311Y-29820255D01*
X75679745Y-29482689D01*
X75238695Y-29300000D01*
X74761305Y-29300000D01*
X74320255Y-29482689D01*
X73982689Y-29820255D01*
X73800000Y-30261305D01*
X19280000Y-30261305D01*
X19280000Y-28261305D01*
X71800000Y-28261305D01*
X71800000Y-28738695D01*
X71982689Y-29179745D01*
X72320255Y-29517311D01*
X72761305Y-29700000D01*
X73238695Y-29700000D01*
X73679745Y-29517311D01*
X74017311Y-29179745D01*
X74200000Y-28738695D01*
X74200000Y-28261305D01*
X75800000Y-28261305D01*
X75800000Y-28738695D01*
X75982689Y-29179745D01*
X76320255Y-29517311D01*
X76761305Y-29700000D01*
X77238695Y-29700000D01*
X77679745Y-29517311D01*
X78017311Y-29179745D01*
X78200000Y-28738695D01*
X78200000Y-28261305D01*
X79800000Y-28261305D01*
X79800000Y-28738695D01*
X79982689Y-29179745D01*
X80320255Y-29517311D01*
X80761305Y-29700000D01*
X81238695Y-29700000D01*
X81679745Y-29517311D01*
X82017311Y-29179745D01*
X82200000Y-28738695D01*
X82200000Y-28261305D01*
X83800000Y-28261305D01*
X83800000Y-28738695D01*
X83982689Y-29179745D01*
X84320255Y-29517311D01*
X84761305Y-29700000D01*
X85238695Y-29700000D01*
X85679745Y-29517311D01*
X86017311Y-29179745D01*
X86200000Y-28738695D01*
X86200000Y-28261305D01*
X87800000Y-28261305D01*
X87800000Y-28738695D01*
X87982689Y-29179745D01*
X88320255Y-29517311D01*
X88761305Y-29700000D01*
X89238695Y-29700000D01*
X89679745Y-29517311D01*
X90017311Y-29179745D01*
X90200000Y-28738695D01*
X90200000Y-28261305D01*
X91800000Y-28261305D01*
X91800000Y-28738695D01*
X91982689Y-29179745D01*
X92320255Y-29517311D01*
X92761305Y-29700000D01*
X93238695Y-29700000D01*
X93679745Y-29517311D01*
X94017311Y-29179745D01*
X94200000Y-28738695D01*
X94200000Y-28261305D01*
X95800000Y-28261305D01*
X95800000Y-28738695D01*
X95982689Y-29179745D01*
X96320255Y-29517311D01*
X96761305Y-29700000D01*
X97238695Y-29700000D01*
X97679745Y-29517311D01*
X98017311Y-29179745D01*
X98200000Y-28738695D01*
X98200000Y-28261305D01*
X98017311Y-27820255D01*
X97679745Y-27482689D01*
X97238695Y-27300000D01*
X96761305Y-27300000D01*
X96320255Y-27482689D01*
X95982689Y-27820255D01*
X95800000Y-28261305D01*
X94200000Y-28261305D01*
X94017311Y-27820255D01*
X93679745Y-27482689D01*
X93238695Y-27300000D01*
X92761305Y-27300000D01*
X92320255Y-27482689D01*
X91982689Y-27820255D01*
X91800000Y-28261305D01*
X90200000Y-28261305D01*
X90017311Y-27820255D01*
X89679745Y-27482689D01*
X89238695Y-27300000D01*
X88761305Y-27300000D01*
X88320255Y-27482689D01*
X87982689Y-27820255D01*
X87800000Y-28261305D01*
X86200000Y-28261305D01*
X86017311Y-27820255D01*
X85679745Y-27482689D01*
X85238695Y-27300000D01*
X84761305Y-27300000D01*
X84320255Y-27482689D01*
X83982689Y-27820255D01*
X83800000Y-28261305D01*
X82200000Y-28261305D01*
X82017311Y-27820255D01*
X81679745Y-27482689D01*
X81238695Y-27300000D01*
X80761305Y-27300000D01*
X80320255Y-27482689D01*
X79982689Y-27820255D01*
X79800000Y-28261305D01*
X78200000Y-28261305D01*
X78017311Y-27820255D01*
X77679745Y-27482689D01*
X77238695Y-27300000D01*
X76761305Y-27300000D01*
X76320255Y-27482689D01*
X75982689Y-27820255D01*
X75800000Y-28261305D01*
X74200000Y-28261305D01*
X74017311Y-27820255D01*
X73679745Y-27482689D01*
X73238695Y-27300000D01*
X72761305Y-27300000D01*
X72320255Y-27482689D01*
X71982689Y-27820255D01*
X71800000Y-28261305D01*
X19280000Y-28261305D01*
X19280000Y-26261305D01*
X73800000Y-26261305D01*
X73800000Y-26738695D01*
X73982689Y-27179745D01*
X74320255Y-27517311D01*
X74761305Y-27700000D01*
X75238695Y-27700000D01*
X75679745Y-27517311D01*
X76017311Y-27179745D01*
X76200000Y-26738695D01*
X76200000Y-26261305D01*
X77800000Y-26261305D01*
X77800000Y-26738695D01*
X77982689Y-27179745D01*
X78320255Y-27517311D01*
X78761305Y-27700000D01*
X79238695Y-27700000D01*
X79679745Y-27517311D01*
X80017311Y-27179745D01*
X80200000Y-26738695D01*
X80200000Y-26261305D01*
X81800000Y-26261305D01*
X81800000Y-26738695D01*
X81982689Y-27179745D01*
X82320255Y-27517311D01*
X82761305Y-27700000D01*
X83238695Y-27700000D01*
X83679745Y-27517311D01*
X84017311Y-27179745D01*
X84200000Y-26738695D01*
X84200000Y-26261305D01*
X85800000Y-26261305D01*
X85800000Y-26738695D01*
X85982689Y-27179745D01*
X86320255Y-27517311D01*
X86761305Y-27700000D01*
X87238695Y-27700000D01*
X87679745Y-27517311D01*
X88017311Y-27179745D01*
X88200000Y-26738695D01*
X88200000Y-26261305D01*
X89800000Y-26261305D01*
X89800000Y-26738695D01*
X89982689Y-27179745D01*
X90320255Y-27517311D01*
X90761305Y-27700000D01*
X91238695Y-27700000D01*
X91679745Y-27517311D01*
X92017311Y-27179745D01*
X92200000Y-26738695D01*
X92200000Y-26261305D01*
X93800000Y-26261305D01*
X93800000Y-26738695D01*
X93982689Y-27179745D01*
X94320255Y-27517311D01*
X94761305Y-27700000D01*
X95238695Y-27700000D01*
X95679745Y-27517311D01*
X96017311Y-27179745D01*
X96200000Y-26738695D01*
X96200000Y-26261305D01*
X96017311Y-25820255D01*
X95679745Y-25482689D01*
X95238695Y-25300000D01*
X94761305Y-25300000D01*
X94320255Y-25482689D01*
X93982689Y-25820255D01*
X93800000Y-26261305D01*
X92200000Y-26261305D01*
X92017311Y-25820255D01*
X91679745Y-25482689D01*
X91238695Y-25300000D01*
X90761305Y-25300000D01*
X90320255Y-25482689D01*
X89982689Y-25820255D01*
X89800000Y-26261305D01*
X88200000Y-26261305D01*
X88017311Y-25820255D01*
X87679745Y-25482689D01*
X87238695Y-25300000D01*
X86761305Y-25300000D01*
X86320255Y-25482689D01*
X85982689Y-25820255D01*
X85800000Y-26261305D01*
X84200000Y-26261305D01*
X84017311Y-25820255D01*
X83679745Y-25482689D01*
X83238695Y-25300000D01*
X82761305Y-25300000D01*
X82320255Y-25482689D01*
X81982689Y-25820255D01*
X81800000Y-26261305D01*
X80200000Y-26261305D01*
X80017311Y-25820255D01*
X79679745Y-25482689D01*
X79238695Y-25300000D01*
X78761305Y-25300000D01*
X78320255Y-25482689D01*
X77982689Y-25820255D01*
X77800000Y-26261305D01*
X76200000Y-26261305D01*
X76017311Y-25820255D01*
X75679745Y-25482689D01*
X75238695Y-25300000D01*
X74761305Y-25300000D01*
X74320255Y-25482689D01*
X73982689Y-25820255D01*
X73800000Y-26261305D01*
X19280000Y-26261305D01*
X19280000Y-22102175D01*
X71000000Y-22102175D01*
X71000000Y-22897825D01*
X71304482Y-23632909D01*
X71867091Y-24195518D01*
X72602175Y-24500000D01*
X73397825Y-24500000D01*
X73974085Y-24261305D01*
X75800000Y-24261305D01*
X75800000Y-24738695D01*
X75982689Y-25179745D01*
X76320255Y-25517311D01*
X76761305Y-25700000D01*
X77238695Y-25700000D01*
X77679745Y-25517311D01*
X78017311Y-25179745D01*
X78200000Y-24738695D01*
X78200000Y-24261305D01*
X79800000Y-24261305D01*
X79800000Y-24738695D01*
X79982689Y-25179745D01*
X80320255Y-25517311D01*
X80761305Y-25700000D01*
X81238695Y-25700000D01*
X81679745Y-25517311D01*
X82017311Y-25179745D01*
X82200000Y-24738695D01*
X82200000Y-24261305D01*
X83800000Y-24261305D01*
X83800000Y-24738695D01*
X83982689Y-25179745D01*
X84320255Y-25517311D01*
X84761305Y-25700000D01*
X85238695Y-25700000D01*
X85679745Y-25517311D01*
X86017311Y-25179745D01*
X86200000Y-24738695D01*
X86200000Y-24261305D01*
X87800000Y-24261305D01*
X87800000Y-24738695D01*
X87982689Y-25179745D01*
X88320255Y-25517311D01*
X88761305Y-25700000D01*
X89238695Y-25700000D01*
X89679745Y-25517311D01*
X90017311Y-25179745D01*
X90200000Y-24738695D01*
X90200000Y-24261305D01*
X91800000Y-24261305D01*
X91800000Y-24738695D01*
X91982689Y-25179745D01*
X92320255Y-25517311D01*
X92761305Y-25700000D01*
X93238695Y-25700000D01*
X93679745Y-25517311D01*
X94017311Y-25179745D01*
X94200000Y-24738695D01*
X94200000Y-24261305D01*
X94017311Y-23820255D01*
X93679745Y-23482689D01*
X93238695Y-23300000D01*
X92761305Y-23300000D01*
X92320255Y-23482689D01*
X91982689Y-23820255D01*
X91800000Y-24261305D01*
X90200000Y-24261305D01*
X90017311Y-23820255D01*
X89679745Y-23482689D01*
X89238695Y-23300000D01*
X88761305Y-23300000D01*
X88320255Y-23482689D01*
X87982689Y-23820255D01*
X87800000Y-24261305D01*
X86200000Y-24261305D01*
X86017311Y-23820255D01*
X85679745Y-23482689D01*
X85238695Y-23300000D01*
X84761305Y-23300000D01*
X84320255Y-23482689D01*
X83982689Y-23820255D01*
X83800000Y-24261305D01*
X82200000Y-24261305D01*
X82017311Y-23820255D01*
X81679745Y-23482689D01*
X81238695Y-23300000D01*
X80761305Y-23300000D01*
X80320255Y-23482689D01*
X79982689Y-23820255D01*
X79800000Y-24261305D01*
X78200000Y-24261305D01*
X78017311Y-23820255D01*
X77679745Y-23482689D01*
X77238695Y-23300000D01*
X76761305Y-23300000D01*
X76320255Y-23482689D01*
X75982689Y-23820255D01*
X75800000Y-24261305D01*
X73974085Y-24261305D01*
X74132909Y-24195518D01*
X74695518Y-23632909D01*
X75000000Y-22897825D01*
X75000000Y-22261305D01*
X77800000Y-22261305D01*
X77800000Y-22738695D01*
X77982689Y-23179745D01*
X78320255Y-23517311D01*
X78761305Y-23700000D01*
X79238695Y-23700000D01*
X79679745Y-23517311D01*
X80017311Y-23179745D01*
X80200000Y-22738695D01*
X80200000Y-22261305D01*
X81800000Y-22261305D01*
X81800000Y-22738695D01*
X81982689Y-23179745D01*
X82320255Y-23517311D01*
X82761305Y-23700000D01*
X83238695Y-23700000D01*
X83679745Y-23517311D01*
X84017311Y-23179745D01*
X84200000Y-22738695D01*
X84200000Y-22261305D01*
X85800000Y-22261305D01*
X85800000Y-22738695D01*
X85982689Y-23179745D01*
X86320255Y-23517311D01*
X86761305Y-23700000D01*
X87238695Y-23700000D01*
X87679745Y-23517311D01*
X88017311Y-23179745D01*
X88200000Y-22738695D01*
X88200000Y-22261305D01*
X89800000Y-22261305D01*
X89800000Y-22738695D01*
X89982689Y-23179745D01*
X90320255Y-23517311D01*
X90761305Y-23700000D01*
X91238695Y-23700000D01*
X91679745Y-23517311D01*
X92017311Y-23179745D01*
X92200000Y-22738695D01*
X92200000Y-22261305D01*
X92134087Y-22102175D01*
X95000000Y-22102175D01*
X95000000Y-22897825D01*
X95304482Y-23632909D01*
X95867091Y-24195518D01*
X96602175Y-24500000D01*
X97397825Y-24500000D01*
X98132909Y-24195518D01*
X98695518Y-23632909D01*
X99000000Y-22897825D01*
X99000000Y-22102175D01*
X98695518Y-21367091D01*
X98132909Y-20804482D01*
X97397825Y-20500000D01*
X96602175Y-20500000D01*
X95867091Y-20804482D01*
X95304482Y-21367091D01*
X95000000Y-22102175D01*
X92134087Y-22102175D01*
X92017311Y-21820255D01*
X91679745Y-21482689D01*
X91238695Y-21300000D01*
X90761305Y-21300000D01*
X90320255Y-21482689D01*
X89982689Y-21820255D01*
X89800000Y-22261305D01*
X88200000Y-22261305D01*
X88017311Y-21820255D01*
X87679745Y-21482689D01*
X87238695Y-21300000D01*
X86761305Y-21300000D01*
X86320255Y-21482689D01*
X85982689Y-21820255D01*
X85800000Y-22261305D01*
X84200000Y-22261305D01*
X84017311Y-21820255D01*
X83679745Y-21482689D01*
X83238695Y-21300000D01*
X82761305Y-21300000D01*
X82320255Y-21482689D01*
X81982689Y-21820255D01*
X81800000Y-22261305D01*
X80200000Y-22261305D01*
X80017311Y-21820255D01*
X79679745Y-21482689D01*
X79238695Y-21300000D01*
X78761305Y-21300000D01*
X78320255Y-21482689D01*
X77982689Y-21820255D01*
X77800000Y-22261305D01*
X75000000Y-22261305D01*
X75000000Y-22102175D01*
X74695518Y-21367091D01*
X74132909Y-20804482D01*
X73397825Y-20500000D01*
X72602175Y-20500000D01*
X71867091Y-20804482D01*
X71304482Y-21367091D01*
X71000000Y-22102175D01*
X19280000Y-22102175D01*
X19280000Y-20570679D01*
X19278533Y-20563304D01*
X19272388Y-20378063D01*
X19271443Y-20371423D01*
X19271747Y-20364727D01*
X19265798Y-20314841D01*
X19140148Y-19602238D01*
X19133566Y-19579584D01*
X19129552Y-19556343D01*
X19113030Y-19508898D01*
X18837289Y-18839900D01*
X18825996Y-18819187D01*
X18817085Y-18797351D01*
X18790769Y-18754575D01*
X18790761Y-18754561D01*
X18790756Y-18754555D01*
X18377794Y-18160381D01*
X18362318Y-18142578D01*
X18348925Y-18123163D01*
X18314035Y-18087033D01*
X18314026Y-18087023D01*
X18314021Y-18087019D01*
X17783103Y-17595383D01*
X17764167Y-17581320D01*
X17746914Y-17565231D01*
X17705078Y-17537436D01*
X17705070Y-17537430D01*
X17705066Y-17537428D01*
X17080957Y-17171266D01*
X17059444Y-17161598D01*
X17039139Y-17149589D01*
X16992306Y-17131424D01*
X16992300Y-17131421D01*
X16992297Y-17131420D01*
X16304120Y-16907819D01*
X16281033Y-16902996D01*
X16258622Y-16895627D01*
X16208992Y-16887945D01*
X16208974Y-16887941D01*
X16208965Y-16887941D01*
X15488833Y-16817331D01*
X15465245Y-16817578D01*
X15441778Y-16815194D01*
X15391657Y-16818348D01*
X15391638Y-16818348D01*
X15391629Y-16818350D01*
X14673132Y-16904026D01*
X14578424Y-16925890D01*
X14557359Y-16935893D01*
X10610476Y-17799887D01*
X10602416Y-17803408D01*
X10489482Y-17832761D01*
X10485427Y-17834299D01*
X10481139Y-17835014D01*
X10433600Y-17851263D01*
X9762111Y-18123516D01*
X9741336Y-18134688D01*
X9719447Y-18143474D01*
X9676514Y-18169547D01*
X9676505Y-18169552D01*
X9676501Y-18169555D01*
X9079142Y-18579645D01*
X9061255Y-18595014D01*
X9041757Y-18608299D01*
X9005428Y-18642980D01*
X9005418Y-18642989D01*
X9005414Y-18642994D01*
X8510051Y-19171793D01*
X8495874Y-19190654D01*
X8479693Y-19207807D01*
X8451650Y-19249491D01*
X8081392Y-19872330D01*
X8071598Y-19893791D01*
X8059475Y-19914023D01*
X8041044Y-19960741D01*
X8041037Y-19960757D01*
X8041035Y-19960766D01*
X7813163Y-20648574D01*
X7808207Y-20671633D01*
X7800710Y-20693999D01*
X7792738Y-20743602D01*
X7717877Y-21464308D01*
X7718334Y-21561506D01*
X7720001Y-21568921D01*
X7720000Y-33434598D01*
X7717443Y-33447088D01*
X7715542Y-33497292D01*
X1475000Y-33497292D01*
X1475000Y-14617094D01*
X11575000Y-14617094D01*
X11575000Y-15382906D01*
X11868064Y-16090425D01*
X12409575Y-16631936D01*
X13117094Y-16925000D01*
X13882906Y-16925000D01*
X14590425Y-16631936D01*
X15131936Y-16090425D01*
X15319982Y-15636441D01*
X48515000Y-15636441D01*
X48515000Y-16163559D01*
X48716719Y-16650552D01*
X49089448Y-17023281D01*
X49576441Y-17225000D01*
X50103559Y-17225000D01*
X50590552Y-17023281D01*
X50963281Y-16650552D01*
X51110000Y-16296341D01*
X51256719Y-16650552D01*
X51629448Y-17023281D01*
X52116441Y-17225000D01*
X52643559Y-17225000D01*
X53130552Y-17023281D01*
X53503281Y-16650552D01*
X53650000Y-16296341D01*
X53796719Y-16650552D01*
X54169448Y-17023281D01*
X54656441Y-17225000D01*
X55183559Y-17225000D01*
X55670552Y-17023281D01*
X56043281Y-16650552D01*
X56190000Y-16296341D01*
X56336719Y-16650552D01*
X56709448Y-17023281D01*
X57196441Y-17225000D01*
X57723559Y-17225000D01*
X58210552Y-17023281D01*
X58583281Y-16650552D01*
X58730000Y-16296341D01*
X58876719Y-16650552D01*
X59249448Y-17023281D01*
X59736441Y-17225000D01*
X60263559Y-17225000D01*
X60750552Y-17023281D01*
X61123281Y-16650552D01*
X61325000Y-16163559D01*
X61325000Y-15636441D01*
X61123281Y-15149448D01*
X60750552Y-14776719D01*
X60263559Y-14575000D01*
X59736441Y-14575000D01*
X59249448Y-14776719D01*
X58876719Y-15149448D01*
X58730000Y-15503659D01*
X58583281Y-15149448D01*
X58210552Y-14776719D01*
X57723559Y-14575000D01*
X57196441Y-14575000D01*
X56709448Y-14776719D01*
X56336719Y-15149448D01*
X56190000Y-15503659D01*
X56043281Y-15149448D01*
X55670552Y-14776719D01*
X55183559Y-14575000D01*
X54656441Y-14575000D01*
X54169448Y-14776719D01*
X53796719Y-15149448D01*
X53650000Y-15503659D01*
X53503281Y-15149448D01*
X53130552Y-14776719D01*
X52643559Y-14575000D01*
X52116441Y-14575000D01*
X51629448Y-14776719D01*
X51256719Y-15149448D01*
X51110000Y-15503659D01*
X50963281Y-15149448D01*
X50590552Y-14776719D01*
X50103559Y-14575000D01*
X49576441Y-14575000D01*
X49089448Y-14776719D01*
X48716719Y-15149448D01*
X48515000Y-15636441D01*
X15319982Y-15636441D01*
X15425000Y-15382906D01*
X15425000Y-14617094D01*
X15131936Y-13909575D01*
X14590425Y-13368064D01*
X13884357Y-13075601D01*
X85850000Y-13075601D01*
X85850000Y-15124399D01*
X86634041Y-17017240D01*
X88082760Y-18465959D01*
X89975601Y-19250000D01*
X92024399Y-19250000D01*
X93917240Y-18465959D01*
X95365959Y-17017240D01*
X96150000Y-15124399D01*
X96150000Y-13075601D01*
X95365959Y-11182760D01*
X93917240Y-9734041D01*
X92024399Y-8950000D01*
X89975601Y-8950000D01*
X88082760Y-9734041D01*
X86634041Y-11182760D01*
X85850000Y-13075601D01*
X13884357Y-13075601D01*
X13882906Y-13075000D01*
X13117094Y-13075000D01*
X12409575Y-13368064D01*
X11868064Y-13909575D01*
X11575000Y-14617094D01*
X1475000Y-14617094D01*
X1475000Y-10563856D01*
X1483085Y-10534332D01*
X1475000Y-10470196D01*
X1475000Y-10453221D01*
X1469158Y-10423851D01*
X1459451Y-10346849D01*
X1450834Y-10331733D01*
X1447439Y-10314665D01*
X1404311Y-10250120D01*
X1365869Y-10182682D01*
X1352122Y-10172013D01*
X1342455Y-10157545D01*
X1277914Y-10114420D01*
X1254266Y-10096067D01*
X1239091Y-10088479D01*
X1185335Y-10052561D01*
X1155309Y-10046588D01*
X475000Y-9706434D01*
X475000Y-7459242D01*
X35100000Y-7459242D01*
X35100000Y-9010758D01*
X35693739Y-10444173D01*
X36790827Y-11541261D01*
X38224242Y-12135000D01*
X39775758Y-12135000D01*
X41209173Y-11541261D01*
X42306261Y-10444173D01*
X42900000Y-9010758D01*
X42900000Y-7459242D01*
X67100000Y-7459242D01*
X67100000Y-9010758D01*
X67693739Y-10444173D01*
X68790827Y-11541261D01*
X70224242Y-12135000D01*
X71775758Y-12135000D01*
X73209173Y-11541261D01*
X74306261Y-10444173D01*
X74900000Y-9010758D01*
X74900000Y-7459242D01*
X74306261Y-6025827D01*
X73209173Y-4928739D01*
X71775758Y-4335000D01*
X70224242Y-4335000D01*
X68790827Y-4928739D01*
X67693739Y-6025827D01*
X67100000Y-7459242D01*
X42900000Y-7459242D01*
X42306261Y-6025827D01*
X41209173Y-4928739D01*
X39775758Y-4335000D01*
X38224242Y-4335000D01*
X36790827Y-4928739D01*
X35693739Y-6025827D01*
X35100000Y-7459242D01*
X475000Y-7459242D01*
X475000Y-2033842D01*
X540949Y-1573342D01*
X719342Y-1180986D01*
X1000688Y-854468D01*
X1362368Y-620039D01*
X1791043Y-491838D01*
X2017626Y-475000D01*
X103966158Y-475000D01*
X104426658Y-540949D01*
G04 #@! TD*
M02*
