G04 #@! TF.GenerationSoftware,KiCad,Pcbnew,5.1.5-52549c5~84~ubuntu18.04.1*
G04 #@! TF.CreationDate,2020-03-18T22:38:39-07:00*
G04 #@! TF.ProjectId,endcap,656e6463-6170-42e6-9b69-6361645f7063,2.1*
G04 #@! TF.SameCoordinates,PX2faf080PY2faf080*
G04 #@! TF.FileFunction,Legend,Top*
G04 #@! TF.FilePolarity,Positive*
%FSLAX46Y46*%
G04 Gerber Fmt 4.6, Leading zero omitted, Abs format (unit mm)*
G04 Created by KiCad (PCBNEW 5.1.5-52549c5~84~ubuntu18.04.1) date 2020-03-18 22:38:39*
%MOMM*%
%LPD*%
G04 APERTURE LIST*
%ADD10C,0.300000*%
G04 APERTURE END LIST*
D10*
X43569047Y-13900000D02*
X46069047Y-13900000D01*
X43688095Y-14971428D02*
X43569047Y-15328571D01*
X43569047Y-15923809D01*
X43688095Y-16161904D01*
X43807142Y-16280952D01*
X44045238Y-16400000D01*
X44283333Y-16400000D01*
X44521428Y-16280952D01*
X44640476Y-16161904D01*
X44759523Y-15923809D01*
X44878571Y-15447619D01*
X44997619Y-15209523D01*
X45116666Y-15090476D01*
X45354761Y-14971428D01*
X45592857Y-14971428D01*
X45830952Y-15090476D01*
X45950000Y-15209523D01*
X46069047Y-15447619D01*
X46069047Y-16042857D01*
X45950000Y-16400000D01*
X46069047Y-17947619D02*
X46069047Y-18423809D01*
X45950000Y-18661904D01*
X45711904Y-18900000D01*
X45235714Y-19019047D01*
X44402380Y-19019047D01*
X43926190Y-18900000D01*
X43688095Y-18661904D01*
X43569047Y-18423809D01*
X43569047Y-17947619D01*
X43688095Y-17709523D01*
X43926190Y-17471428D01*
X44402380Y-17352380D01*
X45235714Y-17352380D01*
X45711904Y-17471428D01*
X45950000Y-17709523D01*
X46069047Y-17947619D01*
X20869047Y-43311904D02*
X22059523Y-42478571D01*
X20869047Y-41883333D02*
X23369047Y-41883333D01*
X23369047Y-42835714D01*
X23250000Y-43073809D01*
X23130952Y-43192857D01*
X22892857Y-43311904D01*
X22535714Y-43311904D01*
X22297619Y-43192857D01*
X22178571Y-43073809D01*
X22059523Y-42835714D01*
X22059523Y-41883333D01*
X22178571Y-45216666D02*
X22178571Y-44383333D01*
X20869047Y-44383333D02*
X23369047Y-44383333D01*
X23369047Y-45573809D01*
X23369047Y-46288095D02*
X23369047Y-47835714D01*
X22416666Y-47002380D01*
X22416666Y-47359523D01*
X22297619Y-47597619D01*
X22178571Y-47716666D01*
X21940476Y-47835714D01*
X21345238Y-47835714D01*
X21107142Y-47716666D01*
X20988095Y-47597619D01*
X20869047Y-47359523D01*
X20869047Y-46645238D01*
X20988095Y-46407142D01*
X21107142Y-46288095D01*
X36583333Y-44314285D02*
X36583333Y-45504761D01*
X35869047Y-44076190D02*
X38369047Y-44909523D01*
X35869047Y-45742857D01*
X36107142Y-48004761D02*
X35988095Y-47885714D01*
X35869047Y-47528571D01*
X35869047Y-47290476D01*
X35988095Y-46933333D01*
X36226190Y-46695238D01*
X36464285Y-46576190D01*
X36940476Y-46457142D01*
X37297619Y-46457142D01*
X37773809Y-46576190D01*
X38011904Y-46695238D01*
X38250000Y-46933333D01*
X38369047Y-47290476D01*
X38369047Y-47528571D01*
X38250000Y-47885714D01*
X38130952Y-48004761D01*
X36107142Y-50504761D02*
X35988095Y-50385714D01*
X35869047Y-50028571D01*
X35869047Y-49790476D01*
X35988095Y-49433333D01*
X36226190Y-49195238D01*
X36464285Y-49076190D01*
X36940476Y-48957142D01*
X37297619Y-48957142D01*
X37773809Y-49076190D01*
X38011904Y-49195238D01*
X38250000Y-49433333D01*
X38369047Y-49790476D01*
X38369047Y-50028571D01*
X38250000Y-50385714D01*
X38130952Y-50504761D01*
X35869047Y-52885714D02*
X35869047Y-51457142D01*
X35869047Y-52171428D02*
X38369047Y-52171428D01*
X38011904Y-51933333D01*
X37773809Y-51695238D01*
X37654761Y-51457142D01*
X3483333Y-22914285D02*
X3483333Y-24104761D01*
X2769047Y-22676190D02*
X5269047Y-23509523D01*
X2769047Y-24342857D01*
X3007142Y-26604761D02*
X2888095Y-26485714D01*
X2769047Y-26128571D01*
X2769047Y-25890476D01*
X2888095Y-25533333D01*
X3126190Y-25295238D01*
X3364285Y-25176190D01*
X3840476Y-25057142D01*
X4197619Y-25057142D01*
X4673809Y-25176190D01*
X4911904Y-25295238D01*
X5150000Y-25533333D01*
X5269047Y-25890476D01*
X5269047Y-26128571D01*
X5150000Y-26485714D01*
X5030952Y-26604761D01*
X3007142Y-29104761D02*
X2888095Y-28985714D01*
X2769047Y-28628571D01*
X2769047Y-28390476D01*
X2888095Y-28033333D01*
X3126190Y-27795238D01*
X3364285Y-27676190D01*
X3840476Y-27557142D01*
X4197619Y-27557142D01*
X4673809Y-27676190D01*
X4911904Y-27795238D01*
X5150000Y-28033333D01*
X5269047Y-28390476D01*
X5269047Y-28628571D01*
X5150000Y-28985714D01*
X5030952Y-29104761D01*
X5030952Y-30057142D02*
X5150000Y-30176190D01*
X5269047Y-30414285D01*
X5269047Y-31009523D01*
X5150000Y-31247619D01*
X5030952Y-31366666D01*
X4792857Y-31485714D01*
X4554761Y-31485714D01*
X4197619Y-31366666D01*
X2769047Y-29938095D01*
X2769047Y-31485714D01*
X31883333Y-5442857D02*
X31883333Y-6633333D01*
X31169047Y-5204761D02*
X33669047Y-6038095D01*
X31169047Y-6871428D01*
X31169047Y-7704761D02*
X33669047Y-7704761D01*
X31169047Y-9133333D01*
X33669047Y-9133333D01*
X33669047Y-9966666D02*
X33669047Y-11395238D01*
X31169047Y-10680952D02*
X33669047Y-10680952D01*
X63169047Y-6711904D02*
X64359523Y-5878571D01*
X63169047Y-5283333D02*
X65669047Y-5283333D01*
X65669047Y-6235714D01*
X65550000Y-6473809D01*
X65430952Y-6592857D01*
X65192857Y-6711904D01*
X64835714Y-6711904D01*
X64597619Y-6592857D01*
X64478571Y-6473809D01*
X64359523Y-6235714D01*
X64359523Y-5283333D01*
X64478571Y-8616666D02*
X64478571Y-7783333D01*
X63169047Y-7783333D02*
X65669047Y-7783333D01*
X65669047Y-8973809D01*
X63169047Y-11235714D02*
X63169047Y-9807142D01*
X63169047Y-10521428D02*
X65669047Y-10521428D01*
X65311904Y-10283333D01*
X65073809Y-10045238D01*
X64954761Y-9807142D01*
X82978571Y-8119047D02*
X82978571Y-8952380D01*
X81669047Y-9309523D02*
X81669047Y-8119047D01*
X84169047Y-8119047D01*
X84169047Y-9309523D01*
X84169047Y-10142857D02*
X81669047Y-11809523D01*
X84169047Y-11809523D02*
X81669047Y-10142857D01*
X84169047Y-12404761D02*
X84169047Y-13833333D01*
X81669047Y-13119047D02*
X84169047Y-13119047D01*
X84169047Y-14309523D02*
X84169047Y-15738095D01*
X81669047Y-15023809D02*
X84169047Y-15023809D01*
X81669047Y-18000000D02*
X82859523Y-17166666D01*
X81669047Y-16571428D02*
X84169047Y-16571428D01*
X84169047Y-17523809D01*
X84050000Y-17761904D01*
X83930952Y-17880952D01*
X83692857Y-18000000D01*
X83335714Y-18000000D01*
X83097619Y-17880952D01*
X82978571Y-17761904D01*
X82859523Y-17523809D01*
X82859523Y-16571428D01*
X101469047Y-16650000D02*
X103969047Y-16650000D01*
X102778571Y-16650000D02*
X102778571Y-18078571D01*
X101469047Y-18078571D02*
X103969047Y-18078571D01*
X101588095Y-20221428D02*
X101469047Y-19983333D01*
X101469047Y-19507142D01*
X101588095Y-19269047D01*
X101826190Y-19150000D01*
X102778571Y-19150000D01*
X103016666Y-19269047D01*
X103135714Y-19507142D01*
X103135714Y-19983333D01*
X103016666Y-20221428D01*
X102778571Y-20340476D01*
X102540476Y-20340476D01*
X102302380Y-19150000D01*
X101469047Y-21411904D02*
X103135714Y-21411904D01*
X102659523Y-21411904D02*
X102897619Y-21530952D01*
X103016666Y-21650000D01*
X103135714Y-21888095D01*
X103135714Y-22126190D01*
X101469047Y-22959523D02*
X103135714Y-22959523D01*
X102897619Y-22959523D02*
X103016666Y-23078571D01*
X103135714Y-23316666D01*
X103135714Y-23673809D01*
X103016666Y-23911904D01*
X102778571Y-24030952D01*
X101469047Y-24030952D01*
X102778571Y-24030952D02*
X103016666Y-24150000D01*
X103135714Y-24388095D01*
X103135714Y-24745238D01*
X103016666Y-24983333D01*
X102778571Y-25102380D01*
X101469047Y-25102380D01*
X101588095Y-27245238D02*
X101469047Y-27007142D01*
X101469047Y-26530952D01*
X101588095Y-26292857D01*
X101826190Y-26173809D01*
X102778571Y-26173809D01*
X103016666Y-26292857D01*
X103135714Y-26530952D01*
X103135714Y-27007142D01*
X103016666Y-27245238D01*
X102778571Y-27364285D01*
X102540476Y-27364285D01*
X102302380Y-26173809D01*
X101588095Y-28316666D02*
X101469047Y-28554761D01*
X101469047Y-29030952D01*
X101588095Y-29269047D01*
X101826190Y-29388095D01*
X101945238Y-29388095D01*
X102183333Y-29269047D01*
X102302380Y-29030952D01*
X102302380Y-28673809D01*
X102421428Y-28435714D01*
X102659523Y-28316666D01*
X102778571Y-28316666D01*
X103016666Y-28435714D01*
X103135714Y-28673809D01*
X103135714Y-29030952D01*
X103016666Y-29269047D01*
X102421428Y-30459523D02*
X102421428Y-32364285D01*
X101469047Y-34745238D02*
X101469047Y-33554761D01*
X103969047Y-33554761D01*
X101469047Y-35578571D02*
X103135714Y-35578571D01*
X103969047Y-35578571D02*
X103850000Y-35459523D01*
X103730952Y-35578571D01*
X103850000Y-35697619D01*
X103969047Y-35578571D01*
X103730952Y-35578571D01*
X103135714Y-36411904D02*
X103135714Y-37364285D01*
X103969047Y-36769047D02*
X101826190Y-36769047D01*
X101588095Y-36888095D01*
X101469047Y-37126190D01*
X101469047Y-37364285D01*
X101588095Y-39150000D02*
X101469047Y-38911904D01*
X101469047Y-38435714D01*
X101588095Y-38197619D01*
X101826190Y-38078571D01*
X102778571Y-38078571D01*
X103016666Y-38197619D01*
X103135714Y-38435714D01*
X103135714Y-38911904D01*
X103016666Y-39150000D01*
X102778571Y-39269047D01*
X102540476Y-39269047D01*
X102302380Y-38078571D01*
M02*
