G04 #@! TF.GenerationSoftware,KiCad,Pcbnew,5.1.5-52549c5~84~ubuntu18.04.1*
G04 #@! TF.CreationDate,2020-03-29T21:39:51-07:00*
G04 #@! TF.ProjectId,endcap,656e6463-6170-42e6-9b69-6361645f7063,2.1*
G04 #@! TF.SameCoordinates,PX2faf080PY2faf080*
G04 #@! TF.FileFunction,Legend,Bot*
G04 #@! TF.FilePolarity,Positive*
%FSLAX46Y46*%
G04 Gerber Fmt 4.6, Leading zero omitted, Abs format (unit mm)*
G04 Created by KiCad (PCBNEW 5.1.5-52549c5~84~ubuntu18.04.1) date 2020-03-29 21:39:51*
%MOMM*%
%LPD*%
G04 APERTURE LIST*
%ADD10C,0.120000*%
%ADD11C,0.100000*%
%ADD12C,0.002540*%
%ADD13C,0.150000*%
G04 APERTURE END LIST*
D10*
X95683904Y-3342380D02*
X95683904Y-2342380D01*
X95683904Y-2818571D02*
X95112476Y-2818571D01*
X95112476Y-3342380D02*
X95112476Y-2342380D01*
X94160095Y-3342380D02*
X94636285Y-3342380D01*
X94636285Y-2342380D01*
X93874380Y-2437619D02*
X93826761Y-2390000D01*
X93731523Y-2342380D01*
X93493428Y-2342380D01*
X93398190Y-2390000D01*
X93350571Y-2437619D01*
X93302952Y-2532857D01*
X93302952Y-2628095D01*
X93350571Y-2770952D01*
X93922000Y-3342380D01*
X93302952Y-3342380D01*
X92112476Y-3342380D02*
X92112476Y-2342380D01*
X91445809Y-2342380D02*
X91255333Y-2342380D01*
X91160095Y-2390000D01*
X91064857Y-2485238D01*
X91017238Y-2675714D01*
X91017238Y-3009047D01*
X91064857Y-3199523D01*
X91160095Y-3294761D01*
X91255333Y-3342380D01*
X91445809Y-3342380D01*
X91541047Y-3294761D01*
X91636285Y-3199523D01*
X91683904Y-3009047D01*
X91683904Y-2675714D01*
X91636285Y-2485238D01*
X91541047Y-2390000D01*
X91445809Y-2342380D01*
X89826761Y-2818571D02*
X89493428Y-2818571D01*
X89350571Y-3342380D02*
X89826761Y-3342380D01*
X89826761Y-2342380D01*
X89350571Y-2342380D01*
X88922000Y-2675714D02*
X88922000Y-3342380D01*
X88922000Y-2770952D02*
X88874380Y-2723333D01*
X88779142Y-2675714D01*
X88636285Y-2675714D01*
X88541047Y-2723333D01*
X88493428Y-2818571D01*
X88493428Y-3342380D01*
X87588666Y-3342380D02*
X87588666Y-2342380D01*
X87588666Y-3294761D02*
X87683904Y-3342380D01*
X87874380Y-3342380D01*
X87969619Y-3294761D01*
X88017238Y-3247142D01*
X88064857Y-3151904D01*
X88064857Y-2866190D01*
X88017238Y-2770952D01*
X87969619Y-2723333D01*
X87874380Y-2675714D01*
X87683904Y-2675714D01*
X87588666Y-2723333D01*
X86350571Y-3342380D02*
X86350571Y-2342380D01*
X85969619Y-2342380D01*
X85874380Y-2390000D01*
X85826761Y-2437619D01*
X85779142Y-2532857D01*
X85779142Y-2675714D01*
X85826761Y-2770952D01*
X85874380Y-2818571D01*
X85969619Y-2866190D01*
X86350571Y-2866190D01*
X85207714Y-3342380D02*
X85302952Y-3294761D01*
X85350571Y-3199523D01*
X85350571Y-2342380D01*
X84398190Y-3342380D02*
X84398190Y-2818571D01*
X84445809Y-2723333D01*
X84541047Y-2675714D01*
X84731523Y-2675714D01*
X84826761Y-2723333D01*
X84398190Y-3294761D02*
X84493428Y-3342380D01*
X84731523Y-3342380D01*
X84826761Y-3294761D01*
X84874380Y-3199523D01*
X84874380Y-3104285D01*
X84826761Y-3009047D01*
X84731523Y-2961428D01*
X84493428Y-2961428D01*
X84398190Y-2913809D01*
X84064857Y-2675714D02*
X83683904Y-2675714D01*
X83922000Y-2342380D02*
X83922000Y-3199523D01*
X83874380Y-3294761D01*
X83779142Y-3342380D01*
X83683904Y-3342380D01*
X82969619Y-3294761D02*
X83064857Y-3342380D01*
X83255333Y-3342380D01*
X83350571Y-3294761D01*
X83398190Y-3199523D01*
X83398190Y-2818571D01*
X83350571Y-2723333D01*
X83255333Y-2675714D01*
X83064857Y-2675714D01*
X82969619Y-2723333D01*
X82922000Y-2818571D01*
X82922000Y-2913809D01*
X83398190Y-3009047D01*
X81826761Y-2675714D02*
X81588666Y-3342380D01*
X81350571Y-2675714D01*
X81017238Y-2437619D02*
X80969619Y-2390000D01*
X80874380Y-2342380D01*
X80636285Y-2342380D01*
X80541047Y-2390000D01*
X80493428Y-2437619D01*
X80445809Y-2532857D01*
X80445809Y-2628095D01*
X80493428Y-2770952D01*
X81064857Y-3342380D01*
X80445809Y-3342380D01*
X80017238Y-3247142D02*
X79969619Y-3294761D01*
X80017238Y-3342380D01*
X80064857Y-3294761D01*
X80017238Y-3247142D01*
X80017238Y-3342380D01*
X79017238Y-3342380D02*
X79588666Y-3342380D01*
X79302952Y-3342380D02*
X79302952Y-2342380D01*
X79398190Y-2485238D01*
X79493428Y-2580476D01*
X79588666Y-2628095D01*
X94874380Y-4200476D02*
X94969619Y-4152857D01*
X95160095Y-4152857D01*
X95255333Y-4200476D01*
X95350571Y-4295714D01*
X95398190Y-4390952D01*
X95398190Y-4581428D01*
X95350571Y-4676666D01*
X95255333Y-4771904D01*
X95160095Y-4819523D01*
X94969619Y-4819523D01*
X94874380Y-4771904D01*
X95064857Y-3819523D02*
X95302952Y-3867142D01*
X95541047Y-4010000D01*
X95683904Y-4248095D01*
X95731523Y-4486190D01*
X95683904Y-4724285D01*
X95541047Y-4962380D01*
X95302952Y-5105238D01*
X95064857Y-5152857D01*
X94826761Y-5105238D01*
X94588666Y-4962380D01*
X94445809Y-4724285D01*
X94398190Y-4486190D01*
X94445809Y-4248095D01*
X94588666Y-4010000D01*
X94826761Y-3867142D01*
X95064857Y-3819523D01*
X93255333Y-4057619D02*
X93207714Y-4010000D01*
X93112476Y-3962380D01*
X92874380Y-3962380D01*
X92779142Y-4010000D01*
X92731523Y-4057619D01*
X92683904Y-4152857D01*
X92683904Y-4248095D01*
X92731523Y-4390952D01*
X93302952Y-4962380D01*
X92683904Y-4962380D01*
X92064857Y-3962380D02*
X91969619Y-3962380D01*
X91874380Y-4010000D01*
X91826761Y-4057619D01*
X91779142Y-4152857D01*
X91731523Y-4343333D01*
X91731523Y-4581428D01*
X91779142Y-4771904D01*
X91826761Y-4867142D01*
X91874380Y-4914761D01*
X91969619Y-4962380D01*
X92064857Y-4962380D01*
X92160095Y-4914761D01*
X92207714Y-4867142D01*
X92255333Y-4771904D01*
X92302952Y-4581428D01*
X92302952Y-4343333D01*
X92255333Y-4152857D01*
X92207714Y-4057619D01*
X92160095Y-4010000D01*
X92064857Y-3962380D01*
X91350571Y-4057619D02*
X91302952Y-4010000D01*
X91207714Y-3962380D01*
X90969619Y-3962380D01*
X90874380Y-4010000D01*
X90826761Y-4057619D01*
X90779142Y-4152857D01*
X90779142Y-4248095D01*
X90826761Y-4390952D01*
X91398190Y-4962380D01*
X90779142Y-4962380D01*
X90160095Y-3962380D02*
X90064857Y-3962380D01*
X89969619Y-4010000D01*
X89922000Y-4057619D01*
X89874380Y-4152857D01*
X89826761Y-4343333D01*
X89826761Y-4581428D01*
X89874380Y-4771904D01*
X89922000Y-4867142D01*
X89969619Y-4914761D01*
X90064857Y-4962380D01*
X90160095Y-4962380D01*
X90255333Y-4914761D01*
X90302952Y-4867142D01*
X90350571Y-4771904D01*
X90398190Y-4581428D01*
X90398190Y-4343333D01*
X90350571Y-4152857D01*
X90302952Y-4057619D01*
X90255333Y-4010000D01*
X90160095Y-3962380D01*
X88683904Y-4914761D02*
X88541047Y-4962380D01*
X88302952Y-4962380D01*
X88207714Y-4914761D01*
X88160095Y-4867142D01*
X88112476Y-4771904D01*
X88112476Y-4676666D01*
X88160095Y-4581428D01*
X88207714Y-4533809D01*
X88302952Y-4486190D01*
X88493428Y-4438571D01*
X88588666Y-4390952D01*
X88636285Y-4343333D01*
X88683904Y-4248095D01*
X88683904Y-4152857D01*
X88636285Y-4057619D01*
X88588666Y-4010000D01*
X88493428Y-3962380D01*
X88255333Y-3962380D01*
X88112476Y-4010000D01*
X87541047Y-4962380D02*
X87636285Y-4914761D01*
X87683904Y-4867142D01*
X87731523Y-4771904D01*
X87731523Y-4486190D01*
X87683904Y-4390952D01*
X87636285Y-4343333D01*
X87541047Y-4295714D01*
X87398190Y-4295714D01*
X87302952Y-4343333D01*
X87255333Y-4390952D01*
X87207714Y-4486190D01*
X87207714Y-4771904D01*
X87255333Y-4867142D01*
X87302952Y-4914761D01*
X87398190Y-4962380D01*
X87541047Y-4962380D01*
X86922000Y-4295714D02*
X86541047Y-4295714D01*
X86779142Y-4962380D02*
X86779142Y-4105238D01*
X86731523Y-4010000D01*
X86636285Y-3962380D01*
X86541047Y-3962380D01*
X86350571Y-4295714D02*
X85969619Y-4295714D01*
X86207714Y-3962380D02*
X86207714Y-4819523D01*
X86160095Y-4914761D01*
X86064857Y-4962380D01*
X85969619Y-4962380D01*
X85255333Y-4914761D02*
X85350571Y-4962380D01*
X85541047Y-4962380D01*
X85636285Y-4914761D01*
X85683904Y-4819523D01*
X85683904Y-4438571D01*
X85636285Y-4343333D01*
X85541047Y-4295714D01*
X85350571Y-4295714D01*
X85255333Y-4343333D01*
X85207714Y-4438571D01*
X85207714Y-4533809D01*
X85683904Y-4629047D01*
X84779142Y-4962380D02*
X84779142Y-4295714D01*
X84779142Y-4486190D02*
X84731523Y-4390952D01*
X84683904Y-4343333D01*
X84588666Y-4295714D01*
X84493428Y-4295714D01*
X84160095Y-4962380D02*
X84160095Y-3962380D01*
X84160095Y-4438571D02*
X83588666Y-4438571D01*
X83588666Y-4962380D02*
X83588666Y-3962380D01*
X82683904Y-4962380D02*
X82683904Y-4438571D01*
X82731523Y-4343333D01*
X82826761Y-4295714D01*
X83017238Y-4295714D01*
X83112476Y-4343333D01*
X82683904Y-4914761D02*
X82779142Y-4962380D01*
X83017238Y-4962380D01*
X83112476Y-4914761D01*
X83160095Y-4819523D01*
X83160095Y-4724285D01*
X83112476Y-4629047D01*
X83017238Y-4581428D01*
X82779142Y-4581428D01*
X82683904Y-4533809D01*
X82207714Y-4962380D02*
X82207714Y-4295714D01*
X82207714Y-4486190D02*
X82160095Y-4390952D01*
X82112476Y-4343333D01*
X82017238Y-4295714D01*
X81922000Y-4295714D01*
X81160095Y-4962380D02*
X81160095Y-3962380D01*
X81160095Y-4914761D02*
X81255333Y-4962380D01*
X81445809Y-4962380D01*
X81541047Y-4914761D01*
X81588666Y-4867142D01*
X81636285Y-4771904D01*
X81636285Y-4486190D01*
X81588666Y-4390952D01*
X81541047Y-4343333D01*
X81445809Y-4295714D01*
X81255333Y-4295714D01*
X81160095Y-4343333D01*
X80779142Y-4295714D02*
X80588666Y-4962380D01*
X80398190Y-4486190D01*
X80207714Y-4962380D01*
X80017238Y-4295714D01*
X79207714Y-4962380D02*
X79207714Y-4438571D01*
X79255333Y-4343333D01*
X79350571Y-4295714D01*
X79541047Y-4295714D01*
X79636285Y-4343333D01*
X79207714Y-4914761D02*
X79302952Y-4962380D01*
X79541047Y-4962380D01*
X79636285Y-4914761D01*
X79683904Y-4819523D01*
X79683904Y-4724285D01*
X79636285Y-4629047D01*
X79541047Y-4581428D01*
X79302952Y-4581428D01*
X79207714Y-4533809D01*
X78731523Y-4962380D02*
X78731523Y-4295714D01*
X78731523Y-4486190D02*
X78683904Y-4390952D01*
X78636285Y-4343333D01*
X78541047Y-4295714D01*
X78445809Y-4295714D01*
X77731523Y-4914761D02*
X77826761Y-4962380D01*
X78017238Y-4962380D01*
X78112476Y-4914761D01*
X78160095Y-4819523D01*
X78160095Y-4438571D01*
X78112476Y-4343333D01*
X78017238Y-4295714D01*
X77826761Y-4295714D01*
X77731523Y-4343333D01*
X77683904Y-4438571D01*
X77683904Y-4533809D01*
X78160095Y-4629047D01*
D11*
X60392000Y-12838000D02*
X59376000Y-12838000D01*
X59376000Y-12838000D02*
X59376000Y-14362000D01*
X59376000Y-14362000D02*
X60392000Y-14362000D01*
X61408000Y-14362000D02*
X62424000Y-14362000D01*
X62424000Y-14362000D02*
X62424000Y-12838000D01*
X62424000Y-12838000D02*
X61408000Y-12838000D01*
X20000000Y-43000000D02*
X20000000Y-12000000D01*
X20000000Y-12000000D02*
X7000000Y-12000000D01*
X7000000Y-12000000D02*
X7000000Y-43000000D01*
X7000000Y-43000000D02*
X20000000Y-43000000D01*
X41859017Y-24550000D02*
G75*
G03X41859017Y-24550000I-559017J0D01*
G01*
X65050000Y-32050000D02*
X63050000Y-32050000D01*
X65050000Y-24550000D02*
X65050000Y-32050000D01*
X63050000Y-24550000D02*
X65050000Y-24550000D01*
X41300000Y-32050000D02*
X43300000Y-32050000D01*
X41300000Y-24550000D02*
X41300000Y-32050000D01*
X43300000Y-24550000D02*
X41300000Y-24550000D01*
X43059017Y-40750000D02*
G75*
G03X43059017Y-40750000I-559017J0D01*
G01*
X66250000Y-48250000D02*
X64250000Y-48250000D01*
X66250000Y-40750000D02*
X66250000Y-48250000D01*
X64250000Y-40750000D02*
X66250000Y-40750000D01*
X42500000Y-48250000D02*
X44500000Y-48250000D01*
X42500000Y-40750000D02*
X42500000Y-48250000D01*
X44500000Y-40750000D02*
X42500000Y-40750000D01*
X36300000Y-34200000D02*
X35600000Y-34200000D01*
X36900000Y-33600000D02*
X36300000Y-34200000D01*
X36900000Y-33000000D02*
X36900000Y-33600000D01*
X40200000Y-33000000D02*
X36900000Y-33000000D01*
X40200000Y-36600000D02*
X40200000Y-33000000D01*
X39300000Y-36600000D02*
X40200000Y-36600000D01*
X39300000Y-37600000D02*
X39300000Y-36600000D01*
X35600000Y-37600000D02*
X39300000Y-37600000D01*
X35600000Y-34200000D02*
X35600000Y-37600000D01*
X42900000Y-35900000D02*
X42900000Y-39300000D01*
X42900000Y-39300000D02*
X46600000Y-39300000D01*
X46600000Y-39300000D02*
X46600000Y-38300000D01*
X46600000Y-38300000D02*
X47500000Y-38300000D01*
X47500000Y-38300000D02*
X47500000Y-34700000D01*
X47500000Y-34700000D02*
X44200000Y-34700000D01*
X44200000Y-34700000D02*
X44200000Y-35300000D01*
X44200000Y-35300000D02*
X43600000Y-35900000D01*
X43600000Y-35900000D02*
X42900000Y-35900000D01*
X50200000Y-35900000D02*
X50200000Y-39300000D01*
X50200000Y-39300000D02*
X53900000Y-39300000D01*
X53900000Y-39300000D02*
X53900000Y-38300000D01*
X53900000Y-38300000D02*
X54800000Y-38300000D01*
X54800000Y-38300000D02*
X54800000Y-34700000D01*
X54800000Y-34700000D02*
X51500000Y-34700000D01*
X51500000Y-34700000D02*
X51500000Y-35300000D01*
X51500000Y-35300000D02*
X50900000Y-35900000D01*
X50900000Y-35900000D02*
X50200000Y-35900000D01*
X58200000Y-35900000D02*
X57500000Y-35900000D01*
X58800000Y-35300000D02*
X58200000Y-35900000D01*
X58800000Y-34700000D02*
X58800000Y-35300000D01*
X62100000Y-34700000D02*
X58800000Y-34700000D01*
X62100000Y-38300000D02*
X62100000Y-34700000D01*
X61200000Y-38300000D02*
X62100000Y-38300000D01*
X61200000Y-39300000D02*
X61200000Y-38300000D01*
X57500000Y-39300000D02*
X61200000Y-39300000D01*
X57500000Y-35900000D02*
X57500000Y-39300000D01*
X64800000Y-35900000D02*
X64800000Y-39300000D01*
X64800000Y-39300000D02*
X68500000Y-39300000D01*
X68500000Y-39300000D02*
X68500000Y-38300000D01*
X68500000Y-38300000D02*
X69400000Y-38300000D01*
X69400000Y-38300000D02*
X69400000Y-34700000D01*
X69400000Y-34700000D02*
X66100000Y-34700000D01*
X66100000Y-34700000D02*
X66100000Y-35300000D01*
X66100000Y-35300000D02*
X65500000Y-35900000D01*
X65500000Y-35900000D02*
X64800000Y-35900000D01*
X33538000Y-36408000D02*
X33538000Y-37424000D01*
X33538000Y-37424000D02*
X35062000Y-37424000D01*
X35062000Y-37424000D02*
X35062000Y-36408000D01*
X35062000Y-35392000D02*
X35062000Y-34376000D01*
X35062000Y-34376000D02*
X33538000Y-34376000D01*
X33538000Y-34376000D02*
X33538000Y-35392000D01*
X40124000Y-31238000D02*
X39108000Y-31238000D01*
X40124000Y-32762000D02*
X40124000Y-31238000D01*
X39108000Y-32762000D02*
X40124000Y-32762000D01*
X37076000Y-32762000D02*
X38092000Y-32762000D01*
X37076000Y-31238000D02*
X37076000Y-32762000D01*
X38092000Y-31238000D02*
X37076000Y-31238000D01*
X40838000Y-38108000D02*
X40838000Y-39124000D01*
X40838000Y-39124000D02*
X42362000Y-39124000D01*
X42362000Y-39124000D02*
X42362000Y-38108000D01*
X42362000Y-37092000D02*
X42362000Y-36076000D01*
X42362000Y-36076000D02*
X40838000Y-36076000D01*
X40838000Y-36076000D02*
X40838000Y-37092000D01*
X47424000Y-32938000D02*
X46408000Y-32938000D01*
X47424000Y-34462000D02*
X47424000Y-32938000D01*
X46408000Y-34462000D02*
X47424000Y-34462000D01*
X44376000Y-34462000D02*
X45392000Y-34462000D01*
X44376000Y-32938000D02*
X44376000Y-34462000D01*
X45392000Y-32938000D02*
X44376000Y-32938000D01*
X48138000Y-38108000D02*
X48138000Y-39124000D01*
X48138000Y-39124000D02*
X49662000Y-39124000D01*
X49662000Y-39124000D02*
X49662000Y-38108000D01*
X49662000Y-37092000D02*
X49662000Y-36076000D01*
X49662000Y-36076000D02*
X48138000Y-36076000D01*
X48138000Y-36076000D02*
X48138000Y-37092000D01*
X54724000Y-32938000D02*
X53708000Y-32938000D01*
X54724000Y-34462000D02*
X54724000Y-32938000D01*
X53708000Y-34462000D02*
X54724000Y-34462000D01*
X51676000Y-34462000D02*
X52692000Y-34462000D01*
X51676000Y-32938000D02*
X51676000Y-34462000D01*
X52692000Y-32938000D02*
X51676000Y-32938000D01*
X55438000Y-38108000D02*
X55438000Y-39124000D01*
X55438000Y-39124000D02*
X56962000Y-39124000D01*
X56962000Y-39124000D02*
X56962000Y-38108000D01*
X56962000Y-37092000D02*
X56962000Y-36076000D01*
X56962000Y-36076000D02*
X55438000Y-36076000D01*
X55438000Y-36076000D02*
X55438000Y-37092000D01*
X62024000Y-32938000D02*
X61008000Y-32938000D01*
X62024000Y-34462000D02*
X62024000Y-32938000D01*
X61008000Y-34462000D02*
X62024000Y-34462000D01*
X58976000Y-34462000D02*
X59992000Y-34462000D01*
X58976000Y-32938000D02*
X58976000Y-34462000D01*
X59992000Y-32938000D02*
X58976000Y-32938000D01*
X62738000Y-38108000D02*
X62738000Y-39124000D01*
X62738000Y-39124000D02*
X64262000Y-39124000D01*
X64262000Y-39124000D02*
X64262000Y-38108000D01*
X64262000Y-37092000D02*
X64262000Y-36076000D01*
X64262000Y-36076000D02*
X62738000Y-36076000D01*
X62738000Y-36076000D02*
X62738000Y-37092000D01*
X69324000Y-32938000D02*
X68308000Y-32938000D01*
X69324000Y-34462000D02*
X69324000Y-32938000D01*
X68308000Y-34462000D02*
X69324000Y-34462000D01*
X66276000Y-34462000D02*
X67292000Y-34462000D01*
X66276000Y-32938000D02*
X66276000Y-34462000D01*
X67292000Y-32938000D02*
X66276000Y-32938000D01*
X65808000Y-14362000D02*
X66824000Y-14362000D01*
X66824000Y-14362000D02*
X66824000Y-12838000D01*
X66824000Y-12838000D02*
X65808000Y-12838000D01*
X64792000Y-12838000D02*
X63776000Y-12838000D01*
X63776000Y-12838000D02*
X63776000Y-14362000D01*
X63776000Y-14362000D02*
X64792000Y-14362000D01*
X31308000Y-36262000D02*
X32324000Y-36262000D01*
X32324000Y-36262000D02*
X32324000Y-34738000D01*
X32324000Y-34738000D02*
X31308000Y-34738000D01*
X30292000Y-34738000D02*
X29276000Y-34738000D01*
X29276000Y-34738000D02*
X29276000Y-36262000D01*
X29276000Y-36262000D02*
X30292000Y-36262000D01*
X67262000Y-25192000D02*
X67262000Y-24176000D01*
X67262000Y-24176000D02*
X65738000Y-24176000D01*
X65738000Y-24176000D02*
X65738000Y-25192000D01*
X65738000Y-26208000D02*
X65738000Y-27224000D01*
X65738000Y-27224000D02*
X67262000Y-27224000D01*
X67262000Y-27224000D02*
X67262000Y-26208000D01*
X59676000Y-22962000D02*
X60692000Y-22962000D01*
X59676000Y-21438000D02*
X59676000Y-22962000D01*
X60692000Y-21438000D02*
X59676000Y-21438000D01*
X62724000Y-21438000D02*
X61708000Y-21438000D01*
X62724000Y-22962000D02*
X62724000Y-21438000D01*
X61708000Y-22962000D02*
X62724000Y-22962000D01*
D10*
X67150000Y-21500000D02*
X67150000Y-23200000D01*
X64650000Y-21500000D02*
X65950000Y-21500000D01*
X63450000Y-16700000D02*
X63300000Y-16700000D01*
X63300000Y-16700000D02*
X63300000Y-21500000D01*
X63300000Y-21500000D02*
X63450000Y-21500000D01*
X67150000Y-21500000D02*
X67300000Y-21500000D01*
X67300000Y-21500000D02*
X67300000Y-16700000D01*
X67300000Y-16700000D02*
X67150000Y-16700000D01*
D11*
X70000000Y-47500000D02*
G75*
G03X72000000Y-49500000I2000000J0D01*
G01*
X72000000Y-19500000D02*
G75*
G03X70000000Y-21500000I0J-2000000D01*
G01*
X100000000Y-21500000D02*
G75*
G03X98000000Y-19500000I-2000000J0D01*
G01*
X98000000Y-49500000D02*
G75*
G03X100000000Y-47500000I0J2000000D01*
G01*
X98000000Y-49500000D02*
X72000000Y-49500000D01*
X100000000Y-21500000D02*
X100000000Y-47500000D01*
X72000000Y-19500000D02*
X98000000Y-19500000D01*
X70000000Y-47500000D02*
X70000000Y-21500000D01*
X28838000Y-32508000D02*
X28838000Y-33524000D01*
X28838000Y-33524000D02*
X30362000Y-33524000D01*
X30362000Y-33524000D02*
X30362000Y-32508000D01*
X30362000Y-31492000D02*
X30362000Y-30476000D01*
X30362000Y-30476000D02*
X28838000Y-30476000D01*
X28838000Y-30476000D02*
X28838000Y-31492000D01*
X31100000Y-24500000D02*
X31100000Y-24750000D01*
X31100000Y-24750000D02*
X39100000Y-24750000D01*
X39100000Y-24750000D02*
X39100000Y-24500000D01*
X31100000Y-20000000D02*
X31100000Y-19750000D01*
X31100000Y-19750000D02*
X39100000Y-19750000D01*
X39100000Y-19750000D02*
X39100000Y-20000000D01*
X34800000Y-28400000D02*
X34800000Y-25200000D01*
X34800000Y-25200000D02*
X38000000Y-25200000D01*
X38000000Y-25200000D02*
X38000000Y-28400000D01*
X38000000Y-28400000D02*
X34800000Y-28400000D01*
X31100000Y-28400000D02*
X31100000Y-25200000D01*
X34300000Y-28400000D02*
X31100000Y-28400000D01*
X34300000Y-25200000D02*
X34300000Y-28400000D01*
X31100000Y-25200000D02*
X34300000Y-25200000D01*
X34124000Y-29138000D02*
X33108000Y-29138000D01*
X34124000Y-30662000D02*
X34124000Y-29138000D01*
X33108000Y-30662000D02*
X34124000Y-30662000D01*
X31076000Y-30662000D02*
X32092000Y-30662000D01*
X31076000Y-29138000D02*
X31076000Y-30662000D01*
X32092000Y-29138000D02*
X31076000Y-29138000D01*
X41362000Y-21192000D02*
X41362000Y-20176000D01*
X41362000Y-20176000D02*
X39838000Y-20176000D01*
X39838000Y-20176000D02*
X39838000Y-21192000D01*
X39838000Y-22208000D02*
X39838000Y-23224000D01*
X39838000Y-23224000D02*
X41362000Y-23224000D01*
X41362000Y-23224000D02*
X41362000Y-22208000D01*
X69762000Y-46592000D02*
X69762000Y-45576000D01*
X69762000Y-45576000D02*
X68238000Y-45576000D01*
X68238000Y-45576000D02*
X68238000Y-46592000D01*
X68238000Y-47608000D02*
X68238000Y-48624000D01*
X68238000Y-48624000D02*
X69762000Y-48624000D01*
X69762000Y-48624000D02*
X69762000Y-47608000D01*
X39362000Y-48424000D02*
X39362000Y-47408000D01*
X37838000Y-48424000D02*
X39362000Y-48424000D01*
X37838000Y-47408000D02*
X37838000Y-48424000D01*
X37838000Y-45376000D02*
X37838000Y-46392000D01*
X39362000Y-45376000D02*
X37838000Y-45376000D01*
X39362000Y-46392000D02*
X39362000Y-45376000D01*
X67962000Y-40792000D02*
X67962000Y-39776000D01*
X67962000Y-39776000D02*
X66438000Y-39776000D01*
X66438000Y-39776000D02*
X66438000Y-40792000D01*
X66438000Y-41808000D02*
X66438000Y-42824000D01*
X66438000Y-42824000D02*
X67962000Y-42824000D01*
X67962000Y-42824000D02*
X67962000Y-41808000D01*
X68238000Y-41676000D02*
X68238000Y-42692000D01*
X69762000Y-41676000D02*
X68238000Y-41676000D01*
X69762000Y-42692000D02*
X69762000Y-41676000D01*
X69762000Y-44724000D02*
X69762000Y-43708000D01*
X68238000Y-44724000D02*
X69762000Y-44724000D01*
X68238000Y-43708000D02*
X68238000Y-44724000D01*
X39362000Y-45124000D02*
X39362000Y-44108000D01*
X37838000Y-45124000D02*
X39362000Y-45124000D01*
X37838000Y-44108000D02*
X37838000Y-45124000D01*
X37838000Y-42076000D02*
X37838000Y-43092000D01*
X39362000Y-42076000D02*
X37838000Y-42076000D01*
X39362000Y-43092000D02*
X39362000Y-42076000D01*
X39738000Y-42208000D02*
X39738000Y-43224000D01*
X39738000Y-43224000D02*
X41262000Y-43224000D01*
X41262000Y-43224000D02*
X41262000Y-42208000D01*
X41262000Y-41192000D02*
X41262000Y-40176000D01*
X41262000Y-40176000D02*
X39738000Y-40176000D01*
X39738000Y-40176000D02*
X39738000Y-41192000D01*
D12*
G36*
X75695480Y-4496620D02*
G01*
X75705640Y-4491540D01*
X75728500Y-4476300D01*
X75761520Y-4455980D01*
X75802160Y-4428040D01*
X75840260Y-4402640D01*
X75873280Y-4379780D01*
X75896140Y-4364540D01*
X75906300Y-4359460D01*
X75911380Y-4362000D01*
X75929160Y-4372160D01*
X75957100Y-4384860D01*
X75972340Y-4392480D01*
X75997740Y-4405180D01*
X76010440Y-4407720D01*
X76012980Y-4402640D01*
X76023140Y-4384860D01*
X76035840Y-4351840D01*
X76056160Y-4308660D01*
X76076480Y-4257860D01*
X76099340Y-4201980D01*
X76122200Y-4146100D01*
X76145060Y-4092760D01*
X76165380Y-4044500D01*
X76180620Y-4006400D01*
X76190780Y-3978460D01*
X76195860Y-3968300D01*
X76193320Y-3965760D01*
X76180620Y-3953060D01*
X76160300Y-3937820D01*
X76112040Y-3897180D01*
X76066320Y-3838760D01*
X76035840Y-3772720D01*
X76028220Y-3699060D01*
X76035840Y-3633020D01*
X76061240Y-3569520D01*
X76106960Y-3508560D01*
X76162840Y-3465380D01*
X76228880Y-3437440D01*
X76300000Y-3429820D01*
X76368580Y-3437440D01*
X76434620Y-3462840D01*
X76495580Y-3508560D01*
X76518440Y-3536500D01*
X76554000Y-3597460D01*
X76574320Y-3658420D01*
X76574320Y-3673660D01*
X76571780Y-3744780D01*
X76551460Y-3813360D01*
X76515900Y-3871780D01*
X76462560Y-3922580D01*
X76457480Y-3927660D01*
X76432080Y-3945440D01*
X76416840Y-3955600D01*
X76404140Y-3965760D01*
X76493040Y-4181660D01*
X76508280Y-4217220D01*
X76533680Y-4275640D01*
X76554000Y-4326440D01*
X76571780Y-4367080D01*
X76584480Y-4392480D01*
X76589560Y-4405180D01*
X76597180Y-4405180D01*
X76612420Y-4400100D01*
X76642900Y-4384860D01*
X76663220Y-4374700D01*
X76686080Y-4364540D01*
X76696240Y-4359460D01*
X76706400Y-4364540D01*
X76726720Y-4379780D01*
X76759740Y-4400100D01*
X76797840Y-4425500D01*
X76833400Y-4450900D01*
X76868960Y-4473760D01*
X76891820Y-4489000D01*
X76904520Y-4496620D01*
X76907060Y-4496620D01*
X76917220Y-4489000D01*
X76937540Y-4473760D01*
X76965480Y-4445820D01*
X77006120Y-4405180D01*
X77013740Y-4400100D01*
X77046760Y-4364540D01*
X77074700Y-4334060D01*
X77095020Y-4313740D01*
X77100100Y-4306120D01*
X77095020Y-4293420D01*
X77079780Y-4268020D01*
X77056920Y-4235000D01*
X77028980Y-4194360D01*
X76957860Y-4090220D01*
X76998500Y-3993700D01*
X77008660Y-3963220D01*
X77023900Y-3927660D01*
X77036600Y-3902260D01*
X77041680Y-3889560D01*
X77051840Y-3887020D01*
X77079780Y-3879400D01*
X77117880Y-3871780D01*
X77163600Y-3864160D01*
X77209320Y-3854000D01*
X77247420Y-3846380D01*
X77277900Y-3841300D01*
X77290600Y-3838760D01*
X77293140Y-3836220D01*
X77295680Y-3831140D01*
X77298220Y-3818440D01*
X77298220Y-3793040D01*
X77298220Y-3754940D01*
X77298220Y-3699060D01*
X77298220Y-3693980D01*
X77298220Y-3640640D01*
X77298220Y-3600000D01*
X77295680Y-3574600D01*
X77293140Y-3564440D01*
X77280440Y-3559360D01*
X77252500Y-3554280D01*
X77214400Y-3546660D01*
X77166140Y-3536500D01*
X77163600Y-3536500D01*
X77115340Y-3528880D01*
X77077240Y-3518720D01*
X77049300Y-3513640D01*
X77036600Y-3508560D01*
X77034060Y-3506020D01*
X77023900Y-3488240D01*
X77011200Y-3457760D01*
X76995960Y-3422200D01*
X76980720Y-3386640D01*
X76965480Y-3351080D01*
X76957860Y-3328220D01*
X76955320Y-3315520D01*
X76962940Y-3305360D01*
X76978180Y-3279960D01*
X77001040Y-3246940D01*
X77028980Y-3206300D01*
X77031520Y-3201220D01*
X77059460Y-3163120D01*
X77079780Y-3127560D01*
X77095020Y-3104700D01*
X77100100Y-3094540D01*
X77100100Y-3092000D01*
X77092480Y-3081840D01*
X77072160Y-3058980D01*
X77041680Y-3028500D01*
X77006120Y-2992940D01*
X76995960Y-2982780D01*
X76957860Y-2944680D01*
X76929920Y-2919280D01*
X76912140Y-2906580D01*
X76904520Y-2901500D01*
X76904520Y-2904040D01*
X76891820Y-2909120D01*
X76866420Y-2926900D01*
X76833400Y-2949760D01*
X76792760Y-2977700D01*
X76790220Y-2980240D01*
X76749580Y-3005640D01*
X76716560Y-3028500D01*
X76693700Y-3043740D01*
X76683540Y-3051360D01*
X76681000Y-3051360D01*
X76665760Y-3046280D01*
X76635280Y-3036120D01*
X76602260Y-3023420D01*
X76564160Y-3008180D01*
X76531140Y-2992940D01*
X76505740Y-2982780D01*
X76493040Y-2975160D01*
X76487960Y-2959920D01*
X76482880Y-2929440D01*
X76472720Y-2888800D01*
X76465100Y-2840540D01*
X76462560Y-2832920D01*
X76454940Y-2784660D01*
X76447320Y-2746560D01*
X76439700Y-2718620D01*
X76437160Y-2705920D01*
X76432080Y-2705920D01*
X76406680Y-2703380D01*
X76371120Y-2703380D01*
X76327940Y-2703380D01*
X76284760Y-2703380D01*
X76241580Y-2703380D01*
X76203480Y-2705920D01*
X76178080Y-2705920D01*
X76165380Y-2708460D01*
X76165380Y-2711000D01*
X76160300Y-2723700D01*
X76155220Y-2754180D01*
X76145060Y-2794820D01*
X76137440Y-2845620D01*
X76134900Y-2853240D01*
X76127280Y-2901500D01*
X76117120Y-2939600D01*
X76112040Y-2967540D01*
X76109500Y-2977700D01*
X76104420Y-2980240D01*
X76086640Y-2987860D01*
X76053620Y-3000560D01*
X76012980Y-3018340D01*
X75921540Y-3053900D01*
X75809780Y-2977700D01*
X75799620Y-2970080D01*
X75758980Y-2942140D01*
X75725960Y-2921820D01*
X75703100Y-2906580D01*
X75692940Y-2901500D01*
X75682780Y-2911660D01*
X75659920Y-2931980D01*
X75629440Y-2962460D01*
X75593880Y-2995480D01*
X75568480Y-3023420D01*
X75538000Y-3053900D01*
X75517680Y-3074220D01*
X75507520Y-3089460D01*
X75502440Y-3097080D01*
X75504980Y-3102160D01*
X75510060Y-3114860D01*
X75527840Y-3137720D01*
X75550700Y-3173280D01*
X75578640Y-3211380D01*
X75601500Y-3246940D01*
X75624360Y-3282500D01*
X75639600Y-3310440D01*
X75647220Y-3323140D01*
X75644680Y-3328220D01*
X75637060Y-3351080D01*
X75624360Y-3384100D01*
X75606580Y-3424740D01*
X75568480Y-3513640D01*
X75510060Y-3523800D01*
X75474500Y-3531420D01*
X75423700Y-3539040D01*
X75377980Y-3549200D01*
X75304320Y-3564440D01*
X75301780Y-3831140D01*
X75311940Y-3836220D01*
X75324640Y-3841300D01*
X75350040Y-3846380D01*
X75390680Y-3854000D01*
X75436400Y-3861620D01*
X75474500Y-3869240D01*
X75515140Y-3876860D01*
X75543080Y-3881940D01*
X75555780Y-3884480D01*
X75558320Y-3889560D01*
X75568480Y-3909880D01*
X75583720Y-3940360D01*
X75598960Y-3975920D01*
X75614200Y-4014020D01*
X75626900Y-4049580D01*
X75637060Y-4074980D01*
X75642140Y-4090220D01*
X75637060Y-4100380D01*
X75621820Y-4123240D01*
X75598960Y-4156260D01*
X75573560Y-4194360D01*
X75545620Y-4235000D01*
X75522760Y-4268020D01*
X75507520Y-4293420D01*
X75499900Y-4303580D01*
X75504980Y-4311200D01*
X75520220Y-4328980D01*
X75548160Y-4359460D01*
X75593880Y-4405180D01*
X75601500Y-4410260D01*
X75634520Y-4445820D01*
X75665000Y-4471220D01*
X75685320Y-4491540D01*
X75695480Y-4496620D01*
G37*
X75695480Y-4496620D02*
X75705640Y-4491540D01*
X75728500Y-4476300D01*
X75761520Y-4455980D01*
X75802160Y-4428040D01*
X75840260Y-4402640D01*
X75873280Y-4379780D01*
X75896140Y-4364540D01*
X75906300Y-4359460D01*
X75911380Y-4362000D01*
X75929160Y-4372160D01*
X75957100Y-4384860D01*
X75972340Y-4392480D01*
X75997740Y-4405180D01*
X76010440Y-4407720D01*
X76012980Y-4402640D01*
X76023140Y-4384860D01*
X76035840Y-4351840D01*
X76056160Y-4308660D01*
X76076480Y-4257860D01*
X76099340Y-4201980D01*
X76122200Y-4146100D01*
X76145060Y-4092760D01*
X76165380Y-4044500D01*
X76180620Y-4006400D01*
X76190780Y-3978460D01*
X76195860Y-3968300D01*
X76193320Y-3965760D01*
X76180620Y-3953060D01*
X76160300Y-3937820D01*
X76112040Y-3897180D01*
X76066320Y-3838760D01*
X76035840Y-3772720D01*
X76028220Y-3699060D01*
X76035840Y-3633020D01*
X76061240Y-3569520D01*
X76106960Y-3508560D01*
X76162840Y-3465380D01*
X76228880Y-3437440D01*
X76300000Y-3429820D01*
X76368580Y-3437440D01*
X76434620Y-3462840D01*
X76495580Y-3508560D01*
X76518440Y-3536500D01*
X76554000Y-3597460D01*
X76574320Y-3658420D01*
X76574320Y-3673660D01*
X76571780Y-3744780D01*
X76551460Y-3813360D01*
X76515900Y-3871780D01*
X76462560Y-3922580D01*
X76457480Y-3927660D01*
X76432080Y-3945440D01*
X76416840Y-3955600D01*
X76404140Y-3965760D01*
X76493040Y-4181660D01*
X76508280Y-4217220D01*
X76533680Y-4275640D01*
X76554000Y-4326440D01*
X76571780Y-4367080D01*
X76584480Y-4392480D01*
X76589560Y-4405180D01*
X76597180Y-4405180D01*
X76612420Y-4400100D01*
X76642900Y-4384860D01*
X76663220Y-4374700D01*
X76686080Y-4364540D01*
X76696240Y-4359460D01*
X76706400Y-4364540D01*
X76726720Y-4379780D01*
X76759740Y-4400100D01*
X76797840Y-4425500D01*
X76833400Y-4450900D01*
X76868960Y-4473760D01*
X76891820Y-4489000D01*
X76904520Y-4496620D01*
X76907060Y-4496620D01*
X76917220Y-4489000D01*
X76937540Y-4473760D01*
X76965480Y-4445820D01*
X77006120Y-4405180D01*
X77013740Y-4400100D01*
X77046760Y-4364540D01*
X77074700Y-4334060D01*
X77095020Y-4313740D01*
X77100100Y-4306120D01*
X77095020Y-4293420D01*
X77079780Y-4268020D01*
X77056920Y-4235000D01*
X77028980Y-4194360D01*
X76957860Y-4090220D01*
X76998500Y-3993700D01*
X77008660Y-3963220D01*
X77023900Y-3927660D01*
X77036600Y-3902260D01*
X77041680Y-3889560D01*
X77051840Y-3887020D01*
X77079780Y-3879400D01*
X77117880Y-3871780D01*
X77163600Y-3864160D01*
X77209320Y-3854000D01*
X77247420Y-3846380D01*
X77277900Y-3841300D01*
X77290600Y-3838760D01*
X77293140Y-3836220D01*
X77295680Y-3831140D01*
X77298220Y-3818440D01*
X77298220Y-3793040D01*
X77298220Y-3754940D01*
X77298220Y-3699060D01*
X77298220Y-3693980D01*
X77298220Y-3640640D01*
X77298220Y-3600000D01*
X77295680Y-3574600D01*
X77293140Y-3564440D01*
X77280440Y-3559360D01*
X77252500Y-3554280D01*
X77214400Y-3546660D01*
X77166140Y-3536500D01*
X77163600Y-3536500D01*
X77115340Y-3528880D01*
X77077240Y-3518720D01*
X77049300Y-3513640D01*
X77036600Y-3508560D01*
X77034060Y-3506020D01*
X77023900Y-3488240D01*
X77011200Y-3457760D01*
X76995960Y-3422200D01*
X76980720Y-3386640D01*
X76965480Y-3351080D01*
X76957860Y-3328220D01*
X76955320Y-3315520D01*
X76962940Y-3305360D01*
X76978180Y-3279960D01*
X77001040Y-3246940D01*
X77028980Y-3206300D01*
X77031520Y-3201220D01*
X77059460Y-3163120D01*
X77079780Y-3127560D01*
X77095020Y-3104700D01*
X77100100Y-3094540D01*
X77100100Y-3092000D01*
X77092480Y-3081840D01*
X77072160Y-3058980D01*
X77041680Y-3028500D01*
X77006120Y-2992940D01*
X76995960Y-2982780D01*
X76957860Y-2944680D01*
X76929920Y-2919280D01*
X76912140Y-2906580D01*
X76904520Y-2901500D01*
X76904520Y-2904040D01*
X76891820Y-2909120D01*
X76866420Y-2926900D01*
X76833400Y-2949760D01*
X76792760Y-2977700D01*
X76790220Y-2980240D01*
X76749580Y-3005640D01*
X76716560Y-3028500D01*
X76693700Y-3043740D01*
X76683540Y-3051360D01*
X76681000Y-3051360D01*
X76665760Y-3046280D01*
X76635280Y-3036120D01*
X76602260Y-3023420D01*
X76564160Y-3008180D01*
X76531140Y-2992940D01*
X76505740Y-2982780D01*
X76493040Y-2975160D01*
X76487960Y-2959920D01*
X76482880Y-2929440D01*
X76472720Y-2888800D01*
X76465100Y-2840540D01*
X76462560Y-2832920D01*
X76454940Y-2784660D01*
X76447320Y-2746560D01*
X76439700Y-2718620D01*
X76437160Y-2705920D01*
X76432080Y-2705920D01*
X76406680Y-2703380D01*
X76371120Y-2703380D01*
X76327940Y-2703380D01*
X76284760Y-2703380D01*
X76241580Y-2703380D01*
X76203480Y-2705920D01*
X76178080Y-2705920D01*
X76165380Y-2708460D01*
X76165380Y-2711000D01*
X76160300Y-2723700D01*
X76155220Y-2754180D01*
X76145060Y-2794820D01*
X76137440Y-2845620D01*
X76134900Y-2853240D01*
X76127280Y-2901500D01*
X76117120Y-2939600D01*
X76112040Y-2967540D01*
X76109500Y-2977700D01*
X76104420Y-2980240D01*
X76086640Y-2987860D01*
X76053620Y-3000560D01*
X76012980Y-3018340D01*
X75921540Y-3053900D01*
X75809780Y-2977700D01*
X75799620Y-2970080D01*
X75758980Y-2942140D01*
X75725960Y-2921820D01*
X75703100Y-2906580D01*
X75692940Y-2901500D01*
X75682780Y-2911660D01*
X75659920Y-2931980D01*
X75629440Y-2962460D01*
X75593880Y-2995480D01*
X75568480Y-3023420D01*
X75538000Y-3053900D01*
X75517680Y-3074220D01*
X75507520Y-3089460D01*
X75502440Y-3097080D01*
X75504980Y-3102160D01*
X75510060Y-3114860D01*
X75527840Y-3137720D01*
X75550700Y-3173280D01*
X75578640Y-3211380D01*
X75601500Y-3246940D01*
X75624360Y-3282500D01*
X75639600Y-3310440D01*
X75647220Y-3323140D01*
X75644680Y-3328220D01*
X75637060Y-3351080D01*
X75624360Y-3384100D01*
X75606580Y-3424740D01*
X75568480Y-3513640D01*
X75510060Y-3523800D01*
X75474500Y-3531420D01*
X75423700Y-3539040D01*
X75377980Y-3549200D01*
X75304320Y-3564440D01*
X75301780Y-3831140D01*
X75311940Y-3836220D01*
X75324640Y-3841300D01*
X75350040Y-3846380D01*
X75390680Y-3854000D01*
X75436400Y-3861620D01*
X75474500Y-3869240D01*
X75515140Y-3876860D01*
X75543080Y-3881940D01*
X75555780Y-3884480D01*
X75558320Y-3889560D01*
X75568480Y-3909880D01*
X75583720Y-3940360D01*
X75598960Y-3975920D01*
X75614200Y-4014020D01*
X75626900Y-4049580D01*
X75637060Y-4074980D01*
X75642140Y-4090220D01*
X75637060Y-4100380D01*
X75621820Y-4123240D01*
X75598960Y-4156260D01*
X75573560Y-4194360D01*
X75545620Y-4235000D01*
X75522760Y-4268020D01*
X75507520Y-4293420D01*
X75499900Y-4303580D01*
X75504980Y-4311200D01*
X75520220Y-4328980D01*
X75548160Y-4359460D01*
X75593880Y-4405180D01*
X75601500Y-4410260D01*
X75634520Y-4445820D01*
X75665000Y-4471220D01*
X75685320Y-4491540D01*
X75695480Y-4496620D01*
D11*
X44962000Y-23124000D02*
X44962000Y-22108000D01*
X43438000Y-23124000D02*
X44962000Y-23124000D01*
X43438000Y-22108000D02*
X43438000Y-23124000D01*
X43438000Y-20076000D02*
X43438000Y-21092000D01*
X44962000Y-20076000D02*
X43438000Y-20076000D01*
X44962000Y-21092000D02*
X44962000Y-20076000D01*
X47608000Y-23362000D02*
X48624000Y-23362000D01*
X48624000Y-23362000D02*
X48624000Y-21838000D01*
X48624000Y-21838000D02*
X47608000Y-21838000D01*
X46592000Y-21838000D02*
X45576000Y-21838000D01*
X45576000Y-21838000D02*
X45576000Y-23362000D01*
X45576000Y-23362000D02*
X46592000Y-23362000D01*
D13*
X29995238Y-51652380D02*
X30328571Y-51176190D01*
X30566666Y-51652380D02*
X30566666Y-50652380D01*
X30185714Y-50652380D01*
X30090476Y-50700000D01*
X30042857Y-50747619D01*
X29995238Y-50842857D01*
X29995238Y-50985714D01*
X30042857Y-51080952D01*
X30090476Y-51128571D01*
X30185714Y-51176190D01*
X30566666Y-51176190D01*
X29233333Y-51128571D02*
X29566666Y-51128571D01*
X29566666Y-51652380D02*
X29566666Y-50652380D01*
X29090476Y-50652380D01*
X28804761Y-50652380D02*
X28185714Y-50652380D01*
X28519047Y-51033333D01*
X28376190Y-51033333D01*
X28280952Y-51080952D01*
X28233333Y-51128571D01*
X28185714Y-51223809D01*
X28185714Y-51461904D01*
X28233333Y-51557142D01*
X28280952Y-51604761D01*
X28376190Y-51652380D01*
X28661904Y-51652380D01*
X28757142Y-51604761D01*
X28804761Y-51557142D01*
D11*
X58566666Y-13542857D02*
X58833333Y-13542857D01*
X58833333Y-13961904D02*
X58833333Y-13161904D01*
X58452380Y-13161904D01*
X57880952Y-13542857D02*
X57766666Y-13580952D01*
X57728571Y-13619047D01*
X57690476Y-13695238D01*
X57690476Y-13809523D01*
X57728571Y-13885714D01*
X57766666Y-13923809D01*
X57842857Y-13961904D01*
X58147619Y-13961904D01*
X58147619Y-13161904D01*
X57880952Y-13161904D01*
X57804761Y-13200000D01*
X57766666Y-13238095D01*
X57728571Y-13314285D01*
X57728571Y-13390476D01*
X57766666Y-13466666D01*
X57804761Y-13504761D01*
X57880952Y-13542857D01*
X58147619Y-13542857D01*
X56928571Y-13961904D02*
X57385714Y-13961904D01*
X57157142Y-13961904D02*
X57157142Y-13161904D01*
X57233333Y-13276190D01*
X57309523Y-13352380D01*
X57385714Y-13390476D01*
X5733333Y-39628571D02*
X5733333Y-40009523D01*
X5961904Y-39552380D02*
X5161904Y-39819047D01*
X5961904Y-40085714D01*
X5885714Y-40809523D02*
X5923809Y-40771428D01*
X5961904Y-40657142D01*
X5961904Y-40580952D01*
X5923809Y-40466666D01*
X5847619Y-40390476D01*
X5771428Y-40352380D01*
X5619047Y-40314285D01*
X5504761Y-40314285D01*
X5352380Y-40352380D01*
X5276190Y-40390476D01*
X5200000Y-40466666D01*
X5161904Y-40580952D01*
X5161904Y-40657142D01*
X5200000Y-40771428D01*
X5238095Y-40809523D01*
X5885714Y-41609523D02*
X5923809Y-41571428D01*
X5961904Y-41457142D01*
X5961904Y-41380952D01*
X5923809Y-41266666D01*
X5847619Y-41190476D01*
X5771428Y-41152380D01*
X5619047Y-41114285D01*
X5504761Y-41114285D01*
X5352380Y-41152380D01*
X5276190Y-41190476D01*
X5200000Y-41266666D01*
X5161904Y-41380952D01*
X5161904Y-41457142D01*
X5200000Y-41571428D01*
X5238095Y-41609523D01*
X5238095Y-41914285D02*
X5200000Y-41952380D01*
X5161904Y-42028571D01*
X5161904Y-42219047D01*
X5200000Y-42295238D01*
X5238095Y-42333333D01*
X5314285Y-42371428D01*
X5390476Y-42371428D01*
X5504761Y-42333333D01*
X5961904Y-41876190D01*
X5961904Y-42371428D01*
X42571428Y-52233333D02*
X42190476Y-52233333D01*
X42647619Y-52461904D02*
X42380952Y-51661904D01*
X42114285Y-52461904D01*
X41390476Y-52385714D02*
X41428571Y-52423809D01*
X41542857Y-52461904D01*
X41619047Y-52461904D01*
X41733333Y-52423809D01*
X41809523Y-52347619D01*
X41847619Y-52271428D01*
X41885714Y-52119047D01*
X41885714Y-52004761D01*
X41847619Y-51852380D01*
X41809523Y-51776190D01*
X41733333Y-51700000D01*
X41619047Y-51661904D01*
X41542857Y-51661904D01*
X41428571Y-51700000D01*
X41390476Y-51738095D01*
X40590476Y-52385714D02*
X40628571Y-52423809D01*
X40742857Y-52461904D01*
X40819047Y-52461904D01*
X40933333Y-52423809D01*
X41009523Y-52347619D01*
X41047619Y-52271428D01*
X41085714Y-52119047D01*
X41085714Y-52004761D01*
X41047619Y-51852380D01*
X41009523Y-51776190D01*
X40933333Y-51700000D01*
X40819047Y-51661904D01*
X40742857Y-51661904D01*
X40628571Y-51700000D01*
X40590476Y-51738095D01*
X39828571Y-52461904D02*
X40285714Y-52461904D01*
X40057142Y-52461904D02*
X40057142Y-51661904D01*
X40133333Y-51776190D01*
X40209523Y-51852380D01*
X40285714Y-51890476D01*
X42766666Y-23361904D02*
X42766666Y-23933333D01*
X42804761Y-24047619D01*
X42880952Y-24123809D01*
X42995238Y-24161904D01*
X43071428Y-24161904D01*
X42423809Y-23438095D02*
X42385714Y-23400000D01*
X42309523Y-23361904D01*
X42119047Y-23361904D01*
X42042857Y-23400000D01*
X42004761Y-23438095D01*
X41966666Y-23514285D01*
X41966666Y-23590476D01*
X42004761Y-23704761D01*
X42461904Y-24161904D01*
X41966666Y-24161904D01*
X67366666Y-47661904D02*
X67366666Y-48233333D01*
X67404761Y-48347619D01*
X67480952Y-48423809D01*
X67595238Y-48461904D01*
X67671428Y-48461904D01*
X67061904Y-47661904D02*
X66566666Y-47661904D01*
X66833333Y-47966666D01*
X66719047Y-47966666D01*
X66642857Y-48004761D01*
X66604761Y-48042857D01*
X66566666Y-48119047D01*
X66566666Y-48309523D01*
X66604761Y-48385714D01*
X66642857Y-48423809D01*
X66719047Y-48461904D01*
X66947619Y-48461904D01*
X67023809Y-48423809D01*
X67061904Y-48385714D01*
X35976190Y-33438095D02*
X36052380Y-33400000D01*
X36128571Y-33323809D01*
X36242857Y-33209523D01*
X36319047Y-33171428D01*
X36395238Y-33171428D01*
X36357142Y-33361904D02*
X36433333Y-33323809D01*
X36509523Y-33247619D01*
X36547619Y-33095238D01*
X36547619Y-32828571D01*
X36509523Y-32676190D01*
X36433333Y-32600000D01*
X36357142Y-32561904D01*
X36204761Y-32561904D01*
X36128571Y-32600000D01*
X36052380Y-32676190D01*
X36014285Y-32828571D01*
X36014285Y-33095238D01*
X36052380Y-33247619D01*
X36128571Y-33323809D01*
X36204761Y-33361904D01*
X36357142Y-33361904D01*
X35747619Y-32561904D02*
X35252380Y-32561904D01*
X35519047Y-32866666D01*
X35404761Y-32866666D01*
X35328571Y-32904761D01*
X35290476Y-32942857D01*
X35252380Y-33019047D01*
X35252380Y-33209523D01*
X35290476Y-33285714D01*
X35328571Y-33323809D01*
X35404761Y-33361904D01*
X35633333Y-33361904D01*
X35709523Y-33323809D01*
X35747619Y-33285714D01*
X43276190Y-35138095D02*
X43352380Y-35100000D01*
X43428571Y-35023809D01*
X43542857Y-34909523D01*
X43619047Y-34871428D01*
X43695238Y-34871428D01*
X43657142Y-35061904D02*
X43733333Y-35023809D01*
X43809523Y-34947619D01*
X43847619Y-34795238D01*
X43847619Y-34528571D01*
X43809523Y-34376190D01*
X43733333Y-34300000D01*
X43657142Y-34261904D01*
X43504761Y-34261904D01*
X43428571Y-34300000D01*
X43352380Y-34376190D01*
X43314285Y-34528571D01*
X43314285Y-34795238D01*
X43352380Y-34947619D01*
X43428571Y-35023809D01*
X43504761Y-35061904D01*
X43657142Y-35061904D01*
X42628571Y-34528571D02*
X42628571Y-35061904D01*
X42819047Y-34223809D02*
X43009523Y-34795238D01*
X42514285Y-34795238D01*
X50576190Y-35138095D02*
X50652380Y-35100000D01*
X50728571Y-35023809D01*
X50842857Y-34909523D01*
X50919047Y-34871428D01*
X50995238Y-34871428D01*
X50957142Y-35061904D02*
X51033333Y-35023809D01*
X51109523Y-34947619D01*
X51147619Y-34795238D01*
X51147619Y-34528571D01*
X51109523Y-34376190D01*
X51033333Y-34300000D01*
X50957142Y-34261904D01*
X50804761Y-34261904D01*
X50728571Y-34300000D01*
X50652380Y-34376190D01*
X50614285Y-34528571D01*
X50614285Y-34795238D01*
X50652380Y-34947619D01*
X50728571Y-35023809D01*
X50804761Y-35061904D01*
X50957142Y-35061904D01*
X49890476Y-34261904D02*
X50271428Y-34261904D01*
X50309523Y-34642857D01*
X50271428Y-34604761D01*
X50195238Y-34566666D01*
X50004761Y-34566666D01*
X49928571Y-34604761D01*
X49890476Y-34642857D01*
X49852380Y-34719047D01*
X49852380Y-34909523D01*
X49890476Y-34985714D01*
X49928571Y-35023809D01*
X50004761Y-35061904D01*
X50195238Y-35061904D01*
X50271428Y-35023809D01*
X50309523Y-34985714D01*
X57876190Y-35138095D02*
X57952380Y-35100000D01*
X58028571Y-35023809D01*
X58142857Y-34909523D01*
X58219047Y-34871428D01*
X58295238Y-34871428D01*
X58257142Y-35061904D02*
X58333333Y-35023809D01*
X58409523Y-34947619D01*
X58447619Y-34795238D01*
X58447619Y-34528571D01*
X58409523Y-34376190D01*
X58333333Y-34300000D01*
X58257142Y-34261904D01*
X58104761Y-34261904D01*
X58028571Y-34300000D01*
X57952380Y-34376190D01*
X57914285Y-34528571D01*
X57914285Y-34795238D01*
X57952380Y-34947619D01*
X58028571Y-35023809D01*
X58104761Y-35061904D01*
X58257142Y-35061904D01*
X57228571Y-34261904D02*
X57380952Y-34261904D01*
X57457142Y-34300000D01*
X57495238Y-34338095D01*
X57571428Y-34452380D01*
X57609523Y-34604761D01*
X57609523Y-34909523D01*
X57571428Y-34985714D01*
X57533333Y-35023809D01*
X57457142Y-35061904D01*
X57304761Y-35061904D01*
X57228571Y-35023809D01*
X57190476Y-34985714D01*
X57152380Y-34909523D01*
X57152380Y-34719047D01*
X57190476Y-34642857D01*
X57228571Y-34604761D01*
X57304761Y-34566666D01*
X57457142Y-34566666D01*
X57533333Y-34604761D01*
X57571428Y-34642857D01*
X57609523Y-34719047D01*
X65176190Y-35138095D02*
X65252380Y-35100000D01*
X65328571Y-35023809D01*
X65442857Y-34909523D01*
X65519047Y-34871428D01*
X65595238Y-34871428D01*
X65557142Y-35061904D02*
X65633333Y-35023809D01*
X65709523Y-34947619D01*
X65747619Y-34795238D01*
X65747619Y-34528571D01*
X65709523Y-34376190D01*
X65633333Y-34300000D01*
X65557142Y-34261904D01*
X65404761Y-34261904D01*
X65328571Y-34300000D01*
X65252380Y-34376190D01*
X65214285Y-34528571D01*
X65214285Y-34795238D01*
X65252380Y-34947619D01*
X65328571Y-35023809D01*
X65404761Y-35061904D01*
X65557142Y-35061904D01*
X64947619Y-34261904D02*
X64414285Y-34261904D01*
X64757142Y-35061904D01*
X34333333Y-33961904D02*
X34600000Y-33580952D01*
X34790476Y-33961904D02*
X34790476Y-33161904D01*
X34485714Y-33161904D01*
X34409523Y-33200000D01*
X34371428Y-33238095D01*
X34333333Y-33314285D01*
X34333333Y-33428571D01*
X34371428Y-33504761D01*
X34409523Y-33542857D01*
X34485714Y-33580952D01*
X34790476Y-33580952D01*
X34028571Y-33238095D02*
X33990476Y-33200000D01*
X33914285Y-33161904D01*
X33723809Y-33161904D01*
X33647619Y-33200000D01*
X33609523Y-33238095D01*
X33571428Y-33314285D01*
X33571428Y-33390476D01*
X33609523Y-33504761D01*
X34066666Y-33961904D01*
X33571428Y-33961904D01*
X36233333Y-32061904D02*
X36500000Y-31680952D01*
X36690476Y-32061904D02*
X36690476Y-31261904D01*
X36385714Y-31261904D01*
X36309523Y-31300000D01*
X36271428Y-31338095D01*
X36233333Y-31414285D01*
X36233333Y-31528571D01*
X36271428Y-31604761D01*
X36309523Y-31642857D01*
X36385714Y-31680952D01*
X36690476Y-31680952D01*
X35966666Y-31261904D02*
X35471428Y-31261904D01*
X35738095Y-31566666D01*
X35623809Y-31566666D01*
X35547619Y-31604761D01*
X35509523Y-31642857D01*
X35471428Y-31719047D01*
X35471428Y-31909523D01*
X35509523Y-31985714D01*
X35547619Y-32023809D01*
X35623809Y-32061904D01*
X35852380Y-32061904D01*
X35928571Y-32023809D01*
X35966666Y-31985714D01*
X41633333Y-35661904D02*
X41900000Y-35280952D01*
X42090476Y-35661904D02*
X42090476Y-34861904D01*
X41785714Y-34861904D01*
X41709523Y-34900000D01*
X41671428Y-34938095D01*
X41633333Y-35014285D01*
X41633333Y-35128571D01*
X41671428Y-35204761D01*
X41709523Y-35242857D01*
X41785714Y-35280952D01*
X42090476Y-35280952D01*
X40947619Y-35128571D02*
X40947619Y-35661904D01*
X41138095Y-34823809D02*
X41328571Y-35395238D01*
X40833333Y-35395238D01*
X43533333Y-33761904D02*
X43800000Y-33380952D01*
X43990476Y-33761904D02*
X43990476Y-32961904D01*
X43685714Y-32961904D01*
X43609523Y-33000000D01*
X43571428Y-33038095D01*
X43533333Y-33114285D01*
X43533333Y-33228571D01*
X43571428Y-33304761D01*
X43609523Y-33342857D01*
X43685714Y-33380952D01*
X43990476Y-33380952D01*
X42809523Y-32961904D02*
X43190476Y-32961904D01*
X43228571Y-33342857D01*
X43190476Y-33304761D01*
X43114285Y-33266666D01*
X42923809Y-33266666D01*
X42847619Y-33304761D01*
X42809523Y-33342857D01*
X42771428Y-33419047D01*
X42771428Y-33609523D01*
X42809523Y-33685714D01*
X42847619Y-33723809D01*
X42923809Y-33761904D01*
X43114285Y-33761904D01*
X43190476Y-33723809D01*
X43228571Y-33685714D01*
X48933333Y-35661904D02*
X49200000Y-35280952D01*
X49390476Y-35661904D02*
X49390476Y-34861904D01*
X49085714Y-34861904D01*
X49009523Y-34900000D01*
X48971428Y-34938095D01*
X48933333Y-35014285D01*
X48933333Y-35128571D01*
X48971428Y-35204761D01*
X49009523Y-35242857D01*
X49085714Y-35280952D01*
X49390476Y-35280952D01*
X48247619Y-34861904D02*
X48400000Y-34861904D01*
X48476190Y-34900000D01*
X48514285Y-34938095D01*
X48590476Y-35052380D01*
X48628571Y-35204761D01*
X48628571Y-35509523D01*
X48590476Y-35585714D01*
X48552380Y-35623809D01*
X48476190Y-35661904D01*
X48323809Y-35661904D01*
X48247619Y-35623809D01*
X48209523Y-35585714D01*
X48171428Y-35509523D01*
X48171428Y-35319047D01*
X48209523Y-35242857D01*
X48247619Y-35204761D01*
X48323809Y-35166666D01*
X48476190Y-35166666D01*
X48552380Y-35204761D01*
X48590476Y-35242857D01*
X48628571Y-35319047D01*
X50833333Y-33761904D02*
X51100000Y-33380952D01*
X51290476Y-33761904D02*
X51290476Y-32961904D01*
X50985714Y-32961904D01*
X50909523Y-33000000D01*
X50871428Y-33038095D01*
X50833333Y-33114285D01*
X50833333Y-33228571D01*
X50871428Y-33304761D01*
X50909523Y-33342857D01*
X50985714Y-33380952D01*
X51290476Y-33380952D01*
X50566666Y-32961904D02*
X50033333Y-32961904D01*
X50376190Y-33761904D01*
X56233333Y-35661904D02*
X56500000Y-35280952D01*
X56690476Y-35661904D02*
X56690476Y-34861904D01*
X56385714Y-34861904D01*
X56309523Y-34900000D01*
X56271428Y-34938095D01*
X56233333Y-35014285D01*
X56233333Y-35128571D01*
X56271428Y-35204761D01*
X56309523Y-35242857D01*
X56385714Y-35280952D01*
X56690476Y-35280952D01*
X55776190Y-35204761D02*
X55852380Y-35166666D01*
X55890476Y-35128571D01*
X55928571Y-35052380D01*
X55928571Y-35014285D01*
X55890476Y-34938095D01*
X55852380Y-34900000D01*
X55776190Y-34861904D01*
X55623809Y-34861904D01*
X55547619Y-34900000D01*
X55509523Y-34938095D01*
X55471428Y-35014285D01*
X55471428Y-35052380D01*
X55509523Y-35128571D01*
X55547619Y-35166666D01*
X55623809Y-35204761D01*
X55776190Y-35204761D01*
X55852380Y-35242857D01*
X55890476Y-35280952D01*
X55928571Y-35357142D01*
X55928571Y-35509523D01*
X55890476Y-35585714D01*
X55852380Y-35623809D01*
X55776190Y-35661904D01*
X55623809Y-35661904D01*
X55547619Y-35623809D01*
X55509523Y-35585714D01*
X55471428Y-35509523D01*
X55471428Y-35357142D01*
X55509523Y-35280952D01*
X55547619Y-35242857D01*
X55623809Y-35204761D01*
X58133333Y-33761904D02*
X58400000Y-33380952D01*
X58590476Y-33761904D02*
X58590476Y-32961904D01*
X58285714Y-32961904D01*
X58209523Y-33000000D01*
X58171428Y-33038095D01*
X58133333Y-33114285D01*
X58133333Y-33228571D01*
X58171428Y-33304761D01*
X58209523Y-33342857D01*
X58285714Y-33380952D01*
X58590476Y-33380952D01*
X57752380Y-33761904D02*
X57600000Y-33761904D01*
X57523809Y-33723809D01*
X57485714Y-33685714D01*
X57409523Y-33571428D01*
X57371428Y-33419047D01*
X57371428Y-33114285D01*
X57409523Y-33038095D01*
X57447619Y-33000000D01*
X57523809Y-32961904D01*
X57676190Y-32961904D01*
X57752380Y-33000000D01*
X57790476Y-33038095D01*
X57828571Y-33114285D01*
X57828571Y-33304761D01*
X57790476Y-33380952D01*
X57752380Y-33419047D01*
X57676190Y-33457142D01*
X57523809Y-33457142D01*
X57447619Y-33419047D01*
X57409523Y-33380952D01*
X57371428Y-33304761D01*
X63814285Y-35661904D02*
X64080952Y-35280952D01*
X64271428Y-35661904D02*
X64271428Y-34861904D01*
X63966666Y-34861904D01*
X63890476Y-34900000D01*
X63852380Y-34938095D01*
X63814285Y-35014285D01*
X63814285Y-35128571D01*
X63852380Y-35204761D01*
X63890476Y-35242857D01*
X63966666Y-35280952D01*
X64271428Y-35280952D01*
X63052380Y-35661904D02*
X63509523Y-35661904D01*
X63280952Y-35661904D02*
X63280952Y-34861904D01*
X63357142Y-34976190D01*
X63433333Y-35052380D01*
X63509523Y-35090476D01*
X62557142Y-34861904D02*
X62480952Y-34861904D01*
X62404761Y-34900000D01*
X62366666Y-34938095D01*
X62328571Y-35014285D01*
X62290476Y-35166666D01*
X62290476Y-35357142D01*
X62328571Y-35509523D01*
X62366666Y-35585714D01*
X62404761Y-35623809D01*
X62480952Y-35661904D01*
X62557142Y-35661904D01*
X62633333Y-35623809D01*
X62671428Y-35585714D01*
X62709523Y-35509523D01*
X62747619Y-35357142D01*
X62747619Y-35166666D01*
X62709523Y-35014285D01*
X62671428Y-34938095D01*
X62633333Y-34900000D01*
X62557142Y-34861904D01*
X65414285Y-33761904D02*
X65680952Y-33380952D01*
X65871428Y-33761904D02*
X65871428Y-32961904D01*
X65566666Y-32961904D01*
X65490476Y-33000000D01*
X65452380Y-33038095D01*
X65414285Y-33114285D01*
X65414285Y-33228571D01*
X65452380Y-33304761D01*
X65490476Y-33342857D01*
X65566666Y-33380952D01*
X65871428Y-33380952D01*
X64652380Y-33761904D02*
X65109523Y-33761904D01*
X64880952Y-33761904D02*
X64880952Y-32961904D01*
X64957142Y-33076190D01*
X65033333Y-33152380D01*
X65109523Y-33190476D01*
X63890476Y-33761904D02*
X64347619Y-33761904D01*
X64119047Y-33761904D02*
X64119047Y-32961904D01*
X64195238Y-33076190D01*
X64271428Y-33152380D01*
X64347619Y-33190476D01*
X67833333Y-13785714D02*
X67871428Y-13823809D01*
X67985714Y-13861904D01*
X68061904Y-13861904D01*
X68176190Y-13823809D01*
X68252380Y-13747619D01*
X68290476Y-13671428D01*
X68328571Y-13519047D01*
X68328571Y-13404761D01*
X68290476Y-13252380D01*
X68252380Y-13176190D01*
X68176190Y-13100000D01*
X68061904Y-13061904D01*
X67985714Y-13061904D01*
X67871428Y-13100000D01*
X67833333Y-13138095D01*
X67071428Y-13861904D02*
X67528571Y-13861904D01*
X67300000Y-13861904D02*
X67300000Y-13061904D01*
X67376190Y-13176190D01*
X67452380Y-13252380D01*
X67528571Y-13290476D01*
X30033333Y-37385714D02*
X30071428Y-37423809D01*
X30185714Y-37461904D01*
X30261904Y-37461904D01*
X30376190Y-37423809D01*
X30452380Y-37347619D01*
X30490476Y-37271428D01*
X30528571Y-37119047D01*
X30528571Y-37004761D01*
X30490476Y-36852380D01*
X30452380Y-36776190D01*
X30376190Y-36700000D01*
X30261904Y-36661904D01*
X30185714Y-36661904D01*
X30071428Y-36700000D01*
X30033333Y-36738095D01*
X29766666Y-36661904D02*
X29271428Y-36661904D01*
X29538095Y-36966666D01*
X29423809Y-36966666D01*
X29347619Y-37004761D01*
X29309523Y-37042857D01*
X29271428Y-37119047D01*
X29271428Y-37309523D01*
X29309523Y-37385714D01*
X29347619Y-37423809D01*
X29423809Y-37461904D01*
X29652380Y-37461904D01*
X29728571Y-37423809D01*
X29766666Y-37385714D01*
X67814285Y-28961904D02*
X68080952Y-28580952D01*
X68271428Y-28961904D02*
X68271428Y-28161904D01*
X67966666Y-28161904D01*
X67890476Y-28200000D01*
X67852380Y-28238095D01*
X67814285Y-28314285D01*
X67814285Y-28428571D01*
X67852380Y-28504761D01*
X67890476Y-28542857D01*
X67966666Y-28580952D01*
X68271428Y-28580952D01*
X67052380Y-28961904D02*
X67509523Y-28961904D01*
X67280952Y-28961904D02*
X67280952Y-28161904D01*
X67357142Y-28276190D01*
X67433333Y-28352380D01*
X67509523Y-28390476D01*
X66747619Y-28238095D02*
X66709523Y-28200000D01*
X66633333Y-28161904D01*
X66442857Y-28161904D01*
X66366666Y-28200000D01*
X66328571Y-28238095D01*
X66290476Y-28314285D01*
X66290476Y-28390476D01*
X66328571Y-28504761D01*
X66785714Y-28961904D01*
X66290476Y-28961904D01*
X61414285Y-20761904D02*
X61680952Y-20380952D01*
X61871428Y-20761904D02*
X61871428Y-19961904D01*
X61566666Y-19961904D01*
X61490476Y-20000000D01*
X61452380Y-20038095D01*
X61414285Y-20114285D01*
X61414285Y-20228571D01*
X61452380Y-20304761D01*
X61490476Y-20342857D01*
X61566666Y-20380952D01*
X61871428Y-20380952D01*
X60652380Y-20761904D02*
X61109523Y-20761904D01*
X60880952Y-20761904D02*
X60880952Y-19961904D01*
X60957142Y-20076190D01*
X61033333Y-20152380D01*
X61109523Y-20190476D01*
X60385714Y-19961904D02*
X59890476Y-19961904D01*
X60157142Y-20266666D01*
X60042857Y-20266666D01*
X59966666Y-20304761D01*
X59928571Y-20342857D01*
X59890476Y-20419047D01*
X59890476Y-20609523D01*
X59928571Y-20685714D01*
X59966666Y-20723809D01*
X60042857Y-20761904D01*
X60271428Y-20761904D01*
X60347619Y-20723809D01*
X60385714Y-20685714D01*
X69009523Y-18461904D02*
X69009523Y-19109523D01*
X68971428Y-19185714D01*
X68933333Y-19223809D01*
X68857142Y-19261904D01*
X68704761Y-19261904D01*
X68628571Y-19223809D01*
X68590476Y-19185714D01*
X68552380Y-19109523D01*
X68552380Y-18461904D01*
X67752380Y-19261904D02*
X68209523Y-19261904D01*
X67980952Y-19261904D02*
X67980952Y-18461904D01*
X68057142Y-18576190D01*
X68133333Y-18652380D01*
X68209523Y-18690476D01*
X64400952Y-16061904D02*
X64400952Y-15261904D01*
X64058095Y-16023809D02*
X63943809Y-16061904D01*
X63753333Y-16061904D01*
X63677142Y-16023809D01*
X63639047Y-15985714D01*
X63600952Y-15909523D01*
X63600952Y-15833333D01*
X63639047Y-15757142D01*
X63677142Y-15719047D01*
X63753333Y-15680952D01*
X63905714Y-15642857D01*
X63981904Y-15604761D01*
X64020000Y-15566666D01*
X64058095Y-15490476D01*
X64058095Y-15414285D01*
X64020000Y-15338095D01*
X63981904Y-15300000D01*
X63905714Y-15261904D01*
X63715238Y-15261904D01*
X63600952Y-15300000D01*
X63105714Y-15261904D02*
X62953333Y-15261904D01*
X62877142Y-15300000D01*
X62800952Y-15376190D01*
X62762857Y-15528571D01*
X62762857Y-15795238D01*
X62800952Y-15947619D01*
X62877142Y-16023809D01*
X62953333Y-16061904D01*
X63105714Y-16061904D01*
X63181904Y-16023809D01*
X63258095Y-15947619D01*
X63296190Y-15795238D01*
X63296190Y-15528571D01*
X63258095Y-15376190D01*
X63181904Y-15300000D01*
X63105714Y-15261904D01*
X62000952Y-16061904D02*
X62458095Y-16061904D01*
X62229523Y-16061904D02*
X62229523Y-15261904D01*
X62305714Y-15376190D01*
X62381904Y-15452380D01*
X62458095Y-15490476D01*
X31433333Y-32985714D02*
X31471428Y-33023809D01*
X31585714Y-33061904D01*
X31661904Y-33061904D01*
X31776190Y-33023809D01*
X31852380Y-32947619D01*
X31890476Y-32871428D01*
X31928571Y-32719047D01*
X31928571Y-32604761D01*
X31890476Y-32452380D01*
X31852380Y-32376190D01*
X31776190Y-32300000D01*
X31661904Y-32261904D01*
X31585714Y-32261904D01*
X31471428Y-32300000D01*
X31433333Y-32338095D01*
X31128571Y-32338095D02*
X31090476Y-32300000D01*
X31014285Y-32261904D01*
X30823809Y-32261904D01*
X30747619Y-32300000D01*
X30709523Y-32338095D01*
X30671428Y-32414285D01*
X30671428Y-32490476D01*
X30709523Y-32604761D01*
X31166666Y-33061904D01*
X30671428Y-33061904D01*
X29966666Y-23561904D02*
X29966666Y-24133333D01*
X30004761Y-24247619D01*
X30080952Y-24323809D01*
X30195238Y-24361904D01*
X30271428Y-24361904D01*
X29242857Y-23828571D02*
X29242857Y-24361904D01*
X29433333Y-23523809D02*
X29623809Y-24095238D01*
X29128571Y-24095238D01*
X39276190Y-25938095D02*
X39352380Y-25900000D01*
X39428571Y-25823809D01*
X39542857Y-25709523D01*
X39619047Y-25671428D01*
X39695238Y-25671428D01*
X39657142Y-25861904D02*
X39733333Y-25823809D01*
X39809523Y-25747619D01*
X39847619Y-25595238D01*
X39847619Y-25328571D01*
X39809523Y-25176190D01*
X39733333Y-25100000D01*
X39657142Y-25061904D01*
X39504761Y-25061904D01*
X39428571Y-25100000D01*
X39352380Y-25176190D01*
X39314285Y-25328571D01*
X39314285Y-25595238D01*
X39352380Y-25747619D01*
X39428571Y-25823809D01*
X39504761Y-25861904D01*
X39657142Y-25861904D01*
X38552380Y-25861904D02*
X39009523Y-25861904D01*
X38780952Y-25861904D02*
X38780952Y-25061904D01*
X38857142Y-25176190D01*
X38933333Y-25252380D01*
X39009523Y-25290476D01*
X30076190Y-28338095D02*
X30152380Y-28300000D01*
X30228571Y-28223809D01*
X30342857Y-28109523D01*
X30419047Y-28071428D01*
X30495238Y-28071428D01*
X30457142Y-28261904D02*
X30533333Y-28223809D01*
X30609523Y-28147619D01*
X30647619Y-27995238D01*
X30647619Y-27728571D01*
X30609523Y-27576190D01*
X30533333Y-27500000D01*
X30457142Y-27461904D01*
X30304761Y-27461904D01*
X30228571Y-27500000D01*
X30152380Y-27576190D01*
X30114285Y-27728571D01*
X30114285Y-27995238D01*
X30152380Y-28147619D01*
X30228571Y-28223809D01*
X30304761Y-28261904D01*
X30457142Y-28261904D01*
X29809523Y-27538095D02*
X29771428Y-27500000D01*
X29695238Y-27461904D01*
X29504761Y-27461904D01*
X29428571Y-27500000D01*
X29390476Y-27538095D01*
X29352380Y-27614285D01*
X29352380Y-27690476D01*
X29390476Y-27804761D01*
X29847619Y-28261904D01*
X29352380Y-28261904D01*
X32833333Y-31761904D02*
X33100000Y-31380952D01*
X33290476Y-31761904D02*
X33290476Y-30961904D01*
X32985714Y-30961904D01*
X32909523Y-31000000D01*
X32871428Y-31038095D01*
X32833333Y-31114285D01*
X32833333Y-31228571D01*
X32871428Y-31304761D01*
X32909523Y-31342857D01*
X32985714Y-31380952D01*
X33290476Y-31380952D01*
X32071428Y-31761904D02*
X32528571Y-31761904D01*
X32300000Y-31761904D02*
X32300000Y-30961904D01*
X32376190Y-31076190D01*
X32452380Y-31152380D01*
X32528571Y-31190476D01*
X42333333Y-21985714D02*
X42371428Y-22023809D01*
X42485714Y-22061904D01*
X42561904Y-22061904D01*
X42676190Y-22023809D01*
X42752380Y-21947619D01*
X42790476Y-21871428D01*
X42828571Y-21719047D01*
X42828571Y-21604761D01*
X42790476Y-21452380D01*
X42752380Y-21376190D01*
X42676190Y-21300000D01*
X42561904Y-21261904D01*
X42485714Y-21261904D01*
X42371428Y-21300000D01*
X42333333Y-21338095D01*
X41647619Y-21528571D02*
X41647619Y-22061904D01*
X41838095Y-21223809D02*
X42028571Y-21795238D01*
X41533333Y-21795238D01*
X67890476Y-46661904D02*
X67890476Y-45861904D01*
X67700000Y-45861904D01*
X67585714Y-45900000D01*
X67509523Y-45976190D01*
X67471428Y-46052380D01*
X67433333Y-46204761D01*
X67433333Y-46319047D01*
X67471428Y-46471428D01*
X67509523Y-46547619D01*
X67585714Y-46623809D01*
X67700000Y-46661904D01*
X67890476Y-46661904D01*
X66671428Y-46661904D02*
X67128571Y-46661904D01*
X66900000Y-46661904D02*
X66900000Y-45861904D01*
X66976190Y-45976190D01*
X67052380Y-46052380D01*
X67128571Y-46090476D01*
X37290476Y-47061904D02*
X37290476Y-46261904D01*
X37100000Y-46261904D01*
X36985714Y-46300000D01*
X36909523Y-46376190D01*
X36871428Y-46452380D01*
X36833333Y-46604761D01*
X36833333Y-46719047D01*
X36871428Y-46871428D01*
X36909523Y-46947619D01*
X36985714Y-47023809D01*
X37100000Y-47061904D01*
X37290476Y-47061904D01*
X36528571Y-46338095D02*
X36490476Y-46300000D01*
X36414285Y-46261904D01*
X36223809Y-46261904D01*
X36147619Y-46300000D01*
X36109523Y-46338095D01*
X36071428Y-46414285D01*
X36071428Y-46490476D01*
X36109523Y-46604761D01*
X36566666Y-47061904D01*
X36071428Y-47061904D01*
X69461904Y-39585714D02*
X69080952Y-39319047D01*
X69461904Y-39128571D02*
X68661904Y-39128571D01*
X68661904Y-39433333D01*
X68700000Y-39509523D01*
X68738095Y-39547619D01*
X68814285Y-39585714D01*
X68928571Y-39585714D01*
X69004761Y-39547619D01*
X69042857Y-39509523D01*
X69080952Y-39433333D01*
X69080952Y-39128571D01*
X69461904Y-40347619D02*
X69461904Y-39890476D01*
X69461904Y-40119047D02*
X68661904Y-40119047D01*
X68776190Y-40042857D01*
X68852380Y-39966666D01*
X68890476Y-39890476D01*
X68928571Y-41033333D02*
X69461904Y-41033333D01*
X68623809Y-40842857D02*
X69195238Y-40652380D01*
X69195238Y-41147619D01*
X67761904Y-43685714D02*
X67380952Y-43419047D01*
X67761904Y-43228571D02*
X66961904Y-43228571D01*
X66961904Y-43533333D01*
X67000000Y-43609523D01*
X67038095Y-43647619D01*
X67114285Y-43685714D01*
X67228571Y-43685714D01*
X67304761Y-43647619D01*
X67342857Y-43609523D01*
X67380952Y-43533333D01*
X67380952Y-43228571D01*
X67761904Y-44447619D02*
X67761904Y-43990476D01*
X67761904Y-44219047D02*
X66961904Y-44219047D01*
X67076190Y-44142857D01*
X67152380Y-44066666D01*
X67190476Y-43990476D01*
X66961904Y-45171428D02*
X66961904Y-44790476D01*
X67342857Y-44752380D01*
X67304761Y-44790476D01*
X67266666Y-44866666D01*
X67266666Y-45057142D01*
X67304761Y-45133333D01*
X67342857Y-45171428D01*
X67419047Y-45209523D01*
X67609523Y-45209523D01*
X67685714Y-45171428D01*
X67723809Y-45133333D01*
X67761904Y-45057142D01*
X67761904Y-44866666D01*
X67723809Y-44790476D01*
X67685714Y-44752380D01*
X41214285Y-44861904D02*
X41480952Y-44480952D01*
X41671428Y-44861904D02*
X41671428Y-44061904D01*
X41366666Y-44061904D01*
X41290476Y-44100000D01*
X41252380Y-44138095D01*
X41214285Y-44214285D01*
X41214285Y-44328571D01*
X41252380Y-44404761D01*
X41290476Y-44442857D01*
X41366666Y-44480952D01*
X41671428Y-44480952D01*
X40452380Y-44861904D02*
X40909523Y-44861904D01*
X40680952Y-44861904D02*
X40680952Y-44061904D01*
X40757142Y-44176190D01*
X40833333Y-44252380D01*
X40909523Y-44290476D01*
X39766666Y-44061904D02*
X39919047Y-44061904D01*
X39995238Y-44100000D01*
X40033333Y-44138095D01*
X40109523Y-44252380D01*
X40147619Y-44404761D01*
X40147619Y-44709523D01*
X40109523Y-44785714D01*
X40071428Y-44823809D01*
X39995238Y-44861904D01*
X39842857Y-44861904D01*
X39766666Y-44823809D01*
X39728571Y-44785714D01*
X39690476Y-44709523D01*
X39690476Y-44519047D01*
X39728571Y-44442857D01*
X39766666Y-44404761D01*
X39842857Y-44366666D01*
X39995238Y-44366666D01*
X40071428Y-44404761D01*
X40109523Y-44442857D01*
X40147619Y-44519047D01*
X38914285Y-41061904D02*
X39180952Y-40680952D01*
X39371428Y-41061904D02*
X39371428Y-40261904D01*
X39066666Y-40261904D01*
X38990476Y-40300000D01*
X38952380Y-40338095D01*
X38914285Y-40414285D01*
X38914285Y-40528571D01*
X38952380Y-40604761D01*
X38990476Y-40642857D01*
X39066666Y-40680952D01*
X39371428Y-40680952D01*
X38152380Y-41061904D02*
X38609523Y-41061904D01*
X38380952Y-41061904D02*
X38380952Y-40261904D01*
X38457142Y-40376190D01*
X38533333Y-40452380D01*
X38609523Y-40490476D01*
X37885714Y-40261904D02*
X37352380Y-40261904D01*
X37695238Y-41061904D01*
X46033333Y-20185714D02*
X46071428Y-20223809D01*
X46185714Y-20261904D01*
X46261904Y-20261904D01*
X46376190Y-20223809D01*
X46452380Y-20147619D01*
X46490476Y-20071428D01*
X46528571Y-19919047D01*
X46528571Y-19804761D01*
X46490476Y-19652380D01*
X46452380Y-19576190D01*
X46376190Y-19500000D01*
X46261904Y-19461904D01*
X46185714Y-19461904D01*
X46071428Y-19500000D01*
X46033333Y-19538095D01*
X45309523Y-19461904D02*
X45690476Y-19461904D01*
X45728571Y-19842857D01*
X45690476Y-19804761D01*
X45614285Y-19766666D01*
X45423809Y-19766666D01*
X45347619Y-19804761D01*
X45309523Y-19842857D01*
X45271428Y-19919047D01*
X45271428Y-20109523D01*
X45309523Y-20185714D01*
X45347619Y-20223809D01*
X45423809Y-20261904D01*
X45614285Y-20261904D01*
X45690476Y-20223809D01*
X45728571Y-20185714D01*
X47714285Y-21561904D02*
X47980952Y-21180952D01*
X48171428Y-21561904D02*
X48171428Y-20761904D01*
X47866666Y-20761904D01*
X47790476Y-20800000D01*
X47752380Y-20838095D01*
X47714285Y-20914285D01*
X47714285Y-21028571D01*
X47752380Y-21104761D01*
X47790476Y-21142857D01*
X47866666Y-21180952D01*
X48171428Y-21180952D01*
X46952380Y-21561904D02*
X47409523Y-21561904D01*
X47180952Y-21561904D02*
X47180952Y-20761904D01*
X47257142Y-20876190D01*
X47333333Y-20952380D01*
X47409523Y-20990476D01*
X46495238Y-21104761D02*
X46571428Y-21066666D01*
X46609523Y-21028571D01*
X46647619Y-20952380D01*
X46647619Y-20914285D01*
X46609523Y-20838095D01*
X46571428Y-20800000D01*
X46495238Y-20761904D01*
X46342857Y-20761904D01*
X46266666Y-20800000D01*
X46228571Y-20838095D01*
X46190476Y-20914285D01*
X46190476Y-20952380D01*
X46228571Y-21028571D01*
X46266666Y-21066666D01*
X46342857Y-21104761D01*
X46495238Y-21104761D01*
X46571428Y-21142857D01*
X46609523Y-21180952D01*
X46647619Y-21257142D01*
X46647619Y-21409523D01*
X46609523Y-21485714D01*
X46571428Y-21523809D01*
X46495238Y-21561904D01*
X46342857Y-21561904D01*
X46266666Y-21523809D01*
X46228571Y-21485714D01*
X46190476Y-21409523D01*
X46190476Y-21257142D01*
X46228571Y-21180952D01*
X46266666Y-21142857D01*
X46342857Y-21104761D01*
M02*
