M48
; DRILL file {KiCad 5.1.5-52549c5~84~ubuntu18.04.1} date Sun 29 Mar 2020 09:39:56 PM PDT
; FORMAT={-:-/ absolute / metric / decimal}
; #@! TF.CreationDate,2020-03-29T21:39:56-07:00
; #@! TF.GenerationSoftware,Kicad,Pcbnew,5.1.5-52549c5~84~ubuntu18.04.1
FMAT,2
METRIC
T1C0.400
T2C1.320
T3C3.400
T4C1.600
T5C3.050
T6C3.200
T7C7.000
T8C9.500
%
G90
G05
T1
X29.8Y-34.2
X30.3Y-20.9
X32.5Y-36.9
X38.6Y-27.4
X39.0Y-48.9
X40.0Y-36.9
X40.6Y-32.0
X41.9Y-20.7
X47.3Y-36.9
X47.9Y-33.7
X54.6Y-36.9
X55.2Y-33.7
X56.8Y-23.4
X59.1Y-22.7
X61.9Y-36.9
X62.5Y-33.7
X63.8Y-25.5
X68.7Y-32.3
X69.0Y-49.0
T2
X43.0Y-49.5
X45.54Y-49.5
X48.08Y-49.5
X50.62Y-49.5
X53.16Y-49.5
X55.7Y-49.5
X58.24Y-49.5
X60.78Y-49.5
X63.32Y-49.5
X49.84Y-15.9
X52.38Y-15.9
X54.92Y-15.9
X57.46Y-15.9
X60.0Y-15.9
T4
X73.0Y-28.5
X73.0Y-32.5
X73.0Y-36.5
X73.0Y-40.5
X75.0Y-26.5
X75.0Y-30.5
X75.0Y-34.5
X75.0Y-38.5
X75.0Y-42.5
X77.0Y-24.5
X77.0Y-28.5
X77.0Y-32.5
X77.0Y-36.5
X77.0Y-40.5
X77.0Y-44.5
X79.0Y-22.5
X79.0Y-26.5
X79.0Y-30.5
X79.0Y-34.5
X79.0Y-38.5
X79.0Y-42.5
X79.0Y-46.5
X81.0Y-24.5
X81.0Y-28.5
X81.0Y-32.5
X81.0Y-36.5
X81.0Y-40.5
X81.0Y-44.5
X83.0Y-22.5
X83.0Y-26.5
X83.0Y-30.5
X83.0Y-34.5
X83.0Y-38.5
X83.0Y-42.5
X83.0Y-46.5
X85.0Y-24.5
X85.0Y-28.5
X85.0Y-32.5
X85.0Y-36.5
X85.0Y-40.5
X85.0Y-44.5
X87.0Y-22.5
X87.0Y-26.5
X87.0Y-30.5
X87.0Y-34.5
X87.0Y-38.5
X87.0Y-42.5
X87.0Y-46.5
X89.0Y-24.5
X89.0Y-28.5
X89.0Y-32.5
X89.0Y-36.5
X89.0Y-40.5
X89.0Y-44.5
X91.0Y-22.5
X91.0Y-26.5
X91.0Y-30.5
X91.0Y-34.5
X91.0Y-38.5
X91.0Y-42.5
X91.0Y-46.5
X93.0Y-24.5
X93.0Y-28.5
X93.0Y-32.5
X93.0Y-36.5
X93.0Y-40.5
X93.0Y-44.5
X95.0Y-26.5
X95.0Y-30.5
X95.0Y-34.5
X95.0Y-38.5
X95.0Y-42.5
X97.0Y-28.5
X97.0Y-32.5
X97.0Y-36.5
X97.0Y-40.5
T5
X13.5Y-15.0
X13.5Y-40.0
T6
X73.0Y-22.5
X73.0Y-46.5
X97.0Y-22.5
X97.0Y-46.5
T7
X39.0Y-8.235
X71.0Y-8.235
T8
X91.0Y-14.1
T3
G00X4.75Y-3.75
M15
G01X5.0Y-3.75
M16
G05
G00X101.0Y-51.25
M15
G01X101.25Y-51.25
M16
G05
G00X101.0Y-3.75
M15
G01X101.25Y-3.75
M16
G05
G00X4.75Y-51.25
M15
G01X5.0Y-51.25
M16
G05
T0
M30
