G04 #@! TF.GenerationSoftware,KiCad,Pcbnew,5.0.2+dfsg1-1*
G04 #@! TF.CreationDate,2019-07-23T09:40:59-06:00*
G04 #@! TF.ProjectId,hl2-front-vert,686c322d-6672-46f6-9e74-2d766572742e,rev?*
G04 #@! TF.SameCoordinates,Original*
G04 #@! TF.FileFunction,Legend,Bot*
G04 #@! TF.FilePolarity,Positive*
%FSLAX46Y46*%
G04 Gerber Fmt 4.6, Leading zero omitted, Abs format (unit mm)*
G04 Created by KiCad (PCBNEW 5.0.2+dfsg1-1) date Tue 23 Jul 2019 09:40:59 AM MDT*
%MOMM*%
%LPD*%
G01*
G04 APERTURE LIST*
%ADD10C,0.300000*%
G04 APERTURE END LIST*
D10*
X138342857Y-149478571D02*
X138342857Y-147978571D01*
X138342857Y-148692857D02*
X137485714Y-148692857D01*
X137485714Y-149478571D02*
X137485714Y-147978571D01*
X136200000Y-149407142D02*
X136342857Y-149478571D01*
X136628571Y-149478571D01*
X136771428Y-149407142D01*
X136842857Y-149264285D01*
X136842857Y-148692857D01*
X136771428Y-148550000D01*
X136628571Y-148478571D01*
X136342857Y-148478571D01*
X136200000Y-148550000D01*
X136128571Y-148692857D01*
X136128571Y-148835714D01*
X136842857Y-148978571D01*
X135485714Y-149478571D02*
X135485714Y-148478571D01*
X135485714Y-148764285D02*
X135414285Y-148621428D01*
X135342857Y-148550000D01*
X135200000Y-148478571D01*
X135057142Y-148478571D01*
X134557142Y-149478571D02*
X134557142Y-148478571D01*
X134557142Y-148621428D02*
X134485714Y-148550000D01*
X134342857Y-148478571D01*
X134128571Y-148478571D01*
X133985714Y-148550000D01*
X133914285Y-148692857D01*
X133914285Y-149478571D01*
X133914285Y-148692857D02*
X133842857Y-148550000D01*
X133700000Y-148478571D01*
X133485714Y-148478571D01*
X133342857Y-148550000D01*
X133271428Y-148692857D01*
X133271428Y-149478571D01*
X131985714Y-149407142D02*
X132128571Y-149478571D01*
X132414285Y-149478571D01*
X132557142Y-149407142D01*
X132628571Y-149264285D01*
X132628571Y-148692857D01*
X132557142Y-148550000D01*
X132414285Y-148478571D01*
X132128571Y-148478571D01*
X131985714Y-148550000D01*
X131914285Y-148692857D01*
X131914285Y-148835714D01*
X132628571Y-148978571D01*
X131342857Y-149407142D02*
X131200000Y-149478571D01*
X130914285Y-149478571D01*
X130771428Y-149407142D01*
X130700000Y-149264285D01*
X130700000Y-149192857D01*
X130771428Y-149050000D01*
X130914285Y-148978571D01*
X131128571Y-148978571D01*
X131271428Y-148907142D01*
X131342857Y-148764285D01*
X131342857Y-148692857D01*
X131271428Y-148550000D01*
X131128571Y-148478571D01*
X130914285Y-148478571D01*
X130771428Y-148550000D01*
X128200000Y-149478571D02*
X128914285Y-149478571D01*
X128914285Y-147978571D01*
X127700000Y-149478571D02*
X127700000Y-148478571D01*
X127700000Y-147978571D02*
X127771428Y-148050000D01*
X127700000Y-148121428D01*
X127628571Y-148050000D01*
X127700000Y-147978571D01*
X127700000Y-148121428D01*
X127200000Y-148478571D02*
X126628571Y-148478571D01*
X126985714Y-147978571D02*
X126985714Y-149264285D01*
X126914285Y-149407142D01*
X126771428Y-149478571D01*
X126628571Y-149478571D01*
X125557142Y-149407142D02*
X125700000Y-149478571D01*
X125985714Y-149478571D01*
X126128571Y-149407142D01*
X126200000Y-149264285D01*
X126200000Y-148692857D01*
X126128571Y-148550000D01*
X125985714Y-148478571D01*
X125700000Y-148478571D01*
X125557142Y-148550000D01*
X125485714Y-148692857D01*
X125485714Y-148835714D01*
X126200000Y-148978571D01*
X123700000Y-148907142D02*
X122557142Y-148907142D01*
X120700000Y-149478571D02*
X120700000Y-147978571D01*
X120057142Y-149478571D02*
X120057142Y-148692857D01*
X120128571Y-148550000D01*
X120271428Y-148478571D01*
X120485714Y-148478571D01*
X120628571Y-148550000D01*
X120700000Y-148621428D01*
X119557142Y-148478571D02*
X118985714Y-148478571D01*
X119342857Y-147978571D02*
X119342857Y-149264285D01*
X119271428Y-149407142D01*
X119128571Y-149478571D01*
X118985714Y-149478571D01*
X118700000Y-148478571D02*
X118128571Y-148478571D01*
X118485714Y-147978571D02*
X118485714Y-149264285D01*
X118414285Y-149407142D01*
X118271428Y-149478571D01*
X118128571Y-149478571D01*
X117628571Y-148478571D02*
X117628571Y-149978571D01*
X117628571Y-148550000D02*
X117485714Y-148478571D01*
X117199999Y-148478571D01*
X117057142Y-148550000D01*
X116985714Y-148621428D01*
X116914285Y-148764285D01*
X116914285Y-149192857D01*
X116985714Y-149335714D01*
X117057142Y-149407142D01*
X117199999Y-149478571D01*
X117485714Y-149478571D01*
X117628571Y-149407142D01*
X116271428Y-149335714D02*
X116199999Y-149407142D01*
X116271428Y-149478571D01*
X116342857Y-149407142D01*
X116271428Y-149335714D01*
X116271428Y-149478571D01*
X116271428Y-148550000D02*
X116199999Y-148621428D01*
X116271428Y-148692857D01*
X116342857Y-148621428D01*
X116271428Y-148550000D01*
X116271428Y-148692857D01*
X114485714Y-147907142D02*
X115771428Y-149835714D01*
X112914285Y-147907142D02*
X114200000Y-149835714D01*
X112557142Y-148478571D02*
X112271428Y-149478571D01*
X111985714Y-148764285D01*
X111700000Y-149478571D01*
X111414285Y-148478571D01*
X110985714Y-148478571D02*
X110700000Y-149478571D01*
X110414285Y-148764285D01*
X110128571Y-149478571D01*
X109842857Y-148478571D01*
X109414285Y-148478571D02*
X109128571Y-149478571D01*
X108842857Y-148764285D01*
X108557142Y-149478571D01*
X108271428Y-148478571D01*
X107700000Y-149335714D02*
X107628571Y-149407142D01*
X107700000Y-149478571D01*
X107771428Y-149407142D01*
X107700000Y-149335714D01*
X107700000Y-149478571D01*
X106985714Y-149478571D02*
X106985714Y-147978571D01*
X106342857Y-149478571D02*
X106342857Y-148692857D01*
X106414285Y-148550000D01*
X106557142Y-148478571D01*
X106771428Y-148478571D01*
X106914285Y-148550000D01*
X106985714Y-148621428D01*
X105057142Y-149407142D02*
X105200000Y-149478571D01*
X105485714Y-149478571D01*
X105628571Y-149407142D01*
X105700000Y-149264285D01*
X105700000Y-148692857D01*
X105628571Y-148550000D01*
X105485714Y-148478571D01*
X105200000Y-148478571D01*
X105057142Y-148550000D01*
X104985714Y-148692857D01*
X104985714Y-148835714D01*
X105700000Y-148978571D01*
X104342857Y-149478571D02*
X104342857Y-148478571D01*
X104342857Y-148764285D02*
X104271428Y-148621428D01*
X104200000Y-148550000D01*
X104057142Y-148478571D01*
X103914285Y-148478571D01*
X103414285Y-149478571D02*
X103414285Y-148478571D01*
X103414285Y-148621428D02*
X103342857Y-148550000D01*
X103200000Y-148478571D01*
X102985714Y-148478571D01*
X102842857Y-148550000D01*
X102771428Y-148692857D01*
X102771428Y-149478571D01*
X102771428Y-148692857D02*
X102700000Y-148550000D01*
X102557142Y-148478571D01*
X102342857Y-148478571D01*
X102200000Y-148550000D01*
X102128571Y-148692857D01*
X102128571Y-149478571D01*
X100842857Y-149407142D02*
X100985714Y-149478571D01*
X101271428Y-149478571D01*
X101414285Y-149407142D01*
X101485714Y-149264285D01*
X101485714Y-148692857D01*
X101414285Y-148550000D01*
X101271428Y-148478571D01*
X100985714Y-148478571D01*
X100842857Y-148550000D01*
X100771428Y-148692857D01*
X100771428Y-148835714D01*
X101485714Y-148978571D01*
X100200000Y-149407142D02*
X100057142Y-149478571D01*
X99771428Y-149478571D01*
X99628571Y-149407142D01*
X99557142Y-149264285D01*
X99557142Y-149192857D01*
X99628571Y-149050000D01*
X99771428Y-148978571D01*
X99985714Y-148978571D01*
X100128571Y-148907142D01*
X100200000Y-148764285D01*
X100200000Y-148692857D01*
X100128571Y-148550000D01*
X99985714Y-148478571D01*
X99771428Y-148478571D01*
X99628571Y-148550000D01*
X98700000Y-149478571D02*
X98842857Y-149407142D01*
X98914285Y-149264285D01*
X98914285Y-147978571D01*
X98128571Y-149478571D02*
X98128571Y-148478571D01*
X98128571Y-147978571D02*
X98200000Y-148050000D01*
X98128571Y-148121428D01*
X98057142Y-148050000D01*
X98128571Y-147978571D01*
X98128571Y-148121428D01*
X97628571Y-148478571D02*
X97057142Y-148478571D01*
X97414285Y-147978571D02*
X97414285Y-149264285D01*
X97342857Y-149407142D01*
X97200000Y-149478571D01*
X97057142Y-149478571D01*
X95985714Y-149407142D02*
X96128571Y-149478571D01*
X96414285Y-149478571D01*
X96557142Y-149407142D01*
X96628571Y-149264285D01*
X96628571Y-148692857D01*
X96557142Y-148550000D01*
X96414285Y-148478571D01*
X96128571Y-148478571D01*
X95985714Y-148550000D01*
X95914285Y-148692857D01*
X95914285Y-148835714D01*
X96628571Y-148978571D01*
X95271428Y-149335714D02*
X95200000Y-149407142D01*
X95271428Y-149478571D01*
X95342857Y-149407142D01*
X95271428Y-149335714D01*
X95271428Y-149478571D01*
X93914285Y-149407142D02*
X94057142Y-149478571D01*
X94342857Y-149478571D01*
X94485714Y-149407142D01*
X94557142Y-149335714D01*
X94628571Y-149192857D01*
X94628571Y-148764285D01*
X94557142Y-148621428D01*
X94485714Y-148550000D01*
X94342857Y-148478571D01*
X94057142Y-148478571D01*
X93914285Y-148550000D01*
X93057142Y-149478571D02*
X93200000Y-149407142D01*
X93271428Y-149335714D01*
X93342857Y-149192857D01*
X93342857Y-148764285D01*
X93271428Y-148621428D01*
X93200000Y-148550000D01*
X93057142Y-148478571D01*
X92842857Y-148478571D01*
X92700000Y-148550000D01*
X92628571Y-148621428D01*
X92557142Y-148764285D01*
X92557142Y-149192857D01*
X92628571Y-149335714D01*
X92700000Y-149407142D01*
X92842857Y-149478571D01*
X93057142Y-149478571D01*
X91914285Y-149478571D02*
X91914285Y-148478571D01*
X91914285Y-148621428D02*
X91842857Y-148550000D01*
X91700000Y-148478571D01*
X91485714Y-148478571D01*
X91342857Y-148550000D01*
X91271428Y-148692857D01*
X91271428Y-149478571D01*
X91271428Y-148692857D02*
X91200000Y-148550000D01*
X91057142Y-148478571D01*
X90842857Y-148478571D01*
X90700000Y-148550000D01*
X90628571Y-148692857D01*
X90628571Y-149478571D01*
X88842857Y-147907142D02*
X90128571Y-149835714D01*
X133057142Y-152028571D02*
X133057142Y-150528571D01*
X132200000Y-152028571D02*
X132842857Y-151171428D01*
X132200000Y-150528571D02*
X133057142Y-151385714D01*
X131557142Y-152028571D02*
X131557142Y-151028571D01*
X131557142Y-150528571D02*
X131628571Y-150600000D01*
X131557142Y-150671428D01*
X131485714Y-150600000D01*
X131557142Y-150528571D01*
X131557142Y-150671428D01*
X130200000Y-151957142D02*
X130342857Y-152028571D01*
X130628571Y-152028571D01*
X130771428Y-151957142D01*
X130842857Y-151885714D01*
X130914285Y-151742857D01*
X130914285Y-151314285D01*
X130842857Y-151171428D01*
X130771428Y-151100000D01*
X130628571Y-151028571D01*
X130342857Y-151028571D01*
X130200000Y-151100000D01*
X128914285Y-152028571D02*
X128914285Y-151242857D01*
X128985714Y-151100000D01*
X129128571Y-151028571D01*
X129414285Y-151028571D01*
X129557142Y-151100000D01*
X128914285Y-151957142D02*
X129057142Y-152028571D01*
X129414285Y-152028571D01*
X129557142Y-151957142D01*
X129628571Y-151814285D01*
X129628571Y-151671428D01*
X129557142Y-151528571D01*
X129414285Y-151457142D01*
X129057142Y-151457142D01*
X128914285Y-151385714D01*
X127557142Y-152028571D02*
X127557142Y-150528571D01*
X127557142Y-151957142D02*
X127700000Y-152028571D01*
X127985714Y-152028571D01*
X128128571Y-151957142D01*
X128200000Y-151885714D01*
X128271428Y-151742857D01*
X128271428Y-151314285D01*
X128200000Y-151171428D01*
X128128571Y-151100000D01*
X127985714Y-151028571D01*
X127700000Y-151028571D01*
X127557142Y-151100000D01*
X125700000Y-151028571D02*
X125700000Y-152528571D01*
X125700000Y-151100000D02*
X125557142Y-151028571D01*
X125271428Y-151028571D01*
X125128571Y-151100000D01*
X125057142Y-151171428D01*
X124985714Y-151314285D01*
X124985714Y-151742857D01*
X125057142Y-151885714D01*
X125128571Y-151957142D01*
X125271428Y-152028571D01*
X125557142Y-152028571D01*
X125700000Y-151957142D01*
X124342857Y-152028571D02*
X124342857Y-151028571D01*
X124342857Y-151314285D02*
X124271428Y-151171428D01*
X124200000Y-151100000D01*
X124057142Y-151028571D01*
X123914285Y-151028571D01*
X123200000Y-152028571D02*
X123342857Y-151957142D01*
X123414285Y-151885714D01*
X123485714Y-151742857D01*
X123485714Y-151314285D01*
X123414285Y-151171428D01*
X123342857Y-151100000D01*
X123200000Y-151028571D01*
X122985714Y-151028571D01*
X122842857Y-151100000D01*
X122771428Y-151171428D01*
X122700000Y-151314285D01*
X122700000Y-151742857D01*
X122771428Y-151885714D01*
X122842857Y-151957142D01*
X122985714Y-152028571D01*
X123200000Y-152028571D01*
X122057142Y-151028571D02*
X122057142Y-152314285D01*
X122128571Y-152457142D01*
X122271428Y-152528571D01*
X122342857Y-152528571D01*
X122057142Y-150528571D02*
X122128571Y-150600000D01*
X122057142Y-150671428D01*
X121985714Y-150600000D01*
X122057142Y-150528571D01*
X122057142Y-150671428D01*
X120771428Y-151957142D02*
X120914285Y-152028571D01*
X121200000Y-152028571D01*
X121342857Y-151957142D01*
X121414285Y-151814285D01*
X121414285Y-151242857D01*
X121342857Y-151100000D01*
X121200000Y-151028571D01*
X120914285Y-151028571D01*
X120771428Y-151100000D01*
X120700000Y-151242857D01*
X120700000Y-151385714D01*
X121414285Y-151528571D01*
X119414285Y-151957142D02*
X119557142Y-152028571D01*
X119842857Y-152028571D01*
X119985714Y-151957142D01*
X120057142Y-151885714D01*
X120128571Y-151742857D01*
X120128571Y-151314285D01*
X120057142Y-151171428D01*
X119985714Y-151100000D01*
X119842857Y-151028571D01*
X119557142Y-151028571D01*
X119414285Y-151100000D01*
X118985714Y-151028571D02*
X118414285Y-151028571D01*
X118771428Y-150528571D02*
X118771428Y-151814285D01*
X118700000Y-151957142D01*
X118557142Y-152028571D01*
X118414285Y-152028571D01*
X117985714Y-151957142D02*
X117842857Y-152028571D01*
X117557142Y-152028571D01*
X117414285Y-151957142D01*
X117342857Y-151814285D01*
X117342857Y-151742857D01*
X117414285Y-151600000D01*
X117557142Y-151528571D01*
X117771428Y-151528571D01*
X117914285Y-151457142D01*
X117985714Y-151314285D01*
X117985714Y-151242857D01*
X117914285Y-151100000D01*
X117771428Y-151028571D01*
X117557142Y-151028571D01*
X117414285Y-151100000D01*
X115771428Y-151028571D02*
X115200000Y-151028571D01*
X115557142Y-152028571D02*
X115557142Y-150742857D01*
X115485714Y-150600000D01*
X115342857Y-150528571D01*
X115200000Y-150528571D01*
X114485714Y-152028571D02*
X114628571Y-151957142D01*
X114700000Y-151885714D01*
X114771428Y-151742857D01*
X114771428Y-151314285D01*
X114700000Y-151171428D01*
X114628571Y-151100000D01*
X114485714Y-151028571D01*
X114271428Y-151028571D01*
X114128571Y-151100000D01*
X114057142Y-151171428D01*
X113985714Y-151314285D01*
X113985714Y-151742857D01*
X114057142Y-151885714D01*
X114128571Y-151957142D01*
X114271428Y-152028571D01*
X114485714Y-152028571D01*
X113342857Y-152028571D02*
X113342857Y-151028571D01*
X113342857Y-151314285D02*
X113271428Y-151171428D01*
X113200000Y-151100000D01*
X113057142Y-151028571D01*
X112914285Y-151028571D01*
X111271428Y-152028571D02*
X111271428Y-150528571D01*
X110700000Y-150528571D01*
X110557142Y-150600000D01*
X110485714Y-150671428D01*
X110414285Y-150814285D01*
X110414285Y-151028571D01*
X110485714Y-151171428D01*
X110557142Y-151242857D01*
X110700000Y-151314285D01*
X111271428Y-151314285D01*
X108914285Y-151885714D02*
X108985714Y-151957142D01*
X109200000Y-152028571D01*
X109342857Y-152028571D01*
X109557142Y-151957142D01*
X109700000Y-151814285D01*
X109771428Y-151671428D01*
X109842857Y-151385714D01*
X109842857Y-151171428D01*
X109771428Y-150885714D01*
X109700000Y-150742857D01*
X109557142Y-150600000D01*
X109342857Y-150528571D01*
X109200000Y-150528571D01*
X108985714Y-150600000D01*
X108914285Y-150671428D01*
X107771428Y-151242857D02*
X107557142Y-151314285D01*
X107485714Y-151385714D01*
X107414285Y-151528571D01*
X107414285Y-151742857D01*
X107485714Y-151885714D01*
X107557142Y-151957142D01*
X107700000Y-152028571D01*
X108271428Y-152028571D01*
X108271428Y-150528571D01*
X107771428Y-150528571D01*
X107628571Y-150600000D01*
X107557142Y-150671428D01*
X107485714Y-150814285D01*
X107485714Y-150957142D01*
X107557142Y-151100000D01*
X107628571Y-151171428D01*
X107771428Y-151242857D01*
X108271428Y-151242857D01*
X105057142Y-151957142D02*
X105200000Y-152028571D01*
X105485714Y-152028571D01*
X105628571Y-151957142D01*
X105700000Y-151814285D01*
X105700000Y-151242857D01*
X105628571Y-151100000D01*
X105485714Y-151028571D01*
X105200000Y-151028571D01*
X105057142Y-151100000D01*
X104985714Y-151242857D01*
X104985714Y-151385714D01*
X105700000Y-151528571D01*
X104342857Y-151028571D02*
X104342857Y-152028571D01*
X104342857Y-151171428D02*
X104271428Y-151100000D01*
X104128571Y-151028571D01*
X103914285Y-151028571D01*
X103771428Y-151100000D01*
X103700000Y-151242857D01*
X103700000Y-152028571D01*
X102342857Y-152028571D02*
X102342857Y-150528571D01*
X102342857Y-151957142D02*
X102485714Y-152028571D01*
X102771428Y-152028571D01*
X102914285Y-151957142D01*
X102985714Y-151885714D01*
X103057142Y-151742857D01*
X103057142Y-151314285D01*
X102985714Y-151171428D01*
X102914285Y-151100000D01*
X102771428Y-151028571D01*
X102485714Y-151028571D01*
X102342857Y-151100000D01*
X100485714Y-151028571D02*
X100485714Y-152528571D01*
X100485714Y-151100000D02*
X100342857Y-151028571D01*
X100057142Y-151028571D01*
X99914285Y-151100000D01*
X99842857Y-151171428D01*
X99771428Y-151314285D01*
X99771428Y-151742857D01*
X99842857Y-151885714D01*
X99914285Y-151957142D01*
X100057142Y-152028571D01*
X100342857Y-152028571D01*
X100485714Y-151957142D01*
X98914285Y-152028571D02*
X99057142Y-151957142D01*
X99128571Y-151814285D01*
X99128571Y-150528571D01*
X97700000Y-152028571D02*
X97700000Y-151242857D01*
X97771428Y-151100000D01*
X97914285Y-151028571D01*
X98200000Y-151028571D01*
X98342857Y-151100000D01*
X97700000Y-151957142D02*
X97842857Y-152028571D01*
X98200000Y-152028571D01*
X98342857Y-151957142D01*
X98414285Y-151814285D01*
X98414285Y-151671428D01*
X98342857Y-151528571D01*
X98200000Y-151457142D01*
X97842857Y-151457142D01*
X97700000Y-151385714D01*
X97200000Y-151028571D02*
X96628571Y-151028571D01*
X96985714Y-150528571D02*
X96985714Y-151814285D01*
X96914285Y-151957142D01*
X96771428Y-152028571D01*
X96628571Y-152028571D01*
X95557142Y-151957142D02*
X95700000Y-152028571D01*
X95985714Y-152028571D01*
X96128571Y-151957142D01*
X96200000Y-151814285D01*
X96200000Y-151242857D01*
X96128571Y-151100000D01*
X95985714Y-151028571D01*
X95700000Y-151028571D01*
X95557142Y-151100000D01*
X95485714Y-151242857D01*
X95485714Y-151385714D01*
X96200000Y-151528571D01*
X94914285Y-151957142D02*
X94771428Y-152028571D01*
X94485714Y-152028571D01*
X94342857Y-151957142D01*
X94271428Y-151814285D01*
X94271428Y-151742857D01*
X94342857Y-151600000D01*
X94485714Y-151528571D01*
X94700000Y-151528571D01*
X94842857Y-151457142D01*
X94914285Y-151314285D01*
X94914285Y-151242857D01*
X94842857Y-151100000D01*
X94700000Y-151028571D01*
X94485714Y-151028571D01*
X94342857Y-151100000D01*
X142664285Y-153435714D02*
X142807142Y-153364285D01*
X143092857Y-153364285D01*
X143235714Y-153435714D01*
X143378571Y-153578571D01*
X143450000Y-153721428D01*
X143450000Y-154007142D01*
X143378571Y-154150000D01*
X143235714Y-154292857D01*
X143092857Y-154364285D01*
X142807142Y-154364285D01*
X142664285Y-154292857D01*
X142950000Y-152864285D02*
X143307142Y-152935714D01*
X143664285Y-153150000D01*
X143878571Y-153507142D01*
X143950000Y-153864285D01*
X143878571Y-154221428D01*
X143664285Y-154578571D01*
X143307142Y-154792857D01*
X142950000Y-154864285D01*
X142592857Y-154792857D01*
X142235714Y-154578571D01*
X142021428Y-154221428D01*
X141950000Y-153864285D01*
X142021428Y-153507142D01*
X142235714Y-153150000D01*
X142592857Y-152935714D01*
X142950000Y-152864285D01*
X140235714Y-153221428D02*
X140164285Y-153150000D01*
X140021428Y-153078571D01*
X139664285Y-153078571D01*
X139521428Y-153150000D01*
X139450000Y-153221428D01*
X139378571Y-153364285D01*
X139378571Y-153507142D01*
X139450000Y-153721428D01*
X140307142Y-154578571D01*
X139378571Y-154578571D01*
X138450000Y-153078571D02*
X138307142Y-153078571D01*
X138164285Y-153150000D01*
X138092857Y-153221428D01*
X138021428Y-153364285D01*
X137950000Y-153650000D01*
X137950000Y-154007142D01*
X138021428Y-154292857D01*
X138092857Y-154435714D01*
X138164285Y-154507142D01*
X138307142Y-154578571D01*
X138450000Y-154578571D01*
X138592857Y-154507142D01*
X138664285Y-154435714D01*
X138735714Y-154292857D01*
X138807142Y-154007142D01*
X138807142Y-153650000D01*
X138735714Y-153364285D01*
X138664285Y-153221428D01*
X138592857Y-153150000D01*
X138450000Y-153078571D01*
X136521428Y-154578571D02*
X137378571Y-154578571D01*
X136950000Y-154578571D02*
X136950000Y-153078571D01*
X137092857Y-153292857D01*
X137235714Y-153435714D01*
X137378571Y-153507142D01*
X135807142Y-154578571D02*
X135521428Y-154578571D01*
X135378571Y-154507142D01*
X135307142Y-154435714D01*
X135164285Y-154221428D01*
X135092857Y-153935714D01*
X135092857Y-153364285D01*
X135164285Y-153221428D01*
X135235714Y-153150000D01*
X135378571Y-153078571D01*
X135664285Y-153078571D01*
X135807142Y-153150000D01*
X135878571Y-153221428D01*
X135950000Y-153364285D01*
X135950000Y-153721428D01*
X135878571Y-153864285D01*
X135807142Y-153935714D01*
X135664285Y-154007142D01*
X135378571Y-154007142D01*
X135235714Y-153935714D01*
X135164285Y-153864285D01*
X135092857Y-153721428D01*
X133307142Y-154578571D02*
X133307142Y-153078571D01*
X133307142Y-153650000D02*
X133164285Y-153578571D01*
X132878571Y-153578571D01*
X132735714Y-153650000D01*
X132664285Y-153721428D01*
X132592857Y-153864285D01*
X132592857Y-154292857D01*
X132664285Y-154435714D01*
X132735714Y-154507142D01*
X132878571Y-154578571D01*
X133164285Y-154578571D01*
X133307142Y-154507142D01*
X132092857Y-153578571D02*
X131735714Y-154578571D01*
X131378571Y-153578571D02*
X131735714Y-154578571D01*
X131878571Y-154935714D01*
X131950000Y-155007142D01*
X132092857Y-155078571D01*
X128807142Y-154578571D02*
X129307142Y-153864285D01*
X129664285Y-154578571D02*
X129664285Y-153078571D01*
X129092857Y-153078571D01*
X128950000Y-153150000D01*
X128878571Y-153221428D01*
X128807142Y-153364285D01*
X128807142Y-153578571D01*
X128878571Y-153721428D01*
X128950000Y-153792857D01*
X129092857Y-153864285D01*
X129664285Y-153864285D01*
X127950000Y-154578571D02*
X128092857Y-154507142D01*
X128164285Y-154435714D01*
X128235714Y-154292857D01*
X128235714Y-153864285D01*
X128164285Y-153721428D01*
X128092857Y-153650000D01*
X127950000Y-153578571D01*
X127735714Y-153578571D01*
X127592857Y-153650000D01*
X127521428Y-153721428D01*
X127450000Y-153864285D01*
X127450000Y-154292857D01*
X127521428Y-154435714D01*
X127592857Y-154507142D01*
X127735714Y-154578571D01*
X127950000Y-154578571D01*
X126164285Y-153578571D02*
X126164285Y-154792857D01*
X126235714Y-154935714D01*
X126307142Y-155007142D01*
X126450000Y-155078571D01*
X126664285Y-155078571D01*
X126807142Y-155007142D01*
X126164285Y-154507142D02*
X126307142Y-154578571D01*
X126592857Y-154578571D01*
X126735714Y-154507142D01*
X126807142Y-154435714D01*
X126878571Y-154292857D01*
X126878571Y-153864285D01*
X126807142Y-153721428D01*
X126735714Y-153650000D01*
X126592857Y-153578571D01*
X126307142Y-153578571D01*
X126164285Y-153650000D01*
X124878571Y-154507142D02*
X125021428Y-154578571D01*
X125307142Y-154578571D01*
X125450000Y-154507142D01*
X125521428Y-154364285D01*
X125521428Y-153792857D01*
X125450000Y-153650000D01*
X125307142Y-153578571D01*
X125021428Y-153578571D01*
X124878571Y-153650000D01*
X124807142Y-153792857D01*
X124807142Y-153935714D01*
X125521428Y-154078571D01*
X124164285Y-154578571D02*
X124164285Y-153578571D01*
X124164285Y-153864285D02*
X124092857Y-153721428D01*
X124021428Y-153650000D01*
X123878571Y-153578571D01*
X123735714Y-153578571D01*
X122092857Y-153792857D02*
X121592857Y-153792857D01*
X121378571Y-154578571D02*
X122092857Y-154578571D01*
X122092857Y-153078571D01*
X121378571Y-153078571D01*
X118735714Y-154435714D02*
X118807142Y-154507142D01*
X119021428Y-154578571D01*
X119164285Y-154578571D01*
X119378571Y-154507142D01*
X119521428Y-154364285D01*
X119592857Y-154221428D01*
X119664285Y-153935714D01*
X119664285Y-153721428D01*
X119592857Y-153435714D01*
X119521428Y-153292857D01*
X119378571Y-153150000D01*
X119164285Y-153078571D01*
X119021428Y-153078571D01*
X118807142Y-153150000D01*
X118735714Y-153221428D01*
X118092857Y-154578571D02*
X118092857Y-153578571D01*
X118092857Y-153864285D02*
X118021428Y-153721428D01*
X117950000Y-153650000D01*
X117807142Y-153578571D01*
X117664285Y-153578571D01*
X117164285Y-154578571D02*
X117164285Y-153578571D01*
X117164285Y-153078571D02*
X117235714Y-153150000D01*
X117164285Y-153221428D01*
X117092857Y-153150000D01*
X117164285Y-153078571D01*
X117164285Y-153221428D01*
X116664285Y-153578571D02*
X116092857Y-153578571D01*
X116450000Y-153078571D02*
X116450000Y-154364285D01*
X116378571Y-154507142D01*
X116235714Y-154578571D01*
X116092857Y-154578571D01*
X114950000Y-154507142D02*
X115092857Y-154578571D01*
X115378571Y-154578571D01*
X115521428Y-154507142D01*
X115592857Y-154435714D01*
X115664285Y-154292857D01*
X115664285Y-153864285D01*
X115592857Y-153721428D01*
X115521428Y-153650000D01*
X115378571Y-153578571D01*
X115092857Y-153578571D01*
X114950000Y-153650000D01*
X114307142Y-154578571D02*
X114307142Y-153078571D01*
X113664285Y-154578571D02*
X113664285Y-153792857D01*
X113735714Y-153650000D01*
X113878571Y-153578571D01*
X114092857Y-153578571D01*
X114235714Y-153650000D01*
X114307142Y-153721428D01*
X112735714Y-154578571D02*
X112878571Y-154507142D01*
X112950000Y-154364285D01*
X112950000Y-153078571D01*
X111950000Y-154578571D02*
X112092857Y-154507142D01*
X112164285Y-154435714D01*
X112235714Y-154292857D01*
X112235714Y-153864285D01*
X112164285Y-153721428D01*
X112092857Y-153650000D01*
X111950000Y-153578571D01*
X111735714Y-153578571D01*
X111592857Y-153650000D01*
X111521428Y-153721428D01*
X111450000Y-153864285D01*
X111450000Y-154292857D01*
X111521428Y-154435714D01*
X111592857Y-154507142D01*
X111735714Y-154578571D01*
X111950000Y-154578571D01*
X110950000Y-153578571D02*
X110664285Y-154578571D01*
X110378571Y-153864285D01*
X110092857Y-154578571D01*
X109807142Y-153578571D01*
X107664285Y-153078571D02*
X107664285Y-154150000D01*
X107735714Y-154364285D01*
X107878571Y-154507142D01*
X108092857Y-154578571D01*
X108235714Y-154578571D01*
X106950000Y-154578571D02*
X106950000Y-153578571D01*
X106950000Y-153864285D02*
X106878571Y-153721428D01*
X106807142Y-153650000D01*
X106664285Y-153578571D01*
X106521428Y-153578571D01*
X105950000Y-154507142D02*
X105950000Y-154578571D01*
X106021428Y-154721428D01*
X106092857Y-154792857D01*
X104235714Y-154507142D02*
X104021428Y-154578571D01*
X103664285Y-154578571D01*
X103521428Y-154507142D01*
X103450000Y-154435714D01*
X103378571Y-154292857D01*
X103378571Y-154150000D01*
X103450000Y-154007142D01*
X103521428Y-153935714D01*
X103664285Y-153864285D01*
X103950000Y-153792857D01*
X104092857Y-153721428D01*
X104164285Y-153650000D01*
X104235714Y-153507142D01*
X104235714Y-153364285D01*
X104164285Y-153221428D01*
X104092857Y-153150000D01*
X103950000Y-153078571D01*
X103592857Y-153078571D01*
X103378571Y-153150000D01*
X102092857Y-154578571D02*
X102092857Y-153792857D01*
X102164285Y-153650000D01*
X102307142Y-153578571D01*
X102592857Y-153578571D01*
X102735714Y-153650000D01*
X102092857Y-154507142D02*
X102235714Y-154578571D01*
X102592857Y-154578571D01*
X102735714Y-154507142D01*
X102807142Y-154364285D01*
X102807142Y-154221428D01*
X102735714Y-154078571D01*
X102592857Y-154007142D01*
X102235714Y-154007142D01*
X102092857Y-153935714D01*
X101378571Y-153578571D02*
X101378571Y-154578571D01*
X101378571Y-153721428D02*
X101307142Y-153650000D01*
X101164285Y-153578571D01*
X100950000Y-153578571D01*
X100807142Y-153650000D01*
X100735714Y-153792857D01*
X100735714Y-154578571D01*
X100235714Y-153578571D02*
X99664285Y-153578571D01*
X100021428Y-153078571D02*
X100021428Y-154364285D01*
X99950000Y-154507142D01*
X99807142Y-154578571D01*
X99664285Y-154578571D01*
X98521428Y-154578571D02*
X98521428Y-153792857D01*
X98592857Y-153650000D01*
X98735714Y-153578571D01*
X99021428Y-153578571D01*
X99164285Y-153650000D01*
X98521428Y-154507142D02*
X98664285Y-154578571D01*
X99021428Y-154578571D01*
X99164285Y-154507142D01*
X99235714Y-154364285D01*
X99235714Y-154221428D01*
X99164285Y-154078571D01*
X99021428Y-154007142D01*
X98664285Y-154007142D01*
X98521428Y-153935714D01*
X96164285Y-153792857D02*
X96664285Y-153792857D01*
X96664285Y-154578571D02*
X96664285Y-153078571D01*
X95950000Y-153078571D01*
X94807142Y-154507142D02*
X94950000Y-154578571D01*
X95235714Y-154578571D01*
X95378571Y-154507142D01*
X95450000Y-154364285D01*
X95450000Y-153792857D01*
X95378571Y-153650000D01*
X95235714Y-153578571D01*
X94950000Y-153578571D01*
X94807142Y-153650000D01*
X94735714Y-153792857D01*
X94735714Y-153935714D01*
X95450000Y-154078571D01*
X94021428Y-154507142D02*
X94021428Y-154578571D01*
X94092857Y-154721428D01*
X94164285Y-154792857D01*
X92235714Y-154578571D02*
X92235714Y-153078571D01*
X91378571Y-154578571D01*
X91378571Y-153078571D01*
X90664285Y-154578571D02*
X90664285Y-153078571D01*
X90164285Y-154150000D01*
X89664285Y-153078571D01*
X89664285Y-154578571D01*
X88878571Y-154507142D02*
X88878571Y-154578571D01*
X88950000Y-154721428D01*
X89021428Y-154792857D01*
X87092857Y-153078571D02*
X87092857Y-154292857D01*
X87021428Y-154435714D01*
X86950000Y-154507142D01*
X86807142Y-154578571D01*
X86521428Y-154578571D01*
X86378571Y-154507142D01*
X86307142Y-154435714D01*
X86235714Y-154292857D01*
X86235714Y-153078571D01*
X85592857Y-154507142D02*
X85378571Y-154578571D01*
X85021428Y-154578571D01*
X84878571Y-154507142D01*
X84807142Y-154435714D01*
X84735714Y-154292857D01*
X84735714Y-154150000D01*
X84807142Y-154007142D01*
X84878571Y-153935714D01*
X85021428Y-153864285D01*
X85307142Y-153792857D01*
X85450000Y-153721428D01*
X85521428Y-153650000D01*
X85592857Y-153507142D01*
X85592857Y-153364285D01*
X85521428Y-153221428D01*
X85450000Y-153150000D01*
X85307142Y-153078571D01*
X84950000Y-153078571D01*
X84735714Y-153150000D01*
X84164285Y-154150000D02*
X83450000Y-154150000D01*
X84307142Y-154578571D02*
X83807142Y-153078571D01*
X83307142Y-154578571D01*
X146950000Y-157128571D02*
X146950000Y-155628571D01*
X146378571Y-155628571D01*
X146235714Y-155700000D01*
X146164285Y-155771428D01*
X146092857Y-155914285D01*
X146092857Y-156128571D01*
X146164285Y-156271428D01*
X146235714Y-156342857D01*
X146378571Y-156414285D01*
X146950000Y-156414285D01*
X144878571Y-157057142D02*
X145021428Y-157128571D01*
X145307142Y-157128571D01*
X145450000Y-157057142D01*
X145521428Y-156914285D01*
X145521428Y-156342857D01*
X145450000Y-156200000D01*
X145307142Y-156128571D01*
X145021428Y-156128571D01*
X144878571Y-156200000D01*
X144807142Y-156342857D01*
X144807142Y-156485714D01*
X145521428Y-156628571D01*
X144164285Y-157128571D02*
X144164285Y-156128571D01*
X144164285Y-156414285D02*
X144092857Y-156271428D01*
X144021428Y-156200000D01*
X143878571Y-156128571D01*
X143735714Y-156128571D01*
X143235714Y-157128571D02*
X143235714Y-156128571D01*
X143235714Y-156271428D02*
X143164285Y-156200000D01*
X143021428Y-156128571D01*
X142807142Y-156128571D01*
X142664285Y-156200000D01*
X142592857Y-156342857D01*
X142592857Y-157128571D01*
X142592857Y-156342857D02*
X142521428Y-156200000D01*
X142378571Y-156128571D01*
X142164285Y-156128571D01*
X142021428Y-156200000D01*
X141950000Y-156342857D01*
X141950000Y-157128571D01*
X141235714Y-157128571D02*
X141235714Y-156128571D01*
X141235714Y-155628571D02*
X141307142Y-155700000D01*
X141235714Y-155771428D01*
X141164285Y-155700000D01*
X141235714Y-155628571D01*
X141235714Y-155771428D01*
X140592857Y-157057142D02*
X140450000Y-157128571D01*
X140164285Y-157128571D01*
X140021428Y-157057142D01*
X139950000Y-156914285D01*
X139950000Y-156842857D01*
X140021428Y-156700000D01*
X140164285Y-156628571D01*
X140378571Y-156628571D01*
X140521428Y-156557142D01*
X140592857Y-156414285D01*
X140592857Y-156342857D01*
X140521428Y-156200000D01*
X140378571Y-156128571D01*
X140164285Y-156128571D01*
X140021428Y-156200000D01*
X139378571Y-157057142D02*
X139235714Y-157128571D01*
X138950000Y-157128571D01*
X138807142Y-157057142D01*
X138735714Y-156914285D01*
X138735714Y-156842857D01*
X138807142Y-156700000D01*
X138950000Y-156628571D01*
X139164285Y-156628571D01*
X139307142Y-156557142D01*
X139378571Y-156414285D01*
X139378571Y-156342857D01*
X139307142Y-156200000D01*
X139164285Y-156128571D01*
X138950000Y-156128571D01*
X138807142Y-156200000D01*
X138092857Y-157128571D02*
X138092857Y-156128571D01*
X138092857Y-155628571D02*
X138164285Y-155700000D01*
X138092857Y-155771428D01*
X138021428Y-155700000D01*
X138092857Y-155628571D01*
X138092857Y-155771428D01*
X137164285Y-157128571D02*
X137307142Y-157057142D01*
X137378571Y-156985714D01*
X137450000Y-156842857D01*
X137450000Y-156414285D01*
X137378571Y-156271428D01*
X137307142Y-156200000D01*
X137164285Y-156128571D01*
X136950000Y-156128571D01*
X136807142Y-156200000D01*
X136735714Y-156271428D01*
X136664285Y-156414285D01*
X136664285Y-156842857D01*
X136735714Y-156985714D01*
X136807142Y-157057142D01*
X136950000Y-157128571D01*
X137164285Y-157128571D01*
X136021428Y-156128571D02*
X136021428Y-157128571D01*
X136021428Y-156271428D02*
X135950000Y-156200000D01*
X135807142Y-156128571D01*
X135592857Y-156128571D01*
X135450000Y-156200000D01*
X135378571Y-156342857D01*
X135378571Y-157128571D01*
X132878571Y-156128571D02*
X132878571Y-157342857D01*
X132950000Y-157485714D01*
X133021428Y-157557142D01*
X133164285Y-157628571D01*
X133378571Y-157628571D01*
X133521428Y-157557142D01*
X132878571Y-157057142D02*
X133021428Y-157128571D01*
X133307142Y-157128571D01*
X133450000Y-157057142D01*
X133521428Y-156985714D01*
X133592857Y-156842857D01*
X133592857Y-156414285D01*
X133521428Y-156271428D01*
X133450000Y-156200000D01*
X133307142Y-156128571D01*
X133021428Y-156128571D01*
X132878571Y-156200000D01*
X132164285Y-157128571D02*
X132164285Y-156128571D01*
X132164285Y-156414285D02*
X132092857Y-156271428D01*
X132021428Y-156200000D01*
X131878571Y-156128571D01*
X131735714Y-156128571D01*
X130592857Y-157128571D02*
X130592857Y-156342857D01*
X130664285Y-156200000D01*
X130807142Y-156128571D01*
X131092857Y-156128571D01*
X131235714Y-156200000D01*
X130592857Y-157057142D02*
X130735714Y-157128571D01*
X131092857Y-157128571D01*
X131235714Y-157057142D01*
X131307142Y-156914285D01*
X131307142Y-156771428D01*
X131235714Y-156628571D01*
X131092857Y-156557142D01*
X130735714Y-156557142D01*
X130592857Y-156485714D01*
X129878571Y-156128571D02*
X129878571Y-157128571D01*
X129878571Y-156271428D02*
X129807142Y-156200000D01*
X129664285Y-156128571D01*
X129450000Y-156128571D01*
X129307142Y-156200000D01*
X129235714Y-156342857D01*
X129235714Y-157128571D01*
X128735714Y-156128571D02*
X128164285Y-156128571D01*
X128521428Y-155628571D02*
X128521428Y-156914285D01*
X128450000Y-157057142D01*
X128307142Y-157128571D01*
X128164285Y-157128571D01*
X127092857Y-157057142D02*
X127235714Y-157128571D01*
X127521428Y-157128571D01*
X127664285Y-157057142D01*
X127735714Y-156914285D01*
X127735714Y-156342857D01*
X127664285Y-156200000D01*
X127521428Y-156128571D01*
X127235714Y-156128571D01*
X127092857Y-156200000D01*
X127021428Y-156342857D01*
X127021428Y-156485714D01*
X127735714Y-156628571D01*
X125735714Y-157128571D02*
X125735714Y-155628571D01*
X125735714Y-157057142D02*
X125878571Y-157128571D01*
X126164285Y-157128571D01*
X126307142Y-157057142D01*
X126378571Y-156985714D01*
X126450000Y-156842857D01*
X126450000Y-156414285D01*
X126378571Y-156271428D01*
X126307142Y-156200000D01*
X126164285Y-156128571D01*
X125878571Y-156128571D01*
X125735714Y-156200000D01*
X124092857Y-156128571D02*
X123521428Y-156128571D01*
X123878571Y-155628571D02*
X123878571Y-156914285D01*
X123807142Y-157057142D01*
X123664285Y-157128571D01*
X123521428Y-157128571D01*
X122807142Y-157128571D02*
X122950000Y-157057142D01*
X123021428Y-156985714D01*
X123092857Y-156842857D01*
X123092857Y-156414285D01*
X123021428Y-156271428D01*
X122950000Y-156200000D01*
X122807142Y-156128571D01*
X122592857Y-156128571D01*
X122450000Y-156200000D01*
X122378571Y-156271428D01*
X122307142Y-156414285D01*
X122307142Y-156842857D01*
X122378571Y-156985714D01*
X122450000Y-157057142D01*
X122592857Y-157128571D01*
X122807142Y-157128571D01*
X119878571Y-157057142D02*
X120021428Y-157128571D01*
X120307142Y-157128571D01*
X120450000Y-157057142D01*
X120521428Y-156985714D01*
X120592857Y-156842857D01*
X120592857Y-156414285D01*
X120521428Y-156271428D01*
X120450000Y-156200000D01*
X120307142Y-156128571D01*
X120021428Y-156128571D01*
X119878571Y-156200000D01*
X119021428Y-157128571D02*
X119164285Y-157057142D01*
X119235714Y-156985714D01*
X119307142Y-156842857D01*
X119307142Y-156414285D01*
X119235714Y-156271428D01*
X119164285Y-156200000D01*
X119021428Y-156128571D01*
X118807142Y-156128571D01*
X118664285Y-156200000D01*
X118592857Y-156271428D01*
X118521428Y-156414285D01*
X118521428Y-156842857D01*
X118592857Y-156985714D01*
X118664285Y-157057142D01*
X118807142Y-157128571D01*
X119021428Y-157128571D01*
X117878571Y-156128571D02*
X117878571Y-157628571D01*
X117878571Y-156200000D02*
X117735714Y-156128571D01*
X117450000Y-156128571D01*
X117307142Y-156200000D01*
X117235714Y-156271428D01*
X117164285Y-156414285D01*
X117164285Y-156842857D01*
X117235714Y-156985714D01*
X117307142Y-157057142D01*
X117450000Y-157128571D01*
X117735714Y-157128571D01*
X117878571Y-157057142D01*
X116664285Y-156128571D02*
X116307142Y-157128571D01*
X115950000Y-156128571D02*
X116307142Y-157128571D01*
X116450000Y-157485714D01*
X116521428Y-157557142D01*
X116664285Y-157628571D01*
X113592857Y-157128571D02*
X113592857Y-156342857D01*
X113664285Y-156200000D01*
X113807142Y-156128571D01*
X114092857Y-156128571D01*
X114235714Y-156200000D01*
X113592857Y-157057142D02*
X113735714Y-157128571D01*
X114092857Y-157128571D01*
X114235714Y-157057142D01*
X114307142Y-156914285D01*
X114307142Y-156771428D01*
X114235714Y-156628571D01*
X114092857Y-156557142D01*
X113735714Y-156557142D01*
X113592857Y-156485714D01*
X112878571Y-156128571D02*
X112878571Y-157128571D01*
X112878571Y-156271428D02*
X112807142Y-156200000D01*
X112664285Y-156128571D01*
X112449999Y-156128571D01*
X112307142Y-156200000D01*
X112235714Y-156342857D01*
X112235714Y-157128571D01*
X110878571Y-157128571D02*
X110878571Y-155628571D01*
X110878571Y-157057142D02*
X111021428Y-157128571D01*
X111307142Y-157128571D01*
X111449999Y-157057142D01*
X111521428Y-156985714D01*
X111592857Y-156842857D01*
X111592857Y-156414285D01*
X111521428Y-156271428D01*
X111449999Y-156200000D01*
X111307142Y-156128571D01*
X111021428Y-156128571D01*
X110878571Y-156200000D01*
X109235714Y-156128571D02*
X108664285Y-156128571D01*
X109021428Y-155628571D02*
X109021428Y-156914285D01*
X108949999Y-157057142D01*
X108807142Y-157128571D01*
X108664285Y-157128571D01*
X107949999Y-157128571D02*
X108092857Y-157057142D01*
X108164285Y-156985714D01*
X108235714Y-156842857D01*
X108235714Y-156414285D01*
X108164285Y-156271428D01*
X108092857Y-156200000D01*
X107949999Y-156128571D01*
X107735714Y-156128571D01*
X107592857Y-156200000D01*
X107521428Y-156271428D01*
X107449999Y-156414285D01*
X107449999Y-156842857D01*
X107521428Y-156985714D01*
X107592857Y-157057142D01*
X107735714Y-157128571D01*
X107949999Y-157128571D01*
X105664285Y-157128571D02*
X105664285Y-156128571D01*
X105664285Y-156271428D02*
X105592857Y-156200000D01*
X105449999Y-156128571D01*
X105235714Y-156128571D01*
X105092857Y-156200000D01*
X105021428Y-156342857D01*
X105021428Y-157128571D01*
X105021428Y-156342857D02*
X104949999Y-156200000D01*
X104807142Y-156128571D01*
X104592857Y-156128571D01*
X104449999Y-156200000D01*
X104378571Y-156342857D01*
X104378571Y-157128571D01*
X103021428Y-157128571D02*
X103021428Y-156342857D01*
X103092857Y-156200000D01*
X103235714Y-156128571D01*
X103521428Y-156128571D01*
X103664285Y-156200000D01*
X103021428Y-157057142D02*
X103164285Y-157128571D01*
X103521428Y-157128571D01*
X103664285Y-157057142D01*
X103735714Y-156914285D01*
X103735714Y-156771428D01*
X103664285Y-156628571D01*
X103521428Y-156557142D01*
X103164285Y-156557142D01*
X103021428Y-156485714D01*
X102307142Y-157128571D02*
X102307142Y-155628571D01*
X102164285Y-156557142D02*
X101735714Y-157128571D01*
X101735714Y-156128571D02*
X102307142Y-156700000D01*
X100521428Y-157057142D02*
X100664285Y-157128571D01*
X100949999Y-157128571D01*
X101092857Y-157057142D01*
X101164285Y-156914285D01*
X101164285Y-156342857D01*
X101092857Y-156200000D01*
X100949999Y-156128571D01*
X100664285Y-156128571D01*
X100521428Y-156200000D01*
X100449999Y-156342857D01*
X100449999Y-156485714D01*
X101164285Y-156628571D01*
X98021428Y-157128571D02*
X98021428Y-155628571D01*
X98021428Y-157057142D02*
X98164285Y-157128571D01*
X98449999Y-157128571D01*
X98592857Y-157057142D01*
X98664285Y-156985714D01*
X98735714Y-156842857D01*
X98735714Y-156414285D01*
X98664285Y-156271428D01*
X98592857Y-156200000D01*
X98449999Y-156128571D01*
X98164285Y-156128571D01*
X98021428Y-156200000D01*
X96735714Y-157057142D02*
X96878571Y-157128571D01*
X97164285Y-157128571D01*
X97307142Y-157057142D01*
X97378571Y-156914285D01*
X97378571Y-156342857D01*
X97307142Y-156200000D01*
X97164285Y-156128571D01*
X96878571Y-156128571D01*
X96735714Y-156200000D01*
X96664285Y-156342857D01*
X96664285Y-156485714D01*
X97378571Y-156628571D01*
X96021428Y-157128571D02*
X96021428Y-156128571D01*
X96021428Y-156414285D02*
X95949999Y-156271428D01*
X95878571Y-156200000D01*
X95735714Y-156128571D01*
X95592857Y-156128571D01*
X95092857Y-157128571D02*
X95092857Y-156128571D01*
X95092857Y-155628571D02*
X95164285Y-155700000D01*
X95092857Y-155771428D01*
X95021428Y-155700000D01*
X95092857Y-155628571D01*
X95092857Y-155771428D01*
X94521428Y-156128571D02*
X94164285Y-157128571D01*
X93807142Y-156128571D01*
X92592857Y-157128571D02*
X92592857Y-156342857D01*
X92664285Y-156200000D01*
X92807142Y-156128571D01*
X93092857Y-156128571D01*
X93235714Y-156200000D01*
X92592857Y-157057142D02*
X92735714Y-157128571D01*
X93092857Y-157128571D01*
X93235714Y-157057142D01*
X93307142Y-156914285D01*
X93307142Y-156771428D01*
X93235714Y-156628571D01*
X93092857Y-156557142D01*
X92735714Y-156557142D01*
X92592857Y-156485714D01*
X92092857Y-156128571D02*
X91521428Y-156128571D01*
X91878571Y-155628571D02*
X91878571Y-156914285D01*
X91807142Y-157057142D01*
X91664285Y-157128571D01*
X91521428Y-157128571D01*
X91021428Y-157128571D02*
X91021428Y-156128571D01*
X91021428Y-155628571D02*
X91092857Y-155700000D01*
X91021428Y-155771428D01*
X90949999Y-155700000D01*
X91021428Y-155628571D01*
X91021428Y-155771428D01*
X90449999Y-156128571D02*
X90092857Y-157128571D01*
X89735714Y-156128571D01*
X88592857Y-157057142D02*
X88735714Y-157128571D01*
X89021428Y-157128571D01*
X89164285Y-157057142D01*
X89235714Y-156914285D01*
X89235714Y-156342857D01*
X89164285Y-156200000D01*
X89021428Y-156128571D01*
X88735714Y-156128571D01*
X88592857Y-156200000D01*
X88521428Y-156342857D01*
X88521428Y-156485714D01*
X89235714Y-156628571D01*
X86878571Y-156128571D02*
X86592857Y-157128571D01*
X86307142Y-156414285D01*
X86021428Y-157128571D01*
X85735714Y-156128571D01*
X84949999Y-157128571D02*
X85092857Y-157057142D01*
X85164285Y-156985714D01*
X85235714Y-156842857D01*
X85235714Y-156414285D01*
X85164285Y-156271428D01*
X85092857Y-156200000D01*
X84949999Y-156128571D01*
X84735714Y-156128571D01*
X84592857Y-156200000D01*
X84521428Y-156271428D01*
X84449999Y-156414285D01*
X84449999Y-156842857D01*
X84521428Y-156985714D01*
X84592857Y-157057142D01*
X84735714Y-157128571D01*
X84949999Y-157128571D01*
X83807142Y-157128571D02*
X83807142Y-156128571D01*
X83807142Y-156414285D02*
X83735714Y-156271428D01*
X83664285Y-156200000D01*
X83521428Y-156128571D01*
X83378571Y-156128571D01*
X82878571Y-157128571D02*
X82878571Y-155628571D01*
X82735714Y-156557142D02*
X82307142Y-157128571D01*
X82307142Y-156128571D02*
X82878571Y-156700000D01*
X81735714Y-157057142D02*
X81592857Y-157128571D01*
X81307142Y-157128571D01*
X81164285Y-157057142D01*
X81092857Y-156914285D01*
X81092857Y-156842857D01*
X81164285Y-156700000D01*
X81307142Y-156628571D01*
X81521428Y-156628571D01*
X81664285Y-156557142D01*
X81735714Y-156414285D01*
X81735714Y-156342857D01*
X81664285Y-156200000D01*
X81521428Y-156128571D01*
X81307142Y-156128571D01*
X81164285Y-156200000D01*
X80449999Y-156985714D02*
X80378571Y-157057142D01*
X80449999Y-157128571D01*
X80521428Y-157057142D01*
X80449999Y-156985714D01*
X80449999Y-157128571D01*
X120735714Y-158178571D02*
X119735714Y-158178571D01*
X120378571Y-159678571D01*
X119307142Y-158178571D02*
X118378571Y-158178571D01*
X118878571Y-158750000D01*
X118664285Y-158750000D01*
X118521428Y-158821428D01*
X118450000Y-158892857D01*
X118378571Y-159035714D01*
X118378571Y-159392857D01*
X118450000Y-159535714D01*
X118521428Y-159607142D01*
X118664285Y-159678571D01*
X119092857Y-159678571D01*
X119235714Y-159607142D01*
X119307142Y-159535714D01*
X115950000Y-159678571D02*
X115950000Y-158178571D01*
X115950000Y-159607142D02*
X116092857Y-159678571D01*
X116378571Y-159678571D01*
X116521428Y-159607142D01*
X116592857Y-159535714D01*
X116664285Y-159392857D01*
X116664285Y-158964285D01*
X116592857Y-158821428D01*
X116521428Y-158750000D01*
X116378571Y-158678571D01*
X116092857Y-158678571D01*
X115950000Y-158750000D01*
X114664285Y-159607142D02*
X114807142Y-159678571D01*
X115092857Y-159678571D01*
X115235714Y-159607142D01*
X115307142Y-159464285D01*
X115307142Y-158892857D01*
X115235714Y-158750000D01*
X115092857Y-158678571D01*
X114807142Y-158678571D01*
X114664285Y-158750000D01*
X114592857Y-158892857D01*
X114592857Y-159035714D01*
X115307142Y-159178571D01*
X112164285Y-159678571D02*
X112164285Y-158892857D01*
X112235714Y-158750000D01*
X112378571Y-158678571D01*
X112664285Y-158678571D01*
X112807142Y-158750000D01*
X112164285Y-159607142D02*
X112307142Y-159678571D01*
X112664285Y-159678571D01*
X112807142Y-159607142D01*
X112878571Y-159464285D01*
X112878571Y-159321428D01*
X112807142Y-159178571D01*
X112664285Y-159107142D01*
X112307142Y-159107142D01*
X112164285Y-159035714D01*
X110807142Y-159678571D02*
X110807142Y-158178571D01*
X110807142Y-159607142D02*
X110950000Y-159678571D01*
X111235714Y-159678571D01*
X111378571Y-159607142D01*
X111450000Y-159535714D01*
X111521428Y-159392857D01*
X111521428Y-158964285D01*
X111450000Y-158821428D01*
X111378571Y-158750000D01*
X111235714Y-158678571D01*
X110950000Y-158678571D01*
X110807142Y-158750000D01*
X109378571Y-158178571D02*
X110092857Y-158178571D01*
X110164285Y-158892857D01*
X110092857Y-158821428D01*
X109950000Y-158750000D01*
X109592857Y-158750000D01*
X109450000Y-158821428D01*
X109378571Y-158892857D01*
X109307142Y-159035714D01*
X109307142Y-159392857D01*
X109378571Y-159535714D01*
X109450000Y-159607142D01*
X109592857Y-159678571D01*
X109950000Y-159678571D01*
X110092857Y-159607142D01*
X110164285Y-159535714D01*
X108021428Y-159678571D02*
X108021428Y-158178571D01*
X108021428Y-159607142D02*
X108164285Y-159678571D01*
X108450000Y-159678571D01*
X108592857Y-159607142D01*
X108664285Y-159535714D01*
X108735714Y-159392857D01*
X108735714Y-158964285D01*
X108664285Y-158821428D01*
X108592857Y-158750000D01*
X108450000Y-158678571D01*
X108164285Y-158678571D01*
X108021428Y-158750000D01*
X107450000Y-158678571D02*
X106664285Y-158678571D01*
X107450000Y-159678571D01*
X106664285Y-159678571D01*
M02*
