G04 #@! TF.GenerationSoftware,KiCad,Pcbnew,5.0.2+dfsg1-1*
G04 #@! TF.CreationDate,2019-07-23T09:40:59-06:00*
G04 #@! TF.ProjectId,hl2-front-vert,686c322d-6672-46f6-9e74-2d766572742e,rev?*
G04 #@! TF.SameCoordinates,Original*
G04 #@! TF.FileFunction,Copper,L2,Bot*
G04 #@! TF.FilePolarity,Positive*
%FSLAX46Y46*%
G04 Gerber Fmt 4.6, Leading zero omitted, Abs format (unit mm)*
G04 Created by KiCad (PCBNEW 5.0.2+dfsg1-1) date Tue 23 Jul 2019 09:40:59 AM MDT*
%MOMM*%
%LPD*%
G01*
G04 APERTURE LIST*
G04 #@! TA.AperFunction,ComponentPad*
%ADD10O,4.450000X4.200000*%
G04 #@! TD*
G04 #@! TA.AperFunction,Conductor*
%ADD11C,0.254000*%
G04 #@! TD*
G04 APERTURE END LIST*
D10*
G04 #@! TO.P,H1,1*
G04 #@! TO.N,GND*
X64837664Y-144461404D03*
G04 #@! TD*
G04 #@! TO.P,H4,1*
G04 #@! TO.N,GND*
X64835847Y-191382711D03*
G04 #@! TD*
G04 #@! TO.P,H3,1*
G04 #@! TO.N,GND*
X160655625Y-191376298D03*
G04 #@! TD*
G04 #@! TO.P,H2,1*
G04 #@! TO.N,GND*
X160649213Y-144459694D03*
G04 #@! TD*
D11*
G04 #@! TO.N,GND*
G36*
X164365001Y-144104448D02*
X164365000Y-150394941D01*
X164184642Y-150394927D01*
X164112220Y-150380521D01*
X163960774Y-150410646D01*
X163825494Y-150437543D01*
X163825469Y-150437560D01*
X163825438Y-150437566D01*
X163701861Y-150520137D01*
X163582358Y-150599973D01*
X163582341Y-150599998D01*
X163582316Y-150600015D01*
X163502504Y-150719463D01*
X163419890Y-150843081D01*
X163419884Y-150843112D01*
X163419867Y-150843137D01*
X163391528Y-150985607D01*
X163362822Y-151129860D01*
X163377221Y-151202279D01*
X163377220Y-184642027D01*
X163362822Y-184714443D01*
X163389690Y-184849457D01*
X163419866Y-185001162D01*
X163419885Y-185001190D01*
X163419891Y-185001221D01*
X163497086Y-185116730D01*
X163582315Y-185244285D01*
X163582344Y-185244304D01*
X163582361Y-185244330D01*
X163699183Y-185322374D01*
X163825437Y-185406734D01*
X163825470Y-185406741D01*
X163825496Y-185406758D01*
X163965004Y-185434496D01*
X164112220Y-185463779D01*
X164184640Y-185449374D01*
X164365001Y-185449358D01*
X164365000Y-191795553D01*
X161795554Y-194365000D01*
X63427342Y-194365000D01*
X61240822Y-191935534D01*
X62032300Y-191935534D01*
X62050994Y-192019229D01*
X62497048Y-192988659D01*
X63280133Y-193713598D01*
X64281031Y-194083680D01*
X64708847Y-193958915D01*
X64708847Y-191509711D01*
X64962847Y-191509711D01*
X64962847Y-193958915D01*
X65390663Y-194083680D01*
X66391561Y-193713598D01*
X67174646Y-192988659D01*
X67620700Y-192019229D01*
X67639394Y-191935534D01*
X67637807Y-191929121D01*
X157852078Y-191929121D01*
X157870772Y-192012816D01*
X158316826Y-192982246D01*
X159099911Y-193707185D01*
X160100809Y-194077267D01*
X160528625Y-193952502D01*
X160528625Y-191503298D01*
X160782625Y-191503298D01*
X160782625Y-193952502D01*
X161210441Y-194077267D01*
X162211339Y-193707185D01*
X162994424Y-192982246D01*
X163440478Y-192012816D01*
X163459172Y-191929121D01*
X163353743Y-191503298D01*
X160782625Y-191503298D01*
X160528625Y-191503298D01*
X157957507Y-191503298D01*
X157852078Y-191929121D01*
X67637807Y-191929121D01*
X67533965Y-191509711D01*
X64962847Y-191509711D01*
X64708847Y-191509711D01*
X62137729Y-191509711D01*
X62032300Y-191935534D01*
X61240822Y-191935534D01*
X61130554Y-191813015D01*
X61130554Y-190829888D01*
X62032300Y-190829888D01*
X62137729Y-191255711D01*
X64708847Y-191255711D01*
X64708847Y-188806507D01*
X64962847Y-188806507D01*
X64962847Y-191255711D01*
X67533965Y-191255711D01*
X67639394Y-190829888D01*
X67637962Y-190823475D01*
X157852078Y-190823475D01*
X157957507Y-191249298D01*
X160528625Y-191249298D01*
X160528625Y-188800094D01*
X160782625Y-188800094D01*
X160782625Y-191249298D01*
X163353743Y-191249298D01*
X163459172Y-190823475D01*
X163440478Y-190739780D01*
X162994424Y-189770350D01*
X162211339Y-189045411D01*
X161210441Y-188675329D01*
X160782625Y-188800094D01*
X160528625Y-188800094D01*
X160100809Y-188675329D01*
X159099911Y-189045411D01*
X158316826Y-189770350D01*
X157870772Y-190739780D01*
X157852078Y-190823475D01*
X67637962Y-190823475D01*
X67620700Y-190746193D01*
X67174646Y-189776763D01*
X66391561Y-189051824D01*
X65390663Y-188681742D01*
X64962847Y-188806507D01*
X64708847Y-188806507D01*
X64281031Y-188681742D01*
X63280133Y-189051824D01*
X62497048Y-189776763D01*
X62050994Y-190746193D01*
X62032300Y-190829888D01*
X61130554Y-190829888D01*
X61130554Y-185449358D01*
X61310914Y-185449374D01*
X61383334Y-185463779D01*
X61530550Y-185434496D01*
X61670058Y-185406758D01*
X61670084Y-185406741D01*
X61670117Y-185406734D01*
X61796371Y-185322374D01*
X61913193Y-185244330D01*
X61913210Y-185244304D01*
X61913239Y-185244285D01*
X62000387Y-185113859D01*
X62075663Y-185001221D01*
X62075669Y-185001192D01*
X62075688Y-185001163D01*
X62106317Y-184847181D01*
X62132732Y-184714443D01*
X62118334Y-184642027D01*
X62118334Y-180257606D01*
X66165000Y-180257606D01*
X66165000Y-181942394D01*
X66809740Y-183498935D01*
X68001065Y-184690260D01*
X69557606Y-185335000D01*
X71242394Y-185335000D01*
X72798935Y-184690260D01*
X73990260Y-183498935D01*
X74635000Y-181942394D01*
X74635000Y-180257606D01*
X73990260Y-178701065D01*
X72798935Y-177509740D01*
X71242394Y-176865000D01*
X69557606Y-176865000D01*
X68001065Y-177509740D01*
X66809740Y-178701065D01*
X66165000Y-180257606D01*
X62118334Y-180257606D01*
X62118334Y-176133591D01*
X76202935Y-176133591D01*
X76217335Y-176205984D01*
X76217334Y-187667581D01*
X76202935Y-187739969D01*
X76259980Y-188026752D01*
X76422429Y-188269874D01*
X76665551Y-188432323D01*
X76952334Y-188489368D01*
X77024722Y-188474969D01*
X94659943Y-188474969D01*
X94732331Y-188489368D01*
X94804719Y-188474969D01*
X94864409Y-188463096D01*
X95019114Y-188432323D01*
X95262236Y-188269874D01*
X95424685Y-188026752D01*
X95467331Y-187812357D01*
X95467331Y-187812356D01*
X95481730Y-187739969D01*
X95467331Y-187667581D01*
X95467331Y-187154887D01*
X102165000Y-187154887D01*
X102165000Y-187845113D01*
X102429138Y-188482799D01*
X102917201Y-188970862D01*
X103554887Y-189235000D01*
X104245113Y-189235000D01*
X104882799Y-188970862D01*
X105370862Y-188482799D01*
X105635000Y-187845113D01*
X105635000Y-187154887D01*
X108065000Y-187154887D01*
X108065000Y-187845113D01*
X108329138Y-188482799D01*
X108817201Y-188970862D01*
X109454887Y-189235000D01*
X110145113Y-189235000D01*
X110782799Y-188970862D01*
X111270862Y-188482799D01*
X111535000Y-187845113D01*
X111535000Y-187154887D01*
X113965000Y-187154887D01*
X113965000Y-187845113D01*
X114229138Y-188482799D01*
X114717201Y-188970862D01*
X115354887Y-189235000D01*
X116045113Y-189235000D01*
X116682799Y-188970862D01*
X117170862Y-188482799D01*
X117435000Y-187845113D01*
X117435000Y-187154887D01*
X119865000Y-187154887D01*
X119865000Y-187845113D01*
X120129138Y-188482799D01*
X120617201Y-188970862D01*
X121254887Y-189235000D01*
X121945113Y-189235000D01*
X122582799Y-188970862D01*
X123070862Y-188482799D01*
X123335000Y-187845113D01*
X123335000Y-187154887D01*
X123070862Y-186517201D01*
X122582799Y-186029138D01*
X121945113Y-185765000D01*
X121254887Y-185765000D01*
X120617201Y-186029138D01*
X120129138Y-186517201D01*
X119865000Y-187154887D01*
X117435000Y-187154887D01*
X117170862Y-186517201D01*
X116682799Y-186029138D01*
X116045113Y-185765000D01*
X115354887Y-185765000D01*
X114717201Y-186029138D01*
X114229138Y-186517201D01*
X113965000Y-187154887D01*
X111535000Y-187154887D01*
X111270862Y-186517201D01*
X110782799Y-186029138D01*
X110145113Y-185765000D01*
X109454887Y-185765000D01*
X108817201Y-186029138D01*
X108329138Y-186517201D01*
X108065000Y-187154887D01*
X105635000Y-187154887D01*
X105370862Y-186517201D01*
X104882799Y-186029138D01*
X104245113Y-185765000D01*
X103554887Y-185765000D01*
X102917201Y-186029138D01*
X102429138Y-186517201D01*
X102165000Y-187154887D01*
X95467331Y-187154887D01*
X95467331Y-184187443D01*
X148015000Y-184187443D01*
X148015000Y-185812557D01*
X148636904Y-187313967D01*
X149786033Y-188463096D01*
X151287443Y-189085000D01*
X152912557Y-189085000D01*
X154413967Y-188463096D01*
X155563096Y-187313967D01*
X156185000Y-185812557D01*
X156185000Y-184187443D01*
X155563096Y-182686033D01*
X154413967Y-181536904D01*
X152912557Y-180915000D01*
X151287443Y-180915000D01*
X149786033Y-181536904D01*
X148636904Y-182686033D01*
X148015000Y-184187443D01*
X95467331Y-184187443D01*
X95467331Y-176205979D01*
X95481730Y-176133591D01*
X95424685Y-175846808D01*
X95262236Y-175603686D01*
X95019114Y-175441237D01*
X94804719Y-175398591D01*
X94732331Y-175384192D01*
X94659943Y-175398591D01*
X77024722Y-175398591D01*
X76952334Y-175384192D01*
X76879946Y-175398591D01*
X76665551Y-175441237D01*
X76422429Y-175603686D01*
X76259980Y-175846808D01*
X76202935Y-176133591D01*
X62118334Y-176133591D01*
X62118334Y-151202274D01*
X62132732Y-151129860D01*
X62106417Y-150997624D01*
X62075688Y-150843137D01*
X62075670Y-150843110D01*
X62075664Y-150843081D01*
X61998780Y-150728037D01*
X61913239Y-150600015D01*
X61913212Y-150599997D01*
X61913196Y-150599973D01*
X61796675Y-150522130D01*
X61670116Y-150437566D01*
X61670085Y-150437560D01*
X61670060Y-150437543D01*
X61534780Y-150410646D01*
X61383334Y-150380521D01*
X61310912Y-150394927D01*
X61130554Y-150394941D01*
X61130554Y-145014227D01*
X62034117Y-145014227D01*
X62052811Y-145097922D01*
X62498865Y-146067352D01*
X63281950Y-146792291D01*
X64282848Y-147162373D01*
X64710664Y-147037608D01*
X64710664Y-144588404D01*
X64964664Y-144588404D01*
X64964664Y-147037608D01*
X65392480Y-147162373D01*
X66393378Y-146792291D01*
X67176463Y-146067352D01*
X67622517Y-145097922D01*
X67641211Y-145014227D01*
X67640788Y-145012517D01*
X157845666Y-145012517D01*
X157864360Y-145096212D01*
X158310414Y-146065642D01*
X159093499Y-146790581D01*
X160094397Y-147160663D01*
X160522213Y-147035898D01*
X160522213Y-144586694D01*
X160776213Y-144586694D01*
X160776213Y-147035898D01*
X161204029Y-147160663D01*
X162204927Y-146790581D01*
X162988012Y-146065642D01*
X163434066Y-145096212D01*
X163452760Y-145012517D01*
X163347331Y-144586694D01*
X160776213Y-144586694D01*
X160522213Y-144586694D01*
X157951095Y-144586694D01*
X157845666Y-145012517D01*
X67640788Y-145012517D01*
X67535782Y-144588404D01*
X64964664Y-144588404D01*
X64710664Y-144588404D01*
X62139546Y-144588404D01*
X62034117Y-145014227D01*
X61130554Y-145014227D01*
X61130554Y-144108892D01*
X61330865Y-143908581D01*
X62034117Y-143908581D01*
X62139546Y-144334404D01*
X64710664Y-144334404D01*
X64710664Y-141885200D01*
X64964664Y-141885200D01*
X64964664Y-144334404D01*
X67535782Y-144334404D01*
X67641211Y-143908581D01*
X67640830Y-143906871D01*
X157845666Y-143906871D01*
X157951095Y-144332694D01*
X160522213Y-144332694D01*
X160522213Y-141883490D01*
X160776213Y-141883490D01*
X160776213Y-144332694D01*
X163347331Y-144332694D01*
X163452760Y-143906871D01*
X163434066Y-143823176D01*
X162988012Y-142853746D01*
X162204927Y-142128807D01*
X161204029Y-141758725D01*
X160776213Y-141883490D01*
X160522213Y-141883490D01*
X160094397Y-141758725D01*
X159093499Y-142128807D01*
X158310414Y-142853746D01*
X157864360Y-143823176D01*
X157845666Y-143906871D01*
X67640830Y-143906871D01*
X67622517Y-143824886D01*
X67176463Y-142855456D01*
X66393378Y-142130517D01*
X65392480Y-141760435D01*
X64964664Y-141885200D01*
X64710664Y-141885200D01*
X64282848Y-141760435D01*
X63281950Y-142130517D01*
X62498865Y-142855456D01*
X62052811Y-143824886D01*
X62034117Y-143908581D01*
X61330865Y-143908581D01*
X63704447Y-141535000D01*
X161795554Y-141535000D01*
X164365001Y-144104448D01*
X164365001Y-144104448D01*
G37*
X164365001Y-144104448D02*
X164365000Y-150394941D01*
X164184642Y-150394927D01*
X164112220Y-150380521D01*
X163960774Y-150410646D01*
X163825494Y-150437543D01*
X163825469Y-150437560D01*
X163825438Y-150437566D01*
X163701861Y-150520137D01*
X163582358Y-150599973D01*
X163582341Y-150599998D01*
X163582316Y-150600015D01*
X163502504Y-150719463D01*
X163419890Y-150843081D01*
X163419884Y-150843112D01*
X163419867Y-150843137D01*
X163391528Y-150985607D01*
X163362822Y-151129860D01*
X163377221Y-151202279D01*
X163377220Y-184642027D01*
X163362822Y-184714443D01*
X163389690Y-184849457D01*
X163419866Y-185001162D01*
X163419885Y-185001190D01*
X163419891Y-185001221D01*
X163497086Y-185116730D01*
X163582315Y-185244285D01*
X163582344Y-185244304D01*
X163582361Y-185244330D01*
X163699183Y-185322374D01*
X163825437Y-185406734D01*
X163825470Y-185406741D01*
X163825496Y-185406758D01*
X163965004Y-185434496D01*
X164112220Y-185463779D01*
X164184640Y-185449374D01*
X164365001Y-185449358D01*
X164365000Y-191795553D01*
X161795554Y-194365000D01*
X63427342Y-194365000D01*
X61240822Y-191935534D01*
X62032300Y-191935534D01*
X62050994Y-192019229D01*
X62497048Y-192988659D01*
X63280133Y-193713598D01*
X64281031Y-194083680D01*
X64708847Y-193958915D01*
X64708847Y-191509711D01*
X64962847Y-191509711D01*
X64962847Y-193958915D01*
X65390663Y-194083680D01*
X66391561Y-193713598D01*
X67174646Y-192988659D01*
X67620700Y-192019229D01*
X67639394Y-191935534D01*
X67637807Y-191929121D01*
X157852078Y-191929121D01*
X157870772Y-192012816D01*
X158316826Y-192982246D01*
X159099911Y-193707185D01*
X160100809Y-194077267D01*
X160528625Y-193952502D01*
X160528625Y-191503298D01*
X160782625Y-191503298D01*
X160782625Y-193952502D01*
X161210441Y-194077267D01*
X162211339Y-193707185D01*
X162994424Y-192982246D01*
X163440478Y-192012816D01*
X163459172Y-191929121D01*
X163353743Y-191503298D01*
X160782625Y-191503298D01*
X160528625Y-191503298D01*
X157957507Y-191503298D01*
X157852078Y-191929121D01*
X67637807Y-191929121D01*
X67533965Y-191509711D01*
X64962847Y-191509711D01*
X64708847Y-191509711D01*
X62137729Y-191509711D01*
X62032300Y-191935534D01*
X61240822Y-191935534D01*
X61130554Y-191813015D01*
X61130554Y-190829888D01*
X62032300Y-190829888D01*
X62137729Y-191255711D01*
X64708847Y-191255711D01*
X64708847Y-188806507D01*
X64962847Y-188806507D01*
X64962847Y-191255711D01*
X67533965Y-191255711D01*
X67639394Y-190829888D01*
X67637962Y-190823475D01*
X157852078Y-190823475D01*
X157957507Y-191249298D01*
X160528625Y-191249298D01*
X160528625Y-188800094D01*
X160782625Y-188800094D01*
X160782625Y-191249298D01*
X163353743Y-191249298D01*
X163459172Y-190823475D01*
X163440478Y-190739780D01*
X162994424Y-189770350D01*
X162211339Y-189045411D01*
X161210441Y-188675329D01*
X160782625Y-188800094D01*
X160528625Y-188800094D01*
X160100809Y-188675329D01*
X159099911Y-189045411D01*
X158316826Y-189770350D01*
X157870772Y-190739780D01*
X157852078Y-190823475D01*
X67637962Y-190823475D01*
X67620700Y-190746193D01*
X67174646Y-189776763D01*
X66391561Y-189051824D01*
X65390663Y-188681742D01*
X64962847Y-188806507D01*
X64708847Y-188806507D01*
X64281031Y-188681742D01*
X63280133Y-189051824D01*
X62497048Y-189776763D01*
X62050994Y-190746193D01*
X62032300Y-190829888D01*
X61130554Y-190829888D01*
X61130554Y-185449358D01*
X61310914Y-185449374D01*
X61383334Y-185463779D01*
X61530550Y-185434496D01*
X61670058Y-185406758D01*
X61670084Y-185406741D01*
X61670117Y-185406734D01*
X61796371Y-185322374D01*
X61913193Y-185244330D01*
X61913210Y-185244304D01*
X61913239Y-185244285D01*
X62000387Y-185113859D01*
X62075663Y-185001221D01*
X62075669Y-185001192D01*
X62075688Y-185001163D01*
X62106317Y-184847181D01*
X62132732Y-184714443D01*
X62118334Y-184642027D01*
X62118334Y-180257606D01*
X66165000Y-180257606D01*
X66165000Y-181942394D01*
X66809740Y-183498935D01*
X68001065Y-184690260D01*
X69557606Y-185335000D01*
X71242394Y-185335000D01*
X72798935Y-184690260D01*
X73990260Y-183498935D01*
X74635000Y-181942394D01*
X74635000Y-180257606D01*
X73990260Y-178701065D01*
X72798935Y-177509740D01*
X71242394Y-176865000D01*
X69557606Y-176865000D01*
X68001065Y-177509740D01*
X66809740Y-178701065D01*
X66165000Y-180257606D01*
X62118334Y-180257606D01*
X62118334Y-176133591D01*
X76202935Y-176133591D01*
X76217335Y-176205984D01*
X76217334Y-187667581D01*
X76202935Y-187739969D01*
X76259980Y-188026752D01*
X76422429Y-188269874D01*
X76665551Y-188432323D01*
X76952334Y-188489368D01*
X77024722Y-188474969D01*
X94659943Y-188474969D01*
X94732331Y-188489368D01*
X94804719Y-188474969D01*
X94864409Y-188463096D01*
X95019114Y-188432323D01*
X95262236Y-188269874D01*
X95424685Y-188026752D01*
X95467331Y-187812357D01*
X95467331Y-187812356D01*
X95481730Y-187739969D01*
X95467331Y-187667581D01*
X95467331Y-187154887D01*
X102165000Y-187154887D01*
X102165000Y-187845113D01*
X102429138Y-188482799D01*
X102917201Y-188970862D01*
X103554887Y-189235000D01*
X104245113Y-189235000D01*
X104882799Y-188970862D01*
X105370862Y-188482799D01*
X105635000Y-187845113D01*
X105635000Y-187154887D01*
X108065000Y-187154887D01*
X108065000Y-187845113D01*
X108329138Y-188482799D01*
X108817201Y-188970862D01*
X109454887Y-189235000D01*
X110145113Y-189235000D01*
X110782799Y-188970862D01*
X111270862Y-188482799D01*
X111535000Y-187845113D01*
X111535000Y-187154887D01*
X113965000Y-187154887D01*
X113965000Y-187845113D01*
X114229138Y-188482799D01*
X114717201Y-188970862D01*
X115354887Y-189235000D01*
X116045113Y-189235000D01*
X116682799Y-188970862D01*
X117170862Y-188482799D01*
X117435000Y-187845113D01*
X117435000Y-187154887D01*
X119865000Y-187154887D01*
X119865000Y-187845113D01*
X120129138Y-188482799D01*
X120617201Y-188970862D01*
X121254887Y-189235000D01*
X121945113Y-189235000D01*
X122582799Y-188970862D01*
X123070862Y-188482799D01*
X123335000Y-187845113D01*
X123335000Y-187154887D01*
X123070862Y-186517201D01*
X122582799Y-186029138D01*
X121945113Y-185765000D01*
X121254887Y-185765000D01*
X120617201Y-186029138D01*
X120129138Y-186517201D01*
X119865000Y-187154887D01*
X117435000Y-187154887D01*
X117170862Y-186517201D01*
X116682799Y-186029138D01*
X116045113Y-185765000D01*
X115354887Y-185765000D01*
X114717201Y-186029138D01*
X114229138Y-186517201D01*
X113965000Y-187154887D01*
X111535000Y-187154887D01*
X111270862Y-186517201D01*
X110782799Y-186029138D01*
X110145113Y-185765000D01*
X109454887Y-185765000D01*
X108817201Y-186029138D01*
X108329138Y-186517201D01*
X108065000Y-187154887D01*
X105635000Y-187154887D01*
X105370862Y-186517201D01*
X104882799Y-186029138D01*
X104245113Y-185765000D01*
X103554887Y-185765000D01*
X102917201Y-186029138D01*
X102429138Y-186517201D01*
X102165000Y-187154887D01*
X95467331Y-187154887D01*
X95467331Y-184187443D01*
X148015000Y-184187443D01*
X148015000Y-185812557D01*
X148636904Y-187313967D01*
X149786033Y-188463096D01*
X151287443Y-189085000D01*
X152912557Y-189085000D01*
X154413967Y-188463096D01*
X155563096Y-187313967D01*
X156185000Y-185812557D01*
X156185000Y-184187443D01*
X155563096Y-182686033D01*
X154413967Y-181536904D01*
X152912557Y-180915000D01*
X151287443Y-180915000D01*
X149786033Y-181536904D01*
X148636904Y-182686033D01*
X148015000Y-184187443D01*
X95467331Y-184187443D01*
X95467331Y-176205979D01*
X95481730Y-176133591D01*
X95424685Y-175846808D01*
X95262236Y-175603686D01*
X95019114Y-175441237D01*
X94804719Y-175398591D01*
X94732331Y-175384192D01*
X94659943Y-175398591D01*
X77024722Y-175398591D01*
X76952334Y-175384192D01*
X76879946Y-175398591D01*
X76665551Y-175441237D01*
X76422429Y-175603686D01*
X76259980Y-175846808D01*
X76202935Y-176133591D01*
X62118334Y-176133591D01*
X62118334Y-151202274D01*
X62132732Y-151129860D01*
X62106417Y-150997624D01*
X62075688Y-150843137D01*
X62075670Y-150843110D01*
X62075664Y-150843081D01*
X61998780Y-150728037D01*
X61913239Y-150600015D01*
X61913212Y-150599997D01*
X61913196Y-150599973D01*
X61796675Y-150522130D01*
X61670116Y-150437566D01*
X61670085Y-150437560D01*
X61670060Y-150437543D01*
X61534780Y-150410646D01*
X61383334Y-150380521D01*
X61310912Y-150394927D01*
X61130554Y-150394941D01*
X61130554Y-145014227D01*
X62034117Y-145014227D01*
X62052811Y-145097922D01*
X62498865Y-146067352D01*
X63281950Y-146792291D01*
X64282848Y-147162373D01*
X64710664Y-147037608D01*
X64710664Y-144588404D01*
X64964664Y-144588404D01*
X64964664Y-147037608D01*
X65392480Y-147162373D01*
X66393378Y-146792291D01*
X67176463Y-146067352D01*
X67622517Y-145097922D01*
X67641211Y-145014227D01*
X67640788Y-145012517D01*
X157845666Y-145012517D01*
X157864360Y-145096212D01*
X158310414Y-146065642D01*
X159093499Y-146790581D01*
X160094397Y-147160663D01*
X160522213Y-147035898D01*
X160522213Y-144586694D01*
X160776213Y-144586694D01*
X160776213Y-147035898D01*
X161204029Y-147160663D01*
X162204927Y-146790581D01*
X162988012Y-146065642D01*
X163434066Y-145096212D01*
X163452760Y-145012517D01*
X163347331Y-144586694D01*
X160776213Y-144586694D01*
X160522213Y-144586694D01*
X157951095Y-144586694D01*
X157845666Y-145012517D01*
X67640788Y-145012517D01*
X67535782Y-144588404D01*
X64964664Y-144588404D01*
X64710664Y-144588404D01*
X62139546Y-144588404D01*
X62034117Y-145014227D01*
X61130554Y-145014227D01*
X61130554Y-144108892D01*
X61330865Y-143908581D01*
X62034117Y-143908581D01*
X62139546Y-144334404D01*
X64710664Y-144334404D01*
X64710664Y-141885200D01*
X64964664Y-141885200D01*
X64964664Y-144334404D01*
X67535782Y-144334404D01*
X67641211Y-143908581D01*
X67640830Y-143906871D01*
X157845666Y-143906871D01*
X157951095Y-144332694D01*
X160522213Y-144332694D01*
X160522213Y-141883490D01*
X160776213Y-141883490D01*
X160776213Y-144332694D01*
X163347331Y-144332694D01*
X163452760Y-143906871D01*
X163434066Y-143823176D01*
X162988012Y-142853746D01*
X162204927Y-142128807D01*
X161204029Y-141758725D01*
X160776213Y-141883490D01*
X160522213Y-141883490D01*
X160094397Y-141758725D01*
X159093499Y-142128807D01*
X158310414Y-142853746D01*
X157864360Y-143823176D01*
X157845666Y-143906871D01*
X67640830Y-143906871D01*
X67622517Y-143824886D01*
X67176463Y-142855456D01*
X66393378Y-142130517D01*
X65392480Y-141760435D01*
X64964664Y-141885200D01*
X64710664Y-141885200D01*
X64282848Y-141760435D01*
X63281950Y-142130517D01*
X62498865Y-142855456D01*
X62052811Y-143824886D01*
X62034117Y-143908581D01*
X61330865Y-143908581D01*
X63704447Y-141535000D01*
X161795554Y-141535000D01*
X164365001Y-144104448D01*
G36*
X164365001Y-144104448D02*
X164365000Y-150394941D01*
X164184642Y-150394927D01*
X164112220Y-150380521D01*
X163960774Y-150410646D01*
X163825494Y-150437543D01*
X163825469Y-150437560D01*
X163825438Y-150437566D01*
X163701861Y-150520137D01*
X163582358Y-150599973D01*
X163582341Y-150599998D01*
X163582316Y-150600015D01*
X163502504Y-150719463D01*
X163419890Y-150843081D01*
X163419884Y-150843112D01*
X163419867Y-150843137D01*
X163391528Y-150985607D01*
X163362822Y-151129860D01*
X163377221Y-151202279D01*
X163377220Y-184642027D01*
X163362822Y-184714443D01*
X163389690Y-184849457D01*
X163419866Y-185001162D01*
X163419885Y-185001190D01*
X163419891Y-185001221D01*
X163497086Y-185116730D01*
X163582315Y-185244285D01*
X163582344Y-185244304D01*
X163582361Y-185244330D01*
X163699183Y-185322374D01*
X163825437Y-185406734D01*
X163825470Y-185406741D01*
X163825496Y-185406758D01*
X163965004Y-185434496D01*
X164112220Y-185463779D01*
X164184640Y-185449374D01*
X164365001Y-185449358D01*
X164365000Y-191795553D01*
X161795554Y-194365000D01*
X63427342Y-194365000D01*
X61240822Y-191935534D01*
X62032300Y-191935534D01*
X62050994Y-192019229D01*
X62497048Y-192988659D01*
X63280133Y-193713598D01*
X64281031Y-194083680D01*
X64708847Y-193958915D01*
X64708847Y-191509711D01*
X64962847Y-191509711D01*
X64962847Y-193958915D01*
X65390663Y-194083680D01*
X66391561Y-193713598D01*
X67174646Y-192988659D01*
X67620700Y-192019229D01*
X67639394Y-191935534D01*
X67637807Y-191929121D01*
X157852078Y-191929121D01*
X157870772Y-192012816D01*
X158316826Y-192982246D01*
X159099911Y-193707185D01*
X160100809Y-194077267D01*
X160528625Y-193952502D01*
X160528625Y-191503298D01*
X160782625Y-191503298D01*
X160782625Y-193952502D01*
X161210441Y-194077267D01*
X162211339Y-193707185D01*
X162994424Y-192982246D01*
X163440478Y-192012816D01*
X163459172Y-191929121D01*
X163353743Y-191503298D01*
X160782625Y-191503298D01*
X160528625Y-191503298D01*
X157957507Y-191503298D01*
X157852078Y-191929121D01*
X67637807Y-191929121D01*
X67533965Y-191509711D01*
X64962847Y-191509711D01*
X64708847Y-191509711D01*
X62137729Y-191509711D01*
X62032300Y-191935534D01*
X61240822Y-191935534D01*
X61130554Y-191813015D01*
X61130554Y-190829888D01*
X62032300Y-190829888D01*
X62137729Y-191255711D01*
X64708847Y-191255711D01*
X64708847Y-188806507D01*
X64962847Y-188806507D01*
X64962847Y-191255711D01*
X67533965Y-191255711D01*
X67639394Y-190829888D01*
X67637962Y-190823475D01*
X157852078Y-190823475D01*
X157957507Y-191249298D01*
X160528625Y-191249298D01*
X160528625Y-188800094D01*
X160782625Y-188800094D01*
X160782625Y-191249298D01*
X163353743Y-191249298D01*
X163459172Y-190823475D01*
X163440478Y-190739780D01*
X162994424Y-189770350D01*
X162211339Y-189045411D01*
X161210441Y-188675329D01*
X160782625Y-188800094D01*
X160528625Y-188800094D01*
X160100809Y-188675329D01*
X159099911Y-189045411D01*
X158316826Y-189770350D01*
X157870772Y-190739780D01*
X157852078Y-190823475D01*
X67637962Y-190823475D01*
X67620700Y-190746193D01*
X67174646Y-189776763D01*
X66391561Y-189051824D01*
X65390663Y-188681742D01*
X64962847Y-188806507D01*
X64708847Y-188806507D01*
X64281031Y-188681742D01*
X63280133Y-189051824D01*
X62497048Y-189776763D01*
X62050994Y-190746193D01*
X62032300Y-190829888D01*
X61130554Y-190829888D01*
X61130554Y-185449358D01*
X61310914Y-185449374D01*
X61383334Y-185463779D01*
X61530550Y-185434496D01*
X61670058Y-185406758D01*
X61670084Y-185406741D01*
X61670117Y-185406734D01*
X61796371Y-185322374D01*
X61913193Y-185244330D01*
X61913210Y-185244304D01*
X61913239Y-185244285D01*
X62000387Y-185113859D01*
X62075663Y-185001221D01*
X62075669Y-185001192D01*
X62075688Y-185001163D01*
X62106317Y-184847181D01*
X62132732Y-184714443D01*
X62118334Y-184642027D01*
X62118334Y-180257606D01*
X66165000Y-180257606D01*
X66165000Y-181942394D01*
X66809740Y-183498935D01*
X68001065Y-184690260D01*
X69557606Y-185335000D01*
X71242394Y-185335000D01*
X72798935Y-184690260D01*
X73990260Y-183498935D01*
X74635000Y-181942394D01*
X74635000Y-180257606D01*
X73990260Y-178701065D01*
X72798935Y-177509740D01*
X71242394Y-176865000D01*
X69557606Y-176865000D01*
X68001065Y-177509740D01*
X66809740Y-178701065D01*
X66165000Y-180257606D01*
X62118334Y-180257606D01*
X62118334Y-176133591D01*
X76202935Y-176133591D01*
X76217335Y-176205984D01*
X76217334Y-187667581D01*
X76202935Y-187739969D01*
X76259980Y-188026752D01*
X76422429Y-188269874D01*
X76665551Y-188432323D01*
X76952334Y-188489368D01*
X77024722Y-188474969D01*
X94659943Y-188474969D01*
X94732331Y-188489368D01*
X94804719Y-188474969D01*
X94864409Y-188463096D01*
X95019114Y-188432323D01*
X95262236Y-188269874D01*
X95424685Y-188026752D01*
X95467331Y-187812357D01*
X95467331Y-187812356D01*
X95481730Y-187739969D01*
X95467331Y-187667581D01*
X95467331Y-187154887D01*
X102165000Y-187154887D01*
X102165000Y-187845113D01*
X102429138Y-188482799D01*
X102917201Y-188970862D01*
X103554887Y-189235000D01*
X104245113Y-189235000D01*
X104882799Y-188970862D01*
X105370862Y-188482799D01*
X105635000Y-187845113D01*
X105635000Y-187154887D01*
X108065000Y-187154887D01*
X108065000Y-187845113D01*
X108329138Y-188482799D01*
X108817201Y-188970862D01*
X109454887Y-189235000D01*
X110145113Y-189235000D01*
X110782799Y-188970862D01*
X111270862Y-188482799D01*
X111535000Y-187845113D01*
X111535000Y-187154887D01*
X113965000Y-187154887D01*
X113965000Y-187845113D01*
X114229138Y-188482799D01*
X114717201Y-188970862D01*
X115354887Y-189235000D01*
X116045113Y-189235000D01*
X116682799Y-188970862D01*
X117170862Y-188482799D01*
X117435000Y-187845113D01*
X117435000Y-187154887D01*
X119865000Y-187154887D01*
X119865000Y-187845113D01*
X120129138Y-188482799D01*
X120617201Y-188970862D01*
X121254887Y-189235000D01*
X121945113Y-189235000D01*
X122582799Y-188970862D01*
X123070862Y-188482799D01*
X123335000Y-187845113D01*
X123335000Y-187154887D01*
X123070862Y-186517201D01*
X122582799Y-186029138D01*
X121945113Y-185765000D01*
X121254887Y-185765000D01*
X120617201Y-186029138D01*
X120129138Y-186517201D01*
X119865000Y-187154887D01*
X117435000Y-187154887D01*
X117170862Y-186517201D01*
X116682799Y-186029138D01*
X116045113Y-185765000D01*
X115354887Y-185765000D01*
X114717201Y-186029138D01*
X114229138Y-186517201D01*
X113965000Y-187154887D01*
X111535000Y-187154887D01*
X111270862Y-186517201D01*
X110782799Y-186029138D01*
X110145113Y-185765000D01*
X109454887Y-185765000D01*
X108817201Y-186029138D01*
X108329138Y-186517201D01*
X108065000Y-187154887D01*
X105635000Y-187154887D01*
X105370862Y-186517201D01*
X104882799Y-186029138D01*
X104245113Y-185765000D01*
X103554887Y-185765000D01*
X102917201Y-186029138D01*
X102429138Y-186517201D01*
X102165000Y-187154887D01*
X95467331Y-187154887D01*
X95467331Y-184187443D01*
X148015000Y-184187443D01*
X148015000Y-185812557D01*
X148636904Y-187313967D01*
X149786033Y-188463096D01*
X151287443Y-189085000D01*
X152912557Y-189085000D01*
X154413967Y-188463096D01*
X155563096Y-187313967D01*
X156185000Y-185812557D01*
X156185000Y-184187443D01*
X155563096Y-182686033D01*
X154413967Y-181536904D01*
X152912557Y-180915000D01*
X151287443Y-180915000D01*
X149786033Y-181536904D01*
X148636904Y-182686033D01*
X148015000Y-184187443D01*
X95467331Y-184187443D01*
X95467331Y-176205979D01*
X95481730Y-176133591D01*
X95424685Y-175846808D01*
X95262236Y-175603686D01*
X95019114Y-175441237D01*
X94804719Y-175398591D01*
X94732331Y-175384192D01*
X94659943Y-175398591D01*
X77024722Y-175398591D01*
X76952334Y-175384192D01*
X76879946Y-175398591D01*
X76665551Y-175441237D01*
X76422429Y-175603686D01*
X76259980Y-175846808D01*
X76202935Y-176133591D01*
X62118334Y-176133591D01*
X62118334Y-151202274D01*
X62132732Y-151129860D01*
X62106417Y-150997624D01*
X62075688Y-150843137D01*
X62075670Y-150843110D01*
X62075664Y-150843081D01*
X61998780Y-150728037D01*
X61913239Y-150600015D01*
X61913212Y-150599997D01*
X61913196Y-150599973D01*
X61796675Y-150522130D01*
X61670116Y-150437566D01*
X61670085Y-150437560D01*
X61670060Y-150437543D01*
X61534780Y-150410646D01*
X61383334Y-150380521D01*
X61310912Y-150394927D01*
X61130554Y-150394941D01*
X61130554Y-145014227D01*
X62034117Y-145014227D01*
X62052811Y-145097922D01*
X62498865Y-146067352D01*
X63281950Y-146792291D01*
X64282848Y-147162373D01*
X64710664Y-147037608D01*
X64710664Y-144588404D01*
X64964664Y-144588404D01*
X64964664Y-147037608D01*
X65392480Y-147162373D01*
X66393378Y-146792291D01*
X67176463Y-146067352D01*
X67622517Y-145097922D01*
X67641211Y-145014227D01*
X67640788Y-145012517D01*
X157845666Y-145012517D01*
X157864360Y-145096212D01*
X158310414Y-146065642D01*
X159093499Y-146790581D01*
X160094397Y-147160663D01*
X160522213Y-147035898D01*
X160522213Y-144586694D01*
X160776213Y-144586694D01*
X160776213Y-147035898D01*
X161204029Y-147160663D01*
X162204927Y-146790581D01*
X162988012Y-146065642D01*
X163434066Y-145096212D01*
X163452760Y-145012517D01*
X163347331Y-144586694D01*
X160776213Y-144586694D01*
X160522213Y-144586694D01*
X157951095Y-144586694D01*
X157845666Y-145012517D01*
X67640788Y-145012517D01*
X67535782Y-144588404D01*
X64964664Y-144588404D01*
X64710664Y-144588404D01*
X62139546Y-144588404D01*
X62034117Y-145014227D01*
X61130554Y-145014227D01*
X61130554Y-144108892D01*
X61330865Y-143908581D01*
X62034117Y-143908581D01*
X62139546Y-144334404D01*
X64710664Y-144334404D01*
X64710664Y-141885200D01*
X64964664Y-141885200D01*
X64964664Y-144334404D01*
X67535782Y-144334404D01*
X67641211Y-143908581D01*
X67640830Y-143906871D01*
X157845666Y-143906871D01*
X157951095Y-144332694D01*
X160522213Y-144332694D01*
X160522213Y-141883490D01*
X160776213Y-141883490D01*
X160776213Y-144332694D01*
X163347331Y-144332694D01*
X163452760Y-143906871D01*
X163434066Y-143823176D01*
X162988012Y-142853746D01*
X162204927Y-142128807D01*
X161204029Y-141758725D01*
X160776213Y-141883490D01*
X160522213Y-141883490D01*
X160094397Y-141758725D01*
X159093499Y-142128807D01*
X158310414Y-142853746D01*
X157864360Y-143823176D01*
X157845666Y-143906871D01*
X67640830Y-143906871D01*
X67622517Y-143824886D01*
X67176463Y-142855456D01*
X66393378Y-142130517D01*
X65392480Y-141760435D01*
X64964664Y-141885200D01*
X64710664Y-141885200D01*
X64282848Y-141760435D01*
X63281950Y-142130517D01*
X62498865Y-142855456D01*
X62052811Y-143824886D01*
X62034117Y-143908581D01*
X61330865Y-143908581D01*
X63704447Y-141535000D01*
X161795554Y-141535000D01*
X164365001Y-144104448D01*
X164365001Y-144104448D01*
G37*
X164365001Y-144104448D02*
X164365000Y-150394941D01*
X164184642Y-150394927D01*
X164112220Y-150380521D01*
X163960774Y-150410646D01*
X163825494Y-150437543D01*
X163825469Y-150437560D01*
X163825438Y-150437566D01*
X163701861Y-150520137D01*
X163582358Y-150599973D01*
X163582341Y-150599998D01*
X163582316Y-150600015D01*
X163502504Y-150719463D01*
X163419890Y-150843081D01*
X163419884Y-150843112D01*
X163419867Y-150843137D01*
X163391528Y-150985607D01*
X163362822Y-151129860D01*
X163377221Y-151202279D01*
X163377220Y-184642027D01*
X163362822Y-184714443D01*
X163389690Y-184849457D01*
X163419866Y-185001162D01*
X163419885Y-185001190D01*
X163419891Y-185001221D01*
X163497086Y-185116730D01*
X163582315Y-185244285D01*
X163582344Y-185244304D01*
X163582361Y-185244330D01*
X163699183Y-185322374D01*
X163825437Y-185406734D01*
X163825470Y-185406741D01*
X163825496Y-185406758D01*
X163965004Y-185434496D01*
X164112220Y-185463779D01*
X164184640Y-185449374D01*
X164365001Y-185449358D01*
X164365000Y-191795553D01*
X161795554Y-194365000D01*
X63427342Y-194365000D01*
X61240822Y-191935534D01*
X62032300Y-191935534D01*
X62050994Y-192019229D01*
X62497048Y-192988659D01*
X63280133Y-193713598D01*
X64281031Y-194083680D01*
X64708847Y-193958915D01*
X64708847Y-191509711D01*
X64962847Y-191509711D01*
X64962847Y-193958915D01*
X65390663Y-194083680D01*
X66391561Y-193713598D01*
X67174646Y-192988659D01*
X67620700Y-192019229D01*
X67639394Y-191935534D01*
X67637807Y-191929121D01*
X157852078Y-191929121D01*
X157870772Y-192012816D01*
X158316826Y-192982246D01*
X159099911Y-193707185D01*
X160100809Y-194077267D01*
X160528625Y-193952502D01*
X160528625Y-191503298D01*
X160782625Y-191503298D01*
X160782625Y-193952502D01*
X161210441Y-194077267D01*
X162211339Y-193707185D01*
X162994424Y-192982246D01*
X163440478Y-192012816D01*
X163459172Y-191929121D01*
X163353743Y-191503298D01*
X160782625Y-191503298D01*
X160528625Y-191503298D01*
X157957507Y-191503298D01*
X157852078Y-191929121D01*
X67637807Y-191929121D01*
X67533965Y-191509711D01*
X64962847Y-191509711D01*
X64708847Y-191509711D01*
X62137729Y-191509711D01*
X62032300Y-191935534D01*
X61240822Y-191935534D01*
X61130554Y-191813015D01*
X61130554Y-190829888D01*
X62032300Y-190829888D01*
X62137729Y-191255711D01*
X64708847Y-191255711D01*
X64708847Y-188806507D01*
X64962847Y-188806507D01*
X64962847Y-191255711D01*
X67533965Y-191255711D01*
X67639394Y-190829888D01*
X67637962Y-190823475D01*
X157852078Y-190823475D01*
X157957507Y-191249298D01*
X160528625Y-191249298D01*
X160528625Y-188800094D01*
X160782625Y-188800094D01*
X160782625Y-191249298D01*
X163353743Y-191249298D01*
X163459172Y-190823475D01*
X163440478Y-190739780D01*
X162994424Y-189770350D01*
X162211339Y-189045411D01*
X161210441Y-188675329D01*
X160782625Y-188800094D01*
X160528625Y-188800094D01*
X160100809Y-188675329D01*
X159099911Y-189045411D01*
X158316826Y-189770350D01*
X157870772Y-190739780D01*
X157852078Y-190823475D01*
X67637962Y-190823475D01*
X67620700Y-190746193D01*
X67174646Y-189776763D01*
X66391561Y-189051824D01*
X65390663Y-188681742D01*
X64962847Y-188806507D01*
X64708847Y-188806507D01*
X64281031Y-188681742D01*
X63280133Y-189051824D01*
X62497048Y-189776763D01*
X62050994Y-190746193D01*
X62032300Y-190829888D01*
X61130554Y-190829888D01*
X61130554Y-185449358D01*
X61310914Y-185449374D01*
X61383334Y-185463779D01*
X61530550Y-185434496D01*
X61670058Y-185406758D01*
X61670084Y-185406741D01*
X61670117Y-185406734D01*
X61796371Y-185322374D01*
X61913193Y-185244330D01*
X61913210Y-185244304D01*
X61913239Y-185244285D01*
X62000387Y-185113859D01*
X62075663Y-185001221D01*
X62075669Y-185001192D01*
X62075688Y-185001163D01*
X62106317Y-184847181D01*
X62132732Y-184714443D01*
X62118334Y-184642027D01*
X62118334Y-180257606D01*
X66165000Y-180257606D01*
X66165000Y-181942394D01*
X66809740Y-183498935D01*
X68001065Y-184690260D01*
X69557606Y-185335000D01*
X71242394Y-185335000D01*
X72798935Y-184690260D01*
X73990260Y-183498935D01*
X74635000Y-181942394D01*
X74635000Y-180257606D01*
X73990260Y-178701065D01*
X72798935Y-177509740D01*
X71242394Y-176865000D01*
X69557606Y-176865000D01*
X68001065Y-177509740D01*
X66809740Y-178701065D01*
X66165000Y-180257606D01*
X62118334Y-180257606D01*
X62118334Y-176133591D01*
X76202935Y-176133591D01*
X76217335Y-176205984D01*
X76217334Y-187667581D01*
X76202935Y-187739969D01*
X76259980Y-188026752D01*
X76422429Y-188269874D01*
X76665551Y-188432323D01*
X76952334Y-188489368D01*
X77024722Y-188474969D01*
X94659943Y-188474969D01*
X94732331Y-188489368D01*
X94804719Y-188474969D01*
X94864409Y-188463096D01*
X95019114Y-188432323D01*
X95262236Y-188269874D01*
X95424685Y-188026752D01*
X95467331Y-187812357D01*
X95467331Y-187812356D01*
X95481730Y-187739969D01*
X95467331Y-187667581D01*
X95467331Y-187154887D01*
X102165000Y-187154887D01*
X102165000Y-187845113D01*
X102429138Y-188482799D01*
X102917201Y-188970862D01*
X103554887Y-189235000D01*
X104245113Y-189235000D01*
X104882799Y-188970862D01*
X105370862Y-188482799D01*
X105635000Y-187845113D01*
X105635000Y-187154887D01*
X108065000Y-187154887D01*
X108065000Y-187845113D01*
X108329138Y-188482799D01*
X108817201Y-188970862D01*
X109454887Y-189235000D01*
X110145113Y-189235000D01*
X110782799Y-188970862D01*
X111270862Y-188482799D01*
X111535000Y-187845113D01*
X111535000Y-187154887D01*
X113965000Y-187154887D01*
X113965000Y-187845113D01*
X114229138Y-188482799D01*
X114717201Y-188970862D01*
X115354887Y-189235000D01*
X116045113Y-189235000D01*
X116682799Y-188970862D01*
X117170862Y-188482799D01*
X117435000Y-187845113D01*
X117435000Y-187154887D01*
X119865000Y-187154887D01*
X119865000Y-187845113D01*
X120129138Y-188482799D01*
X120617201Y-188970862D01*
X121254887Y-189235000D01*
X121945113Y-189235000D01*
X122582799Y-188970862D01*
X123070862Y-188482799D01*
X123335000Y-187845113D01*
X123335000Y-187154887D01*
X123070862Y-186517201D01*
X122582799Y-186029138D01*
X121945113Y-185765000D01*
X121254887Y-185765000D01*
X120617201Y-186029138D01*
X120129138Y-186517201D01*
X119865000Y-187154887D01*
X117435000Y-187154887D01*
X117170862Y-186517201D01*
X116682799Y-186029138D01*
X116045113Y-185765000D01*
X115354887Y-185765000D01*
X114717201Y-186029138D01*
X114229138Y-186517201D01*
X113965000Y-187154887D01*
X111535000Y-187154887D01*
X111270862Y-186517201D01*
X110782799Y-186029138D01*
X110145113Y-185765000D01*
X109454887Y-185765000D01*
X108817201Y-186029138D01*
X108329138Y-186517201D01*
X108065000Y-187154887D01*
X105635000Y-187154887D01*
X105370862Y-186517201D01*
X104882799Y-186029138D01*
X104245113Y-185765000D01*
X103554887Y-185765000D01*
X102917201Y-186029138D01*
X102429138Y-186517201D01*
X102165000Y-187154887D01*
X95467331Y-187154887D01*
X95467331Y-184187443D01*
X148015000Y-184187443D01*
X148015000Y-185812557D01*
X148636904Y-187313967D01*
X149786033Y-188463096D01*
X151287443Y-189085000D01*
X152912557Y-189085000D01*
X154413967Y-188463096D01*
X155563096Y-187313967D01*
X156185000Y-185812557D01*
X156185000Y-184187443D01*
X155563096Y-182686033D01*
X154413967Y-181536904D01*
X152912557Y-180915000D01*
X151287443Y-180915000D01*
X149786033Y-181536904D01*
X148636904Y-182686033D01*
X148015000Y-184187443D01*
X95467331Y-184187443D01*
X95467331Y-176205979D01*
X95481730Y-176133591D01*
X95424685Y-175846808D01*
X95262236Y-175603686D01*
X95019114Y-175441237D01*
X94804719Y-175398591D01*
X94732331Y-175384192D01*
X94659943Y-175398591D01*
X77024722Y-175398591D01*
X76952334Y-175384192D01*
X76879946Y-175398591D01*
X76665551Y-175441237D01*
X76422429Y-175603686D01*
X76259980Y-175846808D01*
X76202935Y-176133591D01*
X62118334Y-176133591D01*
X62118334Y-151202274D01*
X62132732Y-151129860D01*
X62106417Y-150997624D01*
X62075688Y-150843137D01*
X62075670Y-150843110D01*
X62075664Y-150843081D01*
X61998780Y-150728037D01*
X61913239Y-150600015D01*
X61913212Y-150599997D01*
X61913196Y-150599973D01*
X61796675Y-150522130D01*
X61670116Y-150437566D01*
X61670085Y-150437560D01*
X61670060Y-150437543D01*
X61534780Y-150410646D01*
X61383334Y-150380521D01*
X61310912Y-150394927D01*
X61130554Y-150394941D01*
X61130554Y-145014227D01*
X62034117Y-145014227D01*
X62052811Y-145097922D01*
X62498865Y-146067352D01*
X63281950Y-146792291D01*
X64282848Y-147162373D01*
X64710664Y-147037608D01*
X64710664Y-144588404D01*
X64964664Y-144588404D01*
X64964664Y-147037608D01*
X65392480Y-147162373D01*
X66393378Y-146792291D01*
X67176463Y-146067352D01*
X67622517Y-145097922D01*
X67641211Y-145014227D01*
X67640788Y-145012517D01*
X157845666Y-145012517D01*
X157864360Y-145096212D01*
X158310414Y-146065642D01*
X159093499Y-146790581D01*
X160094397Y-147160663D01*
X160522213Y-147035898D01*
X160522213Y-144586694D01*
X160776213Y-144586694D01*
X160776213Y-147035898D01*
X161204029Y-147160663D01*
X162204927Y-146790581D01*
X162988012Y-146065642D01*
X163434066Y-145096212D01*
X163452760Y-145012517D01*
X163347331Y-144586694D01*
X160776213Y-144586694D01*
X160522213Y-144586694D01*
X157951095Y-144586694D01*
X157845666Y-145012517D01*
X67640788Y-145012517D01*
X67535782Y-144588404D01*
X64964664Y-144588404D01*
X64710664Y-144588404D01*
X62139546Y-144588404D01*
X62034117Y-145014227D01*
X61130554Y-145014227D01*
X61130554Y-144108892D01*
X61330865Y-143908581D01*
X62034117Y-143908581D01*
X62139546Y-144334404D01*
X64710664Y-144334404D01*
X64710664Y-141885200D01*
X64964664Y-141885200D01*
X64964664Y-144334404D01*
X67535782Y-144334404D01*
X67641211Y-143908581D01*
X67640830Y-143906871D01*
X157845666Y-143906871D01*
X157951095Y-144332694D01*
X160522213Y-144332694D01*
X160522213Y-141883490D01*
X160776213Y-141883490D01*
X160776213Y-144332694D01*
X163347331Y-144332694D01*
X163452760Y-143906871D01*
X163434066Y-143823176D01*
X162988012Y-142853746D01*
X162204927Y-142128807D01*
X161204029Y-141758725D01*
X160776213Y-141883490D01*
X160522213Y-141883490D01*
X160094397Y-141758725D01*
X159093499Y-142128807D01*
X158310414Y-142853746D01*
X157864360Y-143823176D01*
X157845666Y-143906871D01*
X67640830Y-143906871D01*
X67622517Y-143824886D01*
X67176463Y-142855456D01*
X66393378Y-142130517D01*
X65392480Y-141760435D01*
X64964664Y-141885200D01*
X64710664Y-141885200D01*
X64282848Y-141760435D01*
X63281950Y-142130517D01*
X62498865Y-142855456D01*
X62052811Y-143824886D01*
X62034117Y-143908581D01*
X61330865Y-143908581D01*
X63704447Y-141535000D01*
X161795554Y-141535000D01*
X164365001Y-144104448D01*
G04 #@! TD*
M02*
