G04 #@! TF.GenerationSoftware,KiCad,Pcbnew,5.0.2+dfsg1-1*
G04 #@! TF.CreationDate,2019-07-23T09:40:59-06:00*
G04 #@! TF.ProjectId,hl2-front-vert,686c322d-6672-46f6-9e74-2d766572742e,rev?*
G04 #@! TF.SameCoordinates,Original*
G04 #@! TF.FileFunction,Legend,Top*
G04 #@! TF.FilePolarity,Positive*
%FSLAX46Y46*%
G04 Gerber Fmt 4.6, Leading zero omitted, Abs format (unit mm)*
G04 Created by KiCad (PCBNEW 5.0.2+dfsg1-1) date Tue 23 Jul 2019 09:40:59 AM MDT*
%MOMM*%
%LPD*%
G01*
G04 APERTURE LIST*
%ADD10C,0.500000*%
%ADD11C,0.300000*%
%ADD12C,0.150000*%
G04 APERTURE END LIST*
D10*
X137042857Y-152600000D02*
X140042857Y-152600000D01*
X138614285Y-152600000D02*
X138614285Y-154314285D01*
X137042857Y-154314285D02*
X140042857Y-154314285D01*
X137185714Y-156885714D02*
X137042857Y-156600000D01*
X137042857Y-156028571D01*
X137185714Y-155742857D01*
X137471428Y-155600000D01*
X138614285Y-155600000D01*
X138900000Y-155742857D01*
X139042857Y-156028571D01*
X139042857Y-156600000D01*
X138900000Y-156885714D01*
X138614285Y-157028571D01*
X138328571Y-157028571D01*
X138042857Y-155600000D01*
X137042857Y-158314285D02*
X139042857Y-158314285D01*
X138471428Y-158314285D02*
X138757142Y-158457142D01*
X138900000Y-158600000D01*
X139042857Y-158885714D01*
X139042857Y-159171428D01*
X137042857Y-160171428D02*
X139042857Y-160171428D01*
X138757142Y-160171428D02*
X138900000Y-160314285D01*
X139042857Y-160600000D01*
X139042857Y-161028571D01*
X138900000Y-161314285D01*
X138614285Y-161457142D01*
X137042857Y-161457142D01*
X138614285Y-161457142D02*
X138900000Y-161600000D01*
X139042857Y-161885714D01*
X139042857Y-162314285D01*
X138900000Y-162600000D01*
X138614285Y-162742857D01*
X137042857Y-162742857D01*
X137185714Y-165314285D02*
X137042857Y-165028571D01*
X137042857Y-164457142D01*
X137185714Y-164171428D01*
X137471428Y-164028571D01*
X138614285Y-164028571D01*
X138900000Y-164171428D01*
X139042857Y-164457142D01*
X139042857Y-165028571D01*
X138900000Y-165314285D01*
X138614285Y-165457142D01*
X138328571Y-165457142D01*
X138042857Y-164028571D01*
X137185714Y-166600000D02*
X137042857Y-166885714D01*
X137042857Y-167457142D01*
X137185714Y-167742857D01*
X137471428Y-167885714D01*
X137614285Y-167885714D01*
X137900000Y-167742857D01*
X138042857Y-167457142D01*
X138042857Y-167028571D01*
X138185714Y-166742857D01*
X138471428Y-166600000D01*
X138614285Y-166600000D01*
X138900000Y-166742857D01*
X139042857Y-167028571D01*
X139042857Y-167457142D01*
X138900000Y-167742857D01*
X138185714Y-169171428D02*
X138185714Y-171457142D01*
X137042857Y-174314285D02*
X137042857Y-172885714D01*
X140042857Y-172885714D01*
X137042857Y-175314285D02*
X139042857Y-175314285D01*
X140042857Y-175314285D02*
X139900000Y-175171428D01*
X139757142Y-175314285D01*
X139900000Y-175457142D01*
X140042857Y-175314285D01*
X139757142Y-175314285D01*
X139042857Y-176314285D02*
X139042857Y-177457142D01*
X140042857Y-176742857D02*
X137471428Y-176742857D01*
X137185714Y-176885714D01*
X137042857Y-177171428D01*
X137042857Y-177457142D01*
X137185714Y-179600000D02*
X137042857Y-179314285D01*
X137042857Y-178742857D01*
X137185714Y-178457142D01*
X137471428Y-178314285D01*
X138614285Y-178314285D01*
X138900000Y-178457142D01*
X139042857Y-178742857D01*
X139042857Y-179314285D01*
X138900000Y-179600000D01*
X138614285Y-179742857D01*
X138328571Y-179742857D01*
X138042857Y-178314285D01*
G04 #@! TO.C,4*
D11*
X121921428Y-184585714D02*
X120921428Y-184585714D01*
X122492857Y-184228571D02*
X121421428Y-183871428D01*
X121421428Y-184800000D01*
G04 #@! TO.C,3*
X116521428Y-183800000D02*
X116521428Y-184728571D01*
X115950000Y-184228571D01*
X115950000Y-184442857D01*
X115878571Y-184585714D01*
X115807142Y-184657142D01*
X115664285Y-184728571D01*
X115307142Y-184728571D01*
X115164285Y-184657142D01*
X115092857Y-184585714D01*
X115021428Y-184442857D01*
X115021428Y-184014285D01*
X115092857Y-183871428D01*
X115164285Y-183800000D01*
G04 #@! TO.C,2*
X110478571Y-183871428D02*
X110550000Y-183942857D01*
X110621428Y-184085714D01*
X110621428Y-184442857D01*
X110550000Y-184585714D01*
X110478571Y-184657142D01*
X110335714Y-184728571D01*
X110192857Y-184728571D01*
X109978571Y-184657142D01*
X109121428Y-183800000D01*
X109121428Y-184728571D01*
G04 #@! TO.C,H1*
D12*
X64075759Y-145413784D02*
X64075759Y-144413784D01*
X64075759Y-144889975D02*
X64647187Y-144889975D01*
X64647187Y-145413784D02*
X64647187Y-144413784D01*
X65647187Y-145413784D02*
X65075759Y-145413784D01*
X65361473Y-145413784D02*
X65361473Y-144413784D01*
X65266235Y-144556642D01*
X65170997Y-144651880D01*
X65075759Y-144699499D01*
G04 #@! TO.C,H4*
X64073942Y-192335091D02*
X64073942Y-191335091D01*
X64073942Y-191811282D02*
X64645370Y-191811282D01*
X64645370Y-192335091D02*
X64645370Y-191335091D01*
X65550132Y-191668425D02*
X65550132Y-192335091D01*
X65312037Y-191287472D02*
X65073942Y-192001758D01*
X65692989Y-192001758D01*
G04 #@! TO.C,H3*
X159893720Y-192328678D02*
X159893720Y-191328678D01*
X159893720Y-191804869D02*
X160465148Y-191804869D01*
X160465148Y-192328678D02*
X160465148Y-191328678D01*
X160846101Y-191328678D02*
X161465148Y-191328678D01*
X161131815Y-191709631D01*
X161274672Y-191709631D01*
X161369910Y-191757250D01*
X161417529Y-191804869D01*
X161465148Y-191900107D01*
X161465148Y-192138202D01*
X161417529Y-192233440D01*
X161369910Y-192281059D01*
X161274672Y-192328678D01*
X160988958Y-192328678D01*
X160893720Y-192281059D01*
X160846101Y-192233440D01*
G04 #@! TO.C,H2*
X159887308Y-145412074D02*
X159887308Y-144412074D01*
X159887308Y-144888265D02*
X160458736Y-144888265D01*
X160458736Y-145412074D02*
X160458736Y-144412074D01*
X160887308Y-144507313D02*
X160934927Y-144459694D01*
X161030165Y-144412074D01*
X161268260Y-144412074D01*
X161363498Y-144459694D01*
X161411117Y-144507313D01*
X161458736Y-144602551D01*
X161458736Y-144697789D01*
X161411117Y-144840646D01*
X160839689Y-145412074D01*
X161458736Y-145412074D01*
G04 #@! TO.C,12V 2A*
D11*
X69721428Y-166242857D02*
X69721428Y-165385714D01*
X69721428Y-165814285D02*
X71221428Y-165814285D01*
X71007142Y-165671428D01*
X70864285Y-165528571D01*
X70792857Y-165385714D01*
X71078571Y-166814285D02*
X71150000Y-166885714D01*
X71221428Y-167028571D01*
X71221428Y-167385714D01*
X71150000Y-167528571D01*
X71078571Y-167600000D01*
X70935714Y-167671428D01*
X70792857Y-167671428D01*
X70578571Y-167600000D01*
X69721428Y-166742857D01*
X69721428Y-167671428D01*
X71221428Y-168100000D02*
X69721428Y-168600000D01*
X71221428Y-169100000D01*
X71078571Y-170671428D02*
X71150000Y-170742857D01*
X71221428Y-170885714D01*
X71221428Y-171242857D01*
X71150000Y-171385714D01*
X71078571Y-171457142D01*
X70935714Y-171528571D01*
X70792857Y-171528571D01*
X70578571Y-171457142D01*
X69721428Y-170600000D01*
X69721428Y-171528571D01*
X70150000Y-172100000D02*
X70150000Y-172814285D01*
X69721428Y-171957142D02*
X71221428Y-172457142D01*
X69721428Y-172957142D01*
G04 #@! TO.C,1*
X103221428Y-184728571D02*
X103221428Y-183871428D01*
X103221428Y-184300000D02*
X104721428Y-184300000D01*
X104507142Y-184157142D01*
X104364285Y-184014285D01*
X104292857Y-183871428D01*
G04 #@! TO.C,KEY/PTT*
X151421428Y-170607142D02*
X152921428Y-170607142D01*
X151421428Y-171464285D02*
X152278571Y-170821428D01*
X152921428Y-171464285D02*
X152064285Y-170607142D01*
X152207142Y-172107142D02*
X152207142Y-172607142D01*
X151421428Y-172821428D02*
X151421428Y-172107142D01*
X152921428Y-172107142D01*
X152921428Y-172821428D01*
X152135714Y-173750000D02*
X151421428Y-173750000D01*
X152921428Y-173250000D02*
X152135714Y-173750000D01*
X152921428Y-174250000D01*
X152992857Y-175821428D02*
X151064285Y-174535714D01*
X151421428Y-176321428D02*
X152921428Y-176321428D01*
X152921428Y-176892857D01*
X152850000Y-177035714D01*
X152778571Y-177107142D01*
X152635714Y-177178571D01*
X152421428Y-177178571D01*
X152278571Y-177107142D01*
X152207142Y-177035714D01*
X152135714Y-176892857D01*
X152135714Y-176321428D01*
X152921428Y-177607142D02*
X152921428Y-178464285D01*
X151421428Y-178035714D02*
X152921428Y-178035714D01*
X152921428Y-178750000D02*
X152921428Y-179607142D01*
X151421428Y-179178571D02*
X152921428Y-179178571D01*
G04 #@! TD*
M02*
