G04 #@! TF.GenerationSoftware,KiCad,Pcbnew,5.0.2-bee76a0~70~ubuntu16.04.1*
G04 #@! TF.CreationDate,2019-09-01T12:37:42-07:00*
G04 #@! TF.ProjectId,endcap,656e6463-6170-42e6-9b69-6361645f7063,rev?*
G04 #@! TF.SameCoordinates,PX2faf080PY2faf080*
G04 #@! TF.FileFunction,Soldermask,Bot*
G04 #@! TF.FilePolarity,Negative*
%FSLAX46Y46*%
G04 Gerber Fmt 4.6, Leading zero omitted, Abs format (unit mm)*
G04 Created by KiCad (PCBNEW 5.0.2-bee76a0~70~ubuntu16.04.1) date Sun 01 Sep 2019 12:37:42 PM PDT*
%MOMM*%
%LPD*%
G01*
G04 APERTURE LIST*
%ADD10C,0.100000*%
G04 APERTURE END LIST*
D10*
G36*
X102487921Y-33547056D02*
X102729515Y-33595112D01*
X103184668Y-33783643D01*
X103588841Y-34053703D01*
X103594297Y-34057349D01*
X103942651Y-34405703D01*
X104216358Y-34815334D01*
X104404888Y-35270486D01*
X104501000Y-35753672D01*
X104501000Y-36246328D01*
X104491693Y-36293116D01*
X104404888Y-36729515D01*
X104271577Y-37051356D01*
X104216358Y-37184666D01*
X103942651Y-37594297D01*
X103594297Y-37942651D01*
X103594294Y-37942653D01*
X103184668Y-38216357D01*
X102729515Y-38404888D01*
X102487921Y-38452944D01*
X102246328Y-38501000D01*
X101753672Y-38501000D01*
X101512079Y-38452944D01*
X101270485Y-38404888D01*
X100815332Y-38216357D01*
X100405706Y-37942653D01*
X100405703Y-37942651D01*
X100057349Y-37594297D01*
X99783642Y-37184666D01*
X99728423Y-37051356D01*
X99595112Y-36729515D01*
X99508307Y-36293116D01*
X99499000Y-36246328D01*
X99499000Y-35753672D01*
X99595112Y-35270486D01*
X99783642Y-34815334D01*
X100057349Y-34405703D01*
X100405703Y-34057349D01*
X100411159Y-34053703D01*
X100815332Y-33783643D01*
X101270485Y-33595112D01*
X101512079Y-33547056D01*
X101753672Y-33499000D01*
X102246328Y-33499000D01*
X102487921Y-33547056D01*
X102487921Y-33547056D01*
G37*
G36*
X4487921Y-33547056D02*
X4729515Y-33595112D01*
X5184668Y-33783643D01*
X5588841Y-34053703D01*
X5594297Y-34057349D01*
X5942651Y-34405703D01*
X6216358Y-34815334D01*
X6404888Y-35270486D01*
X6501000Y-35753672D01*
X6501000Y-36246328D01*
X6491693Y-36293116D01*
X6404888Y-36729515D01*
X6271577Y-37051356D01*
X6216358Y-37184666D01*
X5942651Y-37594297D01*
X5594297Y-37942651D01*
X5594294Y-37942653D01*
X5184668Y-38216357D01*
X4729515Y-38404888D01*
X4487921Y-38452944D01*
X4246328Y-38501000D01*
X3753672Y-38501000D01*
X3512079Y-38452944D01*
X3270485Y-38404888D01*
X2815332Y-38216357D01*
X2405706Y-37942653D01*
X2405703Y-37942651D01*
X2057349Y-37594297D01*
X1783642Y-37184666D01*
X1728423Y-37051356D01*
X1595112Y-36729515D01*
X1508307Y-36293116D01*
X1499000Y-36246328D01*
X1499000Y-35753672D01*
X1595112Y-35270486D01*
X1783642Y-34815334D01*
X2057349Y-34405703D01*
X2405703Y-34057349D01*
X2411159Y-34053703D01*
X2815332Y-33783643D01*
X3270485Y-33595112D01*
X3512079Y-33547056D01*
X3753672Y-33499000D01*
X4246328Y-33499000D01*
X4487921Y-33547056D01*
X4487921Y-33547056D01*
G37*
G36*
X23398252Y-32727818D02*
X23398254Y-32727819D01*
X23398255Y-32727819D01*
X23771513Y-32882427D01*
X23771514Y-32882428D01*
X24107439Y-33106886D01*
X24393114Y-33392561D01*
X24393116Y-33392564D01*
X24617573Y-33728487D01*
X24772181Y-34101745D01*
X24851000Y-34497994D01*
X24851000Y-34902006D01*
X24772181Y-35298255D01*
X24617573Y-35671513D01*
X24617572Y-35671514D01*
X24393114Y-36007439D01*
X24107439Y-36293114D01*
X24107436Y-36293116D01*
X23771513Y-36517573D01*
X23398255Y-36672181D01*
X23398254Y-36672181D01*
X23398252Y-36672182D01*
X23002007Y-36751000D01*
X22597993Y-36751000D01*
X22201748Y-36672182D01*
X22201746Y-36672181D01*
X22201745Y-36672181D01*
X21828487Y-36517573D01*
X21492564Y-36293116D01*
X21492561Y-36293114D01*
X21206886Y-36007439D01*
X20982428Y-35671514D01*
X20982427Y-35671513D01*
X20827819Y-35298255D01*
X20749000Y-34902006D01*
X20749000Y-34497994D01*
X20827819Y-34101745D01*
X20982427Y-33728487D01*
X21206884Y-33392564D01*
X21206886Y-33392561D01*
X21492561Y-33106886D01*
X21828486Y-32882428D01*
X21828487Y-32882427D01*
X22201745Y-32727819D01*
X22201746Y-32727819D01*
X22201748Y-32727818D01*
X22597993Y-32649000D01*
X23002007Y-32649000D01*
X23398252Y-32727818D01*
X23398252Y-32727818D01*
G37*
G36*
X68532004Y-32360544D02*
X68619059Y-32377860D01*
X68755732Y-32434472D01*
X68755733Y-32434473D01*
X68878738Y-32516662D01*
X68983338Y-32621262D01*
X68983340Y-32621265D01*
X69065528Y-32744268D01*
X69122140Y-32880941D01*
X69151000Y-33026033D01*
X69151000Y-33173967D01*
X69122140Y-33319059D01*
X69065528Y-33455732D01*
X69065527Y-33455733D01*
X68983338Y-33578738D01*
X68878738Y-33683338D01*
X68878735Y-33683340D01*
X68755732Y-33765528D01*
X68619059Y-33822140D01*
X68532004Y-33839456D01*
X68473969Y-33851000D01*
X68326031Y-33851000D01*
X68267996Y-33839456D01*
X68180941Y-33822140D01*
X68044268Y-33765528D01*
X67921265Y-33683340D01*
X67921262Y-33683338D01*
X67816662Y-33578738D01*
X67734473Y-33455733D01*
X67734472Y-33455732D01*
X67677860Y-33319059D01*
X67649000Y-33173967D01*
X67649000Y-33026033D01*
X67677860Y-32880941D01*
X67734472Y-32744268D01*
X67816660Y-32621265D01*
X67816662Y-32621262D01*
X67921262Y-32516662D01*
X68044267Y-32434473D01*
X68044268Y-32434472D01*
X68180941Y-32377860D01*
X68267996Y-32360544D01*
X68326031Y-32349000D01*
X68473969Y-32349000D01*
X68532004Y-32360544D01*
X68532004Y-32360544D01*
G37*
G36*
X71032004Y-32360544D02*
X71119059Y-32377860D01*
X71255732Y-32434472D01*
X71255733Y-32434473D01*
X71378738Y-32516662D01*
X71483338Y-32621262D01*
X71483340Y-32621265D01*
X71565528Y-32744268D01*
X71622140Y-32880941D01*
X71651000Y-33026033D01*
X71651000Y-33173967D01*
X71622140Y-33319059D01*
X71565528Y-33455732D01*
X71565527Y-33455733D01*
X71483338Y-33578738D01*
X71378738Y-33683338D01*
X71378735Y-33683340D01*
X71255732Y-33765528D01*
X71119059Y-33822140D01*
X71032004Y-33839456D01*
X70973969Y-33851000D01*
X70826031Y-33851000D01*
X70767996Y-33839456D01*
X70680941Y-33822140D01*
X70544268Y-33765528D01*
X70421265Y-33683340D01*
X70421262Y-33683338D01*
X70316662Y-33578738D01*
X70234473Y-33455733D01*
X70234472Y-33455732D01*
X70177860Y-33319059D01*
X70149000Y-33173967D01*
X70149000Y-33026033D01*
X70177860Y-32880941D01*
X70234472Y-32744268D01*
X70316660Y-32621265D01*
X70316662Y-32621262D01*
X70421262Y-32516662D01*
X70544267Y-32434473D01*
X70544268Y-32434472D01*
X70680941Y-32377860D01*
X70767996Y-32360544D01*
X70826031Y-32349000D01*
X70973969Y-32349000D01*
X71032004Y-32360544D01*
X71032004Y-32360544D01*
G37*
G36*
X73532004Y-32360544D02*
X73619059Y-32377860D01*
X73755732Y-32434472D01*
X73755733Y-32434473D01*
X73878738Y-32516662D01*
X73983338Y-32621262D01*
X73983340Y-32621265D01*
X74065528Y-32744268D01*
X74122140Y-32880941D01*
X74151000Y-33026033D01*
X74151000Y-33173967D01*
X74122140Y-33319059D01*
X74065528Y-33455732D01*
X74065527Y-33455733D01*
X73983338Y-33578738D01*
X73878738Y-33683338D01*
X73878735Y-33683340D01*
X73755732Y-33765528D01*
X73619059Y-33822140D01*
X73532004Y-33839456D01*
X73473969Y-33851000D01*
X73326031Y-33851000D01*
X73267996Y-33839456D01*
X73180941Y-33822140D01*
X73044268Y-33765528D01*
X72921265Y-33683340D01*
X72921262Y-33683338D01*
X72816662Y-33578738D01*
X72734473Y-33455733D01*
X72734472Y-33455732D01*
X72677860Y-33319059D01*
X72649000Y-33173967D01*
X72649000Y-33026033D01*
X72677860Y-32880941D01*
X72734472Y-32744268D01*
X72816660Y-32621265D01*
X72816662Y-32621262D01*
X72921262Y-32516662D01*
X73044267Y-32434473D01*
X73044268Y-32434472D01*
X73180941Y-32377860D01*
X73267996Y-32360544D01*
X73326031Y-32349000D01*
X73473969Y-32349000D01*
X73532004Y-32360544D01*
X73532004Y-32360544D01*
G37*
G36*
X78532004Y-32360544D02*
X78619059Y-32377860D01*
X78755732Y-32434472D01*
X78755733Y-32434473D01*
X78878738Y-32516662D01*
X78983338Y-32621262D01*
X78983340Y-32621265D01*
X79065528Y-32744268D01*
X79122140Y-32880941D01*
X79151000Y-33026033D01*
X79151000Y-33173967D01*
X79122140Y-33319059D01*
X79065528Y-33455732D01*
X79065527Y-33455733D01*
X78983338Y-33578738D01*
X78878738Y-33683338D01*
X78878735Y-33683340D01*
X78755732Y-33765528D01*
X78619059Y-33822140D01*
X78532004Y-33839456D01*
X78473969Y-33851000D01*
X78326031Y-33851000D01*
X78267996Y-33839456D01*
X78180941Y-33822140D01*
X78044268Y-33765528D01*
X77921265Y-33683340D01*
X77921262Y-33683338D01*
X77816662Y-33578738D01*
X77734473Y-33455733D01*
X77734472Y-33455732D01*
X77677860Y-33319059D01*
X77649000Y-33173967D01*
X77649000Y-33026033D01*
X77677860Y-32880941D01*
X77734472Y-32744268D01*
X77816660Y-32621265D01*
X77816662Y-32621262D01*
X77921262Y-32516662D01*
X78044267Y-32434473D01*
X78044268Y-32434472D01*
X78180941Y-32377860D01*
X78267996Y-32360544D01*
X78326031Y-32349000D01*
X78473969Y-32349000D01*
X78532004Y-32360544D01*
X78532004Y-32360544D01*
G37*
G36*
X81032004Y-32360544D02*
X81119059Y-32377860D01*
X81255732Y-32434472D01*
X81255733Y-32434473D01*
X81378738Y-32516662D01*
X81483338Y-32621262D01*
X81483340Y-32621265D01*
X81565528Y-32744268D01*
X81622140Y-32880941D01*
X81651000Y-33026033D01*
X81651000Y-33173967D01*
X81622140Y-33319059D01*
X81565528Y-33455732D01*
X81565527Y-33455733D01*
X81483338Y-33578738D01*
X81378738Y-33683338D01*
X81378735Y-33683340D01*
X81255732Y-33765528D01*
X81119059Y-33822140D01*
X81032004Y-33839456D01*
X80973969Y-33851000D01*
X80826031Y-33851000D01*
X80767996Y-33839456D01*
X80680941Y-33822140D01*
X80544268Y-33765528D01*
X80421265Y-33683340D01*
X80421262Y-33683338D01*
X80316662Y-33578738D01*
X80234473Y-33455733D01*
X80234472Y-33455732D01*
X80177860Y-33319059D01*
X80149000Y-33173967D01*
X80149000Y-33026033D01*
X80177860Y-32880941D01*
X80234472Y-32744268D01*
X80316660Y-32621265D01*
X80316662Y-32621262D01*
X80421262Y-32516662D01*
X80544267Y-32434473D01*
X80544268Y-32434472D01*
X80680941Y-32377860D01*
X80767996Y-32360544D01*
X80826031Y-32349000D01*
X80973969Y-32349000D01*
X81032004Y-32360544D01*
X81032004Y-32360544D01*
G37*
G36*
X83532004Y-32360544D02*
X83619059Y-32377860D01*
X83755732Y-32434472D01*
X83755733Y-32434473D01*
X83878738Y-32516662D01*
X83983338Y-32621262D01*
X83983340Y-32621265D01*
X84065528Y-32744268D01*
X84122140Y-32880941D01*
X84151000Y-33026033D01*
X84151000Y-33173967D01*
X84122140Y-33319059D01*
X84065528Y-33455732D01*
X84065527Y-33455733D01*
X83983338Y-33578738D01*
X83878738Y-33683338D01*
X83878735Y-33683340D01*
X83755732Y-33765528D01*
X83619059Y-33822140D01*
X83532004Y-33839456D01*
X83473969Y-33851000D01*
X83326031Y-33851000D01*
X83267996Y-33839456D01*
X83180941Y-33822140D01*
X83044268Y-33765528D01*
X82921265Y-33683340D01*
X82921262Y-33683338D01*
X82816662Y-33578738D01*
X82734473Y-33455733D01*
X82734472Y-33455732D01*
X82677860Y-33319059D01*
X82649000Y-33173967D01*
X82649000Y-33026033D01*
X82677860Y-32880941D01*
X82734472Y-32744268D01*
X82816660Y-32621265D01*
X82816662Y-32621262D01*
X82921262Y-32516662D01*
X83044267Y-32434473D01*
X83044268Y-32434472D01*
X83180941Y-32377860D01*
X83267996Y-32360544D01*
X83326031Y-32349000D01*
X83473969Y-32349000D01*
X83532004Y-32360544D01*
X83532004Y-32360544D01*
G37*
G36*
X88532004Y-32360544D02*
X88619059Y-32377860D01*
X88755732Y-32434472D01*
X88755733Y-32434473D01*
X88878738Y-32516662D01*
X88983338Y-32621262D01*
X88983340Y-32621265D01*
X89065528Y-32744268D01*
X89122140Y-32880941D01*
X89151000Y-33026033D01*
X89151000Y-33173967D01*
X89122140Y-33319059D01*
X89065528Y-33455732D01*
X89065527Y-33455733D01*
X88983338Y-33578738D01*
X88878738Y-33683338D01*
X88878735Y-33683340D01*
X88755732Y-33765528D01*
X88619059Y-33822140D01*
X88532004Y-33839456D01*
X88473969Y-33851000D01*
X88326031Y-33851000D01*
X88267996Y-33839456D01*
X88180941Y-33822140D01*
X88044268Y-33765528D01*
X87921265Y-33683340D01*
X87921262Y-33683338D01*
X87816662Y-33578738D01*
X87734473Y-33455733D01*
X87734472Y-33455732D01*
X87677860Y-33319059D01*
X87649000Y-33173967D01*
X87649000Y-33026033D01*
X87677860Y-32880941D01*
X87734472Y-32744268D01*
X87816660Y-32621265D01*
X87816662Y-32621262D01*
X87921262Y-32516662D01*
X88044267Y-32434473D01*
X88044268Y-32434472D01*
X88180941Y-32377860D01*
X88267996Y-32360544D01*
X88326031Y-32349000D01*
X88473969Y-32349000D01*
X88532004Y-32360544D01*
X88532004Y-32360544D01*
G37*
G36*
X91032004Y-32360544D02*
X91119059Y-32377860D01*
X91255732Y-32434472D01*
X91255733Y-32434473D01*
X91378738Y-32516662D01*
X91483338Y-32621262D01*
X91483340Y-32621265D01*
X91565528Y-32744268D01*
X91622140Y-32880941D01*
X91651000Y-33026033D01*
X91651000Y-33173967D01*
X91622140Y-33319059D01*
X91565528Y-33455732D01*
X91565527Y-33455733D01*
X91483338Y-33578738D01*
X91378738Y-33683338D01*
X91378735Y-33683340D01*
X91255732Y-33765528D01*
X91119059Y-33822140D01*
X91032004Y-33839456D01*
X90973969Y-33851000D01*
X90826031Y-33851000D01*
X90767996Y-33839456D01*
X90680941Y-33822140D01*
X90544268Y-33765528D01*
X90421265Y-33683340D01*
X90421262Y-33683338D01*
X90316662Y-33578738D01*
X90234473Y-33455733D01*
X90234472Y-33455732D01*
X90177860Y-33319059D01*
X90149000Y-33173967D01*
X90149000Y-33026033D01*
X90177860Y-32880941D01*
X90234472Y-32744268D01*
X90316660Y-32621265D01*
X90316662Y-32621262D01*
X90421262Y-32516662D01*
X90544267Y-32434473D01*
X90544268Y-32434472D01*
X90680941Y-32377860D01*
X90767996Y-32360544D01*
X90826031Y-32349000D01*
X90973969Y-32349000D01*
X91032004Y-32360544D01*
X91032004Y-32360544D01*
G37*
G36*
X93532004Y-32360544D02*
X93619059Y-32377860D01*
X93755732Y-32434472D01*
X93755733Y-32434473D01*
X93878738Y-32516662D01*
X93983338Y-32621262D01*
X93983340Y-32621265D01*
X94065528Y-32744268D01*
X94122140Y-32880941D01*
X94151000Y-33026033D01*
X94151000Y-33173967D01*
X94122140Y-33319059D01*
X94065528Y-33455732D01*
X94065527Y-33455733D01*
X93983338Y-33578738D01*
X93878738Y-33683338D01*
X93878735Y-33683340D01*
X93755732Y-33765528D01*
X93619059Y-33822140D01*
X93532004Y-33839456D01*
X93473969Y-33851000D01*
X93326031Y-33851000D01*
X93267996Y-33839456D01*
X93180941Y-33822140D01*
X93044268Y-33765528D01*
X92921265Y-33683340D01*
X92921262Y-33683338D01*
X92816662Y-33578738D01*
X92734473Y-33455733D01*
X92734472Y-33455732D01*
X92677860Y-33319059D01*
X92649000Y-33173967D01*
X92649000Y-33026033D01*
X92677860Y-32880941D01*
X92734472Y-32744268D01*
X92816660Y-32621265D01*
X92816662Y-32621262D01*
X92921262Y-32516662D01*
X93044267Y-32434473D01*
X93044268Y-32434472D01*
X93180941Y-32377860D01*
X93267996Y-32360544D01*
X93326031Y-32349000D01*
X93473969Y-32349000D01*
X93532004Y-32360544D01*
X93532004Y-32360544D01*
G37*
G36*
X81032004Y-29860544D02*
X81119059Y-29877860D01*
X81255732Y-29934472D01*
X81255733Y-29934473D01*
X81378738Y-30016662D01*
X81483338Y-30121262D01*
X81483340Y-30121265D01*
X81565528Y-30244268D01*
X81622140Y-30380941D01*
X81651000Y-30526033D01*
X81651000Y-30673967D01*
X81622140Y-30819059D01*
X81565528Y-30955732D01*
X81565527Y-30955733D01*
X81483338Y-31078738D01*
X81378738Y-31183338D01*
X81378735Y-31183340D01*
X81255732Y-31265528D01*
X81119059Y-31322140D01*
X81032004Y-31339456D01*
X80973969Y-31351000D01*
X80826031Y-31351000D01*
X80767996Y-31339456D01*
X80680941Y-31322140D01*
X80544268Y-31265528D01*
X80421265Y-31183340D01*
X80421262Y-31183338D01*
X80316662Y-31078738D01*
X80234473Y-30955733D01*
X80234472Y-30955732D01*
X80177860Y-30819059D01*
X80149000Y-30673967D01*
X80149000Y-30526033D01*
X80177860Y-30380941D01*
X80234472Y-30244268D01*
X80316660Y-30121265D01*
X80316662Y-30121262D01*
X80421262Y-30016662D01*
X80544267Y-29934473D01*
X80544268Y-29934472D01*
X80680941Y-29877860D01*
X80767996Y-29860544D01*
X80826031Y-29849000D01*
X80973969Y-29849000D01*
X81032004Y-29860544D01*
X81032004Y-29860544D01*
G37*
G36*
X73532004Y-29860544D02*
X73619059Y-29877860D01*
X73755732Y-29934472D01*
X73755733Y-29934473D01*
X73878738Y-30016662D01*
X73983338Y-30121262D01*
X73983340Y-30121265D01*
X74065528Y-30244268D01*
X74122140Y-30380941D01*
X74151000Y-30526033D01*
X74151000Y-30673967D01*
X74122140Y-30819059D01*
X74065528Y-30955732D01*
X74065527Y-30955733D01*
X73983338Y-31078738D01*
X73878738Y-31183338D01*
X73878735Y-31183340D01*
X73755732Y-31265528D01*
X73619059Y-31322140D01*
X73532004Y-31339456D01*
X73473969Y-31351000D01*
X73326031Y-31351000D01*
X73267996Y-31339456D01*
X73180941Y-31322140D01*
X73044268Y-31265528D01*
X72921265Y-31183340D01*
X72921262Y-31183338D01*
X72816662Y-31078738D01*
X72734473Y-30955733D01*
X72734472Y-30955732D01*
X72677860Y-30819059D01*
X72649000Y-30673967D01*
X72649000Y-30526033D01*
X72677860Y-30380941D01*
X72734472Y-30244268D01*
X72816660Y-30121265D01*
X72816662Y-30121262D01*
X72921262Y-30016662D01*
X73044267Y-29934473D01*
X73044268Y-29934472D01*
X73180941Y-29877860D01*
X73267996Y-29860544D01*
X73326031Y-29849000D01*
X73473969Y-29849000D01*
X73532004Y-29860544D01*
X73532004Y-29860544D01*
G37*
G36*
X71032004Y-29860544D02*
X71119059Y-29877860D01*
X71255732Y-29934472D01*
X71255733Y-29934473D01*
X71378738Y-30016662D01*
X71483338Y-30121262D01*
X71483340Y-30121265D01*
X71565528Y-30244268D01*
X71622140Y-30380941D01*
X71651000Y-30526033D01*
X71651000Y-30673967D01*
X71622140Y-30819059D01*
X71565528Y-30955732D01*
X71565527Y-30955733D01*
X71483338Y-31078738D01*
X71378738Y-31183338D01*
X71378735Y-31183340D01*
X71255732Y-31265528D01*
X71119059Y-31322140D01*
X71032004Y-31339456D01*
X70973969Y-31351000D01*
X70826031Y-31351000D01*
X70767996Y-31339456D01*
X70680941Y-31322140D01*
X70544268Y-31265528D01*
X70421265Y-31183340D01*
X70421262Y-31183338D01*
X70316662Y-31078738D01*
X70234473Y-30955733D01*
X70234472Y-30955732D01*
X70177860Y-30819059D01*
X70149000Y-30673967D01*
X70149000Y-30526033D01*
X70177860Y-30380941D01*
X70234472Y-30244268D01*
X70316660Y-30121265D01*
X70316662Y-30121262D01*
X70421262Y-30016662D01*
X70544267Y-29934473D01*
X70544268Y-29934472D01*
X70680941Y-29877860D01*
X70767996Y-29860544D01*
X70826031Y-29849000D01*
X70973969Y-29849000D01*
X71032004Y-29860544D01*
X71032004Y-29860544D01*
G37*
G36*
X68532004Y-29860544D02*
X68619059Y-29877860D01*
X68755732Y-29934472D01*
X68755733Y-29934473D01*
X68878738Y-30016662D01*
X68983338Y-30121262D01*
X68983340Y-30121265D01*
X69065528Y-30244268D01*
X69122140Y-30380941D01*
X69151000Y-30526033D01*
X69151000Y-30673967D01*
X69122140Y-30819059D01*
X69065528Y-30955732D01*
X69065527Y-30955733D01*
X68983338Y-31078738D01*
X68878738Y-31183338D01*
X68878735Y-31183340D01*
X68755732Y-31265528D01*
X68619059Y-31322140D01*
X68532004Y-31339456D01*
X68473969Y-31351000D01*
X68326031Y-31351000D01*
X68267996Y-31339456D01*
X68180941Y-31322140D01*
X68044268Y-31265528D01*
X67921265Y-31183340D01*
X67921262Y-31183338D01*
X67816662Y-31078738D01*
X67734473Y-30955733D01*
X67734472Y-30955732D01*
X67677860Y-30819059D01*
X67649000Y-30673967D01*
X67649000Y-30526033D01*
X67677860Y-30380941D01*
X67734472Y-30244268D01*
X67816660Y-30121265D01*
X67816662Y-30121262D01*
X67921262Y-30016662D01*
X68044267Y-29934473D01*
X68044268Y-29934472D01*
X68180941Y-29877860D01*
X68267996Y-29860544D01*
X68326031Y-29849000D01*
X68473969Y-29849000D01*
X68532004Y-29860544D01*
X68532004Y-29860544D01*
G37*
G36*
X83532004Y-29860544D02*
X83619059Y-29877860D01*
X83755732Y-29934472D01*
X83755733Y-29934473D01*
X83878738Y-30016662D01*
X83983338Y-30121262D01*
X83983340Y-30121265D01*
X84065528Y-30244268D01*
X84122140Y-30380941D01*
X84151000Y-30526033D01*
X84151000Y-30673967D01*
X84122140Y-30819059D01*
X84065528Y-30955732D01*
X84065527Y-30955733D01*
X83983338Y-31078738D01*
X83878738Y-31183338D01*
X83878735Y-31183340D01*
X83755732Y-31265528D01*
X83619059Y-31322140D01*
X83532004Y-31339456D01*
X83473969Y-31351000D01*
X83326031Y-31351000D01*
X83267996Y-31339456D01*
X83180941Y-31322140D01*
X83044268Y-31265528D01*
X82921265Y-31183340D01*
X82921262Y-31183338D01*
X82816662Y-31078738D01*
X82734473Y-30955733D01*
X82734472Y-30955732D01*
X82677860Y-30819059D01*
X82649000Y-30673967D01*
X82649000Y-30526033D01*
X82677860Y-30380941D01*
X82734472Y-30244268D01*
X82816660Y-30121265D01*
X82816662Y-30121262D01*
X82921262Y-30016662D01*
X83044267Y-29934473D01*
X83044268Y-29934472D01*
X83180941Y-29877860D01*
X83267996Y-29860544D01*
X83326031Y-29849000D01*
X83473969Y-29849000D01*
X83532004Y-29860544D01*
X83532004Y-29860544D01*
G37*
G36*
X78532004Y-29860544D02*
X78619059Y-29877860D01*
X78755732Y-29934472D01*
X78755733Y-29934473D01*
X78878738Y-30016662D01*
X78983338Y-30121262D01*
X78983340Y-30121265D01*
X79065528Y-30244268D01*
X79122140Y-30380941D01*
X79151000Y-30526033D01*
X79151000Y-30673967D01*
X79122140Y-30819059D01*
X79065528Y-30955732D01*
X79065527Y-30955733D01*
X78983338Y-31078738D01*
X78878738Y-31183338D01*
X78878735Y-31183340D01*
X78755732Y-31265528D01*
X78619059Y-31322140D01*
X78532004Y-31339456D01*
X78473969Y-31351000D01*
X78326031Y-31351000D01*
X78267996Y-31339456D01*
X78180941Y-31322140D01*
X78044268Y-31265528D01*
X77921265Y-31183340D01*
X77921262Y-31183338D01*
X77816662Y-31078738D01*
X77734473Y-30955733D01*
X77734472Y-30955732D01*
X77677860Y-30819059D01*
X77649000Y-30673967D01*
X77649000Y-30526033D01*
X77677860Y-30380941D01*
X77734472Y-30244268D01*
X77816660Y-30121265D01*
X77816662Y-30121262D01*
X77921262Y-30016662D01*
X78044267Y-29934473D01*
X78044268Y-29934472D01*
X78180941Y-29877860D01*
X78267996Y-29860544D01*
X78326031Y-29849000D01*
X78473969Y-29849000D01*
X78532004Y-29860544D01*
X78532004Y-29860544D01*
G37*
G36*
X93532004Y-29860544D02*
X93619059Y-29877860D01*
X93755732Y-29934472D01*
X93755733Y-29934473D01*
X93878738Y-30016662D01*
X93983338Y-30121262D01*
X93983340Y-30121265D01*
X94065528Y-30244268D01*
X94122140Y-30380941D01*
X94151000Y-30526033D01*
X94151000Y-30673967D01*
X94122140Y-30819059D01*
X94065528Y-30955732D01*
X94065527Y-30955733D01*
X93983338Y-31078738D01*
X93878738Y-31183338D01*
X93878735Y-31183340D01*
X93755732Y-31265528D01*
X93619059Y-31322140D01*
X93532004Y-31339456D01*
X93473969Y-31351000D01*
X93326031Y-31351000D01*
X93267996Y-31339456D01*
X93180941Y-31322140D01*
X93044268Y-31265528D01*
X92921265Y-31183340D01*
X92921262Y-31183338D01*
X92816662Y-31078738D01*
X92734473Y-30955733D01*
X92734472Y-30955732D01*
X92677860Y-30819059D01*
X92649000Y-30673967D01*
X92649000Y-30526033D01*
X92677860Y-30380941D01*
X92734472Y-30244268D01*
X92816660Y-30121265D01*
X92816662Y-30121262D01*
X92921262Y-30016662D01*
X93044267Y-29934473D01*
X93044268Y-29934472D01*
X93180941Y-29877860D01*
X93267996Y-29860544D01*
X93326031Y-29849000D01*
X93473969Y-29849000D01*
X93532004Y-29860544D01*
X93532004Y-29860544D01*
G37*
G36*
X91032004Y-29860544D02*
X91119059Y-29877860D01*
X91255732Y-29934472D01*
X91255733Y-29934473D01*
X91378738Y-30016662D01*
X91483338Y-30121262D01*
X91483340Y-30121265D01*
X91565528Y-30244268D01*
X91622140Y-30380941D01*
X91651000Y-30526033D01*
X91651000Y-30673967D01*
X91622140Y-30819059D01*
X91565528Y-30955732D01*
X91565527Y-30955733D01*
X91483338Y-31078738D01*
X91378738Y-31183338D01*
X91378735Y-31183340D01*
X91255732Y-31265528D01*
X91119059Y-31322140D01*
X91032004Y-31339456D01*
X90973969Y-31351000D01*
X90826031Y-31351000D01*
X90767996Y-31339456D01*
X90680941Y-31322140D01*
X90544268Y-31265528D01*
X90421265Y-31183340D01*
X90421262Y-31183338D01*
X90316662Y-31078738D01*
X90234473Y-30955733D01*
X90234472Y-30955732D01*
X90177860Y-30819059D01*
X90149000Y-30673967D01*
X90149000Y-30526033D01*
X90177860Y-30380941D01*
X90234472Y-30244268D01*
X90316660Y-30121265D01*
X90316662Y-30121262D01*
X90421262Y-30016662D01*
X90544267Y-29934473D01*
X90544268Y-29934472D01*
X90680941Y-29877860D01*
X90767996Y-29860544D01*
X90826031Y-29849000D01*
X90973969Y-29849000D01*
X91032004Y-29860544D01*
X91032004Y-29860544D01*
G37*
G36*
X88532004Y-29860544D02*
X88619059Y-29877860D01*
X88755732Y-29934472D01*
X88755733Y-29934473D01*
X88878738Y-30016662D01*
X88983338Y-30121262D01*
X88983340Y-30121265D01*
X89065528Y-30244268D01*
X89122140Y-30380941D01*
X89151000Y-30526033D01*
X89151000Y-30673967D01*
X89122140Y-30819059D01*
X89065528Y-30955732D01*
X89065527Y-30955733D01*
X88983338Y-31078738D01*
X88878738Y-31183338D01*
X88878735Y-31183340D01*
X88755732Y-31265528D01*
X88619059Y-31322140D01*
X88532004Y-31339456D01*
X88473969Y-31351000D01*
X88326031Y-31351000D01*
X88267996Y-31339456D01*
X88180941Y-31322140D01*
X88044268Y-31265528D01*
X87921265Y-31183340D01*
X87921262Y-31183338D01*
X87816662Y-31078738D01*
X87734473Y-30955733D01*
X87734472Y-30955732D01*
X87677860Y-30819059D01*
X87649000Y-30673967D01*
X87649000Y-30526033D01*
X87677860Y-30380941D01*
X87734472Y-30244268D01*
X87816660Y-30121265D01*
X87816662Y-30121262D01*
X87921262Y-30016662D01*
X88044267Y-29934473D01*
X88044268Y-29934472D01*
X88180941Y-29877860D01*
X88267996Y-29860544D01*
X88326031Y-29849000D01*
X88473969Y-29849000D01*
X88532004Y-29860544D01*
X88532004Y-29860544D01*
G37*
G36*
X22451000Y-31201000D02*
X21299000Y-31201000D01*
X21299000Y-30199000D01*
X22451000Y-30199000D01*
X22451000Y-31201000D01*
X22451000Y-31201000D01*
G37*
G36*
X24101000Y-31201000D02*
X22949000Y-31201000D01*
X22949000Y-30199000D01*
X24101000Y-30199000D01*
X24101000Y-31201000D01*
X24101000Y-31201000D01*
G37*
G36*
X23151000Y-29201000D02*
X22249000Y-29201000D01*
X22249000Y-28199000D01*
X23151000Y-28199000D01*
X23151000Y-29201000D01*
X23151000Y-29201000D01*
G37*
G36*
X73532004Y-27360544D02*
X73619059Y-27377860D01*
X73755732Y-27434472D01*
X73755733Y-27434473D01*
X73878738Y-27516662D01*
X73983338Y-27621262D01*
X73983340Y-27621265D01*
X74065528Y-27744268D01*
X74122140Y-27880941D01*
X74151000Y-28026033D01*
X74151000Y-28173967D01*
X74122140Y-28319059D01*
X74065528Y-28455732D01*
X74065527Y-28455733D01*
X73983338Y-28578738D01*
X73878738Y-28683338D01*
X73878735Y-28683340D01*
X73755732Y-28765528D01*
X73619059Y-28822140D01*
X73532004Y-28839456D01*
X73473969Y-28851000D01*
X73326031Y-28851000D01*
X73267996Y-28839456D01*
X73180941Y-28822140D01*
X73044268Y-28765528D01*
X72921265Y-28683340D01*
X72921262Y-28683338D01*
X72816662Y-28578738D01*
X72734473Y-28455733D01*
X72734472Y-28455732D01*
X72677860Y-28319059D01*
X72649000Y-28173967D01*
X72649000Y-28026033D01*
X72677860Y-27880941D01*
X72734472Y-27744268D01*
X72816660Y-27621265D01*
X72816662Y-27621262D01*
X72921262Y-27516662D01*
X73044267Y-27434473D01*
X73044268Y-27434472D01*
X73180941Y-27377860D01*
X73267996Y-27360544D01*
X73326031Y-27349000D01*
X73473969Y-27349000D01*
X73532004Y-27360544D01*
X73532004Y-27360544D01*
G37*
G36*
X93532004Y-27360544D02*
X93619059Y-27377860D01*
X93755732Y-27434472D01*
X93755733Y-27434473D01*
X93878738Y-27516662D01*
X93983338Y-27621262D01*
X93983340Y-27621265D01*
X94065528Y-27744268D01*
X94122140Y-27880941D01*
X94151000Y-28026033D01*
X94151000Y-28173967D01*
X94122140Y-28319059D01*
X94065528Y-28455732D01*
X94065527Y-28455733D01*
X93983338Y-28578738D01*
X93878738Y-28683338D01*
X93878735Y-28683340D01*
X93755732Y-28765528D01*
X93619059Y-28822140D01*
X93532004Y-28839456D01*
X93473969Y-28851000D01*
X93326031Y-28851000D01*
X93267996Y-28839456D01*
X93180941Y-28822140D01*
X93044268Y-28765528D01*
X92921265Y-28683340D01*
X92921262Y-28683338D01*
X92816662Y-28578738D01*
X92734473Y-28455733D01*
X92734472Y-28455732D01*
X92677860Y-28319059D01*
X92649000Y-28173967D01*
X92649000Y-28026033D01*
X92677860Y-27880941D01*
X92734472Y-27744268D01*
X92816660Y-27621265D01*
X92816662Y-27621262D01*
X92921262Y-27516662D01*
X93044267Y-27434473D01*
X93044268Y-27434472D01*
X93180941Y-27377860D01*
X93267996Y-27360544D01*
X93326031Y-27349000D01*
X93473969Y-27349000D01*
X93532004Y-27360544D01*
X93532004Y-27360544D01*
G37*
G36*
X91032004Y-27360544D02*
X91119059Y-27377860D01*
X91255732Y-27434472D01*
X91255733Y-27434473D01*
X91378738Y-27516662D01*
X91483338Y-27621262D01*
X91483340Y-27621265D01*
X91565528Y-27744268D01*
X91622140Y-27880941D01*
X91651000Y-28026033D01*
X91651000Y-28173967D01*
X91622140Y-28319059D01*
X91565528Y-28455732D01*
X91565527Y-28455733D01*
X91483338Y-28578738D01*
X91378738Y-28683338D01*
X91378735Y-28683340D01*
X91255732Y-28765528D01*
X91119059Y-28822140D01*
X91032004Y-28839456D01*
X90973969Y-28851000D01*
X90826031Y-28851000D01*
X90767996Y-28839456D01*
X90680941Y-28822140D01*
X90544268Y-28765528D01*
X90421265Y-28683340D01*
X90421262Y-28683338D01*
X90316662Y-28578738D01*
X90234473Y-28455733D01*
X90234472Y-28455732D01*
X90177860Y-28319059D01*
X90149000Y-28173967D01*
X90149000Y-28026033D01*
X90177860Y-27880941D01*
X90234472Y-27744268D01*
X90316660Y-27621265D01*
X90316662Y-27621262D01*
X90421262Y-27516662D01*
X90544267Y-27434473D01*
X90544268Y-27434472D01*
X90680941Y-27377860D01*
X90767996Y-27360544D01*
X90826031Y-27349000D01*
X90973969Y-27349000D01*
X91032004Y-27360544D01*
X91032004Y-27360544D01*
G37*
G36*
X88532004Y-27360544D02*
X88619059Y-27377860D01*
X88755732Y-27434472D01*
X88755733Y-27434473D01*
X88878738Y-27516662D01*
X88983338Y-27621262D01*
X88983340Y-27621265D01*
X89065528Y-27744268D01*
X89122140Y-27880941D01*
X89151000Y-28026033D01*
X89151000Y-28173967D01*
X89122140Y-28319059D01*
X89065528Y-28455732D01*
X89065527Y-28455733D01*
X88983338Y-28578738D01*
X88878738Y-28683338D01*
X88878735Y-28683340D01*
X88755732Y-28765528D01*
X88619059Y-28822140D01*
X88532004Y-28839456D01*
X88473969Y-28851000D01*
X88326031Y-28851000D01*
X88267996Y-28839456D01*
X88180941Y-28822140D01*
X88044268Y-28765528D01*
X87921265Y-28683340D01*
X87921262Y-28683338D01*
X87816662Y-28578738D01*
X87734473Y-28455733D01*
X87734472Y-28455732D01*
X87677860Y-28319059D01*
X87649000Y-28173967D01*
X87649000Y-28026033D01*
X87677860Y-27880941D01*
X87734472Y-27744268D01*
X87816660Y-27621265D01*
X87816662Y-27621262D01*
X87921262Y-27516662D01*
X88044267Y-27434473D01*
X88044268Y-27434472D01*
X88180941Y-27377860D01*
X88267996Y-27360544D01*
X88326031Y-27349000D01*
X88473969Y-27349000D01*
X88532004Y-27360544D01*
X88532004Y-27360544D01*
G37*
G36*
X78532004Y-27360544D02*
X78619059Y-27377860D01*
X78755732Y-27434472D01*
X78755733Y-27434473D01*
X78878738Y-27516662D01*
X78983338Y-27621262D01*
X78983340Y-27621265D01*
X79065528Y-27744268D01*
X79122140Y-27880941D01*
X79151000Y-28026033D01*
X79151000Y-28173967D01*
X79122140Y-28319059D01*
X79065528Y-28455732D01*
X79065527Y-28455733D01*
X78983338Y-28578738D01*
X78878738Y-28683338D01*
X78878735Y-28683340D01*
X78755732Y-28765528D01*
X78619059Y-28822140D01*
X78532004Y-28839456D01*
X78473969Y-28851000D01*
X78326031Y-28851000D01*
X78267996Y-28839456D01*
X78180941Y-28822140D01*
X78044268Y-28765528D01*
X77921265Y-28683340D01*
X77921262Y-28683338D01*
X77816662Y-28578738D01*
X77734473Y-28455733D01*
X77734472Y-28455732D01*
X77677860Y-28319059D01*
X77649000Y-28173967D01*
X77649000Y-28026033D01*
X77677860Y-27880941D01*
X77734472Y-27744268D01*
X77816660Y-27621265D01*
X77816662Y-27621262D01*
X77921262Y-27516662D01*
X78044267Y-27434473D01*
X78044268Y-27434472D01*
X78180941Y-27377860D01*
X78267996Y-27360544D01*
X78326031Y-27349000D01*
X78473969Y-27349000D01*
X78532004Y-27360544D01*
X78532004Y-27360544D01*
G37*
G36*
X81032004Y-27360544D02*
X81119059Y-27377860D01*
X81255732Y-27434472D01*
X81255733Y-27434473D01*
X81378738Y-27516662D01*
X81483338Y-27621262D01*
X81483340Y-27621265D01*
X81565528Y-27744268D01*
X81622140Y-27880941D01*
X81651000Y-28026033D01*
X81651000Y-28173967D01*
X81622140Y-28319059D01*
X81565528Y-28455732D01*
X81565527Y-28455733D01*
X81483338Y-28578738D01*
X81378738Y-28683338D01*
X81378735Y-28683340D01*
X81255732Y-28765528D01*
X81119059Y-28822140D01*
X81032004Y-28839456D01*
X80973969Y-28851000D01*
X80826031Y-28851000D01*
X80767996Y-28839456D01*
X80680941Y-28822140D01*
X80544268Y-28765528D01*
X80421265Y-28683340D01*
X80421262Y-28683338D01*
X80316662Y-28578738D01*
X80234473Y-28455733D01*
X80234472Y-28455732D01*
X80177860Y-28319059D01*
X80149000Y-28173967D01*
X80149000Y-28026033D01*
X80177860Y-27880941D01*
X80234472Y-27744268D01*
X80316660Y-27621265D01*
X80316662Y-27621262D01*
X80421262Y-27516662D01*
X80544267Y-27434473D01*
X80544268Y-27434472D01*
X80680941Y-27377860D01*
X80767996Y-27360544D01*
X80826031Y-27349000D01*
X80973969Y-27349000D01*
X81032004Y-27360544D01*
X81032004Y-27360544D01*
G37*
G36*
X68532004Y-27360544D02*
X68619059Y-27377860D01*
X68755732Y-27434472D01*
X68755733Y-27434473D01*
X68878738Y-27516662D01*
X68983338Y-27621262D01*
X68983340Y-27621265D01*
X69065528Y-27744268D01*
X69122140Y-27880941D01*
X69151000Y-28026033D01*
X69151000Y-28173967D01*
X69122140Y-28319059D01*
X69065528Y-28455732D01*
X69065527Y-28455733D01*
X68983338Y-28578738D01*
X68878738Y-28683338D01*
X68878735Y-28683340D01*
X68755732Y-28765528D01*
X68619059Y-28822140D01*
X68532004Y-28839456D01*
X68473969Y-28851000D01*
X68326031Y-28851000D01*
X68267996Y-28839456D01*
X68180941Y-28822140D01*
X68044268Y-28765528D01*
X67921265Y-28683340D01*
X67921262Y-28683338D01*
X67816662Y-28578738D01*
X67734473Y-28455733D01*
X67734472Y-28455732D01*
X67677860Y-28319059D01*
X67649000Y-28173967D01*
X67649000Y-28026033D01*
X67677860Y-27880941D01*
X67734472Y-27744268D01*
X67816660Y-27621265D01*
X67816662Y-27621262D01*
X67921262Y-27516662D01*
X68044267Y-27434473D01*
X68044268Y-27434472D01*
X68180941Y-27377860D01*
X68267996Y-27360544D01*
X68326031Y-27349000D01*
X68473969Y-27349000D01*
X68532004Y-27360544D01*
X68532004Y-27360544D01*
G37*
G36*
X83532004Y-27360544D02*
X83619059Y-27377860D01*
X83755732Y-27434472D01*
X83755733Y-27434473D01*
X83878738Y-27516662D01*
X83983338Y-27621262D01*
X83983340Y-27621265D01*
X84065528Y-27744268D01*
X84122140Y-27880941D01*
X84151000Y-28026033D01*
X84151000Y-28173967D01*
X84122140Y-28319059D01*
X84065528Y-28455732D01*
X84065527Y-28455733D01*
X83983338Y-28578738D01*
X83878738Y-28683338D01*
X83878735Y-28683340D01*
X83755732Y-28765528D01*
X83619059Y-28822140D01*
X83532004Y-28839456D01*
X83473969Y-28851000D01*
X83326031Y-28851000D01*
X83267996Y-28839456D01*
X83180941Y-28822140D01*
X83044268Y-28765528D01*
X82921265Y-28683340D01*
X82921262Y-28683338D01*
X82816662Y-28578738D01*
X82734473Y-28455733D01*
X82734472Y-28455732D01*
X82677860Y-28319059D01*
X82649000Y-28173967D01*
X82649000Y-28026033D01*
X82677860Y-27880941D01*
X82734472Y-27744268D01*
X82816660Y-27621265D01*
X82816662Y-27621262D01*
X82921262Y-27516662D01*
X83044267Y-27434473D01*
X83044268Y-27434472D01*
X83180941Y-27377860D01*
X83267996Y-27360544D01*
X83326031Y-27349000D01*
X83473969Y-27349000D01*
X83532004Y-27360544D01*
X83532004Y-27360544D01*
G37*
G36*
X71032004Y-27360544D02*
X71119059Y-27377860D01*
X71255732Y-27434472D01*
X71255733Y-27434473D01*
X71378738Y-27516662D01*
X71483338Y-27621262D01*
X71483340Y-27621265D01*
X71565528Y-27744268D01*
X71622140Y-27880941D01*
X71651000Y-28026033D01*
X71651000Y-28173967D01*
X71622140Y-28319059D01*
X71565528Y-28455732D01*
X71565527Y-28455733D01*
X71483338Y-28578738D01*
X71378738Y-28683338D01*
X71378735Y-28683340D01*
X71255732Y-28765528D01*
X71119059Y-28822140D01*
X71032004Y-28839456D01*
X70973969Y-28851000D01*
X70826031Y-28851000D01*
X70767996Y-28839456D01*
X70680941Y-28822140D01*
X70544268Y-28765528D01*
X70421265Y-28683340D01*
X70421262Y-28683338D01*
X70316662Y-28578738D01*
X70234473Y-28455733D01*
X70234472Y-28455732D01*
X70177860Y-28319059D01*
X70149000Y-28173967D01*
X70149000Y-28026033D01*
X70177860Y-27880941D01*
X70234472Y-27744268D01*
X70316660Y-27621265D01*
X70316662Y-27621262D01*
X70421262Y-27516662D01*
X70544267Y-27434473D01*
X70544268Y-27434472D01*
X70680941Y-27377860D01*
X70767996Y-27360544D01*
X70826031Y-27349000D01*
X70973969Y-27349000D01*
X71032004Y-27360544D01*
X71032004Y-27360544D01*
G37*
G36*
X29698252Y-23827818D02*
X29698254Y-23827819D01*
X29698255Y-23827819D01*
X30071513Y-23982427D01*
X30071514Y-23982428D01*
X30407439Y-24206886D01*
X30693114Y-24492561D01*
X30693116Y-24492564D01*
X30917573Y-24828487D01*
X31072181Y-25201745D01*
X31072182Y-25201748D01*
X31151000Y-25597993D01*
X31151000Y-26002007D01*
X31100279Y-26257000D01*
X31072181Y-26398255D01*
X30917573Y-26771513D01*
X30917572Y-26771514D01*
X30693114Y-27107439D01*
X30407439Y-27393114D01*
X30407436Y-27393116D01*
X30071513Y-27617573D01*
X29698255Y-27772181D01*
X29698254Y-27772181D01*
X29698252Y-27772182D01*
X29302007Y-27851000D01*
X28897993Y-27851000D01*
X28501748Y-27772182D01*
X28501746Y-27772181D01*
X28501745Y-27772181D01*
X28128487Y-27617573D01*
X27792564Y-27393116D01*
X27792561Y-27393114D01*
X27506886Y-27107439D01*
X27282428Y-26771514D01*
X27282427Y-26771513D01*
X27127819Y-26398255D01*
X27099722Y-26257000D01*
X27049000Y-26002007D01*
X27049000Y-25597993D01*
X27127818Y-25201748D01*
X27127819Y-25201745D01*
X27282427Y-24828487D01*
X27506884Y-24492564D01*
X27506886Y-24492561D01*
X27792561Y-24206886D01*
X28128486Y-23982428D01*
X28128487Y-23982427D01*
X28501745Y-23827819D01*
X28501746Y-23827819D01*
X28501748Y-23827818D01*
X28897993Y-23749000D01*
X29302007Y-23749000D01*
X29698252Y-23827818D01*
X29698252Y-23827818D01*
G37*
G36*
X16198252Y-23827818D02*
X16198254Y-23827819D01*
X16198255Y-23827819D01*
X16571513Y-23982427D01*
X16571514Y-23982428D01*
X16907439Y-24206886D01*
X17193114Y-24492561D01*
X17193116Y-24492564D01*
X17417573Y-24828487D01*
X17572181Y-25201745D01*
X17572182Y-25201748D01*
X17651000Y-25597993D01*
X17651000Y-26002007D01*
X17600279Y-26257000D01*
X17572181Y-26398255D01*
X17417573Y-26771513D01*
X17417572Y-26771514D01*
X17193114Y-27107439D01*
X16907439Y-27393114D01*
X16907436Y-27393116D01*
X16571513Y-27617573D01*
X16198255Y-27772181D01*
X16198254Y-27772181D01*
X16198252Y-27772182D01*
X15802007Y-27851000D01*
X15397993Y-27851000D01*
X15001748Y-27772182D01*
X15001746Y-27772181D01*
X15001745Y-27772181D01*
X14628487Y-27617573D01*
X14292564Y-27393116D01*
X14292561Y-27393114D01*
X14006886Y-27107439D01*
X13782428Y-26771514D01*
X13782427Y-26771513D01*
X13627819Y-26398255D01*
X13599722Y-26257000D01*
X13549000Y-26002007D01*
X13549000Y-25597993D01*
X13627818Y-25201748D01*
X13627819Y-25201745D01*
X13782427Y-24828487D01*
X14006884Y-24492564D01*
X14006886Y-24492561D01*
X14292561Y-24206886D01*
X14628486Y-23982428D01*
X14628487Y-23982427D01*
X15001745Y-23827819D01*
X15001746Y-23827819D01*
X15001748Y-23827818D01*
X15397993Y-23749000D01*
X15802007Y-23749000D01*
X16198252Y-23827818D01*
X16198252Y-23827818D01*
G37*
G36*
X20849500Y-27248000D02*
X19350500Y-27248000D01*
X19350500Y-26257000D01*
X20849500Y-26257000D01*
X20849500Y-27248000D01*
X20849500Y-27248000D01*
G37*
G36*
X23201000Y-27201000D02*
X22199000Y-27201000D01*
X22199000Y-26049000D01*
X23201000Y-26049000D01*
X23201000Y-27201000D01*
X23201000Y-27201000D01*
G37*
G36*
X25201000Y-26251000D02*
X24199000Y-26251000D01*
X24199000Y-25349000D01*
X25201000Y-25349000D01*
X25201000Y-26251000D01*
X25201000Y-26251000D01*
G37*
G36*
X23201000Y-25551000D02*
X22199000Y-25551000D01*
X22199000Y-24399000D01*
X23201000Y-24399000D01*
X23201000Y-25551000D01*
X23201000Y-25551000D01*
G37*
G36*
X20849500Y-25343000D02*
X19350500Y-25343000D01*
X19350500Y-24352000D01*
X20849500Y-24352000D01*
X20849500Y-25343000D01*
X20849500Y-25343000D01*
G37*
G36*
X16198252Y-17327818D02*
X16198254Y-17327819D01*
X16198255Y-17327819D01*
X16571513Y-17482427D01*
X16571514Y-17482428D01*
X16907439Y-17706886D01*
X17193114Y-17992561D01*
X17193116Y-17992564D01*
X17417573Y-18328487D01*
X17572181Y-18701745D01*
X17572182Y-18701748D01*
X17651000Y-19097993D01*
X17651000Y-19502007D01*
X17591527Y-19801000D01*
X17572181Y-19898255D01*
X17417573Y-20271513D01*
X17417572Y-20271514D01*
X17193114Y-20607439D01*
X16907439Y-20893114D01*
X16907436Y-20893116D01*
X16571513Y-21117573D01*
X16198255Y-21272181D01*
X16198254Y-21272181D01*
X16198252Y-21272182D01*
X15802007Y-21351000D01*
X15397993Y-21351000D01*
X15001748Y-21272182D01*
X15001746Y-21272181D01*
X15001745Y-21272181D01*
X14628487Y-21117573D01*
X14292564Y-20893116D01*
X14292561Y-20893114D01*
X14006886Y-20607439D01*
X13782428Y-20271514D01*
X13782427Y-20271513D01*
X13627819Y-19898255D01*
X13608474Y-19801000D01*
X13549000Y-19502007D01*
X13549000Y-19097993D01*
X13627818Y-18701748D01*
X13627819Y-18701745D01*
X13782427Y-18328487D01*
X14006884Y-17992564D01*
X14006886Y-17992561D01*
X14292561Y-17706886D01*
X14628486Y-17482428D01*
X14628487Y-17482427D01*
X15001745Y-17327819D01*
X15001746Y-17327819D01*
X15001748Y-17327818D01*
X15397993Y-17249000D01*
X15802007Y-17249000D01*
X16198252Y-17327818D01*
X16198252Y-17327818D01*
G37*
G36*
X29698252Y-17327818D02*
X29698254Y-17327819D01*
X29698255Y-17327819D01*
X30071513Y-17482427D01*
X30071514Y-17482428D01*
X30407439Y-17706886D01*
X30693114Y-17992561D01*
X30693116Y-17992564D01*
X30917573Y-18328487D01*
X31072181Y-18701745D01*
X31072182Y-18701748D01*
X31151000Y-19097993D01*
X31151000Y-19502007D01*
X31091527Y-19801000D01*
X31072181Y-19898255D01*
X30917573Y-20271513D01*
X30917572Y-20271514D01*
X30693114Y-20607439D01*
X30407439Y-20893114D01*
X30407436Y-20893116D01*
X30071513Y-21117573D01*
X29698255Y-21272181D01*
X29698254Y-21272181D01*
X29698252Y-21272182D01*
X29302007Y-21351000D01*
X28897993Y-21351000D01*
X28501748Y-21272182D01*
X28501746Y-21272181D01*
X28501745Y-21272181D01*
X28128487Y-21117573D01*
X27792564Y-20893116D01*
X27792561Y-20893114D01*
X27506886Y-20607439D01*
X27282428Y-20271514D01*
X27282427Y-20271513D01*
X27127819Y-19898255D01*
X27108474Y-19801000D01*
X27049000Y-19502007D01*
X27049000Y-19097993D01*
X27127818Y-18701748D01*
X27127819Y-18701745D01*
X27282427Y-18328487D01*
X27506884Y-17992564D01*
X27506886Y-17992561D01*
X27792561Y-17706886D01*
X28128486Y-17482428D01*
X28128487Y-17482427D01*
X28501745Y-17327819D01*
X28501746Y-17327819D01*
X28501748Y-17327818D01*
X28897993Y-17249000D01*
X29302007Y-17249000D01*
X29698252Y-17327818D01*
X29698252Y-17327818D01*
G37*
G36*
X92400399Y-10383499D02*
X93274125Y-10745408D01*
X94060462Y-11270822D01*
X94729178Y-11939538D01*
X95254592Y-12725875D01*
X95616501Y-13599601D01*
X95801000Y-14527141D01*
X95801000Y-15472859D01*
X95616501Y-16400399D01*
X95254592Y-17274125D01*
X94729178Y-18060462D01*
X94060462Y-18729178D01*
X93274125Y-19254592D01*
X92400399Y-19616501D01*
X91472859Y-19801000D01*
X90527141Y-19801000D01*
X89599601Y-19616501D01*
X88725875Y-19254592D01*
X87939538Y-18729178D01*
X87270822Y-18060462D01*
X86745408Y-17274125D01*
X86383499Y-16400399D01*
X86199000Y-15472859D01*
X86199000Y-14527141D01*
X86383499Y-13599601D01*
X86745408Y-12725875D01*
X87270822Y-11939538D01*
X87939538Y-11270822D01*
X88725875Y-10745408D01*
X89599601Y-10383499D01*
X90527141Y-10199000D01*
X91472859Y-10199000D01*
X92400399Y-10383499D01*
X92400399Y-10383499D01*
G37*
G36*
X72035786Y-5720462D02*
X72035788Y-5720463D01*
X72035789Y-5720463D01*
X72682029Y-5988144D01*
X72682030Y-5988145D01*
X73263634Y-6376760D01*
X73758240Y-6871366D01*
X73758242Y-6871369D01*
X74146856Y-7452971D01*
X74414537Y-8099211D01*
X74551000Y-8785257D01*
X74551000Y-9484743D01*
X74414537Y-10170789D01*
X74146856Y-10817029D01*
X74146855Y-10817030D01*
X73758240Y-11398634D01*
X73263634Y-11893240D01*
X73263631Y-11893242D01*
X72682029Y-12281856D01*
X72035789Y-12549537D01*
X72035788Y-12549537D01*
X72035786Y-12549538D01*
X71349744Y-12686000D01*
X70650256Y-12686000D01*
X69964214Y-12549538D01*
X69964212Y-12549537D01*
X69964211Y-12549537D01*
X69317971Y-12281856D01*
X68736369Y-11893242D01*
X68736366Y-11893240D01*
X68241760Y-11398634D01*
X67853145Y-10817030D01*
X67853144Y-10817029D01*
X67585463Y-10170789D01*
X67449000Y-9484743D01*
X67449000Y-8785257D01*
X67585463Y-8099211D01*
X67853144Y-7452971D01*
X68241758Y-6871369D01*
X68241760Y-6871366D01*
X68736366Y-6376760D01*
X69317970Y-5988145D01*
X69317971Y-5988144D01*
X69964211Y-5720463D01*
X69964212Y-5720463D01*
X69964214Y-5720462D01*
X70650256Y-5584000D01*
X71349744Y-5584000D01*
X72035786Y-5720462D01*
X72035786Y-5720462D01*
G37*
G36*
X40035786Y-5720462D02*
X40035788Y-5720463D01*
X40035789Y-5720463D01*
X40682029Y-5988144D01*
X40682030Y-5988145D01*
X41263634Y-6376760D01*
X41758240Y-6871366D01*
X41758242Y-6871369D01*
X42146856Y-7452971D01*
X42414537Y-8099211D01*
X42551000Y-8785257D01*
X42551000Y-9484743D01*
X42414537Y-10170789D01*
X42146856Y-10817029D01*
X42146855Y-10817030D01*
X41758240Y-11398634D01*
X41263634Y-11893240D01*
X41263631Y-11893242D01*
X40682029Y-12281856D01*
X40035789Y-12549537D01*
X40035788Y-12549537D01*
X40035786Y-12549538D01*
X39349744Y-12686000D01*
X38650256Y-12686000D01*
X37964214Y-12549538D01*
X37964212Y-12549537D01*
X37964211Y-12549537D01*
X37317971Y-12281856D01*
X36736369Y-11893242D01*
X36736366Y-11893240D01*
X36241760Y-11398634D01*
X35853145Y-10817030D01*
X35853144Y-10817029D01*
X35585463Y-10170789D01*
X35449000Y-9484743D01*
X35449000Y-8785257D01*
X35585463Y-8099211D01*
X35853144Y-7452971D01*
X36241758Y-6871369D01*
X36241760Y-6871366D01*
X36736366Y-6376760D01*
X37317970Y-5988145D01*
X37317971Y-5988144D01*
X37964211Y-5720463D01*
X37964212Y-5720463D01*
X37964214Y-5720462D01*
X38650256Y-5584000D01*
X39349744Y-5584000D01*
X40035786Y-5720462D01*
X40035786Y-5720462D01*
G37*
G36*
X102487921Y-1547056D02*
X102729515Y-1595112D01*
X103184668Y-1783643D01*
X103588841Y-2053703D01*
X103594297Y-2057349D01*
X103942651Y-2405703D01*
X104216358Y-2815334D01*
X104404888Y-3270486D01*
X104501000Y-3753672D01*
X104501000Y-4246328D01*
X104404888Y-4729514D01*
X104216358Y-5184666D01*
X103942651Y-5594297D01*
X103594297Y-5942651D01*
X103594294Y-5942653D01*
X103184668Y-6216357D01*
X102729515Y-6404888D01*
X102487921Y-6452944D01*
X102246328Y-6501000D01*
X101753672Y-6501000D01*
X101512079Y-6452944D01*
X101270485Y-6404888D01*
X100815332Y-6216357D01*
X100405706Y-5942653D01*
X100405703Y-5942651D01*
X100057349Y-5594297D01*
X99783642Y-5184666D01*
X99595112Y-4729514D01*
X99499000Y-4246328D01*
X99499000Y-3753672D01*
X99595112Y-3270486D01*
X99783642Y-2815334D01*
X100057349Y-2405703D01*
X100405703Y-2057349D01*
X100411159Y-2053703D01*
X100815332Y-1783643D01*
X101270485Y-1595112D01*
X101512079Y-1547056D01*
X101753672Y-1499000D01*
X102246328Y-1499000D01*
X102487921Y-1547056D01*
X102487921Y-1547056D01*
G37*
G36*
X4487921Y-1547056D02*
X4729515Y-1595112D01*
X5184668Y-1783643D01*
X5588841Y-2053703D01*
X5594297Y-2057349D01*
X5942651Y-2405703D01*
X6216358Y-2815334D01*
X6404888Y-3270486D01*
X6501000Y-3753672D01*
X6501000Y-4246328D01*
X6404888Y-4729514D01*
X6216358Y-5184666D01*
X5942651Y-5594297D01*
X5594297Y-5942651D01*
X5594294Y-5942653D01*
X5184668Y-6216357D01*
X4729515Y-6404888D01*
X4487921Y-6452944D01*
X4246328Y-6501000D01*
X3753672Y-6501000D01*
X3512079Y-6452944D01*
X3270485Y-6404888D01*
X2815332Y-6216357D01*
X2405706Y-5942653D01*
X2405703Y-5942651D01*
X2057349Y-5594297D01*
X1783642Y-5184666D01*
X1595112Y-4729514D01*
X1499000Y-4246328D01*
X1499000Y-3753672D01*
X1595112Y-3270486D01*
X1783642Y-2815334D01*
X2057349Y-2405703D01*
X2405703Y-2057349D01*
X2411159Y-2053703D01*
X2815332Y-1783643D01*
X3270485Y-1595112D01*
X3512079Y-1547056D01*
X3753672Y-1499000D01*
X4246328Y-1499000D01*
X4487921Y-1547056D01*
X4487921Y-1547056D01*
G37*
M02*
