G04 #@! TF.GenerationSoftware,KiCad,Pcbnew,5.0.2-bee76a0~70~ubuntu16.04.1*
G04 #@! TF.CreationDate,2019-09-01T12:37:42-07:00*
G04 #@! TF.ProjectId,endcap,656e6463-6170-42e6-9b69-6361645f7063,rev?*
G04 #@! TF.SameCoordinates,PX2faf080PY2faf080*
G04 #@! TF.FileFunction,Legend,Bot*
G04 #@! TF.FilePolarity,Positive*
%FSLAX46Y46*%
G04 Gerber Fmt 4.6, Leading zero omitted, Abs format (unit mm)*
G04 Created by KiCad (PCBNEW 5.0.2-bee76a0~70~ubuntu16.04.1) date Sun 01 Sep 2019 12:37:42 PM PDT*
%MOMM*%
%LPD*%
G01*
G04 APERTURE LIST*
%ADD10C,0.100000*%
%ADD11C,0.120000*%
%ADD12C,0.150000*%
G04 APERTURE END LIST*
D10*
G04 #@! TO.C,R1*
X20862000Y-27324000D02*
X20862000Y-26308000D01*
X19338000Y-27324000D02*
X20862000Y-27324000D01*
X19338000Y-26308000D02*
X19338000Y-27324000D01*
X19338000Y-24276000D02*
X19338000Y-25292000D01*
X20862000Y-24276000D02*
X19338000Y-24276000D01*
X20862000Y-25292000D02*
X20862000Y-24276000D01*
G04 #@! TO.C,Q1*
X21100000Y-31300000D02*
X21100000Y-28100000D01*
X24300000Y-31300000D02*
X21100000Y-31300000D01*
X24300000Y-28100000D02*
X24300000Y-31300000D01*
X21100000Y-28100000D02*
X24300000Y-28100000D01*
G04 #@! TO.C,Q2*
X22100000Y-24200000D02*
X25300000Y-24200000D01*
X22100000Y-27400000D02*
X22100000Y-24200000D01*
X25300000Y-27400000D02*
X22100000Y-27400000D01*
X25300000Y-24200000D02*
X25300000Y-27400000D01*
D11*
G04 #@! TO.C,TP1*
X17850000Y-25800000D02*
G75*
G03X17850000Y-25800000I-2250000J0D01*
G01*
G04 #@! TO.C,TP2*
X25050000Y-34700000D02*
G75*
G03X25050000Y-34700000I-2250000J0D01*
G01*
G04 #@! TO.C,TP3*
X17850000Y-19300000D02*
G75*
G03X17850000Y-19300000I-2250000J0D01*
G01*
G04 #@! TO.C,TP4*
X31350000Y-25800000D02*
G75*
G03X31350000Y-25800000I-2250000J0D01*
G01*
G04 #@! TO.C,TP5*
X31350000Y-19300000D02*
G75*
G03X31350000Y-19300000I-2250000J0D01*
G01*
G04 #@! TO.C,R1*
D10*
X20233333Y-23661904D02*
X20500000Y-23280952D01*
X20690476Y-23661904D02*
X20690476Y-22861904D01*
X20385714Y-22861904D01*
X20309523Y-22900000D01*
X20271428Y-22938095D01*
X20233333Y-23014285D01*
X20233333Y-23128571D01*
X20271428Y-23204761D01*
X20309523Y-23242857D01*
X20385714Y-23280952D01*
X20690476Y-23280952D01*
X19471428Y-23661904D02*
X19928571Y-23661904D01*
X19700000Y-23661904D02*
X19700000Y-22861904D01*
X19776190Y-22976190D01*
X19852380Y-23052380D01*
X19928571Y-23090476D01*
G04 #@! TO.C,Q1*
X25476190Y-31138095D02*
X25552380Y-31100000D01*
X25628571Y-31023809D01*
X25742857Y-30909523D01*
X25819047Y-30871428D01*
X25895238Y-30871428D01*
X25857142Y-31061904D02*
X25933333Y-31023809D01*
X26009523Y-30947619D01*
X26047619Y-30795238D01*
X26047619Y-30528571D01*
X26009523Y-30376190D01*
X25933333Y-30300000D01*
X25857142Y-30261904D01*
X25704761Y-30261904D01*
X25628571Y-30300000D01*
X25552380Y-30376190D01*
X25514285Y-30528571D01*
X25514285Y-30795238D01*
X25552380Y-30947619D01*
X25628571Y-31023809D01*
X25704761Y-31061904D01*
X25857142Y-31061904D01*
X24752380Y-31061904D02*
X25209523Y-31061904D01*
X24980952Y-31061904D02*
X24980952Y-30261904D01*
X25057142Y-30376190D01*
X25133333Y-30452380D01*
X25209523Y-30490476D01*
G04 #@! TO.C,Q2*
X23476190Y-23638095D02*
X23552380Y-23600000D01*
X23628571Y-23523809D01*
X23742857Y-23409523D01*
X23819047Y-23371428D01*
X23895238Y-23371428D01*
X23857142Y-23561904D02*
X23933333Y-23523809D01*
X24009523Y-23447619D01*
X24047619Y-23295238D01*
X24047619Y-23028571D01*
X24009523Y-22876190D01*
X23933333Y-22800000D01*
X23857142Y-22761904D01*
X23704761Y-22761904D01*
X23628571Y-22800000D01*
X23552380Y-22876190D01*
X23514285Y-23028571D01*
X23514285Y-23295238D01*
X23552380Y-23447619D01*
X23628571Y-23523809D01*
X23704761Y-23561904D01*
X23857142Y-23561904D01*
X23209523Y-22838095D02*
X23171428Y-22800000D01*
X23095238Y-22761904D01*
X22904761Y-22761904D01*
X22828571Y-22800000D01*
X22790476Y-22838095D01*
X22752380Y-22914285D01*
X22752380Y-22990476D01*
X22790476Y-23104761D01*
X23247619Y-23561904D01*
X22752380Y-23561904D01*
G04 #@! TO.C,TP1*
D12*
X12576190Y-26252380D02*
X12576190Y-25252380D01*
X12195238Y-25252380D01*
X12100000Y-25300000D01*
X12052380Y-25347619D01*
X12004761Y-25442857D01*
X12004761Y-25585714D01*
X12052380Y-25680952D01*
X12100000Y-25728571D01*
X12195238Y-25776190D01*
X12576190Y-25776190D01*
X11433333Y-26252380D02*
X11528571Y-26204761D01*
X11576190Y-26157142D01*
X11623809Y-26061904D01*
X11623809Y-25776190D01*
X11576190Y-25680952D01*
X11528571Y-25633333D01*
X11433333Y-25585714D01*
X11290476Y-25585714D01*
X11195238Y-25633333D01*
X11147619Y-25680952D01*
X11100000Y-25776190D01*
X11100000Y-26061904D01*
X11147619Y-26157142D01*
X11195238Y-26204761D01*
X11290476Y-26252380D01*
X11433333Y-26252380D01*
X10766666Y-25585714D02*
X10576190Y-26252380D01*
X10385714Y-25776190D01*
X10195238Y-26252380D01*
X10004761Y-25585714D01*
X9242857Y-26204761D02*
X9338095Y-26252380D01*
X9528571Y-26252380D01*
X9623809Y-26204761D01*
X9671428Y-26109523D01*
X9671428Y-25728571D01*
X9623809Y-25633333D01*
X9528571Y-25585714D01*
X9338095Y-25585714D01*
X9242857Y-25633333D01*
X9195238Y-25728571D01*
X9195238Y-25823809D01*
X9671428Y-25919047D01*
X8766666Y-26252380D02*
X8766666Y-25585714D01*
X8766666Y-25776190D02*
X8719047Y-25680952D01*
X8671428Y-25633333D01*
X8576190Y-25585714D01*
X8480952Y-25585714D01*
G04 #@! TO.C,TP2*
X26657142Y-38228571D02*
X26990476Y-38228571D01*
X26990476Y-38752380D02*
X26990476Y-37752380D01*
X26514285Y-37752380D01*
X25704761Y-38752380D02*
X25704761Y-38228571D01*
X25752380Y-38133333D01*
X25847619Y-38085714D01*
X26038095Y-38085714D01*
X26133333Y-38133333D01*
X25704761Y-38704761D02*
X25800000Y-38752380D01*
X26038095Y-38752380D01*
X26133333Y-38704761D01*
X26180952Y-38609523D01*
X26180952Y-38514285D01*
X26133333Y-38419047D01*
X26038095Y-38371428D01*
X25800000Y-38371428D01*
X25704761Y-38323809D01*
X25228571Y-38085714D02*
X25228571Y-38752380D01*
X25228571Y-38180952D02*
X25180952Y-38133333D01*
X25085714Y-38085714D01*
X24942857Y-38085714D01*
X24847619Y-38133333D01*
X24800000Y-38228571D01*
X24800000Y-38752380D01*
X22990476Y-38657142D02*
X23038095Y-38704761D01*
X23180952Y-38752380D01*
X23276190Y-38752380D01*
X23419047Y-38704761D01*
X23514285Y-38609523D01*
X23561904Y-38514285D01*
X23609523Y-38323809D01*
X23609523Y-38180952D01*
X23561904Y-37990476D01*
X23514285Y-37895238D01*
X23419047Y-37800000D01*
X23276190Y-37752380D01*
X23180952Y-37752380D01*
X23038095Y-37800000D01*
X22990476Y-37847619D01*
X22419047Y-38752380D02*
X22514285Y-38704761D01*
X22561904Y-38657142D01*
X22609523Y-38561904D01*
X22609523Y-38276190D01*
X22561904Y-38180952D01*
X22514285Y-38133333D01*
X22419047Y-38085714D01*
X22276190Y-38085714D01*
X22180952Y-38133333D01*
X22133333Y-38180952D01*
X22085714Y-38276190D01*
X22085714Y-38561904D01*
X22133333Y-38657142D01*
X22180952Y-38704761D01*
X22276190Y-38752380D01*
X22419047Y-38752380D01*
X21657142Y-38085714D02*
X21657142Y-38752380D01*
X21657142Y-38180952D02*
X21609523Y-38133333D01*
X21514285Y-38085714D01*
X21371428Y-38085714D01*
X21276190Y-38133333D01*
X21228571Y-38228571D01*
X21228571Y-38752380D01*
X20895238Y-38085714D02*
X20514285Y-38085714D01*
X20752380Y-37752380D02*
X20752380Y-38609523D01*
X20704761Y-38704761D01*
X20609523Y-38752380D01*
X20514285Y-38752380D01*
X20180952Y-38752380D02*
X20180952Y-38085714D01*
X20180952Y-38276190D02*
X20133333Y-38180952D01*
X20085714Y-38133333D01*
X19990476Y-38085714D01*
X19895238Y-38085714D01*
X19419047Y-38752380D02*
X19514285Y-38704761D01*
X19561904Y-38657142D01*
X19609523Y-38561904D01*
X19609523Y-38276190D01*
X19561904Y-38180952D01*
X19514285Y-38133333D01*
X19419047Y-38085714D01*
X19276190Y-38085714D01*
X19180952Y-38133333D01*
X19133333Y-38180952D01*
X19085714Y-38276190D01*
X19085714Y-38561904D01*
X19133333Y-38657142D01*
X19180952Y-38704761D01*
X19276190Y-38752380D01*
X19419047Y-38752380D01*
X18514285Y-38752380D02*
X18609523Y-38704761D01*
X18657142Y-38609523D01*
X18657142Y-37752380D01*
G04 #@! TO.C,TP3*
X12057142Y-18800000D02*
X12152380Y-18752380D01*
X12295238Y-18752380D01*
X12438095Y-18800000D01*
X12533333Y-18895238D01*
X12580952Y-18990476D01*
X12628571Y-19180952D01*
X12628571Y-19323809D01*
X12580952Y-19514285D01*
X12533333Y-19609523D01*
X12438095Y-19704761D01*
X12295238Y-19752380D01*
X12200000Y-19752380D01*
X12057142Y-19704761D01*
X12009523Y-19657142D01*
X12009523Y-19323809D01*
X12200000Y-19323809D01*
X11580952Y-19752380D02*
X11580952Y-19085714D01*
X11580952Y-19276190D02*
X11533333Y-19180952D01*
X11485714Y-19133333D01*
X11390476Y-19085714D01*
X11295238Y-19085714D01*
X10819047Y-19752380D02*
X10914285Y-19704761D01*
X10961904Y-19657142D01*
X11009523Y-19561904D01*
X11009523Y-19276190D01*
X10961904Y-19180952D01*
X10914285Y-19133333D01*
X10819047Y-19085714D01*
X10676190Y-19085714D01*
X10580952Y-19133333D01*
X10533333Y-19180952D01*
X10485714Y-19276190D01*
X10485714Y-19561904D01*
X10533333Y-19657142D01*
X10580952Y-19704761D01*
X10676190Y-19752380D01*
X10819047Y-19752380D01*
X9628571Y-19085714D02*
X9628571Y-19752380D01*
X10057142Y-19085714D02*
X10057142Y-19609523D01*
X10009523Y-19704761D01*
X9914285Y-19752380D01*
X9771428Y-19752380D01*
X9676190Y-19704761D01*
X9628571Y-19657142D01*
X9152380Y-19085714D02*
X9152380Y-19752380D01*
X9152380Y-19180952D02*
X9104761Y-19133333D01*
X9009523Y-19085714D01*
X8866666Y-19085714D01*
X8771428Y-19133333D01*
X8723809Y-19228571D01*
X8723809Y-19752380D01*
X7819047Y-19752380D02*
X7819047Y-18752380D01*
X7819047Y-19704761D02*
X7914285Y-19752380D01*
X8104761Y-19752380D01*
X8200000Y-19704761D01*
X8247619Y-19657142D01*
X8295238Y-19561904D01*
X8295238Y-19276190D01*
X8247619Y-19180952D01*
X8200000Y-19133333D01*
X8104761Y-19085714D01*
X7914285Y-19085714D01*
X7819047Y-19133333D01*
G04 #@! TO.C,TP4*
X39257142Y-25728571D02*
X39590476Y-25728571D01*
X39590476Y-26252380D02*
X39590476Y-25252380D01*
X39114285Y-25252380D01*
X38304761Y-26252380D02*
X38304761Y-25728571D01*
X38352380Y-25633333D01*
X38447619Y-25585714D01*
X38638095Y-25585714D01*
X38733333Y-25633333D01*
X38304761Y-26204761D02*
X38400000Y-26252380D01*
X38638095Y-26252380D01*
X38733333Y-26204761D01*
X38780952Y-26109523D01*
X38780952Y-26014285D01*
X38733333Y-25919047D01*
X38638095Y-25871428D01*
X38400000Y-25871428D01*
X38304761Y-25823809D01*
X37828571Y-25585714D02*
X37828571Y-26252380D01*
X37828571Y-25680952D02*
X37780952Y-25633333D01*
X37685714Y-25585714D01*
X37542857Y-25585714D01*
X37447619Y-25633333D01*
X37400000Y-25728571D01*
X37400000Y-26252380D01*
X36161904Y-26252380D02*
X36161904Y-25252380D01*
X35780952Y-25252380D01*
X35685714Y-25300000D01*
X35638095Y-25347619D01*
X35590476Y-25442857D01*
X35590476Y-25585714D01*
X35638095Y-25680952D01*
X35685714Y-25728571D01*
X35780952Y-25776190D01*
X36161904Y-25776190D01*
X35019047Y-26252380D02*
X35114285Y-26204761D01*
X35161904Y-26157142D01*
X35209523Y-26061904D01*
X35209523Y-25776190D01*
X35161904Y-25680952D01*
X35114285Y-25633333D01*
X35019047Y-25585714D01*
X34876190Y-25585714D01*
X34780952Y-25633333D01*
X34733333Y-25680952D01*
X34685714Y-25776190D01*
X34685714Y-26061904D01*
X34733333Y-26157142D01*
X34780952Y-26204761D01*
X34876190Y-26252380D01*
X35019047Y-26252380D01*
X34352380Y-25585714D02*
X34161904Y-26252380D01*
X33971428Y-25776190D01*
X33780952Y-26252380D01*
X33590476Y-25585714D01*
X32828571Y-26204761D02*
X32923809Y-26252380D01*
X33114285Y-26252380D01*
X33209523Y-26204761D01*
X33257142Y-26109523D01*
X33257142Y-25728571D01*
X33209523Y-25633333D01*
X33114285Y-25585714D01*
X32923809Y-25585714D01*
X32828571Y-25633333D01*
X32780952Y-25728571D01*
X32780952Y-25823809D01*
X33257142Y-25919047D01*
X32352380Y-26252380D02*
X32352380Y-25585714D01*
X32352380Y-25776190D02*
X32304761Y-25680952D01*
X32257142Y-25633333D01*
X32161904Y-25585714D01*
X32066666Y-25585714D01*
G04 #@! TO.C,TP5*
X36457142Y-18800000D02*
X36552380Y-18752380D01*
X36695238Y-18752380D01*
X36838095Y-18800000D01*
X36933333Y-18895238D01*
X36980952Y-18990476D01*
X37028571Y-19180952D01*
X37028571Y-19323809D01*
X36980952Y-19514285D01*
X36933333Y-19609523D01*
X36838095Y-19704761D01*
X36695238Y-19752380D01*
X36600000Y-19752380D01*
X36457142Y-19704761D01*
X36409523Y-19657142D01*
X36409523Y-19323809D01*
X36600000Y-19323809D01*
X35980952Y-19752380D02*
X35980952Y-19085714D01*
X35980952Y-19276190D02*
X35933333Y-19180952D01*
X35885714Y-19133333D01*
X35790476Y-19085714D01*
X35695238Y-19085714D01*
X35219047Y-19752380D02*
X35314285Y-19704761D01*
X35361904Y-19657142D01*
X35409523Y-19561904D01*
X35409523Y-19276190D01*
X35361904Y-19180952D01*
X35314285Y-19133333D01*
X35219047Y-19085714D01*
X35076190Y-19085714D01*
X34980952Y-19133333D01*
X34933333Y-19180952D01*
X34885714Y-19276190D01*
X34885714Y-19561904D01*
X34933333Y-19657142D01*
X34980952Y-19704761D01*
X35076190Y-19752380D01*
X35219047Y-19752380D01*
X34028571Y-19085714D02*
X34028571Y-19752380D01*
X34457142Y-19085714D02*
X34457142Y-19609523D01*
X34409523Y-19704761D01*
X34314285Y-19752380D01*
X34171428Y-19752380D01*
X34076190Y-19704761D01*
X34028571Y-19657142D01*
X33552380Y-19085714D02*
X33552380Y-19752380D01*
X33552380Y-19180952D02*
X33504761Y-19133333D01*
X33409523Y-19085714D01*
X33266666Y-19085714D01*
X33171428Y-19133333D01*
X33123809Y-19228571D01*
X33123809Y-19752380D01*
X32219047Y-19752380D02*
X32219047Y-18752380D01*
X32219047Y-19704761D02*
X32314285Y-19752380D01*
X32504761Y-19752380D01*
X32600000Y-19704761D01*
X32647619Y-19657142D01*
X32695238Y-19561904D01*
X32695238Y-19276190D01*
X32647619Y-19180952D01*
X32600000Y-19133333D01*
X32504761Y-19085714D01*
X32314285Y-19085714D01*
X32219047Y-19133333D01*
G04 #@! TD*
M02*
