G04 #@! TF.GenerationSoftware,KiCad,Pcbnew,5.0.2-bee76a0~70~ubuntu16.04.1*
G04 #@! TF.CreationDate,2019-09-01T12:37:42-07:00*
G04 #@! TF.ProjectId,endcap,656e6463-6170-42e6-9b69-6361645f7063,rev?*
G04 #@! TF.SameCoordinates,PX2faf080PY2faf080*
G04 #@! TF.FileFunction,Soldermask,Top*
G04 #@! TF.FilePolarity,Negative*
%FSLAX46Y46*%
G04 Gerber Fmt 4.6, Leading zero omitted, Abs format (unit mm)*
G04 Created by KiCad (PCBNEW 5.0.2-bee76a0~70~ubuntu16.04.1) date Sun 01 Sep 2019 12:37:42 PM PDT*
%MOMM*%
%LPD*%
G01*
G04 APERTURE LIST*
%ADD10C,0.100000*%
G04 APERTURE END LIST*
D10*
G36*
X102487921Y-33547056D02*
X102729515Y-33595112D01*
X103184668Y-33783643D01*
X103588841Y-34053703D01*
X103594297Y-34057349D01*
X103942651Y-34405703D01*
X104216358Y-34815334D01*
X104404888Y-35270486D01*
X104501000Y-35753672D01*
X104501000Y-36246328D01*
X104404888Y-36729514D01*
X104216358Y-37184666D01*
X103942651Y-37594297D01*
X103594297Y-37942651D01*
X103594294Y-37942653D01*
X103184668Y-38216357D01*
X102729515Y-38404888D01*
X102487921Y-38452944D01*
X102246328Y-38501000D01*
X101753672Y-38501000D01*
X101512079Y-38452944D01*
X101270485Y-38404888D01*
X100815332Y-38216357D01*
X100405706Y-37942653D01*
X100405703Y-37942651D01*
X100057349Y-37594297D01*
X99783642Y-37184666D01*
X99595112Y-36729514D01*
X99499000Y-36246328D01*
X99499000Y-35753672D01*
X99595112Y-35270486D01*
X99783642Y-34815334D01*
X100057349Y-34405703D01*
X100405703Y-34057349D01*
X100411159Y-34053703D01*
X100815332Y-33783643D01*
X101270485Y-33595112D01*
X101512079Y-33547056D01*
X101753672Y-33499000D01*
X102246328Y-33499000D01*
X102487921Y-33547056D01*
X102487921Y-33547056D01*
G37*
G36*
X4487921Y-33547056D02*
X4729515Y-33595112D01*
X5184668Y-33783643D01*
X5588841Y-34053703D01*
X5594297Y-34057349D01*
X5942651Y-34405703D01*
X6216358Y-34815334D01*
X6404888Y-35270486D01*
X6501000Y-35753672D01*
X6501000Y-36246328D01*
X6404888Y-36729514D01*
X6216358Y-37184666D01*
X5942651Y-37594297D01*
X5594297Y-37942651D01*
X5594294Y-37942653D01*
X5184668Y-38216357D01*
X4729515Y-38404888D01*
X4487921Y-38452944D01*
X4246328Y-38501000D01*
X3753672Y-38501000D01*
X3512079Y-38452944D01*
X3270485Y-38404888D01*
X2815332Y-38216357D01*
X2405706Y-37942653D01*
X2405703Y-37942651D01*
X2057349Y-37594297D01*
X1783642Y-37184666D01*
X1595112Y-36729514D01*
X1499000Y-36246328D01*
X1499000Y-35753672D01*
X1595112Y-35270486D01*
X1783642Y-34815334D01*
X2057349Y-34405703D01*
X2405703Y-34057349D01*
X2411159Y-34053703D01*
X2815332Y-33783643D01*
X3270485Y-33595112D01*
X3512079Y-33547056D01*
X3753672Y-33499000D01*
X4246328Y-33499000D01*
X4487921Y-33547056D01*
X4487921Y-33547056D01*
G37*
G36*
X68532004Y-32360544D02*
X68619059Y-32377860D01*
X68755732Y-32434472D01*
X68755733Y-32434473D01*
X68878738Y-32516662D01*
X68983338Y-32621262D01*
X68983340Y-32621265D01*
X69065528Y-32744268D01*
X69122140Y-32880941D01*
X69151000Y-33026033D01*
X69151000Y-33173967D01*
X69122140Y-33319059D01*
X69065528Y-33455732D01*
X69065527Y-33455733D01*
X68983338Y-33578738D01*
X68878738Y-33683338D01*
X68878735Y-33683340D01*
X68755732Y-33765528D01*
X68619059Y-33822140D01*
X68532004Y-33839456D01*
X68473969Y-33851000D01*
X68326031Y-33851000D01*
X68267996Y-33839456D01*
X68180941Y-33822140D01*
X68044268Y-33765528D01*
X67921265Y-33683340D01*
X67921262Y-33683338D01*
X67816662Y-33578738D01*
X67734473Y-33455733D01*
X67734472Y-33455732D01*
X67677860Y-33319059D01*
X67649000Y-33173967D01*
X67649000Y-33026033D01*
X67677860Y-32880941D01*
X67734472Y-32744268D01*
X67816660Y-32621265D01*
X67816662Y-32621262D01*
X67921262Y-32516662D01*
X68044267Y-32434473D01*
X68044268Y-32434472D01*
X68180941Y-32377860D01*
X68267996Y-32360544D01*
X68326031Y-32349000D01*
X68473969Y-32349000D01*
X68532004Y-32360544D01*
X68532004Y-32360544D01*
G37*
G36*
X71032004Y-32360544D02*
X71119059Y-32377860D01*
X71255732Y-32434472D01*
X71255733Y-32434473D01*
X71378738Y-32516662D01*
X71483338Y-32621262D01*
X71483340Y-32621265D01*
X71565528Y-32744268D01*
X71622140Y-32880941D01*
X71651000Y-33026033D01*
X71651000Y-33173967D01*
X71622140Y-33319059D01*
X71565528Y-33455732D01*
X71565527Y-33455733D01*
X71483338Y-33578738D01*
X71378738Y-33683338D01*
X71378735Y-33683340D01*
X71255732Y-33765528D01*
X71119059Y-33822140D01*
X71032004Y-33839456D01*
X70973969Y-33851000D01*
X70826031Y-33851000D01*
X70767996Y-33839456D01*
X70680941Y-33822140D01*
X70544268Y-33765528D01*
X70421265Y-33683340D01*
X70421262Y-33683338D01*
X70316662Y-33578738D01*
X70234473Y-33455733D01*
X70234472Y-33455732D01*
X70177860Y-33319059D01*
X70149000Y-33173967D01*
X70149000Y-33026033D01*
X70177860Y-32880941D01*
X70234472Y-32744268D01*
X70316660Y-32621265D01*
X70316662Y-32621262D01*
X70421262Y-32516662D01*
X70544267Y-32434473D01*
X70544268Y-32434472D01*
X70680941Y-32377860D01*
X70767996Y-32360544D01*
X70826031Y-32349000D01*
X70973969Y-32349000D01*
X71032004Y-32360544D01*
X71032004Y-32360544D01*
G37*
G36*
X73532004Y-32360544D02*
X73619059Y-32377860D01*
X73755732Y-32434472D01*
X73755733Y-32434473D01*
X73878738Y-32516662D01*
X73983338Y-32621262D01*
X73983340Y-32621265D01*
X74065528Y-32744268D01*
X74122140Y-32880941D01*
X74151000Y-33026033D01*
X74151000Y-33173967D01*
X74122140Y-33319059D01*
X74065528Y-33455732D01*
X74065527Y-33455733D01*
X73983338Y-33578738D01*
X73878738Y-33683338D01*
X73878735Y-33683340D01*
X73755732Y-33765528D01*
X73619059Y-33822140D01*
X73532004Y-33839456D01*
X73473969Y-33851000D01*
X73326031Y-33851000D01*
X73267996Y-33839456D01*
X73180941Y-33822140D01*
X73044268Y-33765528D01*
X72921265Y-33683340D01*
X72921262Y-33683338D01*
X72816662Y-33578738D01*
X72734473Y-33455733D01*
X72734472Y-33455732D01*
X72677860Y-33319059D01*
X72649000Y-33173967D01*
X72649000Y-33026033D01*
X72677860Y-32880941D01*
X72734472Y-32744268D01*
X72816660Y-32621265D01*
X72816662Y-32621262D01*
X72921262Y-32516662D01*
X73044267Y-32434473D01*
X73044268Y-32434472D01*
X73180941Y-32377860D01*
X73267996Y-32360544D01*
X73326031Y-32349000D01*
X73473969Y-32349000D01*
X73532004Y-32360544D01*
X73532004Y-32360544D01*
G37*
G36*
X78532004Y-32360544D02*
X78619059Y-32377860D01*
X78755732Y-32434472D01*
X78755733Y-32434473D01*
X78878738Y-32516662D01*
X78983338Y-32621262D01*
X78983340Y-32621265D01*
X79065528Y-32744268D01*
X79122140Y-32880941D01*
X79151000Y-33026033D01*
X79151000Y-33173967D01*
X79122140Y-33319059D01*
X79065528Y-33455732D01*
X79065527Y-33455733D01*
X78983338Y-33578738D01*
X78878738Y-33683338D01*
X78878735Y-33683340D01*
X78755732Y-33765528D01*
X78619059Y-33822140D01*
X78532004Y-33839456D01*
X78473969Y-33851000D01*
X78326031Y-33851000D01*
X78267996Y-33839456D01*
X78180941Y-33822140D01*
X78044268Y-33765528D01*
X77921265Y-33683340D01*
X77921262Y-33683338D01*
X77816662Y-33578738D01*
X77734473Y-33455733D01*
X77734472Y-33455732D01*
X77677860Y-33319059D01*
X77649000Y-33173967D01*
X77649000Y-33026033D01*
X77677860Y-32880941D01*
X77734472Y-32744268D01*
X77816660Y-32621265D01*
X77816662Y-32621262D01*
X77921262Y-32516662D01*
X78044267Y-32434473D01*
X78044268Y-32434472D01*
X78180941Y-32377860D01*
X78267996Y-32360544D01*
X78326031Y-32349000D01*
X78473969Y-32349000D01*
X78532004Y-32360544D01*
X78532004Y-32360544D01*
G37*
G36*
X81032004Y-32360544D02*
X81119059Y-32377860D01*
X81255732Y-32434472D01*
X81255733Y-32434473D01*
X81378738Y-32516662D01*
X81483338Y-32621262D01*
X81483340Y-32621265D01*
X81565528Y-32744268D01*
X81622140Y-32880941D01*
X81651000Y-33026033D01*
X81651000Y-33173967D01*
X81622140Y-33319059D01*
X81565528Y-33455732D01*
X81565527Y-33455733D01*
X81483338Y-33578738D01*
X81378738Y-33683338D01*
X81378735Y-33683340D01*
X81255732Y-33765528D01*
X81119059Y-33822140D01*
X81032004Y-33839456D01*
X80973969Y-33851000D01*
X80826031Y-33851000D01*
X80767996Y-33839456D01*
X80680941Y-33822140D01*
X80544268Y-33765528D01*
X80421265Y-33683340D01*
X80421262Y-33683338D01*
X80316662Y-33578738D01*
X80234473Y-33455733D01*
X80234472Y-33455732D01*
X80177860Y-33319059D01*
X80149000Y-33173967D01*
X80149000Y-33026033D01*
X80177860Y-32880941D01*
X80234472Y-32744268D01*
X80316660Y-32621265D01*
X80316662Y-32621262D01*
X80421262Y-32516662D01*
X80544267Y-32434473D01*
X80544268Y-32434472D01*
X80680941Y-32377860D01*
X80767996Y-32360544D01*
X80826031Y-32349000D01*
X80973969Y-32349000D01*
X81032004Y-32360544D01*
X81032004Y-32360544D01*
G37*
G36*
X83532004Y-32360544D02*
X83619059Y-32377860D01*
X83755732Y-32434472D01*
X83755733Y-32434473D01*
X83878738Y-32516662D01*
X83983338Y-32621262D01*
X83983340Y-32621265D01*
X84065528Y-32744268D01*
X84122140Y-32880941D01*
X84151000Y-33026033D01*
X84151000Y-33173967D01*
X84122140Y-33319059D01*
X84065528Y-33455732D01*
X84065527Y-33455733D01*
X83983338Y-33578738D01*
X83878738Y-33683338D01*
X83878735Y-33683340D01*
X83755732Y-33765528D01*
X83619059Y-33822140D01*
X83532004Y-33839456D01*
X83473969Y-33851000D01*
X83326031Y-33851000D01*
X83267996Y-33839456D01*
X83180941Y-33822140D01*
X83044268Y-33765528D01*
X82921265Y-33683340D01*
X82921262Y-33683338D01*
X82816662Y-33578738D01*
X82734473Y-33455733D01*
X82734472Y-33455732D01*
X82677860Y-33319059D01*
X82649000Y-33173967D01*
X82649000Y-33026033D01*
X82677860Y-32880941D01*
X82734472Y-32744268D01*
X82816660Y-32621265D01*
X82816662Y-32621262D01*
X82921262Y-32516662D01*
X83044267Y-32434473D01*
X83044268Y-32434472D01*
X83180941Y-32377860D01*
X83267996Y-32360544D01*
X83326031Y-32349000D01*
X83473969Y-32349000D01*
X83532004Y-32360544D01*
X83532004Y-32360544D01*
G37*
G36*
X88532004Y-32360544D02*
X88619059Y-32377860D01*
X88755732Y-32434472D01*
X88755733Y-32434473D01*
X88878738Y-32516662D01*
X88983338Y-32621262D01*
X88983340Y-32621265D01*
X89065528Y-32744268D01*
X89122140Y-32880941D01*
X89151000Y-33026033D01*
X89151000Y-33173967D01*
X89122140Y-33319059D01*
X89065528Y-33455732D01*
X89065527Y-33455733D01*
X88983338Y-33578738D01*
X88878738Y-33683338D01*
X88878735Y-33683340D01*
X88755732Y-33765528D01*
X88619059Y-33822140D01*
X88532004Y-33839456D01*
X88473969Y-33851000D01*
X88326031Y-33851000D01*
X88267996Y-33839456D01*
X88180941Y-33822140D01*
X88044268Y-33765528D01*
X87921265Y-33683340D01*
X87921262Y-33683338D01*
X87816662Y-33578738D01*
X87734473Y-33455733D01*
X87734472Y-33455732D01*
X87677860Y-33319059D01*
X87649000Y-33173967D01*
X87649000Y-33026033D01*
X87677860Y-32880941D01*
X87734472Y-32744268D01*
X87816660Y-32621265D01*
X87816662Y-32621262D01*
X87921262Y-32516662D01*
X88044267Y-32434473D01*
X88044268Y-32434472D01*
X88180941Y-32377860D01*
X88267996Y-32360544D01*
X88326031Y-32349000D01*
X88473969Y-32349000D01*
X88532004Y-32360544D01*
X88532004Y-32360544D01*
G37*
G36*
X91032004Y-32360544D02*
X91119059Y-32377860D01*
X91255732Y-32434472D01*
X91255733Y-32434473D01*
X91378738Y-32516662D01*
X91483338Y-32621262D01*
X91483340Y-32621265D01*
X91565528Y-32744268D01*
X91622140Y-32880941D01*
X91651000Y-33026033D01*
X91651000Y-33173967D01*
X91622140Y-33319059D01*
X91565528Y-33455732D01*
X91565527Y-33455733D01*
X91483338Y-33578738D01*
X91378738Y-33683338D01*
X91378735Y-33683340D01*
X91255732Y-33765528D01*
X91119059Y-33822140D01*
X91032004Y-33839456D01*
X90973969Y-33851000D01*
X90826031Y-33851000D01*
X90767996Y-33839456D01*
X90680941Y-33822140D01*
X90544268Y-33765528D01*
X90421265Y-33683340D01*
X90421262Y-33683338D01*
X90316662Y-33578738D01*
X90234473Y-33455733D01*
X90234472Y-33455732D01*
X90177860Y-33319059D01*
X90149000Y-33173967D01*
X90149000Y-33026033D01*
X90177860Y-32880941D01*
X90234472Y-32744268D01*
X90316660Y-32621265D01*
X90316662Y-32621262D01*
X90421262Y-32516662D01*
X90544267Y-32434473D01*
X90544268Y-32434472D01*
X90680941Y-32377860D01*
X90767996Y-32360544D01*
X90826031Y-32349000D01*
X90973969Y-32349000D01*
X91032004Y-32360544D01*
X91032004Y-32360544D01*
G37*
G36*
X93532004Y-32360544D02*
X93619059Y-32377860D01*
X93755732Y-32434472D01*
X93755733Y-32434473D01*
X93878738Y-32516662D01*
X93983338Y-32621262D01*
X93983340Y-32621265D01*
X94065528Y-32744268D01*
X94122140Y-32880941D01*
X94151000Y-33026033D01*
X94151000Y-33173967D01*
X94122140Y-33319059D01*
X94065528Y-33455732D01*
X94065527Y-33455733D01*
X93983338Y-33578738D01*
X93878738Y-33683338D01*
X93878735Y-33683340D01*
X93755732Y-33765528D01*
X93619059Y-33822140D01*
X93532004Y-33839456D01*
X93473969Y-33851000D01*
X93326031Y-33851000D01*
X93267996Y-33839456D01*
X93180941Y-33822140D01*
X93044268Y-33765528D01*
X92921265Y-33683340D01*
X92921262Y-33683338D01*
X92816662Y-33578738D01*
X92734473Y-33455733D01*
X92734472Y-33455732D01*
X92677860Y-33319059D01*
X92649000Y-33173967D01*
X92649000Y-33026033D01*
X92677860Y-32880941D01*
X92734472Y-32744268D01*
X92816660Y-32621265D01*
X92816662Y-32621262D01*
X92921262Y-32516662D01*
X93044267Y-32434473D01*
X93044268Y-32434472D01*
X93180941Y-32377860D01*
X93267996Y-32360544D01*
X93326031Y-32349000D01*
X93473969Y-32349000D01*
X93532004Y-32360544D01*
X93532004Y-32360544D01*
G37*
G36*
X68532004Y-29860544D02*
X68619059Y-29877860D01*
X68755732Y-29934472D01*
X68755733Y-29934473D01*
X68878738Y-30016662D01*
X68983338Y-30121262D01*
X68983340Y-30121265D01*
X69065528Y-30244268D01*
X69122140Y-30380941D01*
X69151000Y-30526033D01*
X69151000Y-30673967D01*
X69122140Y-30819059D01*
X69065528Y-30955732D01*
X69065527Y-30955733D01*
X68983338Y-31078738D01*
X68878738Y-31183338D01*
X68878735Y-31183340D01*
X68755732Y-31265528D01*
X68619059Y-31322140D01*
X68532004Y-31339456D01*
X68473969Y-31351000D01*
X68326031Y-31351000D01*
X68267996Y-31339456D01*
X68180941Y-31322140D01*
X68044268Y-31265528D01*
X67921265Y-31183340D01*
X67921262Y-31183338D01*
X67816662Y-31078738D01*
X67734473Y-30955733D01*
X67734472Y-30955732D01*
X67677860Y-30819059D01*
X67649000Y-30673967D01*
X67649000Y-30526033D01*
X67677860Y-30380941D01*
X67734472Y-30244268D01*
X67816660Y-30121265D01*
X67816662Y-30121262D01*
X67921262Y-30016662D01*
X68044267Y-29934473D01*
X68044268Y-29934472D01*
X68180941Y-29877860D01*
X68267996Y-29860544D01*
X68326031Y-29849000D01*
X68473969Y-29849000D01*
X68532004Y-29860544D01*
X68532004Y-29860544D01*
G37*
G36*
X73532004Y-29860544D02*
X73619059Y-29877860D01*
X73755732Y-29934472D01*
X73755733Y-29934473D01*
X73878738Y-30016662D01*
X73983338Y-30121262D01*
X73983340Y-30121265D01*
X74065528Y-30244268D01*
X74122140Y-30380941D01*
X74151000Y-30526033D01*
X74151000Y-30673967D01*
X74122140Y-30819059D01*
X74065528Y-30955732D01*
X74065527Y-30955733D01*
X73983338Y-31078738D01*
X73878738Y-31183338D01*
X73878735Y-31183340D01*
X73755732Y-31265528D01*
X73619059Y-31322140D01*
X73532004Y-31339456D01*
X73473969Y-31351000D01*
X73326031Y-31351000D01*
X73267996Y-31339456D01*
X73180941Y-31322140D01*
X73044268Y-31265528D01*
X72921265Y-31183340D01*
X72921262Y-31183338D01*
X72816662Y-31078738D01*
X72734473Y-30955733D01*
X72734472Y-30955732D01*
X72677860Y-30819059D01*
X72649000Y-30673967D01*
X72649000Y-30526033D01*
X72677860Y-30380941D01*
X72734472Y-30244268D01*
X72816660Y-30121265D01*
X72816662Y-30121262D01*
X72921262Y-30016662D01*
X73044267Y-29934473D01*
X73044268Y-29934472D01*
X73180941Y-29877860D01*
X73267996Y-29860544D01*
X73326031Y-29849000D01*
X73473969Y-29849000D01*
X73532004Y-29860544D01*
X73532004Y-29860544D01*
G37*
G36*
X71032004Y-29860544D02*
X71119059Y-29877860D01*
X71255732Y-29934472D01*
X71255733Y-29934473D01*
X71378738Y-30016662D01*
X71483338Y-30121262D01*
X71483340Y-30121265D01*
X71565528Y-30244268D01*
X71622140Y-30380941D01*
X71651000Y-30526033D01*
X71651000Y-30673967D01*
X71622140Y-30819059D01*
X71565528Y-30955732D01*
X71565527Y-30955733D01*
X71483338Y-31078738D01*
X71378738Y-31183338D01*
X71378735Y-31183340D01*
X71255732Y-31265528D01*
X71119059Y-31322140D01*
X71032004Y-31339456D01*
X70973969Y-31351000D01*
X70826031Y-31351000D01*
X70767996Y-31339456D01*
X70680941Y-31322140D01*
X70544268Y-31265528D01*
X70421265Y-31183340D01*
X70421262Y-31183338D01*
X70316662Y-31078738D01*
X70234473Y-30955733D01*
X70234472Y-30955732D01*
X70177860Y-30819059D01*
X70149000Y-30673967D01*
X70149000Y-30526033D01*
X70177860Y-30380941D01*
X70234472Y-30244268D01*
X70316660Y-30121265D01*
X70316662Y-30121262D01*
X70421262Y-30016662D01*
X70544267Y-29934473D01*
X70544268Y-29934472D01*
X70680941Y-29877860D01*
X70767996Y-29860544D01*
X70826031Y-29849000D01*
X70973969Y-29849000D01*
X71032004Y-29860544D01*
X71032004Y-29860544D01*
G37*
G36*
X81032004Y-29860544D02*
X81119059Y-29877860D01*
X81255732Y-29934472D01*
X81255733Y-29934473D01*
X81378738Y-30016662D01*
X81483338Y-30121262D01*
X81483340Y-30121265D01*
X81565528Y-30244268D01*
X81622140Y-30380941D01*
X81651000Y-30526033D01*
X81651000Y-30673967D01*
X81622140Y-30819059D01*
X81565528Y-30955732D01*
X81565527Y-30955733D01*
X81483338Y-31078738D01*
X81378738Y-31183338D01*
X81378735Y-31183340D01*
X81255732Y-31265528D01*
X81119059Y-31322140D01*
X81032004Y-31339456D01*
X80973969Y-31351000D01*
X80826031Y-31351000D01*
X80767996Y-31339456D01*
X80680941Y-31322140D01*
X80544268Y-31265528D01*
X80421265Y-31183340D01*
X80421262Y-31183338D01*
X80316662Y-31078738D01*
X80234473Y-30955733D01*
X80234472Y-30955732D01*
X80177860Y-30819059D01*
X80149000Y-30673967D01*
X80149000Y-30526033D01*
X80177860Y-30380941D01*
X80234472Y-30244268D01*
X80316660Y-30121265D01*
X80316662Y-30121262D01*
X80421262Y-30016662D01*
X80544267Y-29934473D01*
X80544268Y-29934472D01*
X80680941Y-29877860D01*
X80767996Y-29860544D01*
X80826031Y-29849000D01*
X80973969Y-29849000D01*
X81032004Y-29860544D01*
X81032004Y-29860544D01*
G37*
G36*
X88532004Y-29860544D02*
X88619059Y-29877860D01*
X88755732Y-29934472D01*
X88755733Y-29934473D01*
X88878738Y-30016662D01*
X88983338Y-30121262D01*
X88983340Y-30121265D01*
X89065528Y-30244268D01*
X89122140Y-30380941D01*
X89151000Y-30526033D01*
X89151000Y-30673967D01*
X89122140Y-30819059D01*
X89065528Y-30955732D01*
X89065527Y-30955733D01*
X88983338Y-31078738D01*
X88878738Y-31183338D01*
X88878735Y-31183340D01*
X88755732Y-31265528D01*
X88619059Y-31322140D01*
X88532004Y-31339456D01*
X88473969Y-31351000D01*
X88326031Y-31351000D01*
X88267996Y-31339456D01*
X88180941Y-31322140D01*
X88044268Y-31265528D01*
X87921265Y-31183340D01*
X87921262Y-31183338D01*
X87816662Y-31078738D01*
X87734473Y-30955733D01*
X87734472Y-30955732D01*
X87677860Y-30819059D01*
X87649000Y-30673967D01*
X87649000Y-30526033D01*
X87677860Y-30380941D01*
X87734472Y-30244268D01*
X87816660Y-30121265D01*
X87816662Y-30121262D01*
X87921262Y-30016662D01*
X88044267Y-29934473D01*
X88044268Y-29934472D01*
X88180941Y-29877860D01*
X88267996Y-29860544D01*
X88326031Y-29849000D01*
X88473969Y-29849000D01*
X88532004Y-29860544D01*
X88532004Y-29860544D01*
G37*
G36*
X93532004Y-29860544D02*
X93619059Y-29877860D01*
X93755732Y-29934472D01*
X93755733Y-29934473D01*
X93878738Y-30016662D01*
X93983338Y-30121262D01*
X93983340Y-30121265D01*
X94065528Y-30244268D01*
X94122140Y-30380941D01*
X94151000Y-30526033D01*
X94151000Y-30673967D01*
X94122140Y-30819059D01*
X94065528Y-30955732D01*
X94065527Y-30955733D01*
X93983338Y-31078738D01*
X93878738Y-31183338D01*
X93878735Y-31183340D01*
X93755732Y-31265528D01*
X93619059Y-31322140D01*
X93532004Y-31339456D01*
X93473969Y-31351000D01*
X93326031Y-31351000D01*
X93267996Y-31339456D01*
X93180941Y-31322140D01*
X93044268Y-31265528D01*
X92921265Y-31183340D01*
X92921262Y-31183338D01*
X92816662Y-31078738D01*
X92734473Y-30955733D01*
X92734472Y-30955732D01*
X92677860Y-30819059D01*
X92649000Y-30673967D01*
X92649000Y-30526033D01*
X92677860Y-30380941D01*
X92734472Y-30244268D01*
X92816660Y-30121265D01*
X92816662Y-30121262D01*
X92921262Y-30016662D01*
X93044267Y-29934473D01*
X93044268Y-29934472D01*
X93180941Y-29877860D01*
X93267996Y-29860544D01*
X93326031Y-29849000D01*
X93473969Y-29849000D01*
X93532004Y-29860544D01*
X93532004Y-29860544D01*
G37*
G36*
X83532004Y-29860544D02*
X83619059Y-29877860D01*
X83755732Y-29934472D01*
X83755733Y-29934473D01*
X83878738Y-30016662D01*
X83983338Y-30121262D01*
X83983340Y-30121265D01*
X84065528Y-30244268D01*
X84122140Y-30380941D01*
X84151000Y-30526033D01*
X84151000Y-30673967D01*
X84122140Y-30819059D01*
X84065528Y-30955732D01*
X84065527Y-30955733D01*
X83983338Y-31078738D01*
X83878738Y-31183338D01*
X83878735Y-31183340D01*
X83755732Y-31265528D01*
X83619059Y-31322140D01*
X83532004Y-31339456D01*
X83473969Y-31351000D01*
X83326031Y-31351000D01*
X83267996Y-31339456D01*
X83180941Y-31322140D01*
X83044268Y-31265528D01*
X82921265Y-31183340D01*
X82921262Y-31183338D01*
X82816662Y-31078738D01*
X82734473Y-30955733D01*
X82734472Y-30955732D01*
X82677860Y-30819059D01*
X82649000Y-30673967D01*
X82649000Y-30526033D01*
X82677860Y-30380941D01*
X82734472Y-30244268D01*
X82816660Y-30121265D01*
X82816662Y-30121262D01*
X82921262Y-30016662D01*
X83044267Y-29934473D01*
X83044268Y-29934472D01*
X83180941Y-29877860D01*
X83267996Y-29860544D01*
X83326031Y-29849000D01*
X83473969Y-29849000D01*
X83532004Y-29860544D01*
X83532004Y-29860544D01*
G37*
G36*
X91032004Y-29860544D02*
X91119059Y-29877860D01*
X91255732Y-29934472D01*
X91255733Y-29934473D01*
X91378738Y-30016662D01*
X91483338Y-30121262D01*
X91483340Y-30121265D01*
X91565528Y-30244268D01*
X91622140Y-30380941D01*
X91651000Y-30526033D01*
X91651000Y-30673967D01*
X91622140Y-30819059D01*
X91565528Y-30955732D01*
X91565527Y-30955733D01*
X91483338Y-31078738D01*
X91378738Y-31183338D01*
X91378735Y-31183340D01*
X91255732Y-31265528D01*
X91119059Y-31322140D01*
X91032004Y-31339456D01*
X90973969Y-31351000D01*
X90826031Y-31351000D01*
X90767996Y-31339456D01*
X90680941Y-31322140D01*
X90544268Y-31265528D01*
X90421265Y-31183340D01*
X90421262Y-31183338D01*
X90316662Y-31078738D01*
X90234473Y-30955733D01*
X90234472Y-30955732D01*
X90177860Y-30819059D01*
X90149000Y-30673967D01*
X90149000Y-30526033D01*
X90177860Y-30380941D01*
X90234472Y-30244268D01*
X90316660Y-30121265D01*
X90316662Y-30121262D01*
X90421262Y-30016662D01*
X90544267Y-29934473D01*
X90544268Y-29934472D01*
X90680941Y-29877860D01*
X90767996Y-29860544D01*
X90826031Y-29849000D01*
X90973969Y-29849000D01*
X91032004Y-29860544D01*
X91032004Y-29860544D01*
G37*
G36*
X78532004Y-29860544D02*
X78619059Y-29877860D01*
X78755732Y-29934472D01*
X78755733Y-29934473D01*
X78878738Y-30016662D01*
X78983338Y-30121262D01*
X78983340Y-30121265D01*
X79065528Y-30244268D01*
X79122140Y-30380941D01*
X79151000Y-30526033D01*
X79151000Y-30673967D01*
X79122140Y-30819059D01*
X79065528Y-30955732D01*
X79065527Y-30955733D01*
X78983338Y-31078738D01*
X78878738Y-31183338D01*
X78878735Y-31183340D01*
X78755732Y-31265528D01*
X78619059Y-31322140D01*
X78532004Y-31339456D01*
X78473969Y-31351000D01*
X78326031Y-31351000D01*
X78267996Y-31339456D01*
X78180941Y-31322140D01*
X78044268Y-31265528D01*
X77921265Y-31183340D01*
X77921262Y-31183338D01*
X77816662Y-31078738D01*
X77734473Y-30955733D01*
X77734472Y-30955732D01*
X77677860Y-30819059D01*
X77649000Y-30673967D01*
X77649000Y-30526033D01*
X77677860Y-30380941D01*
X77734472Y-30244268D01*
X77816660Y-30121265D01*
X77816662Y-30121262D01*
X77921262Y-30016662D01*
X78044267Y-29934473D01*
X78044268Y-29934472D01*
X78180941Y-29877860D01*
X78267996Y-29860544D01*
X78326031Y-29849000D01*
X78473969Y-29849000D01*
X78532004Y-29860544D01*
X78532004Y-29860544D01*
G37*
G36*
X91032004Y-27360544D02*
X91119059Y-27377860D01*
X91255732Y-27434472D01*
X91255733Y-27434473D01*
X91378738Y-27516662D01*
X91483338Y-27621262D01*
X91483340Y-27621265D01*
X91565528Y-27744268D01*
X91622140Y-27880941D01*
X91651000Y-28026033D01*
X91651000Y-28173967D01*
X91622140Y-28319059D01*
X91565528Y-28455732D01*
X91565527Y-28455733D01*
X91483338Y-28578738D01*
X91378738Y-28683338D01*
X91378735Y-28683340D01*
X91255732Y-28765528D01*
X91119059Y-28822140D01*
X91032004Y-28839456D01*
X90973969Y-28851000D01*
X90826031Y-28851000D01*
X90767996Y-28839456D01*
X90680941Y-28822140D01*
X90544268Y-28765528D01*
X90421265Y-28683340D01*
X90421262Y-28683338D01*
X90316662Y-28578738D01*
X90234473Y-28455733D01*
X90234472Y-28455732D01*
X90177860Y-28319059D01*
X90149000Y-28173967D01*
X90149000Y-28026033D01*
X90177860Y-27880941D01*
X90234472Y-27744268D01*
X90316660Y-27621265D01*
X90316662Y-27621262D01*
X90421262Y-27516662D01*
X90544267Y-27434473D01*
X90544268Y-27434472D01*
X90680941Y-27377860D01*
X90767996Y-27360544D01*
X90826031Y-27349000D01*
X90973969Y-27349000D01*
X91032004Y-27360544D01*
X91032004Y-27360544D01*
G37*
G36*
X68532004Y-27360544D02*
X68619059Y-27377860D01*
X68755732Y-27434472D01*
X68755733Y-27434473D01*
X68878738Y-27516662D01*
X68983338Y-27621262D01*
X68983340Y-27621265D01*
X69065528Y-27744268D01*
X69122140Y-27880941D01*
X69151000Y-28026033D01*
X69151000Y-28173967D01*
X69122140Y-28319059D01*
X69065528Y-28455732D01*
X69065527Y-28455733D01*
X68983338Y-28578738D01*
X68878738Y-28683338D01*
X68878735Y-28683340D01*
X68755732Y-28765528D01*
X68619059Y-28822140D01*
X68532004Y-28839456D01*
X68473969Y-28851000D01*
X68326031Y-28851000D01*
X68267996Y-28839456D01*
X68180941Y-28822140D01*
X68044268Y-28765528D01*
X67921265Y-28683340D01*
X67921262Y-28683338D01*
X67816662Y-28578738D01*
X67734473Y-28455733D01*
X67734472Y-28455732D01*
X67677860Y-28319059D01*
X67649000Y-28173967D01*
X67649000Y-28026033D01*
X67677860Y-27880941D01*
X67734472Y-27744268D01*
X67816660Y-27621265D01*
X67816662Y-27621262D01*
X67921262Y-27516662D01*
X68044267Y-27434473D01*
X68044268Y-27434472D01*
X68180941Y-27377860D01*
X68267996Y-27360544D01*
X68326031Y-27349000D01*
X68473969Y-27349000D01*
X68532004Y-27360544D01*
X68532004Y-27360544D01*
G37*
G36*
X71032004Y-27360544D02*
X71119059Y-27377860D01*
X71255732Y-27434472D01*
X71255733Y-27434473D01*
X71378738Y-27516662D01*
X71483338Y-27621262D01*
X71483340Y-27621265D01*
X71565528Y-27744268D01*
X71622140Y-27880941D01*
X71651000Y-28026033D01*
X71651000Y-28173967D01*
X71622140Y-28319059D01*
X71565528Y-28455732D01*
X71565527Y-28455733D01*
X71483338Y-28578738D01*
X71378738Y-28683338D01*
X71378735Y-28683340D01*
X71255732Y-28765528D01*
X71119059Y-28822140D01*
X71032004Y-28839456D01*
X70973969Y-28851000D01*
X70826031Y-28851000D01*
X70767996Y-28839456D01*
X70680941Y-28822140D01*
X70544268Y-28765528D01*
X70421265Y-28683340D01*
X70421262Y-28683338D01*
X70316662Y-28578738D01*
X70234473Y-28455733D01*
X70234472Y-28455732D01*
X70177860Y-28319059D01*
X70149000Y-28173967D01*
X70149000Y-28026033D01*
X70177860Y-27880941D01*
X70234472Y-27744268D01*
X70316660Y-27621265D01*
X70316662Y-27621262D01*
X70421262Y-27516662D01*
X70544267Y-27434473D01*
X70544268Y-27434472D01*
X70680941Y-27377860D01*
X70767996Y-27360544D01*
X70826031Y-27349000D01*
X70973969Y-27349000D01*
X71032004Y-27360544D01*
X71032004Y-27360544D01*
G37*
G36*
X73532004Y-27360544D02*
X73619059Y-27377860D01*
X73755732Y-27434472D01*
X73755733Y-27434473D01*
X73878738Y-27516662D01*
X73983338Y-27621262D01*
X73983340Y-27621265D01*
X74065528Y-27744268D01*
X74122140Y-27880941D01*
X74151000Y-28026033D01*
X74151000Y-28173967D01*
X74122140Y-28319059D01*
X74065528Y-28455732D01*
X74065527Y-28455733D01*
X73983338Y-28578738D01*
X73878738Y-28683338D01*
X73878735Y-28683340D01*
X73755732Y-28765528D01*
X73619059Y-28822140D01*
X73532004Y-28839456D01*
X73473969Y-28851000D01*
X73326031Y-28851000D01*
X73267996Y-28839456D01*
X73180941Y-28822140D01*
X73044268Y-28765528D01*
X72921265Y-28683340D01*
X72921262Y-28683338D01*
X72816662Y-28578738D01*
X72734473Y-28455733D01*
X72734472Y-28455732D01*
X72677860Y-28319059D01*
X72649000Y-28173967D01*
X72649000Y-28026033D01*
X72677860Y-27880941D01*
X72734472Y-27744268D01*
X72816660Y-27621265D01*
X72816662Y-27621262D01*
X72921262Y-27516662D01*
X73044267Y-27434473D01*
X73044268Y-27434472D01*
X73180941Y-27377860D01*
X73267996Y-27360544D01*
X73326031Y-27349000D01*
X73473969Y-27349000D01*
X73532004Y-27360544D01*
X73532004Y-27360544D01*
G37*
G36*
X93532004Y-27360544D02*
X93619059Y-27377860D01*
X93755732Y-27434472D01*
X93755733Y-27434473D01*
X93878738Y-27516662D01*
X93983338Y-27621262D01*
X93983340Y-27621265D01*
X94065528Y-27744268D01*
X94122140Y-27880941D01*
X94151000Y-28026033D01*
X94151000Y-28173967D01*
X94122140Y-28319059D01*
X94065528Y-28455732D01*
X94065527Y-28455733D01*
X93983338Y-28578738D01*
X93878738Y-28683338D01*
X93878735Y-28683340D01*
X93755732Y-28765528D01*
X93619059Y-28822140D01*
X93532004Y-28839456D01*
X93473969Y-28851000D01*
X93326031Y-28851000D01*
X93267996Y-28839456D01*
X93180941Y-28822140D01*
X93044268Y-28765528D01*
X92921265Y-28683340D01*
X92921262Y-28683338D01*
X92816662Y-28578738D01*
X92734473Y-28455733D01*
X92734472Y-28455732D01*
X92677860Y-28319059D01*
X92649000Y-28173967D01*
X92649000Y-28026033D01*
X92677860Y-27880941D01*
X92734472Y-27744268D01*
X92816660Y-27621265D01*
X92816662Y-27621262D01*
X92921262Y-27516662D01*
X93044267Y-27434473D01*
X93044268Y-27434472D01*
X93180941Y-27377860D01*
X93267996Y-27360544D01*
X93326031Y-27349000D01*
X93473969Y-27349000D01*
X93532004Y-27360544D01*
X93532004Y-27360544D01*
G37*
G36*
X88532004Y-27360544D02*
X88619059Y-27377860D01*
X88755732Y-27434472D01*
X88755733Y-27434473D01*
X88878738Y-27516662D01*
X88983338Y-27621262D01*
X88983340Y-27621265D01*
X89065528Y-27744268D01*
X89122140Y-27880941D01*
X89151000Y-28026033D01*
X89151000Y-28173967D01*
X89122140Y-28319059D01*
X89065528Y-28455732D01*
X89065527Y-28455733D01*
X88983338Y-28578738D01*
X88878738Y-28683338D01*
X88878735Y-28683340D01*
X88755732Y-28765528D01*
X88619059Y-28822140D01*
X88532004Y-28839456D01*
X88473969Y-28851000D01*
X88326031Y-28851000D01*
X88267996Y-28839456D01*
X88180941Y-28822140D01*
X88044268Y-28765528D01*
X87921265Y-28683340D01*
X87921262Y-28683338D01*
X87816662Y-28578738D01*
X87734473Y-28455733D01*
X87734472Y-28455732D01*
X87677860Y-28319059D01*
X87649000Y-28173967D01*
X87649000Y-28026033D01*
X87677860Y-27880941D01*
X87734472Y-27744268D01*
X87816660Y-27621265D01*
X87816662Y-27621262D01*
X87921262Y-27516662D01*
X88044267Y-27434473D01*
X88044268Y-27434472D01*
X88180941Y-27377860D01*
X88267996Y-27360544D01*
X88326031Y-27349000D01*
X88473969Y-27349000D01*
X88532004Y-27360544D01*
X88532004Y-27360544D01*
G37*
G36*
X83532004Y-27360544D02*
X83619059Y-27377860D01*
X83755732Y-27434472D01*
X83755733Y-27434473D01*
X83878738Y-27516662D01*
X83983338Y-27621262D01*
X83983340Y-27621265D01*
X84065528Y-27744268D01*
X84122140Y-27880941D01*
X84151000Y-28026033D01*
X84151000Y-28173967D01*
X84122140Y-28319059D01*
X84065528Y-28455732D01*
X84065527Y-28455733D01*
X83983338Y-28578738D01*
X83878738Y-28683338D01*
X83878735Y-28683340D01*
X83755732Y-28765528D01*
X83619059Y-28822140D01*
X83532004Y-28839456D01*
X83473969Y-28851000D01*
X83326031Y-28851000D01*
X83267996Y-28839456D01*
X83180941Y-28822140D01*
X83044268Y-28765528D01*
X82921265Y-28683340D01*
X82921262Y-28683338D01*
X82816662Y-28578738D01*
X82734473Y-28455733D01*
X82734472Y-28455732D01*
X82677860Y-28319059D01*
X82649000Y-28173967D01*
X82649000Y-28026033D01*
X82677860Y-27880941D01*
X82734472Y-27744268D01*
X82816660Y-27621265D01*
X82816662Y-27621262D01*
X82921262Y-27516662D01*
X83044267Y-27434473D01*
X83044268Y-27434472D01*
X83180941Y-27377860D01*
X83267996Y-27360544D01*
X83326031Y-27349000D01*
X83473969Y-27349000D01*
X83532004Y-27360544D01*
X83532004Y-27360544D01*
G37*
G36*
X81032004Y-27360544D02*
X81119059Y-27377860D01*
X81255732Y-27434472D01*
X81255733Y-27434473D01*
X81378738Y-27516662D01*
X81483338Y-27621262D01*
X81483340Y-27621265D01*
X81565528Y-27744268D01*
X81622140Y-27880941D01*
X81651000Y-28026033D01*
X81651000Y-28173967D01*
X81622140Y-28319059D01*
X81565528Y-28455732D01*
X81565527Y-28455733D01*
X81483338Y-28578738D01*
X81378738Y-28683338D01*
X81378735Y-28683340D01*
X81255732Y-28765528D01*
X81119059Y-28822140D01*
X81032004Y-28839456D01*
X80973969Y-28851000D01*
X80826031Y-28851000D01*
X80767996Y-28839456D01*
X80680941Y-28822140D01*
X80544268Y-28765528D01*
X80421265Y-28683340D01*
X80421262Y-28683338D01*
X80316662Y-28578738D01*
X80234473Y-28455733D01*
X80234472Y-28455732D01*
X80177860Y-28319059D01*
X80149000Y-28173967D01*
X80149000Y-28026033D01*
X80177860Y-27880941D01*
X80234472Y-27744268D01*
X80316660Y-27621265D01*
X80316662Y-27621262D01*
X80421262Y-27516662D01*
X80544267Y-27434473D01*
X80544268Y-27434472D01*
X80680941Y-27377860D01*
X80767996Y-27360544D01*
X80826031Y-27349000D01*
X80973969Y-27349000D01*
X81032004Y-27360544D01*
X81032004Y-27360544D01*
G37*
G36*
X78532004Y-27360544D02*
X78619059Y-27377860D01*
X78755732Y-27434472D01*
X78755733Y-27434473D01*
X78878738Y-27516662D01*
X78983338Y-27621262D01*
X78983340Y-27621265D01*
X79065528Y-27744268D01*
X79122140Y-27880941D01*
X79151000Y-28026033D01*
X79151000Y-28173967D01*
X79122140Y-28319059D01*
X79065528Y-28455732D01*
X79065527Y-28455733D01*
X78983338Y-28578738D01*
X78878738Y-28683338D01*
X78878735Y-28683340D01*
X78755732Y-28765528D01*
X78619059Y-28822140D01*
X78532004Y-28839456D01*
X78473969Y-28851000D01*
X78326031Y-28851000D01*
X78267996Y-28839456D01*
X78180941Y-28822140D01*
X78044268Y-28765528D01*
X77921265Y-28683340D01*
X77921262Y-28683338D01*
X77816662Y-28578738D01*
X77734473Y-28455733D01*
X77734472Y-28455732D01*
X77677860Y-28319059D01*
X77649000Y-28173967D01*
X77649000Y-28026033D01*
X77677860Y-27880941D01*
X77734472Y-27744268D01*
X77816660Y-27621265D01*
X77816662Y-27621262D01*
X77921262Y-27516662D01*
X78044267Y-27434473D01*
X78044268Y-27434472D01*
X78180941Y-27377860D01*
X78267996Y-27360544D01*
X78326031Y-27349000D01*
X78473969Y-27349000D01*
X78532004Y-27360544D01*
X78532004Y-27360544D01*
G37*
G36*
X92400399Y-10383499D02*
X93274125Y-10745408D01*
X94060462Y-11270822D01*
X94729178Y-11939538D01*
X95254592Y-12725875D01*
X95616501Y-13599601D01*
X95801000Y-14527141D01*
X95801000Y-15472859D01*
X95616501Y-16400399D01*
X95254592Y-17274125D01*
X94729178Y-18060462D01*
X94060462Y-18729178D01*
X93274125Y-19254592D01*
X92400399Y-19616501D01*
X91472859Y-19801000D01*
X90527141Y-19801000D01*
X89599601Y-19616501D01*
X88725875Y-19254592D01*
X87939538Y-18729178D01*
X87270822Y-18060462D01*
X86745408Y-17274125D01*
X86383499Y-16400399D01*
X86199000Y-15472859D01*
X86199000Y-14527141D01*
X86383499Y-13599601D01*
X86745408Y-12725875D01*
X87270822Y-11939538D01*
X87939538Y-11270822D01*
X88725875Y-10745408D01*
X89599601Y-10383499D01*
X90527141Y-10199000D01*
X91472859Y-10199000D01*
X92400399Y-10383499D01*
X92400399Y-10383499D01*
G37*
G36*
X72035786Y-5720462D02*
X72035788Y-5720463D01*
X72035789Y-5720463D01*
X72682029Y-5988144D01*
X72682030Y-5988145D01*
X73263634Y-6376760D01*
X73758240Y-6871366D01*
X73758242Y-6871369D01*
X74146856Y-7452971D01*
X74414537Y-8099211D01*
X74551000Y-8785257D01*
X74551000Y-9484743D01*
X74414537Y-10170789D01*
X74146856Y-10817029D01*
X74146855Y-10817030D01*
X73758240Y-11398634D01*
X73263634Y-11893240D01*
X73263631Y-11893242D01*
X72682029Y-12281856D01*
X72035789Y-12549537D01*
X72035788Y-12549537D01*
X72035786Y-12549538D01*
X71349744Y-12686000D01*
X70650256Y-12686000D01*
X69964214Y-12549538D01*
X69964212Y-12549537D01*
X69964211Y-12549537D01*
X69317971Y-12281856D01*
X68736369Y-11893242D01*
X68736366Y-11893240D01*
X68241760Y-11398634D01*
X67853145Y-10817030D01*
X67853144Y-10817029D01*
X67585463Y-10170789D01*
X67449000Y-9484743D01*
X67449000Y-8785257D01*
X67585463Y-8099211D01*
X67853144Y-7452971D01*
X68241758Y-6871369D01*
X68241760Y-6871366D01*
X68736366Y-6376760D01*
X69317970Y-5988145D01*
X69317971Y-5988144D01*
X69964211Y-5720463D01*
X69964212Y-5720463D01*
X69964214Y-5720462D01*
X70650256Y-5584000D01*
X71349744Y-5584000D01*
X72035786Y-5720462D01*
X72035786Y-5720462D01*
G37*
G36*
X40035786Y-5720462D02*
X40035788Y-5720463D01*
X40035789Y-5720463D01*
X40682029Y-5988144D01*
X40682030Y-5988145D01*
X41263634Y-6376760D01*
X41758240Y-6871366D01*
X41758242Y-6871369D01*
X42146856Y-7452971D01*
X42414537Y-8099211D01*
X42551000Y-8785257D01*
X42551000Y-9484743D01*
X42414537Y-10170789D01*
X42146856Y-10817029D01*
X42146855Y-10817030D01*
X41758240Y-11398634D01*
X41263634Y-11893240D01*
X41263631Y-11893242D01*
X40682029Y-12281856D01*
X40035789Y-12549537D01*
X40035788Y-12549537D01*
X40035786Y-12549538D01*
X39349744Y-12686000D01*
X38650256Y-12686000D01*
X37964214Y-12549538D01*
X37964212Y-12549537D01*
X37964211Y-12549537D01*
X37317971Y-12281856D01*
X36736369Y-11893242D01*
X36736366Y-11893240D01*
X36241760Y-11398634D01*
X35853145Y-10817030D01*
X35853144Y-10817029D01*
X35585463Y-10170789D01*
X35449000Y-9484743D01*
X35449000Y-8785257D01*
X35585463Y-8099211D01*
X35853144Y-7452971D01*
X36241758Y-6871369D01*
X36241760Y-6871366D01*
X36736366Y-6376760D01*
X37317970Y-5988145D01*
X37317971Y-5988144D01*
X37964211Y-5720463D01*
X37964212Y-5720463D01*
X37964214Y-5720462D01*
X38650256Y-5584000D01*
X39349744Y-5584000D01*
X40035786Y-5720462D01*
X40035786Y-5720462D01*
G37*
G36*
X4487921Y-1547056D02*
X4729515Y-1595112D01*
X5184668Y-1783643D01*
X5588841Y-2053703D01*
X5594297Y-2057349D01*
X5942651Y-2405703D01*
X6216358Y-2815334D01*
X6404888Y-3270486D01*
X6501000Y-3753672D01*
X6501000Y-4246328D01*
X6404888Y-4729514D01*
X6216358Y-5184666D01*
X5942651Y-5594297D01*
X5594297Y-5942651D01*
X5594294Y-5942653D01*
X5184668Y-6216357D01*
X4729515Y-6404888D01*
X4487921Y-6452944D01*
X4246328Y-6501000D01*
X3753672Y-6501000D01*
X3512079Y-6452944D01*
X3270485Y-6404888D01*
X2815332Y-6216357D01*
X2405706Y-5942653D01*
X2405703Y-5942651D01*
X2057349Y-5594297D01*
X1783642Y-5184666D01*
X1595112Y-4729514D01*
X1499000Y-4246328D01*
X1499000Y-3753672D01*
X1595112Y-3270486D01*
X1783642Y-2815334D01*
X2057349Y-2405703D01*
X2405703Y-2057349D01*
X2411159Y-2053703D01*
X2815332Y-1783643D01*
X3270485Y-1595112D01*
X3512079Y-1547056D01*
X3753672Y-1499000D01*
X4246328Y-1499000D01*
X4487921Y-1547056D01*
X4487921Y-1547056D01*
G37*
G36*
X102487921Y-1547056D02*
X102729515Y-1595112D01*
X103184668Y-1783643D01*
X103588841Y-2053703D01*
X103594297Y-2057349D01*
X103942651Y-2405703D01*
X104216358Y-2815334D01*
X104404888Y-3270486D01*
X104501000Y-3753672D01*
X104501000Y-4246328D01*
X104404888Y-4729514D01*
X104216358Y-5184666D01*
X103942651Y-5594297D01*
X103594297Y-5942651D01*
X103594294Y-5942653D01*
X103184668Y-6216357D01*
X102729515Y-6404888D01*
X102487921Y-6452944D01*
X102246328Y-6501000D01*
X101753672Y-6501000D01*
X101512079Y-6452944D01*
X101270485Y-6404888D01*
X100815332Y-6216357D01*
X100405706Y-5942653D01*
X100405703Y-5942651D01*
X100057349Y-5594297D01*
X99783642Y-5184666D01*
X99595112Y-4729514D01*
X99499000Y-4246328D01*
X99499000Y-3753672D01*
X99595112Y-3270486D01*
X99783642Y-2815334D01*
X100057349Y-2405703D01*
X100405703Y-2057349D01*
X100411159Y-2053703D01*
X100815332Y-1783643D01*
X101270485Y-1595112D01*
X101512079Y-1547056D01*
X101753672Y-1499000D01*
X102246328Y-1499000D01*
X102487921Y-1547056D01*
X102487921Y-1547056D01*
G37*
M02*
