G04 #@! TF.GenerationSoftware,KiCad,Pcbnew,5.0.2-bee76a0~70~ubuntu16.04.1*
G04 #@! TF.CreationDate,2019-09-01T12:37:42-07:00*
G04 #@! TF.ProjectId,endcap,656e6463-6170-42e6-9b69-6361645f7063,rev?*
G04 #@! TF.SameCoordinates,PX2faf080PY2faf080*
G04 #@! TF.FileFunction,Legend,Top*
G04 #@! TF.FilePolarity,Positive*
%FSLAX46Y46*%
G04 Gerber Fmt 4.6, Leading zero omitted, Abs format (unit mm)*
G04 Created by KiCad (PCBNEW 5.0.2-bee76a0~70~ubuntu16.04.1) date Sun 01 Sep 2019 12:37:42 PM PDT*
%MOMM*%
%LPD*%
G01*
G04 APERTURE LIST*
%ADD10C,0.300000*%
%ADD11C,0.400000*%
G04 APERTURE END LIST*
D10*
X31883333Y-6342857D02*
X31883333Y-7533333D01*
X31169047Y-6104761D02*
X33669047Y-6938095D01*
X31169047Y-7771428D01*
X31169047Y-8604761D02*
X33669047Y-8604761D01*
X31169047Y-10033333D01*
X33669047Y-10033333D01*
X33669047Y-10866666D02*
X33669047Y-12295238D01*
X31169047Y-11580952D02*
X33669047Y-11580952D01*
X63169047Y-7611904D02*
X64359523Y-6778571D01*
X63169047Y-6183333D02*
X65669047Y-6183333D01*
X65669047Y-7135714D01*
X65550000Y-7373809D01*
X65430952Y-7492857D01*
X65192857Y-7611904D01*
X64835714Y-7611904D01*
X64597619Y-7492857D01*
X64478571Y-7373809D01*
X64359523Y-7135714D01*
X64359523Y-6183333D01*
X64478571Y-9516666D02*
X64478571Y-8683333D01*
X63169047Y-8683333D02*
X65669047Y-8683333D01*
X65669047Y-9873809D01*
X63169047Y-12135714D02*
X63169047Y-10707142D01*
X63169047Y-11421428D02*
X65669047Y-11421428D01*
X65311904Y-11183333D01*
X65073809Y-10945238D01*
X64954761Y-10707142D01*
X99178571Y-10119047D02*
X99178571Y-10952380D01*
X97869047Y-11309523D02*
X97869047Y-10119047D01*
X100369047Y-10119047D01*
X100369047Y-11309523D01*
X100369047Y-12142857D02*
X97869047Y-13809523D01*
X100369047Y-13809523D02*
X97869047Y-12142857D01*
X100369047Y-14404761D02*
X100369047Y-15833333D01*
X97869047Y-15119047D02*
X100369047Y-15119047D01*
X100369047Y-16309523D02*
X100369047Y-17738095D01*
X97869047Y-17023809D02*
X100369047Y-17023809D01*
X97869047Y-20000000D02*
X99059523Y-19166666D01*
X97869047Y-18571428D02*
X100369047Y-18571428D01*
X100369047Y-19523809D01*
X100250000Y-19761904D01*
X100130952Y-19880952D01*
X99892857Y-20000000D01*
X99535714Y-20000000D01*
X99297619Y-19880952D01*
X99178571Y-19761904D01*
X99059523Y-19523809D01*
X99059523Y-18571428D01*
D11*
X18416666Y-4250000D02*
X21916666Y-4250000D01*
X20250000Y-4250000D02*
X20250000Y-6250000D01*
X18416666Y-6250000D02*
X21916666Y-6250000D01*
X18583333Y-9250000D02*
X18416666Y-8916666D01*
X18416666Y-8250000D01*
X18583333Y-7916666D01*
X18916666Y-7750000D01*
X20250000Y-7750000D01*
X20583333Y-7916666D01*
X20750000Y-8250000D01*
X20750000Y-8916666D01*
X20583333Y-9250000D01*
X20250000Y-9416666D01*
X19916666Y-9416666D01*
X19583333Y-7750000D01*
X18416666Y-10916666D02*
X20750000Y-10916666D01*
X20083333Y-10916666D02*
X20416666Y-11083333D01*
X20583333Y-11250000D01*
X20750000Y-11583333D01*
X20750000Y-11916666D01*
X18416666Y-13083333D02*
X20750000Y-13083333D01*
X20416666Y-13083333D02*
X20583333Y-13250000D01*
X20750000Y-13583333D01*
X20750000Y-14083333D01*
X20583333Y-14416666D01*
X20250000Y-14583333D01*
X18416666Y-14583333D01*
X20250000Y-14583333D02*
X20583333Y-14750000D01*
X20750000Y-15083333D01*
X20750000Y-15583333D01*
X20583333Y-15916666D01*
X20250000Y-16083333D01*
X18416666Y-16083333D01*
X18583333Y-19083333D02*
X18416666Y-18750000D01*
X18416666Y-18083333D01*
X18583333Y-17750000D01*
X18916666Y-17583333D01*
X20250000Y-17583333D01*
X20583333Y-17750000D01*
X20750000Y-18083333D01*
X20750000Y-18750000D01*
X20583333Y-19083333D01*
X20250000Y-19250000D01*
X19916666Y-19250000D01*
X19583333Y-17583333D01*
X18583333Y-20583333D02*
X18416666Y-20916666D01*
X18416666Y-21583333D01*
X18583333Y-21916666D01*
X18916666Y-22083333D01*
X19083333Y-22083333D01*
X19416666Y-21916666D01*
X19583333Y-21583333D01*
X19583333Y-21083333D01*
X19750000Y-20750000D01*
X20083333Y-20583333D01*
X20250000Y-20583333D01*
X20583333Y-20750000D01*
X20750000Y-21083333D01*
X20750000Y-21583333D01*
X20583333Y-21916666D01*
X19750000Y-23583333D02*
X19750000Y-26250000D01*
X18416666Y-29583333D02*
X18416666Y-27916666D01*
X21916666Y-27916666D01*
X18416666Y-30750000D02*
X20750000Y-30750000D01*
X21916666Y-30750000D02*
X21750000Y-30583333D01*
X21583333Y-30750000D01*
X21750000Y-30916666D01*
X21916666Y-30750000D01*
X21583333Y-30750000D01*
X20750000Y-31916666D02*
X20750000Y-33250000D01*
X21916666Y-32416666D02*
X18916666Y-32416666D01*
X18583333Y-32583333D01*
X18416666Y-32916666D01*
X18416666Y-33250000D01*
X18583333Y-35750000D02*
X18416666Y-35416666D01*
X18416666Y-34750000D01*
X18583333Y-34416666D01*
X18916666Y-34250000D01*
X20250000Y-34250000D01*
X20583333Y-34416666D01*
X20750000Y-34750000D01*
X20750000Y-35416666D01*
X20583333Y-35750000D01*
X20250000Y-35916666D01*
X19916666Y-35916666D01*
X19583333Y-34250000D01*
M02*
