G04 #@! TF.GenerationSoftware,KiCad,Pcbnew,5.0.2-bee76a0~70~ubuntu16.04.1*
G04 #@! TF.CreationDate,2019-09-01T12:37:42-07:00*
G04 #@! TF.ProjectId,endcap,656e6463-6170-42e6-9b69-6361645f7063,rev?*
G04 #@! TF.SameCoordinates,PX2faf080PY2faf080*
G04 #@! TF.FileFunction,Copper,L1,Top*
G04 #@! TF.FilePolarity,Positive*
%FSLAX46Y46*%
G04 Gerber Fmt 4.6, Leading zero omitted, Abs format (unit mm)*
G04 Created by KiCad (PCBNEW 5.0.2-bee76a0~70~ubuntu16.04.1) date Sun 01 Sep 2019 12:37:42 PM PDT*
%MOMM*%
%LPD*%
G01*
G04 APERTURE LIST*
G04 #@! TA.AperFunction,ComponentPad*
%ADD10C,4.900000*%
G04 #@! TD*
G04 #@! TA.AperFunction,Conductor*
%ADD11C,0.200000*%
G04 #@! TD*
G04 APERTURE END LIST*
D10*
G04 #@! TO.P,MH1,1*
G04 #@! TO.N,Earth*
X4000000Y-4000000D03*
G04 #@! TD*
G04 #@! TO.P,MH2,1*
G04 #@! TO.N,Earth*
X102000000Y-4000000D03*
G04 #@! TD*
G04 #@! TO.P,MH3,1*
G04 #@! TO.N,Earth*
X102000000Y-36000000D03*
G04 #@! TD*
G04 #@! TO.P,MH4,1*
G04 #@! TO.N,Earth*
X4000000Y-36000000D03*
G04 #@! TD*
D11*
G04 #@! TO.N,Earth*
G36*
X104426658Y-540949D02*
X104819014Y-719342D01*
X105145532Y-1000688D01*
X105379961Y-1362368D01*
X105508162Y-1791043D01*
X105525000Y-2017626D01*
X105525001Y-37966151D01*
X105459052Y-38426656D01*
X105280658Y-38819015D01*
X104999312Y-39145532D01*
X104637631Y-39379962D01*
X104208957Y-39508162D01*
X103982374Y-39525000D01*
X2033842Y-39525000D01*
X1573344Y-39459052D01*
X1180985Y-39280658D01*
X854468Y-38999312D01*
X620038Y-38637631D01*
X491838Y-38208957D01*
X475000Y-37982374D01*
X475000Y-32881196D01*
X67300000Y-32881196D01*
X67300000Y-33318804D01*
X67467465Y-33723100D01*
X67776900Y-34032535D01*
X68181196Y-34200000D01*
X68618804Y-34200000D01*
X69023100Y-34032535D01*
X69332535Y-33723100D01*
X69500000Y-33318804D01*
X69500000Y-32881196D01*
X69800000Y-32881196D01*
X69800000Y-33318804D01*
X69967465Y-33723100D01*
X70276900Y-34032535D01*
X70681196Y-34200000D01*
X71118804Y-34200000D01*
X71523100Y-34032535D01*
X71832535Y-33723100D01*
X72000000Y-33318804D01*
X72000000Y-32881196D01*
X72300000Y-32881196D01*
X72300000Y-33318804D01*
X72467465Y-33723100D01*
X72776900Y-34032535D01*
X73181196Y-34200000D01*
X73618804Y-34200000D01*
X74023100Y-34032535D01*
X74332535Y-33723100D01*
X74500000Y-33318804D01*
X74500000Y-32881196D01*
X77300000Y-32881196D01*
X77300000Y-33318804D01*
X77467465Y-33723100D01*
X77776900Y-34032535D01*
X78181196Y-34200000D01*
X78618804Y-34200000D01*
X79023100Y-34032535D01*
X79332535Y-33723100D01*
X79500000Y-33318804D01*
X79500000Y-32881196D01*
X79800000Y-32881196D01*
X79800000Y-33318804D01*
X79967465Y-33723100D01*
X80276900Y-34032535D01*
X80681196Y-34200000D01*
X81118804Y-34200000D01*
X81523100Y-34032535D01*
X81832535Y-33723100D01*
X82000000Y-33318804D01*
X82000000Y-32881196D01*
X82300000Y-32881196D01*
X82300000Y-33318804D01*
X82467465Y-33723100D01*
X82776900Y-34032535D01*
X83181196Y-34200000D01*
X83618804Y-34200000D01*
X84023100Y-34032535D01*
X84332535Y-33723100D01*
X84500000Y-33318804D01*
X84500000Y-32881196D01*
X87300000Y-32881196D01*
X87300000Y-33318804D01*
X87467465Y-33723100D01*
X87776900Y-34032535D01*
X88181196Y-34200000D01*
X88618804Y-34200000D01*
X89023100Y-34032535D01*
X89332535Y-33723100D01*
X89500000Y-33318804D01*
X89500000Y-32881196D01*
X89800000Y-32881196D01*
X89800000Y-33318804D01*
X89967465Y-33723100D01*
X90276900Y-34032535D01*
X90681196Y-34200000D01*
X91118804Y-34200000D01*
X91523100Y-34032535D01*
X91832535Y-33723100D01*
X92000000Y-33318804D01*
X92000000Y-32881196D01*
X92300000Y-32881196D01*
X92300000Y-33318804D01*
X92467465Y-33723100D01*
X92776900Y-34032535D01*
X93181196Y-34200000D01*
X93618804Y-34200000D01*
X94023100Y-34032535D01*
X94332535Y-33723100D01*
X94500000Y-33318804D01*
X94500000Y-32881196D01*
X94332535Y-32476900D01*
X94023100Y-32167465D01*
X93618804Y-32000000D01*
X93181196Y-32000000D01*
X92776900Y-32167465D01*
X92467465Y-32476900D01*
X92300000Y-32881196D01*
X92000000Y-32881196D01*
X91832535Y-32476900D01*
X91523100Y-32167465D01*
X91118804Y-32000000D01*
X90681196Y-32000000D01*
X90276900Y-32167465D01*
X89967465Y-32476900D01*
X89800000Y-32881196D01*
X89500000Y-32881196D01*
X89332535Y-32476900D01*
X89023100Y-32167465D01*
X88618804Y-32000000D01*
X88181196Y-32000000D01*
X87776900Y-32167465D01*
X87467465Y-32476900D01*
X87300000Y-32881196D01*
X84500000Y-32881196D01*
X84332535Y-32476900D01*
X84023100Y-32167465D01*
X83618804Y-32000000D01*
X83181196Y-32000000D01*
X82776900Y-32167465D01*
X82467465Y-32476900D01*
X82300000Y-32881196D01*
X82000000Y-32881196D01*
X81832535Y-32476900D01*
X81523100Y-32167465D01*
X81118804Y-32000000D01*
X80681196Y-32000000D01*
X80276900Y-32167465D01*
X79967465Y-32476900D01*
X79800000Y-32881196D01*
X79500000Y-32881196D01*
X79332535Y-32476900D01*
X79023100Y-32167465D01*
X78618804Y-32000000D01*
X78181196Y-32000000D01*
X77776900Y-32167465D01*
X77467465Y-32476900D01*
X77300000Y-32881196D01*
X74500000Y-32881196D01*
X74332535Y-32476900D01*
X74023100Y-32167465D01*
X73618804Y-32000000D01*
X73181196Y-32000000D01*
X72776900Y-32167465D01*
X72467465Y-32476900D01*
X72300000Y-32881196D01*
X72000000Y-32881196D01*
X71832535Y-32476900D01*
X71523100Y-32167465D01*
X71118804Y-32000000D01*
X70681196Y-32000000D01*
X70276900Y-32167465D01*
X69967465Y-32476900D01*
X69800000Y-32881196D01*
X69500000Y-32881196D01*
X69332535Y-32476900D01*
X69023100Y-32167465D01*
X68618804Y-32000000D01*
X68181196Y-32000000D01*
X67776900Y-32167465D01*
X67467465Y-32476900D01*
X67300000Y-32881196D01*
X475000Y-32881196D01*
X475000Y-30381196D01*
X67300000Y-30381196D01*
X67300000Y-30818804D01*
X67467465Y-31223100D01*
X67776900Y-31532535D01*
X68181196Y-31700000D01*
X68618804Y-31700000D01*
X69023100Y-31532535D01*
X69332535Y-31223100D01*
X69500000Y-30818804D01*
X69500000Y-30381196D01*
X69800000Y-30381196D01*
X69800000Y-30818804D01*
X69967465Y-31223100D01*
X70276900Y-31532535D01*
X70681196Y-31700000D01*
X71118804Y-31700000D01*
X71523100Y-31532535D01*
X71832535Y-31223100D01*
X72000000Y-30818804D01*
X72000000Y-30381196D01*
X72300000Y-30381196D01*
X72300000Y-30818804D01*
X72467465Y-31223100D01*
X72776900Y-31532535D01*
X73181196Y-31700000D01*
X73618804Y-31700000D01*
X74023100Y-31532535D01*
X74332535Y-31223100D01*
X74500000Y-30818804D01*
X74500000Y-30381196D01*
X77300000Y-30381196D01*
X77300000Y-30818804D01*
X77467465Y-31223100D01*
X77776900Y-31532535D01*
X78181196Y-31700000D01*
X78618804Y-31700000D01*
X79023100Y-31532535D01*
X79332535Y-31223100D01*
X79500000Y-30818804D01*
X79500000Y-30381196D01*
X79800000Y-30381196D01*
X79800000Y-30818804D01*
X79967465Y-31223100D01*
X80276900Y-31532535D01*
X80681196Y-31700000D01*
X81118804Y-31700000D01*
X81523100Y-31532535D01*
X81832535Y-31223100D01*
X82000000Y-30818804D01*
X82000000Y-30381196D01*
X82300000Y-30381196D01*
X82300000Y-30818804D01*
X82467465Y-31223100D01*
X82776900Y-31532535D01*
X83181196Y-31700000D01*
X83618804Y-31700000D01*
X84023100Y-31532535D01*
X84332535Y-31223100D01*
X84500000Y-30818804D01*
X84500000Y-30381196D01*
X87300000Y-30381196D01*
X87300000Y-30818804D01*
X87467465Y-31223100D01*
X87776900Y-31532535D01*
X88181196Y-31700000D01*
X88618804Y-31700000D01*
X89023100Y-31532535D01*
X89332535Y-31223100D01*
X89500000Y-30818804D01*
X89500000Y-30381196D01*
X89800000Y-30381196D01*
X89800000Y-30818804D01*
X89967465Y-31223100D01*
X90276900Y-31532535D01*
X90681196Y-31700000D01*
X91118804Y-31700000D01*
X91523100Y-31532535D01*
X91832535Y-31223100D01*
X92000000Y-30818804D01*
X92000000Y-30381196D01*
X92300000Y-30381196D01*
X92300000Y-30818804D01*
X92467465Y-31223100D01*
X92776900Y-31532535D01*
X93181196Y-31700000D01*
X93618804Y-31700000D01*
X94023100Y-31532535D01*
X94332535Y-31223100D01*
X94500000Y-30818804D01*
X94500000Y-30381196D01*
X94332535Y-29976900D01*
X94023100Y-29667465D01*
X93618804Y-29500000D01*
X93181196Y-29500000D01*
X92776900Y-29667465D01*
X92467465Y-29976900D01*
X92300000Y-30381196D01*
X92000000Y-30381196D01*
X91832535Y-29976900D01*
X91523100Y-29667465D01*
X91118804Y-29500000D01*
X90681196Y-29500000D01*
X90276900Y-29667465D01*
X89967465Y-29976900D01*
X89800000Y-30381196D01*
X89500000Y-30381196D01*
X89332535Y-29976900D01*
X89023100Y-29667465D01*
X88618804Y-29500000D01*
X88181196Y-29500000D01*
X87776900Y-29667465D01*
X87467465Y-29976900D01*
X87300000Y-30381196D01*
X84500000Y-30381196D01*
X84332535Y-29976900D01*
X84023100Y-29667465D01*
X83618804Y-29500000D01*
X83181196Y-29500000D01*
X82776900Y-29667465D01*
X82467465Y-29976900D01*
X82300000Y-30381196D01*
X82000000Y-30381196D01*
X81832535Y-29976900D01*
X81523100Y-29667465D01*
X81118804Y-29500000D01*
X80681196Y-29500000D01*
X80276900Y-29667465D01*
X79967465Y-29976900D01*
X79800000Y-30381196D01*
X79500000Y-30381196D01*
X79332535Y-29976900D01*
X79023100Y-29667465D01*
X78618804Y-29500000D01*
X78181196Y-29500000D01*
X77776900Y-29667465D01*
X77467465Y-29976900D01*
X77300000Y-30381196D01*
X74500000Y-30381196D01*
X74332535Y-29976900D01*
X74023100Y-29667465D01*
X73618804Y-29500000D01*
X73181196Y-29500000D01*
X72776900Y-29667465D01*
X72467465Y-29976900D01*
X72300000Y-30381196D01*
X72000000Y-30381196D01*
X71832535Y-29976900D01*
X71523100Y-29667465D01*
X71118804Y-29500000D01*
X70681196Y-29500000D01*
X70276900Y-29667465D01*
X69967465Y-29976900D01*
X69800000Y-30381196D01*
X69500000Y-30381196D01*
X69332535Y-29976900D01*
X69023100Y-29667465D01*
X68618804Y-29500000D01*
X68181196Y-29500000D01*
X67776900Y-29667465D01*
X67467465Y-29976900D01*
X67300000Y-30381196D01*
X475000Y-30381196D01*
X475000Y-27881196D01*
X67300000Y-27881196D01*
X67300000Y-28318804D01*
X67467465Y-28723100D01*
X67776900Y-29032535D01*
X68181196Y-29200000D01*
X68618804Y-29200000D01*
X69023100Y-29032535D01*
X69332535Y-28723100D01*
X69500000Y-28318804D01*
X69500000Y-27881196D01*
X69800000Y-27881196D01*
X69800000Y-28318804D01*
X69967465Y-28723100D01*
X70276900Y-29032535D01*
X70681196Y-29200000D01*
X71118804Y-29200000D01*
X71523100Y-29032535D01*
X71832535Y-28723100D01*
X72000000Y-28318804D01*
X72000000Y-27881196D01*
X72300000Y-27881196D01*
X72300000Y-28318804D01*
X72467465Y-28723100D01*
X72776900Y-29032535D01*
X73181196Y-29200000D01*
X73618804Y-29200000D01*
X74023100Y-29032535D01*
X74332535Y-28723100D01*
X74500000Y-28318804D01*
X74500000Y-27881196D01*
X77300000Y-27881196D01*
X77300000Y-28318804D01*
X77467465Y-28723100D01*
X77776900Y-29032535D01*
X78181196Y-29200000D01*
X78618804Y-29200000D01*
X79023100Y-29032535D01*
X79332535Y-28723100D01*
X79500000Y-28318804D01*
X79500000Y-27881196D01*
X79800000Y-27881196D01*
X79800000Y-28318804D01*
X79967465Y-28723100D01*
X80276900Y-29032535D01*
X80681196Y-29200000D01*
X81118804Y-29200000D01*
X81523100Y-29032535D01*
X81832535Y-28723100D01*
X82000000Y-28318804D01*
X82000000Y-27881196D01*
X82300000Y-27881196D01*
X82300000Y-28318804D01*
X82467465Y-28723100D01*
X82776900Y-29032535D01*
X83181196Y-29200000D01*
X83618804Y-29200000D01*
X84023100Y-29032535D01*
X84332535Y-28723100D01*
X84500000Y-28318804D01*
X84500000Y-27881196D01*
X87300000Y-27881196D01*
X87300000Y-28318804D01*
X87467465Y-28723100D01*
X87776900Y-29032535D01*
X88181196Y-29200000D01*
X88618804Y-29200000D01*
X89023100Y-29032535D01*
X89332535Y-28723100D01*
X89500000Y-28318804D01*
X89500000Y-27881196D01*
X89800000Y-27881196D01*
X89800000Y-28318804D01*
X89967465Y-28723100D01*
X90276900Y-29032535D01*
X90681196Y-29200000D01*
X91118804Y-29200000D01*
X91523100Y-29032535D01*
X91832535Y-28723100D01*
X92000000Y-28318804D01*
X92000000Y-27881196D01*
X92300000Y-27881196D01*
X92300000Y-28318804D01*
X92467465Y-28723100D01*
X92776900Y-29032535D01*
X93181196Y-29200000D01*
X93618804Y-29200000D01*
X94023100Y-29032535D01*
X94332535Y-28723100D01*
X94500000Y-28318804D01*
X94500000Y-27881196D01*
X94332535Y-27476900D01*
X94023100Y-27167465D01*
X93618804Y-27000000D01*
X93181196Y-27000000D01*
X92776900Y-27167465D01*
X92467465Y-27476900D01*
X92300000Y-27881196D01*
X92000000Y-27881196D01*
X91832535Y-27476900D01*
X91523100Y-27167465D01*
X91118804Y-27000000D01*
X90681196Y-27000000D01*
X90276900Y-27167465D01*
X89967465Y-27476900D01*
X89800000Y-27881196D01*
X89500000Y-27881196D01*
X89332535Y-27476900D01*
X89023100Y-27167465D01*
X88618804Y-27000000D01*
X88181196Y-27000000D01*
X87776900Y-27167465D01*
X87467465Y-27476900D01*
X87300000Y-27881196D01*
X84500000Y-27881196D01*
X84332535Y-27476900D01*
X84023100Y-27167465D01*
X83618804Y-27000000D01*
X83181196Y-27000000D01*
X82776900Y-27167465D01*
X82467465Y-27476900D01*
X82300000Y-27881196D01*
X82000000Y-27881196D01*
X81832535Y-27476900D01*
X81523100Y-27167465D01*
X81118804Y-27000000D01*
X80681196Y-27000000D01*
X80276900Y-27167465D01*
X79967465Y-27476900D01*
X79800000Y-27881196D01*
X79500000Y-27881196D01*
X79332535Y-27476900D01*
X79023100Y-27167465D01*
X78618804Y-27000000D01*
X78181196Y-27000000D01*
X77776900Y-27167465D01*
X77467465Y-27476900D01*
X77300000Y-27881196D01*
X74500000Y-27881196D01*
X74332535Y-27476900D01*
X74023100Y-27167465D01*
X73618804Y-27000000D01*
X73181196Y-27000000D01*
X72776900Y-27167465D01*
X72467465Y-27476900D01*
X72300000Y-27881196D01*
X72000000Y-27881196D01*
X71832535Y-27476900D01*
X71523100Y-27167465D01*
X71118804Y-27000000D01*
X70681196Y-27000000D01*
X70276900Y-27167465D01*
X69967465Y-27476900D01*
X69800000Y-27881196D01*
X69500000Y-27881196D01*
X69332535Y-27476900D01*
X69023100Y-27167465D01*
X68618804Y-27000000D01*
X68181196Y-27000000D01*
X67776900Y-27167465D01*
X67467465Y-27476900D01*
X67300000Y-27881196D01*
X475000Y-27881196D01*
X475000Y-13975601D01*
X85850000Y-13975601D01*
X85850000Y-16024399D01*
X86634041Y-17917240D01*
X88082760Y-19365959D01*
X89975601Y-20150000D01*
X92024399Y-20150000D01*
X93917240Y-19365959D01*
X95365959Y-17917240D01*
X96150000Y-16024399D01*
X96150000Y-13975601D01*
X95365959Y-12082760D01*
X93917240Y-10634041D01*
X92024399Y-9850000D01*
X89975601Y-9850000D01*
X88082760Y-10634041D01*
X86634041Y-12082760D01*
X85850000Y-13975601D01*
X475000Y-13975601D01*
X475000Y-8359242D01*
X35100000Y-8359242D01*
X35100000Y-9910758D01*
X35693739Y-11344173D01*
X36790827Y-12441261D01*
X38224242Y-13035000D01*
X39775758Y-13035000D01*
X41209173Y-12441261D01*
X42306261Y-11344173D01*
X42900000Y-9910758D01*
X42900000Y-8359242D01*
X67100000Y-8359242D01*
X67100000Y-9910758D01*
X67693739Y-11344173D01*
X68790827Y-12441261D01*
X70224242Y-13035000D01*
X71775758Y-13035000D01*
X73209173Y-12441261D01*
X74306261Y-11344173D01*
X74900000Y-9910758D01*
X74900000Y-8359242D01*
X74306261Y-6925827D01*
X73209173Y-5828739D01*
X71775758Y-5235000D01*
X70224242Y-5235000D01*
X68790827Y-5828739D01*
X67693739Y-6925827D01*
X67100000Y-8359242D01*
X42900000Y-8359242D01*
X42306261Y-6925827D01*
X41209173Y-5828739D01*
X39775758Y-5235000D01*
X38224242Y-5235000D01*
X36790827Y-5828739D01*
X35693739Y-6925827D01*
X35100000Y-8359242D01*
X475000Y-8359242D01*
X475000Y-2033842D01*
X540949Y-1573342D01*
X719342Y-1180986D01*
X1000688Y-854468D01*
X1362368Y-620039D01*
X1791043Y-491838D01*
X2017626Y-475000D01*
X103966158Y-475000D01*
X104426658Y-540949D01*
X104426658Y-540949D01*
G37*
X104426658Y-540949D02*
X104819014Y-719342D01*
X105145532Y-1000688D01*
X105379961Y-1362368D01*
X105508162Y-1791043D01*
X105525000Y-2017626D01*
X105525001Y-37966151D01*
X105459052Y-38426656D01*
X105280658Y-38819015D01*
X104999312Y-39145532D01*
X104637631Y-39379962D01*
X104208957Y-39508162D01*
X103982374Y-39525000D01*
X2033842Y-39525000D01*
X1573344Y-39459052D01*
X1180985Y-39280658D01*
X854468Y-38999312D01*
X620038Y-38637631D01*
X491838Y-38208957D01*
X475000Y-37982374D01*
X475000Y-32881196D01*
X67300000Y-32881196D01*
X67300000Y-33318804D01*
X67467465Y-33723100D01*
X67776900Y-34032535D01*
X68181196Y-34200000D01*
X68618804Y-34200000D01*
X69023100Y-34032535D01*
X69332535Y-33723100D01*
X69500000Y-33318804D01*
X69500000Y-32881196D01*
X69800000Y-32881196D01*
X69800000Y-33318804D01*
X69967465Y-33723100D01*
X70276900Y-34032535D01*
X70681196Y-34200000D01*
X71118804Y-34200000D01*
X71523100Y-34032535D01*
X71832535Y-33723100D01*
X72000000Y-33318804D01*
X72000000Y-32881196D01*
X72300000Y-32881196D01*
X72300000Y-33318804D01*
X72467465Y-33723100D01*
X72776900Y-34032535D01*
X73181196Y-34200000D01*
X73618804Y-34200000D01*
X74023100Y-34032535D01*
X74332535Y-33723100D01*
X74500000Y-33318804D01*
X74500000Y-32881196D01*
X77300000Y-32881196D01*
X77300000Y-33318804D01*
X77467465Y-33723100D01*
X77776900Y-34032535D01*
X78181196Y-34200000D01*
X78618804Y-34200000D01*
X79023100Y-34032535D01*
X79332535Y-33723100D01*
X79500000Y-33318804D01*
X79500000Y-32881196D01*
X79800000Y-32881196D01*
X79800000Y-33318804D01*
X79967465Y-33723100D01*
X80276900Y-34032535D01*
X80681196Y-34200000D01*
X81118804Y-34200000D01*
X81523100Y-34032535D01*
X81832535Y-33723100D01*
X82000000Y-33318804D01*
X82000000Y-32881196D01*
X82300000Y-32881196D01*
X82300000Y-33318804D01*
X82467465Y-33723100D01*
X82776900Y-34032535D01*
X83181196Y-34200000D01*
X83618804Y-34200000D01*
X84023100Y-34032535D01*
X84332535Y-33723100D01*
X84500000Y-33318804D01*
X84500000Y-32881196D01*
X87300000Y-32881196D01*
X87300000Y-33318804D01*
X87467465Y-33723100D01*
X87776900Y-34032535D01*
X88181196Y-34200000D01*
X88618804Y-34200000D01*
X89023100Y-34032535D01*
X89332535Y-33723100D01*
X89500000Y-33318804D01*
X89500000Y-32881196D01*
X89800000Y-32881196D01*
X89800000Y-33318804D01*
X89967465Y-33723100D01*
X90276900Y-34032535D01*
X90681196Y-34200000D01*
X91118804Y-34200000D01*
X91523100Y-34032535D01*
X91832535Y-33723100D01*
X92000000Y-33318804D01*
X92000000Y-32881196D01*
X92300000Y-32881196D01*
X92300000Y-33318804D01*
X92467465Y-33723100D01*
X92776900Y-34032535D01*
X93181196Y-34200000D01*
X93618804Y-34200000D01*
X94023100Y-34032535D01*
X94332535Y-33723100D01*
X94500000Y-33318804D01*
X94500000Y-32881196D01*
X94332535Y-32476900D01*
X94023100Y-32167465D01*
X93618804Y-32000000D01*
X93181196Y-32000000D01*
X92776900Y-32167465D01*
X92467465Y-32476900D01*
X92300000Y-32881196D01*
X92000000Y-32881196D01*
X91832535Y-32476900D01*
X91523100Y-32167465D01*
X91118804Y-32000000D01*
X90681196Y-32000000D01*
X90276900Y-32167465D01*
X89967465Y-32476900D01*
X89800000Y-32881196D01*
X89500000Y-32881196D01*
X89332535Y-32476900D01*
X89023100Y-32167465D01*
X88618804Y-32000000D01*
X88181196Y-32000000D01*
X87776900Y-32167465D01*
X87467465Y-32476900D01*
X87300000Y-32881196D01*
X84500000Y-32881196D01*
X84332535Y-32476900D01*
X84023100Y-32167465D01*
X83618804Y-32000000D01*
X83181196Y-32000000D01*
X82776900Y-32167465D01*
X82467465Y-32476900D01*
X82300000Y-32881196D01*
X82000000Y-32881196D01*
X81832535Y-32476900D01*
X81523100Y-32167465D01*
X81118804Y-32000000D01*
X80681196Y-32000000D01*
X80276900Y-32167465D01*
X79967465Y-32476900D01*
X79800000Y-32881196D01*
X79500000Y-32881196D01*
X79332535Y-32476900D01*
X79023100Y-32167465D01*
X78618804Y-32000000D01*
X78181196Y-32000000D01*
X77776900Y-32167465D01*
X77467465Y-32476900D01*
X77300000Y-32881196D01*
X74500000Y-32881196D01*
X74332535Y-32476900D01*
X74023100Y-32167465D01*
X73618804Y-32000000D01*
X73181196Y-32000000D01*
X72776900Y-32167465D01*
X72467465Y-32476900D01*
X72300000Y-32881196D01*
X72000000Y-32881196D01*
X71832535Y-32476900D01*
X71523100Y-32167465D01*
X71118804Y-32000000D01*
X70681196Y-32000000D01*
X70276900Y-32167465D01*
X69967465Y-32476900D01*
X69800000Y-32881196D01*
X69500000Y-32881196D01*
X69332535Y-32476900D01*
X69023100Y-32167465D01*
X68618804Y-32000000D01*
X68181196Y-32000000D01*
X67776900Y-32167465D01*
X67467465Y-32476900D01*
X67300000Y-32881196D01*
X475000Y-32881196D01*
X475000Y-30381196D01*
X67300000Y-30381196D01*
X67300000Y-30818804D01*
X67467465Y-31223100D01*
X67776900Y-31532535D01*
X68181196Y-31700000D01*
X68618804Y-31700000D01*
X69023100Y-31532535D01*
X69332535Y-31223100D01*
X69500000Y-30818804D01*
X69500000Y-30381196D01*
X69800000Y-30381196D01*
X69800000Y-30818804D01*
X69967465Y-31223100D01*
X70276900Y-31532535D01*
X70681196Y-31700000D01*
X71118804Y-31700000D01*
X71523100Y-31532535D01*
X71832535Y-31223100D01*
X72000000Y-30818804D01*
X72000000Y-30381196D01*
X72300000Y-30381196D01*
X72300000Y-30818804D01*
X72467465Y-31223100D01*
X72776900Y-31532535D01*
X73181196Y-31700000D01*
X73618804Y-31700000D01*
X74023100Y-31532535D01*
X74332535Y-31223100D01*
X74500000Y-30818804D01*
X74500000Y-30381196D01*
X77300000Y-30381196D01*
X77300000Y-30818804D01*
X77467465Y-31223100D01*
X77776900Y-31532535D01*
X78181196Y-31700000D01*
X78618804Y-31700000D01*
X79023100Y-31532535D01*
X79332535Y-31223100D01*
X79500000Y-30818804D01*
X79500000Y-30381196D01*
X79800000Y-30381196D01*
X79800000Y-30818804D01*
X79967465Y-31223100D01*
X80276900Y-31532535D01*
X80681196Y-31700000D01*
X81118804Y-31700000D01*
X81523100Y-31532535D01*
X81832535Y-31223100D01*
X82000000Y-30818804D01*
X82000000Y-30381196D01*
X82300000Y-30381196D01*
X82300000Y-30818804D01*
X82467465Y-31223100D01*
X82776900Y-31532535D01*
X83181196Y-31700000D01*
X83618804Y-31700000D01*
X84023100Y-31532535D01*
X84332535Y-31223100D01*
X84500000Y-30818804D01*
X84500000Y-30381196D01*
X87300000Y-30381196D01*
X87300000Y-30818804D01*
X87467465Y-31223100D01*
X87776900Y-31532535D01*
X88181196Y-31700000D01*
X88618804Y-31700000D01*
X89023100Y-31532535D01*
X89332535Y-31223100D01*
X89500000Y-30818804D01*
X89500000Y-30381196D01*
X89800000Y-30381196D01*
X89800000Y-30818804D01*
X89967465Y-31223100D01*
X90276900Y-31532535D01*
X90681196Y-31700000D01*
X91118804Y-31700000D01*
X91523100Y-31532535D01*
X91832535Y-31223100D01*
X92000000Y-30818804D01*
X92000000Y-30381196D01*
X92300000Y-30381196D01*
X92300000Y-30818804D01*
X92467465Y-31223100D01*
X92776900Y-31532535D01*
X93181196Y-31700000D01*
X93618804Y-31700000D01*
X94023100Y-31532535D01*
X94332535Y-31223100D01*
X94500000Y-30818804D01*
X94500000Y-30381196D01*
X94332535Y-29976900D01*
X94023100Y-29667465D01*
X93618804Y-29500000D01*
X93181196Y-29500000D01*
X92776900Y-29667465D01*
X92467465Y-29976900D01*
X92300000Y-30381196D01*
X92000000Y-30381196D01*
X91832535Y-29976900D01*
X91523100Y-29667465D01*
X91118804Y-29500000D01*
X90681196Y-29500000D01*
X90276900Y-29667465D01*
X89967465Y-29976900D01*
X89800000Y-30381196D01*
X89500000Y-30381196D01*
X89332535Y-29976900D01*
X89023100Y-29667465D01*
X88618804Y-29500000D01*
X88181196Y-29500000D01*
X87776900Y-29667465D01*
X87467465Y-29976900D01*
X87300000Y-30381196D01*
X84500000Y-30381196D01*
X84332535Y-29976900D01*
X84023100Y-29667465D01*
X83618804Y-29500000D01*
X83181196Y-29500000D01*
X82776900Y-29667465D01*
X82467465Y-29976900D01*
X82300000Y-30381196D01*
X82000000Y-30381196D01*
X81832535Y-29976900D01*
X81523100Y-29667465D01*
X81118804Y-29500000D01*
X80681196Y-29500000D01*
X80276900Y-29667465D01*
X79967465Y-29976900D01*
X79800000Y-30381196D01*
X79500000Y-30381196D01*
X79332535Y-29976900D01*
X79023100Y-29667465D01*
X78618804Y-29500000D01*
X78181196Y-29500000D01*
X77776900Y-29667465D01*
X77467465Y-29976900D01*
X77300000Y-30381196D01*
X74500000Y-30381196D01*
X74332535Y-29976900D01*
X74023100Y-29667465D01*
X73618804Y-29500000D01*
X73181196Y-29500000D01*
X72776900Y-29667465D01*
X72467465Y-29976900D01*
X72300000Y-30381196D01*
X72000000Y-30381196D01*
X71832535Y-29976900D01*
X71523100Y-29667465D01*
X71118804Y-29500000D01*
X70681196Y-29500000D01*
X70276900Y-29667465D01*
X69967465Y-29976900D01*
X69800000Y-30381196D01*
X69500000Y-30381196D01*
X69332535Y-29976900D01*
X69023100Y-29667465D01*
X68618804Y-29500000D01*
X68181196Y-29500000D01*
X67776900Y-29667465D01*
X67467465Y-29976900D01*
X67300000Y-30381196D01*
X475000Y-30381196D01*
X475000Y-27881196D01*
X67300000Y-27881196D01*
X67300000Y-28318804D01*
X67467465Y-28723100D01*
X67776900Y-29032535D01*
X68181196Y-29200000D01*
X68618804Y-29200000D01*
X69023100Y-29032535D01*
X69332535Y-28723100D01*
X69500000Y-28318804D01*
X69500000Y-27881196D01*
X69800000Y-27881196D01*
X69800000Y-28318804D01*
X69967465Y-28723100D01*
X70276900Y-29032535D01*
X70681196Y-29200000D01*
X71118804Y-29200000D01*
X71523100Y-29032535D01*
X71832535Y-28723100D01*
X72000000Y-28318804D01*
X72000000Y-27881196D01*
X72300000Y-27881196D01*
X72300000Y-28318804D01*
X72467465Y-28723100D01*
X72776900Y-29032535D01*
X73181196Y-29200000D01*
X73618804Y-29200000D01*
X74023100Y-29032535D01*
X74332535Y-28723100D01*
X74500000Y-28318804D01*
X74500000Y-27881196D01*
X77300000Y-27881196D01*
X77300000Y-28318804D01*
X77467465Y-28723100D01*
X77776900Y-29032535D01*
X78181196Y-29200000D01*
X78618804Y-29200000D01*
X79023100Y-29032535D01*
X79332535Y-28723100D01*
X79500000Y-28318804D01*
X79500000Y-27881196D01*
X79800000Y-27881196D01*
X79800000Y-28318804D01*
X79967465Y-28723100D01*
X80276900Y-29032535D01*
X80681196Y-29200000D01*
X81118804Y-29200000D01*
X81523100Y-29032535D01*
X81832535Y-28723100D01*
X82000000Y-28318804D01*
X82000000Y-27881196D01*
X82300000Y-27881196D01*
X82300000Y-28318804D01*
X82467465Y-28723100D01*
X82776900Y-29032535D01*
X83181196Y-29200000D01*
X83618804Y-29200000D01*
X84023100Y-29032535D01*
X84332535Y-28723100D01*
X84500000Y-28318804D01*
X84500000Y-27881196D01*
X87300000Y-27881196D01*
X87300000Y-28318804D01*
X87467465Y-28723100D01*
X87776900Y-29032535D01*
X88181196Y-29200000D01*
X88618804Y-29200000D01*
X89023100Y-29032535D01*
X89332535Y-28723100D01*
X89500000Y-28318804D01*
X89500000Y-27881196D01*
X89800000Y-27881196D01*
X89800000Y-28318804D01*
X89967465Y-28723100D01*
X90276900Y-29032535D01*
X90681196Y-29200000D01*
X91118804Y-29200000D01*
X91523100Y-29032535D01*
X91832535Y-28723100D01*
X92000000Y-28318804D01*
X92000000Y-27881196D01*
X92300000Y-27881196D01*
X92300000Y-28318804D01*
X92467465Y-28723100D01*
X92776900Y-29032535D01*
X93181196Y-29200000D01*
X93618804Y-29200000D01*
X94023100Y-29032535D01*
X94332535Y-28723100D01*
X94500000Y-28318804D01*
X94500000Y-27881196D01*
X94332535Y-27476900D01*
X94023100Y-27167465D01*
X93618804Y-27000000D01*
X93181196Y-27000000D01*
X92776900Y-27167465D01*
X92467465Y-27476900D01*
X92300000Y-27881196D01*
X92000000Y-27881196D01*
X91832535Y-27476900D01*
X91523100Y-27167465D01*
X91118804Y-27000000D01*
X90681196Y-27000000D01*
X90276900Y-27167465D01*
X89967465Y-27476900D01*
X89800000Y-27881196D01*
X89500000Y-27881196D01*
X89332535Y-27476900D01*
X89023100Y-27167465D01*
X88618804Y-27000000D01*
X88181196Y-27000000D01*
X87776900Y-27167465D01*
X87467465Y-27476900D01*
X87300000Y-27881196D01*
X84500000Y-27881196D01*
X84332535Y-27476900D01*
X84023100Y-27167465D01*
X83618804Y-27000000D01*
X83181196Y-27000000D01*
X82776900Y-27167465D01*
X82467465Y-27476900D01*
X82300000Y-27881196D01*
X82000000Y-27881196D01*
X81832535Y-27476900D01*
X81523100Y-27167465D01*
X81118804Y-27000000D01*
X80681196Y-27000000D01*
X80276900Y-27167465D01*
X79967465Y-27476900D01*
X79800000Y-27881196D01*
X79500000Y-27881196D01*
X79332535Y-27476900D01*
X79023100Y-27167465D01*
X78618804Y-27000000D01*
X78181196Y-27000000D01*
X77776900Y-27167465D01*
X77467465Y-27476900D01*
X77300000Y-27881196D01*
X74500000Y-27881196D01*
X74332535Y-27476900D01*
X74023100Y-27167465D01*
X73618804Y-27000000D01*
X73181196Y-27000000D01*
X72776900Y-27167465D01*
X72467465Y-27476900D01*
X72300000Y-27881196D01*
X72000000Y-27881196D01*
X71832535Y-27476900D01*
X71523100Y-27167465D01*
X71118804Y-27000000D01*
X70681196Y-27000000D01*
X70276900Y-27167465D01*
X69967465Y-27476900D01*
X69800000Y-27881196D01*
X69500000Y-27881196D01*
X69332535Y-27476900D01*
X69023100Y-27167465D01*
X68618804Y-27000000D01*
X68181196Y-27000000D01*
X67776900Y-27167465D01*
X67467465Y-27476900D01*
X67300000Y-27881196D01*
X475000Y-27881196D01*
X475000Y-13975601D01*
X85850000Y-13975601D01*
X85850000Y-16024399D01*
X86634041Y-17917240D01*
X88082760Y-19365959D01*
X89975601Y-20150000D01*
X92024399Y-20150000D01*
X93917240Y-19365959D01*
X95365959Y-17917240D01*
X96150000Y-16024399D01*
X96150000Y-13975601D01*
X95365959Y-12082760D01*
X93917240Y-10634041D01*
X92024399Y-9850000D01*
X89975601Y-9850000D01*
X88082760Y-10634041D01*
X86634041Y-12082760D01*
X85850000Y-13975601D01*
X475000Y-13975601D01*
X475000Y-8359242D01*
X35100000Y-8359242D01*
X35100000Y-9910758D01*
X35693739Y-11344173D01*
X36790827Y-12441261D01*
X38224242Y-13035000D01*
X39775758Y-13035000D01*
X41209173Y-12441261D01*
X42306261Y-11344173D01*
X42900000Y-9910758D01*
X42900000Y-8359242D01*
X67100000Y-8359242D01*
X67100000Y-9910758D01*
X67693739Y-11344173D01*
X68790827Y-12441261D01*
X70224242Y-13035000D01*
X71775758Y-13035000D01*
X73209173Y-12441261D01*
X74306261Y-11344173D01*
X74900000Y-9910758D01*
X74900000Y-8359242D01*
X74306261Y-6925827D01*
X73209173Y-5828739D01*
X71775758Y-5235000D01*
X70224242Y-5235000D01*
X68790827Y-5828739D01*
X67693739Y-6925827D01*
X67100000Y-8359242D01*
X42900000Y-8359242D01*
X42306261Y-6925827D01*
X41209173Y-5828739D01*
X39775758Y-5235000D01*
X38224242Y-5235000D01*
X36790827Y-5828739D01*
X35693739Y-6925827D01*
X35100000Y-8359242D01*
X475000Y-8359242D01*
X475000Y-2033842D01*
X540949Y-1573342D01*
X719342Y-1180986D01*
X1000688Y-854468D01*
X1362368Y-620039D01*
X1791043Y-491838D01*
X2017626Y-475000D01*
X103966158Y-475000D01*
X104426658Y-540949D01*
G04 #@! TD*
M02*
